<?xml version="1.0" encoding="utf-8"?>
<!-- Generator: Adobe Illustrator 19.1.0, SVG Export Plug-In . SVG Version: 6.00 Build 0)  -->
<svg version="1.1" id="Layer_1" xmlns="http://www.w3.org/2000/svg" xmlns:xlink="http://www.w3.org/1999/xlink" x="0px" y="0px"
	 viewBox="0 0 185.5 185.5" style="enable-background:new 0 0 185.5 185.5;" xml:space="preserve">
<style type="text/css">
	.st0{fill:#FFFFFF;}
	.st1{fill:#D1D3D4;}
	.st2{opacity:0.48;}
</style>
<g>
	<path class="st0" d="M-99.1-39.5C-99.1-39.5-99.1-39.5-99.1-39.5c-0.1,0-0.1-0.1-0.2-0.1c0,0-0.1,0-0.1,0c-0.3-0.6-0.6-1.2-1-1.7
		c0-0.1-0.1-0.2-0.2-0.3c-0.2-0.3-0.7-0.8-1.1-0.6c-0.3-0.1-0.5,0-0.6,0.4c0,0,0,0,0,0c-0.1,0.1-0.2,0.3-0.2,0.4
		c0,0.8,0.6,1.3,1.4,1.7c0.5,0.4,1.2,0.6,1.8,0.7c0,0,0.1,0,0.1,0c0.1,0.1,0.1,0.1,0.2,0.1C-98.6-39-98.7-39.6-99.1-39.5z"/>
	<path class="st0" d="M-100.7-46.8c-0.1,0-0.3-0.4-0.3-0.4c-0.1-0.2-0.3-0.3-0.5-0.4c-0.4-0.2-0.8-0.4-1.3-0.5
		c-0.3-0.1-0.5,0.4-0.2,0.5c0.5,0.1,1,0.2,1.4,0.5c0.3,0.2,0.4,0.8,0.9,0.8C-100.4-46.2-100.3-46.7-100.7-46.8z"/>
	<path class="st0" d="M-97.5-49.1c-0.2-0.3-0.6-0.4-0.9-0.1c-0.3,0.3-0.2,0.7-0.2,1c-0.2,0.3-0.4,0.7-0.6,1c0,0.1-0.1,0.2-0.1,0.3
		c-0.1,0.1-0.1,0.1-0.2,0.2c-0.3,0.2,0.1,0.6,0.4,0.4c0,0,0.1-0.1,0.1-0.1c0,0,0.1,0,0.1,0c0.8,0.3,1.5-1,1.6-1.6
		C-97.2-48.3-97.2-48.8-97.5-49.1z"/>
	<path class="st0" d="M-93.4-36.8c-0.4,0-0.4,0.6,0,0.6c0.7,0,0.4,0.8,0.4,1.3c0,0.3,0.1,0.7,0.1,1.1c0-0.1,0-0.2,0-0.2
		c-0.1-0.4-0.6-0.3-0.6,0.1c0.1,0.3,0.1,0.6,0.1,1c0,0.2,0.2,0.4,0.4,0.3c0.9-0.5,0.6-1.6,0.6-2.4C-92.4-36-92.2-36.8-93.4-36.8z"/>
	<path class="st0" d="M-92.2-35.2c0-0.3,0-0.5-0.1-0.8c-0.1-0.2-0.2-0.2-0.3-0.2c-0.1-0.2-0.3-0.4-0.6-0.5c-0.5-0.1-1,0.1-1.1,0.6
		c-0.1,0.6,0.3,1.5,0.5,2.1c0.1,0.2,0.3,0.2,0.4,0.2c0,0.2,0,0.4,0,0.6c-0.1,0.5,0.7,0.6,0.8,0.1c0-0.2,0-0.3,0-0.5
		c0.1,0,0.1,0,0.2-0.1C-91.9-34.1-92-34.6-92.2-35.2C-92.2-35.1-92.2-35.2-92.2-35.2z"/>
	<path class="st0" d="M-87.2-27.8c0,0,0.1-0.1,0.1-0.2c0-1.1,0.2-4.6-1.7-4.3c-1.1,0.2-1.1,1.4-0.5,2.1c0,0,0,0,0,0.1
		c0.1,0.4,0.3,0.8,0.5,1.2c0.1,0.2,0.4,0.4,0.6,0.6c0,0.1,0,0.1,0.1,0.2c0.1,0.1,0.2,0.2,0.3,0.2c0,0.1,0.1,0.1,0.1,0.2
		c0,0.1,0.1,0.1,0.1,0.1c-0.1,0.2,0,0.6,0.4,0.6C-87-27.1-87-27.6-87.2-27.8z"/>
	<path class="st0" d="M-94.7-32.2c-0.5-0.3-1-0.5-1.5-0.8c-0.2-0.3-0.5-0.4-0.8-0.5c-0.2-0.2-0.4-0.4-0.7-0.5
		c-0.5-0.2-1.5-0.3-1.7,0.4c-0.1,0.2,0,0.4,0.1,0.6c0,0.1,0,0.2,0.1,0.3c0.2,0.3,0.4,0.4,0.7,0.5c0.2,0.1,0.3,0.2,0.4,0.3
		c0.3,0.2,0.7,0.4,1.1,0.4c0.1,0,0.2,0,0.3,0c0.5,0.2,0.9,0.2,1.4,0.1c0.1,0,0.2,0,0.4,0C-94.6-31.5-94.5-32-94.7-32.2z"/>
	<path class="st0" d="M-88.7-25.8c-0.6-0.3-1.3-0.5-1.9-0.7c-0.6-0.2-1.9-0.9-2.5-0.4c-0.5,0.4-0.1,1.1,0.4,1.3c0,0,0,0,0.1,0
		c0.3,0.4,0.9,0.6,1.4,0.7c0.9,0.2,2.2,0.4,3-0.2c0.1-0.1,0.2-0.2,0.1-0.4C-88.3-25.7-88.5-25.7-88.7-25.8z"/>
	<path class="st0" d="M-96.1-42.9c0-0.3-0.5-0.6-0.7-0.2c-0.1,0.3-0.2,0.5-0.3,0.8c0,0.1-0.1,0.2-0.1,0.3c-0.2,0.8-0.4,1.6-0.6,2.3
		c-0.2,0.5,0.6,0.7,0.7,0.3c0-0.1,0-0.1,0.1-0.2c0.1,0,0.2,0,0.3,0c0.5-0.1,0.9-0.5,1-0.9C-95.4-40.9-95.4-42.6-96.1-42.9z"/>
	<path class="st0" d="M-98.8-55.9c-0.7-0.1-1.3,0.6-1.6,1.2c-0.5,0.9-0.2,2.2-0.2,3.2c0,0.5,0.8,0.6,0.8,0.1c0-0.1,0-0.2,0-0.3
		c0.1,0,0.2,0,0.3-0.1c0.6-0.6,1.3-1.4,1.4-2.3C-98-54.6-98.1-55.8-98.8-55.9z"/>
	<path class="st0" d="M-100.8-47.1c-0.7-0.6-0.8-1.6-1.5-2.1c-0.2-0.2-0.5-0.3-0.7-0.2c-0.1,0-0.1,0-0.2,0c-0.6,0.3-0.7,1.1,0,1.5
		c0.1,0.1,0.2,0.1,0.3,0.1c0,0.1,0,0.1,0.1,0.2c0.1,0.1,0.2,0.2,0.2,0.3c0.1,0.1,0.1,0.1,0.2,0.1c0,0.1,0.1,0.1,0.1,0.1
		c0.3,0.3,0.7,0.5,1.1,0.7C-100.7-46.3-100.5-46.8-100.8-47.1z"/>
	<g>
		<path class="st0" d="M-71.8-11.7c-0.1,0-0.2,0-0.2-0.1c-1.4-3-3.9-5.8-7.6-8.6c-1.4-1.1-2.9-2.1-4.3-3c-2.5-1.7-5-3.4-7.2-5.4
			c-5.9-5.5-9.4-13.6-9.4-21.8c0-0.1,0.1-0.2,0.2-0.2c0.1,0,0.2,0.1,0.2,0.2c0,8.1,3.4,16.1,9.2,21.5c2.2,2,4.7,3.8,7.2,5.4
			c1.4,1,2.9,2,4.3,3c3.8,2.8,6.3,5.7,7.7,8.8C-71.6-11.9-71.6-11.8-71.8-11.7C-71.7-11.7-71.8-11.7-71.8-11.7z"/>
	</g>
	<g>
		<path class="st0" d="M-87.3-25.9C-87.4-25.9-87.4-25.9-87.3-25.9c-0.1,0-0.2-0.1-0.2-0.2c0-0.6-0.2-1.2-0.8-1.9
			c-0.2-0.2-0.4-0.4-0.5-0.6c-0.3-0.3-0.6-0.7-0.9-1.1c-0.3-0.5-0.5-1-0.5-1.5c0-0.6,0.4-1.1,0.9-1.3c0.5-0.2,1,0,1.4,0.4
			c0.4,0.3,0.6,0.8,0.7,1.2c0.6,1.5,0.2,3.2-0.1,4.7l0,0.2C-87.2-26-87.3-26-87.3-25.9z M-89-32.3c0,0-0.1,0-0.1,0
			c-0.4,0.1-0.6,0.5-0.7,1c0,0.4,0.1,0.8,0.4,1.3c0.2,0.4,0.5,0.7,0.8,1.1c0.2,0.2,0.4,0.4,0.5,0.7c0.3,0.4,0.5,0.8,0.7,1.2
			c0.2-1.3,0.4-2.6,0-3.8c-0.1-0.3-0.3-0.8-0.7-1.1C-88.3-32.2-88.7-32.3-89-32.3z"/>
	</g>
	<g>
		<path class="st0" d="M-89.5-24.3c-0.7,0.1-1.4,0.1-2-0.1c-0.9-0.3-1.9-1-2-1.8c-0.1-0.3,0-0.6,0.2-0.8c0.3-0.3,0.8-0.5,1.3-0.4
			c0.6,0.1,1.2,0.3,1.6,0.6c0.1,0,0.2,0.1,0.3,0.1c0.4,0.2,0.8,0.4,1.2,0.5c0.6,0.2,1.1,0.2,1.3,0c0.1-0.1,0.2,0,0.2,0
			c0.1,0.1,0,0.2,0,0.2c-0.2,0.1-0.3,0.3-0.5,0.5c-0.3,0.3-0.6,0.7-1,0.9C-89.1-24.4-89.3-24.4-89.5-24.3z M-92.6-27
			c-0.2,0-0.4,0.1-0.5,0.3c-0.1,0.1-0.2,0.3-0.1,0.5c0.1,0.6,0.9,1.2,1.8,1.5c0.8,0.2,1.7,0.2,2.4,0c0.4-0.1,0.6-0.4,0.9-0.8
			c0,0,0.1-0.1,0.1-0.1c-0.4,0-0.8-0.1-0.9-0.1c-0.5-0.1-0.9-0.4-1.3-0.6c-0.1,0-0.2-0.1-0.3-0.1c-0.5-0.2-1-0.5-1.5-0.5
			C-92.3-27.1-92.4-27.1-92.6-27z"/>
	</g>
	<g>
		<path class="st0" d="M-93.6-32c-0.1,0-0.1,0-0.1,0c-0.1-0.1-0.1-0.1,0-0.2c0.3-0.5,0.1-1.2,0-1.5c-0.1-0.2-0.2-0.4-0.3-0.5
			c-0.2-0.3-0.3-0.7-0.4-1c-0.1-0.6,0-1.4,0.6-1.7c0.5-0.2,1.1-0.1,1.5,0.3c0.3,0.3,0.5,0.8,0.6,1.4C-91.7-34-92.2-33-93.6-32
			C-93.5-32-93.6-32-93.6-32z M-93.5-36.7c-0.1,0-0.1,0-0.2,0.1c-0.4,0.2-0.5,0.8-0.4,1.3c0.1,0.3,0.2,0.6,0.4,1
			c0.1,0.2,0.2,0.4,0.3,0.6c0.1,0.3,0.3,0.7,0.2,1.2c0.9-0.8,1.2-1.6,1.1-2.6c-0.1-0.5-0.2-0.9-0.5-1.2
			C-92.9-36.7-93.2-36.8-93.5-36.7z"/>
	</g>
	<g>
		<path class="st0" d="M-95.3-31.2c-1.1,0.2-2.2,0-3.2-0.5c-0.5-0.3-0.8-0.5-1-0.9c-0.3-0.5-0.3-1,0-1.4c0.2-0.3,0.6-0.5,1-0.5
			c0.3,0,0.7,0.1,1,0.3c0.4,0.2,0.8,0.5,1.1,0.7c0.2,0.1,0.3,0.3,0.5,0.4l0.1,0.1c0.5,0.3,1.3,0.9,1.9,0.9c0.1,0,0.1,0,0.2,0.1
			c0,0.1,0,0.2-0.1,0.2C-94.2-31.5-94.8-31.3-95.3-31.2z M-98.7-34.1c-0.2,0-0.4,0.2-0.6,0.3c-0.2,0.3-0.2,0.7,0,1
			c0.2,0.3,0.5,0.5,0.9,0.8c1.2,0.6,2.8,0.7,4,0.1c-0.5-0.2-1.1-0.6-1.6-0.9l-0.1-0.1c-0.2-0.1-0.4-0.2-0.5-0.4
			c-0.3-0.2-0.7-0.5-1.1-0.7c-0.3-0.2-0.6-0.2-0.9-0.2C-98.6-34.1-98.6-34.1-98.7-34.1z"/>
	</g>
	<g>
		<path class="st0" d="M-100.2-50.3C-100.2-50.3-100.2-50.3-100.2-50.3c-0.1,0-0.2,0-0.2-0.1c-0.5-1.4-0.8-3.5,0.2-5
			c0.1-0.2,0.3-0.5,0.6-0.7c0.3-0.2,0.7-0.3,1-0.2c0.6,0.2,0.8,0.8,0.8,1.3c0,1-0.5,1.8-0.9,2.5c-0.1,0.2-0.2,0.3-0.3,0.5
			c-0.4,0.5-0.8,1.1-1,1.7C-100.1-50.3-100.2-50.3-100.2-50.3z M-99.1-55.9c-0.1,0-0.3,0.1-0.4,0.2c-0.2,0.2-0.4,0.4-0.5,0.6
			c-0.8,1.3-0.7,3-0.3,4.3c0.2-0.5,0.6-0.9,0.9-1.3c0.1-0.2,0.2-0.3,0.3-0.5c0.4-0.6,0.9-1.4,0.9-2.3c0-0.4-0.2-0.9-0.6-1
			C-98.8-56-98.9-56-99.1-55.9z"/>
	</g>
	<g>
		<path class="st0" d="M-98.1-38.9C-98.1-38.9-98.1-38.9-98.1-38.9c-1.7,0.2-3-0.2-3.9-1.2c-0.5-0.5-0.7-0.9-0.8-1.4
			c-0.1-0.6,0.2-1.1,0.7-1.2c0.7-0.2,1.4,0.3,1.8,0.8c0.3,0.3,0.4,0.7,0.6,1c0.1,0.2,0.2,0.4,0.3,0.6c0.4,0.6,0.8,1,1.3,1.1
			c0.1,0,0.1,0.1,0.1,0.2C-98-38.9-98-38.9-98.1-38.9z M-101.9-42.3C-102-42.3-102-42.3-101.9-42.3c-0.4,0.1-0.6,0.5-0.5,0.9
			c0.1,0.4,0.3,0.8,0.7,1.2c0.8,0.8,1.7,1.1,3,1.1c-0.4-0.3-0.7-0.7-0.8-0.9c-0.1-0.2-0.2-0.4-0.3-0.6c-0.2-0.3-0.3-0.7-0.6-1
			C-100.9-42.1-101.5-42.4-101.9-42.3z"/>
	</g>
	<g>
		<path class="st0" d="M-100-46C-100-46-100-46-100-46c-1.5-0.2-3.2-1-3.7-2.4c-0.1-0.2-0.1-0.4-0.1-0.7c0-0.3,0.2-0.6,0.4-0.7
			c0.4-0.3,0.9-0.1,1.3,0.2c0.6,0.5,1,1.2,1.3,1.8c0.3,0.5,0.5,1,0.9,1.5c0,0.1,0.1,0.1,0,0.2C-99.9-46-100-46-100-46z M-103.1-49.5
			c-0.1,0-0.1,0-0.2,0.1c-0.1,0.1-0.2,0.3-0.2,0.4c0,0.2,0,0.3,0.1,0.6c0.4,1.1,1.7,1.8,2.9,2.1c-0.3-0.4-0.5-0.8-0.7-1.2
			c-0.3-0.7-0.7-1.3-1.2-1.7C-102.6-49.4-102.8-49.6-103.1-49.5z"/>
	</g>
	<g>
		<path class="st0" d="M-98.9-46c-0.3,0.1-0.6,0-0.9-0.1c-0.1,0-0.1-0.1-0.1-0.1c0-0.1,0-0.1,0-0.2c0.4-0.4,0.6-1.1,0.8-1.7
			c0.1-0.2,0.1-0.4,0.2-0.6c0.1-0.4,0.3-0.8,0.7-1c0.2-0.1,0.4-0.1,0.6-0.1c0.2,0.1,0.4,0.2,0.5,0.5c0.2,0.3,0.2,0.8,0,1.3
			c-0.2,0.6-0.6,1.2-1.1,1.5C-98.4-46.2-98.6-46.1-98.9-46z M-99.4-46.3c0.4,0.1,0.7,0,1.1-0.3c0.4-0.3,0.8-0.8,0.9-1.3
			c0.1-0.4,0.1-0.8,0-1.1c-0.1-0.1-0.2-0.3-0.3-0.3c-0.1,0-0.2,0-0.3,0c-0.2,0.1-0.4,0.5-0.5,0.8c-0.1,0.2-0.1,0.4-0.2,0.6
			C-98.9-47.4-99.1-46.8-99.4-46.3z"/>
	</g>
	<g>
		<path class="st0" d="M-97.6-38.9c-0.1,0-0.1,0-0.2,0c-0.1,0-0.1,0-0.2-0.1c0,0-0.1-0.1,0-0.2c0.1-0.5,0.2-1,0.3-1.5
			c0.1-0.5,0.1-1,0.3-1.5c0.2-0.5,0.3-1,0.7-1.2c0.4-0.2,0.8-0.1,1.1,0.4c0.4,0.5,0.5,1.3,0.3,2c-0.2,0.6-0.5,1.2-1,1.5
			C-96.7-39.2-97.1-39-97.6-38.9z M-96.5-43c0,0-0.1,0-0.1,0c-0.3,0.2-0.4,0.6-0.6,1c-0.1,0.5-0.2,1-0.3,1.5
			c-0.1,0.4-0.1,0.8-0.2,1.2c0.4-0.1,0.8-0.2,1.1-0.4c0.4-0.3,0.8-0.8,0.9-1.3c0.2-0.6,0.1-1.3-0.2-1.7C-96-42.9-96.2-43.1-96.5-43z
			"/>
	</g>
	<path class="st0" d="M-46.6-49.1C-46.6-49.1-46.5-49.1-46.6-49.1c0.1-0.1,0.1-0.1,0.1-0.1c0,0,0.1-0.1,0.1-0.1
		c0.1-0.7,0.1-1.4,0.4-2c0-0.1,0-0.2,0-0.4c0.1-0.4,0.4-1,0.8-1c0.2-0.1,0.5-0.2,0.7,0.1c0,0,0,0,0,0c0.1,0.1,0.2,0.2,0.3,0.3
		c0.3,0.7-0.1,1.5-0.7,2.1c-0.4,0.6-0.9,1-1.5,1.3c0,0-0.1,0-0.1,0c0,0.1-0.1,0.1-0.2,0.1C-46.8-48.5-46.9-49.1-46.6-49.1z"/>
	<g>
		<path class="st0" d="M-47.7-56.5c0.1,0,0.1-0.5,0.1-0.5c0.1-0.2,0.2-0.4,0.3-0.6c0.3-0.4,0.6-0.6,1-0.9c0.3-0.2,0.7,0.2,0.4,0.4
			c-0.4,0.3-0.8,0.6-1.1,1c-0.2,0.3-0.1,0.9-0.5,1.1C-47.8-55.8-48-56.3-47.7-56.5z"/>
	</g>
	<g>
		<path class="st0" d="M-51.2-56.3c0.3,0.5,1.4,1.5,2.1,1c0,0,0,0,0.1-0.1c0,0,0.1,0,0.1,0c0.4,0.1,0.5-0.4,0.2-0.5
			c-0.1,0-0.2-0.1-0.3-0.1c0-0.1-0.1-0.2-0.2-0.3c-0.3-0.3-0.6-0.5-0.9-0.7c-0.1-0.3-0.2-0.7-0.6-0.9c-0.3-0.1-0.7,0.1-0.8,0.4
			C-51.6-57.1-51.4-56.7-51.2-56.3z"/>
	</g>
	<g>
		<path class="st0" d="M-50.9-44.5c0.3-0.1,0.6,0.4,0.2,0.5c-0.6,0.2-0.1,0.9,0,1.4c0.1,0.2,0.2,0.7,0.3,1.1c0-0.1,0-0.2,0-0.2
			c-0.1-0.4,0.5-0.5,0.6-0.1c0.1,0.3,0.1,0.6,0.2,1c0.1,0.2,0,0.4-0.3,0.4c-1-0.1-1.1-1.3-1.4-2.1C-51.5-43.4-52.1-44.2-50.9-44.5z"
			/>
	</g>
	<path class="st0" d="M-51.5-42.6c-0.1-0.3-0.2-0.5-0.2-0.8c0-0.2,0.1-0.3,0.2-0.3c0.1-0.2,0.2-0.5,0.4-0.7c0.4-0.3,0.9-0.3,1.2,0.2
		c0.4,0.5,0.3,1.5,0.2,2.1c0,0.2-0.2,0.3-0.3,0.3c0.1,0.2,0.1,0.4,0.2,0.6c0.2,0.4-0.5,0.8-0.7,0.3c-0.1-0.1-0.1-0.3-0.2-0.4
		c-0.1,0-0.1,0-0.2,0C-51.4-41.6-51.4-42.1-51.5-42.6C-51.5-42.6-51.5-42.6-51.5-42.6z"/>
	<g>
		<path class="st0" d="M-53.5-33.9c0,0-0.1-0.1-0.1-0.1c-0.4-1-1.9-4.2,0.1-4.7c1.1-0.2,1.5,0.9,1.2,1.7c0,0,0,0,0,0.1
			c0,0.4,0,0.9-0.1,1.3c-0.1,0.2-0.2,0.5-0.3,0.8c0,0.1,0,0.1,0,0.2c0,0.2-0.1,0.3-0.2,0.3c0,0.1,0,0.2,0,0.2c0,0.1,0,0.1-0.1,0.2
			c0.2,0.2,0.2,0.6-0.2,0.7C-53.5-33.3-53.6-33.7-53.5-33.9z"/>
	</g>
	<g>
		<path class="st0" d="M-48-40.7c0.3-0.4,0.7-0.9,1.1-1.3c0.1-0.3,0.3-0.6,0.5-0.7c0.1-0.3,0.3-0.5,0.5-0.7c0.4-0.4,1.3-0.8,1.8-0.2
			C-44-43.5-44-43.2-44-43c0,0.1,0.1,0.2,0,0.3c-0.1,0.3-0.3,0.5-0.5,0.7c-0.1,0.2-0.2,0.3-0.3,0.4c-0.2,0.3-0.5,0.6-0.9,0.7
			c-0.1,0-0.2,0.1-0.3,0.1c-0.4,0.3-0.8,0.5-1.3,0.6c-0.1,0-0.2,0.1-0.3,0.1C-48-40.1-48.2-40.5-48-40.7z"/>
	</g>
	<g>
		<path class="st0" d="M-51.4-32.7c0.5-0.5,1-0.9,1.5-1.4c0.5-0.5,1.4-1.5,2.2-1.2c0.6,0.2,0.5,1,0.1,1.4c0,0,0,0-0.1,0
			c-0.1,0.5-0.6,0.9-1.1,1.2c-0.7,0.5-1.9,1.2-2.8,0.9c-0.1,0-0.2-0.2-0.2-0.3C-51.7-32.3-51.6-32.5-51.4-32.7z"/>
	</g>
	<g>
		<path class="st0" d="M-50.6-51.2c-0.1-0.3,0.2-0.7,0.6-0.4c0.2,0.2,0.4,0.4,0.5,0.6c0.1,0.1,0.1,0.2,0.2,0.3
			c0.4,0.7,0.9,1.3,1.4,2c0.3,0.4-0.3,0.9-0.6,0.5c0,0-0.1-0.1-0.1-0.1c-0.1,0.1-0.1,0.1-0.2,0.1c-0.5,0.1-1-0.1-1.3-0.5
			C-50.5-49.1-51.1-50.6-50.6-51.2z"/>
	</g>
	<g>
		<path class="st0" d="M-52.7-62.4c0.4,0.7,1.4,1.3,2.1,1.6c0.1,0,0.2,0,0.3,0c0,0.1,0.1,0.2,0.1,0.3c0.2,0.5,0.8,0.1,0.7-0.3
			c-0.3-0.9-0.6-2.2-1.3-2.9c-0.4-0.4-1.3-0.8-1.9-0.5C-53.3-64-52.9-62.9-52.7-62.4z"/>
	</g>
	<path class="st0" d="M-47.7-56.8c0.4-0.8,0.2-1.8,0.6-2.5c0.1-0.2,0.3-0.4,0.6-0.4c0.1,0,0.1,0,0.2,0c0.7,0.1,1,0.8,0.6,1.4
		c-0.1,0.1-0.2,0.2-0.2,0.2c0,0.1,0,0.1,0,0.2c0,0.1-0.1,0.2-0.1,0.3c0,0.1-0.1,0.1-0.2,0.2c0,0.1,0,0.1-0.1,0.2
		c-0.2,0.4-0.5,0.8-0.8,1C-47.5-56-47.9-56.5-47.7-56.8z"/>
	<g>
		<path class="st0" d="M-62.2-13.4c0.1,0,0.1-0.1,0.2-0.2c0.2-3.3,1.5-6.8,4-10.8c0.9-1.5,2-3,3-4.4c1.7-2.4,3.5-4.9,4.8-7.7
			c3.5-7.2,3.9-16,1-23.7c0-0.1-0.1-0.1-0.2-0.1c-0.1,0-0.1,0.1-0.1,0.2c2.9,7.5,2.5,16.3-1,23.4c-1.3,2.7-3.1,5.2-4.8,7.6
			c-1,1.4-2,2.9-3,4.4c-2.5,4-3.8,7.6-4.1,10.9C-62.4-13.5-62.3-13.4-62.2-13.4C-62.2-13.4-62.2-13.4-62.2-13.4z"/>
	</g>
	<g>
		<path class="st0" d="M-52.9-32.3l-0.1-0.1c-0.8-1.3-1.8-2.8-1.8-4.4c0-0.4,0-0.9,0.3-1.4c0.3-0.5,0.7-0.8,1.2-0.8
			c0.5,0,1.1,0.3,1.3,0.9c0.2,0.4,0.2,0.9,0.1,1.5c-0.1,0.5-0.3,0.9-0.4,1.3c-0.1,0.3-0.2,0.5-0.3,0.8c-0.3,0.8-0.3,1.5,0,2.1
			c0,0.1,0,0.2-0.1,0.2c0,0,0,0,0,0C-52.8-32.3-52.9-32.3-52.9-32.3z M-54.2-38.1c-0.2,0.4-0.2,0.9-0.2,1.2c0,1.2,0.6,2.5,1.3,3.6
			c0-0.4,0.1-0.9,0.2-1.4c0.1-0.3,0.2-0.5,0.3-0.8c0.2-0.4,0.3-0.9,0.4-1.3c0.1-0.5,0.1-1-0.1-1.3c-0.2-0.4-0.6-0.7-1-0.7
			c0,0-0.1,0-0.1,0C-53.7-38.7-54-38.5-54.2-38.1z"/>
	</g>
	<g>
		<path class="st0" d="M-50.7-31.5c-0.5,0-0.9-0.2-1.3-0.4c-0.2-0.1-0.4-0.2-0.6-0.3c-0.1,0-0.1-0.1-0.1-0.2c0-0.1,0.1-0.1,0.2-0.1
			c0.3,0.1,0.8-0.1,1.2-0.5c0.3-0.3,0.7-0.6,1-0.9c0.1-0.1,0.1-0.2,0.2-0.2c0.4-0.4,0.8-0.8,1.3-1.1c0.5-0.2,1-0.3,1.3-0.1
			c0.3,0.1,0.4,0.4,0.5,0.6c0.1,0.8-0.6,1.8-1.3,2.4c-0.6,0.4-1.2,0.7-1.9,0.9C-50.3-31.5-50.5-31.5-50.7-31.5z M-48.7-35
			c-0.5,0.2-0.9,0.7-1.2,1c-0.1,0.1-0.1,0.2-0.2,0.2c-0.3,0.3-0.6,0.7-1,1c-0.1,0.1-0.5,0.3-0.8,0.5c0,0,0.1,0.1,0.1,0.1
			c0.4,0.2,0.7,0.4,1.1,0.4c0.8,0,1.6-0.3,2.2-0.8c0.7-0.6,1.3-1.5,1.2-2c0-0.2-0.1-0.3-0.3-0.4c-0.2-0.1-0.4-0.1-0.6-0.1
			C-48.4-35.1-48.5-35.1-48.7-35z"/>
	</g>
	<g>
		<path class="st0" d="M-49.1-40.1c-1.6-0.4-2.5-1.3-2.8-2.5c-0.1-0.6-0.1-1.1,0.1-1.5c0.2-0.5,0.8-0.9,1.3-0.8
			c0.7,0.1,1.1,0.8,1.1,1.4c0,0.4,0,0.8,0,1.1c0,0.2,0,0.4-0.1,0.6c0,0.3,0,1,0.5,1.4c0.1,0,0.1,0.1,0.1,0.2
			C-48.9-40.2-49-40.1-49.1-40.1C-49.1-40.1-49.1-40.1-49.1-40.1z M-51.5-43.9c-0.2,0.3-0.2,0.8,0,1.3c0.2,0.9,0.9,1.6,2,2
			c-0.2-0.4-0.2-0.9-0.2-1.2c0-0.2,0-0.4,0.1-0.6c0-0.4,0.1-0.7,0-1c-0.1-0.5-0.4-1-0.9-1.1c-0.1,0-0.1,0-0.2,0
			C-51.1-44.5-51.4-44.3-51.5-43.9z"/>
	</g>
	<g>
		<path class="st0" d="M-48.8-40c-0.1,0-0.1-0.1-0.1-0.2c0-0.1,0-0.1,0.1-0.2c0.5-0.2,1.1-1,1.5-1.5l0.1-0.1
			c0.1-0.2,0.2-0.4,0.4-0.5c0.2-0.4,0.5-0.7,0.8-1.1c0.3-0.3,0.6-0.5,0.9-0.6c0.4-0.1,0.8-0.1,1.1,0.1c0.4,0.2,0.6,0.8,0.5,1.3
			c-0.1,0.4-0.3,0.8-0.6,1.2c-0.7,0.8-1.7,1.4-2.8,1.6C-47.7-40-48.3-39.9-48.8-40z M-45.2-43.9c-0.3,0.1-0.5,0.3-0.7,0.5
			c-0.3,0.3-0.5,0.7-0.7,1c-0.1,0.2-0.2,0.4-0.4,0.5l-0.1,0.1c-0.3,0.4-0.7,1-1.2,1.4c1.4,0.1,2.8-0.5,3.7-1.5
			c0.3-0.4,0.5-0.7,0.6-1c0.1-0.4-0.1-0.8-0.4-1c-0.2-0.1-0.4-0.1-0.6-0.1C-45.1-43.9-45.2-43.9-45.2-43.9z"/>
	</g>
	<g>
		<path class="st0" d="M-49.5-59.6c-0.4-0.5-1-0.8-1.5-1.2c-0.2-0.1-0.3-0.2-0.5-0.3c-0.6-0.4-1.4-1.1-1.7-2
			c-0.2-0.5-0.2-1.1,0.3-1.5c0.3-0.2,0.6-0.3,1-0.2c0.3,0.1,0.6,0.3,0.8,0.4c1.4,1.1,1.9,3.1,1.9,4.6c0,0.1,0,0.1-0.1,0.2
			c0,0,0,0,0,0C-49.4-59.6-49.5-59.6-49.5-59.6z M-52.8-64.4c-0.3,0.2-0.3,0.7-0.2,1.1c0.3,0.8,1,1.4,1.6,1.8
			c0.2,0.1,0.3,0.2,0.5,0.3c0.4,0.3,0.9,0.6,1.3,0.9c-0.1-1.4-0.6-3-1.8-3.9c-0.2-0.1-0.4-0.3-0.7-0.4c-0.1,0-0.3,0-0.4,0
			C-52.6-64.5-52.7-64.4-52.8-64.4z"/>
	</g>
	<g>
		<path class="st0" d="M-47.5-48.3c0-0.1,0-0.2,0.1-0.2c0.4-0.3,0.7-0.8,0.8-1.5c0-0.2,0.1-0.4,0.1-0.6c0-0.4,0.1-0.8,0.2-1.2
			c0.2-0.6,0.7-1.3,1.4-1.4c0.5-0.1,1,0.3,1.1,0.9c0.1,0.4,0,1-0.3,1.6c-0.6,1.3-1.6,2.1-3.2,2.5c0,0,0,0,0,0
			C-47.4-48.2-47.4-48.2-47.5-48.3z M-46-51.6c-0.1,0.4-0.2,0.7-0.2,1.1c0,0.2,0,0.4-0.1,0.6c-0.1,0.3-0.2,0.8-0.5,1.2
			c1.1-0.4,1.9-1.1,2.4-2.1c0.2-0.5,0.3-1,0.2-1.3c-0.1-0.3-0.4-0.7-0.8-0.6c0,0,0,0-0.1,0C-45.4-52.7-45.8-52.1-46-51.6z"/>
	</g>
	<g>
		<path class="st0" d="M-48.2-55.5c-0.1,0-0.1-0.1,0-0.2c0.2-0.5,0.3-1.1,0.3-1.7c0.1-0.7,0.2-1.5,0.6-2.2c0.2-0.4,0.6-0.8,1.1-0.7
			c0.3,0.1,0.5,0.2,0.6,0.5c0.1,0.3,0.1,0.5,0.1,0.7c0,1.4-1.3,2.8-2.6,3.5c0,0,0,0,0,0C-48.1-55.5-48.1-55.5-48.2-55.5z M-47-59.4
			c-0.4,0.6-0.4,1.3-0.5,2c-0.1,0.4-0.1,0.9-0.2,1.4c1.1-0.7,2-1.8,2-3c0-0.3,0-0.4-0.1-0.6c-0.1-0.2-0.2-0.3-0.4-0.3
			c-0.1,0-0.1,0-0.2,0C-46.7-59.9-46.9-59.6-47-59.4z"/>
	</g>
	<g>
		<path class="st0" d="M-49.9-55.1c-0.6-0.1-1.1-0.5-1.5-1c-0.3-0.4-0.5-0.9-0.4-1.3c0-0.3,0.1-0.5,0.3-0.6c0.2-0.1,0.4-0.2,0.6-0.2
			c0.4,0.1,0.7,0.4,1,0.7c0.1,0.1,0.3,0.3,0.4,0.5c0.4,0.5,0.8,1.1,1.3,1.3c0.1,0,0.1,0.1,0.1,0.1c0,0.1,0,0.1-0.1,0.2
			c-0.2,0.2-0.5,0.3-0.8,0.4C-49.4-55.1-49.6-55.1-49.9-55.1z M-49.9-56.9c-0.1-0.2-0.3-0.3-0.4-0.5c-0.2-0.3-0.5-0.5-0.7-0.6
			c-0.1,0-0.2,0-0.3,0.1c-0.1,0.1-0.2,0.2-0.2,0.4c0,0.3,0.1,0.7,0.4,1c0.3,0.5,0.8,0.8,1.3,0.9c0.4,0.1,0.8,0,1.1-0.1
			C-49.2-55.9-49.5-56.4-49.9-56.9z"/>
	</g>
	<g>
		<path class="st0" d="M-49.1-48.1c-0.6-0.2-1.1-0.5-1.5-1.1c-0.4-0.6-0.6-1.4-0.4-2c0.1-0.5,0.5-0.8,0.9-0.7
			c0.4,0.1,0.8,0.5,1.1,0.9c0.3,0.4,0.6,0.9,0.8,1.3c0.2,0.4,0.5,0.9,0.8,1.3c0,0,0,0.1,0,0.2c0,0.1-0.1,0.1-0.1,0.1
			c-0.1,0-0.1,0-0.2,0C-48.2-48-48.7-48-49.1-48.1z M-50.7-51c-0.1,0.5,0,1.2,0.4,1.7c0.3,0.5,0.8,0.8,1.3,0.9
			c0.4,0.1,0.7,0.1,1.2,0c-0.2-0.3-0.4-0.7-0.6-1.1c-0.2-0.4-0.5-0.9-0.8-1.3c-0.3-0.4-0.6-0.7-0.9-0.8c0,0-0.1,0-0.1,0
			C-50.5-51.4-50.7-51.2-50.7-51z"/>
	</g>
	
		<text transform="matrix(0.9255 -0.3788 0.3788 0.9255 -90.8144 -35.3901)" class="st0" style="font-family:'Nickainley'; font-size:11.8089px;">Cry Baby</text>
	
		<text transform="matrix(0.917 -0.399 0.399 0.917 -76.1438 -34.9282)" class="st0" style="font-family:'Nickainley'; font-size:6.5101px;">brewery</text>
</g>
<path id="XMLID_1533_" class="st1" d="M-185.4,211l4,3.8l7.4,0.6l0.4,1.9l-1.4,4.3l-3.2,1l4.7,2.9l7.4-1l0.8,1.7l-0.5,4.5l-2.9,1.6
	l5.2,1.9l7-2.5l1.1,1.6l0.5,4.5l-2.5,2.2l5.5,0.7l6.4-3.9l1.4,1.3l1.4,4.3l-2,2.7l5.5-0.4l5.4-5.1l1.6,1l2.3,3.9l-1.4,3l5.3-1.6
	l4.2-6.1l1.8,0.6l3,3.3l-0.7,3.3l4.9-2.6l2.9-6.9l1.9,0.2l3.6,2.6l0,3.3l4.2-3.6l1.4-7.3l1.9-0.2l4.1,1.8l0.7,3.3l3.4-4.4l-0.2-7.5
	l1.8-0.6l4.4,0.9l1.3,3.1l2.4-5l-1.7-7.3l1.7-0.9h4.5l1.9,2.7l1.3-5.4l-3.2-6.7l1.4-1.3l4.4-0.9l2.5,2.3l0.2-5.5l-4.5-5.9l1.1-1.5
	l4.1-1.8l2.9,1.7l-1-5.5l-5.7-4.9l0.8-1.7l3.6-2.6l3.2,1.1l-2.1-5.1l-6.6-3.6l0.4-1.9l3-3.3l3.3,0.4l-3.1-4.6l-7.2-2.1l0-1.9
	l2.3-3.9l3.3-0.3l-4-3.8l-7.4-0.6l-0.4-1.9l1.4-4.3l3.2-1l-4.7-2.9l-7.4,1l-0.8-1.7l0.5-4.5l2.9-1.6l-5.2-1.9l-7,2.5l-1.1-1.6
	l-0.5-4.5l2.5-2.2l-5.5-0.7l-6.4,3.9l-1.4-1.3l-1.4-4.3l2-2.7l-5.5,0.4l-5.4,5.1l-1.6-1l-2.3-3.9l1.4-3l-5.3,1.6l-4.2,6.2l-1.8-0.6
	l-3-3.3l0.7-3.3l-4.9,2.6l-2.9,6.9l-1.9-0.2l-3.6-2.6l0-3.3l-4.2,3.6l-1.4,7.3l-1.9,0.2l-4.1-1.8l-0.7-3.3l-3.4,4.4l0.2,7.5
	l-1.8,0.6l-4.4-0.9l-1.3-3.1l-2.4,5l1.7,7.3l-1.7,0.9l-4.5,0l-1.9-2.7l-1.3,5.4l3.2,6.7l-1.4,1.3l-4.4,0.9l-2.5-2.3l-0.2,5.5
	l4.5,5.9l-1.1,1.5l-4.1,1.8l-2.9-1.7l1,5.5l5.7,4.9l-0.8,1.7l-3.6,2.6l-3.2-1.1l2.1,5.1l6.6,3.6l-0.4,1.9l-3,3.3l-3.3-0.4l3.1,4.6
	l7.2,2.1l0,1.9l-2.3,3.9L-185.4,211z"/>
<path id="XMLID_467_" class="st0" d="M-126.7,234.7c-28.9,0-52.4-23.5-52.4-52.4s23.5-52.4,52.4-52.4s52.4,23.5,52.4,52.4
	S-97.8,234.7-126.7,234.7z M-126.7,131.4c-28,0-50.9,22.8-50.9,50.9s22.8,50.9,50.9,50.9s50.9-22.8,50.9-50.9
	S-98.7,131.4-126.7,131.4z"/>
<g id="XMLID_470_">
	<rect id="XMLID_1502_" x="-218.6" y="158.6" class="st1" width="183.7" height="47.3"/>
	<path id="XMLID_471_" class="st1" d="M-34.1,206.7h-185.3v-48.8h185.3L-34.1,206.7L-34.1,206.7z M-217.8,205.2h182.2v-45.8h-182.2
		V205.2z"/>
</g>
<g id="XMLID_474_">
	<path id="XMLID_475_" class="st0" d="M-212.2,200.2v-4.7h2.5V169h-2.5v-4.7h22.5l5.5,5.3v25.2l-5.5,5.3L-212.2,200.2L-212.2,200.2z
		 M-193.7,195.5l2.6-2.4v-21.6l-2.6-2.5h-9.1v26.5L-193.7,195.5L-193.7,195.5z"/>
	<path id="XMLID_478_" class="st0" d="M-181.2,200.2v-4.7h2.5V169h-2.5v-4.7h22.5l5.5,5.3v8.3l-3.8,3.6l3.8,3.6v10.3h2.5v4.7h-9.4
		v-13.8l-2.6-2.5h-9.1v11.7h2.5v4.7L-181.2,200.2L-181.2,200.2z M-162.7,179.3l2.6-2.5v-5.3l-2.6-2.5h-9.1v10.2L-162.7,179.3
		L-162.7,179.3z"/>
	<path id="XMLID_481_" class="st0" d="M-148.5,200.2v-4.7h1.8l9.2-26.5h-2.7v-4.7h17.6v4.7h-2.9l9.1,26.5h1.9v4.7H-126v-4.7h2.3
		l-2.2-6.3h-11.4l-2.2,6.3h2.3v4.7H-148.5z M-127,186l-4.5-13.2l-4.5,13.2H-127z"/>
	<path id="XMLID_484_" class="st0" d="M-112.2,200.2v-4.7l18.4-26.5h-13.6v2.4h-4.8v-7h26.6v4.7l-18.4,26.5h13.6v-2.4h4.8v7H-112.2z
		"/>
	<path id="XMLID_486_" class="st0" d="M-83.3,200.2v-4.7h2.5V169h-2.5v-4.7h11.9v4.7h-2.5v26.5h2.5v4.7H-83.3z"/>
	<path id="XMLID_488_" class="st0" d="M-68.4,194.9v-25.2l5.5-5.3h16.2l5.5,5.3v5.7h-6.9v-3.9l-2.5-2.5h-8.3l-2.5,2.5v21.6l2.5,2.4
		h8.3l2.5-2.4v-3.7h6.9v5.5l-5.5,5.3h-16.2L-68.4,194.9z"/>
</g>
<g>
	<path class="st1" d="M108.2,57.8c-1.7,0-3.4,0.1-5.1,0.4l35.6-35.6c1.5-1.5,1.5-3.8,0-5.3c-1.5-1.5-3.8-1.5-5.3,0L82.8,68
		c-0.1,0.1-0.2,0.2-0.3,0.3c-7.2,7-11.1,16.3-11.1,26.4c0,11,4.9,21.4,13.4,28.4c6.6,5.4,14.9,8.4,23.5,8.4
		c20.3,0,36.9-16.5,36.9-36.9S128.6,57.8,108.2,57.8z M108.2,124.1c-6.8,0-13.5-2.4-18.7-6.7c-6.8-5.6-10.7-13.9-10.7-22.7
		c0-8.2,3.3-15.7,9.2-21.3c5.5-5.2,12.7-8.1,20.2-8.1c16.2,0,29.4,13.2,29.4,29.4S124.5,124.1,108.2,124.1z"/>
	<g>
		<path class="st1" d="M84.3,56.2c-1,0-1.9-0.4-2.6-1.1c-1.5-1.5-1.5-3.8,0-5.3l26.1-26.1h-0.6c-2.1,0-3.7-1.7-3.7-3.7
			s1.7-3.7,3.7-3.7h9.6c1.5,0,2.9,0.9,3.4,2.3c0.6,1.4,0.3,3-0.8,4.1L86.9,55.1C86.2,55.8,85.2,56.2,84.3,56.2z"/>
	</g>
	<path class="st1" d="M69.7,57.8c-1.7,0-3.4,0.1-5,0.3l35.5-35.5c1.1-1.1,1.4-2.7,0.8-4.1c-0.6-1.4-1.9-2.3-3.4-2.3H44.1
		c-2.1,0-3.7,1.7-3.7,3.7s1.7,3.7,3.7,3.7h44.4L44.3,67.9c0,0,0,0-0.1,0.1c-1.1,1-2.1,2.1-3.1,3.3c-1.3,1.6-1.1,3.9,0.5,5.3
		c1.6,1.3,3.9,1.1,5.3-0.5c0.7-0.9,1.5-1.7,2.4-2.5c0,0,0.1-0.1,0.1-0.1l0.1-0.1c5.5-5.2,12.6-8,20.2-8c16.2,0,29.4,13.2,29.4,29.4
		s-13.2,29.4-29.4,29.4c-6.8,0-13.5-2.4-18.7-6.7c-1.4-1.2-2.8-2.5-4-4c-1.3-1.6-3.7-1.8-5.3-0.5c-1.6,1.3-1.8,3.7-0.5,5.3
		c1.5,1.8,3.2,3.5,5,5c6.6,5.4,14.9,8.4,23.5,8.4c20.3,0,36.9-16.5,36.9-36.9S90,57.8,69.7,57.8z"/>
	<g class="st2">
		<path class="st1" d="M88.9,126.1c0.5,0.3,1,0.6,1.5,0.8c2.3-1.5,4.5-3.2,6.4-5.2c-0.5-0.2-1-0.4-1.5-0.7
			C93.4,123,91.3,124.7,88.9,126.1z"/>
	</g>
	<g class="st2">
		<path class="st1" d="M90.1,73.5c2-1.7,4.1-3.1,6.4-4.1c-0.4-0.4-0.7-0.8-1.1-1.1c-2.3,1.1-4.4,2.5-6.4,4.2
			C89.3,72.9,89.7,73.2,90.1,73.5z"/>
	</g>
	<g>
		<path class="st1" d="M39.6,145.8v4.9c0,0.5,0.1,0.8,0.4,1.1c0.2,0.3,0.6,0.4,1,0.4c0.4,0,0.9-0.2,1.3-0.6l0.8,1.4
			c-0.7,0.6-1.5,1-2.4,1c-0.9,0-1.6-0.3-2.2-0.9s-0.9-1.4-0.9-2.4v-4.8h-1.2v-1.6h1.2v-3h2v3h2.5v1.6H39.6z"/>
		<path class="st1" d="M46.7,148.6v5.2h-2v-13.4h2v5.5c0.3-0.6,0.7-1.1,1.3-1.4c0.6-0.3,1.2-0.5,1.9-0.5c1.1,0,2,0.3,2.6,1
			c0.7,0.7,1,1.6,1,2.9v5.9h-2v-5.3c0-1.8-0.7-2.7-2.2-2.7c-0.7,0-1.3,0.2-1.8,0.7C47,147.1,46.7,147.7,46.7,148.6z"/>
		<path class="st1" d="M61.5,146.1c-1,0-1.8,0.3-2.3,1c-0.5,0.7-0.8,1.5-0.8,2.6v4.1h-2v-9.6h2v1.9c0.3-0.6,0.8-1.1,1.3-1.5
			c0.6-0.4,1.2-0.6,1.8-0.6l0,2C61.5,146.1,61.5,146.1,61.5,146.1z"/>
		<path class="st1" d="M72.6,149.9H65c0,0.7,0.4,1.3,1,1.7c0.6,0.4,1.3,0.6,2,0.6c1.2,0,2.1-0.4,2.8-1.1l1.2,1.3
			c-1,1.1-2.4,1.6-4.1,1.6c-1.4,0-2.5-0.5-3.5-1.4c-0.9-0.9-1.4-2.1-1.4-3.6c0-1.5,0.5-2.7,1.5-3.6c1-0.9,2.1-1.3,3.4-1.3
			s2.4,0.4,3.3,1.2c0.9,0.8,1.4,1.9,1.4,3.3V149.9z M65,148.3h5.5c0-0.8-0.3-1.4-0.8-1.9s-1.1-0.7-1.9-0.7c-0.7,0-1.4,0.2-2,0.7
			C65.3,146.9,65,147.5,65,148.3z"/>
		<path class="st1" d="M83.8,149.9h-7.6c0,0.7,0.4,1.3,1,1.7c0.6,0.4,1.3,0.6,2,0.6c1.2,0,2.1-0.4,2.8-1.1l1.2,1.3
			c-1,1.1-2.4,1.6-4.1,1.6c-1.4,0-2.5-0.5-3.5-1.4c-0.9-0.9-1.4-2.1-1.4-3.6c0-1.5,0.5-2.7,1.5-3.6c1-0.9,2.1-1.3,3.4-1.3
			s2.4,0.4,3.3,1.2c0.9,0.8,1.4,1.9,1.4,3.3V149.9z M76.2,148.3h5.5c0-0.8-0.3-1.4-0.8-1.9c-0.5-0.4-1.1-0.7-1.9-0.7
			c-0.7,0-1.4,0.2-2,0.7C76.5,146.9,76.2,147.5,76.2,148.3z"/>
		<path class="st1" d="M92.9,151c0,0.9-0.3,1.7-1,2.2c-0.7,0.6-1.5,0.8-2.6,0.8c-0.7,0-1.4-0.1-2.2-0.4s-1.4-0.6-2-1.1l1-1.6
			c1.1,0.8,2.2,1.3,3.3,1.3c0.5,0,0.8-0.1,1.1-0.3c0.3-0.2,0.4-0.5,0.4-0.8c0-0.5-0.6-0.9-1.9-1.3c-0.1,0-0.2-0.1-0.2-0.1
			c-2-0.5-3-1.5-3-2.7c0-0.9,0.3-1.6,1-2.1c0.7-0.5,1.6-0.8,2.7-0.8c1.1,0,2.2,0.3,3.2,1l-0.8,1.5c-0.8-0.5-1.6-0.8-2.6-0.8
			c-0.5,0-0.9,0.1-1.2,0.3c-0.3,0.2-0.5,0.4-0.5,0.8c0,0.3,0.2,0.5,0.5,0.7c0.2,0.1,0.5,0.2,0.9,0.3c0.4,0.1,0.7,0.2,1,0.3
			c0.3,0.1,0.6,0.2,0.9,0.3c0.3,0.1,0.6,0.3,0.9,0.5C92.6,149.4,92.9,150,92.9,151z"/>
		<path class="st1" d="M95.3,142.3c-0.3-0.3-0.4-0.6-0.4-0.9c0-0.4,0.1-0.7,0.4-0.9c0.3-0.3,0.6-0.4,0.9-0.4c0.4,0,0.7,0.1,0.9,0.4
			s0.4,0.6,0.4,0.9c0,0.4-0.1,0.7-0.4,0.9c-0.3,0.3-0.6,0.4-0.9,0.4C95.9,142.7,95.6,142.5,95.3,142.3z M97.2,153.8h-2v-9.6h2V153.8
			z"/>
		<path class="st1" d="M101.7,144.2l2.1,3.2l2.1-3.2h2.4l-3.4,4.7l3.5,4.9h-2.5l-2.3-3.2l-2.2,3.2H99l3.4-4.9l-3.2-4.7H101.7z"/>
		<path class="st1" d="M112.8,145.8v4.9c0,0.5,0.1,0.8,0.4,1.1c0.2,0.3,0.6,0.4,1,0.4c0.4,0,0.9-0.2,1.3-0.6l0.8,1.4
			c-0.7,0.6-1.5,1-2.4,1c-0.9,0-1.6-0.3-2.2-0.9c-0.6-0.6-0.9-1.4-0.9-2.4v-4.8h-1.2v-1.6h1.2v-3h2v3h2.5v1.6H112.8z"/>
		<path class="st1" d="M126.8,149.9h-7.6c0,0.7,0.4,1.3,1,1.7c0.6,0.4,1.3,0.6,2,0.6c1.2,0,2.1-0.4,2.8-1.1l1.2,1.3
			c-1,1.1-2.4,1.6-4.1,1.6c-1.4,0-2.5-0.5-3.5-1.4c-0.9-0.9-1.4-2.1-1.4-3.6c0-1.5,0.5-2.7,1.5-3.6c1-0.9,2.1-1.3,3.4-1.3
			c1.3,0,2.4,0.4,3.3,1.2c0.9,0.8,1.4,1.9,1.4,3.3V149.9z M119.3,148.3h5.5c0-0.8-0.3-1.4-0.8-1.9s-1.1-0.7-1.9-0.7
			c-0.7,0-1.4,0.2-2,0.7C119.6,146.9,119.3,147.5,119.3,148.3z"/>
		<path class="st1" d="M138,149.9h-7.6c0,0.7,0.4,1.3,1,1.7c0.6,0.4,1.3,0.6,2,0.6c1.2,0,2.1-0.4,2.8-1.1l1.2,1.3
			c-1,1.1-2.4,1.6-4.1,1.6c-1.4,0-2.5-0.5-3.5-1.4c-0.9-0.9-1.4-2.1-1.4-3.6c0-1.5,0.5-2.7,1.5-3.6c1-0.9,2.1-1.3,3.4-1.3
			s2.4,0.4,3.3,1.2c0.9,0.8,1.4,1.9,1.4,3.3V149.9z M130.5,148.3h5.5c0-0.8-0.3-1.4-0.8-1.9s-1.1-0.7-1.9-0.7s-1.4,0.2-2,0.7
			C130.8,146.9,130.5,147.5,130.5,148.3z"/>
		<path class="st1" d="M142.3,148.6v5.2h-2v-9.6h2v1.8c0.3-0.6,0.8-1.1,1.4-1.4c0.6-0.3,1.2-0.5,1.9-0.5c1.1,0,2,0.3,2.6,1
			c0.7,0.7,1,1.6,1,2.9v5.9h-2v-5.3c0-1.8-0.7-2.7-2.2-2.7c-0.7,0-1.3,0.2-1.8,0.7C142.5,147.1,142.3,147.7,142.3,148.6z"/>
	</g>
	<g>
		<path class="st1" d="M59.9,165.5c0,0.5-0.2,0.9-0.6,1.2c-0.4,0.3-0.8,0.5-1.4,0.5c-0.4,0-0.8-0.1-1.2-0.2
			c-0.4-0.1-0.8-0.3-1.1-0.6l0.5-0.9c0.6,0.5,1.2,0.7,1.8,0.7c0.3,0,0.5-0.1,0.6-0.2c0.1-0.1,0.2-0.3,0.2-0.4c0-0.3-0.4-0.5-1.1-0.7
			c-0.1,0-0.1,0-0.1,0c-1.1-0.3-1.7-0.8-1.7-1.5c0-0.5,0.2-0.9,0.6-1.2c0.4-0.3,0.9-0.4,1.5-0.4c0.6,0,1.2,0.2,1.8,0.5l-0.4,0.8
			c-0.4-0.3-0.9-0.4-1.4-0.4c-0.3,0-0.5,0-0.7,0.1c-0.2,0.1-0.3,0.2-0.3,0.4c0,0.2,0.1,0.3,0.3,0.4c0.1,0.1,0.3,0.1,0.5,0.2
			c0.2,0.1,0.4,0.1,0.6,0.2c0.2,0.1,0.3,0.1,0.5,0.2c0.2,0.1,0.3,0.2,0.5,0.3C59.7,164.6,59.9,165,59.9,165.5z"/>
		<path class="st1" d="M62.5,162.6v2.7c0,0.3,0.1,0.5,0.2,0.6c0.1,0.2,0.3,0.2,0.6,0.2c0.2,0,0.5-0.1,0.7-0.4l0.5,0.8
			c-0.4,0.4-0.8,0.5-1.3,0.5c-0.5,0-0.9-0.2-1.2-0.5c-0.3-0.3-0.5-0.8-0.5-1.3v-2.7h-0.7v-0.9h0.7V160h1.1v1.7h1.4v0.9H62.5z"/>
		<path class="st1" d="M68.2,162.8c-0.6,0-1,0.2-1.3,0.5c-0.3,0.4-0.4,0.9-0.4,1.5v2.3h-1.1v-5.4h1.1v1.1c0.2-0.3,0.4-0.6,0.7-0.8
			c0.3-0.2,0.6-0.3,1-0.3L68.2,162.8C68.2,162.8,68.2,162.8,68.2,162.8z"/>
		<path class="st1" d="M73.7,167.1h-1v-0.7c-0.4,0.5-1,0.8-1.8,0.8c-0.6,0-1-0.2-1.4-0.5s-0.6-0.7-0.6-1.3s0.2-0.9,0.6-1.2
			c0.4-0.3,0.9-0.4,1.6-0.4h1.5v-0.2c0-0.7-0.4-1.1-1.2-1.1c-0.5,0-1,0.2-1.6,0.5l-0.5-0.7c0.7-0.5,1.4-0.8,2.2-0.8
			c0.6,0,1.1,0.2,1.6,0.5c0.4,0.3,0.6,0.8,0.6,1.5V167.1z M72.5,165.1v-0.5h-1.3c-0.8,0-1.2,0.3-1.2,0.8c0,0.3,0.1,0.5,0.3,0.6
			c0.2,0.1,0.5,0.2,0.8,0.2c0.4,0,0.7-0.1,0.9-0.3C72.4,165.7,72.5,165.4,72.5,165.1z"/>
		<path class="st1" d="M76.6,162.6v2.7c0,0.3,0.1,0.5,0.2,0.6c0.1,0.2,0.3,0.2,0.6,0.2c0.2,0,0.5-0.1,0.7-0.4l0.5,0.8
			c-0.4,0.4-0.8,0.5-1.3,0.5c-0.5,0-0.9-0.2-1.2-0.5c-0.3-0.3-0.5-0.8-0.5-1.3v-2.7h-0.7v-0.9h0.7V160h1.1v1.7H78v0.9H76.6z"/>
		<path class="st1" d="M84.4,164.9h-4.2c0,0.4,0.2,0.7,0.5,0.9c0.3,0.2,0.7,0.4,1.1,0.4c0.7,0,1.2-0.2,1.5-0.6l0.6,0.7
			c-0.6,0.6-1.3,0.9-2.3,0.9c-0.8,0-1.4-0.3-1.9-0.8c-0.5-0.5-0.8-1.2-0.8-2c0-0.8,0.3-1.5,0.8-2c0.5-0.5,1.2-0.7,1.9-0.7
			c0.7,0,1.4,0.2,1.9,0.7c0.5,0.4,0.8,1,0.8,1.8V164.9z M80.2,164h3.1c0-0.5-0.1-0.8-0.4-1c-0.3-0.2-0.6-0.4-1-0.4
			c-0.4,0-0.8,0.1-1.1,0.4C80.4,163.2,80.2,163.6,80.2,164z"/>
		<path class="st1" d="M90.6,161.7v4.7c0,0.9-0.3,1.7-0.8,2.1c-0.5,0.5-1.2,0.7-2,0.7c-0.8,0-1.5-0.3-2.2-0.8l0.5-0.9
			c0.5,0.4,1.1,0.6,1.6,0.6c0.5,0,1-0.1,1.3-0.4c0.3-0.3,0.5-0.7,0.5-1.3v-0.7c-0.2,0.3-0.4,0.6-0.7,0.8c-0.3,0.2-0.7,0.3-1.1,0.3
			c-0.7,0-1.3-0.2-1.8-0.7c-0.5-0.5-0.7-1.1-0.7-1.9s0.2-1.4,0.7-1.9c0.5-0.5,1-0.7,1.8-0.7c0.7,0,1.3,0.3,1.7,0.9v-0.8H90.6z
			 M86.4,164.2c0,0.4,0.1,0.8,0.4,1.1c0.3,0.3,0.6,0.5,1.1,0.5c0.5,0,0.8-0.2,1.1-0.5c0.3-0.3,0.4-0.7,0.4-1.2
			c0-0.5-0.1-0.9-0.4-1.2c-0.3-0.3-0.7-0.5-1.1-0.5c-0.5,0-0.8,0.2-1.1,0.5C86.6,163.4,86.4,163.7,86.4,164.2z"/>
		<path class="st1" d="M92.9,169.2c-0.5,0-0.9-0.2-1.3-0.5l0.5-0.9c0.2,0.2,0.5,0.3,0.7,0.3c0.3,0,0.5-0.1,0.6-0.3
			c0.2-0.2,0.2-0.4,0.2-0.6c0-0.1-0.7-1.9-2.2-5.5h1.2l1.6,4l1.6-4h1.2l-2.6,6.4c-0.2,0.3-0.4,0.6-0.7,0.8
			C93.6,169.1,93.3,169.2,92.9,169.2z"/>
		<path class="st1" d="M105.8,161.7v4.7c0,0.9-0.3,1.7-0.8,2.1c-0.5,0.5-1.2,0.7-2,0.7c-0.8,0-1.5-0.3-2.2-0.8l0.5-0.9
			c0.5,0.4,1.1,0.6,1.6,0.6s1-0.1,1.3-0.4c0.3-0.3,0.5-0.7,0.5-1.3v-0.7c-0.2,0.3-0.4,0.6-0.7,0.8c-0.3,0.2-0.7,0.3-1.1,0.3
			c-0.7,0-1.3-0.2-1.8-0.7c-0.5-0.5-0.7-1.1-0.7-1.9s0.2-1.4,0.7-1.9c0.5-0.5,1-0.7,1.8-0.7c0.7,0,1.3,0.3,1.7,0.9v-0.8H105.8z
			 M101.6,164.2c0,0.4,0.1,0.8,0.4,1.1c0.3,0.3,0.6,0.5,1.1,0.5c0.5,0,0.8-0.2,1.1-0.5c0.3-0.3,0.4-0.7,0.4-1.2
			c0-0.5-0.1-0.9-0.4-1.2c-0.3-0.3-0.7-0.5-1.1-0.5c-0.5,0-0.8,0.2-1.1,0.5C101.7,163.4,101.6,163.7,101.6,164.2z"/>
		<path class="st1" d="M110.3,162.8c-0.6,0-1,0.2-1.3,0.5c-0.3,0.4-0.4,0.9-0.4,1.5v2.3h-1.1v-5.4h1.1v1.1c0.2-0.3,0.4-0.6,0.7-0.8
			c0.3-0.2,0.6-0.3,1-0.3L110.3,162.8C110.3,162.8,110.3,162.8,110.3,162.8z"/>
		<path class="st1" d="M115.8,166.4c-0.5,0.5-1.2,0.8-2,0.8s-1.5-0.3-2-0.8c-0.5-0.5-0.8-1.2-0.8-2c0-0.8,0.3-1.4,0.8-2
			c0.5-0.5,1.2-0.8,2-0.8s1.5,0.3,2,0.8c0.5,0.5,0.8,1.2,0.8,2C116.7,165.2,116.4,165.8,115.8,166.4z M112.6,165.7
			c0.3,0.3,0.7,0.5,1.2,0.5c0.5,0,0.9-0.2,1.2-0.5c0.3-0.3,0.5-0.7,0.5-1.3c0-0.5-0.2-0.9-0.5-1.3s-0.7-0.5-1.2-0.5
			c-0.5,0-0.9,0.2-1.2,0.5c-0.3,0.3-0.5,0.7-0.5,1.3C112.1,164.9,112.3,165.3,112.6,165.7z"/>
		<path class="st1" d="M121.7,164.6v-2.9h1.1v5.4h-1.1v-1c-0.2,0.3-0.4,0.6-0.8,0.8c-0.3,0.2-0.7,0.3-1,0.3c-0.6,0-1.1-0.2-1.5-0.6
			c-0.4-0.4-0.6-0.9-0.6-1.6v-3.3h1.1v2.9c0,1,0.4,1.5,1.2,1.5c0.4,0,0.7-0.1,1-0.4C121.5,165.5,121.7,165.1,121.7,164.6z"/>
		<path class="st1" d="M127.3,161.6c0.7,0,1.3,0.2,1.8,0.7c0.5,0.5,0.8,1.2,0.8,2c0,0.8-0.3,1.5-0.8,2c-0.5,0.5-1.1,0.8-1.8,0.8
			c-0.7,0-1.3-0.3-1.8-0.9v2.8h-1.1v-7.3h1.1v0.9C126,162,126.6,161.6,127.3,161.6z M125.6,164.4c0,0.5,0.2,0.9,0.5,1.3
			c0.3,0.3,0.7,0.5,1.1,0.5s0.8-0.2,1.2-0.5c0.3-0.3,0.5-0.7,0.5-1.3c0-0.5-0.2-0.9-0.5-1.3c-0.3-0.3-0.7-0.5-1.2-0.5
			c-0.5,0-0.8,0.2-1.1,0.5S125.6,163.9,125.6,164.4z"/>
	</g>
</g>
</svg>
