<?xml version="1.0" encoding="utf-8"?>
<!-- Generator: Adobe Illustrator 19.0.1, SVG Export Plug-In . SVG Version: 6.00 Build 0)  -->
<svg version="1.1" id="Layer_1" xmlns="http://www.w3.org/2000/svg" xmlns:xlink="http://www.w3.org/1999/xlink" x="0px" y="0px"
	 viewBox="0 0 807.061 720.641" enable-background="new 0 0 807.061 720.641" xml:space="preserve">
<g>
	<g>
		<g>
			<rect x="518.199" y="484.739" fill="#FFFFFF" width="63.337" height="124.152"/>
			<path fill="#363437" d="M581.536,610.896h-63.337c-1.107,0-2.006-0.898-2.006-2.006V484.739c0-1.107,0.898-2.006,2.006-2.006
				h63.337c1.107,0,2.006,0.898,2.006,2.006V608.89C583.542,609.998,582.644,610.896,581.536,610.896z M520.205,606.884h59.325
				v-120.14h-59.325V606.884z"/>
		</g>
		<g>
			<path fill="#FFFFFF" d="M518.193,608.884c-7.014,11.58-5.773,26.853,3.973,37.176l1.671,1.77
				c11.704,12.397,31.243,12.959,43.64,1.255l131.412-124.064c12.397-11.704,12.959-31.242,1.255-43.64l-1.671-1.77
				c-11.704-12.397-31.243-12.959-43.64-1.255L552.99,574.504"/>
			<path fill="#303333" d="M546.31,659.514c-0.323,0-0.646-0.004-0.971-0.014c-8.777-0.253-16.932-3.908-22.961-10.294l-1.671-1.771
				c-10.118-10.717-11.858-26.998-4.23-39.591c0.573-0.947,1.805-1.251,2.755-0.677c0.947,0.574,1.25,1.808,0.677,2.755
				c-6.696,11.056-5.168,25.349,3.716,34.759l1.672,1.771c5.292,5.606,12.451,8.816,20.158,9.038
				c7.726,0.207,15.041-2.57,20.646-7.864l131.412-124.063c5.606-5.293,8.816-12.453,9.038-20.159
				c0.222-7.707-2.571-15.039-7.864-20.646l-1.672-1.771c-5.292-5.606-12.452-8.816-20.158-9.038
				c-7.728-0.202-15.04,2.571-20.646,7.864l-101.843,96.148c-0.805,0.76-2.073,0.725-2.836-0.082
				c-0.76-0.806-0.724-2.075,0.082-2.836l101.843-96.148c6.385-6.029,14.742-9.213,23.515-8.956
				c8.777,0.253,16.932,3.908,22.961,10.294l1.671,1.771c6.028,6.386,9.21,14.736,8.957,23.515
				c-0.253,8.777-3.908,16.932-10.294,22.961L568.854,650.545C562.704,656.35,554.731,659.514,546.31,659.514z"/>
		</g>
		<g>
			<g>
				<path fill="#FFFFFF" d="M658.906,469.275c-2.144-4.395-0.302-9.744,4.093-11.888l52.119-25.423
					c4.395-2.144,9.744-0.302,11.888,4.093l26.166,53.641c2.144,4.395,0.302,9.744-4.093,11.888l-52.119,25.423
					c-4.395,2.144-9.744,0.302-11.888-4.093"/>
				<path fill="#303333" d="M693.079,529.914c-4.038,0-7.925-2.252-9.811-6.119c-0.485-0.995-0.072-2.196,0.924-2.682
					c0.993-0.485,2.195-0.072,2.682,0.924c0.802,1.644,2.205,2.88,3.95,3.48c1.745,0.6,3.61,0.49,5.256-0.312l52.119-25.423
					c1.644-0.802,2.879-2.204,3.479-3.95c0.602-1.745,0.49-3.611-0.312-5.256l-26.165-53.642c-0.802-1.644-2.205-2.88-3.95-3.48
					c-1.744-0.599-3.611-0.49-5.255,0.312l-52.12,25.422c-3.41,1.664-4.832,5.794-3.168,9.206c0.485,0.995,0.072,2.196-0.924,2.682
					c-0.993,0.484-2.196,0.072-2.682-0.924c-2.634-5.398-0.384-11.935,5.015-14.569l52.12-25.422c2.604-1.272,5.562-1.449,8.319-0.5
					c2.759,0.949,4.979,2.908,6.25,5.516l26.165,53.642c2.634,5.399,0.384,11.936-5.016,14.569l-52.119,25.423
					C696.305,529.559,694.68,529.913,693.079,529.914z"/>
			</g>
			<g>
				<g>
					<path fill="#FFFFFF" d="M693.896,463.829c-2.755,1.344-5.449,1.543-5.986,0.443l-6.552-13.432
						c-0.537-1.1,1.279-3.1,4.034-4.444l32.679-15.94c2.755-1.344,5.449-1.543,5.986-0.443l6.552,13.432
						c0.537,1.1-1.279,3.1-4.034,4.444L693.896,463.829z"/>
					<path fill="#303333" d="M689.643,466.878c-1.535,0-2.81-0.516-3.427-1.78l-6.552-13.431c-1.243-2.552,1.565-5.337,4.901-6.965
						l32.679-15.939c3.338-1.629,7.26-2.128,8.506,0.424l6.552,13.432c1.244,2.553-1.565,5.337-4.901,6.964l-32.679,15.94l0,0
						C693.038,466.343,691.205,466.878,689.643,466.878z M689.43,463.091c0.521,0.05,1.852-0.083,3.64-0.955l32.679-15.94
						c1.787-0.872,2.708-1.834,2.993-2.28l-6.205-12.722c-0.526-0.051-1.853,0.084-3.64,0.956l-32.679,15.939
						c-1.787,0.873-2.708,1.835-2.993,2.281L689.43,463.091z"/>
				</g>
				<g>
					<path fill="#FFFFFF" d="M702.399,481.261c-2.755,1.344-5.449,1.543-5.986,0.443l-6.552-13.432
						c-0.537-1.1,1.279-3.1,4.034-4.444l32.679-15.94c2.755-1.344,5.449-1.543,5.986-0.443l6.552,13.432
						c0.537,1.1-1.279,3.1-4.034,4.444L702.399,481.261z"/>
					<path fill="#303333" d="M698.146,484.31c-1.535,0-2.809-0.515-3.426-1.779l-6.552-13.432c-0.359-0.736-0.697-2.265,1.08-4.224
						c0.922-1.015,2.278-1.988,3.821-2.74l32.679-15.94c1.543-0.753,3.145-1.223,4.512-1.324c2.634-0.202,3.635,1.012,3.994,1.749
						l6.551,13.431c0.359,0.736,0.697,2.265-1.08,4.224c-0.921,1.015-2.277,1.988-3.82,2.74l-32.68,15.94l0,0
						C701.541,483.776,699.708,484.31,698.146,484.31z M697.934,480.524c0.533,0.043,1.854-0.086,3.639-0.956l32.68-15.94
						c1.787-0.872,2.707-1.834,2.993-2.279l-6.206-12.723c-0.527-0.045-1.852,0.085-3.639,0.956l-32.679,15.94
						c-1.787,0.872-2.708,1.834-2.994,2.279L697.934,480.524z"/>
				</g>
				<g>
					<path fill="#FFFFFF" d="M710.903,498.694c-2.755,1.344-5.449,1.543-5.986,0.443l-6.552-13.432
						c-0.537-1.1,1.279-3.1,4.034-4.444l32.679-15.94c2.755-1.344,5.449-1.543,5.986-0.443l6.552,13.432
						c0.537,1.1-1.279,3.1-4.034,4.444L710.903,498.694z"/>
					<path fill="#303333" d="M706.663,501.733c-2.228,0-3.107-1.087-3.44-1.771l-6.551-13.431c-0.359-0.736-0.697-2.265,1.08-4.224
						c0.921-1.015,2.277-1.988,3.82-2.74l32.68-15.94c3.336-1.627,7.259-2.128,8.505,0.423l6.552,13.433
						c0.359,0.736,0.697,2.265-1.08,4.224c-0.922,1.015-2.278,1.988-3.821,2.74l-32.679,15.94c-1.543,0.753-3.146,1.224-4.512,1.324
						C707.024,501.726,706.839,501.733,706.663,501.733z M706.438,497.957c0.533,0.052,1.854-0.085,3.639-0.956l0,0l32.679-15.94
						c1.787-0.872,2.708-1.834,2.994-2.279l-6.206-12.722c-0.528-0.053-1.853,0.085-3.639,0.955l-32.68,15.94
						c-1.787,0.872-2.707,1.834-2.993,2.279L706.438,497.957z"/>
				</g>
				<g>
					<path fill="#FFFFFF" d="M719.406,516.127c-2.755,1.344-5.449,1.543-5.986,0.443l-6.552-13.432
						c-0.537-1.1,1.279-3.1,4.034-4.444l32.679-15.94c2.755-1.344,5.449-1.543,5.986-0.443l6.552,13.432
						c0.537,1.1-1.279,3.1-4.034,4.444L719.406,516.127z"/>
					<path fill="#303333" d="M715.154,519.176c-1.535,0-2.81-0.516-3.427-1.78l-6.552-13.432c-1.244-2.552,1.565-5.336,4.901-6.964
						l32.679-15.94c3.337-1.628,7.26-2.129,8.506,0.425l6.552,13.432c1.244,2.551-1.565,5.336-4.901,6.964l-32.679,15.94l0,0
						C718.549,518.642,716.716,519.176,715.154,519.176z M714.941,515.389c0.521,0.05,1.852-0.083,3.64-0.955l32.679-15.94
						c1.786-0.872,2.707-1.834,2.993-2.28l-6.205-12.722c-0.521-0.05-1.852,0.083-3.64,0.955l-32.679,15.94
						c-1.787,0.872-2.708,1.834-2.993,2.28L714.941,515.389z"/>
				</g>
			</g>
		</g>
		<g>
			<path fill="#FFFFFF" d="M656.869,480.118l-9.544-32.103c-2.372-7.98,0.969-16.079,7.426-17.998l0,0
				c6.456-1.919,13.68,3.039,16.052,11.019l5.936,19.966"/>
			<path fill="#303333" d="M656.867,481.839c-0.741,0-1.426-0.483-1.647-1.23l-9.544-32.103c-1.26-4.235-1.096-8.646,0.461-12.418
				c1.608-3.898,4.493-6.641,8.123-7.719c7.377-2.197,15.543,3.267,18.191,12.177l5.936,19.966c0.271,0.911-0.248,1.868-1.158,2.139
				c-0.91,0.271-1.868-0.248-2.139-1.158l-5.936-19.966c-2.11-7.092-8.351-11.515-13.914-9.86c-2.615,0.777-4.719,2.813-5.924,5.734
				c-1.257,3.046-1.379,6.643-0.344,10.125l9.544,32.103c0.271,0.911-0.248,1.868-1.158,2.139
				C657.196,481.815,657.03,481.839,656.867,481.839z"/>
		</g>
	</g>
	<g>
		<g>
			<rect x="225.511" y="484.739" fill="#FFFFFF" width="63.337" height="124.152"/>
			<path fill="#363437" d="M288.848,610.896h-63.337c-1.107,0-2.006-0.898-2.006-2.006V484.739c0-1.107,0.898-2.006,2.006-2.006
				h63.337c1.107,0,2.006,0.898,2.006,2.006V608.89C290.854,609.998,289.955,610.896,288.848,610.896z M227.517,606.884h59.325
				v-120.14h-59.325V606.884z"/>
		</g>
		<g>
			<path fill="#FFFFFF" d="M288.854,608.884c7.014,11.58,5.773,26.853-3.973,37.176l-1.671,1.77
				c-11.704,12.397-31.243,12.959-43.64,1.255L108.158,525.021c-12.397-11.704-12.959-31.242-1.255-43.64l1.671-1.77
				c11.704-12.397,31.243-12.959,43.64-1.255l101.842,96.148"/>
			<path fill="#303333" d="M260.752,659.499c-8.103,0.001-16.218-2.967-22.56-8.954L106.781,526.479
				c-6.386-6.028-10.041-14.183-10.294-22.96c-0.252-8.778,2.929-17.129,8.958-23.515l1.672-1.771
				c6.028-6.386,14.183-10.041,22.96-10.294c8.767-0.28,17.128,2.927,23.515,8.956l101.843,96.148
				c0.806,0.761,0.842,2.03,0.082,2.836c-0.762,0.806-2.031,0.841-2.836,0.082l-101.843-96.148
				c-5.606-5.293-12.914-8.062-20.646-7.864c-7.706,0.222-14.866,3.432-20.158,9.038l-1.673,1.771
				c-5.292,5.606-8.085,12.938-7.863,20.646c0.221,7.707,3.431,14.866,9.037,20.158l131.412,124.064
				c11.573,10.928,29.878,10.399,40.806-1.174l1.67-1.771c8.885-9.411,10.413-23.704,3.716-34.759
				c-0.573-0.947-0.271-2.181,0.677-2.755c0.946-0.574,2.18-0.271,2.755,0.677c7.628,12.592,5.889,28.873-4.23,39.591l-1.67,1.771
				C278.211,656.046,269.49,659.499,260.752,659.499z"/>
		</g>
		<g>
			<g>
				<path fill="#FFFFFF" d="M148.141,469.275c2.144-4.395,0.302-9.744-4.093-11.888L91.93,431.964
					c-4.395-2.144-9.744-0.302-11.888,4.093l-26.166,53.641c-2.144,4.395-0.302,9.744,4.093,11.888l52.119,25.423
					c4.395,2.144,9.744,0.302,11.888-4.093"/>
				<path fill="#303333" d="M113.968,529.913c-1.602,0-3.226-0.354-4.759-1.102L57.09,503.388c-5.4-2.634-7.65-9.17-5.017-14.569
					l26.166-53.642c1.271-2.607,3.491-4.566,6.25-5.516c2.758-0.949,5.714-0.772,8.32,0.5l52.117,25.422
					c5.4,2.635,7.65,9.171,5.017,14.569c-0.485,0.996-1.688,1.408-2.682,0.924c-0.996-0.485-1.409-1.687-0.924-2.682
					c1.664-3.411,0.242-7.541-3.17-9.206l-52.117-25.422c-1.645-0.803-3.511-0.911-5.256-0.312c-1.745,0.601-3.148,1.837-3.95,3.48
					l-26.166,53.642c-0.802,1.645-0.912,3.511-0.312,5.256s1.837,3.148,3.48,3.95l52.119,25.423c3.41,1.664,7.541,0.242,9.205-3.169
					c0.486-0.995,1.689-1.408,2.682-0.924c0.996,0.485,1.409,1.687,0.924,2.682C121.892,527.661,118.005,529.913,113.968,529.913z"
					/>
			</g>
			<g>
				<g>
					<path fill="#FFFFFF" d="M113.151,463.829c2.755,1.344,5.449,1.543,5.986,0.443l6.552-13.432c0.537-1.1-1.279-3.1-4.034-4.444
						l-32.679-15.94c-2.755-1.344-5.449-1.543-5.986-0.443l-6.552,13.432c-0.537,1.1,1.279,3.1,4.034,4.444L113.151,463.829z"/>
					<path fill="#303333" d="M117.39,466.867c-0.176,0-0.359-0.007-0.553-0.021c-1.367-0.102-2.969-0.571-4.512-1.324l0,0
						l-32.679-15.94c-1.543-0.752-2.899-1.726-3.821-2.74c-1.777-1.959-1.439-3.487-1.08-4.224l6.552-13.432
						c0.359-0.736,1.359-1.948,3.993-1.748c1.367,0.101,2.97,0.571,4.512,1.324l32.679,15.939c1.543,0.753,2.9,1.727,3.821,2.741
						c1.777,1.959,1.439,3.487,1.08,4.224l-6.552,13.431C120.498,465.78,119.617,466.867,117.39,466.867z M113.978,462.135
						c1.786,0.87,3.108,1.004,3.639,0.955l6.206-12.722c-0.286-0.445-1.207-1.408-2.994-2.28L88.15,432.149
						c-1.786-0.872-3.112-1.008-3.639-0.956l-6.206,12.723c0.286,0.445,1.207,1.407,2.994,2.279L113.978,462.135z"/>
				</g>
				<g>
					<path fill="#FFFFFF" d="M104.648,481.261c2.755,1.344,5.449,1.543,5.986,0.443l6.552-13.432c0.537-1.1-1.279-3.1-4.034-4.444
						l-32.679-15.94c-2.755-1.344-5.449-1.543-5.986-0.443l-6.552,13.432c-0.537,1.1,1.279,3.1,4.034,4.444L104.648,481.261z"/>
					<path fill="#303333" d="M108.902,484.31c-1.563,0-3.396-0.534-5.08-1.355l0,0l-32.679-15.94
						c-3.336-1.626-6.146-4.41-4.902-6.963l6.553-13.433c1.245-2.551,5.17-2.051,8.506-0.424l32.679,15.94
						c3.336,1.627,6.146,4.411,4.902,6.963l-6.553,13.433C111.711,483.795,110.436,484.31,108.902,484.31z M105.474,479.568
						c1.784,0.87,3.105,0.995,3.64,0.956l6.205-12.722c-0.285-0.446-1.206-1.408-2.993-2.28l-32.679-15.94
						c-1.785-0.871-3.109-1.001-3.64-0.956l-6.205,12.723c0.285,0.445,1.206,1.407,2.993,2.279L105.474,479.568z"/>
				</g>
				<g>
					<path fill="#FFFFFF" d="M96.144,498.694c2.755,1.344,5.449,1.543,5.986,0.443l6.552-13.432c0.537-1.1-1.279-3.1-4.034-4.444
						l-32.679-15.94c-2.755-1.344-5.449-1.543-5.986-0.443l-6.552,13.432c-0.537,1.1,1.279,3.1,4.034,4.444L96.144,498.694z"/>
					<path fill="#303333" d="M100.383,501.733c-0.176,0-0.36-0.007-0.553-0.021c-1.367-0.101-2.97-0.571-4.512-1.324l-32.68-15.94
						c-1.543-0.752-2.899-1.726-3.82-2.74c-1.777-1.959-1.439-3.487-1.08-4.224l6.552-13.432c0.358-0.737,1.35-1.939,3.993-1.748
						c1.366,0.102,2.969,0.571,4.512,1.324l32.679,15.94c1.543,0.752,2.899,1.726,3.821,2.74c1.777,1.959,1.439,3.487,1.08,4.224
						l-6.552,13.432C103.49,500.646,102.61,501.733,100.383,501.733z M61.298,478.781c0.286,0.445,1.206,1.407,2.993,2.279
						l32.68,15.94l0,0c1.786,0.871,3.11,1.008,3.639,0.956l6.206-12.723c-0.286-0.445-1.207-1.407-2.994-2.279l-32.679-15.94
						c-1.787-0.87-3.114-1.008-3.639-0.955L61.298,478.781z"/>
				</g>
				<g>
					<path fill="#FFFFFF" d="M87.641,516.127c2.755,1.344,5.449,1.543,5.986,0.443l6.552-13.432c0.537-1.1-1.279-3.1-4.034-4.444
						l-32.679-15.94c-2.755-1.344-5.449-1.543-5.986-0.443l-6.552,13.432c-0.537,1.1,1.279,3.1,4.034,4.444L87.641,516.127z"/>
					<path fill="#303333" d="M91.879,519.166c-0.176,0-0.359-0.007-0.553-0.021c-1.367-0.102-2.969-0.571-4.512-1.324l0,0
						l-32.679-15.94c-1.543-0.753-2.9-1.726-3.821-2.741c-1.778-1.959-1.439-3.487-1.08-4.224l6.552-13.431
						c1.245-2.552,5.17-2.052,8.505-0.425l32.68,15.94c1.543,0.753,2.899,1.727,3.82,2.741c1.778,1.959,1.439,3.487,1.08,4.224
						l-6.552,13.431C94.988,518.079,94.107,519.166,91.879,519.166z M88.467,514.434c1.786,0.87,3.112,1.004,3.639,0.955
						l6.205-12.723c-0.285-0.445-1.206-1.407-2.992-2.279l-32.68-15.94c-1.788-0.871-3.115-1.004-3.639-0.955l-6.205,12.723
						c0.286,0.445,1.207,1.407,2.993,2.279L88.467,514.434z"/>
				</g>
			</g>
		</g>
		<g>
			<path fill="#FFFFFF" d="M150.178,480.118l9.544-32.103c2.372-7.98-0.969-16.079-7.426-17.998h0
				c-6.456-1.919-13.68,3.039-16.052,11.019l-5.936,19.966"/>
			<path fill="#303333" d="M150.179,481.839c-0.163,0-0.327-0.023-0.491-0.072c-0.91-0.271-1.43-1.228-1.158-2.139l9.544-32.103
				c1.035-3.483,0.913-7.079-0.344-10.125c-1.205-2.921-3.309-4.957-5.924-5.734c-2.613-0.775-5.489-0.222-8.094,1.566
				c-2.717,1.865-4.783,4.811-5.819,8.294l-5.936,19.966c-0.271,0.911-1.23,1.427-2.139,1.158c-0.91-0.271-1.43-1.228-1.158-2.139
				l5.936-19.966c1.259-4.235,3.805-7.84,7.169-10.149c3.479-2.388,7.395-3.108,11.021-2.027c3.63,1.078,6.516,3.819,8.124,7.719
				c1.556,3.772,1.72,8.183,0.46,12.418l-9.544,32.103C151.605,481.355,150.92,481.839,150.179,481.839z"/>
		</g>
	</g>
	<g>
		<path fill="#FFFFFF" d="M285.845,667.903v-134.63h-62.536h-1.64v-119.32c0-18.207,15.54-32.967,34.71-32.967h295.292
			c19.17,0,34.71,14.76,34.71,32.967v119.32h-5.299h-62.536v134.63L285.845,667.903z"/>
		<path fill="#303333" d="M518.544,669.909H285.845c-1.107,0-2.006-0.898-2.006-2.006V535.279h-62.171
			c-1.107,0-2.006-0.898-2.006-2.006v-119.32c0-19.284,16.471-34.973,36.715-34.973h295.292c20.245,0,36.716,15.688,36.716,34.973
			v119.32c0,1.107-0.898,2.006-2.006,2.006H520.55v132.624C520.55,669.01,519.652,669.909,518.544,669.909z M287.851,665.897
			h228.687V533.273c0-1.107,0.898-2.006,2.006-2.006h65.829V413.953c0-17.072-14.671-30.961-32.704-30.961H256.377
			c-18.032,0-32.703,13.889-32.703,30.961v117.314h62.171c1.107,0,2.006,0.898,2.006,2.006V665.897z"/>
	</g>
	<g>
		<path fill="#FFFFFF" d="M461.451,406.188v-64.615H346.596v64.615c0,0,0,31.318,57.427,31.318S461.451,406.188,461.451,406.188z"/>
		<path fill="#363437" d="M404.024,440.18c-24.597,0-42.166-5.561-52.221-16.526c-7.792-8.499-7.882-17.104-7.882-17.467v-64.614
			c0-1.477,1.198-2.675,2.675-2.675H461.45c1.477,0,2.675,1.198,2.675,2.675v64.614c0,0.362-0.09,8.968-7.882,17.467
			C446.19,434.62,428.62,440.18,404.024,440.18z M349.271,344.248v61.939c0.015,1.153,0.979,28.644,54.753,28.644
			c53.703,0,54.735-27.419,54.752-28.655v-61.928H349.271z"/>
	</g>
	<g>
		<path fill="#303333" d="M471.276,533.687H336.772c-1.107,0-2.006-0.898-2.006-2.006s0.898-2.006,2.006-2.006h134.504
			c1.107,0,2.006,0.898,2.006,2.006S472.383,533.687,471.276,533.687z"/>
	</g>
	<g>
		<g>
			
				<ellipse transform="matrix(-0.9295 -0.3688 0.3688 -0.9295 929.2645 705.8024)" fill="#FFFFFF" cx="532.093" cy="264.081" rx="26.799" ry="45.245"/>
			<path fill="#363437" d="M521.672,309.992c-2.487,0-4.921-0.444-7.254-1.369c-7.567-3.003-12.674-10.595-14.381-21.375
				c-1.626-10.276,0.028-22.364,4.661-34.037c9.91-24.977,29.71-39.764,45.069-33.67c7.567,3.002,12.675,10.594,14.381,21.375
				c1.627,10.276-0.028,22.364-4.659,34.036C551.083,296.135,535.564,309.992,521.672,309.992z M542.69,223.562
				c-11.542,0-25.643,13.029-33.02,31.621c-4.283,10.794-5.827,21.885-4.349,31.229c1.399,8.839,5.331,14.961,11.07,17.239
				c12.154,4.816,29.615-9.224,38.127-30.672c4.282-10.794,5.827-21.885,4.348-31.228c-1.398-8.84-5.33-14.962-11.07-17.239
				C546.176,223.87,544.463,223.562,542.69,223.562z"/>
		</g>
		<g>
			
				<ellipse transform="matrix(0.9295 -0.3688 0.3688 0.9295 -77.9478 120.4041)" fill="#FFFFFF" cx="275.954" cy="264.081" rx="26.799" ry="45.245"/>
			<path fill="#363437" d="M286.374,309.992c-13.893,0-29.409-13.854-37.815-35.04c-4.633-11.672-6.287-23.76-4.661-34.036
				c1.707-10.781,6.813-18.373,14.381-21.375c15.364-6.097,35.159,8.693,45.069,33.67c4.633,11.673,6.287,23.761,4.661,34.037
				c-1.707,10.78-6.813,18.372-14.381,21.374C291.296,309.548,288.861,309.992,286.374,309.992z M265.357,223.562
				c-1.773,0-3.486,0.307-5.105,0.949c-5.739,2.278-9.671,8.4-11.07,17.24c-1.479,9.344,0.065,20.434,4.349,31.228
				c8.512,21.447,25.968,35.494,38.126,30.672c5.739-2.278,9.671-8.4,11.07-17.239c1.479-9.344-0.065-20.435-4.349-31.229
				C290.999,236.592,276.898,223.562,265.357,223.562z"/>
		</g>
	</g>
	<g>
		<path fill="#FFFFFF" d="M526.822,228.389c0,86.665-54.979,151.797-122.798,151.797s-122.798-65.132-122.798-151.797
			s-12.024-113.393,122.798-113.393S526.822,141.724,526.822,228.389z"/>
		<path fill="#363437" d="M404.024,382.861c-70.358,0-125.474-67.853-125.474-154.472c0-6.91-0.075-13.368-0.148-19.614
			c-0.419-35.64-0.694-59.185,14.525-74.584c15.554-15.738,46.703-21.87,111.097-21.87s95.542,6.132,111.096,21.87
			c15.22,15.399,14.944,38.944,14.525,74.584c-0.073,6.246-0.148,12.704-0.148,19.614
			C529.496,315.009,474.382,382.861,404.024,382.861z M404.024,117.671c-62.786,0-92.868,5.686-107.293,20.28
			c-13.649,13.811-13.384,36.467-12.98,70.762c0.073,6.261,0.149,12.735,0.149,19.677c0,83.62,52.765,149.122,120.124,149.122
			s120.123-65.502,120.123-149.122c0-6.941,0.076-13.416,0.149-19.677c0.403-34.295,0.669-56.951-12.98-70.762
			C496.891,123.356,466.81,117.671,404.024,117.671z"/>
	</g>
	<g>
		<path fill="#FFFFFF" d="M382.578,169.536v109.02c2.828,8.265,11.359,14.27,21.445,14.27c10.087,0,18.617-6.006,21.445-14.27"/>
		<path fill="#363437" d="M404.024,294.832c-10.764,0-20.145-6.279-23.343-15.626c-0.072-0.209-0.108-0.429-0.108-0.649V169.536
			c0-1.107,0.898-2.006,2.006-2.006s2.006,0.898,2.006,2.006v108.678c2.744,7.554,10.511,12.606,19.439,12.606
			c9.049,0,16.904-5.189,19.548-12.913c0.359-1.047,1.499-1.608,2.547-1.248c1.048,0.358,1.607,1.499,1.248,2.547
			C424.168,288.552,414.787,294.832,404.024,294.832z"/>
	</g>
	<g>
		<g>
			<path fill="#353336" d="M450.283,321.287c0,13.796-20.711,24.98-46.259,24.98c-25.548,0-46.259-11.184-46.259-24.98H450.283z"/>
			<path fill="#363437" d="M404.024,348.274c-27.064,0-48.265-11.854-48.265-26.986c0-1.107,0.898-2.006,2.006-2.006h92.518
				c1.107,0,2.006,0.898,2.006,2.006C452.288,336.421,431.088,348.274,404.024,348.274z M359.947,323.294
				c2.031,11.557,21.39,20.969,44.077,20.969s42.046-9.412,44.077-20.969H359.947z"/>
		</g>
	</g>
	<g>
		<path fill="#2CBDC2" d="M549.024,244.473L543.8,214.72c0,0-6.708-28.532,2.416-57.612c-30.583-37.774-31.163-52.004-42.602-74.369
			c-97.319-97.617-203.335,0-203.335,0s-8.574,30.827-45.702,75.476c14.52,32.015,12.116,61.56,12.116,61.56l-10.856,29.561
			c0,0,18.175,25.315,29.645,30.617c-5.9-75.258,11.724-126.47,11.724-126.47s12.345,24.574,18.262,19.12
			c1.431-12.949,12.1-35.415,12.1-35.415s42.566,36.997,90.647,48.229c-6.578-20.748-6.894-40.053-6.769-46.791
			c10.769,9.029,32.257,26.104,54.415,38.258c0,0,2.65-14.203,11.303-24.789c10.939,4.844,22.497,11.147,34.076,19.401
			c0,0,8.92,41.706,8.617,98.535L549.024,244.473z"/>
		<path fill="#373538" d="M285.481,282.627c-0.382,0-0.765-0.082-1.122-0.247c-11.972-5.534-29.937-30.428-30.695-31.485
			c-0.517-0.72-0.644-1.649-0.338-2.481l10.724-29.198c0.196-3.37,1.305-30.764-11.908-59.896c-0.424-0.934-0.276-2.026,0.379-2.814
			c36.247-43.589,45.098-74.182,45.183-74.485c0.134-0.479,0.399-0.912,0.765-1.249c1.101-1.013,27.389-24.948,66.18-37.189
			c22.882-7.22,45.304-8.784,66.648-4.651c26.661,5.164,51.63,19.268,74.212,41.92c0.196,0.196,0.361,0.423,0.487,0.67
			c3.134,6.128,5.496,11.728,7.779,17.143c6.113,14.496,12.435,29.484,34.521,56.763c0.564,0.696,0.742,1.628,0.474,2.483
			c-8.785,27.999-2.43,55.922-2.364,56.201c0.012,0.048,0.021,0.099,0.03,0.147l5.224,29.753c0.162,0.921-0.169,1.858-0.871,2.475
			l-29.167,25.557c-0.792,0.692-1.916,0.857-2.873,0.421c-0.958-0.437-1.569-1.395-1.564-2.447
			c0.272-51.072-7.024-90.256-8.353-96.95c-9.641-6.792-20.003-12.728-30.842-17.67c-7.147,9.728-9.474,21.85-9.498,21.978
			c-0.157,0.843-0.709,1.56-1.484,1.927c-0.773,0.367-1.68,0.341-2.431-0.072c-19.603-10.752-38.685-25.316-50.427-34.897
			c0.241,9.067,1.518,24.197,6.616,40.277c0.29,0.917,0.066,1.919-0.587,2.625c-0.653,0.705-1.632,1.006-2.571,0.788
			c-41.792-9.764-78.835-38.176-89.062-46.529c-2.923,6.564-9.363,21.862-10.418,31.404c-0.071,0.641-0.371,1.235-0.846,1.672
			c-1.33,1.228-3.048,1.728-4.832,1.399c-5.141-0.937-10.867-9.258-14.52-15.538c-4.294,15.637-14.415,60.204-9.781,119.314
			c0.074,0.946-0.359,1.861-1.139,2.404C286.553,282.465,286.018,282.627,285.481,282.627z M258.841,248.91
			c3.138,4.234,14.517,19.191,23.599,26.024c-4.688-72.126,12.062-121.818,12.236-122.323c0.351-1.018,1.276-1.726,2.35-1.798
			c1.079-0.077,2.086,0.506,2.569,1.467c4.979,9.901,11.03,17.593,13.434,18.384c2.069-13.348,11.696-33.728,12.122-34.624
			c0.359-0.755,1.051-1.299,1.869-1.47s1.669,0.051,2.301,0.599c0.407,0.354,39.972,34.394,84.99,46.509
			c-5.336-19.139-5.667-36.283-5.539-43.103c0.02-1.03,0.628-1.957,1.565-2.384c0.937-0.428,2.037-0.278,2.826,0.384
			c10.257,8.6,30.111,24.384,50.918,36.248c1.383-5.078,4.626-14.61,11.013-22.422c0.763-0.933,2.051-1.239,3.153-0.753
			c12.185,5.396,23.807,12.014,34.545,19.669c0.544,0.388,0.923,0.965,1.062,1.618c0.087,0.405,8.362,39.721,8.675,93.197
			l23.6-20.679l-4.95-28.199c-0.458-1.989-6.412-29.096,2.064-57.571c-21.843-27.169-28.223-42.301-34.397-56.941
			c-2.301-5.454-4.477-10.613-7.423-16.413c-21.706-21.677-45.604-35.177-71.043-40.127c-20.436-3.976-41.953-2.487-63.954,4.427
			c-34.745,10.921-59.871,32.151-63.801,35.601c-1.586,5.116-11.493,33.852-44.93,74.412c13.885,31.666,11.762,60.135,11.663,61.35
			c-0.021,0.241-0.072,0.479-0.155,0.705L258.841,248.91z"/>
	</g>
	<g>
		<path fill="#FFFFFF" d="M382.98,343.415c6.339,1.763,13.422,2.853,21.043,2.853c8.326,0,16.028-1.283,22.777-3.361
			c-2.164-7.21-11.116-12.621-21.854-12.621C393.961,330.286,384.869,335.955,382.98,343.415z"/>
	</g>
	<g>
		<line fill="#FFFFFF" x1="285.507" y1="463.865" x2="285.507" y2="562.273"/>
		<path fill="#303333" d="M285.507,564.279c-1.107,0-2.006-0.898-2.006-2.006v-98.408c0-1.107,0.898-2.006,2.006-2.006
			s2.006,0.898,2.006,2.006v98.408C287.513,563.381,286.615,564.279,285.507,564.279z"/>
	</g>
	<g>
		<line fill="#FFFFFF" x1="518.544" y1="461.131" x2="518.544" y2="562.273"/>
		<path fill="#303333" d="M518.544,564.279c-1.107,0-2.006-0.898-2.006-2.006V461.131c0-1.107,0.898-2.006,2.006-2.006
			s2.006,0.898,2.006,2.006v101.143C520.55,563.381,519.652,564.279,518.544,564.279z"/>
	</g>
	<g>
		<g>
			<path fill="#363437" d="M491.34,249.47c-0.483,0-0.949-0.264-1.186-0.723c-3.375-6.562-10.583-10.801-18.363-10.801
				s-14.988,4.239-18.363,10.801c-0.336,0.653-1.138,0.914-1.794,0.575c-0.654-0.336-0.912-1.14-0.575-1.794
				c3.826-7.439,11.964-12.246,20.732-12.246s16.906,4.807,20.732,12.246c0.337,0.654,0.079,1.458-0.575,1.794
				C491.753,249.424,491.545,249.47,491.34,249.47z"/>
		</g>
		<g>
			<path fill="#363437" d="M499.884,228.958c-0.827,0-1.649-0.351-2.227-1.031c-8.822-10.415-19.351-15.92-30.447-15.92
				c-7.617,0-14.94,2.582-21.767,7.674c-1.291,0.963-3.119,0.697-4.082-0.594c-0.964-1.291-0.697-3.119,0.594-4.082
				c7.745-5.778,16.479-8.832,25.255-8.832c12.683,0,25.076,6.387,34.898,17.982c1.042,1.229,0.889,3.07-0.34,4.111
				C501.22,228.731,500.551,228.958,499.884,228.958z"/>
		</g>
		<g>
			<g>
				<path fill="#363437" d="M355.805,249.47c-0.483,0-0.949-0.264-1.186-0.723c-3.375-6.562-10.583-10.801-18.363-10.801
					c-7.781,0-14.989,4.239-18.363,10.801c-0.336,0.653-1.138,0.914-1.794,0.575c-0.654-0.336-0.912-1.14-0.575-1.794
					c3.825-7.439,11.963-12.246,20.732-12.246c8.769,0,16.906,4.807,20.732,12.246c0.337,0.654,0.079,1.458-0.575,1.794
					C356.218,249.424,356.01,249.47,355.805,249.47z"/>
			</g>
			<g>
				<path fill="#363437" d="M308.163,228.958c-0.667,0-1.336-0.227-1.885-0.691c-1.229-1.041-1.382-2.882-0.34-4.111
					c9.821-11.596,22.215-17.982,34.897-17.982c8.776,0,17.51,3.054,25.256,8.832c1.291,0.963,1.558,2.791,0.594,4.082
					c-0.962,1.291-2.791,1.557-4.082,0.594c-6.827-5.092-14.15-7.674-21.768-7.674c-11.098,0-21.625,5.505-30.446,15.92
					C309.814,228.607,308.991,228.958,308.163,228.958z"/>
			</g>
		</g>
	</g>
</g>
</svg>
