<?xml version="1.0" encoding="utf-8"?>
<!-- Generator: Adobe Illustrator 19.1.0, SVG Export Plug-In . SVG Version: 6.00 Build 0)  -->
<svg version="1.1" id="Layer_1" xmlns="http://www.w3.org/2000/svg" xmlns:xlink="http://www.w3.org/1999/xlink" x="0px" y="0px"
	 viewBox="0 0 452 250" enable-background="new 0 0 452 250" xml:space="preserve">
<g>
	<g>
		<path fill="#FFFFFF" d="M424.8,228.2l-18.5-45.7c6.9-5.1,11.4-13.2,11.4-22.5V53.8c0-15.4-12.5-28-28-28H60c-15.4,0-28,12.5-28,28
			V160c0,15.4,12.5,28,28,28h284.3L424.8,228.2z"/>
		<path fill="#D8D8D8" d="M426.719,230.276L344.064,189H60c-15.991,0-29-13.01-29-29V53.8c0-15.991,13.009-29,29-29h329.7
			c15.99,0,29,13.009,29,29V160c0,9.008-4.066,17.285-11.187,22.834L426.719,230.276z M60,26.8c-14.888,0-27,12.112-27,27V160
			c0,14.888,12.112,27,27,27h284.535l78.346,39.124l-17.799-43.968l0.623-0.461c6.987-5.163,10.995-13.071,10.995-21.695V53.8
			c0-14.888-12.112-27-27-27H60z"/>
	</g>
</g>
<g>
	<path d="M138.656,95.258c0,4.582,1.691,6.204,6.556,6.204h1.975c1.269,0,2.114,0.987,2.114,2.044c0,1.128-0.846,2.115-2.114,2.115
		h-1.975c-7.261,0-11.138-3.102-11.138-10.363V58.106c0-0.987,1.198-1.692,2.256-1.692c1.128,0,2.326,0.705,2.326,1.692v14.17h9.094
		c0.916,0,1.621,0.917,1.621,1.903s-0.705,1.903-1.621,1.903h-9.094V95.258z"/>
	<path d="M159.735,103.788c0,0.917-1.058,1.833-2.326,1.833s-2.256-0.917-2.256-1.833V53.524c0-0.987,0.987-1.692,2.256-1.692
		s2.326,0.705,2.326,1.692v23.687c1.48-2.75,4.653-5.358,9.306-5.358c6.768,0,12.478,5.922,12.478,13.183v18.752
		c0,1.199-1.128,1.833-2.326,1.833c-1.058,0-2.256-0.634-2.256-1.833V85.036c0-4.512-3.948-8.953-8.741-8.953
		c-4.159,0-8.46,3.313-8.46,8.953V103.788z"/>
	<path d="M212.396,85.459v18.329c0,1.058-0.916,1.833-2.256,1.833c-1.198,0-2.114-0.775-2.114-1.833v-3.102
		c-2.468,2.82-5.922,5.428-10.646,5.428c-5.357,0-9.587-2.961-9.587-9.306c0-7.684,6.626-9.658,16.426-9.658h3.595v-1.692
		c0-4.512-2.256-9.587-8.318-9.587c-4.724,0-6.415,2.044-7.543,2.044c-1.198,0-1.833-1.41-1.833-2.467
		c0-1.833,5.005-3.596,9.517-3.596C209.083,71.853,212.396,78.409,212.396,85.459z M207.814,90.323h-2.961
		c-6.485,0-12.478,0.634-12.478,6.062c0,4.089,2.679,5.851,6.133,5.851c4.512,0,9.306-4.229,9.306-7.402V90.323z"/>
	<path d="M225.581,103.788c0,0.917-1.058,1.833-2.326,1.833c-1.34,0-2.256-0.917-2.256-1.833V73.968
		c0-0.987,0.916-1.692,2.256-1.692c1.128,0,2.114,0.705,2.114,1.692v3.243c1.48-2.75,4.724-5.358,9.446-5.358
		c6.768,0,12.549,5.922,12.549,13.183v18.752c0,1.199-1.199,1.833-2.327,1.833c-1.057,0-2.256-0.634-2.256-1.833V85.036
		c0-4.512-3.947-8.953-8.812-8.953c-4.159,0-8.389,3.313-8.389,8.953V103.788z"/>
	<path d="M270.276,84.684l12.195,17.835c0.141,0.282,0.282,0.634,0.282,0.987c0,1.057-1.27,2.326-2.468,2.326
		c-0.563,0-1.058-0.282-1.41-0.846l-11.843-17.413l-6.485,5.71v10.504c0,0.917-0.987,1.833-2.326,1.833
		c-1.27,0-2.256-0.917-2.256-1.833V53.524c0-0.987,0.986-1.692,2.256-1.692c1.339,0,2.326,0.705,2.326,1.692v34.332l17.2-15.298
		c0.353-0.211,0.705-0.423,1.058-0.423c1.128,0,2.326,0.987,2.326,2.186c0,0.423-0.07,0.916-0.493,1.269L270.276,84.684z"/>
	<path d="M304.186,97.231c0-9.375-17.412-4.088-17.412-15.791c0-4.512,3.102-9.587,11.139-9.587c4.652,0,9.446,1.763,9.446,3.455
		c0,0.775-0.775,2.397-1.903,2.397s-3.313-1.974-7.473-1.974c-5.217,0-7.05,3.172-7.05,5.499c0,8.037,17.483,2.961,17.483,15.791
		c0,5.569-4.16,9.094-11.351,9.094c-6.626,0-11.067-2.961-11.067-5.076c0-0.917,0.705-2.115,1.621-2.115
		c1.551,0,2.961,3.313,9.306,3.313C302.282,102.237,304.186,99.911,304.186,97.231z"/>
	<path d="M321.247,102.801c0,1.692-1.41,3.243-3.172,3.243c-1.904,0-3.243-1.551-3.243-3.243c0-1.833,1.339-3.313,3.243-3.313
		C319.837,99.487,321.247,100.968,321.247,102.801z M319.907,92.368c0,1.128-1.128,1.621-1.903,1.621
		c-0.916,0-1.833-0.493-1.833-1.621c0-11.562-0.846-24.885-0.846-36.446c0-1.763,1.198-2.75,2.679-2.75s2.679,0.987,2.679,2.75
		C320.683,67.482,319.907,80.806,319.907,92.368z"/>
</g>
<g>
	<path d="M100.093,138.023c0,0.148-0.111,0.445-0.148,0.52l-5.822,16.129c-0.111,0.334-0.296,0.445-0.556,0.445
		c-0.296,0-0.371-0.111-0.519-0.408l-4.338-13.904l-4.264,13.682c-0.148,0.445-0.334,0.631-0.63,0.631
		c-0.334,0-0.445-0.111-0.63-0.631l-5.784-15.943c-0.037-0.074-0.148-0.371-0.148-0.482c0-0.371,0.296-0.668,0.667-0.668
		c0.259,0,0.519,0.148,0.63,0.408l5.228,14.498l4.264-13.423c0.111-0.297,0.333-0.481,0.667-0.481c0.333,0,0.556,0.185,0.667,0.481
		l4.116,13.608l5.339-14.684c0.074-0.26,0.334-0.408,0.593-0.408C99.796,137.393,100.093,137.615,100.093,138.023z"/>
	<path d="M115.856,143.845c0,2.707-1.483,2.781-3.078,2.781h-8.788v1.742c0,3.374,2.632,5.451,6.266,5.451
		c3.115,0,3.671-1.521,4.375-1.521c0.333,0,0.667,0.371,0.667,0.667c0,0.705-1.928,2.151-5.117,2.151
		c-4.375,0-7.49-2.707-7.49-6.749v-4.635c0-3.56,3.003-6.562,6.6-6.562C112.778,137.171,115.856,139.988,115.856,143.845z
		 M112.333,145.328c1.817,0,2.225-0.223,2.225-1.372c0-2.67-2.077-5.487-5.265-5.487c-3.003,0-5.302,2.483-5.302,5.265v1.595
		H112.333z"/>
	<path d="M120.827,128.754c0,0.593-0.63,2.41-1.224,3.597c-0.111,0.223-0.333,0.37-0.519,0.37c-0.297,0-0.593-0.222-0.593-0.556
		c0-0.074,0-0.148,0.037-0.223l0.667-1.891c-0.593-0.148-1.001-0.705-1.001-1.298c0-0.742,0.556-1.335,1.335-1.335
		C120.233,127.419,120.827,128.012,120.827,128.754z"/>
	<path d="M126.315,127.048v27.178c0,0.334-0.297,0.668-0.667,0.668s-0.63-0.334-0.63-0.668v-27.178c0-0.371,0.26-0.63,0.63-0.63
		S126.315,126.678,126.315,127.048z"/>
	<path d="M133.324,127.048v27.178c0,0.334-0.297,0.668-0.667,0.668s-0.63-0.334-0.63-0.668v-27.178c0-0.371,0.26-0.63,0.63-0.63
		S133.324,126.678,133.324,127.048z"/>
	<path d="M145.526,148.368v-4.449c0-3.782,2.15-6.748,6.785-6.748c2.966,0,4.857,1.408,4.857,2.188c0,0.334-0.333,0.63-0.667,0.63
		c-0.63,0-1.261-1.52-4.19-1.52c-3.56,0-5.487,2.076-5.487,5.45v4.449c0,3.374,1.891,5.451,5.524,5.451
		c3.115,0,3.745-1.521,4.413-1.521c0.333,0,0.63,0.297,0.63,0.63c0,0.779-1.928,2.188-5.08,2.188
		C147.713,155.117,145.526,152.225,145.526,148.368z"/>
	<path d="M173.264,143.845v4.523c0,3.522-3.078,6.749-6.6,6.749s-6.563-3.189-6.563-6.749v-4.523c0-3.56,2.966-6.674,6.563-6.674
		C170.186,137.171,173.264,140.174,173.264,143.845z M171.966,143.845c0-2.707-2.336-5.376-5.302-5.376s-5.265,2.669-5.265,5.376
		v4.523c0,2.781,2.336,5.451,5.265,5.451s5.302-2.67,5.302-5.451V143.845z"/>
	<path d="M178.939,154.227c0,0.334-0.297,0.668-0.667,0.668c-0.371,0-0.63-0.334-0.63-0.668v-16.203c0-0.371,0.259-0.631,0.63-0.631
		c0.371,0,0.667,0.26,0.667,0.631v1.965c0.815-1.445,2.484-2.817,4.968-2.817c3.634,0,6.674,3.003,6.674,6.674v10.382
		c0,0.445-0.334,0.668-0.667,0.668c-0.296,0-0.63-0.223-0.63-0.668v-10.382c0-2.707-2.373-5.376-5.265-5.376
		c-2.521,0-5.08,2.002-5.08,5.376V154.227z"/>
	<path d="M195.405,129.458c0-0.371,0.333-0.63,0.63-0.63c0.333,0,0.667,0.259,0.667,0.63v7.935h5.005c0.334,0,0.63,0.297,0.63,0.668
		c0,0.334-0.296,0.63-0.63,0.63h-5.005v11.05c0,2.818,1.075,3.856,4.116,3.856h0.853c0.334,0,0.63,0.26,0.63,0.63
		c0,0.371-0.296,0.668-0.63,0.668h-0.853c-3.522,0-5.414-1.558-5.414-5.154V129.458z"/>
	<path d="M216.356,144.29v9.937c0,0.371-0.26,0.668-0.631,0.668c-0.37,0-0.667-0.297-0.667-0.668v-1.928
		c-1.261,1.446-3.114,2.818-5.562,2.818c-2.893,0-5.154-1.558-5.154-4.895c0-3.931,3.485-4.895,8.64-4.895h2.076v-1.038
		c0-2.781-1.372-5.821-4.895-5.821c-2.299,0-3.411,1.001-3.856,1.001c-0.407,0-0.667-0.482-0.667-0.742
		c0-0.704,2.336-1.557,4.598-1.557C214.799,137.171,216.356,140.619,216.356,144.29z M215.059,146.626h-2.039
		c-3.819,0-7.379,0.37-7.379,3.597c0,2.484,1.668,3.597,3.819,3.597c2.78,0,5.599-2.484,5.599-4.079V146.626z"/>
	<path d="M220.659,148.368v-4.449c0-3.782,2.151-6.748,6.786-6.748c2.966,0,4.857,1.408,4.857,2.188c0,0.334-0.334,0.63-0.668,0.63
		c-0.63,0-1.261-1.52-4.189-1.52c-3.56,0-5.488,2.076-5.488,5.45v4.449c0,3.374,1.892,5.451,5.525,5.451
		c3.114,0,3.744-1.521,4.412-1.521c0.334,0,0.63,0.297,0.63,0.63c0,0.779-1.928,2.188-5.079,2.188
		C222.848,155.117,220.659,152.225,220.659,148.368z"/>
	<path d="M236.087,129.458c0-0.371,0.334-0.63,0.63-0.63c0.334,0,0.668,0.259,0.668,0.63v7.935h5.006c0.333,0,0.63,0.297,0.63,0.668
		c0,0.334-0.297,0.63-0.63,0.63h-5.006v11.05c0,2.818,1.075,3.856,4.115,3.856h0.854c0.333,0,0.63,0.26,0.63,0.63
		c0,0.371-0.297,0.668-0.63,0.668H241.5c-3.522,0-5.413-1.558-5.413-5.154V129.458z"/>
	<path d="M265.085,137.801c0,0.074,0,0.148-0.037,0.223l-5.933,16.389c-1.335,3.708-3.263,9.27-6.637,9.27
		c-0.334,0-0.631-0.259-0.631-0.63c0-0.334,0.148-0.668,0.557-0.668c2.67,0,4.152-4.412,5.413-7.972l-5.933-16.389
		c-0.037-0.074-0.074-0.148-0.074-0.223c0-0.334,0.334-0.63,0.705-0.63c0.26,0,0.519,0.148,0.593,0.407l5.377,14.832l5.339-14.832
		c0.111-0.259,0.334-0.407,0.594-0.407C264.752,137.171,265.085,137.393,265.085,137.801z"/>
	<path d="M280.809,143.845v4.523c0,3.522-3.077,6.749-6.6,6.749s-6.563-3.189-6.563-6.749v-4.523c0-3.56,2.967-6.674,6.563-6.674
		C277.731,137.171,280.809,140.174,280.809,143.845z M279.511,143.845c0-2.707-2.336-5.376-5.302-5.376
		c-2.967,0-5.266,2.669-5.266,5.376v4.523c0,2.781,2.336,5.451,5.266,5.451c2.929,0,5.302-2.67,5.302-5.451V143.845z"/>
	<path d="M285.038,148.442v-10.382c0-0.334,0.297-0.668,0.667-0.668c0.334,0,0.631,0.334,0.631,0.668v10.382
		c0,2.744,2.336,5.377,5.302,5.377c2.93,0,5.266-2.596,5.266-5.377v-10.419c0-0.334,0.297-0.631,0.667-0.631
		c0.371,0,0.631,0.297,0.631,0.631v10.419c0,3.56-3.004,6.675-6.563,6.675C288.005,155.117,285.038,151.965,285.038,148.442z"/>
	<path d="M319.118,150.741c0-5.747-9.344-2.633-9.344-8.75c0-2.226,1.631-4.82,5.487-4.82c2.188,0,4.523,0.853,4.523,1.557
		c0,0.26-0.297,0.742-0.63,0.742c-0.482,0-1.632-1.001-3.856-1.001c-3.151,0-4.228,2.039-4.228,3.485
		c0,4.931,9.345,1.854,9.345,8.713c0,2.744-2.077,4.45-5.6,4.45c-3.337,0-5.413-1.521-5.413-2.41c0-0.334,0.26-0.631,0.519-0.631
		c0.668,0,1.372,1.743,4.857,1.743C317.895,153.819,319.118,152.41,319.118,150.741z"/>
	<path d="M336.843,143.845v4.523c0,3.522-3.077,6.749-6.6,6.749s-6.563-3.189-6.563-6.749v-4.523c0-3.56,2.967-6.674,6.563-6.674
		C333.766,137.171,336.843,140.174,336.843,143.845z M335.545,143.845c0-2.707-2.336-5.376-5.302-5.376
		c-2.967,0-5.266,2.669-5.266,5.376v4.523c0,2.781,2.336,5.451,5.266,5.451c2.929,0,5.302-2.67,5.302-5.451V143.845z"/>
	<path d="M353.717,143.845v4.523c0,3.522-3.077,6.749-6.6,6.749s-6.563-3.189-6.563-6.749v-4.523c0-3.56,2.967-6.674,6.563-6.674
		C350.64,137.171,353.717,140.174,353.717,143.845z M352.419,143.845c0-2.707-2.336-5.376-5.302-5.376
		c-2.967,0-5.266,2.669-5.266,5.376v4.523c0,2.781,2.336,5.451,5.266,5.451c2.929,0,5.302-2.67,5.302-5.451V143.845z"/>
	<path d="M359.393,154.227c0,0.334-0.297,0.668-0.668,0.668c-0.37,0-0.63-0.334-0.63-0.668v-16.203c0-0.371,0.26-0.631,0.63-0.631
		c0.371,0,0.668,0.26,0.668,0.631v1.965c0.815-1.445,2.484-2.817,4.969-2.817c3.634,0,6.674,3.003,6.674,6.674v10.382
		c0,0.445-0.334,0.668-0.667,0.668c-0.297,0-0.631-0.223-0.631-0.668v-10.382c0-2.707-2.373-5.376-5.266-5.376
		c-2.521,0-5.079,2.002-5.079,5.376V154.227z"/>
	<path d="M377.712,153.782c0,0.704-0.593,1.335-1.298,1.335c-0.778,0-1.334-0.631-1.334-1.335c0-0.742,0.556-1.335,1.334-1.335
		C377.119,152.447,377.712,153.04,377.712,153.782z"/>
</g>
</svg>
