<?xml version="1.0" encoding="utf-8"?>
<!-- Generator: Adobe Illustrator 19.0.1, SVG Export Plug-In . SVG Version: 6.00 Build 0)  -->
<svg version="1.1" id="Layer_1" xmlns="http://www.w3.org/2000/svg" xmlns:xlink="http://www.w3.org/1999/xlink" x="0px" y="0px"
	 viewBox="90 -90 216 216" style="enable-background:new 90 -90 216 216;" xml:space="preserve">
<style type="text/css">
	.st0{fill:#FFFFFF;stroke:#D8D8D8;stroke-width:0.75;stroke-miterlimit:10;}
</style>
<path id="path8755" class="st0" d="M207.9-1.9c0,0.9,0,1.7-0.1,2.6c3.1,0.3,6.1,1.2,8.7,2.8c2.9-5.9,8.9-9.9,15.9-9.9
	c8.8,0,16.1,6.5,17.5,14.9c2.4-1,5-1.6,7.7-1.6c7,0,13.1,3.7,16.4,9.3c1.9-0.8,3.9-1.3,6.1-1.3c8.3,0,15,6.7,15,15
	s-7.6,12.2-15.9,12.2c-61.6,0.4-102.6-0.2-164.4-0.4c-7.3,0-14.7-8-14.7-15.3s5.9-13.2,13.2-13.2c2.3,0,4.5,0.6,6.4,1.7
	c0.3-12,9.5-21.7,20.9-21.7c0.6,0,1.2,0,1.8,0.1c2.3-15.9,16-28.1,32.6-28.1C193.1-34.9,207.9-20.1,207.9-1.9z"/>
</svg>
