<?xml version="1.0" encoding="utf-8"?>
<!-- Generator: Adobe Illustrator 19.1.0, SVG Export Plug-In . SVG Version: 6.00 Build 0)  -->
<svg version="1.1" id="Layer_1" xmlns="http://www.w3.org/2000/svg" xmlns:xlink="http://www.w3.org/1999/xlink" x="0px" y="0px"
	 viewBox="-212 304.5 185.5 185.5" style="enable-background:new -212 304.5 185.5 185.5;" xml:space="preserve">
<style type="text/css">
	.st0{fill:#D1D3D4;}
	.st1{enable-background:new    ;}
</style>
<g>
	<g>
		<path class="st0" d="M-191.2,393.8L-191.2,393.8c-0.2-0.1-0.3-0.2-0.5-0.2c-0.1,0-0.2-0.1-0.3-0.1c-0.9-1.7-1.8-3.4-3-4.9
			c-0.1-0.3-0.3-0.6-0.4-0.9c-0.6-1-1.9-2.2-3.2-1.8c-0.7-0.1-1.4,0.1-1.8,1v0.1c-0.3,0.3-0.4,0.8-0.5,1.2c-0.1,2.3,1.8,3.8,3.9,4.9
			c1.5,1.1,3.3,1.8,5.2,2.1c0.1,0,0.2,0,0.3,0c0.2,0.1,0.4,0.2,0.7,0.2C-189.9,395.2-190.2,393.6-191.2,393.8z"/>
	</g>
	<g>
		<path class="st0" d="M-195.7,373.2c-0.2,0-0.8-1.1-0.9-1.3c-0.4-0.4-0.9-0.8-1.4-1.1c-1.1-0.6-2.3-1-3.6-1.3
			c-1-0.3-1.5,1.2-0.5,1.5c1.3,0.3,2.7,0.7,3.8,1.6c0.9,0.7,1.2,2.2,2.5,2.3C-194.8,374.9-194.6,373.3-195.7,373.2z"/>
	</g>
	<g>
		<path class="st0" d="M-186.5,366.6c-0.6-0.8-1.8-1-2.6-0.3c-0.8,0.8-0.6,1.9-0.6,2.9c-0.6,0.9-1.1,1.9-1.6,2.9
			c-0.1,0.3-0.2,0.6-0.2,0.9c-0.2,0.2-0.4,0.4-0.6,0.5c-0.8,0.6,0.2,1.8,1,1.2c0.1-0.1,0.2-0.2,0.3-0.3c0.1,0,0.1,0.1,0.2,0.1
			c2.3,0.8,4.1-2.9,4.5-4.6C-185.9,368.9-185.8,367.5-186.5,366.6z"/>
	</g>
	<g>
		<path class="st0" d="M-174.9,401.5c-1,0-1.2,1.6-0.1,1.6c1.9-0.1,1.2,2.4,1.3,3.7c0,0.7,0.3,2,0.2,3.1c0-0.2-0.1-0.4-0.1-0.7
			c-0.2-1-1.8-0.7-1.6,0.3c0.2,0.9,0.3,1.8,0.4,2.8c0,0.6,0.6,1.1,1.1,0.8c2.6-1.3,1.6-4.5,1.6-6.9
			C-172.2,403.8-171.6,401.4-174.9,401.5z"/>
	</g>
	<g>
		<path class="st0" d="M-171.6,406c0.1-0.8,0.1-1.5-0.3-2.3c-0.2-0.5-0.6-0.6-1-0.6c-0.4-0.6-0.9-1.1-1.8-1.3
			c-1.3-0.3-2.7,0.2-3,1.7c-0.4,1.8,0.8,4.2,1.5,5.8c0.2,0.5,0.8,0.7,1.3,0.5c0.1,0.6,0.1,1.1,0,1.7c-0.1,1.4,2,1.6,2.2,0.2
			c0-0.5,0.1-0.9,0-1.4c0.2,0,0.4-0.1,0.5-0.2c1.3-1.1,0.9-2.5,0.5-3.9C-171.6,406.2-171.6,406.1-171.6,406z"/>
	</g>
	<g>
		<path class="st0" d="M-157.5,427.1c0.1-0.1,0.2-0.3,0.2-0.5c-0.1-3.1,0.6-13.1-4.9-12.3c-3,0.5-3.2,4-1.5,5.8c0,0.1,0,0.1,0,0.2
			c0.3,1.2,0.9,2.3,1.5,3.3c0.4,0.6,1,1.1,1.6,1.7c0.1,0.2,0.1,0.3,0.2,0.5c0.1,0.4,0.4,0.6,0.8,0.6c0.1,0.2,0.2,0.4,0.3,0.6
			c0.1,0.2,0.2,0.3,0.4,0.4c-0.4,0.7,0.1,1.8,1.1,1.6C-156.9,428.9-156.8,427.6-157.5,427.1z"/>
	</g>
	<g>
		<path class="st0" d="M-178.8,414.6c-1.4-0.8-2.8-1.6-4.3-2.2c-0.5-0.7-1.3-1.3-2.2-1.4c-0.6-0.6-1.2-1-1.9-1.3
			c-1.4-0.6-4.4-0.8-4.9,1.2c-0.2,0.6,0,1.2,0.3,1.7c0,0.3,0,0.5,0.2,0.8c0.5,0.7,1.2,1.1,2,1.4c0.4,0.3,0.8,0.6,1.2,0.8
			c1,0.6,2,1,3.1,1c0.3,0,0.6,0,1-0.1c1.3,0.4,2.6,0.6,4.1,0.2c0.3,0,0.7,0,1,0C-178.3,416.4-178,415.1-178.8,414.6z"/>
	</g>
	<g>
		<path class="st0" d="M-161.8,432.6c-1.8-0.8-3.7-1.4-5.5-2.1c-1.8-0.7-5.3-2.7-7.1-1c-1.4,1.2-0.4,3.1,1,3.8c0.1,0,0.1,0,0.2,0.1
			c0.9,1.2,2.4,1.8,4.1,2.1c2.4,0.4,6.2,1.2,8.4-0.4c0.3-0.2,0.4-0.7,0.4-1C-160.6,433.1-161,432.9-161.8,432.6z"/>
	</g>
	<g>
		<path class="st0" d="M-182.6,384.3c0-0.9-1.4-1.6-1.9-0.6c-0.4,0.7-0.6,1.5-0.7,2.2c-0.1,0.3-0.2,0.6-0.2,0.9
			c-0.4,2.3-1,4.5-1.7,6.6c-0.5,1.3,1.6,2.1,2,0.7c0.1-0.2,0.1-0.3,0.2-0.5c0.2,0.1,0.5,0.1,0.7,0.1c1.3-0.2,2.4-1.4,2.9-2.5
			C-180.7,389.7-180.6,385.1-182.6,384.3z"/>
	</g>
	<g>
		<path class="st0" d="M-190.5,347.3c-1.9-0.2-3.8,1.8-4.5,3.3c-1.3,2.6-0.6,6.3-0.5,9.1c0,1.4,2.2,1.6,2.2,0.2c0-0.3,0-0.5,0-0.8
			c0.3,0.1,0.7,0,0.9-0.2c1.7-1.6,3.6-4.1,4-6.4C-188.2,350.9-188.4,347.5-190.5,347.3z"/>
	</g>
	<g>
		<path class="st0" d="M-196,372.2c-1.9-1.7-2.3-4.5-4.3-6.1c-0.5-0.5-1.3-0.8-2-0.6c-0.2,0-0.4,0-0.5,0.1c-1.7,0.8-1.9,3.3-0.1,4.1
			c0.3,0.1,0.6,0.2,0.8,0.4c0,0.2,0.1,0.4,0.2,0.5c0.2,0.3,0.5,0.5,0.7,0.8c0.2,0.2,0.4,0.3,0.6,0.3c0.1,0.1,0.2,0.3,0.4,0.4
			c0.9,0.9,2,1.5,3.2,1.9C-195.8,374.5-195.1,373-196,372.2z"/>
	</g>
	<g>
		<g>
			<path class="st0" d="M-113.6,472.6c-0.2,0-0.5-0.1-0.6-0.3c-3.9-8.5-11-16.5-21.5-24.5c-4-3-8.2-5.8-12.3-8.6
				c-7-4.7-14.2-9.6-20.5-15.4c-16.7-15.5-26.6-38.6-26.6-61.7c0-0.3,0.2-0.5,0.5-0.5c0.3,0,0.5,0.2,0.5,0.5
				c-0.1,22.9,9.7,45.6,26.2,61c6.2,5.8,13.4,10.6,20.4,15.3c4.1,2.8,8.3,5.6,12.3,8.6c10.7,8.1,17.9,16.2,21.9,24.9
				C-113.2,472.2-113.3,472.5-113.6,472.6C-113.6,472.6-113.6,472.6-113.6,472.6z"/>
		</g>
	</g>
	<g>
		<g>
			<path class="st0" d="M-157.8,432.3L-157.8,432.3c-0.3,0-0.5-0.2-0.5-0.5c0.1-1.7-0.6-3.5-2.2-5.5c-0.5-0.6-1-1.2-1.5-1.8
				c-0.9-1-1.7-2-2.4-3.2c-0.9-1.5-1.4-2.9-1.3-4.2c0.1-1.7,1.1-3.2,2.5-3.7c1.3-0.4,2.9,0,4,1c1.1,1,1.7,2.4,2.1,3.4
				c1.6,4.2,0.6,9.1-0.2,13.5l-0.1,0.5C-157.5,432.1-157.6,432.2-157.8,432.3z M-162.6,414.3c-0.1,0-0.2,0-0.3,0.1
				c-1,0.4-1.8,1.5-1.9,2.8c-0.1,1.1,0.3,2.3,1.1,3.6c0.7,1.1,1.5,2.1,2.4,3c0.5,0.6,1.1,1.2,1.6,1.9c0.9,1.2,1.5,2.3,1.9,3.4
				c0.7-3.6,1.1-7.5-0.1-10.8c-0.4-1-0.9-2.2-1.9-3.1C-160.7,414.5-161.7,414.1-162.6,414.3z"/>
		</g>
	</g>
	<g>
		<g>
			<path class="st0" d="M-163.9,436.8c-1.9,0.3-3.9,0.2-5.8-0.4c-2.5-0.8-5.4-2.8-5.8-5c-0.2-0.8,0.1-1.6,0.6-2.2
				c0.8-0.9,2.1-1.3,3.6-1.1c1.6,0.2,3.3,0.9,4.7,1.6c0.3,0.1,0.5,0.3,0.8,0.4c1.1,0.6,2.3,1.2,3.5,1.5c1.6,0.5,3,0.5,3.7,0
				c0.2-0.2,0.5-0.1,0.7,0.1c0.2,0.2,0.1,0.5-0.1,0.7c-0.5,0.4-0.9,0.9-1.4,1.5c-0.8,1-1.6,2-3,2.5
				C-162.8,436.6-163.3,436.7-163.9,436.8z M-172.6,429.1c-0.6,0.1-1.2,0.4-1.5,0.8c-0.3,0.4-0.5,0.8-0.4,1.4
				c0.3,1.6,2.6,3.4,5.1,4.2c2.2,0.7,4.7,0.7,6.8,0c1.1-0.4,1.8-1.2,2.5-2.2c0.1-0.1,0.2-0.2,0.3-0.3c-1.1,0-2.2-0.3-2.7-0.4
				c-1.3-0.4-2.5-1-3.7-1.6c-0.3-0.1-0.5-0.3-0.8-0.4c-1.3-0.6-2.9-1.3-4.3-1.5C-171.8,429.1-172.2,429.1-172.6,429.1z"/>
		</g>
	</g>
	<g>
		<g>
			<path class="st0" d="M-175.5,415.2c-0.1,0-0.3,0-0.4-0.1c-0.2-0.2-0.2-0.4-0.1-0.6c0.9-1.4,0.3-3.4-0.1-4.2
				c-0.2-0.5-0.5-1-0.7-1.5c-0.5-0.9-1-1.9-1.2-2.9c-0.4-1.7-0.1-3.9,1.7-4.8c1.3-0.7,3.1-0.4,4.2,0.8c0.9,0.9,1.5,2.2,1.7,3.9
				c0.4,3.6-1.1,6.6-4.8,9.4C-175.4,415.1-175.4,415.2-175.5,415.2z M-175.4,401.7c-0.2,0-0.4,0.1-0.6,0.2c-1.2,0.6-1.5,2.4-1.2,3.7
				c0.2,0.9,0.7,1.8,1.2,2.7c0.3,0.5,0.5,1,0.8,1.6c0.3,0.8,0.8,2.1,0.6,3.3c2.4-2.2,3.5-4.7,3.1-7.4c-0.2-1.5-0.7-2.6-1.4-3.3
				C-173.5,401.8-174.5,401.5-175.4,401.7z"/>
		</g>
	</g>
	<g>
		<g>
			<path class="st0" d="M-180.5,417.2c-3,0.6-6.3,0.1-9-1.3c-1.4-0.7-2.3-1.6-2.9-2.5c-0.8-1.3-0.7-2.9,0.1-4
				c0.6-0.8,1.7-1.3,2.9-1.4c0.9,0,1.9,0.2,3,0.8c1.1,0.6,2.2,1.3,3.1,2c0.5,0.3,1,0.7,1.5,1l0.3,0.2c1.4,1,3.8,2.6,5.4,2.5
				c0.2,0,0.4,0.1,0.5,0.3c0.1,0.2,0,0.4-0.2,0.5C-177.3,416.4-178.9,416.9-180.5,417.2z M-190,409.1c-0.7,0.1-1.2,0.4-1.6,0.9
				c-0.6,0.7-0.6,1.9,0,2.9c0.5,0.8,1.3,1.5,2.5,2.2c3.5,1.8,7.8,1.9,11.4,0.3c-1.6-0.5-3.2-1.6-4.4-2.4l-0.3-0.2
				c-0.5-0.3-1-0.7-1.5-1.1c-1-0.7-2-1.4-3-1.9c-0.9-0.5-1.8-0.7-2.5-0.7C-189.6,409-189.8,409.1-190,409.1z"/>
		</g>
	</g>
	<g>
		<g>
			<path class="st0" d="M-194.4,363.3L-194.4,363.3c-0.3,0-0.5-0.1-0.5-0.3c-1.5-4-2.1-9.9,0.5-14.2c0.4-0.6,0.9-1.5,1.8-2
				c0.9-0.6,1.9-0.8,2.8-0.5c1.6,0.5,2.3,2.3,2.3,3.6c0.1,2.7-1.3,5.2-2.6,7c-0.3,0.5-0.6,0.9-1,1.4c-1.1,1.5-2.2,3-2.8,4.7
				C-194.1,363.1-194.2,363.2-194.4,363.3z M-191.1,347.1c-0.4,0.1-0.7,0.2-1,0.5c-0.7,0.5-1.1,1.2-1.5,1.7
				c-2.2,3.6-1.9,8.5-0.8,12.2c0.7-1.3,1.6-2.6,2.4-3.8c0.3-0.4,0.7-0.9,1-1.3c1.2-1.7,2.5-4,2.4-6.4c0-1.1-0.6-2.4-1.6-2.8
				C-190.5,347.1-190.8,347.1-191.1,347.1z"/>
		</g>
	</g>
	<g>
		<g>
			<path class="st0" d="M-188.3,395.6L-188.3,395.6c-4.7,0.5-8.4-0.6-11.1-3.4c-1.3-1.3-2.1-2.6-2.3-3.9c-0.3-1.6,0.6-3.1,2.1-3.5
				c1.9-0.5,3.9,0.8,5.1,2.2c0.7,0.9,1.3,1.9,1.7,2.9c0.3,0.5,0.5,1.1,0.8,1.6c1,1.7,2.3,2.8,3.7,3.1c0.2,0,0.4,0.3,0.4,0.5
				C-187.9,395.4-188.1,395.6-188.3,395.6z M-199.2,385.8c-0.1,0-0.1,0-0.1,0c-1.1,0.3-1.5,1.4-1.4,2.4c0.2,1,0.9,2.2,2,3.3
				c2.2,2.2,4.9,3.2,8.4,3.2c-1.1-0.8-1.9-1.9-2.4-2.7c-0.3-0.5-0.6-1.1-0.9-1.6c-0.5-1-1-1.9-1.6-2.7
				C-196.3,386.5-197.9,385.5-199.2,385.8z"/>
		</g>
	</g>
	<g>
		<g>
			<path class="st0" d="M-193.8,375.4L-193.8,375.4c-4.2-0.4-9.1-2.9-10.4-6.6c-0.2-0.5-0.4-1.3-0.4-2.1c0.1-0.8,0.5-1.6,1.1-2
				c1.2-0.7,2.7-0.2,3.6,0.6c1.7,1.4,2.7,3.3,3.7,5.2c0.8,1.5,1.5,3,2.6,4.2c0.1,0.1,0.2,0.4,0.1,0.5
				C-193.5,375.3-193.6,375.4-193.8,375.4z M-202.5,365.3c-0.2,0-0.3,0.1-0.4,0.2c-0.4,0.2-0.6,0.7-0.7,1.3c0,0.5,0.1,1,0.3,1.7
				c1.1,3,4.8,5.1,8.3,5.9c-0.8-1.1-1.4-2.2-2-3.4c-1-1.9-1.9-3.6-3.4-4.9C-201,365.6-201.8,365.2-202.5,365.3z"/>
		</g>
	</g>
	<g>
		<g>
			<path class="st0" d="M-190.5,375.3c-0.9,0.2-1.7,0.1-2.6-0.2c-0.2-0.1-0.3-0.2-0.3-0.3c0-0.2,0-0.3,0.1-0.4c1-1.1,1.6-3,2.2-4.7
				c0.2-0.6,0.4-1.1,0.5-1.7c0.4-1.1,0.9-2.3,1.9-2.8c0.5-0.3,1.1-0.3,1.6-0.2c0.6,0.2,1.2,0.7,1.5,1.4c0.5,1,0.5,2.4,0.1,3.8
				c-0.5,1.8-1.6,3.4-3,4.3C-189.1,374.9-189.8,375.2-190.5,375.3z M-192,374.4c1,0.2,2.1-0.1,3.1-0.7c1.2-0.8,2.2-2.2,2.6-3.8
				c0.3-1.2,0.3-2.3-0.1-3.1c-0.2-0.4-0.6-0.7-1-0.9c-0.2-0.1-0.5-0.1-0.9,0.1c-0.7,0.4-1.1,1.3-1.4,2.3c-0.2,0.5-0.3,1-0.5,1.6
				C-190.6,371.5-191.2,373.2-192,374.4z"/>
		</g>
	</g>
	<g>
		<g>
			<path class="st0" d="M-187,395.5c-0.2,0-0.4,0.1-0.6,0.1c-0.2,0-0.3,0-0.4-0.2c-0.1-0.1-0.1-0.3-0.1-0.4c0.4-1.3,0.6-2.7,0.8-4.1
				s0.4-2.9,0.8-4.3s0.9-2.9,2-3.5c1-0.6,2.4-0.2,3.2,1c1,1.4,1.3,3.6,0.8,5.6c-0.5,1.8-1.5,3.3-2.9,4.3
				C-184.4,394.7-185.6,395.2-187,395.5z M-183.7,383.8c-0.1,0-0.2,0.1-0.3,0.1c-0.8,0.4-1.2,1.8-1.6,3c-0.4,1.3-0.6,2.7-0.8,4.1
				c-0.2,1.2-0.3,2.4-0.6,3.5c1.2-0.2,2.2-0.6,3.1-1.3c1.2-0.9,2.2-2.3,2.6-3.8c0.4-1.7,0.2-3.7-0.7-4.8
				C-182.4,384.1-183.1,383.6-183.7,383.8z"/>
		</g>
	</g>
	<g>
		<path class="st0" d="M-42.1,366.5L-42.1,366.5c0.2-0.1,0.3-0.3,0.4-0.4c0.1-0.1,0.2-0.1,0.3-0.2c0.2-1.9,0.4-3.8,1-5.7
			c0-0.4,0-0.7,0.1-1c0.2-1.1,1-2.8,2.3-2.8c0.6-0.4,1.4-0.4,2.1,0.3c0,0,0,0.1,0.1,0.1c0.4,0.2,0.7,0.5,0.9,1
			c0.9,2.1-0.3,4.2-1.9,6c-1,1.6-2.4,2.9-4.1,3.8c-0.1,0.1-0.2,0.1-0.3,0.1c-0.1,0.2-0.3,0.4-0.6,0.4
			C-42.8,368.3-43.1,366.7-42.1,366.5z"/>
	</g>
	<g>
		<g>
			<path class="st0" d="M-45.3,345.6c0.2-0.1,0.3-1.3,0.4-1.5c0.2-0.6,0.6-1.1,0.9-1.6c0.8-1,1.8-1.8,2.9-2.5c0.8-0.6,1.9,0.6,1,1.2
				c-1.1,0.8-2.3,1.6-3,2.8c-0.6,1-0.4,2.5-1.5,3C-45.5,347.5-46.2,346.1-45.3,345.6z"/>
		</g>
	</g>
	<g>
		<g>
			<path class="st0" d="M-55.4,346c0.9,1.5,3.9,4.3,5.8,2.7c0.1-0.1,0.1-0.1,0.2-0.2c0.1,0,0.3,0.1,0.4,0.1c1,0.3,1.5-1.3,0.5-1.5
				c-0.3-0.1-0.5-0.2-0.8-0.3c-0.1-0.3-0.3-0.5-0.5-0.7c-0.8-0.7-1.6-1.4-2.5-2.1c-0.4-0.9-0.6-2.1-1.6-2.5s-2,0.3-2.3,1.2
				C-56.5,343.8-55.9,345.1-55.4,346z"/>
		</g>
	</g>
	<g>
		<g>
			<path class="st0" d="M-54.5,379.5c1-0.3,1.7,1.1,0.7,1.4c-1.8,0.6-0.3,2.7,0.1,3.9c0.2,0.7,0.5,2,0.9,3c0-0.2-0.1-0.4-0.1-0.7
				c-0.2-1,1.4-1.3,1.6-0.3c0.1,1,0.3,1.8,0.7,2.7c0.2,0.5-0.1,1.2-0.8,1.1c-2.9-0.3-3.1-3.7-3.9-5.9
				C-56.2,382.6-57.7,380.5-54.5,379.5z"/>
		</g>
	</g>
	<g>
		<path class="st0" d="M-56.1,384.9c-0.4-0.7-0.6-1.4-0.6-2.3c0-0.5,0.3-0.8,0.7-0.9c0.2-0.7,0.5-1.3,1.2-1.9
			c1.1-0.8,2.6-0.7,3.4,0.5c1,1.6,0.8,4.2,0.7,6c0,0.6-0.5,0.9-1,1c0.1,0.5,0.3,1.1,0.6,1.6c0.6,1.2-1.3,2.2-1.9,0.9
			c-0.2-0.4-0.4-0.8-0.5-1.3c-0.2,0-0.4,0-0.6,0c-1.6-0.6-1.8-2-1.8-3.5C-56,385-56,385-56.1,384.9z"/>
	</g>
	<g>
		<g>
			<path class="st0" d="M-61.7,409.6c-0.1-0.1-0.3-0.2-0.3-0.4c-1-2.9-5.3-12.1,0.2-13.3c3-0.7,4.4,2.6,3.5,4.9c0,0.1,0,0.1,0,0.2
				c0.1,1.2,0,2.4-0.3,3.6c-0.2,0.7-0.5,1.4-0.9,2.2c0,0.2,0,0.3,0,0.5c0,0.4-0.2,0.7-0.5,0.9c-0.1,0.2-0.1,0.4-0.1,0.6
				s-0.1,0.4-0.2,0.5c0.6,0.5,0.6,1.7-0.4,1.9C-61.7,411.5-62.2,410.3-61.7,409.6z"/>
		</g>
	</g>
	<g>
		<g>
			<path class="st0" d="M-46.2,390.3c1-1.2,2-2.4,3.2-3.5c0.2-0.9,0.8-1.6,1.5-2.1c0.4-0.7,0.8-1.4,1.3-1.9c1.1-1.1,3.8-2.3,5-0.7
				c0.4,0.5,0.4,1.1,0.4,1.7c0.1,0.2,0.2,0.5,0.1,0.8c-0.2,0.8-0.7,1.5-1.4,2c-0.3,0.4-0.6,0.8-0.8,1.1c-0.7,0.9-1.5,1.7-2.5,2.1
				c-0.3,0.1-0.6,0.2-0.9,0.2c-1.1,0.9-2.2,1.5-3.7,1.6c-0.3,0.1-0.6,0.2-1,0.3C-46,392.2-46.8,391-46.2,390.3z"/>
		</g>
	</g>
	<g>
		<g>
			<path class="st0" d="M-55.8,413.2c1.4-1.4,2.9-2.6,4.4-3.9c1.5-1.3,4-4.4,6.3-3.5c1.7,0.7,1.5,2.7,0.4,3.9l-0.1,0.1
				c-0.4,1.5-1.6,2.5-3.1,3.4c-2.1,1.3-5.4,3.3-8,2.6c-0.3-0.1-0.7-0.5-0.7-0.8C-56.7,414.1-56.4,413.8-55.8,413.2z"/>
		</g>
	</g>
	<g>
		<g>
			<path class="st0" d="M-53.5,360.6c-0.3-0.9,0.7-2,1.6-1.3c0.7,0.5,1.1,1.1,1.5,1.8c0.2,0.2,0.4,0.5,0.5,0.8c1.2,2,2.5,3.8,4,5.6
				c0.9,1.1-0.7,2.5-1.6,1.4c-0.1-0.1-0.2-0.3-0.3-0.4c-0.2,0.2-0.4,0.3-0.7,0.3c-1.3,0.3-2.8-0.4-3.6-1.3
				C-53.3,366.4-55.1,362.1-53.5,360.6z"/>
		</g>
	</g>
	<g>
		<g>
			<path class="st0" d="M-59.4,328.8c1.2,2,3.9,3.7,6.1,4.6c0.3,0.1,0.7,0.1,0.9-0.1c0.1,0.3,0.2,0.5,0.3,0.8
				c0.5,1.3,2.4,0.4,1.9-0.9c-0.9-2.7-1.6-6.3-3.7-8.3c-1.2-1.1-3.7-2.3-5.4-1.5C-61.3,324.2-60.2,327.4-59.4,328.8z"/>
		</g>
	</g>
	<g>
		<path class="st0" d="M-45.3,344.6c1.2-2.2,0.6-5,1.8-7.2c0.3-0.6,0.9-1.2,1.6-1.2c0.2-0.1,0.3-0.1,0.6-0.1
			c1.9,0.2,2.9,2.4,1.6,3.8c-0.2,0.2-0.5,0.4-0.7,0.6c0,0.2,0,0.4,0,0.6c-0.1,0.3-0.2,0.7-0.4,1c-0.1,0.2-0.2,0.4-0.4,0.5
			c-0.1,0.2-0.1,0.4-0.2,0.5c-0.5,1.2-1.3,2.1-2.3,2.9C-44.7,346.8-45.9,345.7-45.3,344.6z"/>
	</g>
	<g>
		<g>
			<path class="st0" d="M-86.5,467.7c0.2,0,0.4-0.2,0.4-0.5c0.6-9.4,4.4-19.4,11.4-30.6c2.6-4.2,5.6-8.4,8.4-12.4
				c4.8-6.9,9.9-14,13.7-21.7c10.1-20.4,11.1-45.5,2.8-67.2c-0.1-0.3-0.4-0.4-0.7-0.3c-0.3,0.1-0.4,0.4-0.3,0.7
				c8.2,21.3,7.2,46.1-2.8,66.3c-3.8,7.6-8.7,14.7-13.6,21.6c-2.8,4-5.8,8.2-8.4,12.5c-7.1,11.4-10.9,21.5-11.5,31.1
				c0,0.3,0.2,0.5,0.5,0.6C-86.6,467.8-86.5,467.7-86.5,467.7z"/>
		</g>
	</g>
	<g>
		<g>
			<path class="st0" d="M-60.1,414.1l-0.3-0.4c-2.4-3.7-5-8-5-12.5c0-1.2,0.1-2.7,0.8-4c0.7-1.4,2.1-2.4,3.4-2.4
				c1.5-0.1,3,1,3.7,2.5c0.5,1.2,0.6,2.7,0.3,4.4c-0.3,1.3-0.7,2.6-1.2,3.8c-0.3,0.7-0.5,1.5-0.8,2.3c-0.7,2.4-0.7,4.3-0.1,5.9
				c0.1,0.2,0,0.5-0.2,0.6h-0.1C-59.8,414.4-60,414.3-60.1,414.1z M-63.7,397.7c-0.6,1.1-0.6,2.5-0.7,3.5c0,3.5,1.8,7,3.7,10.2
				c0-1.2,0.2-2.4,0.6-3.8c0.2-0.8,0.5-1.6,0.8-2.3c0.4-1.2,0.9-2.4,1.1-3.7c0.3-1.5,0.2-2.8-0.2-3.8c-0.5-1.2-1.7-2-2.8-2
				c-0.1,0-0.2,0-0.3,0C-62.4,396-63.2,396.7-63.7,397.7z"/>
		</g>
	</g>
	<g>
		<g>
			<path class="st0" d="M-53.9,416.6c-1.4,0-2.6-0.6-3.7-1.2c-0.6-0.4-1.2-0.7-1.8-0.9c-0.3-0.1-0.4-0.3-0.3-0.6
				c0.1-0.3,0.3-0.4,0.6-0.3c0.8,0.2,2.1-0.3,3.4-1.3c1-0.8,1.9-1.8,2.7-2.7c0.2-0.2,0.4-0.5,0.6-0.7c1.1-1.1,2.4-2.4,3.8-3.1
				c1.4-0.7,2.8-0.8,3.8-0.2c0.7,0.4,1.2,1,1.4,1.8c0.4,2.2-1.6,5.1-3.6,6.7c-1.6,1.2-3.4,2.1-5.3,2.4
				C-52.8,416.5-53.4,416.6-53.9,416.6z M-48.1,406.6c-1.3,0.7-2.5,1.9-3.5,2.9c-0.2,0.2-0.4,0.4-0.6,0.7c-0.9,1-1.8,2-2.9,2.8
				c-0.4,0.3-1.3,1-2.4,1.3c0.1,0.1,0.2,0.1,0.4,0.2c1,0.6,2,1.2,3.1,1.1c2.2-0.1,4.5-0.9,6.4-2.4c2.1-1.7,3.6-4.2,3.3-5.8
				c-0.1-0.5-0.4-0.9-0.8-1.1c-0.5-0.2-1.1-0.3-1.7-0.2C-47.3,406.2-47.7,406.3-48.1,406.6z"/>
		</g>
	</g>
	<g>
		<g>
			<path class="st0" d="M-49.3,392c-4.4-1.3-7-3.6-7.8-7c-0.4-1.6-0.3-3.1,0.2-4.2c0.7-1.5,2.2-2.4,3.7-2.3c1.9,0.2,3,2.2,3.2,3.9
				c0.1,1.1,0,2.2-0.1,3.2c-0.1,0.6-0.1,1.1-0.2,1.7c0,0.8,0,2.9,1.4,3.9c0.2,0.1,0.3,0.4,0.2,0.6c-0.1,0.1-0.2,0.2-0.3,0.3
				C-49.2,392.1-49.3,392.1-49.3,392z M-56.1,381.2c-0.4,1-0.5,2.2-0.1,3.6c0.7,2.7,2.5,4.6,5.6,5.8c-0.6-1.1-0.7-2.5-0.6-3.3
				c0-0.6,0.1-1.2,0.2-1.8c0.1-1,0.2-2,0.1-3c-0.2-1.4-1.1-2.9-2.4-3c-0.2,0-0.4,0-0.6,0C-54.9,379.6-55.7,380.3-56.1,381.2z"/>
		</g>
	</g>
	<g>
		<g>
			<path class="st0" d="M-48.6,392.2c-0.2,0-0.4-0.2-0.4-0.4c0-0.2,0.1-0.4,0.3-0.5c1.5-0.5,3.1-2.9,4.1-4.3l0.2-0.3
				c0.3-0.5,0.7-1,1-1.5c0.7-1,1.4-2.1,2.2-3s1.6-1.5,2.5-1.8c1.1-0.4,2.3-0.3,3.2,0.2c1.1,0.7,1.7,2.2,1.5,3.7
				c-0.2,1.1-0.8,2.2-1.8,3.4c-2.1,2.3-4.9,3.9-8,4.4C-45.3,392.5-47,392.5-48.6,392.2z M-38.3,381.4c-0.7,0.3-1.4,0.8-2.1,1.5
				c-0.8,0.9-1.5,1.9-2.1,2.9c-0.3,0.5-0.7,1-1,1.5l-0.2,0.3c-0.8,1.2-2,2.8-3.3,3.9c3.9,0.2,7.9-1.4,10.5-4.3c0.9-1,1.4-2,1.6-2.9
				c0.2-1.1-0.3-2.2-1-2.7c-0.5-0.3-1.1-0.4-1.8-0.3C-37.9,381.2-38.1,381.3-38.3,381.4z"/>
		</g>
	</g>
	<g>
		<g>
			<path class="st0" d="M-50.5,336.7c-1.2-1.4-2.8-2.4-4.3-3.4c-0.5-0.3-0.9-0.6-1.4-0.9c-1.8-1.3-4.1-3-4.9-5.6
				c-0.4-1.3-0.5-3.2,0.9-4.2c0.7-0.6,1.8-0.7,2.8-0.5c1,0.2,1.8,0.8,2.4,1.3c4,3.1,5.4,8.8,5.5,13.1c0,0.2-0.1,0.4-0.3,0.5h-0.1
				C-50.2,336.9-50.4,336.8-50.5,336.7z M-59.7,323.3c-0.9,0.7-0.9,2.1-0.5,3.2c0.8,2.3,2.8,4,4.6,5.1c0.5,0.3,0.9,0.6,1.4,0.9
				c1.2,0.8,2.5,1.6,3.6,2.7c-0.3-3.9-1.7-8.5-5.1-11.1c-0.5-0.4-1.2-0.9-2-1.1c-0.4-0.1-0.8-0.1-1.1,0
				C-59.2,323-59.5,323.1-59.7,323.3z"/>
		</g>
	</g>
	<g>
		<g>
			<path class="st0" d="M-44.7,368.9c-0.1-0.2,0-0.5,0.2-0.6c1.1-0.7,2-2.3,2.3-4.2c0.1-0.6,0.2-1.2,0.2-1.8
				c0.1-1.1,0.2-2.2,0.6-3.3c0.6-1.7,2.1-3.7,4-3.9c1.5-0.2,2.9,0.9,3.2,2.5c0.3,1.2,0,2.7-0.7,4.4c-1.6,3.6-4.6,5.9-9.2,7.1l0,0
				C-44.4,369.2-44.6,369.1-44.7,368.9z M-40.4,359.3c-0.3,1-0.4,2-0.6,3.1c-0.1,0.6-0.1,1.2-0.2,1.8c-0.1,0.9-0.5,2.2-1.3,3.4
				c3.2-1.2,5.4-3.2,6.7-6c0.7-1.5,0.9-2.8,0.7-3.8s-1-1.9-2.1-1.8c-0.1,0-0.1,0-0.2,0C-38.8,356.4-40,357.9-40.4,359.3z"/>
		</g>
	</g>
	<g>
		<g>
			<path class="st0" d="M-46.6,348.3c-0.1-0.1-0.2-0.4-0.1-0.5c0.6-1.5,0.8-3.2,1-4.8c0.2-2.1,0.5-4.3,1.6-6.1
				c0.6-1.1,1.8-2.2,3.2-1.9c0.7,0.1,1.4,0.7,1.7,1.5c0.3,0.7,0.4,1.5,0.4,2.1c0.1,4-3.6,8-7.2,9.9h-0.1
				C-46.4,348.4-46.5,348.4-46.6,348.3z M-43.4,337.3c-1,1.7-1.2,3.7-1.5,5.8c-0.1,1.3-0.3,2.6-0.6,3.8c3-1.9,5.7-5.2,5.6-8.4
				c0-0.7-0.1-1.2-0.3-1.7s-0.6-0.8-1.1-0.9c-0.2,0-0.3,0-0.5,0C-42.4,336-43,336.7-43.4,337.3z"/>
		</g>
	</g>
	<g>
		<g>
			<path class="st0" d="M-51.6,349.4c-1.7-0.4-3.2-1.4-4.4-2.9c-0.9-1.2-1.3-2.5-1.2-3.6c0.1-0.7,0.4-1.4,0.9-1.8s1-0.5,1.6-0.4
				c1.1,0.2,1.9,1,2.7,1.9c0.4,0.4,0.7,0.9,1.1,1.4c1.1,1.4,2.4,3,3.7,3.6c0.1,0.1,0.3,0.2,0.3,0.4s0,0.3-0.2,0.4
				c-0.6,0.6-1.4,0.9-2.3,1.1C-50,349.6-50.8,349.6-51.6,349.4z M-51.6,344.5c-0.4-0.5-0.7-0.9-1.1-1.3c-0.7-0.8-1.4-1.5-2.1-1.6
				c-0.4-0.1-0.7,0.1-0.8,0.2c-0.3,0.3-0.5,0.7-0.6,1.2c-0.1,0.9,0.3,1.9,1,2.9c1,1.3,2.4,2.3,3.8,2.6c1.1,0.2,2.2,0.1,3.1-0.4
				C-49.5,347.2-50.6,345.8-51.6,344.5z"/>
		</g>
	</g>
	<g>
		<g>
			<path class="st0" d="M-49.3,369.5c-1.7-0.4-3.2-1.5-4.3-3c-1.2-1.7-1.7-3.9-1.2-5.5c0.4-1.4,1.5-2.3,2.7-2.1
				c1.2,0.2,2.2,1.4,3.2,2.6c0.9,1.1,1.6,2.4,2.3,3.7c0.7,1.2,1.4,2.5,2.2,3.6c0.1,0.1,0.1,0.3,0.1,0.5c-0.1,0.2-0.2,0.3-0.3,0.3
				c-0.2,0.1-0.4,0.1-0.6,0.1C-46.9,369.8-48.1,369.8-49.3,369.5z M-53.9,361.2c-0.4,1.4,0.1,3.3,1.1,4.7c0.9,1.3,2.3,2.2,3.7,2.6
				c1,0.3,2.1,0.3,3.3,0.1c-0.7-1-1.3-2-1.8-3.1c-0.7-1.2-1.4-2.5-2.2-3.6c-0.8-1-1.6-2.1-2.5-2.2c-0.1,0-0.2,0-0.4,0
				C-53.3,359.9-53.7,360.5-53.9,361.2z"/>
		</g>
	</g>
	<g class="st1">
		<path class="st0" d="M-150.2,390.7c0,6.3-1.7,10.8-6.5,12.8c-0.1,0-0.2,0.1-0.4,0.2c-1.7,0.6-3.3,0.6-4.8,0.1
			c-1.5-0.6-2.8-2.1-3.6-4.1c-0.8-1.9-1.1-4.3-1.3-6.9c-1.6,0.2-3.1,0.1-4.4-0.5c-1.6-0.7-2.9-2-3.5-4.2c-0.3-1-0.4-2.1-0.5-3.1
			c0-1.1,0.2-2.1,0.5-3.1c0.1-0.4,0.5-0.5,0.9-0.4c0.4,0.1,0.6,0.5,0.4,0.9c-0.3,0.8-0.4,1.7-0.4,2.6c0,0.9,0.1,1.9,0.4,2.7
			c0.5,1.7,1.5,2.7,2.7,3.3c1.1,0.5,2.4,0.6,3.8,0.3c0-0.5,0-1,0-1.5c0.1-3.5,0.5-6.9,1.4-9.2c0.4-1,0.9-1.9,1.6-2.7
			c0.7-0.7,1.4-1.3,2.2-1.6c0,0,0.1,0,0.2-0.1c1-0.4,2.1-0.3,3.1,0.1c0.9,0.4,1.8,1.3,2.3,2.7c0,0.1,0.1,0.2,0.1,0.3
			c0.2,0.6,0.3,1.3,0.4,2c0,0.7,0,1.4-0.2,2.1l0,0.1c-0.5,1.9-1.8,3.7-3.4,5.3c-1.8,1.6-4,3-6.1,3.5l-0.2,0c0.2,2.6,0.5,4.9,1.2,6.7
			c0.6,1.6,1.7,2.8,2.8,3.3c1.1,0.4,2.4,0.4,3.8-0.1c0.1,0,0.2,0,0.3-0.1c4.3-1.8,5.7-5.7,5.7-11.5c0-0.4,0.3-0.7,0.7-0.7
			C-150.5,390-150.2,390.3-150.2,390.7z M-165.5,391c1.8-0.6,3.7-1.7,5.3-3.2c1.4-1.3,2.6-2.9,3-4.6c0.1-0.6,0.2-1.2,0.2-1.7
			c0-0.6-0.1-1.1-0.3-1.6c0-0.1,0-0.2-0.1-0.3c-0.4-1-1-1.7-1.6-2c-0.6-0.3-1.3-0.3-2-0.1l-0.1,0.1c-0.6,0.2-1.2,0.7-1.7,1.3
			c-0.5,0.6-1,1.4-1.3,2.2c-0.8,2.1-1.3,5.4-1.3,8.7C-165.4,390.2-165.4,390.6-165.5,391z"/>
		<path class="st0" d="M-138.8,386l0,0.1c-0.1,3.1-0.2,7.6-3,8.7l0,0c-0.8,0.3-1.5,0.2-2.1-0.2c-0.5-0.4-0.9-0.9-1.1-1.5l0-0.1
			c-0.2-0.5-0.3-1.2-0.4-2.1c-0.1-0.8-0.2-1.8-0.3-2.8c-0.1-1-0.1-1.5-0.2-2c0-0.6-0.1-1.1-0.1-1.8l-0.6,0c-1,0.1-2.2,0.2-3.3,0.1
			c0,0.3,0,0.6,0,0.9l0,0l-0.3,6.5c0,0.4-0.3,0.7-0.7,0.7c-0.4,0-0.7-0.3-0.7-0.7l0.3-6.4c0-0.4,0-0.7,0-1.1
			c-1.3-0.3-2.4-0.9-2.8-2.3c-0.1-0.5-0.1-1,0.1-1.4c0,0,0,0,0,0c0.2-0.5,0.6-0.8,1.1-1c0.2-0.1,0.4-0.1,0.6-0.2l0,0
			c0.5-0.1,1,0.1,1.3,0.4c0.3,0.3,0.5,0.6,0.7,1c0.1,0.3,0.2,0.6,0.2,1c0,0.3,0.1,0.8,0.1,1.2c1,0.1,2.2,0,3.3-0.1
			c0.5-0.1,0.9-0.1,1.3-0.1c0.4,0,0.7,0.3,0.7,0.7l0,0c0,1.1,0.1,1.6,0.1,2.4c0,0.5,0.1,1.1,0.1,2c0.1,1,0.1,1.9,0.3,2.6
			c0.1,0.8,0.2,1.4,0.4,1.8l0,0.1c0.2,0.4,0.4,0.7,0.7,0.9c0.2,0.1,0.4,0.2,0.8,0c2-0.8,2-4.7,2.1-7.5l0-0.1c0-0.4,0.3-0.7,0.7-0.7
			C-139.1,385.3-138.8,385.6-138.8,386z M-151.7,381.5c-0.1-0.2-0.2-0.4-0.3-0.5c-0.1-0.1-0.2-0.1-0.3-0.1l0,0c-0.1,0-0.1,0-0.2,0
			c-0.2,0.1-0.3,0.2-0.3,0.3l0,0c-0.1,0.1-0.1,0.3,0,0.5c0.2,0.6,0.7,1,1.3,1.2c0-0.3,0-0.6-0.1-0.8
			C-151.5,381.9-151.6,381.7-151.7,381.5z"/>
		<path class="st0" d="M-127.1,381.2c-0.1,2.8-0.5,5-1.2,6.8c-0.7,1.8-1.7,3.3-2.9,4.4c-0.4,0.5-0.9,0.9-1.4,1.3l0.1,1.2
			c0.1,1.4,0.2,2.9-0.1,4.1c-0.3,1.4-1,2.6-2.4,3.2c-0.2,0.1-0.5,0.2-0.7,0.2c-1,0.3-1.9,0.2-2.7-0.1c-0.7-0.4-1.3-1-1.6-1.7
			c-0.1-0.2-0.1-0.3-0.2-0.4c-0.8-2.8,1.2-4.1,3.9-5.8c0.7-0.5,1.5-0.9,2.2-1.5c0-0.8-0.1-1.6-0.1-2.4c-0.4,0.9-1.1,1.6-1.9,1.9l0,0
			l0,0c-0.8,0.3-1.5,0.2-2.1-0.2c-0.5-0.4-0.9-0.9-1.1-1.5l0-0.1c-0.2-0.5-0.3-1.2-0.4-2.1c-0.1-0.8-0.2-1.8-0.3-2.8
			c0-0.5-0.1-1.6-0.1-2.9c-0.1-1.7-0.1-3.6-0.2-5.4c0-0.4,0.3-0.7,0.7-0.7c0.4,0,0.7,0.3,0.7,0.7c0.1,2.1,0.2,4,0.2,5.4
			c0.1,1.3,0.1,2.3,0.1,2.8c0.1,1,0.2,1.9,0.3,2.6s0.2,1.4,0.4,1.8l0,0.1l0,0c0.2,0.4,0.3,0.7,0.6,0.9c0.2,0.1,0.5,0.2,0.8,0l0,0
			c1.9-0.8,2-4.7,2.1-7.4l0-0.1c0,0,0,0,0-0.1c0-0.4,0-0.8,0-1.2c-0.1-2.2-0.2-5.4-0.2-7l0,0l0,0c0-0.4,0.3-0.7,0.7-0.7
			c0.4,0,0.7,0.3,0.7,0.7l0,0l0,0c0,1.6,0.1,4.8,0.2,7c0.1,1.6,0.2,3.3,0.2,5.3c0.1,1.4,0.1,2.8,0.2,4.3c0.2-0.2,0.4-0.3,0.5-0.5
			c1.1-1,1.9-2.3,2.6-3.9c0.7-1.6,1.1-3.7,1.1-6.3c0-0.4,0.3-0.7,0.7-0.7C-127.5,380.5-127.1,380.8-127.1,381.2z M-134,394.7
			c-0.5,0.4-1.1,0.7-1.6,1c-2.2,1.4-3.8,2.4-3.3,4.2c0,0.1,0.1,0.2,0.1,0.3c0.2,0.4,0.5,0.7,0.9,0.9c0.5,0.2,1,0.3,1.7,0
			c0.2,0,0.4-0.1,0.5-0.2c1-0.4,1.4-1.3,1.6-2.2c0.2-1.1,0.2-2.5,0.1-3.8L-134,394.7z"/>
		<path class="st0" d="M-112.9,369.1c0.5,5.5,1.1,11.4-2,14.4c-0.3,0.3-0.6,0.6-1,0.8c-1,0.6-2.2,0.9-3.2,0.9
			c-1.1-0.1-2.1-0.5-2.9-1.3c0,0,0,0-0.1,0c-0.2-0.2-0.4-0.4-0.5-0.7c-0.4-0.7-0.7-1.5-0.8-2.3l0,0c-0.1-1,0.1-2.1,0.5-3
			c0.4-0.9,1-1.6,1.8-2.1c0.5-0.3,1-0.5,1.5-0.5c0.4,0,0.7,0.2,0.8,0.6c0,0.4-0.2,0.7-0.6,0.8c-0.3,0-0.6,0.1-0.9,0.3
			c-0.5,0.3-1,0.9-1.2,1.5c-0.3,0.7-0.4,1.4-0.3,2.2l0,0c0.1,0.6,0.3,1.2,0.6,1.7c0.1,0.2,0.2,0.3,0.4,0.5l0,0
			c0.5,0.5,1.2,0.8,2,0.9c0.8,0,1.6-0.2,2.4-0.7c0.3-0.2,0.5-0.4,0.8-0.6c2.6-2.4,2.1-8,1.6-13.2c-0.3-2.7-0.5-5.3-0.3-7.3
			c0.1-0.7,0.3-1.4,0.6-2c0.3-0.6,0.8-1.1,1.3-1.5c0.3-0.2,0.8-0.1,1,0.2c0.2,0.3,0.1,0.8-0.2,1c-0.3,0.2-0.6,0.5-0.8,0.9
			c-0.2,0.4-0.4,1-0.4,1.5C-113.4,364-113.2,366.6-112.9,369.1z M-104.3,360.3c0.1,0.1,0.1,0.2,0.1,0.3c0.6,1.7,0.5,3.8-0.4,5.6
			c-0.2,0.4-0.4,0.8-0.7,1.2c0.3,0.1,0.5,0.3,0.8,0.4c1.7,1,3,2.6,3.6,4.5c0.7,1.9,0.7,4,0,5.8c-0.7,1.6-2,3-4,3.8
			c-0.2,0.1-0.4,0.2-0.6,0.3c-1.7,0.5-3.1,0.5-4.1,0.1c-1.1-0.4-1.9-1.3-2.3-2.2c0-0.1-0.1-0.2-0.1-0.2l0,0c-0.3-1.1-0.2-2.1,0.3-3
			c0.3-0.5,0.7-0.9,1.2-1.2c0.5-0.3,1.1-0.5,1.7-0.4c0.9,0,1.9,0.5,2.8,1.5c0.3,0.3,0.2,0.7-0.1,1c-0.3,0.3-0.7,0.2-1-0.1
			c-0.6-0.7-1.2-1-1.8-1c-0.3,0-0.7,0.1-0.9,0.2c-0.3,0.2-0.5,0.4-0.7,0.7c-0.3,0.5-0.4,1.2-0.2,1.8c0,0.1,0,0.1,0,0.2
			c0.2,0.6,0.7,1.1,1.5,1.4c0.8,0.3,1.8,0.3,3.2-0.1c0.2,0,0.4-0.1,0.5-0.2c1.6-0.7,2.7-1.8,3.2-3c0.6-1.5,0.6-3.2,0-4.8
			c-0.6-1.5-1.6-2.9-3-3.7c-0.4-0.2-0.7-0.4-1.1-0.5c-0.6,0.6-1.4,1.1-2.3,1.6c-0.4,0.2-1,0.4-1.6,0.5c-0.8,0.1-1.5-0.1-1.8-1.1l0,0
			c-0.4-1.5,0.6-2,1.7-2.2c0.1,0,0.3-0.1,0.4-0.1l0.1,0l0,0c1.1-0.3,2.1-0.3,3.1-0.1c0.4-0.4,0.7-0.9,0.9-1.4
			c0.7-1.5,0.8-3.2,0.3-4.6c0-0.1,0-0.2-0.1-0.3c-0.5-1.2-1.3-2.2-2.6-2.9c-1.2-0.6-2.8-0.7-4.7-0.1c-0.2,0-0.3,0.1-0.4,0.1
			c-0.1,0-0.2,0.1-0.3,0.1c-2.5,1-4.2,2.8-5,5c-0.8,2.3-0.7,5.2,0.5,8.3c0.1,0.1,0.1,0.3,0.2,0.5c0.2,0.4,0.3,0.6-0.1,0.8
			c-0.3,0.1-1.1,0.1-1.3-0.2c-0.1-0.2-0.1-0.3-0.2-0.6c-1.3-3.4-1.4-6.6-0.4-9.2c0.9-2.7,2.9-4.7,5.8-5.9c0.1,0,0.2,0,0.4-0.1
			c0.2-0.1,0.3-0.1,0.5-0.2l0,0c2.2-0.7,4.2-0.6,5.7,0.2C-106,357.4-104.9,358.8-104.3,360.3z M-108.3,368.4c-0.4,0-0.8,0.1-1.2,0.2
			l-0.1,0c-0.1,0-0.3,0-0.4,0.1c-0.4,0.1-0.7,0.2-0.7,0.5l0,0c0,0.1,0.1,0.1,0.3,0.1c0.4,0,0.9-0.2,1.2-0.4
			C-108.8,368.7-108.5,368.6-108.3,368.4z"/>
		<path class="st0" d="M-84.9,364l0,0.1c-0.1,3.1-0.2,7.6-3,8.7l0,0c-0.8,0.3-1.5,0.2-2.1-0.2c-0.5-0.4-0.9-0.9-1.1-1.5l0,0
			c-0.4,2-1.3,3.6-2.9,4.2c-0.9,0.3-1.7,0.2-2.4-0.3c-0.7-0.4-1.2-1.2-1.6-2.3c-0.7-1.8-1.2-5.6-0.7-8.8c0.4-2.4,1.2-4.4,3-5.2
			c0.1,0,0.2-0.1,0.3-0.1c0.9-0.3,1.8-0.2,2.6,0.2c0.2,0.1,0.4,0.3,0.7,0.5c0-0.6,0-1.1,0-1.6c0-0.4,0.3-0.7,0.7-0.7
			c0.4,0,0.7,0.3,0.7,0.7c0,1,0.1,2.9,0.2,4.8c0.1,1.3,0.1,2.6,0.2,3.6c0,1,0.1,1.9,0.3,2.6c0.1,0.8,0.2,1.4,0.4,1.8l0,0.1
			c0.2,0.4,0.4,0.7,0.6,0.9c0.2,0.1,0.5,0.2,0.8,0c1.9-0.8,2-4.7,2.1-7.5l0-0.1c0-0.4,0.3-0.7,0.7-0.7
			C-85.2,363.2-84.9,363.6-84.9,364z M-92.2,363.9c0-0.8,0-1.5,0-2.1c0-0.1,0-0.2-0.1-0.2c-0.3-0.7-0.7-1.2-1.2-1.4
			c-0.5-0.2-1-0.3-1.5-0.1c-0.1,0-0.1,0-0.2,0c-1.2,0.5-1.8,2.2-2.1,4.1c-0.4,2.9,0,6.4,0.6,8c0.3,0.7,0.6,1.3,1.1,1.6
			c0.3,0.2,0.6,0.2,1.1,0.1C-92,373-92.1,367.6-92.2,363.9z"/>
		<path class="st0" d="M-73,359.1c0,0.2,0,0.5,0,0.7c0,0.2,0,0.4-0.1,0.6c-0.1,1-0.2,2-0.6,2.9c-0.4,1-1.1,1.8-2.3,2.3
			c-0.3,0.1-0.6,0.2-0.9,0.3c-0.6,0-1.1,0-1.7-0.2c-0.6,2.3-1.6,4.2-3.5,4.9l0,0l-0.1,0l0,0c-1.9,0.7-3-0.4-3.5-2
			c-0.5-1.4-0.5-3.1-0.6-4.2l0-0.4l0,0c-0.2-2.8-0.3-5.8-0.5-8.7l-0.1-2.3c0-0.1,0-0.4,0-0.7c-0.1-0.7-0.1-1.6-0.2-2.4
			c0-0.4,0.3-0.7,0.7-0.7c0.4,0,0.7,0.3,0.7,0.7c0,0.8,0.1,1.7,0.1,2.3c0,0.3,0,0.6,0.1,0.8l0.1,2.3l0.1,1.2
			c0.5-1.3,1.3-2.3,2.5-2.8c0.9-0.3,1.7-0.2,2.4,0.3c0.7,0.5,1.2,1.3,1.6,2.3l0,0.2l0,0c0.6,1.8,1,4.9,0.6,7.7c0,0.1,0,0.2,0,0.3
			c0.4,0.2,0.8,0.3,1.2,0.2c0.2,0,0.4-0.1,0.6-0.2c0.8-0.3,1.2-0.9,1.5-1.5c0.3-0.7,0.4-1.6,0.5-2.5c0-0.2,0-0.4,0-0.6
			c0-0.2,0-0.4,0-0.7c0-0.4,0.3-0.7,0.7-0.7C-73.3,358.4-73,358.7-73,359.1z M-79.6,361.7c0,0.2,0.1,0.4,0.1,0.6
			c0.1-2.1-0.2-4.3-0.6-5.6l0,0l-0.1-0.1l0,0c-0.3-0.7-0.6-1.3-1-1.6c-0.3-0.2-0.6-0.2-1.1-0.1c-2.6,1-2.5,6.6-2.5,10.2l0,0.6
			c0.1,0.8,0.2,1.7,0.4,2.4c0.3,0.9,0.8,1.5,1.7,1.2l0,0l0,0l0,0c1.5-0.6,2.3-2.3,2.7-4.4c-0.3-0.3-0.6-0.8-0.8-1.3
			c-0.2-0.5-0.3-1-0.4-1.6c-0.1-0.4,0.2-0.7,0.6-0.8C-80,361-79.7,361.3-79.6,361.7z"/>
		<path class="st0" d="M-61.4,354.3c-0.1,2.8-0.5,5-1.2,6.8c-0.7,1.8-1.7,3.3-2.9,4.4c-0.4,0.5-0.9,0.9-1.4,1.3l0.1,1.2
			c0.1,1.4,0.2,2.9-0.1,4.1c-0.3,1.4-1,2.6-2.4,3.2c-0.2,0.1-0.5,0.2-0.7,0.2c-1,0.3-1.9,0.2-2.7-0.1c-0.7-0.4-1.3-1-1.6-1.7
			c-0.1-0.2-0.1-0.3-0.2-0.4c-0.8-2.8,1.2-4.1,3.9-5.8c0.7-0.5,1.5-0.9,2.2-1.5c0-0.8-0.1-1.6-0.1-2.4c-0.4,0.9-1.1,1.6-1.9,1.9l0,0
			l0,0c-0.8,0.3-1.5,0.2-2.1-0.2c-0.5-0.4-0.9-0.9-1.1-1.5l0-0.1c-0.2-0.5-0.3-1.2-0.4-2.1c-0.1-0.8-0.2-1.8-0.3-2.8
			c0-0.5-0.1-1.6-0.1-2.9c-0.1-1.7-0.1-3.6-0.2-5.4c0-0.4,0.3-0.7,0.7-0.7c0.4,0,0.7,0.3,0.7,0.7c0.1,2.1,0.2,4,0.2,5.4
			c0.1,1.3,0.1,2.3,0.1,2.8c0.1,1,0.2,1.9,0.3,2.6c0.1,0.8,0.2,1.4,0.4,1.8l0,0.1l0,0c0.2,0.4,0.3,0.7,0.6,0.9
			c0.2,0.1,0.5,0.2,0.8,0l0,0c1.9-0.8,2-4.7,2.1-7.4l0-0.1c0,0,0,0,0-0.1c0-0.4,0-0.8,0-1.2c-0.1-2.2-0.2-5.4-0.2-7l0,0l0,0
			c0-0.4,0.3-0.7,0.7-0.7c0.4,0,0.7,0.3,0.7,0.7l0,0l0,0c0,1.6,0.1,4.8,0.2,7c0.1,1.6,0.2,3.3,0.2,5.3c0.1,1.4,0.1,2.8,0.2,4.3
			c0.2-0.2,0.4-0.3,0.5-0.5c1.1-1,1.9-2.3,2.6-3.9c0.7-1.6,1.1-3.7,1.1-6.3c0-0.4,0.3-0.7,0.7-0.7
			C-61.7,353.6-61.4,353.9-61.4,354.3z M-68.2,367.7c-0.5,0.4-1.1,0.7-1.6,1c-2.2,1.4-3.8,2.4-3.3,4.2c0,0.1,0.1,0.2,0.1,0.3
			c0.2,0.4,0.5,0.7,0.9,0.9c0.5,0.2,1,0.3,1.6,0c0.2,0,0.4-0.1,0.5-0.2c1-0.4,1.4-1.3,1.6-2.2c0.2-1.1,0.2-2.5,0.1-3.8L-68.2,367.7z
			"/>
	</g>
	<g class="st1">
		<path class="st0" d="M-120.2,400c0,0.1,0,0.3,0,0.4c0,0.1,0,0.2,0,0.4c0,0.5-0.1,1.1-0.3,1.6c-0.2,0.5-0.6,1-1.2,1.3
			c-0.2,0.1-0.3,0.1-0.5,0.2c-0.3,0-0.6,0-0.9-0.1c-0.3,1.3-0.8,2.3-1.9,2.7l0,0l0,0l0,0c-1.1,0.4-1.6-0.2-2-1.1
			c-0.3-0.7-0.3-1.7-0.4-2.3l0-0.2l0,0c-0.1-1.5-0.3-3.2-0.4-4.8l-0.1-1.3c0-0.1,0-0.2,0-0.4c0-0.4-0.1-0.9-0.1-1.3
			c0-0.2,0.1-0.4,0.4-0.4c0.2,0,0.4,0.1,0.4,0.4c0,0.4,0.1,0.9,0.1,1.3c0,0.2,0,0.3,0.1,0.4l0.1,1.3l0,0.7c0.3-0.7,0.7-1.3,1.3-1.6
			c0.5-0.2,0.9-0.1,1.3,0.1c0.4,0.2,0.7,0.7,0.9,1.2l0,0.1l0,0c0.4,1,0.6,2.7,0.4,4.3c0,0,0,0.1,0,0.1c0.2,0.1,0.4,0.1,0.7,0.1
			c0.1,0,0.2,0,0.3-0.1c0.4-0.2,0.7-0.5,0.8-0.9c0.2-0.4,0.2-0.9,0.3-1.4c0-0.1,0-0.2,0-0.3c0-0.1,0-0.2,0-0.4
			c0-0.2,0.2-0.4,0.4-0.4C-120.3,399.6-120.2,399.7-120.2,400z M-123.8,401.5c0,0.1,0,0.2,0.1,0.3c0-1.2-0.2-2.3-0.4-3.1l0,0l0-0.1
			l0,0c-0.2-0.4-0.4-0.7-0.6-0.9c-0.2-0.1-0.4-0.1-0.6,0c-1.4,0.6-1.3,3.6-1.2,5.7l0,0.3c0.1,0.4,0.1,0.9,0.3,1.3
			c0.2,0.5,0.5,0.8,1,0.6l0,0l0,0l0,0c0.8-0.3,1.2-1.3,1.4-2.5c-0.2-0.2-0.3-0.4-0.5-0.7c-0.1-0.3-0.2-0.5-0.2-0.9
			c0-0.2,0.1-0.4,0.3-0.4C-124,401.1-123.8,401.3-123.8,401.5z"/>
		<path class="st0" d="M-113.9,397.3L-113.9,397.3c0,1.8,0,4.2-1.6,4.9l0,0c-0.5,0.2-0.9,0.1-1.2-0.1c-0.3-0.2-0.5-0.5-0.6-0.8
			l0-0.1c-0.1-0.3-0.2-0.7-0.3-1.1c-0.1-0.5-0.1-1-0.2-1.5c0-0.5-0.1-0.8-0.1-1.1c0-0.3-0.1-0.6-0.1-1l-0.3,0
			c-0.6,0-1.2,0.1-1.8,0.1c0,0.2,0,0.4,0,0.5l0,0l-0.1,3.6c0,0.2-0.2,0.4-0.4,0.4c-0.2,0-0.4-0.2-0.4-0.4l0.1-3.5c0-0.2,0-0.4,0-0.6
			c-0.7-0.1-1.3-0.5-1.6-1.2c-0.1-0.3-0.1-0.5,0-0.8c0,0,0,0,0,0c0.1-0.2,0.3-0.5,0.6-0.6c0.1,0,0.2-0.1,0.3-0.1l0,0
			c0.3,0,0.5,0.1,0.7,0.2c0.2,0.1,0.3,0.3,0.4,0.6c0.1,0.2,0.1,0.4,0.1,0.5c0,0.2,0,0.4,0.1,0.7c0.6,0,1.2,0,1.8-0.1
			c0.3,0,0.5-0.1,0.7-0.1c0.2,0,0.4,0.2,0.4,0.4l0,0c0,0.6,0.1,0.9,0.1,1.3c0,0.3,0,0.6,0.1,1.1c0.1,0.5,0.1,1,0.2,1.5
			c0.1,0.4,0.1,0.7,0.2,1l0,0c0.1,0.2,0.2,0.4,0.4,0.5c0.1,0.1,0.2,0.1,0.4,0c1.1-0.5,1.1-2.6,1.1-4.1l0-0.1c0-0.2,0.2-0.4,0.4-0.4
			C-114.1,396.9-113.9,397-113.9,397.3z M-121.1,394.9c0-0.1-0.1-0.2-0.2-0.2c-0.1,0-0.1-0.1-0.2-0.1l0,0c0,0-0.1,0-0.1,0
			c-0.1,0-0.1,0.1-0.2,0.2l0,0c0,0.1,0,0.2,0,0.3c0.1,0.3,0.4,0.5,0.8,0.6c0-0.2,0-0.3,0-0.5C-121,395.1-121,395-121.1,394.9z"/>
		<path class="st0" d="M-107.8,394.6c0,1.7-0.4,2.9-1,3.9c-0.6,0.9-1.5,1.5-2.3,1.8l0,0l0,0c-0.6,0.2-1.2,0.3-1.8,0.1
			c-0.6-0.2-1.1-0.7-1.4-1.4l0,0l0,0c-0.2-0.4-0.3-1-0.4-1.5c0,0,0,0,0,0c-0.1-0.4-0.1-0.8-0.1-1.3c0-1.1,0.2-2.1,0.5-2.9
			c0.1-0.4,0.3-0.7,0.6-1c0.2-0.3,0.5-0.5,0.8-0.6c0.4-0.2,0.7-0.2,1-0.1c0.3,0.1,0.6,0.2,0.8,0.5c0.2,0.2,0.3,0.5,0.3,0.9
			c0.1,0.5,0,1.1-0.3,1.6c-0.3,0.6-0.7,1.1-1.2,1.6c-0.6,0.7-1.3,1.2-1.7,1.5c0.1,0.4,0.2,0.8,0.3,1.2l0,0c0.2,0.5,0.5,0.9,0.9,1
			c0.4,0.1,0.8,0.1,1.3-0.1l0,0c0.7-0.3,1.4-0.8,2-1.5c0.5-0.8,0.9-1.9,0.9-3.4c0-0.2,0.2-0.4,0.4-0.4
			C-107.9,394.2-107.8,394.4-107.8,394.6z M-114,396.5c0.3-0.3,0.8-0.7,1.2-1.1c0.4-0.4,0.8-0.9,1-1.4c0.2-0.4,0.3-0.8,0.2-1.1
			c0-0.2-0.1-0.4-0.2-0.5c-0.1-0.1-0.2-0.2-0.3-0.2c-0.2,0-0.3,0-0.6,0.1c-0.2,0.1-0.4,0.2-0.5,0.4c-0.2,0.2-0.3,0.5-0.4,0.7
			c-0.3,0.7-0.4,1.7-0.4,2.6C-114,396.2-114,396.3-114,396.5z"/>
		<path class="st0" d="M-98.8,390.7c0,0.1,0,0.3,0,0.4c0,0.1,0,0.2,0,0.4c0,0.5-0.1,1.1-0.3,1.6c-0.2,0.5-0.6,1-1.2,1.3
			c-0.2,0.1-0.3,0.1-0.5,0.2c-0.3,0-0.6,0-0.9-0.1c0,0.2-0.1,0.3-0.1,0.5c-0.2,1-0.6,1.7-1.3,2c0,0,0,0,0,0
			c-0.5,0.2-0.9,0.1-1.2-0.1c-0.2-0.1-0.4-0.4-0.5-0.6c-0.2,0.9-0.6,1.7-1.3,2l0,0c-0.5,0.2-0.9,0.1-1.2-0.1
			c-0.3-0.2-0.5-0.5-0.6-0.8l0-0.1c-0.1-0.3-0.2-0.7-0.3-1.1c-0.1-0.5-0.1-1-0.2-1.5c0-0.3-0.1-0.9-0.1-1.6c-0.1-0.9-0.1-2-0.2-3
			c0-0.2,0.2-0.4,0.4-0.4c0.2,0,0.4,0.2,0.4,0.4c0.1,1.1,0.1,2.2,0.2,3c0,0.7,0.1,1.3,0.1,1.6c0,0.5,0.1,1,0.2,1.5
			c0.1,0.4,0.1,0.7,0.2,1l0,0c0.1,0.2,0.2,0.4,0.4,0.5c0.1,0.1,0.3,0.1,0.5,0c1.1-0.5,1.1-2.6,1.1-4.1l0,0c0,0,0,0,0,0
			c0-0.3-0.1-0.9-0.1-1.6c0-0.9-0.1-2-0.2-3c0-0.2,0.2-0.4,0.4-0.4s0.4,0.1,0.4,0.4c0.1,1.1,0.1,2.2,0.2,3c0,0.7,0.1,1.3,0.1,1.6
			c0,0,0,0,0,0c0,0,0,0.1,0,0.1c0,0.5,0.1,1,0.2,1.4c0.1,0.4,0.1,0.7,0.2,1l0,0c0.1,0.2,0.2,0.4,0.4,0.5c0.1,0.1,0.3,0.1,0.4,0l0,0
			c0.4-0.2,0.7-0.7,0.8-1.5c0-0.2,0.1-0.5,0.1-0.7c-0.2-0.2-0.3-0.4-0.5-0.7c-0.1-0.3-0.2-0.5-0.2-0.9c0-0.2,0.1-0.4,0.3-0.4
			c0.2,0,0.4,0.1,0.4,0.3c0,0.2,0.1,0.3,0.1,0.4c0-0.3,0.1-0.7,0.1-1c0.1-0.9,0.1-1.7,0.2-2.5c0.1-0.8,0.1-1.5,0.1-2.2
			c0-0.2,0.2-0.4,0.4-0.4c0.2,0,0.4,0.2,0.4,0.4c0,0.7-0.1,1.4-0.1,2.2c-0.1,0.8-0.1,1.6-0.2,2.5c-0.1,0.7-0.1,1.3-0.2,1.9
			c0.2,0.1,0.4,0.1,0.6,0.1c0.1,0,0.2,0,0.3-0.1c0.4-0.2,0.7-0.5,0.8-0.9c0.2-0.4,0.2-0.9,0.3-1.4c0-0.1,0-0.2,0-0.3
			c0-0.1,0-0.2,0-0.4c0-0.2,0.2-0.4,0.4-0.4C-99,390.3-98.8,390.5-98.8,390.7z"/>
		<path class="st0" d="M-92.6,388c0,1.7-0.4,2.9-1,3.9c-0.6,0.9-1.5,1.5-2.3,1.8l0,0l0,0c-0.6,0.2-1.2,0.3-1.8,0.1
			c-0.6-0.2-1.1-0.7-1.4-1.4l0,0l0,0c-0.2-0.4-0.3-1-0.4-1.5c0,0,0,0,0,0c-0.1-0.4-0.1-0.8-0.1-1.3c0-1.1,0.2-2.1,0.5-2.9
			c0.1-0.4,0.3-0.7,0.6-1c0.2-0.3,0.5-0.5,0.8-0.6c0.4-0.2,0.7-0.2,1-0.1c0.3,0.1,0.6,0.2,0.8,0.5c0.2,0.2,0.3,0.5,0.3,0.9
			c0.1,0.5,0,1.1-0.3,1.6c-0.3,0.6-0.7,1.1-1.2,1.6c-0.6,0.7-1.3,1.2-1.7,1.5c0.1,0.4,0.2,0.8,0.3,1.2l0,0c0.2,0.5,0.5,0.9,0.9,1
			c0.4,0.1,0.8,0.1,1.3-0.1l0,0c0.7-0.3,1.4-0.8,2-1.5c0.5-0.8,0.9-1.9,0.9-3.4c0-0.2,0.2-0.4,0.4-0.4
			C-92.8,387.6-92.6,387.8-92.6,388z M-98.9,389.9c0.3-0.3,0.8-0.7,1.2-1.1c0.4-0.4,0.8-0.9,1-1.4c0.2-0.4,0.3-0.8,0.2-1.1
			c0-0.2-0.1-0.4-0.2-0.5c-0.1-0.1-0.2-0.2-0.3-0.2c-0.2,0-0.3,0-0.6,0.1c-0.2,0.1-0.4,0.2-0.5,0.4c-0.2,0.2-0.3,0.5-0.4,0.7
			c-0.3,0.7-0.4,1.7-0.4,2.6C-98.9,389.6-98.9,389.7-98.9,389.9z"/>
		<path class="st0" d="M-86.4,385.3L-86.4,385.3c0,1.8,0,4.2-1.6,4.9l0,0c-0.5,0.2-0.9,0.1-1.2-0.1c-0.3-0.2-0.5-0.5-0.6-0.8l0-0.1
			c-0.1-0.3-0.2-0.7-0.3-1.1c-0.1-0.5-0.1-1-0.2-1.5c0-0.5-0.1-0.8-0.1-1.1c0-0.3-0.1-0.6-0.1-1l-0.3,0c-0.6,0-1.2,0.1-1.8,0.1
			c0,0.2,0,0.4,0,0.5l0,0l-0.1,3.6c0,0.2-0.2,0.4-0.4,0.4c-0.2,0-0.4-0.2-0.4-0.4l0.1-3.5c0-0.2,0-0.4,0-0.6
			c-0.7-0.1-1.3-0.5-1.6-1.2c-0.1-0.3-0.1-0.5,0-0.8c0,0,0,0,0,0c0.1-0.2,0.3-0.5,0.6-0.6c0.1,0,0.2-0.1,0.3-0.1l0,0
			c0.3,0,0.5,0.1,0.7,0.2c0.2,0.1,0.3,0.3,0.4,0.6c0.1,0.2,0.1,0.4,0.1,0.5c0,0.2,0,0.4,0.1,0.7c0.6,0,1.2,0,1.8-0.1
			c0.3,0,0.5-0.1,0.7-0.1c0.2,0,0.4,0.2,0.4,0.4l0,0c0,0.6,0.1,0.9,0.1,1.3c0,0.3,0,0.6,0.1,1.1c0.1,0.5,0.1,1,0.2,1.5
			c0.1,0.4,0.1,0.7,0.2,1l0,0c0.1,0.2,0.2,0.4,0.4,0.5c0.1,0.1,0.2,0.1,0.4,0c1.1-0.5,1.1-2.6,1.1-4.1l0-0.1c0-0.2,0.2-0.4,0.4-0.4
			C-86.6,384.9-86.4,385.1-86.4,385.3z M-93.6,382.9c0-0.1-0.1-0.2-0.2-0.2c-0.1,0-0.1-0.1-0.2,0l0,0c0,0-0.1,0-0.1,0
			c-0.1,0-0.1,0.1-0.2,0.2l0,0c0,0.1,0,0.2,0,0.3c0.1,0.3,0.4,0.5,0.8,0.6c0-0.2,0-0.3,0-0.5C-93.5,383.1-93.5,383-93.6,382.9z"/>
		<path class="st0" d="M-80,382.5c0,1.5-0.2,2.7-0.6,3.8c-0.4,1-0.9,1.8-1.5,2.5c-0.2,0.3-0.5,0.5-0.8,0.7l0.1,0.7
			c0.1,0.8,0.1,1.6,0,2.3c-0.1,0.8-0.5,1.4-1.3,1.8c-0.1,0.1-0.3,0.1-0.4,0.1c-0.6,0.2-1.1,0.1-1.5,0c-0.4-0.2-0.7-0.5-0.9-0.9
			c0-0.1-0.1-0.2-0.1-0.2c-0.5-1.5,0.6-2.3,2.1-3.3c0.4-0.3,0.8-0.5,1.2-0.8c0-0.4-0.1-0.9-0.1-1.3c-0.2,0.5-0.6,0.9-1,1.1l0,0l0,0
			c-0.5,0.2-0.9,0.1-1.2-0.1c-0.3-0.2-0.5-0.5-0.6-0.8l0-0.1c-0.1-0.3-0.2-0.7-0.3-1.1c-0.1-0.5-0.1-1-0.2-1.5
			c0-0.3-0.1-0.9-0.1-1.6c-0.1-0.9-0.1-2-0.2-3c0-0.2,0.2-0.4,0.4-0.4c0.2,0,0.4,0.2,0.4,0.4c0.1,1.1,0.1,2.2,0.2,3
			c0,0.7,0.1,1.3,0.1,1.6c0.1,0.5,0.1,1,0.2,1.5c0.1,0.4,0.1,0.7,0.2,1l0,0l0,0c0.1,0.2,0.2,0.4,0.4,0.5c0.1,0.1,0.3,0.1,0.4,0l0,0
			c1.1-0.5,1.1-2.6,1.1-4.1l0-0.1c0,0,0,0,0,0c0-0.2,0-0.5,0-0.7c-0.1-1.2-0.2-3-0.2-3.9l0,0l0,0c0-0.2,0.1-0.4,0.4-0.4
			c0.2,0,0.4,0.1,0.4,0.4l0,0l0,0c0,0.9,0.1,2.6,0.2,3.8c0.1,0.9,0.1,1.8,0.2,2.9c0.1,0.8,0.1,1.6,0.2,2.4c0.1-0.1,0.2-0.2,0.3-0.3
			c0.6-0.6,1-1.3,1.4-2.2c0.3-0.9,0.5-2,0.5-3.5c0-0.2,0.2-0.4,0.4-0.4C-80.2,382.1-80,382.3-80,382.5z M-83.6,390
			c-0.3,0.2-0.6,0.4-0.9,0.6c-1.2,0.8-2.1,1.4-1.8,2.4c0,0.1,0,0.1,0.1,0.2c0.1,0.2,0.3,0.4,0.5,0.5c0.3,0.1,0.5,0.1,0.9,0
			c0.1,0,0.2-0.1,0.3-0.1c0.5-0.3,0.8-0.7,0.9-1.2c0.1-0.6,0.1-1.4,0-2.1L-83.6,390z"/>
	</g>
</g>
</svg>
