<?xml version="1.0" encoding="utf-8"?>
<!-- Generator: Adobe Illustrator 19.1.0, SVG Export Plug-In . SVG Version: 6.00 Build 0)  -->
<svg version="1.1" id="Layer_1" xmlns="http://www.w3.org/2000/svg" xmlns:xlink="http://www.w3.org/1999/xlink" x="0px" y="0px"
	 viewBox="0 0 185.5 185.5" style="enable-background:new 0 0 185.5 185.5;" xml:space="preserve">
<style type="text/css">
	.st0{fill:#D1D3D4;}
	.st1{font-family:'Nickainley';}
	.st2{font-size:33.5107px;}
	.st3{font-size:18.474px;}
	.st4{fill:#FFFFFF;}
	.st5{opacity:0.48;}
</style>
<g>
	<path class="st0" d="M20.8,89.3C20.8,89.3,20.8,89.3,20.8,89.3c-0.2-0.1-0.3-0.2-0.5-0.2c-0.1,0-0.2-0.1-0.3-0.1
		c-0.9-1.7-1.8-3.4-3-4.9c-0.1-0.3-0.3-0.6-0.4-0.9c-0.6-1-1.9-2.2-3.2-1.8c-0.7-0.1-1.4,0.1-1.8,1c0,0,0,0.1,0,0.1
		c-0.3,0.3-0.4,0.8-0.5,1.2c-0.1,2.3,1.8,3.8,3.9,4.9c1.5,1.1,3.3,1.8,5.2,2.1c0.1,0,0.2,0,0.3,0c0.2,0.1,0.4,0.2,0.7,0.2
		C22.1,90.7,21.8,89.1,20.8,89.3z"/>
	<path class="st0" d="M16.3,68.7c-0.2,0-0.8-1.1-0.9-1.3C15,67,14.5,66.6,14,66.3c-1.1-0.6-2.3-1-3.6-1.3c-1-0.3-1.5,1.2-0.5,1.5
		c1.3,0.3,2.7,0.7,3.8,1.6c0.9,0.7,1.2,2.2,2.5,2.3C17.2,70.4,17.4,68.8,16.3,68.7z"/>
	<path class="st0" d="M25.5,62.1c-0.6-0.8-1.8-1-2.6-0.3c-0.8,0.8-0.6,1.9-0.6,2.9c-0.6,0.9-1.1,1.9-1.6,2.9
		c-0.1,0.3-0.2,0.6-0.2,0.9c-0.2,0.2-0.4,0.4-0.6,0.5c-0.8,0.6,0.2,1.8,1,1.2c0.1-0.1,0.2-0.2,0.3-0.3c0.1,0,0.1,0.1,0.2,0.1
		c2.3,0.8,4.1-2.9,4.5-4.6C26.1,64.4,26.2,63,25.5,62.1z"/>
	<path class="st0" d="M37.1,97c-1,0-1.2,1.6-0.1,1.6c1.9-0.1,1.2,2.4,1.3,3.7c0,0.7,0.3,2,0.2,3.1c0-0.2-0.1-0.4-0.1-0.7
		c-0.2-1-1.8-0.7-1.6,0.3c0.2,0.9,0.3,1.8,0.4,2.8c0,0.6,0.6,1.1,1.1,0.8c2.6-1.3,1.6-4.5,1.6-6.9C39.8,99.3,40.4,96.9,37.1,97z"/>
	<path class="st0" d="M40.4,101.5c0.1-0.8,0.1-1.5-0.3-2.3c-0.2-0.5-0.6-0.6-1-0.6c-0.4-0.6-0.9-1.1-1.8-1.3c-1.3-0.3-2.7,0.2-3,1.7
		c-0.4,1.8,0.8,4.2,1.5,5.8c0.2,0.5,0.8,0.7,1.3,0.5c0.1,0.6,0.1,1.1,0,1.7c-0.1,1.4,2,1.6,2.2,0.2c0-0.5,0.1-0.9,0-1.4
		c0.2,0,0.4-0.1,0.5-0.2c1.3-1.1,0.9-2.5,0.5-3.9C40.4,101.7,40.4,101.6,40.4,101.5z"/>
	<path class="st0" d="M54.5,122.6c0.1-0.1,0.2-0.3,0.2-0.5c-0.1-3.1,0.6-13.1-4.9-12.3c-3,0.5-3.2,4-1.5,5.8c0,0.1,0,0.1,0,0.2
		c0.3,1.2,0.9,2.3,1.5,3.3c0.4,0.6,1,1.1,1.6,1.7c0.1,0.2,0.1,0.3,0.2,0.5c0.1,0.4,0.4,0.6,0.8,0.6c0.1,0.2,0.2,0.4,0.3,0.6
		c0.1,0.2,0.2,0.3,0.4,0.4c-0.4,0.7,0.1,1.8,1.1,1.6C55.1,124.4,55.2,123.1,54.5,122.6z"/>
	<path class="st0" d="M33.2,110.1c-1.4-0.8-2.8-1.6-4.3-2.2c-0.5-0.7-1.3-1.3-2.2-1.4c-0.6-0.6-1.2-1-1.9-1.3
		c-1.4-0.6-4.4-0.8-4.9,1.2c-0.2,0.6,0,1.2,0.3,1.7c0,0.3,0,0.5,0.2,0.8c0.5,0.7,1.2,1.1,2,1.4c0.4,0.3,0.8,0.6,1.2,0.8
		c1,0.6,2,1,3.1,1c0.3,0,0.6,0,1-0.1c1.3,0.4,2.6,0.6,4.1,0.2c0.3,0,0.7,0,1,0C33.7,111.9,34,110.6,33.2,110.1z"/>
	<path class="st0" d="M50.2,128.1c-1.8-0.8-3.7-1.4-5.5-2.1c-1.8-0.7-5.3-2.7-7.1-1c-1.4,1.2-0.4,3.1,1,3.8c0.1,0,0.1,0,0.2,0.1
		c0.9,1.2,2.4,1.8,4.1,2.1c2.4,0.4,6.2,1.2,8.4-0.4c0.3-0.2,0.4-0.7,0.4-1C51.4,128.6,51,128.4,50.2,128.1z"/>
	<path class="st0" d="M29.4,79.8c0-0.9-1.4-1.6-1.9-0.6c-0.4,0.7-0.6,1.5-0.7,2.2c-0.1,0.3-0.2,0.6-0.2,0.9c-0.4,2.3-1,4.5-1.7,6.6
		c-0.5,1.3,1.6,2.1,2,0.7c0.1-0.2,0.1-0.3,0.2-0.5c0.2,0.1,0.5,0.1,0.7,0.1c1.3-0.2,2.4-1.4,2.9-2.5C31.3,85.2,31.4,80.6,29.4,79.8z
		"/>
	<path class="st0" d="M21.5,42.8c-1.9-0.2-3.8,1.8-4.5,3.3c-1.3,2.6-0.6,6.3-0.5,9.1c0,1.4,2.2,1.6,2.2,0.2c0-0.3,0-0.5,0-0.8
		c0.3,0.1,0.7,0,0.9-0.2c1.7-1.6,3.6-4.1,4-6.4C23.8,46.4,23.6,43,21.5,42.8z"/>
	<path class="st0" d="M16,67.7c-1.9-1.7-2.3-4.5-4.3-6.1c-0.5-0.5-1.3-0.8-2-0.6c-0.2,0-0.4,0-0.5,0.1c-1.7,0.8-1.9,3.3-0.1,4.1
		c0.3,0.1,0.6,0.2,0.8,0.4c0,0.2,0.1,0.4,0.2,0.5c0.2,0.3,0.5,0.5,0.7,0.8c0.2,0.2,0.4,0.3,0.6,0.3c0.1,0.1,0.2,0.3,0.4,0.4
		c0.9,0.9,2,1.5,3.2,1.9C16.2,70,16.9,68.5,16,67.7z"/>
	<g>
		<path class="st0" d="M98.4,168.1c-0.2,0-0.5-0.1-0.6-0.3c-3.9-8.5-11-16.5-21.5-24.5c-4-3-8.2-5.8-12.3-8.6
			c-7-4.7-14.2-9.6-20.5-15.4c-16.7-15.5-26.6-38.6-26.6-61.7c0-0.3,0.2-0.5,0.5-0.5c0.3,0,0.5,0.2,0.5,0.5
			c-0.1,22.9,9.7,45.6,26.2,61c6.2,5.8,13.4,10.6,20.4,15.3c4.1,2.8,8.3,5.6,12.3,8.6c10.7,8.1,17.9,16.2,21.9,24.9
			c0.1,0.3,0,0.6-0.3,0.7C98.4,168.1,98.4,168.1,98.4,168.1z"/>
	</g>
	<g>
		<path class="st0" d="M54.2,127.8c0,0-0.1,0-0.1,0c-0.2,0-0.4-0.2-0.4-0.5c0.1-1.7-0.6-3.5-2.2-5.5c-0.5-0.6-1-1.2-1.5-1.8
			c-0.9-1-1.7-2-2.4-3.2c-0.9-1.5-1.4-2.9-1.3-4.2c0.1-1.7,1.1-3.2,2.5-3.7c1.3-0.4,2.9,0,4,1c1.1,1,1.7,2.4,2.1,3.4
			c1.6,4.2,0.6,9.1-0.2,13.5l-0.1,0.5C54.5,127.6,54.4,127.7,54.2,127.8z M49.4,109.8c-0.1,0-0.2,0-0.3,0.1c-1,0.4-1.8,1.5-1.9,2.8
			c-0.1,1.1,0.3,2.3,1.1,3.6c0.7,1.1,1.5,2.1,2.4,3c0.5,0.6,1.1,1.2,1.6,1.9c0.9,1.2,1.5,2.3,1.9,3.4c0.7-3.6,1.1-7.5-0.1-10.8
			c-0.4-1-0.9-2.2-1.9-3.1C51.3,110,50.3,109.6,49.4,109.8z"/>
	</g>
	<g>
		<path class="st0" d="M48.1,132.3c-1.9,0.3-3.9,0.2-5.8-0.4c-2.5-0.8-5.4-2.8-5.8-5c-0.2-0.8,0.1-1.6,0.6-2.2
			c0.8-0.9,2.1-1.3,3.6-1.1c1.6,0.2,3.3,0.9,4.7,1.6c0.3,0.1,0.5,0.3,0.8,0.4c1.1,0.6,2.3,1.2,3.5,1.5c1.6,0.5,3,0.5,3.7,0
			c0.2-0.2,0.5-0.1,0.7,0.1c0.2,0.2,0.1,0.5-0.1,0.7c-0.5,0.4-0.9,0.9-1.4,1.5c-0.8,1-1.6,2-3,2.5C49.2,132.1,48.7,132.2,48.1,132.3
			z M39.4,124.6c-0.6,0.1-1.2,0.4-1.5,0.8c-0.3,0.4-0.5,0.8-0.4,1.4c0.3,1.6,2.6,3.4,5.1,4.2c2.2,0.7,4.7,0.7,6.8,0
			c1.1-0.4,1.8-1.2,2.5-2.2c0.1-0.1,0.2-0.2,0.3-0.3c-1.1,0-2.2-0.3-2.7-0.4c-1.3-0.4-2.5-1-3.7-1.6c-0.3-0.1-0.5-0.3-0.8-0.4
			c-1.3-0.6-2.9-1.3-4.3-1.5C40.2,124.6,39.8,124.6,39.4,124.6z"/>
	</g>
	<g>
		<path class="st0" d="M36.5,110.7c-0.1,0-0.3,0-0.4-0.1c-0.2-0.2-0.2-0.4-0.1-0.6c0.9-1.4,0.3-3.4-0.1-4.2c-0.2-0.5-0.5-1-0.7-1.5
			c-0.5-0.9-1-1.9-1.2-2.9c-0.4-1.7-0.1-3.9,1.7-4.8c1.3-0.7,3.1-0.4,4.2,0.8c0.9,0.9,1.5,2.2,1.7,3.9c0.4,3.6-1.1,6.6-4.8,9.4
			C36.6,110.6,36.6,110.7,36.5,110.7z M36.6,97.2c-0.2,0-0.4,0.1-0.6,0.2c-1.2,0.6-1.5,2.4-1.2,3.7c0.2,0.9,0.7,1.8,1.2,2.7
			c0.3,0.5,0.5,1,0.8,1.6c0.3,0.8,0.8,2.1,0.6,3.3c2.4-2.2,3.5-4.7,3.1-7.4c-0.2-1.5-0.7-2.6-1.4-3.3C38.5,97.3,37.5,97,36.6,97.2z"
			/>
	</g>
	<g>
		<path class="st0" d="M31.5,112.7c-3,0.6-6.3,0.1-9-1.3c-1.4-0.7-2.3-1.6-2.9-2.5c-0.8-1.3-0.7-2.9,0.1-4c0.6-0.8,1.7-1.3,2.9-1.4
			c0.9,0,1.9,0.2,3,0.8c1.1,0.6,2.2,1.3,3.1,2c0.5,0.3,1,0.7,1.5,1l0.3,0.2c1.4,1,3.8,2.6,5.4,2.5c0.2,0,0.4,0.1,0.5,0.3
			c0.1,0.2,0,0.4-0.2,0.5C34.7,111.9,33.1,112.4,31.5,112.7z M22,104.6c-0.7,0.1-1.2,0.4-1.6,0.9c-0.6,0.7-0.6,1.9,0,2.9
			c0.5,0.8,1.3,1.5,2.5,2.2c3.5,1.8,7.8,1.9,11.4,0.3c-1.6-0.5-3.2-1.6-4.4-2.4l-0.3-0.2c-0.5-0.3-1-0.7-1.5-1.1c-1-0.7-2-1.4-3-1.9
			c-0.9-0.5-1.8-0.7-2.5-0.7C22.4,104.5,22.2,104.6,22,104.6z"/>
	</g>
	<g>
		<path class="st0" d="M17.6,58.8C17.6,58.8,17.6,58.8,17.6,58.8c-0.3,0-0.5-0.1-0.5-0.3c-1.5-4-2.1-9.9,0.5-14.2
			c0.4-0.6,0.9-1.5,1.8-2c0.9-0.6,1.9-0.8,2.8-0.5c1.6,0.5,2.3,2.3,2.3,3.6c0.1,2.7-1.3,5.2-2.6,7c-0.3,0.5-0.6,0.9-1,1.4
			c-1.1,1.5-2.2,3-2.8,4.7C17.9,58.6,17.8,58.7,17.6,58.8z M20.9,42.6c-0.4,0.1-0.7,0.2-1,0.5c-0.7,0.5-1.1,1.2-1.5,1.7
			c-2.2,3.6-1.9,8.5-0.8,12.2c0.7-1.3,1.6-2.6,2.4-3.8c0.3-0.4,0.7-0.9,1-1.3c1.2-1.7,2.5-4,2.4-6.4c0-1.1-0.6-2.4-1.6-2.8
			C21.5,42.6,21.2,42.6,20.9,42.6z"/>
	</g>
	<g>
		<path class="st0" d="M23.7,91.1C23.7,91.1,23.7,91.1,23.7,91.1c-4.7,0.5-8.4-0.6-11.1-3.4c-1.3-1.3-2.1-2.6-2.3-3.9
			c-0.3-1.6,0.6-3.1,2.1-3.5c1.9-0.5,3.9,0.8,5.1,2.2c0.7,0.9,1.3,1.9,1.7,2.9c0.3,0.5,0.5,1.1,0.8,1.6c1,1.7,2.3,2.8,3.7,3.1
			c0.2,0,0.4,0.3,0.4,0.5C24.1,90.9,23.9,91.1,23.7,91.1z M12.8,81.3c-0.1,0-0.1,0-0.1,0c-1.1,0.3-1.5,1.4-1.4,2.4
			c0.2,1,0.9,2.2,2,3.3c2.2,2.2,4.9,3.2,8.4,3.2c-1.1-0.8-1.9-1.9-2.4-2.7c-0.3-0.5-0.6-1.1-0.9-1.6c-0.5-1-1-1.9-1.6-2.7
			C15.7,82,14.1,81,12.8,81.3z"/>
	</g>
	<g>
		<path class="st0" d="M18.2,70.9c0,0-0.1,0-0.1,0C14,70.5,9.1,68,7.8,64.3c-0.2-0.5-0.4-1.3-0.4-2.1c0.1-0.8,0.5-1.6,1.1-2
			c1.2-0.7,2.7-0.2,3.6,0.6c1.7,1.4,2.7,3.3,3.7,5.2c0.8,1.5,1.5,3,2.6,4.2c0.1,0.1,0.2,0.4,0.1,0.5C18.5,70.8,18.4,70.9,18.2,70.9z
			 M9.5,60.8c-0.2,0-0.3,0.1-0.4,0.2c-0.4,0.2-0.6,0.7-0.7,1.3c0,0.5,0.1,1,0.3,1.7c1.1,3,4.8,5.1,8.3,5.9c-0.8-1.1-1.4-2.2-2-3.4
			c-1-1.9-1.9-3.6-3.4-4.9C11,61.1,10.2,60.7,9.5,60.8z"/>
	</g>
	<g>
		<path class="st0" d="M21.5,70.8c-0.9,0.2-1.7,0.1-2.6-0.2c-0.2-0.1-0.3-0.2-0.3-0.3c0-0.2,0-0.3,0.1-0.4c1-1.1,1.6-3,2.2-4.7
			c0.2-0.6,0.4-1.1,0.5-1.7c0.4-1.1,0.9-2.3,1.9-2.8c0.5-0.3,1.1-0.3,1.6-0.2c0.6,0.2,1.2,0.7,1.5,1.4c0.5,1,0.5,2.4,0.1,3.8
			c-0.5,1.8-1.6,3.4-3,4.3C22.9,70.4,22.2,70.7,21.5,70.8z M20,69.9c1,0.2,2.1-0.1,3.1-0.7c1.2-0.8,2.2-2.2,2.6-3.8
			c0.3-1.2,0.3-2.3-0.1-3.1c-0.2-0.4-0.6-0.7-1-0.9c-0.2-0.1-0.5-0.1-0.9,0.1c-0.7,0.4-1.1,1.3-1.4,2.3c-0.2,0.5-0.3,1-0.5,1.6
			C21.4,67,20.8,68.7,20,69.9z"/>
	</g>
	<g>
		<path class="st0" d="M25,91c-0.2,0-0.4,0.1-0.6,0.1c-0.2,0-0.3,0-0.4-0.2c-0.1-0.1-0.1-0.3-0.1-0.4c0.4-1.3,0.6-2.7,0.8-4.1
			c0.2-1.4,0.4-2.9,0.8-4.3c0.4-1.4,0.9-2.9,2-3.5c1-0.6,2.4-0.2,3.2,1c1,1.4,1.3,3.6,0.8,5.6c-0.5,1.8-1.5,3.3-2.9,4.3
			C27.6,90.2,26.4,90.7,25,91z M28.3,79.3c-0.1,0-0.2,0.1-0.3,0.1c-0.8,0.4-1.2,1.8-1.6,3c-0.4,1.3-0.6,2.7-0.8,4.1
			c-0.2,1.2-0.3,2.4-0.6,3.5c1.2-0.2,2.2-0.6,3.1-1.3c1.2-0.9,2.2-2.3,2.6-3.8c0.4-1.7,0.2-3.7-0.7-4.8
			C29.6,79.6,28.9,79.1,28.3,79.3z"/>
	</g>
	<path class="st0" d="M169.9,62C169.9,62,169.9,62,169.9,62c0.2-0.1,0.3-0.3,0.4-0.4c0.1-0.1,0.2-0.1,0.3-0.2c0.2-1.9,0.4-3.8,1-5.7
		c0-0.4,0-0.7,0.1-1c0.2-1.1,1-2.8,2.3-2.8c0.6-0.4,1.4-0.4,2.1,0.3c0,0,0,0.1,0.1,0.1c0.4,0.2,0.7,0.5,0.9,1c0.9,2.1-0.3,4.2-1.9,6
		c-1,1.6-2.4,2.9-4.1,3.8c-0.1,0.1-0.2,0.1-0.3,0.1c-0.1,0.2-0.3,0.4-0.6,0.4C169.2,63.8,168.9,62.2,169.9,62z"/>
	<g>
		<path class="st0" d="M166.7,41.1c0.2-0.1,0.3-1.3,0.4-1.5c0.2-0.6,0.6-1.1,0.9-1.6c0.8-1,1.8-1.8,2.9-2.5c0.8-0.6,1.9,0.6,1,1.2
			c-1.1,0.8-2.3,1.6-3,2.8c-0.6,1-0.4,2.5-1.5,3C166.5,43,165.8,41.6,166.7,41.1z"/>
	</g>
	<g>
		<path class="st0" d="M156.6,41.5c0.9,1.5,3.9,4.3,5.8,2.7c0.1-0.1,0.1-0.1,0.2-0.2c0.1,0,0.3,0.1,0.4,0.1c1,0.3,1.5-1.3,0.5-1.5
			c-0.3-0.1-0.5-0.2-0.8-0.3c-0.1-0.3-0.3-0.5-0.5-0.7c-0.8-0.7-1.6-1.4-2.5-2.1c-0.4-0.9-0.6-2.1-1.6-2.5c-1-0.4-2,0.3-2.3,1.2
			C155.5,39.3,156.1,40.6,156.6,41.5z"/>
	</g>
	<g>
		<path class="st0" d="M157.5,75c1-0.3,1.7,1.1,0.7,1.4c-1.8,0.6-0.3,2.7,0.1,3.9c0.2,0.7,0.5,2,0.9,3c0-0.2-0.1-0.4-0.1-0.7
			c-0.2-1,1.4-1.3,1.6-0.3c0.1,1,0.3,1.8,0.7,2.7c0.2,0.5-0.1,1.2-0.8,1.1c-2.9-0.3-3.1-3.7-3.9-5.9C155.8,78.1,154.3,76,157.5,75z"
			/>
	</g>
	<path class="st0" d="M155.9,80.4c-0.4-0.7-0.6-1.4-0.6-2.3c0-0.5,0.3-0.8,0.7-0.9c0.2-0.7,0.5-1.3,1.2-1.9c1.1-0.8,2.6-0.7,3.4,0.5
		c1,1.6,0.8,4.2,0.7,6c0,0.6-0.5,0.9-1,1c0.1,0.5,0.3,1.1,0.6,1.6c0.6,1.2-1.3,2.2-1.9,0.9c-0.2-0.4-0.4-0.8-0.5-1.3
		c-0.2,0-0.4,0-0.6,0c-1.6-0.6-1.8-2-1.8-3.5C156,80.5,156,80.5,155.9,80.4z"/>
	<g>
		<path class="st0" d="M150.3,105.1c-0.1-0.1-0.3-0.2-0.3-0.4c-1-2.9-5.3-12.1,0.2-13.3c3-0.7,4.4,2.6,3.5,4.9c0,0.1,0,0.1,0,0.2
			c0.1,1.2,0,2.4-0.3,3.6c-0.2,0.7-0.5,1.4-0.9,2.2c0,0.2,0,0.3,0,0.5c0,0.4-0.2,0.7-0.5,0.9c-0.1,0.2-0.1,0.4-0.1,0.6
			c0,0.2-0.1,0.4-0.2,0.5c0.6,0.5,0.6,1.7-0.4,1.9C150.3,107,149.8,105.8,150.3,105.1z"/>
	</g>
	<g>
		<path class="st0" d="M165.8,85.8c1-1.2,2-2.4,3.2-3.5c0.2-0.9,0.8-1.6,1.5-2.1c0.4-0.7,0.8-1.4,1.3-1.9c1.1-1.1,3.8-2.3,5-0.7
			c0.4,0.5,0.4,1.1,0.4,1.7c0.1,0.2,0.2,0.5,0.1,0.8c-0.2,0.8-0.7,1.5-1.4,2c-0.3,0.4-0.6,0.8-0.8,1.1c-0.7,0.9-1.5,1.7-2.5,2.1
			c-0.3,0.1-0.6,0.2-0.9,0.2c-1.1,0.9-2.2,1.5-3.7,1.6c-0.3,0.1-0.6,0.2-1,0.3C166,87.7,165.2,86.5,165.8,85.8z"/>
	</g>
	<g>
		<path class="st0" d="M156.2,108.7c1.4-1.4,2.9-2.6,4.4-3.9c1.5-1.3,4-4.4,6.3-3.5c1.7,0.7,1.5,2.7,0.4,3.9c0,0-0.1,0.1-0.1,0.1
			c-0.4,1.5-1.6,2.5-3.1,3.4c-2.1,1.3-5.4,3.3-8,2.6c-0.3-0.1-0.7-0.5-0.7-0.8C155.3,109.6,155.6,109.3,156.2,108.7z"/>
	</g>
	<g>
		<path class="st0" d="M158.5,56.1c-0.3-0.9,0.7-2,1.6-1.3c0.7,0.5,1.1,1.1,1.5,1.8c0.2,0.2,0.4,0.5,0.5,0.8c1.2,2,2.5,3.8,4,5.6
			c0.9,1.1-0.7,2.5-1.6,1.4c-0.1-0.1-0.2-0.3-0.3-0.4c-0.2,0.2-0.4,0.3-0.7,0.3c-1.3,0.3-2.8-0.4-3.6-1.3
			C158.7,61.9,156.9,57.6,158.5,56.1z"/>
	</g>
	<g>
		<path class="st0" d="M152.6,24.3c1.2,2,3.9,3.7,6.1,4.6c0.3,0.1,0.7,0.1,0.9-0.1c0.1,0.3,0.2,0.5,0.3,0.8c0.5,1.3,2.4,0.4,1.9-0.9
			c-0.9-2.7-1.6-6.3-3.7-8.3c-1.2-1.1-3.7-2.3-5.4-1.5C150.7,19.7,151.8,22.9,152.6,24.3z"/>
	</g>
	<path class="st0" d="M166.7,40.1c1.2-2.2,0.6-5,1.8-7.2c0.3-0.6,0.9-1.2,1.6-1.2c0.2-0.1,0.3-0.1,0.6-0.1c1.9,0.2,2.9,2.4,1.6,3.8
		c-0.2,0.2-0.5,0.4-0.7,0.6c0,0.2,0,0.4,0,0.6c-0.1,0.3-0.2,0.7-0.4,1c-0.1,0.2-0.2,0.4-0.4,0.5c-0.1,0.2-0.1,0.4-0.2,0.5
		c-0.5,1.2-1.3,2.1-2.3,2.9C167.3,42.3,166.1,41.2,166.7,40.1z"/>
	<g>
		<path class="st0" d="M125.5,163.2c0.2,0,0.4-0.2,0.4-0.5c0.6-9.4,4.4-19.4,11.4-30.6c2.6-4.2,5.6-8.4,8.4-12.4
			c4.8-6.9,9.9-14,13.7-21.7c10.1-20.4,11.1-45.5,2.8-67.2c-0.1-0.3-0.4-0.4-0.7-0.3c-0.3,0.1-0.4,0.4-0.3,0.7
			c8.2,21.3,7.2,46.1-2.8,66.3c-3.8,7.6-8.7,14.7-13.6,21.6c-2.8,4-5.8,8.2-8.4,12.5c-7.1,11.4-10.9,21.5-11.5,31.1
			c0,0.3,0.2,0.5,0.5,0.6C125.4,163.3,125.5,163.2,125.5,163.2z"/>
	</g>
	<g>
		<path class="st0" d="M151.9,109.6l-0.3-0.4c-2.4-3.7-5-8-5-12.5c0-1.2,0.1-2.7,0.8-4c0.7-1.4,2.1-2.4,3.4-2.4c1.5-0.1,3,1,3.7,2.5
			c0.5,1.2,0.6,2.7,0.3,4.4c-0.3,1.3-0.7,2.6-1.2,3.8c-0.3,0.7-0.5,1.5-0.8,2.3c-0.7,2.4-0.7,4.3-0.1,5.9c0.1,0.2,0,0.5-0.2,0.6
			c0,0-0.1,0-0.1,0C152.2,109.9,152,109.8,151.9,109.6z M148.3,93.2c-0.6,1.1-0.6,2.5-0.7,3.5c0,3.5,1.8,7,3.7,10.2
			c0-1.2,0.2-2.4,0.6-3.8c0.2-0.8,0.5-1.6,0.8-2.3c0.4-1.2,0.9-2.4,1.1-3.7c0.3-1.5,0.2-2.8-0.2-3.8c-0.5-1.2-1.7-2-2.8-2
			c-0.1,0-0.2,0-0.3,0C149.6,91.5,148.8,92.2,148.3,93.2z"/>
	</g>
	<g>
		<path class="st0" d="M158.1,112.1c-1.4,0-2.6-0.6-3.7-1.2c-0.6-0.4-1.2-0.7-1.8-0.9c-0.3-0.1-0.4-0.3-0.3-0.6
			c0.1-0.3,0.3-0.4,0.6-0.3c0.8,0.2,2.1-0.3,3.4-1.3c1-0.8,1.9-1.8,2.7-2.7c0.2-0.2,0.4-0.5,0.6-0.7c1.1-1.1,2.4-2.4,3.8-3.1
			c1.4-0.7,2.8-0.8,3.8-0.2c0.7,0.4,1.2,1,1.4,1.8c0.4,2.2-1.6,5.1-3.6,6.7c-1.6,1.2-3.4,2.1-5.3,2.4
			C159.2,112,158.6,112.1,158.1,112.1z M163.9,102.1c-1.3,0.7-2.5,1.9-3.5,2.9c-0.2,0.2-0.4,0.4-0.6,0.7c-0.9,1-1.8,2-2.9,2.8
			c-0.4,0.3-1.3,1-2.4,1.3c0.1,0.1,0.2,0.1,0.4,0.2c1,0.6,2,1.2,3.1,1.1c2.2-0.1,4.5-0.9,6.4-2.4c2.1-1.7,3.6-4.2,3.3-5.8
			c-0.1-0.5-0.4-0.9-0.8-1.1c-0.5-0.2-1.1-0.3-1.7-0.2C164.7,101.7,164.3,101.8,163.9,102.1z"/>
	</g>
	<g>
		<path class="st0" d="M162.7,87.5c-4.4-1.3-7-3.6-7.8-7c-0.4-1.6-0.3-3.1,0.2-4.2c0.7-1.5,2.2-2.4,3.7-2.3c1.9,0.2,3,2.2,3.2,3.9
			c0.1,1.1,0,2.2-0.1,3.2c-0.1,0.6-0.1,1.1-0.2,1.7c0,0.8,0,2.9,1.4,3.9c0.2,0.1,0.3,0.4,0.2,0.6c-0.1,0.1-0.2,0.2-0.3,0.3
			C162.8,87.6,162.7,87.6,162.7,87.5z M155.9,76.7c-0.4,1-0.5,2.2-0.1,3.6c0.7,2.7,2.5,4.6,5.6,5.8c-0.6-1.1-0.7-2.5-0.6-3.3
			c0-0.6,0.1-1.2,0.2-1.8c0.1-1,0.2-2,0.1-3c-0.2-1.4-1.1-2.9-2.4-3c-0.2,0-0.4,0-0.6,0C157.1,75.1,156.3,75.8,155.9,76.7z"/>
	</g>
	<g>
		<path class="st0" d="M163.4,87.7c-0.2,0-0.4-0.2-0.4-0.4c0-0.2,0.1-0.4,0.3-0.5c1.5-0.5,3.1-2.9,4.1-4.3l0.2-0.3
			c0.3-0.5,0.7-1,1-1.5c0.7-1,1.4-2.1,2.2-3c0.8-0.9,1.6-1.5,2.5-1.8c1.1-0.4,2.3-0.3,3.2,0.2c1.1,0.7,1.7,2.2,1.5,3.7
			c-0.2,1.1-0.8,2.2-1.8,3.4c-2.1,2.3-4.9,3.9-8,4.4C166.7,88,165,88,163.4,87.7z M173.7,76.9c-0.7,0.3-1.4,0.8-2.1,1.5
			c-0.8,0.9-1.5,1.9-2.1,2.9c-0.3,0.5-0.7,1-1,1.5l-0.2,0.3c-0.8,1.2-2,2.8-3.3,3.9c3.9,0.2,7.9-1.4,10.5-4.3c0.9-1,1.4-2,1.6-2.9
			c0.2-1.1-0.3-2.2-1-2.7c-0.5-0.3-1.1-0.4-1.8-0.3C174.1,76.7,173.9,76.8,173.7,76.9z"/>
	</g>
	<g>
		<path class="st0" d="M161.5,32.2c-1.2-1.4-2.8-2.4-4.3-3.4c-0.5-0.3-0.9-0.6-1.4-0.9c-1.8-1.3-4.1-3-4.9-5.6
			c-0.4-1.3-0.5-3.2,0.9-4.2c0.7-0.6,1.8-0.7,2.8-0.5c1,0.2,1.8,0.8,2.4,1.3c4,3.1,5.4,8.8,5.5,13.1c0,0.2-0.1,0.4-0.3,0.5
			c0,0-0.1,0-0.1,0C161.8,32.4,161.6,32.3,161.5,32.2z M152.3,18.8c-0.9,0.7-0.9,2.1-0.5,3.2c0.8,2.3,2.8,4,4.6,5.1
			c0.5,0.3,0.9,0.6,1.4,0.9c1.2,0.8,2.5,1.6,3.6,2.7c-0.3-3.9-1.7-8.5-5.1-11.1c-0.5-0.4-1.2-0.9-2-1.1c-0.4-0.1-0.8-0.1-1.1,0
			C152.8,18.5,152.5,18.6,152.3,18.8z"/>
	</g>
	<g>
		<path class="st0" d="M167.3,64.4c-0.1-0.2,0-0.5,0.2-0.6c1.1-0.7,2-2.3,2.3-4.2c0.1-0.6,0.2-1.2,0.2-1.8c0.1-1.1,0.2-2.2,0.6-3.3
			c0.6-1.7,2.1-3.7,4-3.9c1.5-0.2,2.9,0.9,3.2,2.5c0.3,1.2,0,2.7-0.7,4.4c-1.6,3.6-4.6,5.9-9.2,7.1c0,0,0,0,0,0
			C167.6,64.7,167.4,64.6,167.3,64.4z M171.6,54.8c-0.3,1-0.4,2-0.6,3.1c-0.1,0.6-0.1,1.2-0.2,1.8c-0.1,0.9-0.5,2.2-1.3,3.4
			c3.2-1.2,5.4-3.2,6.7-6c0.7-1.5,0.9-2.8,0.7-3.8c-0.2-1-1-1.9-2.1-1.8c-0.1,0-0.1,0-0.2,0C173.2,51.9,172,53.4,171.6,54.8z"/>
	</g>
	<g>
		<path class="st0" d="M165.4,43.8c-0.1-0.1-0.2-0.4-0.1-0.5c0.6-1.5,0.8-3.2,1-4.8c0.2-2.1,0.5-4.3,1.6-6.1
			c0.6-1.1,1.8-2.2,3.2-1.9c0.7,0.1,1.4,0.7,1.7,1.5c0.3,0.7,0.4,1.5,0.4,2.1c0.1,4-3.6,8-7.2,9.9c0,0-0.1,0-0.1,0
			C165.6,43.9,165.5,43.9,165.4,43.8z M168.6,32.8c-1,1.7-1.2,3.7-1.5,5.8c-0.1,1.3-0.3,2.6-0.6,3.8c3-1.9,5.7-5.2,5.6-8.4
			c0-0.7-0.1-1.2-0.3-1.7c-0.2-0.5-0.6-0.8-1.1-0.9c-0.2,0-0.3,0-0.5,0C169.6,31.5,169,32.2,168.6,32.8z"/>
	</g>
	<g>
		<path class="st0" d="M160.4,44.9c-1.7-0.4-3.2-1.4-4.4-2.9c-0.9-1.2-1.3-2.5-1.2-3.6c0.1-0.7,0.4-1.4,0.9-1.8
			c0.5-0.4,1-0.5,1.6-0.4c1.1,0.2,1.9,1,2.7,1.9c0.4,0.4,0.7,0.9,1.1,1.4c1.1,1.4,2.4,3,3.7,3.6c0.1,0.1,0.3,0.2,0.3,0.4
			c0,0.2,0,0.3-0.2,0.4c-0.6,0.6-1.4,0.9-2.3,1.1C162,45.1,161.2,45.1,160.4,44.9z M160.4,40c-0.4-0.5-0.7-0.9-1.1-1.3
			c-0.7-0.8-1.4-1.5-2.1-1.6c-0.4-0.1-0.7,0.1-0.8,0.2c-0.3,0.3-0.5,0.7-0.6,1.2c-0.1,0.9,0.3,1.9,1,2.9c1,1.3,2.4,2.3,3.8,2.6
			c1.1,0.2,2.2,0.1,3.1-0.4C162.5,42.7,161.4,41.3,160.4,40z"/>
	</g>
	<g>
		<path class="st0" d="M162.7,65c-1.7-0.4-3.2-1.5-4.3-3c-1.2-1.7-1.7-3.9-1.2-5.5c0.4-1.4,1.5-2.3,2.7-2.1c1.2,0.2,2.2,1.4,3.2,2.6
			c0.9,1.1,1.6,2.4,2.3,3.7c0.7,1.2,1.4,2.5,2.2,3.6c0.1,0.1,0.1,0.3,0.1,0.5c-0.1,0.2-0.2,0.3-0.3,0.3c-0.2,0.1-0.4,0.1-0.6,0.1
			C165.1,65.3,163.9,65.3,162.7,65z M158.1,56.7c-0.4,1.4,0.1,3.3,1.1,4.7c0.9,1.3,2.3,2.2,3.7,2.6c1,0.3,2.1,0.3,3.3,0.1
			c-0.7-1-1.3-2-1.8-3.1c-0.7-1.2-1.4-2.5-2.2-3.6c-0.8-1-1.6-2.1-2.5-2.2c-0.1,0-0.2,0-0.4,0C158.7,55.4,158.3,56,158.1,56.7z"/>
	</g>
	<text transform="matrix(0.9255 -0.3788 0.3788 0.9255 44.3257 100.9516)" class="st0 st1 st2">Cry Baby</text>
	<text transform="matrix(0.917 -0.399 0.399 0.917 85.9562 102.2601)" class="st0 st1 st3">brewery</text>
</g>
<path id="XMLID_1533_" class="st0" d="M-185.4,211l4,3.8l7.4,0.6l0.4,1.9l-1.4,4.3l-3.2,1l4.7,2.9l7.4-1l0.8,1.7l-0.5,4.5l-2.9,1.6
	l5.2,1.9l7-2.5l1.1,1.6l0.5,4.5l-2.5,2.2l5.5,0.7l6.4-3.9l1.4,1.3l1.4,4.3l-2,2.7l5.5-0.4l5.4-5.1l1.6,1l2.3,3.9l-1.4,3l5.3-1.6
	l4.2-6.1l1.8,0.6l3,3.3l-0.7,3.3l4.9-2.6l2.9-6.9l1.9,0.2l3.6,2.6l0,3.3l4.2-3.6l1.4-7.3l1.9-0.2l4.1,1.8l0.7,3.3l3.4-4.4l-0.2-7.5
	l1.8-0.6l4.4,0.9l1.3,3.1l2.4-5l-1.7-7.3l1.7-0.9h4.5l1.9,2.7l1.3-5.4l-3.2-6.7l1.4-1.3l4.4-0.9l2.5,2.3l0.2-5.5l-4.5-5.9l1.1-1.5
	l4.1-1.8l2.9,1.7l-1-5.5l-5.7-4.9l0.8-1.7l3.6-2.6l3.2,1.1l-2.1-5.1l-6.6-3.6l0.4-1.9l3-3.3l3.3,0.4l-3.1-4.6l-7.2-2.1l0-1.9
	l2.3-3.9l3.3-0.3l-4-3.8l-7.4-0.6l-0.4-1.9l1.4-4.3l3.2-1l-4.7-2.9l-7.4,1l-0.8-1.7l0.5-4.5l2.9-1.6l-5.2-1.9l-7,2.5l-1.1-1.6
	l-0.5-4.5l2.5-2.2l-5.5-0.7l-6.4,3.9l-1.4-1.3l-1.4-4.3l2-2.7l-5.5,0.4l-5.4,5.1l-1.6-1l-2.3-3.9l1.4-3l-5.3,1.6l-4.2,6.2l-1.8-0.6
	l-3-3.3l0.7-3.3l-4.9,2.6l-2.9,6.9l-1.9-0.2l-3.6-2.6l0-3.3l-4.2,3.6l-1.4,7.3l-1.9,0.2l-4.1-1.8l-0.7-3.3l-3.4,4.4l0.2,7.5
	l-1.8,0.6l-4.4-0.9l-1.3-3.1l-2.4,5l1.7,7.3l-1.7,0.9l-4.5,0l-1.9-2.7l-1.3,5.4l3.2,6.7l-1.4,1.3l-4.4,0.9l-2.5-2.3l-0.2,5.5
	l4.5,5.9l-1.1,1.5l-4.1,1.8l-2.9-1.7l1,5.5l5.7,4.9l-0.8,1.7l-3.6,2.6l-3.2-1.1l2.1,5.1l6.6,3.6l-0.4,1.9l-3,3.3l-3.3-0.4l3.1,4.6
	l7.2,2.1l0,1.9l-2.3,3.9L-185.4,211z"/>
<path id="XMLID_467_" class="st4" d="M-126.7,234.7c-28.9,0-52.4-23.5-52.4-52.4s23.5-52.4,52.4-52.4s52.4,23.5,52.4,52.4
	S-97.8,234.7-126.7,234.7z M-126.7,131.4c-28,0-50.9,22.8-50.9,50.9s22.8,50.9,50.9,50.9s50.9-22.8,50.9-50.9
	S-98.7,131.4-126.7,131.4z"/>
<g id="XMLID_470_">
	<rect id="XMLID_1502_" x="-218.6" y="158.6" class="st0" width="183.7" height="47.3"/>
	<path id="XMLID_471_" class="st0" d="M-34.1,206.7h-185.3v-48.8h185.3L-34.1,206.7L-34.1,206.7z M-217.8,205.2h182.2v-45.8h-182.2
		V205.2z"/>
</g>
<g id="XMLID_474_">
	<path id="XMLID_475_" class="st4" d="M-212.2,200.2v-4.7h2.5V169h-2.5v-4.7h22.5l5.5,5.3v25.2l-5.5,5.3L-212.2,200.2L-212.2,200.2z
		 M-193.7,195.5l2.6-2.4v-21.6l-2.6-2.5h-9.1v26.5L-193.7,195.5L-193.7,195.5z"/>
	<path id="XMLID_478_" class="st4" d="M-181.2,200.2v-4.7h2.5V169h-2.5v-4.7h22.5l5.5,5.3v8.3l-3.8,3.6l3.8,3.6v10.3h2.5v4.7h-9.4
		v-13.8l-2.6-2.5h-9.1v11.7h2.5v4.7L-181.2,200.2L-181.2,200.2z M-162.7,179.3l2.6-2.5v-5.3l-2.6-2.5h-9.1v10.2L-162.7,179.3
		L-162.7,179.3z"/>
	<path id="XMLID_481_" class="st4" d="M-148.5,200.2v-4.7h1.8l9.2-26.5h-2.7v-4.7h17.6v4.7h-2.9l9.1,26.5h1.9v4.7H-126v-4.7h2.3
		l-2.2-6.3h-11.4l-2.2,6.3h2.3v4.7H-148.5z M-127,186l-4.5-13.2l-4.5,13.2H-127z"/>
	<path id="XMLID_484_" class="st4" d="M-112.2,200.2v-4.7l18.4-26.5h-13.6v2.4h-4.8v-7h26.6v4.7l-18.4,26.5h13.6v-2.4h4.8v7H-112.2z
		"/>
	<path id="XMLID_486_" class="st4" d="M-83.3,200.2v-4.7h2.5V169h-2.5v-4.7h11.9v4.7h-2.5v26.5h2.5v4.7H-83.3z"/>
	<path id="XMLID_488_" class="st4" d="M-68.4,194.9v-25.2l5.5-5.3h16.2l5.5,5.3v5.7h-6.9v-3.9l-2.5-2.5h-8.3l-2.5,2.5v21.6l2.5,2.4
		h8.3l2.5-2.4v-3.7h6.9v5.5l-5.5,5.3h-16.2L-68.4,194.9z"/>
</g>
<g>
	<path class="st0" d="M-96.7,67.9c-1.7,0-3.4,0.1-5.1,0.4l35.6-35.6c1.5-1.5,1.5-3.8,0-5.3c-1.5-1.5-3.8-1.5-5.3,0l-50.7,50.7
		c-0.1,0.1-0.2,0.2-0.3,0.3c-7.2,7-11.1,16.3-11.1,26.4c0,11,4.9,21.4,13.4,28.4c6.6,5.4,14.9,8.4,23.5,8.4
		c20.3,0,36.9-16.5,36.9-36.9S-76.4,67.9-96.7,67.9z M-96.7,134.2c-6.8,0-13.5-2.4-18.7-6.7c-6.8-5.6-10.7-13.9-10.7-22.7
		c0-8.2,3.3-15.7,9.2-21.3c5.5-5.2,12.7-8.1,20.2-8.1c16.2,0,29.4,13.2,29.4,29.4S-80.5,134.2-96.7,134.2z"/>
	<g>
		<path class="st0" d="M-120.7,66.2c-1,0-1.9-0.4-2.6-1.1c-1.5-1.5-1.5-3.8,0-5.3l26.1-26.1h-0.6c-2.1,0-3.7-1.7-3.7-3.7
			s1.7-3.7,3.7-3.7h9.6c1.5,0,2.9,0.9,3.4,2.3c0.6,1.4,0.3,3-0.8,4.1l-32.5,32.5C-118.8,65.8-119.7,66.2-120.7,66.2z"/>
	</g>
	<path class="st0" d="M-135.3,67.9c-1.7,0-3.4,0.1-5,0.3l35.5-35.5c1.1-1.1,1.4-2.7,0.8-4.1c-0.6-1.4-1.9-2.3-3.4-2.3h-53.4
		c-2.1,0-3.7,1.7-3.7,3.7s1.7,3.7,3.7,3.7h44.4l-44.1,44.1c0,0,0,0-0.1,0.1c-1.1,1-2.1,2.1-3.1,3.3c-1.3,1.6-1.1,3.9,0.5,5.3
		c1.6,1.3,3.9,1.1,5.3-0.5c0.7-0.9,1.5-1.7,2.4-2.5c0,0,0.1-0.1,0.1-0.1l0.1-0.1c5.5-5.2,12.6-8,20.2-8c16.2,0,29.4,13.2,29.4,29.4
		s-13.2,29.4-29.4,29.4c-6.8,0-13.5-2.4-18.7-6.7c-1.4-1.2-2.8-2.5-4-4c-1.3-1.6-3.7-1.8-5.3-0.5c-1.6,1.3-1.8,3.7-0.5,5.3
		c1.5,1.8,3.2,3.5,5,5c6.6,5.4,14.9,8.4,23.5,8.4c20.3,0,36.9-16.5,36.9-36.9S-115,67.9-135.3,67.9z"/>
	<g class="st5">
		<path class="st0" d="M-116,136.2c0.5,0.3,1,0.6,1.5,0.8c2.3-1.5,4.5-3.2,6.4-5.2c-0.5-0.2-1-0.4-1.5-0.7
			C-111.6,133.1-113.7,134.7-116,136.2z"/>
	</g>
	<g class="st5">
		<path class="st0" d="M-114.9,83.6c2-1.7,4.1-3.1,6.4-4.1c-0.4-0.4-0.7-0.8-1.1-1.1c-2.3,1.1-4.4,2.5-6.4,4.2
			C-115.7,82.9-115.3,83.2-114.9,83.6z"/>
	</g>
	<g>
		<path class="st0" d="M-165.4,155.9v4.9c0,0.5,0.1,0.8,0.4,1.1c0.2,0.3,0.6,0.4,1,0.4c0.4,0,0.9-0.2,1.3-0.6l0.8,1.4
			c-0.7,0.6-1.5,1-2.4,1c-0.9,0-1.6-0.3-2.2-0.9c-0.6-0.6-0.9-1.4-0.9-2.4v-4.8h-1.2v-1.6h1.2v-3h2v3h2.5v1.6H-165.4z"/>
		<path class="st0" d="M-158.3,158.7v5.2h-2v-13.4h2v5.5c0.3-0.6,0.7-1.1,1.3-1.4c0.6-0.3,1.2-0.5,1.9-0.5c1.1,0,2,0.3,2.6,1
			c0.7,0.7,1,1.6,1,2.9v5.9h-2v-5.3c0-1.8-0.7-2.7-2.2-2.7c-0.7,0-1.3,0.2-1.8,0.7C-158,157.1-158.3,157.8-158.3,158.7z"/>
		<path class="st0" d="M-143.5,156.1c-1,0-1.8,0.3-2.3,1s-0.8,1.5-0.8,2.6v4.1h-2v-9.6h2v1.9c0.3-0.6,0.8-1.1,1.3-1.5
			c0.6-0.4,1.2-0.6,1.8-0.6l0,2C-143.4,156.1-143.5,156.1-143.5,156.1z"/>
		<path class="st0" d="M-132.4,159.9h-7.6c0,0.7,0.4,1.3,1,1.7c0.6,0.4,1.3,0.6,2,0.6c1.2,0,2.1-0.4,2.8-1.1l1.2,1.3
			c-1,1.1-2.4,1.6-4.1,1.6c-1.4,0-2.5-0.5-3.5-1.4c-0.9-0.9-1.4-2.1-1.4-3.6c0-1.5,0.5-2.7,1.5-3.6c1-0.9,2.1-1.3,3.4-1.3
			s2.4,0.4,3.3,1.2c0.9,0.8,1.4,1.9,1.4,3.3V159.9z M-140,158.4h5.5c0-0.8-0.3-1.4-0.8-1.9s-1.1-0.7-1.9-0.7s-1.4,0.2-2,0.7
			C-139.7,157-140,157.6-140,158.4z"/>
		<path class="st0" d="M-121.2,159.9h-7.6c0,0.7,0.4,1.3,1,1.7c0.6,0.4,1.3,0.6,2,0.6c1.2,0,2.1-0.4,2.8-1.1l1.2,1.3
			c-1,1.1-2.4,1.6-4.1,1.6c-1.4,0-2.5-0.5-3.5-1.4c-0.9-0.9-1.4-2.1-1.4-3.6c0-1.5,0.5-2.7,1.5-3.6c1-0.9,2.1-1.3,3.4-1.3
			s2.4,0.4,3.3,1.2c0.9,0.8,1.4,1.9,1.4,3.3V159.9z M-128.8,158.4h5.5c0-0.8-0.3-1.4-0.8-1.9c-0.5-0.4-1.1-0.7-1.9-0.7
			c-0.7,0-1.4,0.2-2,0.7C-128.5,157-128.8,157.6-128.8,158.4z"/>
		<path class="st0" d="M-112.1,161c0,0.9-0.3,1.7-1,2.2c-0.7,0.6-1.5,0.8-2.6,0.8c-0.7,0-1.4-0.1-2.2-0.4s-1.4-0.6-2-1.1l1-1.6
			c1.1,0.8,2.2,1.3,3.3,1.3c0.5,0,0.8-0.1,1.1-0.3c0.3-0.2,0.4-0.5,0.4-0.8c0-0.5-0.6-0.9-1.9-1.3c-0.1,0-0.2-0.1-0.2-0.1
			c-2-0.5-3-1.5-3-2.7c0-0.9,0.3-1.6,1-2.1c0.7-0.5,1.6-0.8,2.7-0.8c1.1,0,2.2,0.3,3.2,1l-0.8,1.5c-0.8-0.5-1.6-0.8-2.6-0.8
			c-0.5,0-0.9,0.1-1.2,0.3c-0.3,0.2-0.5,0.4-0.5,0.8c0,0.3,0.2,0.5,0.5,0.7c0.2,0.1,0.5,0.2,0.9,0.3c0.4,0.1,0.7,0.2,1,0.3
			c0.3,0.1,0.6,0.2,0.9,0.3c0.3,0.1,0.6,0.3,0.9,0.5C-112.4,159.4-112.1,160.1-112.1,161z"/>
		<path class="st0" d="M-109.7,152.3c-0.3-0.3-0.4-0.6-0.4-0.9c0-0.4,0.1-0.7,0.4-0.9c0.3-0.3,0.6-0.4,0.9-0.4
			c0.4,0,0.7,0.1,0.9,0.4s0.4,0.6,0.4,0.9c0,0.4-0.1,0.7-0.4,0.9s-0.6,0.4-0.9,0.4C-109.1,152.7-109.4,152.6-109.7,152.3z
			 M-107.8,163.9h-2v-9.6h2V163.9z"/>
		<path class="st0" d="M-103.3,154.2l2.1,3.2l2.1-3.2h2.4l-3.4,4.7l3.5,4.9H-99l-2.3-3.2l-2.2,3.2h-2.4l3.4-4.9l-3.2-4.7H-103.3z"/>
		<path class="st0" d="M-92.2,155.9v4.9c0,0.5,0.1,0.8,0.4,1.1c0.2,0.3,0.6,0.4,1,0.4c0.4,0,0.9-0.2,1.3-0.6l0.8,1.4
			c-0.7,0.6-1.5,1-2.4,1c-0.9,0-1.6-0.3-2.2-0.9c-0.6-0.6-0.9-1.4-0.9-2.4v-4.8h-1.2v-1.6h1.2v-3h2v3h2.5v1.6H-92.2z"/>
		<path class="st0" d="M-78.2,159.9h-7.6c0,0.7,0.4,1.3,1,1.7c0.6,0.4,1.3,0.6,2,0.6c1.2,0,2.1-0.4,2.8-1.1l1.2,1.3
			c-1,1.1-2.4,1.6-4.1,1.6c-1.4,0-2.5-0.5-3.5-1.4c-0.9-0.9-1.4-2.1-1.4-3.6c0-1.5,0.5-2.7,1.5-3.6c1-0.9,2.1-1.3,3.4-1.3
			c1.3,0,2.4,0.4,3.3,1.2c0.9,0.8,1.4,1.9,1.4,3.3V159.9z M-85.7,158.4h5.5c0-0.8-0.3-1.4-0.8-1.9s-1.1-0.7-1.9-0.7
			c-0.7,0-1.4,0.2-2,0.7C-85.4,157-85.7,157.6-85.7,158.4z"/>
		<path class="st0" d="M-67,159.9h-7.6c0,0.7,0.4,1.3,1,1.7c0.6,0.4,1.3,0.6,2,0.6c1.2,0,2.1-0.4,2.8-1.1l1.2,1.3
			c-1,1.1-2.4,1.6-4.1,1.6c-1.4,0-2.5-0.5-3.5-1.4c-0.9-0.9-1.4-2.1-1.4-3.6c0-1.5,0.5-2.7,1.5-3.6c1-0.9,2.1-1.3,3.4-1.3
			s2.4,0.4,3.3,1.2c0.9,0.8,1.4,1.9,1.4,3.3V159.9z M-74.5,158.4h5.5c0-0.8-0.3-1.4-0.8-1.9c-0.5-0.4-1.1-0.7-1.9-0.7
			s-1.4,0.2-2,0.7C-74.2,157-74.5,157.6-74.5,158.4z"/>
		<path class="st0" d="M-62.7,158.7v5.2h-2v-9.6h2v1.8c0.3-0.6,0.8-1.1,1.4-1.4c0.6-0.3,1.2-0.5,1.9-0.5c1.1,0,2,0.3,2.6,1
			c0.7,0.7,1,1.6,1,2.9v5.9h-2v-5.3c0-1.8-0.7-2.7-2.2-2.7c-0.7,0-1.3,0.2-1.8,0.7C-62.4,157.1-62.7,157.8-62.7,158.7z"/>
	</g>
	<g>
		<path class="st0" d="M-145.1,175.5c0,0.5-0.2,0.9-0.6,1.2c-0.4,0.3-0.8,0.5-1.4,0.5c-0.4,0-0.8-0.1-1.2-0.2
			c-0.4-0.1-0.8-0.3-1.1-0.6l0.5-0.9c0.6,0.5,1.2,0.7,1.8,0.7c0.3,0,0.5-0.1,0.6-0.2c0.1-0.1,0.2-0.3,0.2-0.4c0-0.3-0.4-0.5-1.1-0.7
			c-0.1,0-0.1,0-0.1,0c-1.1-0.3-1.7-0.8-1.7-1.5c0-0.5,0.2-0.9,0.6-1.2c0.4-0.3,0.9-0.4,1.5-0.4c0.6,0,1.2,0.2,1.8,0.5l-0.4,0.8
			c-0.4-0.3-0.9-0.4-1.4-0.4c-0.3,0-0.5,0-0.7,0.1c-0.2,0.1-0.3,0.2-0.3,0.4c0,0.2,0.1,0.3,0.3,0.4c0.1,0.1,0.3,0.1,0.5,0.2
			c0.2,0.1,0.4,0.1,0.6,0.2c0.2,0.1,0.3,0.1,0.5,0.2c0.2,0.1,0.3,0.2,0.5,0.3C-145.3,174.6-145.1,175-145.1,175.5z"/>
		<path class="st0" d="M-142.4,172.6v2.7c0,0.3,0.1,0.5,0.2,0.6c0.1,0.2,0.3,0.2,0.6,0.2s0.5-0.1,0.7-0.4l0.5,0.8
			c-0.4,0.4-0.8,0.5-1.3,0.5c-0.5,0-0.9-0.2-1.2-0.5c-0.3-0.3-0.5-0.8-0.5-1.3v-2.7h-0.7v-0.9h0.7v-1.7h1.1v1.7h1.4v0.9H-142.4z"/>
		<path class="st0" d="M-136.8,172.8c-0.6,0-1,0.2-1.3,0.5c-0.3,0.4-0.4,0.9-0.4,1.5v2.3h-1.1v-5.4h1.1v1.1c0.2-0.3,0.4-0.6,0.7-0.8
			c0.3-0.2,0.6-0.3,1-0.3L-136.8,172.8C-136.8,172.8-136.8,172.8-136.8,172.8z"/>
		<path class="st0" d="M-131.3,177.1h-1v-0.7c-0.4,0.5-1,0.8-1.8,0.8c-0.6,0-1-0.2-1.4-0.5c-0.4-0.3-0.6-0.7-0.6-1.3
			c0-0.5,0.2-0.9,0.6-1.2c0.4-0.3,0.9-0.4,1.6-0.4h1.5v-0.2c0-0.7-0.4-1.1-1.2-1.1c-0.5,0-1,0.2-1.6,0.5l-0.5-0.7
			c0.7-0.5,1.4-0.8,2.2-0.8c0.6,0,1.1,0.2,1.6,0.5c0.4,0.3,0.6,0.8,0.6,1.5V177.1z M-132.4,175.1v-0.5h-1.3c-0.8,0-1.2,0.3-1.2,0.8
			c0,0.3,0.1,0.5,0.3,0.6c0.2,0.1,0.5,0.2,0.8,0.2c0.4,0,0.7-0.1,0.9-0.3C-132.6,175.7-132.4,175.5-132.4,175.1z"/>
		<path class="st0" d="M-128.4,172.6v2.7c0,0.3,0.1,0.5,0.2,0.6c0.1,0.2,0.3,0.2,0.6,0.2c0.2,0,0.5-0.1,0.7-0.4l0.5,0.8
			c-0.4,0.4-0.8,0.5-1.3,0.5c-0.5,0-0.9-0.2-1.2-0.5c-0.3-0.3-0.5-0.8-0.5-1.3v-2.7h-0.7v-0.9h0.7v-1.7h1.1v1.7h1.4v0.9H-128.4z"/>
		<path class="st0" d="M-120.6,174.9h-4.2c0,0.4,0.2,0.7,0.5,0.9c0.3,0.2,0.7,0.4,1.1,0.4c0.7,0,1.2-0.2,1.5-0.6l0.6,0.7
			c-0.6,0.6-1.3,0.9-2.3,0.9c-0.8,0-1.4-0.3-1.9-0.8c-0.5-0.5-0.8-1.2-0.8-2c0-0.8,0.3-1.5,0.8-2c0.5-0.5,1.2-0.7,1.9-0.7
			c0.7,0,1.4,0.2,1.9,0.7c0.5,0.4,0.8,1,0.8,1.8V174.9z M-124.8,174h3.1c0-0.5-0.1-0.8-0.4-1c-0.3-0.2-0.6-0.4-1-0.4
			c-0.4,0-0.8,0.1-1.1,0.4C-124.6,173.3-124.8,173.6-124.8,174z"/>
		<path class="st0" d="M-114.3,171.7v4.7c0,0.9-0.3,1.7-0.8,2.1c-0.5,0.5-1.2,0.7-2,0.7c-0.8,0-1.5-0.3-2.2-0.8l0.5-0.9
			c0.5,0.4,1.1,0.6,1.6,0.6c0.5,0,1-0.1,1.3-0.4c0.3-0.3,0.5-0.7,0.5-1.3v-0.7c-0.2,0.3-0.4,0.6-0.7,0.8c-0.3,0.2-0.7,0.3-1.1,0.3
			c-0.7,0-1.3-0.2-1.8-0.7c-0.5-0.5-0.7-1.1-0.7-1.9c0-0.7,0.2-1.4,0.7-1.9c0.5-0.5,1-0.7,1.8-0.7c0.7,0,1.3,0.3,1.7,0.9v-0.8
			H-114.3z M-118.5,174.2c0,0.4,0.1,0.8,0.4,1.1c0.3,0.3,0.6,0.5,1.1,0.5c0.5,0,0.8-0.2,1.1-0.5c0.3-0.3,0.4-0.7,0.4-1.2
			c0-0.5-0.1-0.9-0.4-1.2c-0.3-0.3-0.7-0.5-1.1-0.5c-0.5,0-0.8,0.2-1.1,0.5C-118.4,173.4-118.5,173.8-118.5,174.2z"/>
		<path class="st0" d="M-112,179.3c-0.5,0-0.9-0.2-1.3-0.5l0.5-0.9c0.2,0.2,0.5,0.3,0.7,0.3c0.3,0,0.5-0.1,0.6-0.3
			c0.2-0.2,0.2-0.4,0.2-0.6c0-0.1-0.7-1.9-2.2-5.5h1.2l1.6,4l1.6-4h1.2l-2.6,6.4c-0.2,0.3-0.4,0.6-0.7,0.8
			C-111.4,179.2-111.7,179.3-112,179.3z"/>
		<path class="st0" d="M-99.2,171.7v4.7c0,0.9-0.3,1.7-0.8,2.1c-0.5,0.5-1.2,0.7-2,0.7c-0.8,0-1.5-0.3-2.2-0.8l0.5-0.9
			c0.5,0.4,1.1,0.6,1.6,0.6s1-0.1,1.3-0.4c0.3-0.3,0.5-0.7,0.5-1.3v-0.7c-0.2,0.3-0.4,0.6-0.7,0.8c-0.3,0.2-0.7,0.3-1.1,0.3
			c-0.7,0-1.3-0.2-1.8-0.7c-0.5-0.5-0.7-1.1-0.7-1.9c0-0.7,0.2-1.4,0.7-1.9c0.5-0.5,1-0.7,1.8-0.7c0.7,0,1.3,0.3,1.7,0.9v-0.8H-99.2
			z M-103.4,174.2c0,0.4,0.1,0.8,0.4,1.1c0.3,0.3,0.6,0.5,1.1,0.5c0.5,0,0.8-0.2,1.1-0.5c0.3-0.3,0.4-0.7,0.4-1.2
			c0-0.5-0.1-0.9-0.4-1.2c-0.3-0.3-0.7-0.5-1.1-0.5c-0.5,0-0.8,0.2-1.1,0.5C-103.2,173.4-103.4,173.8-103.4,174.2z"/>
		<path class="st0" d="M-94.7,172.8c-0.6,0-1,0.2-1.3,0.5c-0.3,0.4-0.4,0.9-0.4,1.5v2.3h-1.1v-5.4h1.1v1.1c0.2-0.3,0.4-0.6,0.7-0.8
			c0.3-0.2,0.6-0.3,1-0.3L-94.7,172.8C-94.7,172.8-94.7,172.8-94.7,172.8z"/>
		<path class="st0" d="M-89.1,176.4c-0.5,0.5-1.2,0.8-2,0.8s-1.5-0.3-2-0.8c-0.5-0.5-0.8-1.2-0.8-2c0-0.8,0.3-1.4,0.8-2
			c0.5-0.5,1.2-0.8,2-0.8s1.5,0.3,2,0.8c0.5,0.5,0.8,1.2,0.8,2C-88.3,175.2-88.6,175.9-89.1,176.4z M-92.4,175.7
			c0.3,0.3,0.7,0.5,1.2,0.5c0.5,0,0.9-0.2,1.2-0.5s0.5-0.7,0.5-1.3c0-0.5-0.2-0.9-0.5-1.3s-0.7-0.5-1.2-0.5c-0.5,0-0.9,0.2-1.2,0.5
			c-0.3,0.3-0.5,0.7-0.5,1.3C-92.8,174.9-92.7,175.4-92.4,175.7z"/>
		<path class="st0" d="M-83.3,174.6v-2.9h1.1v5.4h-1.1v-1c-0.2,0.3-0.4,0.6-0.8,0.8c-0.3,0.2-0.7,0.3-1,0.3c-0.6,0-1.1-0.2-1.5-0.6
			c-0.4-0.4-0.6-0.9-0.6-1.6v-3.3h1.1v2.9c0,1,0.4,1.5,1.2,1.5c0.4,0,0.7-0.1,1-0.4C-83.4,175.5-83.3,175.1-83.3,174.6z"/>
		<path class="st0" d="M-77.6,171.7c0.7,0,1.3,0.2,1.8,0.7c0.5,0.5,0.8,1.2,0.8,2c0,0.8-0.3,1.5-0.8,2c-0.5,0.5-1.1,0.8-1.8,0.8
			c-0.7,0-1.3-0.3-1.8-0.9v2.8h-1.1v-7.3h1.1v0.9C-78.9,172-78.4,171.7-77.6,171.7z M-79.4,174.4c0,0.5,0.2,0.9,0.5,1.3
			s0.7,0.5,1.1,0.5s0.8-0.2,1.2-0.5c0.3-0.3,0.5-0.7,0.5-1.3c0-0.5-0.2-0.9-0.5-1.3c-0.3-0.3-0.7-0.5-1.2-0.5
			c-0.5,0-0.8,0.2-1.1,0.5C-79.2,173.5-79.4,173.9-79.4,174.4z"/>
	</g>
</g>
</svg>
