<?xml version="1.0" encoding="utf-8"?>
<!-- Generator: Adobe Illustrator 19.1.0, SVG Export Plug-In . SVG Version: 6.00 Build 0)  -->
<svg version="1.1" id="Layer_1" xmlns="http://www.w3.org/2000/svg" xmlns:xlink="http://www.w3.org/1999/xlink" x="0px" y="0px"
	 viewBox="145 -216 361.1 182" style="enable-background:new 145 -216 361.1 182;" xml:space="preserve">
<style type="text/css">
	.st0{fill:#2CBDC1;}
</style>
<g>
	<g>
		<path class="st0" d="M293.9-155.5h-6.2c0,0-13-1-13,12.7c0,2.9,0,10.4,0,10.4h-8.8l0,7.4h8.8l0,35.3h8.8V-125h9.7l2.1-7.4h-11.8
			v-10.7c0,0-0.1-3.6,4.1-3.6h6.2L293.9-155.5z"/>
	</g>
	<g>
		<path class="st0" d="M385.2-141.1c-2.6,1.2-5.5,2-8.5,2.3c3-1.8,5.4-4.7,6.5-8.1c-2.9,1.7-6,2.9-9.4,3.6
			c-2.7-2.9-6.5-4.7-10.8-4.7c-8.1,0-14.8,6.6-14.8,14.7c0,1.1,0.1,2.3,0.4,3.4c-12.3-0.6-23.1-6.5-30.4-15.4c-1.3,2.2-2,4.7-2,7.4
			c0,5.1,2.6,9.6,6.6,12.3c-2.4-0.1-4.7-0.7-6.7-1.8c0,0.1,0,0.1,0,0.2c0,7.1,5.1,13.1,11.8,14.4c-1.2,0.3-2.5,0.5-3.9,0.5
			c-0.9,0-1.9-0.1-2.8-0.3c1.9,5.9,7.3,10.1,13.8,10.2c-5,4-11.4,6.3-18.3,6.3c-1.2,0-2.4-0.1-3.5-0.2c6.5,4.2,14.3,6.6,22.6,6.6
			c27.1,0,42-22.4,42-41.9c0-0.6,0-1.3,0-1.9C380.7-135.6,383.2-138.2,385.2-141.1z"/>
	</g>
</g>
</svg>
