<?xml version="1.0" encoding="utf-8"?>
<!-- Generator: Adobe Illustrator 19.1.0, SVG Export Plug-In . SVG Version: 6.00 Build 0)  -->
<svg version="1.1" id="Layer_1" xmlns="http://www.w3.org/2000/svg" xmlns:xlink="http://www.w3.org/1999/xlink" x="0px" y="0px"
	 viewBox="145 -216 361.1 182" style="enable-background:new 145 -216 361.1 182;" xml:space="preserve">
<style type="text/css">
	.st0{fill:#2CBDC1;}
</style>
<g>
	<path class="st0" d="M369.7-136v-12.8c0-1-0.8-1.8-1.8-1.8h-84.7c-1,0-1.8,0.8-1.8,1.8v12.8H369.7z M308.9-143.3
		c1,0,1.8,0.8,1.8,1.8s-0.8,1.8-1.8,1.8s-1.8-0.8-1.8-1.8S307.9-143.3,308.9-143.3z M301.5-143.3c1,0,1.8,0.8,1.8,1.8
		s-0.8,1.8-1.8,1.8s-1.8-0.8-1.8-1.8S300.5-143.3,301.5-143.3z M294.2-143.3c1,0,1.8,0.8,1.8,1.8s-0.8,1.8-1.8,1.8s-1.8-0.8-1.8-1.8
		C292.3-142.5,293.1-143.3,294.2-143.3z"/>
	<path class="st0" d="M281.3-132.3v46c0,1,0.8,1.8,1.8,1.8h84.7c1,0,1.8-0.8,1.8-1.8v-46H281.3z"/>
</g>
</svg>
