<?xml version="1.0" encoding="utf-8"?>
<!-- Generator: Adobe Illustrator 19.1.0, SVG Export Plug-In . SVG Version: 6.00 Build 0)  -->
<svg version="1.1" id="Layer_1" xmlns="http://www.w3.org/2000/svg" xmlns:xlink="http://www.w3.org/1999/xlink" x="0px" y="0px"
	 viewBox="145 -157.579 361.081 386.579" enable-background="new 145 -157.579 361.081 386.579" xml:space="preserve">
<rect id="bkg" x="146.125" y="-157.579" fill="#FFFFFF" width="358.831" height="386.579"/>
<text transform="matrix(1 0 0 1 240.5353 7.5707)" fill="#231F20" font-family="'Dosis-Regular'" font-size="40.5341px">micro-sites</text>
<line fill="none" stroke="#A2A2A3" stroke-miterlimit="10" x1="268.075" y1="25.421" x2="385.975" y2="25.421"/>
<rect x="208.575" y="85.021" fill="none" width="237" height="102.7"/>
<g>
	<path fill="#2CBDC1" d="M371.275-94.579v-12.8c0-1-0.8-1.8-1.8-1.8h-84.7c-1,0-1.8,0.8-1.8,1.8v12.8H371.275z M310.475-101.879
		c1,0,1.8,0.8,1.8,1.8s-0.8,1.8-1.8,1.8s-1.8-0.8-1.8-1.8S309.475-101.879,310.475-101.879z M303.075-101.879c1,0,1.8,0.8,1.8,1.8
		s-0.8,1.8-1.8,1.8s-1.8-0.8-1.8-1.8S302.075-101.879,303.075-101.879z M295.775-101.879c1,0,1.8,0.8,1.8,1.8s-0.8,1.8-1.8,1.8
		s-1.8-0.8-1.8-1.8C293.875-101.079,294.675-101.879,295.775-101.879z"/>
	<path fill="#2CBDC1" d="M282.875-90.879v46c0,1,0.8,1.8,1.8,1.8h84.7c1,0,1.8-0.8,1.8-1.8v-46H282.875z"/>
</g>
<text transform="matrix(1 0 0 1 246.1816 188.4211)" fill="#31C5C7" font-family="'Dosis-ExtraLight'" font-size="25.6932px">starting at $1000 </text>
<rect x="191.075" y="40.421" fill="none" width="272" height="122"/>
<text transform="matrix(1 0 0 1 194.1956 58.0851)" font-family="'Dosis-ExtraLight'" font-size="23px">Need a fun, informative website </text>
<text transform="matrix(1 0 0 1 200.8646 89.0851)" font-family="'Dosis-ExtraLight'" font-size="23px">for an upcoming event? Like a </text>
<text transform="matrix(1 0 0 1 207.1556 120.0851)" font-family="'Dosis-ExtraLight'" font-size="23px">festival, conference or music </text>
<text transform="matrix(1 0 0 1 199.9106 151.0851)" font-family="'Dosis-ExtraLight'" font-size="23px">event? Let’s make it a success.</text>
</svg>
