<?xml version="1.0" encoding="utf-8"?>
<!-- Generator: Adobe Illustrator 19.1.0, SVG Export Plug-In . SVG Version: 6.00 Build 0)  -->
<svg version="1.1" id="Layer_1" xmlns="http://www.w3.org/2000/svg" xmlns:xlink="http://www.w3.org/1999/xlink" x="0px" y="0px"
	 viewBox="145 -216.29 361.081 504" enable-background="new 145 -216.29 361.081 504" xml:space="preserve">
<rect id="bkg" x="146.125" y="-216.29" fill="#FFFFFF" width="358.831" height="504"/>
<text transform="matrix(1 0 0 1 240.5353 7.5707)" fill="#231F20" font-family="Dosis, sans-serif" font-weight="400" font-size="40.5341px">micro-sites</text>
<line fill="none" stroke="#A2A2A3" stroke-miterlimit="10" x1="268.075" y1="25.421" x2="385.975" y2="25.421"/>
<g>
	<path fill="#2CBDC1" d="M371.275-94.579v-12.8c0-1-0.8-1.8-1.8-1.8h-84.7c-1,0-1.8,0.8-1.8,1.8v12.8H371.275z M310.475-101.879
		c1,0,1.8,0.8,1.8,1.8s-0.8,1.8-1.8,1.8s-1.8-0.8-1.8-1.8S309.475-101.879,310.475-101.879z M303.075-101.879c1,0,1.8,0.8,1.8,1.8
		s-0.8,1.8-1.8,1.8s-1.8-0.8-1.8-1.8S302.075-101.879,303.075-101.879z M295.775-101.879c1,0,1.8,0.8,1.8,1.8s-0.8,1.8-1.8,1.8
		s-1.8-0.8-1.8-1.8C293.875-101.079,294.675-101.879,295.775-101.879z"/>
	<path fill="#2CBDC1" d="M282.875-90.879v46c0,1,0.8,1.8,1.8,1.8h84.7c1,0,1.8-0.8,1.8-1.8v-46H282.875z"/>
</g>
<text transform="matrix(1 0 0 1 246.1816 229.0001)" fill="#31C5C7" font-family="Dosis, sans-serif" font-weight="200" font-size="25.6932px">starting at $1000 </text>
<rect x="176" y="46.421" fill="none" width="296" height="165.579"/>
<text transform="matrix(1 0 0 1 213.1519 66.3888)"><tspan x="0" y="0" font-family="Dosis, sans-serif" font-weight="200" font-size="26px">Need a fun, informative </tspan><tspan x="-6.89" y="31.2" font-family="Dosis, sans-serif" font-weight="200" font-size="26px">website for an upcoming </tspan><tspan x="11.245" y="62.4" font-family="Dosis, sans-serif" font-weight="200" font-size="26px">event? Like a festival, </tspan><tspan x="-20.839" y="93.6" font-family="Dosis, sans-serif" font-weight="200" font-size="26px">conference or music event? </tspan><tspan x="1.131" y="124.8" font-family="Dosis, sans-serif" font-weight="200" font-size="26px">Let’s make it a success.</tspan></text>
</svg>
