<?xml version="1.0" encoding="utf-8"?>
<!-- Generator: Adobe Illustrator 19.1.0, SVG Export Plug-In . SVG Version: 6.00 Build 0)  -->
<svg version="1.1" id="Layer_1" xmlns="http://www.w3.org/2000/svg" xmlns:xlink="http://www.w3.org/1999/xlink" x="0px" y="0px"
	 viewBox="145 -216 361.081 504" enable-background="new 145 -216 361.081 504" xml:space="preserve">
<rect id="bkg" x="146.125" y="-216" fill="#FFFFFF" width="358.831" height="504"/>
<text transform="matrix(1 0 0 1 231.2205 7.8607)" fill="#231F20" font-family="Dosis, sans-serif" font-weight="400" font-size="40.5341px">infographics</text>
<line fill="none" stroke="#A2A2A3" stroke-miterlimit="10" x1="266.125" y1="25.711" x2="384.025" y2="25.711"/>
<text transform="matrix(1 0 0 1 250.8879 230.2902)" fill="#31C5C7" font-family="Dosis, sans-serif" font-weight="200" font-size="25.6932px">starting at $799</text>
<g>
	<rect x="271.778" y="-92.921" fill="#2CBDC1" width="22.011" height="48.227"/>
	<rect x="299.972" y="-105.782" fill="#2CBDC1" width="22.011" height="61.087"/>
	<rect x="328.166" y="-124.578" fill="#2CBDC1" width="22.011" height="79.883"/>
	<rect x="356.361" y="-92.921" fill="#2CBDC1" width="22.011" height="48.227"/>
</g>
<rect x="176.028" y="36.301" fill="none" width="299.803" height="154.492"/>
<text transform="matrix(1 0 0 1 197.2846 64.2696)" font-family="Dosis, sans-serif" font-weight="200" font-size="26px">Tell a compelling story with </text>
<text transform="matrix(1 0 0 1 201.8996 95.4696)" font-family="Dosis, sans-serif" font-weight="200" font-size="26px">visuals to help support the </text>
<text transform="matrix(1 0 0 1 213.3786 126.6696)" font-family="Dosis, sans-serif" font-weight="200" font-size="26px">overall message of your </text>
<text transform="matrix(1 0 0 1 214.0546 157.8696)" font-family="Dosis, sans-serif" font-weight="200" font-size="26px">business. Ask about our </text>
<text transform="matrix(1 0 0 1 217.8766 189.0696)" font-family="Dosis, sans-serif" font-weight="200" font-size="26px">animated infographics!</text>
</svg>
