<?xml version="1.0" encoding="utf-8"?>
<!-- Generator: Adobe Illustrator 19.1.0, SVG Export Plug-In . SVG Version: 6.00 Build 0)  -->
<svg version="1.1" id="Layer_1" xmlns="http://www.w3.org/2000/svg" xmlns:xlink="http://www.w3.org/1999/xlink" x="0px" y="0px"
	 viewBox="-337 230.7 361.081 386.579" enable-background="new -337 230.7 361.081 386.579" xml:space="preserve">
<rect x="-337" y="230.7" fill="#31C5C7" width="361.081" height="386.579"/>
<g>
	<g>
		<path fill="#FFFFFF" d="M-153.739,365.034L-153.739,365.034c-0.5,0-1-0.2-1.3-0.5l-30.4-30.9c-6.9-6.9-10.6-15-10.6-23
			c0-12.9,8.5-21.5,21.2-21.5c10.9,0,15.3,4.9,21,11.6c5.8-6.8,10.1-11.6,21-11.6c12.7,0,21.3,8.6,21.3,21.5c0,8-3.8,16.1-10.6,23
			l-30.3,30.8C-152.839,364.834-153.239,365.034-153.739,365.034L-153.739,365.034z"/>
	</g>
</g>
<text transform="matrix(1 0 0 1 -274.4669 420.074)" fill="#FFFFFF" font-family="'Dosis-Regular'" font-size="40.5341px">logo &amp; branding</text>
<line fill="none" stroke="#FFFFFF" stroke-miterlimit="10" x1="-212.283" y1="444.394" x2="-94.383" y2="444.394"/>
<text transform="matrix(1 0 0 1 -219.3696 574.1031)" fill="none" stroke="#FFFFFF" stroke-miterlimit="10" font-family="'Dosis-ExtraLight'" font-size="22px">starting at $599 </text>
<rect x="-291.333" y="459.7" fill="none" width="276" height="77.333"/>
<text transform="matrix(1 0 0 1 -288.9624 471.9881)"><tspan x="0" y="0" fill="#FFFFFF" font-family="'Dosis-ExtraLight'" font-size="16px">We want to make sure you love your new look. </tspan><tspan x="2.792" y="19.2" fill="#FFFFFF" font-family="'Dosis-ExtraLight'" font-size="16px">We work hard to create the perfect design for </tspan><tspan x="25.088" y="38.399" fill="#FFFFFF" font-family="'Dosis-ExtraLight'" font-size="16px">your business. You’ll be proud to hand </tspan><tspan x="62.519" y="57.6" fill="#FFFFFF" font-family="'Dosis-ExtraLight'" font-size="16px">out those business cards.</tspan></text>
</svg>
