<?xml version="1.0" encoding="utf-8"?>
<!-- Generator: Adobe Illustrator 19.1.0, SVG Export Plug-In . SVG Version: 6.00 Build 0)  -->
<svg version="1.1" id="Layer_1" xmlns="http://www.w3.org/2000/svg" xmlns:xlink="http://www.w3.org/1999/xlink" x="0px" y="0px"
	 viewBox="145 -216 361.081 504" enable-background="new 145 -216 361.081 504" xml:space="preserve">
<rect id="bkg" x="146.125" y="-216" fill="#FFFFFF" width="358.831" height="504"/>
<text transform="matrix(1 0 0 1 221.5058 7.8607)" fill="#231F20" font-family="Dosis, sans-serif" font-weight="400" font-size="40.5341px">social content</text>
<line fill="none" stroke="#A2A2A3" stroke-miterlimit="10" x1="268.075" y1="25.711" x2="385.975" y2="25.711"/>
<rect x="208.575" y="85.311" fill="none" width="237" height="102.7"/>
<text transform="matrix(1 0 0 1 255.7769 251.7111)" fill="#31C5C7" font-family="Dosis, sans-serif" font-weight="200" font-size="25.6932px">starting at $199 </text>
<rect x="191.075" y="40.711" fill="none" width="272" height="122"/>
<rect x="183.999" y="38" fill="none" width="283.083" height="171.71"/>
<text transform="matrix(1 0 0 1 231.423 63.9683)" font-family="Dosis, sans-serif" font-weight="200" font-size="26px">Social is where your </text>
<text transform="matrix(1 0 0 1 193.177 92.9683)" font-family="Dosis, sans-serif" font-weight="200"  font-size="26px">customers are everyday, tell </text>
<text transform="matrix(1 0 0 1 211.741 121.9683)" font-family="Dosis, sans-serif" font-weight="200"  font-size="26px">them your message in a </text>
<text transform="matrix(1 0 0 1 190.461 150.9683)" font-family="Dosis, sans-serif" font-weight="200"  font-size="26px">compelling way. An ad, short </text>
<text transform="matrix(1 0 0 1 208.101 179.9683)" font-family="Dosis, sans-serif" font-weight="200"  font-size="26px">visual or cover photo can </text>
<text transform="matrix(1 0 0 1 190.031 208.9683)" font-family="Dosis, sans-serif" font-weight="200"  font-size="26px">have a huge impact on sales.</text>
<g>
	<g>
		<path fill="#2CBDC1" d="M293.92-115.993h-6.228c0,0-12.996-0.975-12.996,12.725c0,2.93,0,10.386,0,10.386h-8.824l0.023,7.378
			h8.796l0.008,35.326h8.839v-35.326h9.741l2.079-7.378h-11.769v-10.665c0,0-0.097-3.594,4.115-3.594h6.178L293.92-115.993z"/>
	</g>
	<g>
		<path fill="#2CBDC1" d="M385.209-101.617c-2.648,1.176-5.494,1.966-8.48,2.325c3.048-1.822,5.387-4.713,6.491-8.147
			c-2.85,1.683-6.011,2.909-9.368,3.573c-2.693-2.864-6.527-4.655-10.773-4.655c-8.147,0-14.755,6.594-14.755,14.733
			c0,1.149,0.13,2.28,0.382,3.358c-12.264-0.619-23.136-6.482-30.417-15.388c-1.266,2.173-1.998,4.7-1.998,7.398
			c0,5.113,2.608,9.62,6.567,12.259c-2.42-0.072-4.695-0.741-6.684-1.845c-0.004,0.063-0.004,0.121-0.004,0.189
			c0,7.137,5.09,13.09,11.842,14.441c-1.239,0.337-2.545,0.516-3.892,0.516c-0.947,0-1.876-0.09-2.774-0.265
			c1.876,5.854,7.326,10.113,13.785,10.226c-5.05,3.955-11.415,6.311-18.328,6.311c-1.19,0-2.366-0.072-3.519-0.211
			c6.531,4.179,14.288,6.621,22.62,6.621c27.14,0,41.98-22.444,41.98-41.904c0-0.637-0.009-1.275-0.036-1.908
			C380.729-96.069,383.229-98.659,385.209-101.617z"/>
	</g>
</g>
</svg>
