<?xml version="1.0" encoding="utf-8"?>
<!-- Generator: Adobe Illustrator 19.1.0, SVG Export Plug-In . SVG Version: 6.00 Build 0)  -->
<svg version="1.1" id="Layer_1" xmlns="http://www.w3.org/2000/svg" xmlns:xlink="http://www.w3.org/1999/xlink" x="0px" y="0px"
	 viewBox="-337 230.7 361.081 386.579" enable-background="new -337 230.7 361.081 386.579" xml:space="preserve">
<rect x="-337" y="230.7" fill="#FFFFFF" width="361.081" height="386.579"/>
<g>
	<g>
		<path fill="#31C5C7" d="M-156.401,353.979L-156.401,353.979c-0.584,0-1.168-0.234-1.518-0.584l-35.503-36.087
			c-8.058-8.058-12.379-17.518-12.379-26.861c0-15.066,9.927-25.109,24.759-25.109c12.73,0,17.868,5.723,24.525,13.547
			c6.774-7.942,11.796-13.547,24.525-13.547c14.832,0,24.876,10.044,24.876,25.109c0,9.343-4.438,18.803-12.379,26.861
			l-35.387,35.971C-155.35,353.745-155.817,353.979-156.401,353.979L-156.401,353.979z"/>
	</g>
</g>
<text transform="matrix(1 0 0 1 -297.9284 403.7557)" fill="#363636" font-family="'Dosis-Regular'" font-size="47.3387px">logo &amp; branding</text>
<line fill="#363636" stroke="#FFFFFF" stroke-miterlimit="10" x1="-225.306" y1="443.158" x2="-87.613" y2="443.158"/>
<text transform="matrix(1 0 0 1 -233.4354 594.6425)" fill="#31C5C7" font-family="'Dosis-ExtraLight'" font-size="25.6932px">starting at $599 </text>
<rect x="-303.773" y="430.158" fill="none" width="294.626" height="128.542"/>
<text transform="matrix(1 0 0 1 -302.504 447.0531)"><tspan x="0" y="0" fill="#363636" font-family="'Dosis-ExtraLight'" font-size="22px">We want to make sure you love your </tspan><tspan x="11.648" y="26.4" fill="#363636" font-family="'Dosis-ExtraLight'" font-size="22px">new look. We work hard to create </tspan><tspan x="0.485" y="52.8" fill="#363636" font-family="'Dosis-ExtraLight'" font-size="22px">the perfect design for your business. </tspan><tspan x="13.102" y="79.2" fill="#363636" font-family="'Dosis-ExtraLight'" font-size="22px">You’ll be proud to hand out those </tspan><tspan x="85.524" y="105.601" fill="#363636" font-family="'Dosis-ExtraLight'" font-size="22px">business cards.</tspan></text>
</svg>
