<?xml version="1.0" encoding="utf-8"?>
<!-- Generator: Adobe Illustrator 19.1.0, SVG Export Plug-In . SVG Version: 6.00 Build 0)  -->
<svg version="1.1" id="Layer_1" xmlns="http://www.w3.org/2000/svg" xmlns:xlink="http://www.w3.org/1999/xlink" x="0px" y="0px"
	 viewBox="23 280 837.2 450" style="enable-background:new 23 280 837.2 450;" xml:space="preserve">
<style type="text/css">
	.st0{fill:#FFFFFF;}
	.st1{fill:#B5BD00;}
	.st2{fill:#DC582A;}
	.st3{fill:none;stroke:#003865;stroke-width:2;stroke-linecap:round;stroke-linejoin:round;stroke-miterlimit:10;}
	.st4{fill:#003865;}
	.st5{fill:none;stroke:#003865;stroke-width:1.5;stroke-linecap:round;stroke-linejoin:round;stroke-miterlimit:10;}
	.st6{fill:none;stroke:#003865;stroke-width:1.5;stroke-miterlimit:10;}
	.st7{fill:#5CC9E6;}
	.st8{fill:#FFB81C;}
	.st9{fill:#385072;}
	.st10{fill:#BAD636;}
	.st11{fill:#FFCC4F;}
	.st12{fill:#EA6847;}
	.st13{fill:#50C9ED;}
	.st14{fill:none;stroke:#003865;stroke-width:1.8822;stroke-linecap:round;stroke-linejoin:round;stroke-miterlimit:10;}
</style>
<g id="Layer_1_1_">
</g>
<rect x="-3" y="250.6" class="st0" width="905.5" height="484.3"/>
<rect x="34.6" y="304" class="st1" width="814" height="188.1"/>
<g>
	<g>
		<rect x="323.6" y="355.8" class="st2" width="231.1" height="234.4"/>
		<rect x="345" y="385.4" class="st3" width="182" height="181"/>
		<rect x="375" y="556.4" class="st2" width="126" height="14"/>
		<g>
			<path class="st4" d="M401.2,559.1h1.6v4.9h6.1v-4.9h1.6v11.7h-1.6v-5.3h-6.1v5.3h-1.6V559.1z"/>
			<path class="st4" d="M419.5,559.1h1.4l5,11.7h-1.8l-1.2-2.9h-5.6l-1.2,2.9h-1.8L419.5,559.1z M422.3,566.5l-2.2-5.4l0,0l-2.2,5.4
				H422.3z"/>
			<path class="st4" d="M437.5,561.6c-0.3-0.4-0.7-0.8-1.3-1c-0.5-0.2-1-0.3-1.6-0.3c-0.7,0-1.3,0.1-1.8,0.4c-0.5,0.2-1,0.6-1.4,1
				c-0.4,0.4-0.7,0.9-0.9,1.5c-0.2,0.6-0.3,1.2-0.3,1.9c0,0.6,0.1,1.2,0.3,1.8c0.2,0.5,0.5,1,0.9,1.5c0.4,0.4,0.8,0.7,1.4,1
				c0.5,0.2,1.1,0.4,1.8,0.4c0.7,0,1.3-0.1,1.8-0.4s0.9-0.7,1.3-1.2l1.3,1c-0.1,0.1-0.2,0.3-0.5,0.5c-0.2,0.2-0.5,0.5-0.9,0.7
				s-0.8,0.4-1.3,0.6s-1.1,0.3-1.8,0.3c-0.9,0-1.8-0.2-2.5-0.5c-0.7-0.4-1.4-0.8-1.9-1.4c-0.5-0.6-0.9-1.2-1.2-1.9
				c-0.3-0.7-0.4-1.4-0.4-2.2c0-0.9,0.1-1.7,0.4-2.5s0.7-1.4,1.2-2c0.5-0.6,1.2-1,1.9-1.3c0.7-0.3,1.6-0.5,2.5-0.5
				c0.8,0,1.5,0.1,2.3,0.4c0.7,0.3,1.4,0.8,1.8,1.4L437.5,561.6z"/>
			<path class="st4" d="M443.2,559.1h1.6v5.1h0.1l5.2-5.1h2.2l-5.6,5.4l6,6.3h-2.3L445,565h-0.1v5.8h-1.6v-11.7H443.2z"/>
			<path class="st4" d="M456.4,559.1h7.5v1.5h-6v3.5h5.5v1.5H458v3.7h6.3v1.5h-7.8v-11.7H456.4z"/>
			<path class="st4" d="M468.8,559.1h4.1c0.7,0,1.4,0.1,1.8,0.3c0.5,0.2,0.9,0.5,1.1,0.8c0.3,0.3,0.5,0.7,0.6,1.1
				c0.1,0.4,0.2,0.8,0.2,1.1c0,0.4-0.1,0.7-0.2,1.1c-0.1,0.3-0.3,0.7-0.6,0.9c-0.2,0.3-0.6,0.5-0.9,0.7c-0.4,0.2-0.8,0.3-1.2,0.4
				l3.3,5.3h-2l-3-5.2h-1.8v5.2h-1.6v-11.7H468.8z M470.3,564.3h2.1c0.3,0,0.6,0,0.9-0.1c0.3,0,0.6-0.1,0.8-0.3
				c0.2-0.1,0.4-0.3,0.6-0.6c0.1-0.2,0.2-0.6,0.2-1c0-0.4-0.1-0.7-0.2-1c-0.1-0.2-0.3-0.4-0.6-0.6c-0.2-0.1-0.5-0.2-0.8-0.3
				c-0.3,0-0.6-0.1-0.9-0.1h-2.1V564.3z"/>
		</g>
		<g>
			<path class="st5" d="M453.7,417c-1.9-0.3-3.1,0.2-4.6,1.5c-1.5,1.3-1.6,3.1-1.6,5.1v19c0,4-3.6,7.2-7.5,7.2s-7.5-3.2-7.5-7.2
				v-19.2c0-1.9-1.1-3.8-2.6-5c-1.4-1.2-3.5-1.8-5.4-1.5c-24.1,3.9-39.9,26.8-39.9,54.4c0,27.5,15.6,50.3,39.6,54.4
				c1.9,0.3,4.1-0.2,5.6-1.5c1.5-1.3,2.6-3.1,2.6-5.1v-19c0-4,3.6-7.2,7.5-7.2s7.5,3.2,7.5,7.2v19.2c0,1.9,0.1,3.8,1.5,5
				s3,1.8,4.8,1.5c24.1-3.9,39.6-26.8,39.6-54.4C493.6,443.8,477.7,421,453.7,417z"/>
			<path class="st6" d="M407.5,423.6c4.2,5.5,5.1,13.9,4.8,21.7"/>
			<path class="st6" d="M388,449.8c5-1.6,8.4-1.9,10.7,0c4.4,3.8-5.1,16.5,0,19.4c3.8,2.1,19.5,0,19.5,0"/>
			<path class="st6" d="M412.5,437.1c3.8,0.4,8.3-0.1,8.3-0.1"/>
			<path class="st6" d="M386.5,487.7c7.7,0.1,21,2.4,25.8,0s7-11.3,21-14.8"/>
			<path class="st6" d="M403,515.2c4.8-4,12.1-8.5,15.1-8.5"/>
			<line class="st6" x1="397" y1="480.4" x2="397" y2="489.2"/>
			<path class="st6" d="M419.7,480.4c1.8,5.3,17.7,11.8,25.4,4.3"/>
			<path class="st6" d="M473.1,517.5c-4.2-5.7-6.1-16.7-5.8-24.5"/>
			<path class="st6" d="M490.3,492.7c-5.4-0.3-7.7,3.6-10.7,0c-3.4-4.2,5.1-14.9,0-19.4c-3.3-2.9-11.6-1.1-12.4,0.1"/>
			<path class="st6" d="M467.3,501.9c-3.8-0.4-7.5,0-7.5,0"/>
			<path class="st6" d="M491.8,454.7c-7.7-0.1-21-2.4-25.8,0s-12.1,14.2-17,3.9"/>
			<path class="st6" d="M477.6,430.3c-4.6,5.8-12.7,10.4-16.3,10.4"/>
			<line class="st6" x1="477.6" y1="459.3" x2="477.6" y2="454"/>
			<circle class="st6" cx="424.8" cy="435.9" r="3.5"/>
			<circle class="st6" cx="421.6" cy="467.9" r="3.5"/>
			<circle class="st6" cx="448.6" cy="482.2" r="3.5"/>
			<circle class="st6" cx="421.6" cy="506.1" r="3.5"/>
			<circle class="st6" cx="456.3" cy="501" r="3.5"/>
			<circle class="st6" cx="463.8" cy="473.4" r="3.5"/>
			<circle class="st6" cx="397" cy="476.9" r="3.5"/>
			<circle class="st6" cx="436.8" cy="471.6" r="3.5"/>
			<circle class="st6" cx="411.6" cy="449.3" r="3.5"/>
			<circle class="st6" cx="447.4" cy="455.1" r="3.5"/>
			<circle class="st6" cx="457.8" cy="441.8" r="3.5"/>
			<circle class="st6" cx="477.6" cy="462.9" r="3.5"/>
			<circle class="st6" cx="467.3" cy="489.2" r="3.5"/>
			<line class="st6" x1="409.3" y1="492.7" x2="409.3" y2="489.2"/>
			<circle class="st6" cx="410.9" cy="496.2" r="3.5"/>
		</g>
	</g>
	<g>
		<rect x="582.3" y="357.4" class="st7" width="232.8" height="236.1"/>
		<rect x="605" y="386.4" class="st3" width="181" height="182"/>
		<rect x="633" y="558.4" class="st7" width="127" height="13"/>
		<g>
			<path class="st4" d="M655.1,570c0.3,0.4,0.7,0.7,1.1,0.9c0.4,0.2,0.9,0.3,1.4,0.3c0.3,0,0.5,0,0.8-0.1c0.3-0.1,0.5-0.2,0.8-0.4
				c0.2-0.2,0.4-0.4,0.6-0.6c0.1-0.2,0.2-0.5,0.2-0.8c0-0.4-0.1-0.8-0.4-1c-0.3-0.2-0.6-0.4-1.1-0.6c-0.4-0.2-0.9-0.3-1.4-0.5
				c-0.5-0.1-1-0.4-1.4-0.6c-0.4-0.3-0.8-0.6-1.1-1.1c-0.3-0.4-0.4-1-0.4-1.8c0-0.3,0.1-0.7,0.2-1.1c0.1-0.4,0.4-0.7,0.7-1.1
				c0.3-0.3,0.7-0.6,1.2-0.8c0.5-0.2,1.1-0.3,1.8-0.3c0.6,0,1.3,0.1,1.8,0.3c0.6,0.2,1.1,0.5,1.5,1.1l-1.3,1.2
				c-0.2-0.3-0.5-0.6-0.8-0.7c-0.4-0.2-0.8-0.3-1.2-0.3s-0.8,0.1-1.1,0.2c-0.3,0.1-0.5,0.3-0.7,0.4c-0.2,0.2-0.3,0.4-0.4,0.6
				c-0.1,0.2-0.1,0.4-0.1,0.6c0,0.5,0.1,0.9,0.4,1.1c0.3,0.3,0.6,0.5,1.1,0.6c0.4,0.2,0.9,0.3,1.4,0.4c0.5,0.1,1,0.3,1.4,0.6
				c0.4,0.2,0.8,0.6,1.1,1c0.3,0.4,0.4,1,0.4,1.7c0,0.6-0.1,1.1-0.3,1.5c-0.2,0.5-0.5,0.8-0.9,1.1s-0.8,0.5-1.3,0.7s-1,0.2-1.6,0.2
				c-0.7,0-1.5-0.1-2.1-0.4c-0.7-0.3-1.2-0.7-1.6-1.2L655.1,570z"/>
			<path class="st4" d="M666.2,560.8h1.6v11.7h-1.6V560.8z"/>
			<path class="st4" d="M673,560.8h4.1c0.8,0,1.5,0.1,2.2,0.3c0.6,0.2,1.2,0.4,1.6,0.8c0.5,0.3,0.8,0.7,1.1,1.1
				c0.3,0.4,0.5,0.8,0.7,1.3c0.2,0.4,0.3,0.9,0.4,1.3c0.1,0.4,0.1,0.8,0.1,1.2c0,0.7-0.1,1.5-0.4,2.2c-0.3,0.7-0.7,1.3-1.2,1.9
				c-0.5,0.5-1.2,1-2,1.3s-1.7,0.5-2.8,0.5H673V560.8z M674.6,571h2c0.7,0,1.3-0.1,1.9-0.3c0.6-0.2,1.1-0.5,1.6-0.8
				c0.5-0.4,0.8-0.8,1.1-1.4c0.3-0.6,0.4-1.2,0.4-1.9c0-0.4-0.1-0.8-0.2-1.3c-0.1-0.5-0.4-1-0.7-1.4c-0.3-0.5-0.8-0.8-1.4-1.1
				c-0.6-0.3-1.4-0.5-2.3-0.5h-2.4L674.6,571L674.6,571z"/>
			<path class="st4" d="M687.8,560.8h7.5v1.5h-6v3.5h5.5v1.5h-5.5v3.7h6.3v1.5h-7.8V560.8z"/>
			<path class="st4" d="M700.1,560.8h1.6v5.1h0.1l5.2-5.1h2.2l-5.6,5.4l6,6.3h-2.3l-5.4-5.8h-0.1v5.8h-1.6v-11.7H700.1z"/>
			<path class="st4" d="M713.4,560.8h1.6v11.7h-1.6V560.8z"/>
			<path class="st4" d="M728.5,563.3c-0.3-0.4-0.7-0.8-1.3-1c-0.5-0.2-1-0.3-1.6-0.3c-0.7,0-1.3,0.1-1.8,0.4c-0.5,0.2-1,0.6-1.4,1
				c-0.4,0.4-0.7,0.9-0.9,1.5c-0.2,0.6-0.3,1.2-0.3,1.9c0,0.6,0.1,1.2,0.3,1.8s0.5,1,0.9,1.5c0.4,0.4,0.8,0.7,1.4,1
				c0.5,0.2,1.2,0.4,1.8,0.4c0.7,0,1.3-0.1,1.8-0.4s0.9-0.7,1.3-1.2l1.3,1c-0.1,0.1-0.2,0.3-0.5,0.5c-0.2,0.2-0.5,0.5-0.9,0.7
				s-0.8,0.4-1.3,0.6s-1.1,0.3-1.8,0.3c-0.9,0-1.8-0.2-2.5-0.5c-0.7-0.4-1.4-0.8-1.9-1.4c-0.5-0.6-0.9-1.2-1.2-1.9
				c-0.3-0.7-0.4-1.4-0.4-2.2c0-0.9,0.1-1.7,0.4-2.5c0.3-0.8,0.7-1.4,1.2-2c0.5-0.6,1.2-1,1.9-1.3s1.6-0.5,2.5-0.5
				c0.8,0,1.5,0.1,2.3,0.4c0.7,0.3,1.4,0.8,1.8,1.4L728.5,563.3z"/>
			<path class="st4" d="M734.2,560.8h1.6v5.1h0.1l5.2-5.1h2.2l-5.6,5.4l6,6.3h-2.3l-5.4-5.8h-0.1v5.8h-1.6v-11.7H734.2z"/>
		</g>
		<g>
			<path class="st5" d="M726.6,477c0-16.6,7.9-10.4,7.9-28.2"/>
			<path class="st5" d="M675.9,445.9c0-16.6-7.9-10.4-7.9-28.2"/>
			<polyline class="st5" points="712.4,477.8 759.8,477.8 759.8,519.6 745.1,519.6 750.8,533.2 726.8,519.6 685,519.6 685,487.7 			
				"/>
			<polygon class="st5" points="712.4,445.9 637.6,445.9 637.6,487.7 652.3,487.7 646.6,501.3 670.6,487.7 712.4,487.7 			"/>
			<line class="st5" x1="653.9" y1="462.9" x2="653.9" y2="474.8"/>
			<line class="st5" x1="647.9" y1="468.8" x2="659.9" y2="468.8"/>
			<line class="st5" x1="669.6" y1="466.5" x2="672" y2="466.5"/>
			<line class="st5" x1="679.2" y1="466.5" x2="681.6" y2="466.5"/>
			<path class="st5" d="M702.1,463.5c0,1.8-1.5,3.3-3.3,3.3s-3.3-1.5-3.3-3.3c0-1.8,1.5-3.3,3.3-3.3S702.1,461.7,702.1,463.5z"/>
			<path class="st5" d="M695.5,471.6c0,1.8-1.5,3.3-3.3,3.3s-3.3-1.5-3.3-3.3c0-1.8,1.5-3.3,3.3-3.3S695.5,469.8,695.5,471.6z"/>
			<line class="st5" x1="701.3" y1="495.2" x2="701.3" y2="507"/>
			<line class="st5" x1="695.3" y1="501.1" x2="707.4" y2="501.1"/>
			<line class="st5" x1="717" y1="498.8" x2="719.4" y2="498.8"/>
			<line class="st5" x1="726.6" y1="498.8" x2="729.1" y2="498.8"/>
			<path class="st5" d="M749.5,495.8c0,1.8-1.5,3.3-3.3,3.3s-3.3-1.5-3.3-3.3c0-1.8,1.5-3.3,3.3-3.3
				C748,492.4,749.5,493.9,749.5,495.8z"/>
			<path class="st5" d="M742.9,503.9c0,1.8-1.5,3.3-3.3,3.3s-3.3-1.5-3.3-3.3c0-1.8,1.5-3.3,3.3-3.3S742.9,502.1,742.9,503.9z"/>
		</g>
	</g>
	<g>
		<rect x="68.1" y="355.8" class="st8" width="231.1" height="234.4"/>
		<rect x="90" y="385.4" class="st3" width="183" height="181"/>
		<rect x="118" y="556.4" class="st8" width="128" height="14"/>
		<g>
			<path class="st4" d="M134.8,559.1h7.5v1.5h-6v3.5h5.5v1.5h-5.5v3.7h6.3v1.5h-7.8V559.1z"/>
			<path class="st4" d="M150.4,564.7l-3.9-5.5h2l3,4.5l3-4.5h2l-3.9,5.5l4.3,6.2h-2.1l-3.4-5.1l-3.4,5.1h-2L150.4,564.7z"/>
			<path class="st4" d="M160.8,559.1h4.1c0.7,0,1.4,0.1,1.8,0.3c0.5,0.2,0.9,0.5,1.1,0.8c0.3,0.3,0.5,0.7,0.6,1.1
				c0.1,0.4,0.2,0.8,0.2,1.1c0,0.4-0.1,0.7-0.2,1.1c-0.1,0.4-0.3,0.7-0.6,1.1c-0.3,0.3-0.7,0.6-1.1,0.8c-0.5,0.2-1.1,0.3-1.8,0.3
				h-2.5v5.2h-1.6V559.1z M162.4,564.3h2.1c0.3,0,0.6,0,0.9-0.1c0.3,0,0.6-0.1,0.8-0.3c0.2-0.1,0.4-0.3,0.6-0.6
				c0.1-0.2,0.2-0.6,0.2-1c0-0.4-0.1-0.7-0.2-1c-0.1-0.2-0.3-0.4-0.6-0.6c-0.2-0.1-0.5-0.2-0.8-0.3c-0.3,0-0.6-0.1-0.9-0.1h-2.1
				V564.3z"/>
			<path class="st4" d="M172.8,559.1h1.6v10.2h5.4v1.5h-6.9v-11.7H172.8z"/>
			<path class="st4" d="M188.7,571.1c-0.9,0-1.7-0.2-2.5-0.5c-0.7-0.3-1.4-0.7-1.9-1.3c-0.5-0.6-1-1.2-1.3-1.9s-0.5-1.6-0.5-2.4
				c0-0.9,0.1-1.7,0.5-2.4c0.3-0.7,0.7-1.4,1.3-1.9c0.5-0.5,1.2-1,1.9-1.3s1.6-0.5,2.5-0.5s1.7,0.2,2.5,0.5c0.7,0.3,1.4,0.7,1.9,1.3
				s1,1.2,1.3,1.9c0.3,0.7,0.5,1.6,0.5,2.4c0,0.9-0.2,1.7-0.5,2.4c-0.3,0.7-0.7,1.4-1.3,1.9c-0.5,0.5-1.2,1-1.9,1.3
				C190.4,570.9,189.6,571.1,188.7,571.1z M188.7,569.6c0.7,0,1.3-0.1,1.8-0.4c0.5-0.2,1-0.6,1.4-1c0.4-0.4,0.7-0.9,0.9-1.5
				c0.2-0.6,0.3-1.2,0.3-1.8s-0.1-1.2-0.3-1.8s-0.5-1.1-0.9-1.5c-0.4-0.4-0.8-0.8-1.4-1c-0.5-0.2-1.1-0.4-1.8-0.4s-1.3,0.1-1.8,0.4
				c-0.5,0.2-1,0.6-1.4,1c-0.4,0.4-0.7,0.9-0.9,1.5c-0.2,0.6-0.3,1.2-0.3,1.8s0.1,1.2,0.3,1.8c0.2,0.6,0.5,1.1,0.9,1.5
				c0.4,0.4,0.8,0.8,1.4,1C187.4,569.5,188,569.6,188.7,569.6z"/>
			<path class="st4" d="M199.4,559.1h4.1c0.7,0,1.4,0.1,1.8,0.3c0.5,0.2,0.9,0.5,1.1,0.8c0.3,0.3,0.5,0.7,0.6,1.1
				c0.1,0.4,0.2,0.8,0.2,1.1c0,0.4-0.1,0.7-0.2,1.1c-0.1,0.3-0.3,0.7-0.6,0.9c-0.2,0.3-0.6,0.5-0.9,0.7c-0.4,0.2-0.8,0.3-1.2,0.4
				l3.3,5.3h-2l-3-5.2H201v5.2h-1.6V559.1z M201,564.3h2.1c0.3,0,0.6,0,0.9-0.1c0.3,0,0.6-0.1,0.8-0.3c0.2-0.2,0.4-0.3,0.6-0.6
				c0.1-0.2,0.2-0.6,0.2-1c0-0.4-0.1-0.7-0.2-1c-0.1-0.2-0.3-0.4-0.6-0.6s-0.5-0.2-0.8-0.3c-0.3,0-0.6-0.1-0.9-0.1H201V564.3z"/>
			<path class="st4" d="M211.9,559.1h7.5v1.5h-6v3.5h5.5v1.5h-5.5v3.7h6.3v1.5h-7.8V559.1z"/>
			<path class="st4" d="M224.2,559.1h4.1c0.7,0,1.4,0.1,1.8,0.3c0.5,0.2,0.9,0.5,1.1,0.8c0.3,0.3,0.5,0.7,0.6,1.1
				c0.1,0.4,0.2,0.8,0.2,1.1c0,0.4-0.1,0.7-0.2,1.1c-0.1,0.3-0.3,0.7-0.6,0.9c-0.2,0.3-0.6,0.5-0.9,0.7c-0.4,0.2-0.8,0.3-1.2,0.4
				l3.3,5.3h-2l-3-5.2h-1.8v5.2H224v-11.7H224.2z M225.8,564.3h2.1c0.3,0,0.6,0,0.9-0.1c0.3,0,0.6-0.1,0.8-0.3
				c0.2-0.2,0.4-0.3,0.6-0.6c0.1-0.2,0.2-0.6,0.2-1c0-0.4-0.1-0.7-0.2-1c-0.1-0.2-0.3-0.4-0.6-0.6s-0.5-0.2-0.8-0.3
				c-0.3,0-0.6-0.1-0.9-0.1h-2.1V564.3z"/>
		</g>
		<g>
			<g>
				<line class="st5" x1="182" y1="508.3" x2="182" y2="537.4"/>
				<line class="st5" x1="171" y1="508.3" x2="171" y2="529.6"/>
				<line class="st5" x1="192.8" y1="508.3" x2="192.8" y2="529.6"/>
			</g>
			<g>
				<line class="st5" x1="183.1" y1="406.8" x2="183.1" y2="410.9"/>
				<line class="st5" x1="137.6" y1="459" x2="141.8" y2="459"/>
				<line class="st5" x1="225.5" y1="459" x2="229.7" y2="459"/>
				<line class="st5" x1="214.9" y1="425.5" x2="218.6" y2="421.8"/>
				<line class="st5" x1="152.2" y1="425.5" x2="148.5" y2="421.8"/>
			</g>
			<line class="st3" x1="166" y1="493.4" x2="193" y2="493.4"/>
			<line class="st3" x1="166" y1="487.4" x2="193" y2="487.4"/>
			<g>
				<g>
					<line class="st5" x1="174.9" y1="463.7" x2="174.9" y2="486.2"/>
					<line class="st5" x1="188.6" y1="463.7" x2="188.6" y2="486.2"/>
				</g>
				<circle class="st5" cx="181.9" cy="451.2" r="13.8"/>
				<g>
					<line class="st5" x1="177.6" y1="453.5" x2="186.3" y2="444.8"/>
					<line class="st5" x1="179.3" y1="457.6" x2="186" y2="450.9"/>
				</g>
			</g>
			<polyline class="st3" points="157.3,476.5 147,486.4 147,512.8 165.7,501.6 			"/>
			<path class="st3" d="M182.7,416.7c-18.9,0.1-35.9,15.5-35.9,34.5c0,13.8,6.2,25.7,18.2,31.2v20h17.7H194v-20
				c11-5.5,21.4-17.4,21.4-31.2C215.4,432.2,201.6,416.8,182.7,416.7z"/>
			<polyline class="st3" points="203.4,476.5 212,486.4 212,512.8 194.2,501.6 			"/>
		</g>
	</g>
</g>
<g>
	<g>
		<path class="st9" d="M439.4,653.1c0-1,1.1-1.5,2-1.5c1.2,0,2,0.5,2.7,1.4l2.2-2.2c-1.1-1.4-3-2-4.8-2c-2.8,0-5.6,1.4-5.6,4.5
			c0,5.3,7.5,3,7.5,5.9c0,1.1-1.3,1.6-2.3,1.6c-1.4,0-2.3-0.7-3.2-1.6l-2.2,2.2c1.4,1.4,3.2,1.9,5.2,1.9c2.8,0,6-1.2,6-4.4
			C446.8,653.5,439.4,655.6,439.4,653.1z"/>
		<path class="st9" d="M509.5,658.7c-0.9,1.1-2,1.9-3.7,1.9c-1.9,0-3.5-1.2-3.7-3.3h10.6v-1c0-4.8-2.6-7.5-6.5-7.5
			c-4.2,0-7.5,2.9-7.5,7.3s3.3,7.3,7.5,7.3c2.1,0,4-0.7,5.6-2.4L509.5,658.7z M505.7,651.4c2.2,0,3.5,1.3,3.5,3.3h-7.1
			C502.4,652.7,503.6,651.4,505.7,651.4z"/>
		<path class="st9" d="M494.6,659.1c-0.7,0.7-1.7,1.2-2.9,1.2c-2.5,0-4.1-2-4.1-4.2s1.5-4.2,4.1-4.2c1.2,0,2.2,0.5,2.9,1.2l2.4-2.4
			c-1.4-1.2-3.2-2-5.3-2c-4.2,0-7.5,2.9-7.5,7.3c0,4.4,3.3,7.3,7.5,7.3c2.1,0,3.9-0.7,5.3-2L494.6,659.1z"/>
		<path class="st9" d="M457.1,648.8c-1.6,0-3,0.6-4.1,1.5v-1.1h-3.5v20.4h3.5v-7.7c1.1,0.8,2.5,1.4,4.1,1.4c4.2,0,7.4-2.9,7.4-7.3
			C464.5,651.8,461.2,648.8,457.1,648.8z M457.1,660.3c-2.5,0-4.1-1.5-4.1-4.2c0-2.8,1.5-4.2,4.1-4.2s3.9,2,3.9,4.2
			S459.6,660.3,457.1,660.3z"/>
		<path class="st9" d="M478.2,649.2v1.1c-1.1-0.9-2.4-1.5-4.1-1.5c-4.2,0-7.4,2.9-7.4,7.3s3.2,7.3,7.4,7.3c1.6,0,3-0.6,4.1-1.4v1.2
			h3.5v-13.9L478.2,649.2L478.2,649.2z M474.1,660.3c-2.5,0-3.9-2-3.9-4.2s1.4-4.2,3.9-4.2s4.1,1.4,4.1,4.2
			C478.2,658.8,476.6,660.3,474.1,660.3z"/>
	</g>
	<g>
		<g>
			<rect x="377.8" y="634.3" class="st0" width="43.6" height="43.6"/>
			<polygon class="st10" points="370.5,685.2 370.5,634.3 377.8,634.3 377.8,677.9 			"/>
			<polygon class="st11" points="377.8,627 428.6,627 421.4,634.3 370.5,634.3 			"/>
			<polygon class="st12" points="377.8,677.9 421.4,677.9 421.4,685.2 370.5,685.2 			"/>
			<polygon class="st13" points="421.4,685.2 421.4,634.3 428.6,627 428.6,677.9 			"/>
		</g>
		<g>
			<path class="st9" d="M389.1,663.4h-5.4v-14.5h4.9c4.8,0,8.8,2,8.8,7.3C397.5,660.8,393.6,663.4,389.1,663.4"/>
			<path class="st9" d="M407.9,663.7c-4.6,0-8-3-8-7.6s3.4-7.6,8-7.6s8,3,8,7.6S412.5,663.7,407.9,663.7"/>
		</g>
	</g>
</g>
<g>
	<path class="st9" d="M359.4,677H359v-0.1h0.9v0.1h-0.4v1h-0.1V677z M360.1,676.9h0.2l0.4,0.9l0.4-0.9h0.2v1.1h-0.1v-1l0,0l-0.4,1
		h-0.1l-0.4-1l0,0v1h-0.1v-1.1H360.1z"/>
</g>
<rect x="34.6" y="304" class="st14" width="814" height="409.9"/>
</svg>
