<?xml version="1.0" encoding="utf-8"?>
<!-- Generator: Adobe Illustrator 19.1.0, SVG Export Plug-In . SVG Version: 6.00 Build 0)  -->
<svg version="1.1" id="Layer_1" xmlns="http://www.w3.org/2000/svg" xmlns:xlink="http://www.w3.org/1999/xlink" x="0px" y="0px"
	 viewBox="-90 409 360 192" style="enable-background:new -90 409 360 192;" xml:space="preserve">
<style type="text/css">
	.st0{fill:#D1D3D4;}
</style>
<g>
	<g>
		<g>
			<path class="st0" d="M83.2,499.7c0-1.9,1.9-2.6,3.5-2.6c2.1,0,3.6,0.9,4.8,2.5l3.9-3.9c-2-2.5-5.3-3.4-8.5-3.4
				c-4.9,0-9.8,2.5-9.8,7.8c0,9.3,13.1,5.3,13.1,10.3c0,1.9-2.3,2.8-4.1,2.8c-2.5,0-4.1-1.1-5.6-2.7l-3.9,3.9
				c2.5,2.5,5.6,3.4,9.2,3.4c4.9,0,10.5-2,10.5-7.8C96.3,500.5,83.2,504,83.2,499.7z"/>
			<path class="st0" d="M206.6,509.6c-1.5,1.9-3.5,3.3-6.5,3.3c-3.4,0-6.2-2.2-6.5-5.8h18.5v-1.7c0-8.5-4.6-13.2-11.4-13.2
				c-7.3,0-13.2,5.1-13.2,12.8c0,7.7,5.9,12.8,13.2,12.8c3.6,0,7.1-1.2,9.8-4.3L206.6,509.6z M199.8,496.8c3.8,0,6.2,2.2,6.2,5.8
				h-12.5C193.9,499.1,196.2,496.8,199.8,496.8z"/>
			<path class="st0" d="M180.3,510.2c-1.2,1.3-3,2.1-5.1,2.1c-4.5,0-7.1-3.5-7.1-7.3c0-3.8,2.6-7.3,7.1-7.3c2.2,0,3.9,0.8,5.1,2.1
				l4.1-4.1c-2.4-2.2-5.6-3.4-9.3-3.4c-7.3,0-13.2,5.1-13.2,12.8c0,7.7,5.9,12.8,13.2,12.8c3.6,0,6.9-1.2,9.3-3.4L180.3,510.2z"/>
			<path class="st0" d="M114.3,492.2c-2.8,0-5.2,1.1-7.1,2.6v-2h-6.1v35.9h6.1v-13.5c1.9,1.5,4.3,2.6,7.1,2.6c7.3,0,13-5.1,13-12.8
				C127.3,497.3,121.6,492.2,114.3,492.2z M114.3,512.3c-4.5,0-7.1-2.6-7.1-7.3c0-4.8,2.6-7.3,7.1-7.3c4.5,0,7,3.5,7,7.3
				C121.2,508.8,118.7,512.3,114.3,512.3z"/>
			<path class="st0" d="M151.4,492.8v2c-1.9-1.5-4.3-2.6-7.1-2.6c-7.3,0-13,5.1-13,12.8c0,7.7,5.6,12.8,13,12.8
				c2.8,0,5.2-1.1,7.1-2.6v2h6.1v-24.4H151.4z M144.3,512.3c-4.5,0-7-3.5-7-7.3c0-3.8,2.5-7.3,7-7.3s7.1,2.5,7.1,7.3
				C151.4,509.8,148.7,512.3,144.3,512.3z"/>
		</g>
		<g>
			<g>
				<polygon class="st0" points="-37.8,556.1 -37.8,466.7 -25,466.7 -25,543.3 				"/>
				<polygon class="st0" points="-25,453.9 64.4,453.9 51.6,466.7 -37.8,466.7 				"/>
				<polygon class="st0" points="-25,543.3 51.6,543.3 51.6,556.1 -37.8,556.1 				"/>
				<polygon class="st0" points="51.6,556.1 51.6,466.7 64.4,453.9 64.4,543.3 				"/>
			</g>
			<g>
				<path class="st0" d="M-5.1,517.8h-9.4v-25.6h8.6c8.5,0,15.5,3.5,15.5,12.9C9.6,513.4,2.7,517.8-5.1,517.8"/>
				<path class="st0" d="M27.9,518.3c-8.1,0-14.1-5.2-14.1-13.3s5.9-13.3,14.1-13.3c8.1,0,14.1,5.2,14.1,13.3
					C41.9,513.1,36,518.3,27.9,518.3"/>
			</g>
		</g>
	</g>
	<g>
		<path class="st0" d="M213,493.2h-1v-0.4h2.3v0.4h-1v2.6H213V493.2z M214.8,492.8h0.6l0.9,2.3l0.9-2.3h0.6v2.9h-0.4v-2.6l0,0
			l-1,2.6h-0.3l-1-2.6l0,0v2.6h-0.4L214.8,492.8L214.8,492.8z"/>
	</g>
</g>
</svg>
