<?xml version="1.0" encoding="utf-8"?>
<!-- Generator: Adobe Illustrator 19.1.0, SVG Export Plug-In . SVG Version: 6.00 Build 0)  -->
<svg version="1.1" xmlns="http://www.w3.org/2000/svg" xmlns:xlink="http://www.w3.org/1999/xlink" x="0px" y="0px"
	 viewBox="0 0 837.2 450" style="enable-background:new 0 0 837.2 450;" xml:space="preserve">
<style type="text/css">
	.st0{display:none;fill:#B5BD00;}
	.st1{fill:#99789D;}
	.st2{fill:#B5BD00;}
	.st3{fill:#EF8031;}
	.st4{fill:none;stroke:#003865;stroke-linecap:round;stroke-linejoin:round;stroke-miterlimit:10;}
	.st5{fill:#003865;}
	.st6{fill:#FFFFFF;}
	.st7{fill:#FFFFFF;stroke:#003865;stroke-linecap:round;stroke-linejoin:round;stroke-miterlimit:10;}
	.st8{fill:#FFB81C;stroke:#003865;stroke-linecap:round;stroke-linejoin:round;stroke-miterlimit:10;}
	.st9{fill:#DC582A;}
	.st10{fill:none;stroke:#003865;stroke-width:2;stroke-linecap:round;stroke-linejoin:round;stroke-miterlimit:10;}
	.st11{fill:none;stroke:#003865;stroke-width:1.5;stroke-linecap:round;stroke-linejoin:round;stroke-miterlimit:10;}
	.st12{fill:none;stroke:#003865;stroke-width:1.5;stroke-miterlimit:10;}
	.st13{fill:#5CC9E6;}
	.st14{fill:#FFB81C;}
	.st15{fill:#FFFFFF;stroke:#003865;stroke-width:1.5;stroke-linecap:round;stroke-linejoin:round;stroke-miterlimit:10;}
	.st16{fill:#385072;}
	.st17{fill:#BAD636;}
	.st18{fill:#FFCC4F;}
	.st19{fill:#EA6847;}
	.st20{fill:#50C9ED;}
</style>
<g id="Layer_1">
</g>
<g id="Layer_2">
	<rect x="-26" y="206" class="st6" width="905.5" height="248.9"/>
	<rect x="-9" y="-8" class="st2" width="927" height="228"/>
	<g>
		<g>
			<rect x="300.6" y="62.4" class="st9" width="231.1" height="234.4"/>
			<rect x="322" y="92" class="st10" width="182" height="181"/>
			<rect x="352" y="263" class="st9" width="126" height="14"/>
			<g>
				<path class="st5" d="M378.2,265.7h1.6v4.9h6.1v-4.9h1.6v11.7h-1.6v-5.3h-6.1v5.3h-1.6V265.7z"/>
				<path class="st5" d="M396.5,265.7h1.4l5,11.7h-1.8l-1.2-2.9h-5.6l-1.2,2.9h-1.8L396.5,265.7z M399.3,273.1l-2.2-5.4h0l-2.2,5.4
					H399.3z"/>
				<path class="st5" d="M414.5,268.2c-0.3-0.4-0.7-0.8-1.3-1c-0.5-0.2-1-0.3-1.6-0.3c-0.7,0-1.3,0.1-1.8,0.4c-0.5,0.2-1,0.6-1.4,1
					c-0.4,0.4-0.7,0.9-0.9,1.5c-0.2,0.6-0.3,1.2-0.3,1.9c0,0.6,0.1,1.2,0.3,1.8c0.2,0.5,0.5,1,0.9,1.5c0.4,0.4,0.8,0.7,1.4,1
					c0.5,0.2,1.1,0.4,1.8,0.4c0.7,0,1.3-0.1,1.8-0.4c0.5-0.3,0.9-0.7,1.3-1.2l1.3,1c-0.1,0.1-0.2,0.3-0.5,0.5
					c-0.2,0.2-0.5,0.5-0.9,0.7c-0.4,0.2-0.8,0.4-1.3,0.6c-0.5,0.2-1.1,0.3-1.8,0.3c-0.9,0-1.8-0.2-2.5-0.5c-0.7-0.4-1.4-0.8-1.9-1.4
					c-0.5-0.6-0.9-1.2-1.2-1.9c-0.3-0.7-0.4-1.4-0.4-2.2c0-0.9,0.1-1.7,0.4-2.5c0.3-0.8,0.7-1.4,1.2-2c0.5-0.6,1.2-1,1.9-1.3
					c0.7-0.3,1.6-0.5,2.5-0.5c0.8,0,1.5,0.1,2.3,0.4c0.7,0.3,1.4,0.8,1.8,1.4L414.5,268.2z"/>
				<path class="st5" d="M420.2,265.7h1.6v5.1h0.1l5.2-5.1h2.2l-5.6,5.4l6,6.3h-2.3l-5.4-5.8h-0.1v5.8h-1.6V265.7z"/>
				<path class="st5" d="M433.4,265.7h7.5v1.5h-6v3.5h5.5v1.5H435v3.7h6.3v1.5h-7.8V265.7z"/>
				<path class="st5" d="M445.8,265.7h4.1c0.7,0,1.4,0.1,1.8,0.3c0.5,0.2,0.9,0.5,1.1,0.8c0.3,0.3,0.5,0.7,0.6,1.1
					c0.1,0.4,0.2,0.8,0.2,1.1c0,0.4-0.1,0.7-0.2,1.1c-0.1,0.3-0.3,0.7-0.6,0.9c-0.2,0.3-0.6,0.5-0.9,0.7c-0.4,0.2-0.8,0.3-1.2,0.4
					l3.3,5.3h-2l-3-5.2h-1.8v5.2h-1.6V265.7z M447.3,270.9h2.1c0.3,0,0.6,0,0.9-0.1c0.3,0,0.6-0.1,0.8-0.3c0.2-0.1,0.4-0.3,0.6-0.6
					c0.1-0.2,0.2-0.6,0.2-1c0-0.4-0.1-0.7-0.2-1c-0.1-0.2-0.3-0.4-0.6-0.6c-0.2-0.1-0.5-0.2-0.8-0.3c-0.3,0-0.6-0.1-0.9-0.1h-2.1
					V270.9z"/>
			</g>
			<g>
				<path class="st11" d="M430.7,123.6c-1.9-0.3-3.1,0.2-4.6,1.5c-1.5,1.3-1.6,3.1-1.6,5.1v19c0,4-3.6,7.2-7.5,7.2
					c-3.9,0-7.5-3.2-7.5-7.2V130c0-1.9-1.1-3.8-2.6-5c-1.4-1.2-3.5-1.8-5.4-1.5c-24.1,3.9-39.9,26.8-39.9,54.4
					c0,27.5,15.6,50.3,39.6,54.4c1.9,0.3,4.1-0.2,5.6-1.5c1.5-1.3,2.6-3.1,2.6-5.1v-19c0-4,3.6-7.2,7.5-7.2c3.9,0,7.5,3.2,7.5,7.2
					v19.2c0,1.9,0.1,3.8,1.5,5c1.4,1.2,3,1.8,4.8,1.5c24.1-3.9,39.6-26.8,39.6-54.4C470.6,150.4,454.7,127.6,430.7,123.6z"/>
				<path class="st12" d="M384.5,130.2c4.2,5.5,5.1,13.9,4.8,21.7"/>
				<path class="st12" d="M365,156.4c5-1.6,8.4-1.9,10.7,0c4.4,3.8-5.1,16.5,0,19.4c3.8,2.1,19.5,0,19.5,0"/>
				<path class="st12" d="M389.5,143.7c3.8,0.4,8.3-0.1,8.3-0.1"/>
				<path class="st12" d="M363.5,194.3c7.7,0.1,21,2.4,25.8,0c4.8-2.4,7-11.3,21-14.8"/>
				<path class="st12" d="M380,221.8c4.8-4,12.1-8.5,15.1-8.5"/>
				<line class="st12" x1="374" y1="187" x2="374" y2="195.8"/>
				<path class="st12" d="M396.7,187c1.8,5.3,17.7,11.8,25.4,4.3"/>
				<path class="st12" d="M450.1,224.1c-4.2-5.7-6.1-16.7-5.8-24.5"/>
				<path class="st12" d="M467.3,199.3c-5.4-0.3-7.7,3.6-10.7,0c-3.4-4.2,5.1-14.9,0-19.4c-3.3-2.9-11.6-1.1-12.4,0.1"/>
				<path class="st12" d="M444.3,208.5c-3.8-0.4-7.5,0-7.5,0"/>
				<path class="st12" d="M468.8,161.3c-7.7-0.1-21-2.4-25.8,0c-4.8,2.4-12.1,14.2-17,3.9"/>
				<path class="st12" d="M454.6,136.9c-4.6,5.8-12.7,10.4-16.3,10.4"/>
				<line class="st12" x1="454.6" y1="165.9" x2="454.6" y2="160.6"/>
				<circle class="st12" cx="401.8" cy="142.5" r="3.5"/>
				<circle class="st12" cx="398.6" cy="174.5" r="3.5"/>
				<circle class="st12" cx="425.6" cy="188.8" r="3.5"/>
				<circle class="st12" cx="398.6" cy="212.7" r="3.5"/>
				<circle class="st12" cx="433.3" cy="207.6" r="3.5"/>
				<circle class="st12" cx="440.8" cy="180" r="3.5"/>
				<circle class="st12" cx="374" cy="183.5" r="3.5"/>
				<circle class="st12" cx="413.8" cy="178.2" r="3.5"/>
				<circle class="st12" cx="388.6" cy="155.9" r="3.5"/>
				<circle class="st12" cx="424.4" cy="161.7" r="3.5"/>
				<circle class="st12" cx="434.8" cy="148.4" r="3.5"/>
				<circle class="st12" cx="454.6" cy="169.5" r="3.5"/>
				<circle class="st12" cx="444.3" cy="195.8" r="3.5"/>
				<line class="st12" x1="386.3" y1="199.3" x2="386.3" y2="195.8"/>
				<circle class="st12" cx="387.9" cy="202.8" r="3.5"/>
			</g>
		</g>
		<g>
			<rect x="559.3" y="64" class="st13" width="232.8" height="236.1"/>
			<rect x="582" y="93" class="st10" width="181" height="182"/>
			<rect x="610" y="265" class="st13" width="127" height="13"/>
			<g>
				<path class="st5" d="M632.1,276.6c0.3,0.4,0.7,0.7,1.1,0.9c0.4,0.2,0.9,0.3,1.4,0.3c0.3,0,0.5,0,0.8-0.1
					c0.3-0.1,0.5-0.2,0.8-0.4c0.2-0.2,0.4-0.4,0.6-0.6c0.1-0.2,0.2-0.5,0.2-0.8c0-0.4-0.1-0.8-0.4-1c-0.3-0.2-0.6-0.4-1.1-0.6
					c-0.4-0.2-0.9-0.3-1.4-0.5c-0.5-0.1-1-0.4-1.4-0.6c-0.4-0.3-0.8-0.6-1.1-1.1c-0.3-0.4-0.4-1-0.4-1.8c0-0.3,0.1-0.7,0.2-1.1
					c0.1-0.4,0.4-0.7,0.7-1.1c0.3-0.3,0.7-0.6,1.2-0.8c0.5-0.2,1.1-0.3,1.8-0.3c0.6,0,1.3,0.1,1.8,0.3c0.6,0.2,1.1,0.5,1.5,1.1
					l-1.3,1.2c-0.2-0.3-0.5-0.6-0.8-0.7c-0.4-0.2-0.8-0.3-1.2-0.3c-0.4,0-0.8,0.1-1.1,0.2c-0.3,0.1-0.5,0.3-0.7,0.4
					c-0.2,0.2-0.3,0.4-0.4,0.6c-0.1,0.2-0.1,0.4-0.1,0.6c0,0.5,0.1,0.9,0.4,1.1c0.3,0.3,0.6,0.5,1.1,0.6c0.4,0.2,0.9,0.3,1.4,0.4
					c0.5,0.1,1,0.3,1.4,0.6c0.4,0.2,0.8,0.6,1.1,1c0.3,0.4,0.4,1,0.4,1.7c0,0.6-0.1,1.1-0.3,1.5c-0.2,0.5-0.5,0.8-0.9,1.1
					c-0.4,0.3-0.8,0.5-1.3,0.7c-0.5,0.2-1,0.2-1.6,0.2c-0.7,0-1.5-0.1-2.1-0.4c-0.7-0.3-1.2-0.7-1.6-1.2L632.1,276.6z"/>
				<path class="st5" d="M643.2,267.4h1.6v11.7h-1.6V267.4z"/>
				<path class="st5" d="M650,267.4h4.1c0.8,0,1.5,0.1,2.2,0.3c0.6,0.2,1.2,0.4,1.6,0.8c0.5,0.3,0.8,0.7,1.1,1.1
					c0.3,0.4,0.5,0.8,0.7,1.3c0.2,0.4,0.3,0.9,0.4,1.3c0.1,0.4,0.1,0.8,0.1,1.2c0,0.7-0.1,1.5-0.4,2.2c-0.3,0.7-0.7,1.3-1.2,1.9
					c-0.5,0.5-1.2,1-2,1.3c-0.8,0.3-1.7,0.5-2.8,0.5H650V267.4z M651.6,277.6h2c0.7,0,1.3-0.1,1.9-0.3c0.6-0.2,1.1-0.5,1.6-0.8
					c0.5-0.4,0.8-0.8,1.1-1.4s0.4-1.2,0.4-1.9c0-0.4-0.1-0.8-0.2-1.3c-0.1-0.5-0.4-1-0.7-1.4c-0.3-0.5-0.8-0.8-1.4-1.1
					c-0.6-0.3-1.4-0.5-2.3-0.5h-2.4V277.6z"/>
				<path class="st5" d="M664.8,267.4h7.5v1.5h-6v3.5h5.5v1.5h-5.5v3.7h6.3v1.5h-7.8V267.4z"/>
				<path class="st5" d="M677.1,267.4h1.6v5.1h0.1l5.2-5.1h2.2l-5.6,5.4l6,6.3h-2.3l-5.4-5.8h-0.1v5.8h-1.6V267.4z"/>
				<path class="st5" d="M690.4,267.4h1.6v11.7h-1.6V267.4z"/>
				<path class="st5" d="M705.5,269.9c-0.3-0.4-0.7-0.8-1.3-1c-0.5-0.2-1-0.3-1.6-0.3c-0.7,0-1.3,0.1-1.8,0.4c-0.5,0.2-1,0.6-1.4,1
					c-0.4,0.4-0.7,0.9-0.9,1.5c-0.2,0.6-0.3,1.2-0.3,1.9c0,0.6,0.1,1.2,0.3,1.8s0.5,1,0.9,1.5c0.4,0.4,0.8,0.7,1.4,1
					c0.5,0.2,1.2,0.4,1.8,0.4c0.7,0,1.3-0.1,1.8-0.4c0.5-0.3,0.9-0.7,1.3-1.2l1.3,1c-0.1,0.1-0.2,0.3-0.5,0.5
					c-0.2,0.2-0.5,0.5-0.9,0.7c-0.4,0.2-0.8,0.4-1.3,0.6c-0.5,0.2-1.1,0.3-1.8,0.3c-0.9,0-1.8-0.2-2.5-0.5c-0.7-0.4-1.4-0.8-1.9-1.4
					c-0.5-0.6-0.9-1.2-1.2-1.9c-0.3-0.7-0.4-1.4-0.4-2.2c0-0.9,0.1-1.7,0.4-2.5c0.3-0.8,0.7-1.4,1.2-2c0.5-0.6,1.2-1,1.9-1.3
					c0.7-0.3,1.6-0.5,2.5-0.5c0.8,0,1.5,0.1,2.3,0.4c0.7,0.3,1.4,0.8,1.8,1.4L705.5,269.9z"/>
				<path class="st5" d="M711.2,267.4h1.6v5.1h0.1l5.2-5.1h2.2l-5.6,5.4l6,6.3h-2.3l-5.4-5.8h-0.1v5.8h-1.6V267.4z"/>
			</g>
			<g>
				<path class="st11" d="M703.6,183.6c0-16.6,7.9-10.4,7.9-28.2"/>
				<path class="st11" d="M652.9,152.5c0-16.6-7.9-10.4-7.9-28.2"/>
				<polyline class="st11" points="689.4,184.4 736.8,184.4 736.8,226.2 722.1,226.2 727.8,239.8 703.8,226.2 662,226.2 662,194.3 
									"/>
				<polygon class="st11" points="689.4,152.5 614.6,152.5 614.6,194.3 629.3,194.3 623.6,207.9 647.6,194.3 689.4,194.3 				"/>
				<line class="st11" x1="630.9" y1="169.5" x2="630.9" y2="181.4"/>
				<line class="st11" x1="624.9" y1="175.4" x2="636.9" y2="175.4"/>
				<line class="st11" x1="646.6" y1="173.1" x2="649" y2="173.1"/>
				<line class="st11" x1="656.2" y1="173.1" x2="658.6" y2="173.1"/>
				<path class="st11" d="M679.1,170.1c0,1.8-1.5,3.3-3.3,3.3c-1.8,0-3.3-1.5-3.3-3.3c0-1.8,1.5-3.3,3.3-3.3
					C677.6,166.8,679.1,168.3,679.1,170.1z"/>
				<path class="st11" d="M672.5,178.2c0,1.8-1.5,3.3-3.3,3.3c-1.8,0-3.3-1.5-3.3-3.3c0-1.8,1.5-3.3,3.3-3.3
					C671,174.9,672.5,176.4,672.5,178.2z"/>
				<line class="st11" x1="678.3" y1="201.8" x2="678.3" y2="213.6"/>
				<line class="st11" x1="672.3" y1="207.7" x2="684.4" y2="207.7"/>
				<line class="st11" x1="694" y1="205.4" x2="696.4" y2="205.4"/>
				<line class="st11" x1="703.6" y1="205.4" x2="706.1" y2="205.4"/>
				<path class="st11" d="M726.5,202.4c0,1.8-1.5,3.3-3.3,3.3c-1.8,0-3.3-1.5-3.3-3.3c0-1.8,1.5-3.3,3.3-3.3
					C725,199,726.5,200.5,726.5,202.4z"/>
				<path class="st11" d="M719.9,210.5c0,1.8-1.5,3.3-3.3,3.3c-1.8,0-3.3-1.5-3.3-3.3c0-1.8,1.5-3.3,3.3-3.3
					C718.4,207.2,719.9,208.7,719.9,210.5z"/>
			</g>
		</g>
		<g>
			<rect x="45.1" y="62.4" class="st14" width="231.1" height="234.4"/>
			<rect x="67" y="92" class="st10" width="183" height="181"/>
			<rect x="95" y="263" class="st14" width="128" height="14"/>
			<g>
				<path class="st5" d="M111.8,265.7h7.5v1.5h-6v3.5h5.5v1.5h-5.5v3.7h6.3v1.5h-7.8V265.7z"/>
				<path class="st5" d="M127.4,271.3l-3.9-5.5h2l3,4.5l3-4.5h2l-3.9,5.5l4.3,6.2h-2.1l-3.4-5.1l-3.4,5.1h-2L127.4,271.3z"/>
				<path class="st5" d="M137.8,265.7h4.1c0.7,0,1.4,0.1,1.8,0.3c0.5,0.2,0.9,0.5,1.1,0.8c0.3,0.3,0.5,0.7,0.6,1.1
					c0.1,0.4,0.2,0.8,0.2,1.1c0,0.4-0.1,0.7-0.2,1.1s-0.3,0.7-0.6,1.1c-0.3,0.3-0.7,0.6-1.1,0.8c-0.5,0.2-1.1,0.3-1.8,0.3h-2.5v5.2
					h-1.6V265.7z M139.4,270.9h2.1c0.3,0,0.6,0,0.9-0.1c0.3,0,0.6-0.1,0.8-0.3c0.2-0.1,0.4-0.3,0.6-0.6c0.1-0.2,0.2-0.6,0.2-1
					c0-0.4-0.1-0.7-0.2-1c-0.1-0.2-0.3-0.4-0.6-0.6c-0.2-0.1-0.5-0.2-0.8-0.3c-0.3,0-0.6-0.1-0.9-0.1h-2.1V270.9z"/>
				<path class="st5" d="M149.8,265.7h1.6v10.2h5.4v1.5h-6.9V265.7z"/>
				<path class="st5" d="M165.7,277.7c-0.9,0-1.7-0.2-2.5-0.5c-0.7-0.3-1.4-0.7-1.9-1.3c-0.5-0.6-1-1.2-1.3-1.9
					c-0.3-0.7-0.5-1.6-0.5-2.4c0-0.9,0.1-1.7,0.5-2.4c0.3-0.7,0.7-1.4,1.3-1.9c0.5-0.5,1.2-1,1.9-1.3c0.7-0.3,1.6-0.5,2.5-0.5
					c0.9,0,1.7,0.2,2.5,0.5c0.7,0.3,1.4,0.7,1.9,1.3c0.5,0.6,1,1.2,1.3,1.9c0.3,0.7,0.5,1.6,0.5,2.4c0,0.9-0.2,1.7-0.5,2.4
					c-0.3,0.7-0.7,1.4-1.3,1.9c-0.5,0.5-1.2,1-1.9,1.3C167.4,277.5,166.6,277.7,165.7,277.7z M165.7,276.2c0.7,0,1.3-0.1,1.8-0.4
					c0.5-0.2,1-0.6,1.4-1c0.4-0.4,0.7-0.9,0.9-1.5c0.2-0.6,0.3-1.2,0.3-1.8s-0.1-1.2-0.3-1.8c-0.2-0.6-0.5-1.1-0.9-1.5
					c-0.4-0.4-0.8-0.8-1.4-1c-0.5-0.2-1.1-0.4-1.8-0.4s-1.3,0.1-1.8,0.4c-0.5,0.2-1,0.6-1.4,1c-0.4,0.4-0.7,0.9-0.9,1.5
					c-0.2,0.6-0.3,1.2-0.3,1.8s0.1,1.2,0.3,1.8c0.2,0.6,0.5,1.1,0.9,1.5c0.4,0.4,0.8,0.8,1.4,1C164.4,276.1,165,276.2,165.7,276.2z"
					/>
				<path class="st5" d="M176.4,265.7h4.1c0.7,0,1.4,0.1,1.8,0.3c0.5,0.2,0.9,0.5,1.1,0.8c0.3,0.3,0.5,0.7,0.6,1.1
					c0.1,0.4,0.2,0.8,0.2,1.1c0,0.4-0.1,0.7-0.2,1.1c-0.1,0.3-0.3,0.7-0.6,0.9c-0.2,0.3-0.6,0.5-0.9,0.7c-0.4,0.2-0.8,0.3-1.2,0.4
					l3.3,5.3h-2l-3-5.2H178v5.2h-1.6V265.7z M178,270.9h2.1c0.3,0,0.6,0,0.9-0.1c0.3,0,0.6-0.1,0.8-0.3s0.4-0.3,0.6-0.6
					c0.1-0.2,0.2-0.6,0.2-1c0-0.4-0.1-0.7-0.2-1c-0.1-0.2-0.3-0.4-0.6-0.6s-0.5-0.2-0.8-0.3c-0.3,0-0.6-0.1-0.9-0.1H178V270.9z"/>
				<path class="st5" d="M188.9,265.7h7.5v1.5h-6v3.5h5.5v1.5h-5.5v3.7h6.3v1.5h-7.8V265.7z"/>
				<path class="st5" d="M201.2,265.7h4.1c0.7,0,1.4,0.1,1.8,0.3c0.5,0.2,0.9,0.5,1.1,0.8c0.3,0.3,0.5,0.7,0.6,1.1
					c0.1,0.4,0.2,0.8,0.2,1.1c0,0.4-0.1,0.7-0.2,1.1c-0.1,0.3-0.3,0.7-0.6,0.9c-0.2,0.3-0.6,0.5-0.9,0.7c-0.4,0.2-0.8,0.3-1.2,0.4
					l3.3,5.3h-2l-3-5.2h-1.8v5.2h-1.6V265.7z M202.8,270.9h2.1c0.3,0,0.6,0,0.9-0.1c0.3,0,0.6-0.1,0.8-0.3s0.4-0.3,0.6-0.6
					c0.1-0.2,0.2-0.6,0.2-1c0-0.4-0.1-0.7-0.2-1c-0.1-0.2-0.3-0.4-0.6-0.6s-0.5-0.2-0.8-0.3c-0.3,0-0.6-0.1-0.9-0.1h-2.1V270.9z"/>
			</g>
			<g>
				<g>
					<line class="st11" x1="159" y1="214.9" x2="159" y2="244"/>
					<line class="st11" x1="148" y1="214.9" x2="148" y2="236.2"/>
					<line class="st11" x1="169.8" y1="214.9" x2="169.8" y2="236.2"/>
				</g>
				<g>
					<line class="st11" x1="160.1" y1="113.4" x2="160.1" y2="117.5"/>
					<line class="st11" x1="114.6" y1="165.6" x2="118.8" y2="165.6"/>
					<line class="st11" x1="202.5" y1="165.6" x2="206.7" y2="165.6"/>
					<line class="st11" x1="191.9" y1="132.1" x2="195.6" y2="128.4"/>
					<line class="st11" x1="129.2" y1="132.1" x2="125.5" y2="128.4"/>
				</g>
				<line class="st10" x1="143" y1="200" x2="170" y2="200"/>
				<line class="st10" x1="143" y1="194" x2="170" y2="194"/>
				<g>
					<g>
						<line class="st11" x1="151.9" y1="170.3" x2="151.9" y2="192.8"/>
						<line class="st11" x1="165.6" y1="170.3" x2="165.6" y2="192.8"/>
					</g>
					<circle class="st11" cx="158.9" cy="157.8" r="13.8"/>
					<g>
						<line class="st15" x1="154.6" y1="160.1" x2="163.3" y2="151.4"/>
						<line class="st15" x1="156.3" y1="164.2" x2="163" y2="157.5"/>
					</g>
				</g>
				<polyline class="st10" points="134.3,183.1 124,193 124,219.4 142.7,208.2 				"/>
				<path class="st10" d="M159.7,123.3c-18.9,0.1-35.9,15.5-35.9,34.5c0,13.8,6.2,25.7,18.2,31.2v20h17.7H171v-20
					c11-5.5,21.4-17.4,21.4-31.2C192.4,138.8,178.6,123.4,159.7,123.3z"/>
				<polyline class="st10" points="180.4,183.1 189,193 189,219.4 171.2,208.2 				"/>
			</g>
		</g>
	</g>
	<g>
		<g>
			<path class="st16" d="M416.4,386.5c0-1,1.1-1.5,2-1.5c1.2,0,2,0.5,2.7,1.4l2.2-2.2c-1.1-1.4-3-2-4.8-2c-2.8,0-5.6,1.4-5.6,4.5
				c0,5.3,7.5,3,7.5,5.9c0,1.1-1.3,1.6-2.3,1.6c-1.4,0-2.3-0.7-3.2-1.6l-2.2,2.2c1.4,1.4,3.2,1.9,5.2,1.9c2.8,0,6-1.2,6-4.4
				C423.8,386.9,416.4,389,416.4,386.5z"/>
			<path class="st16" d="M486.5,392.1c-0.9,1.1-2,1.9-3.7,1.9c-1.9,0-3.5-1.2-3.7-3.3h10.6v-1c0-4.8-2.6-7.5-6.5-7.5
				c-4.2,0-7.5,2.9-7.5,7.3c0,4.4,3.3,7.3,7.5,7.3c2.1,0,4-0.7,5.6-2.4L486.5,392.1z M482.7,384.8c2.2,0,3.5,1.3,3.5,3.3h-7.1
				C479.4,386.1,480.6,384.8,482.7,384.8z"/>
			<path class="st16" d="M471.6,392.5c-0.7,0.7-1.7,1.2-2.9,1.2c-2.5,0-4.1-2-4.1-4.2c0-2.2,1.5-4.2,4.1-4.2c1.2,0,2.2,0.5,2.9,1.2
				l2.4-2.4c-1.4-1.2-3.2-2-5.3-2c-4.2,0-7.5,2.9-7.5,7.3c0,4.4,3.3,7.3,7.5,7.3c2.1,0,3.9-0.7,5.3-2L471.6,392.5z"/>
			<path class="st16" d="M434.1,382.2c-1.6,0-3,0.6-4.1,1.5v-1.1h-3.5V403h3.5v-7.7c1.1,0.8,2.5,1.4,4.1,1.4c4.2,0,7.4-2.9,7.4-7.3
				C441.5,385.2,438.2,382.2,434.1,382.2z M434.1,393.7c-2.5,0-4.1-1.5-4.1-4.2c0-2.8,1.5-4.2,4.1-4.2s3.9,2,3.9,4.2
				C438,391.7,436.6,393.7,434.1,393.7z"/>
			<path class="st16" d="M455.2,382.6v1.1c-1.1-0.9-2.4-1.5-4.1-1.5c-4.2,0-7.4,2.9-7.4,7.3c0,4.4,3.2,7.3,7.4,7.3
				c1.6,0,3-0.6,4.1-1.4v1.2h3.5v-13.9H455.2z M451.1,393.7c-2.5,0-3.9-2-3.9-4.2c0-2.2,1.4-4.2,3.9-4.2s4.1,1.4,4.1,4.2
				C455.2,392.2,453.6,393.7,451.1,393.7z"/>
		</g>
		<g>
			<g>
				<rect x="354.8" y="367.7" class="st6" width="43.6" height="43.6"/>
				<polygon class="st17" points="347.5,418.6 347.5,367.7 354.8,367.7 354.8,411.3 				"/>
				<polygon class="st18" points="354.8,360.4 405.6,360.4 398.4,367.7 347.5,367.7 				"/>
				<polygon class="st19" points="354.8,411.3 398.4,411.3 398.4,418.6 347.5,418.6 				"/>
				<polygon class="st20" points="398.4,418.6 398.4,367.7 405.6,360.4 405.6,411.3 				"/>
			</g>
			<g>
				<path class="st16" d="M366.1,396.8h-5.4v-14.5h4.9c4.8,0,8.8,2,8.8,7.3C374.5,394.2,370.6,396.8,366.1,396.8"/>
				<path class="st16" d="M384.9,397.1c-4.6,0-8-3-8-7.6c0-4.6,3.4-7.6,8-7.6c4.6,0,8,3,8,7.6C392.9,394.1,389.5,397.1,384.9,397.1"
					/>
			</g>
		</g>
	</g>
	<g>
		<path class="st16" d="M336.4,397H336v-0.1h0.9v0.1h-0.4v1h-0.1V397z M337.1,396.9h0.2l0.4,0.9l0.4-0.9h0.2v1.1h-0.1v-1h0l-0.4,1
			h-0.1l-0.4-1h0v1h-0.1V396.9z"/>
	</g>
</g>
</svg>
