<?xml version="1.0" encoding="utf-8"?>
<!-- Generator: Adobe Illustrator 19.1.0, SVG Export Plug-In . SVG Version: 6.00 Build 0)  -->
<svg version="1.1" id="Layer_1" xmlns="http://www.w3.org/2000/svg" xmlns:xlink="http://www.w3.org/1999/xlink" x="0px" y="0px"
	 viewBox="0 0 481.5 192" style="enable-background:new 0 0 481.5 192;" xml:space="preserve">
<style type="text/css">
	.st0{fill:#D1D3D4;}
</style>
<g>
	<g>
		<g>
			<path class="st0" d="M237.9,91.6c0-2.1,2.2-2.9,4-2.9c2.4,0,4.1,1,5.4,2.8l4.4-4.4c-2.3-2.8-6-3.9-9.6-3.9
				c-5.6,0-11.1,2.8-11.1,8.9c0,10.5,14.9,6,14.9,11.7c0,2.2-2.6,3.2-4.6,3.2c-2.8,0-4.6-1.3-6.3-3.1l-4.4,4.4
				c2.8,2.8,6.3,3.9,10.4,3.9c5.6,0,11.9-2.3,11.9-8.9C252.8,92.5,237.9,96.5,237.9,91.6z"/>
			<path class="st0" d="M377.9,102.8c-1.7,2.1-4,3.7-7.4,3.7c-3.9,0-7-2.5-7.4-6.6h21v-1.9c0-9.6-5.2-15-12.9-15
				c-8.3,0-15,5.8-15,14.5c0,8.7,6.7,14.5,15,14.5c4.1,0,8-1.4,11.1-4.9L377.9,102.8z M370.2,88.3c4.3,0,7,2.5,7,6.6H363
				C363.5,90.9,366.1,88.3,370.2,88.3z"/>
			<path class="st0" d="M348.1,103.5c-1.4,1.5-3.4,2.4-5.8,2.4c-5.1,0-8.1-4-8.1-8.3c0-4.3,3-8.3,8.1-8.3c2.5,0,4.4,0.9,5.8,2.4
				l4.7-4.7c-2.7-2.5-6.4-3.9-10.5-3.9c-8.3,0-15,5.8-15,14.5c0,8.7,6.7,14.5,15,14.5c4.1,0,7.8-1.4,10.6-3.9L348.1,103.5z"/>
			<path class="st0" d="M273.2,83.1c-3.2,0-5.9,1.2-8.1,3v-2.3h-6.9v40.7h6.9v-15.3c2.2,1.7,4.9,2.9,8.1,2.9
				c8.3,0,14.8-5.8,14.8-14.5C287.9,88.9,281.5,83.1,273.2,83.1z M273.2,105.9c-5.1,0-8.1-2.9-8.1-8.3c0-5.5,3-8.3,8.1-8.3
				c5.1,0,7.9,4,7.9,8.3C281,101.9,278.2,105.9,273.2,105.9z"/>
			<path class="st0" d="M315.3,83.8v2.3c-2.2-1.7-4.9-3-8.1-3c-8.3,0-14.8,5.8-14.8,14.5c0,8.7,6.4,14.5,14.8,14.5
				c3.2,0,5.9-1.2,8.1-2.9v2.3h6.9V83.8H315.3z M307.2,105.9c-5.1,0-7.9-4-7.9-8.3c0-4.3,2.8-8.3,7.9-8.3c5.1,0,8.1,2.8,8.1,8.3
				C315.3,103,312.2,105.9,307.2,105.9z"/>
		</g>
		<g>
			<g>
				<polygon class="st0" points="100.6,155.6 100.6,54.1 115.1,54.1 115.1,141.1 				"/>
				<polygon class="st0" points="115.1,39.6 216.5,39.6 202,54.1 100.6,54.1 				"/>
				<polygon class="st0" points="115.1,141.1 202,141.1 202,155.6 100.6,155.6 				"/>
				<polygon class="st0" points="202,155.6 202,54.1 216.5,39.6 216.5,141.1 				"/>
			</g>
			<g>
				<path class="st0" d="M137.7,112.1h-10.7v-29h9.8c9.6,0,17.6,4,17.6,14.6C154.4,107.1,146.5,112.1,137.7,112.1"/>
				<path class="st0" d="M175.1,112.7c-9.2,0-16-5.9-16-15.1c0-9.2,6.7-15.1,16-15.1c9.2,0,16,5.9,16,15.1
					C191,106.8,184.3,112.7,175.1,112.7"/>
			</g>
		</g>
	</g>
	<g>
		<path class="st0" d="M385.1,84.2h-1.1v-0.4h2.6v0.4h-1.1v2.9h-0.4V84.2z M387.2,83.8h0.7l1,2.6l1-2.6h0.7v3.3h-0.4v-2.9h0
			l-1.1,2.9h-0.3l-1.1-2.9h0v2.9h-0.4V83.8z"/>
	</g>
</g>
</svg>
