<?xml version="1.0" encoding="utf-8"?>
<!-- Generator: Adobe Illustrator 19.1.0, SVG Export Plug-In . SVG Version: 6.00 Build 0)  -->
<svg version="1.1" id="Layer_1" xmlns="http://www.w3.org/2000/svg" xmlns:xlink="http://www.w3.org/1999/xlink" x="0px" y="0px"
	 viewBox="0 0 185.5 185.5" style="enable-background:new 0 0 185.5 185.5;" xml:space="preserve">
<style type="text/css">
	.st0{fill:#FFFFFF;}
	.st1{fill:#D1D3D4;}
	.st2{opacity:0.48;}
</style>
<g>
	<path class="st0" d="M-99.1-39.5C-99.1-39.5-99.1-39.5-99.1-39.5c-0.1,0-0.1-0.1-0.2-0.1c0,0-0.1,0-0.1,0c-0.3-0.6-0.6-1.2-1-1.7
		c0-0.1-0.1-0.2-0.2-0.3c-0.2-0.3-0.7-0.8-1.1-0.6c-0.3-0.1-0.5,0-0.6,0.4c0,0,0,0,0,0c-0.1,0.1-0.2,0.3-0.2,0.4
		c0,0.8,0.6,1.3,1.4,1.7c0.5,0.4,1.2,0.6,1.8,0.7c0,0,0.1,0,0.1,0c0.1,0.1,0.1,0.1,0.2,0.1C-98.6-39-98.7-39.6-99.1-39.5z"/>
	<path class="st0" d="M-100.7-46.8c-0.1,0-0.3-0.4-0.3-0.4c-0.1-0.2-0.3-0.3-0.5-0.4c-0.4-0.2-0.8-0.4-1.3-0.5
		c-0.3-0.1-0.5,0.4-0.2,0.5c0.5,0.1,1,0.2,1.4,0.5c0.3,0.2,0.4,0.8,0.9,0.8C-100.4-46.2-100.3-46.7-100.7-46.8z"/>
	<path class="st0" d="M-97.5-49.1c-0.2-0.3-0.6-0.4-0.9-0.1c-0.3,0.3-0.2,0.7-0.2,1c-0.2,0.3-0.4,0.7-0.6,1c0,0.1-0.1,0.2-0.1,0.3
		c-0.1,0.1-0.1,0.1-0.2,0.2c-0.3,0.2,0.1,0.6,0.4,0.4c0,0,0.1-0.1,0.1-0.1c0,0,0.1,0,0.1,0c0.8,0.3,1.5-1,1.6-1.6
		C-97.2-48.3-97.2-48.8-97.5-49.1z"/>
	<path class="st0" d="M-93.4-36.8c-0.4,0-0.4,0.6,0,0.6c0.7,0,0.4,0.8,0.4,1.3c0,0.3,0.1,0.7,0.1,1.1c0-0.1,0-0.2,0-0.2
		c-0.1-0.4-0.6-0.3-0.6,0.1c0.1,0.3,0.1,0.6,0.1,1c0,0.2,0.2,0.4,0.4,0.3c0.9-0.5,0.6-1.6,0.6-2.4C-92.4-36-92.2-36.8-93.4-36.8z"/>
	<path class="st0" d="M-92.2-35.2c0-0.3,0-0.5-0.1-0.8c-0.1-0.2-0.2-0.2-0.3-0.2c-0.1-0.2-0.3-0.4-0.6-0.5c-0.5-0.1-1,0.1-1.1,0.6
		c-0.1,0.6,0.3,1.5,0.5,2.1c0.1,0.2,0.3,0.2,0.4,0.2c0,0.2,0,0.4,0,0.6c-0.1,0.5,0.7,0.6,0.8,0.1c0-0.2,0-0.3,0-0.5
		c0.1,0,0.1,0,0.2-0.1C-91.9-34.1-92-34.6-92.2-35.2C-92.2-35.1-92.2-35.2-92.2-35.2z"/>
	<path class="st0" d="M-87.2-27.8c0,0,0.1-0.1,0.1-0.2c0-1.1,0.2-4.6-1.7-4.3c-1.1,0.2-1.1,1.4-0.5,2.1c0,0,0,0,0,0.1
		c0.1,0.4,0.3,0.8,0.5,1.2c0.1,0.2,0.4,0.4,0.6,0.6c0,0.1,0,0.1,0.1,0.2c0.1,0.1,0.2,0.2,0.3,0.2c0,0.1,0.1,0.1,0.1,0.2
		c0,0.1,0.1,0.1,0.1,0.1c-0.1,0.2,0,0.6,0.4,0.6C-87-27.1-87-27.6-87.2-27.8z"/>
	<path class="st0" d="M-94.7-32.2c-0.5-0.3-1-0.5-1.5-0.8c-0.2-0.3-0.5-0.4-0.8-0.5c-0.2-0.2-0.4-0.4-0.7-0.5
		c-0.5-0.2-1.5-0.3-1.7,0.4c-0.1,0.2,0,0.4,0.1,0.6c0,0.1,0,0.2,0.1,0.3c0.2,0.3,0.4,0.4,0.7,0.5c0.2,0.1,0.3,0.2,0.4,0.3
		c0.3,0.2,0.7,0.4,1.1,0.4c0.1,0,0.2,0,0.3,0c0.5,0.2,0.9,0.2,1.4,0.1c0.1,0,0.2,0,0.4,0C-94.6-31.5-94.5-32-94.7-32.2z"/>
	<path class="st0" d="M-88.7-25.8c-0.6-0.3-1.3-0.5-1.9-0.7c-0.6-0.2-1.9-0.9-2.5-0.4c-0.5,0.4-0.1,1.1,0.4,1.3c0,0,0,0,0.1,0
		c0.3,0.4,0.9,0.6,1.4,0.7c0.9,0.2,2.2,0.4,3-0.2c0.1-0.1,0.2-0.2,0.1-0.4C-88.3-25.7-88.5-25.7-88.7-25.8z"/>
	<path class="st0" d="M-96.1-42.9c0-0.3-0.5-0.6-0.7-0.2c-0.1,0.3-0.2,0.5-0.3,0.8c0,0.1-0.1,0.2-0.1,0.3c-0.2,0.8-0.4,1.6-0.6,2.3
		c-0.2,0.5,0.6,0.7,0.7,0.3c0-0.1,0-0.1,0.1-0.2c0.1,0,0.2,0,0.3,0c0.5-0.1,0.9-0.5,1-0.9C-95.4-40.9-95.4-42.6-96.1-42.9z"/>
	<path class="st0" d="M-98.8-55.9c-0.7-0.1-1.3,0.6-1.6,1.2c-0.5,0.9-0.2,2.2-0.2,3.2c0,0.5,0.8,0.6,0.8,0.1c0-0.1,0-0.2,0-0.3
		c0.1,0,0.2,0,0.3-0.1c0.6-0.6,1.3-1.4,1.4-2.3C-98-54.6-98.1-55.8-98.8-55.9z"/>
	<path class="st0" d="M-100.8-47.1c-0.7-0.6-0.8-1.6-1.5-2.1c-0.2-0.2-0.5-0.3-0.7-0.2c-0.1,0-0.1,0-0.2,0c-0.6,0.3-0.7,1.1,0,1.5
		c0.1,0.1,0.2,0.1,0.3,0.1c0,0.1,0,0.1,0.1,0.2c0.1,0.1,0.2,0.2,0.2,0.3c0.1,0.1,0.1,0.1,0.2,0.1c0,0.1,0.1,0.1,0.1,0.1
		c0.3,0.3,0.7,0.5,1.1,0.7C-100.7-46.3-100.5-46.8-100.8-47.1z"/>
	<g>
		<path class="st0" d="M-71.8-11.7c-0.1,0-0.2,0-0.2-0.1c-1.4-3-3.9-5.8-7.6-8.6c-1.4-1.1-2.9-2.1-4.3-3c-2.5-1.7-5-3.4-7.2-5.4
			c-5.9-5.5-9.4-13.6-9.4-21.8c0-0.1,0.1-0.2,0.2-0.2c0.1,0,0.2,0.1,0.2,0.2c0,8.1,3.4,16.1,9.2,21.5c2.2,2,4.7,3.8,7.2,5.4
			c1.4,1,2.9,2,4.3,3c3.8,2.8,6.3,5.7,7.7,8.8C-71.6-11.9-71.6-11.8-71.8-11.7C-71.7-11.7-71.8-11.7-71.8-11.7z"/>
	</g>
	<g>
		<path class="st0" d="M-87.3-25.9C-87.4-25.9-87.4-25.9-87.3-25.9c-0.1,0-0.2-0.1-0.2-0.2c0-0.6-0.2-1.2-0.8-1.9
			c-0.2-0.2-0.4-0.4-0.5-0.6c-0.3-0.3-0.6-0.7-0.9-1.1c-0.3-0.5-0.5-1-0.5-1.5c0-0.6,0.4-1.1,0.9-1.3c0.5-0.2,1,0,1.4,0.4
			c0.4,0.3,0.6,0.8,0.7,1.2c0.6,1.5,0.2,3.2-0.1,4.7l0,0.2C-87.2-26-87.3-26-87.3-25.9z M-89-32.3c0,0-0.1,0-0.1,0
			c-0.4,0.1-0.6,0.5-0.7,1c0,0.4,0.1,0.8,0.4,1.3c0.2,0.4,0.5,0.7,0.8,1.1c0.2,0.2,0.4,0.4,0.5,0.7c0.3,0.4,0.5,0.8,0.7,1.2
			c0.2-1.3,0.4-2.6,0-3.8c-0.1-0.3-0.3-0.8-0.7-1.1C-88.3-32.2-88.7-32.3-89-32.3z"/>
	</g>
	<g>
		<path class="st0" d="M-89.5-24.3c-0.7,0.1-1.4,0.1-2-0.1c-0.9-0.3-1.9-1-2-1.8c-0.1-0.3,0-0.6,0.2-0.8c0.3-0.3,0.8-0.5,1.3-0.4
			c0.6,0.1,1.2,0.3,1.6,0.6c0.1,0,0.2,0.1,0.3,0.1c0.4,0.2,0.8,0.4,1.2,0.5c0.6,0.2,1.1,0.2,1.3,0c0.1-0.1,0.2,0,0.2,0
			c0.1,0.1,0,0.2,0,0.2c-0.2,0.1-0.3,0.3-0.5,0.5c-0.3,0.3-0.6,0.7-1,0.9C-89.1-24.4-89.3-24.4-89.5-24.3z M-92.6-27
			c-0.2,0-0.4,0.1-0.5,0.3c-0.1,0.1-0.2,0.3-0.1,0.5c0.1,0.6,0.9,1.2,1.8,1.5c0.8,0.2,1.7,0.2,2.4,0c0.4-0.1,0.6-0.4,0.9-0.8
			c0,0,0.1-0.1,0.1-0.1c-0.4,0-0.8-0.1-0.9-0.1c-0.5-0.1-0.9-0.4-1.3-0.6c-0.1,0-0.2-0.1-0.3-0.1c-0.5-0.2-1-0.5-1.5-0.5
			C-92.3-27.1-92.4-27.1-92.6-27z"/>
	</g>
	<g>
		<path class="st0" d="M-93.6-32c-0.1,0-0.1,0-0.1,0c-0.1-0.1-0.1-0.1,0-0.2c0.3-0.5,0.1-1.2,0-1.5c-0.1-0.2-0.2-0.4-0.3-0.5
			c-0.2-0.3-0.3-0.7-0.4-1c-0.1-0.6,0-1.4,0.6-1.7c0.5-0.2,1.1-0.1,1.5,0.3c0.3,0.3,0.5,0.8,0.6,1.4C-91.7-34-92.2-33-93.6-32
			C-93.5-32-93.6-32-93.6-32z M-93.5-36.7c-0.1,0-0.1,0-0.2,0.1c-0.4,0.2-0.5,0.8-0.4,1.3c0.1,0.3,0.2,0.6,0.4,1
			c0.1,0.2,0.2,0.4,0.3,0.6c0.1,0.3,0.3,0.7,0.2,1.2c0.9-0.8,1.2-1.6,1.1-2.6c-0.1-0.5-0.2-0.9-0.5-1.2
			C-92.9-36.7-93.2-36.8-93.5-36.7z"/>
	</g>
	<g>
		<path class="st0" d="M-95.3-31.2c-1.1,0.2-2.2,0-3.2-0.5c-0.5-0.3-0.8-0.5-1-0.9c-0.3-0.5-0.3-1,0-1.4c0.2-0.3,0.6-0.5,1-0.5
			c0.3,0,0.7,0.1,1,0.3c0.4,0.2,0.8,0.5,1.1,0.7c0.2,0.1,0.3,0.3,0.5,0.4l0.1,0.1c0.5,0.3,1.3,0.9,1.9,0.9c0.1,0,0.1,0,0.2,0.1
			c0,0.1,0,0.2-0.1,0.2C-94.2-31.5-94.8-31.3-95.3-31.2z M-98.7-34.1c-0.2,0-0.4,0.2-0.6,0.3c-0.2,0.3-0.2,0.7,0,1
			c0.2,0.3,0.5,0.5,0.9,0.8c1.2,0.6,2.8,0.7,4,0.1c-0.5-0.2-1.1-0.6-1.6-0.9l-0.1-0.1c-0.2-0.1-0.4-0.2-0.5-0.4
			c-0.3-0.2-0.7-0.5-1.1-0.7c-0.3-0.2-0.6-0.2-0.9-0.2C-98.6-34.1-98.6-34.1-98.7-34.1z"/>
	</g>
	<g>
		<path class="st0" d="M-100.2-50.3C-100.2-50.3-100.2-50.3-100.2-50.3c-0.1,0-0.2,0-0.2-0.1c-0.5-1.4-0.8-3.5,0.2-5
			c0.1-0.2,0.3-0.5,0.6-0.7c0.3-0.2,0.7-0.3,1-0.2c0.6,0.2,0.8,0.8,0.8,1.3c0,1-0.5,1.8-0.9,2.5c-0.1,0.2-0.2,0.3-0.3,0.5
			c-0.4,0.5-0.8,1.1-1,1.7C-100.1-50.3-100.2-50.3-100.2-50.3z M-99.1-55.9c-0.1,0-0.3,0.1-0.4,0.2c-0.2,0.2-0.4,0.4-0.5,0.6
			c-0.8,1.3-0.7,3-0.3,4.3c0.2-0.5,0.6-0.9,0.9-1.3c0.1-0.2,0.2-0.3,0.3-0.5c0.4-0.6,0.9-1.4,0.9-2.3c0-0.4-0.2-0.9-0.6-1
			C-98.8-56-98.9-56-99.1-55.9z"/>
	</g>
	<g>
		<path class="st0" d="M-98.1-38.9C-98.1-38.9-98.1-38.9-98.1-38.9c-1.7,0.2-3-0.2-3.9-1.2c-0.5-0.5-0.7-0.9-0.8-1.4
			c-0.1-0.6,0.2-1.1,0.7-1.2c0.7-0.2,1.4,0.3,1.8,0.8c0.3,0.3,0.4,0.7,0.6,1c0.1,0.2,0.2,0.4,0.3,0.6c0.4,0.6,0.8,1,1.3,1.1
			c0.1,0,0.1,0.1,0.1,0.2C-98-38.9-98-38.9-98.1-38.9z M-101.9-42.3C-102-42.3-102-42.3-101.9-42.3c-0.4,0.1-0.6,0.5-0.5,0.9
			c0.1,0.4,0.3,0.8,0.7,1.2c0.8,0.8,1.7,1.1,3,1.1c-0.4-0.3-0.7-0.7-0.8-0.9c-0.1-0.2-0.2-0.4-0.3-0.6c-0.2-0.3-0.3-0.7-0.6-1
			C-100.9-42.1-101.5-42.4-101.9-42.3z"/>
	</g>
	<g>
		<path class="st0" d="M-100-46C-100-46-100-46-100-46c-1.5-0.2-3.2-1-3.7-2.4c-0.1-0.2-0.1-0.4-0.1-0.7c0-0.3,0.2-0.6,0.4-0.7
			c0.4-0.3,0.9-0.1,1.3,0.2c0.6,0.5,1,1.2,1.3,1.8c0.3,0.5,0.5,1,0.9,1.5c0,0.1,0.1,0.1,0,0.2C-99.9-46-100-46-100-46z M-103.1-49.5
			c-0.1,0-0.1,0-0.2,0.1c-0.1,0.1-0.2,0.3-0.2,0.4c0,0.2,0,0.3,0.1,0.6c0.4,1.1,1.7,1.8,2.9,2.1c-0.3-0.4-0.5-0.8-0.7-1.2
			c-0.3-0.7-0.7-1.3-1.2-1.7C-102.6-49.4-102.8-49.6-103.1-49.5z"/>
	</g>
	<g>
		<path class="st0" d="M-98.9-46c-0.3,0.1-0.6,0-0.9-0.1c-0.1,0-0.1-0.1-0.1-0.1c0-0.1,0-0.1,0-0.2c0.4-0.4,0.6-1.1,0.8-1.7
			c0.1-0.2,0.1-0.4,0.2-0.6c0.1-0.4,0.3-0.8,0.7-1c0.2-0.1,0.4-0.1,0.6-0.1c0.2,0.1,0.4,0.2,0.5,0.5c0.2,0.3,0.2,0.8,0,1.3
			c-0.2,0.6-0.6,1.2-1.1,1.5C-98.4-46.2-98.6-46.1-98.9-46z M-99.4-46.3c0.4,0.1,0.7,0,1.1-0.3c0.4-0.3,0.8-0.8,0.9-1.3
			c0.1-0.4,0.1-0.8,0-1.1c-0.1-0.1-0.2-0.3-0.3-0.3c-0.1,0-0.2,0-0.3,0c-0.2,0.1-0.4,0.5-0.5,0.8c-0.1,0.2-0.1,0.4-0.2,0.6
			C-98.9-47.4-99.1-46.8-99.4-46.3z"/>
	</g>
	<g>
		<path class="st0" d="M-97.6-38.9c-0.1,0-0.1,0-0.2,0c-0.1,0-0.1,0-0.2-0.1c0,0-0.1-0.1,0-0.2c0.1-0.5,0.2-1,0.3-1.5
			c0.1-0.5,0.1-1,0.3-1.5c0.2-0.5,0.3-1,0.7-1.2c0.4-0.2,0.8-0.1,1.1,0.4c0.4,0.5,0.5,1.3,0.3,2c-0.2,0.6-0.5,1.2-1,1.5
			C-96.7-39.2-97.1-39-97.6-38.9z M-96.5-43c0,0-0.1,0-0.1,0c-0.3,0.2-0.4,0.6-0.6,1c-0.1,0.5-0.2,1-0.3,1.5
			c-0.1,0.4-0.1,0.8-0.2,1.2c0.4-0.1,0.8-0.2,1.1-0.4c0.4-0.3,0.8-0.8,0.9-1.3c0.2-0.6,0.1-1.3-0.2-1.7C-96-42.9-96.2-43.1-96.5-43z
			"/>
	</g>
	<path class="st0" d="M-46.6-49.1C-46.6-49.1-46.5-49.1-46.6-49.1c0.1-0.1,0.1-0.1,0.1-0.1c0,0,0.1-0.1,0.1-0.1
		c0.1-0.7,0.1-1.4,0.4-2c0-0.1,0-0.2,0-0.4c0.1-0.4,0.4-1,0.8-1c0.2-0.1,0.5-0.2,0.7,0.1c0,0,0,0,0,0c0.1,0.1,0.2,0.2,0.3,0.3
		c0.3,0.7-0.1,1.5-0.7,2.1c-0.4,0.6-0.9,1-1.5,1.3c0,0-0.1,0-0.1,0c0,0.1-0.1,0.1-0.2,0.1C-46.8-48.5-46.9-49.1-46.6-49.1z"/>
	<g>
		<path class="st0" d="M-47.7-56.5c0.1,0,0.1-0.5,0.1-0.5c0.1-0.2,0.2-0.4,0.3-0.6c0.3-0.4,0.6-0.6,1-0.9c0.3-0.2,0.7,0.2,0.4,0.4
			c-0.4,0.3-0.8,0.6-1.1,1c-0.2,0.3-0.1,0.9-0.5,1.1C-47.8-55.8-48-56.3-47.7-56.5z"/>
	</g>
	<g>
		<path class="st0" d="M-51.2-56.3c0.3,0.5,1.4,1.5,2.1,1c0,0,0,0,0.1-0.1c0,0,0.1,0,0.1,0c0.4,0.1,0.5-0.4,0.2-0.5
			c-0.1,0-0.2-0.1-0.3-0.1c0-0.1-0.1-0.2-0.2-0.3c-0.3-0.3-0.6-0.5-0.9-0.7c-0.1-0.3-0.2-0.7-0.6-0.9c-0.3-0.1-0.7,0.1-0.8,0.4
			C-51.6-57.1-51.4-56.7-51.2-56.3z"/>
	</g>
	<g>
		<path class="st0" d="M-50.9-44.5c0.3-0.1,0.6,0.4,0.2,0.5c-0.6,0.2-0.1,0.9,0,1.4c0.1,0.2,0.2,0.7,0.3,1.1c0-0.1,0-0.2,0-0.2
			c-0.1-0.4,0.5-0.5,0.6-0.1c0.1,0.3,0.1,0.6,0.2,1c0.1,0.2,0,0.4-0.3,0.4c-1-0.1-1.1-1.3-1.4-2.1C-51.5-43.4-52.1-44.2-50.9-44.5z"
			/>
	</g>
	<path class="st0" d="M-51.5-42.6c-0.1-0.3-0.2-0.5-0.2-0.8c0-0.2,0.1-0.3,0.2-0.3c0.1-0.2,0.2-0.5,0.4-0.7c0.4-0.3,0.9-0.3,1.2,0.2
		c0.4,0.5,0.3,1.5,0.2,2.1c0,0.2-0.2,0.3-0.3,0.3c0.1,0.2,0.1,0.4,0.2,0.6c0.2,0.4-0.5,0.8-0.7,0.3c-0.1-0.1-0.1-0.3-0.2-0.4
		c-0.1,0-0.1,0-0.2,0C-51.4-41.6-51.4-42.1-51.5-42.6C-51.5-42.6-51.5-42.6-51.5-42.6z"/>
	<g>
		<path class="st0" d="M-53.5-33.9c0,0-0.1-0.1-0.1-0.1c-0.4-1-1.9-4.2,0.1-4.7c1.1-0.2,1.5,0.9,1.2,1.7c0,0,0,0,0,0.1
			c0,0.4,0,0.9-0.1,1.3c-0.1,0.2-0.2,0.5-0.3,0.8c0,0.1,0,0.1,0,0.2c0,0.2-0.1,0.3-0.2,0.3c0,0.1,0,0.2,0,0.2c0,0.1,0,0.1-0.1,0.2
			c0.2,0.2,0.2,0.6-0.2,0.7C-53.5-33.3-53.6-33.7-53.5-33.9z"/>
	</g>
	<g>
		<path class="st0" d="M-48-40.7c0.3-0.4,0.7-0.9,1.1-1.3c0.1-0.3,0.3-0.6,0.5-0.7c0.1-0.3,0.3-0.5,0.5-0.7c0.4-0.4,1.3-0.8,1.8-0.2
			C-44-43.5-44-43.2-44-43c0,0.1,0.1,0.2,0,0.3c-0.1,0.3-0.3,0.5-0.5,0.7c-0.1,0.2-0.2,0.3-0.3,0.4c-0.2,0.3-0.5,0.6-0.9,0.7
			c-0.1,0-0.2,0.1-0.3,0.1c-0.4,0.3-0.8,0.5-1.3,0.6c-0.1,0-0.2,0.1-0.3,0.1C-48-40.1-48.2-40.5-48-40.7z"/>
	</g>
	<g>
		<path class="st0" d="M-51.4-32.7c0.5-0.5,1-0.9,1.5-1.4c0.5-0.5,1.4-1.5,2.2-1.2c0.6,0.2,0.5,1,0.1,1.4c0,0,0,0-0.1,0
			c-0.1,0.5-0.6,0.9-1.1,1.2c-0.7,0.5-1.9,1.2-2.8,0.9c-0.1,0-0.2-0.2-0.2-0.3C-51.7-32.3-51.6-32.5-51.4-32.7z"/>
	</g>
	<g>
		<path class="st0" d="M-50.6-51.2c-0.1-0.3,0.2-0.7,0.6-0.4c0.2,0.2,0.4,0.4,0.5,0.6c0.1,0.1,0.1,0.2,0.2,0.3
			c0.4,0.7,0.9,1.3,1.4,2c0.3,0.4-0.3,0.9-0.6,0.5c0,0-0.1-0.1-0.1-0.1c-0.1,0.1-0.1,0.1-0.2,0.1c-0.5,0.1-1-0.1-1.3-0.5
			C-50.5-49.1-51.1-50.6-50.6-51.2z"/>
	</g>
	<g>
		<path class="st0" d="M-52.7-62.4c0.4,0.7,1.4,1.3,2.1,1.6c0.1,0,0.2,0,0.3,0c0,0.1,0.1,0.2,0.1,0.3c0.2,0.5,0.8,0.1,0.7-0.3
			c-0.3-0.9-0.6-2.2-1.3-2.9c-0.4-0.4-1.3-0.8-1.9-0.5C-53.3-64-52.9-62.9-52.7-62.4z"/>
	</g>
	<path class="st0" d="M-47.7-56.8c0.4-0.8,0.2-1.8,0.6-2.5c0.1-0.2,0.3-0.4,0.6-0.4c0.1,0,0.1,0,0.2,0c0.7,0.1,1,0.8,0.6,1.4
		c-0.1,0.1-0.2,0.2-0.2,0.2c0,0.1,0,0.1,0,0.2c0,0.1-0.1,0.2-0.1,0.3c0,0.1-0.1,0.1-0.2,0.2c0,0.1,0,0.1-0.1,0.2
		c-0.2,0.4-0.5,0.8-0.8,1C-47.5-56-47.9-56.5-47.7-56.8z"/>
	<g>
		<path class="st0" d="M-62.2-13.4c0.1,0,0.1-0.1,0.2-0.2c0.2-3.3,1.5-6.8,4-10.8c0.9-1.5,2-3,3-4.4c1.7-2.4,3.5-4.9,4.8-7.7
			c3.5-7.2,3.9-16,1-23.7c0-0.1-0.1-0.1-0.2-0.1c-0.1,0-0.1,0.1-0.1,0.2c2.9,7.5,2.5,16.3-1,23.4c-1.3,2.7-3.1,5.2-4.8,7.6
			c-1,1.4-2,2.9-3,4.4c-2.5,4-3.8,7.6-4.1,10.9C-62.4-13.5-62.3-13.4-62.2-13.4C-62.2-13.4-62.2-13.4-62.2-13.4z"/>
	</g>
	<g>
		<path class="st0" d="M-52.9-32.3l-0.1-0.1c-0.8-1.3-1.8-2.8-1.8-4.4c0-0.4,0-0.9,0.3-1.4c0.3-0.5,0.7-0.8,1.2-0.8
			c0.5,0,1.1,0.3,1.3,0.9c0.2,0.4,0.2,0.9,0.1,1.5c-0.1,0.5-0.3,0.9-0.4,1.3c-0.1,0.3-0.2,0.5-0.3,0.8c-0.3,0.8-0.3,1.5,0,2.1
			c0,0.1,0,0.2-0.1,0.2c0,0,0,0,0,0C-52.8-32.3-52.9-32.3-52.9-32.3z M-54.2-38.1c-0.2,0.4-0.2,0.9-0.2,1.2c0,1.2,0.6,2.5,1.3,3.6
			c0-0.4,0.1-0.9,0.2-1.4c0.1-0.3,0.2-0.5,0.3-0.8c0.2-0.4,0.3-0.9,0.4-1.3c0.1-0.5,0.1-1-0.1-1.3c-0.2-0.4-0.6-0.7-1-0.7
			c0,0-0.1,0-0.1,0C-53.7-38.7-54-38.5-54.2-38.1z"/>
	</g>
	<g>
		<path class="st0" d="M-50.7-31.5c-0.5,0-0.9-0.2-1.3-0.4c-0.2-0.1-0.4-0.2-0.6-0.3c-0.1,0-0.1-0.1-0.1-0.2c0-0.1,0.1-0.1,0.2-0.1
			c0.3,0.1,0.8-0.1,1.2-0.5c0.3-0.3,0.7-0.6,1-0.9c0.1-0.1,0.1-0.2,0.2-0.2c0.4-0.4,0.8-0.8,1.3-1.1c0.5-0.2,1-0.3,1.3-0.1
			c0.3,0.1,0.4,0.4,0.5,0.6c0.1,0.8-0.6,1.8-1.3,2.4c-0.6,0.4-1.2,0.7-1.9,0.9C-50.3-31.5-50.5-31.5-50.7-31.5z M-48.7-35
			c-0.5,0.2-0.9,0.7-1.2,1c-0.1,0.1-0.1,0.2-0.2,0.2c-0.3,0.3-0.6,0.7-1,1c-0.1,0.1-0.5,0.3-0.8,0.5c0,0,0.1,0.1,0.1,0.1
			c0.4,0.2,0.7,0.4,1.1,0.4c0.8,0,1.6-0.3,2.2-0.8c0.7-0.6,1.3-1.5,1.2-2c0-0.2-0.1-0.3-0.3-0.4c-0.2-0.1-0.4-0.1-0.6-0.1
			C-48.4-35.1-48.5-35.1-48.7-35z"/>
	</g>
	<g>
		<path class="st0" d="M-49.1-40.1c-1.6-0.4-2.5-1.3-2.8-2.5c-0.1-0.6-0.1-1.1,0.1-1.5c0.2-0.5,0.8-0.9,1.3-0.8
			c0.7,0.1,1.1,0.8,1.1,1.4c0,0.4,0,0.8,0,1.1c0,0.2,0,0.4-0.1,0.6c0,0.3,0,1,0.5,1.4c0.1,0,0.1,0.1,0.1,0.2
			C-48.9-40.2-49-40.1-49.1-40.1C-49.1-40.1-49.1-40.1-49.1-40.1z M-51.5-43.9c-0.2,0.3-0.2,0.8,0,1.3c0.2,0.9,0.9,1.6,2,2
			c-0.2-0.4-0.2-0.9-0.2-1.2c0-0.2,0-0.4,0.1-0.6c0-0.4,0.1-0.7,0-1c-0.1-0.5-0.4-1-0.9-1.1c-0.1,0-0.1,0-0.2,0
			C-51.1-44.5-51.4-44.3-51.5-43.9z"/>
	</g>
	<g>
		<path class="st0" d="M-48.8-40c-0.1,0-0.1-0.1-0.1-0.2c0-0.1,0-0.1,0.1-0.2c0.5-0.2,1.1-1,1.5-1.5l0.1-0.1
			c0.1-0.2,0.2-0.4,0.4-0.5c0.2-0.4,0.5-0.7,0.8-1.1c0.3-0.3,0.6-0.5,0.9-0.6c0.4-0.1,0.8-0.1,1.1,0.1c0.4,0.2,0.6,0.8,0.5,1.3
			c-0.1,0.4-0.3,0.8-0.6,1.2c-0.7,0.8-1.7,1.4-2.8,1.6C-47.7-40-48.3-39.9-48.8-40z M-45.2-43.9c-0.3,0.1-0.5,0.3-0.7,0.5
			c-0.3,0.3-0.5,0.7-0.7,1c-0.1,0.2-0.2,0.4-0.4,0.5l-0.1,0.1c-0.3,0.4-0.7,1-1.2,1.4c1.4,0.1,2.8-0.5,3.7-1.5
			c0.3-0.4,0.5-0.7,0.6-1c0.1-0.4-0.1-0.8-0.4-1c-0.2-0.1-0.4-0.1-0.6-0.1C-45.1-43.9-45.2-43.9-45.2-43.9z"/>
	</g>
	<g>
		<path class="st0" d="M-49.5-59.6c-0.4-0.5-1-0.8-1.5-1.2c-0.2-0.1-0.3-0.2-0.5-0.3c-0.6-0.4-1.4-1.1-1.7-2
			c-0.2-0.5-0.2-1.1,0.3-1.5c0.3-0.2,0.6-0.3,1-0.2c0.3,0.1,0.6,0.3,0.8,0.4c1.4,1.1,1.9,3.1,1.9,4.6c0,0.1,0,0.1-0.1,0.2
			c0,0,0,0,0,0C-49.4-59.6-49.5-59.6-49.5-59.6z M-52.8-64.4c-0.3,0.2-0.3,0.7-0.2,1.1c0.3,0.8,1,1.4,1.6,1.8
			c0.2,0.1,0.3,0.2,0.5,0.3c0.4,0.3,0.9,0.6,1.3,0.9c-0.1-1.4-0.6-3-1.8-3.9c-0.2-0.1-0.4-0.3-0.7-0.4c-0.1,0-0.3,0-0.4,0
			C-52.6-64.5-52.7-64.4-52.8-64.4z"/>
	</g>
	<g>
		<path class="st0" d="M-47.5-48.3c0-0.1,0-0.2,0.1-0.2c0.4-0.3,0.7-0.8,0.8-1.5c0-0.2,0.1-0.4,0.1-0.6c0-0.4,0.1-0.8,0.2-1.2
			c0.2-0.6,0.7-1.3,1.4-1.4c0.5-0.1,1,0.3,1.1,0.9c0.1,0.4,0,1-0.3,1.6c-0.6,1.3-1.6,2.1-3.2,2.5c0,0,0,0,0,0
			C-47.4-48.2-47.4-48.2-47.5-48.3z M-46-51.6c-0.1,0.4-0.2,0.7-0.2,1.1c0,0.2,0,0.4-0.1,0.6c-0.1,0.3-0.2,0.8-0.5,1.2
			c1.1-0.4,1.9-1.1,2.4-2.1c0.2-0.5,0.3-1,0.2-1.3c-0.1-0.3-0.4-0.7-0.8-0.6c0,0,0,0-0.1,0C-45.4-52.7-45.8-52.1-46-51.6z"/>
	</g>
	<g>
		<path class="st0" d="M-48.2-55.5c-0.1,0-0.1-0.1,0-0.2c0.2-0.5,0.3-1.1,0.3-1.7c0.1-0.7,0.2-1.5,0.6-2.2c0.2-0.4,0.6-0.8,1.1-0.7
			c0.3,0.1,0.5,0.2,0.6,0.5c0.1,0.3,0.1,0.5,0.1,0.7c0,1.4-1.3,2.8-2.6,3.5c0,0,0,0,0,0C-48.1-55.5-48.1-55.5-48.2-55.5z M-47-59.4
			c-0.4,0.6-0.4,1.3-0.5,2c-0.1,0.4-0.1,0.9-0.2,1.4c1.1-0.7,2-1.8,2-3c0-0.3,0-0.4-0.1-0.6c-0.1-0.2-0.2-0.3-0.4-0.3
			c-0.1,0-0.1,0-0.2,0C-46.7-59.9-46.9-59.6-47-59.4z"/>
	</g>
	<g>
		<path class="st0" d="M-49.9-55.1c-0.6-0.1-1.1-0.5-1.5-1c-0.3-0.4-0.5-0.9-0.4-1.3c0-0.3,0.1-0.5,0.3-0.6c0.2-0.1,0.4-0.2,0.6-0.2
			c0.4,0.1,0.7,0.4,1,0.7c0.1,0.1,0.3,0.3,0.4,0.5c0.4,0.5,0.8,1.1,1.3,1.3c0.1,0,0.1,0.1,0.1,0.1c0,0.1,0,0.1-0.1,0.2
			c-0.2,0.2-0.5,0.3-0.8,0.4C-49.4-55.1-49.6-55.1-49.9-55.1z M-49.9-56.9c-0.1-0.2-0.3-0.3-0.4-0.5c-0.2-0.3-0.5-0.5-0.7-0.6
			c-0.1,0-0.2,0-0.3,0.1c-0.1,0.1-0.2,0.2-0.2,0.4c0,0.3,0.1,0.7,0.4,1c0.3,0.5,0.8,0.8,1.3,0.9c0.4,0.1,0.8,0,1.1-0.1
			C-49.2-55.9-49.5-56.4-49.9-56.9z"/>
	</g>
	<g>
		<path class="st0" d="M-49.1-48.1c-0.6-0.2-1.1-0.5-1.5-1.1c-0.4-0.6-0.6-1.4-0.4-2c0.1-0.5,0.5-0.8,0.9-0.7
			c0.4,0.1,0.8,0.5,1.1,0.9c0.3,0.4,0.6,0.9,0.8,1.3c0.2,0.4,0.5,0.9,0.8,1.3c0,0,0,0.1,0,0.2c0,0.1-0.1,0.1-0.1,0.1
			c-0.1,0-0.1,0-0.2,0C-48.2-48-48.7-48-49.1-48.1z M-50.7-51c-0.1,0.5,0,1.2,0.4,1.7c0.3,0.5,0.8,0.8,1.3,0.9
			c0.4,0.1,0.7,0.1,1.2,0c-0.2-0.3-0.4-0.7-0.6-1.1c-0.2-0.4-0.5-0.9-0.8-1.3c-0.3-0.4-0.6-0.7-0.9-0.8c0,0-0.1,0-0.1,0
			C-50.5-51.4-50.7-51.2-50.7-51z"/>
	</g>
	
		<text transform="matrix(0.9255 -0.3788 0.3788 0.9255 -90.8144 -35.3901)" class="st0" style="font-family:'Nickainley'; font-size:11.8089px;">Cry Baby</text>
	
		<text transform="matrix(0.917 -0.399 0.399 0.917 -76.1438 -34.9282)" class="st0" style="font-family:'Nickainley'; font-size:6.5101px;">brewery</text>
</g>
<path id="XMLID_1533_" class="st1" d="M34.1,121.5l4,3.8l7.4,0.6l0.4,1.9l-1.4,4.3l-3.2,1l4.7,2.9l7.4-1l0.8,1.7l-0.5,4.5l-2.9,1.6
	l5.2,1.9l7-2.5l1.1,1.6l0.5,4.5l-2.5,2.2l5.5,0.7l6.4-3.9l1.4,1.3l1.4,4.3l-2,2.7l5.5-0.4l5.4-5.1l1.6,1l2.3,3.9l-1.4,3l5.3-1.6
	l4.2-6.1l1.8,0.6l3,3.3l-0.7,3.3l4.9-2.6l2.9-6.9l1.9,0.2l3.6,2.6l0,3.3l4.2-3.6l1.4-7.3l1.9-0.2l4.1,1.8l0.7,3.3l3.4-4.4l-0.2-7.5
	l1.8-0.6l4.4,0.9l1.3,3.1l2.4-5l-1.7-7.3l1.7-0.9h4.5l1.9,2.7l1.3-5.4l-3.2-6.7l1.4-1.3l4.4-0.9l2.5,2.3l0.2-5.5l-4.5-5.9l1.1-1.5
	l4.1-1.8l2.9,1.7l-1-5.5l-5.7-4.9l0.8-1.7l3.6-2.6l3.2,1.1l-2.1-5.1l-6.6-3.6l0.4-1.9l3-3.3l3.3,0.4l-3.1-4.6l-7.2-2.1l0-1.9
	l2.3-3.9l3.3-0.3l-4-3.8l-7.4-0.6l-0.4-1.9l1.4-4.3l3.2-1l-4.7-2.9l-7.4,1l-0.8-1.7l0.5-4.5l2.9-1.6l-5.2-1.9l-7,2.5l-1.1-1.6
	l-0.5-4.5l2.5-2.2l-5.5-0.7l-6.4,3.9l-1.4-1.3l-1.4-4.3l2-2.7l-5.5,0.4l-5.4,5.1l-1.6-1l-2.3-3.9l1.4-3l-5.3,1.6l-4.2,6.2l-1.8-0.6
	l-3-3.3l0.7-3.3l-4.9,2.6l-2.9,6.9l-1.9-0.2l-3.6-2.6l0-3.3L66.1,35l-1.4,7.3l-1.9,0.2l-4.1-1.8l-0.7-3.3l-3.4,4.4l0.2,7.5l-1.8,0.6
	l-4.4-0.9l-1.3-3.1l-2.4,5l1.7,7.3L45,59l-4.5,0l-1.9-2.7l-1.3,5.4l3.2,6.7L39,69.7l-4.4,0.9l-2.5-2.3L32,73.9l4.5,5.9l-1.1,1.5
	l-4.1,1.8l-2.9-1.7l1,5.5l5.7,4.9l-0.8,1.7l-3.6,2.6l-3.2-1.1l2.1,5.1l6.6,3.6l-0.4,1.9l-3,3.3l-3.3-0.4l3.1,4.6l7.2,2.1l0,1.9
	l-2.3,3.9L34.1,121.5z"/>
<path id="XMLID_467_" class="st0" d="M92.7,145.1c-28.9,0-52.4-23.5-52.4-52.4s23.5-52.4,52.4-52.4s52.4,23.5,52.4,52.4
	S121.6,145.1,92.7,145.1z M92.7,41.9c-28,0-50.9,22.8-50.9,50.9s22.8,50.9,50.9,50.9s50.9-22.8,50.9-50.9S120.8,41.9,92.7,41.9z"/>
<g id="XMLID_470_">
	<rect id="XMLID_1502_" x="0.9" y="69.1" class="st1" width="183.7" height="47.3"/>
	<path id="XMLID_471_" class="st1" d="M185.4,117.2H0.1V68.3h185.3L185.4,117.2L185.4,117.2z M1.6,115.6h182.2V69.9H1.6V115.6z"/>
</g>
<g id="XMLID_474_">
	<path id="XMLID_475_" class="st0" d="M7.2,110.6V106h2.5V79.5H7.2v-4.7h22.5l5.5,5.3v25.2l-5.5,5.3L7.2,110.6L7.2,110.6z M25.7,106
		l2.6-2.4V82l-2.6-2.5h-9.1V106L25.7,106L25.7,106z"/>
	<path id="XMLID_478_" class="st0" d="M38.3,110.6V106h2.5V79.5h-2.5v-4.7h22.5l5.5,5.3v8.3L62.4,92l3.8,3.6V106h2.5v4.7h-9.4V96.9
		l-2.6-2.5h-9.1V106h2.5v4.7L38.3,110.6L38.3,110.6z M56.7,89.7l2.6-2.5V82l-2.6-2.5h-9.1v10.2L56.7,89.7L56.7,89.7z"/>
	<path id="XMLID_481_" class="st0" d="M71,110.6V106h1.8L82,79.5h-2.7v-4.7h17.6v4.7H94l9.1,26.5h1.9v4.7H93.5V106h2.3l-2.2-6.3
		H82.2l-2.2,6.3h2.3v4.7H71z M92.5,96.5l-4.5-13.2l-4.5,13.2H92.5z"/>
	<path id="XMLID_484_" class="st0" d="M107.2,110.6V106l18.4-26.5H112v2.4h-4.8v-7h26.6v4.7L115.5,106H129v-2.4h4.8v7H107.2z"/>
	<path id="XMLID_486_" class="st0" d="M136.1,110.6V106h2.5V79.5h-2.5v-4.7H148v4.7h-2.5V106h2.5v4.7H136.1z"/>
	<path id="XMLID_488_" class="st0" d="M151.1,105.4V80.1l5.5-5.3h16.2l5.5,5.3v5.7h-6.9V82l-2.5-2.5h-8.3L158,82v21.6l2.5,2.4h8.3
		l2.5-2.4v-3.7h6.9v5.5l-5.5,5.3h-16.2L151.1,105.4z"/>
</g>
<g>
	<path class="st0" d="M-128.2,64.4c-0.7,0-1.3,0-2,0.1l13.9-13.9c0.6-0.6,0.6-1.5,0-2.1c-0.6-0.6-1.5-0.6-2.1,0l-19.7,19.7
		c0,0-0.1,0.1-0.1,0.1c-2.8,2.7-4.3,6.4-4.3,10.3c0,4.3,1.9,8.3,5.2,11.1c2.6,2.1,5.8,3.3,9.1,3.3c7.9,0,14.4-6.4,14.4-14.4
		S-120.3,64.4-128.2,64.4z M-128.2,90.2c-2.7,0-5.2-0.9-7.3-2.6c-2.6-2.2-4.2-5.4-4.2-8.8c0-3.2,1.3-6.1,3.6-8.3
		c2.1-2,4.9-3.1,7.9-3.1c6.3,0,11.5,5.1,11.5,11.5S-121.9,90.2-128.2,90.2z"/>
	<g>
		<path class="st0" d="M-137.6,63.8c-0.4,0-0.7-0.1-1-0.4c-0.6-0.6-0.6-1.5,0-2.1l10.2-10.2h-0.2c-0.8,0-1.5-0.7-1.5-1.5
			s0.7-1.5,1.5-1.5h3.8c0.6,0,1.1,0.4,1.3,0.9c0.2,0.5,0.1,1.2-0.3,1.6l-12.6,12.6C-136.8,63.6-137.2,63.8-137.6,63.8z"/>
	</g>
	<path class="st0" d="M-143.3,64.4c-0.7,0-1.3,0-2,0.1l13.8-13.8c0.4-0.4,0.5-1,0.3-1.6c-0.2-0.5-0.8-0.9-1.3-0.9h-20.8
		c-0.8,0-1.5,0.7-1.5,1.5c0,0.8,0.7,1.5,1.5,1.5h17.3l-17.2,17.2c0,0,0,0,0,0c-0.4,0.4-0.8,0.8-1.2,1.3c-0.5,0.6-0.4,1.5,0.2,2
		c0.6,0.5,1.5,0.4,2-0.2c0.3-0.3,0.6-0.7,0.9-1c0,0,0,0,0,0l0,0c2.1-2,4.9-3.1,7.9-3.1c6.3,0,11.5,5.1,11.5,11.5
		c0,6.3-5.1,11.5-11.5,11.5c-2.7,0-5.2-0.9-7.3-2.6c-0.6-0.5-1.1-1-1.5-1.5c-0.5-0.6-1.4-0.7-2-0.2c-0.6,0.5-0.7,1.4-0.2,2
		c0.6,0.7,1.2,1.4,1.9,1.9c2.6,2.1,5.8,3.3,9.1,3.3c7.9,0,14.4-6.4,14.4-14.4S-135.3,64.4-143.3,64.4z"/>
	<g class="st2">
		<path class="st0" d="M-135.7,91c0.2,0.1,0.4,0.2,0.6,0.3c0.9-0.6,1.7-1.3,2.5-2c-0.2-0.1-0.4-0.2-0.6-0.3
			C-134,89.8-134.8,90.5-135.7,91z"/>
	</g>
	<g class="st2">
		<path class="st0" d="M-135.3,70.5c0.8-0.7,1.6-1.2,2.5-1.6c-0.1-0.1-0.3-0.3-0.4-0.4c-0.9,0.4-1.7,1-2.5,1.7
			C-135.6,70.3-135.5,70.4-135.3,70.5z"/>
	</g>
	<g>
		<path class="st0" d="M-155,98.7v1.9c0,0.2,0,0.3,0.1,0.4c0.1,0.1,0.2,0.2,0.4,0.2c0.2,0,0.3-0.1,0.5-0.2l0.3,0.6
			c-0.3,0.2-0.6,0.4-0.9,0.4c-0.3,0-0.6-0.1-0.9-0.3s-0.4-0.5-0.4-0.9v-1.9h-0.5v-0.6h0.5v-1.2h0.8v1.2h1v0.6H-155z"/>
		<path class="st0" d="M-152.2,99.8v2h-0.8v-5.2h0.8v2.2c0.1-0.2,0.3-0.4,0.5-0.5c0.2-0.1,0.5-0.2,0.7-0.2c0.4,0,0.8,0.1,1,0.4
			c0.3,0.3,0.4,0.6,0.4,1.1v2.3h-0.8v-2.1c0-0.7-0.3-1-0.9-1c-0.3,0-0.5,0.1-0.7,0.3C-152.1,99.2-152.2,99.4-152.2,99.8z"/>
		<path class="st0" d="M-146.5,98.8c-0.4,0-0.7,0.1-0.9,0.4c-0.2,0.3-0.3,0.6-0.3,1v1.6h-0.8v-3.8h0.8v0.8c0.1-0.2,0.3-0.4,0.5-0.6
			c0.2-0.2,0.5-0.2,0.7-0.2L-146.5,98.8C-146.4,98.8-146.4,98.8-146.5,98.8z"/>
		<path class="st0" d="M-142.1,100.3h-2.9c0,0.3,0.1,0.5,0.4,0.7c0.2,0.2,0.5,0.3,0.8,0.3c0.5,0,0.8-0.1,1.1-0.4l0.5,0.5
			c-0.4,0.4-0.9,0.6-1.6,0.6c-0.5,0-1-0.2-1.3-0.5c-0.4-0.4-0.6-0.8-0.6-1.4c0-0.6,0.2-1.1,0.6-1.4c0.4-0.3,0.8-0.5,1.3-0.5
			c0.5,0,0.9,0.2,1.3,0.5c0.4,0.3,0.5,0.7,0.5,1.3V100.3z M-145.1,99.7h2.2c0-0.3-0.1-0.6-0.3-0.7s-0.4-0.3-0.7-0.3
			s-0.6,0.1-0.8,0.3C-145,99.1-145.1,99.4-145.1,99.7z"/>
		<path class="st0" d="M-137.8,100.3h-2.9c0,0.3,0.1,0.5,0.4,0.7c0.2,0.2,0.5,0.3,0.8,0.3c0.5,0,0.8-0.1,1.1-0.4l0.5,0.5
			c-0.4,0.4-0.9,0.6-1.6,0.6c-0.5,0-1-0.2-1.3-0.5c-0.4-0.4-0.6-0.8-0.6-1.4c0-0.6,0.2-1.1,0.6-1.4c0.4-0.3,0.8-0.5,1.3-0.5
			s0.9,0.2,1.3,0.5c0.4,0.3,0.5,0.7,0.5,1.3V100.3z M-140.7,99.7h2.2c0-0.3-0.1-0.6-0.3-0.7s-0.4-0.3-0.7-0.3s-0.6,0.1-0.8,0.3
			C-140.6,99.1-140.7,99.4-140.7,99.7z"/>
		<path class="st0" d="M-134.2,100.7c0,0.4-0.1,0.6-0.4,0.9c-0.3,0.2-0.6,0.3-1,0.3c-0.3,0-0.6,0-0.9-0.1c-0.3-0.1-0.6-0.2-0.8-0.4
			l0.4-0.6c0.4,0.3,0.9,0.5,1.3,0.5c0.2,0,0.3,0,0.4-0.1c0.1-0.1,0.2-0.2,0.2-0.3c0-0.2-0.2-0.4-0.7-0.5c0,0-0.1,0-0.1,0
			c-0.8-0.2-1.2-0.6-1.2-1.1c0-0.3,0.1-0.6,0.4-0.8c0.3-0.2,0.6-0.3,1.1-0.3c0.4,0,0.8,0.1,1.2,0.4l-0.3,0.6c-0.3-0.2-0.6-0.3-1-0.3
			c-0.2,0-0.3,0-0.5,0.1c-0.1,0.1-0.2,0.2-0.2,0.3c0,0.1,0.1,0.2,0.2,0.3c0.1,0,0.2,0.1,0.4,0.1c0.2,0,0.3,0.1,0.4,0.1
			c0.1,0,0.2,0.1,0.3,0.1c0.1,0,0.2,0.1,0.4,0.2C-134.3,100.1-134.2,100.3-134.2,100.7z"/>
		<path class="st0" d="M-133.3,97.3c-0.1-0.1-0.1-0.2-0.1-0.4c0-0.1,0-0.3,0.1-0.4c0.1-0.1,0.2-0.1,0.4-0.1c0.1,0,0.3,0,0.4,0.1
			s0.1,0.2,0.1,0.4c0,0.1,0,0.3-0.1,0.4s-0.2,0.1-0.4,0.1C-133,97.5-133.2,97.4-133.3,97.3z M-132.5,101.8h-0.8v-3.8h0.8V101.8z"/>
		<path class="st0" d="M-130.8,98.1l0.8,1.2l0.8-1.2h0.9l-1.3,1.8l1.4,1.9h-1l-0.9-1.3l-0.9,1.3h-0.9l1.3-1.9l-1.3-1.8H-130.8z"/>
		<path class="st0" d="M-126.5,98.7v1.9c0,0.2,0,0.3,0.1,0.4c0.1,0.1,0.2,0.2,0.4,0.2c0.2,0,0.3-0.1,0.5-0.2l0.3,0.6
			c-0.3,0.2-0.6,0.4-0.9,0.4c-0.3,0-0.6-0.1-0.9-0.3s-0.4-0.5-0.4-0.9v-1.9h-0.5v-0.6h0.5v-1.2h0.8v1.2h1v0.6H-126.5z"/>
		<path class="st0" d="M-121,100.3h-2.9c0,0.3,0.1,0.5,0.4,0.7c0.2,0.2,0.5,0.3,0.8,0.3c0.5,0,0.8-0.1,1.1-0.4l0.5,0.5
			c-0.4,0.4-0.9,0.6-1.6,0.6c-0.5,0-1-0.2-1.3-0.5c-0.4-0.4-0.6-0.8-0.6-1.4c0-0.6,0.2-1.1,0.6-1.4c0.4-0.3,0.8-0.5,1.3-0.5
			c0.5,0,0.9,0.2,1.3,0.5c0.4,0.3,0.5,0.7,0.5,1.3V100.3z M-123.9,99.7h2.2c0-0.3-0.1-0.6-0.3-0.7s-0.4-0.3-0.7-0.3
			s-0.6,0.1-0.8,0.3C-123.8,99.1-123.9,99.4-123.9,99.7z"/>
		<path class="st0" d="M-116.6,100.3h-2.9c0,0.3,0.1,0.5,0.4,0.7c0.2,0.2,0.5,0.3,0.8,0.3c0.5,0,0.8-0.1,1.1-0.4l0.5,0.5
			c-0.4,0.4-0.9,0.6-1.6,0.6c-0.5,0-1-0.2-1.3-0.5c-0.4-0.4-0.6-0.8-0.6-1.4c0-0.6,0.2-1.1,0.6-1.4c0.4-0.3,0.8-0.5,1.3-0.5
			s0.9,0.2,1.3,0.5c0.4,0.3,0.5,0.7,0.5,1.3V100.3z M-119.6,99.7h2.2c0-0.3-0.1-0.6-0.3-0.7s-0.4-0.3-0.7-0.3s-0.6,0.1-0.8,0.3
			C-119.4,99.1-119.6,99.4-119.6,99.7z"/>
		<path class="st0" d="M-115,99.8v2h-0.8v-3.8h0.8v0.7c0.1-0.2,0.3-0.4,0.5-0.5c0.2-0.1,0.5-0.2,0.7-0.2c0.4,0,0.8,0.1,1,0.4
			c0.3,0.3,0.4,0.6,0.4,1.1v2.3h-0.8v-2.1c0-0.7-0.3-1-0.9-1c-0.3,0-0.5,0.1-0.7,0.3C-114.9,99.2-115,99.4-115,99.8z"/>
	</g>
	<g>
		<path class="st0" d="M-147.1,106.3c0,0.2-0.1,0.4-0.2,0.5c-0.1,0.1-0.3,0.2-0.6,0.2c-0.2,0-0.3,0-0.5-0.1
			c-0.2-0.1-0.3-0.1-0.4-0.2l0.2-0.3c0.2,0.2,0.5,0.3,0.7,0.3c0.1,0,0.2,0,0.2-0.1c0.1,0,0.1-0.1,0.1-0.2c0-0.1-0.1-0.2-0.4-0.3
			c0,0,0,0,0,0c-0.4-0.1-0.7-0.3-0.7-0.6c0-0.2,0.1-0.3,0.2-0.5c0.2-0.1,0.3-0.2,0.6-0.2c0.2,0,0.5,0.1,0.7,0.2l-0.2,0.3
			c-0.2-0.1-0.4-0.2-0.6-0.2c-0.1,0-0.2,0-0.3,0.1c-0.1,0-0.1,0.1-0.1,0.2c0,0.1,0,0.1,0.1,0.1c0,0,0.1,0,0.2,0.1
			c0.1,0,0.2,0,0.2,0.1c0.1,0,0.1,0,0.2,0.1c0.1,0,0.1,0.1,0.2,0.1C-147.1,106-147.1,106.1-147.1,106.3z"/>
		<path class="st0" d="M-146,105.2v1.1c0,0.1,0,0.2,0.1,0.2c0.1,0.1,0.1,0.1,0.2,0.1s0.2,0,0.3-0.1l0.2,0.3
			c-0.2,0.1-0.3,0.2-0.5,0.2c-0.2,0-0.3-0.1-0.5-0.2c-0.1-0.1-0.2-0.3-0.2-0.5v-1.1h-0.3v-0.4h0.3v-0.7h0.4v0.7h0.6v0.4H-146z"/>
		<path class="st0" d="M-143.8,105.3c-0.2,0-0.4,0.1-0.5,0.2c-0.1,0.1-0.2,0.3-0.2,0.6v0.9h-0.4v-2.1h0.4v0.4
			c0.1-0.1,0.2-0.2,0.3-0.3c0.1-0.1,0.3-0.1,0.4-0.1L-143.8,105.3C-143.8,105.3-143.8,105.3-143.8,105.3z"/>
		<path class="st0" d="M-141.7,107h-0.4v-0.3c-0.2,0.2-0.4,0.3-0.7,0.3c-0.2,0-0.4-0.1-0.5-0.2s-0.2-0.3-0.2-0.5s0.1-0.4,0.2-0.5
			c0.2-0.1,0.4-0.2,0.6-0.2h0.6v-0.1c0-0.3-0.2-0.4-0.5-0.4c-0.2,0-0.4,0.1-0.6,0.2l-0.2-0.3c0.3-0.2,0.5-0.3,0.9-0.3
			c0.2,0,0.4,0.1,0.6,0.2c0.2,0.1,0.2,0.3,0.2,0.6V107z M-142.1,106.2V106h-0.5c-0.3,0-0.5,0.1-0.5,0.3c0,0.1,0,0.2,0.1,0.2
			c0.1,0.1,0.2,0.1,0.3,0.1c0.1,0,0.3,0,0.4-0.1C-142.2,106.4-142.1,106.3-142.1,106.2z"/>
		<path class="st0" d="M-140.6,105.2v1.1c0,0.1,0,0.2,0.1,0.2c0.1,0.1,0.1,0.1,0.2,0.1s0.2,0,0.3-0.1l0.2,0.3
			c-0.2,0.1-0.3,0.2-0.5,0.2c-0.2,0-0.3-0.1-0.5-0.2c-0.1-0.1-0.2-0.3-0.2-0.5v-1.1h-0.3v-0.4h0.3v-0.7h0.4v0.7h0.6v0.4H-140.6z"/>
		<path class="st0" d="M-137.5,106.1h-1.6c0,0.2,0.1,0.3,0.2,0.4c0.1,0.1,0.3,0.1,0.4,0.1c0.3,0,0.5-0.1,0.6-0.2l0.3,0.3
			c-0.2,0.2-0.5,0.4-0.9,0.4c-0.3,0-0.5-0.1-0.8-0.3c-0.2-0.2-0.3-0.5-0.3-0.8c0-0.3,0.1-0.6,0.3-0.8c0.2-0.2,0.5-0.3,0.7-0.3
			c0.3,0,0.5,0.1,0.7,0.3s0.3,0.4,0.3,0.7V106.1z M-139.1,105.8h1.2c0-0.2-0.1-0.3-0.2-0.4c-0.1-0.1-0.2-0.1-0.4-0.1
			c-0.2,0-0.3,0-0.4,0.1C-139.1,105.5-139.1,105.6-139.1,105.8z"/>
		<path class="st0" d="M-135.1,104.9v1.8c0,0.4-0.1,0.6-0.3,0.8c-0.2,0.2-0.5,0.3-0.8,0.3c-0.3,0-0.6-0.1-0.9-0.3l0.2-0.3
			c0.2,0.2,0.4,0.2,0.6,0.2c0.2,0,0.4-0.1,0.5-0.2c0.1-0.1,0.2-0.3,0.2-0.5v-0.3c-0.1,0.1-0.2,0.2-0.3,0.3c-0.1,0.1-0.3,0.1-0.4,0.1
			c-0.3,0-0.5-0.1-0.7-0.3c-0.2-0.2-0.3-0.4-0.3-0.7s0.1-0.5,0.3-0.7c0.2-0.2,0.4-0.3,0.7-0.3c0.3,0,0.5,0.1,0.7,0.3v-0.3H-135.1z
			 M-136.7,105.8c0,0.2,0.1,0.3,0.2,0.4c0.1,0.1,0.2,0.2,0.4,0.2c0.2,0,0.3-0.1,0.4-0.2c0.1-0.1,0.2-0.3,0.2-0.5
			c0-0.2-0.1-0.3-0.2-0.5c-0.1-0.1-0.3-0.2-0.4-0.2s-0.3,0.1-0.4,0.2C-136.7,105.5-136.7,105.7-136.7,105.8z"/>
		<path class="st0" d="M-134.2,107.8c-0.2,0-0.4-0.1-0.5-0.2l0.2-0.4c0.1,0.1,0.2,0.1,0.3,0.1s0.2,0,0.2-0.1
			c0.1-0.1,0.1-0.1,0.1-0.2c0,0-0.3-0.8-0.8-2.2h0.5l0.6,1.5l0.6-1.5h0.5l-1,2.5c-0.1,0.1-0.1,0.2-0.3,0.3
			C-133.9,107.8-134,107.8-134.2,107.8z"/>
		<path class="st0" d="M-129.2,104.9v1.8c0,0.4-0.1,0.6-0.3,0.8c-0.2,0.2-0.5,0.3-0.8,0.3c-0.3,0-0.6-0.1-0.9-0.3l0.2-0.3
			c0.2,0.2,0.4,0.2,0.6,0.2c0.2,0,0.4-0.1,0.5-0.2c0.1-0.1,0.2-0.3,0.2-0.5v-0.3c-0.1,0.1-0.2,0.2-0.3,0.3c-0.1,0.1-0.3,0.1-0.4,0.1
			c-0.3,0-0.5-0.1-0.7-0.3c-0.2-0.2-0.3-0.4-0.3-0.7s0.1-0.5,0.3-0.7c0.2-0.2,0.4-0.3,0.7-0.3c0.3,0,0.5,0.1,0.7,0.3v-0.3H-129.2z
			 M-130.8,105.8c0,0.2,0.1,0.3,0.2,0.4c0.1,0.1,0.2,0.2,0.4,0.2c0.2,0,0.3-0.1,0.4-0.2c0.1-0.1,0.2-0.3,0.2-0.5
			c0-0.2-0.1-0.3-0.2-0.5c-0.1-0.1-0.3-0.2-0.4-0.2s-0.3,0.1-0.4,0.2C-130.8,105.5-130.8,105.7-130.8,105.8z"/>
		<path class="st0" d="M-127.4,105.3c-0.2,0-0.4,0.1-0.5,0.2c-0.1,0.1-0.2,0.3-0.2,0.6v0.9h-0.4v-2.1h0.4v0.4
			c0.1-0.1,0.2-0.2,0.3-0.3c0.1-0.1,0.3-0.1,0.4-0.1L-127.4,105.3C-127.4,105.3-127.4,105.3-127.4,105.3z"/>
		<path class="st0" d="M-125.3,106.7c-0.2,0.2-0.5,0.3-0.8,0.3c-0.3,0-0.6-0.1-0.8-0.3c-0.2-0.2-0.3-0.5-0.3-0.8
			c0-0.3,0.1-0.6,0.3-0.8c0.2-0.2,0.5-0.3,0.8-0.3c0.3,0,0.6,0.1,0.8,0.3c0.2,0.2,0.3,0.5,0.3,0.8
			C-124.9,106.2-125,106.5-125.3,106.7z M-126.5,106.4c0.1,0.1,0.3,0.2,0.5,0.2c0.2,0,0.3-0.1,0.5-0.2s0.2-0.3,0.2-0.5
			c0-0.2-0.1-0.4-0.2-0.5s-0.3-0.2-0.5-0.2c-0.2,0-0.3,0.1-0.5,0.2s-0.2,0.3-0.2,0.5C-126.7,106.1-126.6,106.3-126.5,106.4z"/>
		<path class="st0" d="M-123,106v-1.1h0.4v2.1h-0.4v-0.4c-0.1,0.1-0.2,0.2-0.3,0.3c-0.1,0.1-0.3,0.1-0.4,0.1c-0.2,0-0.4-0.1-0.6-0.2
			c-0.1-0.1-0.2-0.4-0.2-0.6v-1.3h0.4v1.1c0,0.4,0.2,0.6,0.5,0.6c0.2,0,0.3-0.1,0.4-0.2C-123,106.4-123,106.2-123,106z"/>
		<path class="st0" d="M-120.8,104.8c0.3,0,0.5,0.1,0.7,0.3c0.2,0.2,0.3,0.5,0.3,0.8c0,0.3-0.1,0.6-0.3,0.8
			c-0.2,0.2-0.4,0.3-0.7,0.3c-0.3,0-0.5-0.1-0.7-0.3v1.1h-0.4v-2.9h0.4v0.4C-121.3,105-121.1,104.8-120.8,104.8z M-121.5,105.9
			c0,0.2,0.1,0.4,0.2,0.5c0.1,0.1,0.3,0.2,0.4,0.2c0.2,0,0.3-0.1,0.5-0.2s0.2-0.3,0.2-0.5c0-0.2-0.1-0.4-0.2-0.5
			c-0.1-0.1-0.3-0.2-0.5-0.2c-0.2,0-0.3,0.1-0.4,0.2C-121.4,105.6-121.5,105.7-121.5,105.9z"/>
	</g>
</g>
</svg>
