<?xml version="1.0" encoding="utf-8"?>
<!-- Generator: Adobe Illustrator 19.1.0, SVG Export Plug-In . SVG Version: 6.00 Build 0)  -->
<svg version="1.1" xmlns="http://www.w3.org/2000/svg" xmlns:xlink="http://www.w3.org/1999/xlink" x="0px" y="0px"
	 viewBox="0 0 1536 471.764" enable-background="new 0 0 1536 471.764" xml:space="preserve">
<g id="skyline">
	<g>
		<g>
			<path fill="#00A79F" d="M317.572,157.303c0.204,0.208,0.31,0.519,0.31,0.931c0,3.525-0.985,6.632-2.952,9.321
				c-1.971,2.694-4.611,5.077-7.922,7.145c-6.009,3.523-13.466,5.28-22.368,5.28c-7.874,0-15.331-0.358-22.368-1.087
				c-7.043-0.723-13.879-1.602-20.505-2.64c-0.621,1.039-1.242,2.073-1.865,3.106c-0.621,1.04-1.242,2.073-1.863,3.107
				c-5.592,10.564-10.616,22.165-15.067,34.796c-4.457,12.637-8.441,24.543-11.962,35.728c-1.242,4.349-2.485,8.389-3.728,12.116
				h27.65c1.865,0,3.418,0.675,4.661,2.021c1.242,1.348,1.863,2.952,1.863,4.815c0,1.66-0.621,3.161-1.863,4.505
				c-1.242,1.35-2.796,2.019-4.661,2.019h-32c-0.829,2.282-1.554,4.403-2.175,6.369c-0.621,1.971-1.242,3.99-1.863,6.059
				c-3.938,12.223-8.078,24.131-12.427,35.728c-4.349,11.602-9.685,21.855-16,30.758c-6.32,8.907-14.087,16.048-23.301,21.436
				c-9.218,5.384-20.661,7.972-34.33,7.768h-2.485c-8.287-0.419-15.588-2.228-21.903-5.438c-6.32-3.213-11.758-7.301-16.311-12.272
				c-9.116-10.564-13.462-23.301-13.048-38.214v-2.485c0.413-9.32,2.534-17.553,6.369-24.699c3.83-7.145,8.545-13.408,14.136-18.796
				c6.834-6.627,14.446-11.544,22.834-14.758c8.389-3.209,16.311-4.918,23.768-5.126c1.863,0,3.417,0.675,4.659,2.019
				c1.244,1.35,1.865,2.85,1.865,4.505c0,1.863-0.621,3.471-1.865,4.815c-1.242,1.35-2.796,2.021-4.659,2.021
				c-6.011,0-12.379,1.348-19.107,4.038c-6.734,2.694-12.893,6.63-18.486,11.806c-4.557,4.349-8.34,9.426-11.339,15.223
				c-3.005,5.801-4.713,12.325-5.126,19.573v1.863v0.311c0,11.602,3.311,21.334,9.941,29.204c3.311,3.728,7.403,6.786,12.273,9.164
				c4.863,2.378,10.407,3.776,16.621,4.194h1.863c11.185,0.205,20.661-2.125,28.427-6.99s14.34-11.389,19.728-19.573
				c5.384-8.18,10.043-17.5,13.981-27.962c3.932-10.456,7.66-21.174,11.184-32.154c0.413-1.447,0.879-2.899,1.398-4.349
				c0.515-1.447,0.981-2.797,1.399-4.04h-18.02c-1.863,0-3.417-0.669-4.659-2.019c-1.244-1.344-1.865-2.845-1.865-4.505
				c0-1.863,0.621-3.467,1.865-4.815c1.242-1.346,2.796-2.021,4.659-2.021h22.37c0.825-2.277,1.654-4.815,2.485-7.611
				c0.825-2.796,1.757-5.641,2.796-8.543c3.52-11.185,7.559-23.301,12.117-36.349c4.553-13.048,9.834-25.166,15.844-36.349
				c0.204-0.623,0.723-1.554,1.554-2.797c-6.011-1.446-11.86-2.952-17.553-4.504c-5.699-1.554-11.239-3.155-16.621-4.816
				c-10.772-3.106-21.234-5.903-31.379-8.388c-10.151-2.486-20.611-3.728-31.379-3.728c-4.971,0-9.839,1.087-14.602,3.261
				c-4.767,2.175-9.01,5.126-12.737,8.855c-3.938,3.525-7.045,7.666-9.321,12.427c-2.281,4.767-3.626,9.529-4.038,14.292
				c-0.417,7.455,0.621,13.568,3.107,18.329c2.485,5.389,6.315,9.428,11.495,12.117c5.174,2.902,11.285,4.557,18.33,4.971
				c4.971,0.417,10.145,0,15.533-1.242c5.384-1.244,10.666-3.001,15.844-5.282c1.655-0.825,3.311-0.932,4.972-0.311
				c1.655,0.621,2.898,1.763,3.728,3.418c0.825,1.66,0.931,3.315,0.31,4.971c-0.621,1.66-1.762,2.902-3.417,3.728
				c-12.637,5.8-25.166,8.388-37.593,7.766c-9.116-0.413-17.194-2.588-24.232-6.524c-3.525-2.069-6.734-4.553-9.631-7.457
				c-2.903-2.898-5.282-6.417-7.145-10.562c-3.525-7.039-4.971-15.223-4.349-24.545c0.412-6.626,2.175-13.048,5.282-19.261
				c3.106-6.214,7.145-11.699,12.116-16.467c4.763-4.761,10.301-8.543,16.621-11.339c6.316-2.796,12.893-4.194,19.728-4.194
				c11.597,0,22.728,1.242,33.398,3.728c10.666,2.485,21.694,5.49,33.088,9.009c6.005,1.661,12.272,3.369,18.796,5.126
				c6.524,1.763,13.306,3.471,20.349,5.126c2.277-2.485,4.659-4.709,7.145-6.68c2.486-1.965,5.072-3.776,7.766-5.436
				c6.005-3.519,12.165-6.107,18.486-7.766c6.315-1.655,12.373-2.588,18.175-2.797h0.31h0.623c7.455,0,13.562,1.244,18.329,3.728
				C314.047,146.118,317.362,150.885,317.572,157.303z M304.523,157.924c0-1.244-0.932-2.277-2.796-3.107
				c-2.903-1.655-7.045-2.486-12.427-2.486h-0.311h-0.621c-4.559,0.209-9.428,1.04-14.602,2.486
				c-5.18,1.452-10.253,3.626-15.223,6.524c-1.039,0.417-1.917,0.932-2.64,1.554c-0.729,0.621-1.607,1.242-2.642,1.863
				c4.971,0.623,10.044,1.142,15.223,1.554c5.174,0.417,10.564,0.621,16.156,0.621c6.418,0,11.597-1.135,15.534-3.417
				c2.898-1.655,4.349-3.417,4.349-5.282V157.924z"/>
			<path fill="#00A79F" d="M380.046,295.555c1.655,0.621,2.844,1.762,3.573,3.417c0.723,1.66,0.669,3.315-0.156,4.971
				c-0.417,1.039-0.831,2.073-1.242,3.107c-0.417,1.039-0.831,2.073-1.242,3.107c-0.417,0.829-0.884,1.66-1.399,2.485
				c-0.519,0.831-0.985,1.763-1.398,2.796c-2.281,4.146-4.611,8.132-6.99,11.962c-2.384,3.834-5.232,7.407-8.543,10.718
				c-3.525,3.525-7.51,6.32-11.962,8.389c-4.456,2.073-9.582,3.106-15.379,3.106c-3.106,0-6.009-0.31-8.699-0.931
				c-5.179-1.655-9.737-4.141-13.67-7.457c-5.801,7.874-12.427,14.552-19.884,20.038c-7.455,5.491-14.912,8.233-22.368,8.233
				c-8.495,0-14.81-2.175-18.951-6.524c-4.146-4.349-6.68-9.991-7.611-16.932c-0.932-6.936-0.623-14.704,0.931-23.301
				c1.554-8.591,3.728-17.087,6.524-25.476c2.797-8.388,5.851-16.31,9.166-23.766c3.311-7.457,6.417-13.563,9.32-18.33
				c5.796-9.524,12.32-17.446,19.573-23.766c7.247-6.316,15.223-9.476,23.922-9.476h0.311c4.553,0.208,8.855,1.087,12.893,2.64
				c4.04,1.554,7.505,4.092,10.408,7.612c2.485,2.902,4.451,6.422,5.903,10.562c1.446,4.146,2.067,9.01,1.863,14.602
				c0,4.971-0.621,10.408-1.863,16.311c-1.244,5.903-2.952,12.068-5.126,18.485c-2.175,6.422-4.715,12.894-7.612,19.418
				c-2.902,6.524-6.111,12.689-9.631,18.484c2.277,2.903,5.384,4.869,9.321,5.903c2.067,0.417,3.83,0.621,5.28,0.621
				c3.728,0,7.093-0.723,10.097-2.175c3.001-1.446,5.641-3.311,7.924-5.592c2.688-2.69,5.126-5.694,7.301-9.01
				c2.175-3.311,4.086-6.728,5.747-10.253c0.412-0.825,0.825-1.602,1.242-2.329c0.413-0.724,0.825-1.603,1.242-2.642
				c0.413-0.825,0.825-1.708,1.244-2.64c0.412-0.932,0.825-1.913,1.242-2.952c0.621-1.655,1.81-2.845,3.573-3.573
				C376.677,294.676,378.385,294.728,380.046,295.555z M313.251,295.243c1.655,0.417,2.952,1.398,3.883,2.952
				c0.932,1.554,1.19,3.263,0.777,5.126c-0.417,1.242-0.727,2.486-0.931,3.728c-0.209,1.242-0.419,2.383-0.623,3.417
				c4.763-9.32,8.491-18.742,11.185-28.271c2.69-9.524,4.14-17.913,4.349-25.164c0.204-7.039-1.35-12.427-4.661-16.156
				c-1.66-1.865-3.625-3.263-5.902-4.194c-2.282-0.932-4.87-1.501-7.768-1.709c-6.009,0-11.704,2.538-17.087,7.611
				c-5.389,5.078-10.36,11.549-14.913,19.418c-2.073,3.315-4.456,7.922-7.145,13.825c-2.694,5.903-5.334,12.378-7.922,19.417
				c-2.592,7.043-4.767,14.189-6.524,21.437c-1.763,7.251-2.748,13.825-2.952,19.727c-0.209,5.903,0.723,10.719,2.796,14.448
				c2.069,3.727,5.694,5.592,10.874,5.592c5.797,0,11.752-2.69,17.865-8.078c6.107-5.384,11.752-11.699,16.931-18.951
				c-1.66-3.932-2.485-8.801-2.485-14.602c0-4.971,0.723-9.941,2.175-14.912c0.412-1.865,1.398-3.209,2.952-4.04
				C309.678,295.04,311.386,294.83,313.251,295.243z"/>
			<path fill="#00A79F" d="M507.172,295.555c1.655,0.621,2.844,1.762,3.573,3.417c0.723,1.66,0.669,3.315-0.156,4.971
				c-0.417,1.039-0.831,2.073-1.242,3.107c-0.417,1.039-0.831,2.073-1.242,3.107c-0.417,0.829-0.884,1.66-1.399,2.485
				c-0.519,0.831-0.985,1.763-1.398,2.796c-2.281,4.146-4.611,8.132-6.99,11.962c-2.384,3.834-5.232,7.407-8.543,10.718
				c-3.525,3.525-7.51,6.32-11.962,8.389c-4.456,2.073-9.582,3.106-15.379,3.106c-3.106,0-6.009-0.31-8.699-0.931
				c-5.179-1.655-9.737-4.141-13.67-7.457c-5.801,7.874-12.427,14.552-19.884,20.038c-7.455,5.491-14.912,8.233-22.368,8.233
				c-8.495,0-14.81-2.175-18.951-6.524c-4.146-4.349-6.68-9.991-7.611-16.932c-0.932-6.936-0.623-14.704,0.931-23.301
				c1.554-8.591,3.728-17.087,6.524-25.476c2.797-8.388,5.851-16.31,9.166-23.766c3.311-7.457,6.417-13.563,9.32-18.33
				c5.796-9.524,12.32-17.446,19.573-23.766c7.247-6.316,15.223-9.476,23.922-9.476h0.311c4.553,0.208,8.855,1.087,12.893,2.64
				c4.04,1.554,7.505,4.092,10.408,7.612c2.485,2.902,4.451,6.422,5.903,10.562c1.446,4.146,2.067,9.01,1.863,14.602
				c0,4.971-0.621,10.408-1.863,16.311c-1.244,5.903-2.952,12.068-5.126,18.485c-2.175,6.422-4.715,12.894-7.612,19.418
				c-2.902,6.524-6.111,12.689-9.631,18.484c2.277,2.903,5.384,4.869,9.321,5.903c2.067,0.417,3.83,0.621,5.28,0.621
				c3.728,0,7.093-0.723,10.097-2.175c3.001-1.446,5.641-3.311,7.924-5.592c2.688-2.69,5.126-5.694,7.301-9.01
				c2.175-3.311,4.086-6.728,5.747-10.253c0.412-0.825,0.825-1.602,1.242-2.329c0.413-0.724,0.825-1.603,1.242-2.642
				c0.413-0.825,0.825-1.708,1.244-2.64c0.412-0.932,0.825-1.913,1.242-2.952c0.621-1.655,1.81-2.845,3.573-3.573
				C503.803,294.676,505.511,294.728,507.172,295.555z M440.377,295.243c1.655,0.417,2.952,1.398,3.883,2.952
				c0.932,1.554,1.19,3.263,0.777,5.126c-0.417,1.242-0.727,2.486-0.931,3.728c-0.209,1.242-0.419,2.383-0.623,3.417
				c4.763-9.32,8.491-18.742,11.185-28.271c2.69-9.524,4.14-17.913,4.349-25.164c0.204-7.039-1.35-12.427-4.661-16.156
				c-1.66-1.865-3.625-3.263-5.902-4.194c-2.282-0.932-4.87-1.501-7.768-1.709c-6.009,0-11.704,2.538-17.087,7.611
				c-5.389,5.078-10.36,11.549-14.913,19.418c-2.073,3.315-4.456,7.922-7.145,13.825c-2.694,5.903-5.334,12.378-7.922,19.417
				c-2.592,7.043-4.767,14.189-6.524,21.437c-1.763,7.251-2.748,13.825-2.952,19.727c-0.209,5.903,0.723,10.719,2.796,14.448
				c2.069,3.727,5.694,5.592,10.874,5.592c5.797,0,11.752-2.69,17.865-8.078c6.107-5.384,11.752-11.699,16.931-18.951
				c-1.66-3.932-2.485-8.801-2.485-14.602c0-4.971,0.723-9.941,2.175-14.912c0.412-1.865,1.398-3.209,2.952-4.04
				C436.804,295.04,438.512,294.83,440.377,295.243z"/>
			<path fill="#00A79F" d="M646.259,295.555c1.655,0.829,2.845,2.073,3.573,3.727c0.723,1.661,0.671,3.317-0.156,4.972
				c-3.315,7.043-6.524,13.466-9.63,19.261c-3.107,5.801-6.214,11.083-9.32,15.844c-6.422,9.739-13.156,17.194-20.195,22.37
				c-3.728,2.485-7.766,4.349-12.116,5.592c-4.146,1.452-8.389,2.175-12.739,2.175h-0.31c-6.632,0-12.116-2.277-16.465-6.835
				c-1.865-2.277-3.369-5.019-4.505-8.232c-1.142-3.209-1.709-6.884-1.709-11.029v-0.311v-0.621v-0.31
				c-5.388,7.873-11.393,14.344-18.019,19.417c-6.632,5.078-13.981,7.509-22.059,7.301c-8.699-0.204-15.121-3.728-19.261-10.564
				c-2.282-3.106-3.836-6.78-4.661-11.028c-0.825-4.243-1.136-8.855-0.932-13.825c0-4.349,0.621-9.631,1.865-15.846
				c1.242-6.213,2.898-12.839,4.971-19.882c2.067-7.039,4.659-14.185,7.766-21.437c3.107-7.247,6.524-14.083,10.253-20.505
				c5.797-9.524,12.321-17.5,19.573-23.922c7.247-6.417,15.325-9.733,24.233-9.941h2.796c4.141,0.417,8.024,1.554,11.65,3.417
				c3.621,1.865,6.884,4.349,9.787,7.457c0.621,1.039,1.29,1.971,2.019,2.796c0.723,0.831,1.29,1.762,1.708,2.796
				c1.034-2.688,2.021-5.384,2.952-8.078c0.932-2.688,1.913-5.384,2.951-8.078l6.836-19.573v-0.31l1.863-5.282
				c0.826-2.69,1.913-5.849,3.263-9.476c1.344-3.621,2.844-7.922,4.505-12.893c0.621-1.655,1.757-2.845,3.417-3.573
				c1.655-0.724,3.311-0.777,4.971-0.156c1.655,0.621,2.845,1.762,3.573,3.417c0.723,1.66,0.777,3.315,0.156,4.971
				c-1.452,3.938-2.796,7.82-4.038,11.65c-1.244,3.836-2.384,7.199-3.418,10.097l-1.863,5.593l-0.311,0.31l-6.524,19.573
				c-4.557,12.427-9.009,24.908-13.358,37.437c-4.349,12.533-8.806,25.428-13.36,38.68c-1.452,4.349-2.748,8.543-3.884,12.583
				c-1.14,4.038-2.227,7.82-3.261,11.339c-1.039,3.315-1.815,6.369-2.33,9.164c-0.519,2.796-0.777,5.126-0.777,6.991v0.621
				c0,4.767,1.034,8.184,3.107,10.253c1.446,1.863,3.621,2.796,6.524,2.796h0.31c2.486,0,5.486-0.515,9.01-1.554
				c3.107-1.034,5.903-2.378,8.389-4.038c5.592-3.932,11.184-10.146,16.775-18.642c5.593-8.699,11.496-19.882,17.709-33.553
				c0.825-1.655,2.069-2.796,3.728-3.417C642.944,294.622,644.599,294.728,646.259,295.555z M522.92,355.826
				c6.213,0.208,12.062-2.224,17.553-7.301c5.484-5.073,10.562-11.495,15.223-19.263c4.659-7.766,8.903-16.257,12.737-25.476
				c3.83-9.213,7.301-17.757,10.408-25.63c1.446-3.311,2.742-6.472,3.883-9.476c1.136-3.001,2.224-5.749,3.263-8.233
				c0.204-0.621,0.311-1.344,0.311-2.175c-0.417-7.457-2.282-13.048-5.593-16.777c-3.525-3.728-7.665-5.796-12.427-6.214
				c-0.417-0.204-1.039-0.31-1.863-0.31c-6.009,0.208-11.758,2.903-17.242,8.078c-5.491,5.179-10.618,11.704-15.379,19.573
				c-3.525,6.009-6.68,12.325-9.476,18.951c-2.796,6.63-5.18,13.155-7.145,19.573c-1.971,6.422-3.525,12.481-4.661,18.175
				c-1.14,5.699-1.709,10.514-1.709,14.446c0,7.874,1.136,13.67,3.418,17.398C516.085,354.069,518.983,355.622,522.92,355.826z"/>
			<path fill="#00A79F" d="M974.332,138.973c3.931,3.315,5.903,7.355,5.903,12.116c-0.419,7.253-4.146,12.223-11.186,14.913
				c-7.043,2.694-16.362,3.936-27.962,3.728c-7.454-0.205-15.641-0.879-24.543-2.021c-8.908-1.135-18.018-2.534-27.339-4.194
				c-3.523,3.525-6.732,7.563-9.63,12.116c-3.107,5.18-6.059,11.083-8.855,17.709c-2.796,6.632-5.49,13.466-8.076,20.505
				c-2.592,7.043-5.026,14.087-7.301,21.126c-2.284,7.043-4.349,13.67-6.214,19.884c-1.039,3.727-2.074,7.198-3.107,10.407
				c-1.039,3.213-2.071,6.165-3.107,8.855c-1.242,3.525-2.329,6.734-3.263,9.631c-0.931,2.902-1.916,5.801-2.952,8.699
				c-3.936,12.223-8.028,24.131-12.27,35.728c-4.248,11.601-9.531,21.903-15.844,30.912c-6.322,9.01-14.087,16.204-23.301,21.593
				c-9.22,5.382-20.661,7.97-34.33,7.767c-1.242,0-2.073-0.108-2.485-0.311c-8.287-0.417-15.588-2.175-21.903-5.28
				c-6.32-3.107-11.758-7.147-16.311-12.117c-9.116-10.562-13.462-23.301-13.048-38.213v-2.486
				c0.413-9.32,2.534-17.602,6.369-24.854c3.83-7.247,8.545-13.562,14.136-18.951c6.834-6.417,14.446-11.285,22.834-14.602
				c8.389-3.31,16.311-4.971,23.768-4.971c1.863,0,3.417,0.621,4.659,1.865c1.242,1.242,1.865,2.796,1.865,4.659
				c0,1.865-0.623,3.418-1.865,4.661c-1.242,1.242-2.796,1.863-4.659,1.863c-6.011,0-12.379,1.35-19.107,4.04
				c-6.734,2.694-12.893,6.732-18.486,12.116c-4.557,4.146-8.34,9.166-11.339,15.067c-3.005,5.903-4.713,12.481-5.126,19.728v1.865
				c-0.208,5.801,0.567,11.184,2.33,16.156c1.757,4.971,4.296,9.426,7.611,13.358c3.311,3.728,7.403,6.734,12.273,9.01
				c4.863,2.277,10.407,3.621,16.621,4.038c0.412,0,0.777,0.05,1.087,0.156c0.311,0.102,0.569,0.156,0.777,0.156
				c11.185,0.204,20.659-2.127,28.427-6.991c7.765-4.863,14.339-11.387,19.727-19.573c5.385-8.18,10.043-17.5,13.982-27.96
				c3.931-10.456,7.66-21.282,11.184-32.467c1.033-3.309,2.069-6.524,3.107-9.63c1.033-3.107,2.069-6.005,3.107-8.699
				c1.033-2.69,2.018-5.641,2.952-8.855c0.931-3.209,2.018-6.68,3.26-10.408c1.865-6.213,3.987-12.941,6.37-20.194
				c2.38-7.247,4.865-14.496,7.457-21.747c2.586-7.247,5.382-14.292,8.388-21.126c3-6.835,6.161-13.048,9.477-18.642
				c0.823-1.446,1.706-2.844,2.64-4.194c0.931-1.344,1.913-2.742,2.952-4.194c-12.225-2.277-23.768-4.709-34.64-7.301
				c-10.875-2.588-19.939-4.709-27.186-6.369c-2.903-0.826-5.388-1.447-7.457-1.865c-2.071-0.412-3.936-0.825-5.592-1.242
				c-6.63-1.446-13.204-2.742-19.727-3.884c-6.526-1.135-12.791-1.5-18.796-1.087c-5.592,0.417-10.927,1.762-16,4.038
				c-5.078,2.282-9.893,6.112-14.446,11.495c-2.903,3.107-5.388,6.943-7.457,11.496c-1.452,3.728-2.384,7.665-2.796,11.805
				c-0.209,7.045,0.825,13.156,3.107,18.33c2.485,5.388,6.315,9.428,11.495,12.117c5.174,2.902,11.285,4.557,18.33,4.971
				c5.174,0.417,10.456,0,15.844-1.244c5.384-1.242,10.562-3,15.532-5.28c1.655-0.826,3.365-0.932,5.128-0.311
				c1.757,0.621,2.952,1.763,3.571,3.417c0.826,1.661,0.934,3.317,0.311,4.972c-0.62,1.66-1.76,2.902-3.416,3.728
				c-12.638,5.8-25.166,8.388-37.593,7.766c-9.116-0.413-17.087-2.588-23.922-6.524c-7.874-4.141-13.568-10.146-17.087-18.019
				c-1.661-3.52-2.903-7.301-3.728-11.341c-0.831-4.038-1.039-8.437-0.621-13.204c0.412-5.796,1.655-11.285,3.728-16.465
				c2.688-5.592,5.903-10.564,9.63-14.913c5.797-6.834,12.01-11.699,18.642-14.601c6.626-2.899,13.563-4.661,20.815-5.282
				c6.836-0.413,13.771-0.05,20.815,1.087c7.038,1.142,14.183,2.438,21.436,3.884c1.036,0.417,2.745,0.883,5.128,1.398
				c2.377,0.519,5.125,1.194,8.232,2.019c8.079,1.865,18.332,4.248,30.758,7.145c12.426,2.903,25.474,5.593,39.145,8.078
				c5.382-4.553,11.232-8.232,17.553-11.029c6.316-2.796,12.683-4.917,19.107-6.369c10.974-2.485,21.017-3.107,30.135-1.863
				c4.763,0.621,9.112,1.66,13.048,3.107C968.941,134.831,972.048,136.696,974.332,138.973z M941.398,156.68
				c7.457,0.209,13.563-0.154,18.332-1.087c4.76-0.932,7.145-2.534,7.145-4.815c0-0.826-0.419-1.554-1.242-2.175
				c-2.903-2.486-7.977-4.243-15.225-5.282c-3.727-0.413-7.768-0.515-12.117-0.311c-4.349,0.209-8.906,0.831-13.668,1.865
				c-3.526,0.829-7.043,1.863-10.564,3.106c-3.523,1.244-6.942,2.797-10.253,4.661c6.627,1.039,13.15,1.917,19.574,2.64
				C929.796,156.011,935.807,156.477,941.398,156.68z"/>
			<path fill="#00A79F" d="M998.932,295.555c1.655,0.829,2.844,2.073,3.571,3.727c0.724,1.661,0.671,3.317-0.156,4.972l-0.308,0.931
				c-2.903,6.632-6.166,13.671-9.788,21.126c-3.625,7.457-7.717,14.398-12.27,20.816c-4.559,6.422-9.684,11.757-15.38,16
				c-5.696,4.248-12.066,6.369-19.104,6.369h-0.311c-4.146,0-7.666-0.825-10.564-2.486c-2.903-1.654-5.28-3.83-7.145-6.524
				c-1.661-2.485-2.796-5.174-3.418-8.078c-0.62-2.898-0.931-5.902-0.931-9.009v-0.932c0-4.761,1.135-11.184,3.418-19.261
				c1.033-3.728,2.12-7.66,3.26-11.806c1.138-4.141,2.536-8.389,4.194-12.739c1.449-4.14,2.589-7.557,3.418-10.253
				c0.826-2.688,1.554-5.072,2.176-7.145c1.033-2.898,1.91-5.486,2.64-7.767c0.722-2.277,1.709-5.072,2.952-8.389l-4.972-1.552
				c-4.559-1.655-9.319-3.311-14.291-4.972c-4.972-1.654-9.839-3.621-14.602-5.902c-0.416,1.45-0.931,2.848-1.554,4.194
				c-0.62,1.35-1.14,2.538-1.554,3.573v0.31l-25.166,54.37c-0.829,1.66-2.071,2.796-3.727,3.417
				c-1.658,0.621-3.314,0.519-4.969-0.311c-1.661-0.825-2.796-2.067-3.418-3.727c-0.623-1.655-0.515-3.311,0.311-4.972
				l24.852-54.057l3.73-9.32c-5.179-3.52-9.273-7.612-12.273-12.273c-3.003-4.659-4.194-10.301-3.571-16.931
				c0.62-4.553,2.586-8.491,5.903-11.806c0-0.204,0.102-0.311,0.311-0.311c3.727-3.311,7.969-4.971,12.737-4.971
				c1.446,0,3.209,0.209,5.281,0.621l0.311,0.311c2.275,0.621,4.242,1.66,5.903,3.107c1.655,1.45,3,3.106,4.038,4.971
				c1.655,3.106,2.485,6.942,2.485,11.495c0,2.694-0.518,5.801-1.554,9.32c-0.416,1.66-0.931,3.369-1.551,5.126
				c-0.623,1.762-1.245,3.573-1.865,5.438c4.349,2.281,9.01,4.248,13.979,5.903c4.972,1.66,9.735,3.315,14.291,4.971
				c4.763,1.45,8.699,2.694,11.806,3.728c1.655,0.621,2.847,1.815,3.574,3.573c0.722,1.762,0.775,3.471,0.156,5.126v0.31
				c-1.865,4.767-3.317,8.651-4.349,11.65c-1.039,3.005-2.074,6.267-3.107,9.787c-0.829,2.281-1.709,4.815-2.64,7.611
				c-0.934,2.796-2.021,6.059-3.263,9.787c-1.452,4.349-2.796,8.495-4.038,12.427c-1.242,3.936-2.284,7.665-3.107,11.184
				c-1.039,3.525-1.763,6.632-2.176,9.321c-0.416,2.694-0.727,5.077-0.931,7.145v0.621c0,1.863,0.156,3.679,0.467,5.436
				c0.308,1.763,0.979,3.263,2.018,4.505c0.623,1.039,1.446,1.815,2.487,2.33c1.033,0.519,2.485,0.777,4.349,0.777
				c4.969,0,9.576-1.865,13.824-5.592c4.242-3.728,8.232-8.389,11.962-13.981c3.727-5.592,7.145-11.699,10.253-18.33
				c3.107-6.626,5.903-12.84,8.388-18.64l0.311-0.932c0.823-1.655,2.069-2.845,3.727-3.573
				C995.615,294.676,997.271,294.728,998.932,295.555z M906.971,225.652c0.623-1.865,0.931-3.728,0.931-5.593
				c0-2.067-0.308-3.727-0.931-4.971c-0.623-1.034-1.35-1.655-2.173-1.863h-0.311c-0.419,0-0.676-0.05-0.778-0.156
				c-0.105-0.102-0.362-0.156-0.775-0.156c-1.452,0-2.694,0.519-3.73,1.554h-0.308c-0.832,0.831-1.452,2.175-1.865,4.04
				c-0.419,2.902,0.102,5.544,1.554,7.922c1.446,2.383,3.416,4.611,5.903,6.678c0.413-1.242,0.823-2.485,1.242-3.727
				C906.141,228.136,906.552,226.894,906.971,225.652z"/>
			<path fill="#00A79F" d="M1120.188,295.555c1.655,0.829,2.796,2.073,3.418,3.727c0.62,1.661,0.515,3.317-0.311,4.972l-0.311,0.931
				c-2.901,6.632-6.163,13.671-9.786,21.126c-3.625,7.457-7.717,14.398-12.273,20.816c-4.556,6.422-9.684,11.757-15.377,16
				c-5.699,4.248-11.962,6.369-18.796,6.369h-0.311h-0.311c-4.146,0-7.663-0.825-10.561-2.486c-2.903-1.654-5.181-3.83-6.837-6.524
				c-1.242-1.863-2.173-3.932-2.796-6.213c-0.62-2.277-1.14-4.553-1.554-6.835c-4.556,6.422-9.63,11.704-15.222,15.846
				c-5.592,4.144-11.914,6.213-18.951,6.213h-0.311c-4.146,0-7.666-0.825-10.564-2.486c-2.903-1.654-5.28-3.83-7.145-6.524
				c-1.655-2.485-2.796-5.174-3.416-8.078c-0.623-2.898-0.934-5.902-0.934-9.009v-0.932c0-4.761,1.14-11.184,3.418-19.261
				c1.039-3.728,2.12-7.66,3.263-11.806c1.135-4.141,2.533-8.389,4.194-12.739c0.823-2.277,1.964-5.592,3.416-9.941
				c1.449-4.349,3.311-9.524,5.595-15.534c2.688-7.247,5.538-14.96,8.543-23.145c3-8.18,5.951-16.204,8.855-24.078
				c0.62-1.655,1.757-2.844,3.416-3.573c1.656-0.723,3.311-0.777,4.972-0.156c1.656,0.623,2.844,1.763,3.571,3.418
				c0.724,1.66,0.778,3.315,0.156,4.971c-3.314,9.116-6.421,17.761-9.319,25.941c-2.903,8.185-5.49,15.277-7.768,21.282
				c-2.071,5.592-3.883,10.562-5.436,14.912c-1.554,4.349-2.748,7.666-3.574,9.943c-1.658,4.349-3.059,8.495-4.194,12.427
				c-1.14,3.936-2.227,7.665-3.263,11.184c-0.829,3.525-1.503,6.632-2.018,9.321c-0.521,2.694-0.778,5.077-0.778,7.145v0.621
				c0,1.863,0.156,3.679,0.467,5.436c0.311,1.763,0.877,3.263,1.709,4.505c1.446,2.073,3.829,3.107,7.145,3.107
				c4.763,0,9.268-1.865,13.515-5.592c4.242-3.728,8.232-8.389,11.959-13.981c3.73-5.592,7.196-11.699,10.408-18.33
				c3.209-6.626,6.059-12.84,8.543-18.64v-0.311c0.204-0.204,0.311-0.515,0.311-0.932c0.826-2.277,2.021-5.592,3.574-9.941
				c1.554-4.349,3.362-9.524,5.436-15.534c2.898-7.247,5.795-14.96,8.699-23.145c2.898-8.18,5.796-16.204,8.699-24.078
				c0.623-1.655,1.757-2.844,3.418-3.573c1.655-0.723,3.311-0.777,4.969-0.156c1.656,0.623,2.898,1.763,3.73,3.418
				c0.823,1.66,0.931,3.315,0.308,4.971c-3.523,9.116-6.732,17.761-9.63,25.941c-2.903,8.185-5.49,15.277-7.768,21.282
				c-2.071,5.592-3.834,10.562-5.281,14.912c-1.452,4.349-2.694,7.666-3.727,9.943v0.31c0,0.209-0.054,0.417-0.156,0.623
				c-0.107,0.208-0.156,0.417-0.156,0.621c-1.452,4.146-2.748,8.078-3.885,11.805c-1.141,3.728-2.125,7.147-2.952,10.253
				c-1.862,6.835-2.796,12.325-2.796,16.467v0.621c0,1.863,0.156,3.679,0.467,5.436c0.311,1.763,0.88,3.263,1.709,4.505
				c1.446,2.073,3.727,3.107,6.834,3.107h0.311c4.763,0,9.268-1.865,13.515-5.592c4.242-3.728,8.232-8.389,11.959-13.981
				c3.73-5.592,7.148-11.699,10.253-18.33c3.107-6.626,5.903-12.84,8.39-18.64l0.62-0.932c0.623-1.655,1.811-2.845,3.574-3.573
				C1116.82,294.676,1118.529,294.728,1120.188,295.555z"/>
			<path fill="#00A79F" d="M1240.696,295.555c1.655,0.829,2.796,2.073,3.418,3.727c0.62,1.661,0.62,3.317,0,4.972
				c-6.01,13.256-12.536,24.078-19.574,32.465c-7.043,8.389-14.5,15.067-22.367,20.039c-7.875,4.971-15.847,8.388-23.923,10.251
				c-8.076,1.865-16.054,2.588-23.923,2.175h-0.62h-0.311c-5.592-0.412-10.824-1.446-15.689-3.106
				c-4.87-1.655-9.064-4.243-12.584-7.768c-3.727-3.519-6.63-7.868-8.699-13.048c-2.072-5.174-3.003-11.285-2.796-18.33v-0.621
				v-0.31c0.413-7.247,1.709-14.859,3.885-22.835c2.173-7.97,5.017-15.892,8.543-23.766c3.518-8.078,7.612-15.738,12.27-22.991
				c4.661-7.247,9.477-13.562,14.446-18.951c4.763-4.761,9.837-8.388,15.224-10.874c5.382-2.898,10.768-4.349,16.156-4.349h0.311
				h0.931h0.311c3.52,0.209,6.834,0.986,9.941,2.33c3.107,1.35,5.796,3.369,8.076,6.059c4.556,5.18,6.837,12.223,6.837,21.126v1.863
				c0,3.938-0.832,8.078-2.487,12.427c-0.62,2.073-1.449,4.04-2.485,5.903c-1.039,1.865-2.173,3.728-3.416,5.592
				c-1.041,1.452-2.439,2.33-4.197,2.642c-1.76,0.31-3.469-0.05-5.125-1.088c-1.452-1.034-2.329-2.432-2.64-4.194
				c-0.311-1.757,0.048-3.467,1.087-5.126c1.865-2.067,3.311-4.763,4.349-8.078c1.242-2.69,1.865-5.592,1.865-8.699v-1.242
				c0-5.797-1.242-9.943-3.73-12.427c-2.071-2.277-4.969-3.621-8.699-4.04h-0.931c-1.661,0-3.37,0.263-5.128,0.777
				c-1.76,0.519-3.571,1.194-5.436,2.021c-1.865,1.039-3.781,2.281-5.747,3.727c-1.97,1.452-3.781,3.107-5.436,4.972
				c-4.559,4.767-8.962,10.46-13.204,17.087c-4.248,6.632-8.028,13.568-11.339,20.816c-3.107,7.251-5.646,14.446-7.612,21.592
				c-1.972,7.145-3.161,13.931-3.574,20.349v0.621c-0.207,9.737,2.278,16.883,7.457,21.437c2.278,2.281,5.128,4.038,8.543,5.28
				c3.418,1.244,7.196,1.971,11.342,2.175h0.62c6.627,0.209,13.408-0.466,20.349-2.019c6.939-1.554,13.719-4.398,20.349-8.543
				c6.627-4.141,13.096-9.991,19.418-17.553c6.316-7.559,12.064-17.242,17.242-29.048c0.826-1.655,2.069-2.796,3.727-3.417
				C1237.38,294.932,1239.035,294.932,1240.696,295.555z"/>
			<path fill="#00A79F" d="M1276.454,242.117c-0.829,2.282-2.021,5.49-3.574,9.631c-1.551,4.146-3.314,8.961-5.281,14.446
				c-1.97,5.49-4.146,11.495-6.523,18.019c-2.386,6.524-4.816,13.102-7.301,19.728c-2.284,6.009-4.505,12.068-6.681,18.175
				c-2.173,6.112-4.194,11.912-6.059,17.398c-1.862,5.49-3.625,10.408-5.28,14.758c-1.656,4.349-2.898,7.874-3.727,10.562
				c-0.623,1.865-1.757,3.161-3.418,3.884c-1.655,0.729-3.311,0.879-4.972,0.465c-1.655-0.621-2.898-1.757-3.727-3.417
				c-0.826-1.655-0.931-3.311-0.311-4.971c0.829-2.486,2.02-5.849,3.574-10.097c1.554-4.243,3.314-9.112,5.281-14.602
				c1.97-5.486,4.038-11.389,6.214-17.709c2.173-6.315,4.398-12.581,6.678-18.796l0.311-0.311
				c2.275-6.417,4.553-12.839,6.834-19.261c2.278-6.418,4.451-12.427,6.526-18.019c2.069-5.593,3.883-10.51,5.436-14.758
				c1.554-4.243,2.844-7.505,3.883-9.787v-0.31c1.656-4.553,2.847-7.972,3.574-10.253c0.722-2.277,1.5-4.349,2.329-6.213
				c1.242-3.728,2.434-7.195,3.574-10.408c1.135-3.209,2.018-5.849,2.64-7.922l1.865-5.282c1.033-2.69,2.173-5.903,3.416-9.631
				c1.245-3.728,2.691-7.97,4.349-12.737c0.623-1.655,1.757-2.845,3.418-3.573c1.656-0.724,3.311-0.777,4.972-0.156
				c1.655,0.621,2.898,1.762,3.727,3.417c0.826,1.66,0.931,3.315,0.311,4.971c-1.452,3.938-2.85,7.82-4.194,11.65
				c-1.35,3.836-2.538,7.199-3.574,10.097c-0.416,1.04-0.727,1.971-0.931,2.797c-0.209,0.829-0.521,1.762-0.934,2.796
				c-2.694,8.078-4.867,14.189-6.523,18.33l-5.592,16.465L1276.454,242.117z M1373.384,295.555c1.655,0.621,2.799,1.815,3.418,3.573
				c0.623,1.762,0.623,3.471,0,5.126c-2.903,6.213-6.059,12.947-9.474,20.194c-3.418,7.253-7.408,14.087-11.962,20.505
				c-4.768,7.043-10.097,12.893-16,17.553c-5.903,4.659-12.482,6.99-19.73,6.99c-3.523,0-6.577-0.567-9.163-1.709
				c-2.592-1.135-4.924-2.742-6.993-4.815c-2.071-2.277-3.625-4.917-4.658-7.922c-1.039-3-1.763-5.951-2.176-8.855v-0.311
				c0-3.31,0.204-6.728,0.623-10.251c0.413-3.52,0.823-7.039,1.242-10.564c0.413-3.107,0.775-6.213,1.087-9.32
				c0.311-3.107,0.467-6.107,0.467-9.01c-0.209-4.14-1.194-7.505-2.952-10.097c-1.763-2.588-5.334-3.884-10.719-3.884
				c-1.865,0-4.248,0.729-7.145,2.175c-0.416,0.209-0.931,0.467-1.554,0.777c-0.62,0.311-1.141,0.675-1.554,1.088l-4.349,4.038
				c-1.658,1.244-3.416,1.763-5.281,1.554h-0.623c0-0.204-0.207-0.31-0.62-0.31l-0.311-0.311h-0.311l-0.311-0.31
				c-0.829-0.413-1.452-0.826-1.862-1.244c-1.038-1.242-1.553-2.742-1.553-4.505c0-1.757,0.515-3.261,1.553-4.504
				c0.823-0.623,1.656-1.292,2.485-2.021c0.826-0.723,1.757-1.5,2.796-2.329l69.28-63.378c1.449-1.244,3.053-1.811,4.816-1.709
				c1.757,0.108,3.263,0.883,4.505,2.33c1.242,1.242,1.811,2.796,1.709,4.659c-0.108,1.865-0.778,3.317-2.021,4.349l-51.882,47.224
				c7.247,1.242,12.165,4.3,14.758,9.164c2.587,4.869,3.984,10.616,4.194,17.242c0,3.107-0.209,6.37-0.623,9.787
				c-0.416,3.417-0.829,6.888-1.242,10.407c-0.416,3.317-0.775,6.476-1.087,9.476c-0.311,3.005-0.467,5.855-0.467,8.545h0.311
				c0,3.525,1.033,6.524,3.107,9.009c1.655,1.661,3.829,2.486,6.523,2.486c4.763,0,9.214-1.757,13.36-5.282
				c4.14-3.519,7.972-7.97,11.495-13.358c4.143-6.005,7.87-12.477,11.186-19.418c3.311-6.936,6.313-13.408,9.007-19.417
				c0.826-1.655,2.069-2.845,3.73-3.573C1370.071,294.676,1371.726,294.728,1373.384,295.555z"/>
			<path fill="#00A79F" d="M1448.256,265.107c4.349,7.457,8.388,15.121,12.117,22.991c3.727,7.874,5.694,16.465,5.903,25.785v0.311
				v0.311c-0.209,9.32-2.021,17.398-5.439,24.232c-3.416,6.835-7.819,12.535-13.204,17.088c-5.388,4.557-11.447,7.922-18.173,10.097
				c-6.732,2.175-13.413,3.369-20.038,3.573h-0.311c-0.623,0-1.194-0.048-1.709-0.156c-0.521-0.102-0.985-0.156-1.398-0.156
				c-6.63-0.412-12.581-1.912-17.865-4.504c-5.281-2.588-9.893-5.953-13.824-10.098c-3.73-4.14-6.633-8.853-8.699-14.135
				c-2.069-5.282-3.107-10.718-3.107-16.311v-2.796c0.416-5.796,1.709-11.339,3.883-16.621c2.176-5.282,5.229-9.991,9.166-14.136
				c3.52-3.932,7.768-6.99,12.737-9.164c4.972-2.175,10.456-3.365,16.467-3.573c3.727,0,7.457,0.831,11.184,2.486
				c3.73,1.66,7.038,4.038,9.941,7.145c2.487,2.694,4.505,5.903,6.059,9.63c1.554,3.728,2.434,7.768,2.64,12.117
				c0,1.863-0.62,3.417-1.862,4.659c-1.245,1.244-2.796,1.865-4.661,1.865s-3.418-0.621-4.661-1.865
				c-1.242-1.242-1.865-2.796-1.865-4.659c-0.207-5.174-1.969-9.524-5.28-13.048c-3.107-3.52-6.834-5.282-11.184-5.282
				c-4.146,0-7.875,0.777-11.186,2.33c-3.314,1.554-6.212,3.679-8.699,6.369c-2.903,2.903-5.125,6.369-6.678,10.408
				c-1.553,4.038-2.538,8.13-2.951,12.272v1.863c0,8.287,2.796,15.433,8.388,21.437c2.688,2.903,5.951,5.282,9.786,7.145
				c3.832,1.863,8.127,3.005,12.896,3.417c0.62,0.209,1.446,0.311,2.485,0.311h0.311c5.173-0.204,10.354-1.136,15.533-2.796
				c5.176-1.655,9.941-4.243,14.291-7.768c4.14-3.519,7.457-7.868,9.941-13.048c2.487-5.174,3.832-11.387,4.041-18.64v-0.311
				c-0.209-7.455-1.972-14.704-5.283-21.747c-3.314-7.038-6.942-13.873-10.872-20.505c-1.039-1.654-1.919-3.155-2.643-4.504
				c-0.727-1.346-1.605-2.845-2.64-4.505c-2.281,2.281-4.349,4.659-6.212,7.145c-1.245,1.452-2.748,2.229-4.505,2.33
				c-1.763,0.106-3.37-0.467-4.816-1.709c-1.452-1.034-2.227-2.432-2.329-4.194c-0.108-1.757,0.357-3.365,1.398-4.815
				c3.308-3.932,6.726-7.66,10.252-11.185l0.308-0.311c-1.862-4.349-3.212-8.801-4.038-13.358c-0.829-4.553-0.829-9.214,0-13.981
				c0.204-2.69,1.033-5.592,2.485-8.699c0-0.204,0.051-0.311,0.156-0.311c0.102,0,0.156-0.102,0.156-0.31
				c1.242-2.69,3-5.174,5.283-7.457c1.862-1.863,4.038-3.311,6.523-4.349c2.484-1.242,4.972-1.863,7.457-1.863
				c4.553,0.417,8.178,2.175,10.872,5.28c2.278,2.282,3.622,5.903,4.041,10.874c0,1.452-0.108,2.903-0.311,4.349
				c-0.209,1.452-0.521,2.903-0.931,4.349c-0.419,1.661-0.886,3.215-1.401,4.661c-0.518,1.452-1.087,2.903-1.706,4.349
				c-1.661,3.728-3.628,7.145-5.903,10.253c-2.284,3.107-4.661,6.111-7.145,9.01c1.033,2.073,2.173,4.092,3.416,6.057
				C1446.08,260.709,1447.218,262.83,1448.256,265.107z M1435.828,239.01c1.245-1.655,2.434-3.417,3.574-5.28
				c1.135-1.865,2.224-3.83,3.263-5.903c0.413-1.034,0.823-2.122,1.242-3.263c0.413-1.136,0.724-2.223,0.931-3.261
				c0.623-2.069,0.826-3.932,0.623-5.593c0-1.446-0.209-2.277-0.623-2.485c0-0.204-0.311-0.311-0.931-0.311
				c-0.419-0.204-1.14-0.102-2.176,0.311c-1.242,0.829-2.173,1.554-2.796,2.175c-1.038,1.039-1.862,2.281-2.484,3.728l-0.311,0.31
				c-0.829,1.865-1.35,3.626-1.554,5.282C1433.966,229.486,1434.379,234.249,1435.828,239.01z"/>
		</g>
		<g>
			<path fill="#4F5169" d="M328.233,160.626c0.204,0.208,0.31,0.519,0.31,0.931c0,3.525-0.985,6.632-2.952,9.321
				c-1.971,2.694-4.611,5.077-7.922,7.145c-6.009,3.523-13.466,5.28-22.368,5.28c-7.874,0-15.331-0.358-22.368-1.087
				c-7.043-0.723-13.879-1.602-20.505-2.64c-0.621,1.039-1.242,2.073-1.865,3.106c-0.621,1.04-1.242,2.073-1.863,3.107
				c-5.592,10.564-10.616,22.165-15.067,34.796c-4.457,12.637-8.441,24.543-11.962,35.728c-1.242,4.349-2.485,8.389-3.728,12.116
				h27.65c1.865,0,3.418,0.675,4.661,2.021c1.242,1.348,1.863,2.952,1.863,4.815c0,1.66-0.621,3.161-1.863,4.505
				c-1.242,1.35-2.796,2.019-4.661,2.019h-32c-0.829,2.282-1.554,4.403-2.175,6.369c-0.621,1.971-1.242,3.99-1.863,6.059
				c-3.938,12.223-8.078,24.131-12.427,35.728c-4.349,11.602-9.685,21.855-16,30.758c-6.32,8.907-14.087,16.048-23.301,21.436
				c-9.218,5.384-20.661,7.972-34.33,7.768h-2.485c-8.287-0.419-15.588-2.228-21.903-5.438c-6.32-3.213-11.758-7.301-16.311-12.272
				c-9.116-10.564-13.462-23.301-13.048-38.214v-2.485c0.413-9.32,2.534-17.553,6.369-24.699c3.83-7.145,8.545-13.408,14.136-18.796
				c6.834-6.628,14.446-11.544,22.834-14.758c8.389-3.209,16.311-4.918,23.768-5.126c1.863,0,3.417,0.675,4.659,2.019
				c1.244,1.35,1.865,2.85,1.865,4.505c0,1.863-0.621,3.471-1.865,4.815c-1.242,1.35-2.796,2.021-4.659,2.021
				c-6.011,0-12.379,1.348-19.107,4.038c-6.734,2.694-12.893,6.63-18.486,11.806c-4.557,4.349-8.34,9.426-11.339,15.223
				c-3.005,5.801-4.713,12.325-5.126,19.573v1.863v0.311c0,11.602,3.311,21.334,9.941,29.204c3.311,3.728,7.403,6.786,12.273,9.164
				c4.863,2.378,10.407,3.776,16.621,4.194h1.863c11.185,0.205,20.661-2.125,28.427-6.99c7.766-4.865,14.34-11.389,19.728-19.573
				c5.384-8.18,10.043-17.5,13.981-27.962c3.932-10.456,7.66-21.174,11.184-32.154c0.413-1.447,0.879-2.899,1.398-4.349
				c0.515-1.447,0.981-2.797,1.399-4.04h-18.02c-1.863,0-3.417-0.669-4.659-2.019c-1.244-1.344-1.865-2.845-1.865-4.505
				c0-1.863,0.621-3.467,1.865-4.815c1.242-1.346,2.796-2.021,4.659-2.021h22.37c0.825-2.277,1.654-4.815,2.485-7.611
				c0.825-2.796,1.757-5.641,2.796-8.543c3.52-11.185,7.558-23.301,12.117-36.349c4.553-13.048,9.834-25.166,15.844-36.349
				c0.204-0.623,0.723-1.554,1.554-2.797c-6.011-1.446-11.86-2.952-17.553-4.504c-5.699-1.554-11.239-3.155-16.621-4.816
				c-10.772-3.106-21.234-5.903-31.379-8.388c-10.151-2.486-20.611-3.728-31.379-3.728c-4.971,0-9.839,1.087-14.602,3.261
				c-4.767,2.175-9.01,5.126-12.737,8.855c-3.938,3.525-7.045,7.666-9.321,12.427c-2.281,4.767-3.626,9.529-4.038,14.292
				c-0.417,7.455,0.621,13.568,3.107,18.329c2.485,5.389,6.315,9.428,11.495,12.117c5.174,2.902,11.285,4.557,18.33,4.971
				c4.971,0.417,10.145,0,15.533-1.242c5.384-1.244,10.666-3.001,15.844-5.282c1.655-0.825,3.311-0.932,4.972-0.311
				c1.655,0.621,2.898,1.763,3.728,3.418c0.825,1.66,0.931,3.315,0.31,4.971c-0.621,1.66-1.762,2.902-3.417,3.728
				c-12.637,5.8-25.166,8.388-37.593,7.766c-9.116-0.413-17.194-2.588-24.232-6.524c-3.525-2.069-6.734-4.553-9.631-7.457
				c-2.903-2.898-5.282-6.417-7.145-10.562c-3.525-7.039-4.971-15.223-4.349-24.545c0.412-6.626,2.175-13.048,5.282-19.261
				c3.106-6.214,7.145-11.699,12.116-16.467c4.763-4.761,10.301-8.543,16.621-11.339c6.316-2.796,12.893-4.194,19.728-4.194
				c11.597,0,22.728,1.242,33.398,3.728c10.666,2.485,21.694,5.49,33.088,9.009c6.005,1.661,12.272,3.369,18.796,5.126
				c6.524,1.763,13.306,3.471,20.349,5.126c2.277-2.485,4.659-4.709,7.145-6.68c2.486-1.965,5.072-3.776,7.766-5.436
				c6.005-3.519,12.165-6.107,18.486-7.766c6.315-1.655,12.373-2.588,18.175-2.797h0.31h0.623c7.455,0,13.562,1.244,18.329,3.728
				C324.709,149.442,328.024,154.208,328.233,160.626z M315.185,161.248c0-1.244-0.932-2.277-2.796-3.107
				c-2.903-1.655-7.045-2.486-12.427-2.486h-0.311h-0.621c-4.559,0.209-9.428,1.04-14.602,2.486
				c-5.18,1.452-10.253,3.626-15.223,6.524c-1.039,0.417-1.917,0.932-2.64,1.554c-0.729,0.621-1.607,1.242-2.642,1.863
				c4.971,0.623,10.044,1.142,15.223,1.554c5.174,0.417,10.564,0.621,16.156,0.621c6.418,0,11.597-1.135,15.534-3.417
				c2.898-1.655,4.349-3.417,4.349-5.282V161.248z"/>
			<path fill="#4F5169" d="M390.708,298.878c1.655,0.621,2.844,1.762,3.573,3.417c0.723,1.66,0.669,3.315-0.156,4.971
				c-0.417,1.039-0.831,2.073-1.242,3.107c-0.417,1.039-0.831,2.073-1.242,3.107c-0.417,0.829-0.884,1.66-1.399,2.485
				c-0.519,0.831-0.985,1.763-1.398,2.796c-2.281,4.146-4.611,8.132-6.99,11.962c-2.384,3.834-5.232,7.407-8.543,10.718
				c-3.525,3.525-7.51,6.32-11.962,8.389c-4.456,2.073-9.582,3.106-15.379,3.106c-3.106,0-6.009-0.31-8.699-0.931
				c-5.179-1.655-9.737-4.141-13.67-7.457c-5.801,7.874-12.427,14.552-19.884,20.038c-7.455,5.491-14.912,8.233-22.368,8.233
				c-8.495,0-14.81-2.175-18.951-6.524c-4.146-4.349-6.68-9.991-7.611-16.932c-0.932-6.936-0.623-14.704,0.931-23.301
				c1.554-8.591,3.728-17.087,6.524-25.476c2.797-8.388,5.851-16.31,9.166-23.766c3.311-7.457,6.417-13.563,9.32-18.33
				c5.796-9.524,12.32-17.446,19.573-23.766c7.247-6.316,15.223-9.476,23.922-9.476h0.311c4.553,0.208,8.855,1.087,12.893,2.64
				c4.04,1.554,7.505,4.092,10.408,7.612c2.485,2.902,4.451,6.422,5.903,10.562c1.446,4.146,2.067,9.01,1.863,14.602
				c0,4.971-0.621,10.408-1.863,16.311c-1.244,5.903-2.952,12.068-5.126,18.484c-2.175,6.422-4.715,12.894-7.612,19.418
				c-2.902,6.524-6.111,12.689-9.631,18.484c2.277,2.903,5.384,4.869,9.321,5.903c2.067,0.417,3.83,0.621,5.28,0.621
				c3.728,0,7.093-0.723,10.097-2.175c3.001-1.446,5.641-3.311,7.924-5.592c2.688-2.69,5.126-5.694,7.301-9.01
				c2.175-3.311,4.086-6.728,5.747-10.253c0.412-0.825,0.825-1.602,1.242-2.329c0.413-0.724,0.825-1.603,1.242-2.642
				c0.413-0.825,0.825-1.708,1.244-2.64c0.412-0.932,0.825-1.913,1.242-2.952c0.621-1.655,1.81-2.845,3.573-3.573
				C387.339,298,389.047,298.052,390.708,298.878z M323.912,298.567c1.655,0.417,2.952,1.398,3.883,2.952
				c0.932,1.554,1.19,3.263,0.777,5.126c-0.417,1.242-0.727,2.486-0.931,3.728c-0.209,1.242-0.419,2.383-0.623,3.417
				c4.763-9.32,8.491-18.742,11.185-28.271c2.69-9.524,4.14-17.913,4.349-25.164c0.204-7.039-1.35-12.427-4.661-16.156
				c-1.66-1.865-3.625-3.263-5.902-4.194c-2.282-0.932-4.87-1.501-7.768-1.709c-6.009,0-11.704,2.538-17.087,7.611
				c-5.389,5.078-10.36,11.549-14.913,19.418c-2.073,3.315-4.456,7.922-7.145,13.825c-2.694,5.903-5.334,12.378-7.922,19.417
				c-2.592,7.043-4.767,14.189-6.524,21.437c-1.763,7.251-2.748,13.825-2.952,19.727c-0.209,5.903,0.723,10.719,2.796,14.448
				c2.069,3.727,5.694,5.592,10.874,5.592c5.797,0,11.752-2.69,17.865-8.078c6.107-5.384,11.752-11.699,16.931-18.951
				c-1.66-3.932-2.485-8.801-2.485-14.602c0-4.971,0.723-9.941,2.175-14.912c0.412-1.865,1.398-3.209,2.952-4.04
				C320.339,298.363,322.047,298.154,323.912,298.567z"/>
			<path fill="#4F5169" d="M517.834,298.878c1.655,0.621,2.844,1.762,3.573,3.417c0.723,1.66,0.669,3.315-0.156,4.971
				c-0.417,1.039-0.831,2.073-1.242,3.107c-0.417,1.039-0.831,2.073-1.242,3.107c-0.417,0.829-0.884,1.66-1.399,2.485
				c-0.519,0.831-0.985,1.763-1.398,2.796c-2.281,4.146-4.611,8.132-6.99,11.962c-2.384,3.834-5.232,7.407-8.543,10.718
				c-3.525,3.525-7.51,6.32-11.962,8.389c-4.456,2.073-9.582,3.106-15.379,3.106c-3.106,0-6.009-0.31-8.699-0.931
				c-5.179-1.655-9.737-4.141-13.67-7.457c-5.801,7.874-12.427,14.552-19.884,20.038c-7.455,5.491-14.912,8.233-22.368,8.233
				c-8.495,0-14.81-2.175-18.951-6.524c-4.146-4.349-6.68-9.991-7.611-16.932c-0.932-6.936-0.623-14.704,0.931-23.301
				c1.554-8.591,3.728-17.087,6.524-25.476c2.797-8.388,5.851-16.31,9.166-23.766c3.311-7.457,6.417-13.563,9.32-18.33
				c5.796-9.524,12.32-17.446,19.573-23.766c7.247-6.316,15.223-9.476,23.922-9.476h0.311c4.553,0.208,8.855,1.087,12.893,2.64
				c4.04,1.554,7.505,4.092,10.408,7.612c2.485,2.902,4.451,6.422,5.903,10.562c1.446,4.146,2.067,9.01,1.863,14.602
				c0,4.971-0.621,10.408-1.863,16.311c-1.244,5.903-2.952,12.068-5.126,18.484c-2.175,6.422-4.715,12.894-7.612,19.418
				c-2.902,6.524-6.111,12.689-9.631,18.484c2.277,2.903,5.384,4.869,9.321,5.903c2.067,0.417,3.83,0.621,5.28,0.621
				c3.728,0,7.093-0.723,10.097-2.175c3.001-1.446,5.641-3.311,7.924-5.592c2.688-2.69,5.126-5.694,7.301-9.01
				c2.175-3.311,4.086-6.728,5.747-10.253c0.412-0.825,0.825-1.602,1.242-2.329c0.413-0.724,0.825-1.603,1.242-2.642
				c0.413-0.825,0.825-1.708,1.244-2.64c0.412-0.932,0.825-1.913,1.242-2.952c0.621-1.655,1.81-2.845,3.573-3.573
				C514.465,298,516.173,298.052,517.834,298.878z M451.038,298.567c1.655,0.417,2.952,1.398,3.883,2.952
				c0.932,1.554,1.19,3.263,0.777,5.126c-0.417,1.242-0.727,2.486-0.931,3.728c-0.209,1.242-0.419,2.383-0.623,3.417
				c4.763-9.32,8.491-18.742,11.185-28.271c2.69-9.524,4.14-17.913,4.349-25.164c0.204-7.039-1.35-12.427-4.661-16.156
				c-1.66-1.865-3.625-3.263-5.902-4.194c-2.282-0.932-4.87-1.501-7.768-1.709c-6.009,0-11.704,2.538-17.087,7.611
				c-5.389,5.078-10.36,11.549-14.913,19.418c-2.073,3.315-4.456,7.922-7.145,13.825c-2.694,5.903-5.334,12.378-7.922,19.417
				c-2.592,7.043-4.767,14.189-6.524,21.437c-1.763,7.251-2.748,13.825-2.952,19.727c-0.209,5.903,0.723,10.719,2.796,14.448
				c2.069,3.727,5.694,5.592,10.874,5.592c5.797,0,11.752-2.69,17.865-8.078c6.107-5.384,11.752-11.699,16.931-18.951
				c-1.66-3.932-2.485-8.801-2.485-14.602c0-4.971,0.723-9.941,2.175-14.912c0.412-1.865,1.398-3.209,2.952-4.04
				C447.466,298.363,449.173,298.154,451.038,298.567z"/>
			<path fill="#4F5169" d="M656.92,298.878c1.655,0.829,2.845,2.073,3.573,3.727c0.723,1.661,0.671,3.317-0.156,4.972
				c-3.315,7.043-6.524,13.466-9.63,19.261c-3.107,5.801-6.214,11.083-9.32,15.844c-6.422,9.739-13.156,17.194-20.195,22.37
				c-3.728,2.485-7.766,4.349-12.116,5.592c-4.146,1.452-8.389,2.175-12.739,2.175h-0.31c-6.632,0-12.116-2.277-16.465-6.835
				c-1.865-2.277-3.369-5.019-4.505-8.232c-1.142-3.209-1.709-6.884-1.709-11.029v-0.311v-0.621v-0.31
				c-5.388,7.873-11.393,14.344-18.019,19.417c-6.632,5.078-13.981,7.509-22.059,7.301c-8.699-0.204-15.121-3.728-19.261-10.564
				c-2.282-3.106-3.836-6.78-4.661-11.028c-0.825-4.243-1.136-8.855-0.932-13.825c0-4.349,0.621-9.631,1.865-15.846
				c1.242-6.213,2.898-12.839,4.971-19.882c2.067-7.039,4.659-14.185,7.767-21.437c3.107-7.247,6.524-14.083,10.253-20.505
				c5.797-9.524,12.321-17.5,19.573-23.922c7.247-6.417,15.325-9.733,24.233-9.941h2.796c4.141,0.417,8.024,1.554,11.65,3.417
				c3.621,1.865,6.884,4.349,9.787,7.457c0.621,1.039,1.29,1.971,2.019,2.796c0.723,0.831,1.29,1.762,1.708,2.796
				c1.034-2.688,2.021-5.384,2.952-8.078c0.932-2.688,1.913-5.384,2.952-8.078l6.835-19.573v-0.31l1.863-5.282
				c0.826-2.69,1.913-5.849,3.263-9.476c1.344-3.621,2.844-7.922,4.505-12.893c0.621-1.655,1.757-2.845,3.417-3.573
				c1.655-0.724,3.311-0.777,4.971-0.156c1.655,0.621,2.845,1.762,3.573,3.417c0.723,1.66,0.777,3.315,0.156,4.971
				c-1.452,3.938-2.796,7.82-4.038,11.65c-1.244,3.836-2.384,7.199-3.418,10.097l-1.863,5.593l-0.311,0.31l-6.524,19.573
				c-4.557,12.427-9.009,24.908-13.358,37.437c-4.349,12.533-8.806,25.428-13.36,38.68c-1.452,4.349-2.748,8.543-3.884,12.583
				c-1.14,4.038-2.227,7.82-3.261,11.339c-1.039,3.315-1.815,6.369-2.33,9.164c-0.519,2.796-0.777,5.126-0.777,6.991v0.621
				c0,4.767,1.034,8.184,3.107,10.253c1.446,1.863,3.621,2.796,6.524,2.796h0.31c2.486,0,5.486-0.515,9.01-1.554
				c3.107-1.034,5.903-2.378,8.389-4.038c5.592-3.932,11.184-10.146,16.775-18.642c5.593-8.699,11.496-19.882,17.709-33.553
				c0.825-1.655,2.069-2.796,3.728-3.417C653.605,297.946,655.261,298.052,656.92,298.878z M533.582,359.149
				c6.213,0.208,12.062-2.224,17.553-7.301c5.484-5.072,10.562-11.495,15.223-19.263c4.659-7.766,8.903-16.257,12.737-25.476
				c3.83-9.213,7.301-17.757,10.408-25.63c1.446-3.311,2.742-6.472,3.883-9.476c1.136-3.001,2.224-5.749,3.263-8.233
				c0.204-0.621,0.311-1.344,0.311-2.175c-0.417-7.457-2.282-13.048-5.593-16.777c-3.525-3.728-7.665-5.796-12.427-6.214
				c-0.417-0.204-1.039-0.31-1.863-0.31c-6.009,0.208-11.758,2.903-17.242,8.078c-5.491,5.179-10.618,11.704-15.379,19.573
				c-3.525,6.009-6.68,12.325-9.476,18.951c-2.796,6.63-5.18,13.155-7.145,19.573c-1.971,6.422-3.525,12.481-4.661,18.175
				c-1.14,5.699-1.709,10.514-1.709,14.446c0,7.874,1.136,13.67,3.418,17.398C526.746,357.392,529.644,358.946,533.582,359.149z"/>
			<path fill="#4F5169" d="M984.995,142.296c3.931,3.315,5.903,7.355,5.903,12.116c-0.419,7.253-4.146,12.223-11.186,14.913
				c-7.043,2.694-16.362,3.936-27.962,3.728c-7.454-0.205-15.641-0.879-24.543-2.021c-8.908-1.135-18.018-2.534-27.339-4.194
				c-3.523,3.525-6.732,7.563-9.63,12.116c-3.107,5.18-6.059,11.083-8.855,17.709c-2.796,6.632-5.49,13.466-8.076,20.505
				c-2.592,7.043-5.026,14.087-7.301,21.126c-2.284,7.043-4.349,13.67-6.214,19.884c-1.039,3.727-2.074,7.198-3.107,10.407
				c-1.039,3.213-2.071,6.165-3.107,8.855c-1.242,3.525-2.329,6.734-3.263,9.631c-0.931,2.902-1.916,5.801-2.952,8.699
				c-3.936,12.223-8.028,24.131-12.27,35.728c-4.248,11.601-9.531,21.903-15.844,30.912c-6.322,9.01-14.087,16.204-23.301,21.593
				c-9.22,5.382-20.661,7.97-34.332,7.766c-1.242,0-2.073-0.108-2.485-0.311c-8.287-0.417-15.588-2.175-21.903-5.28
				c-6.32-3.107-11.758-7.147-16.311-12.117c-9.116-10.562-13.462-23.301-13.048-38.213v-2.486
				c0.413-9.32,2.534-17.602,6.369-24.854c3.83-7.247,8.545-13.562,14.136-18.951c6.834-6.417,14.446-11.285,22.834-14.602
				c8.389-3.31,16.311-4.971,23.768-4.971c1.865,0,3.418,0.621,4.661,1.865c1.242,1.242,1.865,2.796,1.865,4.659
				c0,1.865-0.623,3.418-1.865,4.661c-1.242,1.242-2.796,1.863-4.661,1.863c-6.011,0-12.379,1.35-19.107,4.04
				c-6.734,2.694-12.893,6.732-18.486,12.116c-4.557,4.146-8.34,9.166-11.339,15.067c-3.005,5.903-4.713,12.481-5.126,19.728v1.865
				c-0.208,5.801,0.567,11.184,2.33,16.156c1.757,4.971,4.296,9.426,7.611,13.358c3.311,3.728,7.403,6.734,12.273,9.01
				c4.863,2.277,10.407,3.621,16.621,4.038c0.412,0,0.777,0.05,1.087,0.156c0.311,0.102,0.569,0.156,0.777,0.156
				c11.186,0.204,20.661-2.127,28.429-6.991c7.765-4.863,14.339-11.387,19.727-19.573c5.385-8.18,10.043-17.5,13.982-27.96
				c3.931-10.456,7.66-21.282,11.183-32.467c1.033-3.309,2.069-6.524,3.107-9.63c1.033-3.107,2.069-6.005,3.107-8.699
				c1.033-2.69,2.018-5.641,2.952-8.855c0.931-3.209,2.018-6.68,3.26-10.408c1.865-6.213,3.987-12.941,6.37-20.194
				c2.38-7.247,4.864-14.496,7.457-21.747c2.586-7.247,5.382-14.292,8.388-21.126c3-6.835,6.161-13.048,9.477-18.642
				c0.823-1.446,1.706-2.844,2.64-4.194c0.931-1.344,1.913-2.742,2.952-4.194c-12.225-2.277-23.768-4.709-34.64-7.301
				c-10.875-2.588-19.939-4.709-27.186-6.369c-2.903-0.826-5.388-1.447-7.457-1.865c-2.071-0.412-3.936-0.825-5.592-1.242
				c-6.63-1.446-13.204-2.742-19.727-3.884c-6.526-1.135-12.791-1.5-18.796-1.087c-5.593,0.417-10.929,1.762-16.001,4.038
				c-5.078,2.282-9.893,6.112-14.446,11.495c-2.903,3.107-5.388,6.943-7.457,11.496c-1.452,3.728-2.384,7.665-2.796,11.805
				c-0.209,7.045,0.825,13.156,3.107,18.33c2.485,5.388,6.315,9.428,11.495,12.117c5.174,2.902,11.285,4.557,18.33,4.971
				c5.174,0.417,10.456,0,15.844-1.244c5.385-1.242,10.564-3,15.533-5.28c1.655-0.826,3.365-0.932,5.128-0.311
				c1.757,0.621,2.952,1.763,3.571,3.417c0.826,1.661,0.934,3.317,0.311,4.972c-0.62,1.66-1.76,2.902-3.416,3.728
				c-12.638,5.8-25.166,8.388-37.594,7.766c-9.116-0.413-17.087-2.588-23.922-6.524c-7.874-4.141-13.568-10.146-17.087-18.019
				c-1.661-3.52-2.903-7.301-3.728-11.341c-0.831-4.038-1.039-8.437-0.621-13.204c0.412-5.796,1.655-11.285,3.728-16.465
				c2.688-5.592,5.903-10.564,9.63-14.913c5.797-6.834,12.01-11.699,18.642-14.601c6.626-2.899,13.563-4.661,20.815-5.282
				c6.837-0.413,13.773-0.05,20.816,1.087c7.038,1.142,14.183,2.438,21.436,3.884c1.036,0.417,2.745,0.883,5.128,1.398
				c2.377,0.519,5.125,1.194,8.232,2.019c8.079,1.865,18.332,4.248,30.758,7.145c12.426,2.903,25.474,5.593,39.145,8.078
				c5.382-4.553,11.232-8.232,17.554-11.029c6.316-2.796,12.683-4.917,19.107-6.369c10.974-2.485,21.017-3.107,30.135-1.863
				c4.763,0.621,9.112,1.66,13.048,3.107C979.604,138.155,982.711,140.02,984.995,142.296z M952.061,160.004
				c7.457,0.209,13.563-0.154,18.332-1.087c4.76-0.932,7.145-2.534,7.145-4.815c0-0.826-0.419-1.554-1.242-2.175
				c-2.903-2.486-7.977-4.243-15.225-5.282c-3.727-0.413-7.768-0.515-12.117-0.311c-4.349,0.209-8.906,0.831-13.668,1.865
				c-3.526,0.829-7.044,1.863-10.564,3.106c-3.523,1.244-6.942,2.797-10.253,4.661c6.628,1.039,13.15,1.917,19.574,2.64
				C940.459,159.335,946.469,159.8,952.061,160.004z"/>
			<path fill="#4F5169" d="M1009.595,298.878c1.655,0.829,2.844,2.073,3.571,3.727c0.724,1.661,0.671,3.317-0.156,4.972
				l-0.308,0.931c-2.903,6.632-6.166,13.671-9.788,21.126c-3.625,7.457-7.717,14.398-12.27,20.816
				c-4.559,6.422-9.684,11.757-15.38,16c-5.696,4.248-12.066,6.369-19.104,6.369h-0.311c-4.146,0-7.666-0.825-10.564-2.486
				c-2.903-1.654-5.281-3.83-7.145-6.524c-1.661-2.485-2.796-5.174-3.418-8.078c-0.62-2.898-0.931-5.902-0.931-9.009v-0.932
				c0-4.761,1.135-11.184,3.418-19.261c1.033-3.728,2.12-7.66,3.26-11.806c1.138-4.141,2.536-8.389,4.194-12.739
				c1.449-4.14,2.589-7.557,3.418-10.253c0.826-2.688,1.554-5.072,2.176-7.145c1.033-2.898,1.91-5.486,2.64-7.766
				c0.722-2.277,1.709-5.073,2.952-8.389l-4.972-1.552c-4.559-1.655-9.319-3.311-14.291-4.972
				c-4.972-1.654-9.839-3.621-14.602-5.902c-0.416,1.45-0.931,2.848-1.554,4.194c-0.62,1.35-1.14,2.538-1.554,3.573v0.31
				l-25.166,54.37c-0.829,1.66-2.071,2.796-3.727,3.417c-1.661,0.621-3.314,0.519-4.972-0.311c-1.658-0.825-2.793-2.067-3.416-3.727
				c-0.623-1.655-0.515-3.311,0.311-4.972l24.852-54.057l3.73-9.32c-5.179-3.52-9.273-7.612-12.273-12.273
				c-3.002-4.659-4.194-10.301-3.571-16.931c0.62-4.553,2.586-8.491,5.903-11.806c0-0.204,0.102-0.311,0.311-0.311
				c3.727-3.311,7.969-4.971,12.737-4.971c1.446,0,3.209,0.209,5.28,0.621l0.311,0.311c2.275,0.621,4.242,1.66,5.903,3.107
				c1.655,1.45,3,3.106,4.038,4.971c1.655,3.106,2.485,6.942,2.485,11.495c0,2.694-0.518,5.801-1.554,9.32
				c-0.416,1.66-0.931,3.369-1.551,5.126c-0.623,1.762-1.245,3.573-1.865,5.438c4.349,2.281,9.01,4.248,13.979,5.903
				c4.972,1.66,9.735,3.315,14.291,4.971c4.763,1.45,8.699,2.694,11.806,3.728c1.655,0.621,2.847,1.815,3.574,3.573
				c0.722,1.762,0.775,3.471,0.156,5.126v0.31c-1.865,4.767-3.317,8.651-4.349,11.65c-1.039,3.005-2.074,6.267-3.107,9.787
				c-0.829,2.281-1.709,4.815-2.64,7.611c-0.934,2.796-2.021,6.059-3.263,9.787c-1.452,4.349-2.796,8.495-4.038,12.427
				c-1.242,3.936-2.284,7.665-3.107,11.184c-1.039,3.525-1.763,6.632-2.176,9.321c-0.416,2.694-0.727,5.077-0.931,7.145v0.621
				c0,1.863,0.156,3.679,0.467,5.436c0.308,1.763,0.979,3.263,2.018,4.505c0.623,1.039,1.446,1.815,2.487,2.33
				c1.033,0.519,2.485,0.777,4.349,0.777c4.969,0,9.576-1.865,13.824-5.592c4.242-3.728,8.232-8.389,11.962-13.981
				c3.727-5.592,7.145-11.699,10.253-18.33c3.107-6.626,5.903-12.84,8.388-18.64l0.311-0.932c0.823-1.655,2.069-2.845,3.727-3.573
				C1006.278,298,1007.933,298.052,1009.595,298.878z M917.633,228.976c0.623-1.865,0.931-3.728,0.931-5.593
				c0-2.067-0.308-3.727-0.931-4.971c-0.623-1.034-1.35-1.655-2.173-1.863h-0.311c-0.419,0-0.676-0.05-0.778-0.156
				c-0.105-0.102-0.362-0.156-0.775-0.156c-1.452,0-2.694,0.519-3.73,1.554h-0.308c-0.832,0.831-1.452,2.175-1.865,4.04
				c-0.419,2.902,0.102,5.544,1.554,7.922c1.446,2.383,3.416,4.611,5.903,6.678c0.413-1.242,0.823-2.485,1.242-3.727
				C916.804,231.46,917.215,230.218,917.633,228.976z"/>
			<path fill="#4F5169" d="M1130.85,298.878c1.655,0.829,2.796,2.073,3.418,3.727c0.62,1.661,0.515,3.317-0.311,4.972l-0.311,0.931
				c-2.901,6.632-6.163,13.671-9.786,21.126c-3.625,7.457-7.717,14.398-12.273,20.816c-4.556,6.422-9.684,11.757-15.377,16
				c-5.699,4.248-11.962,6.369-18.796,6.369h-0.311h-0.311c-4.146,0-7.663-0.825-10.561-2.486c-2.903-1.654-5.181-3.83-6.837-6.524
				c-1.242-1.863-2.173-3.932-2.796-6.213c-0.62-2.277-1.14-4.553-1.554-6.835c-4.556,6.422-9.63,11.704-15.222,15.846
				c-5.592,4.144-11.914,6.213-18.951,6.213h-0.311c-4.146,0-7.666-0.825-10.564-2.486c-2.903-1.654-5.28-3.83-7.145-6.524
				c-1.655-2.485-2.796-5.174-3.416-8.078c-0.623-2.898-0.934-5.902-0.934-9.009v-0.932c0-4.761,1.14-11.184,3.418-19.261
				c1.039-3.728,2.12-7.66,3.263-11.806c1.135-4.141,2.533-8.389,4.194-12.739c0.823-2.277,1.964-5.592,3.416-9.941
				c1.449-4.349,3.311-9.524,5.595-15.534c2.688-7.247,5.538-14.96,8.543-23.145c3-8.18,5.951-16.204,8.854-24.078
				c0.62-1.655,1.757-2.844,3.416-3.573c1.656-0.723,3.311-0.777,4.972-0.156c1.655,0.623,2.844,1.763,3.571,3.418
				c0.724,1.66,0.778,3.315,0.156,4.971c-3.314,9.116-6.421,17.761-9.319,25.941c-2.903,8.185-5.49,15.277-7.768,21.282
				c-2.072,5.592-3.883,10.562-5.436,14.912c-1.554,4.349-2.748,7.666-3.574,9.943c-1.658,4.349-3.059,8.495-4.194,12.427
				c-1.14,3.936-2.227,7.665-3.263,11.184c-0.829,3.525-1.503,6.632-2.018,9.321c-0.521,2.694-0.778,5.077-0.778,7.145v0.621
				c0,1.863,0.156,3.679,0.467,5.436c0.311,1.763,0.877,3.263,1.709,4.505c1.446,2.073,3.829,3.107,7.145,3.107
				c4.763,0,9.268-1.865,13.515-5.592c4.242-3.728,8.232-8.389,11.959-13.981c3.73-5.592,7.196-11.699,10.408-18.33
				c3.209-6.626,6.059-12.84,8.543-18.64v-0.311c0.204-0.204,0.311-0.515,0.311-0.932c0.826-2.277,2.021-5.592,3.574-9.941
				c1.554-4.349,3.362-9.524,5.436-15.534c2.898-7.247,5.796-14.96,8.699-23.145c2.898-8.18,5.796-16.204,8.699-24.078
				c0.623-1.655,1.757-2.844,3.418-3.573c1.656-0.723,3.311-0.777,4.969-0.156c1.656,0.623,2.898,1.763,3.73,3.418
				c0.823,1.66,0.931,3.315,0.308,4.971c-3.523,9.116-6.732,17.761-9.63,25.941c-2.903,8.185-5.49,15.277-7.768,21.282
				c-2.071,5.592-3.834,10.562-5.281,14.912c-1.452,4.349-2.694,7.666-3.727,9.943v0.31c0,0.209-0.054,0.417-0.156,0.623
				c-0.108,0.208-0.156,0.417-0.156,0.621c-1.452,4.146-2.748,8.078-3.885,11.805c-1.14,3.728-2.125,7.147-2.951,10.253
				c-1.862,6.835-2.796,12.325-2.796,16.467v0.621c0,1.863,0.156,3.679,0.467,5.436c0.311,1.763,0.88,3.263,1.709,4.505
				c1.446,2.073,3.727,3.107,6.834,3.107h0.311c4.763,0,9.268-1.865,13.515-5.592c4.242-3.728,8.232-8.389,11.959-13.981
				c3.73-5.592,7.148-11.699,10.252-18.33c3.107-6.626,5.903-12.84,8.391-18.64l0.62-0.932c0.623-1.655,1.811-2.845,3.574-3.573
				C1127.483,298,1129.192,298.052,1130.85,298.878z"/>
			<path fill="#4F5169" d="M1251.359,298.878c1.656,0.829,2.796,2.073,3.418,3.727c0.62,1.661,0.62,3.317,0,4.972
				c-6.01,13.256-12.536,24.078-19.574,32.465c-7.043,8.389-14.5,15.067-22.367,20.039c-7.875,4.971-15.847,8.388-23.923,10.251
				c-8.076,1.865-16.054,2.588-23.923,2.175h-0.62h-0.311c-5.592-0.412-10.824-1.446-15.689-3.106
				c-4.87-1.655-9.064-4.243-12.584-7.768c-3.727-3.519-6.63-7.868-8.699-13.048c-2.072-5.174-3.003-11.285-2.796-18.33v-0.621
				v-0.31c0.413-7.247,1.709-14.859,3.885-22.835c2.173-7.97,5.017-15.892,8.543-23.766c3.517-8.078,7.612-15.738,12.27-22.991
				c4.661-7.247,9.477-13.562,14.446-18.951c4.763-4.761,9.836-8.388,15.224-10.874c5.382-2.898,10.768-4.349,16.156-4.349h0.311
				h0.931h0.311c3.52,0.209,6.834,0.986,9.941,2.33c3.107,1.35,5.795,3.369,8.076,6.059c4.556,5.18,6.837,12.223,6.837,21.126v1.863
				c0,3.938-0.832,8.078-2.487,12.427c-0.62,2.073-1.449,4.04-2.485,5.903c-1.039,1.865-2.173,3.728-3.416,5.592
				c-1.041,1.452-2.439,2.33-4.197,2.642c-1.76,0.31-3.469-0.049-5.125-1.088c-1.452-1.034-2.329-2.432-2.64-4.194
				c-0.311-1.757,0.048-3.467,1.087-5.126c1.865-2.067,3.311-4.763,4.349-8.078c1.242-2.69,1.865-5.592,1.865-8.699v-1.242
				c0-5.797-1.242-9.943-3.73-12.427c-2.072-2.277-4.969-3.621-8.699-4.04h-0.931c-1.661,0-3.37,0.263-5.128,0.777
				c-1.76,0.519-3.571,1.194-5.436,2.02c-1.865,1.039-3.781,2.281-5.747,3.727c-1.97,1.452-3.781,3.107-5.436,4.972
				c-4.559,4.767-8.962,10.461-13.204,17.087c-4.248,6.632-8.028,13.568-11.339,20.816c-3.107,7.251-5.646,14.446-7.612,21.592
				c-1.972,7.145-3.161,13.931-3.574,20.349v0.621c-0.207,9.737,2.278,16.883,7.457,21.437c2.278,2.281,5.128,4.038,8.543,5.28
				c3.418,1.244,7.196,1.971,11.342,2.175h0.62c6.627,0.209,13.408-0.466,20.349-2.019c6.939-1.554,13.719-4.398,20.349-8.543
				c6.627-4.141,13.096-9.991,19.418-17.553c6.316-7.559,12.064-17.242,17.242-29.048c0.826-1.655,2.069-2.796,3.727-3.417
				C1248.042,298.256,1249.698,298.256,1251.359,298.878z"/>
			<path fill="#4F5169" d="M1287.117,245.441c-0.829,2.282-2.021,5.49-3.574,9.631c-1.551,4.146-3.314,8.961-5.281,14.446
				c-1.97,5.49-4.146,11.495-6.523,18.019c-2.385,6.524-4.816,13.102-7.301,19.728c-2.284,6.009-4.505,12.068-6.681,18.175
				c-2.173,6.112-4.194,11.912-6.059,17.398c-1.862,5.49-3.625,10.408-5.28,14.758c-1.656,4.349-2.898,7.874-3.727,10.562
				c-0.623,1.865-1.757,3.161-3.418,3.884c-1.656,0.729-3.311,0.879-4.972,0.465c-1.655-0.621-2.898-1.757-3.727-3.417
				c-0.826-1.655-0.931-3.311-0.311-4.971c0.829-2.486,2.021-5.849,3.574-10.097c1.554-4.243,3.314-9.112,5.281-14.602
				c1.97-5.486,4.038-11.389,6.214-17.709c2.173-6.315,4.398-12.581,6.678-18.796l0.311-0.311
				c2.275-6.417,4.553-12.839,6.834-19.261c2.278-6.418,4.451-12.427,6.526-18.019c2.069-5.593,3.882-10.51,5.436-14.758
				c1.554-4.243,2.844-7.505,3.883-9.787v-0.31c1.656-4.553,2.847-7.972,3.574-10.253c0.722-2.277,1.5-4.349,2.329-6.213
				c1.242-3.728,2.434-7.195,3.574-10.408c1.135-3.209,2.018-5.849,2.64-7.922l1.865-5.282c1.033-2.69,2.173-5.903,3.416-9.631
				c1.245-3.728,2.691-7.97,4.349-12.737c0.623-1.655,1.757-2.845,3.418-3.573c1.655-0.724,3.311-0.777,4.972-0.156
				c1.655,0.621,2.898,1.762,3.727,3.417c0.826,1.66,0.931,3.315,0.311,4.971c-1.452,3.938-2.85,7.82-4.194,11.65
				c-1.35,3.836-2.538,7.199-3.574,10.097c-0.416,1.04-0.727,1.971-0.931,2.797c-0.209,0.829-0.521,1.762-0.934,2.796
				c-2.694,8.078-4.867,14.189-6.523,18.33l-5.592,16.465L1287.117,245.441z M1384.047,298.878c1.655,0.621,2.799,1.815,3.418,3.573
				c0.623,1.762,0.623,3.471,0,5.126c-2.903,6.213-6.059,12.947-9.474,20.194c-3.418,7.253-7.408,14.087-11.962,20.505
				c-4.768,7.043-10.097,12.893-16,17.553c-5.903,4.659-12.482,6.99-19.73,6.99c-3.523,0-6.577-0.567-9.163-1.709
				c-2.592-1.135-4.924-2.742-6.993-4.815c-2.071-2.277-3.625-4.917-4.658-7.922c-1.039-3-1.763-5.951-2.176-8.855v-0.311
				c0-3.309,0.204-6.728,0.623-10.251c0.413-3.52,0.823-7.039,1.242-10.564c0.413-3.107,0.775-6.213,1.087-9.32
				c0.311-3.107,0.467-6.107,0.467-9.01c-0.209-4.14-1.194-7.505-2.951-10.097c-1.763-2.588-5.334-3.884-10.719-3.884
				c-1.865,0-4.248,0.729-7.145,2.175c-0.416,0.209-0.931,0.467-1.553,0.777c-0.62,0.311-1.141,0.675-1.554,1.088l-4.349,4.038
				c-1.658,1.244-3.416,1.763-5.281,1.554h-0.623c0-0.204-0.207-0.31-0.62-0.31l-0.311-0.311h-0.311l-0.311-0.31
				c-0.829-0.413-1.452-0.826-1.862-1.244c-1.038-1.242-1.554-2.742-1.554-4.505c0-1.757,0.515-3.261,1.554-4.504
				c0.823-0.623,1.656-1.292,2.485-2.021c0.826-0.723,1.757-1.5,2.796-2.329l69.28-63.378c1.449-1.244,3.053-1.811,4.816-1.709
				c1.757,0.108,3.263,0.883,4.505,2.33c1.242,1.242,1.811,2.796,1.709,4.659c-0.108,1.865-0.778,3.317-2.021,4.349l-51.882,47.224
				c7.247,1.242,12.165,4.3,14.758,9.164c2.586,4.869,3.984,10.616,4.194,17.242c0,3.107-0.209,6.37-0.623,9.787
				c-0.416,3.417-0.829,6.888-1.242,10.407c-0.416,3.317-0.775,6.476-1.087,9.476c-0.311,3.005-0.467,5.855-0.467,8.545h0.311
				c0,3.525,1.033,6.524,3.107,9.009c1.655,1.661,3.829,2.486,6.523,2.486c4.763,0,9.214-1.757,13.36-5.282
				c4.14-3.519,7.972-7.97,11.495-13.358c4.143-6.005,7.87-12.477,11.186-19.418c3.311-6.936,6.313-13.408,9.007-19.417
				c0.826-1.655,2.069-2.845,3.73-3.573C1380.734,298,1382.389,298.052,1384.047,298.878z"/>
			<path fill="#4F5169" d="M1458.919,268.431c4.349,7.457,8.388,15.121,12.117,22.991c3.727,7.874,5.694,16.465,5.903,25.785v0.311
				v0.311c-0.209,9.32-2.021,17.398-5.439,24.232c-3.416,6.835-7.819,12.535-13.204,17.088c-5.388,4.557-11.447,7.922-18.173,10.097
				c-6.732,2.175-13.413,3.369-20.038,3.573h-0.311c-0.623,0-1.194-0.048-1.709-0.156c-0.521-0.102-0.985-0.156-1.398-0.156
				c-6.63-0.412-12.581-1.912-17.865-4.504c-5.281-2.588-9.893-5.953-13.824-10.098c-3.73-4.14-6.633-8.853-8.699-14.135
				c-2.069-5.282-3.107-10.718-3.107-16.311v-2.796c0.416-5.796,1.709-11.339,3.883-16.621c2.176-5.282,5.229-9.991,9.166-14.136
				c3.52-3.932,7.768-6.99,12.737-9.164c4.972-2.175,10.456-3.365,16.467-3.573c3.727,0,7.457,0.831,11.183,2.486
				c3.73,1.66,7.038,4.038,9.941,7.145c2.487,2.694,4.505,5.903,6.059,9.63c1.554,3.728,2.434,7.768,2.64,12.117
				c0,1.863-0.62,3.417-1.862,4.659c-1.245,1.244-2.796,1.865-4.661,1.865s-3.418-0.621-4.661-1.865
				c-1.242-1.242-1.865-2.796-1.865-4.659c-0.207-5.174-1.97-9.524-5.28-13.048c-3.107-3.52-6.834-5.282-11.184-5.282
				c-4.146,0-7.875,0.777-11.186,2.33c-3.314,1.554-6.212,3.679-8.699,6.369c-2.903,2.903-5.125,6.369-6.678,10.408
				c-1.554,4.038-2.538,8.13-2.951,12.272v1.863c0,8.287,2.796,15.433,8.388,21.437c2.688,2.903,5.951,5.282,9.786,7.145
				c3.832,1.863,8.127,3.005,12.896,3.417c0.62,0.209,1.446,0.311,2.485,0.311h0.311c5.173-0.204,10.354-1.136,15.533-2.796
				c5.176-1.655,9.941-4.243,14.291-7.768c4.14-3.519,7.457-7.868,9.941-13.048c2.487-5.174,3.832-11.387,4.041-18.64v-0.311
				c-0.209-7.455-1.972-14.704-5.283-21.747c-3.314-7.038-6.942-13.873-10.872-20.505c-1.039-1.654-1.919-3.155-2.643-4.504
				c-0.727-1.346-1.605-2.845-2.64-4.505c-2.281,2.281-4.349,4.659-6.212,7.145c-1.245,1.452-2.748,2.229-4.505,2.33
				c-1.763,0.106-3.37-0.467-4.816-1.709c-1.452-1.034-2.227-2.432-2.329-4.194c-0.108-1.757,0.357-3.365,1.398-4.815
				c3.308-3.932,6.726-7.66,10.252-11.185l0.308-0.311c-1.862-4.349-3.212-8.801-4.038-13.358c-0.829-4.553-0.829-9.214,0-13.981
				c0.204-2.69,1.033-5.592,2.485-8.699c0-0.204,0.051-0.311,0.156-0.311c0.102,0,0.156-0.102,0.156-0.31
				c1.242-2.69,3-5.174,5.283-7.457c1.862-1.863,4.038-3.311,6.523-4.349c2.485-1.242,4.972-1.863,7.457-1.863
				c4.553,0.417,8.178,2.175,10.872,5.28c2.278,2.282,3.622,5.903,4.041,10.874c0,1.452-0.107,2.903-0.311,4.349
				c-0.209,1.452-0.521,2.903-0.931,4.349c-0.419,1.661-0.886,3.215-1.401,4.661c-0.518,1.452-1.087,2.903-1.706,4.349
				c-1.661,3.728-3.628,7.145-5.903,10.253c-2.284,3.107-4.661,6.111-7.145,9.01c1.033,2.073,2.173,4.092,3.416,6.057
				C1456.743,264.033,1457.88,266.154,1458.919,268.431z M1446.49,242.334c1.245-1.655,2.434-3.417,3.574-5.28
				c1.135-1.865,2.224-3.83,3.263-5.903c0.413-1.034,0.823-2.122,1.242-3.263c0.413-1.136,0.724-2.223,0.931-3.261
				c0.623-2.069,0.826-3.932,0.623-5.593c0-1.446-0.209-2.277-0.623-2.485c0-0.204-0.311-0.311-0.931-0.311
				c-0.419-0.204-1.14-0.102-2.176,0.311c-1.242,0.829-2.173,1.554-2.796,2.175c-1.038,1.039-1.862,2.281-2.485,3.728l-0.311,0.31
				c-0.829,1.865-1.35,3.626-1.553,5.282C1444.628,232.81,1445.042,237.573,1446.49,242.334z"/>
		</g>
	</g>
</g>
<g id="bushes">
</g>
<g id="sun">
</g>
</svg>
