<?xml version="1.0" encoding="utf-8"?>
<!-- Generator: Adobe Illustrator 19.1.0, SVG Export Plug-In . SVG Version: 6.00 Build 0)  -->
<svg version="1.1" id="Layer_1" xmlns="http://www.w3.org/2000/svg" xmlns:xlink="http://www.w3.org/1999/xlink" x="0px" y="0px"
	 viewBox="318 -68.641 538 464.641" enable-background="new 318 -68.641 538 464.641" xml:space="preserve">
<g>
	<g>
		<g>
			<rect x="659.442" y="288.71" fill="#FFFFFF" width="41.074" height="80.512"/>
			<path fill="#363437" d="M700.516,370.523h-41.074c-0.718,0-1.301-0.583-1.301-1.301V288.71c0-0.718,0.583-1.301,1.301-1.301
				h41.074c0.718,0,1.301,0.583,1.301,1.301v80.512C701.817,369.94,701.234,370.523,700.516,370.523z M660.743,367.921h38.472
				v-77.91h-38.472V367.921z"/>
		</g>
		<g>
			<path fill="#FFFFFF" d="M659.438,369.218c-4.549,7.51-3.744,17.414,2.576,24.109l1.084,1.148c7.59,8.039,20.261,8.404,28.3,0.814
				l85.221-80.455c8.039-7.59,8.404-20.261,0.814-28.301l-1.084-1.148c-7.59-8.039-20.26-8.404-28.301-0.814l-66.045,62.352"/>
			<path fill="#303333" d="M677.671,402.052c-0.21,0-0.419-0.003-0.629-0.009c-5.693-0.163-10.981-2.534-14.89-6.675l-1.084-1.148
				c-6.562-6.95-7.69-17.508-2.743-25.675c0.372-0.615,1.17-0.811,1.787-0.439c0.614,0.372,0.811,1.172,0.439,1.787
				c-4.343,7.17-3.352,16.44,2.409,22.542l1.084,1.148c3.432,3.636,8.075,5.717,13.073,5.861c4.998,0.127,9.753-1.668,13.389-5.1
				l85.221-80.456c3.636-3.432,5.717-8.075,5.861-13.073s-1.667-9.753-5.1-13.389l-1.083-1.148
				c-7.085-7.505-18.957-7.847-26.462-0.761l-66.045,62.352c-0.522,0.492-1.344,0.47-1.839-0.053
				c-0.493-0.522-0.469-1.346,0.053-1.839l66.045-62.352c8.549-8.07,22.07-7.68,30.14,0.868l1.083,1.148
				c3.91,4.141,5.973,9.556,5.809,15.249c-0.163,5.693-2.534,10.981-6.675,14.89l-85.221,80.456
				C688.304,399.999,683.133,402.051,677.671,402.052z"/>
		</g>
		<g>
			<g>
				<path fill="#FFFFFF" d="M750.69,278.681c-1.39-2.85-0.196-6.319,2.654-7.709l33.799-16.487c2.85-1.39,6.319-0.196,7.709,2.654
					l16.969,34.786c1.39,2.85,0.196,6.319-2.654,7.709l-33.799,16.487c-2.85,1.39-6.319,0.196-7.709-2.654"/>
				<path fill="#303333" d="M772.86,318.006c-0.777,0-1.559-0.13-2.317-0.391c-1.788-0.616-3.228-1.887-4.053-3.577
					c-0.315-0.646-0.047-1.424,0.598-1.74c0.647-0.315,1.425-0.046,1.74,0.598c1.08,2.213,3.757,3.134,5.969,2.056l33.8-16.487
					c1.066-0.52,1.868-1.43,2.258-2.562c0.39-1.132,0.318-2.342-0.202-3.408l-16.969-34.787c-1.08-2.212-3.757-3.134-5.971-2.055
					l-33.799,16.487c-2.212,1.08-3.134,3.757-2.055,5.97c0.315,0.645,0.047,1.424-0.599,1.739c-0.644,0.314-1.424,0.047-1.739-0.599
					c-1.708-3.501-0.249-7.74,3.253-9.448l33.8-16.487c3.5-1.707,7.74-0.248,9.449,3.253l16.969,34.787
					c0.825,1.69,0.94,3.607,0.324,5.396c-0.616,1.788-1.887,3.228-3.578,4.052l-33.799,16.487
					C774.965,317.766,773.916,318.006,772.86,318.006z"/>
			</g>
			<g>
				<g>
					<path fill="#FFFFFF" d="M773.381,275.15c-1.787,0.872-3.534,1.001-3.882,0.287l-4.249-8.711
						c-0.348-0.713,0.829-2.01,2.616-2.882l21.192-10.337c1.787-0.872,3.534-1.001,3.882-0.287l4.249,8.711
						c0.348,0.713-0.829,2.01-2.616,2.882L773.381,275.15z"/>
					<path fill="#303333" d="M770.623,277.127c-0.996,0-1.822-0.334-2.222-1.155l-4.249-8.71c-0.233-0.477-0.453-1.468,0.701-2.738
						c0.597-0.658,1.477-1.289,2.477-1.778l21.192-10.337c2.165-1.056,4.708-1.379,5.516,0.274l4.249,8.712
						c0.233,0.477,0.453,1.469-0.701,2.738c-0.597,0.658-1.478,1.289-2.477,1.777l-21.192,10.337l0,0
						C772.825,276.78,771.637,277.127,770.623,277.127z M770.485,274.671c0.342,0.032,1.202-0.055,2.36-0.619l21.192-10.337
						c1.158-0.566,1.755-1.189,1.941-1.478l-4.024-8.25c-0.342-0.034-1.202,0.054-2.36,0.619l-21.192,10.337
						c-1.158,0.566-1.755,1.189-1.941,1.479L770.485,274.671z"/>
				</g>
				<g>
					<path fill="#FFFFFF" d="M778.896,286.455c-1.787,0.872-3.534,1.001-3.882,0.287l-4.249-8.711
						c-0.348-0.713,0.829-2.01,2.616-2.882l21.192-10.337c1.787-0.872,3.534-1.001,3.882-0.287l4.249,8.711
						c0.348,0.713-0.829,2.01-2.616,2.882L778.896,286.455z"/>
					<path fill="#303333" d="M776.138,288.432c-0.996,0-1.822-0.334-2.222-1.153l-4.249-8.712c-0.233-0.477-0.453-1.469,0.701-2.738
						c0.597-0.658,1.477-1.289,2.477-1.777l21.192-10.337c2.163-1.056,4.708-1.38,5.516,0.275l4.249,8.71
						c0.233,0.477,0.453,1.468-0.701,2.738c-0.597,0.658-1.477,1.289-2.477,1.778l-21.192,10.337
						C778.34,288.085,777.151,288.432,776.138,288.432z M776,285.976c0.344,0.034,1.202-0.054,2.36-0.619l21.192-10.337
						c1.158-0.566,1.755-1.189,1.941-1.479l-4.024-8.25c-0.343-0.033-1.202,0.055-2.36,0.619l-21.192,10.337
						c-1.158,0.566-1.755,1.189-1.941,1.478L776,285.976z"/>
				</g>
				<g>
					<path fill="#FFFFFF" d="M784.41,297.759c-1.787,0.872-3.534,1.001-3.882,0.287l-4.249-8.711
						c-0.348-0.713,0.829-2.01,2.616-2.882l21.192-10.337c1.787-0.872,3.534-1.001,3.882-0.287l4.249,8.711
						c0.348,0.713-0.829,2.01-2.616,2.882L784.41,297.759z"/>
					<path fill="#303333" d="M781.652,299.737c-0.996,0-1.822-0.334-2.222-1.155l-4.249-8.71c-0.233-0.478-0.452-1.469,0.701-2.739
						c0.597-0.658,1.477-1.289,2.477-1.777l21.192-10.337c2.162-1.057,4.708-1.381,5.516,0.274l4.249,8.711
						c0.233,0.478,0.452,1.469-0.701,2.739c-0.597,0.658-1.477,1.289-2.477,1.777l-21.192,10.337l0,0
						C783.854,299.391,782.666,299.737,781.652,299.737z M781.514,297.281c0.34,0.034,1.202-0.055,2.36-0.619l21.192-10.337
						c1.159-0.566,1.756-1.189,1.941-1.478l-4.024-8.25c-0.342-0.033-1.202,0.054-2.36,0.619l-21.192,10.337
						c-1.159,0.566-1.756,1.189-1.941,1.478L781.514,297.281z"/>
				</g>
				<g>
					<path fill="#FFFFFF" d="M789.925,309.065c-1.787,0.872-3.534,1.001-3.882,0.287l-4.249-8.711
						c-0.348-0.713,0.829-2.01,2.616-2.882l21.192-10.337c1.787-0.872,3.534-1.001,3.882-0.287l4.249,8.711
						c0.348,0.713-0.829,2.01-2.616,2.882L789.925,309.065z"/>
					<path fill="#303333" d="M787.167,311.042c-0.996,0-1.822-0.334-2.222-1.153l-4.249-8.712c-0.233-0.477-0.453-1.469,0.701-2.738
						c0.597-0.658,1.477-1.289,2.477-1.777l21.192-10.337c2.164-1.056,4.709-1.379,5.516,0.274l4.249,8.712
						c0.233,0.477,0.453,1.469-0.7,2.738c-0.598,0.659-1.477,1.289-2.478,1.777l-21.192,10.337l0,0
						C789.369,310.696,788.18,311.042,787.167,311.042z M787.029,308.586c0.344,0.034,1.202-0.054,2.36-0.619l21.192-10.337
						c1.158-0.565,1.756-1.189,1.941-1.478l-4.024-8.25c-0.343-0.033-1.202,0.054-2.36,0.619l-21.192,10.337
						c-1.158,0.566-1.755,1.189-1.941,1.478L787.029,308.586z"/>
				</g>
			</g>
		</g>
		<g>
			<path fill="#FFFFFF" d="M749.369,285.713l-6.189-20.819c-1.538-5.175,0.628-10.427,4.816-11.672l0,0
				c4.187-1.244,8.871,1.971,10.41,7.146l3.849,12.948"/>
			<path fill="#303333" d="M749.368,286.829c-0.481,0-0.925-0.314-1.068-0.798l-6.189-20.819c-0.817-2.747-0.711-5.607,0.298-8.053
				c1.043-2.529,2.914-4.306,5.268-5.006c4.787-1.424,10.08,2.119,11.797,7.897l3.849,12.948c0.176,0.591-0.161,1.212-0.751,1.387
				c-0.59,0.177-1.211-0.161-1.387-0.751l-3.849-12.948c-1.368-4.6-5.42-7.467-9.023-6.395c-1.696,0.504-3.06,1.825-3.842,3.719
				c-0.815,1.975-0.894,4.307-0.223,6.566l6.189,20.819c0.176,0.591-0.161,1.212-0.751,1.387
				C749.581,286.814,749.473,286.829,749.368,286.829z"/>
		</g>
	</g>
	<g>
		<g>
			<rect x="465.094" y="288.71" fill="#FFFFFF" width="41.074" height="80.512"/>
			<path fill="#363437" d="M506.168,370.523h-41.074c-0.719,0-1.301-0.583-1.301-1.301V288.71c0-0.718,0.582-1.301,1.301-1.301
				h41.074c0.718,0,1.301,0.583,1.301,1.301v80.512C507.469,369.94,506.886,370.523,506.168,370.523z M466.395,367.921h38.472
				v-77.91h-38.472V367.921z"/>
		</g>
		<g>
			<path fill="#FFFFFF" d="M506.172,369.218c4.549,7.51,3.744,17.414-2.577,24.109l-1.084,1.148
				c-7.59,8.039-20.261,8.404-28.301,0.814l-85.221-80.455c-8.039-7.59-8.404-20.261-0.814-28.301l1.084-1.148
				c7.59-8.039,20.261-8.404,28.301-0.814l66.044,62.352"/>
			<path fill="#303333" d="M487.949,402.042c-5.254,0-10.517-1.925-14.63-5.807l-85.221-80.456
				c-4.141-3.909-6.512-9.197-6.675-14.89c-0.164-5.693,1.899-11.108,5.809-15.249l1.083-1.148
				c8.071-8.547,21.591-8.937,30.14-0.866l66.045,62.352c0.522,0.493,0.546,1.317,0.053,1.839c-0.493,0.522-1.316,0.545-1.839,0.053
				l-66.045-62.353c-7.505-7.085-19.375-6.745-26.462,0.761l-1.083,1.148c-3.433,3.636-5.244,8.391-5.1,13.389
				c0.143,4.998,2.225,9.641,5.861,13.073l85.221,80.456c7.505,7.087,19.376,6.745,26.462-0.761l1.083-1.148
				c5.762-6.102,6.753-15.371,2.41-22.542c-0.372-0.614-0.176-1.414,0.439-1.787c0.615-0.371,1.414-0.176,1.787,0.439
				c4.947,8.167,3.818,18.725-2.743,25.675l-1.083,1.148C499.27,399.802,493.615,402.041,487.949,402.042z"/>
		</g>
		<g>
			<g>
				<path fill="#FFFFFF" d="M414.92,278.681c1.39-2.85,0.196-6.319-2.654-7.709l-33.799-16.487c-2.85-1.39-6.319-0.196-7.709,2.654
					l-16.969,34.786c-1.39,2.85-0.196,6.319,2.654,7.709l33.799,16.487c2.85,1.39,6.319,0.196,7.709-2.654"/>
				<path fill="#303333" d="M392.751,318.006c-1.056,0-2.105-0.24-3.079-0.715l-33.799-16.487c-1.691-0.825-2.961-2.264-3.577-4.053
					c-0.616-1.788-0.501-3.705,0.324-5.396l16.969-34.786c1.708-3.503,5.946-4.962,9.449-3.253l33.799,16.487
					c3.502,1.709,4.961,5.947,3.253,9.448c-0.315,0.646-1.093,0.914-1.739,0.599c-0.646-0.315-0.914-1.094-0.599-1.739
					c1.079-2.213,0.157-4.89-2.056-5.97l-33.799-16.487c-2.212-1.08-4.891-0.157-5.97,2.056l-16.969,34.786
					c-0.52,1.066-0.592,2.277-0.202,3.408c0.39,1.132,1.192,2.042,2.258,2.562l33.799,16.487c1.066,0.52,2.276,0.593,3.408,0.202
					c1.132-0.389,2.041-1.191,2.562-2.258c0.315-0.645,1.095-0.912,1.739-0.598c0.646,0.315,0.914,1.094,0.599,1.74
					c-0.825,1.69-2.264,2.961-4.053,3.577C394.309,317.876,393.528,318.006,392.751,318.006z"/>
			</g>
			<g>
				<g>
					<path fill="#FFFFFF" d="M392.229,275.15c1.787,0.872,3.534,1.001,3.882,0.287l4.249-8.711c0.348-0.713-0.829-2.01-2.616-2.882
						l-21.192-10.337c-1.787-0.872-3.534-1.001-3.882-0.287l-4.249,8.711c-0.348,0.713,0.829,2.01,2.616,2.882L392.229,275.15z"/>
					<path fill="#303333" d="M394.978,277.12c-0.114,0-0.233-0.004-0.358-0.013c-0.887-0.066-1.926-0.37-2.926-0.859l0,0
						l-21.192-10.337c-1-0.488-1.88-1.119-2.477-1.777c-1.153-1.27-0.934-2.262-0.701-2.739l4.248-8.71
						c0.808-1.654,3.352-1.33,5.516-0.275l21.192,10.337c1.001,0.488,1.88,1.12,2.478,1.778c1.153,1.27,0.934,2.262,0.701,2.739
						l-4.249,8.71C396.993,276.415,396.422,277.12,394.978,277.12z M392.765,274.052c1.159,0.565,2.019,0.653,2.36,0.619l4.024-8.25
						c-0.185-0.289-0.783-0.913-1.941-1.479l-21.192-10.337c-1.158-0.564-2.018-0.654-2.36-0.619l-4.024,8.25
						c0.186,0.289,0.783,0.913,1.941,1.478L392.765,274.052z"/>
				</g>
				<g>
					<path fill="#FFFFFF" d="M386.715,286.455c1.787,0.872,3.534,1.001,3.882,0.287l4.249-8.711c0.348-0.713-0.829-2.01-2.616-2.882
						l-21.192-10.337c-1.787-0.872-3.534-1.001-3.882-0.287l-4.249,8.711c-0.348,0.713,0.829,2.01,2.616,2.882L386.715,286.455z"/>
					<path fill="#303333" d="M389.473,288.432c-1.014,0-2.202-0.346-3.293-0.879l-21.192-10.337c-1.001-0.488-1.88-1.12-2.477-1.778
						c-1.153-1.27-0.934-2.262-0.701-2.739l4.249-8.71c0.808-1.655,3.353-1.331,5.516-0.275l21.192,10.337
						c1,0.488,1.88,1.119,2.477,1.777c1.154,1.27,0.934,2.262,0.701,2.739l-4.249,8.71
						C391.295,288.098,390.468,288.432,389.473,288.432z M364.117,273.541c0.186,0.289,0.783,0.913,1.941,1.479l21.192,10.337l0,0
						c1.158,0.564,2.019,0.652,2.36,0.619l4.024-8.25c-0.185-0.289-0.783-0.913-1.941-1.478l-21.192-10.337
						c-1.159-0.565-2.016-0.652-2.36-0.619L364.117,273.541z"/>
				</g>
				<g>
					<path fill="#FFFFFF" d="M381.2,297.759c1.787,0.872,3.534,1.001,3.882,0.287l4.249-8.711c0.348-0.713-0.829-2.01-2.616-2.882
						l-21.192-10.337c-1.787-0.872-3.534-1.001-3.882-0.287l-4.249,8.711c-0.348,0.713,0.829,2.01,2.616,2.882L381.2,297.759z"/>
					<path fill="#303333" d="M383.958,299.737c-1.013,0-2.202-0.346-3.293-0.879l0,0l-21.192-10.337
						c-1-0.488-1.88-1.119-2.477-1.777c-1.153-1.27-0.934-2.262-0.701-2.739l4.249-8.71c0.808-1.655,3.353-1.331,5.516-0.275
						l21.192,10.337c2.164,1.055,3.986,2.861,3.179,4.516l-4.249,8.71C385.78,299.403,384.953,299.737,383.958,299.737z
						 M381.736,296.662c1.159,0.565,2.019,0.654,2.36,0.619l4.025-8.25c-0.185-0.289-0.782-0.913-1.941-1.479l-21.192-10.337
						c-1.159-0.566-2.017-0.654-2.36-0.619l-4.024,8.25c0.185,0.289,0.782,0.913,1.941,1.478L381.736,296.662z"/>
				</g>
				<g>
					<path fill="#FFFFFF" d="M375.685,309.065c1.787,0.872,3.534,1.001,3.882,0.287l4.249-8.711c0.348-0.713-0.829-2.01-2.616-2.882
						l-21.192-10.337c-1.787-0.872-3.534-1.001-3.882-0.287l-4.249,8.711c-0.348,0.713,0.829,2.01,2.616,2.882L375.685,309.065z"/>
					<path fill="#303333" d="M378.443,311.042c-1.014,0-2.202-0.346-3.293-0.879l0,0l-21.192-10.337
						c-1-0.488-1.88-1.119-2.477-1.777c-1.153-1.27-0.934-2.261-0.701-2.738l4.249-8.711c0.809-1.654,3.353-1.331,5.516-0.275
						l21.192,10.337c1,0.488,1.88,1.119,2.477,1.777c1.153,1.27,0.934,2.262,0.701,2.739l-4.249,8.71
						C380.265,310.708,379.438,311.042,378.443,311.042z M376.221,307.967c1.158,0.564,2.019,0.651,2.36,0.619l4.024-8.25
						c-0.186-0.289-0.783-0.913-1.941-1.478l-21.192-10.337c-1.158-0.564-2.019-0.654-2.36-0.619l-4.024,8.25
						c0.185,0.289,0.782,0.913,1.941,1.478L376.221,307.967z"/>
				</g>
			</g>
		</g>
		<g>
			<path fill="#FFFFFF" d="M416.241,285.713l6.189-20.819c1.538-5.175-0.628-10.427-4.816-11.672l0,0
				c-4.187-1.244-8.871,1.971-10.41,7.146l-3.849,12.948"/>
			<path fill="#303333" d="M416.241,286.829c-0.105,0-0.212-0.015-0.318-0.047c-0.591-0.175-0.927-0.796-0.751-1.387l6.189-20.819
				c0.672-2.259,0.592-4.591-0.223-6.566c-0.781-1.894-2.146-3.215-3.842-3.719c-1.694-0.502-3.56-0.142-5.249,1.016
				c-1.762,1.21-3.102,3.12-3.774,5.379l-3.85,12.948c-0.175,0.59-0.796,0.928-1.387,0.751c-0.591-0.175-0.927-0.796-0.751-1.387
				l3.85-12.948c0.816-2.747,2.468-5.085,4.649-6.583c2.255-1.547,4.793-2.018,7.147-1.315c2.354,0.699,4.225,2.477,5.268,5.006
				c1.009,2.446,1.116,5.306,0.299,8.053l-6.189,20.819C417.166,286.516,416.722,286.829,416.241,286.829z"/>
		</g>
	</g>
	<g>
		<path fill="#2CBDC2" d="M693.575,255.319V122.534c0-57.715-49.349-104.502-110.224-104.502S473.128,64.82,473.128,122.534v132.785
			"/>
		<path fill="#373538" d="M693.575,257.054c-0.958,0-1.735-0.777-1.735-1.735V122.534c0-56.666-48.668-102.767-108.489-102.767
			S474.862,65.868,474.862,122.534v132.785c0,0.958-0.776,1.735-1.734,1.735c-0.958,0-1.734-0.777-1.734-1.735V122.534
			c0-58.579,50.224-106.236,111.958-106.236c61.733,0,111.958,47.657,111.958,106.236v132.785
			C695.31,256.277,694.532,257.054,693.575,257.054z"/>
	</g>
	<g>
		<path fill="#FFFFFF" d="M660.423,288.71h40.555l0.632-38.193c0-11.808-10.078-21.38-22.509-21.38H487.603
			c-12.432,0-22.509,9.572-22.509,21.38v38.193h40.555V406.46h154.774V288.71L660.423,288.71z"/>
		<path fill="#303333" d="M660.422,407.761H505.648c-0.718,0-1.301-0.583-1.301-1.301V290.011h-39.254
			c-0.719,0-1.301-0.583-1.301-1.301v-38.193c0-12.506,10.681-22.68,23.81-22.68H679.1c13.129,0,23.81,10.175,23.81,22.68
			l-0.632,38.215c-0.012,0.71-0.591,1.279-1.301,1.279h-39.254V406.46C661.723,407.178,661.14,407.761,660.422,407.761z
			 M506.949,405.159h152.172V288.71c0-0.718,0.583-1.301,1.301-1.301h39.275l0.61-36.914c0-11.05-9.514-20.057-21.209-20.057
			H487.603c-11.695,0-21.209,9.007-21.209,20.079v36.892h39.254c0.718,0,1.301,0.583,1.301,1.301V405.159z"/>
	</g>
	<g>
		<path fill="#FFFFFF" d="M620.625,245.481v-41.903h-74.483v41.903c0,0,0,20.31,37.241,20.31S620.625,245.481,620.625,245.481z"/>
		<path fill="#363437" d="M583.383,267.525c-15.951,0-27.345-3.606-33.864-10.717c-5.053-5.511-5.111-11.092-5.111-11.327v-41.903
			c0-0.958,0.776-1.735,1.734-1.735h74.484c0.958,0,1.735,0.777,1.735,1.735v41.903l0,0c0,0.235-0.058,5.816-5.112,11.327
			C610.728,263.919,599.334,267.525,583.383,267.525z M547.876,205.312v40.168c0.01,0.748,0.636,18.575,35.507,18.575
			c35.101,0,35.508-18.389,35.508-18.575v-40.168H547.876z"/>
	</g>
	<g>
		
			<ellipse transform="matrix(-0.3688 0.9295 -0.9295 -0.3688 1043.4813 -411.1217)" fill="#FFFFFF" cx="661.33" cy="148.735" rx="29.208" ry="17.3"/>
		<path fill="#373538" d="M654.604,178.381c-1.607,0-3.179-0.287-4.685-0.884l0,0c-4.888-1.94-8.187-6.842-9.289-13.804
			c-1.051-6.636,0.018-14.441,3.008-21.977c2.99-7.537,7.564-13.95,12.878-18.06c5.575-4.312,11.337-5.621,16.226-3.68
			c4.888,1.939,8.187,6.842,9.289,13.804c1.051,6.635-0.018,14.44-3.008,21.977C673.596,169.434,663.574,178.381,654.604,178.381z
			 M651.198,174.272c7.838,3.11,19.108-5.954,24.601-19.796c2.764-6.967,3.761-14.125,2.806-20.155
			c-0.903-5.703-3.439-9.653-7.142-11.122c-3.702-1.469-8.258-0.333-12.824,3.2c-4.83,3.735-9.012,9.629-11.776,16.596
			c-2.764,6.967-3.761,14.125-2.806,20.155C644.958,168.853,647.495,172.803,651.198,174.272L651.198,174.272z"/>
	</g>
	<g>
		<path fill="#FFFFFF" d="M662.744,140.708c-0.052,5.025-0.12,10.172-0.12,15.412c0,55.946-35.491,71.371-79.271,71.371
			c-43.781,0-79.271-15.425-79.271-71.371c0-3.148-0.025-6.255-0.056-9.33c2.537-0.463,64.351-12.195,99.833-62.503
			C603.856,84.288,661.343,89.905,662.744,140.708z"/>
		<path fill="#373538" d="M583.352,229.226c-25.026,0-43.703-4.925-57.1-15.057c-15.863-11.997-23.906-31.528-23.906-58.049
			c0-3.293-0.029-6.555-0.056-9.312l-0.015-1.461l1.438-0.262c2.584-0.471,63.689-12.119,98.726-61.796l0.583-0.826l1.006,0.1
			c0.604,0.06,14.972,1.557,29.632,9.392c19.57,10.459,30.226,27.302,30.816,48.707l0.001,0.033l-0.029,2.672
			c-0.045,4.148-0.091,8.438-0.091,12.755c0,26.521-8.044,46.051-23.906,58.049C627.056,224.301,608.378,229.226,583.352,229.226z
			 M505.773,148.212c0.023,2.431,0.042,5.158,0.042,7.909c0,25.376,7.58,43.975,22.53,55.282
			c12.771,9.659,30.764,14.354,55.007,14.354c24.243,0,42.235-4.695,55.007-14.354c14.95-11.306,22.53-29.906,22.53-55.282
			c0-4.336,0.047-8.635,0.092-12.793l0.028-2.605c-0.571-20.358-10.322-35.737-28.983-45.71
			c-11.923-6.372-23.905-8.399-27.355-8.876C571.3,132.661,515.656,146.14,505.773,148.212z"/>
	</g>
	<g>
		<path fill="#FFFFFF" d="M569.507,161.885c1.826,5.335,7.333,14.759,13.844,14.759s12.018-9.424,13.844-14.759"/>
		<path fill="#373538" d="M583.352,177.945c-7.084,0-13.006-9.592-15.075-15.639c-0.232-0.68,0.13-1.419,0.81-1.652
			c0.68-0.232,1.419,0.13,1.652,0.81c0.81,2.367,2.535,5.972,4.95,8.988c1.785,2.231,4.564,4.891,7.664,4.891
			s5.878-2.66,7.664-4.891c2.414-3.016,4.14-6.621,4.951-8.988c0.233-0.68,0.971-1.042,1.652-0.809
			c0.68,0.232,1.042,0.972,0.809,1.652C596.357,168.353,590.434,177.945,583.352,177.945z"/>
	</g>
	<g>
		<path fill="#363437" d="M610.079,136.74c-0.357,0-0.711-0.146-0.968-0.432c-0.48-0.535-0.436-1.357,0.099-1.837
			c4.258-3.825,11.316-6.108,18.882-6.108c4.837,0,9.455,0.91,13.354,2.632c0.657,0.29,0.954,1.058,0.664,1.715
			c-0.29,0.657-1.058,0.955-1.716,0.665c-3.571-1.577-7.825-2.41-12.303-2.41c-6.941,0-13.35,2.034-17.144,5.442
			C610.699,136.63,610.388,136.74,610.079,136.74z"/>
	</g>
	<g>
		<path fill="#363437" d="M556.623,136.74c-0.31,0-0.62-0.11-0.869-0.333c-1.956-1.756-4.679-3.189-7.874-4.142
			c-0.688-0.205-1.08-0.93-0.875-1.618c0.205-0.689,0.932-1.08,1.618-0.875c3.562,1.062,6.628,2.688,8.868,4.7
			c0.534,0.48,0.578,1.302,0.098,1.837C557.335,136.594,556.98,136.74,556.623,136.74z"/>
	</g>
	<g>
		<path fill="#FFFFFF" d="M626.036,185.061c0,12.73-19.111,23.05-42.684,23.05s-42.684-10.32-42.684-23.05H626.036z"/>
		<path fill="#373538" d="M583.352,209.412c-11.613,0-22.552-2.453-30.8-6.907c-8.502-4.591-13.185-10.786-13.185-17.444
			c0-0.718,0.582-1.301,1.301-1.301h85.369c0.718,0,1.301,0.583,1.301,1.301c0,6.657-4.683,12.852-13.185,17.444
			C605.903,206.959,594.965,209.412,583.352,209.412z M542.041,186.362c1.285,11.389,19.323,20.449,41.31,20.449
			c21.988,0,40.025-9.059,41.311-20.449H542.041z"/>
	</g>
	<g>
		<path fill="#373538" d="M583.352,194.245c-13.777,0-27.196-0.492-40.138-1.403c5.917,8.895,21.628,15.269,40.138,15.269
			s34.221-6.373,40.138-15.269C610.548,193.753,597.129,194.245,583.352,194.245z"/>
	</g>
	<g>
		<path fill="#FFFFFF" d="M504.024,146.791c0.031,3.075,0.056,6.182,0.056,9.33c0,6.872,0.548,13.117,1.569,18.812
			c-6.333-3.089-12.581-10.285-16.369-19.83c-0.731-1.842-1.329-3.682-1.813-5.503C487.468,149.599,501.519,147.308,504.024,146.791
			z"/>
		<path fill="#373538" d="M505.649,176.668c-0.259,0-0.519-0.058-0.76-0.176c-6.978-3.404-13.415-11.161-17.22-20.749
			c-0.73-1.839-1.362-3.757-1.877-5.698c-0.039-0.145-0.058-0.295-0.058-0.445c0-0.346,0.12-1.493,1.66-1.745
			c3.282-0.537,14.155-2.323,16.28-2.762c0.509-0.104,1.036,0.023,1.439,0.348c0.403,0.326,0.64,0.814,0.646,1.333
			c0.028,2.766,0.056,6.039,0.056,9.347c0,6.571,0.519,12.798,1.541,18.507c0.115,0.643-0.14,1.296-0.661,1.69
			C506.388,176.549,506.02,176.668,505.649,176.668z M489.672,150.996c0.364,1.178,0.772,2.338,1.22,3.467
			c2.915,7.346,7.435,13.484,12.464,17.079c-0.671-4.864-1.011-10.034-1.011-15.421c0-2.503-0.016-4.989-0.037-7.249
			C499.078,149.443,493.385,150.386,489.672,150.996z"/>
	</g>
	<g>
		<g>
			<path fill="#353336" d="M549.438,334.071c-18.353,0-33.284-12.856-33.284-28.659c0-0.718,0.582-1.301,1.301-1.301
				c0.719,0,1.301,0.583,1.301,1.301c0,14.368,13.764,26.057,30.682,26.057c10.954,0,21.155-5.02,26.623-13.102
				c0.402-0.595,1.21-0.752,1.806-0.348c0.595,0.403,0.751,1.211,0.348,1.806C572.271,328.612,561.244,334.071,549.438,334.071z"/>
		</g>
		<g>
			<path fill="#353336" d="M617.264,334.071c-11.805,0-22.832-5.458-28.778-14.245c-0.403-0.595-0.247-1.403,0.348-1.806
				c0.597-0.403,1.404-0.246,1.806,0.348c5.469,8.082,15.67,13.102,26.623,13.102c16.919,0,30.683-11.689,30.683-26.057
				c0-0.718,0.583-1.301,1.301-1.301c0.718,0,1.301,0.583,1.301,1.301C650.548,321.215,635.617,334.071,617.264,334.071z"/>
		</g>
	</g>
	<g>
		<path fill="#303333" d="M505.519,289.253c-0.718,0-1.301-0.583-1.301-1.301v-6.129c0-0.718,0.582-1.301,1.301-1.301
			s1.301,0.583,1.301,1.301v6.129C506.82,288.671,506.238,289.253,505.519,289.253z"/>
	</g>
	<g>
		<path fill="#303333" d="M660.535,289.189c-0.718,0-1.301-0.583-1.301-1.301v-6.129c0-0.718,0.583-1.301,1.301-1.301
			s1.301,0.583,1.301,1.301v6.129C661.836,288.607,661.253,289.189,660.535,289.189z"/>
	</g>
	<g>
		<path fill="#363437" d="M528.901,158.178c-0.133,0-0.268-0.031-0.395-0.096c-0.424-0.218-0.591-0.739-0.373-1.163
			c2.481-4.824,7.759-7.941,13.445-7.941c5.687,0,10.965,3.117,13.445,7.941c0.218,0.424,0.051,0.945-0.373,1.163
			c-0.424,0.22-0.945,0.051-1.163-0.373c-2.188-4.255-6.862-7.004-11.909-7.004c-5.046,0-9.72,2.749-11.909,7.004
			C529.517,158.006,529.214,158.178,528.901,158.178z"/>
	</g>
	<g>
		<path fill="#363437" d="M612.511,158.178c-0.133,0-0.268-0.031-0.395-0.096c-0.424-0.218-0.592-0.739-0.373-1.163
			c2.481-4.824,7.759-7.941,13.445-7.941c5.686,0,10.964,3.117,13.446,7.941c0.219,0.424,0.051,0.945-0.373,1.163
			c-0.425,0.219-0.945,0.052-1.163-0.373c-2.189-4.255-6.864-7.004-11.909-7.004c-5.046,0-9.721,2.749-11.909,7.004
			C613.126,158.006,612.824,158.178,612.511,158.178z"/>
	</g>
</g>
</svg>
