<?xml version="1.0" encoding="utf-8"?>
<!-- Generator: Adobe Illustrator 19.0.1, SVG Export Plug-In . SVG Version: 6.00 Build 0)  -->
<svg version="1.1" id="Layer_1" xmlns="http://www.w3.org/2000/svg" xmlns:xlink="http://www.w3.org/1999/xlink" x="0px" y="0px"
	 viewBox="0 0 960 251.411" enable-background="new 0 0 960 251.411" xml:space="preserve">
<g>
	<path fill="#FFFFFF" d="M582.005,176.259h-70.205c-4.558,0-8.252,3.509-8.252,7.838v66.629c0,4.329,3.695,7.838,8.252,7.838h70.205
		c4.558,0,8.252-3.509,8.252-7.838v-66.629C590.257,179.768,586.562,176.259,582.005,176.259z"/>
	<path fill="#363437" d="M582.005,259.076H511.8c-4.834,0-8.766-3.746-8.766-8.351v-66.628c0-4.604,3.932-8.351,8.766-8.351h70.205
		c4.833,0,8.765,3.746,8.765,8.351v66.628C590.77,255.33,586.838,259.076,582.005,259.076z M511.8,176.772
		c-4.268,0-7.74,3.286-7.74,7.325v66.628c0,4.039,3.473,7.325,7.74,7.325h70.205c4.268,0,7.739-3.286,7.739-7.325v-66.628
		c0-4.039-3.472-7.325-7.739-7.325H511.8z"/>
</g>
<g>
	<path fill="#FFFFFF" d="M560.555,182.251v-15.362h-27.307v15.362c0,0,0,7.446,13.653,7.446S560.555,182.251,560.555,182.251z"/>
	<path fill="#363437" d="M546.902,190.197c-13.992,0-14.153-7.622-14.153-7.946v-15.362c0-0.276,0.224-0.5,0.5-0.5h27.307
		c0.276,0,0.5,0.224,0.5,0.5v15.362C561.056,182.575,560.895,190.197,546.902,190.197z M533.749,167.389v14.862
		c0.003,0.281,0.217,6.946,13.153,6.946c12.922,0,13.15-6.65,13.153-6.947v-14.861H533.749z"/>
</g>
<g>
	<g>
		
			<ellipse transform="matrix(-0.9295 -0.3688 0.3688 -0.9295 1059.2322 499.4152)" fill="#FFFFFF" cx="577.351" cy="148.465" rx="6.371" ry="10.757"/>
		<path fill="#363437" d="M574.855,159.241c-0.574,0-1.13-0.104-1.657-0.312c-3.521-1.397-4.523-7.229-2.234-12.998l0,0
			c2.29-5.77,7.023-9.32,10.539-7.929c1.752,0.695,2.937,2.463,3.335,4.978c0.383,2.419-0.008,5.268-1.101,8.021
			s-2.762,5.094-4.699,6.593C577.63,158.681,576.192,159.241,574.855,159.241z M571.894,146.3
			c-2.086,5.257-1.335,10.505,1.674,11.699c1.41,0.562,3.137,0.136,4.859-1.197c1.798-1.391,3.354-3.582,4.381-6.171
			c1.027-2.588,1.397-5.25,1.042-7.495c-0.34-2.151-1.305-3.645-2.716-4.204C578.127,137.737,573.979,141.043,571.894,146.3
			L571.894,146.3z"/>
	</g>
	<g>
		
			<ellipse transform="matrix(0.9295 -0.3688 0.3688 0.9295 -18.3461 200.9592)" fill="#FFFFFF" cx="516.454" cy="148.465" rx="6.371" ry="10.757"/>
		<path fill="#363437" d="M518.948,159.241c-1.337,0-2.774-0.56-4.183-1.648c-1.938-1.499-3.606-3.84-4.699-6.593
			s-1.483-5.602-1.1-8.021c0.397-2.515,1.582-4.282,3.335-4.978c3.519-1.395,8.249,2.159,10.539,7.929l0,0
			c1.093,2.753,1.483,5.602,1.1,8.021c-0.397,2.514-1.582,4.281-3.335,4.977C520.078,159.138,519.522,159.241,518.948,159.241z
			 M513.974,138.687c-0.45,0-0.888,0.079-1.303,0.244c-1.411,0.56-2.376,2.053-2.717,4.204c-0.355,2.245,0.015,4.907,1.042,7.495
			c1.027,2.589,2.583,4.78,4.381,6.171c1.724,1.333,3.45,1.759,4.859,1.197c1.411-0.56,2.376-2.053,2.717-4.203
			c0.355-2.245-0.015-4.907-1.042-7.496C520.113,141.768,516.785,138.687,513.974,138.687z"/>
	</g>
</g>
<g>
	<path fill="#FFFFFF" d="M576.097,139.98c0,20.604-13.071,36.09-29.195,36.09c-16.124,0-29.195-15.485-29.195-36.09
		s-2.859-26.959,29.195-26.959C578.956,113.02,576.097,119.375,576.097,139.98z"/>
	<path fill="#363437" d="M546.902,176.569c-16.651,0-29.695-16.072-29.695-36.59c0-1.645-0.019-3.198-0.035-4.665
		c-0.1-8.438-0.165-14.014,3.414-17.635c3.669-3.713,11.048-5.159,26.316-5.159s22.647,1.446,26.316,5.159
		c3.579,3.621,3.514,9.196,3.414,17.635c-0.017,1.467-0.035,3.021-0.035,4.665C576.598,160.497,563.554,176.569,546.902,176.569z
		 M546.902,113.52c-14.968,0-22.147,1.363-25.605,4.862c-3.285,3.323-3.222,8.732-3.125,16.92c0.017,1.471,0.035,3.028,0.035,4.677
		c0,19.957,12.604,35.59,28.695,35.59s28.695-15.633,28.695-35.59c0-1.648,0.019-3.206,0.035-4.677
		c0.097-8.188,0.16-13.597-3.125-16.92C569.05,114.884,561.87,113.52,546.902,113.52z"/>
</g>
<g>
	<path fill="#FFFFFF" d="M541.803,125.987v25.919c0.672,1.965,2.701,3.393,5.099,3.393c2.398,0,4.426-1.428,5.099-3.393"/>
	<path fill="#363437" d="M546.902,155.675c-2.517,0-4.708-1.465-5.453-3.646c-0.014-0.039-0.021-0.08-0.021-0.121v-25.92
		c0-0.207,0.168-0.375,0.375-0.375s0.375,0.168,0.375,0.375v25.856c0.661,1.846,2.551,3.081,4.724,3.081
		c2.194,0,4.101-1.262,4.744-3.139c0.066-0.196,0.278-0.3,0.476-0.233c0.196,0.066,0.301,0.28,0.233,0.476
		C551.609,154.21,549.417,155.675,546.902,155.675z"/>
</g>
<g>
	<g>
		<path fill="#353336" d="M557.9,162.066c0,3.28-4.924,5.939-10.998,5.939c-6.074,0-10.998-2.659-10.998-5.939H557.9z"/>
		<path fill="#363437" d="M546.902,168.38c-6.271,0-11.373-2.832-11.373-6.313c0-0.207,0.168-0.375,0.375-0.375H557.9
			c0.207,0,0.375,0.168,0.375,0.375C558.275,165.548,553.174,168.38,546.902,168.38z M536.303,162.441
			c0.37,2.894,4.982,5.188,10.6,5.188s10.229-2.295,10.6-5.188H536.303z"/>
	</g>
</g>
<g>
	<path fill="#363437" d="M530.886,146.466c-0.276,0-0.5-0.224-0.5-0.5v-4.24c0-0.276,0.224-0.5,0.5-0.5s0.5,0.224,0.5,0.5v4.24
		C531.386,146.242,531.162,146.466,530.886,146.466z"/>
</g>
<g>
	<path fill="#363437" d="M563.916,146.466c-0.276,0-0.5-0.224-0.5-0.5v-4.24c0-0.276,0.224-0.5,0.5-0.5s0.5,0.224,0.5,0.5v4.24
		C564.416,146.242,564.192,146.466,563.916,146.466z"/>
</g>
<g>
	<path fill="#363437" d="M523.765,136.657c-0.174,0-0.343-0.091-0.435-0.253c-0.137-0.24-0.053-0.546,0.188-0.682
		c2.122-1.203,4.67-1.839,7.369-1.839c1.858,0,3.64,0.301,5.293,0.893c0.26,0.093,0.395,0.379,0.302,0.64
		c-0.093,0.26-0.377,0.395-0.64,0.302c-1.545-0.554-3.212-0.834-4.955-0.834c-2.527,0-4.904,0.591-6.875,1.708
		C523.934,136.637,523.849,136.657,523.765,136.657z"/>
</g>
<g>
	<path fill="#363437" d="M570.039,136.657c-0.084,0-0.169-0.021-0.247-0.065c-1.971-1.117-4.348-1.708-6.874-1.708
		c-1.743,0-3.41,0.28-4.956,0.834c-0.26,0.093-0.547-0.042-0.64-0.302c-0.093-0.261,0.042-0.547,0.302-0.64
		c1.654-0.593,3.436-0.893,5.294-0.893c2.699,0,5.246,0.636,7.368,1.839c0.24,0.136,0.324,0.441,0.188,0.682
		C570.382,136.566,570.213,136.657,570.039,136.657z"/>
</g>
<g>
	<path fill="#2CBDC2" d="M581.376,143.804l-1.242-7.074c0,0-1.595-6.783,0.574-13.697c-7.271-8.981-7.409-12.364-10.129-17.681
		c-23.137-23.208-48.343,0-48.343,0s-2.038,7.329-10.866,17.944c3.452,7.611,2.881,14.636,2.881,14.636l-2.581,7.028
		c0,0,4.321,6.019,7.048,7.279c-1.403-17.892,2.788-30.068,2.788-30.068s2.935,5.842,4.342,4.546c0.34-3.079,2.877-8.42,2.877-8.42
		s10.12,8.796,21.551,11.466c-1.564-4.933-1.639-9.522-1.609-11.124c2.56,2.147,7.669,6.206,12.937,9.096
		c0,0,0.63-3.377,2.687-5.894c2.601,1.152,5.349,2.65,8.101,4.613c0,0,2.121,9.916,2.049,23.427L581.376,143.804z"/>
	<path fill="#373538" d="M518.719,152.738c-0.071,0-0.143-0.016-0.21-0.046c-2.813-1.3-7.064-7.19-7.244-7.44
		c-0.097-0.135-0.12-0.309-0.063-0.464l2.557-6.962c0.044-0.721,0.339-7.312-2.842-14.324c-0.079-0.174-0.052-0.378,0.07-0.525
		c8.642-10.392,10.749-17.687,10.77-17.76c0.024-0.089,0.074-0.17,0.143-0.233c0.256-0.234,25.827-23.264,49.036,0.016
		c0.036,0.036,0.067,0.079,0.091,0.125c0.742,1.452,1.303,2.78,1.844,4.065c1.457,3.455,2.964,7.027,8.228,13.528
		c0.105,0.13,0.139,0.305,0.089,0.464c-2.101,6.695-0.581,13.367-0.565,13.434l1.248,7.102c0.03,0.173-0.031,0.348-0.163,0.463
		l-6.935,6.076c-0.148,0.131-0.358,0.161-0.537,0.079s-0.293-0.261-0.292-0.458c0.065-12.287-1.713-21.696-1.999-23.13
		c-2.344-1.655-4.864-3.097-7.499-4.29c-1.765,2.347-2.343,5.338-2.349,5.369c-0.029,0.157-0.133,0.292-0.277,0.36
		c-0.146,0.068-0.314,0.063-0.454-0.014c-4.783-2.624-9.434-6.202-12.196-8.47c0.037,2.12,0.311,5.889,1.586,9.908
		c0.055,0.172,0.013,0.359-0.109,0.491c-0.122,0.133-0.308,0.188-0.48,0.147c-9.972-2.329-19.046-9.348-21.256-11.15
		c-0.656,1.459-2.3,5.301-2.562,7.672c-0.014,0.12-0.069,0.231-0.158,0.313c-0.288,0.265-0.646,0.369-1.032,0.298
		c-1.246-0.227-2.701-2.472-3.52-3.913c-0.964,3.413-3.554,14.236-2.418,28.729c0.015,0.177-0.066,0.348-0.212,0.449
		C518.919,152.708,518.819,152.738,518.719,152.738z M512.232,144.881c0.705,0.955,3.659,4.862,5.918,6.444
		c-1.177-17.277,2.841-29.196,2.883-29.317c0.065-0.189,0.238-0.322,0.439-0.336c0.197-0.017,0.39,0.095,0.479,0.274
		c0.883,1.754,2.515,4.295,3.382,4.453c0.018,0.003,0.034,0.005,0.049,0.005c0.445-3.147,2.788-8.106,2.89-8.322
		c0.067-0.141,0.197-0.242,0.35-0.274c0.153-0.03,0.312,0.01,0.431,0.112c0.098,0.085,9.66,8.313,20.491,11.146
		c-1.327-4.626-1.408-8.796-1.377-10.438c0.004-0.192,0.117-0.365,0.293-0.445c0.176-0.079,0.381-0.052,0.528,0.072
		c2.466,2.067,7.263,5.881,12.278,8.718c0.296-1.141,1.059-3.519,2.638-5.449c0.143-0.174,0.383-0.232,0.589-0.141
		c2.886,1.277,5.642,2.846,8.189,4.662c0.102,0.072,0.173,0.181,0.199,0.303c0.021,0.097,2.016,9.576,2.061,22.428l5.893-5.163
		l-1.193-6.797c-0.061-0.252-1.558-6.805,0.511-13.677c-5.218-6.48-6.736-10.08-8.204-13.562c-0.526-1.248-1.069-2.537-1.777-3.929
		c-21.798-21.792-45.742-1.559-47.494-0.02c-0.336,1.099-2.655,7.979-10.723,17.746c3.325,7.527,2.819,14.308,2.796,14.597
		c-0.003,0.045-0.013,0.089-0.028,0.131L512.232,144.881z"/>
</g>
<g>
	<line fill="#FFFFFF" x1="518.487" y1="195.964" x2="518.487" y2="258.564"/>
	<path fill="#363437" d="M518.487,258.938c-0.207,0-0.375-0.168-0.375-0.375v-62.6c0-0.207,0.168-0.375,0.375-0.375
		s0.375,0.168,0.375,0.375v62.6C518.862,258.77,518.694,258.938,518.487,258.938z"/>
</g>
<g>
	<line fill="#FFFFFF" x1="574.129" y1="195.314" x2="574.129" y2="257.914"/>
	<path fill="#363437" d="M574.129,258.289c-0.207,0-0.375-0.168-0.375-0.375v-62.601c0-0.207,0.168-0.375,0.375-0.375
		s0.375,0.168,0.375,0.375v62.601C574.504,258.121,574.336,258.289,574.129,258.289z"/>
</g>
<g>
	<path fill="#303333" d="M562.892,212.462h-31.979c-0.207,0-0.375-0.168-0.375-0.375s0.168-0.375,0.375-0.375h31.979
		c0.207,0,0.375,0.168,0.375,0.375S563.099,212.462,562.892,212.462z"/>
</g>
<g>
	<rect x="503.938" y="218.985" fill="#303333" width="14.867" height="0.75"/>
</g>
<g>
	<path fill="#E6E6E6" d="M781.742,132.148H607.92c-9.755,0-17.663-7.908-17.663-17.663V47.388c0-9.755,7.908-17.663,17.663-17.663
		h173.821c9.755,0,17.663,7.908,17.663,17.663v67.097C799.405,124.24,791.497,132.148,781.742,132.148z"/>
</g>
<g>
	<polygon fill="#E6E6E6" points="609.711,120.143 594.736,157.124 662.661,123.138 	"/>
</g>
<g>
	<path fill="#303333" d="M637.728,89.453c-0.1,0.32-0.44,0.48-0.8,0.48c-0.34,0-0.7-0.141-0.78-0.48l-1.9-7.062l-1.9,7.062
		c-0.08,0.32-0.42,0.48-0.78,0.48s-0.7-0.141-0.8-0.48l-3.941-13.562c-0.02-0.061-0.02-0.101-0.02-0.16c0-0.32,0.399-0.54,0.76-0.54
		c0.24,0,0.46,0.12,0.521,0.34l3.46,12.282l2.001-7.461c0.08-0.341,0.38-0.46,0.7-0.46s0.58,0.119,0.68,0.46l2.001,7.461
		l3.461-12.282c0.06-0.22,0.279-0.34,0.52-0.34c0.36,0,0.761,0.22,0.761,0.54c0,0.06,0,0.1-0.021,0.16L637.728,89.453z"/>
	<path fill="#303333" d="M649.921,83.872c0,1.54-0.86,1.601-1.74,1.601h-4.521v0.74c0,1.6,1.28,2.601,3.041,2.601
		c1.58,0,1.96-0.801,2.4-0.801c0.32,0,0.561,0.38,0.561,0.62c0,0.48-1.141,1.32-3.001,1.32c-2.521,0-4.301-1.521-4.301-3.801v-2.24
		c0-2.001,1.72-3.681,3.82-3.681C648.16,80.231,649.921,81.752,649.921,83.872z M647.66,84.512c0.801,0,1-0.12,1-0.68
		c0-1.28-1.02-2.521-2.5-2.521c-1.381,0-2.501,1.101-2.501,2.44v0.76H647.66z"/>
	<path fill="#303333" d="M652.779,75.91c0,0.3-0.28,1.08-0.8,2.261c-0.08,0.16-0.24,0.24-0.36,0.24c-0.24,0-0.5-0.16-0.5-0.421
		c0-0.06,0-0.119,0.04-0.18l0.399-1.04c-0.359-0.12-0.62-0.48-0.62-0.86c0-0.5,0.4-0.92,0.921-0.92
		C652.359,74.99,652.779,75.41,652.779,75.91z"/>
	<path fill="#303333" d="M653.446,81.211c-0.04-0.06-0.08-0.22-0.08-0.3c0-0.34,0.44-0.6,0.78-0.6c0.2,0,0.4,0.1,0.48,0.3
		l2.641,7.201l2.641-7.121c0.08-0.2,0.16-0.38,0.46-0.38s0.8,0.26,0.8,0.58c0,0.12-0.04,0.24-0.08,0.319l-3.221,8.442
		c-0.08,0.2-0.319,0.32-0.6,0.32s-0.521-0.101-0.601-0.32L653.446,81.211z"/>
	<path fill="#303333" d="M669.797,83.872c0,1.54-0.86,1.601-1.74,1.601h-4.521v0.74c0,1.6,1.28,2.601,3.041,2.601
		c1.58,0,1.96-0.801,2.4-0.801c0.32,0,0.561,0.38,0.561,0.62c0,0.48-1.141,1.32-3.001,1.32c-2.521,0-4.301-1.521-4.301-3.801v-2.24
		c0-2.001,1.72-3.681,3.82-3.681C668.036,80.231,669.797,81.752,669.797,83.872z M667.536,84.512c0.801,0,1-0.12,1-0.68
		c0-1.28-1.02-2.521-2.5-2.521c-1.381,0-2.501,1.101-2.501,2.44v0.76H667.536z"/>
	<path fill="#303333" d="M681.695,83.912c0-1.44-1.04-2.48-2.28-2.48c-1.16,0-2.36,0.92-2.36,2.54v5.321
		c0,0.26-0.3,0.521-0.66,0.521s-0.64-0.261-0.64-0.521v-8.462c0-0.28,0.279-0.479,0.64-0.479c0.34,0,0.62,0.199,0.62,0.479v0.921
		c0.44-0.78,1.34-1.521,2.66-1.521s2.361,0.82,2.841,2c0.7-1.36,1.881-2,3.041-2c1.721,0,3.36,1.36,3.36,3.74v5.321
		c0,0.26-0.28,0.521-0.66,0.521c-0.34,0-0.64-0.261-0.64-0.521v-5.321c0-1.68-1.181-2.54-2.28-2.54c-1.161,0-2.341,0.96-2.341,2.46
		v5.422c0,0.359-0.34,0.5-0.66,0.5c-0.3,0-0.641-0.141-0.641-0.5V83.912z"/>
	<path fill="#303333" d="M692.705,76.71c0,0.44-0.38,0.841-0.86,0.841c-0.5,0-0.9-0.4-0.9-0.841c0-0.439,0.4-0.819,0.9-0.819
		C692.325,75.89,692.705,76.27,692.705,76.71z M692.505,80.831v8.462c0,0.26-0.3,0.521-0.66,0.521s-0.64-0.261-0.64-0.521v-8.462
		c0-0.28,0.279-0.479,0.64-0.479S692.505,80.551,692.505,80.831z"/>
	<path fill="#303333" d="M699.422,87.432c0-2.66-4.941-1.16-4.941-4.48c0-1.28,0.881-2.721,3.161-2.721
		c1.32,0,2.681,0.5,2.681,0.979c0,0.221-0.221,0.681-0.54,0.681c-0.32,0-0.94-0.561-2.121-0.561c-1.48,0-2,0.9-2,1.561
		c0,2.28,4.961,0.841,4.961,4.481c0,1.58-1.181,2.58-3.221,2.58c-1.881,0-3.141-0.84-3.141-1.44c0-0.26,0.2-0.6,0.46-0.6
		c0.44,0,0.84,0.94,2.641,0.94C698.882,88.853,699.422,88.193,699.422,87.432z"/>
	<path fill="#303333" d="M707.231,87.432c0-2.66-4.941-1.16-4.941-4.48c0-1.28,0.881-2.721,3.161-2.721
		c1.32,0,2.681,0.5,2.681,0.979c0,0.221-0.221,0.681-0.54,0.681c-0.32,0-0.94-0.561-2.121-0.561c-1.48,0-2,0.9-2,1.561
		c0,2.28,4.961,0.841,4.961,4.481c0,1.58-1.181,2.58-3.221,2.58c-1.88,0-3.141-0.84-3.141-1.44c0-0.26,0.2-0.6,0.46-0.6
		c0.44,0,0.84,0.94,2.641,0.94C706.691,88.853,707.231,88.193,707.231,87.432z"/>
	<path fill="#303333" d="M717.582,83.872c0,1.54-0.86,1.601-1.74,1.601h-4.521v0.74c0,1.6,1.28,2.601,3.041,2.601
		c1.58,0,1.96-0.801,2.4-0.801c0.32,0,0.561,0.38,0.561,0.62c0,0.48-1.141,1.32-3.001,1.32c-2.521,0-4.301-1.521-4.301-3.801v-2.24
		c0-2.001,1.72-3.681,3.82-3.681C715.821,80.231,717.582,81.752,717.582,83.872z M715.321,84.512c0.801,0,1-0.12,1-0.68
		c0-1.28-1.02-2.521-2.5-2.521c-1.381,0-2.501,1.101-2.501,2.44v0.76H715.321z"/>
	<path fill="#303333" d="M726.72,75.03v14.263c0,0.26-0.26,0.521-0.62,0.521c-0.34,0-0.62-0.261-0.62-0.521v-0.88
		c-0.44,0.82-1.5,1.54-2.74,1.54c-1.9,0-3.541-1.82-3.541-3.801v-2.181c0-2.061,1.62-3.74,3.58-3.74c1.32,0,2.221,0.74,2.641,1.521
		V75.03c0-0.28,0.301-0.48,0.681-0.48C726.46,74.55,726.72,74.75,726.72,75.03z M720.498,86.152c0,1.32,1.141,2.601,2.48,2.601
		c1.4,0,2.44-1.38,2.44-1.98v-2.801c0-1.6-1.22-2.54-2.42-2.54c-1.381,0-2.501,1.26-2.501,2.54V86.152z"/>
	<path fill="#303333" d="M732.317,81.031c-0.04-0.06-0.06-0.12-0.06-0.18c0-0.34,0.46-0.62,0.8-0.62c0.2,0,0.4,0.08,0.46,0.28
		l2.741,7.361l2.58-7.361c0.08-0.2,0.26-0.28,0.44-0.28c0.32,0,0.8,0.26,0.8,0.64c0,0.04,0,0.12-0.04,0.16l-3.101,8.402
		c-0.8,2.16-1.8,5.021-4.061,5.021c-0.34,0-0.601-0.14-0.601-0.58c0-0.3,0.101-0.6,0.4-0.6c1.26,0,2.4-1.781,2.9-3.861
		L732.317,81.031z"/>
	<path fill="#303333" d="M748.717,83.972v2.181c0,1.98-1.78,3.801-3.82,3.801c-2.021,0-3.781-1.8-3.781-3.801v-2.181
		c0-2,1.7-3.74,3.781-3.74C746.937,80.231,748.717,81.911,748.717,83.972z M747.417,83.972c0-1.28-1.12-2.54-2.521-2.54
		s-2.48,1.26-2.48,2.54v2.181c0,1.341,1.1,2.601,2.48,2.601c1.4,0,2.521-1.26,2.521-2.601V83.972z"/>
	<path fill="#303333" d="M750.626,86.192v-5.341c0-0.24,0.28-0.5,0.66-0.5c0.34,0,0.641,0.26,0.641,0.5v5.341
		c0,1.301,1.1,2.561,2.5,2.561c1.381,0,2.501-1.24,2.501-2.561v-5.361c0-0.26,0.3-0.479,0.66-0.479c0.359,0,0.64,0.22,0.64,0.479
		v5.361c0,2.001-1.74,3.761-3.801,3.761C752.326,89.953,750.626,88.173,750.626,86.192z"/>
	<path fill="#303333" d="M762.158,89.013c0,0.48-0.4,0.921-0.9,0.921c-0.54,0-0.92-0.44-0.92-0.921c0-0.52,0.38-0.939,0.92-0.939
		C761.758,88.073,762.158,88.493,762.158,89.013z M761.777,86.053c0,0.319-0.319,0.46-0.54,0.46c-0.26,0-0.52-0.141-0.52-0.46
		c0-3.281-0.24-7.062-0.24-10.343c0-0.5,0.34-0.78,0.76-0.78c0.421,0,0.761,0.28,0.761,0.78
		C761.998,78.991,761.777,82.771,761.777,86.053z"/>
</g>
<g>
	<rect x="574.129" y="218.985" fill="#303333" width="14.868" height="0.75"/>
</g>
<g>
	<path fill="#FFFFFF" d="M541.899,167.327c1.507,0.419,3.191,0.678,5.003,0.678c1.98,0,3.811-0.305,5.415-0.799
		c-0.514-1.714-2.643-3.001-5.196-3.001C544.51,164.205,542.348,165.553,541.899,167.327z"/>
</g>
<g>
	<path fill="#2CBDC2" d="M466.604,194.533v-48.681c0-21.159-18.092-38.312-40.41-38.312s-40.41,17.153-40.41,38.312v48.681"/>
	<path fill="#373538" d="M466.604,195.033c-0.276,0-0.5-0.224-0.5-0.5v-48.681c0-20.85-17.903-37.812-39.91-37.812
		s-39.91,16.963-39.91,37.812v48.681c0,0.276-0.224,0.5-0.5,0.5s-0.5-0.224-0.5-0.5v-48.681c0-21.401,18.352-38.812,40.91-38.812
		s40.91,17.411,40.91,38.812v48.681C467.104,194.809,466.88,195.033,466.604,195.033z"/>
</g>
<g>
	<path fill="#FFFFFF" d="M469.549,266.589v-73.816c0-4.329-3.695-7.838-8.252-7.838h-70.205c-4.558,0-8.252,3.509-8.252,7.838
		v73.816H469.549z"/>
	<path fill="#353336" d="M470.049,267.089h-87.71v-74.316c0-4.598,3.926-8.338,8.752-8.338h70.205c4.826,0,8.752,3.74,8.752,8.338
		V267.089z M383.339,266.089h85.71v-73.316c0-4.046-3.478-7.338-7.752-7.338h-70.205c-4.275,0-7.752,3.292-7.752,7.338V266.089z"/>
</g>
<g>
	<path fill="#FFFFFF" d="M439.859,190.926v-15.362h-27.307v15.362c0,0,0,7.446,13.653,7.446
		C439.859,198.372,439.859,190.926,439.859,190.926z"/>
	<path fill="#363437" d="M426.206,198.872c-13.993,0-14.153-7.622-14.153-7.946v-15.361c0-0.276,0.224-0.5,0.5-0.5h27.307
		c0.276,0,0.5,0.224,0.5,0.5v15.361C440.359,191.25,440.199,198.872,426.206,198.872z M413.053,176.064v14.861
		c0.003,0.281,0.217,6.946,13.153,6.946c12.922,0,13.15-6.65,13.153-6.947v-14.86H413.053z"/>
</g>
<g>
	
		<ellipse transform="matrix(-0.9295 -0.3688 0.3688 -0.9295 820.1695 467.6904)" fill="#FFFFFF" cx="454.787" cy="155.453" rx="6.342" ry="10.708"/>
	<path fill="#373538" d="M452.304,166.182c-0.572,0-1.126-0.104-1.651-0.312c-3.507-1.392-4.505-7.197-2.226-12.942l0,0
		c2.28-5.744,6.983-9.283,10.494-7.894c1.745,0.692,2.925,2.453,3.321,4.956c0.381,2.409-0.008,5.245-1.095,7.985
		s-2.749,5.071-4.678,6.563C455.066,165.625,453.635,166.182,452.304,166.182z M449.356,153.298
		c-2.076,5.232-1.329,10.455,1.666,11.644c1.404,0.558,3.121,0.134,4.835-1.191c1.79-1.385,3.338-3.565,4.36-6.143
		c1.022-2.576,1.391-5.226,1.037-7.46c-0.339-2.14-1.299-3.626-2.703-4.183C455.562,144.778,451.433,148.065,449.356,153.298
		L449.356,153.298z"/>
</g>
<g>
	<path fill="#FFFFFF" d="M455.3,152.515c-0.019,1.842-0.044,3.729-0.044,5.65c0,20.511-13.012,26.166-29.062,26.166
		c-16.051,0-29.062-5.655-29.062-26.166c0-1.154-0.009-2.293-0.021-3.421c0.93-0.17,23.592-4.471,36.6-22.914
		C433.712,131.83,454.787,133.89,455.3,152.515z"/>
	<path fill="#373538" d="M426.194,184.831c-19.892,0-29.562-8.723-29.562-26.665c0-1.152-0.009-2.291-0.021-3.416l-0.004-0.421
		l0.415-0.076c0.95-0.173,23.41-4.461,36.281-22.711l0.168-0.238l0.29,0.028c0.215,0.021,21.521,2.321,22.04,21.17l-0.01,0.991
		c-0.017,1.53-0.034,3.09-0.034,4.673C455.756,176.108,446.086,184.831,426.194,184.831z M397.616,155.155
		c0.009,0.993,0.017,1.996,0.017,3.011c0,17.27,9.343,25.665,28.562,25.665s28.562-8.396,28.562-25.665
		c0-1.587,0.017-3.15,0.034-4.684l0.01-0.963c-0.47-16.789-18.369-19.818-20.854-20.156
		C421.621,149.61,400.905,154.478,397.616,155.155z"/>
</g>
<g>
	<path fill="#FFFFFF" d="M421.119,160.279c0.669,1.956,2.688,5.411,5.075,5.411c2.387,0,4.406-3.455,5.075-5.411"/>
	<path fill="#373538" d="M426.194,166.064c-2.544,0-4.681-3.475-5.43-5.665c-0.067-0.195,0.038-0.409,0.233-0.476
		c0.196-0.068,0.409,0.037,0.477,0.233c0.732,2.142,2.681,5.157,4.72,5.157c2.039,0,3.987-3.016,4.72-5.157
		c0.067-0.196,0.277-0.301,0.477-0.233c0.196,0.066,0.3,0.28,0.233,0.476C430.875,162.59,428.738,166.064,426.194,166.064z"/>
</g>
<g>
	<path fill="#363437" d="M435.993,150.958c-0.103,0-0.205-0.042-0.279-0.125c-0.138-0.153-0.125-0.391,0.029-0.529
		c1.544-1.386,4.106-2.213,6.854-2.213c1.758,0,3.437,0.331,4.854,0.957c0.189,0.083,0.275,0.305,0.192,0.494
		c-0.084,0.19-0.306,0.277-0.495,0.191c-1.323-0.584-2.897-0.893-4.552-0.893c-2.568,0-4.943,0.756-6.354,2.021
		C436.171,150.927,436.082,150.958,435.993,150.958z"/>
</g>
<g>
	<path fill="#363437" d="M416.396,150.958c-0.089,0-0.179-0.031-0.25-0.096c-0.728-0.654-1.74-1.187-2.925-1.54
		c-0.199-0.06-0.312-0.268-0.252-0.467c0.058-0.198,0.266-0.313,0.466-0.252c1.292,0.385,2.402,0.973,3.212,1.7
		c0.154,0.139,0.167,0.376,0.028,0.53C416.601,150.916,416.498,150.958,416.396,150.958z"/>
</g>
<g>
	<path fill="#FFFFFF" d="M441.843,168.775c0,4.667-7.006,8.451-15.649,8.451c-8.643,0-15.649-3.783-15.649-8.451H441.843z"/>
	<path fill="#373538" d="M426.194,177.601c-8.835,0-16.024-3.959-16.024-8.826c0-0.207,0.168-0.375,0.375-0.375h31.298
		c0.207,0,0.375,0.168,0.375,0.375C442.218,173.642,435.03,177.601,426.194,177.601z M410.937,169.15
		c0.372,4.28,7.073,7.701,15.258,7.701s14.886-3.421,15.258-7.701H410.937z"/>
</g>
<g>
	<path fill="#373538" d="M426.194,172.142c-5.051,0-9.971-0.18-14.715-0.514c2.169,3.261,7.929,5.598,14.715,5.598
		c6.786,0,12.546-2.337,14.715-5.598C436.165,171.962,431.245,172.142,426.194,172.142z"/>
</g>
<g>
	<g>
		<path fill="#373538" d="M411.264,161.19c-0.276,0-0.5-0.224-0.5-0.5v-5.938c0-0.276,0.224-0.5,0.5-0.5s0.5,0.224,0.5,0.5v5.938
			C411.764,160.967,411.541,161.19,411.264,161.19z"/>
	</g>
	<g>
		<path fill="#373538" d="M408.174,153.505c0,0,0.183,0.17,0.491,0.375c0.312,0.196,0.73,0.449,1.181,0.578
			c0.227,0.058,0.453,0.092,0.659,0.107c0.203,0.036,0.395,0.078,0.566,0.094c0.085,0.003,0.168,0.031,0.242,0.04
			c0.072,0.002,0.138,0.007,0.195,0.018c0.112,0.014,0.184,0.032,0.184,0.032l0.02,0.058c0,0-0.049,0.049-0.148,0.118
			c-0.096,0.081-0.249,0.157-0.45,0.218c-0.198,0.052-0.449,0.096-0.706,0.052c-0.258-0.043-0.511-0.162-0.748-0.284
			c-0.974-0.487-1.532-1.367-1.532-1.367L408.174,153.505z"/>
	</g>
	<g>
		<g>
			<path fill="#373538" d="M441.125,161.19c-0.276,0-0.5-0.224-0.5-0.5v-5.938c0-0.276,0.224-0.5,0.5-0.5s0.5,0.224,0.5,0.5v5.938
				C441.625,160.967,441.401,161.19,441.125,161.19z"/>
		</g>
		<g>
			<path fill="#373538" d="M444.261,153.545c0,0-0.558,0.881-1.532,1.367c-0.237,0.122-0.49,0.241-0.748,0.284
				c-0.257,0.044-0.507,0-0.706-0.052c-0.201-0.061-0.354-0.137-0.45-0.218c-0.099-0.069-0.148-0.118-0.148-0.118l0.02-0.058
				c0,0,0.072-0.018,0.184-0.032c0.057-0.011,0.123-0.017,0.195-0.018c0.074-0.009,0.157-0.036,0.242-0.04
				c0.172-0.016,0.364-0.058,0.566-0.094c0.206-0.015,0.432-0.049,0.659-0.107c0.45-0.129,0.869-0.382,1.181-0.578
				c0.308-0.205,0.491-0.375,0.491-0.375L444.261,153.545z"/>
		</g>
	</g>
</g>
<g>
	<path fill="#FFFFFF" d="M397.112,154.745c0.011,1.127,0.021,2.267,0.021,3.421c0,2.519,0.201,4.809,0.575,6.897
		c-2.322-1.133-4.612-3.771-6.001-7.27c-0.268-0.675-0.487-1.35-0.664-2.018C391.042,155.774,396.193,154.934,397.112,154.745z"/>
	<path fill="#373538" d="M397.708,165.562c-0.075,0-0.15-0.017-0.219-0.051c-2.529-1.233-4.864-4.051-6.247-7.535
		c-0.267-0.672-0.497-1.37-0.683-2.074c-0.036-0.137-0.013-0.281,0.064-0.4c0.077-0.118,0.2-0.198,0.339-0.221
		c0.052-0.009,5.151-0.841,6.049-1.025c0.146-0.033,0.298,0.006,0.415,0.1c0.116,0.095,0.185,0.235,0.186,0.385
		c0.011,1.129,0.021,2.27,0.021,3.426c0,2.416,0.191,4.707,0.567,6.809c0.033,0.185-0.041,0.373-0.191,0.487
		C397.92,165.528,397.814,165.562,397.708,165.562z M391.675,156.178c0.145,0.484,0.312,0.964,0.497,1.43
		c1.127,2.841,2.906,5.194,4.874,6.499c-0.274-1.866-0.413-3.859-0.413-5.94c0-0.949-0.006-1.889-0.015-2.819
		C395.353,155.572,392.803,155.992,391.675,156.178z"/>
</g>
<g>
	<g>
		<path fill="#353336" d="M398.373,267.614c-0.207,0-0.375-0.168-0.375-0.375v-62.601c0-0.207,0.168-0.375,0.375-0.375
			s0.375,0.168,0.375,0.375v62.601C398.748,267.446,398.58,267.614,398.373,267.614z"/>
	</g>
	<g>
		<path fill="#353336" d="M454.015,266.964c-0.207,0-0.375-0.168-0.375-0.375v-62.6c0-0.207,0.168-0.375,0.375-0.375
			s0.375,0.168,0.375,0.375v62.6C454.39,266.796,454.222,266.964,454.015,266.964z"/>
	</g>
</g>
<g>
	<g>
		<path fill="#353336" d="M413.761,223.303c-6.672,0-12.1-4.668-12.1-10.405c0-0.207,0.168-0.375,0.375-0.375
			s0.375,0.168,0.375,0.375c0,5.324,5.092,9.655,11.35,9.655c4.049,0,7.821-1.857,9.845-4.848c0.116-0.172,0.349-0.218,0.521-0.101
			c0.172,0.116,0.217,0.35,0.101,0.521C422.066,221.318,418.056,223.303,413.761,223.303z"/>
	</g>
	<g>
		<path fill="#353336" d="M438.627,223.303c-4.294,0-8.304-1.984-10.466-5.178c-0.116-0.171-0.071-0.404,0.101-0.521
			c0.17-0.117,0.405-0.071,0.521,0.101c2.024,2.99,5.796,4.848,9.845,4.848c6.259,0,11.351-4.331,11.351-9.655
			c0-0.207,0.168-0.375,0.375-0.375s0.375,0.168,0.375,0.375C450.728,218.635,445.299,223.303,438.627,223.303z"/>
	</g>
</g>
<g>
	<rect x="382.839" y="206.399" fill="#303333" width="14.868" height="0.75"/>
</g>
<g>
	<rect x="454.45" y="206.399" fill="#303333" width="14.868" height="0.75"/>
</g>
<g>
	<path fill="#E6E6E6" d="M148.023,141.695h208.391c9.755,0,17.663-7.908,17.663-17.663V56.934c0-9.755-7.908-17.663-17.663-17.663
		H148.023c-9.755,0-17.663,7.908-17.663,17.663v67.097C130.36,133.787,138.268,141.695,148.023,141.695z"/>
</g>
<g>
	<polygon fill="#E6E6E6" points="354.624,129.69 369.599,166.671 301.674,132.685 	"/>
</g>
<g>
	<path fill="#303333" d="M162.878,65.916h-5.781v6.501c0,0.34-0.34,0.521-0.66,0.521c-0.34,0-0.66-0.181-0.66-0.521V58.794
		c0-0.34,0.32-0.479,0.66-0.479c0.32,0,0.66,0.14,0.66,0.479v5.981h5.781v-5.981c0-0.34,0.32-0.479,0.66-0.479
		c0.32,0,0.66,0.14,0.66,0.479v13.623c0,0.34-0.34,0.521-0.66,0.521c-0.34,0-0.66-0.181-0.66-0.521V65.916z"/>
	<path fill="#303333" d="M174.102,66.996c0,1.54-0.86,1.601-1.741,1.601h-4.521v0.74c0,1.6,1.28,2.601,3.041,2.601
		c1.58,0,1.96-0.801,2.4-0.801c0.32,0,0.56,0.38,0.56,0.62c0,0.48-1.14,1.32-3,1.32c-2.521,0-4.301-1.521-4.301-3.801v-2.24
		c0-2.001,1.72-3.681,3.821-3.681C172.341,63.355,174.102,64.876,174.102,66.996z M171.841,67.636c0.8,0,1-0.12,1-0.68
		c0-1.28-1.021-2.521-2.5-2.521c-1.38,0-2.5,1.101-2.5,2.44v0.76H171.841z"/>
	<path fill="#303333" d="M175.1,64.155c-0.04-0.06-0.06-0.12-0.06-0.18c0-0.34,0.46-0.62,0.8-0.62c0.2,0,0.4,0.08,0.46,0.28
		l2.74,7.361l2.581-7.361c0.08-0.2,0.26-0.28,0.44-0.28c0.32,0,0.8,0.26,0.8,0.64c0,0.04,0,0.12-0.04,0.16l-3.101,8.402
		c-0.8,2.16-1.8,5.021-4.061,5.021c-0.34,0-0.6-0.14-0.6-0.58c0-0.3,0.1-0.6,0.4-0.6c1.26,0,2.4-1.781,2.9-3.861L175.1,64.155z"/>
	<path fill="#303333" d="M194.361,67.456c-0.16,0.3-0.36,0.42-0.54,0.42c-0.18,0-0.36-0.12-0.521-0.42l-3.3-6.342v11.303
		c0,0.34-0.34,0.521-0.66,0.521c-0.34,0-0.66-0.181-0.66-0.521V58.954c0-0.479,0.32-0.64,0.66-0.64c0.48,0,0.8,0.42,1.06,0.92
		l3.441,6.642l3.44-6.642c0.26-0.5,0.58-0.92,1.061-0.92c0.36,0,0.66,0.16,0.66,0.64v13.463c0,0.34-0.32,0.521-0.66,0.521
		c-0.32,0-0.66-0.181-0.66-0.521V61.175L194.361,67.456z"/>
	<path fill="#303333" d="M203.164,59.834c0,0.44-0.38,0.841-0.86,0.841c-0.5,0-0.9-0.4-0.9-0.841c0-0.439,0.4-0.819,0.9-0.819
		C202.784,59.014,203.164,59.394,203.164,59.834z M202.964,63.955v8.462c0,0.26-0.3,0.521-0.66,0.521s-0.64-0.261-0.64-0.521v-8.462
		c0-0.28,0.28-0.479,0.64-0.479S202.964,63.675,202.964,63.955z"/>
	<path fill="#303333" d="M204.984,69.276v-2.141c0-2.12,1.2-3.78,3.861-3.78c1.7,0,2.82,0.76,2.82,1.3c0,0.28-0.26,0.641-0.58,0.641
		c-0.38,0-0.72-0.74-2.181-0.74c-1.74,0-2.62,0.98-2.62,2.58v2.141c0,1.62,0.88,2.601,2.64,2.601c1.541,0,1.86-0.76,2.261-0.76
		c0.36,0,0.6,0.34,0.6,0.64c0,0.54-1.16,1.32-2.92,1.32C206.204,73.077,204.984,71.457,204.984,69.276z"/>
	<path fill="#303333" d="M214.782,72.417c0,0.26-0.3,0.521-0.66,0.521s-0.64-0.261-0.64-0.521V58.154c0-0.28,0.28-0.48,0.64-0.48
		s0.66,0.2,0.66,0.48v6.722c0.42-0.78,1.32-1.521,2.641-1.521c1.92,0,3.541,1.68,3.541,3.74v5.321c0,0.34-0.32,0.521-0.66,0.521
		c-0.3,0-0.64-0.181-0.64-0.521v-5.321c0-1.28-1.12-2.54-2.48-2.54c-1.18,0-2.4,0.94-2.4,2.54V72.417z"/>
	<path fill="#303333" d="M229.661,67.216v5.201c0,0.3-0.26,0.521-0.64,0.521c-0.34,0-0.6-0.221-0.6-0.521v-0.88
		c-0.7,0.8-1.68,1.54-3.021,1.54c-1.521,0-2.721-0.84-2.721-2.641c0-2.181,1.88-2.74,4.661-2.74h1.02v-0.48
		c0-1.28-0.64-2.721-2.36-2.721c-1.34,0-1.82,0.58-2.141,0.58c-0.34,0-0.52-0.399-0.52-0.7c0-0.52,1.42-1.02,2.701-1.02
		C228.721,63.355,229.661,65.216,229.661,67.216z M228.36,68.597h-0.84c-1.84,0-3.541,0.18-3.541,1.72c0,1.16,0.76,1.661,1.74,1.661
		c1.28,0,2.641-1.201,2.641-2.101V68.597z"/>
	<path fill="#303333" d="M239.199,66.996c0,1.54-0.86,1.601-1.74,1.601h-4.521v0.74c0,1.6,1.28,2.601,3.041,2.601
		c1.58,0,1.96-0.801,2.4-0.801c0.32,0,0.56,0.38,0.56,0.62c0,0.48-1.14,1.32-3,1.32c-2.521,0-4.301-1.521-4.301-3.801v-2.24
		c0-2.001,1.72-3.681,3.821-3.681C237.438,63.355,239.199,64.876,239.199,66.996z M236.938,67.636c0.8,0,1-0.12,1-0.68
		c0-1.28-1.021-2.521-2.5-2.521c-1.38,0-2.5,1.101-2.5,2.44v0.76H236.938z"/>
	<path fill="#303333" d="M242.407,58.154v14.263c0,0.26-0.28,0.521-0.66,0.521c-0.36,0-0.64-0.261-0.64-0.521V58.154
		c0-0.28,0.28-0.48,0.64-0.48C242.127,57.674,242.407,57.874,242.407,58.154z"/>
	<path fill="#303333" d="M246.561,72.137c0,0.48-0.4,0.921-0.9,0.921c-0.54,0-0.92-0.44-0.92-0.921c0-0.52,0.38-0.939,0.92-0.939
		C246.161,71.197,246.561,71.617,246.561,72.137z M246.181,69.177c0,0.319-0.32,0.46-0.54,0.46c-0.26,0-0.52-0.141-0.52-0.46
		c0-3.281-0.24-7.062-0.24-10.343c0-0.5,0.34-0.78,0.76-0.78c0.42,0,0.76,0.28,0.76,0.78
		C246.401,62.115,246.181,65.895,246.181,69.177z"/>
	<path fill="#303333" d="M165.618,96.577c-0.1,0.32-0.44,0.48-0.8,0.48c-0.34,0-0.7-0.141-0.78-0.48l-1.9-7.062l-1.9,7.062
		c-0.08,0.32-0.42,0.48-0.78,0.48c-0.36,0-0.7-0.141-0.8-0.48l-3.941-13.562c-0.02-0.061-0.02-0.101-0.02-0.16
		c0-0.32,0.4-0.54,0.76-0.54c0.24,0,0.46,0.12,0.52,0.34l3.461,12.282l2-7.461c0.08-0.341,0.38-0.46,0.7-0.46
		c0.32,0,0.58,0.119,0.68,0.46l2,7.461l3.461-12.282c0.06-0.22,0.28-0.34,0.52-0.34c0.36,0,0.76,0.22,0.76,0.54
		c0,0.06,0,0.1-0.02,0.16L165.618,96.577z"/>
	<path fill="#303333" d="M177.812,90.996c0,1.54-0.86,1.601-1.741,1.601h-4.521v0.74c0,1.6,1.28,2.601,3.041,2.601
		c1.58,0,1.96-0.801,2.4-0.801c0.32,0,0.56,0.38,0.56,0.62c0,0.48-1.14,1.32-3,1.32c-2.521,0-4.301-1.521-4.301-3.801v-2.24
		c0-2.001,1.72-3.681,3.821-3.681C176.051,87.355,177.812,88.876,177.812,90.996z M175.551,91.636c0.8,0,1-0.12,1-0.68
		c0-1.28-1.021-2.521-2.5-2.521c-1.38,0-2.5,1.101-2.5,2.44v0.76H175.551z"/>
	<path fill="#303333" d="M181.02,82.154v14.263c0,0.26-0.28,0.521-0.66,0.521c-0.36,0-0.64-0.261-0.64-0.521V82.154
		c0-0.28,0.28-0.48,0.64-0.48C180.74,81.674,181.02,81.874,181.02,82.154z"/>
	<path fill="#303333" d="M183.176,93.276v-2.141c0-2.12,1.2-3.78,3.861-3.78c1.7,0,2.82,0.76,2.82,1.3c0,0.28-0.26,0.641-0.58,0.641
		c-0.38,0-0.72-0.74-2.181-0.74c-1.74,0-2.62,0.98-2.62,2.58v2.141c0,1.62,0.88,2.601,2.64,2.601c1.541,0,1.861-0.76,2.261-0.76
		c0.36,0,0.6,0.34,0.6,0.64c0,0.54-1.16,1.32-2.921,1.32C184.396,97.077,183.176,95.457,183.176,93.276z"/>
	<path fill="#303333" d="M198.803,91.096v2.181c0,1.98-1.78,3.801-3.821,3.801c-2.021,0-3.781-1.8-3.781-3.801v-2.181
		c0-2,1.7-3.74,3.781-3.74C197.023,87.355,198.803,89.035,198.803,91.096z M197.503,91.096c0-1.28-1.12-2.54-2.521-2.54
		s-2.48,1.26-2.48,2.54v2.181c0,1.341,1.1,2.601,2.48,2.601c1.4,0,2.521-1.26,2.521-2.601V91.096z"/>
	<path fill="#303333" d="M206.785,91.036c0-1.44-1.041-2.48-2.281-2.48c-1.16,0-2.36,0.92-2.36,2.54v5.321
		c0,0.26-0.3,0.521-0.66,0.521s-0.64-0.261-0.64-0.521v-8.462c0-0.28,0.28-0.479,0.64-0.479c0.34,0,0.62,0.199,0.62,0.479v0.921
		c0.44-0.78,1.34-1.521,2.661-1.521s2.36,0.82,2.84,2c0.7-1.36,1.881-2,3.041-2c1.72,0,3.36,1.36,3.36,3.74v5.321
		c0,0.26-0.28,0.521-0.66,0.521c-0.34,0-0.641-0.261-0.641-0.521v-5.321c0-1.68-1.18-2.54-2.28-2.54c-1.16,0-2.34,0.96-2.34,2.46
		v5.422c0,0.359-0.34,0.5-0.66,0.5c-0.3,0-0.64-0.141-0.64-0.5V91.036z"/>
	<path fill="#303333" d="M223.573,90.996c0,1.54-0.86,1.601-1.74,1.601h-4.521v0.74c0,1.6,1.28,2.601,3.041,2.601
		c1.58,0,1.96-0.801,2.4-0.801c0.32,0,0.56,0.38,0.56,0.62c0,0.48-1.14,1.32-3,1.32c-2.521,0-4.301-1.521-4.301-3.801v-2.24
		c0-2.001,1.72-3.681,3.821-3.681C221.812,87.355,223.573,88.876,223.573,90.996z M221.312,91.636c0.8,0,1-0.12,1-0.68
		c0-1.28-1.021-2.521-2.5-2.521c-1.38,0-2.5,1.101-2.5,2.44v0.76H221.312z"/>
	<path fill="#303333" d="M230.831,82.154v6.722c0.44-0.78,1.34-1.521,2.661-1.521c1.96,0,3.581,1.68,3.581,3.74v2.181
		c0,1.98-1.66,3.801-3.541,3.801c-1.24,0-2.321-0.72-2.741-1.54v0.88c0,0.26-0.28,0.521-0.62,0.521c-0.36,0-0.64-0.261-0.64-0.521
		V82.154c0-0.28,0.28-0.48,0.64-0.48C230.551,81.674,230.831,81.874,230.831,82.154z M235.772,91.096c0-1.28-1.12-2.54-2.5-2.54
		c-1.2,0-2.44,0.94-2.44,2.54v2.801c0,0.601,1.06,1.98,2.46,1.98c1.34,0,2.48-1.28,2.48-2.601V91.096z"/>
	<path fill="#303333" d="M245.602,91.216v5.201c0,0.3-0.26,0.521-0.64,0.521c-0.34,0-0.6-0.221-0.6-0.521v-0.88
		c-0.7,0.8-1.68,1.54-3.021,1.54c-1.521,0-2.721-0.84-2.721-2.641c0-2.181,1.88-2.74,4.661-2.74h1.02v-0.48
		c0-1.28-0.64-2.721-2.36-2.721c-1.34,0-1.82,0.58-2.141,0.58c-0.34,0-0.52-0.399-0.52-0.7c0-0.52,1.42-1.02,2.701-1.02
		C244.662,87.355,245.602,89.216,245.602,91.216z M244.302,92.597h-0.84c-1.84,0-3.541,0.18-3.541,1.72
		c0,1.16,0.76,1.661,1.74,1.661c1.28,0,2.641-1.201,2.641-2.101V92.597z"/>
	<path fill="#303333" d="M247.613,93.276v-2.141c0-2.12,1.2-3.78,3.861-3.78c1.7,0,2.82,0.76,2.82,1.3c0,0.28-0.26,0.641-0.58,0.641
		c-0.38,0-0.72-0.74-2.181-0.74c-1.74,0-2.62,0.98-2.62,2.58v2.141c0,1.62,0.88,2.601,2.64,2.601c1.541,0,1.86-0.76,2.261-0.76
		c0.36,0,0.6,0.34,0.6,0.64c0,0.54-1.16,1.32-2.92,1.32C248.833,97.077,247.613,95.457,247.613,93.276z"/>
	<path fill="#303333" d="M260.171,90.996l3.46,5.061c0.04,0.08,0.08,0.181,0.08,0.28c0,0.3-0.36,0.66-0.7,0.66
		c-0.16,0-0.3-0.08-0.4-0.24l-3.361-4.94l-1.84,1.62v2.98c0,0.26-0.28,0.521-0.66,0.521c-0.36,0-0.64-0.261-0.64-0.521V82.154
		c0-0.28,0.28-0.48,0.64-0.48c0.38,0,0.66,0.2,0.66,0.48v9.742l4.881-4.341c0.1-0.061,0.2-0.12,0.3-0.12
		c0.32,0,0.66,0.279,0.66,0.62c0,0.12-0.02,0.26-0.14,0.359L260.171,90.996z"/>
	<path fill="#303333" d="M270.49,93.997c0,1.3,0.48,1.76,1.86,1.76h0.56c0.36,0,0.6,0.28,0.6,0.58c0,0.32-0.24,0.601-0.6,0.601
		h-0.56c-2.061,0-3.161-0.881-3.161-2.94V83.454c0-0.279,0.34-0.479,0.64-0.479c0.32,0,0.66,0.2,0.66,0.479v4.021h2.581
		c0.26,0,0.46,0.26,0.46,0.54s-0.2,0.54-0.46,0.54h-2.581V93.997z"/>
	<path fill="#303333" d="M282.098,91.096v2.181c0,1.98-1.78,3.801-3.821,3.801c-2.021,0-3.781-1.8-3.781-3.801v-2.181
		c0-2,1.7-3.74,3.781-3.74C280.317,87.355,282.098,89.035,282.098,91.096z M280.797,91.096c0-1.28-1.12-2.54-2.521-2.54
		s-2.48,1.26-2.48,2.54v2.181c0,1.341,1.1,2.601,2.48,2.601c1.4,0,2.521-1.26,2.521-2.601V91.096z"/>
	<path fill="#303333" d="M287.315,88.155c-0.04-0.06-0.06-0.12-0.06-0.18c0-0.34,0.46-0.62,0.8-0.62c0.2,0,0.4,0.08,0.46,0.28
		l2.74,7.361l2.581-7.361c0.08-0.2,0.26-0.28,0.44-0.28c0.32,0,0.8,0.26,0.8,0.64c0,0.04,0,0.12-0.04,0.16l-3.101,8.402
		c-0.8,2.16-1.8,5.021-4.061,5.021c-0.34,0-0.6-0.14-0.6-0.58c0-0.3,0.1-0.6,0.4-0.6c1.26,0,2.4-1.781,2.9-3.861L287.315,88.155z"/>
	<path fill="#303333" d="M303.715,91.096v2.181c0,1.98-1.78,3.801-3.821,3.801c-2.021,0-3.781-1.8-3.781-3.801v-2.181
		c0-2,1.7-3.74,3.781-3.74C301.935,87.355,303.715,89.035,303.715,91.096z M302.415,91.096c0-1.28-1.12-2.54-2.521-2.54
		s-2.48,1.26-2.48,2.54v2.181c0,1.341,1.1,2.601,2.48,2.601c1.4,0,2.521-1.26,2.521-2.601V91.096z"/>
	<path fill="#303333" d="M305.624,93.316v-5.341c0-0.24,0.28-0.5,0.66-0.5c0.34,0,0.64,0.26,0.64,0.5v5.341
		c0,1.301,1.1,2.561,2.5,2.561c1.38,0,2.5-1.24,2.5-2.561v-5.361c0-0.26,0.3-0.479,0.66-0.479c0.36,0,0.64,0.22,0.64,0.479v5.361
		c0,2.001-1.74,3.761-3.801,3.761C307.324,97.077,305.624,95.297,305.624,93.316z"/>
	<path fill="#303333" d="M319.454,88.556c-1.32,0-2.641,1.1-2.641,2.921v4.94c0,0.26-0.28,0.521-0.66,0.521
		c-0.36,0-0.64-0.261-0.64-0.521v-8.462c0-0.28,0.28-0.479,0.64-0.479c0.34,0,0.62,0.199,0.62,0.479v0.98
		c0.44-0.8,1.38-1.58,2.681-1.58h0.7c0.28,0,0.52,0.28,0.52,0.6c0,0.32-0.24,0.601-0.52,0.601H319.454z"/>
	<path fill="#303333" d="M156.776,117.997c0,1.3,0.48,1.76,1.86,1.76h0.56c0.36,0,0.6,0.28,0.6,0.58c0,0.32-0.24,0.601-0.6,0.601
		h-0.56c-2.061,0-3.161-0.88-3.161-2.94v-10.543c0-0.279,0.34-0.479,0.64-0.479c0.32,0,0.66,0.2,0.66,0.479v4.021h2.581
		c0.26,0,0.46,0.26,0.46,0.54s-0.2,0.54-0.46,0.54h-2.581V117.997z"/>
	<path fill="#303333" d="M168.384,115.097v2.18c0,1.98-1.78,3.801-3.821,3.801c-2.021,0-3.781-1.8-3.781-3.801v-2.18
		c0-2.001,1.7-3.741,3.781-3.741C166.604,111.355,168.384,113.035,168.384,115.097z M167.083,115.097
		c0-1.281-1.12-2.541-2.521-2.541s-2.48,1.26-2.48,2.541v2.18c0,1.341,1.1,2.601,2.48,2.601c1.4,0,2.521-1.26,2.521-2.601V115.097z"
		/>
	<path fill="#303333" d="M171.68,117.997c0,1.3,0.48,1.76,1.86,1.76h0.56c0.36,0,0.6,0.28,0.6,0.58c0,0.32-0.24,0.601-0.6,0.601
		h-0.56c-2.061,0-3.161-0.88-3.161-2.94v-10.543c0-0.279,0.34-0.479,0.64-0.479c0.32,0,0.66,0.2,0.66,0.479v4.021h2.581
		c0.26,0,0.46,0.26,0.46,0.54s-0.2,0.54-0.46,0.54h-2.581V117.997z"/>
	<path fill="#303333" d="M182.851,115.216v5.201c0,0.301-0.26,0.521-0.64,0.521c-0.34,0-0.6-0.22-0.6-0.521v-0.88
		c-0.7,0.8-1.68,1.54-3.021,1.54c-1.521,0-2.721-0.84-2.721-2.641c0-2.18,1.88-2.74,4.661-2.74h1.02v-0.48
		c0-1.28-0.64-2.721-2.36-2.721c-1.34,0-1.82,0.58-2.141,0.58c-0.34,0-0.52-0.399-0.52-0.7c0-0.52,1.42-1.02,2.701-1.02
		C181.911,111.355,182.851,113.216,182.851,115.216z M181.551,116.597h-0.84c-1.84,0-3.541,0.18-3.541,1.721
		c0,1.16,0.76,1.66,1.74,1.66c1.28,0,2.641-1.2,2.641-2.101V116.597z"/>
	<path fill="#303333" d="M186.53,106.154v14.263c0,0.261-0.28,0.521-0.66,0.521c-0.36,0-0.64-0.26-0.64-0.521v-14.263
		c0-0.28,0.28-0.48,0.64-0.48C186.25,105.674,186.53,105.874,186.53,106.154z"/>
	<path fill="#303333" d="M190.332,106.154v14.263c0,0.261-0.28,0.521-0.66,0.521c-0.36,0-0.64-0.26-0.64-0.521v-14.263
		c0-0.28,0.28-0.48,0.64-0.48C190.051,105.674,190.332,105.874,190.332,106.154z"/>
	<path fill="#303333" d="M192.039,112.155c-0.04-0.06-0.06-0.12-0.06-0.18c0-0.34,0.46-0.62,0.8-0.62c0.2,0,0.4,0.08,0.46,0.28
		l2.74,7.361l2.581-7.361c0.08-0.2,0.26-0.28,0.44-0.28c0.32,0,0.8,0.26,0.8,0.64c0,0.04,0,0.12-0.04,0.16l-3.101,8.402
		c-0.8,2.16-1.8,5.021-4.061,5.021c-0.34,0-0.6-0.14-0.6-0.58c0-0.3,0.1-0.6,0.4-0.6c1.26,0,2.4-1.78,2.9-3.861L192.039,112.155z"/>
	<path fill="#303333" d="M211.68,115.216v5.201c0,0.301-0.26,0.521-0.64,0.521c-0.34,0-0.6-0.22-0.6-0.521v-0.88
		c-0.7,0.8-1.68,1.54-3.021,1.54c-1.521,0-2.721-0.84-2.721-2.641c0-2.18,1.88-2.74,4.661-2.74h1.02v-0.48
		c0-1.28-0.64-2.721-2.36-2.721c-1.34,0-1.82,0.58-2.141,0.58c-0.34,0-0.52-0.399-0.52-0.7c0-0.52,1.42-1.02,2.701-1.02
		C210.74,111.355,211.68,113.216,211.68,115.216z M210.38,116.597h-0.84c-1.84,0-3.541,0.18-3.541,1.721c0,1.16,0.76,1.66,1.74,1.66
		c1.28,0,2.641-1.2,2.641-2.101V116.597z"/>
	<path fill="#303333" d="M222.437,120.777c-0.08,0.24-0.3,0.32-0.521,0.32c-0.28,0-0.44-0.101-0.54-0.3l-2.08-6.502l-2.061,6.401
		c-0.08,0.28-0.3,0.4-0.58,0.4c-0.26,0-0.44-0.08-0.54-0.4l-3.121-8.382c-0.04-0.08-0.08-0.22-0.08-0.3c0-0.32,0.42-0.58,0.78-0.58
		c0.2,0,0.4,0.1,0.46,0.3l2.561,7.122l2.06-6.502c0.08-0.26,0.26-0.34,0.521-0.34c0.24,0,0.44,0.08,0.52,0.34l1.98,6.582
		l2.621-7.202c0.04-0.18,0.24-0.3,0.44-0.3c0.34,0,0.78,0.22,0.78,0.58c0,0.1-0.04,0.24-0.08,0.3L222.437,120.777z"/>
	<path fill="#303333" d="M234.294,114.996c0,1.54-0.86,1.601-1.741,1.601h-4.521v0.74c0,1.601,1.28,2.601,3.041,2.601
		c1.58,0,1.96-0.801,2.4-0.801c0.32,0,0.56,0.381,0.56,0.62c0,0.48-1.14,1.32-3,1.32c-2.521,0-4.301-1.52-4.301-3.801v-2.24
		c0-2.001,1.72-3.681,3.821-3.681C232.534,111.355,234.294,112.876,234.294,114.996z M232.033,115.637c0.8,0,1-0.12,1-0.681
		c0-1.28-1.021-2.521-2.5-2.521c-1.38,0-2.5,1.101-2.5,2.44v0.761H232.033z"/>
	<path fill="#303333" d="M240.832,118.556c0-2.66-4.941-1.16-4.941-4.48c0-1.28,0.88-2.721,3.161-2.721
		c1.32,0,2.681,0.5,2.681,0.979c0,0.221-0.22,0.681-0.541,0.681c-0.32,0-0.94-0.561-2.12-0.561c-1.48,0-2,0.9-2,1.561
		c0,2.281,4.961,0.841,4.961,4.481c0,1.58-1.18,2.58-3.221,2.58c-1.88,0-3.141-0.84-3.141-1.439c0-0.261,0.2-0.601,0.46-0.601
		c0.44,0,0.84,0.94,2.641,0.94C240.292,119.977,240.832,119.317,240.832,118.556z"/>
	<path fill="#303333" d="M251.21,115.097v2.18c0,1.98-1.78,3.801-3.821,3.801c-2.021,0-3.781-1.8-3.781-3.801v-2.18
		c0-2.001,1.7-3.741,3.781-3.741C249.43,111.355,251.21,113.035,251.21,115.097z M249.91,115.097c0-1.281-1.12-2.541-2.521-2.541
		s-2.48,1.26-2.48,2.541v2.18c0,1.341,1.1,2.601,2.48,2.601c1.4,0,2.521-1.26,2.521-2.601V115.097z"/>
	<path fill="#303333" d="M259.191,115.036c0-1.44-1.041-2.48-2.281-2.48c-1.16,0-2.36,0.92-2.36,2.541v5.32
		c0,0.261-0.3,0.521-0.66,0.521s-0.64-0.26-0.64-0.521v-8.462c0-0.28,0.28-0.479,0.64-0.479c0.34,0,0.62,0.199,0.62,0.479v0.921
		c0.44-0.78,1.34-1.521,2.661-1.521s2.36,0.82,2.84,2c0.7-1.36,1.881-2,3.041-2c1.72,0,3.36,1.36,3.36,3.741v5.32
		c0,0.261-0.28,0.521-0.66,0.521c-0.34,0-0.64-0.26-0.64-0.521v-5.32c0-1.681-1.181-2.541-2.281-2.541c-1.16,0-2.34,0.96-2.34,2.461
		v5.421c0,0.36-0.34,0.5-0.66,0.5c-0.3,0-0.64-0.14-0.64-0.5V115.036z"/>
	<path fill="#303333" d="M275.979,114.996c0,1.54-0.86,1.601-1.741,1.601h-4.521v0.74c0,1.601,1.28,2.601,3.041,2.601
		c1.58,0,1.96-0.801,2.4-0.801c0.32,0,0.56,0.381,0.56,0.62c0,0.48-1.14,1.32-3,1.32c-2.521,0-4.301-1.52-4.301-3.801v-2.24
		c0-2.001,1.72-3.681,3.821-3.681C274.219,111.355,275.979,112.876,275.979,114.996z M273.719,115.637c0.8,0,1-0.12,1-0.681
		c0-1.28-1.021-2.521-2.5-2.521c-1.38,0-2.5,1.101-2.5,2.44v0.761H273.719z"/>
	<path fill="#303333" d="M290.5,120.777c-0.08,0.24-0.3,0.32-0.521,0.32c-0.28,0-0.44-0.101-0.54-0.3l-2.08-6.502l-2.061,6.401
		c-0.08,0.28-0.3,0.4-0.58,0.4c-0.26,0-0.44-0.08-0.54-0.4l-3.121-8.382c-0.04-0.08-0.08-0.22-0.08-0.3c0-0.32,0.42-0.58,0.78-0.58
		c0.2,0,0.4,0.1,0.46,0.3l2.561,7.122l2.06-6.502c0.08-0.26,0.26-0.34,0.521-0.34c0.24,0,0.44,0.08,0.52,0.34l1.98,6.582
		l2.621-7.202c0.04-0.18,0.24-0.3,0.44-0.3c0.34,0,0.78,0.22,0.78,0.58c0,0.1-0.04,0.24-0.08,0.3L290.5,120.777z"/>
	<path fill="#303333" d="M302.357,114.996c0,1.54-0.86,1.601-1.741,1.601h-4.521v0.74c0,1.601,1.28,2.601,3.041,2.601
		c1.58,0,1.96-0.801,2.4-0.801c0.32,0,0.56,0.381,0.56,0.62c0,0.48-1.14,1.32-3,1.32c-2.521,0-4.301-1.52-4.301-3.801v-2.24
		c0-2.001,1.72-3.681,3.821-3.681C300.597,111.355,302.357,112.876,302.357,114.996z M300.097,115.637c0.8,0,1-0.12,1-0.681
		c0-1.28-1.021-2.521-2.5-2.521c-1.38,0-2.5,1.101-2.5,2.44v0.761H300.097z"/>
	<path fill="#303333" d="M305.486,106.154v6.722c0.44-0.78,1.34-1.521,2.661-1.521c1.96,0,3.581,1.68,3.581,3.741v2.18
		c0,1.98-1.66,3.801-3.541,3.801c-1.24,0-2.321-0.72-2.741-1.54v0.88c0,0.261-0.28,0.521-0.62,0.521c-0.36,0-0.64-0.26-0.64-0.521
		v-14.263c0-0.28,0.28-0.48,0.64-0.48C305.206,105.674,305.486,105.874,305.486,106.154z M310.427,115.097
		c0-1.281-1.12-2.541-2.5-2.541c-1.2,0-2.44,0.94-2.44,2.541v2.8c0,0.601,1.06,1.98,2.46,1.98c1.34,0,2.48-1.28,2.48-2.601V115.097z
		"/>
	<path fill="#303333" d="M318.354,118.556c0-2.66-4.941-1.16-4.941-4.48c0-1.28,0.88-2.721,3.161-2.721c1.32,0,2.68,0.5,2.68,0.979
		c0,0.221-0.22,0.681-0.54,0.681c-0.32,0-0.94-0.561-2.12-0.561c-1.48,0-2,0.9-2,1.561c0,2.281,4.961,0.841,4.961,4.481
		c0,1.58-1.18,2.58-3.221,2.58c-1.88,0-3.141-0.84-3.141-1.439c0-0.261,0.2-0.601,0.46-0.601c0.44,0,0.84,0.94,2.641,0.94
		C317.814,119.977,318.354,119.317,318.354,118.556z"/>
	<path fill="#303333" d="M322.84,107.834c0,0.44-0.38,0.841-0.86,0.841c-0.5,0-0.9-0.4-0.9-0.841c0-0.439,0.4-0.819,0.9-0.819
		C322.459,107.014,322.84,107.394,322.84,107.834z M322.64,111.955v8.462c0,0.261-0.3,0.521-0.66,0.521s-0.64-0.26-0.64-0.521
		v-8.462c0-0.28,0.28-0.479,0.64-0.479S322.64,111.675,322.64,111.955z"/>
	<path fill="#303333" d="M326.219,117.997c0,1.3,0.48,1.76,1.86,1.76h0.56c0.36,0,0.6,0.28,0.6,0.58c0,0.32-0.24,0.601-0.6,0.601
		h-0.56c-2.061,0-3.161-0.88-3.161-2.94v-10.543c0-0.279,0.34-0.479,0.64-0.479c0.32,0,0.66,0.2,0.66,0.479v4.021h2.581
		c0.26,0,0.46,0.26,0.46,0.54s-0.2,0.54-0.46,0.54h-2.581V117.997z"/>
	<path fill="#303333" d="M337.814,114.996c0,1.54-0.86,1.601-1.741,1.601h-4.521v0.74c0,1.601,1.28,2.601,3.041,2.601
		c1.58,0,1.96-0.801,2.4-0.801c0.32,0,0.56,0.381,0.56,0.62c0,0.48-1.14,1.32-3,1.32c-2.521,0-4.301-1.52-4.301-3.801v-2.24
		c0-2.001,1.72-3.681,3.821-3.681C336.054,111.355,337.814,112.876,337.814,114.996z M335.554,115.637c0.8,0,1-0.12,1-0.681
		c0-1.28-1.021-2.521-2.5-2.521c-1.38,0-2.5,1.101-2.5,2.44v0.761H335.554z"/>
	<path fill="#303333" d="M341.307,120.138c0,0.479-0.42,0.92-0.9,0.92c-0.54,0-0.92-0.44-0.92-0.92c0-0.521,0.38-0.94,0.92-0.94
		C340.887,119.197,341.307,119.617,341.307,120.138z"/>
</g>
<g>
	<path fill="#FFFFFF" d="M426.194,177.226c1.75,0,3.427-0.161,4.997-0.447c-0.376-1.33-2.46-2.351-4.997-2.351
		c-2.538,0-4.622,1.022-4.997,2.351C422.767,177.065,424.444,177.226,426.194,177.226z"/>
</g>
<g>
	<rect x="369.599" y="251.411" fill="#FFFFFF" width="249.985" height="30.575"/>
</g>
</svg>
