<?xml version="1.0" encoding="utf-8"?>
<!-- Generator: Adobe Illustrator 19.0.1, SVG Export Plug-In . SVG Version: 6.00 Build 0)  -->
<svg version="1.1" id="Layer_1" xmlns="http://www.w3.org/2000/svg" xmlns:xlink="http://www.w3.org/1999/xlink" x="0px" y="0px"
	 viewBox="0 0 307.159 232.677" enable-background="new 0 0 307.159 232.677" xml:space="preserve">
<g>
	<g>
		<g>
			<path fill="#30BEC3" d="M231.7,166.65c0.024-9.513,0.04-46.557,0.04-47.377c0-46.753-37.9-84.653-84.653-84.653
				c-46.753,0-84.653,37.901-84.653,84.653c0,0.82,0.016,37.864,0.04,47.377H231.7z"/>
		</g>
		<g>
			<g>
				<g>
					<line fill="#FFFFFF" x1="114.738" y1="99.678" x2="114.738" y2="110.811"/>
				</g>
				<g>
					<path fill="#383538" d="M114.738,113.153c-1.294,0-2.342-1.049-2.342-2.342V99.678c0-1.294,1.049-2.342,2.342-2.342
						c1.294,0,2.342,1.049,2.342,2.342v11.132C117.08,112.104,116.032,113.153,114.738,113.153z"/>
				</g>
			</g>
			<g>
				<g>
					<line fill="#FFFFFF" x1="194.52" y1="99.678" x2="194.52" y2="110.811"/>
				</g>
				<g>
					<path fill="#383538" d="M194.52,113.153c-1.294,0-2.342-1.049-2.342-2.342V99.678c0-1.294,1.049-2.342,2.342-2.342
						c1.294,0,2.342,1.049,2.342,2.342v11.132C196.863,112.104,195.814,113.153,194.52,113.153z"/>
				</g>
			</g>
		</g>
		<g>
			<g>
				<path fill="#FFFFFF" d="M201.078,122.871c1.168,0,2.282,0.386,3.07,1.062c0.788,0.677,1.176,1.582,1.073,2.496
					c-2.291,20.364-24.068,36.333-50.592,36.333c-26.526,0-48.303-15.97-50.592-36.337c-0.103-0.913,0.287-1.819,1.076-2.495
					c0.79-0.676,1.904-1.06,3.072-1.06H201.078z"/>
			</g>
			<g>
				<path fill="#383538" d="M154.629,164.839c-13.211,0-25.855-3.88-35.601-10.924c-9.82-7.097-15.876-16.777-17.054-27.256
					c-0.182-1.604,0.47-3.174,1.788-4.303c1.175-1.006,2.746-1.559,4.423-1.559h92.894c1.654,0,3.266,0.57,4.422,1.563
					c1.313,1.128,1.964,2.696,1.784,4.302c-1.179,10.479-7.236,20.158-17.056,27.254
					C180.482,160.959,167.839,164.839,154.629,164.839z M108.184,124.948c-0.668,0-1.312,0.21-1.722,0.56
					c-0.12,0.103-0.398,0.378-0.363,0.684c1.046,9.303,6.501,17.953,15.361,24.357c9.045,6.537,20.824,10.137,33.169,10.137
					c12.344,0,24.123-3.6,33.168-10.136c8.86-6.403,14.315-15.051,15.362-24.353c0.033-0.299-0.213-0.56-0.363-0.689
					c-0.409-0.351-1.051-0.561-1.717-0.561H108.184z"/>
			</g>
		</g>
		<g>
			<g>
				<g>
					<line fill="#FFFFFF" x1="119.376" y1="122.871" x2="119.376" y2="151.325"/>
				</g>
				<g>
					<rect x="117.502" y="122.872" fill="#383538" width="3.748" height="28.453"/>
				</g>
			</g>
			<g>
				<g>
					<line fill="#FFFFFF" x1="142.878" y1="122.871" x2="142.878" y2="161.777"/>
				</g>
				<g>
					<rect x="141.004" y="122.872" fill="#383538" width="3.748" height="38.906"/>
				</g>
			</g>
			<g>
				<g>
					<line fill="#FFFFFF" x1="166.38" y1="122.83" x2="166.38" y2="160.387"/>
				</g>
				<g>
					<rect x="164.506" y="122.83" fill="#383538" width="3.748" height="37.557"/>
				</g>
			</g>
			<g>
				<g>
					<line fill="#FFFFFF" x1="189.882" y1="122.871" x2="189.882" y2="151.325"/>
				</g>
				<g>
					<rect x="188.008" y="122.872" fill="#383538" width="3.748" height="28.453"/>
				</g>
			</g>
		</g>
		<g>
			<path fill="#383538" d="M189.882,148.628v-25.082H166.38v37.946C175.378,159.36,183.446,154.838,189.882,148.628z"/>
		</g>
		<g>
			<g>
				
					<rect x="104.768" y="59.114" transform="matrix(0.7071 0.7071 -0.7071 0.7071 85.7261 -56.7711)" fill="#FFFFFF" width="13.259" height="31.978"/>
			</g>
			<g>
				<path fill="#383538" d="M104.78,93.747L92.753,81.722l25.261-25.262l12.027,12.025L104.78,93.747z M98.054,81.721l6.726,6.725
					l19.961-19.962l-6.726-6.725L98.054,81.721z"/>
			</g>
		</g>
		<g>
			<g>
				
					<rect x="104.768" y="59.114" transform="matrix(-0.7071 0.7071 -0.7071 -0.7071 243.2723 49.4398)" fill="#FFFFFF" width="13.259" height="31.978"/>
			</g>
			<g>
				<path fill="#383538" d="M118.015,93.747L92.752,68.485l12.027-12.025l25.261,25.262L118.015,93.747z M98.053,68.485
					l19.962,19.962l6.725-6.725L104.779,61.76L98.053,68.485z"/>
			</g>
		</g>
		<g>
			<g>
				<path fill="#383538" d="M241.573,166.726l-4.683-0.144c0.028-1.232,0.049-47.462,0.049-49.509
					c0-21.986-8.562-42.656-24.108-58.203c-15.546-15.546-36.216-24.108-58.202-24.108s-42.656,8.562-58.203,24.108
					C80.88,74.418,72.318,95.088,72.318,117.074c0,2.046,0.021,48.276,0.049,49.509l-4.683,0.144
					c-0.032-0.99-0.052-49.172-0.052-49.653c0-23.237,9.049-45.084,25.48-61.515c16.431-16.431,38.278-25.481,61.515-25.481
					s45.084,9.049,61.515,25.481c16.431,16.431,25.48,38.278,25.48,61.515C241.625,117.554,241.605,165.736,241.573,166.726z"/>
			</g>
		</g>
	</g>
	<g>
		<path fill="#363636" d="M71.882,184.288l4.62,6.756c0.054,0.106,0.106,0.24,0.106,0.374c0,0.4-0.48,0.881-0.935,0.881
			c-0.214,0-0.4-0.106-0.534-0.32l-4.485-6.596l-2.457,2.163v3.979c0,0.348-0.374,0.694-0.881,0.694
			c-0.481,0-0.854-0.347-0.854-0.694v-19.039c0-0.374,0.373-0.641,0.854-0.641c0.507,0,0.881,0.267,0.881,0.641v13.004l6.516-5.794
			c0.134-0.08,0.267-0.16,0.4-0.16c0.428,0,0.881,0.374,0.881,0.827c0,0.16-0.026,0.348-0.187,0.481L71.882,184.288z"/>
		<path fill="#363636" d="M80.642,174.728c0,0.587-0.507,1.121-1.147,1.121c-0.668,0-1.202-0.534-1.202-1.121
			c0-0.588,0.534-1.095,1.202-1.095C80.135,173.633,80.642,174.14,80.642,174.728z M80.375,180.229v11.295
			c0,0.348-0.4,0.694-0.881,0.694c-0.481,0-0.854-0.347-0.854-0.694v-11.295c0-0.374,0.373-0.642,0.854-0.642
			C79.975,179.588,80.375,179.855,80.375,180.229z"/>
		<path fill="#363636" d="M83.286,187.332v-2.857c0-2.83,1.602-5.047,5.153-5.047c2.27,0,3.766,1.015,3.766,1.736
			c0,0.373-0.348,0.854-0.774,0.854c-0.508,0-0.962-0.988-2.911-0.988c-2.323,0-3.498,1.309-3.498,3.444v2.857
			c0,2.163,1.175,3.472,3.525,3.472c2.056,0,2.483-1.015,3.017-1.015c0.481,0,0.802,0.454,0.802,0.854
			c0,0.721-1.549,1.762-3.899,1.762C84.915,192.405,83.286,190.243,83.286,187.332z"/>
		<path fill="#363636" d="M100.136,184.288l4.62,6.756c0.054,0.106,0.106,0.24,0.106,0.374c0,0.4-0.48,0.881-0.935,0.881
			c-0.214,0-0.4-0.106-0.534-0.32l-4.485-6.596l-2.457,2.163v3.979c0,0.348-0.374,0.694-0.881,0.694
			c-0.481,0-0.854-0.347-0.854-0.694v-19.039c0-0.374,0.373-0.641,0.854-0.641c0.507,0,0.881,0.267,0.881,0.641v13.004l6.516-5.794
			c0.134-0.08,0.267-0.16,0.4-0.16c0.428,0,0.881,0.374,0.881,0.827c0,0.16-0.026,0.348-0.187,0.481L100.136,184.288z"/>
		<path fill="#363636" d="M108.576,180.229v1.228c0.588-1.041,1.816-2.029,3.578-2.029c2.644,0,4.807,2.243,4.807,4.994v2.91
			c0,2.644-2.216,5.073-4.727,5.073c-1.629,0-3.017-0.961-3.604-2.056v7.396c0,0.32-0.374,0.668-0.881,0.668
			c-0.481,0-0.854-0.348-0.854-0.668v-17.517c0-0.374,0.373-0.642,0.854-0.642C108.202,179.588,108.576,179.855,108.576,180.229z
			 M115.225,184.422c0-1.709-1.522-3.392-3.364-3.392c-1.603,0-3.231,1.255-3.231,3.392v3.738c0,0.801,1.389,2.644,3.284,2.644
			c1.763,0,3.312-1.709,3.312-3.472V184.422z"/>
		<path fill="#363636" d="M119.685,187.385v-7.13c0-0.32,0.374-0.668,0.881-0.668c0.454,0,0.854,0.348,0.854,0.668v7.13
			c0,1.735,1.469,3.418,3.338,3.418c1.843,0,3.338-1.656,3.338-3.418v-7.156c0-0.348,0.4-0.642,0.882-0.642
			c0.48,0,0.854,0.294,0.854,0.642v7.156c0,2.67-2.323,5.02-5.074,5.02C121.954,192.405,119.685,190.029,119.685,187.385z"/>
		<path fill="#363636" d="M134.8,191.524c0,0.348-0.4,0.694-0.881,0.694c-0.508,0-0.854-0.347-0.854-0.694v-11.295
			c0-0.374,0.347-0.642,0.854-0.642c0.427,0,0.801,0.268,0.801,0.642v1.228c0.561-1.041,1.789-2.029,3.578-2.029
			c2.563,0,4.753,2.243,4.753,4.994v7.103c0,0.454-0.454,0.694-0.881,0.694c-0.4,0-0.854-0.24-0.854-0.694v-7.103
			c0-1.709-1.495-3.392-3.338-3.392c-1.575,0-3.178,1.255-3.178,3.392V191.524z"/>
		<path fill="#363636" d="M145.856,187.332v-2.857c0-2.83,1.602-5.047,5.153-5.047c2.27,0,3.766,1.015,3.766,1.736
			c0,0.373-0.348,0.854-0.774,0.854c-0.508,0-0.962-0.988-2.911-0.988c-2.323,0-3.498,1.309-3.498,3.444v2.857
			c0,2.163,1.175,3.472,3.525,3.472c2.056,0,2.482-1.015,3.017-1.015c0.481,0,0.802,0.454,0.802,0.854
			c0,0.721-1.549,1.762-3.898,1.762C147.485,192.405,145.856,190.243,145.856,187.332z"/>
		<path fill="#363636" d="M159.021,191.524c0,0.348-0.4,0.694-0.881,0.694c-0.481,0-0.854-0.347-0.854-0.694v-19.039
			c0-0.374,0.373-0.641,0.854-0.641c0.48,0,0.881,0.267,0.881,0.641v8.972c0.561-1.041,1.763-2.029,3.524-2.029
			c2.563,0,4.727,2.243,4.727,4.994v7.103c0,0.454-0.427,0.694-0.881,0.694c-0.4,0-0.854-0.24-0.854-0.694v-7.103
			c0-1.709-1.495-3.392-3.312-3.392c-1.575,0-3.204,1.255-3.204,3.392V191.524z"/>
		<path fill="#363636" d="M170.238,187.519v-3.205c0-2.724,1.549-4.859,4.887-4.859c2.136,0,3.498,1.015,3.498,1.575
			c0,0.24-0.24,0.454-0.48,0.454c-0.454,0-0.908-1.095-3.018-1.095c-2.563,0-3.952,1.495-3.952,3.925v3.205
			c0,2.43,1.361,3.925,3.979,3.925c2.243,0,2.697-1.095,3.178-1.095c0.24,0,0.454,0.214,0.454,0.454
			c0,0.561-1.389,1.575-3.658,1.575C171.813,192.379,170.238,190.296,170.238,187.519z"/>
		<path fill="#363636" d="M186.046,180.389c-1.869,0-3.712,1.441-3.712,3.872v7.477c0,0.24-0.213,0.48-0.48,0.48
			c-0.267,0-0.454-0.24-0.454-0.48v-11.669c0-0.268,0.188-0.454,0.454-0.454c0.268,0,0.48,0.187,0.48,0.454v1.415
			c0.614-1.042,1.843-2.029,3.712-2.029h0.988c0.24,0,0.454,0.213,0.454,0.48c0,0.24-0.214,0.454-0.454,0.454H186.046z"/>
		<path fill="#363636" d="M197.957,184.261c0,1.949-1.068,2.002-2.217,2.002h-6.328v1.256c0,2.43,1.896,3.925,4.513,3.925
			c2.243,0,2.644-1.095,3.15-1.095c0.24,0,0.48,0.267,0.48,0.48c0,0.508-1.388,1.549-3.685,1.549c-3.151,0-5.394-1.949-5.394-4.859
			v-3.338c0-2.563,2.162-4.727,4.753-4.727C195.741,179.455,197.957,181.484,197.957,184.261z M195.42,185.329
			c1.309,0,1.603-0.16,1.603-0.987c0-1.923-1.496-3.952-3.792-3.952c-2.163,0-3.818,1.789-3.818,3.792v1.147H195.42z"/>
		<path fill="#363636" d="M208.585,184.582v7.156c0,0.267-0.187,0.48-0.453,0.48c-0.268,0-0.481-0.214-0.481-0.48v-1.389
			c-0.907,1.041-2.243,2.029-4.005,2.029c-2.083,0-3.712-1.121-3.712-3.524c0-2.831,2.51-3.525,6.222-3.525h1.495v-0.747
			c0-2.003-0.987-4.192-3.524-4.192c-1.655,0-2.457,0.721-2.777,0.721c-0.294,0-0.48-0.347-0.48-0.534
			c0-0.507,1.683-1.121,3.312-1.121C207.464,179.455,208.585,181.938,208.585,184.582z M207.651,186.263h-1.469
			c-2.75,0-5.313,0.268-5.313,2.591c0,1.789,1.202,2.59,2.75,2.59c2.003,0,4.032-1.789,4.032-2.938V186.263z"/>
		<path fill="#363636" d="M212.058,173.9c0-0.267,0.24-0.454,0.454-0.454c0.24,0,0.48,0.188,0.48,0.454v5.715h3.604
			c0.24,0,0.454,0.213,0.454,0.48c0,0.24-0.214,0.454-0.454,0.454h-3.604v7.957c0,2.029,0.774,2.777,2.964,2.777h0.614
			c0.24,0,0.454,0.187,0.454,0.454c0,0.267-0.214,0.48-0.454,0.48h-0.614c-2.537,0-3.898-1.121-3.898-3.712V173.9z"/>
		<path fill="#363636" d="M220.657,174.594c0,0.454-0.374,0.854-0.828,0.854c-0.48,0-0.854-0.4-0.854-0.854s0.374-0.828,0.854-0.828
			C220.283,173.766,220.657,174.14,220.657,174.594z M220.309,180.069v11.669c0,0.24-0.213,0.48-0.48,0.48
			c-0.24,0-0.454-0.24-0.454-0.48v-11.669c0-0.268,0.214-0.454,0.454-0.454C220.096,179.615,220.309,179.801,220.309,180.069z"/>
		<path fill="#363636" d="M232.085,180.069c0,0.133-0.08,0.32-0.106,0.4l-4.166,11.589c-0.08,0.187-0.24,0.32-0.454,0.32
			c-0.24,0-0.373-0.106-0.453-0.32l-4.166-11.589c-0.026-0.08-0.106-0.268-0.106-0.374c0-0.268,0.213-0.48,0.48-0.48
			c0.187,0,0.374,0.106,0.454,0.294l3.791,10.494l3.766-10.334c0.08-0.214,0.106-0.454,0.454-0.454
			C231.819,179.615,232.085,179.801,232.085,180.069z"/>
		<path fill="#363636" d="M243.436,184.261c0,1.949-1.068,2.002-2.217,2.002h-6.328v1.256c0,2.43,1.896,3.925,4.513,3.925
			c2.243,0,2.644-1.095,3.15-1.095c0.24,0,0.48,0.267,0.48,0.48c0,0.508-1.388,1.549-3.685,1.549c-3.151,0-5.394-1.949-5.394-4.859
			v-3.338c0-2.563,2.162-4.727,4.753-4.727C241.219,179.455,243.436,181.484,243.436,184.261z M240.899,185.329
			c1.309,0,1.603-0.16,1.603-0.987c0-1.923-1.496-3.952-3.792-3.952c-2.163,0-3.818,1.789-3.818,3.792v1.147H240.899z"/>
	</g>
</g>
</svg>
