<?xml version="1.0" encoding="utf-8"?>
<!-- Generator: Adobe Illustrator 19.1.0, SVG Export Plug-In . SVG Version: 6.00 Build 0)  -->
<svg version="1.1" id="Layer_1" xmlns="http://www.w3.org/2000/svg" xmlns:xlink="http://www.w3.org/1999/xlink" x="0px" y="0px"
	 viewBox="-313 475.7 164.3 58.3" style="enable-background:new -313 475.7 164.3 58.3;" xml:space="preserve">
<style type="text/css">
	.st0{fill:#31C5C7;}
</style>
<g>
	<path class="st0" d="M-231.4,496.1c-1.9,0-3.4,1.5-3.4,3.4c0,1.9,1.5,3.4,3.4,3.4c1.9,0,3.4-1.5,3.4-3.4
		C-228,497.6-229.5,496.1-231.4,496.1z"/>
	<path class="st0" d="M-231.4,485.8c-9.6,0-17.2,7.6-17.2,17.3c0,15.1,16.1,23.4,16.8,23.8c0.1,0.1,0.3,0.1,0.4,0.1
		c0.1,0,0.3,0,0.4-0.1c0.7-0.3,16.8-8.7,16.8-23.8C-214.2,493.4-221.8,485.8-231.4,485.8z M-231.4,504.7c-2.8,0-5.2-2.3-5.2-5.2
		s2.3-5.2,5.2-5.2s5.2,2.3,5.2,5.2S-228.6,504.7-231.4,504.7z"/>
</g>
<path class="st0" d="M-157.1,490.9h-32.6c-2.4,0-4.3,1.9-4.3,4.3v22.3c0,2.4,1.9,4.3,4.3,4.3h32.6c2.4,0,4.3-1.9,4.3-4.3v-22.3
	C-152.8,492.9-154.7,490.9-157.1,490.9z M-158.1,516.8c-0.2,0.2-0.4,0.3-0.6,0.3c-0.2,0-0.4-0.1-0.6-0.2l-8.8-8l-0.7,0.7
	c-1.2,1.3-2.8,2.1-4.6,2.1s-3.4-0.7-4.6-2l-0.7-0.7l-8.8,8c-0.2,0.2-0.4,0.2-0.6,0.2c-0.2,0-0.5-0.1-0.6-0.3
	c-0.3-0.4-0.3-0.9,0.1-1.2l8.8-8l-8.8-9.7c-0.3-0.4-0.3-0.9,0.1-1.2c0.3-0.3,0.9-0.3,1.2,0.1l10.7,11.7c1.8,1.9,4.9,1.9,6.6,0
	l10.6-11.6c0.3-0.4,0.9-0.4,1.2-0.1c0.3,0.3,0.4,0.9,0.1,1.2l-8.8,9.6l8.8,8C-157.8,515.9-157.8,516.4-158.1,516.8z"/>
<path class="st0" d="M-303.1,525.8c-0.2,0-0.4-0.1-0.6-0.3c-0.3-0.3-0.3-0.7-0.2-1l3.2-6.6l-2.9-0.5c-0.4-0.1-0.6-0.3-0.7-0.7
	l-4.6-28.6c0-0.3,0-0.5,0.2-0.7c0.2-0.2,0.4-0.3,0.7-0.3l37.6,3.4c0.5,0,0.8,0.5,0.8,0.9l-2.8,30.5c0,0.2-0.1,0.5-0.3,0.6
	c-0.2,0.1-0.4,0.2-0.7,0.2l-17.1-3l-12.2,6C-302.9,525.7-303,525.8-303.1,525.8z"/>
</svg>
