<?xml version="1.0" encoding="utf-8"?>
<!-- Generator: Adobe Illustrator 19.1.0, SVG Export Plug-In . SVG Version: 6.00 Build 0)  -->
<svg version="1.1" id="Layer_1" xmlns="http://www.w3.org/2000/svg" xmlns:xlink="http://www.w3.org/1999/xlink" x="0px" y="0px"
	 viewBox="0 0 164.333 58.333" enable-background="new 0 0 164.333 58.333" xml:space="preserve">
<g>
	<path fill="#31C5C7" d="M107.353,52.193l-0.06-0.001c-7.238-0.231-15.712-7.239-21.549-13.077
		c-5.837-5.839-12.842-14.312-13.073-21.524c-0.082-2.567,6.142-7.079,6.205-7.123c1.461-1.018,3.434-0.815,4.247,0.312
		c0.484,0.67,5.176,7.785,5.692,8.598c0.548,0.863,0.472,2.143-0.204,3.423c-0.357,0.681-1.531,2.746-2.107,3.756
		c0.63,0.895,2.245,3.003,5.519,6.277c3.296,3.296,5.387,4.899,6.276,5.523c1.01-0.577,3.076-1.752,3.76-2.111
		c1.241-0.655,2.538-0.743,3.404-0.213c0.868,0.531,7.953,5.242,8.6,5.696c1.065,0.746,1.491,2.585,0.322,4.254
		C114.343,46.046,109.889,52.193,107.353,52.193z M80.961,11.885c-0.197,0-0.511,0.054-0.88,0.31
		c-1.922,1.343-5.206,4.419-5.305,5.32c0.209,6.531,6.89,14.539,12.458,20.109c5.569,5.569,13.577,12.252,20.099,12.46l0.007,0.002
		c0.899-0.101,3.973-3.386,5.318-5.31c0.491-0.702,0.291-1.24,0.193-1.322c-0.538-0.377-7.636-5.102-8.488-5.621
		c-0.024-0.016-0.104-0.041-0.241-0.041c-0.302,0-0.698,0.116-1.083,0.32c-0.866,0.454-4.224,2.377-4.258,2.397l-0.53,0.303
		l-0.528-0.31c-0.099-0.059-2.509-1.496-7.19-6.178c-4.683-4.683-6.118-7.092-6.176-7.193l-0.309-0.527l0.302-0.53
		c0.02-0.034,1.943-3.393,2.394-4.256c0.386-0.73,0.347-1.224,0.292-1.313c-0.49-0.772-5.17-7.869-5.621-8.494
		C81.393,11.989,81.245,11.885,80.961,11.885z"/>
</g>
<g>
	<path fill="#31C5C7" d="M54.347,47.811H13.522c-1.99,0-4.204-2.213-4.204-4.203V17.191c0-1.99,2.161-3.002,4.151-3.002h40.878
		c1.99,0,3.002,1.012,3.002,3.002v26.417C57.349,45.598,56.337,47.811,54.347,47.811z M54.184,45.409L39.638,32.245
		c-0.01-0.008-0.013-0.022-0.024-0.03l-5.495,4.607c-0.226,0.196-0.506,0.293-0.785,0.293c-0.281,0-0.561-0.097-0.786-0.293
		l-5.384-4.528L13.088,45.281c0.154,0.074,0.304,0.128,0.433,0.128H54.184z M11.719,43.28l13.594-12.542L11.719,19.306V43.28z
		 M54.347,16.591h-0.6H13.522c-0.353,0-0.831-0.01-1.209,0.074l21.022,17.661l21.172-17.735
		C54.45,16.591,54.417,16.591,54.347,16.591z M54.947,19.356L41.465,30.663l13.482,12.201V19.356z"/>
</g>
<g>
	<path fill="none" stroke="#31C5C7" stroke-width="2" stroke-miterlimit="10" d="M139.846,50.086h-0.102
		c0,0-14.976-16.181-14.976-27.383c0-8.736,6.2-14.861,14.976-14.861c10.101,0,14.916,6.125,14.916,14.861
		C154.66,33.905,139.846,50.086,139.846,50.086z M139.704,17.721c-2.76,0-4.997,2.222-4.997,4.965s2.237,4.965,4.997,4.965
		c2.76,0,4.999-2.222,4.999-4.965S142.464,17.721,139.704,17.721z"/>
</g>
</svg>
