<?xml version="1.0" encoding="utf-8"?>
<!-- Generator: Adobe Illustrator 19.1.0, SVG Export Plug-In . SVG Version: 6.00 Build 0)  -->
<svg version="1.1" id="Layer_1" xmlns="http://www.w3.org/2000/svg" xmlns:xlink="http://www.w3.org/1999/xlink" x="0px" y="0px"
	 viewBox="-313 475.7 164.3 58.3" style="enable-background:new -313 475.7 164.3 58.3;" xml:space="preserve">
<style type="text/css">
	.st0{fill:#31C5C7;}
</style>
<g>
	<path class="st0" d="M-227.9,494.6c-1.9,0-3.4,1.5-3.4,3.4s1.5,3.4,3.4,3.4s3.4-1.5,3.4-3.4S-226,494.6-227.9,494.6z"/>
	<path class="st0" d="M-227.9,484.3c-9.6,0-17.2,7.6-17.2,17.3c0,15.1,16.1,23.4,16.8,23.8c0.1,0.1,0.3,0.1,0.4,0.1s0.3,0,0.4-0.1
		c0.7-0.3,16.8-8.7,16.8-23.8C-210.7,491.9-218.3,484.3-227.9,484.3z M-227.9,503.2c-2.8,0-5.2-2.3-5.2-5.2s2.3-5.2,5.2-5.2
		s5.2,2.3,5.2,5.2S-225.1,503.2-227.9,503.2z"/>
</g>
<path class="st0" d="M-159.6,489.4h-32.6c-2.4,0-4.3,1.9-4.3,4.3V516c0,2.4,1.9,4.3,4.3,4.3h32.6c2.4,0,4.3-1.9,4.3-4.3v-22.3
	C-155.3,491.4-157.2,489.4-159.6,489.4z M-160.6,515.3c-0.2,0.2-0.4,0.3-0.6,0.3s-0.4-0.1-0.6-0.2l-8.8-8l-0.7,0.7
	c-1.2,1.3-2.8,2.1-4.6,2.1c-1.8,0-3.4-0.7-4.6-2l-0.7-0.7l-8.8,8c-0.2,0.2-0.4,0.2-0.6,0.2s-0.5-0.1-0.6-0.3
	c-0.3-0.4-0.3-0.9,0.1-1.2l8.8-8l-8.8-9.7c-0.3-0.4-0.3-0.9,0.1-1.2c0.3-0.3,0.9-0.3,1.2,0.1l10.7,11.7c1.8,1.9,4.9,1.9,6.6,0
	l10.6-11.6c0.3-0.4,0.9-0.4,1.2-0.1c0.3,0.3,0.4,0.9,0.1,1.2l-8.8,9.6l8.8,8C-160.3,514.4-160.3,514.9-160.6,515.3z"/>
<ellipse class="st0" cx="-280.4" cy="504.9" rx="24.3" ry="19.7"/>
<polyline class="st0" points="-300.7,515.7 -307.3,523 -293.3,520.3 "/>
</svg>
