<?xml version="1.0" encoding="utf-8"?>
<!-- Generator: Adobe Illustrator 19.1.0, SVG Export Plug-In . SVG Version: 6.00 Build 0)  -->
<svg version="1.1" id="Layer_1" xmlns="http://www.w3.org/2000/svg" xmlns:xlink="http://www.w3.org/1999/xlink" x="0px" y="0px"
	 viewBox="-302 450.5 185.5 117" style="enable-background:new -302 450.5 185.5 117;" xml:space="preserve">
<style type="text/css">
	.st0{fill:#D1D3D4;}
	.st1{fill:#FFFFFF;}
	.st2{enable-background:new    ;}
</style>
<g>
	<g>
		<g>
			<g>
				<g>
					<path class="st0" d="M-181.8,1049.6c0,1.7-0.6,3.1-1.8,4.3c-1.1,1.1-2.6,1.8-4.5,1.8c-1.8,0-3.3-0.6-4.5-1.8
						c-1.1-1.1-1.8-2.6-1.8-4.3s0.6-3.1,1.8-4.3c1.1-1.1,2.6-1.8,4.5-1.8c1.8,0,3.3,0.6,4.5,1.8
						C-182.4,1046.5-181.8,1048-181.8,1049.6z M-191,1049.6c0,1,0.3,1.8,0.8,2.4s1.3,0.9,2.1,0.9c0.8,0,1.6-0.3,2.1-0.9
						s0.8-1.4,0.8-2.4s-0.3-1.8-0.8-2.4s-1.3-0.9-2.1-0.9c-0.8,0-1.6,0.3-2.1,0.9C-190.7,1047.9-191,1048.7-191,1049.6z"/>
				</g>
			</g>
			<g>
				<g>
					<path class="st0" d="M-168.6,1049.2v6.3h-3.3v-6.4c0-0.9-0.1-1.6-0.4-2.1c-0.3-0.4-0.7-0.6-1.4-0.6c-0.6,0-1.2,0.2-1.7,0.7
						s-0.7,1.1-0.7,2.1v6.3h-3.3v-11.8h3.3v1.3c0.9-1,1.9-1.5,3.1-1.5c0.7,0,1.4,0.2,2,0.6s1.1,1,1.4,1.6c0.4-0.7,1.1-1.3,1.8-1.7
						c0.8-0.4,1.5-0.6,2.3-0.6c1.4,0,2.5,0.4,3.3,1.2s1.3,2,1.3,3.5v7.1h-3.3v-6.2c0-1.8-0.7-2.7-2-2.7c-0.6,0-1.2,0.2-1.7,0.7
						C-168.4,1047.6-168.6,1048.3-168.6,1049.2z"/>
				</g>
			</g>
			<g>
				<g>
					<path class="st0" d="M-147.9,1055.5h-3.1v-1.4c-0.8,1.1-1.9,1.6-3.1,1.6c-1.3,0-2.3-0.4-3.1-1.1c-0.8-0.7-1.3-1.7-1.3-2.9
						s0.4-2.1,1.3-2.7c0.9-0.6,2.1-0.9,3.6-0.9h2.5v-0.1c0-1.3-0.7-1.9-2-1.9c-0.6,0-1.1,0.1-1.8,0.3c-0.6,0.2-1.1,0.5-1.6,0.8
						l-1.5-2.1c1.6-1.1,3.3-1.7,5.3-1.7c1.4,0,2.6,0.4,3.5,1.1c0.9,0.7,1.4,1.8,1.4,3.4L-147.9,1055.5L-147.9,1055.5L-147.9,1055.5z
						 M-151.3,1051v-0.6h-2.1c-1.3,0-2,0.4-2,1.2c0,0.4,0.2,0.7,0.5,1c0.3,0.2,0.8,0.3,1.4,0.3s1.1-0.2,1.6-0.5
						C-151.5,1052.1-151.3,1051.7-151.3,1051z"/>
				</g>
			</g>
			<g>
				<g>
					<path class="st0" d="M-141.7,1049.2v6.3h-3.3v-16.2h3.3v5.7c1-1,2.1-1.5,3.3-1.5s2.3,0.4,3.1,1.3c0.8,0.9,1.3,2,1.3,3.5v7.1
						h-3.3v-6.4c0-1.8-0.7-2.7-2-2.7c-0.6,0-1.2,0.2-1.7,0.7C-141.5,1047.6-141.7,1048.3-141.7,1049.2z"/>
				</g>
			</g>
			<g>
				<g>
					<path class="st0" d="M-121,1055.5h-3.1v-1.4c-0.8,1.1-1.9,1.6-3.1,1.6c-1.3,0-2.3-0.4-3.1-1.1c-0.8-0.7-1.3-1.7-1.3-2.9
						s0.4-2.1,1.3-2.7c0.9-0.6,2.1-0.9,3.6-0.9h2.5v-0.1c0-1.3-0.7-1.9-2-1.9c-0.6,0-1.1,0.1-1.8,0.3c-0.6,0.2-1.1,0.5-1.6,0.8
						l-1.5-2.1c1.6-1.1,3.3-1.7,5.3-1.7c1.4,0,2.6,0.4,3.5,1.1c0.9,0.7,1.4,1.8,1.4,3.4L-121,1055.5L-121,1055.5L-121,1055.5z
						 M-124.4,1051v-0.6h-2.1c-1.3,0-2,0.4-2,1.2c0,0.4,0.2,0.7,0.5,1c0.3,0.2,0.8,0.3,1.4,0.3s1.1-0.2,1.6-0.5
						C-124.6,1052.1-124.4,1051.7-124.4,1051z"/>
				</g>
			</g>
			<g>
				<g>
					<path class="st0" d="M-117.8,1055.2c-0.4-0.4-0.5-0.8-0.5-1.4c0-0.5,0.2-1,0.5-1.4c0.4-0.4,0.8-0.5,1.4-0.5
						c0.5,0,1,0.2,1.4,0.5c0.4,0.4,0.5,0.8,0.5,1.4c0,0.5-0.2,1-0.5,1.4c-0.4,0.4-0.8,0.5-1.4,0.5S-117.5,1055.5-117.8,1055.2z"/>
				</g>
			</g>
			<g>
				<g>
					<path class="st0" d="M-107,1056.1c-1.5,0-2.8-0.6-4-1.9s-1.8-2.8-1.8-4.6s0.6-3.3,1.7-4.5c1.1-1.2,2.5-1.8,4-1.8
						c1.2,0,2.3,0.4,3.1,1v-5.3h4v16.9h-4v-1C-104.8,1055.7-105.9,1056.1-107,1056.1z M-107.1,1043.9c-1.3,0-2.5,0.5-3.5,1.6
						c-1,1-1.5,2.4-1.5,4.1c0,1.7,0.5,3,1.6,4.1c1,1.1,2.2,1.7,3.4,1.7s2.3-0.5,3.2-1.6l0.6-0.8v2.2h2.6v-15.5h-2.6v6.3l-0.6-0.7
						C-104.7,1044.4-105.8,1043.9-107.1,1043.9z M-106.3,1053.3c-0.9,0-1.6-0.4-2.3-1c-0.6-0.7-0.9-1.5-0.9-2.6
						c0-1.1,0.3-1.9,0.9-2.6s1.4-1.1,2.3-1.1s1.6,0.4,2.2,1.1s0.9,1.6,0.9,2.6s-0.3,1.9-0.9,2.6
						C-104.7,1052.9-105.4,1053.3-106.3,1053.3z M-106.3,1046.7c-0.7,0-1.2,0.3-1.7,0.8c-0.5,0.6-0.7,1.3-0.7,2.1
						c0,0.9,0.3,1.6,0.7,2.1c0.5,0.5,1.1,0.8,1.7,0.8s1.2-0.3,1.7-0.8s0.7-1.2,0.7-2.1s-0.2-1.6-0.7-2.2
						C-105.1,1047-105.6,1046.7-106.3,1046.7z"/>
				</g>
			</g>
			<g>
				<g>
					<path class="st0" d="M-91.7,1056.1c-1.9,0-3.4-0.6-4.7-1.8c-1.3-1.2-1.9-2.7-1.9-4.6c0-1.9,0.6-3.3,1.9-4.6
						c1.2-1.3,2.8-1.9,4.7-1.9s3.4,0.6,4.7,1.9c1.2,1.2,1.9,2.8,1.9,4.6c0,1.8-0.6,3.3-1.9,4.6
						C-88.3,1055.4-89.8,1056.1-91.7,1056.1z M-91.7,1043.9c-1.7,0-3.1,0.5-4.2,1.7c-1.1,1.1-1.7,2.4-1.7,4.1c0,1.6,0.5,2.9,1.7,4.1
						c1.1,1.1,2.5,1.7,4.2,1.7s3.1-0.5,4.2-1.7c1.1-1.1,1.7-2.4,1.7-4.1c0-1.6-0.5-2.9-1.7-4.1C-88.6,1044.5-90,1043.9-91.7,1043.9z
						 M-91.7,1053.3c-1,0-1.8-0.4-2.4-1c-0.6-0.7-0.9-1.6-0.9-2.6s0.3-1.9,0.9-2.6s1.4-1,2.4-1s1.8,0.4,2.4,1
						c0.6,0.7,0.9,1.6,0.9,2.6s-0.3,1.9-0.9,2.6C-89.9,1052.9-90.7,1053.3-91.7,1053.3z M-91.7,1046.7c-0.7,0-1.4,0.3-1.8,0.8
						c-0.5,0.5-0.7,1.2-0.7,2.1s0.2,1.6,0.7,2.1s1.1,0.8,1.8,0.8s1.4-0.3,1.8-0.8c0.5-0.5,0.7-1.2,0.7-2.1s-0.2-1.6-0.7-2.1
						C-90.3,1047-90.9,1046.7-91.7,1046.7z"/>
				</g>
			</g>
			<g>
				<g>
					<path class="st0" d="M-77.9,1060.5c-0.9,0-1.8-0.2-2.8-0.4c-0.9-0.3-1.8-0.7-2.5-1.3l-0.2-0.2l1.6-3.1l0.4,0.3
						c1,0.8,2.1,1.1,3.2,1.1s2-0.3,2.6-0.8c0.4-0.4,0.7-0.9,0.8-1.7c-1,0.8-2.1,1.2-3.4,1.2c-1.6,0-3-0.5-4.1-1.7
						c-1.1-1.1-1.7-2.6-1.7-4.4s0.6-3.3,1.7-4.5c1.1-1.2,2.5-1.8,4-1.8c1.2,0,2.2,0.4,3.1,1.1v-1h4v10.7c0,1.1-0.2,2.1-0.6,2.9
						c-0.4,0.8-0.9,1.6-1.6,2.1C-74.6,1060-76.2,1060.5-77.9,1060.5z M-82.5,1058.4c0.6,0.4,1.3,0.7,2,1c0.9,0.3,1.8,0.4,2.6,0.4
						c1.6,0,2.9-0.4,4.1-1.4c0.6-0.4,1-1,1.4-1.8c0.4-0.8,0.5-1.7,0.5-2.6v-9.9h-2.6v2.2l-0.6-0.8c-0.8-1.1-1.9-1.6-3.2-1.6
						s-2.5,0.5-3.4,1.6c-1,1-1.5,2.4-1.5,4.1s0.5,2.9,1.5,3.9s2.2,1.5,3.6,1.5c1.5,0,2.6-0.5,3.6-1.6l0.6-0.7v0.9
						c0,1.4-0.4,2.5-1.1,3.1s-1.8,1-3.1,1c-1.1,0-2.3-0.4-3.3-1L-82.5,1058.4z M-77.6,1052.9c-0.9,0-1.7-0.3-2.3-1s-0.9-1.5-0.9-2.5
						s0.3-1.8,0.9-2.5c0.6-0.6,1.4-0.9,2.3-0.9s1.6,0.3,2.2,0.9c0.6,0.6,0.9,1.4,0.9,2.5s-0.3,1.9-0.9,2.5
						C-75.9,1052.5-76.7,1052.9-77.6,1052.9z M-77.5,1046.7c-0.7,0-1.3,0.2-1.8,0.7s-0.7,1.1-0.7,1.9s0.2,1.5,0.7,2s1,0.7,1.8,0.7
						c0.7,0,1.3-0.2,1.7-0.7s0.7-1.1,0.7-2s-0.2-1.5-0.7-2C-76.3,1047-76.9,1046.7-77.5,1046.7z"/>
				</g>
			</g>
		</g>
	</g>
	<g>
		<path class="st0" d="M-65.2,963.9c0-37.3-30.2-67.5-67.5-67.5s-67.5,30.2-67.5,67.5c0,33.8,24.8,61.8,57.2,66.7
			c-0.3-2.2-0.4-4.4-0.4-6.7c0-8.2,1.9-15.8,5.5-21.2c3.7-5.7,8.8-8.7,14.6-8.7c12.1,0,22,13.3,22.1,29.7
			C-79.8,1012.3-65.2,989.8-65.2,963.9z"/>
		<path class="st1" d="M-123.3,994c-5.8,0-10.9,3-14.6,8.7c-3.6,5.5-5.5,13-5.5,21.2c0,2.3,0.1,4.5,0.4,6.7
			c3.4,0.5,6.8,0.8,10.3,0.8c11.4,0,22.1-2.8,31.6-7.8C-101.3,1007.2-111.2,994-123.3,994z"/>
	</g>
	<g>
		<g>
			<path class="st0" d="M-122.4,1018c-0.5,0-0.8,0.3-0.8,0.8v12.4l0,0c0.5-0.1,1.1-0.2,1.6-0.2v-12.2
				C-121.6,1018.3-122,1018-122.4,1018z"/>
		</g>
	</g>
	<g>
		<g>
			<path class="st0" d="M-132.7,1007.3h-0.5c-2.4,0-4.9-0.3-7.2-1l1-3.4c2,0.5,4.1,0.8,6.2,0.8h0.5c7.1,0,13.9-3.1,18.5-8.6l2.7,2.3
				C-116.7,1003.7-124.5,1007.3-132.7,1007.3z"/>
		</g>
	</g>
	<g>
		<path class="st1" d="M-144.8,950.9c-2.4-5.8-6.6-11.1-12.1-14.1s-12.5-3.5-18.1-0.6c-5.6,2.9-9.2,9.6-7.9,15.7
			c0.5,2.4,2,4.9,4.4,5.6c2.4,0.7,5-0.6,6.9-2.3c2.4-2.1,4.3-4.6,6.6-6.7c2.3-2.1,5.3-3.7,8.5-3.4c2.6,0.3,4.9,1.9,6.5,3.9
			s2.7,4.4,3.8,6.7"/>
	</g>
	<g>
		<path class="st1" d="M-132.7,1005.5h-0.5c-14.3,0-24.7-11.6-24.7-25.9v-13.1c0-14.3,10.4-21.1,24.7-21.1h0.5
			c14.3,0,25.9,6.8,25.9,21.1v13.1C-106.7,993.9-118.3,1005.5-132.7,1005.5z"/>
		<path class="st1" d="M-132.7,1006.2h-0.5c-7.1,0-13.5-2.8-18.2-7.8c-4.6-5-7.2-11.6-7.2-18.8v-13.1c0-7,2.5-12.7,7.2-16.5
			c4.4-3.5,10.7-5.3,18.1-5.3h0.5c7.6,0,14.1,1.8,18.8,5.3c5.1,3.9,7.9,9.5,7.9,16.5v13.1C-106,994.3-118,1006.2-132.7,1006.2z
			 M-133.2,946.2c-7.2,0-13.1,1.8-17.3,5c-4.5,3.5-6.7,8.7-6.7,15.4v13.1c0,6.8,2.4,13.2,6.8,17.8c4.4,4.8,10.5,7.4,17.2,7.4h0.5
			c13.9,0,25.2-11.3,25.2-25.2v-13.1c0-6.5-2.5-11.8-7.3-15.4c-4.4-3.3-10.6-5.1-17.9-5.1L-133.2,946.2L-133.2,946.2z"/>
	</g>
	<g>
		<g>
			<ellipse class="st0" cx="-135.5" cy="984.4" rx="12.2" ry="8.4"/>
		</g>
	</g>
	<g>
		<g>
			<ellipse class="st0" cx="-151.6" cy="979.2" rx="1.9" ry="4.3"/>
		</g>
	</g>
	<g>
		<g>
			<ellipse class="st0" cx="-116" cy="979.2" rx="1.9" ry="4.3"/>
		</g>
	</g>
	<g>
		<g>
			<path class="st0" d="M-135.1,1002.4c-0.5,0-1-0.4-1-1c0-0.5,0.4-1,1-1c5.8,0,11.1-2.8,13.2-7c0.2-0.5,0.8-0.7,1.3-0.5
				s0.7,0.8,0.5,1.3C-122.6,999.2-128.5,1002.4-135.1,1002.4z"/>
		</g>
	</g>
	<g>
		<path class="st1" d="M-144.5,982.8c-0.2,0-0.5-0.1-0.6-0.3c-0.4-0.3-0.4-1,0-1.4c1.4-1.6,3.5-2.7,5.9-3.5c0.5-0.2,1,0.2,1.2,0.6
			c0.2,0.5-0.2,1-0.6,1.2c-2.1,0.6-3.9,1.6-5,2.9C-144,982.8-144.2,982.8-144.5,982.8z"/>
	</g>
	<g>
		<path class="st1" d="M-109.9,960.3c3.3-7.5,4.5-16.1,2.4-24s-7.9-15-15.7-17.7c-7.7-2.6-17.3-0.1-21.9,6.6
			c-1.8,2.7-2.9,6.3-1.4,9.2s5.1,4.1,8.4,4.5c4,0.4,8.2-0.1,12.2,0.3c4.1,0.3,8.3,1.7,10.8,4.9c2.1,2.7,2.6,6.3,2.2,9.6
			c-0.4,3.4-1.7,6.5-2.9,9.6"/>
	</g>
	<g>
		<g>
			<ellipse class="st0" cx="-132.7" cy="1010.9" rx="3.1" ry="4.5"/>
		</g>
	</g>
	<path class="st0" d="M-135.1,1022.5c0-0.5-0.3-0.8-0.8-0.8s-0.8,0.3-0.8,0.8v9.2v0.1c0.5,0,1,0.1,1.6,0.1c0-0.1,0-0.1,0-0.2V1022.5
		L-135.1,1022.5z"/>
</g>
<g class="st2">
	<path class="st0" d="M-727.7,774.7v4.5h-0.6v-0.8c-0.3,0.3-0.5,0.5-0.9,0.7c-0.3,0.1-0.7,0.2-1,0.2c-0.7,0-1.2-0.2-1.7-0.7
		s-0.7-1-0.7-1.7c0-0.6,0.2-1.2,0.7-1.7s1.1-0.7,1.7-0.7c0.4,0,0.7,0.1,1.1,0.2c0.3,0.2,0.6,0.4,0.8,0.7v-0.8L-727.7,774.7
		L-727.7,774.7z M-730.2,775.1c-0.3,0-0.6,0.1-0.9,0.2c-0.3,0.1-0.5,0.4-0.7,0.7c-0.2,0.3-0.3,0.6-0.3,0.9s0.1,0.6,0.3,0.9
		c0.2,0.3,0.4,0.5,0.7,0.7c0.3,0.2,0.6,0.2,0.9,0.2s0.6-0.1,0.9-0.2c0.3-0.2,0.5-0.4,0.7-0.6c0.2-0.3,0.2-0.6,0.2-0.9
		c0-0.5-0.2-0.9-0.5-1.3C-729.2,775.3-729.6,775.1-730.2,775.1z"/>
	<path class="st0" d="M-726.6,774.7h0.6v0.7c0.2-0.3,0.4-0.4,0.6-0.6c0.2-0.2,0.4-0.2,0.6-0.2s0.3,0.1,0.5,0.2l-0.3,0.5
		c-0.1-0.1-0.2-0.1-0.3-0.1c-0.2,0-0.4,0.1-0.6,0.2c-0.2,0.2-0.3,0.4-0.4,0.7s-0.1,0.8-0.1,1.5v1.5h-0.6V774.7L-726.6,774.7z"/>
	<path class="st0" d="M-723.2,773h0.6v1.7h1v0.5h-1v4h-0.6v-4h-0.8v-0.5h0.8V773z"/>
</g>
<path class="st0" d="M-849.7,770.6c0.5,2.3,1.7,4.2,3.6,5.6c1.8,1.4,3.9,2.1,6.2,2.1c2.8,0,5.2-1,7.1-2.9s2.8-4.3,2.8-7
	c0-2.4-0.7-4.5-2.1-6.2c-1.4-1.7-3.1-2.8-5.3-3.4l-5.3-1.4c-2.6-0.7-4.7-2.1-6.3-4.2s-2.4-4.5-2.4-7.2c0-3.3,1.2-6.1,3.5-8.4
	c2.3-2.3,5.1-3.5,8.4-3.5c2.1,0,4.1,0.5,5.9,1.6c1.8,1.1,3.3,2.5,4.3,4.3l-3.3,1.8c-1.5-2.6-3.8-4-7-4c-2.2,0-4.1,0.8-5.7,2.4
	c-1.6,1.6-2.4,3.5-2.4,5.6c0,1.9,0.6,3.5,1.7,5c1.1,1.5,2.6,2.4,4.2,2.8l5.3,1.4c3,0.8,5.4,2.4,7.3,4.9c1.9,2.5,2.8,5.2,2.8,8.3
	c0,3.8-1.3,7.1-4,9.7s-5.9,4-9.6,4c-3.1,0-5.9-1-8.4-2.9c-2.5-2-4.1-4.5-4.9-7.5L-849.7,770.6z"/>
<path class="st0" d="M-804.7,763.9c0-2.1-0.7-3.9-2.2-5.3c-1.4-1.4-3.2-2.1-5.2-2.1c-2.1,0-3.8,0.7-5.2,2.2
	c-1.4,1.4-2.2,3.2-2.2,5.2v17.6h-3.8v-46.6h3.8v20.6c2.1-1.9,4.6-2.8,7.4-2.8c3.1,0,5.8,1.1,7.9,3.2s3.2,4.8,3.2,7.9v17.6h-3.8
	v-17.5H-804.7L-804.7,763.9z"/>
<path class="st0" d="M-796.8,742.5h3.8v4.1h-3.8V742.5z M-796.8,753.5h3.8v28h-3.8V753.5z"/>
<g>
	<path class="st0" d="M-789,781.4v-28l3.2,2.6c2.1-2.2,4.8-3.3,7.9-3.3c3.1,0,5.8,1.1,7.9,3.2s3.2,4.8,3.2,7.9v17.6h-3.8v-17.5
		c0-2.1-0.7-3.9-2.2-5.3c-1.4-1.4-3.2-2.1-5.2-2.1c-2.1,0-3.8,0.7-5.2,2.2c-1.4,1.4-2.2,3.2-2.2,5.2v17.6L-789,781.4L-789,781.4
		L-789,781.4z"/>
</g>
<g>
	<path class="st0" d="M-738.5,772.6l2.4,1.8c-1.2,2.3-2.8,4.2-5.1,5.6s-4.9,2.2-7.7,2.2c-4,0-7.5-1.5-10.4-4.4
		c-2.9-2.9-4.4-6.4-4.4-10.4c0-4.1,1.5-7.6,4.4-10.5c2.9-2.9,6.4-4.3,10.4-4.3c2.6,0,5,0.6,7.2,1.9c2.3,1.3,4,2.9,5.2,4.9
		l-19.1,16.8c1.9,1.5,4.1,2.2,6.6,2.2c2.1,0,4-0.5,5.7-1.6C-741.4,775.9-739.5,774.4-738.5,772.6 M-758,773.6l16.3-14.5
		c-2.1-1.8-4.4-2.7-7.2-2.7c-3.1,0-5.7,1.1-7.8,3.2c-2.1,2.1-3.2,4.7-3.2,7.8C-759.9,769.7-759.2,771.8-758,773.6"/>
</g>
<g>
	<path class="st0" d="M-742.7,779.6c2.7-0.4,4.5-2.4,6.1-4.4c1.5-2,2.8-4.2,4.4-6.1c0.9-1.1,1.7-1.8,2.8-2.7c0.6-0.5,1.2-1,1.8-1.4
		c0.3-0.2,0.6-0.4,0.9-0.7c0.2-0.1,0.3-0.2,0.5-0.3c0.2-0.1,0.2-0.1,0.1,0c0.1-0.1,0.2-0.1,0.3-0.2c0.6-0.4,1.3-0.7,2-1
		c0.3-0.2,0.7-0.3,1-0.4c-0.4,0.2,0.2-0.1,0.2-0.1c0.2-0.1,0.5-0.1,0.7-0.2c0.4-0.1,0.7-0.2,1.1-0.3c0.2,0,0.4-0.1,0.5-0.1
		c-0.4,0.1,0.2,0,0.2,0c0.4,0,0.7-0.1,1.1-0.1c0.2,0,0.4,0,0.6,0c0.1,0,0.3,0,0.4,0c-0.2,0-0.1,0,0.1,0c0.6,0,1.2,0.1,1.7,0.2
		c0.3,0.1,0.7,0.1,1,0.2c0.1,0,0.2,0,0.3,0.1c0.5,0.1-0.3-0.1,0.2,0c1,0.3,2,0.6,3,0.9c2.3,0.7,4.6,1.5,6.9,2.1
		c4.8,1.2,10,1.1,14-2.2c0.6-0.5,1-1.4,0.2-2c-0.8-0.5-2-0.4-2.7,0.2c-0.3,0.2-0.6,0.5-0.9,0.7c-0.5,0.3,0.3-0.2-0.2,0.1
		c-0.2,0.1-0.3,0.2-0.5,0.2c-0.2,0.1-0.3,0.1-0.5,0.2c-0.1,0-0.6,0.2-0.2,0.1c-0.4,0.1-0.8,0.2-1.1,0.3c-0.2,0-0.3,0.1-0.5,0.1
		c0.5-0.1-0.1,0-0.2,0c-0.3,0-0.7,0.1-1,0.1c-0.2,0-0.3,0-0.5,0c0,0-0.6,0-0.2,0c-0.4,0-0.8,0-1.2-0.1c-3-0.3-5.5-1.2-8.4-2.2
		c-3-1-5.9-1.9-9.1-2c-3.3-0.1-6.6,1-9.4,2.6c-3.8,2.1-7.2,5.1-9.7,8.7c-1.1,1.6-2.2,3.2-3.4,4.8c-0.3,0.3-0.6,0.7-0.9,1
		c-0.1,0.1-0.3,0.3-0.4,0.4s-0.1,0.1,0,0c-0.1,0.1-0.2,0.2-0.3,0.3s-0.3,0.2-0.4,0.3c-0.1,0-0.1,0.1-0.2,0.1c-0.3,0.2,0.4-0.2,0,0
		c-0.1,0.1-0.7,0.3-0.1,0.1c-0.2,0.1-0.7,0.1-0.1,0c-0.8,0.1-1.9,0.6-2,1.6C-744.6,779.3-743.5,779.7-742.7,779.6"/>
</g>
<g>
	<path class="st0" d="M-682.5,769.4c0,0.8-0.6,1.5-1.5,1.5h-9.1c-0.8,0-1.5-0.6-1.5-1.5v-13.1c0-0.8,0.6-1.5,1.5-1.5h9.1
		c0.8,0,1.5,0.6,1.5,1.5V769.4z"/>
</g>
<g>
	<rect x="-592.5" y="963.5" class="st0" width="7.3" height="2.3"/>
</g>
<g>
	<path class="st0" d="M-585.1,965.9h-7.5v-2.6h7.5V965.9z M-592.3,965.7h7v-2.1h-7V965.7z"/>
</g>
<g>
	<rect x="-592.5" y="969.6" class="st0" width="7.3" height="2.3"/>
</g>
<g>
	<path class="st0" d="M-585.1,972.1h-7.5v-2.6h7.5V972.1z M-592.3,971.8h7v-2.1h-7V971.8z"/>
</g>
<g class="st2">
	<path class="st0" d="M-714.7,772.9v6.2h-0.6v-0.8c-0.3,0.3-0.5,0.5-0.9,0.7c-0.3,0.1-0.7,0.2-1,0.2c-0.7,0-1.2-0.2-1.7-0.7
		s-0.7-1-0.7-1.7c0-0.6,0.2-1.2,0.7-1.7s1.1-0.7,1.7-0.7c0.4,0,0.7,0.1,1.1,0.2c0.3,0.2,0.6,0.4,0.8,0.7v-2.5L-714.7,772.9
		L-714.7,772.9z M-717.1,775.1c-0.3,0-0.6,0.1-0.9,0.2c-0.3,0.1-0.5,0.4-0.7,0.7c-0.2,0.3-0.3,0.6-0.3,0.9s0.1,0.6,0.3,0.9
		c0.2,0.3,0.4,0.5,0.7,0.7c0.3,0.2,0.6,0.2,0.9,0.2c0.3,0,0.6-0.1,0.9-0.2c0.3-0.2,0.5-0.4,0.7-0.6c0.2-0.3,0.2-0.6,0.2-0.9
		c0-0.5-0.2-0.9-0.5-1.3C-716.2,775.3-716.6,775.1-717.1,775.1z"/>
	<path class="st0" d="M-709.4,777.6l0.5,0.3c-0.2,0.3-0.4,0.6-0.6,0.8c-0.2,0.2-0.5,0.3-0.7,0.4c-0.3,0.1-0.6,0.2-0.9,0.2
		c-0.8,0-1.4-0.2-1.8-0.7c-0.4-0.5-0.7-1-0.7-1.6c0-0.6,0.2-1.1,0.6-1.5c0.5-0.6,1.1-0.8,1.9-0.8c0.8,0,1.4,0.3,1.9,0.9
		c0.3,0.4,0.5,0.9,0.5,1.5h-4.2c0,0.5,0.2,0.9,0.5,1.3c0.3,0.3,0.8,0.5,1.3,0.5c0.2,0,0.5,0,0.7-0.1c0.2-0.1,0.4-0.2,0.6-0.3
		C-709.6,778.4-709.5,777.9-709.4,777.6z M-709.4,776.4c-0.1-0.3-0.2-0.6-0.4-0.7c-0.2-0.1-0.4-0.3-0.6-0.4
		c-0.3-0.1-0.5-0.2-0.8-0.2c-0.5,0-0.9,0.1-1.2,0.4c-0.2,0.2-0.4,0.5-0.6,0.9L-709.4,776.4L-709.4,776.4z"/>
	<path class="st0" d="M-705.2,775.1l-0.4,0.4c-0.3-0.3-0.6-0.4-1-0.4c-0.2,0-0.4,0.1-0.5,0.2c-0.1,0.1-0.2,0.3-0.2,0.4
		s0.1,0.3,0.2,0.4c0.1,0.1,0.4,0.3,0.7,0.5c0.5,0.2,0.8,0.4,0.9,0.6c0.2,0.2,0.2,0.4,0.2,0.7c0,0.4-0.1,0.7-0.4,0.9
		c-0.3,0.3-0.6,0.4-1,0.4c-0.3,0-0.5-0.1-0.8-0.2c-0.2-0.1-0.5-0.3-0.6-0.5l0.4-0.4c0.3,0.3,0.6,0.5,1,0.5c0.2,0,0.5-0.1,0.6-0.2
		c0.2-0.1,0.3-0.3,0.3-0.5c0-0.2-0.1-0.3-0.2-0.4s-0.4-0.3-0.8-0.5s-0.7-0.4-0.9-0.6c-0.2-0.2-0.2-0.4-0.2-0.7
		c0-0.3,0.1-0.6,0.4-0.8c0.3-0.2,0.6-0.3,0.9-0.3C-706.1,774.5-705.6,774.7-705.2,775.1z"/>
	<path class="st0" d="M-703.9,772.8c0.1,0,0.3,0,0.4,0.1c0.1,0.1,0.1,0.2,0.1,0.3c0,0.1,0,0.2-0.1,0.3s-0.2,0.1-0.4,0.1
		c-0.1,0-0.3,0-0.3-0.1c-0.1-0.1-0.1-0.2-0.1-0.3s0-0.2,0.1-0.3C-704.1,772.9-704,772.8-703.9,772.8z M-704.2,774.7h0.6v4.5h-0.6
		V774.7z"/>
	<path class="st0" d="M-698.3,774.7h0.6v3.6c0,0.6-0.1,1.1-0.2,1.4c-0.2,0.4-0.4,0.7-0.8,0.9c-0.4,0.2-0.9,0.3-1.4,0.3
		c-0.4,0-0.8-0.1-1.1-0.2c-0.3-0.1-0.6-0.3-0.8-0.4c-0.2-0.2-0.4-0.4-0.6-0.8h0.7c0.2,0.3,0.4,0.5,0.7,0.7c0.3,0.1,0.6,0.2,1.1,0.2
		c0.4,0,0.8-0.1,1-0.2c0.2-0.1,0.5-0.3,0.6-0.6c0.1-0.2,0.2-0.6,0.2-1.1v-0.2c-0.2,0.3-0.5,0.5-0.8,0.6c-0.3,0.1-0.7,0.2-1.1,0.2
		c-0.4,0-0.8-0.1-1.2-0.3c-0.4-0.2-0.7-0.5-0.9-0.8c-0.2-0.3-0.3-0.7-0.3-1.1s0.1-0.8,0.3-1.2s0.5-0.6,0.9-0.8
		c0.4-0.2,0.8-0.3,1.2-0.3s0.7,0.1,1,0.2c0.3,0.1,0.6,0.4,0.9,0.7L-698.3,774.7L-698.3,774.7z M-700.1,775.1c-0.3,0-0.7,0.1-1,0.2
		c-0.3,0.2-0.5,0.4-0.7,0.7c-0.2,0.3-0.3,0.6-0.3,0.9c0,0.5,0.2,0.9,0.5,1.2c0.3,0.3,0.8,0.5,1.3,0.5c0.6,0,1-0.2,1.3-0.5
		c0.3-0.3,0.5-0.7,0.5-1.3c0-0.3-0.1-0.6-0.2-0.9c-0.2-0.3-0.4-0.5-0.7-0.6C-699.7,775.2-699.7,775.1-700.1,775.1z"/>
	<path class="st0" d="M-696.4,774.7h0.6v0.8c0.2-0.3,0.5-0.5,0.8-0.7s0.6-0.2,1-0.2s0.7,0.1,0.9,0.3c0.2,0.2,0.5,0.4,0.6,0.7
		s0.2,0.7,0.2,1.3v2.3h-0.6v-2.1c0-0.5,0-0.9-0.1-1c-0.1-0.3-0.2-0.5-0.4-0.7c-0.2-0.2-0.5-0.2-0.8-0.2c-0.4,0-0.7,0.1-1,0.3
		c-0.3,0.2-0.5,0.5-0.6,0.9c-0.1,0.2-0.1,0.6-0.1,1.2v1.6h-0.6L-696.4,774.7L-696.4,774.7z"/>
	<path class="st0" d="M-688.6,775.1l-0.4,0.4c-0.3-0.3-0.6-0.4-1-0.4c-0.2,0-0.4,0.1-0.5,0.2c-0.1,0.1-0.2,0.3-0.2,0.4
		s0.1,0.3,0.2,0.4c0.1,0.1,0.4,0.3,0.7,0.5c0.5,0.2,0.8,0.4,0.9,0.6c0.2,0.2,0.2,0.4,0.2,0.7c0,0.4-0.1,0.7-0.4,0.9
		c-0.3,0.3-0.6,0.4-1,0.4c-0.3,0-0.5-0.1-0.8-0.2c-0.2-0.1-0.5-0.3-0.6-0.5l0.4-0.4c0.3,0.3,0.6,0.5,1,0.5c0.2,0,0.5-0.1,0.6-0.2
		c0.2-0.1,0.3-0.3,0.3-0.5c0-0.2-0.1-0.3-0.2-0.4c-0.1-0.1-0.4-0.3-0.8-0.5c-0.4-0.2-0.7-0.4-0.9-0.6c-0.2-0.2-0.2-0.4-0.2-0.7
		c0-0.3,0.1-0.6,0.4-0.8c0.3-0.2,0.6-0.3,0.9-0.3C-689.4,774.5-689,774.7-688.6,775.1z"/>
</g>
<g id="x8hMnl.tif">
	<g>
		<path class="st0" d="M-260.6,507.7c-0.6,1.7-1.2,3.4-1.9,5.2c-1,2.6-2,5.2-2.9,7.9c0.4-0.5,0.8-1.1,1.2-1.6c1.1-1.3,2.2-2.6,4-2.9
			c1.7-0.3,2.8,0.6,2.9,2.4c0,1.6-0.7,3-1.6,4.2c-1.6,2.2-3.5,4.1-6.3,4.8c-2.2,0.5-3.5-0.7-3.1-2.9c0.3-1.5,0.7-3,1.2-4.5
			c1.1-3,2.2-6,3.3-8.9c0.6-1.7,0.6-1.7-0.4-3.1c0.9-0.2,1.7-0.4,2.5-0.6C-261.3,507.7-260.9,507.7-260.6,507.7z M-266.5,525.8
			c0.1,0.2,0.3,0.9,0.6,1.1c0.3,0.2,1-0.1,1.4-0.3s0.8-0.5,1.1-0.9c1.8-1.8,3.1-3.9,4-6.3c0.1-0.4,0.3-0.8,0.3-1.2
			c0.1-0.9-0.5-1.3-1.3-1.1c-0.4,0.1-0.8,0.3-1.1,0.6c-1.2,1.2-2.4,2.4-3.5,3.7C-265.8,522.6-266.4,524-266.5,525.8z"/>
		<path class="st0" d="M-222.5,507.7c0,0.3,0,0.7-0.1,1c-1.2,3.6-2.5,7.2-3.7,10.8c0,0.1-0.1,0.3-0.1,0.4c0.9-0.9,1.7-1.8,2.7-2.5
			c0.8-0.6,1.9-0.9,2.9-1.2c0.7-0.2,1.6,0,2,0.8c0.4,0.8,0.1,1.5-0.4,2.1c-1.1,1.3-2.5,2.3-4.2,2.8c-0.3,0.1-0.5,0.2-0.9,0.3
			c0.3,1.4,0.7,2.6,1.6,3.7c0.1,0.2,0.8,0.2,1,0c0.5-0.2,0.8-0.7,1.3-1.1c0,0.2,0.1,0.4,0.1,0.5c-0.6,0.8-1.2,1.6-2,2.2
			c-0.7,0.6-1.3,0.4-1.8-0.4c-0.6-1.1-1-2.2-1.5-3.3c-0.2-0.4-0.6-1-0.9-0.9c-0.4,0.1-0.9,0.5-1.1,0.9c-0.5,1-0.9,2.1-1.3,3.1
			c-0.2,0.5-0.3,1.2-1.1,0.9c-0.9-0.3-0.3-0.9-0.2-1.3c1.6-5,3.3-10.1,5-15.1c0-0.1,0.1-0.2,0.1-0.2c0.4-1.4,0.4-1.4-0.9-2.4
			C-224.7,508.4-223.6,508.1-222.5,507.7C-222.6,507.7-222.5,507.7-222.5,507.7z M-227,522.1c0.1,0.1,0.1,0.2,0.2,0.2
			c2.3-0.6,4.4-1.4,5.8-3.5c0-0.1,0.1-0.2,0.1-0.2c0.3-0.7-0.1-1.3-0.9-1.2c-0.4,0.1-0.8,0.2-1.2,0.4c-1.5,0.9-2.8,2.1-3.7,3.6
			C-226.8,521.6-226.9,521.9-227,522.1z"/>
		<path class="st0" d="M-230.2,557.2c0-2,0-3.9,0-5.9c34.7,0,69.4,0,104.1,0c0,1.9,0,3.9,0,5.9
			C-160.7,557.2-195.4,557.2-230.2,557.2z"/>
		<path class="st0" d="M-159.4,536.8c-0.6,4.2-1.1,8.5-1.7,12.8c-1,0-2,0-3.2,0c-0.6-4.1-1.2-8.3-1.8-12.4h-0.1c0,4.1,0,8.3,0,12.4
			c-1.5,0-3,0-4.5,0c0-6.6,0-13.2,0-19.9c2.2,0,4.4,0,6.7,0c0.4,3,0.9,5.9,1.3,8.9h0.1c0.4-3,0.8-5.9,1.1-8.9c2.2,0,4.4,0,6.7,0
			c0,6.6,0,13.2,0,19.9c-1.5,0-2.9,0-4.4,0c0-4.3,0-8.6,0-12.8C-159.3,536.8-159.3,536.8-159.4,536.8z"/>
		<path class="st0" d="M-136.2,533.3c-0.1,0.6-0.1,1.2-0.2,1.7c0.8-1.1,1.6-2,2.7-2.1c0.5,0.3,0.8,0.5,1.2,0.9c0-1.1,0-1.9,0-2.8
			c1.7,0,3.3,0,5,0c0,0.8,0,1.6,0,2.5c0.5,0,0.9,0.1,1.3,0.1c0,0.8,0,1.6,0,2.5c-0.4,0-0.8,0.1-1.3,0.1c0,0.9,0,1.9,0,2.8
			c0,2.1,0,4.2,0,6.3c0,1.5,0,1.5,1.5,1.8c0,0.8,0,1.6,0,2.6c-1.5-0.1-3.1-0.1-4.6-0.3c-1.2-0.2-1.8-1.2-1.8-2.5c0-3.2,0-6.4,0-9.7
			c0-0.3,0-0.6,0-1c-0.3,0-0.5,0-0.8,0c0,0.8,0,1.6,0,2.3c-0.1,0.1-0.1,0.1-0.2,0.1c-2.4,0.3-2.7,0.7-2.8,3.1c0,2.6,0,5.2,0,7.8
			c-1.7,0-3.3,0-4.9,0c0-5.4,0-10.8,0-16.2C-139.5,533.3-137.9,533.3-136.2,533.3z"/>
		<path class="st0" d="M-225.2,549.6c-1.7,0-3.3,0-4.9,0c0-0.3,0-0.6,0-1c0-3.7,0-7.4,0-11.1c0-0.3,0-0.5,0-0.8
			c0-0.5-0.1-0.9-0.7-0.9c-0.6,0-0.8,0.4-0.8,0.9c0,0.7-0.1,1.4-0.1,2.2c0,3.5,0,7.1,0,10.7c-1.6,0-3.2,0-4.9,0c0-5.4,0-10.8,0-16.2
			c1.6,0,3.2,0,5,0c0,0.4,0,0.8-0.1,1.1c0.6-0.4,1.2-1,2-1.3c2.5-0.8,4.4,0.6,4.5,3.3c0.1,3.8,0,7.6,0,11.5
			C-225.2,548.4-225.2,549-225.2,549.6z"/>
		<path class="st0" d="M-252.8,533.3c1.7,0,3.3,0,4.9,0c0,5.4,0,10.8,0,16.3c-1.6,0-3.3,0-4.9,0c0-0.4,0-0.7,0-1.3
			c-1,1.4-2.2,1.7-3.6,1.6c-1.6-0.2-2.7-1.1-2.7-2.7c-0.1-4.6,0-9.2,0-13.8c1.6,0,3.1,0,4.8,0c0,0.3,0,0.6,0,0.9c0,3.4,0,6.8,0,10.2
			c0,0.7,0,1.4,0.1,2.1c0,0.2,0.4,0.6,0.7,0.6c0.2,0,0.6-0.3,0.7-0.6c0.1-0.6,0.1-1.1,0.1-1.7c0-3.5,0-7,0-10.5
			C-252.8,533.9-252.8,533.6-252.8,533.3z"/>
		<path class="st0" d="M-208.4,533.3c1.7,0,3.2,0,4.9,0c0,0.3,0,0.6,0,0.9c0,3.8,0,7.5,0,11.3c0,0.3-0.1,0.6,0,0.8
			c0.2,0.3,0.5,0.6,0.7,0.6s0.6-0.3,0.6-0.6c0.1-0.6,0.1-1.3,0.1-2c0-3.4,0-6.8,0-10.3c0-0.3,0-0.6,0-0.9c1.7,0,3.3,0,4.9,0
			c0,5.4,0,10.8,0,16.3c-1.7,0-3.3,0-5,0c0-0.4,0-0.8,0.1-1.4c-1,1.5-2.3,1.8-3.8,1.6c-1.4-0.2-2.3-0.9-2.6-2.3
			c-0.1-0.4-0.2-0.9-0.2-1.3c0-4.2,0-8.4,0-12.6C-208.5,533.6-208.4,533.5-208.4,533.3z"/>
		<path class="st0" d="M-153.6,539.6c0.1-1.1,0.1-2.1,0.3-3.1c0.3-1.7,1.5-2.6,3-3.1c1.7-0.6,3.5-0.5,5.2,0c1.5,0.5,2.6,1.5,2.6,3.2
			c0.1,2.1,0.2,4.2,0.2,6.3c0,2.2,0,4.5,0,6.8c-1.6,0-3.2,0-4.8,0c0-0.4,0-0.8,0-1.2c-1.6,1.6-3.1,2-4.8,1.1
			c-0.9-0.4-1.4-1.1-1.5-2.1c-0.1-1.3-0.1-2.6,0-3.9c0-0.9,0.5-1.6,1.3-2c1.2-0.5,2.3-1.1,3.5-1.5c1.1-0.4,1.4-1.1,1.3-2.1
			c0-0.4,0-0.9-0.2-1.3c-0.1-0.3-0.5-0.6-0.8-0.7c-0.1,0-0.6,0.4-0.6,0.7c-0.1,1,0,1.9,0,2.9c-0.3,0-0.5,0.1-0.7,0.1
			C-150.9,539.6-152.2,539.6-153.6,539.6z M-147.3,541.9c-1.8,1.1-1.7,2.7-1.5,4.4c0,0.3,0.5,0.5,0.8,0.8c0.2-0.3,0.6-0.5,0.7-0.8
			C-147.3,544.8-147.3,543.4-147.3,541.9z"/>
		<path class="st0" d="M-181,541.7c0,1.5,0,2.9,0,4.3c0,0.4,0.4,0.9,0.7,1c0.6,0.2,0.9-0.4,1-0.9c0-1.1,0-2.1,0-3.2
			c1.6,0,3.1,0,4.8,0c-0.1,1.3-0.1,2.6-0.4,3.8c-0.4,1.6-1.6,2.7-3.2,3c-1.7,0.4-3.4,0.3-5.1-0.3c-1.4-0.6-2.5-1.7-2.6-3.2
			c-0.2-2.8-0.3-5.7-0.1-8.5c0.2-3,1.7-4.4,4.8-4.6c1.1-0.1,2.2,0.1,3.2,0.4c2,0.6,3,2.2,3.2,4.2c0.1,1.3,0,2.7,0,4.1
			C-176.8,541.7-178.9,541.7-181,541.7z M-179.6,539.1c0-0.9,0-1.8,0-2.6c0-0.2-0.4-0.7-0.6-0.6c-0.3,0.1-0.7,0.4-0.7,0.6
			c-0.1,0.8,0,1.7,0,2.6C-180.5,539.1-180.1,539.1-179.6,539.1z"/>
		<path class="st0" d="M-269.2,529.7c2.9,0,5.8,0,8.7,0c0,1.3,0,2.5,0,3.9c-1.1,0-2.3,0-3.5,0c0,1.3,0,2.5,0,3.8c1,0,2,0,3.1,0
			c0,1.3,0,2.5,0,3.8c-1,0-2,0-3.1,0c0,2.8,0,5.6,0,8.4c-1.7,0-3.4,0-5.1,0C-269.2,542.9-269.2,536.3-269.2,529.7z"/>
		<path class="st0" d="M-217,536.2c0-0.8,0-1.6,0-2.5c0.3,0,0.6,0,1-0.1c0-0.8,0-1.6,0-2.5c1.7,0,3.3,0,5,0c0,0.8,0,1.6,0,2.5
			c0.5,0,0.8,0,1.3,0.1c0,0.8,0,1.6,0,2.5c-0.4,0-0.8,0-1.2,0.1c0,0.2-0.1,0.3-0.1,0.5c0,2.8,0,5.7,0,8.5c0,1.5,0,1.5,1.5,1.8
			c0,0.8,0,1.6,0,2.6c-1.5-0.1-3-0.1-4.5-0.3c-1.1-0.1-1.9-1.1-1.9-2.3c-0.1-3.3-0.1-6.7-0.1-10c0-0.3,0-0.6,0-0.9
			C-216.3,536.2-216.6,536.2-217,536.2z"/>
		<path class="st0" d="M-238,538.6c-0.1,0-0.1,0.1-0.2,0.1c-2.7,0.2-2.7,1.2-2.7,3.1c0,2.3,0,4.6,0,6.9c0,0.3,0,0.6,0,0.9
			c-1.7,0-3.3,0-4.9,0c0-5.4,0-10.8,0-16.3c1.6,0,3.2,0,4.9,0c-0.1,0.6-0.1,1.2-0.2,1.8c0.8-1.1,1.6-2,3.1-2.1
			C-238,534.9-238,536.7-238,538.6z"/>
		<path class="st0" d="M-190.1,549.6c-1.7,0-3.2,0-4.8,0c0-5.4,0-10.8,0-16.3c1.6,0,3.2,0,4.8,0c0,0.6-0.1,1.2-0.1,2
			c0.8-1.3,1.6-2.2,3.1-2.4c0,1.9,0,3.7,0,5.7c-0.2,0-0.5,0.1-0.8,0.1c-1.4,0.2-2,0.8-2,2.1c0,2.6-0.1,5.2-0.1,7.8
			C-190.1,549-190.1,549.3-190.1,549.6z"/>
		<path class="st0" d="M-287.6,511.5c-0.6,1.9-1.2,3.8-1.7,5.7c-0.8,2.6-1.5,5.3-2.2,8c-0.3,1.3-0.2,1.5,1.2,1.7
			c0.3,0,0.5,0.2,0.7,0.4c-0.3,0.1-0.5,0.3-0.8,0.3c-1.6,0-3.3,0-4.9,0c-0.2,0-0.4-0.2-0.7-0.3c0.2-0.1,0.4-0.3,0.6-0.3
			c1.2-0.1,1.9-0.6,2.3-1.8c1.2-3.8,2.4-7.6,3.6-11.4c0.3-0.8,0.5-1.7,0.7-2.5c0.3-0.8,0-1.1-0.8-1.3c-0.2,0-0.5,0-0.7-0.1
			c-0.2-0.1-0.3-0.2-0.4-0.4c0.2-0.1,0.3-0.3,0.5-0.3c1.4,0,2.8,0,3.9,0c2,4.9,3.9,9.7,5.8,14.5c0.1,0,0.2,0,0.3,0
			c0.1-0.2,0.3-0.4,0.3-0.6c1.1-3.7,2.2-7.4,3.3-11c0.1-0.3,0.1-0.6,0.2-0.8c0.2-0.8-0.1-1.2-0.9-1.2c-0.1,0-0.3,0-0.4-0.1
			c-0.2-0.1-0.3-0.3-0.5-0.4c0.2-0.1,0.3-0.3,0.5-0.3c1.8,0,3.6,0,5.6,0.2c-0.2,0.2-0.3,0.5-0.5,0.5c-1.7,0-2.3,1.1-2.7,2.4
			c-1.6,5-3.2,9.9-4.9,14.9c0,0.1-0.1,0.3-0.1,0.4c-0.1,0.2-0.3,0.3-0.4,0.5c-0.1-0.1-0.4-0.3-0.4-0.4c-1.9-4.8-3.8-9.6-5.7-14.4
			c-0.2-0.6-0.5-1.2-0.7-1.7C-287.4,511.5-287.5,511.5-287.6,511.5z"/>
		<path class="st0" d="M-223.3,533.3c1.7,0,3.3,0,5,0c0,5.4,0,10.8,0,16.3c-1.6,0-3.3,0-5,0C-223.3,544.2-223.3,538.8-223.3,533.3z"
			/>
		<path class="st0" d="M-239.7,517.2c0.4-0.6,0.7-1.2,1.2-1.7c0.1-0.1,0.7,0.2,1,0.3c-1.1,2.7-2.1,5.3-3.1,8
			c-0.2,0.6-0.5,1.2-0.7,1.9c-0.1,0.2-0.1,0.5,0,0.5c0.2,0.1,0.5,0.1,0.6,0c0.6-0.3,1.2-0.7,1.7-1.1c0.3-0.2,0.5-0.4,0.9-0.8
			c0,0.4,0.1,0.6,0,0.7c-1,1.3-2.2,2.4-3.9,2.8c-1.1,0.3-1.6-0.2-1.2-1.3c0.3-1,0.7-1.9,1-2.8c-0.1-0.1-0.1-0.1-0.2-0.2
			c-0.1,0.1-0.1,0.3-0.3,0.4c-1.4,1.5-2.8,2.9-4.7,3.6c-0.5,0.2-1.3,0.2-1.6,0c-0.4-0.4-0.7-1.2-0.5-1.7c1.1-3.9,3.2-7.1,7-9
			C-241.5,516.6-240.5,516.3-239.7,517.2z M-247.2,525.7c0.1,0.2,0.1,0.6,0.3,0.7c0.2,0.1,0.6,0,0.9-0.1c2.7-1.7,4.6-4.1,5.6-7.1
			c0.2-0.6-0.1-1.3-0.8-1.4c-0.5-0.1-1.1,0-1.5,0.3C-245.3,519.9-246.5,522.6-247.2,525.7z"/>
		<path class="st0" d="M-208.3,524.6c-0.1,0.2-0.1,0.4-0.2,0.5c-1,1.2-2.1,2.3-3.7,2.7c-0.4,0.1-1,0.1-1.3-0.1
			c-0.2-0.2-0.2-0.8-0.1-1.2c0.3-0.9,0.6-1.8,0.9-2.7c-0.6,0.5-1.2,1.2-1.8,1.7c-1.2,0.8-2.3,1.7-3.6,2.3c-1.1,0.5-1.9-0.1-1.9-1.4
			c0-0.4,0.1-0.9,0.3-1.3c0.9-2.7,2.5-5,4.7-6.9c0.7-0.6,1.6-1,2.5-1.4c0.8-0.3,1.7-0.4,2.3,0.4c0.4-0.6,0.7-1.2,1.1-1.7
			c0.1-0.1,0.7,0.2,1.1,0.3c-0.8,2.1-1.6,4.1-2.4,6.1c-0.5,1.2-0.9,2.4-1.3,3.6c-0.1,0.2,0,0.5,0,0.7c0.2,0,0.5,0,0.7-0.1
			c0.6-0.3,1.1-0.7,1.6-1.1c0.3-0.2,0.5-0.4,0.8-0.6C-208.4,524.5-208.4,524.5-208.3,524.6z M-217.6,525.4c0,1.1,0.3,1.3,1.1,0.8
			c2.7-1.7,4.6-4.1,5.7-7.1c0.2-0.7-0.2-1.1-0.7-1.3c-0.5-0.1-1.2-0.1-1.6,0.2C-215.8,519.9-217,522.6-217.6,525.4z"/>
		<path class="st0" d="M-274.6,527.9c-1.3,0-2.2-0.6-2.3-1.7c-0.1-1-0.1-2.1,0.2-3c0.7-2.7,2.3-4.7,4.7-6.1c0.6-0.4,1.3-0.5,2-0.7
			c0.7-0.2,1.3,0,1.8,0.6c0.5,0.6,0.5,1.4,0.1,1.9c-0.5,0.7-1,1.4-1.7,1.7c-1.3,0.7-2.8,1.2-4.2,1.8c-0.3,0.1-0.7,0.5-0.7,0.8
			c-0.2,0.6-0.2,1.3-0.2,2c0,1.2,1,1.8,2,1.4c0.7-0.3,1.3-0.8,2-1.2c0.1-0.1,0.3-0.1,0.5-0.1c0,0.2,0,0.4-0.1,0.5
			C-271.7,526.9-273,527.8-274.6,527.9z M-274.5,521.4c0.1,0.1,0.1,0.1,0.2,0.2c1.7-0.5,3.2-1.3,4.2-2.8c0.3-0.4,0.8-1,0.2-1.5
			c-0.5-0.5-1.1-0.1-1.5,0.2c-0.4,0.2-0.8,0.5-1,0.9C-273.1,519.4-273.8,520.4-274.5,521.4z"/>
		<path class="st0" d="M-253.4,522.3c0.7-1.2,1.4-2.5,2.2-3.6c0.5-0.7,1-1.4,1.6-2c0.4-0.4,1.1-0.8,1.6-0.3c0.3,0.4,0.4,1,0.5,1.6
			c0,0.2-0.1,0.5-0.2,0.7c-0.2,0.3-0.5,0.5-0.8,0.7c-0.1-0.3-0.3-0.5-0.4-0.8c-0.3-0.8-0.7-1-1.2-0.3c-0.9,1.3-1.8,2.6-2.6,4
			c-0.8,1.5-1.6,3.1-2.3,4.7c-0.2,0.5-0.5,0.8-1.1,0.6c-0.7-0.3-0.4-0.7-0.2-1.1c0.9-2.6,1.7-5.2,2.5-7.8c0.1-0.3,0-0.6,0-1
			c-0.4,0.1-0.8,0.1-1.1,0.3c-0.4,0.2-0.6,0.6-0.9,0.9c-0.1,0.1-0.2,0.1-0.4,0.1c0-0.1-0.1-0.3-0.1-0.4c0.7-1.1,1.3-2.1,2.6-2.5
			c1-0.3,1.6,0.1,1.4,1.1c-0.2,1.2-0.6,2.3-1,3.5c-0.1,0.5-0.3,0.9-0.5,1.3C-253.5,522.3-253.5,522.3-253.4,522.3z"/>
		<path class="st0" d="M-236.1,527.9c-1.1,0-1.9-0.8-1.7-1.7c0.2-0.8,0.7-1,1.3-0.5c0.2,0.2,0.4,0.4,0.7,0.5
			c0.6,0.3,1.1,0.6,1.7,0.1c0.6-0.5,0.8-1.2,0.5-1.9c-0.2-0.5-0.5-1-0.7-1.6c-0.2-0.4-0.4-0.7-0.6-1.1c-1.2-2.4,0.2-5.1,2.8-5.6
			c1.1-0.2,2.1,0.7,1.9,1.7c-0.1,0.6-0.5,0.8-1,0.4c-0.3-0.2-0.6-0.6-0.9-0.7c-0.5-0.1-1.1-0.1-1.4,0.1c-0.3,0.2-0.4,0.9-0.4,1.4
			s0.3,1,0.6,1.4c0.2,0.5,0.5,0.9,0.8,1.4C-230.8,525.1-233.5,527.9-236.1,527.9z"/>
		<path class="st0" d="M-223.3,532.1c0-0.8,0-1.6,0-2.5c1.7,0,3.3,0,5,0c0,0.8,0,1.6,0,2.5C-219.9,532.1-221.5,532.1-223.3,532.1z"
			/>
		<path class="st0" d="M-269.1,552.9c1.2,0,2.3,0,3.4,0c0,1.1,0,2.2,0,3.4c-1.1,0-2.2,0-3.4,0C-269.1,555.2-269.1,554.1-269.1,552.9
			z"/>
		<path class="st0" d="M-238.4,552.9c1.1,0,2.3,0,3.4,0c0,1.1,0,2.2,0,3.4c-1.1,0-2.3,0-3.4,0C-238.4,555.2-238.4,554.1-238.4,552.9
			z"/>
		<path class="st0" d="M-258.9,556.3c0-1.2,0-2.2,0-3.4c1.1,0,2.3,0,3.4,0c0,1.1,0,2.2,0,3.4C-256.6,556.3-257.7,556.3-258.9,556.3z
			"/>
		<path class="st0" d="M-248.6,556.3c0-1.1,0-2.3,0-3.4c1.1,0,2.2,0,3.4,0c0,1.1,0,2.2,0,3.4C-246.3,556.3-247.4,556.3-248.6,556.3z
			"/>
		<path class="st0" d="M-125.2,533.1c-0.9,0-1.5-0.7-1.5-1.6c0-0.8,0.7-1.6,1.5-1.6c0.8,0,1.6,0.8,1.5,1.6
			C-123.7,532.5-124.3,533.1-125.2,533.1z M-123.9,531.6c0-0.8-0.5-1.4-1.3-1.3c-0.7,0-1.3,0.6-1.3,1.4c0,0.7,0.6,1.3,1.2,1.3
			C-124.5,532.9-123.9,532.3-123.9,531.6z"/>
		<path class="st0" d="M-125.7,530.7c0.6,0,1.4-0.2,0.9,0.9c-0.1,0.2,0.1,0.5,0.2,0.9c-0.3-0.4-0.5-0.7-0.8-1
			c-0.1,0.4-0.2,0.7-0.2,0.9h-0.1C-125.7,531.9-125.7,531.3-125.7,530.7z"/>
	</g>
</g>
</svg>
