<?xml version="1.0" encoding="utf-8"?>
<!-- Generator: Adobe Illustrator 19.1.0, SVG Export Plug-In . SVG Version: 6.00 Build 0)  -->
<svg version="1.1" id="Layer_1" xmlns="http://www.w3.org/2000/svg" xmlns:xlink="http://www.w3.org/1999/xlink" x="0px" y="0px"
	 viewBox="-212 304.5 185.5 185.5" style="enable-background:new -212 304.5 185.5 185.5;" xml:space="preserve">
<style type="text/css">
	.st0{fill:#D1D3D4;}
	.st1{fill:#FFFFFF;}
	.st2{enable-background:new    ;}
</style>
<g>
	<g>
		<g>
			<g>
				<g>
					<path class="st0" d="M120.2,637.1c0,1.7-0.6,3.1-1.8,4.3c-1.1,1.1-2.6,1.8-4.5,1.8c-1.8,0-3.3-0.6-4.5-1.8
						c-1.1-1.1-1.8-2.6-1.8-4.3c0-1.7,0.6-3.1,1.8-4.3c1.1-1.1,2.6-1.8,4.5-1.8c1.8,0,3.3,0.6,4.5,1.8
						C119.6,634,120.2,635.5,120.2,637.1z M111,637.1c0,1,0.3,1.8,0.8,2.4s1.3,0.9,2.1,0.9c0.8,0,1.6-0.3,2.1-0.9s0.8-1.4,0.8-2.4
						s-0.3-1.8-0.8-2.4s-1.3-0.9-2.1-0.9c-0.8,0-1.6,0.3-2.1,0.9C111.3,635.4,111,636.2,111,637.1z"/>
				</g>
			</g>
			<g>
				<g>
					<path class="st0" d="M133.4,636.7v6.3h-3.3v-6.4c0-0.9-0.1-1.6-0.4-2.1c-0.3-0.4-0.7-0.6-1.4-0.6c-0.6,0-1.2,0.2-1.7,0.7
						s-0.7,1.1-0.7,2.1v6.3h-3.3v-11.8h3.3v1.3c0.9-1,1.9-1.5,3.1-1.5c0.7,0,1.4,0.2,2,0.6c0.6,0.4,1.1,1,1.4,1.6
						c0.4-0.7,1.1-1.3,1.8-1.7c0.8-0.4,1.5-0.6,2.3-0.6c1.4,0,2.5,0.4,3.3,1.2c0.8,0.8,1.3,2,1.3,3.5v7.1h-3.3v-6.2
						c0-1.8-0.7-2.7-2-2.7c-0.6,0-1.2,0.2-1.7,0.7C133.6,635.1,133.4,635.8,133.4,636.7z"/>
				</g>
			</g>
			<g>
				<g>
					<path class="st0" d="M154.1,643H151v-1.4c-0.8,1.1-1.9,1.6-3.1,1.6c-1.3,0-2.3-0.4-3.1-1.1c-0.8-0.7-1.3-1.7-1.3-2.9
						s0.4-2.1,1.3-2.7s2.1-0.9,3.6-0.9h2.5v-0.1c0-1.3-0.7-1.9-2-1.9c-0.6,0-1.1,0.1-1.8,0.3c-0.6,0.2-1.1,0.5-1.6,0.8l-1.5-2.1
						c1.6-1.1,3.3-1.7,5.3-1.7c1.4,0,2.6,0.4,3.5,1.1c0.9,0.7,1.4,1.8,1.4,3.4L154.1,643L154.1,643L154.1,643z M150.7,638.5v-0.6
						h-2.1c-1.3,0-2,0.4-2,1.2c0,0.4,0.2,0.7,0.5,1c0.3,0.2,0.8,0.3,1.4,0.3s1.1-0.2,1.6-0.5C150.5,639.6,150.7,639.2,150.7,638.5z"
						/>
				</g>
			</g>
			<g>
				<g>
					<path class="st0" d="M160.3,636.7v6.3H157v-16.2h3.3v5.7c1-1,2.1-1.5,3.3-1.5s2.3,0.4,3.1,1.3c0.8,0.9,1.3,2,1.3,3.5v7.1h-3.3
						v-6.4c0-1.8-0.7-2.7-2-2.7c-0.6,0-1.2,0.2-1.7,0.7C160.5,635.1,160.3,635.8,160.3,636.7z"/>
				</g>
			</g>
			<g>
				<g>
					<path class="st0" d="M181,643h-3.1v-1.4c-0.8,1.1-1.9,1.6-3.1,1.6c-1.3,0-2.3-0.4-3.1-1.1c-0.8-0.7-1.3-1.7-1.3-2.9
						s0.4-2.1,1.3-2.7s2.1-0.9,3.6-0.9h2.5v-0.1c0-1.3-0.7-1.9-2-1.9c-0.6,0-1.1,0.1-1.8,0.3c-0.6,0.2-1.1,0.5-1.6,0.8l-1.5-2.1
						c1.6-1.1,3.3-1.7,5.3-1.7c1.4,0,2.6,0.4,3.5,1.1c0.9,0.7,1.4,1.8,1.4,3.4L181,643L181,643L181,643z M177.6,638.5v-0.6h-2.1
						c-1.3,0-2,0.4-2,1.2c0,0.4,0.2,0.7,0.5,1c0.3,0.2,0.8,0.3,1.4,0.3s1.1-0.2,1.6-0.5C177.4,639.6,177.6,639.2,177.6,638.5z"/>
				</g>
			</g>
			<g>
				<g>
					<path class="st0" d="M184.2,642.7c-0.4-0.4-0.5-0.8-0.5-1.4c0-0.5,0.2-1,0.5-1.4c0.4-0.4,0.8-0.5,1.4-0.5c0.5,0,1,0.2,1.4,0.5
						c0.4,0.4,0.5,0.8,0.5,1.4c0,0.5-0.2,1-0.5,1.4c-0.4,0.4-0.8,0.5-1.4,0.5S184.5,643,184.2,642.7z"/>
				</g>
			</g>
			<g>
				<g>
					<path class="st0" d="M195,643.6c-1.5,0-2.8-0.6-4-1.9s-1.8-2.8-1.8-4.6c0-1.8,0.6-3.3,1.7-4.5c1.1-1.2,2.5-1.8,4-1.8
						c1.2,0,2.3,0.4,3.1,1v-5.3h4v16.9h-4v-1C197.2,643.2,196.1,643.6,195,643.6z M194.9,631.4c-1.3,0-2.5,0.5-3.5,1.6
						c-1,1-1.5,2.4-1.5,4.1c0,1.7,0.5,3,1.6,4.1c1,1.1,2.2,1.7,3.4,1.7s2.3-0.5,3.2-1.6l0.6-0.8v2.2h2.6v-15.5h-2.6v6.3l-0.6-0.7
						C197.3,631.9,196.2,631.4,194.9,631.4z M195.7,640.8c-0.9,0-1.6-0.4-2.3-1c-0.6-0.7-0.9-1.5-0.9-2.6c0-1.1,0.3-1.9,0.9-2.6
						s1.4-1.1,2.3-1.1s1.6,0.4,2.2,1.1s0.9,1.6,0.9,2.6s-0.3,1.9-0.9,2.6C197.3,640.4,196.6,640.8,195.7,640.8z M195.7,634.2
						c-0.7,0-1.2,0.3-1.7,0.8c-0.5,0.6-0.7,1.3-0.7,2.1c0,0.9,0.3,1.6,0.7,2.1c0.5,0.5,1.1,0.8,1.7,0.8s1.2-0.3,1.7-0.8
						s0.7-1.2,0.7-2.1c0-0.9-0.2-1.6-0.7-2.2C196.9,634.5,196.4,634.2,195.7,634.2z"/>
				</g>
			</g>
			<g>
				<g>
					<path class="st0" d="M210.3,643.6c-1.9,0-3.4-0.6-4.7-1.8c-1.3-1.2-1.9-2.7-1.9-4.6s0.6-3.3,1.9-4.6c1.2-1.3,2.8-1.9,4.7-1.9
						c1.9,0,3.4,0.6,4.7,1.9c1.2,1.2,1.9,2.8,1.9,4.6s-0.6,3.3-1.9,4.6C213.7,642.9,212.2,643.6,210.3,643.6z M210.3,631.4
						c-1.7,0-3.1,0.5-4.2,1.7c-1.1,1.1-1.7,2.4-1.7,4.1c0,1.6,0.5,2.9,1.7,4.1c1.1,1.1,2.5,1.7,4.2,1.7s3.1-0.5,4.2-1.7
						c1.1-1.1,1.7-2.4,1.7-4.1c0-1.6-0.5-2.9-1.7-4.1C213.4,632,212,631.4,210.3,631.4z M210.3,640.8c-1,0-1.8-0.4-2.4-1
						c-0.6-0.7-0.9-1.6-0.9-2.6s0.3-1.9,0.9-2.6s1.4-1,2.4-1s1.8,0.4,2.4,1c0.6,0.7,0.9,1.6,0.9,2.6s-0.3,1.9-0.9,2.6
						C212.1,640.4,211.3,640.8,210.3,640.8z M210.3,634.2c-0.7,0-1.4,0.3-1.8,0.8c-0.5,0.5-0.7,1.2-0.7,2.1c0,0.9,0.2,1.6,0.7,2.1
						s1.1,0.8,1.8,0.8c0.7,0,1.4-0.3,1.8-0.8c0.5-0.5,0.7-1.2,0.7-2.1c0-0.9-0.2-1.6-0.7-2.1C211.7,634.5,211.1,634.2,210.3,634.2z"
						/>
				</g>
			</g>
			<g>
				<g>
					<path class="st0" d="M224.1,648c-0.9,0-1.8-0.2-2.8-0.4c-0.9-0.3-1.8-0.7-2.5-1.3l-0.2-0.2l1.6-3.1l0.4,0.3
						c1,0.8,2.1,1.1,3.2,1.1s2-0.3,2.6-0.8c0.4-0.4,0.7-0.9,0.8-1.7c-1,0.8-2.1,1.2-3.4,1.2c-1.6,0-3-0.5-4.1-1.7
						c-1.1-1.1-1.7-2.6-1.7-4.4s0.6-3.3,1.7-4.5s2.5-1.8,4-1.8c1.2,0,2.2,0.4,3.1,1.1v-1h4v10.7c0,1.1-0.2,2.1-0.6,2.9
						c-0.4,0.8-0.9,1.6-1.6,2.1C227.4,647.5,225.8,648,224.1,648z M219.5,645.9c0.6,0.4,1.3,0.7,2,1c0.9,0.3,1.8,0.4,2.6,0.4
						c1.6,0,2.9-0.4,4.1-1.4c0.6-0.4,1-1,1.4-1.8c0.4-0.8,0.5-1.7,0.5-2.6v-9.9h-2.6v2.2l-0.6-0.8c-0.8-1.1-1.9-1.6-3.2-1.6
						c-1.3,0-2.5,0.5-3.4,1.6c-1,1-1.5,2.4-1.5,4.1s0.5,2.9,1.5,3.9s2.2,1.5,3.6,1.5c1.5,0,2.6-0.5,3.6-1.6l0.6-0.7v0.9
						c0,1.4-0.4,2.5-1.1,3.1s-1.8,1-3.1,1c-1.1,0-2.3-0.4-3.3-1L219.5,645.9z M224.4,640.4c-0.9,0-1.7-0.3-2.3-1
						c-0.6-0.7-0.9-1.5-0.9-2.5s0.3-1.8,0.9-2.5c0.6-0.6,1.4-0.9,2.3-0.9s1.6,0.3,2.2,0.9c0.6,0.6,0.9,1.4,0.9,2.5
						c0,1.1-0.3,1.9-0.9,2.5C226.1,640,225.3,640.4,224.4,640.4z M224.5,634.2c-0.7,0-1.3,0.2-1.8,0.7s-0.7,1.1-0.7,1.9
						c0,0.8,0.2,1.5,0.7,2s1,0.7,1.8,0.7c0.7,0,1.3-0.2,1.7-0.7c0.4-0.5,0.7-1.1,0.7-2c0-0.9-0.2-1.5-0.7-2
						C225.7,634.5,225.1,634.2,224.5,634.2z"/>
				</g>
			</g>
		</g>
	</g>
	<g>
		<path class="st0" d="M236.8,551.4c0-37.3-30.2-67.5-67.5-67.5s-67.5,30.2-67.5,67.5c0,33.8,24.8,61.8,57.2,66.7
			c-0.3-2.2-0.4-4.4-0.4-6.7c0-8.2,1.9-15.8,5.5-21.2c3.7-5.7,8.8-8.7,14.6-8.7c12.1,0,22,13.3,22.1,29.7
			C222.2,599.8,236.8,577.3,236.8,551.4z"/>
		<path class="st1" d="M178.7,581.5c-5.8,0-10.9,3-14.6,8.7c-3.6,5.5-5.5,13-5.5,21.2c0,2.3,0.1,4.5,0.4,6.7
			c3.4,0.5,6.8,0.8,10.3,0.8c11.4,0,22.1-2.8,31.6-7.8C200.7,594.7,190.8,581.5,178.7,581.5z"/>
	</g>
	<g>
		<g>
			<path class="st0" d="M179.6,605.5c-0.5,0-0.8,0.3-0.8,0.8v12.4l0,0c0.5-0.1,1.1-0.2,1.6-0.2v-12.2
				C180.4,605.8,180,605.5,179.6,605.5z"/>
		</g>
	</g>
	<g>
		<g>
			<path class="st0" d="M169.3,594.8h-0.5c-2.4,0-4.9-0.3-7.2-1l1-3.4c2,0.5,4.1,0.8,6.2,0.8h0.5c7.1,0,13.9-3.1,18.5-8.6l2.7,2.3
				C185.3,591.2,177.5,594.8,169.3,594.8z"/>
		</g>
	</g>
	<g>
		<path class="st1" d="M157.2,538.4c-2.4-5.8-6.6-11.1-12.1-14.1s-12.5-3.5-18.1-0.6c-5.6,2.9-9.2,9.6-7.9,15.7
			c0.5,2.4,2,4.9,4.4,5.6c2.4,0.7,5-0.6,6.9-2.3c2.4-2.1,4.3-4.6,6.6-6.7c2.3-2.1,5.3-3.7,8.5-3.4c2.6,0.3,4.9,1.9,6.5,3.9
			s2.7,4.4,3.8,6.7"/>
	</g>
	<g>
		<path class="st1" d="M169.3,593h-0.5c-14.3,0-24.7-11.6-24.7-25.9V554c0-14.3,10.4-21.1,24.7-21.1h0.5c14.3,0,25.9,6.8,25.9,21.1
			v13.1C195.3,581.4,183.7,593,169.3,593z"/>
		<path class="st1" d="M169.3,593.7h-0.5c-7.1,0-13.5-2.8-18.2-7.8c-4.6-5-7.2-11.6-7.2-18.8V554c0-7,2.5-12.7,7.2-16.5
			c4.4-3.5,10.7-5.3,18.1-5.3h0.5c7.6,0,14.1,1.8,18.8,5.3c5.1,3.9,7.9,9.5,7.9,16.5v13.1C196,581.8,184,593.7,169.3,593.7z
			 M168.8,533.7c-7.2,0-13.1,1.8-17.3,5c-4.5,3.5-6.7,8.7-6.7,15.4v13.1c0,6.8,2.4,13.2,6.8,17.8c4.4,4.8,10.5,7.4,17.2,7.4h0.5
			c13.9,0,25.2-11.3,25.2-25.2v-13.1c0-6.5-2.5-11.8-7.3-15.4c-4.4-3.3-10.6-5.1-17.9-5.1L168.8,533.7L168.8,533.7z"/>
	</g>
	<g>
		<g>
			<ellipse class="st0" cx="166.5" cy="571.9" rx="12.2" ry="8.4"/>
		</g>
	</g>
	<g>
		<g>
			<ellipse class="st0" cx="150.4" cy="566.7" rx="1.9" ry="4.3"/>
		</g>
	</g>
	<g>
		<g>
			<ellipse class="st0" cx="186" cy="566.7" rx="1.9" ry="4.3"/>
		</g>
	</g>
	<g>
		<g>
			<path class="st0" d="M166.9,589.9c-0.5,0-1-0.4-1-1c0-0.5,0.4-1,1-1c5.8,0,11.1-2.8,13.2-7c0.2-0.5,0.8-0.7,1.3-0.5
				c0.5,0.2,0.7,0.8,0.5,1.3C179.4,586.7,173.5,589.9,166.9,589.9z"/>
		</g>
	</g>
	<g>
		<path class="st1" d="M157.5,570.3c-0.2,0-0.5-0.1-0.6-0.3c-0.4-0.3-0.4-1,0-1.4c1.4-1.6,3.5-2.7,5.9-3.5c0.5-0.2,1,0.2,1.2,0.6
			c0.2,0.5-0.2,1-0.6,1.2c-2.1,0.6-3.9,1.6-5,2.9C158,570.3,157.8,570.3,157.5,570.3z"/>
	</g>
	<g>
		<path class="st1" d="M192.1,547.8c3.3-7.5,4.5-16.1,2.4-24c-2.1-7.9-7.9-15-15.7-17.7c-7.7-2.6-17.3-0.1-21.9,6.6
			c-1.8,2.7-2.9,6.3-1.4,9.2c1.5,2.9,5.1,4.1,8.4,4.5c4,0.4,8.2-0.1,12.2,0.3c4.1,0.3,8.3,1.7,10.8,4.9c2.1,2.7,2.6,6.3,2.2,9.6
			c-0.4,3.4-1.7,6.5-2.9,9.6"/>
	</g>
	<g>
		<g>
			<ellipse class="st0" cx="169.3" cy="598.4" rx="3.1" ry="4.5"/>
		</g>
	</g>
	<path class="st0" d="M166.9,610c0-0.5-0.3-0.8-0.8-0.8s-0.8,0.3-0.8,0.8v9.2v0.1c0.5,0,1,0.1,1.6,0.1c0-0.1,0-0.1,0-0.2L166.9,610
		L166.9,610z"/>
</g>
<g class="st2">
	<path class="st0" d="M-425.7,362.2v4.5h-0.6v-0.8c-0.3,0.3-0.5,0.5-0.9,0.7c-0.3,0.1-0.7,0.2-1,0.2c-0.7,0-1.2-0.2-1.7-0.7
		c-0.5-0.5-0.7-1-0.7-1.7c0-0.6,0.2-1.2,0.7-1.7c0.5-0.5,1.1-0.7,1.7-0.7c0.4,0,0.7,0.1,1.1,0.2c0.3,0.2,0.6,0.4,0.8,0.7v-0.8
		H-425.7z M-428.2,362.6c-0.3,0-0.6,0.1-0.9,0.2s-0.5,0.4-0.7,0.7c-0.2,0.3-0.3,0.6-0.3,0.9c0,0.3,0.1,0.6,0.3,0.9
		c0.2,0.3,0.4,0.5,0.7,0.7c0.3,0.2,0.6,0.2,0.9,0.2c0.3,0,0.6-0.1,0.9-0.2c0.3-0.2,0.5-0.4,0.7-0.6c0.2-0.3,0.2-0.6,0.2-0.9
		c0-0.5-0.2-0.9-0.5-1.3C-427.2,362.8-427.6,362.6-428.2,362.6z"/>
	<path class="st0" d="M-424.6,362.2h0.6v0.7c0.2-0.3,0.4-0.4,0.6-0.6s0.4-0.2,0.6-0.2c0.2,0,0.3,0.1,0.5,0.2l-0.3,0.5
		c-0.1-0.1-0.2-0.1-0.3-0.1c-0.2,0-0.4,0.1-0.6,0.2c-0.2,0.2-0.3,0.4-0.4,0.7c-0.1,0.3-0.1,0.8-0.1,1.5v1.5h-0.6V362.2z"/>
	<path class="st0" d="M-421.2,360.5h0.6v1.7h1v0.5h-1v4h-0.6v-4h-0.8v-0.5h0.8V360.5z"/>
</g>
<path class="st0" d="M-547.7,358.1c0.5,2.3,1.7,4.2,3.6,5.6c1.8,1.4,3.9,2.1,6.2,2.1c2.8,0,5.2-1,7.1-2.9s2.8-4.3,2.8-7
	c0-2.4-0.7-4.5-2.1-6.2c-1.4-1.7-3.1-2.8-5.3-3.4l-5.3-1.4c-2.6-0.7-4.7-2.1-6.3-4.2c-1.6-2.1-2.4-4.5-2.4-7.2
	c0-3.3,1.2-6.1,3.5-8.4c2.3-2.3,5.1-3.5,8.4-3.5c2.1,0,4.1,0.5,5.9,1.6c1.8,1.1,3.3,2.5,4.3,4.3l-3.3,1.8c-1.5-2.6-3.8-4-7-4
	c-2.2,0-4.1,0.8-5.7,2.4c-1.6,1.6-2.4,3.5-2.4,5.6c0,1.9,0.6,3.5,1.7,5c1.1,1.5,2.6,2.4,4.2,2.8l5.3,1.4c3,0.8,5.4,2.4,7.3,4.9
	c1.9,2.5,2.8,5.2,2.8,8.3c0,3.8-1.3,7.1-4,9.7c-2.7,2.6-5.9,4-9.6,4c-3.1,0-5.9-1-8.4-2.9c-2.5-2-4.1-4.5-4.9-7.5L-547.7,358.1z"/>
<path class="st0" d="M-502.7,351.4c0-2.1-0.7-3.9-2.2-5.3c-1.4-1.4-3.2-2.1-5.2-2.1c-2.1,0-3.8,0.7-5.2,2.2
	c-1.4,1.4-2.2,3.2-2.2,5.2V369h-3.8v-46.6h3.8V343c2.1-1.9,4.6-2.8,7.4-2.8c3.1,0,5.8,1.1,7.9,3.2s3.2,4.8,3.2,7.9v17.6h-3.8v-17.5
	H-502.7z"/>
<path class="st0" d="M-494.8,330h3.8v4.1h-3.8V330z M-494.8,341h3.8v28h-3.8V341z"/>
<g>
	<path class="st0" d="M-487,368.9v-28l3.2,2.6c2.1-2.2,4.8-3.3,7.9-3.3s5.8,1.1,7.9,3.2c2.1,2.1,3.2,4.8,3.2,7.9v17.6h-3.8v-17.5
		c0-2.1-0.7-3.9-2.2-5.3c-1.4-1.4-3.2-2.1-5.2-2.1c-2.1,0-3.8,0.7-5.2,2.2c-1.4,1.4-2.2,3.2-2.2,5.2V369h-3.6V368.9z"/>
</g>
<g>
	<path class="st0" d="M-436.5,360.1l2.4,1.8c-1.2,2.3-2.8,4.2-5.1,5.6c-2.3,1.4-4.9,2.2-7.7,2.2c-4,0-7.5-1.5-10.4-4.4
		c-2.9-2.9-4.4-6.4-4.4-10.4c0-4.1,1.5-7.6,4.4-10.5c2.9-2.9,6.4-4.3,10.4-4.3c2.6,0,5,0.6,7.2,1.9c2.3,1.3,4,2.9,5.2,4.9
		l-19.1,16.8c1.9,1.5,4.1,2.2,6.6,2.2c2.1,0,4-0.5,5.7-1.6C-439.4,363.4-437.5,361.9-436.5,360.1 M-456,361.1l16.3-14.5
		c-2.1-1.8-4.4-2.7-7.2-2.7c-3.1,0-5.7,1.1-7.8,3.2s-3.2,4.7-3.2,7.8C-457.9,357.2-457.2,359.3-456,361.1"/>
</g>
<g>
	<path class="st0" d="M-440.7,367.1c2.7-0.4,4.5-2.4,6.1-4.4c1.5-2,2.8-4.2,4.4-6.1c0.9-1.1,1.7-1.8,2.8-2.7c0.6-0.5,1.2-1,1.8-1.4
		c0.3-0.2,0.6-0.4,0.9-0.7c0.2-0.1,0.3-0.2,0.5-0.3c0.2-0.1,0.2-0.1,0.1,0c0.1-0.1,0.2-0.1,0.3-0.2c0.6-0.4,1.3-0.7,2-1
		c0.3-0.2,0.7-0.3,1-0.4c-0.4,0.2,0.2-0.1,0.2-0.1c0.2-0.1,0.5-0.1,0.7-0.2c0.4-0.1,0.7-0.2,1.1-0.3c0.2,0,0.4-0.1,0.5-0.1
		c-0.4,0.1,0.2,0,0.2,0c0.4,0,0.7-0.1,1.1-0.1c0.2,0,0.4,0,0.6,0c0.1,0,0.3,0,0.4,0c-0.2,0-0.1,0,0.1,0c0.6,0,1.2,0.1,1.7,0.2
		c0.3,0.1,0.7,0.1,1,0.2c0.1,0,0.2,0,0.3,0.1c0.5,0.1-0.3-0.1,0.2,0c1,0.3,2,0.6,3,0.9c2.3,0.7,4.6,1.5,6.9,2.1
		c4.8,1.2,10,1.1,14-2.2c0.6-0.5,1-1.4,0.2-2c-0.8-0.5-2-0.4-2.7,0.2c-0.3,0.2-0.6,0.5-0.9,0.7c-0.5,0.3,0.3-0.2-0.2,0.1
		c-0.2,0.1-0.3,0.2-0.5,0.2c-0.2,0.1-0.3,0.1-0.5,0.2c-0.1,0-0.6,0.2-0.2,0.1c-0.4,0.1-0.8,0.2-1.1,0.3c-0.2,0-0.3,0.1-0.5,0.1
		c0.5-0.1-0.1,0-0.2,0c-0.3,0-0.7,0.1-1,0.1c-0.2,0-0.3,0-0.5,0c0,0-0.6,0-0.2,0c-0.4,0-0.8,0-1.2-0.1c-3-0.3-5.5-1.2-8.4-2.2
		c-3-1-5.9-1.9-9.1-2c-3.3-0.1-6.6,1-9.4,2.6c-3.8,2.1-7.2,5.1-9.7,8.7c-1.1,1.6-2.2,3.2-3.4,4.8c-0.3,0.3-0.6,0.7-0.9,1
		c-0.1,0.1-0.3,0.3-0.4,0.4c-0.1,0.1-0.1,0.1,0,0c-0.1,0.1-0.2,0.2-0.3,0.3s-0.3,0.2-0.4,0.3c-0.1,0-0.1,0.1-0.2,0.1
		c-0.3,0.2,0.4-0.2,0,0c-0.1,0.1-0.7,0.3-0.1,0.1c-0.2,0.1-0.7,0.1-0.1,0c-0.8,0.1-1.9,0.6-2,1.6
		C-442.6,366.8-441.5,367.2-440.7,367.1"/>
</g>
<g>
	<path class="st0" d="M-380.5,356.9c0,0.8-0.6,1.5-1.5,1.5h-9.1c-0.8,0-1.5-0.6-1.5-1.5v-13.1c0-0.8,0.6-1.5,1.5-1.5h9.1
		c0.8,0,1.5,0.6,1.5,1.5V356.9z"/>
</g>
<g>
	<rect x="-290.5" y="551" class="st0" width="7.3" height="2.3"/>
</g>
<g>
	<path class="st0" d="M-283.1,553.4h-7.5v-2.6h7.5V553.4z M-290.3,553.2h7v-2.1h-7V553.2z"/>
</g>
<g>
	<rect x="-290.5" y="557.1" class="st0" width="7.3" height="2.3"/>
</g>
<g>
	<path class="st0" d="M-283.1,559.6h-7.5V557h7.5V559.6z M-290.3,559.3h7v-2.1h-7V559.3z"/>
</g>
<g class="st2">
	<path class="st0" d="M-412.7,360.4v6.2h-0.6v-0.8c-0.3,0.3-0.5,0.5-0.9,0.7c-0.3,0.1-0.7,0.2-1,0.2c-0.7,0-1.2-0.2-1.7-0.7
		c-0.5-0.5-0.7-1-0.7-1.7c0-0.6,0.2-1.2,0.7-1.7c0.5-0.5,1.1-0.7,1.7-0.7c0.4,0,0.7,0.1,1.1,0.2c0.3,0.2,0.6,0.4,0.8,0.7v-2.5
		H-412.7z M-415.1,362.6c-0.3,0-0.6,0.1-0.9,0.2s-0.5,0.4-0.7,0.7c-0.2,0.3-0.3,0.6-0.3,0.9c0,0.3,0.1,0.6,0.3,0.9
		c0.2,0.3,0.4,0.5,0.7,0.7c0.3,0.2,0.6,0.2,0.9,0.2c0.3,0,0.6-0.1,0.9-0.2c0.3-0.2,0.5-0.4,0.7-0.6c0.2-0.3,0.2-0.6,0.2-0.9
		c0-0.5-0.2-0.9-0.5-1.3C-414.2,362.8-414.6,362.6-415.1,362.6z"/>
	<path class="st0" d="M-407.4,365.1l0.5,0.3c-0.2,0.3-0.4,0.6-0.6,0.8s-0.5,0.3-0.7,0.4c-0.3,0.1-0.6,0.2-0.9,0.2
		c-0.8,0-1.4-0.2-1.8-0.7c-0.4-0.5-0.7-1-0.7-1.6c0-0.6,0.2-1.1,0.6-1.5c0.5-0.6,1.1-0.8,1.9-0.8c0.8,0,1.4,0.3,1.9,0.9
		c0.3,0.4,0.5,0.9,0.5,1.5h-4.2c0,0.5,0.2,0.9,0.5,1.3c0.3,0.3,0.8,0.5,1.3,0.5c0.2,0,0.5,0,0.7-0.1c0.2-0.1,0.4-0.2,0.6-0.3
		S-407.5,365.4-407.4,365.1z M-407.4,363.9c-0.1-0.3-0.2-0.6-0.4-0.7s-0.4-0.3-0.6-0.4c-0.3-0.1-0.5-0.2-0.8-0.2
		c-0.5,0-0.9,0.1-1.2,0.4c-0.2,0.2-0.4,0.5-0.6,0.9H-407.4z"/>
	<path class="st0" d="M-403.2,362.6l-0.4,0.4c-0.3-0.3-0.6-0.4-1-0.4c-0.2,0-0.4,0.1-0.5,0.2s-0.2,0.3-0.2,0.4
		c0,0.1,0.1,0.3,0.2,0.4c0.1,0.1,0.4,0.3,0.7,0.5c0.5,0.2,0.8,0.4,0.9,0.6c0.2,0.2,0.2,0.4,0.2,0.7c0,0.4-0.1,0.7-0.4,0.9
		c-0.3,0.3-0.6,0.4-1,0.4c-0.3,0-0.5-0.1-0.8-0.2c-0.2-0.1-0.5-0.3-0.6-0.5l0.4-0.4c0.3,0.3,0.6,0.5,1,0.5c0.2,0,0.5-0.1,0.6-0.2
		c0.2-0.1,0.3-0.3,0.3-0.5c0-0.2-0.1-0.3-0.2-0.4c-0.1-0.1-0.4-0.3-0.8-0.5c-0.4-0.2-0.7-0.4-0.9-0.6s-0.2-0.4-0.2-0.7
		c0-0.3,0.1-0.6,0.4-0.8s0.6-0.3,0.9-0.3C-404.1,362-403.6,362.2-403.2,362.6z"/>
	<path class="st0" d="M-401.9,360.3c0.1,0,0.3,0,0.4,0.1c0.1,0.1,0.1,0.2,0.1,0.3c0,0.1,0,0.2-0.1,0.3c-0.1,0.1-0.2,0.1-0.4,0.1
		c-0.1,0-0.3,0-0.3-0.1c-0.1-0.1-0.1-0.2-0.1-0.3c0-0.1,0-0.2,0.1-0.3C-402.1,360.4-402,360.3-401.9,360.3z M-402.2,362.2h0.6v4.5
		h-0.6V362.2z"/>
	<path class="st0" d="M-396.3,362.2h0.6v3.6c0,0.6-0.1,1.1-0.2,1.4c-0.2,0.4-0.4,0.7-0.8,0.9s-0.9,0.3-1.4,0.3
		c-0.4,0-0.8-0.1-1.1-0.2c-0.3-0.1-0.6-0.3-0.8-0.4c-0.2-0.2-0.4-0.4-0.6-0.8h0.7c0.2,0.3,0.4,0.5,0.7,0.7c0.3,0.1,0.6,0.2,1.1,0.2
		c0.4,0,0.8-0.1,1-0.2s0.5-0.3,0.6-0.6c0.1-0.2,0.2-0.6,0.2-1.1v-0.2c-0.2,0.3-0.5,0.5-0.8,0.6s-0.7,0.2-1.1,0.2
		c-0.4,0-0.8-0.1-1.2-0.3c-0.4-0.2-0.7-0.5-0.9-0.8c-0.2-0.3-0.3-0.7-0.3-1.1s0.1-0.8,0.3-1.2s0.5-0.6,0.9-0.8s0.8-0.3,1.2-0.3
		c0.4,0,0.7,0.1,1,0.2c0.3,0.1,0.6,0.4,0.9,0.7V362.2z M-398.1,362.6c-0.3,0-0.7,0.1-1,0.2c-0.3,0.2-0.5,0.4-0.7,0.7
		c-0.2,0.3-0.3,0.6-0.3,0.9c0,0.5,0.2,0.9,0.5,1.2c0.3,0.3,0.8,0.5,1.3,0.5c0.6,0,1-0.2,1.3-0.5s0.5-0.7,0.5-1.3
		c0-0.3-0.1-0.6-0.2-0.9c-0.2-0.3-0.4-0.5-0.7-0.6S-397.7,362.6-398.1,362.6z"/>
	<path class="st0" d="M-394.4,362.2h0.6v0.8c0.2-0.3,0.5-0.5,0.8-0.7s0.6-0.2,1-0.2c0.4,0,0.7,0.1,0.9,0.3s0.5,0.4,0.6,0.7
		s0.2,0.7,0.2,1.3v2.3h-0.6v-2.1c0-0.5,0-0.9-0.1-1c-0.1-0.3-0.2-0.5-0.4-0.7c-0.2-0.2-0.5-0.2-0.8-0.2c-0.4,0-0.7,0.1-1,0.3
		c-0.3,0.2-0.5,0.5-0.6,0.9c-0.1,0.2-0.1,0.6-0.1,1.2v1.6h-0.6V362.2z"/>
	<path class="st0" d="M-386.6,362.6l-0.4,0.4c-0.3-0.3-0.6-0.4-1-0.4c-0.2,0-0.4,0.1-0.5,0.2s-0.2,0.3-0.2,0.4
		c0,0.1,0.1,0.3,0.2,0.4c0.1,0.1,0.4,0.3,0.7,0.5c0.5,0.2,0.8,0.4,0.9,0.6c0.2,0.2,0.2,0.4,0.2,0.7c0,0.4-0.1,0.7-0.4,0.9
		c-0.3,0.3-0.6,0.4-1,0.4c-0.3,0-0.5-0.1-0.8-0.2c-0.2-0.1-0.5-0.3-0.6-0.5l0.4-0.4c0.3,0.3,0.6,0.5,1,0.5c0.2,0,0.5-0.1,0.6-0.2
		c0.2-0.1,0.3-0.3,0.3-0.5c0-0.2-0.1-0.3-0.2-0.4c-0.1-0.1-0.4-0.3-0.8-0.5c-0.4-0.2-0.7-0.4-0.9-0.6s-0.2-0.4-0.2-0.7
		c0-0.3,0.1-0.6,0.4-0.8s0.6-0.3,0.9-0.3C-387.4,362-387,362.2-386.6,362.6z"/>
</g>
<g id="x8hMnl.tif">
	<g>
		<path class="st0" d="M-170,375.3c-0.6,1.7-1.2,3.4-1.9,5.2c-1,2.6-2,5.2-2.9,7.9c0.4-0.5,0.8-1.1,1.2-1.6c1.1-1.3,2.2-2.6,4-2.9
			c1.7-0.3,2.8,0.6,2.9,2.4c0,1.6-0.7,3-1.6,4.2c-1.6,2.2-3.5,4.1-6.3,4.8c-2.2,0.5-3.5-0.7-3.1-2.9c0.3-1.5,0.7-3,1.2-4.5
			c1.1-3,2.2-6,3.3-8.9c0.6-1.7,0.6-1.7-0.4-3.1c0.9-0.2,1.7-0.4,2.5-0.6C-170.7,375.3-170.3,375.3-170,375.3z M-175.9,393.4
			c0.1,0.2,0.3,0.9,0.6,1.1c0.3,0.2,1-0.1,1.4-0.3c0.4-0.2,0.8-0.5,1.1-0.9c1.8-1.8,3.1-3.9,4-6.3c0.1-0.4,0.3-0.8,0.3-1.2
			c0.1-0.9-0.5-1.3-1.3-1.1c-0.4,0.1-0.8,0.3-1.1,0.6c-1.2,1.2-2.4,2.4-3.5,3.7C-175.2,390.2-175.8,391.6-175.9,393.4z"/>
		<path class="st0" d="M-131.9,375.3c0,0.3,0,0.7-0.1,1c-1.2,3.6-2.5,7.2-3.7,10.8c0,0.1-0.1,0.3-0.1,0.4c0.9-0.9,1.7-1.8,2.7-2.5
			c0.8-0.6,1.9-0.9,2.9-1.2c0.7-0.2,1.6,0,2,0.8c0.4,0.8,0.1,1.5-0.4,2.1c-1.1,1.3-2.5,2.3-4.2,2.8c-0.3,0.1-0.5,0.2-0.9,0.3
			c0.3,1.4,0.7,2.6,1.6,3.7c0.1,0.2,0.8,0.2,1,0c0.5-0.2,0.8-0.7,1.3-1.1c0,0.2,0.1,0.4,0.1,0.5c-0.6,0.8-1.2,1.6-2,2.2
			c-0.7,0.6-1.3,0.4-1.8-0.4c-0.6-1.1-1-2.2-1.5-3.3c-0.2-0.4-0.6-1-0.9-0.9c-0.4,0.1-0.9,0.5-1.1,0.9c-0.5,1-0.9,2.1-1.3,3.1
			c-0.2,0.5-0.3,1.2-1.1,0.9c-0.9-0.3-0.3-0.9-0.2-1.3c1.6-5,3.3-10.1,5-15.1c0-0.1,0.1-0.2,0.1-0.2c0.4-1.4,0.4-1.4-0.9-2.4
			c1.3-0.4,2.4-0.7,3.5-1.1C-132,375.3-131.9,375.3-131.9,375.3z M-136.4,389.7c0.1,0.1,0.1,0.2,0.2,0.2c2.3-0.6,4.4-1.4,5.8-3.5
			c0-0.1,0.1-0.2,0.1-0.2c0.3-0.7-0.1-1.3-0.9-1.2c-0.4,0.1-0.8,0.2-1.2,0.4c-1.5,0.9-2.8,2.1-3.7,3.6
			C-136.2,389.2-136.3,389.5-136.4,389.7z"/>
		<path class="st0" d="M-139.6,424.8c0-2,0-3.9,0-5.9c34.7,0,69.4,0,104.1,0c0,1.9,0,3.9,0,5.9C-70.1,424.8-104.8,424.8-139.6,424.8
			z"/>
		<path class="st0" d="M-68.8,404.4c-0.6,4.2-1.1,8.5-1.7,12.8c-1,0-2,0-3.2,0c-0.6-4.1-1.2-8.3-1.8-12.4c0,0-0.1,0-0.1,0
			c0,4.1,0,8.3,0,12.4c-1.5,0-3,0-4.5,0c0-6.6,0-13.2,0-19.9c2.2,0,4.4,0,6.7,0c0.4,3,0.9,5.9,1.3,8.9c0,0,0.1,0,0.1,0
			c0.4-3,0.8-5.9,1.1-8.9c2.2,0,4.4,0,6.7,0c0,6.6,0,13.2,0,19.9c-1.5,0-2.9,0-4.4,0c0-4.3,0-8.6,0-12.8
			C-68.7,404.4-68.7,404.4-68.8,404.4z"/>
		<path class="st0" d="M-45.6,400.9c-0.1,0.6-0.1,1.2-0.2,1.7c0.8-1.1,1.6-2,2.7-2.1c0.5,0.3,0.8,0.5,1.2,0.9c0-1.1,0-1.9,0-2.8
			c1.7,0,3.3,0,5,0c0,0.8,0,1.6,0,2.5c0.5,0,0.9,0.1,1.3,0.1c0,0.8,0,1.6,0,2.5c-0.4,0-0.8,0.1-1.3,0.1c0,0.9,0,1.9,0,2.8
			c0,2.1,0,4.2,0,6.3c0,1.5,0,1.5,1.5,1.8c0,0.8,0,1.6,0,2.6c-1.5-0.1-3.1-0.1-4.6-0.3c-1.2-0.2-1.8-1.2-1.8-2.5c0-3.2,0-6.4,0-9.7
			c0-0.3,0-0.6,0-1c-0.3,0-0.5,0-0.8,0c0,0.8,0,1.6,0,2.3c-0.1,0.1-0.1,0.1-0.2,0.1c-2.4,0.3-2.7,0.7-2.8,3.1c0,2.6,0,5.2,0,7.8
			c-1.7,0-3.3,0-4.9,0c0-5.4,0-10.8,0-16.2C-48.9,400.9-47.3,400.9-45.6,400.9z"/>
		<path class="st0" d="M-134.6,417.2c-1.7,0-3.3,0-4.9,0c0-0.3,0-0.6,0-1c0-3.7,0-7.4,0-11.1c0-0.3,0-0.5,0-0.8
			c0-0.5-0.1-0.9-0.7-0.9c-0.6,0-0.8,0.4-0.8,0.9c0,0.7-0.1,1.4-0.1,2.2c0,3.5,0,7.1,0,10.7c-1.6,0-3.2,0-4.9,0c0-5.4,0-10.8,0-16.2
			c1.6,0,3.2,0,5,0c0,0.4,0,0.8-0.1,1.1c0.6-0.4,1.2-1,2-1.3c2.5-0.8,4.4,0.6,4.5,3.3c0.1,3.8,0,7.6,0,11.5
			C-134.6,416-134.6,416.6-134.6,417.2z"/>
		<path class="st0" d="M-162.2,400.9c1.7,0,3.3,0,4.9,0c0,5.4,0,10.8,0,16.3c-1.6,0-3.3,0-4.9,0c0-0.4,0-0.7,0-1.3
			c-1,1.4-2.2,1.7-3.6,1.6c-1.6-0.2-2.7-1.1-2.7-2.7c-0.1-4.6,0-9.2,0-13.8c1.6,0,3.1,0,4.8,0c0,0.3,0,0.6,0,0.9c0,3.4,0,6.8,0,10.2
			c0,0.7,0,1.4,0.1,2.1c0,0.2,0.4,0.6,0.7,0.6c0.2,0,0.6-0.3,0.7-0.6c0.1-0.6,0.1-1.1,0.1-1.7c0-3.5,0-7,0-10.5
			C-162.2,401.5-162.2,401.2-162.2,400.9z"/>
		<path class="st0" d="M-117.8,400.9c1.7,0,3.2,0,4.9,0c0,0.3,0,0.6,0,0.9c0,3.8,0,7.5,0,11.3c0,0.3-0.1,0.6,0,0.8
			c0.2,0.3,0.5,0.6,0.7,0.6c0.2,0,0.6-0.3,0.6-0.6c0.1-0.6,0.1-1.3,0.1-2c0-3.4,0-6.8,0-10.3c0-0.3,0-0.6,0-0.9c1.7,0,3.3,0,4.9,0
			c0,5.4,0,10.8,0,16.3c-1.7,0-3.3,0-5,0c0-0.4,0-0.8,0.1-1.4c-1,1.5-2.3,1.8-3.8,1.6c-1.4-0.2-2.3-0.9-2.6-2.3
			c-0.1-0.4-0.2-0.9-0.2-1.3c0-4.2,0-8.4,0-12.6C-117.9,401.2-117.8,401.1-117.8,400.9z"/>
		<path class="st0" d="M-63,407.2c0.1-1.1,0.1-2.1,0.3-3.1c0.3-1.7,1.5-2.6,3-3.1c1.7-0.6,3.5-0.5,5.2,0c1.5,0.5,2.6,1.5,2.6,3.2
			c0.1,2.1,0.2,4.2,0.2,6.3c0,2.2,0,4.5,0,6.8c-1.6,0-3.2,0-4.8,0c0-0.4,0-0.8,0-1.2c-1.6,1.6-3.1,2-4.8,1.1
			c-0.9-0.4-1.4-1.1-1.5-2.1c-0.1-1.3-0.1-2.6,0-3.9c0-0.9,0.5-1.6,1.3-2c1.2-0.5,2.3-1.1,3.5-1.5c1.1-0.4,1.4-1.1,1.3-2.1
			c0-0.4,0-0.9-0.2-1.3c-0.1-0.3-0.5-0.6-0.8-0.7c-0.1,0-0.6,0.4-0.6,0.7c-0.1,1,0,1.9,0,2.9c-0.3,0-0.5,0.1-0.7,0.1
			C-60.3,407.2-61.6,407.2-63,407.2z M-56.7,409.5c-1.8,1.1-1.7,2.7-1.5,4.4c0,0.3,0.5,0.5,0.8,0.8c0.2-0.3,0.6-0.5,0.7-0.8
			C-56.7,412.4-56.7,411-56.7,409.5z"/>
		<path class="st0" d="M-90.4,409.3c0,1.5,0,2.9,0,4.3c0,0.4,0.4,0.9,0.7,1c0.6,0.2,0.9-0.4,1-0.9c0-1.1,0-2.1,0-3.2
			c1.6,0,3.1,0,4.8,0c-0.1,1.3-0.1,2.6-0.4,3.8c-0.4,1.6-1.6,2.7-3.2,3c-1.7,0.4-3.4,0.3-5.1-0.3c-1.4-0.6-2.5-1.7-2.6-3.2
			c-0.2-2.8-0.3-5.7-0.1-8.5c0.2-3,1.7-4.4,4.8-4.6c1.1-0.1,2.2,0.1,3.2,0.4c2,0.6,3,2.2,3.2,4.2c0.1,1.3,0,2.7,0,4.1
			C-86.2,409.3-88.3,409.3-90.4,409.3z M-89,406.7c0-0.9,0-1.8,0-2.6c0-0.2-0.4-0.7-0.6-0.6c-0.3,0.1-0.7,0.4-0.7,0.6
			c-0.1,0.8,0,1.7,0,2.6C-89.9,406.7-89.5,406.7-89,406.7z"/>
		<path class="st0" d="M-178.6,397.3c2.9,0,5.8,0,8.7,0c0,1.3,0,2.5,0,3.9c-1.1,0-2.3,0-3.5,0c0,1.3,0,2.5,0,3.8c1,0,2,0,3.1,0
			c0,1.3,0,2.5,0,3.8c-1,0-2,0-3.1,0c0,2.8,0,5.6,0,8.4c-1.7,0-3.4,0-5.1,0C-178.6,410.5-178.6,403.9-178.6,397.3z"/>
		<path class="st0" d="M-126.4,403.8c0-0.8,0-1.6,0-2.5c0.3,0,0.6,0,1-0.1c0-0.8,0-1.6,0-2.5c1.7,0,3.3,0,5,0c0,0.8,0,1.6,0,2.5
			c0.5,0,0.8,0,1.3,0.1c0,0.8,0,1.6,0,2.5c-0.4,0-0.8,0-1.2,0.1c0,0.2-0.1,0.3-0.1,0.5c0,2.8,0,5.7,0,8.5c0,1.5,0,1.5,1.5,1.8
			c0,0.8,0,1.6,0,2.6c-1.5-0.1-3-0.1-4.5-0.3c-1.1-0.1-1.9-1.1-1.9-2.3c-0.1-3.3-0.1-6.7-0.1-10c0-0.3,0-0.6,0-0.9
			C-125.7,403.8-126,403.8-126.4,403.8z"/>
		<path class="st0" d="M-147.4,406.2c-0.1,0-0.1,0.1-0.2,0.1c-2.7,0.2-2.7,1.2-2.7,3.1c0,2.3,0,4.6,0,6.9c0,0.3,0,0.6,0,0.9
			c-1.7,0-3.3,0-4.9,0c0-5.4,0-10.8,0-16.3c1.6,0,3.2,0,4.9,0c-0.1,0.6-0.1,1.2-0.2,1.8c0.8-1.1,1.6-2,3.1-2.1
			C-147.4,402.5-147.4,404.3-147.4,406.2z"/>
		<path class="st0" d="M-99.5,417.2c-1.7,0-3.2,0-4.8,0c0-5.4,0-10.8,0-16.3c1.6,0,3.2,0,4.8,0c0,0.6-0.1,1.2-0.1,2
			c0.8-1.3,1.6-2.2,3.1-2.4c0,1.9,0,3.7,0,5.7c-0.2,0-0.5,0.1-0.8,0.1c-1.4,0.2-2,0.8-2,2.1c0,2.6-0.1,5.2-0.1,7.8
			C-99.5,416.6-99.5,416.9-99.5,417.2z"/>
		<path class="st0" d="M-197,379.1c-0.6,1.9-1.2,3.8-1.7,5.7c-0.8,2.6-1.5,5.3-2.2,8c-0.3,1.3-0.2,1.5,1.2,1.7
			c0.3,0,0.5,0.2,0.7,0.4c-0.3,0.1-0.5,0.3-0.8,0.3c-1.6,0-3.3,0-4.9,0c-0.2,0-0.4-0.2-0.7-0.3c0.2-0.1,0.4-0.3,0.6-0.3
			c1.2-0.1,1.9-0.6,2.3-1.8c1.2-3.8,2.4-7.6,3.6-11.4c0.3-0.8,0.5-1.7,0.7-2.5c0.3-0.8,0-1.1-0.8-1.3c-0.2,0-0.5,0-0.7-0.1
			c-0.2-0.1-0.3-0.2-0.4-0.4c0.2-0.1,0.3-0.3,0.5-0.3c1.4,0,2.8,0,3.9,0c2,4.9,3.9,9.7,5.8,14.5c0.1,0,0.2,0,0.3,0
			c0.1-0.2,0.3-0.4,0.3-0.6c1.1-3.7,2.2-7.4,3.3-11c0.1-0.3,0.1-0.6,0.2-0.8c0.2-0.8-0.1-1.2-0.9-1.2c-0.1,0-0.3,0-0.4-0.1
			c-0.2-0.1-0.3-0.3-0.5-0.4c0.2-0.1,0.3-0.3,0.5-0.3c1.8,0,3.6,0,5.6,0.2c-0.2,0.2-0.3,0.5-0.5,0.5c-1.7,0-2.3,1.1-2.7,2.4
			c-1.6,5-3.2,9.9-4.9,14.9c0,0.1-0.1,0.3-0.1,0.4c-0.1,0.2-0.3,0.3-0.4,0.5c-0.1-0.1-0.4-0.3-0.4-0.4c-1.9-4.8-3.8-9.6-5.7-14.4
			c-0.2-0.6-0.5-1.2-0.7-1.7C-196.8,379.1-196.9,379.1-197,379.1z"/>
		<path class="st0" d="M-132.7,400.9c1.7,0,3.3,0,5,0c0,5.4,0,10.8,0,16.3c-1.6,0-3.3,0-5,0C-132.7,411.8-132.7,406.4-132.7,400.9z"
			/>
		<path class="st0" d="M-149.1,384.8c0.4-0.6,0.7-1.2,1.2-1.7c0.1-0.1,0.7,0.2,1,0.3c-1.1,2.7-2.1,5.3-3.1,8
			c-0.2,0.6-0.5,1.2-0.7,1.9c-0.1,0.2-0.1,0.5,0,0.5c0.2,0.1,0.5,0.1,0.6,0c0.6-0.3,1.2-0.7,1.7-1.1c0.3-0.2,0.5-0.4,0.9-0.8
			c0,0.4,0.1,0.6,0,0.7c-1,1.3-2.2,2.4-3.9,2.8c-1.1,0.3-1.6-0.2-1.2-1.3c0.3-1,0.7-1.9,1-2.8c-0.1-0.1-0.1-0.1-0.2-0.2
			c-0.1,0.1-0.1,0.3-0.3,0.4c-1.4,1.5-2.8,2.9-4.7,3.6c-0.5,0.2-1.3,0.2-1.6,0c-0.4-0.4-0.7-1.2-0.5-1.7c1.1-3.9,3.2-7.1,7-9
			C-150.9,384.2-149.9,383.9-149.1,384.8z M-156.6,393.3c0.1,0.2,0.1,0.6,0.3,0.7c0.2,0.1,0.6,0,0.9-0.1c2.7-1.7,4.6-4.1,5.6-7.1
			c0.2-0.6-0.1-1.3-0.8-1.4c-0.5-0.1-1.1,0-1.5,0.3C-154.7,387.5-155.9,390.2-156.6,393.3z"/>
		<path class="st0" d="M-117.7,392.2c-0.1,0.2-0.1,0.4-0.2,0.5c-1,1.2-2.1,2.3-3.7,2.7c-0.4,0.1-1,0.1-1.3-0.1
			c-0.2-0.2-0.2-0.8-0.1-1.2c0.3-0.9,0.6-1.8,0.9-2.7c-0.6,0.5-1.2,1.2-1.8,1.7c-1.2,0.8-2.3,1.7-3.6,2.3c-1.1,0.5-1.9-0.1-1.9-1.4
			c0-0.4,0.1-0.9,0.3-1.3c0.9-2.7,2.5-5,4.7-6.9c0.7-0.6,1.6-1,2.5-1.4c0.8-0.3,1.7-0.4,2.3,0.4c0.4-0.6,0.7-1.2,1.1-1.7
			c0.1-0.1,0.7,0.2,1.1,0.3c-0.8,2.1-1.6,4.1-2.4,6.1c-0.5,1.2-0.9,2.4-1.3,3.6c-0.1,0.2,0,0.5,0,0.7c0.2,0,0.5,0,0.7-0.1
			c0.6-0.3,1.1-0.7,1.6-1.1c0.3-0.2,0.5-0.4,0.8-0.6C-117.8,392.1-117.8,392.1-117.7,392.2z M-127,393c0,1.1,0.3,1.3,1.1,0.8
			c2.7-1.7,4.6-4.1,5.7-7.1c0.2-0.7-0.2-1.1-0.7-1.3c-0.5-0.1-1.2-0.1-1.6,0.2C-125.2,387.5-126.4,390.2-127,393z"/>
		<path class="st0" d="M-184,395.5c-1.3,0-2.2-0.6-2.3-1.7c-0.1-1-0.1-2.1,0.2-3c0.7-2.7,2.3-4.7,4.7-6.1c0.6-0.4,1.3-0.5,2-0.7
			c0.7-0.2,1.3,0,1.8,0.6c0.5,0.6,0.5,1.4,0.1,1.9c-0.5,0.7-1,1.4-1.7,1.7c-1.3,0.7-2.8,1.2-4.2,1.8c-0.3,0.1-0.7,0.5-0.7,0.8
			c-0.2,0.6-0.2,1.3-0.2,2c0,1.2,1,1.8,2,1.4c0.7-0.3,1.3-0.8,2-1.2c0.1-0.1,0.3-0.1,0.5-0.1c0,0.2,0,0.4-0.1,0.5
			C-181.1,394.5-182.4,395.4-184,395.5z M-183.9,389c0.1,0.1,0.1,0.1,0.2,0.2c1.7-0.5,3.2-1.3,4.2-2.8c0.3-0.4,0.8-1,0.2-1.5
			c-0.5-0.5-1.1-0.1-1.5,0.2c-0.4,0.2-0.8,0.5-1,0.9C-182.5,387-183.2,388-183.9,389z"/>
		<path class="st0" d="M-162.8,389.9c0.7-1.2,1.4-2.5,2.2-3.6c0.5-0.7,1-1.4,1.6-2c0.4-0.4,1.1-0.8,1.6-0.3c0.3,0.4,0.4,1,0.5,1.6
			c0,0.2-0.1,0.5-0.2,0.7c-0.2,0.3-0.5,0.5-0.8,0.7c-0.1-0.3-0.3-0.5-0.4-0.8c-0.3-0.8-0.7-1-1.2-0.3c-0.9,1.3-1.8,2.6-2.6,4
			c-0.8,1.5-1.6,3.1-2.3,4.7c-0.2,0.5-0.5,0.8-1.1,0.6c-0.7-0.3-0.4-0.7-0.2-1.1c0.9-2.6,1.7-5.2,2.5-7.8c0.1-0.3,0-0.6,0-1
			c-0.4,0.1-0.8,0.1-1.1,0.3c-0.4,0.2-0.6,0.6-0.9,0.9c-0.1,0.1-0.2,0.1-0.4,0.1c0-0.1-0.1-0.3-0.1-0.4c0.7-1.1,1.3-2.1,2.6-2.5
			c1-0.3,1.6,0.1,1.4,1.1c-0.2,1.2-0.6,2.3-1,3.5c-0.1,0.5-0.3,0.9-0.5,1.3C-162.9,389.9-162.9,389.9-162.8,389.9z"/>
		<path class="st0" d="M-145.5,395.5c-1.1,0-1.9-0.8-1.7-1.7c0.2-0.8,0.7-1,1.3-0.5c0.2,0.2,0.4,0.4,0.7,0.5
			c0.6,0.3,1.1,0.6,1.7,0.1c0.6-0.5,0.8-1.2,0.5-1.9c-0.2-0.5-0.5-1-0.7-1.6c-0.2-0.4-0.4-0.7-0.6-1.1c-1.2-2.4,0.2-5.1,2.8-5.6
			c1.1-0.2,2.1,0.7,1.9,1.7c-0.1,0.6-0.5,0.8-1,0.4c-0.3-0.2-0.6-0.6-0.9-0.7c-0.5-0.1-1.1-0.1-1.4,0.1c-0.3,0.2-0.4,0.9-0.4,1.4
			c0,0.5,0.3,1,0.6,1.4c0.2,0.5,0.5,0.9,0.8,1.4C-140.2,392.7-142.9,395.5-145.5,395.5z"/>
		<path class="st0" d="M-132.7,399.7c0-0.8,0-1.6,0-2.5c1.7,0,3.3,0,5,0c0,0.8,0,1.6,0,2.5C-129.3,399.7-130.9,399.7-132.7,399.7z"
			/>
		<path class="st0" d="M-178.5,420.5c1.2,0,2.3,0,3.4,0c0,1.1,0,2.2,0,3.4c-1.1,0-2.2,0-3.4,0C-178.5,422.8-178.5,421.7-178.5,420.5
			z"/>
		<path class="st0" d="M-147.8,420.5c1.1,0,2.3,0,3.4,0c0,1.1,0,2.2,0,3.4c-1.1,0-2.3,0-3.4,0C-147.8,422.8-147.8,421.7-147.8,420.5
			z"/>
		<path class="st0" d="M-168.3,423.9c0-1.2,0-2.2,0-3.4c1.1,0,2.3,0,3.4,0c0,1.1,0,2.2,0,3.4C-166,423.9-167.1,423.9-168.3,423.9z"
			/>
		<path class="st0" d="M-158,423.9c0-1.1,0-2.3,0-3.4c1.1,0,2.2,0,3.4,0c0,1.1,0,2.2,0,3.4C-155.7,423.9-156.8,423.9-158,423.9z"/>
		<path class="st0" d="M-34.6,400.7c-0.9,0-1.5-0.7-1.5-1.6c0-0.8,0.7-1.6,1.5-1.6c0.8,0,1.6,0.8,1.5,1.6
			C-33.1,400.1-33.7,400.7-34.6,400.7z M-33.3,399.2c0-0.8-0.5-1.4-1.3-1.3c-0.7,0-1.3,0.6-1.3,1.4c0,0.7,0.6,1.3,1.2,1.3
			C-33.9,400.5-33.3,399.9-33.3,399.2z"/>
		<path class="st0" d="M-35.1,398.3c0.6,0,1.4-0.2,0.9,0.9c-0.1,0.2,0.1,0.5,0.2,0.9c-0.3-0.4-0.5-0.7-0.8-1
			c-0.1,0.4-0.2,0.7-0.2,0.9c0,0-0.1,0-0.1,0C-35.1,399.5-35.1,398.9-35.1,398.3z"/>
	</g>
</g>
</svg>
