<?xml version="1.0" encoding="utf-8"?>
<!-- Generator: Adobe Illustrator 19.1.0, SVG Export Plug-In . SVG Version: 6.00 Build 0)  -->
<svg version="1.1" xmlns="http://www.w3.org/2000/svg" xmlns:xlink="http://www.w3.org/1999/xlink" x="0px" y="0px"
	 viewBox="84 42.5 124.5 138.5" style="enable-background:new 84 42.5 124.5 138.5;" xml:space="preserve">
<style type="text/css">
	.st0{fill:#FFFFFF;stroke:#000000;stroke-width:1.5;stroke-miterlimit:10;}
	.st1{stroke:#000000;stroke-width:0.75;stroke-miterlimit:10;}
	.st2{fill:none;stroke:#000000;stroke-miterlimit:10;}
	.st3{fill:#4EA1D9;}
	.st4{fill-rule:evenodd;clip-rule:evenodd;fill:#B7B7B7;}
	.st5{fill-rule:evenodd;clip-rule:evenodd;fill:#FFFFFF;}
	.st6{fill:none;stroke:#4EA1D9;stroke-miterlimit:10;}
	.st7{fill:#FFFFFF;}
	.st8{fill-rule:evenodd;clip-rule:evenodd;fill:none;stroke:#B7B7B7;stroke-miterlimit:10;}
	.st9{fill-rule:evenodd;clip-rule:evenodd;fill:none;stroke:#FFFFFF;stroke-miterlimit:10;}
	.st10{fill:none;stroke:#B7B7B7;stroke-miterlimit:10;}
	.st11{fill-rule:evenodd;clip-rule:evenodd;fill:none;stroke:#4EA1D9;stroke-miterlimit:10;}
	.st12{fill:#C4C6C4;}
	.st13{fill-rule:evenodd;clip-rule:evenodd;fill:none;stroke:#000000;stroke-miterlimit:10;}
	.st14{fill:#ED0A71;stroke:#000000;stroke-linecap:round;stroke-linejoin:round;stroke-miterlimit:10;}
	.st15{fill:#ED0A71;stroke:#000000;stroke-width:2;stroke-linecap:round;stroke-linejoin:round;stroke-miterlimit:10;}
	.st16{fill:none;stroke:#FFFFFF;stroke-miterlimit:10;}
	.st17{fill:none;stroke:#FFFFFF;stroke-width:3;stroke-linecap:round;stroke-linejoin:round;stroke-miterlimit:10;}
	.st18{fill:none;stroke:#FFFFFF;stroke-linecap:round;stroke-linejoin:round;stroke-miterlimit:10;}
	.st19{fill-rule:evenodd;clip-rule:evenodd;fill:none;stroke:#FFFFFF;stroke-width:0.5;stroke-miterlimit:10;}
	.st20{fill:none;stroke:#FFFFFF;stroke-width:0.75;stroke-linecap:round;stroke-linejoin:round;stroke-miterlimit:10;}
	
		.st21{fill-rule:evenodd;clip-rule:evenodd;fill:none;stroke:#000000;stroke-width:2;stroke-linecap:round;stroke-linejoin:round;stroke-miterlimit:10;}
	.st22{fill:none;stroke:#000000;stroke-width:2;stroke-linecap:round;stroke-linejoin:round;stroke-miterlimit:10;}
	.st23{font-family:'Comfortaa-Bold';}
	.st24{font-size:12.1952px;}
	.st25{letter-spacing:1;}
	
		.st26{fill-rule:evenodd;clip-rule:evenodd;fill:#FCFCFC;stroke:#000000;stroke-width:2;stroke-linecap:round;stroke-linejoin:round;stroke-miterlimit:10;}
	.st27{fill-rule:evenodd;clip-rule:evenodd;stroke:#000000;stroke-linecap:round;stroke-linejoin:round;stroke-miterlimit:10;}
	.st28{fill:#FCFCFC;stroke:#000000;stroke-width:2;stroke-linecap:round;stroke-linejoin:round;stroke-miterlimit:10;}
	.st29{fill-rule:evenodd;clip-rule:evenodd;}
	.st30{fill:#898989;stroke:#FFFFFF;stroke-miterlimit:10;}
	.st31{fill:#D1D3D4;}
	.st32{enable-background:new    ;}
	.st33{opacity:0.48;}
	.st34{stroke:#000000;stroke-width:0.25;stroke-miterlimit:10;}
</style>
<g id="Layer_2">
	<polygon points="-425.8,404.1 -450.7,436.5 -475.5,404.1 	"/>
	<circle class="st0" cx="-450.7" cy="392.9" r="28.5"/>
	<g>
		<path id="SVGID_x5F_1_x5F_" style="fill:none;" d="M-189.7,308c14.9,16.1,14,41.2-2.1,56.1s-41.2,14-56.1-2.1
			c-14.9-16.1-14-41.2,2.1-56.1S-204.6,291.9-189.7,308z"/>
		<text>		<textPath  xlink:href="#SVGID_x5F_1_x5F_" startOffset="94.678%">
<tspan  style="font-family:'Comfortaa'; font-size:11px; letter-spacing:100;">  mycity.dog</tspan>		</textPath>
</text>
	</g>
	<g>
		<g>
			<g>
				<path class="st1" d="M-452.1,409.9c-5.9,0-10.7-3.4-10.7-7.5s4.8-7.5,10.7-7.5c5.9,0,10.7,3.4,10.7,7.5
					S-446.1,409.9-452.1,409.9z M-452.1,395.8c-5.4,0-9.9,3-9.9,6.7c0,3.7,4.4,6.7,9.9,6.7c5.4,0,9.9-3,9.9-6.7
					C-442.2,398.8-446.6,395.8-452.1,395.8z"/>
			</g>
		</g>
	</g>
	<g>
		<g>
			<g>
				<path class="st1" d="M-465.6,395.5c-1.2,0-2-1.7-2-4.1s0.9-4.1,2-4.1c1.2,0,2,1.7,2,4.1S-464.5,395.5-465.6,395.5z
					 M-465.6,388.3c-0.5,0-1.2,1.2-1.2,3.2c0,2,0.7,3.2,1.2,3.2s1.2-1.2,1.2-3.2C-464.5,389.5-465.2,388.3-465.6,388.3z"/>
			</g>
		</g>
	</g>
	<g>
		<g>
			<g>
				<path class="st1" d="M-435.7,395.5c-1.2,0-2-1.7-2-4.1s0.9-4.1,2-4.1c1.2,0,2,1.7,2,4.1S-434.5,395.5-435.7,395.5z
					 M-435.7,388.3c-0.5,0-1.2,1.2-1.2,3.2c0,2,0.7,3.2,1.2,3.2c0.5,0,1.2-1.2,1.2-3.2C-434.5,389.5-435.2,388.3-435.7,388.3z"/>
			</g>
		</g>
	</g>
	<g>
		<path id="SVGID_x5F_2_x5F_" style="fill:none;" d="M-180.4,313.9c6.8,22.9-5.6,46.9-27.8,53.5c-22.2,6.6-45.7-6.6-52.5-29.6
			c-6.8-22.9,5.6-46.9,27.8-53.5S-187.2,291-180.4,313.9z"/>
		<text>		<textPath  xlink:href="#SVGID_x5F_2_x5F_" startOffset="94.678%">
<tspan  style="font-family:'Comfortaa'; font-size:10px; letter-spacing:103.4;">               find. walk. wag.  </tspan>		</textPath>
</text>
	</g>
	<polyline class="st2" points="-642.5,525.4 -617.4,565.5 -592.3,523.4 	"/>
	<g>
		<path class="st3" d="M-497.1,470.5h-0.5c-13.5,0-23.2-10.9-23.2-24.4v-12.3c0-13.5,9.8-19.9,23.2-19.9h0.5
			c13.5,0,24.4,6.4,24.4,19.9v12.3C-472.7,459.6-483.7,470.5-497.1,470.5z"/>
	</g>
	<g>
		<g>
			<path class="st4" d="M-506.9,452.1c-3-1.3-8.5-7.9-8.5-14.7c0-4.7,3.8-8.5,8.5-8.5s8.5,3.8,8.5,8.5
				C-498.4,444.2-503.9,450.8-506.9,452.1z"/>
			<path class="st4" d="M-506.9,428.9c4.7,0,8.5,3.8,8.5,8.5c0,6.8-5.5,13.4-8.5,14.7V428.9z"/>
		</g>
		<circle class="st5" cx="-506.9" cy="437.5" r="4.6"/>
	</g>
	<circle class="st5" cx="-486.1" cy="437.5" r="4.6"/>
	<g>
		<path class="st3" d="M-509.9,416.1c-2.3-5.5-6.2-10.4-11.4-13.2c-5.2-2.8-11.8-3.3-17-0.6c-5.2,2.8-8.6,9-7.4,14.8
			c0.5,2.3,1.9,4.6,4.1,5.3c2.3,0.6,4.7-0.6,6.5-2.2c2.2-1.9,4-4.3,6.2-6.3s5-3.5,8-3.2c2.4,0.3,4.6,1.8,6.1,3.7
			c1.5,1.9,2.6,4.1,3.6,6.4"/>
	</g>
	<g>
		<path class="st3" d="M-477.1,425c3.1-7.1,4.3-15.1,2.3-22.6s-7.4-14.1-14.7-16.6c-7.3-2.5-16.3-0.1-20.6,6.2
			c-1.7,2.5-2.7,5.9-1.3,8.6c1.4,2.8,4.8,3.9,7.9,4.2c3.8,0.4,7.7-0.1,11.5,0.3c3.8,0.3,7.8,1.6,10.2,4.6c1.9,2.5,2.4,5.9,2,9
			s-1.6,6.1-2.8,9.1"/>
	</g>
	<path class="st6" d="M-260.6,424.5c-0.1,0.4-0.2,0.9-0.2,1.4c0,2.5,2.1,4.6,4.6,4.6c0.7,0,1.3-0.2,1.9-0.4v-5.6H-260.6z"/>
	<path class="st6" d="M-256.2,430.5c-2.5,0-4.6-2.1-4.6-4.6c0-0.5,0.1-0.9,0.2-1.4h-3.6c-2.1-6.9-8.3-12-15.8-12.4
		c-0.1,0-0.3,0-0.4,0h-28.9c-1.9,0-3.4,1.5-3.4,3.4s1.5,3.4,3.4,3.4h14.5c-2.3,2.9-3.6,6.6-3.6,10.6c0,9.2,7.2,16.8,16.3,17.4l0,0
		l0.8,0c0.1,0,0.3,0,0.4,0c0.1,0,0.2,0,0.2,0l12.4,0.2c7.7,0,14-4.4,14-14v-3.1C-254.9,430.3-255.6,430.5-256.2,430.5z"/>
	<path class="st7" d="M-496.8,450.5h1.1c5.7,0,9.1,4.8,6.1,8.5l0,0l-1.1,1.3c-2.8,3.4-9.3,3.4-12.1,0l-1.1-1.3l0,0
		c-3.1-3.7,0.3-8.5,6.1-8.5H-496.8z"/>
	<path class="st8" d="M-281,418c-4.7,0-8.5,3.8-8.5,8.5c0,6.8,5.5,13.4,8.5,14.7c3-1.3,8.5-7.9,8.5-14.7
		C-272.5,421.8-276.3,418-281,418z"/>
	<circle class="st5" cx="-281" cy="426.5" r="4.6"/>
	<path class="st3" d="M-310,445.7c0,2.6-2.6,5.6-5.8,5.6c-3.2,0-5.8-3-5.8-5.6c0-2.6,2.6-4.2,5.8-4.2
		C-312.6,441.4-310,443-310,445.7z"/>
	<path class="st8" d="M-207.3,429.1c-3.4,0-6.1,2.7-6.1,6.1c0,4.9,4,9.6,6.1,10.6c2.1-1,6.1-5.7,6.1-10.6
		C-201.1,431.8-203.9,429.1-207.3,429.1z"/>
	<path class="st3" d="M-157.7,436.8h-42.8c-5.7,0-10.3-4.6-10.3-10.3v-55.2c0-5.7,4.6-10.3,10.3-10.3h42.8c5.7,0,10.3,4.6,10.3,10.3
		v55.2C-147.4,432.2-152,436.8-157.7,436.8z"/>
	<g>
		<circle class="st9" cx="-207.3" cy="435.2" r="2.7"/>
		<circle class="st9" cx="-192.2" cy="435.2" r="2.7"/>
	</g>
	<path class="st8" d="M-196.6,449.6h-5.6c-1.1,0-2-0.9-2-2v-0.8c0-1.1,0.9-2,2-2h5.6c1.1,0,2,0.9,2,2v0.8
		C-194.7,448.7-195.6,449.6-196.6,449.6z"/>
	<rect x="-275.4" y="449.2" class="st8" width="38.4" height="38.4"/>
	<line class="st10" x1="-210.4" y1="425.8" x2="-187.6" y2="425.8"/>
	<path class="st11" d="M-108.9,440.9c-4.7,0-8.5,3.8-8.5,8.5c0,6.8,5.5,13.4,8.5,14.7c3-1.3,8.5-7.9,8.5-14.7
		C-100.4,444.7-104.2,440.9-108.9,440.9z"/>
	<circle class="st11" cx="-88.1" cy="449.5" r="4.6"/>
	<ellipse class="st12" cx="-64.6" cy="345.8" rx="5.1" ry="0.8"/>
	<circle class="st11" cx="-108.9" cy="449.5" r="4.6"/>
	<g>
		<path class="st6" d="M-81.8,430.9c-4.4-3.3-10.5-4.9-17.3-4.9h-0.5c-4.6,0-8.8,0.8-12.3,2.3"/>
		<path class="st6" d="M-114.7,429.7c-5.1,3.2-8.2,8.6-8.2,16.2v12.3c0,13.5,9.8,24.4,23.2,24.4h0.5c13.5,0,24.4-10.9,24.4-24.4
			v-12.3c0-4.5-1.2-8.2-3.4-11.2"/>
		<path class="st6" d="M-111.9,428.1c-2.3-5.5-6.2-10.4-11.4-13.2s-11.8-3.3-17-0.6c-5.2,2.8-8.6,9-7.4,14.8
			c0.5,2.3,1.9,4.6,4.1,5.3c2.3,0.6,4.7-0.6,6.5-2.2c2.2-1.9,4-4.3,6.2-6.3s5-3.5,8-3.2c2.4,0.3,4.6,1.8,6.1,3.7
			c0.8,1,1.5,2.1,2.1,3.3c0.9-0.5,1.8-1,2.7-1.4L-111.9,428.1z"/>
		<path class="st6" d="M-78.1,434.6c2.4-6.5,3.1-13.6,1.4-20.2c-2-7.4-7.4-14.1-14.7-16.6c-7.3-2.5-16.3-0.1-20.6,6.2
			c-1.7,2.5-2.7,5.9-1.3,8.6c1.4,2.8,4.8,3.9,7.9,4.2c3.8,0.4,7.7-0.1,11.5,0.3c3.8,0.3,7.8,1.6,10.2,4.6c1.9,2.5,2.4,5.9,2,9
			c0,0,0,0,0,0.1C-80.4,432-79.2,433.2-78.1,434.6z"/>
	</g>
	<path class="st6" d="M-98.8,462.5h1.1c5.7,0,9.1,4.8,6.1,8.5h0l-1.1,1.3c-2.8,3.4-9.3,3.4-12.1,0l-1.1-1.3h0
		c-3.1-3.7,0.3-8.5,6.1-8.5H-98.8z"/>
	<g>
		<path class="st13" d="M-224.5,328.6c-2.6,0-4.8,2.1-4.8,4.8c0,3.8,3.1,7.5,4.8,8.3c1.7-0.7,4.8-4.5,4.8-8.3
			C-219.8,330.8-221.9,328.6-224.5,328.6z"/>
		<circle class="st13" cx="-212.9" cy="333.4" r="2.6"/>
		<circle class="st13" cx="-224.5" cy="333.4" r="2.6"/>
		<g>
			<path class="st2" d="M-209.3,323c-2.5-1.9-5.9-2.8-9.7-2.8h-0.3c-2.6,0-4.9,0.4-6.9,1.3"/>
			<path class="st2" d="M-227.8,322.3c-2.9,1.8-4.6,4.8-4.6,9.1v6.9c0,7.6,5.5,13.7,13.1,13.7h0.3c7.6,0,13.7-6.1,13.7-13.7v-6.9
				c0-2.5-0.7-4.6-1.9-6.3"/>
			<path class="st2" d="M-226.2,321.4c-1.3-3.1-3.5-5.9-6.4-7.4c-2.9-1.6-6.6-1.9-9.6-0.3c-2.9,1.6-4.9,5.1-4.2,8.3
				c0.3,1.3,1,2.6,2.3,3c1.3,0.4,2.6-0.3,3.7-1.2c1.3-1.1,2.3-2.4,3.5-3.5c1.2-1.1,2.8-2,4.5-1.8c1.4,0.1,2.6,1,3.5,2.1
				c0.5,0.6,0.8,1.2,1.2,1.9C-227.3,322-226.8,321.7-226.2,321.4L-226.2,321.4z"/>
			<path class="st2" d="M-207.2,325.1c1.3-3.6,1.8-7.6,0.8-11.4c-1.1-4.2-4.2-8-8.3-9.3c-4.1-1.4-9.1-0.1-11.6,3.5
				c-1,1.4-1.5,3.3-0.7,4.9c0.8,1.6,2.7,2.2,4.4,2.4c2.1,0.2,4.3,0,6.5,0.1c2.2,0.2,4.4,0.9,5.7,2.6c1.1,1.4,1.4,3.3,1.2,5.1
				c0,0,0,0,0,0C-208.5,323.6-207.8,324.3-207.2,325.1z"/>
		</g>
		<path class="st2" d="M-218.7,342.8h2.8c1.1,0,1.7,1,1,1.7l-1.2,1.2l-1.6,1.8c-0.5,0.6-1.6,0.6-2.1,0l-1.7-1.8l-1.1-1.2
			c-0.7-0.7,0-1.7,1-1.7H-218.7z"/>
	</g>
	<text transform="matrix(1 0 0 1 -63.9639 141.4792)" class="st23 st24 st25">mycity.dog</text>
	<path class="st9" d="M-115.3,327.3c-2.6,0-4.8,2.1-4.8,4.8c0,3.8,3.1,7.5,4.8,8.3c1.7-0.7,4.8-4.5,4.8-8.3
		C-110.6,329.4-112.7,327.3-115.3,327.3z"/>
	<circle class="st9" cx="-103.7" cy="332.1" r="2.6"/>
	<path class="st14" d="M310.9,128.8L310.9,128.8c-2.9,0-5.2-2.4-5.2-5.2V116c0-2.9,2.4-5.2,5.2-5.2h0c2.9,0,5.2,2.4,5.2,5.2v7.5
		C316.2,126.4,313.8,128.8,310.9,128.8z"/>
	<path class="st15" d="M160.2,122.4l-0.6,0.6c-1.7,1.7-4.5,1.7-6.2,0l-6-6c-1.7-1.7-1.7-4.5,0-6.2l0.6-0.6c1.7-1.7,4.5-1.7,6.2,0
		l6,6C161.9,117.9,161.9,120.7,160.2,122.4z"/>
	<path class="st15" d="M319.6,98.4L319,99c-1.7,1.7-4.5,1.7-6.2,0l-6-6c-1.7-1.7-1.7-4.5,0-6.2l0.6-0.6c1.7-1.7,4.5-1.7,6.2,0l6,6
		C321.3,94,321.3,96.7,319.6,98.4z"/>
	<circle class="st9" cx="-115.3" cy="332.1" r="2.6"/>
	<path class="st16" d="M-109.5,341.5h2.8c1.1,0,1.7,1,1,1.7l-1.2,1.2l-1.6,1.8c-0.5,0.6-1.6,0.6-2.1,0l-1.7-1.8l-1.1-1.2
		c-0.7-0.7,0-1.7,1-1.7H-109.5z"/>
	<g>
		<polygon class="st17" points="-243.4,124.4 -243.4,186.2 -206,155.3 		"/>
		<polygon class="st17" points="-206,155.3 -168.5,186.2 -168.5,124.4 		"/>
		<polyline class="st17" points="-206,155.3 -243.4,186.2 -168.5,186.2 		"/>
	</g>
	<polyline class="st18" points="-87.6,327.5 -87.6,335.8 -81.2,340.4 -74.8,335.8 -74.8,327.5 	"/>
	<path class="st19" d="M-83.8,310.7c-2.1,0-3.8,1.7-3.8,3.8c0,3,2.5,5.9,3.8,6.5c1.3-0.6,3.8-3.5,3.8-6.5
		C-80.1,312.4-81.8,310.7-83.8,310.7z"/>
	<circle class="st19" cx="-74.6" cy="314.5" r="2"/>
	<circle class="st19" cx="-83.8" cy="314.5" r="2"/>
	<polygon class="st20" points="-47.7,325.8 -50.1,329.1 -52.4,325.8 	"/>
	<g id="I8KKbS.tif">
		
			<image style="overflow:visible;" width="414" height="414" id="Layer_0_1_" xlink:href="989D2D0B4F79859B.png"  transform="matrix(1 0 0 1 78.9684 261.6804)">
		</image>
	</g>
	<polygon class="st18" points="-9.4,272.5 12.7,322.3 47.3,321.7 2,292.5 16.3,269.8 23.3,302.5 -14.7,303.8 	"/>
	<g>
		<circle class="st21" cx="-26.9" cy="103.5" r="6.6"/>
		<path class="st21" d="M-26.9,90.2c-7,0-12.8,5.7-12.8,12.8c0,10.1,8.3,20.1,12.8,22c4.4-2,12.8-11.9,12.8-22
			C-14.2,95.9-19.9,90.2-26.9,90.2z"/>
		<line class="st22" x1="-26.9" y1="110" x2="-26.9" y2="124"/>
	</g>
	<g>
		<circle class="st22" cx="-39.9" cy="80.3" r="6.2"/>
		<circle class="st22" cx="-14" cy="80.3" r="6.2"/>
	</g>
	<polygon class="st22" points="2.3,64.5 19.4,86.2 -0.8,96 	"/>
	<polygon class="st22" points="-54.7,64.5 -71.8,86.2 -51.6,96 	"/>
	<polygon class="st17" points="-176.5,220.1 -199,191.6 -172.5,178.8 	"/>
	<text transform="matrix(1 0 0 1 109.8855 141.4793)" class="st23 st24 st25">mycity.dog</text>
	<path class="st26" d="M146.2,92.1c-6,0-10.8,4.8-10.8,10.8c0,8.6,7,17,10.8,18.7c3.8-1.7,10.8-10.1,10.8-18.7
		C157,97,152.2,92.1,146.2,92.1z"/>
	<path class="st21" d="M241.4,82.5c-8.5,0-15.3,6.9-15.3,15.3c0,12.2,10,24.1,15.3,26.5c5.3-2.4,15.3-14.3,15.3-26.5
		C256.8,89.3,249.9,82.5,241.4,82.5z"/>
	<circle class="st27" cx="146.2" cy="103.4" r="5.6"/>
	<line class="st28" x1="146.2" y1="108.9" x2="146.2" y2="120.8"/>
	<g>
		<circle cx="135.4" cy="84.7" r="5.2"/>
		<circle cx="157.1" cy="84.7" r="5.2"/>
	</g>
	<g>
		<circle cx="234.9" cy="98.2" r="3.1"/>
		<circle cx="248" cy="98.2" r="3.1"/>
	</g>
	<path class="st29" d="M243.4,111.8h-3.9c-2.3,0-4.2-1.9-4.2-4.2v0c0-2.3,1.9-4.2,4.2-4.2h3.9c2.3,0,4.2,1.9,4.2,4.2v0
		C247.6,109.9,245.7,111.8,243.4,111.8z"/>
	<line class="st22" x1="241.4" y1="111.8" x2="241.4" y2="124.3"/>
	<path class="st2" d="M233.5,84.7"/>
	<polygon class="st22" points="201.9,49.2 192.1,64.2 182,53.8 	"/>
	<polygon class="st22" points="204.5,59.1 193.4,73.2 206.5,79.5 	"/>
</g>
<g id="Layer_1">
	<path class="st30" d="M-547.2,493.2h-200c-6.6,0-12-5.4-12-12V297.8c0-6.6,5.4-12,12-12h200c6.6,0,12,5.4,12,12v183.5
		C-535.2,487.9-540.7,493.2-547.2,493.2z"/>
	<g>
		<path class="st31" d="M-679.4,670.3L-679.4,670.3c-0.2-0.1-0.3-0.2-0.5-0.2c-0.1,0-0.2-0.1-0.3-0.1c-0.9-1.7-1.8-3.4-3-4.9
			c-0.1-0.3-0.3-0.6-0.4-0.9c-0.6-1-1.9-2.2-3.2-1.8c-0.7-0.1-1.4,0.1-1.8,1v0.1c-0.3,0.3-0.4,0.8-0.5,1.2c-0.1,2.3,1.8,3.8,3.9,4.9
			c1.5,1.1,3.3,1.8,5.2,2.1c0.1,0,0.2,0,0.3,0c0.2,0.1,0.4,0.2,0.7,0.2C-678.1,671.7-678.4,670.1-679.4,670.3z"/>
		<path class="st31" d="M-683.9,649.7c-0.2,0-0.8-1.1-0.9-1.3c-0.4-0.5-0.9-0.8-1.5-1.2c-1.1-0.6-2.3-1-3.6-1.3
			c-1-0.3-1.5,1.2-0.5,1.5c1.3,0.3,2.7,0.7,3.8,1.6c0.9,0.7,1.2,2.2,2.5,2.3C-683,651.3-682.8,649.7-683.9,649.7z"/>
		<path class="st31" d="M-674.7,643.1c-0.6-0.8-1.8-1-2.6-0.3c-0.8,0.8-0.6,1.9-0.6,2.9c-0.6,0.9-1.1,1.9-1.6,2.9
			c-0.1,0.3-0.2,0.6-0.2,0.9c-0.2,0.2-0.4,0.4-0.6,0.5c-0.8,0.6,0.2,1.8,1,1.2c0.1-0.1,0.2-0.2,0.3-0.3c0.1,0,0.1,0.1,0.2,0.1
			c2.3,0.8,4.1-2.9,4.5-4.6C-674.1,645.3-674,644-674.7,643.1z"/>
		<path class="st31" d="M-663.1,678c-1,0-1.2,1.6-0.1,1.6c1.9-0.1,1.2,2.4,1.3,3.7c0,0.7,0.3,2,0.2,3.1c0-0.2-0.1-0.4-0.1-0.7
			c-0.2-1-1.8-0.7-1.6,0.3c0.2,0.9,0.3,1.8,0.4,2.8c0,0.6,0.6,1.1,1.1,0.8c2.6-1.3,1.6-4.5,1.6-6.9
			C-660.4,680.3-659.8,677.8-663.1,678z"/>
		<path class="st31" d="M-659.8,682.5c0.1-0.8,0.1-1.5-0.3-2.3c-0.2-0.5-0.6-0.6-1-0.6c-0.4-0.6-0.9-1.1-1.8-1.3
			c-1.3-0.3-2.7,0.2-3,1.7c-0.4,1.8,0.8,4.2,1.5,5.8c0.2,0.5,0.8,0.7,1.3,0.5c0.1,0.6,0.1,1.1,0,1.7c-0.1,1.4,2,1.6,2.2,0.2
			c0-0.5,0.1-0.9,0-1.4c0.2,0,0.4-0.1,0.5-0.2c1.3-1.1,0.9-2.5,0.5-3.9C-659.8,682.6-659.8,682.6-659.8,682.5z"/>
		<path class="st31" d="M-645.7,703.6c0.1-0.1,0.2-0.3,0.2-0.5c-0.1-3.1,0.6-13.1-4.9-12.3c-3,0.5-3.2,4-1.5,5.8c0,0.1,0,0.1,0,0.2
			c0.3,1.2,0.9,2.3,1.5,3.3c0.4,0.6,1,1.1,1.6,1.7c0.1,0.2,0.1,0.3,0.2,0.5c0.1,0.4,0.4,0.6,0.8,0.6c0.1,0.2,0.2,0.4,0.3,0.6
			c0.1,0.2,0.2,0.3,0.4,0.4c-0.4,0.7,0.1,1.8,1.1,1.6C-645.1,705.3-645,704.1-645.7,703.6z"/>
		<path class="st31" d="M-667,691.1c-1.4-0.8-2.8-1.6-4.3-2.2c-0.5-0.7-1.3-1.3-2.2-1.4c-0.6-0.6-1.2-1-1.9-1.3
			c-1.4-0.6-4.4-0.8-4.9,1.2c-0.2,0.6,0,1.2,0.3,1.7c0,0.3,0,0.5,0.2,0.8c0.5,0.7,1.2,1.1,2,1.4c0.4,0.3,0.8,0.6,1.2,0.8
			c1,0.6,2,1,3.1,1c0.3,0,0.6,0,1-0.1c1.3,0.4,2.6,0.6,4.1,0.2c0.3,0,0.7,0,1,0C-666.5,692.9-666.2,691.5-667,691.1z"/>
		<path class="st31" d="M-650,709c-1.8-0.8-3.7-1.4-5.5-2.1c-1.8-0.7-5.3-2.7-7.1-1c-1.4,1.2-0.4,3.1,1,3.8c0.1,0,0.1,0,0.2,0.1
			c0.9,1.2,2.4,1.8,4.1,2.1c2.4,0.4,6.2,1.2,8.4-0.4c0.3-0.2,0.4-0.7,0.4-1C-648.8,709.5-649.2,709.4-650,709z"/>
		<path class="st31" d="M-670.8,660.7c0-0.9-1.4-1.6-1.9-0.6c-0.4,0.7-0.6,1.5-0.7,2.2c-0.1,0.3-0.2,0.6-0.2,0.9
			c-0.4,2.3-1,4.5-1.7,6.6c-0.5,1.3,1.6,2.1,2,0.7c0.1-0.2,0.1-0.3,0.2-0.5c0.2,0.1,0.5,0.1,0.7,0.1c1.3-0.2,2.4-1.4,2.9-2.5
			C-668.9,666.2-668.8,661.6-670.8,660.7z"/>
		<path class="st31" d="M-678.7,623.7c-1.9-0.2-3.8,1.8-4.5,3.3c-1.3,2.6-0.6,6.3-0.5,9.1c0,1.4,2.2,1.6,2.2,0.2c0-0.3,0-0.5,0-0.8
			c0.3,0.1,0.7,0,0.9-0.2c1.7-1.6,3.6-4.1,4-6.4C-676.4,627.3-676.6,623.9-678.7,623.7z"/>
		<path class="st31" d="M-684.2,648.7c-1.9-1.7-2.3-4.5-4.3-6.1c-0.5-0.5-1.3-0.8-2-0.6c-0.2,0-0.4,0-0.5,0.1
			c-1.7,0.8-1.9,3.3-0.1,4.1c0.3,0.1,0.6,0.2,0.8,0.4c0,0.2,0.1,0.4,0.2,0.5c0.2,0.3,0.5,0.5,0.7,0.8c0.2,0.2,0.4,0.3,0.6,0.3
			c0.1,0.1,0.2,0.3,0.4,0.4c0.9,0.9,2,1.5,3.2,1.9C-684,651-683.3,649.5-684.2,648.7z"/>
		<g>
			<path class="st31" d="M-601.9,749.1c-0.2,0-0.5-0.1-0.6-0.3c-3.9-8.5-11-16.5-21.5-24.5c-4-3-8.2-5.8-12.3-8.6
				c-7-4.7-14.2-9.6-20.5-15.4c-16.7-15.5-26.6-38.6-26.6-61.7c0-0.3,0.2-0.5,0.5-0.5c0.3,0,0.5,0.2,0.5,0.5
				c-0.1,22.9,9.7,45.6,26.2,61c6.2,5.8,13.4,10.6,20.4,15.3c4.1,2.8,8.3,5.6,12.3,8.6c10.7,8.1,17.9,16.2,21.9,24.9
				C-601.5,748.7-601.6,749-601.9,749.1C-601.8,749-601.8,749.1-601.9,749.1z"/>
		</g>
		<g>
			<path class="st31" d="M-646,708.7L-646,708.7c-0.3,0-0.5-0.2-0.5-0.5c0.1-1.7-0.6-3.5-2.2-5.5c-0.5-0.6-1-1.2-1.5-1.8
				c-0.9-1-1.7-2-2.4-3.2c-0.9-1.5-1.4-2.9-1.3-4.2c0.1-1.7,1.1-3.2,2.5-3.7c1.3-0.4,2.9,0,4,1c1.1,1,1.7,2.4,2.1,3.4
				c1.6,4.2,0.6,9.1-0.2,13.5l-0.1,0.5C-645.7,708.6-645.8,708.7-646,708.7z M-650.8,690.8c-0.1,0-0.2,0-0.3,0.1
				c-1,0.4-1.8,1.5-1.9,2.8c-0.1,1.1,0.3,2.3,1.1,3.6c0.7,1.1,1.5,2.1,2.4,3c0.5,0.6,1.1,1.2,1.6,1.9c0.9,1.2,1.5,2.3,1.9,3.4
				c0.7-3.6,1.1-7.5-0.1-10.8c-0.4-1-0.9-2.2-1.9-3.1C-648.9,690.9-649.9,690.6-650.8,690.8z"/>
		</g>
		<g>
			<path class="st31" d="M-652.1,713.3c-1.9,0.3-3.9,0.2-5.8-0.4c-2.5-0.8-5.4-2.8-5.8-5c-0.2-0.8,0.1-1.6,0.6-2.2
				c0.8-0.9,2.1-1.3,3.6-1.1c1.6,0.2,3.3,0.9,4.7,1.6c0.3,0.1,0.5,0.3,0.8,0.4c1.1,0.6,2.3,1.2,3.5,1.5c1.6,0.5,3,0.5,3.7,0
				c0.2-0.2,0.5-0.1,0.7,0.1c0.2,0.2,0.1,0.5-0.1,0.7c-0.5,0.4-0.9,0.9-1.4,1.5c-0.8,1-1.6,2-3,2.5
				C-651,713-651.5,713.2-652.1,713.3z M-660.8,705.6c-0.6,0.1-1.2,0.4-1.5,0.8c-0.3,0.4-0.5,0.8-0.4,1.4c0.3,1.6,2.6,3.4,5.1,4.2
				c2.2,0.7,4.7,0.7,6.8,0c1.1-0.4,1.8-1.2,2.5-2.2c0.1-0.1,0.2-0.2,0.3-0.3c-1.1,0-2.2-0.3-2.7-0.4c-1.3-0.4-2.5-1-3.7-1.6
				c-0.3-0.1-0.5-0.3-0.8-0.4c-1.3-0.6-2.9-1.3-4.3-1.5C-660,705.5-660.4,705.5-660.8,705.6z"/>
		</g>
		<g>
			<path class="st31" d="M-663.7,691.6c-0.1,0-0.3,0-0.4-0.1c-0.2-0.2-0.2-0.4-0.1-0.6c0.9-1.4,0.3-3.4-0.1-4.2
				c-0.2-0.5-0.5-1-0.7-1.5c-0.5-0.9-1-1.9-1.2-2.9c-0.4-1.7-0.1-3.9,1.7-4.8c1.3-0.7,3.1-0.4,4.2,0.8c0.9,0.9,1.5,2.2,1.7,3.9
				c0.4,3.6-1.1,6.6-4.8,9.4C-663.6,691.6-663.7,691.6-663.7,691.6z M-663.6,678.2c-0.2,0-0.4,0.1-0.6,0.2c-1.2,0.6-1.5,2.4-1.2,3.7
				c0.2,0.9,0.7,1.8,1.2,2.7c0.3,0.5,0.5,1,0.8,1.6c0.3,0.8,0.8,2.1,0.6,3.3c2.4-2.2,3.5-4.7,3.1-7.4c-0.2-1.5-0.7-2.6-1.4-3.3
				C-661.8,678.3-662.8,678-663.6,678.2z"/>
		</g>
		<g>
			<path class="st31" d="M-668.7,693.7c-3,0.6-6.3,0.1-9-1.3c-1.4-0.7-2.3-1.6-2.9-2.5c-0.8-1.3-0.7-2.9,0.1-4
				c0.6-0.8,1.7-1.3,2.9-1.4c0.9,0,1.9,0.2,3,0.8c1.1,0.6,2.2,1.3,3.1,2c0.5,0.3,1,0.7,1.5,1l0.3,0.2c1.4,1,3.8,2.6,5.4,2.5
				c0.2,0,0.4,0.1,0.5,0.3c0.1,0.2,0,0.4-0.2,0.5C-665.6,692.9-667.1,693.4-668.7,693.7z M-678.2,685.6c-0.7,0.1-1.2,0.4-1.6,0.9
				c-0.6,0.7-0.6,1.9,0,2.9c0.5,0.8,1.3,1.5,2.5,2.2c3.5,1.8,7.8,1.9,11.4,0.3c-1.6-0.5-3.2-1.6-4.4-2.4l-0.3-0.2
				c-0.5-0.3-1-0.7-1.5-1.1c-1-0.7-2-1.4-3-1.9c-0.9-0.5-1.8-0.7-2.5-0.7C-677.8,685.5-678,685.5-678.2,685.6z"/>
		</g>
		<g>
			<path class="st31" d="M-682.6,639.7L-682.6,639.7c-0.3,0-0.5-0.1-0.5-0.3c-1.5-4-2.1-9.9,0.5-14.2c0.4-0.6,0.9-1.5,1.8-2
				c0.9-0.6,1.9-0.8,2.8-0.5c1.6,0.5,2.3,2.3,2.3,3.6c0.1,2.7-1.3,5.2-2.6,7c-0.3,0.5-0.6,0.9-1,1.4c-1.1,1.5-2.2,3-2.8,4.7
				C-682.3,639.6-682.4,639.7-682.6,639.7z M-679.3,623.6c-0.4,0.1-0.7,0.2-1,0.5c-0.7,0.5-1.1,1.2-1.5,1.7
				c-2.2,3.6-1.9,8.5-0.8,12.2c0.7-1.3,1.6-2.6,2.4-3.8c0.3-0.4,0.7-0.9,1-1.3c1.2-1.7,2.5-4,2.4-6.4c0-1.1-0.6-2.4-1.6-2.8
				C-678.7,623.5-679,623.5-679.3,623.6z"/>
		</g>
		<g>
			<path class="st31" d="M-676.5,672.1L-676.5,672.1c-4.7,0.5-8.4-0.6-11.1-3.4c-1.3-1.3-2.1-2.6-2.3-3.9c-0.3-1.6,0.6-3.1,2.1-3.5
				c1.9-0.5,3.9,0.8,5.1,2.2c0.7,0.9,1.3,1.9,1.7,2.9c0.3,0.5,0.5,1.1,0.8,1.6c1,1.7,2.3,2.8,3.7,3.1c0.2,0,0.4,0.3,0.4,0.5
				C-676.1,671.8-676.3,672-676.5,672.1z M-687.5,662.2C-687.6,662.2-687.6,662.2-687.5,662.2c-1.2,0.3-1.6,1.4-1.5,2.4
				c0.2,1,0.9,2.2,2,3.3c2.2,2.2,4.9,3.2,8.4,3.2c-1.1-0.8-1.9-1.9-2.4-2.7c-0.3-0.5-0.6-1.1-0.9-1.6c-0.5-1-1-1.9-1.6-2.7
				C-684.5,663-686.1,662-687.5,662.2z"/>
		</g>
		<g>
			<path class="st31" d="M-682,651.9L-682,651.9c-4.2-0.5-9-2.9-10.4-6.7c-0.2-0.5-0.4-1.3-0.4-2.1c0.1-0.8,0.5-1.6,1.1-2
				c1.2-0.7,2.7-0.2,3.6,0.6c1.7,1.4,2.7,3.3,3.7,5.2c0.8,1.5,1.5,3,2.6,4.2c0.1,0.1,0.2,0.4,0.1,0.5
				C-681.7,651.8-681.8,651.9-682,651.9z M-690.7,641.8c-0.2,0-0.3,0.1-0.4,0.2c-0.4,0.2-0.6,0.7-0.7,1.3c0,0.5,0.1,1,0.3,1.7
				c1.1,3,4.8,5.1,8.3,5.9c-0.8-1.1-1.4-2.2-2-3.4c-1-1.9-1.9-3.6-3.4-4.9C-689.2,642.1-690,641.7-690.7,641.8z"/>
		</g>
		<g>
			<path class="st31" d="M-678.7,651.8c-0.9,0.2-1.7,0.1-2.6-0.2c-0.2-0.1-0.3-0.2-0.3-0.3c0-0.2,0-0.3,0.1-0.4c1-1.1,1.6-3,2.2-4.7
				c0.2-0.6,0.4-1.1,0.5-1.7c0.4-1.1,0.9-2.3,1.9-2.8c0.5-0.3,1.1-0.3,1.6-0.2c0.6,0.2,1.2,0.7,1.5,1.4c0.5,1,0.5,2.4,0.1,3.8
				c-0.5,1.8-1.6,3.4-3,4.3C-677.3,651.4-678,651.7-678.7,651.8z M-680.3,650.9c1,0.2,2.1-0.1,3.1-0.7c1.2-0.8,2.2-2.2,2.6-3.8
				c0.3-1.2,0.3-2.3-0.1-3.1c-0.2-0.4-0.6-0.7-1-0.9c-0.2-0.1-0.5-0.1-0.9,0.1c-0.7,0.4-1.1,1.3-1.4,2.3c-0.2,0.5-0.3,1-0.5,1.6
				C-678.9,647.9-679.4,649.6-680.3,650.9z"/>
		</g>
		<g>
			<path class="st31" d="M-675.2,671.9c-0.2,0-0.4,0.1-0.6,0.1s-0.3,0-0.4-0.2c-0.1-0.1-0.1-0.3-0.1-0.4c0.4-1.3,0.6-2.7,0.8-4.1
				s0.4-2.9,0.8-4.3c0.4-1.4,0.9-2.9,2-3.5c1-0.6,2.4-0.2,3.2,1c1,1.4,1.3,3.6,0.8,5.6c-0.5,1.8-1.5,3.3-2.9,4.3
				C-672.6,671.2-673.8,671.7-675.2,671.9z M-671.9,660.2c-0.1,0-0.2,0.1-0.3,0.1c-0.8,0.4-1.2,1.8-1.6,3c-0.4,1.3-0.6,2.7-0.8,4.1
				c-0.2,1.2-0.3,2.4-0.6,3.5c1.2-0.2,2.2-0.6,3.1-1.3c1.2-0.9,2.2-2.3,2.6-3.8c0.4-1.7,0.2-3.7-0.7-4.8
				C-670.7,660.6-671.3,660.1-671.9,660.2z"/>
		</g>
		<path class="st31" d="M-530.3,643L-530.3,643c0.2-0.1,0.3-0.3,0.4-0.4c0.1-0.1,0.2-0.1,0.3-0.2c0.2-1.9,0.4-3.8,1-5.7
			c0-0.4,0-0.7,0.1-1c0.2-1.1,1-2.8,2.3-2.8c0.6-0.4,1.4-0.4,2.1,0.3c0,0,0,0.1,0.1,0.1c0.4,0.2,0.7,0.5,0.9,1
			c0.9,2.1-0.3,4.2-1.9,6c-1,1.6-2.4,2.9-4.1,3.8c-0.1,0.1-0.2,0.1-0.3,0.1c-0.1,0.2-0.3,0.4-0.6,0.4
			C-531.1,644.7-531.3,643.1-530.3,643z"/>
		<g>
			<path class="st31" d="M-533.5,622.1c0.2-0.1,0.3-1.3,0.4-1.5c0.2-0.6,0.6-1.1,0.9-1.6c0.8-1,1.8-1.8,2.9-2.5
				c0.8-0.6,1.9,0.6,1,1.2c-1.1,0.8-2.3,1.6-3,2.8c-0.6,1-0.4,2.5-1.5,3C-533.7,624-534.4,622.5-533.5,622.1z"/>
		</g>
		<g>
			<path class="st31" d="M-543.6,622.5c0.9,1.5,3.9,4.3,5.8,2.7c0.1-0.1,0.1-0.1,0.2-0.2c0.1,0,0.3,0.1,0.4,0.1
				c1,0.3,1.5-1.3,0.5-1.5c-0.3-0.1-0.5-0.2-0.8-0.3c-0.1-0.3-0.3-0.5-0.5-0.7c-0.8-0.7-1.6-1.4-2.5-2.1c-0.4-0.9-0.6-2.1-1.6-2.5
				s-2,0.3-2.3,1.2C-544.7,620.3-544.1,621.6-543.6,622.5z"/>
		</g>
		<g>
			<path class="st31" d="M-542.7,656c1-0.3,1.7,1.1,0.7,1.4c-1.8,0.6-0.3,2.7,0.1,3.9c0.2,0.7,0.5,2,0.9,3c0-0.2-0.1-0.4-0.1-0.7
				c-0.2-1,1.4-1.3,1.6-0.3c0.1,1,0.3,1.8,0.7,2.7c0.2,0.5-0.1,1.2-0.8,1.1c-2.9-0.3-3.1-3.7-3.9-5.9
				C-544.4,659.1-545.9,657-542.7,656z"/>
		</g>
		<path class="st31" d="M-544.3,661.4c-0.4-0.7-0.6-1.4-0.6-2.3c0-0.5,0.3-0.8,0.7-0.9c0.2-0.7,0.5-1.3,1.2-1.9
			c1.1-0.8,2.6-0.7,3.4,0.5c1,1.6,0.8,4.2,0.7,6c0,0.6-0.5,0.9-1,1c0.1,0.5,0.3,1.1,0.6,1.6c0.6,1.2-1.3,2.2-1.9,0.9
			c-0.2-0.4-0.4-0.8-0.5-1.3c-0.2,0-0.4,0-0.6,0c-1.6-0.6-1.8-2-1.8-3.5C-544.2,661.5-544.3,661.4-544.3,661.4z"/>
		<g>
			<path class="st31" d="M-550,686.1c-0.1-0.1-0.3-0.2-0.3-0.4c-1-2.9-5.3-12.1,0.2-13.3c3-0.7,4.4,2.6,3.5,4.9c0,0.1,0,0.1,0,0.2
				c0.1,1.2,0,2.4-0.3,3.6c-0.2,0.7-0.5,1.4-0.9,2.2c0,0.2,0,0.3,0,0.5c0,0.4-0.2,0.7-0.5,0.9c-0.1,0.2-0.1,0.4-0.1,0.6
				s-0.1,0.4-0.2,0.5c0.6,0.5,0.6,1.7-0.4,1.9C-549.9,688-550.4,686.8-550,686.1z"/>
		</g>
		<g>
			<path class="st31" d="M-534.5,666.8c1-1.2,2-2.4,3.2-3.5c0.2-0.9,0.8-1.6,1.5-2.1c0.4-0.7,0.8-1.4,1.3-1.9c1.1-1.1,3.8-2.3,5-0.7
				c0.4,0.5,0.4,1.1,0.4,1.7c0.1,0.2,0.2,0.5,0.1,0.8c-0.2,0.8-0.7,1.5-1.4,2c-0.3,0.4-0.6,0.8-0.8,1.1c-0.7,0.9-1.5,1.7-2.5,2.1
				c-0.3,0.1-0.6,0.2-0.9,0.2c-1.1,0.9-2.2,1.5-3.7,1.6c-0.3,0.1-0.6,0.2-1,0.3C-534.3,668.7-535,667.5-534.5,666.8z"/>
		</g>
		<g>
			<path class="st31" d="M-544,689.7c1.4-1.4,2.9-2.6,4.4-3.9c1.5-1.3,4-4.4,6.3-3.5c1.7,0.7,1.5,2.7,0.4,3.9l-0.1,0.1
				c-0.4,1.5-1.6,2.5-3.1,3.4c-2.1,1.3-5.4,3.3-8,2.6c-0.3-0.1-0.7-0.5-0.7-0.8C-544.9,690.6-544.6,690.3-544,689.7z"/>
		</g>
		<g>
			<path class="st31" d="M-541.7,637.1c-0.3-0.9,0.7-2,1.6-1.3c0.7,0.5,1.1,1.1,1.5,1.8c0.2,0.2,0.4,0.5,0.5,0.8
				c1.2,2,2.5,3.8,4,5.6c0.9,1.1-0.7,2.5-1.6,1.4c-0.1-0.1-0.2-0.3-0.3-0.4c-0.2,0.2-0.4,0.3-0.7,0.3c-1.3,0.3-2.8-0.4-3.6-1.3
				C-541.5,642.9-543.3,638.6-541.7,637.1z"/>
		</g>
		<g>
			<path class="st31" d="M-547.6,605.3c1.2,2,3.9,3.7,6.1,4.6c0.3,0.1,0.7,0.1,0.9-0.1c0.1,0.3,0.2,0.5,0.3,0.8
				c0.5,1.3,2.4,0.4,1.9-0.9c-0.9-2.7-1.6-6.3-3.7-8.3c-1.2-1.1-3.7-2.3-5.4-1.5C-549.5,600.7-548.4,603.9-547.6,605.3z"/>
		</g>
		<path class="st31" d="M-533.5,621.1c1.2-2.2,0.6-5,1.8-7.2c0.3-0.6,0.9-1.2,1.6-1.2c0.2-0.1,0.3-0.1,0.6-0.1
			c1.9,0.2,2.9,2.4,1.6,3.8c-0.2,0.2-0.5,0.4-0.7,0.6c0,0.2,0,0.4,0,0.6c-0.1,0.3-0.2,0.7-0.4,1c-0.1,0.2-0.2,0.4-0.4,0.5
			c-0.1,0.2-0.1,0.4-0.2,0.5c-0.5,1.2-1.3,2.1-2.3,2.9C-532.9,623.3-534.1,622.1-533.5,621.1z"/>
		<g>
			<path class="st31" d="M-574.7,744.2c0.2,0,0.4-0.2,0.4-0.5c0.6-9.4,4.4-19.4,11.4-30.6c2.6-4.2,5.6-8.4,8.4-12.4
				c4.8-6.9,9.9-14,13.7-21.7c10.1-20.4,11.1-45.5,2.8-67.2c-0.1-0.3-0.4-0.4-0.7-0.3s-0.4,0.4-0.3,0.7c8.2,21.3,7.2,46.1-2.8,66.3
				c-3.8,7.6-8.7,14.7-13.6,21.6c-2.8,4-5.8,8.2-8.4,12.5c-7.1,11.4-10.9,21.5-11.5,31.1c0,0.3,0.2,0.5,0.5,0.6
				C-574.8,744.2-574.7,744.2-574.7,744.2z"/>
		</g>
		<g>
			<path class="st31" d="M-548.3,690.6l-0.3-0.4c-2.4-3.7-5-8-5-12.5c0-1.2,0.1-2.7,0.8-4c0.7-1.4,2.1-2.4,3.4-2.4
				c1.5-0.1,3,1,3.7,2.5c0.5,1.2,0.6,2.7,0.3,4.4c-0.3,1.3-0.7,2.6-1.2,3.8c-0.3,0.7-0.5,1.5-0.8,2.3c-0.7,2.4-0.7,4.3-0.1,5.9
				c0.1,0.2,0,0.5-0.2,0.6h-0.1C-548,690.8-548.2,690.7-548.3,690.6z M-551.9,674.1c-0.6,1.1-0.6,2.5-0.7,3.5c0,3.5,1.8,7,3.7,10.2
				c0-1.2,0.2-2.4,0.6-3.8c0.2-0.8,0.5-1.6,0.8-2.3c0.4-1.2,0.9-2.4,1.1-3.7c0.3-1.5,0.2-2.8-0.2-3.8c-0.5-1.2-1.7-2-2.8-2
				c-0.1,0-0.2,0-0.3,0C-550.6,672.5-551.4,673.1-551.9,674.1z"/>
		</g>
		<g>
			<path class="st31" d="M-542.1,693.1c-1.4,0-2.6-0.6-3.7-1.2c-0.6-0.4-1.2-0.7-1.8-0.9c-0.3-0.1-0.4-0.3-0.3-0.6
				c0.1-0.3,0.3-0.4,0.6-0.3c0.8,0.2,2.1-0.3,3.4-1.3c1-0.8,1.9-1.8,2.7-2.7c0.2-0.2,0.4-0.5,0.6-0.7c1.1-1.1,2.4-2.4,3.8-3.1
				c1.4-0.7,2.8-0.8,3.8-0.2c0.7,0.4,1.2,1,1.4,1.8c0.4,2.2-1.6,5.1-3.6,6.7c-1.6,1.2-3.4,2.1-5.3,2.4
				C-541,693-541.6,693-542.1,693.1z M-536.3,683c-1.3,0.7-2.5,1.9-3.5,2.9c-0.2,0.2-0.4,0.4-0.6,0.7c-0.9,1-1.8,2-2.9,2.8
				c-0.4,0.3-1.3,1-2.4,1.3c0.1,0.1,0.2,0.1,0.4,0.2c1,0.6,2,1.2,3.1,1.1c2.2-0.1,4.5-0.9,6.4-2.4c2.1-1.7,3.6-4.2,3.3-5.8
				c-0.1-0.5-0.4-0.9-0.8-1.1c-0.5-0.2-1.1-0.3-1.7-0.2C-535.5,682.7-535.9,682.8-536.3,683z"/>
		</g>
		<g>
			<path class="st31" d="M-537.5,668.5c-4.4-1.3-7-3.6-7.8-7c-0.4-1.6-0.3-3.1,0.2-4.2c0.7-1.5,2.2-2.4,3.7-2.3
				c1.9,0.2,3,2.2,3.2,3.9c0.1,1.1,0,2.2-0.1,3.2c-0.1,0.6-0.1,1.1-0.2,1.7c0,0.8,0,2.9,1.4,3.9c0.2,0.1,0.3,0.4,0.2,0.6
				c-0.1,0.1-0.2,0.2-0.3,0.3C-537.4,668.5-537.5,668.5-537.5,668.5z M-544.3,657.6c-0.4,1-0.5,2.2-0.1,3.6c0.7,2.7,2.5,4.6,5.6,5.8
				c-0.6-1.1-0.7-2.5-0.6-3.3c0-0.6,0.1-1.2,0.2-1.8c0.1-1,0.2-2,0.1-3c-0.2-1.4-1.1-2.9-2.4-3c-0.2,0-0.4,0-0.6,0
				C-543.1,656.1-543.9,656.8-544.3,657.6z"/>
		</g>
		<g>
			<path class="st31" d="M-536.8,668.7c-0.2,0-0.4-0.2-0.4-0.4c0-0.2,0.1-0.4,0.3-0.5c1.5-0.5,3.1-2.9,4.1-4.3l0.2-0.3
				c0.3-0.5,0.7-1,1-1.5c0.7-1,1.4-2.1,2.2-3c0.8-0.9,1.6-1.5,2.5-1.8c1.1-0.4,2.3-0.3,3.2,0.2c1.1,0.7,1.7,2.2,1.5,3.7
				c-0.2,1.1-0.8,2.2-1.8,3.4c-2.1,2.3-4.9,3.9-8,4.4C-533.5,669-535.2,669-536.8,668.7z M-526.5,657.8c-0.7,0.3-1.4,0.8-2.1,1.5
				c-0.8,0.9-1.5,1.9-2.1,2.9c-0.3,0.5-0.7,1-1,1.5l-0.2,0.3c-0.8,1.2-2,2.8-3.3,3.9c3.9,0.2,7.9-1.4,10.5-4.3c0.9-1,1.4-2,1.6-2.9
				c0.2-1.1-0.3-2.2-1-2.7c-0.5-0.3-1.1-0.4-1.8-0.3C-526.1,657.7-526.3,657.8-526.5,657.8z"/>
		</g>
		<g>
			<path class="st31" d="M-538.7,613.1c-1.2-1.4-2.8-2.4-4.3-3.4c-0.5-0.3-0.9-0.6-1.4-0.9c-1.8-1.3-4.1-3-4.9-5.6
				c-0.4-1.3-0.5-3.2,0.9-4.2c0.7-0.6,1.8-0.7,2.8-0.5s1.8,0.8,2.4,1.3c4,3.1,5.4,8.8,5.5,13.1c0,0.2-0.1,0.4-0.3,0.5h-0.1
				C-538.4,613.3-538.6,613.3-538.7,613.1z M-547.9,599.7c-0.9,0.7-0.9,2.1-0.5,3.2c0.8,2.3,2.8,4,4.6,5.1c0.5,0.3,0.9,0.6,1.4,0.9
				c1.2,0.8,2.5,1.6,3.6,2.7c-0.3-3.9-1.7-8.5-5.1-11.1c-0.5-0.4-1.2-0.9-2-1.1c-0.4-0.1-0.8-0.1-1.1,0
				C-547.4,599.4-547.7,599.6-547.9,599.7z"/>
		</g>
		<g>
			<path class="st31" d="M-532.9,645.4c-0.1-0.2,0-0.5,0.2-0.6c1.1-0.7,2-2.3,2.3-4.2c0.1-0.6,0.2-1.2,0.2-1.8
				c0.1-1.1,0.2-2.2,0.6-3.3c0.6-1.7,2.1-3.7,4-3.9c1.5-0.2,2.9,0.9,3.2,2.5c0.3,1.2,0,2.7-0.7,4.4c-1.6,3.6-4.6,5.9-9.2,7.1l0,0
				C-532.6,645.7-532.8,645.6-532.9,645.4z M-528.6,635.8c-0.3,1-0.4,2-0.6,3.1c-0.1,0.6-0.1,1.2-0.2,1.8c-0.1,0.9-0.5,2.2-1.3,3.4
				c3.2-1.2,5.4-3.2,6.7-6c0.7-1.5,0.9-2.8,0.7-3.8s-1-1.9-2.1-1.8c-0.1,0-0.1,0-0.2,0C-527,632.8-528.2,634.4-528.6,635.8z"/>
		</g>
		<g>
			<path class="st31" d="M-534.8,624.8c-0.1-0.1-0.2-0.4-0.1-0.5c0.6-1.5,0.8-3.2,1-4.8c0.2-2.1,0.5-4.3,1.6-6.1
				c0.6-1.1,1.8-2.2,3.2-1.9c0.7,0.1,1.4,0.7,1.7,1.5c0.3,0.7,0.4,1.5,0.4,2.1c0.1,4-3.6,8-7.2,9.9h-0.1
				C-534.6,624.9-534.7,624.9-534.8,624.8z M-531.6,613.8c-1,1.7-1.2,3.7-1.5,5.8c-0.1,1.3-0.3,2.6-0.6,3.8c3-1.9,5.7-5.2,5.6-8.4
				c0-0.7-0.1-1.2-0.3-1.7c-0.2-0.5-0.6-0.8-1.1-0.9c-0.2,0-0.3,0-0.5,0C-530.6,612.5-531.2,613.1-531.6,613.8z"/>
		</g>
		<g>
			<path class="st31" d="M-539.8,625.9c-1.7-0.4-3.2-1.4-4.4-2.9c-0.9-1.2-1.3-2.5-1.2-3.6c0.1-0.7,0.4-1.4,0.9-1.8
				c0.5-0.4,1-0.5,1.6-0.4c1.1,0.2,1.9,1,2.7,1.9c0.4,0.4,0.7,0.9,1.1,1.4c1.1,1.4,2.4,3,3.7,3.6c0.1,0.1,0.3,0.2,0.3,0.4
				c0,0.2,0,0.3-0.2,0.4c-0.6,0.6-1.4,0.9-2.3,1.1C-538.2,626.1-539,626.1-539.8,625.9z M-539.8,621c-0.4-0.5-0.7-0.9-1.1-1.3
				c-0.7-0.8-1.4-1.5-2.1-1.6c-0.4-0.1-0.7,0.1-0.8,0.2c-0.3,0.3-0.5,0.7-0.6,1.2c-0.1,0.9,0.3,1.9,1,2.9c1,1.3,2.4,2.3,3.8,2.6
				c1.1,0.2,2.2,0.1,3.1-0.4C-537.7,623.7-538.8,622.3-539.8,621z"/>
		</g>
		<g>
			<path class="st31" d="M-537.5,645.9c-1.7-0.4-3.2-1.5-4.3-3c-1.2-1.7-1.7-3.9-1.2-5.5c0.4-1.4,1.5-2.3,2.7-2.1s2.2,1.4,3.2,2.6
				c0.9,1.1,1.6,2.4,2.3,3.7c0.7,1.2,1.4,2.5,2.2,3.6c0.1,0.1,0.1,0.3,0.1,0.5c-0.1,0.2-0.2,0.3-0.3,0.3c-0.2,0.1-0.4,0.1-0.6,0.1
				C-535.1,646.3-536.3,646.3-537.5,645.9z M-542.1,637.6c-0.4,1.4,0.1,3.3,1.1,4.7c0.9,1.3,2.3,2.2,3.7,2.6c1,0.3,2.1,0.3,3.3,0.1
				c-0.7-1-1.3-2-1.8-3.1c-0.7-1.2-1.4-2.5-2.2-3.6c-0.8-1-1.6-2.1-2.5-2.2c-0.1,0-0.2,0-0.4,0C-541.5,636.4-541.9,637-542.1,637.6z
				"/>
		</g>
		
			<text transform="matrix(0.9255 -0.3788 0.3788 0.9255 -655.8813 681.925)" class="st31" style="font-family:'Nickainley'; font-size:33.5107px;">Cry Baby</text>
		
			<text transform="matrix(0.917 -0.399 0.399 0.917 -614.2513 683.2332)" class="st31" style="font-family:'Nickainley'; font-size:18.4748px;">brewery</text>
	</g>
	<path id="XMLID_1533_" class="st31" d="M-731.4,519.5l4,3.8l7.4,0.6l0.4,1.9l-1.4,4.3l-3.2,1l4.7,2.9l7.4-1l0.8,1.7l-0.5,4.5
		l-2.9,1.6l5.2,1.9l7-2.5l1.1,1.6l0.5,4.5l-2.5,2.2l5.5,0.7l6.4-3.9l1.4,1.3l1.4,4.3l-2,2.7l5.5-0.4l5.4-5.1l1.6,1l2.3,3.9l-1.4,3
		l5.3-1.6l4.2-6.1l1.8,0.6l3,3.3l-0.7,3.3l4.9-2.6l2.9-6.9l1.9,0.2l3.6,2.6v3.3l4.2-3.6l1.4-7.3l1.9-0.2l4.1,1.8l0.7,3.3l3.4-4.4
		l-0.2-7.5l1.8-0.6l4.4,0.9l1.3,3.1l2.4-5l-1.7-7.3l1.7-0.9h4.5l1.9,2.7l1.3-5.4l-3.2-6.7l1.4-1.3l4.4-0.9l2.5,2.3l0.2-5.5l-4.5-5.9
		l1.1-1.5l4.1-1.8l2.9,1.7l-1-5.5l-5.7-4.9l0.8-1.7l3.6-2.6l3.2,1.1l-2.1-5.1l-6.6-3.6l0.4-1.9l3-3.3l3.3,0.4l-3.1-4.6l-7.2-2.1
		v-1.9l2.3-3.9l3.3-0.3l-4-3.8l-7.4-0.6l-0.4-1.9l1.4-4.3l3.2-1l-4.7-2.9l-7.4,1l-0.8-1.7l0.5-4.5l2.9-1.6l-5.2-1.9l-7,2.5l-1.1-1.6
		l-0.5-4.5l2.5-2.2l-5.5-0.7l-6.4,3.9l-1.4-1.3l-1.4-4.3l2-2.7l-5.5,0.4l-5.4,5.1l-1.6-1l-2.3-3.9l1.4-3l-5.3,1.6l-4.2,6.2l-1.8-0.6
		l-3-3.3l0.7-3.3l-4.9,2.6l-2.9,6.9l-1.9-0.2l-3.6-2.6v-3.3l-4.2,3.6l-1.4,7.3l-1.9,0.2l-4.1-1.8l-0.7-3.3l-3.4,4.4l0.2,7.5
		l-1.8,0.6l-4.4-0.9l-1.3-3.1l-2.4,5l1.7,7.3l-1.7,0.9h-4.5l-1.9-2.7l-1.3,5.4l3.2,6.7l-1.4,1.3l-4.4,0.9l-2.5-2.3l-0.2,5.5l4.5,5.9
		l-1.1,1.5l-4.1,1.8l-2.9-1.7l1,5.5l5.7,4.9l-0.8,1.7l-3.6,2.6l-3.2-1.1l2.1,5.1l6.6,3.6l-0.4,1.9l-3,3.3l-3.3-0.4l3.1,4.6l7.2,2.1
		v1.9l-2.3,3.9L-731.4,519.5z"/>
	<path id="XMLID_467_" class="st7" d="M-672.7,543.2c-28.9,0-52.4-23.5-52.4-52.4s23.5-52.4,52.4-52.4c28.9,0,52.4,23.5,52.4,52.4
		C-620.3,519.7-643.8,543.2-672.7,543.2z M-672.7,439.9c-28,0-50.9,22.8-50.9,50.9s22.8,50.9,50.9,50.9c28.1,0,50.9-22.8,50.9-50.9
		S-644.7,439.9-672.7,439.9z"/>
	<g id="XMLID_470_">
		<rect id="XMLID_1502_" x="-764.6" y="467.1" class="st31" width="183.7" height="47.3"/>
		<path id="XMLID_471_" class="st31" d="M-580.1,515.2h-185.3v-48.8h185.3V515.2L-580.1,515.2z M-763.8,513.7h182.2v-45.8h-182.2
			V513.7z"/>
	</g>
	<g id="XMLID_474_">
		<path id="XMLID_475_" class="st7" d="M-758.2,508.7V504h2.5v-26.5h-2.5v-4.7h22.5l5.5,5.3v25.2l-5.5,5.3L-758.2,508.7
			L-758.2,508.7z M-739.7,504l2.6-2.4V480l-2.6-2.5h-9.1V504H-739.7L-739.7,504z"/>
		<path id="XMLID_478_" class="st7" d="M-727.2,508.7V504h2.5v-26.5h-2.5v-4.7h22.5l5.5,5.3v8.3l-3.8,3.6l3.8,3.6v10.3h2.5v4.7h-9.4
			v-13.8l-2.6-2.5h-9.1V504h2.5v4.7H-727.2L-727.2,508.7z M-708.7,487.8l2.6-2.5V480l-2.6-2.5h-9.1v10.2L-708.7,487.8L-708.7,487.8z
			"/>
		<path id="XMLID_481_" class="st7" d="M-694.5,508.7V504h1.8l9.2-26.5h-2.7v-4.7h17.6v4.7h-2.9l9.1,26.5h1.9v4.7H-672V504h2.3
			l-2.2-6.3h-11.4l-2.2,6.3h2.3v4.7H-694.5z M-673,494.5l-4.5-13.2l-4.5,13.2H-673z"/>
		<path id="XMLID_484_" class="st7" d="M-658.2,508.7V504l18.4-26.5h-13.6v2.4h-4.8v-7h26.6v4.7l-18.4,26.5h13.6v-2.4h4.8v7H-658.2z
			"/>
		<path id="XMLID_486_" class="st7" d="M-629.3,508.7V504h2.5v-26.5h-2.5v-4.7h11.9v4.7h-2.5V504h2.5v4.7H-629.3z"/>
		<path id="XMLID_488_" class="st7" d="M-614.4,503.4v-25.2l5.5-5.3h16.2l5.5,5.3v5.7h-6.9V480l-2.5-2.5h-8.3l-2.5,2.5v21.6l2.5,2.4
			h8.3l2.5-2.4v-3.7h6.9v5.5l-5.5,5.3h-16.2L-614.4,503.4z"/>
	</g>
	<g>
		<path class="st31" d="M-642.7,376.4c-1.7,0-3.4,0.1-5.1,0.4l35.6-35.6c1.5-1.5,1.5-3.8,0-5.3s-3.8-1.5-5.3,0l-50.7,50.7
			c-0.1,0.1-0.2,0.2-0.3,0.3c-7.2,7-11.1,16.3-11.1,26.4c0,11,4.9,21.4,13.4,28.4c6.6,5.4,14.9,8.4,23.5,8.4
			c20.3,0,36.9-16.5,36.9-36.9C-605.8,392.8-622.4,376.4-642.7,376.4z M-642.7,442.7c-6.8,0-13.5-2.4-18.7-6.7
			c-6.8-5.6-10.7-13.9-10.7-22.7c0-8.2,3.3-15.7,9.2-21.3c5.5-5.2,12.7-8.1,20.2-8.1c16.2,0,29.4,13.2,29.4,29.4
			C-613.3,429.5-626.5,442.7-642.7,442.7z"/>
		<g>
			<path class="st31" d="M-666.7,374.7c-1,0-1.9-0.4-2.6-1.1c-1.5-1.5-1.5-3.8,0-5.3l26.1-26.1h-0.6c-2.1,0-3.7-1.7-3.7-3.7
				s1.7-3.7,3.7-3.7h9.6c1.5,0,2.9,0.9,3.4,2.3c0.6,1.4,0.3,3-0.8,4.1l-32.5,32.5C-664.8,374.3-665.7,374.7-666.7,374.7z"/>
		</g>
		<path class="st31" d="M-681.3,376.4c-1.7,0-3.4,0.1-5,0.3l35.5-35.5c1.1-1.1,1.4-2.7,0.8-4.1s-1.9-2.3-3.4-2.3h-53.4
			c-2.1,0-3.7,1.7-3.7,3.7s1.7,3.7,3.7,3.7h44.4l-44.1,44.1c0,0,0,0-0.1,0.1c-1.1,1-2.1,2.1-3.1,3.3c-1.3,1.6-1.1,3.9,0.5,5.3
			c1.6,1.3,3.9,1.1,5.3-0.5c0.7-0.9,1.5-1.7,2.4-2.5l0.1-0.1l0.1-0.1c5.5-5.2,12.6-8,20.2-8c16.2,0,29.4,13.2,29.4,29.4
			s-13.2,29.4-29.4,29.4c-6.8,0-13.5-2.4-18.7-6.7c-1.4-1.2-2.8-2.5-4-4c-1.3-1.6-3.7-1.8-5.3-0.5c-1.6,1.3-1.8,3.7-0.5,5.3
			c1.5,1.8,3.2,3.5,5,5c6.6,5.4,14.9,8.4,23.5,8.4c20.3,0,36.9-16.5,36.9-36.9C-644.2,392.8-661,376.4-681.3,376.4z"/>
		<g class="st33">
			<path class="st31" d="M-662,444.7c0.5,0.3,1,0.6,1.5,0.8c2.3-1.5,4.5-3.2,6.4-5.2c-0.5-0.2-1-0.4-1.5-0.7
				C-657.6,441.6-659.7,443.2-662,444.7z"/>
		</g>
		<g class="st33">
			<path class="st31" d="M-660.9,392.1c2-1.7,4.1-3.1,6.4-4.1c-0.4-0.4-0.7-0.8-1.1-1.1c-2.3,1.1-4.4,2.5-6.4,4.2
				C-661.7,391.4-661.3,391.7-660.9,392.1z"/>
		</g>
		<g>
			<path class="st31" d="M-711.4,464.4v4.9c0,0.5,0.1,0.8,0.4,1.1c0.2,0.3,0.6,0.4,1,0.4s0.9-0.2,1.3-0.6l0.8,1.4
				c-0.7,0.6-1.5,1-2.4,1s-1.6-0.3-2.2-0.9s-0.9-1.4-0.9-2.4v-4.8h-1.2v-1.6h1.2v-3h2v3h2.5v1.6h-2.5V464.4z"/>
			<path class="st31" d="M-704.3,467.2v5.2h-2V459h2v5.5c0.3-0.6,0.7-1.1,1.3-1.4c0.6-0.3,1.2-0.5,1.9-0.5c1.1,0,2,0.3,2.6,1
				c0.7,0.7,1,1.6,1,2.9v5.9h-2v-5.3c0-1.8-0.7-2.7-2.2-2.7c-0.7,0-1.3,0.2-1.8,0.7C-704,465.6-704.3,466.3-704.3,467.2z"/>
			<path class="st31" d="M-689.5,464.6c-1,0-1.8,0.3-2.3,1s-0.8,1.5-0.8,2.6v4.1h-2v-9.6h2v1.9c0.3-0.6,0.8-1.1,1.3-1.5
				c0.6-0.4,1.2-0.6,1.8-0.6v2C-689.4,464.6-689.5,464.6-689.5,464.6z"/>
			<path class="st31" d="M-678.4,468.4h-7.6c0,0.7,0.4,1.3,1,1.7c0.6,0.4,1.3,0.6,2,0.6c1.2,0,2.1-0.4,2.8-1.1l1.2,1.3
				c-1,1.1-2.4,1.6-4.1,1.6c-1.4,0-2.5-0.5-3.5-1.4c-0.9-0.9-1.4-2.1-1.4-3.6s0.5-2.7,1.5-3.6s2.1-1.3,3.4-1.3
				c1.3,0,2.4,0.4,3.3,1.2c0.9,0.8,1.4,1.9,1.4,3.3V468.4L-678.4,468.4z M-686,466.9h5.5c0-0.8-0.3-1.4-0.8-1.9s-1.1-0.7-1.9-0.7
				s-1.4,0.2-2,0.7C-685.7,465.5-686,466.1-686,466.9z"/>
			<path class="st31" d="M-667.2,468.4h-7.6c0,0.7,0.4,1.3,1,1.7c0.6,0.4,1.3,0.6,2,0.6c1.2,0,2.1-0.4,2.8-1.1l1.2,1.3
				c-1,1.1-2.4,1.6-4.1,1.6c-1.4,0-2.5-0.5-3.5-1.4c-0.9-0.9-1.4-2.1-1.4-3.6s0.5-2.7,1.5-3.6s2.1-1.3,3.4-1.3
				c1.3,0,2.4,0.4,3.3,1.2s1.4,1.9,1.4,3.3L-667.2,468.4L-667.2,468.4z M-674.8,466.9h5.5c0-0.8-0.3-1.4-0.8-1.9
				c-0.5-0.4-1.1-0.7-1.9-0.7c-0.7,0-1.4,0.2-2,0.7C-674.5,465.5-674.8,466.1-674.8,466.9z"/>
			<path class="st31" d="M-658.1,469.5c0,0.9-0.3,1.7-1,2.2c-0.7,0.6-1.5,0.8-2.6,0.8c-0.7,0-1.4-0.1-2.2-0.4
				c-0.8-0.3-1.4-0.6-2-1.1l1-1.6c1.1,0.8,2.2,1.3,3.3,1.3c0.5,0,0.8-0.1,1.1-0.3s0.4-0.5,0.4-0.8c0-0.5-0.6-0.9-1.9-1.3
				c-0.1,0-0.2-0.1-0.2-0.1c-2-0.5-3-1.5-3-2.7c0-0.9,0.3-1.6,1-2.1c0.7-0.5,1.6-0.8,2.7-0.8s2.2,0.3,3.2,1l-0.8,1.5
				c-0.8-0.5-1.6-0.8-2.6-0.8c-0.5,0-0.9,0.1-1.2,0.3c-0.3,0.2-0.5,0.4-0.5,0.8c0,0.3,0.2,0.5,0.5,0.7c0.2,0.1,0.5,0.2,0.9,0.3
				c0.4,0.1,0.7,0.2,1,0.3s0.6,0.2,0.9,0.3c0.3,0.1,0.6,0.3,0.9,0.5C-658.4,467.9-658.1,468.6-658.1,469.5z"/>
			<path class="st31" d="M-655.7,460.8c-0.3-0.3-0.4-0.6-0.4-0.9c0-0.4,0.1-0.7,0.4-0.9c0.3-0.3,0.6-0.4,0.9-0.4
				c0.4,0,0.7,0.1,0.9,0.4c0.2,0.3,0.4,0.6,0.4,0.9c0,0.4-0.1,0.7-0.4,0.9c-0.3,0.2-0.6,0.4-0.9,0.4S-655.4,461.1-655.7,460.8z
				 M-653.8,472.4h-2v-9.6h2V472.4z"/>
			<path class="st31" d="M-649.3,462.7l2.1,3.2l2.1-3.2h2.4l-3.4,4.7l3.5,4.9h-2.4l-2.3-3.2l-2.2,3.2h-2.4l3.4-4.9l-3.2-4.7H-649.3z
				"/>
			<path class="st31" d="M-638.2,464.4v4.9c0,0.5,0.1,0.8,0.4,1.1c0.2,0.3,0.6,0.4,1,0.4c0.4,0,0.9-0.2,1.3-0.6l0.8,1.4
				c-0.7,0.6-1.5,1-2.4,1c-0.9,0-1.6-0.3-2.2-0.9s-0.9-1.4-0.9-2.4v-4.8h-1.2v-1.6h1.2v-3h2v3h2.5v1.6h-2.5V464.4z"/>
			<path class="st31" d="M-624.2,468.4h-7.6c0,0.7,0.4,1.3,1,1.7c0.6,0.4,1.3,0.6,2,0.6c1.2,0,2.1-0.4,2.8-1.1l1.2,1.3
				c-1,1.1-2.4,1.6-4.1,1.6c-1.4,0-2.5-0.5-3.5-1.4c-0.9-0.9-1.4-2.1-1.4-3.6s0.5-2.7,1.5-3.6s2.1-1.3,3.4-1.3
				c1.3,0,2.4,0.4,3.3,1.2c0.9,0.8,1.4,1.9,1.4,3.3C-624.2,467.1-624.2,468.4-624.2,468.4z M-631.7,466.9h5.5c0-0.8-0.3-1.4-0.8-1.9
				s-1.1-0.7-1.9-0.7c-0.7,0-1.4,0.2-2,0.7C-631.4,465.5-631.7,466.1-631.7,466.9z"/>
			<path class="st31" d="M-613,468.4h-7.6c0,0.7,0.4,1.3,1,1.7c0.6,0.4,1.3,0.6,2,0.6c1.2,0,2.1-0.4,2.8-1.1l1.2,1.3
				c-1,1.1-2.4,1.6-4.1,1.6c-1.4,0-2.5-0.5-3.5-1.4c-0.9-0.9-1.4-2.1-1.4-3.6s0.5-2.7,1.5-3.6s2.1-1.3,3.4-1.3s2.4,0.4,3.3,1.2
				c0.9,0.8,1.4,1.9,1.4,3.3C-613,467.1-613,468.4-613,468.4z M-620.5,466.9h5.5c0-0.8-0.3-1.4-0.8-1.9c-0.5-0.4-1.1-0.7-1.9-0.7
				s-1.4,0.2-2,0.7C-620.2,465.5-620.5,466.1-620.5,466.9z"/>
			<path class="st31" d="M-608.7,467.2v5.2h-2v-9.6h2v1.8c0.3-0.6,0.8-1.1,1.4-1.4c0.6-0.3,1.2-0.5,1.9-0.5c1.1,0,2,0.3,2.6,1
				c0.7,0.7,1,1.6,1,2.9v5.9h-2v-5.3c0-1.8-0.7-2.7-2.2-2.7c-0.7,0-1.3,0.2-1.8,0.7C-608.4,465.6-608.7,466.3-608.7,467.2z"/>
		</g>
		<g>
			<path class="st31" d="M-691.1,484c0,0.5-0.2,0.9-0.6,1.2c-0.4,0.3-0.8,0.5-1.4,0.5c-0.4,0-0.8-0.1-1.2-0.2
				c-0.4-0.1-0.8-0.3-1.1-0.6l0.5-0.9c0.6,0.5,1.2,0.7,1.8,0.7c0.3,0,0.5-0.1,0.6-0.2c0.1-0.1,0.2-0.3,0.2-0.4
				c0-0.3-0.4-0.5-1.1-0.7c-0.1,0-0.1,0-0.1,0c-1.1-0.3-1.7-0.8-1.7-1.5c0-0.5,0.2-0.9,0.6-1.2c0.4-0.3,0.9-0.4,1.5-0.4
				c0.6,0,1.2,0.2,1.8,0.5l-0.4,0.8c-0.4-0.3-0.9-0.4-1.4-0.4c-0.3,0-0.5,0-0.7,0.1c-0.2,0.1-0.3,0.2-0.3,0.4c0,0.2,0.1,0.3,0.3,0.4
				c0.1,0.1,0.3,0.1,0.5,0.2s0.4,0.1,0.6,0.2c0.2,0.1,0.3,0.1,0.5,0.2c0.2,0.1,0.3,0.2,0.5,0.3C-691.3,483.1-691.1,483.5-691.1,484z
				"/>
			<path class="st31" d="M-688.4,481.1v2.7c0,0.3,0.1,0.5,0.2,0.6c0.1,0.2,0.3,0.2,0.6,0.2c0.3,0,0.5-0.1,0.7-0.4l0.5,0.8
				c-0.4,0.4-0.8,0.5-1.3,0.5s-0.9-0.2-1.2-0.5c-0.3-0.3-0.5-0.8-0.5-1.3V481h-0.7v-0.9h0.7v-1.7h1.1v1.7h1.4v0.9h-1.5V481.1z"/>
			<path class="st31" d="M-682.8,481.3c-0.6,0-1,0.2-1.3,0.5c-0.3,0.4-0.4,0.9-0.4,1.5v2.3h-1.1v-5.4h1.1v1.1
				c0.2-0.3,0.4-0.6,0.7-0.8c0.3-0.2,0.6-0.3,1-0.3V481.3L-682.8,481.3z"/>
			<path class="st31" d="M-677.3,485.6h-1v-0.7c-0.4,0.5-1,0.8-1.8,0.8c-0.6,0-1-0.2-1.4-0.5s-0.6-0.7-0.6-1.3
				c0-0.5,0.2-0.9,0.6-1.2s0.9-0.4,1.6-0.4h1.5v-0.2c0-0.7-0.4-1.1-1.2-1.1c-0.5,0-1,0.2-1.6,0.5l-0.5-0.7c0.7-0.5,1.4-0.8,2.2-0.8
				c0.6,0,1.1,0.2,1.6,0.5c0.4,0.3,0.6,0.8,0.6,1.5V485.6L-677.3,485.6z M-678.4,483.6v-0.5h-1.3c-0.8,0-1.2,0.3-1.2,0.8
				c0,0.3,0.1,0.5,0.3,0.6c0.2,0.1,0.5,0.2,0.8,0.2c0.4,0,0.7-0.1,0.9-0.3C-678.6,484.2-678.4,484-678.4,483.6z"/>
			<path class="st31" d="M-674.4,481.1v2.7c0,0.3,0.1,0.5,0.2,0.6c0.1,0.2,0.3,0.2,0.6,0.2c0.2,0,0.5-0.1,0.7-0.4l0.5,0.8
				c-0.4,0.4-0.8,0.5-1.3,0.5s-0.9-0.2-1.2-0.5c-0.3-0.3-0.5-0.8-0.5-1.3V481h-0.7v-0.9h0.7v-1.7h1.1v1.7h1.4v0.9h-1.5V481.1z"/>
			<path class="st31" d="M-666.6,483.4h-4.2c0,0.4,0.2,0.7,0.5,0.9s0.7,0.4,1.1,0.4c0.7,0,1.2-0.2,1.5-0.6l0.6,0.7
				c-0.6,0.6-1.3,0.9-2.3,0.9c-0.8,0-1.4-0.3-1.9-0.8s-0.8-1.2-0.8-2s0.3-1.5,0.8-2s1.2-0.7,1.9-0.7c0.7,0,1.4,0.2,1.9,0.7
				c0.5,0.4,0.8,1,0.8,1.8v0.7H-666.6z M-670.8,482.5h3.1c0-0.5-0.1-0.8-0.4-1c-0.3-0.2-0.6-0.4-1-0.4c-0.4,0-0.8,0.1-1.1,0.4
				C-670.6,481.8-670.8,482.1-670.8,482.5z"/>
			<path class="st31" d="M-660.3,480.2v4.7c0,0.9-0.3,1.7-0.8,2.1c-0.5,0.5-1.2,0.7-2,0.7c-0.8,0-1.5-0.3-2.2-0.8l0.5-0.9
				c0.5,0.4,1.1,0.6,1.6,0.6s1-0.1,1.3-0.4c0.3-0.3,0.5-0.7,0.5-1.3v-0.7c-0.2,0.3-0.4,0.6-0.7,0.8c-0.3,0.2-0.7,0.3-1.1,0.3
				c-0.7,0-1.3-0.2-1.8-0.7s-0.7-1.1-0.7-1.9c0-0.7,0.2-1.4,0.7-1.9s1-0.7,1.8-0.7c0.7,0,1.3,0.3,1.7,0.9v-0.8H-660.3L-660.3,480.2z
				 M-664.5,482.7c0,0.4,0.1,0.8,0.4,1.1c0.3,0.3,0.6,0.5,1.1,0.5s0.8-0.2,1.1-0.5c0.3-0.3,0.4-0.7,0.4-1.2s-0.1-0.9-0.4-1.2
				c-0.3-0.3-0.7-0.5-1.1-0.5c-0.5,0-0.8,0.2-1.1,0.5C-664.4,481.9-664.5,482.3-664.5,482.7z"/>
			<path class="st31" d="M-658,487.8c-0.5,0-0.9-0.2-1.3-0.5l0.5-0.9c0.2,0.2,0.5,0.3,0.7,0.3c0.3,0,0.5-0.1,0.6-0.3
				c0.2-0.2,0.2-0.4,0.2-0.6c0-0.1-0.7-1.9-2.2-5.5h1.2l1.6,4l1.6-4h1.2l-2.6,6.4c-0.2,0.3-0.4,0.6-0.7,0.8
				C-657.4,487.7-657.7,487.8-658,487.8z"/>
			<path class="st31" d="M-645.2,480.2v4.7c0,0.9-0.3,1.7-0.8,2.1c-0.5,0.5-1.2,0.7-2,0.7s-1.5-0.3-2.2-0.8l0.5-0.9
				c0.5,0.4,1.1,0.6,1.6,0.6s1-0.1,1.3-0.4s0.5-0.7,0.5-1.3v-0.7c-0.2,0.3-0.4,0.6-0.7,0.8c-0.3,0.2-0.7,0.3-1.1,0.3
				c-0.7,0-1.3-0.2-1.8-0.7s-0.7-1.1-0.7-1.9c0-0.7,0.2-1.4,0.7-1.9s1-0.7,1.8-0.7c0.7,0,1.3,0.3,1.7,0.9v-0.8H-645.2L-645.2,480.2z
				 M-649.4,482.7c0,0.4,0.1,0.8,0.4,1.1c0.3,0.3,0.6,0.5,1.1,0.5s0.8-0.2,1.1-0.5c0.3-0.3,0.4-0.7,0.4-1.2s-0.1-0.9-0.4-1.2
				c-0.3-0.3-0.7-0.5-1.1-0.5c-0.5,0-0.8,0.2-1.1,0.5C-649.2,481.9-649.4,482.3-649.4,482.7z"/>
			<path class="st31" d="M-640.7,481.3c-0.6,0-1,0.2-1.3,0.5c-0.3,0.4-0.4,0.9-0.4,1.5v2.3h-1.1v-5.4h1.1v1.1
				c0.2-0.3,0.4-0.6,0.7-0.8c0.3-0.2,0.6-0.3,1-0.3V481.3L-640.7,481.3z"/>
			<path class="st31" d="M-635.1,484.9c-0.5,0.5-1.2,0.8-2,0.8c-0.8,0-1.5-0.3-2-0.8s-0.8-1.2-0.8-2s0.3-1.4,0.8-2
				c0.5-0.5,1.2-0.8,2-0.8c0.8,0,1.5,0.3,2,0.8s0.8,1.2,0.8,2S-634.6,484.4-635.1,484.9z M-638.4,484.2c0.3,0.3,0.7,0.5,1.2,0.5
				s0.9-0.2,1.2-0.5c0.3-0.3,0.5-0.7,0.5-1.3c0-0.5-0.2-0.9-0.5-1.3c-0.3-0.4-0.7-0.5-1.2-0.5s-0.9,0.2-1.2,0.5
				c-0.3,0.3-0.5,0.7-0.5,1.3C-638.8,483.4-638.7,483.9-638.4,484.2z"/>
			<path class="st31" d="M-629.3,483.1v-2.9h1.1v5.4h-1.1v-1c-0.2,0.3-0.4,0.6-0.8,0.8c-0.3,0.2-0.7,0.3-1,0.3
				c-0.6,0-1.1-0.2-1.5-0.6c-0.4-0.4-0.6-0.9-0.6-1.6v-3.3h1.1v2.9c0,1,0.4,1.5,1.2,1.5c0.4,0,0.7-0.1,1-0.4
				C-629.4,484-629.3,483.6-629.3,483.1z"/>
			<path class="st31" d="M-623.6,480.2c0.7,0,1.3,0.2,1.8,0.7s0.8,1.2,0.8,2s-0.3,1.5-0.8,2s-1.1,0.8-1.8,0.8
				c-0.7,0-1.3-0.3-1.8-0.9v2.8h-1.1v-7.3h1.1v0.9C-624.9,480.5-624.4,480.2-623.6,480.2z M-625.4,482.9c0,0.5,0.2,0.9,0.5,1.3
				c0.3,0.4,0.7,0.5,1.1,0.5c0.4,0,0.8-0.2,1.2-0.5c0.3-0.3,0.5-0.7,0.5-1.3c0-0.5-0.2-0.9-0.5-1.3c-0.3-0.3-0.7-0.5-1.2-0.5
				s-0.8,0.2-1.1,0.5C-625.2,482-625.4,482.4-625.4,482.9z"/>
		</g>
	</g>
	<g>
		<g>
			<g>
				<g>
					<path class="st31" d="M-509,532.3c0,1.7-0.6,3.1-1.8,4.3c-1.1,1.1-2.6,1.8-4.5,1.8c-1.8,0-3.3-0.6-4.5-1.8
						c-1.1-1.1-1.8-2.6-1.8-4.3s0.6-3.1,1.8-4.3c1.1-1.1,2.6-1.8,4.5-1.8c1.8,0,3.3,0.6,4.5,1.8C-509.6,529.2-509,530.7-509,532.3z
						 M-518.2,532.3c0,1,0.3,1.8,0.8,2.4c0.5,0.6,1.3,0.9,2.1,0.9c0.8,0,1.6-0.3,2.1-0.9c0.5-0.6,0.8-1.4,0.8-2.4s-0.3-1.8-0.8-2.4
						c-0.5-0.6-1.3-0.9-2.1-0.9c-0.8,0-1.6,0.3-2.1,0.9C-517.9,530.6-518.2,531.4-518.2,532.3z"/>
				</g>
			</g>
			<g>
				<g>
					<path class="st31" d="M-495.8,531.9v6.3h-3.3v-6.4c0-0.9-0.1-1.6-0.4-2.1c-0.3-0.4-0.7-0.6-1.4-0.6c-0.7,0-1.2,0.2-1.7,0.7
						s-0.7,1.1-0.7,2.1v6.3h-3.3v-11.8h3.3v1.3c0.9-1,1.9-1.5,3.1-1.5c0.7,0,1.4,0.2,2,0.6c0.6,0.4,1.1,1,1.4,1.6
						c0.4-0.7,1.1-1.3,1.8-1.7c0.8-0.4,1.5-0.6,2.3-0.6c1.4,0,2.5,0.4,3.3,1.2c0.8,0.8,1.3,2,1.3,3.5v7.1h-3.3v-6.4
						c0-1.8-0.7-2.7-2-2.7c-0.6,0-1.2,0.2-1.7,0.7C-495.6,530.3-495.8,531-495.8,531.9z"/>
				</g>
			</g>
			<g>
				<g>
					<path class="st31" d="M-475.2,538.2h-3.1v-1.4c-0.8,1.1-1.9,1.6-3.1,1.6c-1.3,0-2.3-0.4-3.1-1.1c-0.8-0.7-1.3-1.7-1.3-2.9
						c0-1.2,0.4-2.1,1.3-2.7c0.9-0.6,2.1-0.9,3.6-0.9h2.5v-0.1c0-1.3-0.7-1.9-2-1.9c-0.6,0-1.1,0.1-1.8,0.3
						c-0.6,0.2-1.1,0.5-1.6,0.8l-1.5-2.1c1.6-1.1,3.3-1.7,5.3-1.7c1.4,0,2.6,0.4,3.5,1.1s1.4,1.8,1.4,3.4L-475.2,538.2L-475.2,538.2
						L-475.2,538.2z M-478.5,533.7v-0.6h-2.1c-1.3,0-2,0.4-2,1.2c0,0.4,0.2,0.7,0.5,1c0.3,0.2,0.8,0.3,1.4,0.3s1.1-0.2,1.6-0.5
						C-478.7,534.8-478.5,534.3-478.5,533.7z"/>
				</g>
			</g>
			<g>
				<g>
					<path class="st31" d="M-468.9,531.9v6.3h-3.3V522h3.3v5.7c1-1,2.1-1.5,3.3-1.5s2.3,0.4,3.1,1.3s1.3,2,1.3,3.5v7.1h-3.3v-6.4
						c0-1.8-0.7-2.7-2-2.7c-0.6,0-1.2,0.2-1.7,0.7C-468.7,530.3-468.9,531-468.9,531.9z"/>
				</g>
			</g>
			<g>
				<g>
					<path class="st31" d="M-448.3,538.2h-3.1v-1.4c-0.8,1.1-1.9,1.6-3.1,1.6c-1.3,0-2.3-0.4-3.1-1.1s-1.3-1.7-1.3-2.9
						c0-1.2,0.4-2.1,1.3-2.7c0.9-0.6,2.1-0.9,3.6-0.9h2.5v-0.1c0-1.3-0.7-1.9-2-1.9c-0.6,0-1.1,0.1-1.8,0.3
						c-0.6,0.2-1.1,0.5-1.6,0.8l-1.5-2.1c1.6-1.1,3.3-1.7,5.3-1.7c1.4,0,2.6,0.4,3.5,1.1s1.4,1.8,1.4,3.4L-448.3,538.2L-448.3,538.2
						L-448.3,538.2z M-451.6,533.7v-0.6h-2.1c-1.3,0-2,0.4-2,1.2c0,0.4,0.2,0.7,0.5,1c0.3,0.2,0.8,0.3,1.4,0.3
						c0.6,0,1.1-0.2,1.6-0.5C-451.8,534.8-451.6,534.3-451.6,533.7z"/>
				</g>
			</g>
			<g>
				<g>
					<path class="st31" d="M-445,537.8c-0.4-0.4-0.5-0.8-0.5-1.4c0-0.5,0.2-1,0.5-1.4c0.4-0.4,0.8-0.5,1.4-0.5c0.5,0,1,0.2,1.4,0.5
						c0.4,0.4,0.5,0.8,0.5,1.4c0,0.5-0.2,1-0.5,1.4c-0.4,0.4-0.8,0.5-1.4,0.5C-444.2,538.4-444.7,538.2-445,537.8z"/>
				</g>
			</g>
			<g>
				<g>
					<path class="st31" d="M-434.3,538.7c-1.5,0-2.8-0.6-4-1.9c-1.1-1.2-1.8-2.8-1.8-4.6s0.6-3.3,1.7-4.5c1.1-1.2,2.5-1.8,4-1.8
						c1.2,0,2.3,0.4,3.1,1v-5.3h4v16.9h-4v-1C-432,538.3-433.1,538.7-434.3,538.7z M-434.3,526.6c-1.3,0-2.5,0.5-3.5,1.6
						c-1,1-1.5,2.4-1.5,4.1s0.5,3,1.6,4.1c1,1.1,2.2,1.7,3.4,1.7c1.3,0,2.3-0.5,3.2-1.6l0.6-0.8v2.2h2.6v-15.5h-2.6v6.3l-0.6-0.7
						C-431.9,527.1-433,526.6-434.3,526.6z M-433.5,535.9c-0.9,0-1.6-0.4-2.3-1c-0.6-0.7-0.9-1.5-0.9-2.6s0.3-1.9,0.9-2.6
						c0.6-0.7,1.4-1.1,2.3-1.1c0.9,0,1.6,0.4,2.2,1.1c0.6,0.7,0.9,1.6,0.9,2.6s-0.3,1.9-0.9,2.6
						C-431.9,535.6-432.6,535.9-433.5,535.9z M-433.5,529.4c-0.7,0-1.2,0.3-1.7,0.8c-0.5,0.6-0.7,1.3-0.7,2.1c0,0.9,0.3,1.6,0.7,2.1
						c0.5,0.5,1.1,0.8,1.7,0.8c0.6,0,1.2-0.3,1.7-0.8s0.7-1.2,0.7-2.1c0-0.9-0.2-1.6-0.7-2.2C-432.3,529.6-432.8,529.4-433.5,529.4z
						"/>
				</g>
			</g>
			<g>
				<g>
					<path class="st31" d="M-418.9,538.7c-1.9,0-3.4-0.6-4.7-1.8c-1.3-1.2-1.9-2.7-1.9-4.6c0-1.8,0.6-3.3,1.9-4.6
						c1.2-1.3,2.8-1.9,4.7-1.9s3.4,0.6,4.7,1.9c1.2,1.2,1.9,2.8,1.9,4.6s-0.6,3.3-1.9,4.6C-415.5,538.1-417,538.7-418.9,538.7z
						 M-418.9,526.6c-1.7,0-3.1,0.5-4.2,1.7c-1.1,1.1-1.7,2.4-1.7,4.1c0,1.7,0.5,2.9,1.7,4.1c1.1,1.1,2.5,1.7,4.2,1.7
						c1.7,0,3.1-0.5,4.2-1.7c1.1-1.1,1.7-2.4,1.7-4.1c0-1.7-0.5-2.9-1.7-4.1C-415.8,527.2-417.2,526.6-418.9,526.6z M-418.9,535.9
						c-1,0-1.8-0.4-2.4-1c-0.6-0.7-0.9-1.6-0.9-2.6s0.3-1.9,0.9-2.6c0.6-0.7,1.4-1,2.4-1s1.8,0.4,2.4,1c0.6,0.7,0.9,1.6,0.9,2.6
						s-0.3,1.9-0.9,2.6C-417.1,535.6-417.9,535.9-418.9,535.9z M-418.9,529.4c-0.7,0-1.4,0.3-1.8,0.8c-0.5,0.5-0.7,1.2-0.7,2.1
						c0,0.9,0.2,1.6,0.7,2.1s1.1,0.8,1.8,0.8c0.7,0,1.4-0.3,1.8-0.8c0.5-0.5,0.7-1.2,0.7-2.1c0-0.9-0.2-1.6-0.7-2.1
						S-418.1,529.4-418.9,529.4z"/>
				</g>
			</g>
			<g>
				<g>
					<path class="st31" d="M-405.1,543.2c-0.9,0-1.8-0.2-2.8-0.4c-0.9-0.3-1.8-0.7-2.5-1.3l-0.2-0.2l1.6-3.1l0.4,0.3
						c1,0.8,2.1,1.1,3.2,1.1c1.1,0,2-0.3,2.6-0.8c0.4-0.4,0.7-0.9,0.8-1.7c-1,0.8-2.1,1.2-3.4,1.2c-1.6,0-3-0.5-4.1-1.7
						c-1.1-1.1-1.7-2.6-1.7-4.4s0.6-3.3,1.7-4.5c1.1-1.2,2.5-1.8,4-1.8c1.2,0,2.2,0.4,3.1,1.1v-1h4v10.6c0,1.1-0.2,2.1-0.6,2.9
						c-0.4,0.9-0.9,1.6-1.6,2.1C-401.8,542.7-403.4,543.2-405.1,543.2z M-409.7,541.1c0.6,0.4,1.3,0.7,2,1c0.9,0.3,1.8,0.4,2.6,0.4
						c1.6,0,2.9-0.4,4.1-1.4c0.6-0.4,1-1,1.4-1.8s0.5-1.7,0.5-2.6v-9.9h-2.6v2.2l-0.6-0.8c-0.8-1.1-1.9-1.6-3.2-1.6
						c-1.3,0-2.5,0.5-3.4,1.6c-1,1-1.5,2.4-1.5,4.1s0.5,2.9,1.5,3.9s2.2,1.5,3.6,1.5c1.5,0,2.6-0.5,3.6-1.6l0.6-0.7v0.9
						c0,1.4-0.4,2.5-1.1,3.1c-0.8,0.6-1.8,1-3.1,1c-1.1,0-2.3-0.4-3.3-1L-409.7,541.1z M-404.8,535.6c-0.9,0-1.7-0.3-2.3-1
						c-0.6-0.6-0.9-1.5-0.9-2.5s0.3-1.8,0.9-2.5c0.6-0.6,1.4-0.9,2.3-0.9s1.6,0.3,2.2,0.9c0.6,0.6,0.9,1.4,0.9,2.5
						c0,1.1-0.3,1.9-0.9,2.5C-403.1,535.2-403.9,535.6-404.8,535.6z M-404.8,529.4c-0.7,0-1.3,0.2-1.8,0.7s-0.7,1.1-0.7,1.9
						s0.2,1.5,0.7,2s1,0.7,1.8,0.7c0.7,0,1.3-0.2,1.7-0.7s0.7-1.1,0.7-2c0-0.9-0.2-1.5-0.7-2C-403.5,529.6-404.1,529.4-404.8,529.4z
						"/>
				</g>
			</g>
		</g>
	</g>
	<g>
		<g>
			<g>
				<g>
					<g>
						<path class="st34" d="M-564.4,549.5c-3.9,0-7.2-2.3-7.2-5s3.2-5,7.2-5c3.9,0,7.2,2.3,7.2,5S-560.5,549.5-564.4,549.5z
							 M-564.4,540c-3.6,0-6.6,2-6.6,4.5c0,2.5,3,4.5,6.6,4.5c3.6,0,6.6-2,6.6-4.5C-557.8,542-560.8,540-564.4,540z"/>
					</g>
				</g>
			</g>
			<g>
				<g>
					<g>
						<path class="st34" d="M-573.5,544.3c-0.8,0-1.4-1.2-1.4-2.7s0.6-2.7,1.4-2.7c0.8,0,1.4,1.2,1.4,2.7S-572.7,544.3-573.5,544.3z
							 M-573.5,539.4c-0.3,0-0.8,0.8-0.8,2.1c0,1.3,0.5,2.1,0.8,2.1c0.3,0,0.8-0.8,0.8-2.1C-572.7,540.3-573.2,539.4-573.5,539.4z"
							/>
					</g>
				</g>
			</g>
			<g>
				<g>
					<g>
						<path class="st34" d="M-553.5,544.3c-0.8,0-1.4-1.2-1.4-2.7s0.6-2.7,1.4-2.7s1.4,1.2,1.4,2.7S-552.7,544.3-553.5,544.3z
							 M-553.5,539.4c-0.3,0-0.8,0.8-0.8,2.1c0,1.3,0.5,2.1,0.8,2.1c0.3,0,0.8-0.8,0.8-2.1C-552.7,540.3-553.2,539.4-553.5,539.4z"
							/>
					</g>
				</g>
			</g>
			<g>
				<g>
					<g>
						<path class="st34" d="M-562.8,562.3c-1.1,0-2-1.3-2-2.8s0.9-2.8,2-2.8c1.1,0,2,1.3,2,2.8S-561.7,562.3-562.8,562.3z
							 M-562.8,557.2c-0.8,0-1.5,1-1.5,2.3s0.7,2.3,1.5,2.3c0.8,0,1.5-1,1.5-2.3S-562.1,557.2-562.8,557.2z"/>
					</g>
				</g>
			</g>
			<g>
				<g>
					<path class="st34" d="M-562.8,555.7h-0.3c-0.8,0-1.6-0.1-2.4-0.2c0,0.1-0.1,0.1-0.1,0.2c-0.1,0.1-0.1,0.2-0.2,0.3
						c0.9,0.2,1.8,0.3,2.7,0.3h0.3c3.7,0,7-1.4,9.6-3.6c-0.2-0.1-0.3-0.2-0.5-0.3C-556.2,554.4-559.4,555.7-562.8,555.7z"/>
				</g>
				<g>
					<g>
						<path class="st34" d="M-572.4,524.4c-1-1.3-2.4-2.1-3.9-2.3c-1.7-0.2-3.4,0.6-5,2c-0.6,0.6-1.2,1.2-1.7,1.8
							c-0.6,0.7-1.3,1.4-2,2c-0.6,0.5-2.1,1.7-3.6,1.2c-1.3-0.4-2.1-1.8-2.3-2.9c-0.7-3.2,1.2-6.9,4.3-8.5c3-1.5,6.8-1.4,9.9,0.3
							c2.4,1.3,4.5,3.5,5.9,6.2c0.2-0.1,0.3-0.2,0.5-0.2c-1.5-2.8-3.7-5.1-6.2-6.5c-3.3-1.8-7.4-2-10.5-0.3
							c-3.4,1.7-5.3,5.7-4.6,9.2c0.3,1.3,1.1,2.9,2.7,3.4c0.3,0.1,0.6,0.1,0.9,0.1c1.5,0,2.7-1,3.3-1.5c0.7-0.6,1.4-1.3,2-2
							c0.5-0.6,1.1-1.2,1.7-1.8c1.5-1.3,3.1-2,4.6-1.8c1.3,0.1,2.5,0.9,3.5,2.1c0.1,0.1,0.2,0.3,0.3,0.4c0.2-0.1,0.3-0.2,0.5-0.3
							C-572.2,524.7-572.3,524.5-572.4,524.4z"/>
					</g>
					<g>
						<path class="st34" d="M-551.4,526.5c0.1-1.9-0.4-3.7-1.4-4.9c-1.3-1.6-3.5-2.7-6.3-2.9c-1.1-0.1-2.3-0.1-3.5-0.1
							c-1.1,0-2.3,0-3.4-0.1c-1.6-0.2-3.7-0.8-4.5-2.4c-0.7-1.3-0.4-3.2,0.8-4.9c2.4-3.6,7.6-5.1,12-3.6c4.1,1.4,7.4,5.2,8.7,9.8
							c1,3.6,0.7,7.6-0.6,11.5c0.1,0.2,0.2,0.5,0.3,0.7c1.6-4.2,1.9-8.5,0.8-12.4c-1.3-4.8-4.7-8.7-9-10.2
							c-4.6-1.6-10.1,0.1-12.7,3.8c-1.3,1.9-1.6,4-0.8,5.5c1,1.8,3.2,2.5,5,2.7c1.1,0.1,2.3,0.1,3.5,0.1c1.1,0,2.3,0,3.4,0.1
							c2.6,0.2,4.7,1.1,5.9,2.7c0.8,1.1,1.2,2.5,1.2,4.1C-551.8,526.2-551.6,526.4-551.4,526.5z"/>
					</g>
					<g>
						<path class="st34" d="M-573.1,525.5c-2.6,2-3.9,5-3.9,8.9v7.4c0,4,1.4,7.6,3.9,10.2c1.8,2,4.1,3.3,6.6,3.9
							c0.1-0.2,0.2-0.3,0.3-0.5c0,0,0,0,0,0c-2.5-0.6-4.8-1.8-6.5-3.8c-2.4-2.5-3.8-6-3.8-9.8v-7.4c0-3.7,1.2-6.6,3.7-8.5
							c0.2-0.1,0.3-0.2,0.5-0.4c-0.1-0.2-0.2-0.3-0.3-0.5C-572.7,525.3-572.9,525.4-573.1,525.5z"/>
					</g>
					<g>
						<path class="st34" d="M-572.1,524.8c0.1,0.2,0.2,0.3,0.3,0.5c0.4-0.2,0.8-0.5,1.3-0.7c-0.1-0.2-0.2-0.3-0.3-0.5
							C-571.2,524.3-571.6,524.6-572.1,524.8z"/>
					</g>
					<g>
						<path class="st34" d="M-552.6,525.5c-2.6-1.9-6.1-2.9-10.3-2.9c0,0,0,0,0,0l-0.3,0.1c-2.6,0-5,0.4-7,1.3
							c0.1,0.2,0.2,0.3,0.3,0.5c1.9-0.8,4.2-1.2,6.8-1.2l0.3-0.1c4,0,7.5,1,9.9,2.8c0.3,0.2,0.6,0.5,0.9,0.8c0-0.2,0-0.5,0-0.7
							C-552.2,525.8-552.4,525.7-552.6,525.5z"/>
					</g>
					<g>
						<path class="st34" d="M-551.4,526.5c0,0.2,0,0.5-0.1,0.7c0,0,0,0,0,0.1c0.7,0.7,1.2,1.6,1.6,2.5c0.1-0.2,0.2-0.5,0.3-0.7
							C-550.1,528.1-550.7,527.3-551.4,526.5z"/>
					</g>
					<g>
						<path class="st34" d="M-549.6,530.5c0.4,1.2,0.6,2.5,0.6,3.9v7.4c0,4-1.7,7.6-4.4,10.2c0.2,0.1,0.3,0.2,0.5,0.3
							c2.8-2.6,4.5-6.4,4.5-10.5v-7.4c0-1.7-0.3-3.3-0.9-4.7C-549.4,530-549.5,530.2-549.6,530.5z"/>
					</g>
					<g>
						<path class="st34" d="M-570.7,524.1c0.1,0.2,0.2,0.3,0.3,0.5c0.2-0.1,0.3-0.2,0.5-0.2c-0.1-0.2-0.2-0.3-0.3-0.5
							C-570.4,524-570.5,524-570.7,524.1z"/>
					</g>
					<g>
						<path class="st34" d="M-572.5,525.1c0.1,0.2,0.2,0.3,0.3,0.5c0.2-0.1,0.3-0.2,0.5-0.3c-0.1-0.2-0.2-0.3-0.3-0.5
							C-572.2,524.9-572.4,525-572.5,525.1z"/>
					</g>
					<g>
						<path class="st34" d="M-551.4,526.5c-0.2-0.2-0.4-0.4-0.6-0.5c0,0.2,0,0.5,0,0.7c0.2,0.2,0.4,0.4,0.5,0.5c0,0,0,0,0-0.1
							C-551.4,527-551.4,526.8-551.4,526.5z"/>
					</g>
					<g>
						<path class="st34" d="M-549.6,529c-0.1,0.2-0.2,0.5-0.3,0.7c0.1,0.2,0.2,0.5,0.3,0.8c0.1-0.3,0.2-0.5,0.3-0.8
							C-549.4,529.5-549.5,529.2-549.6,529z"/>
					</g>
				</g>
				<g>
					<path class="st34" d="M-552.8,552.2c-0.1,0.1-0.3,0.3-0.4,0.4c3.9,2.5,6.7,7.9,6.7,14.3h0.6
						C-546,560.5-548.8,554.9-552.8,552.2z"/>
				</g>
				<g>
					<path class="st34" d="M-569.1,566.9c0,1.5,0.1,2.8,0.3,4l0.6-0.1c-0.2-1.2-0.3-2.5-0.3-3.9c0-4.2,1-8,2.7-10.8
						c-0.2,0-0.4-0.1-0.6-0.1C-568.1,558.8-569.1,562.7-569.1,566.9z"/>
				</g>
				<g>
					<path class="st34" d="M-565.5,555.5c-0.2,0-0.4-0.1-0.6-0.1c0,0,0,0,0,0c-0.1,0.2-0.2,0.3-0.3,0.5c0.2,0,0.4,0.1,0.6,0.1
						c0.1-0.1,0.1-0.2,0.2-0.3C-565.6,555.6-565.5,555.6-565.5,555.5z"/>
				</g>
				<g>
					<path class="st34" d="M-553.3,551.9c-0.1,0.1-0.3,0.3-0.4,0.4c0.2,0.1,0.3,0.2,0.5,0.3c0.1-0.1,0.3-0.3,0.4-0.4
						C-553,552.1-553.2,552-553.3,551.9z"/>
				</g>
			</g>
		</g>
	</g>
	<path class="st2" d="M-220.1,370.9"/>
	<path class="st2" d="M-185.8,311.4c3.2,5.6,5,12.1,5,19c0,1.8-0.1,3.6-0.4,5.4c-0.1,0.7-0.2,1.4-0.3,2"/>
	<path class="st2" d="M-256.8,340.5c-0.5-1.9-0.9-3.8-1.1-5.8c-0.2-1.4-0.2-2.9-0.2-4.3c0-7.4,2.1-14.4,5.7-20.3"/>
</g>
</svg>
