<?xml version="1.0" encoding="utf-8"?>
<!-- Generator: Adobe Illustrator 19.1.0, SVG Export Plug-In . SVG Version: 6.00 Build 0)  -->
<svg version="1.1" id="Layer_1" xmlns="http://www.w3.org/2000/svg" xmlns:xlink="http://www.w3.org/1999/xlink" x="0px" y="0px"
	 viewBox="0 0 185.5 185.5" style="enable-background:new 0 0 185.5 185.5;" xml:space="preserve">
<style type="text/css">
	.st0{fill:#D1D3D4;}
	.st1{fill:#FFFFFF;}
	.st2{opacity:0.48;}
</style>
<g>
	<path class="st0" d="M-133.4,361.8C-133.4,361.8-133.4,361.8-133.4,361.8c-0.2-0.1-0.3-0.2-0.5-0.2c-0.1,0-0.2-0.1-0.3-0.1
		c-0.9-1.7-1.8-3.4-3-4.9c-0.1-0.3-0.3-0.6-0.4-0.9c-0.6-1-1.9-2.2-3.2-1.8c-0.7-0.1-1.4,0.1-1.8,1c0,0,0,0.1,0,0.1
		c-0.3,0.3-0.4,0.8-0.5,1.2c-0.1,2.3,1.8,3.8,3.9,4.9c1.5,1.1,3.3,1.8,5.2,2.1c0.1,0,0.2,0,0.3,0c0.2,0.1,0.4,0.2,0.7,0.2
		C-132.1,363.2-132.4,361.6-133.4,361.8z"/>
	<path class="st0" d="M-137.9,341.2c-0.2,0-0.8-1.1-0.9-1.3c-0.4-0.5-0.9-0.8-1.5-1.2c-1.1-0.6-2.3-1-3.6-1.3
		c-1-0.3-1.5,1.2-0.5,1.5c1.3,0.3,2.7,0.7,3.8,1.6c0.9,0.7,1.2,2.2,2.5,2.3C-137,342.8-136.8,341.2-137.9,341.2z"/>
	<path class="st0" d="M-128.7,334.6c-0.6-0.8-1.8-1-2.6-0.3c-0.8,0.8-0.6,1.9-0.6,2.9c-0.6,0.9-1.1,1.9-1.6,2.9
		c-0.1,0.3-0.2,0.6-0.2,0.9c-0.2,0.2-0.4,0.4-0.6,0.5c-0.8,0.6,0.2,1.8,1,1.2c0.1-0.1,0.2-0.2,0.3-0.3c0.1,0,0.1,0.1,0.2,0.1
		c2.3,0.8,4.1-2.9,4.5-4.6C-128.1,336.8-128,335.5-128.7,334.6z"/>
	<path class="st0" d="M-117.1,369.5c-1,0-1.2,1.6-0.1,1.6c1.9-0.1,1.2,2.4,1.3,3.7c0,0.7,0.3,2,0.2,3.1c0-0.2-0.1-0.4-0.1-0.7
		c-0.2-1-1.8-0.7-1.6,0.3c0.2,0.9,0.3,1.8,0.4,2.8c0,0.6,0.6,1.1,1.1,0.8c2.6-1.3,1.6-4.5,1.6-6.9
		C-114.4,371.8-113.8,369.3-117.1,369.5z"/>
	<path class="st0" d="M-113.8,374c0.1-0.8,0.1-1.5-0.3-2.3c-0.2-0.5-0.6-0.6-1-0.6c-0.4-0.6-0.9-1.1-1.8-1.3c-1.3-0.3-2.7,0.2-3,1.7
		c-0.4,1.8,0.8,4.2,1.5,5.8c0.2,0.5,0.8,0.7,1.3,0.5c0.1,0.6,0.1,1.1,0,1.7c-0.1,1.4,2,1.6,2.2,0.2c0-0.5,0.1-0.9,0-1.4
		c0.2,0,0.4-0.1,0.5-0.2c1.3-1.1,0.9-2.5,0.5-3.9C-113.8,374.1-113.8,374.1-113.8,374z"/>
	<path class="st0" d="M-99.7,395.1c0.1-0.1,0.2-0.3,0.2-0.5c-0.1-3.1,0.6-13.1-4.9-12.3c-3,0.5-3.2,4-1.5,5.8c0,0.1,0,0.1,0,0.2
		c0.3,1.2,0.9,2.3,1.5,3.3c0.4,0.6,1,1.1,1.6,1.7c0.1,0.2,0.1,0.3,0.2,0.5c0.1,0.4,0.4,0.6,0.8,0.6c0.1,0.2,0.2,0.4,0.3,0.6
		c0.1,0.2,0.2,0.3,0.4,0.4c-0.4,0.7,0.1,1.8,1.1,1.6C-99.1,396.8-99,395.6-99.7,395.1z"/>
	<path class="st0" d="M-121,382.6c-1.4-0.8-2.8-1.6-4.3-2.2c-0.5-0.7-1.3-1.3-2.2-1.4c-0.6-0.6-1.2-1-1.9-1.3
		c-1.4-0.6-4.4-0.8-4.9,1.2c-0.2,0.6,0,1.2,0.3,1.7c0,0.3,0,0.5,0.2,0.8c0.5,0.7,1.2,1.1,2,1.4c0.4,0.3,0.8,0.6,1.2,0.8
		c1,0.6,2,1,3.1,1c0.3,0,0.6,0,1-0.1c1.3,0.4,2.6,0.6,4.1,0.2c0.3,0,0.7,0,1,0C-120.5,384.4-120.2,383-121,382.6z"/>
	<path class="st0" d="M-104,400.5c-1.8-0.8-3.7-1.4-5.5-2.1c-1.8-0.7-5.3-2.7-7.1-1c-1.4,1.2-0.4,3.1,1,3.8c0.1,0,0.1,0,0.2,0.1
		c0.9,1.2,2.4,1.8,4.1,2.1c2.4,0.4,6.2,1.2,8.4-0.4c0.3-0.2,0.4-0.7,0.4-1C-102.8,401-103.2,400.9-104,400.5z"/>
	<path class="st0" d="M-124.8,352.2c0-0.9-1.4-1.6-1.9-0.6c-0.4,0.7-0.6,1.5-0.7,2.2c-0.1,0.3-0.2,0.6-0.2,0.9
		c-0.4,2.3-1,4.5-1.7,6.6c-0.5,1.3,1.6,2.1,2,0.7c0.1-0.2,0.1-0.3,0.2-0.5c0.2,0.1,0.5,0.1,0.7,0.1c1.3-0.2,2.4-1.4,2.9-2.5
		C-122.9,357.7-122.8,353.1-124.8,352.2z"/>
	<path class="st0" d="M-132.7,315.2c-1.9-0.2-3.8,1.8-4.5,3.3c-1.3,2.6-0.6,6.3-0.5,9.1c0,1.4,2.2,1.6,2.2,0.2c0-0.3,0-0.5,0-0.8
		c0.3,0.1,0.7,0,0.9-0.2c1.7-1.6,3.6-4.1,4-6.4C-130.4,318.8-130.6,315.4-132.7,315.2z"/>
	<path class="st0" d="M-138.2,340.2c-1.9-1.7-2.3-4.5-4.3-6.1c-0.5-0.5-1.3-0.8-2-0.6c-0.2,0-0.4,0-0.5,0.1
		c-1.7,0.8-1.9,3.3-0.1,4.1c0.3,0.1,0.6,0.2,0.8,0.4c0,0.2,0.1,0.4,0.2,0.5c0.2,0.3,0.5,0.5,0.7,0.8c0.2,0.2,0.4,0.3,0.6,0.3
		c0.1,0.1,0.2,0.3,0.4,0.4c0.9,0.9,2,1.5,3.2,1.9C-138,342.5-137.3,341-138.2,340.2z"/>
	<g>
		<path class="st0" d="M-55.9,440.6c-0.2,0-0.5-0.1-0.6-0.3c-3.9-8.5-11-16.5-21.5-24.5c-4-3-8.2-5.8-12.3-8.6
			c-7-4.7-14.2-9.6-20.5-15.4c-16.7-15.5-26.6-38.6-26.6-61.7c0-0.3,0.2-0.5,0.5-0.5c0.3,0,0.5,0.2,0.5,0.5
			c-0.1,22.9,9.7,45.6,26.2,61c6.2,5.8,13.4,10.6,20.4,15.3c4.1,2.8,8.3,5.6,12.3,8.6c10.7,8.1,17.9,16.2,21.9,24.9
			c0.1,0.3,0,0.6-0.3,0.7C-55.8,440.5-55.8,440.6-55.9,440.6z"/>
	</g>
	<g>
		<path class="st0" d="M-100,400.2c0,0-0.1,0-0.1,0c-0.2,0-0.4-0.2-0.4-0.5c0.1-1.7-0.6-3.5-2.2-5.5c-0.5-0.6-1-1.2-1.5-1.8
			c-0.9-1-1.7-2-2.4-3.2c-0.9-1.5-1.4-2.9-1.3-4.2c0.1-1.7,1.1-3.2,2.5-3.7c1.3-0.4,2.9,0,4,1c1.1,1,1.7,2.4,2.1,3.4
			c1.6,4.2,0.6,9.1-0.2,13.5l-0.1,0.5C-99.7,400.1-99.8,400.2-100,400.2z M-104.8,382.3c-0.1,0-0.2,0-0.3,0.1
			c-1,0.4-1.8,1.5-1.9,2.8c-0.1,1.1,0.3,2.3,1.1,3.6c0.7,1.1,1.5,2.1,2.4,3c0.5,0.6,1.1,1.2,1.6,1.9c0.9,1.2,1.5,2.3,1.9,3.4
			c0.7-3.6,1.1-7.5-0.1-10.8c-0.4-1-0.9-2.2-1.9-3.1C-102.9,382.4-103.9,382.1-104.8,382.3z"/>
	</g>
	<g>
		<path class="st0" d="M-106.1,404.8c-1.9,0.3-3.9,0.2-5.8-0.4c-2.5-0.8-5.4-2.8-5.8-5c-0.2-0.8,0.1-1.6,0.6-2.2
			c0.8-0.9,2.1-1.3,3.6-1.1c1.6,0.2,3.3,0.9,4.7,1.6c0.3,0.1,0.5,0.3,0.8,0.4c1.1,0.6,2.3,1.2,3.5,1.5c1.6,0.5,3,0.5,3.7,0
			c0.2-0.2,0.5-0.1,0.7,0.1c0.2,0.2,0.1,0.5-0.1,0.7c-0.5,0.4-0.9,0.9-1.4,1.5c-0.8,1-1.6,2-3,2.5
			C-105,404.5-105.5,404.7-106.1,404.8z M-114.8,397.1c-0.6,0.1-1.2,0.4-1.5,0.8c-0.3,0.4-0.5,0.8-0.4,1.4c0.3,1.6,2.6,3.4,5.1,4.2
			c2.2,0.7,4.7,0.7,6.8,0c1.1-0.4,1.8-1.2,2.5-2.2c0.1-0.1,0.2-0.2,0.3-0.3c-1.1,0-2.2-0.3-2.7-0.4c-1.3-0.4-2.5-1-3.7-1.6
			c-0.3-0.1-0.5-0.3-0.8-0.4c-1.3-0.6-2.9-1.3-4.3-1.5C-114,397-114.4,397-114.8,397.1z"/>
	</g>
	<g>
		<path class="st0" d="M-117.7,383.1c-0.1,0-0.3,0-0.4-0.1c-0.2-0.2-0.2-0.4-0.1-0.6c0.9-1.4,0.3-3.4-0.1-4.2
			c-0.2-0.5-0.5-1-0.7-1.5c-0.5-0.9-1-1.9-1.2-2.9c-0.4-1.7-0.1-3.9,1.7-4.8c1.3-0.7,3.1-0.4,4.2,0.8c0.9,0.9,1.5,2.2,1.7,3.9
			c0.4,3.6-1.1,6.6-4.8,9.4C-117.6,383.1-117.7,383.1-117.7,383.1z M-117.6,369.7c-0.2,0-0.4,0.1-0.6,0.2c-1.2,0.6-1.5,2.4-1.2,3.7
			c0.2,0.9,0.7,1.8,1.2,2.7c0.3,0.5,0.5,1,0.8,1.6c0.3,0.8,0.8,2.1,0.6,3.3c2.4-2.2,3.5-4.7,3.1-7.4c-0.2-1.5-0.7-2.6-1.4-3.3
			C-115.8,369.8-116.8,369.5-117.6,369.7z"/>
	</g>
	<g>
		<path class="st0" d="M-122.7,385.2c-3,0.6-6.3,0.1-9-1.3c-1.4-0.7-2.3-1.6-2.9-2.5c-0.8-1.3-0.7-2.9,0.1-4
			c0.6-0.8,1.7-1.3,2.9-1.4c0.9,0,1.9,0.2,3,0.8c1.1,0.6,2.2,1.3,3.1,2c0.5,0.3,1,0.7,1.5,1l0.3,0.2c1.4,1,3.8,2.6,5.4,2.5
			c0.2,0,0.4,0.1,0.5,0.3c0.1,0.2,0,0.4-0.2,0.5C-119.6,384.4-121.1,384.9-122.7,385.2z M-132.2,377.1c-0.7,0.1-1.2,0.4-1.6,0.9
			c-0.6,0.7-0.6,1.9,0,2.9c0.5,0.8,1.3,1.5,2.5,2.2c3.5,1.8,7.8,1.9,11.4,0.3c-1.6-0.5-3.2-1.6-4.4-2.4l-0.3-0.2
			c-0.5-0.3-1-0.7-1.5-1.1c-1-0.7-2-1.4-3-1.9c-0.9-0.5-1.8-0.7-2.5-0.7C-131.8,377-132,377-132.2,377.1z"/>
	</g>
	<g>
		<path class="st0" d="M-136.6,331.2C-136.6,331.2-136.6,331.2-136.6,331.2c-0.3,0-0.5-0.1-0.5-0.3c-1.5-4-2.1-9.9,0.5-14.2
			c0.4-0.6,0.9-1.5,1.8-2c0.9-0.6,1.9-0.8,2.8-0.5c1.6,0.5,2.3,2.3,2.3,3.6c0.1,2.7-1.3,5.2-2.6,7c-0.3,0.5-0.6,0.9-1,1.4
			c-1.1,1.5-2.2,3-2.8,4.7C-136.3,331.1-136.4,331.2-136.6,331.2z M-133.3,315.1c-0.4,0.1-0.7,0.2-1,0.5c-0.7,0.5-1.1,1.2-1.5,1.7
			c-2.2,3.6-1.9,8.5-0.8,12.2c0.7-1.3,1.6-2.6,2.4-3.8c0.3-0.4,0.7-0.9,1-1.3c1.2-1.7,2.5-4,2.4-6.4c0-1.1-0.6-2.4-1.6-2.8
			C-132.7,315-133,315-133.3,315.1z"/>
	</g>
	<g>
		<path class="st0" d="M-130.5,363.6C-130.5,363.6-130.5,363.6-130.5,363.6c-4.7,0.5-8.4-0.6-11.1-3.4c-1.3-1.3-2.1-2.6-2.3-3.9
			c-0.3-1.6,0.6-3.1,2.1-3.5c1.9-0.5,3.9,0.8,5.1,2.2c0.7,0.9,1.3,1.9,1.7,2.9c0.3,0.5,0.5,1.1,0.8,1.6c1,1.7,2.3,2.8,3.7,3.1
			c0.2,0,0.4,0.3,0.4,0.5C-130.1,363.3-130.3,363.5-130.5,363.6z M-141.5,353.7c-0.1,0-0.1,0-0.1,0c-1.1,0.3-1.5,1.4-1.4,2.4
			c0.2,1,0.9,2.2,2,3.3c2.2,2.2,4.9,3.2,8.4,3.2c-1.1-0.8-1.9-1.9-2.4-2.7c-0.3-0.5-0.6-1.1-0.9-1.6c-0.5-1-1-1.9-1.6-2.7
			C-138.5,354.5-140.1,353.5-141.5,353.7z"/>
	</g>
	<g>
		<path class="st0" d="M-136,343.4c0,0-0.1,0-0.1,0c-4.1-0.5-8.9-2.9-10.3-6.7c-0.2-0.5-0.4-1.3-0.4-2.1c0.1-0.8,0.5-1.6,1.1-2
			c1.2-0.7,2.7-0.2,3.6,0.6c1.7,1.4,2.7,3.3,3.7,5.2c0.8,1.5,1.5,3,2.6,4.2c0.1,0.1,0.2,0.4,0.1,0.5
			C-135.7,343.3-135.8,343.4-136,343.4z M-144.7,333.3c-0.2,0-0.3,0.1-0.4,0.2c-0.4,0.2-0.6,0.7-0.7,1.3c0,0.5,0.1,1,0.3,1.7
			c1.1,3,4.8,5.1,8.3,5.9c-0.8-1.1-1.4-2.2-2-3.4c-1-1.9-1.9-3.6-3.4-4.9C-143.2,333.6-144,333.2-144.7,333.3z"/>
	</g>
	<g>
		<path class="st0" d="M-132.7,343.3c-0.9,0.2-1.7,0.1-2.6-0.2c-0.2-0.1-0.3-0.2-0.3-0.3c0-0.2,0-0.3,0.1-0.4c1-1.1,1.6-3,2.2-4.7
			c0.2-0.6,0.4-1.1,0.5-1.7c0.4-1.1,0.9-2.3,1.9-2.8c0.5-0.3,1.1-0.3,1.6-0.2c0.6,0.2,1.2,0.7,1.5,1.4c0.5,1,0.5,2.4,0.1,3.8
			c-0.5,1.8-1.6,3.4-3,4.3C-131.3,342.9-132,343.2-132.7,343.3z M-134.3,342.4c1,0.2,2.1-0.1,3.1-0.7c1.2-0.8,2.2-2.2,2.6-3.8
			c0.3-1.2,0.3-2.3-0.1-3.1c-0.2-0.4-0.6-0.7-1-0.9c-0.2-0.1-0.5-0.1-0.9,0.1c-0.7,0.4-1.1,1.3-1.4,2.3c-0.2,0.5-0.3,1-0.5,1.6
			C-132.9,339.4-133.4,341.1-134.3,342.4z"/>
	</g>
	<g>
		<path class="st0" d="M-129.2,363.4c-0.2,0-0.4,0.1-0.6,0.1c-0.2,0-0.3,0-0.4-0.2c-0.1-0.1-0.1-0.3-0.1-0.4
			c0.4-1.3,0.6-2.7,0.8-4.1c0.2-1.4,0.4-2.9,0.8-4.3c0.4-1.4,0.9-2.9,2-3.5c1-0.6,2.4-0.2,3.2,1c1,1.4,1.3,3.6,0.8,5.6
			c-0.5,1.8-1.5,3.3-2.9,4.3C-126.6,362.7-127.8,363.2-129.2,363.4z M-125.9,351.7c-0.1,0-0.2,0.1-0.3,0.1c-0.8,0.4-1.2,1.8-1.6,3
			c-0.4,1.3-0.6,2.7-0.8,4.1c-0.2,1.2-0.3,2.4-0.6,3.5c1.2-0.2,2.2-0.6,3.1-1.3c1.2-0.9,2.2-2.3,2.6-3.8c0.4-1.7,0.2-3.7-0.7-4.8
			C-124.7,352.1-125.3,351.6-125.9,351.7z"/>
	</g>
	<path class="st0" d="M15.7,334.5C15.7,334.5,15.7,334.5,15.7,334.5c0.2-0.1,0.3-0.3,0.4-0.4c0.1-0.1,0.2-0.1,0.3-0.2
		c0.2-1.9,0.4-3.8,1-5.7c0-0.4,0-0.7,0.1-1c0.2-1.1,1-2.8,2.3-2.8c0.6-0.4,1.4-0.4,2.1,0.3c0,0,0,0.1,0.1,0.1c0.4,0.2,0.7,0.5,0.9,1
		c0.9,2.1-0.3,4.2-1.9,6c-1,1.6-2.4,2.9-4.1,3.8c-0.1,0.1-0.2,0.1-0.3,0.1c-0.1,0.2-0.3,0.4-0.6,0.4
		C14.9,336.2,14.7,334.6,15.7,334.5z"/>
	<g>
		<path class="st0" d="M12.5,313.6c0.2-0.1,0.3-1.3,0.4-1.5c0.2-0.6,0.6-1.1,0.9-1.6c0.8-1,1.8-1.8,2.9-2.5c0.8-0.6,1.9,0.6,1,1.2
			c-1.1,0.8-2.3,1.6-3,2.8c-0.6,1-0.4,2.5-1.5,3C12.3,315.5,11.6,314,12.5,313.6z"/>
	</g>
	<g>
		<path class="st0" d="M2.4,314c0.9,1.5,3.9,4.3,5.8,2.7c0.1-0.1,0.1-0.1,0.2-0.2c0.1,0,0.3,0.1,0.4,0.1c1,0.3,1.5-1.3,0.5-1.5
			c-0.3-0.1-0.5-0.2-0.8-0.3c-0.1-0.3-0.3-0.5-0.5-0.7c-0.8-0.7-1.6-1.4-2.5-2.1c-0.4-0.9-0.6-2.1-1.6-2.5c-1-0.4-2,0.3-2.3,1.2
			C1.3,311.8,1.9,313.1,2.4,314z"/>
	</g>
	<g>
		<path class="st0" d="M3.3,347.5c1-0.3,1.7,1.1,0.7,1.4c-1.8,0.6-0.3,2.7,0.1,3.9c0.2,0.7,0.5,2,0.9,3c0-0.2-0.1-0.4-0.1-0.7
			c-0.2-1,1.4-1.3,1.6-0.3c0.1,1,0.3,1.8,0.7,2.7c0.2,0.5-0.1,1.2-0.8,1.1c-2.9-0.3-3.1-3.7-3.9-5.9C1.6,350.6,0.1,348.5,3.3,347.5z
			"/>
	</g>
	<path class="st0" d="M1.7,352.9c-0.4-0.7-0.6-1.4-0.6-2.3c0-0.5,0.3-0.8,0.7-0.9c0.2-0.7,0.5-1.3,1.2-1.9c1.1-0.8,2.6-0.7,3.4,0.5
		c1,1.6,0.8,4.2,0.7,6c0,0.6-0.5,0.9-1,1c0.1,0.5,0.3,1.1,0.6,1.6c0.6,1.2-1.3,2.2-1.9,0.9c-0.2-0.4-0.4-0.8-0.5-1.3
		c-0.2,0-0.4,0-0.6,0c-1.6-0.6-1.8-2-1.8-3.5C1.8,353,1.7,352.9,1.7,352.9z"/>
	<g>
		<path class="st0" d="M-4,377.6c-0.1-0.1-0.3-0.2-0.3-0.4c-1-2.9-5.3-12.1,0.2-13.3c3-0.7,4.4,2.6,3.5,4.9c0,0.1,0,0.1,0,0.2
			c0.1,1.2,0,2.4-0.3,3.6c-0.2,0.7-0.5,1.4-0.9,2.2c0,0.2,0,0.3,0,0.5c0,0.4-0.2,0.7-0.5,0.9c-0.1,0.2-0.1,0.4-0.1,0.6
			c0,0.2-0.1,0.4-0.2,0.5c0.6,0.5,0.6,1.7-0.4,1.9C-3.9,379.5-4.4,378.3-4,377.6z"/>
	</g>
	<g>
		<path class="st0" d="M11.5,358.3c1-1.2,2-2.4,3.2-3.5c0.2-0.9,0.8-1.6,1.5-2.1c0.4-0.7,0.8-1.4,1.3-1.9c1.1-1.1,3.8-2.3,5-0.7
			c0.4,0.5,0.4,1.1,0.4,1.7c0.1,0.2,0.2,0.5,0.1,0.8c-0.2,0.8-0.7,1.5-1.4,2c-0.3,0.4-0.6,0.8-0.8,1.1c-0.7,0.9-1.5,1.7-2.5,2.1
			c-0.3,0.1-0.6,0.2-0.9,0.2c-1.1,0.9-2.2,1.5-3.7,1.6c-0.3,0.1-0.6,0.2-1,0.3C11.7,360.2,11,359,11.5,358.3z"/>
	</g>
	<g>
		<path class="st0" d="M2,381.2c1.4-1.4,2.9-2.6,4.4-3.9c1.5-1.3,4-4.4,6.3-3.5c1.7,0.7,1.5,2.7,0.4,3.9c0,0-0.1,0.1-0.1,0.1
			c-0.4,1.5-1.6,2.5-3.1,3.4c-2.1,1.3-5.4,3.3-8,2.6c-0.3-0.1-0.7-0.5-0.7-0.8C1.1,382.1,1.4,381.8,2,381.2z"/>
	</g>
	<g>
		<path class="st0" d="M4.3,328.6c-0.3-0.9,0.7-2,1.6-1.3c0.7,0.5,1.1,1.1,1.5,1.8c0.2,0.2,0.4,0.5,0.5,0.8c1.2,2,2.5,3.8,4,5.6
			c0.9,1.1-0.7,2.5-1.6,1.4c-0.1-0.1-0.2-0.3-0.3-0.4c-0.2,0.2-0.4,0.3-0.7,0.3c-1.3,0.3-2.8-0.4-3.6-1.3
			C4.5,334.4,2.7,330.1,4.3,328.6z"/>
	</g>
	<g>
		<path class="st0" d="M-1.6,296.8c1.2,2,3.9,3.7,6.1,4.6c0.3,0.1,0.7,0.1,0.9-0.1c0.1,0.3,0.2,0.5,0.3,0.8c0.5,1.3,2.4,0.4,1.9-0.9
			c-0.9-2.7-1.6-6.3-3.7-8.3c-1.2-1.1-3.7-2.3-5.4-1.5C-3.5,292.2-2.4,295.4-1.6,296.8z"/>
	</g>
	<path class="st0" d="M12.5,312.6c1.2-2.2,0.6-5,1.8-7.2c0.3-0.6,0.9-1.2,1.6-1.2c0.2-0.1,0.3-0.1,0.6-0.1c1.9,0.2,2.9,2.4,1.6,3.8
		c-0.2,0.2-0.5,0.4-0.7,0.6c0,0.2,0,0.4,0,0.6c-0.1,0.3-0.2,0.7-0.4,1c-0.1,0.2-0.2,0.4-0.4,0.5c-0.1,0.2-0.1,0.4-0.2,0.5
		c-0.5,1.2-1.3,2.1-2.3,2.9C13.1,314.8,11.9,313.6,12.5,312.6z"/>
	<g>
		<path class="st0" d="M-28.7,435.7c0.2,0,0.4-0.2,0.4-0.5c0.6-9.4,4.4-19.4,11.4-30.6c2.6-4.2,5.6-8.4,8.4-12.4
			c4.8-6.9,9.9-14,13.7-21.7C15.3,350.1,16.3,325,8,303.3c-0.1-0.3-0.4-0.4-0.7-0.3c-0.3,0.1-0.4,0.4-0.3,0.7
			c8.2,21.3,7.2,46.1-2.8,66.3c-3.8,7.6-8.7,14.7-13.6,21.6c-2.8,4-5.8,8.2-8.4,12.5c-7.1,11.4-10.9,21.5-11.5,31.1
			c0,0.3,0.2,0.5,0.5,0.6C-28.8,435.7-28.7,435.7-28.7,435.7z"/>
	</g>
	<g>
		<path class="st0" d="M-2.3,382.1l-0.3-0.4c-2.4-3.7-5-8-5-12.5c0-1.2,0.1-2.7,0.8-4c0.7-1.4,2.1-2.4,3.4-2.4c1.5-0.1,3,1,3.7,2.5
			c0.5,1.2,0.6,2.7,0.3,4.4c-0.3,1.3-0.7,2.6-1.2,3.8c-0.3,0.7-0.5,1.5-0.8,2.3c-0.7,2.4-0.7,4.3-0.1,5.9c0.1,0.2,0,0.5-0.2,0.6
			c0,0-0.1,0-0.1,0C-2,382.3-2.2,382.2-2.3,382.1z M-5.9,365.6c-0.6,1.1-0.6,2.5-0.7,3.5c0,3.5,1.8,7,3.7,10.2
			c0-1.2,0.2-2.4,0.6-3.8c0.2-0.8,0.5-1.6,0.8-2.3c0.4-1.2,0.9-2.4,1.1-3.7c0.3-1.5,0.2-2.8-0.2-3.8c-0.5-1.2-1.7-2-2.8-2
			c-0.1,0-0.2,0-0.3,0C-4.6,364-5.4,364.6-5.9,365.6z"/>
	</g>
	<g>
		<path class="st0" d="M3.9,384.6c-1.4,0-2.6-0.6-3.7-1.2c-0.6-0.4-1.2-0.7-1.8-0.9c-0.3-0.1-0.4-0.3-0.3-0.6
			c0.1-0.3,0.3-0.4,0.6-0.3c0.8,0.2,2.1-0.3,3.4-1.3c1-0.8,1.9-1.8,2.7-2.7c0.2-0.2,0.4-0.5,0.6-0.7c1.1-1.1,2.4-2.4,3.8-3.1
			c1.4-0.7,2.8-0.8,3.8-0.2c0.7,0.4,1.2,1,1.4,1.8c0.4,2.2-1.6,5.1-3.6,6.7c-1.6,1.2-3.4,2.1-5.3,2.4C5,384.5,4.4,384.5,3.9,384.6z
			 M9.7,374.5c-1.3,0.7-2.5,1.9-3.5,2.9c-0.2,0.2-0.4,0.4-0.6,0.7c-0.9,1-1.8,2-2.9,2.8c-0.4,0.3-1.3,1-2.4,1.3
			c0.1,0.1,0.2,0.1,0.4,0.2c1,0.6,2,1.2,3.1,1.1c2.2-0.1,4.5-0.9,6.4-2.4c2.1-1.7,3.6-4.2,3.3-5.8c-0.1-0.5-0.4-0.9-0.8-1.1
			c-0.5-0.2-1.1-0.3-1.7-0.2C10.5,374.2,10.1,374.3,9.7,374.5z"/>
	</g>
	<g>
		<path class="st0" d="M8.5,360c-4.4-1.3-7-3.6-7.8-7c-0.4-1.6-0.3-3.1,0.2-4.2c0.7-1.5,2.2-2.4,3.7-2.3c1.9,0.2,3,2.2,3.2,3.9
			c0.1,1.1,0,2.2-0.1,3.2c-0.1,0.6-0.1,1.1-0.2,1.7c0,0.8,0,2.9,1.4,3.9c0.2,0.1,0.3,0.4,0.2,0.6c-0.1,0.1-0.2,0.2-0.3,0.3
			C8.6,360,8.5,360,8.5,360z M1.7,349.1c-0.4,1-0.5,2.2-0.1,3.6c0.7,2.7,2.5,4.6,5.6,5.8c-0.6-1.1-0.7-2.5-0.6-3.3
			c0-0.6,0.1-1.2,0.2-1.8c0.1-1,0.2-2,0.1-3c-0.2-1.4-1.1-2.9-2.4-3c-0.2,0-0.4,0-0.6,0C2.9,347.6,2.1,348.3,1.7,349.1z"/>
	</g>
	<g>
		<path class="st0" d="M9.2,360.2c-0.2,0-0.4-0.2-0.4-0.4c0-0.2,0.1-0.4,0.3-0.5c1.5-0.5,3.1-2.9,4.1-4.3l0.2-0.3
			c0.3-0.5,0.7-1,1-1.5c0.7-1,1.4-2.1,2.2-3c0.8-0.9,1.6-1.5,2.5-1.8c1.1-0.4,2.3-0.3,3.2,0.2c1.1,0.7,1.7,2.2,1.5,3.7
			c-0.2,1.1-0.8,2.2-1.8,3.4c-2.1,2.3-4.9,3.9-8,4.4C12.5,360.5,10.8,360.5,9.2,360.2z M19.5,349.3c-0.7,0.3-1.4,0.8-2.1,1.5
			c-0.8,0.9-1.5,1.9-2.1,2.9c-0.3,0.5-0.7,1-1,1.5l-0.2,0.3c-0.8,1.2-2,2.8-3.3,3.9c3.9,0.2,7.9-1.4,10.5-4.3c0.9-1,1.4-2,1.6-2.9
			c0.2-1.1-0.3-2.2-1-2.7c-0.5-0.3-1.1-0.4-1.8-0.3C19.9,349.2,19.7,349.3,19.5,349.3z"/>
	</g>
	<g>
		<path class="st0" d="M7.3,304.6c-1.2-1.4-2.8-2.4-4.3-3.4c-0.5-0.3-0.9-0.6-1.4-0.9c-1.8-1.3-4.1-3-4.9-5.6
			c-0.4-1.3-0.5-3.2,0.9-4.2c0.7-0.6,1.8-0.7,2.8-0.5c1,0.2,1.8,0.8,2.4,1.3c4,3.1,5.4,8.8,5.5,13.1c0,0.2-0.1,0.4-0.3,0.5
			c0,0-0.1,0-0.1,0C7.6,304.8,7.4,304.8,7.3,304.6z M-1.9,291.2c-0.9,0.7-0.9,2.1-0.5,3.2c0.8,2.3,2.8,4,4.6,5.1
			c0.5,0.3,0.9,0.6,1.4,0.9c1.2,0.8,2.5,1.6,3.6,2.7c-0.3-3.9-1.7-8.5-5.1-11.1c-0.5-0.4-1.2-0.9-2-1.1c-0.4-0.1-0.8-0.1-1.1,0
			C-1.4,290.9-1.7,291.1-1.9,291.2z"/>
	</g>
	<g>
		<path class="st0" d="M13.1,336.9c-0.1-0.2,0-0.5,0.2-0.6c1.1-0.7,2-2.3,2.3-4.2c0.1-0.6,0.2-1.2,0.2-1.8c0.1-1.1,0.2-2.2,0.6-3.3
			c0.6-1.7,2.1-3.7,4-3.9c1.5-0.2,2.9,0.9,3.2,2.5c0.3,1.2,0,2.7-0.7,4.4c-1.6,3.6-4.6,5.9-9.2,7.1c0,0,0,0,0,0
			C13.4,337.2,13.2,337.1,13.1,336.9z M17.4,327.3c-0.3,1-0.4,2-0.6,3.1c-0.1,0.6-0.1,1.2-0.2,1.8c-0.1,0.9-0.5,2.2-1.3,3.4
			c3.2-1.2,5.4-3.2,6.7-6c0.7-1.5,0.9-2.8,0.7-3.8c-0.2-1-1-1.9-2.1-1.8c-0.1,0-0.1,0-0.2,0C19,324.3,17.8,325.9,17.4,327.3z"/>
	</g>
	<g>
		<path class="st0" d="M11.2,316.3c-0.1-0.1-0.2-0.4-0.1-0.5c0.6-1.5,0.8-3.2,1-4.8c0.2-2.1,0.5-4.3,1.6-6.1
			c0.6-1.1,1.8-2.2,3.2-1.9c0.7,0.1,1.4,0.7,1.7,1.5c0.3,0.7,0.4,1.5,0.4,2.1c0.1,4-3.6,8-7.2,9.9c0,0-0.1,0-0.1,0
			C11.4,316.4,11.3,316.4,11.2,316.3z M14.4,305.3c-1,1.7-1.2,3.7-1.5,5.8c-0.1,1.3-0.3,2.6-0.6,3.8c3-1.9,5.7-5.2,5.6-8.4
			c0-0.7-0.1-1.2-0.3-1.7c-0.2-0.5-0.6-0.8-1.1-0.9c-0.2,0-0.3,0-0.5,0C15.4,304,14.8,304.6,14.4,305.3z"/>
	</g>
	<g>
		<path class="st0" d="M6.2,317.4c-1.7-0.4-3.2-1.4-4.4-2.9c-0.9-1.2-1.3-2.5-1.2-3.6c0.1-0.7,0.4-1.4,0.9-1.8
			c0.5-0.4,1-0.5,1.6-0.4c1.1,0.2,1.9,1,2.7,1.9c0.4,0.4,0.7,0.9,1.1,1.4c1.1,1.4,2.4,3,3.7,3.6c0.1,0.1,0.3,0.2,0.3,0.4
			c0,0.2,0,0.3-0.2,0.4c-0.6,0.6-1.4,0.9-2.3,1.1C7.8,317.6,7,317.6,6.2,317.4z M6.2,312.5c-0.4-0.5-0.7-0.9-1.1-1.3
			c-0.7-0.8-1.4-1.5-2.1-1.6c-0.4-0.1-0.7,0.1-0.8,0.2c-0.3,0.3-0.5,0.7-0.6,1.2c-0.1,0.9,0.3,1.9,1,2.9c1,1.3,2.4,2.3,3.8,2.6
			c1.1,0.2,2.2,0.1,3.1-0.4C8.3,315.2,7.2,313.8,6.2,312.5z"/>
	</g>
	<g>
		<path class="st0" d="M8.5,337.4c-1.7-0.4-3.2-1.5-4.3-3c-1.2-1.7-1.7-3.9-1.2-5.5c0.4-1.4,1.5-2.3,2.7-2.1
			c1.2,0.2,2.2,1.4,3.2,2.6c0.9,1.1,1.6,2.4,2.3,3.7c0.7,1.2,1.4,2.5,2.2,3.6c0.1,0.1,0.1,0.3,0.1,0.5c-0.1,0.2-0.2,0.3-0.3,0.3
			c-0.2,0.1-0.4,0.1-0.6,0.1C10.9,337.8,9.7,337.8,8.5,337.4z M3.9,329.1c-0.4,1.4,0.1,3.3,1.1,4.7c0.9,1.3,2.3,2.2,3.7,2.6
			c1,0.3,2.1,0.3,3.3,0.1c-0.7-1-1.3-2-1.8-3.1c-0.7-1.2-1.4-2.5-2.2-3.6c-0.8-1-1.6-2.1-2.5-2.2c-0.1,0-0.2,0-0.4,0
			C4.5,327.9,4.1,328.5,3.9,329.1z"/>
	</g>
	
		<text transform="matrix(0.9255 -0.3788 0.3788 0.9255 -109.8812 373.4249)" class="st0" style="font-family:'Nickainley'; font-size:33.5107px;">Cry Baby</text>
	
		<text transform="matrix(0.917 -0.399 0.399 0.917 -68.2507 374.7334)" class="st0" style="font-family:'Nickainley'; font-size:18.474px;">brewery</text>
</g>
<path id="XMLID_1533_" class="st0" d="M-185.4,211l4,3.8l7.4,0.6l0.4,1.9l-1.4,4.3l-3.2,1l4.7,2.9l7.4-1l0.8,1.7l-0.5,4.5l-2.9,1.6
	l5.2,1.9l7-2.5l1.1,1.6l0.5,4.5l-2.5,2.2l5.5,0.7l6.4-3.9l1.4,1.3l1.4,4.3l-2,2.7l5.5-0.4l5.4-5.1l1.6,1l2.3,3.9l-1.4,3l5.3-1.6
	l4.2-6.1l1.8,0.6l3,3.3l-0.7,3.3l4.9-2.6l2.9-6.9l1.9,0.2l3.6,2.6l0,3.3l4.2-3.6l1.4-7.3l1.9-0.2l4.1,1.8l0.7,3.3l3.4-4.4l-0.2-7.5
	l1.8-0.6l4.4,0.9l1.3,3.1l2.4-5l-1.7-7.3l1.7-0.9h4.5l1.9,2.7l1.3-5.4l-3.2-6.7l1.4-1.3l4.4-0.9l2.5,2.3l0.2-5.5l-4.5-5.9l1.1-1.5
	l4.1-1.8l2.9,1.7l-1-5.5l-5.7-4.9l0.8-1.7l3.6-2.6l3.2,1.1l-2.1-5.1l-6.6-3.6l0.4-1.9l3-3.3l3.3,0.4l-3.1-4.6l-7.2-2.1l0-1.9
	l2.3-3.9l3.3-0.3l-4-3.8l-7.4-0.6l-0.4-1.9l1.4-4.3l3.2-1l-4.7-2.9l-7.4,1l-0.8-1.7l0.5-4.5l2.9-1.6l-5.2-1.9l-7,2.5l-1.1-1.6
	l-0.5-4.5l2.5-2.2l-5.5-0.7l-6.4,3.9l-1.4-1.3l-1.4-4.3l2-2.7l-5.5,0.4l-5.4,5.1l-1.6-1l-2.3-3.9l1.4-3l-5.3,1.6l-4.2,6.2l-1.8-0.6
	l-3-3.3l0.7-3.3l-4.9,2.6l-2.9,6.9l-1.9-0.2l-3.6-2.6l0-3.3l-4.2,3.6l-1.4,7.3l-1.9,0.2l-4.1-1.8l-0.7-3.3l-3.4,4.4l0.2,7.5
	l-1.8,0.6l-4.4-0.9l-1.3-3.1l-2.4,5l1.7,7.3l-1.7,0.9l-4.5,0l-1.9-2.7l-1.3,5.4l3.2,6.7l-1.4,1.3l-4.4,0.9l-2.5-2.3l-0.2,5.5
	l4.5,5.9l-1.1,1.5l-4.1,1.8l-2.9-1.7l1,5.5l5.7,4.9l-0.8,1.7l-3.6,2.6l-3.2-1.1l2.1,5.1l6.6,3.6l-0.4,1.9l-3,3.3l-3.3-0.4l3.1,4.6
	l7.2,2.1l0,1.9l-2.3,3.9L-185.4,211z"/>
<path id="XMLID_467_" class="st1" d="M-126.7,234.7c-28.9,0-52.4-23.5-52.4-52.4s23.5-52.4,52.4-52.4s52.4,23.5,52.4,52.4
	S-97.8,234.7-126.7,234.7z M-126.7,131.4c-28,0-50.9,22.8-50.9,50.9s22.8,50.9,50.9,50.9s50.9-22.8,50.9-50.9
	S-98.7,131.4-126.7,131.4z"/>
<g id="XMLID_470_">
	<rect id="XMLID_1502_" x="-218.6" y="158.6" class="st0" width="183.7" height="47.3"/>
	<path id="XMLID_471_" class="st0" d="M-34.1,206.7h-185.3v-48.8h185.3L-34.1,206.7L-34.1,206.7z M-217.8,205.2h182.2v-45.8h-182.2
		V205.2z"/>
</g>
<g id="XMLID_474_">
	<path id="XMLID_475_" class="st1" d="M-212.2,200.2v-4.7h2.5V169h-2.5v-4.7h22.5l5.5,5.3v25.2l-5.5,5.3L-212.2,200.2L-212.2,200.2z
		 M-193.7,195.5l2.6-2.4v-21.6l-2.6-2.5h-9.1v26.5L-193.7,195.5L-193.7,195.5z"/>
	<path id="XMLID_478_" class="st1" d="M-181.2,200.2v-4.7h2.5V169h-2.5v-4.7h22.5l5.5,5.3v8.3l-3.8,3.6l3.8,3.6v10.3h2.5v4.7h-9.4
		v-13.8l-2.6-2.5h-9.1v11.7h2.5v4.7L-181.2,200.2L-181.2,200.2z M-162.7,179.3l2.6-2.5v-5.3l-2.6-2.5h-9.1v10.2L-162.7,179.3
		L-162.7,179.3z"/>
	<path id="XMLID_481_" class="st1" d="M-148.5,200.2v-4.7h1.8l9.2-26.5h-2.7v-4.7h17.6v4.7h-2.9l9.1,26.5h1.9v4.7H-126v-4.7h2.3
		l-2.2-6.3h-11.4l-2.2,6.3h2.3v4.7H-148.5z M-127,186l-4.5-13.2l-4.5,13.2H-127z"/>
	<path id="XMLID_484_" class="st1" d="M-112.2,200.2v-4.7l18.4-26.5h-13.6v2.4h-4.8v-7h26.6v4.7l-18.4,26.5h13.6v-2.4h4.8v7H-112.2z
		"/>
	<path id="XMLID_486_" class="st1" d="M-83.3,200.2v-4.7h2.5V169h-2.5v-4.7h11.9v4.7h-2.5v26.5h2.5v4.7H-83.3z"/>
	<path id="XMLID_488_" class="st1" d="M-68.4,194.9v-25.2l5.5-5.3h16.2l5.5,5.3v5.7h-6.9v-3.9l-2.5-2.5h-8.3l-2.5,2.5v21.6l2.5,2.4
		h8.3l2.5-2.4v-3.7h6.9v5.5l-5.5,5.3h-16.2L-68.4,194.9z"/>
</g>
<g>
	<path class="st0" d="M-96.7,67.9c-1.7,0-3.4,0.1-5.1,0.4l35.6-35.6c1.5-1.5,1.5-3.8,0-5.3c-1.5-1.5-3.8-1.5-5.3,0l-50.7,50.7
		c-0.1,0.1-0.2,0.2-0.3,0.3c-7.2,7-11.1,16.3-11.1,26.4c0,11,4.9,21.4,13.4,28.4c6.6,5.4,14.9,8.4,23.5,8.4
		c20.3,0,36.9-16.5,36.9-36.9S-76.4,67.9-96.7,67.9z M-96.7,134.2c-6.8,0-13.5-2.4-18.7-6.7c-6.8-5.6-10.7-13.9-10.7-22.7
		c0-8.2,3.3-15.7,9.2-21.3c5.5-5.2,12.7-8.1,20.2-8.1c16.2,0,29.4,13.2,29.4,29.4S-80.5,134.2-96.7,134.2z"/>
	<g>
		<path class="st0" d="M-120.7,66.2c-1,0-1.9-0.4-2.6-1.1c-1.5-1.5-1.5-3.8,0-5.3l26.1-26.1h-0.6c-2.1,0-3.7-1.7-3.7-3.7
			s1.7-3.7,3.7-3.7h9.6c1.5,0,2.9,0.9,3.4,2.3c0.6,1.4,0.3,3-0.8,4.1l-32.5,32.5C-118.8,65.8-119.7,66.2-120.7,66.2z"/>
	</g>
	<path class="st0" d="M-135.3,67.9c-1.7,0-3.4,0.1-5,0.3l35.5-35.5c1.1-1.1,1.4-2.7,0.8-4.1c-0.6-1.4-1.9-2.3-3.4-2.3h-53.4
		c-2.1,0-3.7,1.7-3.7,3.7s1.7,3.7,3.7,3.7h44.4l-44.1,44.1c0,0,0,0-0.1,0.1c-1.1,1-2.1,2.1-3.1,3.3c-1.3,1.6-1.1,3.9,0.5,5.3
		c1.6,1.3,3.9,1.1,5.3-0.5c0.7-0.9,1.5-1.7,2.4-2.5c0,0,0.1-0.1,0.1-0.1l0.1-0.1c5.5-5.2,12.6-8,20.2-8c16.2,0,29.4,13.2,29.4,29.4
		s-13.2,29.4-29.4,29.4c-6.8,0-13.5-2.4-18.7-6.7c-1.4-1.2-2.8-2.5-4-4c-1.3-1.6-3.7-1.8-5.3-0.5c-1.6,1.3-1.8,3.7-0.5,5.3
		c1.5,1.8,3.2,3.5,5,5c6.6,5.4,14.9,8.4,23.5,8.4c20.3,0,36.9-16.5,36.9-36.9S-115,67.9-135.3,67.9z"/>
	<g class="st2">
		<path class="st0" d="M-116,136.2c0.5,0.3,1,0.6,1.5,0.8c2.3-1.5,4.5-3.2,6.4-5.2c-0.5-0.2-1-0.4-1.5-0.7
			C-111.6,133.1-113.7,134.7-116,136.2z"/>
	</g>
	<g class="st2">
		<path class="st0" d="M-114.9,83.6c2-1.7,4.1-3.1,6.4-4.1c-0.4-0.4-0.7-0.8-1.1-1.1c-2.3,1.1-4.4,2.5-6.4,4.2
			C-115.7,82.9-115.3,83.2-114.9,83.6z"/>
	</g>
	<g>
		<path class="st0" d="M-165.4,155.9v4.9c0,0.5,0.1,0.8,0.4,1.1c0.2,0.3,0.6,0.4,1,0.4c0.4,0,0.9-0.2,1.3-0.6l0.8,1.4
			c-0.7,0.6-1.5,1-2.4,1c-0.9,0-1.6-0.3-2.2-0.9c-0.6-0.6-0.9-1.4-0.9-2.4v-4.8h-1.2v-1.6h1.2v-3h2v3h2.5v1.6H-165.4z"/>
		<path class="st0" d="M-158.3,158.7v5.2h-2v-13.4h2v5.5c0.3-0.6,0.7-1.1,1.3-1.4c0.6-0.3,1.2-0.5,1.9-0.5c1.1,0,2,0.3,2.6,1
			c0.7,0.7,1,1.6,1,2.9v5.9h-2v-5.3c0-1.8-0.7-2.7-2.2-2.7c-0.7,0-1.3,0.2-1.8,0.7C-158,157.1-158.3,157.8-158.3,158.7z"/>
		<path class="st0" d="M-143.5,156.1c-1,0-1.8,0.3-2.3,1s-0.8,1.5-0.8,2.6v4.1h-2v-9.6h2v1.9c0.3-0.6,0.8-1.1,1.3-1.5
			c0.6-0.4,1.2-0.6,1.8-0.6l0,2C-143.4,156.1-143.5,156.1-143.5,156.1z"/>
		<path class="st0" d="M-132.4,159.9h-7.6c0,0.7,0.4,1.3,1,1.7c0.6,0.4,1.3,0.6,2,0.6c1.2,0,2.1-0.4,2.8-1.1l1.2,1.3
			c-1,1.1-2.4,1.6-4.1,1.6c-1.4,0-2.5-0.5-3.5-1.4c-0.9-0.9-1.4-2.1-1.4-3.6c0-1.5,0.5-2.7,1.5-3.6c1-0.9,2.1-1.3,3.4-1.3
			s2.4,0.4,3.3,1.2c0.9,0.8,1.4,1.9,1.4,3.3V159.9z M-140,158.4h5.5c0-0.8-0.3-1.4-0.8-1.9s-1.1-0.7-1.9-0.7s-1.4,0.2-2,0.7
			C-139.7,157-140,157.6-140,158.4z"/>
		<path class="st0" d="M-121.2,159.9h-7.6c0,0.7,0.4,1.3,1,1.7c0.6,0.4,1.3,0.6,2,0.6c1.2,0,2.1-0.4,2.8-1.1l1.2,1.3
			c-1,1.1-2.4,1.6-4.1,1.6c-1.4,0-2.5-0.5-3.5-1.4c-0.9-0.9-1.4-2.1-1.4-3.6c0-1.5,0.5-2.7,1.5-3.6c1-0.9,2.1-1.3,3.4-1.3
			s2.4,0.4,3.3,1.2c0.9,0.8,1.4,1.9,1.4,3.3V159.9z M-128.8,158.4h5.5c0-0.8-0.3-1.4-0.8-1.9c-0.5-0.4-1.1-0.7-1.9-0.7
			c-0.7,0-1.4,0.2-2,0.7C-128.5,157-128.8,157.6-128.8,158.4z"/>
		<path class="st0" d="M-112.1,161c0,0.9-0.3,1.7-1,2.2c-0.7,0.6-1.5,0.8-2.6,0.8c-0.7,0-1.4-0.1-2.2-0.4s-1.4-0.6-2-1.1l1-1.6
			c1.1,0.8,2.2,1.3,3.3,1.3c0.5,0,0.8-0.1,1.1-0.3c0.3-0.2,0.4-0.5,0.4-0.8c0-0.5-0.6-0.9-1.9-1.3c-0.1,0-0.2-0.1-0.2-0.1
			c-2-0.5-3-1.5-3-2.7c0-0.9,0.3-1.6,1-2.1c0.7-0.5,1.6-0.8,2.7-0.8c1.1,0,2.2,0.3,3.2,1l-0.8,1.5c-0.8-0.5-1.6-0.8-2.6-0.8
			c-0.5,0-0.9,0.1-1.2,0.3c-0.3,0.2-0.5,0.4-0.5,0.8c0,0.3,0.2,0.5,0.5,0.7c0.2,0.1,0.5,0.2,0.9,0.3c0.4,0.1,0.7,0.2,1,0.3
			c0.3,0.1,0.6,0.2,0.9,0.3c0.3,0.1,0.6,0.3,0.9,0.5C-112.4,159.4-112.1,160.1-112.1,161z"/>
		<path class="st0" d="M-109.7,152.3c-0.3-0.3-0.4-0.6-0.4-0.9c0-0.4,0.1-0.7,0.4-0.9c0.3-0.3,0.6-0.4,0.9-0.4
			c0.4,0,0.7,0.1,0.9,0.4s0.4,0.6,0.4,0.9c0,0.4-0.1,0.7-0.4,0.9s-0.6,0.4-0.9,0.4C-109.1,152.7-109.4,152.6-109.7,152.3z
			 M-107.8,163.9h-2v-9.6h2V163.9z"/>
		<path class="st0" d="M-103.3,154.2l2.1,3.2l2.1-3.2h2.4l-3.4,4.7l3.5,4.9H-99l-2.3-3.2l-2.2,3.2h-2.4l3.4-4.9l-3.2-4.7H-103.3z"/>
		<path class="st0" d="M-92.2,155.9v4.9c0,0.5,0.1,0.8,0.4,1.1c0.2,0.3,0.6,0.4,1,0.4c0.4,0,0.9-0.2,1.3-0.6l0.8,1.4
			c-0.7,0.6-1.5,1-2.4,1c-0.9,0-1.6-0.3-2.2-0.9c-0.6-0.6-0.9-1.4-0.9-2.4v-4.8h-1.2v-1.6h1.2v-3h2v3h2.5v1.6H-92.2z"/>
		<path class="st0" d="M-78.2,159.9h-7.6c0,0.7,0.4,1.3,1,1.7c0.6,0.4,1.3,0.6,2,0.6c1.2,0,2.1-0.4,2.8-1.1l1.2,1.3
			c-1,1.1-2.4,1.6-4.1,1.6c-1.4,0-2.5-0.5-3.5-1.4c-0.9-0.9-1.4-2.1-1.4-3.6c0-1.5,0.5-2.7,1.5-3.6c1-0.9,2.1-1.3,3.4-1.3
			c1.3,0,2.4,0.4,3.3,1.2c0.9,0.8,1.4,1.9,1.4,3.3V159.9z M-85.7,158.4h5.5c0-0.8-0.3-1.4-0.8-1.9s-1.1-0.7-1.9-0.7
			c-0.7,0-1.4,0.2-2,0.7C-85.4,157-85.7,157.6-85.7,158.4z"/>
		<path class="st0" d="M-67,159.9h-7.6c0,0.7,0.4,1.3,1,1.7c0.6,0.4,1.3,0.6,2,0.6c1.2,0,2.1-0.4,2.8-1.1l1.2,1.3
			c-1,1.1-2.4,1.6-4.1,1.6c-1.4,0-2.5-0.5-3.5-1.4c-0.9-0.9-1.4-2.1-1.4-3.6c0-1.5,0.5-2.7,1.5-3.6c1-0.9,2.1-1.3,3.4-1.3
			s2.4,0.4,3.3,1.2c0.9,0.8,1.4,1.9,1.4,3.3V159.9z M-74.5,158.4h5.5c0-0.8-0.3-1.4-0.8-1.9c-0.5-0.4-1.1-0.7-1.9-0.7
			s-1.4,0.2-2,0.7C-74.2,157-74.5,157.6-74.5,158.4z"/>
		<path class="st0" d="M-62.7,158.7v5.2h-2v-9.6h2v1.8c0.3-0.6,0.8-1.1,1.4-1.4c0.6-0.3,1.2-0.5,1.9-0.5c1.1,0,2,0.3,2.6,1
			c0.7,0.7,1,1.6,1,2.9v5.9h-2v-5.3c0-1.8-0.7-2.7-2.2-2.7c-0.7,0-1.3,0.2-1.8,0.7C-62.4,157.1-62.7,157.8-62.7,158.7z"/>
	</g>
	<g>
		<path class="st0" d="M-145.1,175.5c0,0.5-0.2,0.9-0.6,1.2c-0.4,0.3-0.8,0.5-1.4,0.5c-0.4,0-0.8-0.1-1.2-0.2
			c-0.4-0.1-0.8-0.3-1.1-0.6l0.5-0.9c0.6,0.5,1.2,0.7,1.8,0.7c0.3,0,0.5-0.1,0.6-0.2c0.1-0.1,0.2-0.3,0.2-0.4c0-0.3-0.4-0.5-1.1-0.7
			c-0.1,0-0.1,0-0.1,0c-1.1-0.3-1.7-0.8-1.7-1.5c0-0.5,0.2-0.9,0.6-1.2c0.4-0.3,0.9-0.4,1.5-0.4c0.6,0,1.2,0.2,1.8,0.5l-0.4,0.8
			c-0.4-0.3-0.9-0.4-1.4-0.4c-0.3,0-0.5,0-0.7,0.1c-0.2,0.1-0.3,0.2-0.3,0.4c0,0.2,0.1,0.3,0.3,0.4c0.1,0.1,0.3,0.1,0.5,0.2
			c0.2,0.1,0.4,0.1,0.6,0.2c0.2,0.1,0.3,0.1,0.5,0.2c0.2,0.1,0.3,0.2,0.5,0.3C-145.3,174.6-145.1,175-145.1,175.5z"/>
		<path class="st0" d="M-142.4,172.6v2.7c0,0.3,0.1,0.5,0.2,0.6c0.1,0.2,0.3,0.2,0.6,0.2s0.5-0.1,0.7-0.4l0.5,0.8
			c-0.4,0.4-0.8,0.5-1.3,0.5c-0.5,0-0.9-0.2-1.2-0.5c-0.3-0.3-0.5-0.8-0.5-1.3v-2.7h-0.7v-0.9h0.7v-1.7h1.1v1.7h1.4v0.9H-142.4z"/>
		<path class="st0" d="M-136.8,172.8c-0.6,0-1,0.2-1.3,0.5c-0.3,0.4-0.4,0.9-0.4,1.5v2.3h-1.1v-5.4h1.1v1.1c0.2-0.3,0.4-0.6,0.7-0.8
			c0.3-0.2,0.6-0.3,1-0.3L-136.8,172.8C-136.8,172.8-136.8,172.8-136.8,172.8z"/>
		<path class="st0" d="M-131.3,177.1h-1v-0.7c-0.4,0.5-1,0.8-1.8,0.8c-0.6,0-1-0.2-1.4-0.5c-0.4-0.3-0.6-0.7-0.6-1.3
			c0-0.5,0.2-0.9,0.6-1.2c0.4-0.3,0.9-0.4,1.6-0.4h1.5v-0.2c0-0.7-0.4-1.1-1.2-1.1c-0.5,0-1,0.2-1.6,0.5l-0.5-0.7
			c0.7-0.5,1.4-0.8,2.2-0.8c0.6,0,1.1,0.2,1.6,0.5c0.4,0.3,0.6,0.8,0.6,1.5V177.1z M-132.4,175.1v-0.5h-1.3c-0.8,0-1.2,0.3-1.2,0.8
			c0,0.3,0.1,0.5,0.3,0.6c0.2,0.1,0.5,0.2,0.8,0.2c0.4,0,0.7-0.1,0.9-0.3C-132.6,175.7-132.4,175.5-132.4,175.1z"/>
		<path class="st0" d="M-128.4,172.6v2.7c0,0.3,0.1,0.5,0.2,0.6c0.1,0.2,0.3,0.2,0.6,0.2c0.2,0,0.5-0.1,0.7-0.4l0.5,0.8
			c-0.4,0.4-0.8,0.5-1.3,0.5c-0.5,0-0.9-0.2-1.2-0.5c-0.3-0.3-0.5-0.8-0.5-1.3v-2.7h-0.7v-0.9h0.7v-1.7h1.1v1.7h1.4v0.9H-128.4z"/>
		<path class="st0" d="M-120.6,174.9h-4.2c0,0.4,0.2,0.7,0.5,0.9c0.3,0.2,0.7,0.4,1.1,0.4c0.7,0,1.2-0.2,1.5-0.6l0.6,0.7
			c-0.6,0.6-1.3,0.9-2.3,0.9c-0.8,0-1.4-0.3-1.9-0.8c-0.5-0.5-0.8-1.2-0.8-2c0-0.8,0.3-1.5,0.8-2c0.5-0.5,1.2-0.7,1.9-0.7
			c0.7,0,1.4,0.2,1.9,0.7c0.5,0.4,0.8,1,0.8,1.8V174.9z M-124.8,174h3.1c0-0.5-0.1-0.8-0.4-1c-0.3-0.2-0.6-0.4-1-0.4
			c-0.4,0-0.8,0.1-1.1,0.4C-124.6,173.3-124.8,173.6-124.8,174z"/>
		<path class="st0" d="M-114.3,171.7v4.7c0,0.9-0.3,1.7-0.8,2.1c-0.5,0.5-1.2,0.7-2,0.7c-0.8,0-1.5-0.3-2.2-0.8l0.5-0.9
			c0.5,0.4,1.1,0.6,1.6,0.6c0.5,0,1-0.1,1.3-0.4c0.3-0.3,0.5-0.7,0.5-1.3v-0.7c-0.2,0.3-0.4,0.6-0.7,0.8c-0.3,0.2-0.7,0.3-1.1,0.3
			c-0.7,0-1.3-0.2-1.8-0.7c-0.5-0.5-0.7-1.1-0.7-1.9c0-0.7,0.2-1.4,0.7-1.9c0.5-0.5,1-0.7,1.8-0.7c0.7,0,1.3,0.3,1.7,0.9v-0.8
			H-114.3z M-118.5,174.2c0,0.4,0.1,0.8,0.4,1.1c0.3,0.3,0.6,0.5,1.1,0.5c0.5,0,0.8-0.2,1.1-0.5c0.3-0.3,0.4-0.7,0.4-1.2
			c0-0.5-0.1-0.9-0.4-1.2c-0.3-0.3-0.7-0.5-1.1-0.5c-0.5,0-0.8,0.2-1.1,0.5C-118.4,173.4-118.5,173.8-118.5,174.2z"/>
		<path class="st0" d="M-112,179.3c-0.5,0-0.9-0.2-1.3-0.5l0.5-0.9c0.2,0.2,0.5,0.3,0.7,0.3c0.3,0,0.5-0.1,0.6-0.3
			c0.2-0.2,0.2-0.4,0.2-0.6c0-0.1-0.7-1.9-2.2-5.5h1.2l1.6,4l1.6-4h1.2l-2.6,6.4c-0.2,0.3-0.4,0.6-0.7,0.8
			C-111.4,179.2-111.7,179.3-112,179.3z"/>
		<path class="st0" d="M-99.2,171.7v4.7c0,0.9-0.3,1.7-0.8,2.1c-0.5,0.5-1.2,0.7-2,0.7c-0.8,0-1.5-0.3-2.2-0.8l0.5-0.9
			c0.5,0.4,1.1,0.6,1.6,0.6s1-0.1,1.3-0.4c0.3-0.3,0.5-0.7,0.5-1.3v-0.7c-0.2,0.3-0.4,0.6-0.7,0.8c-0.3,0.2-0.7,0.3-1.1,0.3
			c-0.7,0-1.3-0.2-1.8-0.7c-0.5-0.5-0.7-1.1-0.7-1.9c0-0.7,0.2-1.4,0.7-1.9c0.5-0.5,1-0.7,1.8-0.7c0.7,0,1.3,0.3,1.7,0.9v-0.8H-99.2
			z M-103.4,174.2c0,0.4,0.1,0.8,0.4,1.1c0.3,0.3,0.6,0.5,1.1,0.5c0.5,0,0.8-0.2,1.1-0.5c0.3-0.3,0.4-0.7,0.4-1.2
			c0-0.5-0.1-0.9-0.4-1.2c-0.3-0.3-0.7-0.5-1.1-0.5c-0.5,0-0.8,0.2-1.1,0.5C-103.2,173.4-103.4,173.8-103.4,174.2z"/>
		<path class="st0" d="M-94.7,172.8c-0.6,0-1,0.2-1.3,0.5c-0.3,0.4-0.4,0.9-0.4,1.5v2.3h-1.1v-5.4h1.1v1.1c0.2-0.3,0.4-0.6,0.7-0.8
			c0.3-0.2,0.6-0.3,1-0.3L-94.7,172.8C-94.7,172.8-94.7,172.8-94.7,172.8z"/>
		<path class="st0" d="M-89.1,176.4c-0.5,0.5-1.2,0.8-2,0.8s-1.5-0.3-2-0.8c-0.5-0.5-0.8-1.2-0.8-2c0-0.8,0.3-1.4,0.8-2
			c0.5-0.5,1.2-0.8,2-0.8s1.5,0.3,2,0.8c0.5,0.5,0.8,1.2,0.8,2C-88.3,175.2-88.6,175.9-89.1,176.4z M-92.4,175.7
			c0.3,0.3,0.7,0.5,1.2,0.5c0.5,0,0.9-0.2,1.2-0.5s0.5-0.7,0.5-1.3c0-0.5-0.2-0.9-0.5-1.3s-0.7-0.5-1.2-0.5c-0.5,0-0.9,0.2-1.2,0.5
			c-0.3,0.3-0.5,0.7-0.5,1.3C-92.8,174.9-92.7,175.4-92.4,175.7z"/>
		<path class="st0" d="M-83.3,174.6v-2.9h1.1v5.4h-1.1v-1c-0.2,0.3-0.4,0.6-0.8,0.8c-0.3,0.2-0.7,0.3-1,0.3c-0.6,0-1.1-0.2-1.5-0.6
			c-0.4-0.4-0.6-0.9-0.6-1.6v-3.3h1.1v2.9c0,1,0.4,1.5,1.2,1.5c0.4,0,0.7-0.1,1-0.4C-83.4,175.5-83.3,175.1-83.3,174.6z"/>
		<path class="st0" d="M-77.6,171.7c0.7,0,1.3,0.2,1.8,0.7c0.5,0.5,0.8,1.2,0.8,2c0,0.8-0.3,1.5-0.8,2c-0.5,0.5-1.1,0.8-1.8,0.8
			c-0.7,0-1.3-0.3-1.8-0.9v2.8h-1.1v-7.3h1.1v0.9C-78.9,172-78.4,171.7-77.6,171.7z M-79.4,174.4c0,0.5,0.2,0.9,0.5,1.3
			s0.7,0.5,1.1,0.5s0.8-0.2,1.2-0.5c0.3-0.3,0.5-0.7,0.5-1.3c0-0.5-0.2-0.9-0.5-1.3c-0.3-0.3-0.7-0.5-1.2-0.5
			c-0.5,0-0.8,0.2-1.1,0.5C-79.2,173.5-79.4,173.9-79.4,174.4z"/>
	</g>
</g>
<g>
	<g>
		<g>
			<g>
				<g>
					<path class="st0" d="M43.7,163.9c0,1.7-0.6,3.1-1.8,4.3c-1.1,1.1-2.6,1.8-4.5,1.8c-1.8,0-3.3-0.6-4.5-1.8
						c-1.1-1.1-1.8-2.6-1.8-4.3c0-1.7,0.6-3.1,1.8-4.3c1.1-1.1,2.6-1.8,4.5-1.8c1.8,0,3.3,0.6,4.5,1.8
						C43.1,160.8,43.7,162.3,43.7,163.9z M34.5,163.9c0,1,0.3,1.8,0.8,2.4c0.5,0.6,1.3,0.9,2.1,0.9s1.6-0.3,2.1-0.9
						c0.5-0.6,0.8-1.4,0.8-2.4c0-1-0.3-1.8-0.8-2.4c-0.5-0.6-1.3-0.9-2.1-0.9s-1.6,0.3-2.1,0.9C34.8,162.2,34.5,163,34.5,163.9z"/>
				</g>
			</g>
			<g>
				<g>
					<path class="st0" d="M56.9,163.5v6.3h-3.3v-6.4c0-0.9-0.1-1.6-0.4-2.1c-0.3-0.4-0.7-0.6-1.4-0.6s-1.2,0.2-1.7,0.7
						c-0.5,0.5-0.7,1.1-0.7,2.1v6.3h-3.3V158h3.3v1.3c0.9-1,1.9-1.5,3.1-1.5c0.7,0,1.4,0.2,2,0.6c0.6,0.4,1.1,1,1.4,1.6
						c0.4-0.7,1.1-1.3,1.8-1.7c0.8-0.4,1.5-0.6,2.3-0.6c1.4,0,2.5,0.4,3.3,1.2c0.8,0.8,1.3,2,1.3,3.5v7.1h-3.3v-6.4
						c0-1.8-0.7-2.7-2-2.7c-0.6,0-1.2,0.2-1.7,0.7C57.1,161.9,56.9,162.6,56.9,163.5z"/>
				</g>
			</g>
			<g>
				<g>
					<path class="st0" d="M77.5,169.8h-3.1v-1.4c-0.8,1.1-1.9,1.6-3.1,1.6c-1.3,0-2.3-0.4-3.1-1.1c-0.8-0.7-1.3-1.7-1.3-2.9
						c0-1.2,0.4-2.1,1.3-2.7c0.9-0.6,2.1-0.9,3.6-0.9h2.5v-0.1c0-1.3-0.7-1.9-2-1.9c-0.6,0-1.1,0.1-1.8,0.3
						c-0.6,0.2-1.1,0.5-1.6,0.8l-1.5-2.1c1.6-1.1,3.3-1.7,5.3-1.7c1.4,0,2.6,0.4,3.5,1.1c0.9,0.7,1.4,1.8,1.4,3.4L77.5,169.8
						L77.5,169.8L77.5,169.8z M74.2,165.3v-0.6h-2.1c-1.3,0-2,0.4-2,1.2c0,0.4,0.2,0.7,0.5,1c0.3,0.2,0.8,0.3,1.4,0.3
						s1.1-0.2,1.6-0.5C74,166.4,74.2,165.9,74.2,165.3z"/>
				</g>
			</g>
			<g>
				<g>
					<path class="st0" d="M83.8,163.5v6.3h-3.3v-16.2h3.3v5.7c1-1,2.1-1.5,3.3-1.5c1.2,0,2.3,0.4,3.1,1.3c0.8,0.9,1.3,2,1.3,3.5v7.1
						h-3.3v-6.4c0-1.8-0.7-2.7-2-2.7c-0.6,0-1.2,0.2-1.7,0.7C84,161.9,83.8,162.6,83.8,163.5z"/>
				</g>
			</g>
			<g>
				<g>
					<path class="st0" d="M104.4,169.8h-3.1v-1.4c-0.8,1.1-1.9,1.6-3.1,1.6c-1.3,0-2.3-0.4-3.1-1.1c-0.8-0.7-1.3-1.7-1.3-2.9
						c0-1.2,0.4-2.1,1.3-2.7c0.9-0.6,2.1-0.9,3.6-0.9h2.5v-0.1c0-1.3-0.7-1.9-2-1.9c-0.6,0-1.1,0.1-1.8,0.3
						c-0.6,0.2-1.1,0.5-1.6,0.8l-1.5-2.1c1.6-1.1,3.3-1.7,5.3-1.7c1.4,0,2.6,0.4,3.5,1.1c0.9,0.7,1.4,1.8,1.4,3.4L104.4,169.8
						L104.4,169.8L104.4,169.8z M101.1,165.3v-0.6h-2.1c-1.3,0-2,0.4-2,1.2c0,0.4,0.2,0.7,0.5,1c0.3,0.2,0.8,0.3,1.4,0.3
						s1.1-0.2,1.6-0.5C100.9,166.4,101.1,165.9,101.1,165.3z"/>
				</g>
			</g>
			<g>
				<g>
					<path class="st0" d="M107.7,169.4c-0.4-0.4-0.5-0.8-0.5-1.4c0-0.5,0.2-1,0.5-1.4c0.4-0.4,0.8-0.5,1.4-0.5c0.5,0,1,0.2,1.4,0.5
						c0.4,0.4,0.5,0.8,0.5,1.4c0,0.5-0.2,1-0.5,1.4c-0.4,0.4-0.8,0.5-1.4,0.5C108.5,170,108,169.8,107.7,169.4z"/>
				</g>
			</g>
			<g>
				<g>
					<path class="st0" d="M118.4,170.3c-1.5,0-2.8-0.6-4-1.9c-1.1-1.2-1.8-2.8-1.8-4.6s0.6-3.3,1.7-4.5c1.1-1.2,2.5-1.8,4-1.8
						c1.2,0,2.3,0.4,3.1,1v-5.3h4v16.9h-4v-1C120.7,169.9,119.6,170.3,118.4,170.3z M118.4,158.2c-1.3,0-2.5,0.5-3.5,1.6
						c-1,1-1.5,2.4-1.5,4.1c0,1.7,0.5,3,1.6,4.1c1,1.1,2.2,1.7,3.4,1.7c1.3,0,2.3-0.5,3.2-1.6l0.6-0.8v2.2h2.6v-15.5h-2.6v6.3
						l-0.6-0.7C120.8,158.7,119.7,158.2,118.4,158.2z M119.2,167.5c-0.9,0-1.6-0.4-2.3-1c-0.6-0.7-0.9-1.5-0.9-2.6s0.3-1.9,0.9-2.6
						c0.6-0.7,1.4-1.1,2.3-1.1c0.9,0,1.6,0.4,2.2,1.1c0.6,0.7,0.9,1.6,0.9,2.6c0,1-0.3,1.9-0.9,2.6
						C120.8,167.2,120.1,167.5,119.2,167.5z M119.2,161c-0.7,0-1.2,0.3-1.7,0.8c-0.5,0.6-0.7,1.3-0.7,2.1c0,0.9,0.3,1.6,0.7,2.1
						c0.5,0.5,1.1,0.8,1.7,0.8s1.2-0.3,1.7-0.8c0.5-0.5,0.7-1.2,0.7-2.1c0-0.9-0.2-1.6-0.7-2.2C120.4,161.2,119.9,161,119.2,161z"/>
				</g>
			</g>
			<g>
				<g>
					<path class="st0" d="M133.8,170.3c-1.9,0-3.4-0.6-4.7-1.8c-1.3-1.2-1.9-2.7-1.9-4.6c0-1.8,0.6-3.3,1.9-4.6
						c1.2-1.3,2.8-1.9,4.7-1.9c1.9,0,3.4,0.6,4.7,1.9c1.2,1.2,1.9,2.8,1.9,4.6c0,1.8-0.6,3.3-1.9,4.6
						C137.2,169.7,135.7,170.3,133.8,170.3z M133.8,158.2c-1.7,0-3.1,0.5-4.2,1.7c-1.1,1.1-1.7,2.4-1.7,4.1s0.5,2.9,1.7,4.1
						c1.1,1.1,2.5,1.7,4.2,1.7c1.7,0,3.1-0.5,4.2-1.7c1.1-1.1,1.7-2.4,1.7-4.1s-0.5-2.9-1.7-4.1
						C136.9,158.8,135.5,158.2,133.8,158.2z M133.8,167.5c-1,0-1.8-0.4-2.4-1c-0.6-0.7-0.9-1.6-0.9-2.6c0-1,0.3-1.9,0.9-2.6
						c0.6-0.7,1.4-1,2.4-1c1,0,1.8,0.4,2.4,1c0.6,0.7,0.9,1.6,0.9,2.6c0,1-0.3,1.9-0.9,2.6C135.6,167.2,134.8,167.5,133.8,167.5z
						 M133.8,161c-0.7,0-1.4,0.3-1.8,0.8c-0.5,0.5-0.7,1.2-0.7,2.1c0,0.9,0.2,1.6,0.7,2.1c0.5,0.5,1.1,0.8,1.8,0.8
						c0.7,0,1.4-0.3,1.8-0.8c0.5-0.5,0.7-1.2,0.7-2.1c0-0.9-0.2-1.6-0.7-2.1C135.1,161.3,134.6,161,133.8,161z"/>
				</g>
			</g>
			<g>
				<g>
					<path class="st0" d="M147.6,174.8c-0.9,0-1.8-0.2-2.8-0.4c-0.9-0.3-1.8-0.7-2.5-1.3l-0.2-0.2l1.6-3.1l0.4,0.3
						c1,0.8,2.1,1.1,3.2,1.1s2-0.3,2.6-0.8c0.4-0.4,0.7-0.9,0.8-1.7c-1,0.8-2.1,1.2-3.4,1.2c-1.6,0-3-0.5-4.1-1.7
						c-1.1-1.1-1.7-2.6-1.7-4.4c0-1.8,0.6-3.3,1.7-4.5c1.1-1.2,2.5-1.8,4-1.8c1.2,0,2.2,0.4,3.1,1.1v-1h4v10.6
						c0,1.1-0.2,2.1-0.6,2.9c-0.4,0.9-0.9,1.6-1.6,2.1C150.9,174.3,149.3,174.8,147.6,174.8z M143,172.7c0.6,0.4,1.3,0.7,2,1
						c0.9,0.3,1.8,0.4,2.6,0.4c1.6,0,2.9-0.4,4.1-1.4c0.6-0.4,1-1,1.4-1.8c0.4-0.8,0.5-1.7,0.5-2.6v-9.9H151v2.2l-0.6-0.8
						c-0.8-1.1-1.9-1.6-3.2-1.6c-1.3,0-2.5,0.5-3.4,1.6c-1,1-1.5,2.4-1.5,4.1c0,1.7,0.5,2.9,1.5,3.9c1,1,2.2,1.5,3.6,1.5
						c1.5,0,2.6-0.5,3.6-1.6l0.6-0.7v0.9c0,1.4-0.4,2.5-1.1,3.1c-0.8,0.6-1.8,1-3.1,1c-1.1,0-2.3-0.4-3.3-1L143,172.7z M147.9,167.2
						c-0.9,0-1.7-0.3-2.3-1c-0.6-0.6-0.9-1.5-0.9-2.5s0.3-1.8,0.9-2.5c0.6-0.6,1.4-0.9,2.3-0.9c0.9,0,1.6,0.3,2.2,0.9
						c0.6,0.6,0.9,1.4,0.9,2.5s-0.3,1.9-0.9,2.5C149.6,166.8,148.8,167.2,147.9,167.2z M147.9,161c-0.7,0-1.3,0.2-1.8,0.7
						c-0.5,0.5-0.7,1.1-0.7,1.9c0,0.8,0.2,1.5,0.7,2c0.5,0.5,1,0.7,1.8,0.7c0.7,0,1.3-0.2,1.7-0.7c0.4-0.5,0.7-1.1,0.7-2
						s-0.2-1.5-0.7-2C149.2,161.2,148.6,161,147.9,161z"/>
				</g>
			</g>
		</g>
	</g>
	<g>
		<path class="st0" d="M160.3,78.2c0-37.3-30.2-67.5-67.5-67.5S25.2,40.9,25.2,78.2c0,33.8,24.8,61.8,57.2,66.7
			c-0.3-2.2-0.4-4.4-0.4-6.7c0-8.2,1.9-15.8,5.5-21.2c3.7-5.7,8.8-8.7,14.6-8.7c12.1,0,22,13.3,22.1,29.7
			C145.7,126.6,160.3,104.1,160.3,78.2z"/>
		<path class="st1" d="M102.2,108.3c-5.8,0-10.9,3-14.6,8.7c-3.6,5.5-5.5,13-5.5,21.2c0,2.3,0.1,4.5,0.4,6.7
			c3.4,0.5,6.8,0.8,10.3,0.8c11.4,0,22.1-2.8,31.6-7.8C124.2,121.5,114.3,108.3,102.2,108.3z"/>
	</g>
	<g>
		<g>
			<path class="st0" d="M103,132.2c-0.5,0-0.8,0.3-0.8,0.8v12.4c0,0,0,0,0,0c0.5-0.1,1.1-0.2,1.6-0.2V133
				C103.8,132.6,103.5,132.2,103,132.2z"/>
		</g>
	</g>
	<g>
		<g>
			<path class="st0" d="M92.8,121.6h-0.5c-2.4,0-4.9-0.3-7.2-1l1-3.4c2,0.5,4.1,0.8,6.2,0.8h0.5c7.1,0,13.9-3.1,18.5-8.6l2.7,2.3
				C108.8,118,101,121.6,92.8,121.6z"/>
		</g>
	</g>
	<g>
		<path class="st1" d="M80.7,65.2c-2.4-5.8-6.6-11.1-12.1-14.1c-5.5-3-12.5-3.5-18.1-0.6s-9.2,9.6-7.9,15.7c0.5,2.4,2,4.9,4.4,5.6
			c2.4,0.7,5-0.6,6.9-2.3c2.4-2.1,4.3-4.6,6.6-6.7c2.3-2.1,5.3-3.7,8.5-3.4c2.6,0.3,4.9,1.9,6.5,3.9c1.6,2,2.7,4.4,3.8,6.7"/>
	</g>
	<g>
		<path class="st1" d="M92.8,119.8h-0.5c-14.3,0-24.7-11.6-24.7-25.9V80.8c0-14.3,10.4-21.1,24.7-21.1h0.5
			c14.3,0,25.9,6.8,25.9,21.1v13.1C118.7,108.2,107.2,119.8,92.8,119.8z"/>
		<path class="st1" d="M92.8,120.5h-0.5c-7.1,0-13.5-2.8-18.2-7.8c-4.6-5-7.2-11.6-7.2-18.8V80.8c0-7,2.5-12.7,7.2-16.5
			c4.4-3.5,10.7-5.3,18.1-5.3h0.5c7.6,0,14.1,1.8,18.8,5.3c5.1,3.9,7.9,9.5,7.9,16.5V94C119.4,108.6,107.5,120.5,92.8,120.5z
			 M92.3,60.4c-7.2,0-13.1,1.8-17.3,5c-4.5,3.5-6.7,8.7-6.7,15.4v13.1c0,6.8,2.4,13.2,6.8,17.8c4.4,4.8,10.5,7.4,17.2,7.4h0.5
			c13.9,0,25.2-11.3,25.2-25.2V80.8c0-6.5-2.5-11.8-7.3-15.4c-4.4-3.3-10.6-5.1-17.9-5.1L92.3,60.4L92.3,60.4z"/>
	</g>
	<g>
		<g>
			<ellipse class="st0" cx="90" cy="98.6" rx="12.2" ry="8.4"/>
		</g>
	</g>
	<g>
		<g>
			<ellipse class="st0" cx="73.9" cy="93.5" rx="1.9" ry="4.3"/>
		</g>
	</g>
	<g>
		<g>
			<ellipse class="st0" cx="109.4" cy="93.5" rx="1.9" ry="4.3"/>
		</g>
	</g>
	<g>
		<g>
			<path class="st0" d="M90.4,116.7c-0.5,0-1-0.4-1-1c0-0.5,0.4-1,1-1c5.8,0,11.1-2.8,13.2-7c0.2-0.5,0.8-0.7,1.3-0.5
				c0.5,0.2,0.7,0.8,0.5,1.3C102.9,113.5,97,116.7,90.4,116.7z"/>
		</g>
	</g>
	<g>
		<path class="st1" d="M81,97.1c-0.2,0-0.5-0.1-0.6-0.3c-0.4-0.3-0.4-1,0-1.4c1.4-1.6,3.5-2.7,5.9-3.5c0.5-0.2,1,0.2,1.2,0.6
			c0.2,0.5-0.2,1-0.6,1.2c-2.1,0.6-3.9,1.6-5,2.9C81.5,97,81.3,97.1,81,97.1z"/>
	</g>
	<g>
		<path class="st1" d="M115.5,74.6c3.3-7.5,4.5-16.1,2.4-24c-2.1-7.9-7.9-15-15.7-17.7c-7.7-2.6-17.3-0.1-21.9,6.6
			c-1.8,2.7-2.9,6.3-1.4,9.2c1.5,2.9,5.1,4.1,8.4,4.5c4,0.4,8.2-0.1,12.2,0.3c4.1,0.3,8.3,1.7,10.8,4.9c2.1,2.7,2.6,6.3,2.2,9.6
			c-0.4,3.4-1.7,6.5-2.9,9.6"/>
	</g>
	<g>
		<g>
			<ellipse class="st0" cx="92.8" cy="125.2" rx="3.1" ry="4.5"/>
		</g>
	</g>
	<path class="st0" d="M90.4,136.7c0-0.5-0.3-0.8-0.8-0.8c-0.5,0-0.8,0.3-0.8,0.8v9.2c0,0,0,0.1,0,0.1c0.5,0,1,0.1,1.6,0.1
		c0-0.1,0-0.1,0-0.2V136.7z"/>
</g>
</svg>
