<?xml version="1.0" encoding="utf-8"?>
<!-- Generator: Adobe Illustrator 19.1.0, SVG Export Plug-In . SVG Version: 6.00 Build 0)  -->
<svg version="1.1" id="Layer_1" xmlns="http://www.w3.org/2000/svg" xmlns:xlink="http://www.w3.org/1999/xlink" x="0px" y="0px"
	 viewBox="372 -190.8 1536 635" style="enable-background:new 372 -190.8 1536 635;" xml:space="preserve">
<style type="text/css">
	.st0{fill:#F1E889;}
	.st1{fill:none;stroke:#4F5169;stroke-miterlimit:10;}
	.st2{fill:#F0F1F2;}
	.st3{fill:#00A79F;}
</style>
<g>
	<g>
		<circle class="st0" cx="551.9" cy="-13.4" r="68"/>
	</g>
	<polygon class="st1" points="551.9,-64.3 571.8,-113.2 571.4,-60.4 608.5,-98 587.9,-49.4 636.6,-70 598.9,-32.9 651.8,-33.3 
		602.8,-13.4 651.8,6.5 598.9,6.1 636.6,43.2 587.9,22.6 608.5,71.2 571.4,33.6 571.8,86.4 551.9,37.5 532,86.4 532.4,33.6 
		495.3,71.2 515.9,22.6 467.3,43.2 504.9,6.1 452.1,6.5 501,-13.4 452.1,-33.3 504.9,-32.9 467.3,-70 515.9,-49.4 495.3,-98 
		532.4,-60.4 532,-113.2 	"/>
</g>
<rect x="321.3" y="333.5" class="st0" width="1610.7" height="116.7"/>
<g id="skyline">
	<path class="st2" d="M1125.9,280.1L1125.9,280.1c0-8,0-16,0-24.1c0-19.2,0-38.3,0-57.5c0-23.3,0-46.5,0-69.8c0-20,0-40.1,0-60.1
		c0-6.6,0-13.2,0-19.8c0-2.1,0-4.1,0-6.2c0-1,0.2-2.3,0-3.2c0-0.1,0-0.3,0-0.4c0-0.2-0.2-0.3-0.5-0.3c-4.6,0-9.2,0-13.8,0
		c-3,0-5.9,0-8.9,0c-0.9,0-2.6-0.3-3.4,0.2l0,0c-4.1,1.1-8.2,2.1-12.2,3.2c-4.9,1.3-10.2,2.2-15,3.9c-1.8,0.6-2.9,3-4,4.5
		c-3.6,4.7-7.2,9.4-10.8,14c-0.1,0.1-0.1,0.1-0.2,0.2c-12.8,0-25.5,0-38.3,0c-5,0-10.1,0-15.1,0c-0.2,0-0.7,0.1-0.7,0.3
		c0,0.1,0,0.1,0,0.2c-2.8,0.8-5.7,1.6-8.5,2.4c0-19.1,0-38.2,0-57.3c0-16.6,0-33.2,0-49.8c0-5.5,0-11,0-16.4c0-1.7,0-3.4,0-5.1
		c0-0.8,0.2-1.9,0-2.7c0-0.1,0-0.2,0-0.3c0-0.2-0.2-0.3-0.4-0.3c-3.6,0-7.3,0.1-10.9,0c0.1-0.3,0-0.8,0-1.1c0-1.5,0-3,0-4.5
		c0-9.6,0-19.2,0-28.8c0-2.7,0-5.3,0-8c0-0.2-0.2-0.3-0.4-0.3c-3.9,0-7.7,0-11.6,0c-0.6,0-1.2,0-1.8,0c0.1-0.9,0-2,0-2.9
		c0-9.1,0-18.3,0-27.4c0-2.8,0-5.5,0-8.3c0-0.2-0.2-0.3-0.4-0.3c-2.7,0-5.5,0-8.2,0c-0.5,0-1.2-0.1-1.8,0h-0.1c0-1.4,0-2.8,0-4.2
		c0-0.2-0.2-0.3-0.4-0.3c-1,0-2.1,0-3.1,0c-0.2,0-0.5,0.2-0.5,0.4c0,1.1,0,2.1,0,3.2c0,0.1,0,0.6,0,0.9c-0.3,0-0.8,0-1,0
		c-0.3,0-0.7,0.1-1.1,0.1c0.1-0.1,0-0.4,0-0.8c0-1.1,0-2.3,0-3.4c0-0.2-0.2-0.3-0.4-0.3c-1,0-2.1,0-3.1,0c-0.2,0-0.5,0.2-0.5,0.4
		c0,1.1,0,2.1,0,3.2c0,0.1,0,0.6,0,0.9c-0.3,0-0.8,0-1,0c-0.3,0-0.7,0.1-1.1,0.1c0.1-0.1,0-0.4,0-0.8c0-1.1,0-2.3,0-3.4
		c0-0.2-0.2-0.3-0.4-0.3c-1,0-2.1,0-3.1,0c-0.2,0-0.5,0.2-0.5,0.4c0,1.1,0,2.1,0,3.2c0,0.1,0,0.6,0,0.9c-0.3,0-0.8,0-1,0
		c-0.3,0-0.7,0.1-1.1,0.1c0.1-0.1,0-0.4,0-0.8c0-1.1,0-2.3,0-3.4c0-0.2-0.2-0.3-0.4-0.3c-1,0-2.1,0-3.1,0c-0.2,0-0.5,0.2-0.5,0.4
		c0,1-0.4,3.2,0,4.1c-0.5-0.1-1.3,0-1.8,0c-2.7,0-5.5,0-8.2,0c-0.2,0-0.5,0.2-0.5,0.4c0,6.9,0,13.8,0,20.7c0,4.4,0,8.9,0,13.3
		c0,1.3-0.2,2.7,0,4c0,0.2,0,0.4,0,0.5H926c-0.8-0.2-2,0-2.9,0c-1.4,0-2.8,0-4.2,0c-1.8,0-3.5,0-5.3,0c-0.2,0-0.5,0.2-0.5,0.4
		c0,0.1,0,0.1,0,0.2c-2,2.6-4,5.2-6,7.8c-1.2,1.6-2.3,2.4-2.3,4.3c0,7.8,0,15.5,0,23.3c0,2.3,0,4.5,0,6.8c-1.1,0-2.3,0-3.4,0
		c-0.2,0-0.5,0.2-0.5,0.4l0,0c-2.7,3.2-5.7,6.2-8.1,9.6c-0.5,0.7-0.5,0.8-0.5,1.7c0,3.8,0,7.7,0,11.5c0,16.8,0,33.6,0,50.5
		c0,22.6,0,45.1,0,67.7c0,15.5,0,31.1,0,46.6c-12.5,0-24.9,0-37.4,0l0,0c-0.2,0-0.4,0.1-0.5,0.1c-6.7,0.9-13.4,1.9-20,2.8l0,0
		c-0.3,0-0.5,0.2-0.5,0.3c0,5.8,0,11.6,0,17.4c0,13.9,0,27.9,0,41.8c0,16.8,0,33.6,0,50.4c0,14.6,0,29.2,0,43.8c0,4.8,0,9.6,0,14.4
		l0,0H828c0-3.7,0-7.3,0-11c0-14.3,0-28.7,0-43c0-17.3,0-34.7,0-52c0-15,0-30,0-45c0-4.9,0-9.9,0-14.8c0-1.6,0-3.1,0-4.7
		c0-0.6,0.3-1.9,0-2.4c0-0.1,0-0.2,0-0.3c0-0.1-0.1-0.1-0.2-0.1c-3.5,0-7,0-10.6,0c0-4.4,0-8.9,0-13.3c0-0.1-0.1-0.1-0.2-0.1
		c-12.2,0-24.3,0-36.5,0c-1.7,0-3.5,0-5.2,0c-0.1,0-0.6,0.1-0.7,0.2c-7.2,4.2-14.5,8.5-21.7,12.7c-4.8,2.8-9.5,5.6-14.3,8.3
		c-1.4,0.8-2.7,1.6-4.1,2.4c-0.5,0.3-0.8,0.4-1,0.8c-0.2,0.6-0.1,1.6,0,2.4c-1.1,0.5-2.3,1-3.4,1.5c0-7.7,0-15.4,0-23.1
		c0-24.9,0-49.9,0-74.8c0-8.2,0-16.5,0-24.7c0-2.6,0-5.2,0-7.7c0-1.2,0.2-2.8,0-4c0-0.2,0-0.3,0-0.5s-0.1-0.2-0.3-0.2
		c-7.6,0-15.2,0-22.8,0c0-3.9,0-7.9,0-11.8c0-0.2-0.1-0.2-0.3-0.2c-12.1,0-24.3,0-36.4,0c-0.2,0-0.6,0.1-0.6,0.3c0,3.9,0,7.8,0,11.7
		c-7.5,0-15,0-22.5,0c-0.2,0-0.6,0.1-0.6,0.3c0,10,0,19.9,0,29.9c0,23.9,0,47.9,0,71.8c0,1.5,0,3,0,4.5c-9.2,0-18.3,0-27.5,0
		c-0.2,0-0.5,0.2-0.5,0.4c0,1.8,0,3.7,0,5.5c0,1.5,0,2.9,0,4.4c0,0.7-0.3,2.4,0,3v0.1c-0.1,0-0.2,0-0.3,0c-1.2-0.1-2.5,0-3.7,0
		c-2.1,0-4.2,0-6.3,0c-0.2,0-0.5,0.2-0.5,0.4c0,6,0,11.9,0,17.9c0,14.3,0,28.7,0,43c0,17.3,0,34.7,0,52c0,15,0,30,0,45
		c0,4.9,0,9.9,0,14.8c0,0.1,0,0.2,0,0.3h-31.7c0-3.5,0-7,0-10.5c0-14,0-27.9,0-41.9c0-17,0-33.9,0-50.9c0-14.6,0-29.2,0-43.8
		c0-4.8,0-9.7,0-14.5c0-1.5,0-3,0-4.5c0-0.7,0.2-1.7,0-2.4c0-0.1,0-0.2,0-0.3c0-0.2-0.1-0.2-0.3-0.3c-6.9-0.7-13.7-1.4-20.6-2.1
		c-0.1,0-0.3,0-0.4,0.1c-18.2,0-36.4,0-54.7,0c-25.1,0-50.2,0-75.3,0c0-19.7,0-39.3,0-59c0-31.5,0-63,0-94.6c0-10.4,0-20.9,0-31.3
		c0-3.2,0-6.4,0-9.6c0-1.5,0.3-3.6,0-5.1c0-0.2,0-0.5,0-0.7c0,0,0-0.1-0.1-0.1c-0.1-0.1-0.3-0.2-0.4-0.4v-2.3l-16.5-12.5
		c-1.2-1-2.3-2.1-3.5-3.1l0,0c0,0,0,0-0.1,0l0,0l0,0l0,0c-0.1-0.1-0.3-0.1-0.6,0c-2,0-4.1,0-6.1,0c0-5.6,0-11.2,0-16.8
		c0-5.6,0.3-11.3,0-16.8c0-0.2,0-0.5,0-0.7l0,0v-0.1c0,0,0,0,0-0.1l0,0c-11.7-9.9-23.5-19.8-35.2-29.8c-1.7-1.4-3.3-2.8-5-4.2
		c-0.2-0.2-0.8,0-0.8,0.3c0,4.8,0,9.5,0,14.3c0,12.8,0,25.6,0,38.5c0,18.8,0,37.6,0,56.4c0,22.5,0,44.9,0,67.4c0,24,0,48,0,72
		c0,23.4,0,46.8,0,70.2c0,20.6,0,41.2,0,61.9c0,15.7,0,31.4,0,47.2c0,8.5,0,17.1,0,25.6c0,2.1,0,3.7,0.9,5.5v41.2h768.1v-41.9h-0.3
		c0.7-1.5,1-3.2,1.1-4.8c0-2.1,0-4.1,0-6.2C1125.9,282.5,1125.9,281.3,1125.9,280.1z M618.3,121.5
		C618.3,121.6,618.2,121.6,618.3,121.5L618.3,121.5z"/>
</g>
<g id="skyline_1_">
	<path class="st2" d="M1895.8,280.1L1895.8,280.1c0-8,0-16,0-24.1c0-19.2,0-38.3,0-57.5c0-23.3,0-46.5,0-69.8c0-20,0-40.1,0-60.1
		c0-6.6,0-13.2,0-19.8c0-2.1,0-4.1,0-6.2c0-1,0.2-2.3,0-3.2c0-0.1,0-0.3,0-0.4c0-0.2-0.2-0.3-0.5-0.3c-4.7,0-9.3,0-14,0
		c-3,0-6,0-9,0c-0.9,0-2.6-0.3-3.5,0.2l0,0c-4.1,1.1-8.3,2.1-12.4,3.2c-5,1.3-10.3,2.2-15.1,3.9c-1.8,0.6-3,3-4.1,4.5
		c-3.6,4.7-7.2,9.4-10.9,14c-0.1,0.1-0.1,0.1-0.2,0.2c-12.9,0-25.8,0-38.7,0c-5.1,0-10.2,0-15.3,0c-0.2,0-0.7,0.1-0.7,0.3
		c0,0.1,0,0.1,0,0.2c-2.9,0.8-5.7,1.6-8.6,2.4c0-19.1,0-38.2,0-57.3c0-16.6,0-33.2,0-49.8c0-5.5,0-11,0-16.4c0-1.7,0-3.4,0-5.1
		c0-0.8,0.2-1.9,0-2.7c0-0.1,0-0.2,0-0.3c0-0.2-0.2-0.3-0.4-0.3c-3.7,0-7.3,0.1-11,0c0.1-0.3,0-0.8,0-1.1c0-1.5,0-3,0-4.5
		c0-9.6,0-19.2,0-28.8c0-2.7,0-5.3,0-8c0-0.2-0.2-0.3-0.4-0.3c-3.9,0-7.8,0-11.7,0c-0.6,0-1.2,0-1.8,0c0.1-0.9,0-2,0-2.9
		c0-9.1,0-18.3,0-27.4c0-2.8,0-5.5,0-8.3c0-0.2-0.2-0.3-0.4-0.3c-2.8,0-5.5,0-8.3,0c-0.5,0-1.3-0.1-1.8,0h-0.1c0-1.4,0-2.8,0-4.2
		c0-0.2-0.2-0.3-0.4-0.3c-1,0-2.1,0-3.1,0c-0.2,0-0.5,0.2-0.5,0.4c0,1.1,0,2.1,0,3.2c0,0.1,0,0.6,0,0.9c-0.3,0-0.8,0-1,0
		c-0.3,0-0.7,0.1-1.1,0.1c0.1-0.1,0-0.4,0-0.8c0-1.1,0-2.3,0-3.4c0-0.2-0.2-0.3-0.4-0.3c-1,0-2.1,0-3.1,0c-0.2,0-0.5,0.2-0.5,0.4
		c0,1.1,0,2.1,0,3.2c0,0.1,0,0.6,0,0.9c-0.3,0-0.8,0-1,0c-0.3,0-0.7,0.1-1.1,0.1c0.1-0.1,0-0.4,0-0.8c0-1.1,0-2.3,0-3.4
		c0-0.2-0.2-0.3-0.4-0.3c-1,0-2.1,0-3.1,0c-0.2,0-0.5,0.2-0.5,0.4c0,1.1,0,2.1,0,3.2c0,0.1,0,0.6,0,0.9c-0.3,0-0.8,0-1,0
		c-0.3,0-0.7,0.1-1.1,0.1c0.1-0.1,0-0.4,0-0.8c0-1.1,0-2.3,0-3.4c0-0.2-0.2-0.3-0.4-0.3c-1,0-2.1,0-3.1,0c-0.2,0-0.5,0.2-0.5,0.4
		c0,1-0.4,3.2,0,4.1c-0.5-0.1-1.3,0-1.8,0c-2.8,0-5.5,0-8.3,0c-0.2,0-0.5,0.2-0.5,0.4c0,6.9,0,13.8,0,20.7c0,4.4,0,8.9,0,13.3
		c0,1.3-0.2,2.7,0,4c0,0.2,0,0.4,0,0.5h-0.1c-0.8-0.2-2.1,0-2.9,0c-1.4,0-2.8,0-4.2,0c-1.8,0-3.6,0-5.4,0c-0.2,0-0.5,0.2-0.5,0.4
		c0,0.1,0,0.1,0,0.2c-2,2.6-4,5.2-6.1,7.8c-1.2,1.6-2.3,2.4-2.3,4.3c0,7.8,0,15.5,0,23.3c0,2.3,0,4.5,0,6.8c-1.1,0-2.3,0-3.4,0
		c-0.2,0-0.5,0.2-0.5,0.4l0,0c-2.7,3.2-5.7,6.2-8.2,9.6c-0.5,0.7-0.5,0.8-0.5,1.7c0,3.8,0,7.7,0,11.5c0,16.8,0,33.6,0,50.5
		c0,22.6,0,45.1,0,67.7c0,15.5,0,31.1,0,46.6c-12.6,0-25.2,0-37.8,0l0,0c-0.2,0-0.4,0.1-0.5,0.1c-6.8,0.9-13.5,1.9-20.3,2.8l0,0
		c-0.3,0-0.5,0.2-0.5,0.3c0,5.8,0,11.6,0,17.4c0,13.9,0,27.9,0,41.8c0,16.8,0,33.6,0,50.4c0,14.6,0,29.2,0,43.8c0,4.8,0,9.6,0,14.4
		l0,0h-6c0-3.7,0-7.3,0-11c0-14.3,0-28.7,0-43c0-17.3,0-34.7,0-52c0-15,0-30,0-45c0-4.9,0-9.9,0-14.8c0-1.6,0-3.1,0-4.7
		c0-0.6,0.3-1.9,0-2.4c0-0.1,0-0.2,0-0.3c0-0.1-0.1-0.1-0.2-0.1c-3.6,0-7.1,0-10.7,0c0-4.4,0-8.9,0-13.3c0-0.1-0.1-0.1-0.2-0.1
		c-12.3,0-24.6,0-36.9,0c-1.8,0-3.5,0-5.3,0c-0.2,0-0.6,0.1-0.7,0.2c-7.3,4.2-14.6,8.5-22,12.7c-4.8,2.8-9.6,5.6-14.4,8.3
		c-1.4,0.8-2.8,1.6-4.1,2.4c-0.5,0.3-0.8,0.4-1,0.8c-0.2,0.6-0.1,1.6,0,2.4c-1.1,0.5-2.3,1-3.4,1.5c0-7.7,0-15.4,0-23.1
		c0-24.9,0-49.9,0-74.8c0-8.2,0-16.5,0-24.7c0-2.6,0-5.2,0-7.7c0-1.2,0.2-2.8,0-4c0-0.2,0-0.3,0-0.5s-0.1-0.2-0.3-0.2
		c-7.7,0-15.4,0-23,0c0-3.9,0-7.9,0-11.8c0-0.2-0.1-0.2-0.3-0.2c-12.3,0-24.5,0-36.8,0c-0.2,0-0.7,0.1-0.7,0.3c0,3.9,0,7.8,0,11.7
		c-7.6,0-15.1,0-22.7,0c-0.2,0-0.7,0.1-0.7,0.3c0,10,0,19.9,0,29.9c0,23.9,0,47.9,0,71.8c0,1.5,0,3,0,4.5c-9.3,0-18.5,0-27.8,0
		c-0.2,0-0.5,0.2-0.5,0.4c0,1.8,0,3.7,0,5.5c0,1.5,0,2.9,0,4.4c0,0.7-0.3,2.4,0,3v0.1c-0.1,0-0.2,0-0.3,0c-1.2-0.1-2.5,0-3.7,0
		c-2.1,0-4.2,0-6.4,0c-0.2,0-0.5,0.2-0.5,0.4c0,6,0,11.9,0,17.9c0,14.3,0,28.7,0,43c0,17.3,0,34.7,0,52c0,15,0,30,0,45
		c0,4.9,0,9.9,0,14.8c0,0.1,0,0.2,0,0.3h-32c0-3.5,0-7,0-10.5c0-14,0-27.9,0-41.9c0-17,0-33.9,0-50.9c0-14.6,0-29.2,0-43.8
		c0-4.8,0-9.7,0-14.5c0-1.5,0-3,0-4.5c0-0.7,0.2-1.7,0-2.4c0-0.1,0-0.2,0-0.3c0-0.2-0.1-0.2-0.3-0.3c-6.9-0.7-13.9-1.4-20.8-2.1
		c-0.1,0-0.3,0-0.4,0.1c-18.4,0-36.8,0-55.2,0c-25.4,0-50.7,0-76.1,0c0-19.7,0-39.3,0-59c0-31.5,0-63,0-94.6c0-10.4,0-20.9,0-31.3
		c0-3.2,0-6.4,0-9.6c0-1.5,0.3-3.6,0-5.1c0-0.2,0-0.5,0-0.7c0,0,0-0.1-0.1-0.1c-0.1-0.1-0.3-0.2-0.4-0.4v-2.3l-16.7-12.5
		c-1.2-1-2.4-2.1-3.5-3.1l0,0c0,0,0,0-0.1,0l0,0l0,0l0,0c-0.1-0.1-0.4-0.1-0.6,0c-2.1,0-4.1,0-6.2,0c0-5.6,0-11.2,0-16.8
		c0-5.6,0.3-11.3,0-16.8c0-0.2,0-0.5,0-0.7l0,0v-0.1c0,0,0,0,0-0.1l0,0c-11.9-9.9-23.7-19.8-35.6-29.8c-1.7-1.4-3.4-2.8-5.1-4.2
		c-0.2-0.2-0.8,0-0.8,0.3c0,4.8,0,9.5,0,14.3c0,12.8,0,25.6,0,38.5c0,18.8,0,37.6,0,56.4c0,22.5,0,44.9,0,67.4c0,24,0,48,0,72
		c0,23.4,0,46.8,0,70.2c0,20.6,0,41.2,0,61.9c0,15.7,0,31.4,0,47.2c0,8.5,0,17.1,0,25.6c0,2.1,0,3.7,0.9,5.5v41.2h776.2v-41.9h-0.3
		c0.7-1.5,1.1-3.2,1.1-4.8c0-2.1,0-4.1,0-6.2C1895.8,282.5,1895.8,281.3,1895.8,280.1z M1382.7,121.5
		C1382.8,121.6,1382.7,121.6,1382.7,121.5L1382.7,121.5z"/>
</g>
<g id="bushes_1_">
	<path class="st3" d="M587.1,308.4c5.4-5.5,10.7-15.9-8-17.1c14.7-18.9-13.4-39.7-60.3-35.4c6.7-19.5-21.4-35.4-65.7-29.3
		c2.7-11.6-8-23.2-26.8-30.5c-13.8-5.8-36.8-9.6-60.6-10.5v138.8c0,7.9,7.9,14.3,17.7,14.3H650C662,327.9,606.7,309,587.1,308.4z"/>
	<path class="st3" d="M1680.7,372.1c-5.6-5.8-11.3-16.7,8.5-18c-15.5-19.9,14.1-41.7,63.4-37.2c-7-20.5,22.5-37.2,69-30.8
		c-2.8-12.2,8.5-24.4,28.2-32.1c14.5-6.1,38.7-10.1,63.6-11v145.9c0,8.3-8.3,15-18.6,15h-280.2
		C1602,392.5,1660.1,372.7,1680.7,372.1z"/>
</g>
</svg>
