<?xml version="1.0" encoding="utf-8"?>
<!-- Generator: Adobe Illustrator 19.1.0, SVG Export Plug-In . SVG Version: 6.00 Build 0)  -->
<svg version="1.1" id="Layer_1" xmlns="http://www.w3.org/2000/svg" xmlns:xlink="http://www.w3.org/1999/xlink" x="0px" y="0px"
	 viewBox="0 0 72 72" enable-background="new 0 0 72 72" xml:space="preserve">
<g>
	<path fill="#31C5C7" d="M51.101,59.748l-0.067-0.001c-8.111-0.259-17.607-8.112-24.148-14.655s-14.391-16.039-14.65-24.12
		c-0.092-2.876,6.883-7.932,6.954-7.982c1.638-1.141,3.848-0.913,4.76,0.35c0.542,0.751,5.8,8.724,6.379,9.635
		c0.614,0.967,0.529,2.402-0.229,3.836c-0.4,0.763-1.716,3.077-2.362,4.209c0.706,1.002,2.516,3.365,6.185,7.034
		c3.693,3.693,6.036,5.489,7.033,6.19c1.132-0.647,3.447-1.964,4.213-2.365c1.391-0.734,2.845-0.832,3.815-0.239
		c0.973,0.595,8.913,5.874,9.638,6.383c1.194,0.836,1.671,2.896,0.361,4.767C58.933,52.861,53.942,59.748,51.101,59.748z
		 M21.526,14.58c-0.221,0-0.573,0.06-0.986,0.347c-2.154,1.505-5.834,4.952-5.945,5.962c0.234,7.318,7.721,16.292,13.96,22.534
		c6.24,6.24,15.214,13.73,22.523,13.963l0.008,0.002c1.007-0.113,4.453-3.794,5.959-5.95c0.55-0.786,0.326-1.39,0.216-1.482
		c-0.603-0.423-8.557-5.717-9.511-6.299c-0.027-0.018-0.117-0.046-0.27-0.046c-0.339,0-0.782,0.13-1.214,0.359
		c-0.971,0.509-4.734,2.664-4.772,2.686l-0.594,0.34l-0.592-0.347c-0.111-0.066-2.811-1.677-8.058-6.923
		c-5.247-5.247-6.856-7.948-6.921-8.06l-0.346-0.59l0.339-0.594c0.022-0.038,2.177-3.802,2.683-4.769
		c0.432-0.818,0.388-1.372,0.327-1.471c-0.549-0.866-5.794-8.818-6.299-9.518C22.01,14.696,21.844,14.58,21.526,14.58z"/>
</g>
</svg>
