<?xml version="1.0" encoding="utf-8"?>
<!-- Generator: Adobe Illustrator 19.0.1, SVG Export Plug-In . SVG Version: 6.00 Build 0)  -->
<svg version="1.1" id="Layer_1" xmlns="http://www.w3.org/2000/svg" xmlns:xlink="http://www.w3.org/1999/xlink" x="0px" y="0px"
	 viewBox="486 -143.9 1008 342" style="enable-background:new 486 -143.9 1008 342;" xml:space="preserve">
<style type="text/css">
	.st0{opacity:0.19;fill:#FFFFFF;stroke:#D8D8D8;stroke-width:2;stroke-miterlimit:10;}
	.st1{fill:#FFFFFF;stroke:#D8D8D8;stroke-width:2;stroke-miterlimit:10;}
	.st2{fill:#6D6D6D;}
	.st3{font-family:'Dosis-Regular';}
	.st4{font-size:40.0507px;}
</style>
<g>
	<polygon class="st0" points="535.5,95.3 1068.9,95.3 1068.9,-25.5 535.5,-25.5 603.3,34.9 	"/>
	<line class="st1" x1="1208.9" y1="29.7" x2="1137.5" y2="29.7"/>
	<g>
		<ellipse class="st1" cx="1424.8" cy="5.4" rx="0.8" ry="2.8"/>
		<path class="st1" d="M1424.8,9.8c0.9,0,2.4-0.6,2.4-4.4s-1.5-4.4-2.4-4.4c-0.9,0-2.4,0.6-2.4,4.4S1423.8,9.8,1424.8,9.8z"/>
	</g>
	<polygon class="st1" points="539.4,90.2 1072.8,90.2 1072.8,-30.6 539.4,-30.6 607.1,29.8 	"/>
	<polyline class="st1" points="1074.9,89.3 1137.5,29.7 1137.5,29.7 1074.9,-29.8 	"/>
	<g>
		<g>
			<path class="st1" d="M1429.2,28.8c0.1-0.7,0.2-2,0.3-2.7l1.1-10.4c0.1-0.7,0.2-2,0.4-2.7l1.1-7.2c0.1-0.7,0.3-0.7,0.3,0l0.3,3.4
				c0.1,0.7,0.1,2,0.1,2.7l-0.1,12.6c0,0.7,0,2-0.1,2.7l-0.3,8.5c0,0.7-0.1,2-0.1,2.7l-0.3,11.4c0,0.7-0.1,2-0.3,2.7l-0.8,5.1
				c-0.1,0.7-0.3,0.7-0.4,0l-0.9-5.5c-0.1-0.7-0.2-2-0.3-2.7l-0.8-13.4c0-0.7,0-2,0.1-2.7L1429.2,28.8z"/>
			<path class="st1" d="M1429.2,57.9l-0.9-5.5c-0.1-0.8-0.3-2-0.3-2.8l-0.8-13.4c0-0.8,0-2.1,0.1-2.9l2-17.7c0.1-0.8,0.2-2,0.4-2.7
				l1.1-7.2c0.1-0.4,0.2-1.6,1.4-1.6c0.8,0,1.2,0.5,1.3,1.6l0.3,3.4c0.1,0.8,0.1,2.1,0.1,2.8l-0.1,12.6c0,0.8,0,2-0.1,2.7l-0.3,8.5
				c0,0.7-0.1,2-0.1,2.7l-0.3,11.4c0,0.8-0.1,2.1-0.3,2.9l-0.8,5.1c-0.2,1.3-0.9,1.5-1.4,1.5h0C1430.1,59.5,1429.4,59.2,1429.2,57.9
				z M1429.8,33.6c-0.1,0.7-0.1,1.8-0.1,2.5l0.8,13.4c0,0.5,0.1,1.2,0.2,1.8c0.1-0.5,0.1-1.1,0.1-1.5l0.3-11.4c0-0.8,0.1-2,0.1-2.7
				l0.3-8.5c0-0.7,0.1-2,0.1-2.7l0.1-5.8L1429.8,33.6z"/>
		</g>
		<g>
			<path class="st1" d="M1368.7,36.5c4,0,9.8-0.3,13-0.7c3.1-0.4,4.7,2.2,3.4,5.8l-5.9,16.5c-1.3,3.5-2.5,9.5-2.7,13.2l-5,86.1
				c-0.2,3.7-0.6,8.3-0.8,10.2c-0.2,1.9-1.3,4.3-2.5,5.4c-1.2,1.1-3.9,2.3-6,2.6c-2.1,0.3-6,0.3-8.7,0c-2.7-0.3-7.1-1.2-9.8-2
				c-2.7-0.8-5.5-1.9-6.2-2.4c-0.7-0.5-1.8-3.9-2.4-7.6l-15.9-94.4c-0.6-3.7-2-9.7-3.1-13.3l-3.9-12.7c-1.1-3.6,1.3-6.6,5.3-6.6
				L1368.7,36.5z"/>
		</g>
		<g>
			<path class="st1" d="M1368.7,27.1c4,0,9.8,0.3,13,0.7c3.1,0.4,4.7-2.2,3.4-5.8l-5.9-16.5c-1.3-3.5-2.5-9.5-2.7-13.2l-5-86.1
				c-0.2-3.7-0.6-8.3-0.8-10.2c-0.2-1.9-1.3-4.3-2.5-5.4c-1.2-1.1-3.9-2.3-6-2.6c-2.1-0.3-6-0.3-8.7,0c-2.7,0.3-7.1,1.2-9.8,2
				c-2.7,0.8-5.5,1.9-6.2,2.4c-0.7,0.5-1.8,3.9-2.4,7.6L1319-5.6c-0.6,3.7-2,9.7-3.1,13.3l-3.9,12.7c-1.1,3.6,1.3,6.6,5.3,6.6
				L1368.7,27.1z"/>
			<path class="st1" d="M1381.5,28.9c-3.1-0.4-8.9-0.7-12.8-0.7l-51.4-0.2c-2.3,0-4.4-0.9-5.6-2.5c-1.2-1.5-1.5-3.5-0.8-5.6
				l3.9-12.7c1.1-3.6,2.5-9.5,3.1-13.1l15.9-94.4c0.1-0.7,1.3-7.2,2.9-8.3c0.9-0.6,4-1.8,6.5-2.5c2.8-0.9,7.3-1.8,10-2.1
				c2.7-0.3,6.9-0.3,9,0c2.4,0.3,5.3,1.6,6.7,2.9c1.4,1.3,2.7,4,2.9,6.2c0.2,1.9,0.5,6.5,0.8,10.3l5,86.1c0.2,3.7,1.4,9.5,2.6,12.9
				l5.9,16.5c0.8,2.2,0.7,4.3-0.3,5.7c-0.8,1.1-2.1,1.7-3.6,1.7C1382,29,1381.7,29,1381.5,28.9z"/>
		</g>
		<path class="st1" d="M1195.2,34l0.1-4.4c-1-0.2-1.9-0.8-2.5-1.5c-0.8-0.9-1.1-2.1-1-3.3l3.3-24.6c0.2-1.9,0.7-4.9,1.1-6.8l3.6-19
			c0.4-2.3,2.5-4.6,4.7-5.2c1.8-0.5,5-1.2,7-1.5l1.5-0.2c0.8-0.1,1.7-0.2,2.6-0.2c0.9,0,2.4,0.1,3.5,0.4c1.1,0.4,2.8,1.1,3.8,1.6
			c1.1,0.5,2.5,1.6,2.9,2.7c0.4,0.9,0.8,3.2,1,5l1.2,9.6c0.2,1.9,0.6,4.9,0.7,6.8l1.4,14.5c0.2,1.9,0.3,5,0.4,6.9l0.1,8.6
			c2.2-0.6,4.9-1.2,7.3-1.6l3.2-0.6c4-0.7,10.4-1.7,14.4-2.1l16.1-2c4-0.5,10.5-1.1,14.5-1.4l21.5-1.4c4-0.3,10.6-0.5,14.6-0.6
			l53.4-0.5l2.2,0c4,0,9.1,0.1,12.4,0.2l4.4,0.2c4,0.1,10.6,0.6,14.6,1l4.7,0.5c3.6,0.4,8.3,1.1,9.8,1.7c1.3,0.5,2.9,1.5,3.6,2.5
			c0.4,0.7,1.1,1.8,1.5,2.6c0.1,0.2,1,0.7,2,0.7c1.4,0,3.6,0.3,4.9,0.7c1.4,0.4,3.2,1.6,4.2,2.7c1,1.1,1.8,2.9,1.9,4.2
			c0,0.4-0.1,0.8-0.4,1.1l0.1,0.5c0.3,0.3,0.4,0.7,0.4,1.1c0,0.3-0.1,0.6-0.2,0.9l0,0l0,0c-0.3,1.1-0.9,2.4-1.7,3.3
			c-0.9,1.1-2.8,2.3-4.2,2.7c-1.3,0.4-3.5,0.7-4.9,0.7c-1.1,0-1.9,0.5-2,0.7c-0.4,0.8-1.1,1.9-1.5,2.6c-0.6,1-2.3,2-3.6,2.5
			c-1.5,0.6-6.1,1.3-9.8,1.7l-4.7,0.5c-4,0.4-10.5,0.9-14.6,1l-4.4,0.2c-3.3,0.1-8.3,0.2-12.3,0.2l-55.7-0.5c-4,0-10.6-0.3-14.6-0.6
			l-21.5-1.4c-4-0.3-10.6-0.9-14.5-1.4l-16.1-2c-4-0.5-10.5-1.5-14.4-2.1l-3.2-0.6c-2.4-0.4-5.1-1-7.3-1.6l-0.1,8.6
			c0,1.9-0.2,5-0.4,6.9l-1.4,14.5c-0.2,1.9-0.5,4.9-0.7,6.8l-1.2,9.6c-0.2,1.7-0.7,4-1,5c-0.5,1.1-1.9,2.2-3,2.7
			c-1.1,0.5-2.8,1.2-3.8,1.6c-1,0.4-2.6,0.4-3.5,0.4c-0.9,0-1.8-0.1-2.6-0.2l-1.5-0.2c-2-0.3-5.2-0.9-7-1.5
			c-2.2-0.6-4.3-2.9-4.7-5.2l-3.6-19c-0.3-1.8-0.8-4.9-1.1-6.8l-3.3-24.6c-0.2-1.2,0.2-2.4,1-3.3C1193.4,34.8,1194.2,34.3,1195.2,34
			z"/>
		<g>
			<path class="st1" d="M1317,18.6c-21.2,2.4-21.1,9.1-21.1,12.9c0,3.7,0.3,10,20.7,12.4c19.4,2.3,58.9,0.7,61.7,0.7
				c5.8,0,10.5-5.9,10.5-13.1c0-7.2-4.7-13.1-10.5-13.1C1375.6,18.4,1335.6,16.4,1317,18.6z"/>
			<path class="st1" d="M1316.4,46.2c-20.1-2.3-22.8-8.8-22.8-14.8c0-6.5,2.8-12.9,23.2-15.2c5.9-0.7,14.4-1,25.3-1
				c13,0,26.2,0.5,32.5,0.7c2,0.1,3.3,0.1,3.7,0.1c7.1,0,12.8,6.9,12.8,15.4c0,8.5-5.8,15.4-12.8,15.4c-0.4,0-1.5,0-3.3,0.1
				c-5.3,0.1-16.2,0.5-27.8,0.5C1333.8,47.5,1323.4,47,1316.4,46.2z M1317.3,20.9c-19,2.1-19,7.4-19,10.6c0,2.8,0,7.9,18.6,10.1
				c6.8,0.8,17,1.2,30.3,1.2c11.5,0,22.4-0.3,27.7-0.5c1.8-0.1,3-0.1,3.4-0.1c4.4,0,8.1-4.8,8.1-10.8c0-5.9-3.6-10.8-8.1-10.8
				c-0.4,0-1.8,0-3.9-0.1c-6.3-0.2-19.4-0.7-32.4-0.7C1331.3,19.9,1323,20.2,1317.3,20.9z"/>
		</g>
		<g>
			<g>
				<path class="st1" d="M1431.4,26.6c0.1-0.7,0.2-2,0.3-2.7l1.1-10.4c0.1-0.7,0.2-2,0.4-2.7l1.1-7.2c0.1-0.7,0.3-0.7,0.3,0l0.3,3.4
					c0.1,0.7,0.1,2,0.1,2.7l-0.1,12.6c0,0.7,0,2-0.1,2.7l-0.3,8.5c0,0.7-0.1,2-0.1,2.7l-0.3,11.4c0,0.7-0.1,2-0.3,2.7l-0.8,5.1
					c-0.1,0.7-0.3,0.7-0.4,0l-0.9-5.5c-0.1-0.7-0.2-2-0.3-2.7l-0.8-13.4c0-0.7,0-2,0.1-2.7L1431.4,26.6z"/>
				<path class="st1" d="M1431.4,55.7l-0.9-5.5c-0.1-0.8-0.3-2-0.3-2.8l-0.8-13.4c0-0.8,0-2.1,0.1-2.9l2-17.7c0.1-0.8,0.2-2,0.4-2.7
					l1.1-7.2c0.1-0.4,0.2-1.6,1.4-1.6c0.8,0,1.2,0.5,1.3,1.6l0.3,3.4c0.1,0.8,0.1,2.1,0.1,2.8l-0.1,12.6c0,0.8,0,2-0.1,2.7l-0.3,8.5
					c0,0.7-0.1,2-0.1,2.7l-0.3,11.4c0,0.8-0.1,2.1-0.3,2.9l-0.8,5.1c-0.2,1.3-0.9,1.5-1.4,1.5h0C1432.3,57.3,1431.6,57,1431.4,55.7z
					 M1432,31.4c-0.1,0.7-0.1,1.8-0.1,2.5l0.8,13.4c0,0.5,0.1,1.2,0.2,1.8c0.1-0.5,0.1-1.1,0.1-1.5l0.3-11.4c0-0.8,0.1-2,0.1-2.7
					l0.3-8.5c0-0.7,0.1-2,0.1-2.7l0.1-5.8L1432,31.4z"/>
			</g>
			<g>
				<path class="st1" d="M1384,34.8c-3.2,0.4-9.1,0.7-13.1,0.7l-51.4,0.2c-1.6,0-2.9,0.6-3.7,1.6c-0.7,0.9-0.9,2.2-0.5,3.5l3.9,12.7
					c1.1,3.7,2.5,9.7,3.2,13.4l15.9,94.4c0.6,3.8,1.6,6.5,1.9,6.8c0.5,0.3,2.9,1.3,5.9,2.2c2.7,0.8,7,1.7,9.6,2
					c2.5,0.3,6.5,0.3,8.4,0c1.8-0.2,4.3-1.3,5.3-2.2c1-0.9,2-3.1,2.2-4.7c0.2-1.8,0.5-6.4,0.8-10.1l5-86.1c0.2-3.8,1.5-9.9,2.8-13.6
					l5.9-16.5c0.5-1.5,0.5-2.8,0-3.5c-0.3-0.5-0.9-0.7-1.6-0.7C1384.3,34.8,1384.2,34.8,1384,34.8z"/>
			</g>
			<g>
				<path class="st1" d="M1355.7-113.1c-2.6,0.3-6.9,1.2-9.6,2c-2.9,0.9-5.4,1.9-5.8,2.2c-0.4,0.4-1.3,3.1-2,6.9l-15.9,94.4
					c-0.6,3.7-2.1,9.8-3.2,13.4l-3.9,12.7c-0.4,1.3-0.2,2.6,0.5,3.5c0.8,1,2.1,1.6,3.7,1.6l51.4,0.2c4,0,9.9,0.3,13.1,0.7
					c0.9,0.1,1.7-0.1,2.1-0.7c0.5-0.8,0.6-2.1,0-3.5l-5.9-16.5c-1.3-3.6-2.6-9.7-2.8-13.6l-5-86.1c-0.2-3.8-0.6-8.3-0.8-10.1
					c-0.2-1.6-1.2-3.8-2.2-4.7c-1-1-3.5-2-5.3-2.2c-0.9-0.1-2.4-0.2-4-0.2C1358.5-113.3,1356.9-113.2,1355.7-113.1z"/>
			</g>
			<g>
				<ellipse class="st1" cx="1442.7" cy="29.7" rx="0.5" ry="2"/>
				<path class="st1" d="M1442.7,32.8c0.6,0,1.7-0.4,1.7-3.1s-1.1-3.1-1.7-3.1c-0.6,0-1.7,0.4-1.7,3.1S1442.1,32.8,1442.7,32.8z"/>
			</g>
			<path class="st1" d="M1197.4,31.8l0.1-4.4c-1-0.2-1.9-0.8-2.5-1.5c-0.8-0.9-1.1-2.1-1-3.3l3.3-24.6c0.2-1.9,0.7-4.9,1.1-6.8
				l3.6-19c0.4-2.3,2.5-4.6,4.7-5.2c1.9-0.5,5-1.2,7-1.5l1.5-0.2c0.8-0.1,1.7-0.2,2.6-0.2c0.9,0,2.4,0.1,3.5,0.4
				c1.1,0.4,2.8,1.1,3.8,1.6c1.1,0.5,2.5,1.6,2.9,2.7c0.4,0.9,0.8,3.2,1,5l1.2,9.6c0.2,1.9,0.6,4.9,0.7,6.8l1.4,14.5
				c0.2,1.9,0.3,5,0.4,6.9l0.1,8.6c2.2-0.6,4.9-1.2,7.3-1.6l3.2-0.6c4-0.7,10.4-1.7,14.4-2.1l16.1-2c4-0.5,10.5-1.1,14.5-1.4
				l21.5-1.4c4-0.3,10.6-0.5,14.6-0.6l53.4-0.5l2.2,0c4,0,9.1,0.1,12.4,0.2l4.4,0.2c4,0.1,10.6,0.6,14.6,1l4.7,0.5
				c3.6,0.4,8.3,1.1,9.8,1.7c1.3,0.5,2.9,1.5,3.6,2.5c0.4,0.7,1.1,1.8,1.5,2.6c0.1,0.2,1,0.7,2,0.7c1.4,0,3.6,0.3,4.9,0.7
				c1.4,0.4,3.2,1.6,4.2,2.7c1,1.1,1.8,2.9,1.9,4.2c0,0.4-0.1,0.8-0.4,1.1l0.1,0.5c0.3,0.3,0.4,0.7,0.4,1.1c0,0.3-0.1,0.6-0.2,0.9
				l0,0l0,0c-0.3,1.1-0.9,2.4-1.7,3.3c-0.9,1.1-2.8,2.3-4.2,2.7c-1.3,0.4-3.5,0.7-4.9,0.7c-1.1,0-1.9,0.5-2,0.7
				c-0.4,0.8-1.1,1.9-1.5,2.6c-0.6,1-2.3,2-3.6,2.5c-1.5,0.6-6.1,1.3-9.8,1.7l-4.7,0.5c-4,0.4-10.5,0.9-14.6,1l-4.4,0.2
				c-3.3,0.1-8.3,0.2-12.3,0.2l-55.7-0.5c-4,0-10.6-0.3-14.6-0.6l-21.5-1.4c-4-0.3-10.6-0.9-14.5-1.4l-16.1-2
				c-4-0.5-10.5-1.5-14.4-2.1l-3.2-0.6c-2.4-0.4-5.1-1-7.3-1.6l-0.1,8.6c0,1.9-0.2,5-0.4,6.9l-1.4,14.5c-0.2,1.9-0.5,4.9-0.7,6.8
				l-1.2,9.6c-0.2,1.7-0.7,4-1,5c-0.5,1.1-1.9,2.2-3,2.7c-1.1,0.5-2.8,1.2-3.8,1.6c-1,0.4-2.6,0.4-3.5,0.4c-0.9,0-1.8-0.1-2.6-0.2
				l-1.5-0.2c-2-0.3-5.2-0.9-7-1.5c-2.2-0.6-4.3-2.9-4.7-5.2l-3.6-19c-0.3-1.8-0.8-4.9-1.1-6.8l-3.3-24.6c-0.2-1.2,0.2-2.4,1-3.3
				C1195.6,32.6,1196.5,32.1,1197.4,31.8z"/>
			<g>
				<path class="st1" d="M1319.2,16.3c-21.2,2.4-21.1,9.1-21.1,12.9c0,3.7,0.3,10,20.7,12.4c19.4,2.3,58.9,0.7,61.7,0.7
					c5.8,0,10.5-5.9,10.5-13.1c0-7.2-4.7-13.1-10.5-13.1C1377.8,16.2,1337.8,14.2,1319.2,16.3z"/>
				<path class="st1" d="M1318.6,44c-20.1-2.3-22.8-8.8-22.8-14.8c0-6.5,2.8-12.9,23.2-15.2c5.9-0.7,14.4-1,25.3-1
					c13,0,26.2,0.5,32.5,0.7c2,0.1,3.3,0.1,3.7,0.1c7.1,0,12.8,6.9,12.8,15.4c0,8.5-5.8,15.4-12.8,15.4c-0.4,0-1.5,0-3.3,0.1
					c-5.3,0.1-16.2,0.5-27.8,0.5C1336,45.3,1325.6,44.8,1318.6,44z M1319.5,18.7c-19,2.1-19,7.4-19,10.6c0,2.8,0,7.9,18.6,10.1
					c6.8,0.8,17,1.2,30.3,1.2c11.5,0,22.4-0.3,27.7-0.5c1.8-0.1,3-0.1,3.4-0.1c4.4,0,8.1-4.8,8.1-10.8c0-5.9-3.6-10.8-8.1-10.8
					c-0.4,0-1.8,0-3.9-0.1c-6.3-0.2-19.4-0.7-32.4-0.7C1333.5,17.7,1325.2,18,1319.5,18.7z"/>
			</g>
		</g>
	</g>
</g>
<text transform="matrix(1 0 0 1 624.6943 42.786)" class="st2 st3 st4">what can we make for you?</text>
</svg>
