<?xml version="1.0" encoding="utf-8"?>
<!-- Generator: Adobe Illustrator 19.1.0, SVG Export Plug-In . SVG Version: 6.00 Build 0)  -->
<svg version="1.1" id="Layer_1" xmlns="http://www.w3.org/2000/svg" xmlns:xlink="http://www.w3.org/1999/xlink" x="0px" y="0px"
	 viewBox="-243 193 520 407" enable-background="new -243 193 520 407" xml:space="preserve">
<g>
	<text transform="matrix(1 0 0 1 145.604 740.4716)" fill="#F9F9F9" font-family="'Dosis-SemiBold'" font-size="321.9579px">”</text>
</g>
<text transform="matrix(1 0 0 1 -234.1024 468.287)" fill="#F9F9F9" font-family="'Dosis-SemiBold'" font-size="321.9579px">“</text>
<g>
	<rect x="-192.898" y="273.815" fill="none" width="409.796" height="346.657"/>
	<text transform="matrix(1 0 0 1 -150.8774 291.4963)" font-family="'Dosis-Regular'" font-size="23.1759px">Kick Punch Creative is amazing! Their </text>
	<text transform="matrix(1 0 0 1 -180.8784 322.3973)" font-family="'Dosis-Regular'" font-size="23.1759px">creativity, and ability to express my interests </text>
	<text transform="matrix(1 0 0 1 -169.4864 353.2993)" font-family="'Dosis-Regular'" font-size="23.1759px">through their work is exceptional! I will be </text>
	<text transform="matrix(1 0 0 1 -191.6894 384.2003)" font-family="'Dosis-Regular'" font-size="23.1759px">forever grateful for my branding and website. I </text>
	<text transform="matrix(1 0 0 1 -189.3374 415.1013)" font-family="'Dosis-Regular'" font-size="23.1759px">am especially appreciative of the way in which </text>
	<text transform="matrix(1 0 0 1 -187.9584 446.0023)" font-family="'Dosis-Regular'" font-size="23.1759px">they listened to my preferences. I have gotten </text>
	<text transform="matrix(1 0 0 1 -152.7664 476.9033)" font-family="'Dosis-Regular'" font-size="23.1759px">so many compliments on my new look.</text>
</g>
<g>
	<path d="M-135.272,512.715c0-0.374,0.291-0.706,0.726-0.706h3.943c2.614,0,4.772,1.017,4.772,4.233c0,2.47-1.266,3.694-2.926,4.109
		l2.905,5.457c0.062,0.104,0.083,0.229,0.083,0.312c0,0.561-0.706,1.121-1.328,1.121c-0.374,0-0.664-0.249-0.872-0.644l-3.03-5.936
		h-2.096v5.79c0,0.478-0.54,0.727-1.1,0.727c-0.54,0-1.079-0.249-1.079-0.727v-13.736H-135.272z M-133.093,513.96v4.938h2.49
		c1.556,0,2.573-0.664,2.573-2.469c0-1.806-1.017-2.47-2.573-2.47L-133.093,513.96L-133.093,513.96z"/>
	<path d="M-124.752,526.266c0-0.062,0-0.125,0.021-0.187l4.13-13.447c0.166-0.498,0.768-0.747,1.391-0.747
		c0.622,0,1.245,0.249,1.411,0.747l4.108,13.447c0.021,0.062,0.042,0.124,0.042,0.187c0,0.519-0.768,0.913-1.391,0.913
		c-0.353,0-0.644-0.124-0.747-0.456l-0.851-2.947h-5.126l-0.851,2.947c-0.104,0.332-0.395,0.456-0.768,0.456
		C-123.985,527.179-124.752,526.805-124.752,526.266z M-117.136,522.012l-2.075-7.118l-2.075,7.118H-117.136z"/>
	<path d="M-105.475,521.638c-0.228,0.374-0.519,0.498-0.809,0.498c-0.27,0-0.56-0.124-0.747-0.498l-2.781-5.271v10.085
		c0,0.478-0.54,0.727-1.1,0.727c-0.54,0-1.1-0.249-1.1-0.727v-13.343c0-0.81,0.54-1.101,1.1-1.101c0.788,0,1.224,0.271,1.743,1.245
		l2.905,5.5l2.946-5.5c0.519-0.975,0.934-1.245,1.723-1.245c0.581,0,1.1,0.291,1.1,1.101v13.343c0,0.478-0.539,0.727-1.1,0.727
		c-0.54,0-1.1-0.249-1.1-0.727v-9.961L-105.475,521.638z"/>
	<path d="M-98.835,526.266c0-0.062,0-0.125,0.021-0.187l4.13-13.447c0.166-0.498,0.768-0.747,1.391-0.747
		c0.622,0,1.245,0.249,1.411,0.747l4.108,13.447c0.021,0.062,0.042,0.124,0.042,0.187c0,0.519-0.768,0.913-1.391,0.913
		c-0.353,0-0.644-0.124-0.747-0.456l-0.851-2.947h-5.126l-0.851,2.947c-0.104,0.332-0.395,0.456-0.768,0.456
		C-98.068,527.179-98.835,526.805-98.835,526.266z M-91.219,522.012l-2.075-7.118l-2.075,7.118H-91.219z"/>
	<path d="M-78.935,526.369l-4.96-9.441v9.524c0,0.478-0.54,0.727-1.1,0.727c-0.54,0-1.1-0.249-1.1-0.727v-13.717
		c0-0.519,0.54-0.727,1.1-0.727c0.788,0,1.162,0.291,1.66,1.245l4.606,8.986v-9.525c0-0.498,0.561-0.706,1.1-0.706
		c0.56,0,1.1,0.208,1.1,0.706v13.737c0,0.478-0.54,0.727-1.1,0.727C-78.167,527.179-78.645,526.909-78.935,526.369z"/>
	<path d="M-69.141,512.009c2.635,0,4.669,1.267,4.669,4.628v5.914c0,3.362-2.034,4.628-4.669,4.628h-3.673
		c-0.581,0-0.975-0.332-0.975-0.706v-13.758c0-0.374,0.394-0.706,0.975-0.706H-69.141z M-71.59,513.96v11.269h2.449
		c1.556,0,2.469-0.852,2.469-2.678v-5.914c0-1.826-0.913-2.677-2.469-2.677H-71.59z"/>
	<path d="M-62.979,526.266c0-0.062,0-0.125,0.021-0.187l4.129-13.447c0.166-0.498,0.768-0.747,1.39-0.747
		c0.623,0,1.245,0.249,1.411,0.747l4.109,13.447c0.021,0.062,0.041,0.124,0.041,0.187c0,0.519-0.768,0.913-1.39,0.913
		c-0.353,0-0.643-0.124-0.747-0.456l-0.851-2.947h-5.125l-0.851,2.947c-0.104,0.332-0.394,0.456-0.768,0.456
		C-62.211,527.179-62.979,526.805-62.979,526.266z M-55.364,522.012l-2.075-7.118l-2.075,7.118H-55.364z"/>
	<path d="M-46.089,512.735c0-0.478,0.477-0.727,0.975-0.727h3.777c2.22,0,4.191,0.664,4.191,3.591c0,1.722-0.685,2.884-1.764,3.361
		c1.287,0.498,2.138,1.349,2.138,3.466v0.394c0,3.217-1.806,4.358-4.13,4.358h-4.213c-0.602,0-0.975-0.332-0.975-0.706v-13.737
		H-46.089z M-43.909,518.09h2.469c1.411,0,2.096-0.727,2.096-2.138c0-1.391-0.83-1.992-2.138-1.992h-2.428v4.13H-43.909z
		 M-41.316,525.228c1.474,0,2.345-0.789,2.345-2.574v-0.332c0-1.826-0.871-2.49-2.345-2.49h-2.594v5.396L-41.316,525.228
		L-41.316,525.228z"/>
	<path d="M-34.614,512.715c0-0.374,0.291-0.706,0.727-0.706h3.942c2.615,0,4.773,1.017,4.773,4.233c0,2.47-1.266,3.694-2.926,4.109
		l2.905,5.457c0.062,0.104,0.083,0.229,0.083,0.312c0,0.561-0.706,1.121-1.328,1.121c-0.374,0-0.664-0.249-0.872-0.644l-3.03-5.936
		h-2.096v5.79c0,0.478-0.539,0.727-1.1,0.727c-0.54,0-1.079-0.249-1.079-0.727L-34.614,512.715L-34.614,512.715z M-32.435,513.96
		v4.938h2.49c1.557,0,2.573-0.664,2.573-2.469c0-1.806-1.017-2.47-2.573-2.47L-32.435,513.96L-32.435,513.96z"/>
	<path d="M-15.793,512.715c0-0.498,0.54-0.706,1.1-0.706c0.539,0,1.1,0.208,1.1,0.706v9.961c0,3.361-2.075,4.627-4.752,4.627
		c-2.656,0-4.731-1.266-4.731-4.627v-9.961c0-0.498,0.539-0.706,1.1-0.706c0.54,0,1.1,0.208,1.1,0.706v9.961
		c0,1.826,0.955,2.677,2.532,2.677c1.598,0,2.552-0.851,2.552-2.677v-9.961H-15.793z"/>
	<path d="M-6.372,513.96c-1.598,0-2.49,0.851-2.49,2.677v6.039c0,1.826,0.892,2.677,2.531,2.677c2.117,0,2.304-1.432,2.387-2.345
		c0.042-0.54,0.478-0.727,1.079-0.727c0.768,0,1.121,0.229,1.121,1.142c0,2.282-1.888,3.88-4.731,3.88
		c-2.511,0-4.586-1.266-4.586-4.627v-6.039c0-3.361,2.096-4.628,4.607-4.628c2.843,0,4.71,1.557,4.71,3.757
		c0,0.934-0.353,1.141-1.1,1.141c-0.664,0-1.079-0.229-1.1-0.727C-3.986,515.454-4.235,513.96-6.372,513.96z"/>
	<path d="M2.508,518.712h3.196c0.457,0,0.727,0.415,0.727,0.893c0,0.394-0.229,0.851-0.727,0.851H2.508v4.773h6.164
		c0.456,0,0.726,0.456,0.726,0.996c0,0.456-0.228,0.954-0.726,0.954H1.284c-0.478,0-0.976-0.249-0.976-0.727v-13.717
		c0-0.478,0.498-0.727,0.976-0.727h7.388c0.498,0,0.726,0.498,0.726,0.955c0,0.539-0.27,0.996-0.726,0.996H2.508V518.712z"/>
	<path d="M14.131,526.582c0-0.04,0-0.081,0.014-0.121l2.696-8.78c0.108-0.325,0.501-0.488,0.908-0.488
		c0.406,0,0.813,0.163,0.921,0.488l2.683,8.78c0.014,0.04,0.027,0.081,0.027,0.121c0,0.339-0.501,0.597-0.908,0.597
		c-0.23,0-0.42-0.081-0.488-0.298l-0.555-1.924h-3.347l-0.555,1.924c-0.068,0.217-0.257,0.298-0.501,0.298
		C14.632,527.179,14.131,526.935,14.131,526.582z M19.104,523.805l-1.355-4.647l-1.355,4.647H19.104z"/>
	<path d="M26.594,524.55c0-2.398-4.404-1.463-4.404-4.715c0-2.006,1.68-2.602,3.13-2.602c0.88,0,2.466,0.23,2.466,0.976
		c0,0.271-0.189,0.772-0.596,0.772c-0.366,0-0.718-0.516-1.87-0.516c-0.989,0-1.694,0.38-1.694,1.233
		c0,2.006,4.404,1.098,4.404,4.702c0,1.938-1.301,2.886-3.09,2.886c-1.761,0-2.994-0.922-2.994-1.599
		c0-0.325,0.284-0.772,0.623-0.772c0.488,0,0.813,1.07,2.317,1.07C25.862,525.986,26.594,525.525,26.594,524.55z"/>
	<path d="M29.382,517.734c0-0.244,0.217-0.461,0.556-0.461h2.643c1.667,0,2.967,0.8,2.967,2.981v0.108
		c0,2.168-1.341,2.994-3.049,2.994h-1.68v3.347c0,0.312-0.353,0.475-0.718,0.475c-0.352,0-0.718-0.163-0.718-0.475v-8.969H29.382z
		 M30.818,518.548v3.672h1.68c1.002,0,1.612-0.569,1.612-1.762v-0.163c0-1.191-0.61-1.747-1.612-1.747L30.818,518.548
		L30.818,518.548z"/>
	<path d="M36.763,517.734c0-0.325,0.366-0.461,0.718-0.461c0.366,0,0.718,0.136,0.718,0.461v8.97c0,0.312-0.353,0.475-0.718,0.475
		c-0.352,0-0.718-0.163-0.718-0.475V517.734z"/>
	<path d="M39.987,517.734c0-0.244,0.19-0.461,0.475-0.461h2.574c1.708,0,3.117,0.664,3.117,2.765c0,1.612-0.827,2.412-1.911,2.683
		l1.897,3.563c0.041,0.068,0.054,0.149,0.054,0.203c0,0.366-0.461,0.732-0.867,0.732c-0.244,0-0.434-0.163-0.569-0.421l-1.978-3.875
		H41.41v3.78c0,0.312-0.352,0.475-0.718,0.475c-0.353,0-0.705-0.163-0.705-0.475L39.987,517.734L39.987,517.734z M41.41,518.548
		v3.225h1.626c1.017,0,1.68-0.434,1.68-1.612s-0.664-1.612-1.68-1.612L41.41,518.548L41.41,518.548z"/>
	<path d="M46.854,526.582c0-0.04,0-0.081,0.013-0.121l2.697-8.78c0.108-0.325,0.501-0.488,0.908-0.488
		c0.406,0,0.813,0.163,0.921,0.488l2.683,8.78c0.014,0.04,0.027,0.081,0.027,0.121c0,0.339-0.501,0.597-0.908,0.597
		c-0.23,0-0.42-0.081-0.487-0.298l-0.556-1.924h-3.347l-0.556,1.924c-0.068,0.217-0.258,0.298-0.501,0.298
		C47.355,527.179,46.854,526.935,46.854,526.582z M51.827,523.805l-1.355-4.647l-1.355,4.647H51.827z"/>
	<path d="M59.778,517.273c0.325,0,0.474,0.325,0.474,0.637c0,0.353-0.163,0.678-0.474,0.678h-2.087v8.116
		c0,0.312-0.366,0.475-0.718,0.475c-0.366,0-0.718-0.163-0.718-0.475v-8.116h-2.1c-0.298,0-0.475-0.312-0.475-0.664
		c0-0.312,0.149-0.65,0.475-0.65L59.778,517.273L59.778,517.273z"/>
	<path d="M61.334,517.734c0-0.325,0.366-0.461,0.718-0.461c0.366,0,0.718,0.136,0.718,0.461v8.97c0,0.312-0.352,0.475-0.718,0.475
		c-0.352,0-0.718-0.163-0.718-0.475V517.734z"/>
	<path d="M64.462,524.238v-3.943c0-2.194,1.314-3.021,3.035-3.021c1.708,0,3.049,0.827,3.049,3.021v3.943
		c0,2.195-1.341,3.021-3.049,3.021C65.776,527.26,64.462,526.434,64.462,524.238z M69.109,520.295c0-1.191-0.609-1.747-1.612-1.747
		c-1.016,0-1.599,0.556-1.599,1.747v3.943c0,1.192,0.583,1.748,1.599,1.748c1.003,0,1.612-0.556,1.612-1.748V520.295z"/>
	<path d="M76.898,526.65l-3.238-6.165v6.219c0,0.312-0.352,0.475-0.718,0.475c-0.352,0-0.718-0.163-0.718-0.475v-8.956
		c0-0.339,0.352-0.475,0.718-0.475c0.515,0,0.759,0.19,1.084,0.813l3.008,5.867v-6.22c0-0.325,0.366-0.461,0.718-0.461
		c0.366,0,0.718,0.136,0.718,0.461v8.97c0,0.312-0.352,0.475-0.718,0.475C77.399,527.179,77.088,527.003,76.898,526.65z"/>
	<path d="M84.401,524.55c0-2.398-4.404-1.463-4.404-4.715c0-2.006,1.68-2.602,3.13-2.602c0.88,0,2.466,0.23,2.466,0.976
		c0,0.271-0.189,0.772-0.596,0.772c-0.366,0-0.718-0.516-1.87-0.516c-0.989,0-1.694,0.38-1.694,1.233
		c0,2.006,4.404,1.098,4.404,4.702c0,1.938-1.301,2.886-3.09,2.886c-1.761,0-2.994-0.922-2.994-1.599
		c0-0.325,0.284-0.772,0.623-0.772c0.488,0,0.813,1.07,2.317,1.07C83.67,525.986,84.401,525.525,84.401,524.55z"/>
	<path d="M92.866,518.548c-1.043,0-1.626,0.556-1.626,1.747v3.943c0,1.192,0.583,1.748,1.653,1.748c1.382,0,1.504-0.935,1.558-1.531
		c0.027-0.353,0.312-0.475,0.705-0.475c0.501,0,0.731,0.149,0.731,0.746c0,1.49-1.233,2.533-3.089,2.533
		c-1.64,0-2.995-0.826-2.995-3.021v-3.943c0-2.194,1.369-3.021,3.008-3.021c1.856,0,3.076,1.017,3.076,2.453
		c0,0.609-0.23,0.745-0.718,0.745c-0.434,0-0.705-0.149-0.718-0.475C94.424,519.523,94.261,518.548,92.866,518.548z"/>
	<path d="M97.131,524.238v-3.943c0-2.194,1.314-3.021,3.035-3.021c1.708,0,3.049,0.827,3.049,3.021v3.943
		c0,2.195-1.341,3.021-3.049,3.021C98.446,527.26,97.131,526.434,97.131,524.238z M101.779,520.295c0-1.191-0.61-1.747-1.613-1.747
		c-1.016,0-1.599,0.556-1.599,1.747v3.943c0,1.192,0.583,1.748,1.599,1.748c1.003,0,1.613-0.556,1.613-1.748V520.295z"/>
	<path d="M109.607,517.734c0-0.325,0.353-0.461,0.718-0.461c0.353,0,0.718,0.136,0.718,0.461v6.504c0,2.195-1.355,3.021-3.103,3.021
		c-1.734,0-3.089-0.826-3.089-3.021v-6.504c0-0.325,0.353-0.461,0.718-0.461c0.352,0,0.718,0.136,0.718,0.461v6.504
		c0,1.192,0.623,1.748,1.653,1.748c1.043,0,1.667-0.556,1.667-1.748L109.607,517.734L109.607,517.734z"/>
	<path d="M117.463,526.65l-3.238-6.165v6.219c0,0.312-0.352,0.475-0.718,0.475c-0.352,0-0.718-0.163-0.718-0.475v-8.956
		c0-0.339,0.352-0.475,0.718-0.475c0.515,0,0.759,0.19,1.084,0.813l3.008,5.867v-6.22c0-0.325,0.366-0.461,0.718-0.461
		c0.366,0,0.718,0.136,0.718,0.461v8.97c0,0.312-0.352,0.475-0.718,0.475C117.965,527.179,117.653,527.003,117.463,526.65z"/>
	<path d="M124.967,524.55c0-2.398-4.404-1.463-4.404-4.715c0-2.006,1.68-2.602,3.13-2.602c0.88,0,2.466,0.23,2.466,0.976
		c0,0.271-0.189,0.772-0.596,0.772c-0.366,0-0.718-0.516-1.87-0.516c-0.989,0-1.694,0.38-1.694,1.233
		c0,2.006,4.404,1.098,4.404,4.702c0,1.938-1.301,2.886-3.09,2.886c-1.761,0-2.994-0.922-2.994-1.599
		c0-0.325,0.284-0.772,0.623-0.772c0.488,0,0.813,1.07,2.317,1.07C124.235,525.986,124.967,525.525,124.967,524.55z"/>
	<path d="M129.191,521.65h2.087c0.298,0,0.474,0.271,0.474,0.583c0,0.257-0.149,0.556-0.474,0.556h-2.087v3.116h4.024
		c0.298,0,0.474,0.298,0.474,0.65c0,0.298-0.149,0.623-0.474,0.623h-4.824c-0.312,0-0.637-0.163-0.637-0.475v-8.956
		c0-0.312,0.325-0.475,0.637-0.475h4.824c0.325,0,0.474,0.325,0.474,0.624c0,0.352-0.176,0.65-0.474,0.65h-4.024V521.65z"/>
	<path d="M135.476,527.179c-0.312,0-0.637-0.163-0.637-0.475v-8.97c0-0.325,0.366-0.461,0.718-0.461
		c0.366,0,0.718,0.136,0.718,0.461v8.171h3.523c0.285,0,0.434,0.312,0.434,0.637c0,0.312-0.149,0.637-0.434,0.637L135.476,527.179
		L135.476,527.179z"/>
	<path d="M141.3,517.734c0-0.325,0.366-0.461,0.718-0.461c0.366,0,0.718,0.136,0.718,0.461v8.97c0,0.312-0.352,0.475-0.718,0.475
		c-0.352,0-0.718-0.163-0.718-0.475V517.734z"/>
	<path d="M149.198,526.65l-3.238-6.165v6.219c0,0.312-0.352,0.475-0.718,0.475c-0.352,0-0.718-0.163-0.718-0.475v-8.956
		c0-0.339,0.352-0.475,0.718-0.475c0.515,0,0.759,0.19,1.084,0.813l3.008,5.867v-6.22c0-0.325,0.366-0.461,0.718-0.461
		c0.366,0,0.718,0.136,0.718,0.461v8.97c0,0.312-0.352,0.475-0.718,0.475C149.699,527.179,149.387,527.003,149.198,526.65z"/>
	<path d="M155.495,518.548c-1.016,0-1.599,0.556-1.599,1.747v3.943c0,1.192,0.583,1.748,1.599,1.748
		c1.003,0,1.612-0.556,1.612-1.748v-1.111h-1.368c-0.298,0-0.461-0.284-0.461-0.582c0-0.271,0.163-0.569,0.461-0.569h2.331
		c0.298,0,0.474,0.23,0.474,0.487v1.775c0,2.195-1.341,3.021-3.049,3.021c-1.721,0-3.035-0.826-3.035-3.021v-3.943
		c0-2.194,1.342-3.021,2.995-3.021c1.816,0,3.089,0.976,3.089,2.507c0,0.556-0.244,0.691-0.718,0.691
		c-0.379,0-0.705-0.122-0.718-0.475C157.026,519.211,156.674,518.548,155.495,518.548z"/>
</g>
</svg>
