<?xml version="1.0" encoding="utf-8"?>
<!-- Generator: Adobe Illustrator 19.1.0, SVG Export Plug-In . SVG Version: 6.00 Build 0)  -->
<svg version="1.1" id="Layer_1" xmlns="http://www.w3.org/2000/svg" xmlns:xlink="http://www.w3.org/1999/xlink" x="0px" y="0px"
	 viewBox="0 0 31.5 28.9" style="enable-background:new 0 0 31.5 28.9;" xml:space="preserve">
<style type="text/css">
	.st0{fill:#E6E6E6;}
</style>
<g>
	<path class="st0" d="M22,22.7c-2.7,0-4.6-2-4.6-4.6c0-1.9,1.1-3.5,2.8-4.2l-1.9-4.6c-0.2-0.4-0.2-0.6-0.2-0.9
		c0-1.4,1.4-2.2,2.7-2.2c0.6,0,1.4,0.4,1.8,1.1c2.9,6.5,4,9.5,4,10.8C26.6,20.7,24.5,22.7,22,22.7z M7.8,22.7c-2.6,0-4.6-2-4.6-4.6
		c0-1.9,1.1-3.5,2.9-4.2L4.3,9.3C4.1,8.9,4.1,8.6,4.1,8.4c0-1.4,1.4-2.2,2.6-2.2c0.7,0,1.4,0.4,1.9,1.1c2.9,6.5,3.9,9.5,3.9,10.8
		C12.4,20.7,10.4,22.7,7.8,22.7z"/>
</g>
</svg>
