<?xml version="1.0" encoding="utf-8"?>
<!-- Generator: Adobe Illustrator 19.1.0, SVG Export Plug-In . SVG Version: 6.00 Build 0)  -->
<svg version="1.1" id="Layer_1" xmlns="http://www.w3.org/2000/svg" xmlns:xlink="http://www.w3.org/1999/xlink" x="0px" y="0px"
	 viewBox="298 573 1795 671" style="enable-background:new 298 573 1795 671;" xml:space="preserve">
<style type="text/css">
	.st0{fill:#33BFC3;}
	.st1{fill:#FFFFFF;}
	.st2{fill:#363437;}
	.st3{fill:#313334;}
	.st4{fill:#353336;}
	.st5{fill:#2EBEC2;}
	.st6{fill:#373538;}
	.st7{fill:none;}
	.st8{display:none;}
	
		.st9{display:inline;fill:#FFFFFF;stroke:#363437;stroke-width:5.4883;stroke-linecap:round;stroke-linejoin:round;stroke-miterlimit:10;}
	
		.st10{display:inline;fill:#FFFFFF;stroke:#363437;stroke-width:5.3488;stroke-linecap:round;stroke-linejoin:round;stroke-miterlimit:10;}
	
		.st11{display:inline;fill:none;stroke:#363437;stroke-width:4.0116;stroke-linecap:round;stroke-linejoin:round;stroke-miterlimit:10;}
	
		.st12{display:inline;fill:none;stroke:#313334;stroke-width:4.0116;stroke-linecap:round;stroke-linejoin:round;stroke-miterlimit:10;}
	.st13{display:inline;fill:none;stroke:#313334;stroke-width:4.0116;stroke-miterlimit:10;}
	.st14{display:inline;}
	.st15{fill:#FFFFFF;stroke:#363437;stroke-width:5.3488;stroke-linecap:round;stroke-linejoin:round;stroke-miterlimit:10;}
	.st16{fill:#FFFFFF;stroke:#363437;stroke-width:5.3488;stroke-miterlimit:10;}
	.st17{fill:#FFFFFF;stroke:#363437;stroke-width:4.0116;stroke-linecap:round;stroke-linejoin:round;stroke-miterlimit:10;}
	.st18{fill:#353336;stroke:#363437;stroke-width:4.0116;stroke-linecap:round;stroke-linejoin:round;stroke-miterlimit:10;}
	.st19{fill:none;stroke:#363437;stroke-width:5.3488;stroke-linecap:round;stroke-linejoin:round;stroke-miterlimit:10;}
	.st20{fill:#2EBEC2;stroke:#373538;stroke-width:5.3488;stroke-linecap:round;stroke-linejoin:round;stroke-miterlimit:10;}
	
		.st21{display:inline;fill:#2EBEC2;stroke:#373538;stroke-width:5.3488;stroke-linecap:round;stroke-linejoin:round;stroke-miterlimit:10;}
	.st22{display:inline;fill:#FFFFFF;stroke:#353336;stroke-width:5.3488;stroke-miterlimit:10;}
	
		.st23{display:inline;fill:#FFFFFF;stroke:#373538;stroke-width:5.3488;stroke-linecap:round;stroke-linejoin:round;stroke-miterlimit:10;}
	.st24{display:inline;fill:#FFFFFF;stroke:#373538;stroke-width:5.3488;stroke-miterlimit:10;}
	
		.st25{display:inline;fill:#FFFFFF;stroke:#373538;stroke-width:4.0116;stroke-linecap:round;stroke-linejoin:round;stroke-miterlimit:10;}
	.st26{display:inline;fill:#373538;}
	.st27{fill:none;stroke:#373538;stroke-width:5.3488;stroke-linecap:round;stroke-linejoin:round;stroke-miterlimit:10;}
	.st28{fill:none;stroke:#353336;stroke-width:4.0116;stroke-linecap:round;stroke-linejoin:round;stroke-miterlimit:10;}
	.st29{display:inline;fill:#FFFFFF;}
	.st30{fill:#FFFFFF;stroke:#353336;stroke-width:5.3488;stroke-miterlimit:10;}
	.st31{fill:#FFFFFF;stroke:#373538;stroke-width:5.3488;stroke-linecap:round;stroke-linejoin:round;stroke-miterlimit:10;}
	.st32{fill:#FFFFFF;stroke:#373538;stroke-width:5.3488;stroke-miterlimit:10;}
	.st33{fill:#FFFFFF;stroke:#373538;stroke-width:4.0116;stroke-linecap:round;stroke-linejoin:round;stroke-miterlimit:10;}
	.st34{fill:none;stroke:#363437;stroke-width:4.0116;stroke-linecap:round;stroke-linejoin:round;stroke-miterlimit:10;}
	.st35{fill:none;stroke:#313334;stroke-width:4.0116;stroke-miterlimit:10;}
	
		.st36{display:inline;fill:#FFFFFF;stroke:#313334;stroke-width:4.0116;stroke-linecap:round;stroke-linejoin:round;stroke-miterlimit:10;}
	.st37{display:inline;fill:#FFFFFF;stroke:#363437;stroke-width:5.3488;stroke-miterlimit:10;}
	
		.st38{display:inline;fill:#FFFFFF;stroke:#363437;stroke-width:4.0116;stroke-linecap:round;stroke-linejoin:round;stroke-miterlimit:10;}
	
		.st39{display:inline;fill:none;stroke:#363437;stroke-width:5.3488;stroke-linecap:round;stroke-linejoin:round;stroke-miterlimit:10;}
	.st40{enable-background:new    ;}
</style>
<g id="Front">
</g>
<g id="Inside">
	<rect x="2475.6" y="-43" class="st0" width="1795" height="1287"/>
	<g>
		<g>
			<rect x="943.9" y="1062.4" class="st1" width="63.3" height="124.2"/>
			<path class="st2" d="M1007.2,1188.6h-63.3c-1.1,0-2-0.9-2-2v-124.2c0-1.1,0.9-2,2-2h63.3c1.1,0,2,0.9,2,2v124.2
				C1009.2,1187.7,1008.3,1188.6,1007.2,1188.6z M945.9,1184.6h59.3v-120.1h-59.3V1184.6z"/>
		</g>
		<g>
			<path class="st1" d="M943.9,1186.6c-7,11.6-5.8,26.9,4,37.2l1.7,1.8c11.7,12.4,31.2,13,43.6,1.3l131.4-124.1
				c12.4-11.7,13-31.2,1.3-43.6l-1.7-1.8c-11.7-12.4-31.2-13-43.6-1.3l-101.8,96.1"/>
			<path class="st3" d="M942.2,1185.5c0.6-0.9,1.8-1.2,2.8-0.7c0.9,0.6,1.3,1.8,0.7,2.8c-6.7,11.1-5.2,25.3,3.7,34.8l1.7,1.8
				c5.3,5.6,12.5,8.8,20.2,9s15-2.6,20.6-7.9l131.4-124.1c5.6-5.3,8.8-12.5,9-20.2s-2.6-15-7.9-20.6l-1.7-1.8
				c-5.3-5.6-12.5-8.8-20.2-9s-15,2.6-20.6,7.9l-101.8,96.1c-0.8,0.8-2.1,0.7-2.8-0.1c-0.8-0.8-0.7-2.1,0.1-2.8l101.8-96.1
				c6.4-6,14.7-9.2,23.5-9c8.8,0.3,16.9,3.9,23,10.3l1.7,1.8c6,6.4,9.2,14.7,9,23.5c-0.3,8.8-3.9,16.9-10.3,23l-131.4,124.1
				c-6.1,5.8-14.1,9-22.5,9c-0.3,0-0.6,0-1,0c-8.8-0.3-16.9-3.9-23-10.3l-1.7-1.8"/>
		</g>
		<g>
			<g>
				<path class="st1" d="M1084.6,1047c-2.1-4.4-0.3-9.7,4.1-11.9l52.1-25.4c4.4-2.1,9.7-0.3,11.9,4.1l26.2,53.6
					c2.1,4.4,0.3,9.7-4.1,11.9l-52.1,25.4c-4.4,2.1-9.7,0.3-11.9-4.1"/>
				<path class="st3" d="M1118.8,1107.6c-4,0-7.9-2.3-9.8-6.1c-0.5-1-0.1-2.2,0.9-2.7s2.2-0.1,2.7,0.9c0.8,1.6,2.2,2.9,4,3.5
					c1.7,0.6,3.6,0.5,5.3-0.3l52.1-25.4c1.6-0.8,2.9-2.2,3.5-4c0.6-1.7,0.5-3.6-0.3-5.3l-26.2-53.6c-0.8-1.6-2.2-2.9-3.9-3.5
					s-3.6-0.5-5.3,0.3l-52.1,25.4c-1.6,0.8-2.9,2.2-3.5,3.9c-0.6,1.7-0.5,3.6,0.3,5.3c0.5,1,0.1,2.2-0.9,2.7s-2.2,0.1-2.7-0.9
					c-2.6-5.4-0.4-11.9,5-14.6l52.1-25.4c2.6-1.3,5.6-1.4,8.3-0.5c2.8,0.9,5,2.9,6.2,5.5l26.2,53.6c2.6,5.4,0.4,11.9-5,14.6
					l-52.1,25.4C1122,1107.2,1120.4,1107.6,1118.8,1107.6z"/>
			</g>
			<g>
				<g>
					<path class="st1" d="M1119.6,1041.5c-2.8,1.3-5.4,1.5-6,0.4l-6.6-13.4c-0.5-1.1,1.3-3.1,4-4.4l32.7-15.9c2.8-1.3,5.4-1.5,6-0.4
						l6.6,13.4c0.5,1.1-1.3,3.1-4,4.4L1119.6,1041.5z"/>
					<path class="st3" d="M1115.4,1044.6c-2.2,0-3.1-1.1-3.4-1.8l-6.6-13.4c-1.2-2.6,1.6-5.3,4.9-7l32.7-15.9
						c1.5-0.8,3.1-1.2,4.5-1.3c2.6-0.2,3.6,1,4,1.7l6.6,13.4c0.4,0.7,0.7,2.3-1.1,4.2c-0.9,1-2.3,2-3.8,2.7l-32.7,15.9l0,0
						c-1.5,0.8-3.1,1.2-4.5,1.3C1115.7,1044.5,1115.5,1044.6,1115.4,1044.6z M1115.1,1040.8c0.5,0.1,1.9-0.1,3.6-1l32.7-15.9
						c1.8-0.9,2.7-1.8,3-2.3l-6.2-12.7c-0.5,0-1.9,0.1-3.6,1l-32.7,15.9c-1.8,0.9-2.7,1.8-3,2.3L1115.1,1040.8z"/>
				</g>
				<g>
					<path class="st1" d="M1128.1,1058.9c-2.8,1.3-5.4,1.5-6,0.4l-6.6-13.4c-0.5-1.1,1.3-3.1,4-4.4l32.7-15.9c2.8-1.3,5.4-1.5,6-0.4
						l6.6,13.4c0.5,1.1-1.3,3.1-4,4.4L1128.1,1058.9z"/>
					<path class="st3" d="M1123.9,1062c-2.2,0-3.1-1.1-3.4-1.8l-6.6-13.4c-1.2-2.6,1.6-5.3,4.9-7l32.7-15.9c3.3-1.6,7.3-2.1,8.5,0.4
						l6.6,13.4c1.2,2.6-1.6,5.3-4.9,7l-32.7,15.9l0,0c-1.5,0.8-3.1,1.2-4.5,1.3C1124.2,1062,1124,1062,1123.9,1062z M1123.6,1058.2
						c0.5,0,1.9-0.1,3.6-1l32.7-15.9c1.8-0.9,2.7-1.8,3-2.3l-6.2-12.7c-0.5,0-1.9,0.1-3.6,1l-32.7,15.9c-1.8,0.9-2.7,1.8-3,2.3
						L1123.6,1058.2z"/>
				</g>
				<g>
					<path class="st1" d="M1136.6,1076.4c-2.8,1.3-5.4,1.5-6,0.4l-6.6-13.4c-0.5-1.1,1.3-3.1,4-4.4l32.7-15.9c2.8-1.3,5.4-1.5,6-0.4
						l6.6,13.4c0.5,1.1-1.3,3.1-4,4.4L1136.6,1076.4z"/>
					<path class="st3" d="M1132.4,1079.4c-2.2,0-3.1-1.1-3.4-1.8l-6.6-13.4c-1.2-2.6,1.6-5.3,4.9-7l32.7-15.9
						c3.3-1.6,7.3-2.1,8.5,0.4l6.6,13.4c1.2,2.6-1.6,5.3-4.9,7l-32.7,15.9c-1.5,0.8-3.1,1.2-4.5,1.3
						C1132.7,1079.4,1132.5,1079.4,1132.4,1079.4z M1132.1,1075.6c0.5,0,1.9-0.1,3.6-1l0,0l32.7-15.9c1.8-0.9,2.7-1.8,3-2.3
						l-6.2-12.7c-0.5-0.1-1.9,0.1-3.6,1l-32.7,15.9c-1.8,0.9-2.7,1.8-3,2.3L1132.1,1075.6z"/>
				</g>
				<g>
					<path class="st1" d="M1145.1,1093.8c-2.8,1.3-5.4,1.5-6,0.4l-6.6-13.4c-0.5-1.1,1.3-3.1,4-4.4l32.7-15.9c2.8-1.3,5.4-1.5,6-0.4
						l6.6,13.4c0.5,1.1-1.3,3.1-4,4.4L1145.1,1093.8z"/>
					<path class="st3" d="M1140.9,1096.9c-2.2,0-3.1-1.1-3.4-1.8l-6.6-13.4c-0.4-0.7-0.7-2.3,1.1-4.2c0.9-1,2.3-2,3.8-2.7l32.7-15.9
						c1.5-0.8,3.1-1.2,4.5-1.3c2.6-0.2,3.6,1,4,1.7l6.6,13.4c0.4,0.7,0.7,2.3-1.1,4.2c-0.9,1-2.3,2-3.8,2.7l-32.7,15.9l0,0
						c-1.5,0.8-3.1,1.2-4.5,1.3C1141.2,1096.8,1141,1096.9,1140.9,1096.9z M1140.6,1093.1c0.5,0.1,1.9-0.1,3.6-1l32.7-15.9
						c1.8-0.9,2.7-1.8,3-2.3l-6.2-12.7c-0.5,0-1.9,0.1-3.6,1l-32.7,15.9c-1.8,0.9-2.7,1.8-3,2.3L1140.6,1093.1z"/>
				</g>
			</g>
		</g>
		<g>
			<path class="st1" d="M1082.6,1057.8l-9.5-32.1c-2.4-8,1-16.1,7.4-18l0,0c6.5-1.9,13.7,3,16.1,11l5.9,20"/>
			<path class="st3" d="M1082.6,1059.5c-0.7,0-1.4-0.5-1.6-1.2l-9.5-32.1c-1.3-4.2-1.1-8.6,0.5-12.4c1.6-3.9,4.5-6.6,8.1-7.7
				s7.5-0.4,11,2c3.4,2.3,5.9,5.9,7.2,10.1l5.9,20c0.3,0.9-0.2,1.9-1.2,2.1c-0.9,0.3-1.9-0.2-2.1-1.2l-5.9-20
				c-1-3.5-3.1-6.4-5.8-8.3c-2.6-1.8-5.5-2.3-8.1-1.6c-2.6,0.8-4.7,2.8-5.9,5.7c-1.3,3-1.4,6.6-0.3,10.1l9.5,32.1
				c0.3,0.9-0.2,1.9-1.2,2.1C1082.9,1059.5,1082.7,1059.5,1082.6,1059.5z"/>
		</g>
	</g>
	<g>
		<g>
			<rect x="1683.4" y="1060.8" class="st1" width="63.3" height="124.2"/>
			<path class="st2" d="M1746.8,1187h-63.3c-1.1,0-2-0.9-2-2v-124.2c0-1.1,0.9-2,2-2h63.3c1.1,0,2,0.9,2,2V1185
				C1748.8,1186.1,1747.9,1187,1746.8,1187z M1685.5,1183h59.3v-120.1h-59.3V1183z"/>
		</g>
		<g>
			<path class="st1" d="M1683.4,1185c-7,11.6-5.8,26.9,4,37.2l1.7,1.8c11.7,12.4,31.2,13,43.6,1.3l131.4-124.1
				c12.4-11.7,13-31.2,1.3-43.6l-1.7-1.8c-11.7-12.4-31.2-13-43.6-1.3l-101.8,96.1"/>
			<path class="st3" d="M1711.6,1235.6c-0.3,0-0.6,0-1,0c-8.8-0.3-16.9-3.9-23-10.3l-1.7-1.8c-10.1-10.7-11.9-27-4.2-39.6
				c0.6-0.9,1.8-1.3,2.8-0.7c0.9,0.6,1.2,1.8,0.7,2.8c-6.7,11.1-5.2,25.3,3.7,34.8l1.7,1.8c10.9,11.6,29.2,12.1,40.8,1.2
				l131.4-124.1c11.6-10.9,12.1-29.2,1.2-40.8l-1.7-1.8c-5.3-5.6-12.5-8.8-20.2-9s-15,2.6-20.6,7.9l-101.8,96.1
				c-0.8,0.8-2.1,0.7-2.8-0.1c-0.8-0.8-0.7-2.1,0.1-2.8l101.8-96.1c6.4-6,14.7-9.2,23.5-9c8.8,0.3,16.9,3.9,23,10.3l1.7,1.8
				c12.4,13.2,11.8,34-1.3,46.5l-131.4,124.1C1728,1232.4,1720,1235.6,1711.6,1235.6z"/>
		</g>
		<g>
			<g>
				<path class="st1" d="M1824.2,1045.4c-2.1-4.4-0.3-9.7,4.1-11.9l52.1-25.4c4.4-2.1,9.7-0.3,11.9,4.1l26.2,53.6
					c2.1,4.4,0.3,9.7-4.1,11.9l-52.1,25.4c-4.4,2.1-9.7,0.3-11.9-4.1"/>
				<path class="st3" d="M1858.3,1106c-4,0-7.9-2.3-9.8-6.1c-0.5-1-0.1-2.2,0.9-2.7s2.2-0.1,2.7,0.9c0.8,1.6,2.2,2.9,4,3.5
					c1.7,0.6,3.6,0.5,5.3-0.3l52.1-25.4c1.6-0.8,2.9-2.2,3.5-4s0.5-3.6-0.3-5.3l-26.2-53.6c-0.8-1.6-2.2-2.9-4-3.5
					c-1.7-0.6-3.6-0.5-5.3,0.3l-52.1,25.4c-1.6,0.8-2.9,2.2-3.5,4s-0.5,3.6,0.3,5.3c0.5,1,0.1,2.2-0.9,2.7s-2.2,0.1-2.7-0.9
					c-1.3-2.6-1.4-5.6-0.5-8.3c0.9-2.8,2.9-5,5.5-6.2l52.1-25.4c5.4-2.6,11.9-0.4,14.6,5l26.2,53.6c2.6,5.4,0.4,11.9-5,14.6
					l-52.1,25.4C1861.6,1105.7,1859.9,1106,1858.3,1106z"/>
			</g>
			<g>
				<g>
					<path class="st1" d="M1859.1,1039.9c-2.8,1.3-5.4,1.5-6,0.4l-6.6-13.4c-0.5-1.1,1.3-3.1,4-4.4l32.7-15.9c2.8-1.3,5.4-1.5,6-0.4
						l6.6,13.4c0.5,1.1-1.3,3.1-4,4.4L1859.1,1039.9z"/>
					<path class="st3" d="M1854.9,1043c-2.2,0-3.1-1.1-3.4-1.8l-6.6-13.4c-0.4-0.7-0.7-2.3,1.1-4.2c0.9-1,2.3-2,3.8-2.7l32.7-15.9
						c3.3-1.6,7.3-2.1,8.5,0.4l6.6,13.4c0.4,0.7,0.7,2.3-1.1,4.2c-0.9,1-2.3,2-3.8,2.7l-32.7,15.9c-1.5,0.8-3.1,1.2-4.5,1.3
						C1855.3,1043,1855.1,1043,1854.9,1043z M1854.7,1039.2c0.5,0.1,1.9-0.1,3.6-1l0,0l32.7-15.9c1.8-0.9,2.7-1.8,3-2.3l-6.2-12.7
						c-0.5,0-1.9,0.1-3.6,1l-32.7,15.9c-1.8,0.9-2.7,1.8-3,2.3L1854.7,1039.2z"/>
				</g>
				<g>
					<path class="st1" d="M1867.6,1057.4c-2.8,1.3-5.4,1.5-6,0.4l-6.6-13.4c-0.5-1.1,1.3-3.1,4-4.4l32.7-15.9c2.8-1.3,5.4-1.5,6-0.4
						l6.6,13.4c0.5,1.1-1.3,3.1-4,4.4L1867.6,1057.4z"/>
					<path class="st3" d="M1863.4,1060.4c-1.5,0-2.8-0.5-3.4-1.8l-6.6-13.4c-1.2-2.6,1.6-5.3,4.9-7l32.7-15.9
						c3.3-1.6,7.3-2.1,8.5,0.4l6.6,13.4c1.2,2.6-1.6,5.3-4.9,7l-32.7,15.9l0,0C1866.8,1059.9,1865,1060.4,1863.4,1060.4z
						 M1863.2,1056.6c0.5,0,1.9-0.1,3.6-1l32.7-15.9c1.8-0.9,2.7-1.8,3-2.3l-6.2-12.7c-0.5-0.1-1.9,0.1-3.6,1l-32.7,15.9
						c-1.8,0.9-2.7,1.8-3,2.3L1863.2,1056.6z"/>
				</g>
				<g>
					<path class="st1" d="M1876.1,1074.8c-2.8,1.3-5.4,1.5-6,0.4l-6.6-13.4c-0.5-1.1,1.3-3.1,4-4.4l32.7-15.9c2.8-1.3,5.4-1.5,6-0.4
						l6.6,13.4c0.5,1.1-1.3,3.1-4,4.4L1876.1,1074.8z"/>
					<path class="st3" d="M1871.9,1077.8c-1.5,0-2.8-0.5-3.4-1.8l-6.6-13.4c-0.4-0.7-0.7-2.3,1.1-4.2c0.9-1,2.3-2,3.8-2.7l32.7-15.9
						c1.5-0.8,3.1-1.2,4.5-1.3c2.6-0.2,3.6,1,4,1.7l6.6,13.4c0.4,0.7,0.7,2.3-1.1,4.2c-0.9,1-2.3,2-3.8,2.7l-32.7,15.9l0,0
						C1875.3,1077.3,1873.5,1077.8,1871.9,1077.8z M1871.7,1074.1c0.5,0,1.9-0.1,3.6-1l32.7-15.9c1.8-0.9,2.7-1.8,3-2.3l-6.2-12.7
						c-0.5,0-1.9,0.1-3.6,1l-32.7,15.9c-1.8,0.9-2.7,1.8-3,2.3L1871.7,1074.1z"/>
				</g>
				<g>
					<path class="st1" d="M1884.7,1092.2c-2.8,1.3-5.4,1.5-6,0.4l-6.6-13.4c-0.5-1.1,1.3-3.1,4-4.4l32.7-15.9c2.8-1.3,5.4-1.5,6-0.4
						l6.6,13.4c0.5,1.1-1.3,3.1-4,4.4L1884.7,1092.2z"/>
					<path class="st3" d="M1880.4,1095.3c-2.2,0-3.1-1.1-3.4-1.8l-6.6-13.4c-0.4-0.7-0.7-2.3,1.1-4.2c0.9-1,2.3-2,3.8-2.7l32.7-15.9
						c3.3-1.6,7.3-2.1,8.5,0.4l6.6,13.4c0.4,0.7,0.7,2.3-1.1,4.2c-0.9,1-2.3,2-3.8,2.7l-32.7,15.9c-1.5,0.8-3.1,1.2-4.5,1.3
						C1880.8,1095.3,1880.6,1095.3,1880.4,1095.3z M1880.2,1091.5c0.5,0.1,1.9-0.1,3.6-1l0,0l32.7-15.9c1.8-0.9,2.7-1.8,3-2.3
						l-6.2-12.7c-0.5-0.1-1.9,0.1-3.6,1l-32.7,15.9c-1.8,0.9-2.7,1.8-3,2.3L1880.2,1091.5z"/>
				</g>
			</g>
		</g>
		<g>
			<path class="st1" d="M1822.1,1056.2l-9.5-32.1c-2.4-8,1-16.1,7.4-18l0,0c6.5-1.9,13.7,3,16.1,11l5.9,20"/>
			<path class="st3" d="M1822.1,1057.9c-0.7,0-1.4-0.5-1.6-1.2l-9.5-32.1c-1.3-4.2-1.1-8.6,0.5-12.4c1.6-3.9,4.5-6.6,8.1-7.7
				s7.5-0.4,11,2c3.4,2.3,5.9,5.9,7.2,10.2l5.9,20c0.3,0.9-0.2,1.9-1.2,2.1c-0.9,0.3-1.9-0.2-2.1-1.2l-5.9-20
				c-1-3.5-3.1-6.4-5.8-8.3c-2.6-1.8-5.5-2.3-8.1-1.6c-2.6,0.8-4.7,2.8-5.9,5.7c-1.3,3-1.4,6.6-0.3,10.1l9.5,32.1
				c0.3,0.9-0.2,1.9-1.2,2.1C1822.4,1057.9,1822.3,1057.9,1822.1,1057.9z"/>
		</g>
	</g>
	<g>
		<g>
			<rect x="1390.8" y="1060.8" class="st1" width="63.3" height="124.2"/>
			<path class="st2" d="M1454.1,1187h-63.3c-1.1,0-2-0.9-2-2v-124.2c0-1.1,0.9-2,2-2h63.3c1.1,0,2,0.9,2,2V1185
				C1456.1,1186.1,1455.2,1187,1454.1,1187z M1392.8,1183h59.3v-120.1h-59.3V1183z"/>
		</g>
		<g>
			<path class="st1" d="M1454.1,1185c7,11.6,5.8,26.9-4,37.2l-1.7,1.8c-11.7,12.4-31.2,13-43.6,1.3l-131.4-124.1
				c-12.4-11.7-13-31.2-1.3-43.6l1.7-1.8c11.7-12.4,31.2-13,43.6-1.3l101.8,96.1"/>
			<path class="st3" d="M1426,1235.6c-8.4,0-16.4-3.2-22.5-9l-131.5-124c-13.2-12.4-13.8-33.3-1.3-46.5l1.7-1.8
				c6-6.4,14.2-10,23-10.3c8.8-0.2,17.1,2.9,23.5,9l101.8,96.1c0.8,0.8,0.8,2,0.1,2.8c-0.8,0.8-2,0.8-2.8,0.1l-101.8-96.1
				c-5.6-5.3-12.9-8.1-20.6-7.9c-7.7,0.2-14.9,3.4-20.2,9l-1.7,1.8c-10.9,11.6-10.4,29.9,1.2,40.8l131.4,124.1
				c5.6,5.3,12.9,8.1,20.6,7.9s14.9-3.4,20.2-9l1.7-1.8c8.9-9.4,10.4-23.7,3.7-34.8c-0.6-0.9-0.3-2.2,0.7-2.8
				c0.9-0.6,2.2-0.3,2.8,0.7c7.6,12.6,5.9,28.9-4.2,39.6l-1.7,1.8c-6,6.4-14.2,10-23,10.3C1426.6,1235.6,1426.3,1235.6,1426,1235.6z
				"/>
		</g>
		<g>
			<g>
				<path class="st1" d="M1313.4,1045.4c2.1-4.4,0.3-9.7-4.1-11.9l-52.1-25.4c-4.4-2.1-9.7-0.3-11.9,4.1l-26.2,53.6
					c-2.1,4.4-0.3,9.7,4.1,11.9l52.1,25.4c4.4,2.1,9.7,0.3,11.9-4.1"/>
				<path class="st3" d="M1279.2,1106c-1.6,0-3.2-0.4-4.8-1.1l-52.1-25.4c-5.4-2.6-7.7-9.2-5-14.6l26.2-53.6c2.6-5.4,9.2-7.7,14.6-5
					l52.1,25.4c2.6,1.3,4.6,3.5,5.5,6.2c1,2.8,0.8,5.7-0.5,8.3c-0.5,1-1.7,1.4-2.7,0.9s-1.4-1.7-0.9-2.7c0.8-1.6,0.9-3.5,0.3-5.3
					c-0.6-1.8-1.8-3.1-3.5-4l-52.1-25.4c-1.6-0.8-3.5-0.9-5.3-0.3c-1.7,0.6-3.1,1.8-4,3.5l-26.2,53.6c-0.8,1.6-0.9,3.5-0.3,5.3
					s1.8,3.1,3.5,4l52.1,25.4c1.6,0.8,3.5,0.9,5.3,0.3c1.7-0.6,3.1-1.8,4-3.5c0.5-1,1.7-1.4,2.7-0.9s1.4,1.7,0.9,2.7
					C1287.1,1103.8,1283.3,1106,1279.2,1106z"/>
			</g>
			<g>
				<g>
					<path class="st1" d="M1278.4,1039.9c2.8,1.3,5.4,1.5,6,0.4l6.6-13.4c0.5-1.1-1.3-3.1-4-4.4l-32.7-15.9c-2.8-1.3-5.4-1.5-6-0.4
						l-6.6,13.4c-0.5,1.1,1.3,3.1,4,4.4L1278.4,1039.9z"/>
					<path class="st3" d="M1282.7,1043c-1.6,0-3.4-0.5-5.1-1.4l-32.7-15.9c-3.3-1.6-6.1-4.4-4.9-7l6.6-13.4c1.2-2.6,5.2-2.1,8.5-0.4
						l32.7,15.9c3.3,1.6,6.1,4.4,4.9,7l-6.6,13.4C1285.5,1042.5,1284.2,1043,1282.7,1043z M1243.6,1020c0.3,0.4,1.2,1.4,3,2.3
						l32.7,15.9l0,0c1.8,0.9,3.1,1,3.6,1l6.2-12.7c-0.3-0.4-1.2-1.4-3-2.3l-32.7-15.9c-1.8-0.9-3.1-1-3.6-1L1243.6,1020z"/>
				</g>
				<g>
					<path class="st1" d="M1269.9,1057.4c2.8,1.3,5.4,1.5,6,0.4l6.6-13.4c0.5-1.1-1.3-3.1-4-4.4l-32.7-15.9c-2.8-1.3-5.4-1.5-6-0.4
						l-6.6,13.4c-0.5,1.1,1.3,3.1,4,4.4L1269.9,1057.4z"/>
					<path class="st3" d="M1274.1,1060.4c-1.6,0-3.4-0.5-5.1-1.4l0,0l-32.7-15.9c-1.5-0.8-2.9-1.7-3.8-2.7c-1.8-2-1.4-3.5-1.1-4.2
						l6.6-13.4c0.4-0.7,1.3-1.9,4-1.7c1.4,0.1,3,0.6,4.5,1.3l32.7,15.9c1.5,0.8,2.9,1.7,3.8,2.7c1.8,2,1.4,3.5,1.1,4.2l-6.6,13.4
						C1277,1059.9,1275.7,1060.4,1274.1,1060.4z M1270.7,1055.7c1.8,0.9,3.1,1,3.6,1l6.2-12.7c-0.3-0.4-1.2-1.4-3-2.3l-32.7-15.9
						c-1.8-0.9-3.1-1-3.6-1l-6.2,12.7c0.3,0.4,1.2,1.4,3,2.3L1270.7,1055.7z"/>
				</g>
				<g>
					<path class="st1" d="M1261.4,1074.8c2.8,1.3,5.4,1.5,6,0.4l6.6-13.4c0.5-1.1-1.3-3.1-4-4.4l-32.7-15.9c-2.8-1.3-5.4-1.5-6-0.4
						l-6.6,13.4c-0.5,1.1,1.3,3.1,4,4.4L1261.4,1074.8z"/>
					<path class="st3" d="M1265.6,1077.8c-0.2,0-0.4,0-0.6,0c-1.4-0.1-3-0.6-4.5-1.3l0,0l-32.7-15.9c-1.5-0.8-2.9-1.7-3.8-2.7
						c-1.8-2-1.4-3.5-1.1-4.2l6.6-13.4c0.4-0.7,1.4-2,4-1.7c1.4,0.1,3,0.6,4.5,1.3l32.7,15.9c1.5,0.8,2.9,1.7,3.8,2.7
						c1.8,2,1.4,3.5,1.1,4.2l-6.6,13.4C1268.7,1076.7,1267.9,1077.8,1265.6,1077.8z M1262.2,1073.1c1.8,0.9,3.1,1,3.6,1l6.2-12.7
						c-0.3-0.4-1.2-1.4-3-2.3l-32.7-15.9c-1.8-0.9-3.1-1-3.6-1l-6.2,12.7c0.3,0.4,1.2,1.4,3,2.3L1262.2,1073.1z"/>
				</g>
				<g>
					<path class="st1" d="M1252.9,1092.2c2.8,1.3,5.4,1.5,6,0.4l6.6-13.4c0.5-1.1-1.3-3.1-4-4.4l-32.7-15.9c-2.8-1.3-5.4-1.5-6-0.4
						l-6.6,13.4c-0.5,1.1,1.3,3.1,4,4.4L1252.9,1092.2z"/>
					<path class="st3" d="M1257.1,1095.3c-1.6,0-3.4-0.5-5.1-1.4l-32.7-15.9c-3.3-1.6-6.1-4.4-4.9-7l6.6-13.4
						c1.2-2.6,5.2-2.1,8.5-0.4l32.7,15.9c3.3,1.6,6.1,4.4,4.9,7l-6.6,13.4C1260,1094.8,1258.7,1095.3,1257.1,1095.3z M1218,1072.3
						c0.3,0.4,1.2,1.4,3,2.3l32.7,15.9l0,0c1.8,0.9,3.1,1,3.6,1l6.2-12.7c-0.3-0.4-1.2-1.4-3-2.3l-32.7-15.9c-1.8-0.9-3.1-1-3.6-1
						L1218,1072.3z"/>
				</g>
			</g>
		</g>
		<g>
			<path class="st1" d="M1315.4,1056.2l9.5-32.1c2.4-8-1-16.1-7.4-18l0,0c-6.5-1.9-13.7,3-16.1,11l-5.9,20"/>
			<path class="st3" d="M1315.4,1057.9c-0.2,0-0.3,0-0.5-0.1c-0.9-0.3-1.4-1.2-1.2-2.1l9.5-32.1c1-3.5,0.9-7.1-0.3-10.1
				c-1.2-2.9-3.3-5-5.9-5.7c-2.6-0.8-5.5-0.2-8.1,1.6c-2.7,1.9-4.8,4.8-5.8,8.3l-5.9,20c-0.3,0.9-1.2,1.4-2.1,1.2
				c-0.9-0.3-1.4-1.2-1.2-2.1l5.9-20c1.3-4.2,3.8-7.8,7.2-10.2c3.5-2.4,7.4-3.1,11-2c3.6,1.1,6.5,3.8,8.1,7.7
				c1.6,3.8,1.7,8.2,0.5,12.4l-9.5,32.1C1316.9,1057.5,1316.2,1057.9,1315.4,1057.9z"/>
		</g>
	</g>
	<g>
		<path class="st1" d="M1681.8,1108.3c0-1.1,0.9-2,2-2h65.8V989.8c0-17-14.7-30.7-32.7-30.7h-295.3c-18,0-32.7,13.8-32.7,30.7v116.5
			h62.2c1.1,0,2,0.9,2,2v89.7h228.3v42h0.3L1681.8,1108.3L1681.8,1108.3z"/>
		<path class="st3" d="M1716.9,955.1h-295.3c-20.2,0-36.7,15.6-36.7,34.7v118.5c0,1.1,0.9,2,2,2h62.2V1242c0,1.1,0.9,2,2,2h1.7v-2
			h-1.7v-133.7h-62.5h-1.6V989.8c0-18.1,15.5-32.7,34.7-32.7H1717c19.2,0,34.7,14.7,34.7,32.7v118.5h-5.3h-62.5V1242h-2.4v2h2.4
			c1.1,0,2-0.9,2-2v-131.7h65.8c1.1,0,2-0.9,2-2V989.8C1753.6,970.7,1737.2,955.1,1716.9,955.1z"/>
		<path class="st3" d="M1453.1,1198v-89.7c0-1.1-0.9-2-2-2h-62.2V989.8c0-17,14.7-30.7,32.7-30.7h295.3c18,0,32.7,13.8,32.7,30.7
			v116.5h-65.8c-1.1,0-2,0.9-2,2V1240h-0.3v2h2.4v-133.7h62.5h5.3V989.8c0-18.1-15.5-32.7-34.7-32.7h-295.3
			c-19.2,0-34.7,14.7-34.7,32.7v118.5h1.6h62.5V1242h1.7v-44H1453.1z"/>
		<rect x="1453.1" y="1138.4" class="st1" width="228.3" height="105.6"/>
		<rect x="1452.8" y="1242" class="st1" width="228.7" height="2"/>
		<polygon class="st1" points="1681.4,1240 1453.1,1240 1453.1,1198 1452.8,1198 1452.8,1242 1681.4,1242 		"/>
	</g>
	<g>
		<path class="st1" d="M1626.7,982.3v-64.6h-114.9v64.6c0,0,0,31.3,57.4,31.3C1626.7,1013.6,1626.7,982.3,1626.7,982.3z"/>
		<path class="st2" d="M1569.3,1016.3c-24.6,0-42.2-5.6-52.2-16.5c-7.8-8.5-7.9-17.1-7.9-17.5v-64.6c0-1.5,1.2-2.7,2.7-2.7h114.9
			c1.5,0,2.7,1.2,2.7,2.7v64.6c0,0.4-0.1,9-7.9,17.5C1611.4,1010.7,1593.9,1016.3,1569.3,1016.3z M1514.5,920.3v61.9
			c0,1.2,1,28.6,54.8,28.6c53.7,0,54.7-27.4,54.8-28.7v-61.9h-109.6V920.3z"/>
	</g>
	<g>
		<path class="st3" d="M1636.5,1109.8H1502c-1.1,0-2-0.9-2-2s0.9-2,2-2h134.5c1.1,0,2,0.9,2,2S1637.6,1109.8,1636.5,1109.8z"/>
	</g>
	<g>
		<g>
			
				<ellipse transform="matrix(-0.3688 0.9295 -0.9295 -0.3688 3104.314 -427.5803)" class="st1" cx="1697.3" cy="840.2" rx="45.2" ry="26.8"/>
			<path class="st2" d="M1686.9,886.1c-2.5,0-4.9-0.4-7.3-1.4c-15.4-6.1-19.6-30.4-9.7-55.4l0,0c9.9-25,29.7-39.8,45.1-33.7
				c7.6,3,12.7,10.6,14.4,21.4c1.6,10.3,0,22.4-4.7,34C1716.3,872.2,1700.8,886.1,1686.9,886.1z M1674.9,831.3
				c-8.5,21.4-5.4,43.6,6.7,48.5c12.2,4.8,29.6-9.2,38.1-30.7c4.3-10.8,5.8-21.9,4.3-31.2c-1.4-8.8-5.3-15-11.1-17.2
				C1700.9,795.8,1683.4,809.8,1674.9,831.3L1674.9,831.3z"/>
		</g>
		<g>
			
				<ellipse transform="matrix(-0.3688 -0.9295 0.9295 -0.3688 1191.6646 2489.7336)" class="st1" cx="1441.2" cy="840.3" rx="45.2" ry="26.8"/>
			<path class="st2" d="M1451.6,886.1c-13.9,0-29.4-13.9-37.8-35c-4.6-11.7-6.3-23.8-4.7-34c1.7-10.8,6.8-18.4,14.4-21.4
				c15.4-6.1,35.2,8.7,45.1,33.7l0,0c9.9,25,5.6,49.3-9.7,55.4C1456.5,885.6,1454.1,886.1,1451.6,886.1z M1430.6,799.7
				c-1.8,0-3.5,0.3-5.1,0.9c-5.7,2.3-9.7,8.4-11.1,17.2c-1.5,9.3,0.1,20.4,4.3,31.2c8.5,21.4,26,35.5,38.1,30.7
				c12.2-4.8,15.2-27,6.7-48.5l0,0C1456.2,812.7,1442.1,799.7,1430.6,799.7z"/>
		</g>
	</g>
	<g>
		<path class="st1" d="M1692.1,804.5c0,86.7-55,151.8-122.8,151.8s-122.8-65.1-122.8-151.8s-12-113.4,122.8-113.4
			S1692.1,717.8,1692.1,804.5z"/>
		<path class="st2" d="M1569.3,959c-70.4,0-125.5-67.9-125.5-154.5c0-6.9-0.1-13.4-0.1-19.6c-0.4-35.6-0.7-59.2,14.5-74.6
			c15.6-15.7,46.7-21.9,111.1-21.9s95.5,6.1,111.1,21.9c15.2,15.4,14.9,38.9,14.5,74.6c-0.1,6.2-0.1,12.7-0.1,19.6
			C1694.7,891.1,1639.6,959,1569.3,959z M1569.3,693.8c-62.8,0-92.9,5.7-107.3,20.3c-13.6,13.8-13.4,36.5-13,70.8
			c0.1,6.3,0.2,12.7,0.2,19.7c0,83.6,52.8,149.1,120.1,149.1s120.1-65.5,120.1-149.1c0-6.9,0.1-13.4,0.2-19.7
			c0.4-34.3,0.7-56.9-13-70.8C1662.1,699.5,1632.1,693.8,1569.3,693.8z"/>
	</g>
	<g>
		<path class="st1" d="M1547.8,745.6v109c2.8,8.3,11.4,14.3,21.4,14.3s18.6-6,21.4-14.3"/>
		<path class="st2" d="M1569.3,870.9c-10.8,0-20.1-6.3-23.3-15.6c-0.1-0.2-0.1-0.4-0.1-0.6v-109c0-1.1,0.9-2,2-2s2,0.9,2,2v108.7
			c2.7,7.6,10.5,12.6,19.4,12.6c9,0,16.9-5.2,19.5-12.9c0.4-1,1.5-1.6,2.5-1.2c1,0.4,1.6,1.5,1.2,2.5
			C1589.4,864.6,1580,870.9,1569.3,870.9z"/>
	</g>
	<g>
		<g>
			<path class="st4" d="M1615.5,897.4c0,13.8-20.7,25-46.3,25c-25.5,0-46.3-11.2-46.3-25H1615.5z"/>
			<path class="st2" d="M1569.3,924.4c-27.1,0-48.3-11.9-48.3-27c0-1.1,0.9-2,2-2h92.5c1.1,0,2,0.9,2,2
				C1617.5,912.5,1596.3,924.4,1569.3,924.4z M1525.2,899.4c2,11.6,21.4,21,44.1,21s42-9.4,44.1-21H1525.2z"/>
		</g>
	</g>
	<g>
		<path class="st5" d="M1714.3,820.6l-5.2-29.8c0,0-6.7-28.5,2.4-57.6c-30.6-37.8-31.2-52-42.6-74.4c-97.3-97.6-203.3,0-203.3,0
			s-8.6,30.8-45.7,75.5c14.5,32,12.1,61.6,12.1,61.6l-10.9,29.6c0,0,18.2,25.3,29.6,30.6c-5.9-75.3,11.7-126.5,11.7-126.5
			s12.3,24.6,18.3,19.1c1.4-12.9,12.1-35.4,12.1-35.4s42.6,37,90.6,48.2c-6.6-20.7-6.9-40.1-6.8-46.8c10.8,9,32.3,26.1,54.4,38.3
			c0,0,2.6-14.2,11.3-24.8c10.9,4.8,22.5,11.1,34.1,19.4c0,0,8.9,41.7,8.6,98.5L1714.3,820.6z"/>
		<path class="st6" d="M1450.7,858.7c-0.4,0-0.8-0.1-1.1-0.2c-12-5.5-29.9-30.4-30.7-31.5c-0.5-0.7-0.6-1.6-0.3-2.5l10.7-29.2
			c0.2-3.4,1.3-30.8-11.9-59.9c-0.4-0.9-0.3-2,0.4-2.8c36.2-43.6,45.1-74.2,45.2-74.5c0.1-0.5,0.4-0.9,0.8-1.2
			c1.1-1,27.4-24.9,66.2-37.2c22.9-7.2,45.3-8.8,66.6-4.7c26.7,5.2,51.6,19.3,74.2,41.9c0.2,0.2,0.4,0.4,0.5,0.7
			c3.1,6.1,5.5,11.7,7.8,17.1c6.1,14.5,12.4,29.5,34.5,56.8c0.6,0.7,0.7,1.6,0.5,2.5c-8.8,28-2.4,55.9-2.4,56.2v0.1l5.2,29.8
			c0.2,0.9-0.2,1.9-0.9,2.5l-29.2,25.6c-0.8,0.7-1.9,0.9-2.9,0.4c-1-0.4-1.6-1.4-1.6-2.4c0.3-51.1-7-90.3-8.4-96.9
			c-9.6-6.8-20-12.7-30.8-17.7c-7.1,9.7-9.5,21.8-9.5,22c-0.2,0.8-0.7,1.6-1.5,1.9c-0.8,0.4-1.7,0.3-2.4-0.1
			c-19.6-10.8-38.7-25.3-50.4-34.9c0.2,9.1,1.5,24.2,6.6,40.3c0.3,0.9,0.1,1.9-0.6,2.6c-0.7,0.7-1.6,1-2.6,0.8
			c-41.8-9.8-78.8-38.2-89.1-46.5c-2.9,6.6-9.4,21.9-10.4,31.4c-0.1,0.6-0.4,1.2-0.8,1.7c-1.3,1.2-3,1.7-4.8,1.4
			c-5.1-0.9-10.9-9.3-14.5-15.5c-4.3,15.6-14.4,60.2-9.8,119.3c0.1,0.9-0.4,1.9-1.1,2.4C1451.8,858.6,1451.3,858.7,1450.7,858.7z
			 M1424.1,825c3.1,4.2,14.5,19.2,23.6,26c-4.7-72.1,12.1-121.8,12.2-122.3c0.4-1,1.3-1.7,2.3-1.8c1.1-0.1,2.1,0.5,2.6,1.5
			c5,9.9,11,17.6,13.4,18.4c2.1-13.3,11.7-33.7,12.1-34.6c0.4-0.8,1.1-1.3,1.9-1.5s1.7,0,2.3,0.6c0.4,0.4,40,34.4,85,46.5
			c-5.3-19.1-5.7-36.3-5.5-43.1c0-1,0.6-2,1.6-2.4c0.9-0.4,2-0.3,2.8,0.4c10.3,8.6,30.1,24.4,50.9,36.2c1.4-5.1,4.6-14.6,11-22.4
			c0.8-0.9,2.1-1.2,3.2-0.8c12.2,5.4,23.8,12,34.5,19.7c0.5,0.4,0.9,1,1.1,1.6c0.1,0.4,8.4,39.7,8.7,93.2l23.6-20.7l-5-28.2
			c-0.5-2-6.4-29.1,2.1-57.6c-21.8-27.2-28.2-42.3-34.4-56.9c-2.3-5.5-4.5-10.6-7.4-16.4c-21.7-21.7-45.7-35.2-71.1-40.1
			c-20.5-4-42-2.4-64,4.5c-34.7,11-59.7,32.1-63.6,35.5c-1.6,5.1-11.5,33.8-44.9,74.4c13.9,31.7,11.8,60.1,11.7,61.4
			c0,0.2-0.1,0.5-0.2,0.7L1424.1,825z"/>
	</g>
	<g>
		<g>
			<rect x="644.2" y="1062.4" class="st1" width="63.3" height="124.2"/>
			<path class="st2" d="M707.6,1188.6h-63.3c-1.1,0-2-0.9-2-2v-124.2c0-1.1,0.9-2,2-2h63.3c1.1,0,2,0.9,2,2v124.2
				C709.6,1187.7,708.7,1188.6,707.6,1188.6z M646.2,1184.6h59.3v-120.1h-59.3V1184.6z"/>
		</g>
		<g>
			<path class="st1" d="M707.6,1186.6c7,11.6,5.8,26.9-4,37.2l-1.7,1.8c-11.7,12.4-31.2,13-43.6,1.3l-131.4-124.1
				c-12.4-11.7-13-31.2-1.3-43.6l1.7-1.8c11.7-12.4,31.2-13,43.6-1.3l101.8,96.1"/>
			<path class="st3" d="M679.4,1237.2c-8.4,0-16.4-3.2-22.5-9l-131.4-124.1c-6.4-6-10-14.2-10.3-23s2.9-17.1,9-23.5l1.7-1.8
				c12.4-13.2,33.3-13.8,46.5-1.3l101.8,96.1c0.8,0.8,0.8,2,0.1,2.8c-0.8,0.8-2,0.8-2.8,0.1l-101.8-96.1
				c-11.6-10.9-29.9-10.4-40.8,1.2l-1.7,1.8c-5.3,5.6-8.1,12.9-7.9,20.6c0.2,7.7,3.4,14.9,9,20.2l131.4,124.1
				c5.6,5.3,12.9,8.1,20.6,7.9c7.7-0.2,14.9-3.4,20.2-9l1.7-1.8c8.9-9.4,10.4-23.7,3.7-34.8c-0.6-0.9-0.3-2.2,0.7-2.8
				c0.9-0.6,2.2-0.3,2.8,0.7c7.6,12.6,5.9,28.9-4.2,39.6l-1.7,1.8c-6,6.4-14.2,10-23,10.3C680.1,1237.2,679.8,1237.2,679.4,1237.2z"
				/>
		</g>
		<g>
			<g>
				<path class="st1" d="M566.8,1047c2.1-4.4,0.3-9.7-4.1-11.9l-52.1-25.4c-4.4-2.1-9.7-0.3-11.9,4.1l-26.2,53.6
					c-2.1,4.4-0.3,9.7,4.1,11.9l52.1,25.4c4.4,2.1,9.7,0.3,11.9-4.1"/>
				<path class="st3" d="M532.7,1107.6c-1.6,0-3.2-0.4-4.8-1.1l-52.1-25.4c-5.4-2.6-7.6-9.2-5-14.6l26.2-53.6
					c1.3-2.6,3.5-4.6,6.2-5.5c2.8-1,5.7-0.8,8.3,0.5l52.1,25.4c5.4,2.6,7.6,9.2,5,14.6c-0.5,1-1.7,1.4-2.7,0.9s-1.4-1.7-0.9-2.7
					c0.8-1.6,0.9-3.5,0.3-5.3c-0.6-1.7-1.8-3.1-3.5-3.9l-52.1-25.4c-1.6-0.8-3.5-0.9-5.3-0.3c-1.7,0.6-3.1,1.8-4,3.5l-26.2,53.6
					c-0.8,1.6-0.9,3.5-0.3,5.3c0.6,1.7,1.8,3.1,3.5,4l52.1,25.4c1.6,0.8,3.5,0.9,5.3,0.3c1.7-0.6,3.1-1.8,4-3.5
					c0.5-1,1.7-1.4,2.7-0.9s1.4,1.7,0.9,2.7C540.6,1105.3,536.7,1107.6,532.7,1107.6z"/>
			</g>
			<g>
				<g>
					<path class="st1" d="M531.9,1041.5c2.8,1.3,5.4,1.5,6,0.4l6.6-13.4c0.5-1.1-1.3-3.1-4-4.4l-32.7-15.9c-2.8-1.3-5.4-1.5-6-0.4
						l-6.6,13.4c-0.5,1.1,1.3,3.1,4,4.4L531.9,1041.5z"/>
					<path class="st3" d="M536.1,1044.6c-1.6,0-3.4-0.5-5.1-1.4l0,0l-32.7-15.9c-3.3-1.6-6.1-4.4-4.9-7l6.6-13.4
						c0.4-0.7,1.4-1.9,4-1.7c1.4,0.1,3,0.6,4.5,1.3l32.7,15.9c3.3,1.6,6.1,4.4,4.9,7l-6.6,13.4
						C538.9,1044,537.6,1044.6,536.1,1044.6z M532.7,1039.8c1.8,0.9,3.1,1,3.6,1l6.2-12.7c-0.3-0.4-1.2-1.4-3-2.3l-32.7-15.9
						c-1.8-0.9-3.1-1-3.6-1l-6.2,12.7c0.3,0.4,1.2,1.4,3,2.3L532.7,1039.8z"/>
				</g>
				<g>
					<path class="st1" d="M523.4,1058.9c2.8,1.3,5.4,1.5,6,0.4l6.6-13.4c0.5-1.1-1.3-3.1-4-4.4l-32.7-15.9c-2.8-1.3-5.4-1.5-6-0.4
						l-6.6,13.4c-0.5,1.1,1.3,3.1,4,4.4L523.4,1058.9z"/>
					<path class="st3" d="M527.6,1062c-0.2,0-0.4,0-0.6,0c-1.4-0.1-3-0.6-4.5-1.3l0,0l-32.7-15.9c-1.5-0.8-2.9-1.7-3.8-2.7
						c-1.8-2-1.4-3.5-1.1-4.2l6.6-13.4c0.4-0.7,1.4-1.9,4-1.7c1.4,0.1,3,0.6,4.5,1.3l32.7,15.9c1.5,0.8,2.9,1.7,3.8,2.7
						c1.8,2,1.4,3.5,1.1,4.2l-6.6,13.4C530.7,1060.9,529.8,1062,527.6,1062z M524.2,1057.3c1.8,0.9,3.1,1,3.6,1l6.2-12.7
						c-0.3-0.4-1.2-1.4-3-2.3l-32.7-15.9c-1.8-0.9-3.1-1-3.6-1l-6.2,12.7c0.3,0.4,1.2,1.4,3,2.3L524.2,1057.3L524.2,1057.3z"/>
				</g>
				<g>
					<path class="st1" d="M514.8,1076.4c2.8,1.3,5.4,1.5,6,0.4l6.6-13.4c0.5-1.1-1.3-3.1-4-4.4l-32.7-15.9c-2.8-1.3-5.4-1.5-6-0.4
						l-6.6,13.4c-0.5,1.1,1.3,3.1,4,4.4L514.8,1076.4z"/>
					<path class="st3" d="M519.1,1079.4c-0.2,0-0.4,0-0.6,0c-1.4-0.1-3-0.6-4.5-1.3l-32.7-15.9c-3.3-1.6-6.1-4.4-4.9-7l6.6-13.4
						c1.2-2.6,5.2-2.1,8.5-0.4l32.7,15.9c3.3,1.6,6.1,4.4,4.9,7l-6.6,13.4C522.2,1078.3,521.3,1079.4,519.1,1079.4z M480,1056.5
						c0.3,0.4,1.2,1.4,3,2.3l32.7,15.9l0,0c1.8,0.9,3.1,1,3.6,1l6.2-12.7c-0.3-0.4-1.2-1.4-3-2.3l-32.7-15.9c-1.8-0.9-3.1-1-3.6-1
						L480,1056.5z"/>
				</g>
				<g>
					<path class="st1" d="M506.3,1093.8c2.8,1.3,5.4,1.5,6,0.4l6.6-13.4c0.5-1.1-1.3-3.1-4-4.4l-32.7-15.9c-2.8-1.3-5.4-1.5-6-0.4
						l-6.6,13.4c-0.5,1.1,1.3,3.1,4,4.4L506.3,1093.8z"/>
					<path class="st3" d="M510.6,1096.9c-0.2,0-0.4,0-0.6,0c-1.4-0.1-3-0.6-4.5-1.3l0,0l-32.7-15.9c-3.3-1.6-6.1-4.4-4.9-7l6.6-13.4
						c0.4-0.7,1.4-1.9,4-1.7c1.4,0.1,3,0.6,4.5,1.3l32.7,15.9c3.3,1.6,6.1,4.4,4.9,7l-6.6,13.4
						C513.7,1095.8,512.8,1096.9,510.6,1096.9z M507.2,1092.1c1.8,0.9,3.1,1,3.6,1l6.2-12.7c-0.3-0.4-1.2-1.4-3-2.3l-32.7-15.9
						c-1.8-0.9-3.1-1-3.6-1l-6.2,12.7c0.3,0.4,1.2,1.4,3,2.3L507.2,1092.1z"/>
				</g>
			</g>
		</g>
		<g>
			<path class="st1" d="M568.9,1057.8l9.5-32.1c2.4-8-1-16.1-7.4-18l0,0c-6.5-1.9-13.7,3-16.1,11l-5.9,20"/>
			<path class="st3" d="M568.9,1059.5c-0.2,0-0.3,0-0.5-0.1c-0.9-0.3-1.4-1.2-1.2-2.1l9.5-32.1c1-3.5,0.9-7.1-0.3-10.1
				c-1.2-2.9-3.3-5-5.9-5.7c-2.6-0.8-5.5-0.2-8.1,1.6c-2.7,1.9-4.8,4.8-5.8,8.3l-5.9,20c-0.3,0.9-1.2,1.4-2.1,1.2
				c-0.9-0.3-1.4-1.2-1.2-2.1l5.9-20c1.3-4.2,3.8-7.8,7.2-10.1c3.5-2.4,7.4-3.1,11-2s6.5,3.8,8.1,7.7c1.6,3.8,1.7,8.2,0.5,12.4
				l-9.5,32.1C570.3,1059,569.6,1059.5,568.9,1059.5z"/>
		</g>
	</g>
	<g>
		<path class="st1" d="M1548.2,919.5c6.3,1.8,13.4,2.9,21,2.9c8.3,0,16-1.3,22.8-3.4c-2.2-7.2-11.1-12.6-21.9-12.6
			C1559.2,906.4,1550.1,912.1,1548.2,919.5z"/>
	</g>
	<g>
		<path class="st5" d="M996.5,1010.9V806.2c0-89-76.1-161.1-170-161.1s-170,72.1-170,161.1V1011"/>
		<path class="st6" d="M996.5,1013.6c-1.5,0-2.7-1.2-2.7-2.7V806.2c0-87.4-75-158.5-167.3-158.5s-167.3,71.1-167.3,158.5V1011
			c0,1.5-1.2,2.7-2.7,2.7s-2.7-1.2-2.7-2.7V806.2c0-90.3,77.4-163.8,172.6-163.8S999,715.9,999,806.2V1011
			C999.2,1012.4,998,1013.6,996.5,1013.6z"/>
	</g>
	<g>
		<path class="st1" d="M943.4,1062.4c0-1.1,0.9-2,2-2h60.6l0.9-56.9c0-17-14.7-30.9-32.7-30.9H678.9c-18,0-32.7,13.9-32.7,31v56.9
			h60.5c1.1,0,2,0.9,2,2V1242h3.3v-56.5h229.9v56.5h1.5L943.4,1062.4L943.4,1062.4z"/>
		<path class="st3" d="M974.2,968.6H678.9c-20.2,0-36.7,15.7-36.7,35v58.9c0,0.5,0.2,1,0.6,1.4s0.9,0.6,1.4,0.6h60.5V1244
			c0,1.1,0.9,2,2,2h5.3v-2h-5.3v-181.6h-62.5v-58.9c0-18.2,15.5-33,34.7-33h295.3c19.2,0,34.7,14.8,34.7,33l-1,58.9h-62.5V1244h-3.5
			v2h3.5c1.1,0,2-0.9,2-2v-179.6h60.6c1.1,0,2-0.9,2-2l1-58.9C1010.9,984.2,994.5,968.6,974.2,968.6z"/>
		<path class="st3" d="M708.8,1242v-179.6c0-1.1-0.9-2-2-2h-60.5v-56.9c0-17.1,14.7-31,32.7-31h295.3c18,0,32.7,13.9,32.7,30.9
			l-0.9,56.9h-60.6c-1.1,0-2,0.9-2,2V1242H942v2h3.5v-181.6h62.5l1-58.9c0-18.2-15.5-33-34.7-33H678.9c-19.2,0-34.7,14.8-34.7,33
			v58.9h62.5V1244h5.3v-2H708.8z"/>
	</g>
	<g>
		<path class="st1" d="M884,995.8v-64.6H769.2v64.6c0,0,0,31.3,57.4,31.3S884,995.8,884,995.8z"/>
		<path class="st2" d="M826.6,1029.8c-24.6,0-42.2-5.6-52.2-16.5c-7.8-8.5-7.9-17.1-7.9-17.5v-64.6c0-1.5,1.2-2.7,2.7-2.7H884
			c1.5,0,2.7,1.2,2.7,2.7v64.6c0,0.4-0.1,9-7.9,17.5C868.8,1024.2,851.2,1029.8,826.6,1029.8z M771.9,933.8v61.9
			c0,1.2,1,28.6,54.8,28.6c53.7,0,54.7-27.4,54.8-28.7v-61.9H771.9V933.8z"/>
	</g>
	<g>
		
			<ellipse transform="matrix(-0.3688 0.9295 -0.9295 -0.3688 2082.9177 278.6801)" class="st1" cx="946.8" cy="846.6" rx="45" ry="26.7"/>
		<path class="st6" d="M936.5,892.3c-2.5,0-4.9-0.4-7.2-1.4c-15.3-6.1-19.6-30.3-9.7-55.2c4.6-11.6,11.7-21.5,19.9-27.8
			c8.6-6.7,17.5-8.7,25-5.7s12.6,10.5,14.3,21.3c1.6,10.2,0,22.3-4.6,33.9C965.7,878.5,950.3,892.3,936.5,892.3z M957.3,806.2
			c-4.5,0-9.6,2-14.6,5.9c-7.4,5.8-13.9,14.8-18.2,25.6c-8.5,21.3-5.4,43.4,6.7,48.2c12.1,4.8,29.5-9.2,37.9-30.5
			c4.3-10.7,5.8-21.8,4.3-31.1c-1.4-8.8-5.3-14.9-11-17.2C960.8,806.5,959.1,806.2,957.3,806.2z"/>
	</g>
	<g>
		<path class="st1" d="M949,834.2c-0.1,7.7-0.2,15.7-0.2,23.8c0,86.3-54.7,110.1-122.2,110.1S704.4,944.3,704.4,858
			c0-4.9,0-9.6-0.1-14.4c3.9-0.7,99.2-18.8,153.9-96.4C858.2,747.2,946.8,755.9,949,834.2z"/>
		<path class="st6" d="M826.6,970.7c-38.6,0-67.4-7.6-88-23.2c-24.5-18.5-36.9-48.6-36.9-89.5c0-5.1,0-10.1-0.1-14.4v-2.3l2.2-0.4
			c4-0.7,98.2-18.7,152.2-95.3l0.9-1.3l1.5,0.2c0.9,0.1,23,2.4,45.6,14.4c30.2,16.1,46.7,42.1,47.6,75.2l0,0v4.4
			c-0.1,6.3-0.1,12.9-0.1,19.4c0,40.9-12.4,71-36.9,89.5C894,963.1,865.2,970.7,826.6,970.7z M706.9,845.8c0,3.7,0.1,8,0.1,12.2
			c0,39.1,11.7,67.8,34.7,85.2c19.7,14.9,47.4,22.1,84.8,22.1s65.1-7.2,84.8-22.1c23.1-17.4,34.7-46.1,34.7-85.2
			c0-6.6,0.1-13.2,0.1-19.5v-4.3c-0.9-31.4-15.9-55.1-44.7-70.5c-18.4-9.9-36.9-13-42.2-13.7C808,821.8,722.2,842.6,706.9,845.8z"/>
	</g>
	<g>
		<path class="st1" d="M805.2,866.9c2.8,8.2,11.3,22.8,21.3,22.8s18.5-14.5,21.3-22.8"/>
		<path class="st6" d="M826.6,891.6c-10.9,0-20.1-14.8-23.2-24.1c-0.4-1,0.2-2.2,1.2-2.5c1-0.4,2.2,0.2,2.5,1.2
			c1.2,3.7,3.9,9.2,7.6,13.9c2.8,3.4,7,7.5,11.8,7.5s9.1-4.1,11.8-7.5c3.7-4.7,6.4-10.2,7.6-13.9c0.4-1,1.5-1.6,2.5-1.2
			c1,0.4,1.6,1.5,1.2,2.5C846.6,876.8,837.5,891.6,826.6,891.6z"/>
	</g>
	<g>
		<path class="st2" d="M867.8,828.1c-0.5,0-1.1-0.2-1.5-0.7c-0.7-0.8-0.7-2.1,0.2-2.8c6.6-5.9,17.5-9.4,29.1-9.4
			c7.5,0,14.6,1.4,20.6,4.1c1,0.4,1.5,1.6,1,2.6c-0.4,1-1.6,1.5-2.6,1c-5.5-2.4-12.1-3.7-19-3.7c-10.7,0-20.6,3.1-26.4,8.4
			C868.7,827.9,868.3,828.1,867.8,828.1z"/>
	</g>
	<g>
		<path class="st2" d="M785.4,828.1c-0.5,0-1-0.2-1.3-0.5c-3-2.7-7.2-4.9-12.1-6.4c-1.1-0.3-1.7-1.4-1.3-2.5
			c0.3-1.1,1.4-1.7,2.5-1.3c5.5,1.6,10.2,4.1,13.7,7.2c0.8,0.7,0.9,2,0.2,2.8C786.5,827.9,785.9,828.1,785.4,828.1z"/>
	</g>
	<g>
		<path class="st1" d="M892.4,902.6c0,19.6-29.5,35.5-65.8,35.5c-36.4,0-65.8-15.9-65.8-35.5H892.4z"/>
		<path class="st6" d="M826.6,940.1c-17.9,0-34.8-3.8-47.5-10.7c-13.1-7.1-20.3-16.6-20.3-26.9c0-1.1,0.9-2,2-2h131.6
			c1.1,0,2,0.9,2,2c0,10.3-7.2,19.8-20.3,26.9C861.3,936.4,844.5,940.1,826.6,940.1z M762.9,904.6c2,17.6,29.8,31.5,63.7,31.5
			s61.7-14,63.7-31.5H762.9z"/>
	</g>
	<g>
		<path class="st6" d="M826.6,916.8c-21.2,0-41.9-0.8-61.9-2.2c9.1,13.7,33.4,23.5,61.9,23.5s52.8-9.8,61.9-23.5
			C868.5,916,847.8,916.8,826.6,916.8z"/>
	</g>
	<g>
		<path class="st1" d="M704.2,843.6c0,4.7,0.1,9.5,0.1,14.4c0,10.6,0.8,20.2,2.4,29c-9.8-4.8-19.4-15.9-25.2-30.6
			c-1.1-2.8-2.1-5.7-2.8-8.5C678.7,847.9,700.4,844.4,704.2,843.6z"/>
		<path class="st6" d="M706.8,889.7c-0.4,0-0.8-0.1-1.2-0.3c-10.8-5.2-20.7-17.2-26.6-32c-1.1-2.8-2.1-5.8-2.9-8.8
			c-0.2-0.7-0.1-1.5,0.3-2.1s1.1-1.1,1.8-1.2c0.2,0,21.7-3.5,25.4-4.3c0.8-0.2,1.6,0,2.2,0.5c0.6,0.5,1,1.3,1,2.1
			c0,4.3,0.1,9.3,0.1,14.4c0,10.1,0.8,19.7,2.4,28.5c0.2,1-0.2,2-1,2.6C707.9,889.5,707.3,889.7,706.8,889.7z M682.1,850.1
			c0.6,1.8,1.2,3.6,1.9,5.3c4.5,11.3,11.5,20.8,19.2,26.3c-1-7.5-1.6-15.5-1.6-23.8c0-3.9,0-7.7-0.1-11.2
			C696.3,847.7,686.9,849.3,682.1,850.1z"/>
	</g>
	<g>
		<g>
			<path class="st4" d="M774.3,1132.4c-28.3,0-51.3-19.8-51.3-44.2c0-1.1,0.9-2,2-2s2,0.9,2,2c0,22.2,21.2,40.2,47.3,40.2
				c16.9,0,32.6-7.7,41.1-20.2c0.6-0.9,1.9-1.2,2.8-0.5c0.9,0.6,1.2,1.9,0.5,2.8C809.5,1124,792.5,1132.4,774.3,1132.4z"/>
		</g>
		<g>
			<path class="st4" d="M878.9,1132.4c-18.2,0-35.2-8.4-44.4-22c-0.6-0.9-0.4-2.2,0.5-2.8c0.9-0.6,2.2-0.4,2.8,0.5
				c8.4,12.5,24.2,20.2,41.1,20.2c26.1,0,47.3-18,47.3-40.2c0-1.1,0.9-2,2-2s2,0.9,2,2C930.2,1112.5,907.2,1132.4,878.9,1132.4z"/>
		</g>
	</g>
	<g>
		<path class="st3" d="M706.6,1063.3c-1.1,0-2-0.9-2-2v-9.5c0-1.1,0.9-2,2-2c1.1,0,2,0.9,2,2v9.5
			C708.6,1062.4,707.7,1063.3,706.6,1063.3z"/>
	</g>
	<g>
		<path class="st3" d="M945.6,1063.2c-1.1,0-2-0.9-2-2v-9.5c0-1.1,0.9-2,2-2s2,0.9,2,2v9.5C947.6,1062.3,946.7,1063.2,945.6,1063.2z
			"/>
	</g>
	<g>
		<line class="st7" x1="1450.8" y1="1040" x2="1450.8" y2="1138.4"/>
		<path class="st3" d="M1450.8,1140.4c-1.1,0-2-0.9-2-2V1040c0-1.1,0.9-2,2-2s2,0.9,2,2v98.4
			C1452.8,1139.5,1451.9,1140.4,1450.8,1140.4z"/>
	</g>
	<g>
		<line class="st7" x1="1683.8" y1="1037.2" x2="1683.8" y2="1138.4"/>
		<path class="st3" d="M1683.8,1140.4c-1.1,0-2-0.9-2-2v-101.1c0-1.1,0.9-2,2-2s2,0.9,2,2v101.1
			C1685.8,1139.5,1684.9,1140.4,1683.8,1140.4z"/>
	</g>
	<g>
		<path class="st2" d="M781.7,861.1c-0.5,0-0.9-0.3-1.2-0.7c-3.4-6.6-10.6-10.8-18.4-10.8c-7.8,0-15,4.2-18.4,10.8
			c-0.3,0.7-1.1,0.9-1.8,0.6c-0.7-0.3-0.9-1.1-0.6-1.8c3.8-7.4,12-12.2,20.7-12.2c8.8,0,16.9,4.8,20.7,12.2c0.3,0.7,0.1,1.5-0.6,1.8
			C782.1,861.1,781.9,861.1,781.7,861.1z"/>
	</g>
	<g>
		<path class="st2" d="M910.6,861.1c-0.5,0-0.9-0.3-1.2-0.7c-3.4-6.6-10.6-10.8-18.4-10.8s-15,4.2-18.4,10.8
			c-0.3,0.7-1.1,0.9-1.8,0.6c-0.7-0.3-0.9-1.1-0.6-1.8c3.8-7.4,12-12.2,20.7-12.2c8.8,0,16.9,4.8,20.7,12.2c0.3,0.7,0.1,1.5-0.6,1.8
			C911,861.1,910.8,861.1,910.6,861.1z"/>
	</g>
	<g>
		<g>
			<path class="st2" d="M1656.6,825.6c-0.5,0-0.9-0.3-1.2-0.7c-3.4-6.6-10.6-10.8-18.4-10.8s-15,4.2-18.4,10.8
				c-0.3,0.7-1.1,0.9-1.8,0.6c-0.7-0.3-0.9-1.1-0.6-1.8c3.8-7.4,12-12.2,20.7-12.2s16.9,4.8,20.7,12.2c0.3,0.7,0.1,1.5-0.6,1.8
				C1657,825.5,1656.8,825.6,1656.6,825.6z"/>
		</g>
		<g>
			<path class="st2" d="M1665.1,805.1c-0.8,0-1.7-0.4-2.2-1c-8.8-10.4-19.3-15.9-30.4-15.9c-7.6,0-14.9,2.6-21.8,7.7
				c-1.3,1-3.1,0.7-4.1-0.6s-0.7-3.1,0.6-4.1c7.7-5.8,16.5-8.8,25.3-8.8c12.7,0,25.1,6.4,34.9,18c1,1.2,0.9,3.1-0.3,4.1
				C1666.5,804.8,1665.8,805.1,1665.1,805.1z"/>
		</g>
		<g>
			<g>
				<path class="st2" d="M1521.1,825.6c-0.5,0-0.9-0.3-1.2-0.7c-3.4-6.6-10.6-10.8-18.4-10.8s-15,4.2-18.4,10.8
					c-0.3,0.7-1.1,0.9-1.8,0.6c-0.7-0.3-0.9-1.1-0.6-1.8c3.8-7.4,12-12.2,20.7-12.2s16.9,4.8,20.7,12.2c0.3,0.7,0.1,1.5-0.6,1.8
					C1521.5,825.5,1521.3,825.6,1521.1,825.6z"/>
			</g>
			<g>
				<path class="st2" d="M1473.4,805.1c-0.7,0-1.3-0.2-1.9-0.7c-1.2-1-1.4-2.9-0.3-4.1c9.8-11.6,22.2-18,34.9-18
					c8.8,0,17.5,3.1,25.3,8.8c1.3,1,1.6,2.8,0.6,4.1s-2.8,1.6-4.1,0.6c-6.8-5.1-14.2-7.7-21.8-7.7c-11.1,0-21.6,5.5-30.4,15.9
					C1475.1,804.7,1474.2,805.1,1473.4,805.1z"/>
			</g>
		</g>
	</g>
	<rect x="710.7" y="1168.3" class="st1" width="231.2" height="75.7"/>
</g>
<g id="success">
</g>
<g id="Back">
</g>
<g id="Extras" class="st8">
	<path class="st9" d="M1785.7,2130.6h-295.3c-19.2,0-34.7,14.8-34.7,33v280.2c0,18.2,15.5,33,34.7,33h295.3
		c19.2,0,34.7-14.8,34.7-33v-280.2C1820.5,2145.3,1804.9,2130.6,1785.7,2130.6z"/>
	<path class="st10" d="M1695.5,2155.8v-64.6h-114.9v64.6c0,0,0,31.3,57.4,31.3S1695.5,2155.8,1695.5,2155.8z"/>
	<line class="st11" x1="1518.6" y1="2213.4" x2="1518.6" y2="2476.7"/>
	<line class="st11" x1="1752.6" y1="2210.7" x2="1752.6" y2="2474"/>
	<line class="st12" x1="1570.8" y1="2281.3" x2="1705.4" y2="2281.3"/>
	<line class="st13" x1="1457.4" y1="2311.8" x2="1519.9" y2="2311.8"/>
	<line class="st13" x1="1752.6" y1="2311.8" x2="1815.2" y2="2311.8"/>
	<g class="st14">
		<g>
			
				<ellipse transform="matrix(-0.3688 0.9295 -0.9295 -0.3688 4289.0786 1114.7277)" class="st15" cx="1766.1" cy="2013.6" rx="45.2" ry="26.8"/>
			
				<ellipse transform="matrix(-0.3688 -0.9295 0.9295 -0.3688 194.9845 4159.9668)" class="st15" cx="1509.9" cy="2013.8" rx="45.2" ry="26.8"/>
		</g>
		<path class="st16" d="M1760.9,1978c0,86.7-55,151.8-122.8,151.8s-122.8-65.1-122.8-151.8s-12-113.4,122.8-113.4
			S1760.9,1891.3,1760.9,1978z"/>
		<path class="st17" d="M1616.7,1919.1v109c2.8,8.3,11.4,14.3,21.4,14.3s18.6-6,21.4-14.3"/>
		<g>
			<path class="st18" d="M1684.4,2070.9c0,13.8-20.7,25-46.3,25s-46.3-11.2-46.3-25H1684.4z"/>
		</g>
		<line class="st19" x1="1570.7" y1="1985.3" x2="1570.7" y2="2003.1"/>
		<line class="st19" x1="1709.7" y1="1985.3" x2="1709.7" y2="2003.1"/>
		<path class="st19" d="M1540.8,1961.9c8.2-4.7,18.6-7.5,30-7.5c7.7,0,15.1,1.3,21.6,3.6"/>
		<path class="st19" d="M1735.4,1961.9c-8.2-4.7-18.6-7.5-30-7.5c-7.7,0-15.1,1.3-21.6,3.6"/>
		<path class="st20" d="M1783.1,1994l-5.2-29.8c0,0-6.7-28.5,2.4-57.6c-30.6-37.8-31.2-52-42.6-74.4c-97.3-97.6-203.3,0-203.3,0
			s-8.6,30.8-45.7,75.5c14.5,32,12.1,61.6,12.1,61.6l-10.9,29.6c0,0,18.2,25.3,29.6,30.6c-5.9-75.3,11.7-126.5,11.7-126.5
			s12.3,24.6,18.3,19.1c1.4-12.9,12.1-35.4,12.1-35.4s42.6,37,90.6,48.2c-6.6-20.7-6.9-40.1-6.8-46.8c10.8,9,32.3,26.1,54.4,38.3
			c0,0,2.6-14.2,11.3-24.8c10.9,4.8,22.5,11.1,34.1,19.4c0,0,8.9,41.7,8.6,98.5L1783.1,1994z"/>
		<path class="st1" d="M1617.1,2093c6.3,1.8,13.4,2.9,21,2.9c8.3,0,16-1.3,22.8-3.4c-2.2-7.2-11.1-12.6-21.9-12.6
			C1628,2079.9,1618.9,2085.5,1617.1,2093z"/>
	</g>
	<path class="st21" d="M1300.4,2207.4v-204.8c0-89-76.1-161.1-170-161.1s-170,72.1-170,161.1v204.8"/>
	<path class="st22" d="M1312.7,2510.5V2200c0-18.2-15.5-33-34.7-33H982.7c-19.2,0-34.7,14.8-34.7,33v310.5H1312.7z"/>
	<path class="st10" d="M1187.9,2192.2v-64.6H1073v64.6c0,0,0,31.3,57.4,31.3C1187.9,2223.6,1187.9,2192.2,1187.9,2192.2z"/>
	
		<ellipse transform="matrix(-0.3688 0.9295 -0.9295 -0.3688 3610.7437 1634.2489)" class="st23" cx="1250.5" cy="2043.1" rx="45" ry="26.7"/>
	<path class="st24" d="M1252.8,2030.7c-0.1,7.7-0.2,15.7-0.2,23.8c0,86.3-54.7,110.1-122.2,110.1s-122.2-23.8-122.2-110.1
		c0-4.9,0-9.6-0.1-14.4c3.9-0.7,99.2-18.8,153.9-96.4C1162,1943.7,1250.7,1952.3,1252.8,2030.7z"/>
	<path class="st25" d="M1109,2063.3c2.8,8.2,11.3,22.8,21.3,22.8s18.5-14.5,21.3-22.8"/>
	<path class="st11" d="M1219.2,2017.5c-5.5-2.4-12.4-3.9-19.8-3.9c-11.6,0-21.8,3.5-27.8,8.9"/>
	<path class="st11" d="M1076.3,2015.7c5.2,1.6,9.7,3.9,12.9,6.8"/>
	<path class="st25" d="M1196.2,2099.1c0,19.6-29.5,35.5-65.8,35.5c-36.4,0-65.8-15.9-65.8-35.5H1196.2z"/>
	<path class="st26" d="M1130.4,2113.2c-21.2,0-41.9-0.8-61.9-2.2c9.1,13.7,33.4,23.5,61.9,23.5s52.8-9.8,61.9-23.5
		C1172.3,2112.5,1151.6,2113.2,1130.4,2113.2z"/>
	<g class="st14">
		<line class="st27" x1="1067.6" y1="2040.1" x2="1067.6" y2="2065.1"/>
		<g>
			<path class="st6" d="M1054.6,2034.8c0,0,0.8,0.7,2.1,1.5c0.3,0.2,0.7,0.4,1.1,0.6c0.4,0.2,0.8,0.4,1.2,0.6
				c0.4,0.2,0.9,0.4,1.3,0.6c0.5,0.2,0.9,0.3,1.4,0.5c0.5,0.1,0.9,0.2,1.4,0.2c0.4,0,0.9,0.1,1.3,0.1c0.2,0,0.4,0.1,0.6,0.1
				s0.4,0.1,0.6,0.1c0.4,0.1,0.8,0.2,1.1,0.2c0.4,0.1,0.7,0.2,1,0.2c0.3,0,0.6,0.1,0.8,0.2c0.5,0.1,0.8,0.2,0.8,0.2l0.1,0.3
				c0,0-0.2,0.2-0.6,0.6c-0.2,0.2-0.5,0.4-0.8,0.6c-0.3,0.2-0.7,0.3-1.1,0.5c-0.4,0.2-0.9,0.3-1.4,0.3c-0.5,0.1-1.1,0.1-1.6,0
				c-0.6-0.1-1.1-0.3-1.6-0.5s-1-0.5-1.6-0.8c-1-0.5-2-1.2-2.7-1.8c-0.4-0.3-0.8-0.7-1.1-1c-0.3-0.3-0.6-0.7-0.9-1
				c-1.1-1.2-1.6-2.2-1.6-2.2L1054.6,2034.8z"/>
		</g>
		<g>
			<line class="st27" x1="1193.2" y1="2040.1" x2="1193.2" y2="2065.1"/>
			<g>
				<path class="st6" d="M1206.4,2035c0,0-0.5,0.9-1.6,2.2c-0.3,0.3-0.6,0.6-0.9,1c-0.3,0.3-0.7,0.7-1.1,1c-0.8,0.7-1.7,1.3-2.7,1.8
					c-0.5,0.2-1,0.6-1.6,0.8c-0.5,0.2-1.1,0.5-1.6,0.5c-0.6,0.1-1.1,0.1-1.6,0s-1-0.1-1.4-0.3c-0.4-0.2-0.8-0.3-1.1-0.5
					c-0.3-0.2-0.6-0.4-0.8-0.6c-0.4-0.3-0.6-0.6-0.6-0.6l0.1-0.3c0,0,0.3-0.1,0.8-0.2c0.2-0.1,0.5-0.1,0.8-0.2
					c0.3-0.1,0.7-0.2,1-0.2c0.4,0,0.7-0.2,1.1-0.2c0.2,0,0.4-0.1,0.6-0.1c0.2-0.1,0.4-0.1,0.6-0.1c0.4,0,0.9-0.1,1.3-0.1
					c0.5,0,0.9-0.1,1.4-0.2c0.5-0.1,0.9-0.3,1.4-0.5c0.4-0.2,0.9-0.4,1.3-0.6c0.4-0.2,0.8-0.4,1.2-0.6c0.4-0.2,0.7-0.4,1.1-0.6
					c1.3-0.8,2.1-1.5,2.1-1.5L1206.4,2035z"/>
			</g>
		</g>
	</g>
	<path class="st23" d="M1008.1,2040.1c0,4.7,0.1,9.5,0.1,14.4c0,10.6,0.8,20.2,2.4,29c-9.8-4.8-19.4-15.9-25.2-30.6
		c-1.1-2.8-2.1-5.7-2.8-8.5C982.5,2044.4,1004.2,2040.9,1008.1,2040.1z"/>
	<g class="st14">
		<line class="st28" x1="1013.4" y1="2249.9" x2="1013.4" y2="2513.2"/>
		<line class="st28" x1="1247.4" y1="2247.2" x2="1247.4" y2="2510.5"/>
	</g>
	<g class="st14">
		<path class="st28" d="M1120.8,2305.8c-8.5,12.6-24.5,21.1-42.7,21.1c-27.2,0-49.3-18.9-49.3-42.2"/>
		<path class="st28" d="M1140,2305.8c8.5,12.6,24.5,21.1,42.7,21.1c27.2,0,49.3-18.9,49.3-42.2"/>
	</g>
	<line class="st13" x1="948" y1="2258.9" x2="1010.6" y2="2258.9"/>
	<line class="st13" x1="1249.2" y1="2258.9" x2="1311.8" y2="2258.9"/>
	<path class="st29" d="M1130.4,2134.6c7.4,0,14.4-0.7,21-1.9c-1.6-5.6-10.3-9.9-21-9.9s-19.4,4.3-21,9.9
		C1116,2133.9,1123,2134.6,1130.4,2134.6z"/>
	<g class="st14">
		<path class="st20" d="M2378.5,2239.9v-204.8c0-89-76.1-161.1-170-161.1s-170,72.1-170,161.1v204.8"/>
		<path class="st30" d="M2390.9,2476v-243.5c0-18.2-15.5-33-34.7-33h-295.3c-19.2,0-34.7,14.8-34.7,33V2476H2390.9z"/>
		<path class="st15" d="M2266,2224.8v-64.6h-114.9v64.6c0,0,0,31.3,57.4,31.3S2266,2224.8,2266,2224.8z"/>
		
			<ellipse transform="matrix(-0.3688 0.9295 -0.9295 -0.3688 5116.7856 676.5495)" class="st31" cx="2328.7" cy="2075.6" rx="45" ry="26.7"/>
		<path class="st32" d="M2330.9,2063.2c-0.1,7.7-0.2,15.7-0.2,23.8c0,86.3-54.7,110.1-122.2,110.1s-122.2-23.8-122.2-110.1
			c0-4.9,0-9.6-0.1-14.4c3.9-0.7,99.2-18.8,153.9-96.4C2240.1,1976.2,2328.8,1984.9,2330.9,2063.2z"/>
		<path class="st33" d="M2187.2,2095.9c2.8,8.2,11.3,22.8,21.3,22.8s18.5-14.5,21.3-22.8"/>
		<path class="st34" d="M2297.3,2050.1c-5.5-2.4-12.4-3.9-19.8-3.9c-11.6,0-21.8,3.5-27.8,8.9"/>
		<path class="st34" d="M2154.4,2048.3c5.2,1.6,9.7,3.9,12.9,6.8"/>
		<path class="st33" d="M2274.3,2131.6c0,19.6-29.5,35.5-65.8,35.5c-36.4,0-65.8-15.9-65.8-35.5H2274.3z"/>
		<path class="st6" d="M2208.5,2145.8c-21.2,0-41.9-0.8-61.9-2.2c9.1,13.7,33.4,23.5,61.9,23.5s52.8-9.8,61.9-23.5
			C2250.5,2145,2229.8,2145.8,2208.5,2145.8z"/>
		<g>
			<line class="st27" x1="2145.7" y1="2072.6" x2="2145.7" y2="2097.6"/>
			<g>
				<path class="st6" d="M2132.8,2067.3c0,0,0.8,0.7,2.1,1.5c0.3,0.2,0.7,0.4,1.1,0.6c0.4,0.2,0.8,0.4,1.2,0.6
					c0.4,0.2,0.9,0.4,1.3,0.6c0.5,0.2,0.9,0.3,1.4,0.5c0.5,0.1,0.9,0.2,1.4,0.2c0.4,0,0.9,0.1,1.3,0.1c0.2,0,0.4,0.1,0.6,0.1
					c0.2,0,0.4,0.1,0.6,0.1c0.4,0.1,0.8,0.2,1.1,0.2c0.4,0.1,0.7,0.2,1,0.2c0.3,0,0.6,0.1,0.8,0.2c0.5,0.1,0.8,0.2,0.8,0.2l0.1,0.3
					c0,0-0.2,0.2-0.6,0.6c-0.2,0.2-0.5,0.4-0.8,0.6c-0.3,0.2-0.7,0.3-1.1,0.5s-0.9,0.3-1.4,0.3c-0.5,0.1-1.1,0.1-1.6,0
					c-0.6-0.1-1.1-0.3-1.6-0.5s-1-0.5-1.6-0.8c-1-0.5-2-1.2-2.7-1.8c-0.4-0.3-0.8-0.7-1.1-1c-0.3-0.3-0.6-0.7-0.9-1
					c-1.1-1.2-1.6-2.2-1.6-2.2L2132.8,2067.3z"/>
			</g>
			<g>
				<line class="st27" x1="2271.3" y1="2072.6" x2="2271.3" y2="2097.6"/>
				<g>
					<path class="st6" d="M2284.5,2067.6c0,0-0.5,0.9-1.6,2.2c-0.3,0.3-0.6,0.6-0.9,1c-0.3,0.3-0.7,0.7-1.1,1
						c-0.8,0.7-1.7,1.3-2.7,1.8c-0.5,0.2-1,0.6-1.6,0.8c-0.5,0.2-1.1,0.5-1.6,0.5c-0.6,0.1-1.1,0.1-1.6,0s-1-0.1-1.4-0.3
						c-0.4-0.2-0.8-0.3-1.1-0.5s-0.6-0.4-0.8-0.6c-0.4-0.3-0.6-0.6-0.6-0.6l0.1-0.3c0,0,0.3-0.1,0.8-0.2c0.2-0.1,0.5-0.1,0.8-0.2
						c0.3-0.1,0.7-0.2,1-0.2c0.4,0,0.7-0.2,1.1-0.2c0.2,0,0.4-0.1,0.6-0.1c0.2-0.1,0.4-0.1,0.6-0.1c0.4,0,0.9-0.1,1.3-0.1
						c0.5,0,0.9-0.1,1.4-0.2c0.5-0.1,0.9-0.3,1.4-0.5c0.4-0.2,0.9-0.4,1.3-0.6c0.4-0.2,0.8-0.4,1.2-0.6c0.4-0.2,0.7-0.4,1.1-0.6
						c1.3-0.8,2.1-1.5,2.1-1.5L2284.5,2067.6z"/>
				</g>
			</g>
		</g>
		<path class="st31" d="M2086.2,2072.6c0,4.7,0.1,9.5,0.1,14.4c0,10.6,0.8,20.2,2.4,29c-9.8-4.8-19.4-15.9-25.2-30.6
			c-1.1-2.8-2.1-5.7-2.8-8.5C2060.7,2076.9,2082.3,2073.4,2086.2,2072.6z"/>
		<g>
			<line class="st28" x1="2091.5" y1="2282.4" x2="2091.5" y2="2478.7"/>
			<line class="st28" x1="2325.5" y1="2279.7" x2="2325.5" y2="2476"/>
		</g>
		<g>
			<path class="st28" d="M2198.9,2338.3c-8.5,12.6-24.5,21.1-42.7,21.1c-27.2,0-49.3-18.9-49.3-42.2"/>
			<path class="st28" d="M2218.1,2338.3c8.5,12.6,24.5,21.1,42.7,21.1c27.2,0,49.3-18.9,49.3-42.2"/>
		</g>
		<line class="st35" x1="2026.2" y1="2291.4" x2="2088.7" y2="2291.4"/>
		<line class="st35" x1="2327.4" y1="2291.4" x2="2389.9" y2="2291.4"/>
		<path class="st1" d="M2208.5,2167.1c7.4,0,14.4-0.7,21-1.9c-1.6-5.6-10.3-9.9-21-9.9s-19.4,4.3-21,9.9
			C2194.1,2166.5,2201.2,2167.1,2208.5,2167.1z"/>
	</g>
	<rect x="2830.8" y="2333.2" class="st29" width="67.2" height="60.4"/>
	<path class="st36" d="M2596.7,2476.1h234v-140.2h68l-0.2-122.6c0-18.2-15.5-33-34.7-33h-295.3c-19.2,0-34.7,14.8-34.7,33v122.6h1.6
		h61.2L2596.7,2476.1"/>
	<path class="st36" d="M2596.7,2476.1"/>
	<path class="st10" d="M2773.7,2205.5v-64.6h-114.9v64.6c0,0,0,31.3,57.4,31.3S2773.7,2205.5,2773.7,2205.5z"/>
	<line class="st12" x1="2649" y1="2331" x2="2783.5" y2="2331"/>
	<rect x="2533.9" y="2335.9" class="st36" width="61.2" height="56.2"/>
	<path class="st36" d="M2622,2399.2h-10.5c-6.6,0-12-5.4-12-12v-7.8c0-6.6,5.4-12,12-12h10.5c6.6,0,12,5.4,12,12v7.8
		C2634,2393.8,2628.6,2399.2,2622,2399.2z"/>
	<path class="st36" d="M2841.8,2386.1l-48.6,0.2l-140.1,0.9c-17,0.1-30.8,14-30.7,31.1v2.4c0.1,17,14,30.8,31.1,30.7l213.7-1.2
		c17-0.1,30.8-14,30.7-31.1v-2.4v-80.8"/>
	<path class="st36" d="M2653.6,2446.4c0,4.9-4,8.9-8.9,8.9H2585c-4.9,0-8.9-4-8.9-8.9v-58c0-4.9,4-8.9,8.9-8.9h59.7
		c4.9,0,8.9,4,8.9,8.9"/>
	<path class="st36" d="M2541.4,2372l-5.6,14.9c-6,16,2.1,33.8,18.1,39.7l2.3,0.9c16,6,33.8-2.1,39.7-18.1l63.4-169.3
		c6-16-2.1-33.8-18.1-39.7l-2.3-0.9c-16-6-33.8,2.1-39.7,18.1l-49.1,131.2"/>
	<path class="st36" d="M2619.4,2168.3l-8.2-3c-6.2-2.2-9.4-9.2-7.2-15.4l3-8.2c2.2-6.2,9.2-9.4,15.4-7.2l8.2,3
		c6.2,2.2,9.4,9.2,7.2,15.4l-3,8.2C2632.6,2167.3,2625.6,2170.6,2619.4,2168.3z"/>
	<line class="st11" x1="2830.8" y1="2335.9" x2="2830.8" y2="2260.4"/>
	<g class="st14">
		
			<ellipse transform="matrix(-0.6373 0.7706 -0.7706 -0.6373 6256.0122 1273.6079)" class="st15" cx="2828.3" cy="2109" rx="45.2" ry="26.8"/>
		
			<ellipse transform="matrix(-6.446370e-02 -0.9979 0.9979 -6.446370e-02 725.5344 4740.0889)" class="st15" cx="2584.7" cy="2030" rx="45.2" ry="26.8"/>
	</g>
	<path class="st37" d="M2832.6,2072.8c-26.7,82.4-99.1,127.5-163.6,106.6s-96.8-99.8-70-182.3c26.7-82.4,23.5-111.6,151.8-70
		S2859.3,1990.4,2832.6,2072.8z"/>
	<path class="st38" d="M2715.2,1973l-33.6,103.7c0.1,8.7,6.4,17.1,16,20.2c9.6,3.1,19.6,0,24.8-7"/>
	<line class="st39" x1="2649.8" y1="2012" x2="2644.3" y2="2028.9"/>
	<line class="st39" x1="2781.9" y1="2054.8" x2="2776.4" y2="2071.7"/>
	<path class="st39" d="M2813.4,2055.2c-4.8-11.8-13-20.5-23.7-24c-7.4-2.4-15.2-2.1-22.8,0.6"/>
	<path class="st21" d="M2850.5,2095.5l4.2-29.9c0,0,2.4-29.2,20.1-54.1c-17.5-45.4-13.6-59.1-17.6-83.9
		c-62.5-122.9-193.4-62.7-193.4-62.7s-17.7,26.7-66.7,57.7c3.9,34.9-7.4,62.3-7.4,62.3l-19.4,24.8c0,0,9.5,29.7,18.8,38.3
		c17.6-73.4,50.1-116.7,50.1-116.7s4.2,27.2,11.5,23.8c5.4-11.9,22.4-30,22.4-30s29.1,48.3,71.4,73.8c0.1-21.8,5.8-40.2,8-46.6
		c7.5,11.9,22.6,34.8,40,53.2c0,0,6.9-12.7,18.4-20.1c8.9,8,18,17.5,26.4,29c0,0-4.4,42.4-22.2,96.4L2850.5,2095.5z"/>
	<path class="st38" d="M2673.3,2112.8c5.5-0.5,17.4,1.7,30.6,6c11.8,3.8,21.8,8.4,26.8,11.9"/>
	<path class="st39" d="M2632.2,1996.5c10.8-6.7,22.5-9,33.3-5.6c7.4,2.4,13.5,7.2,18.2,13.8"/>
	<path class="st36" d="M2604.1,2213.2c-4.8-1.8-7.3-7.3-5.5-12.1l22.2-58.8c1.8-4.8,7.3-7.3,12.1-5.5l57.1,21.5
		c4.8,1.8,7.3,7.3,5.5,12.1l-22.2,58.8c-1.8,4.8-7.3,7.3-12.1,5.5l-4.9-1.9"/>
	<g class="st14">
		<text transform="matrix(1 0 0 1 3154.2397 2405.9883)" class="st1" style="font-family:'Dosis-Medium'; font-size:95.9166px;">Working on your brand was a </text>
		<g>
			<path class="st1" d="M4217.6,2445.4c0,0,88.6-37.4,116,21.1c0,0,52.9-84.7,132.2-14.3c0,0,11.2-80.4,72.5-71.9
				c0,0-44.2-79.6,23.9-114c0,0-115.9-10.8-97.3-95.4c0,0-93.6,95-127.7-9.7c0,0-44.5,113.5-129.5,45.9c0,0,61.7,67-55.8,128.9
				C4151.9,2336,4247.5,2345,4217.6,2445.4z"/>
			<g>
				
					<text transform="matrix(0.9943 -0.1063 0.1063 0.9943 4215.207 2375.5044)" class="st0" style="font-family:'Dosis-ExtraBold'; font-size:99.7837px;">BLAST!</text>
			</g>
		</g>
	</g>
</g>
</svg>
