<?xml version="1.0" encoding="utf-8"?>
<!-- Generator: Adobe Illustrator 19.1.0, SVG Export Plug-In . SVG Version: 6.00 Build 0)  -->
<svg version="1.1" xmlns="http://www.w3.org/2000/svg" xmlns:xlink="http://www.w3.org/1999/xlink" x="0px" y="0px"
	 viewBox="0 0 1795 1287" style="enable-background:new 0 0 1795 1287;" xml:space="preserve">
<style type="text/css">
	.st0{fill:#FFFFFF;stroke:#353336;stroke-width:6.0236;stroke-miterlimit:10;}
	.st1{fill:#33BFC3;}
	.st2{fill:#FFFFFF;}
	.st3{fill:#363437;}
	.st4{fill:#313334;}
	.st5{fill:#353336;}
	.st6{fill:#2EBEC2;}
	.st7{fill:#373538;}
	.st8{display:none;}
	
		.st9{display:inline;fill:#FFFFFF;stroke:#363437;stroke-width:5.4883;stroke-linecap:round;stroke-linejoin:round;stroke-miterlimit:10;}
	
		.st10{display:inline;fill:#FFFFFF;stroke:#363437;stroke-width:5.3488;stroke-linecap:round;stroke-linejoin:round;stroke-miterlimit:10;}
	
		.st11{display:inline;fill:#FFFFFF;stroke:#363437;stroke-width:4.0116;stroke-linecap:round;stroke-linejoin:round;stroke-miterlimit:10;}
	
		.st12{display:inline;fill:none;stroke:#313334;stroke-width:4.0116;stroke-linecap:round;stroke-linejoin:round;stroke-miterlimit:10;}
	.st13{display:inline;fill:none;stroke:#313334;stroke-width:4.0116;stroke-miterlimit:10;}
	.st14{display:inline;}
	.st15{fill:#FFFFFF;stroke:#363437;stroke-width:5.3488;stroke-linecap:round;stroke-linejoin:round;stroke-miterlimit:10;}
	.st16{fill:#FFFFFF;stroke:#363437;stroke-width:5.3488;stroke-miterlimit:10;}
	.st17{fill:#FFFFFF;stroke:#363437;stroke-width:4.0116;stroke-linecap:round;stroke-linejoin:round;stroke-miterlimit:10;}
	.st18{fill:#353336;stroke:#363437;stroke-width:4.0116;stroke-linecap:round;stroke-linejoin:round;stroke-miterlimit:10;}
	.st19{fill:none;stroke:#363437;stroke-width:5.3488;stroke-linecap:round;stroke-linejoin:round;stroke-miterlimit:10;}
	.st20{fill:#2EBEC2;stroke:#373538;stroke-width:5.3488;stroke-linecap:round;stroke-linejoin:round;stroke-miterlimit:10;}
	
		.st21{display:inline;fill:#2EBEC2;stroke:#373538;stroke-width:5.3488;stroke-linecap:round;stroke-linejoin:round;stroke-miterlimit:10;}
	.st22{display:inline;fill:#FFFFFF;stroke:#353336;stroke-width:5.3488;stroke-miterlimit:10;}
	
		.st23{display:inline;fill:#FFFFFF;stroke:#373538;stroke-width:5.3488;stroke-linecap:round;stroke-linejoin:round;stroke-miterlimit:10;}
	.st24{display:inline;fill:#FFFFFF;stroke:#373538;stroke-width:5.3488;stroke-miterlimit:10;}
	
		.st25{display:inline;fill:#FFFFFF;stroke:#373538;stroke-width:4.0116;stroke-linecap:round;stroke-linejoin:round;stroke-miterlimit:10;}
	
		.st26{display:inline;fill:none;stroke:#363437;stroke-width:4.0116;stroke-linecap:round;stroke-linejoin:round;stroke-miterlimit:10;}
	.st27{display:inline;fill:#373538;}
	.st28{fill:none;stroke:#373538;stroke-width:5.3488;stroke-linecap:round;stroke-linejoin:round;stroke-miterlimit:10;}
	.st29{fill:none;stroke:#353336;stroke-width:4.0116;stroke-linecap:round;stroke-linejoin:round;stroke-miterlimit:10;}
	.st30{display:inline;fill:#FFFFFF;}
	.st31{fill:#FFFFFF;stroke:#353336;stroke-width:5.3488;stroke-miterlimit:10;}
	.st32{fill:#FFFFFF;stroke:#373538;stroke-width:5.3488;stroke-linecap:round;stroke-linejoin:round;stroke-miterlimit:10;}
	.st33{fill:#FFFFFF;stroke:#373538;stroke-width:5.3488;stroke-miterlimit:10;}
	.st34{fill:#FFFFFF;stroke:#373538;stroke-width:4.0116;stroke-linecap:round;stroke-linejoin:round;stroke-miterlimit:10;}
	.st35{fill:none;stroke:#363437;stroke-width:4.0116;stroke-linecap:round;stroke-linejoin:round;stroke-miterlimit:10;}
	.st36{fill:none;stroke:#313334;stroke-width:4.0116;stroke-miterlimit:10;}
	
		.st37{display:inline;fill:#FFFFFF;stroke:#313334;stroke-width:4.0116;stroke-linecap:round;stroke-linejoin:round;stroke-miterlimit:10;}
	.st38{display:inline;fill:#FFFFFF;stroke:#363437;stroke-width:5.3488;stroke-miterlimit:10;}
	
		.st39{display:inline;fill:none;stroke:#363437;stroke-width:5.3488;stroke-linecap:round;stroke-linejoin:round;stroke-miterlimit:10;}
</style>
<g id="Front">
	<path class="st0" d="M1603.7,75.8H232.4c-50.1,0-90.8,42.7-90.8,95.5v362.7c0,52.7,40.6,95.5,90.8,95.5h666.5l-45.1,117l222.4-117
		h527.5c50.1,0,90.8-42.7,90.8-95.5V171.2C1694.5,118.5,1653.9,75.8,1603.7,75.8z"/>
	<g>
		<path d="M347.1,369.4c0,1.5-1.3,2.9-3,2.9c-1.7,0-3.1-1.4-3.1-2.9c0-1.5,1.4-2.8,3.1-2.8C345.8,366.6,347.1,367.9,347.1,369.4z
			 M346.4,383.7V413c0,0.9-1,1.8-2.3,1.8s-2.2-0.9-2.2-1.8v-29.3c0-1,1-1.7,2.2-1.7S346.4,382.7,346.4,383.7z"/>
		<path d="M369.3,406.5c0-9.2-17.1-4-17.1-15.5c0-4.4,3-9.4,10.9-9.4c4.6,0,9.3,1.7,9.3,3.4c0,0.8-0.8,2.4-1.9,2.4
			c-1.1,0-3.3-1.9-7.3-1.9c-5.1,0-6.9,3.1-6.9,5.4c0,7.9,17.2,2.9,17.2,15.5c0,5.5-4.1,8.9-11.2,8.9c-6.5,0-10.9-2.9-10.9-5
			c0-0.9,0.7-2.1,1.6-2.1c1.5,0,2.9,3.3,9.1,3.3C367.4,411.4,369.3,409.1,369.3,406.5z"/>
		<path d="M423.7,414.2c-0.3,0.8-1,1.1-1.8,1.1c-1,0-1.5-0.3-1.9-1l-7.2-22.5l-7.1,22.2c-0.3,1-1,1.4-2,1.4c-0.9,0-1.5-0.3-1.9-1.4
			l-10.8-29c-0.1-0.3-0.3-0.8-0.3-1c0-1.1,1.5-2,2.7-2c0.7,0,1.4,0.3,1.6,1l8.9,24.7L411,385c0.3-0.9,0.9-1.2,1.8-1.2
			c0.8,0,1.5,0.3,1.8,1.2l6.9,22.8l9.1-24.9c0.1-0.6,0.8-1,1.5-1c1.2,0,2.7,0.8,2.7,2c0,0.3-0.1,0.8-0.3,1L423.7,414.2z"/>
		<path d="M443.9,413c0,0.9-1,1.8-2.3,1.8s-2.2-0.9-2.2-1.8v-49.4c0-1,1-1.7,2.2-1.7s2.3,0.7,2.3,1.7v23.3c1.5-2.7,4.6-5.3,9.1-5.3
			c6.6,0,12.3,5.8,12.3,13V413c0,1.2-1.1,1.8-2.3,1.8c-1,0-2.2-0.6-2.2-1.8v-18.4c0-4.4-3.9-8.8-8.6-8.8c-4.1,0-8.3,3.3-8.3,8.8V413
			z"/>
		<path d="M494.3,395v18c0,1-0.9,1.8-2.2,1.8c-1.2,0-2.1-0.8-2.1-1.8v-3c-2.4,2.8-5.8,5.3-10.5,5.3c-5.3,0-9.4-2.9-9.4-9.1
			c0-7.5,6.5-9.5,16.1-9.5h3.5V395c0-4.4-2.2-9.4-8.2-9.4c-4.6,0-6.3,2-7.4,2c-1.2,0-1.8-1.4-1.8-2.4c0-1.8,4.9-3.5,9.4-3.5
			C491.1,381.6,494.3,388,494.3,395z M489.8,399.7h-2.9c-6.4,0-12.3,0.6-12.3,6c0,4,2.6,5.7,6,5.7c4.4,0,9.1-4.2,9.1-7.3V399.7z"/>
		<path d="M505.5,404.6c0,4.5,1.7,6.1,6.4,6.1h1.9c1.2,0,2.1,1,2.1,2c0,1.1-0.8,2.1-2.1,2.1h-1.9c-7.1,0-10.9-3-10.9-10.2v-36.5
			c0-1,1.2-1.7,2.2-1.7c1.1,0,2.3,0.7,2.3,1.7V382h8.9c0.9,0,1.6,0.9,1.6,1.9s-0.7,1.9-1.6,1.9h-8.9V404.6z"/>
		<path d="M532.3,384.4c-0.1-0.2-0.2-0.4-0.2-0.6c0-1.2,1.6-2.1,2.8-2.1c0.7,0,1.4,0.3,1.6,1L546,408l8.9-25.5c0.3-0.7,0.9-1,1.5-1
			c1.1,0,2.8,0.9,2.8,2.2c0,0.1,0,0.4-0.1,0.6l-10.7,29.1c-2.8,7.5-6.2,17.4-14.1,17.4c-1.2,0-2.1-0.5-2.1-2c0-1,0.3-2.1,1.4-2.1
			c4.4,0,8.3-6.2,10-13.4L532.3,384.4z"/>
		<path d="M588,394.5v7.5c0,6.9-6.2,13.2-13.2,13.2c-7,0-13.1-6.2-13.1-13.2v-7.5c0-6.9,5.9-13,13.1-13
			C581.9,381.6,588,387.4,588,394.5z M583.5,394.5c0-4.4-3.9-8.8-8.7-8.8s-8.6,4.4-8.6,8.8v7.5c0,4.6,3.8,9,8.6,9
			c4.8,0,8.7-4.4,8.7-9V394.5z"/>
		<path d="M593.6,402.2v-18.5c0-0.8,1-1.7,2.3-1.7c1.2,0,2.2,0.9,2.2,1.7v18.5c0,4.5,3.8,8.9,8.7,8.9c4.8,0,8.7-4.3,8.7-8.9v-18.6
			c0-0.9,1-1.7,2.3-1.7c1.2,0,2.2,0.8,2.2,1.7v18.6c0,6.9-6,13-13.2,13C599.5,415.2,593.6,409.1,593.6,402.2z"/>
		<path d="M630.4,366.6c0,1-1,3.7-2.8,7.8c-0.3,0.6-0.8,0.8-1.2,0.8c-0.8,0-1.7-0.6-1.7-1.5c0-0.2,0-0.4,0.1-0.6l1.4-3.6
			c-1.2-0.4-2.1-1.7-2.1-3c0-1.7,1.4-3.2,3.2-3.2C628.9,363.4,630.4,364.9,630.4,366.6z"/>
		<path d="M641.9,363.6V413c0,0.9-1,1.8-2.3,1.8c-1.2,0-2.2-0.9-2.2-1.8v-49.4c0-1,1-1.7,2.2-1.7
			C640.9,361.9,641.9,362.6,641.9,363.6z"/>
		<path d="M653.9,363.6V413c0,0.9-1,1.8-2.3,1.8c-1.2,0-2.2-0.9-2.2-1.8v-49.4c0-1,1-1.7,2.2-1.7
			C652.9,361.9,653.9,362.6,653.9,363.6z"/>
		<path d="M690.7,385.7c-4.6,0-9.1,3.8-9.1,10.1V413c0,0.9-1,1.8-2.3,1.8c-1.2,0-2.2-0.9-2.2-1.8v-29.3c0-1,1-1.7,2.2-1.7
			c1.2,0,2.1,0.7,2.1,1.7v3.4c1.5-2.8,4.8-5.5,9.3-5.5h2.4c1,0,1.8,1,1.8,2.1c0,1.1-0.8,2.1-1.8,2.1H690.7z"/>
		<path d="M723,394.2c0,5.3-3,5.5-6,5.5h-15.7v2.6c0,5.5,4.4,9,10.5,9c5.5,0,6.8-2.8,8.3-2.8c1.1,0,1.9,1.3,1.9,2.1
			c0,1.7-3.9,4.6-10.4,4.6c-8.7,0-14.9-5.3-14.9-13.2v-7.8c0-6.9,6-12.7,13.2-12.7C716.9,381.6,723,386.8,723,394.2z M715.2,396.4
			c2.8,0,3.5-0.4,3.5-2.4c0-4.4-3.5-8.7-8.7-8.7c-4.8,0-8.7,3.8-8.7,8.4v2.6H715.2z"/>
		<path d="M750.6,395v18c0,1-0.9,1.8-2.2,1.8c-1.2,0-2.1-0.8-2.1-1.8v-3c-2.4,2.8-5.8,5.3-10.5,5.3c-5.3,0-9.4-2.9-9.4-9.1
			c0-7.5,6.5-9.5,16.1-9.5h3.5V395c0-4.4-2.2-9.4-8.2-9.4c-4.6,0-6.3,2-7.4,2c-1.2,0-1.8-1.4-1.8-2.4c0-1.8,4.9-3.5,9.4-3.5
			C747.4,381.6,750.6,388,750.6,395z M746.1,399.7h-2.9c-6.4,0-12.3,0.6-12.3,6c0,4,2.6,5.7,6,5.7c4.4,0,9.1-4.2,9.1-7.3V399.7z"/>
		<path d="M771.6,394.2l12,17.5c0.1,0.3,0.3,0.6,0.3,1c0,1-1.2,2.3-2.4,2.3c-0.6,0-1-0.3-1.4-0.8L768.4,397l-6.4,5.6V413
			c0,0.9-1,1.8-2.3,1.8c-1.2,0-2.2-0.9-2.2-1.8v-49.4c0-1,1-1.7,2.2-1.7c1.3,0,2.3,0.7,2.3,1.7v33.7l16.9-15c0.3-0.2,0.7-0.4,1-0.4
			c1.1,0,2.3,1,2.3,2.1c0,0.4-0.1,0.9-0.5,1.2L771.6,394.2z"/>
		<path d="M827.9,394.5v7.5c0,6.9-6.2,13.2-13.2,13.2c-7,0-13.1-6.2-13.1-13.2v-7.5c0-6.9,5.9-13,13.1-13
			C821.8,381.6,827.9,387.4,827.9,394.5z M823.4,394.5c0-4.4-3.9-8.8-8.7-8.8c-4.8,0-8.6,4.4-8.6,8.8v7.5c0,4.6,3.8,9,8.6,9
			c4.8,0,8.7-4.4,8.7-9V394.5z"/>
		<path d="M838.4,382h9.9c1,0,1.6,0.9,1.6,1.8c0,1-0.6,1.9-1.6,1.9h-9.9V413c0,1-1.1,1.7-2.4,1.7c-1.2,0-2.1-0.7-2.1-1.7v-38.4
			c0-7,5.7-12.7,12.3-12.7h1.7c1.2,0,1.9,1,1.9,2.1c0,1-0.8,2-1.9,2h-1.2c-4.8,0-8.3,3.9-8.4,8.3V382z"/>
		<path d="M890.8,395v18c0,1-0.9,1.8-2.2,1.8c-1.2,0-2.1-0.8-2.1-1.8v-3c-2.4,2.8-5.8,5.3-10.5,5.3c-5.3,0-9.4-2.9-9.4-9.1
			c0-7.5,6.5-9.5,16.1-9.5h3.5V395c0-4.4-2.2-9.4-8.2-9.4c-4.6,0-6.3,2-7.4,2c-1.2,0-1.8-1.4-1.8-2.4c0-1.8,4.9-3.5,9.4-3.5
			C887.5,381.6,890.8,388,890.8,395z M886.3,399.7h-2.9c-6.4,0-12.3,0.6-12.3,6c0,4,2.6,5.7,6,5.7c4.4,0,9.1-4.2,9.1-7.3V399.7z"/>
		<path d="M902.2,382h9.9c1,0,1.6,0.9,1.6,1.8c0,1-0.6,1.9-1.6,1.9h-9.9V413c0,1-1.1,1.7-2.4,1.7c-1.2,0-2.1-0.7-2.1-1.7v-38.4
			c0-7,5.7-12.7,12.3-12.7h1.7c1.2,0,1.9,1,1.9,2.1c0,1-0.8,2-1.9,2h-1.2c-4.8,0-8.3,3.9-8.4,8.3V382z"/>
		<path d="M922.5,404.6c0,4.5,1.7,6.1,6.4,6.1h1.9c1.2,0,2.1,1,2.1,2c0,1.1-0.8,2.1-2.1,2.1H929c-7.1,0-10.9-3-10.9-10.2v-36.5
			c0-1,1.2-1.7,2.2-1.7c1.1,0,2.3,0.7,2.3,1.7V382h8.9c0.9,0,1.6,0.9,1.6,1.9s-0.7,1.9-1.6,1.9h-8.9V404.6z"/>
		<path d="M961.5,394.2c0,5.3-3,5.5-6,5.5h-15.7v2.6c0,5.5,4.4,9,10.5,9c5.5,0,6.8-2.8,8.3-2.8c1.1,0,1.9,1.3,1.9,2.1
			c0,1.7-3.9,4.6-10.4,4.6c-8.7,0-14.9-5.3-14.9-13.2v-7.8c0-6.9,6-12.7,13.2-12.7C955.5,381.6,961.5,386.8,961.5,394.2z
			 M953.7,396.4c2.8,0,3.5-0.4,3.5-2.4c0-4.4-3.5-8.7-8.7-8.7c-4.8,0-8.7,3.8-8.7,8.4v2.6H953.7z"/>
		<path d="M980.3,385.7c-4.6,0-9.1,3.8-9.1,10.1V413c0,0.9-1,1.8-2.3,1.8c-1.2,0-2.2-0.9-2.2-1.8v-29.3c0-1,1-1.7,2.2-1.7
			c1.2,0,2.1,0.7,2.1,1.7v3.4c1.5-2.8,4.8-5.5,9.3-5.5h2.4c1,0,1.8,1,1.8,2.1c0,1.1-0.8,2.1-1.8,2.1H980.3z"/>
		<path d="M1033.1,414.2c-0.3,0.8-1,1.1-1.8,1.1c-1,0-1.5-0.3-1.9-1l-7.2-22.5l-7.1,22.2c-0.3,1-1,1.4-2,1.4c-0.9,0-1.5-0.3-1.9-1.4
			l-10.8-29c-0.1-0.3-0.3-0.8-0.3-1c0-1.1,1.5-2,2.7-2c0.7,0,1.4,0.3,1.6,1l8.9,24.7l7.1-22.5c0.3-0.9,0.9-1.2,1.8-1.2
			c0.8,0,1.5,0.3,1.8,1.2l6.9,22.8l9.1-24.9c0.1-0.6,0.8-1,1.5-1c1.2,0,2.7,0.8,2.7,2c0,0.3-0.1,0.8-0.3,1L1033.1,414.2z"/>
		<path d="M1073.1,394.2c0,5.3-3,5.5-6,5.5h-15.7v2.6c0,5.5,4.4,9,10.5,9c5.5,0,6.8-2.8,8.3-2.8c1.1,0,1.9,1.3,1.9,2.1
			c0,1.7-3.9,4.6-10.4,4.6c-8.7,0-14.9-5.3-14.9-13.2v-7.8c0-6.9,6-12.7,13.2-12.7C1067,381.6,1073.1,386.8,1073.1,394.2z
			 M1065.3,396.4c2.8,0,3.5-0.4,3.5-2.4c0-4.4-3.5-8.7-8.7-8.7c-4.8,0-8.7,3.8-8.7,8.4v2.6H1065.3z"/>
		<path d="M1118.5,363.6V413c0,0.9-0.9,1.8-2.1,1.8c-1.2,0-2.1-0.9-2.1-1.8v-3c-1.5,2.8-5.2,5.3-9.5,5.3c-6.6,0-12.3-6.3-12.3-13.2
			v-7.5c0-7.1,5.6-13,12.4-13c4.6,0,7.7,2.6,9.1,5.3v-23.3c0-1,1-1.7,2.4-1.7C1117.6,361.9,1118.5,362.6,1118.5,363.6z M1097,402.1
			c0,4.6,3.9,9,8.6,9c4.8,0,8.4-4.8,8.4-6.9v-9.7c0-5.5-4.2-8.8-8.4-8.8c-4.8,0-8.7,4.4-8.7,8.8V402.1z"/>
		<path d="M1150.8,394.2c0,5.3-3,5.5-6,5.5h-15.7v2.6c0,5.5,4.4,9,10.5,9c5.5,0,6.8-2.8,8.3-2.8c1.1,0,1.9,1.3,1.9,2.1
			c0,1.7-3.9,4.6-10.4,4.6c-8.7,0-14.9-5.3-14.9-13.2v-7.8c0-6.9,6-12.7,13.2-12.7C1144.7,381.6,1150.8,386.8,1150.8,394.2z
			 M1143,396.4c2.8,0,3.5-0.4,3.5-2.4c0-4.4-3.5-8.7-8.7-8.7c-4.8,0-8.7,3.8-8.7,8.4v2.6H1143z"/>
		<path d="M1172.4,406.5c0-9.2-17.1-4-17.1-15.5c0-4.4,3-9.4,10.9-9.4c4.6,0,9.3,1.7,9.3,3.4c0,0.8-0.8,2.4-1.9,2.4
			s-3.3-1.9-7.3-1.9c-5.1,0-6.9,3.1-6.9,5.4c0,7.9,17.2,2.9,17.2,15.5c0,5.5-4.1,8.9-11.2,8.9c-6.5,0-10.9-2.9-10.9-5
			c0-0.9,0.7-2.1,1.6-2.1c1.5,0,2.9,3.3,9.1,3.3C1170.5,411.4,1172.4,409.1,1172.4,406.5z"/>
		<path d="M1186.9,369.4c0,1.5-1.3,2.9-3,2.9c-1.7,0-3.1-1.4-3.1-2.9c0-1.5,1.4-2.8,3.1-2.8C1185.5,366.6,1186.9,367.9,1186.9,369.4
			z M1186.2,383.7V413c0,0.9-1,1.8-2.3,1.8c-1.2,0-2.2-0.9-2.2-1.8v-29.3c0-1,1-1.7,2.2-1.7C1185.1,382,1186.2,382.7,1186.2,383.7z"
			/>
		<path d="M1198.8,405.9c-1,0.6-2.1,1.2-2.1,2.7c0,6.2,21.5-0.2,21.5,12.4c0,6.5-5.7,9.8-13.6,9.8c-8.1,0-14.1-3.5-14.1-9.2
			c0-4,2.9-6.4,5.9-7.5c-2.2-0.8-3.8-2-3.8-4.8c0-2.6,1.4-3.9,3.5-5c-2.4-2-3.8-5.1-3.8-8.7v-2.6c0-6.6,4.7-11.4,11.9-11.4
			c3.3,0,6.1,1.1,8.1,2.9c1.4-2.8,3.3-4.4,4.9-4.4c1.4,0,2.1,1,2.1,1.8s-0.6,1.4-1.2,1.5c-1.1,0.2-2.6,0.8-3.9,3
			c1.3,1.7,1.9,4.1,1.9,6.5v2.6c0,6.6-5,11.5-12.1,11.5C1202.2,407.1,1200.4,406.7,1198.8,405.9z M1201.1,415
			c-3.3,1-6.2,2.8-6.2,6.2c0,3.7,3.7,6.3,9.6,6.3c5.8,0,9.3-2.5,9.3-6.4C1213.8,415.4,1205.4,415.7,1201.1,415z M1211.7,392.9
			c0-4.5-2.8-8-7.5-8c-4.8,0-7.5,3.5-7.5,8v2.6c0,4.6,2.8,8.2,7.6,8.2c4.6,0,7.5-3.5,7.5-8.1V392.9z"/>
		<path d="M1228.2,413c0,0.9-1,1.8-2.3,1.8c-1.3,0-2.2-0.9-2.2-1.8v-29.3c0-1,0.9-1.7,2.2-1.7c1.1,0,2.1,0.7,2.1,1.7v3.2
			c1.5-2.7,4.6-5.3,9.3-5.3c6.6,0,12.3,5.8,12.3,13V413c0,1.2-1.2,1.8-2.3,1.8c-1,0-2.2-0.6-2.2-1.8v-18.4c0-4.4-3.9-8.8-8.7-8.8
			c-4.1,0-8.2,3.3-8.2,8.8V413z"/>
		<path d="M1276.4,382h9.9c1,0,1.6,0.9,1.6,1.8c0,1-0.6,1.9-1.6,1.9h-9.9V413c0,1-1.1,1.7-2.4,1.7c-1.2,0-2.1-0.7-2.1-1.7v-38.4
			c0-7,5.7-12.7,12.3-12.7h1.7c1.2,0,1.9,1,1.9,2.1c0,1-0.8,2-1.9,2h-1.2c-4.8,0-8.3,3.9-8.4,8.3V382z"/>
		<path d="M1316.2,394.5v7.5c0,6.9-6.2,13.2-13.2,13.2c-7,0-13.1-6.2-13.1-13.2v-7.5c0-6.9,5.9-13,13.1-13
			C1310,381.6,1316.2,387.4,1316.2,394.5z M1311.7,394.5c0-4.4-3.9-8.8-8.7-8.8c-4.8,0-8.6,4.4-8.6,8.8v7.5c0,4.6,3.8,9,8.6,9
			c4.8,0,8.7-4.4,8.7-9V394.5z"/>
		<path d="M1335.8,385.7c-4.6,0-9.1,3.8-9.1,10.1V413c0,0.9-1,1.8-2.3,1.8c-1.2,0-2.2-0.9-2.2-1.8v-29.3c0-1,1-1.7,2.2-1.7
			c1.2,0,2.1,0.7,2.1,1.7v3.4c1.5-2.8,4.8-5.5,9.3-5.5h2.4c1,0,1.8,1,1.8,2.1c0,1.1-0.8,2.1-1.8,2.1H1335.8z"/>
		<path d="M1355.8,384.4c-0.1-0.2-0.2-0.4-0.2-0.6c0-1.2,1.6-2.1,2.8-2.1c0.7,0,1.4,0.3,1.6,1l9.5,25.5l8.9-25.5
			c0.3-0.7,0.9-1,1.5-1c1.1,0,2.8,0.9,2.8,2.2c0,0.1,0,0.4-0.1,0.6l-10.7,29.1c-2.8,7.5-6.2,17.4-14.1,17.4c-1.2,0-2.1-0.5-2.1-2
			c0-1,0.3-2.1,1.4-2.1c4.4,0,8.3-6.2,10-13.4L1355.8,384.4z"/>
		<path d="M1411.5,394.5v7.5c0,6.9-6.2,13.2-13.2,13.2c-7,0-13.1-6.2-13.1-13.2v-7.5c0-6.9,5.9-13,13.1-13
			C1405.3,381.6,1411.5,387.4,1411.5,394.5z M1407,394.5c0-4.4-3.9-8.8-8.7-8.8c-4.8,0-8.6,4.4-8.6,8.8v7.5c0,4.6,3.8,9,8.6,9
			c4.8,0,8.7-4.4,8.7-9V394.5z"/>
		<path d="M1417,402.2v-18.5c0-0.8,1-1.7,2.3-1.7c1.2,0,2.2,0.9,2.2,1.7v18.5c0,4.5,3.8,8.9,8.7,8.9c4.8,0,8.7-4.3,8.7-8.9v-18.6
			c0-0.9,1-1.7,2.3-1.7c1.2,0,2.2,0.8,2.2,1.7v18.6c0,6.9-6,13-13.2,13C1422.9,415.2,1417,409.1,1417,402.2z"/>
		<path d="M1454.7,412c0,1.7-1.5,3.2-3.1,3.2c-1.9,0-3.2-1.5-3.2-3.2c0-1.8,1.3-3.3,3.2-3.3C1453.2,408.7,1454.7,410.2,1454.7,412z"
			/>
	</g>
</g>
<g id="Inside">
	<rect x="2177.6" y="0" class="st1" width="1795" height="1287"/>
	<g>
		<g>
			<rect x="645.9" y="1105.4" class="st2" width="63.3" height="124.2"/>
			<path class="st3" d="M709.2,1231.6h-63.3c-1.1,0-2-0.9-2-2v-124.2c0-1.1,0.9-2,2-2h63.3c1.1,0,2,0.9,2,2v124.2
				C711.2,1230.7,710.3,1231.6,709.2,1231.6z M647.9,1227.6h59.3v-120.1h-59.3V1227.6z"/>
		</g>
		<g>
			<path class="st2" d="M645.9,1229.6c-7,11.6-5.8,26.9,4,37.2l1.7,1.8c11.7,12.4,31.2,13,43.6,1.3l131.4-124.1
				c12.4-11.7,13-31.2,1.3-43.6l-1.7-1.8c-11.7-12.4-31.2-13-43.6-1.3l-101.8,96.1"/>
			<path class="st4" d="M644.2,1228.5c0.6-0.9,1.8-1.2,2.8-0.7c0.9,0.6,1.3,1.8,0.7,2.8c-6.7,11.1-5.2,25.3,3.7,34.8l1.7,1.8
				c5.3,5.6,12.5,8.8,20.2,9c7.7,0.2,15-2.6,20.6-7.9l131.4-124.1c5.6-5.3,8.8-12.5,9-20.2s-2.6-15-7.9-20.6l-1.7-1.8
				c-5.3-5.6-12.5-8.8-20.2-9c-7.7-0.2-15,2.6-20.6,7.9l-101.8,96.1c-0.8,0.8-2.1,0.7-2.8-0.1c-0.8-0.8-0.7-2.1,0.1-2.8l101.8-96.1
				c6.4-6,14.7-9.2,23.5-9c8.8,0.3,16.9,3.9,23,10.3l1.7,1.8c6,6.4,9.2,14.7,9,23.5c-0.3,8.8-3.9,16.9-10.3,23l-131.4,124.1
				c-6.1,5.8-14.1,9-22.5,9c-0.3,0-0.6,0-1,0c-8.8-0.3-16.9-3.9-23-10.3l-1.7-1.8"/>
		</g>
		<g>
			<g>
				<path class="st2" d="M786.6,1090c-2.1-4.4-0.3-9.7,4.1-11.9l52.1-25.4c4.4-2.1,9.7-0.3,11.9,4.1l26.2,53.6
					c2.1,4.4,0.3,9.7-4.1,11.9l-52.1,25.4c-4.4,2.1-9.7,0.3-11.9-4.1"/>
				<path class="st4" d="M820.8,1150.6c-4,0-7.9-2.3-9.8-6.1c-0.5-1-0.1-2.2,0.9-2.7c1-0.5,2.2-0.1,2.7,0.9c0.8,1.6,2.2,2.9,4,3.5
					c1.7,0.6,3.6,0.5,5.3-0.3l52.1-25.4c1.6-0.8,2.9-2.2,3.5-4c0.6-1.7,0.5-3.6-0.3-5.3l-26.2-53.6c-0.8-1.6-2.2-2.9-3.9-3.5
					c-1.7-0.6-3.6-0.5-5.3,0.3l-52.1,25.4c-1.6,0.8-2.9,2.2-3.5,3.9c-0.6,1.7-0.5,3.6,0.3,5.3c0.5,1,0.1,2.2-0.9,2.7
					c-1,0.5-2.2,0.1-2.7-0.9c-2.6-5.4-0.4-11.9,5-14.6l52.1-25.4c2.6-1.3,5.6-1.4,8.3-0.5c2.8,0.9,5,2.9,6.2,5.5l26.2,53.6
					c2.6,5.4,0.4,11.9-5,14.6l-52.1,25.4C824,1150.2,822.4,1150.6,820.8,1150.6z"/>
			</g>
			<g>
				<g>
					<path class="st2" d="M821.6,1084.5c-2.8,1.3-5.4,1.5-6,0.4l-6.6-13.4c-0.5-1.1,1.3-3.1,4-4.4l32.7-15.9c2.8-1.3,5.4-1.5,6-0.4
						l6.6,13.4c0.5,1.1-1.3,3.1-4,4.4L821.6,1084.5z"/>
					<path class="st4" d="M817.4,1087.6c-2.2,0-3.1-1.1-3.4-1.8l-6.6-13.4c-1.2-2.6,1.6-5.3,4.9-7l32.7-15.9
						c1.5-0.8,3.1-1.2,4.5-1.3c2.6-0.2,3.6,1,4,1.7l6.6,13.4c0.4,0.7,0.7,2.3-1.1,4.2c-0.9,1-2.3,2-3.8,2.7l-32.7,15.9c0,0,0,0,0,0
						c-1.5,0.8-3.1,1.2-4.5,1.3C817.7,1087.5,817.5,1087.6,817.4,1087.6z M817.1,1083.8c0.5,0.1,1.9-0.1,3.6-1l32.7-15.9
						c1.8-0.9,2.7-1.8,3-2.3l-6.2-12.7c-0.5,0-1.9,0.1-3.6,1l-32.7,15.9c-1.8,0.9-2.7,1.8-3,2.3L817.1,1083.8z"/>
				</g>
				<g>
					<path class="st2" d="M830.1,1101.9c-2.8,1.3-5.4,1.5-6,0.4l-6.6-13.4c-0.5-1.1,1.3-3.1,4-4.4l32.7-15.9c2.8-1.3,5.4-1.5,6-0.4
						l6.6,13.4c0.5,1.1-1.3,3.1-4,4.4L830.1,1101.9z"/>
					<path class="st4" d="M825.9,1105c-2.2,0-3.1-1.1-3.4-1.8l-6.6-13.4c-1.2-2.6,1.6-5.3,4.9-7l32.7-15.9c3.3-1.6,7.3-2.1,8.5,0.4
						l6.6,13.4c1.2,2.6-1.6,5.3-4.9,7l-32.7,15.9l0,0c-1.5,0.8-3.1,1.2-4.5,1.3C826.2,1105,826,1105,825.9,1105z M825.6,1101.2
						c0.5,0,1.9-0.1,3.6-1l32.7-15.9c1.8-0.9,2.7-1.8,3-2.3l-6.2-12.7c-0.5,0-1.9,0.1-3.6,1l-32.7,15.9c-1.8,0.9-2.7,1.8-3,2.3
						L825.6,1101.2z"/>
				</g>
				<g>
					<path class="st2" d="M838.6,1119.4c-2.8,1.3-5.4,1.5-6,0.4l-6.6-13.4c-0.5-1.1,1.3-3.1,4-4.4l32.7-15.9c2.8-1.3,5.4-1.5,6-0.4
						l6.6,13.4c0.5,1.1-1.3,3.1-4,4.4L838.6,1119.4z"/>
					<path class="st4" d="M834.4,1122.4c-2.2,0-3.1-1.1-3.4-1.8l-6.6-13.4c-1.2-2.6,1.6-5.3,4.9-7l32.7-15.9
						c3.3-1.6,7.3-2.1,8.5,0.4l6.6,13.4c1.2,2.6-1.6,5.3-4.9,7l-32.7,15.9c-1.5,0.8-3.1,1.2-4.5,1.3
						C834.7,1122.4,834.5,1122.4,834.4,1122.4z M834.1,1118.6c0.5,0,1.9-0.1,3.6-1c0,0,0,0,0,0l32.7-15.9c1.8-0.9,2.7-1.8,3-2.3
						l-6.2-12.7c-0.5-0.1-1.9,0.1-3.6,1l-32.7,15.9c-1.8,0.9-2.7,1.8-3,2.3L834.1,1118.6z"/>
				</g>
				<g>
					<path class="st2" d="M847.1,1136.8c-2.8,1.3-5.4,1.5-6,0.4l-6.6-13.4c-0.5-1.1,1.3-3.1,4-4.4l32.7-15.9c2.8-1.3,5.4-1.5,6-0.4
						l6.6,13.4c0.5,1.1-1.3,3.1-4,4.4L847.1,1136.8z"/>
					<path class="st4" d="M842.9,1139.9c-2.2,0-3.1-1.1-3.4-1.8l-6.6-13.4c-0.4-0.7-0.7-2.3,1.1-4.2c0.9-1,2.3-2,3.8-2.7l32.7-15.9
						c1.5-0.8,3.1-1.2,4.5-1.3c2.6-0.2,3.6,1,4,1.7l6.6,13.4c0.4,0.7,0.7,2.3-1.1,4.2c-0.9,1-2.3,2-3.8,2.7l-32.7,15.9l0,0
						c-1.5,0.8-3.1,1.2-4.5,1.3C843.2,1139.8,843,1139.9,842.9,1139.9z M842.6,1136.1c0.5,0.1,1.9-0.1,3.6-1l32.7-15.9
						c1.8-0.9,2.7-1.8,3-2.3l-6.2-12.7c-0.5,0-1.9,0.1-3.6,1l-32.7,15.9c-1.8,0.9-2.7,1.8-3,2.3L842.6,1136.1z"/>
				</g>
			</g>
		</g>
		<g>
			<path class="st2" d="M784.6,1100.8l-9.5-32.1c-2.4-8,1-16.1,7.4-18l0,0c6.5-1.9,13.7,3,16.1,11l5.9,20"/>
			<path class="st4" d="M784.6,1102.5c-0.7,0-1.4-0.5-1.6-1.2l-9.5-32.1c-1.3-4.2-1.1-8.6,0.5-12.4c1.6-3.9,4.5-6.6,8.1-7.7
				c3.6-1.1,7.5-0.4,11,2c3.4,2.3,5.9,5.9,7.2,10.1l5.9,20c0.3,0.9-0.2,1.9-1.2,2.1c-0.9,0.3-1.9-0.2-2.1-1.2l-5.9-20
				c-1-3.5-3.1-6.4-5.8-8.3c-2.6-1.8-5.5-2.3-8.1-1.6c-2.6,0.8-4.7,2.8-5.9,5.7c-1.3,3-1.4,6.6-0.3,10.1l9.5,32.1
				c0.3,0.9-0.2,1.9-1.2,2.1C784.9,1102.5,784.7,1102.5,784.6,1102.5z"/>
		</g>
	</g>
	<g>
		<g>
			<rect x="1385.4" y="1103.8" class="st2" width="63.3" height="124.2"/>
			<path class="st3" d="M1448.8,1230h-63.3c-1.1,0-2-0.9-2-2v-124.2c0-1.1,0.9-2,2-2h63.3c1.1,0,2,0.9,2,2V1228
				C1450.8,1229.1,1449.9,1230,1448.8,1230z M1387.5,1226h59.3v-120.1h-59.3V1226z"/>
		</g>
		<g>
			<path class="st2" d="M1385.4,1228c-7,11.6-5.8,26.9,4,37.2l1.7,1.8c11.7,12.4,31.2,13,43.6,1.3l131.4-124.1
				c12.4-11.7,13-31.2,1.3-43.6l-1.7-1.8c-11.7-12.4-31.2-13-43.6-1.3l-101.8,96.1"/>
			<path class="st4" d="M1413.6,1278.6c-0.3,0-0.6,0-1,0c-8.8-0.3-16.9-3.9-23-10.3l-1.7-1.8c-10.1-10.7-11.9-27-4.2-39.6
				c0.6-0.9,1.8-1.3,2.8-0.7c0.9,0.6,1.2,1.8,0.7,2.8c-6.7,11.1-5.2,25.3,3.7,34.8l1.7,1.8c10.9,11.6,29.2,12.1,40.8,1.2
				l131.4-124.1c11.6-10.9,12.1-29.2,1.2-40.8l-1.7-1.8c-5.3-5.6-12.5-8.8-20.2-9c-7.7-0.2-15,2.6-20.6,7.9l-101.8,96.1
				c-0.8,0.8-2.1,0.7-2.8-0.1c-0.8-0.8-0.7-2.1,0.1-2.8l101.8-96.1c6.4-6,14.7-9.2,23.5-9c8.8,0.3,16.9,3.9,23,10.3l1.7,1.8
				c12.4,13.2,11.8,34-1.3,46.5l-131.4,124.1C1430,1275.4,1422,1278.6,1413.6,1278.6z"/>
		</g>
		<g>
			<g>
				<path class="st2" d="M1526.2,1088.4c-2.1-4.4-0.3-9.7,4.1-11.9l52.1-25.4c4.4-2.1,9.7-0.3,11.9,4.1l26.2,53.6
					c2.1,4.4,0.3,9.7-4.1,11.9l-52.1,25.4c-4.4,2.1-9.7,0.3-11.9-4.1"/>
				<path class="st4" d="M1560.3,1149c-4,0-7.9-2.3-9.8-6.1c-0.5-1-0.1-2.2,0.9-2.7c1-0.5,2.2-0.1,2.7,0.9c0.8,1.6,2.2,2.9,4,3.5
					c1.7,0.6,3.6,0.5,5.3-0.3l52.1-25.4c1.6-0.8,2.9-2.2,3.5-4s0.5-3.6-0.3-5.3l-26.2-53.6c-0.8-1.6-2.2-2.9-4-3.5
					c-1.7-0.6-3.6-0.5-5.3,0.3l-52.1,25.4c-1.6,0.8-2.9,2.2-3.5,4s-0.5,3.6,0.3,5.3c0.5,1,0.1,2.2-0.9,2.7c-1,0.5-2.2,0.1-2.7-0.9
					c-1.3-2.6-1.4-5.6-0.5-8.3c0.9-2.8,2.9-5,5.5-6.2l52.1-25.4c5.4-2.6,11.9-0.4,14.6,5l26.2,53.6c2.6,5.4,0.4,11.9-5,14.6
					l-52.1,25.4C1563.6,1148.7,1561.9,1149,1560.3,1149z"/>
			</g>
			<g>
				<g>
					<path class="st2" d="M1561.1,1082.9c-2.8,1.3-5.4,1.5-6,0.4l-6.6-13.4c-0.5-1.1,1.3-3.1,4-4.4l32.7-15.9c2.8-1.3,5.4-1.5,6-0.4
						l6.6,13.4c0.5,1.1-1.3,3.1-4,4.4L1561.1,1082.9z"/>
					<path class="st4" d="M1556.9,1086c-2.2,0-3.1-1.1-3.4-1.8l-6.6-13.4c-0.4-0.7-0.7-2.3,1.1-4.2c0.9-1,2.3-2,3.8-2.7l32.7-15.9
						c3.3-1.6,7.3-2.1,8.5,0.4l6.6,13.4c0.4,0.7,0.7,2.3-1.1,4.2c-0.9,1-2.3,2-3.8,2.7l-32.7,15.9c-1.5,0.8-3.1,1.2-4.5,1.3
						C1557.3,1086,1557.1,1086,1556.9,1086z M1556.7,1082.2c0.5,0.1,1.9-0.1,3.6-1l0,0l32.7-15.9c1.8-0.9,2.7-1.8,3-2.3l-6.2-12.7
						c-0.5,0-1.9,0.1-3.6,1l-32.7,15.9c-1.8,0.9-2.7,1.8-3,2.3L1556.7,1082.2z"/>
				</g>
				<g>
					<path class="st2" d="M1569.6,1100.4c-2.8,1.3-5.4,1.5-6,0.4l-6.6-13.4c-0.5-1.1,1.3-3.1,4-4.4l32.7-15.9c2.8-1.3,5.4-1.5,6-0.4
						l6.6,13.4c0.5,1.1-1.3,3.1-4,4.4L1569.6,1100.4z"/>
					<path class="st4" d="M1565.4,1103.4c-1.5,0-2.8-0.5-3.4-1.8l-6.6-13.4c-1.2-2.6,1.6-5.3,4.9-7l32.7-15.9
						c3.3-1.6,7.3-2.1,8.5,0.4l6.6,13.4c1.2,2.6-1.6,5.3-4.9,7l-32.7,15.9l0,0C1568.8,1102.9,1567,1103.4,1565.4,1103.4z
						 M1565.2,1099.6c0.5,0,1.9-0.1,3.6-1l32.7-15.9c1.8-0.9,2.7-1.8,3-2.3l-6.2-12.7c-0.5-0.1-1.9,0.1-3.6,1l-32.7,15.9
						c-1.8,0.9-2.7,1.8-3,2.3L1565.2,1099.6z"/>
				</g>
				<g>
					<path class="st2" d="M1578.1,1117.8c-2.8,1.3-5.4,1.5-6,0.4l-6.6-13.4c-0.5-1.1,1.3-3.1,4-4.4l32.7-15.9c2.8-1.3,5.4-1.5,6-0.4
						l6.6,13.4c0.5,1.1-1.3,3.1-4,4.4L1578.1,1117.8z"/>
					<path class="st4" d="M1573.9,1120.8c-1.5,0-2.8-0.5-3.4-1.8l-6.6-13.4c-0.4-0.7-0.7-2.3,1.1-4.2c0.9-1,2.3-2,3.8-2.7l32.7-15.9
						c1.5-0.8,3.1-1.2,4.5-1.3c2.6-0.2,3.6,1,4,1.7l6.6,13.4c0.4,0.7,0.7,2.3-1.1,4.2c-0.9,1-2.3,2-3.8,2.7l-32.7,15.9l0,0
						C1577.3,1120.3,1575.5,1120.8,1573.9,1120.8z M1573.7,1117.1c0.5,0,1.9-0.1,3.6-1l32.7-15.9c1.8-0.9,2.7-1.8,3-2.3l-6.2-12.7
						c-0.5,0-1.9,0.1-3.6,1l-32.7,15.9c-1.8,0.9-2.7,1.8-3,2.3L1573.7,1117.1z"/>
				</g>
				<g>
					<path class="st2" d="M1586.7,1135.2c-2.8,1.3-5.4,1.5-6,0.4l-6.6-13.4c-0.5-1.1,1.3-3.1,4-4.4l32.7-15.9c2.8-1.3,5.4-1.5,6-0.4
						l6.6,13.4c0.5,1.1-1.3,3.1-4,4.4L1586.7,1135.2z"/>
					<path class="st4" d="M1582.4,1138.3c-2.2,0-3.1-1.1-3.4-1.8l-6.6-13.4c-0.4-0.7-0.7-2.3,1.1-4.2c0.9-1,2.3-2,3.8-2.7l32.7-15.9
						c3.3-1.6,7.3-2.1,8.5,0.4l6.6,13.4c0.4,0.7,0.7,2.3-1.1,4.2c-0.9,1-2.3,2-3.8,2.7l-32.7,15.9c-1.5,0.8-3.1,1.2-4.5,1.3
						C1582.8,1138.3,1582.6,1138.3,1582.4,1138.3z M1582.2,1134.5c0.5,0.1,1.9-0.1,3.6-1l0,0l32.7-15.9c1.8-0.9,2.7-1.8,3-2.3
						l-6.2-12.7c-0.5-0.1-1.9,0.1-3.6,1l-32.7,15.9c-1.8,0.9-2.7,1.8-3,2.3L1582.2,1134.5z"/>
				</g>
			</g>
		</g>
		<g>
			<path class="st2" d="M1524.1,1099.2l-9.5-32.1c-2.4-8,1-16.1,7.4-18l0,0c6.5-1.9,13.7,3,16.1,11l5.9,20"/>
			<path class="st4" d="M1524.1,1100.9c-0.7,0-1.4-0.5-1.6-1.2l-9.5-32.1c-1.3-4.2-1.1-8.6,0.5-12.4c1.6-3.9,4.5-6.6,8.1-7.7
				c3.6-1.1,7.5-0.4,11,2c3.4,2.3,5.9,5.9,7.2,10.2l5.9,20c0.3,0.9-0.2,1.9-1.2,2.1c-0.9,0.3-1.9-0.2-2.1-1.2l-5.9-20
				c-1-3.5-3.1-6.4-5.8-8.3c-2.6-1.8-5.5-2.3-8.1-1.6c-2.6,0.8-4.7,2.8-5.9,5.7c-1.3,3-1.4,6.6-0.3,10.1l9.5,32.1
				c0.3,0.9-0.2,1.9-1.2,2.1C1524.4,1100.9,1524.3,1100.9,1524.1,1100.9z"/>
		</g>
	</g>
	<g>
		<g>
			<rect x="1092.8" y="1103.8" class="st2" width="63.3" height="124.2"/>
			<path class="st3" d="M1156.1,1230h-63.3c-1.1,0-2-0.9-2-2v-124.2c0-1.1,0.9-2,2-2h63.3c1.1,0,2,0.9,2,2V1228
				C1158.1,1229.1,1157.2,1230,1156.1,1230z M1094.8,1226h59.3v-120.1h-59.3V1226z"/>
		</g>
		<g>
			<path class="st2" d="M1156.1,1228c7,11.6,5.8,26.9-4,37.2l-1.7,1.8c-11.7,12.4-31.2,13-43.6,1.3l-131.4-124.1
				c-12.4-11.7-13-31.2-1.3-43.6l1.7-1.8c11.7-12.4,31.2-13,43.6-1.3l101.8,96.1"/>
			<path class="st4" d="M1128,1278.6c-8.4,0-16.4-3.2-22.5-9L974,1145.6c-13.2-12.4-13.8-33.3-1.3-46.5l1.7-1.8
				c6-6.4,14.2-10,23-10.3c8.8-0.2,17.1,2.9,23.5,9l101.8,96.1c0.8,0.8,0.8,2,0.1,2.8c-0.8,0.8-2,0.8-2.8,0.1l-101.8-96.1
				c-5.6-5.3-12.9-8.1-20.6-7.9c-7.7,0.2-14.9,3.4-20.2,9l-1.7,1.8c-10.9,11.6-10.4,29.9,1.2,40.8l131.4,124.1
				c5.6,5.3,12.9,8.1,20.6,7.9c7.7-0.2,14.9-3.4,20.2-9l1.7-1.8c8.9-9.4,10.4-23.7,3.7-34.8c-0.6-0.9-0.3-2.2,0.7-2.8
				c0.9-0.6,2.2-0.3,2.8,0.7c7.6,12.6,5.9,28.9-4.2,39.6l-1.7,1.8c-6,6.4-14.2,10-23,10.3C1128.6,1278.6,1128.3,1278.6,1128,1278.6z
				"/>
		</g>
		<g>
			<g>
				<path class="st2" d="M1015.4,1088.4c2.1-4.4,0.3-9.7-4.1-11.9l-52.1-25.4c-4.4-2.1-9.7-0.3-11.9,4.1l-26.2,53.6
					c-2.1,4.4-0.3,9.7,4.1,11.9l52.1,25.4c4.4,2.1,9.7,0.3,11.9-4.1"/>
				<path class="st4" d="M981.2,1149c-1.6,0-3.2-0.4-4.8-1.1l-52.1-25.4c-5.4-2.6-7.7-9.2-5-14.6l26.2-53.6c2.6-5.4,9.2-7.7,14.6-5
					l52.1,25.4c2.6,1.3,4.6,3.5,5.5,6.2c1,2.8,0.8,5.7-0.5,8.3c-0.5,1-1.7,1.4-2.7,0.9c-1-0.5-1.4-1.7-0.9-2.7
					c0.8-1.6,0.9-3.5,0.3-5.3s-1.8-3.1-3.5-4l-52.1-25.4c-1.6-0.8-3.5-0.9-5.3-0.3c-1.7,0.6-3.1,1.8-4,3.5l-26.2,53.6
					c-0.8,1.6-0.9,3.5-0.3,5.3s1.8,3.1,3.5,4l52.1,25.4c1.6,0.8,3.5,0.9,5.3,0.3c1.7-0.6,3.1-1.8,4-3.5c0.5-1,1.7-1.4,2.7-0.9
					c1,0.5,1.4,1.7,0.9,2.7C989.1,1146.8,985.3,1149,981.2,1149z"/>
			</g>
			<g>
				<g>
					<path class="st2" d="M980.4,1082.9c2.8,1.3,5.4,1.5,6,0.4l6.6-13.4c0.5-1.1-1.3-3.1-4-4.4l-32.7-15.9c-2.8-1.3-5.4-1.5-6-0.4
						l-6.6,13.4c-0.5,1.1,1.3,3.1,4,4.4L980.4,1082.9z"/>
					<path class="st4" d="M984.7,1086c-1.6,0-3.4-0.5-5.1-1.4l-32.7-15.9c-3.3-1.6-6.1-4.4-4.9-7l6.6-13.4c1.2-2.6,5.2-2.1,8.5-0.4
						l32.7,15.9c3.3,1.6,6.1,4.4,4.9,7l-6.6,13.4C987.5,1085.5,986.2,1086,984.7,1086z M945.6,1063c0.3,0.4,1.2,1.4,3,2.3l32.7,15.9
						l0,0c1.8,0.9,3.1,1,3.6,1l6.2-12.7c-0.3-0.4-1.2-1.4-3-2.3l-32.7-15.9c-1.8-0.9-3.1-1-3.6-1L945.6,1063z"/>
				</g>
				<g>
					<path class="st2" d="M971.9,1100.4c2.8,1.3,5.4,1.5,6,0.4l6.6-13.4c0.5-1.1-1.3-3.1-4-4.4l-32.7-15.9c-2.8-1.3-5.4-1.5-6-0.4
						l-6.6,13.4c-0.5,1.1,1.3,3.1,4,4.4L971.9,1100.4z"/>
					<path class="st4" d="M976.1,1103.4c-1.6,0-3.4-0.5-5.1-1.4l0,0l-32.7-15.9c-1.5-0.8-2.9-1.7-3.8-2.7c-1.8-2-1.4-3.5-1.1-4.2
						l6.6-13.4c0.4-0.7,1.3-1.9,4-1.7c1.4,0.1,3,0.6,4.5,1.3l32.7,15.9c1.5,0.8,2.9,1.7,3.8,2.7c1.8,2,1.4,3.5,1.1,4.2l-6.6,13.4
						C979,1102.9,977.7,1103.4,976.1,1103.4z M972.7,1098.7c1.8,0.9,3.1,1,3.6,1l6.2-12.7c-0.3-0.4-1.2-1.4-3-2.3l-32.7-15.9
						c-1.8-0.9-3.1-1-3.6-1l-6.2,12.7c0.3,0.4,1.2,1.4,3,2.3L972.7,1098.7z"/>
				</g>
				<g>
					<path class="st2" d="M963.4,1117.8c2.8,1.3,5.4,1.5,6,0.4l6.6-13.4c0.5-1.1-1.3-3.1-4-4.4l-32.7-15.9c-2.8-1.3-5.4-1.5-6-0.4
						l-6.6,13.4c-0.5,1.1,1.3,3.1,4,4.4L963.4,1117.8z"/>
					<path class="st4" d="M967.6,1120.8c-0.2,0-0.4,0-0.6,0c-1.4-0.1-3-0.6-4.5-1.3l0,0l-32.7-15.9c-1.5-0.8-2.9-1.7-3.8-2.7
						c-1.8-2-1.4-3.5-1.1-4.2l6.6-13.4c0.4-0.7,1.4-2,4-1.7c1.4,0.1,3,0.6,4.5,1.3l32.7,15.9c1.5,0.8,2.9,1.7,3.8,2.7
						c1.8,2,1.4,3.5,1.1,4.2l-6.6,13.4C970.7,1119.7,969.9,1120.8,967.6,1120.8z M964.2,1116.1c1.8,0.9,3.1,1,3.6,1l6.2-12.7
						c-0.3-0.4-1.2-1.4-3-2.3l-32.7-15.9c-1.8-0.9-3.1-1-3.6-1l-6.2,12.7c0.3,0.4,1.2,1.4,3,2.3L964.2,1116.1z"/>
				</g>
				<g>
					<path class="st2" d="M954.9,1135.2c2.8,1.3,5.4,1.5,6,0.4l6.6-13.4c0.5-1.1-1.3-3.1-4-4.4l-32.7-15.9c-2.8-1.3-5.4-1.5-6-0.4
						l-6.6,13.4c-0.5,1.1,1.3,3.1,4,4.4L954.9,1135.2z"/>
					<path class="st4" d="M959.1,1138.3c-1.6,0-3.4-0.5-5.1-1.4l-32.7-15.9c-3.3-1.6-6.1-4.4-4.9-7l6.6-13.4
						c1.2-2.6,5.2-2.1,8.5-0.4l32.7,15.9c3.3,1.6,6.1,4.4,4.9,7l-6.6,13.4C962,1137.8,960.7,1138.3,959.1,1138.3z M920,1115.3
						c0.3,0.4,1.2,1.4,3,2.3l32.7,15.9l0,0c1.8,0.9,3.1,1,3.6,1l6.2-12.7c-0.3-0.4-1.2-1.4-3-2.3l-32.7-15.9c-1.8-0.9-3.1-1-3.6-1
						L920,1115.3z"/>
				</g>
			</g>
		</g>
		<g>
			<path class="st2" d="M1017.4,1099.2l9.5-32.1c2.4-8-1-16.1-7.4-18l0,0c-6.5-1.9-13.7,3-16.1,11l-5.9,20"/>
			<path class="st4" d="M1017.4,1100.9c-0.2,0-0.3,0-0.5-0.1c-0.9-0.3-1.4-1.2-1.2-2.1l9.5-32.1c1-3.5,0.9-7.1-0.3-10.1
				c-1.2-2.9-3.3-5-5.9-5.7c-2.6-0.8-5.5-0.2-8.1,1.6c-2.7,1.9-4.8,4.8-5.8,8.3l-5.9,20c-0.3,0.9-1.2,1.4-2.1,1.2
				c-0.9-0.3-1.4-1.2-1.2-2.1l5.9-20c1.3-4.2,3.8-7.8,7.2-10.2c3.5-2.4,7.4-3.1,11-2c3.6,1.1,6.5,3.8,8.1,7.7
				c1.6,3.8,1.7,8.2,0.5,12.4l-9.5,32.1C1018.9,1100.5,1018.2,1100.9,1017.4,1100.9z"/>
		</g>
	</g>
	<g>
		<path class="st2" d="M1383.8,1151.3c0-1.1,0.9-2,2-2h65.8v-116.5c0-17-14.7-30.7-32.7-30.7h-295.3c-18,0-32.7,13.8-32.7,30.7
			v116.5h62.2c1.1,0,2,0.9,2,2v89.7h228.3v42h0.3V1151.3z"/>
		<path class="st4" d="M1418.9,998.1h-295.3c-20.2,0-36.7,15.6-36.7,34.7v118.5c0,1.1,0.9,2,2,2h62.2V1285c0,1.1,0.9,2,2,2h1.7v-2
			h-1.7v-133.7h-62.5h-1.6v-118.5c0-18.1,15.5-32.7,34.7-32.7h295.3c19.2,0,34.7,14.7,34.7,32.7v118.5h-5.3h-62.5V1285h-2.4v2h2.4
			c1.1,0,2-0.9,2-2v-131.7h65.8c1.1,0,2-0.9,2-2v-118.5C1455.6,1013.7,1439.2,998.1,1418.9,998.1z"/>
		<path class="st4" d="M1155.1,1241v-89.7c0-1.1-0.9-2-2-2h-62.2v-116.5c0-17,14.7-30.7,32.7-30.7h295.3c18,0,32.7,13.8,32.7,30.7
			v116.5h-65.8c-1.1,0-2,0.9-2,2V1283h-0.3v2h2.4v-133.7h62.5h5.3v-118.5c0-18.1-15.5-32.7-34.7-32.7h-295.3
			c-19.2,0-34.7,14.7-34.7,32.7v118.5h1.6h62.5V1285h1.7v-44H1155.1z"/>
		<rect x="1155.1" y="1181.4" class="st2" width="228.3" height="105.6"/>
		<rect x="1154.8" y="1285" class="st2" width="228.7" height="2"/>
		<polygon class="st2" points="1383.4,1283 1155.1,1283 1155.1,1241 1154.8,1241 1154.8,1285 1383.4,1285 		"/>
	</g>
	<g>
		<path class="st2" d="M1328.7,1025.3v-64.6h-114.9v64.6c0,0,0,31.3,57.4,31.3C1328.7,1056.6,1328.7,1025.3,1328.7,1025.3z"/>
		<path class="st3" d="M1271.3,1059.3c-24.6,0-42.2-5.6-52.2-16.5c-7.8-8.5-7.9-17.1-7.9-17.5v-64.6c0-1.5,1.2-2.7,2.7-2.7h114.9
			c1.5,0,2.7,1.2,2.7,2.7v64.6c0,0.4-0.1,9-7.9,17.5C1313.4,1053.7,1295.9,1059.3,1271.3,1059.3z M1216.5,963.3v61.9
			c0,1.2,1,28.6,54.8,28.6c53.7,0,54.7-27.4,54.8-28.7v-61.9H1216.5z"/>
	</g>
	<g>
		<path class="st4" d="M1338.5,1152.8H1204c-1.1,0-2-0.9-2-2s0.9-2,2-2h134.5c1.1,0,2,0.9,2,2S1339.6,1152.8,1338.5,1152.8z"/>
	</g>
	<g>
		<g>
			
				<ellipse transform="matrix(-0.9295 -0.3688 0.3688 -0.9295 2374.2598 2220.2231)" class="st2" cx="1399.3" cy="883.2" rx="26.8" ry="45.2"/>
			<path class="st3" d="M1388.9,929.1c-2.5,0-4.9-0.4-7.3-1.4c-15.4-6.1-19.6-30.4-9.7-55.4l0,0c9.9-25,29.7-39.8,45.1-33.7
				c7.6,3,12.7,10.6,14.4,21.4c1.6,10.3,0,22.4-4.7,34C1418.3,915.2,1402.8,929.1,1388.9,929.1z M1376.9,874.3
				c-8.5,21.4-5.4,43.6,6.7,48.5c12.2,4.8,29.6-9.2,38.1-30.7c4.3-10.8,5.8-21.9,4.3-31.2c-1.4-8.8-5.3-15-11.1-17.2
				C1402.9,838.8,1385.4,852.8,1376.9,874.3L1376.9,874.3z"/>
		</g>
		<g>
			
				<ellipse transform="matrix(0.9295 -0.3688 0.3688 0.9295 -245.1495 483.9352)" class="st2" cx="1143.2" cy="883.2" rx="26.8" ry="45.2"/>
			<path class="st3" d="M1153.6,929.1c-13.9,0-29.4-13.9-37.8-35c-4.6-11.7-6.3-23.8-4.7-34c1.7-10.8,6.8-18.4,14.4-21.4
				c15.4-6.1,35.2,8.7,45.1,33.7l0,0c9.9,25,5.6,49.3-9.7,55.4C1158.5,928.6,1156.1,929.1,1153.6,929.1z M1132.6,842.7
				c-1.8,0-3.5,0.3-5.1,0.9c-5.7,2.3-9.7,8.4-11.1,17.2c-1.5,9.3,0.1,20.4,4.3,31.2c8.5,21.4,26,35.5,38.1,30.7
				c12.2-4.8,15.2-27,6.7-48.5l0,0C1158.2,855.7,1144.1,842.7,1132.6,842.7z"/>
		</g>
	</g>
	<g>
		<path class="st2" d="M1394.1,847.5c0,86.7-55,151.8-122.8,151.8s-122.8-65.1-122.8-151.8s-12-113.4,122.8-113.4
			S1394.1,760.8,1394.1,847.5z"/>
		<path class="st3" d="M1271.3,1002c-70.4,0-125.5-67.9-125.5-154.5c0-6.9-0.1-13.4-0.1-19.6c-0.4-35.6-0.7-59.2,14.5-74.6
			c15.6-15.7,46.7-21.9,111.1-21.9s95.5,6.1,111.1,21.9c15.2,15.4,14.9,38.9,14.5,74.6c-0.1,6.2-0.1,12.7-0.1,19.6
			C1396.7,934.1,1341.6,1002,1271.3,1002z M1271.3,736.8c-62.8,0-92.9,5.7-107.3,20.3c-13.6,13.8-13.4,36.5-13,70.8
			c0.1,6.3,0.2,12.7,0.2,19.7c0,83.6,52.8,149.1,120.1,149.1s120.1-65.5,120.1-149.1c0-6.9,0.1-13.4,0.2-19.7
			c0.4-34.3,0.7-56.9-13-70.8C1364.1,742.5,1334.1,736.8,1271.3,736.8z"/>
	</g>
	<g>
		<path class="st2" d="M1249.8,788.6v109c2.8,8.3,11.4,14.3,21.4,14.3s18.6-6,21.4-14.3"/>
		<path class="st3" d="M1271.3,913.9c-10.8,0-20.1-6.3-23.3-15.6c-0.1-0.2-0.1-0.4-0.1-0.6v-109c0-1.1,0.9-2,2-2s2,0.9,2,2v108.7
			c2.7,7.6,10.5,12.6,19.4,12.6c9,0,16.9-5.2,19.5-12.9c0.4-1,1.5-1.6,2.5-1.2c1,0.4,1.6,1.5,1.2,2.5
			C1291.4,907.6,1282,913.9,1271.3,913.9z"/>
	</g>
	<g>
		<g>
			<path class="st5" d="M1317.5,940.4c0,13.8-20.7,25-46.3,25c-25.5,0-46.3-11.2-46.3-25H1317.5z"/>
			<path class="st3" d="M1271.3,967.4c-27.1,0-48.3-11.9-48.3-27c0-1.1,0.9-2,2-2h92.5c1.1,0,2,0.9,2,2
				C1319.5,955.5,1298.3,967.4,1271.3,967.4z M1227.2,942.4c2,11.6,21.4,21,44.1,21s42-9.4,44.1-21H1227.2z"/>
		</g>
	</g>
	<g>
		<path class="st6" d="M1416.3,863.6l-5.2-29.8c0,0-6.7-28.5,2.4-57.6c-30.6-37.8-31.2-52-42.6-74.4c-97.3-97.6-203.3,0-203.3,0
			s-8.6,30.8-45.7,75.5c14.5,32,12.1,61.6,12.1,61.6l-10.9,29.6c0,0,18.2,25.3,29.6,30.6c-5.9-75.3,11.7-126.5,11.7-126.5
			s12.3,24.6,18.3,19.1c1.4-12.9,12.1-35.4,12.1-35.4s42.6,37,90.6,48.2c-6.6-20.7-6.9-40.1-6.8-46.8c10.8,9,32.3,26.1,54.4,38.3
			c0,0,2.6-14.2,11.3-24.8c10.9,4.8,22.5,11.1,34.1,19.4c0,0,8.9,41.7,8.6,98.5L1416.3,863.6z"/>
		<path class="st7" d="M1152.7,901.7c-0.4,0-0.8-0.1-1.1-0.2c-12-5.5-29.9-30.4-30.7-31.5c-0.5-0.7-0.6-1.6-0.3-2.5l10.7-29.2
			c0.2-3.4,1.3-30.8-11.9-59.9c-0.4-0.9-0.3-2,0.4-2.8c36.2-43.6,45.1-74.2,45.2-74.5c0.1-0.5,0.4-0.9,0.8-1.2
			c1.1-1,27.4-24.9,66.2-37.2c22.9-7.2,45.3-8.8,66.6-4.7c26.7,5.2,51.6,19.3,74.2,41.9c0.2,0.2,0.4,0.4,0.5,0.7
			c3.1,6.1,5.5,11.7,7.8,17.1c6.1,14.5,12.4,29.5,34.5,56.8c0.6,0.7,0.7,1.6,0.5,2.5c-8.8,28-2.4,55.9-2.4,56.2c0,0,0,0.1,0,0.1
			l5.2,29.8c0.2,0.9-0.2,1.9-0.9,2.5l-29.2,25.6c-0.8,0.7-1.9,0.9-2.9,0.4c-1-0.4-1.6-1.4-1.6-2.4c0.3-51.1-7-90.3-8.4-96.9
			c-9.6-6.8-20-12.7-30.8-17.7c-7.1,9.7-9.5,21.8-9.5,22c-0.2,0.8-0.7,1.6-1.5,1.9c-0.8,0.4-1.7,0.3-2.4-0.1
			c-19.6-10.8-38.7-25.3-50.4-34.9c0.2,9.1,1.5,24.2,6.6,40.3c0.3,0.9,0.1,1.9-0.6,2.6c-0.7,0.7-1.6,1-2.6,0.8
			c-41.8-9.8-78.8-38.2-89.1-46.5c-2.9,6.6-9.4,21.9-10.4,31.4c-0.1,0.6-0.4,1.2-0.8,1.7c-1.3,1.2-3,1.7-4.8,1.4
			c-5.1-0.9-10.9-9.3-14.5-15.5c-4.3,15.6-14.4,60.2-9.8,119.3c0.1,0.9-0.4,1.9-1.1,2.4C1153.8,901.6,1153.3,901.7,1152.7,901.7z
			 M1126.1,868c3.1,4.2,14.5,19.2,23.6,26c-4.7-72.1,12.1-121.8,12.2-122.3c0.4-1,1.3-1.7,2.3-1.8c1.1-0.1,2.1,0.5,2.6,1.5
			c5,9.9,11,17.6,13.4,18.4c2.1-13.3,11.7-33.7,12.1-34.6c0.4-0.8,1.1-1.3,1.9-1.5c0.8-0.2,1.7,0,2.3,0.6c0.4,0.4,40,34.4,85,46.5
			c-5.3-19.1-5.7-36.3-5.5-43.1c0-1,0.6-2,1.6-2.4c0.9-0.4,2-0.3,2.8,0.4c10.3,8.6,30.1,24.4,50.9,36.2c1.4-5.1,4.6-14.6,11-22.4
			c0.8-0.9,2.1-1.2,3.2-0.8c12.2,5.4,23.8,12,34.5,19.7c0.5,0.4,0.9,1,1.1,1.6c0.1,0.4,8.4,39.7,8.7,93.2l23.6-20.7l-5-28.2
			c-0.5-2-6.4-29.1,2.1-57.6c-21.8-27.2-28.2-42.3-34.4-56.9c-2.3-5.5-4.5-10.6-7.4-16.4c-21.7-21.7-45.7-35.2-71.1-40.1
			c-20.5-4-42-2.4-64,4.5c-34.7,11-59.7,32.1-63.6,35.5c-1.6,5.1-11.5,33.8-44.9,74.4c13.9,31.7,11.8,60.1,11.7,61.4
			c0,0.2-0.1,0.5-0.2,0.7L1126.1,868z"/>
	</g>
	<g>
		<g>
			<rect x="346.2" y="1105.4" class="st2" width="63.3" height="124.2"/>
			<path class="st3" d="M409.6,1231.6h-63.3c-1.1,0-2-0.9-2-2v-124.2c0-1.1,0.9-2,2-2h63.3c1.1,0,2,0.9,2,2v124.2
				C411.6,1230.7,410.7,1231.6,409.6,1231.6z M348.2,1227.6h59.3v-120.1h-59.3V1227.6z"/>
		</g>
		<g>
			<path class="st2" d="M409.6,1229.6c7,11.6,5.8,26.9-4,37.2l-1.7,1.8c-11.7,12.4-31.2,13-43.6,1.3l-131.4-124.1
				c-12.4-11.7-13-31.2-1.3-43.6l1.7-1.8c11.7-12.4,31.2-13,43.6-1.3l101.8,96.1"/>
			<path class="st4" d="M381.4,1280.2c-8.4,0-16.4-3.2-22.5-9l-131.4-124.1c-6.4-6-10-14.2-10.3-23c-0.3-8.8,2.9-17.1,9-23.5
				l1.7-1.8c12.4-13.2,33.3-13.8,46.5-1.3l101.8,96.1c0.8,0.8,0.8,2,0.1,2.8c-0.8,0.8-2,0.8-2.8,0.1l-101.8-96.1
				c-11.6-10.9-29.9-10.4-40.8,1.2l-1.7,1.8c-5.3,5.6-8.1,12.9-7.9,20.6s3.4,14.9,9,20.2l131.4,124.1c5.6,5.3,12.9,8.1,20.6,7.9
				c7.7-0.2,14.9-3.4,20.2-9l1.7-1.8c8.9-9.4,10.4-23.7,3.7-34.8c-0.6-0.9-0.3-2.2,0.7-2.8c0.9-0.6,2.2-0.3,2.8,0.7
				c7.6,12.6,5.9,28.9-4.2,39.6l-1.7,1.8c-6,6.4-14.2,10-23,10.3C382.1,1280.2,381.8,1280.2,381.4,1280.2z"/>
		</g>
		<g>
			<g>
				<path class="st2" d="M268.8,1090c2.1-4.4,0.3-9.7-4.1-11.9l-52.1-25.4c-4.4-2.1-9.7-0.3-11.9,4.1l-26.2,53.6
					c-2.1,4.4-0.3,9.7,4.1,11.9l52.1,25.4c4.4,2.1,9.7,0.3,11.9-4.1"/>
				<path class="st4" d="M234.7,1150.6c-1.6,0-3.2-0.4-4.8-1.1l-52.1-25.4c-5.4-2.6-7.6-9.2-5-14.6l26.2-53.6
					c1.3-2.6,3.5-4.6,6.2-5.5c2.8-1,5.7-0.8,8.3,0.5l52.1,25.4c5.4,2.6,7.6,9.2,5,14.6c-0.5,1-1.7,1.4-2.7,0.9
					c-1-0.5-1.4-1.7-0.9-2.7c0.8-1.6,0.9-3.5,0.3-5.3c-0.6-1.7-1.8-3.1-3.5-3.9l-52.1-25.4c-1.6-0.8-3.5-0.9-5.3-0.3
					c-1.7,0.6-3.1,1.8-4,3.5l-26.2,53.6c-0.8,1.6-0.9,3.5-0.3,5.3c0.6,1.7,1.8,3.1,3.5,4l52.1,25.4c1.6,0.8,3.5,0.9,5.3,0.3
					c1.7-0.6,3.1-1.8,4-3.5c0.5-1,1.7-1.4,2.7-0.9c1,0.5,1.4,1.7,0.9,2.7C242.6,1148.3,238.7,1150.6,234.7,1150.6z"/>
			</g>
			<g>
				<g>
					<path class="st2" d="M233.9,1084.5c2.8,1.3,5.4,1.5,6,0.4l6.6-13.4c0.5-1.1-1.3-3.1-4-4.4l-32.7-15.9c-2.8-1.3-5.4-1.5-6-0.4
						l-6.6,13.4c-0.5,1.1,1.3,3.1,4,4.4L233.9,1084.5z"/>
					<path class="st4" d="M238.1,1087.6c-1.6,0-3.4-0.5-5.1-1.4l0,0l-32.7-15.9c-3.3-1.6-6.1-4.4-4.9-7l6.6-13.4
						c0.4-0.7,1.4-1.9,4-1.7c1.4,0.1,3,0.6,4.5,1.3l32.7,15.9c3.3,1.6,6.1,4.4,4.9,7l-6.6,13.4
						C240.9,1087,239.6,1087.6,238.1,1087.6z M234.7,1082.8c1.8,0.9,3.1,1,3.6,1l6.2-12.7c-0.3-0.4-1.2-1.4-3-2.3l-32.7-15.9
						c-1.8-0.9-3.1-1-3.6-1l-6.2,12.7c0.3,0.4,1.2,1.4,3,2.3L234.7,1082.8z"/>
				</g>
				<g>
					<path class="st2" d="M225.4,1101.9c2.8,1.3,5.4,1.5,6,0.4l6.6-13.4c0.5-1.1-1.3-3.1-4-4.4l-32.7-15.9c-2.8-1.3-5.4-1.5-6-0.4
						l-6.6,13.4c-0.5,1.1,1.3,3.1,4,4.4L225.4,1101.9z"/>
					<path class="st4" d="M229.6,1105c-0.2,0-0.4,0-0.6,0c-1.4-0.1-3-0.6-4.5-1.3c0,0,0,0,0,0l-32.7-15.9c-1.5-0.8-2.9-1.7-3.8-2.7
						c-1.8-2-1.4-3.5-1.1-4.2l6.6-13.4c0.4-0.7,1.4-1.9,4-1.7c1.4,0.1,3,0.6,4.5,1.3l32.7,15.9c1.5,0.8,2.9,1.7,3.8,2.7
						c1.8,2,1.4,3.5,1.1,4.2l-6.6,13.4C232.7,1103.9,231.8,1105,229.6,1105z M226.2,1100.3c1.8,0.9,3.1,1,3.6,1l6.2-12.7
						c-0.3-0.4-1.2-1.4-3-2.3l-32.7-15.9c-1.8-0.9-3.1-1-3.6-1l-6.2,12.7c0.3,0.4,1.2,1.4,3,2.3L226.2,1100.3L226.2,1100.3z"/>
				</g>
				<g>
					<path class="st2" d="M216.8,1119.4c2.8,1.3,5.4,1.5,6,0.4l6.6-13.4c0.5-1.1-1.3-3.1-4-4.4l-32.7-15.9c-2.8-1.3-5.4-1.5-6-0.4
						l-6.6,13.4c-0.5,1.1,1.3,3.1,4,4.4L216.8,1119.4z"/>
					<path class="st4" d="M221.1,1122.4c-0.2,0-0.4,0-0.6,0c-1.4-0.1-3-0.6-4.5-1.3l-32.7-15.9c-3.3-1.6-6.1-4.4-4.9-7l6.6-13.4
						c1.2-2.6,5.2-2.1,8.5-0.4l32.7,15.9c3.3,1.6,6.1,4.4,4.9,7l-6.6,13.4C224.2,1121.3,223.3,1122.4,221.1,1122.4z M182,1099.5
						c0.3,0.4,1.2,1.4,3,2.3l32.7,15.9c0,0,0,0,0,0c1.8,0.9,3.1,1,3.6,1l6.2-12.7c-0.3-0.4-1.2-1.4-3-2.3l-32.7-15.9
						c-1.8-0.9-3.1-1-3.6-1L182,1099.5z"/>
				</g>
				<g>
					<path class="st2" d="M208.3,1136.8c2.8,1.3,5.4,1.5,6,0.4l6.6-13.4c0.5-1.1-1.3-3.1-4-4.4l-32.7-15.9c-2.8-1.3-5.4-1.5-6-0.4
						l-6.6,13.4c-0.5,1.1,1.3,3.1,4,4.4L208.3,1136.8z"/>
					<path class="st4" d="M212.6,1139.9c-0.2,0-0.4,0-0.6,0c-1.4-0.1-3-0.6-4.5-1.3l0,0l-32.7-15.9c-3.3-1.6-6.1-4.4-4.9-7l6.6-13.4
						c0.4-0.7,1.4-1.9,4-1.7c1.4,0.1,3,0.6,4.5,1.3l32.7,15.9c3.3,1.6,6.1,4.4,4.9,7l-6.6,13.4
						C215.7,1138.8,214.8,1139.9,212.6,1139.9z M209.2,1135.1c1.8,0.9,3.1,1,3.6,1l6.2-12.7c-0.3-0.4-1.2-1.4-3-2.3l-32.7-15.9
						c-1.8-0.9-3.1-1-3.6-1l-6.2,12.7c0.3,0.4,1.2,1.4,3,2.3L209.2,1135.1z"/>
				</g>
			</g>
		</g>
		<g>
			<path class="st2" d="M270.9,1100.8l9.5-32.1c2.4-8-1-16.1-7.4-18h0c-6.5-1.9-13.7,3-16.1,11l-5.9,20"/>
			<path class="st4" d="M270.9,1102.5c-0.2,0-0.3,0-0.5-0.1c-0.9-0.3-1.4-1.2-1.2-2.1l9.5-32.1c1-3.5,0.9-7.1-0.3-10.1
				c-1.2-2.9-3.3-5-5.9-5.7c-2.6-0.8-5.5-0.2-8.1,1.6c-2.7,1.9-4.8,4.8-5.8,8.3l-5.9,20c-0.3,0.9-1.2,1.4-2.1,1.2
				c-0.9-0.3-1.4-1.2-1.2-2.1l5.9-20c1.3-4.2,3.8-7.8,7.2-10.1c3.5-2.4,7.4-3.1,11-2c3.6,1.1,6.5,3.8,8.1,7.7
				c1.6,3.8,1.7,8.2,0.5,12.4l-9.5,32.1C272.3,1102,271.6,1102.5,270.9,1102.5z"/>
		</g>
	</g>
	<g>
		<path class="st2" d="M1250.2,962.5c6.3,1.8,13.4,2.9,21,2.9c8.3,0,16-1.3,22.8-3.4c-2.2-7.2-11.1-12.6-21.9-12.6
			C1261.2,949.4,1252.1,955.1,1250.2,962.5z"/>
	</g>
	<g>
		<path class="st6" d="M698.5,1053.9V849.2c0-89-76.1-161.1-170-161.1s-170,72.1-170,161.1v204.8"/>
		<path class="st7" d="M698.5,1056.6c-1.5,0-2.7-1.2-2.7-2.7V849.2c0-87.4-75-158.5-167.3-158.5s-167.3,71.1-167.3,158.5v204.8
			c0,1.5-1.2,2.7-2.7,2.7s-2.7-1.2-2.7-2.7V849.2c0-90.3,77.4-163.8,172.6-163.8s172.6,73.5,172.6,163.8v204.8
			C701.2,1055.4,700,1056.6,698.5,1056.6z"/>
	</g>
	<g>
		<path class="st2" d="M645.4,1105.4c0-1.1,0.9-2,2-2H708l0.9-56.9c0-17-14.7-30.9-32.7-30.9H380.9c-18,0-32.7,13.9-32.7,31l0,56.9
			h60.5c1.1,0,2,0.9,2,2V1285h3.3v-56.5h229.9v56.5h1.5V1105.4z"/>
		<path class="st4" d="M676.2,1011.6H380.9c-20.2,0-36.7,15.7-36.7,35l0,58.9c0,0.5,0.2,1,0.6,1.4c0.4,0.4,0.9,0.6,1.4,0.6h60.5
			V1287c0,1.1,0.9,2,2,2h5.3v-2h-5.3v-181.6h-62.5l0-58.9c0-18.2,15.5-33,34.7-33h295.3c19.2,0,34.7,14.8,34.7,33l-1,58.9h-62.5
			V1287h-3.5v2h3.5c1.1,0,2-0.9,2-2v-179.6H710c1.1,0,2-0.9,2-2l1-58.9C712.9,1027.2,696.5,1011.6,676.2,1011.6z"/>
		<path class="st4" d="M410.8,1285v-179.6c0-1.1-0.9-2-2-2h-60.5l0-56.9c0-17.1,14.7-31,32.7-31h295.3c18,0,32.7,13.9,32.7,30.9
			l-0.9,56.9h-60.6c-1.1,0-2,0.9-2,2V1285h-1.5v2h3.5v-181.6H710l1-58.9c0-18.2-15.5-33-34.7-33H380.9c-19.2,0-34.7,14.8-34.7,33
			l0,58.9h62.5V1287h5.3v-2H410.8z"/>
	</g>
	<g>
		<path class="st2" d="M586,1038.8v-64.6H471.2v64.6c0,0,0,31.3,57.4,31.3S586,1038.8,586,1038.8z"/>
		<path class="st3" d="M528.6,1072.8c-24.6,0-42.2-5.6-52.2-16.5c-7.8-8.5-7.9-17.1-7.9-17.5v-64.6c0-1.5,1.2-2.7,2.7-2.7H586
			c1.5,0,2.7,1.2,2.7,2.7v64.6c0,0.4-0.1,9-7.9,17.5C570.8,1067.2,553.2,1072.8,528.6,1072.8z M473.9,976.8v61.9
			c0,1.2,1,28.6,54.8,28.6c53.7,0,54.7-27.4,54.8-28.7v-61.9H473.9z"/>
	</g>
	<g>
		
			<ellipse transform="matrix(-0.9295 -0.3688 0.3688 -0.9295 923.8129 1955.72)" class="st2" cx="648.8" cy="889.6" rx="26.7" ry="45"/>
		<path class="st7" d="M638.5,935.3c-2.5,0-4.9-0.4-7.2-1.4c-15.3-6.1-19.6-30.3-9.7-55.2c4.6-11.6,11.7-21.5,19.9-27.8
			c8.6-6.7,17.5-8.7,25-5.7c7.5,3,12.6,10.5,14.3,21.3c1.6,10.2,0,22.3-4.6,33.9C667.7,921.5,652.3,935.3,638.5,935.3z M659.3,849.2
			c-4.5,0-9.6,2-14.6,5.9c-7.4,5.8-13.9,14.8-18.2,25.6c-8.5,21.3-5.4,43.4,6.7,48.2c12.1,4.8,29.5-9.2,37.9-30.5
			c4.3-10.7,5.8-21.8,4.3-31.1c-1.4-8.8-5.3-14.9-11-17.2C662.8,849.5,661.1,849.2,659.3,849.2z"/>
	</g>
	<g>
		<path class="st2" d="M651,877.2c-0.1,7.7-0.2,15.7-0.2,23.8c0,86.3-54.7,110.1-122.2,110.1c-67.5,0-122.2-23.8-122.2-110.1
			c0-4.9,0-9.6-0.1-14.4c3.9-0.7,99.2-18.8,153.9-96.4C560.2,790.2,648.8,798.9,651,877.2z"/>
		<path class="st7" d="M528.6,1013.7c-38.6,0-67.4-7.6-88-23.2c-24.5-18.5-36.9-48.6-36.9-89.5c0-5.1,0-10.1-0.1-14.4l0-2.3l2.2-0.4
			c4-0.7,98.2-18.7,152.2-95.3l0.9-1.3l1.5,0.2c0.9,0.1,23,2.4,45.6,14.4c30.2,16.1,46.7,42.1,47.6,75.2l0,0l0,4.4
			c-0.1,6.3-0.1,12.9-0.1,19.4c0,40.9-12.4,71-36.9,89.5C596,1006.1,567.2,1013.7,528.6,1013.7z M408.9,888.8c0,3.7,0.1,8,0.1,12.2
			c0,39.1,11.7,67.8,34.7,85.2c19.7,14.9,47.4,22.1,84.8,22.1c37.4,0,65.1-7.2,84.8-22.1c23.1-17.4,34.7-46.1,34.7-85.2
			c0-6.6,0.1-13.2,0.1-19.5l0-4.3c-0.9-31.4-15.9-55.1-44.7-70.5c-18.4-9.9-36.9-13-42.2-13.7C510,864.8,424.2,885.6,408.9,888.8z"
			/>
	</g>
	<g>
		<path class="st2" d="M507.2,909.9c2.8,8.2,11.3,22.8,21.3,22.8c10,0,18.5-14.5,21.3-22.8"/>
		<path class="st7" d="M528.6,934.6c-10.9,0-20.1-14.8-23.2-24.1c-0.4-1,0.2-2.2,1.2-2.5c1-0.4,2.2,0.2,2.5,1.2
			c1.2,3.7,3.9,9.2,7.6,13.9c2.8,3.4,7,7.5,11.8,7.5s9.1-4.1,11.8-7.5c3.7-4.7,6.4-10.2,7.6-13.9c0.4-1,1.5-1.6,2.5-1.2
			c1,0.4,1.6,1.5,1.2,2.5C548.6,919.8,539.5,934.6,528.6,934.6z"/>
	</g>
	<g>
		<path class="st3" d="M569.8,871.1c-0.5,0-1.1-0.2-1.5-0.7c-0.7-0.8-0.7-2.1,0.2-2.8c6.6-5.9,17.5-9.4,29.1-9.4
			c7.5,0,14.6,1.4,20.6,4.1c1,0.4,1.5,1.6,1,2.6c-0.4,1-1.6,1.5-2.6,1c-5.5-2.4-12.1-3.7-19-3.7c-10.7,0-20.6,3.1-26.4,8.4
			C570.7,870.9,570.3,871.1,569.8,871.1z"/>
	</g>
	<g>
		<path class="st3" d="M487.4,871.1c-0.5,0-1-0.2-1.3-0.5c-3-2.7-7.2-4.9-12.1-6.4c-1.1-0.3-1.7-1.4-1.3-2.5
			c0.3-1.1,1.4-1.7,2.5-1.3c5.5,1.6,10.2,4.1,13.7,7.2c0.8,0.7,0.9,2,0.2,2.8C488.5,870.9,487.9,871.1,487.4,871.1z"/>
	</g>
	<g>
		<path class="st2" d="M594.4,945.6c0,19.6-29.5,35.5-65.8,35.5c-36.4,0-65.8-15.9-65.8-35.5H594.4z"/>
		<path class="st7" d="M528.6,983.1c-17.9,0-34.8-3.8-47.5-10.7c-13.1-7.1-20.3-16.6-20.3-26.9c0-1.1,0.9-2,2-2h131.6
			c1.1,0,2,0.9,2,2c0,10.3-7.2,19.8-20.3,26.9C563.3,979.4,546.5,983.1,528.6,983.1z M464.9,947.6c2,17.6,29.8,31.5,63.7,31.5
			c33.9,0,61.7-14,63.7-31.5H464.9z"/>
	</g>
	<g>
		<path class="st7" d="M528.6,959.8c-21.2,0-41.9-0.8-61.9-2.2c9.1,13.7,33.4,23.5,61.9,23.5c28.5,0,52.8-9.8,61.9-23.5
			C570.5,959,549.8,959.8,528.6,959.8z"/>
	</g>
	<g>
		<path class="st2" d="M406.2,886.6c0,4.7,0.1,9.5,0.1,14.4c0,10.6,0.8,20.2,2.4,29c-9.8-4.8-19.4-15.9-25.2-30.6
			c-1.1-2.8-2.1-5.7-2.8-8.5C380.7,890.9,402.4,887.4,406.2,886.6z"/>
		<path class="st7" d="M408.8,932.7c-0.4,0-0.8-0.1-1.2-0.3c-10.8-5.2-20.7-17.2-26.6-32c-1.1-2.8-2.1-5.8-2.9-8.8
			c-0.2-0.7-0.1-1.5,0.3-2.1c0.4-0.6,1.1-1.1,1.8-1.2c0.2,0,21.7-3.5,25.4-4.3c0.8-0.2,1.6,0,2.2,0.5c0.6,0.5,1,1.3,1,2.1
			c0,4.3,0.1,9.3,0.1,14.4c0,10.1,0.8,19.7,2.4,28.5c0.2,1-0.2,2-1,2.6C409.9,932.5,409.3,932.7,408.8,932.7z M384.1,893.1
			c0.6,1.8,1.2,3.6,1.9,5.3c4.5,11.3,11.5,20.8,19.2,26.3c-1-7.5-1.6-15.5-1.6-23.8c0-3.9,0-7.7-0.1-11.2
			C398.3,890.7,388.9,892.3,384.1,893.1z"/>
	</g>
	<g>
		<g>
			<path class="st5" d="M476.3,1175.4c-28.3,0-51.3-19.8-51.3-44.2c0-1.1,0.9-2,2-2s2,0.9,2,2c0,22.2,21.2,40.2,47.3,40.2
				c16.9,0,32.6-7.7,41.1-20.2c0.6-0.9,1.9-1.2,2.8-0.5c0.9,0.6,1.2,1.9,0.5,2.8C511.5,1167,494.5,1175.4,476.3,1175.4z"/>
		</g>
		<g>
			<path class="st5" d="M580.9,1175.4c-18.2,0-35.2-8.4-44.4-22c-0.6-0.9-0.4-2.2,0.5-2.8c0.9-0.6,2.2-0.4,2.8,0.5
				c8.4,12.5,24.2,20.2,41.1,20.2c26.1,0,47.3-18,47.3-40.2c0-1.1,0.9-2,2-2s2,0.9,2,2C632.2,1155.5,609.2,1175.4,580.9,1175.4z"/>
		</g>
	</g>
	<g>
		<path class="st4" d="M408.6,1106.3c-1.1,0-2-0.9-2-2v-9.5c0-1.1,0.9-2,2-2s2,0.9,2,2v9.5C410.6,1105.4,409.7,1106.3,408.6,1106.3z
			"/>
	</g>
	<g>
		<path class="st4" d="M647.6,1106.2c-1.1,0-2-0.9-2-2v-9.5c0-1.1,0.9-2,2-2s2,0.9,2,2v9.5C649.6,1105.3,648.7,1106.2,647.6,1106.2z
			"/>
	</g>
	<g>
		<line class="st2" x1="1152.8" y1="1083" x2="1152.8" y2="1181.4"/>
		<path class="st4" d="M1152.8,1183.4c-1.1,0-2-0.9-2-2V1083c0-1.1,0.9-2,2-2s2,0.9,2,2v98.4
			C1154.8,1182.5,1153.9,1183.4,1152.8,1183.4z"/>
	</g>
	<g>
		<line class="st2" x1="1385.8" y1="1080.2" x2="1385.8" y2="1181.4"/>
		<path class="st4" d="M1385.8,1183.4c-1.1,0-2-0.9-2-2v-101.1c0-1.1,0.9-2,2-2s2,0.9,2,2v101.1
			C1387.8,1182.5,1386.9,1183.4,1385.8,1183.4z"/>
	</g>
	<g>
		<path class="st3" d="M483.7,904.1c-0.5,0-0.9-0.3-1.2-0.7c-3.4-6.6-10.6-10.8-18.4-10.8c-7.8,0-15,4.2-18.4,10.8
			c-0.3,0.7-1.1,0.9-1.8,0.6c-0.7-0.3-0.9-1.1-0.6-1.8c3.8-7.4,12-12.2,20.7-12.2c8.8,0,16.9,4.8,20.7,12.2c0.3,0.7,0.1,1.5-0.6,1.8
			C484.1,904.1,483.9,904.1,483.7,904.1z"/>
	</g>
	<g>
		<path class="st3" d="M612.6,904.1c-0.5,0-0.9-0.3-1.2-0.7c-3.4-6.6-10.6-10.8-18.4-10.8s-15,4.2-18.4,10.8
			c-0.3,0.7-1.1,0.9-1.8,0.6c-0.7-0.3-0.9-1.1-0.6-1.8c3.8-7.4,12-12.2,20.7-12.2c8.8,0,16.9,4.8,20.7,12.2c0.3,0.7,0.1,1.5-0.6,1.8
			C613,904.1,612.8,904.1,612.6,904.1z"/>
	</g>
	<g>
		<g>
			<path class="st3" d="M1358.6,868.6c-0.5,0-0.9-0.3-1.2-0.7c-3.4-6.6-10.6-10.8-18.4-10.8s-15,4.2-18.4,10.8
				c-0.3,0.7-1.1,0.9-1.8,0.6c-0.7-0.3-0.9-1.1-0.6-1.8c3.8-7.4,12-12.2,20.7-12.2s16.9,4.8,20.7,12.2c0.3,0.7,0.1,1.5-0.6,1.8
				C1359,868.5,1358.8,868.6,1358.6,868.6z"/>
		</g>
		<g>
			<path class="st3" d="M1367.1,848.1c-0.8,0-1.7-0.4-2.2-1c-8.8-10.4-19.3-15.9-30.4-15.9c-7.6,0-14.9,2.6-21.8,7.7
				c-1.3,1-3.1,0.7-4.1-0.6c-1-1.3-0.7-3.1,0.6-4.1c7.7-5.8,16.5-8.8,25.3-8.8c12.7,0,25.1,6.4,34.9,18c1,1.2,0.9,3.1-0.3,4.1
				C1368.5,847.8,1367.8,848.1,1367.1,848.1z"/>
		</g>
		<g>
			<g>
				<path class="st3" d="M1223.1,868.6c-0.5,0-0.9-0.3-1.2-0.7c-3.4-6.6-10.6-10.8-18.4-10.8s-15,4.2-18.4,10.8
					c-0.3,0.7-1.1,0.9-1.8,0.6c-0.7-0.3-0.9-1.1-0.6-1.8c3.8-7.4,12-12.2,20.7-12.2s16.9,4.8,20.7,12.2c0.3,0.7,0.1,1.5-0.6,1.8
					C1223.5,868.5,1223.3,868.6,1223.1,868.6z"/>
			</g>
			<g>
				<path class="st3" d="M1175.4,848.1c-0.7,0-1.3-0.2-1.9-0.7c-1.2-1-1.4-2.9-0.3-4.1c9.8-11.6,22.2-18,34.9-18
					c8.8,0,17.5,3.1,25.3,8.8c1.3,1,1.6,2.8,0.6,4.1c-1,1.3-2.8,1.6-4.1,0.6c-6.8-5.1-14.2-7.7-21.8-7.7c-11.1,0-21.6,5.5-30.4,15.9
					C1177.1,847.7,1176.2,848.1,1175.4,848.1z"/>
			</g>
		</g>
	</g>
	<g>
		<path d="M617.8,516.3v-30.4c0-7.7,6.6-13.5,13.9-13.5c2.2,0,2.9,1.2,2.9,2.7c0,1.6-0.9,2.7-2.1,2.7c-5.6,0-8.7,4.2-8.7,8.2v30.4
			c0,5.9,4.9,7.2,8.7,7.2c1.6,0,2.1,1.4,2.1,2.7c0,1.6-0.7,2.7-3.1,2.7C624.2,528.9,617.8,524.7,617.8,516.3z"/>
		<path d="M686.2,526.8c-0.4,0.9-1.3,1.3-2.4,1.3c-1.2,0-2.1-0.4-2.4-1.3l-7-21.1l-6.8,20.9c-0.4,1-1.4,1.5-2.6,1.5
			c-1.1,0-2-0.4-2.4-1.5l-11.1-29.5c-0.1-0.4-0.3-0.9-0.3-1.1c0-1.5,2.1-2.6,3.7-2.6c0.9,0,1.6,0.4,1.9,1.1l8.7,24.1l6.7-21.7
			c0.4-1.1,1.2-1.4,2.2-1.4c1.1,0,1.9,0.4,2.3,1.4l6.6,21.9l8.7-24.3c0.2-0.7,1-1.1,1.9-1.1c1.5,0,3.7,1,3.7,2.6
			c0,0.4-0.1,0.9-0.3,1.1L686.2,526.8z"/>
		<path d="M729.6,506.2c0,5.7-3.2,5.9-6.4,5.9h-15.7v2.1c0,5.3,4.2,8.7,10.2,8.7c5.4,0,6.9-2.8,8.7-2.8c1.4,0,2.4,1.6,2.4,2.7
			c0,1.9-4.4,5.1-11.3,5.1c-9.3,0-15.9-5.6-15.9-13.9v-7.5c0-7.3,6.4-13.5,14.3-13.5C723.1,493,729.6,498.6,729.6,506.2z
			 M720.8,508.2c2.5,0,3.2-0.4,3.2-2.3c0-4.2-3.4-8.1-8.2-8.1c-4.5,0-8.2,3.4-8.2,7.8v2.6H720.8z"/>
		<path d="M740.8,478.1c0,1-0.9,3.4-3.2,8.7c-0.3,0.6-0.9,0.9-1.4,0.9c-1,0-2.1-0.6-2.1-1.7c0-0.2,0-0.5,0.1-0.7l1.5-3.7
			c-1.4-0.6-2.3-1.9-2.3-3.5c0-2,1.6-3.7,3.7-3.7C739.1,474.3,740.8,476.1,740.8,478.1z"/>
		<path d="M753.6,475.1v50.2c0,1.1-1.4,2.1-3,2.1c-1.7,0-2.9-1.1-2.9-2.1v-50.2c0-1.2,1.2-2.1,2.9-2.1
			C752.2,473,753.6,473.8,753.6,475.1z"/>
		<path d="M769.3,475.1v50.2c0,1.1-1.4,2.1-3,2.1c-1.7,0-2.9-1.1-2.9-2.1v-50.2c0-1.2,1.2-2.1,2.9-2.1
			C767.9,473,769.3,473.8,769.3,475.1z"/>
		<path d="M791.5,514.1v-7.2c0-7.7,4.4-13.9,14.3-13.9c6.3,0,10.5,2.8,10.5,4.9c0,1.2-1.1,2.9-2.5,2.9c-1.4,0-2.7-2.5-7.6-2.5
			c-5.9,0-8.7,3.2-8.7,8.5v7.2c0,5.3,2.8,8.5,8.8,8.5c5.2,0,6.2-2.6,7.8-2.6s2.7,1.6,2.7,2.9c0,2.2-4.4,5.1-10.9,5.1
			C795.9,528,791.5,522,791.5,514.1z"/>
		<path d="M846.5,506.9v18.3c0,1.2-1.2,2.1-2.9,2.1c-1.6,0-2.7-0.9-2.7-2.1v-2.9c-2.5,2.9-6,5.6-10.8,5.6c-5.4,0-9.7-3-9.7-9.5
			c0-8,6.8-10,16.8-10h3.4V507c0-4.2-2.1-8.9-7.9-8.9c-5,0-6.5,2.1-7.8,2.1c-1.4,0-2.2-1.7-2.2-3c0-2.2,5.4-4.2,10.2-4.2
			C842.9,493,846.5,499.8,846.5,506.9z M840.6,512.2h-2.5c-6.1,0-11.7,0.6-11.7,5.7c0,3.7,2.4,5.4,5.5,5.4c4.1,0,8.7-4,8.7-7.3
			V512.2z"/>
		<path d="M861.3,475.1v50.2c0,1.1-1.4,2.1-3,2.1c-1.7,0-2.9-1.1-2.9-2.1v-50.2c0-1.2,1.2-2.1,2.9-2.1
			C859.9,473,861.3,473.8,861.3,475.1z"/>
		<path d="M877,475.1v50.2c0,1.1-1.4,2.1-3,2.1c-1.7,0-2.9-1.1-2.9-2.1v-50.2c0-1.2,1.2-2.1,2.9-2.1C875.6,473,877,473.8,877,475.1z
			"/>
		<path d="M897.4,496.7c-0.1-0.2-0.3-0.5-0.3-0.8c0-1.6,2.3-2.9,3.9-2.9c0.9,0,1.6,0.4,1.9,1.2l9.5,24.9l8.5-24.9
			c0.4-0.9,1.1-1.2,1.9-1.2c1.4,0,3.9,1.2,3.9,2.9c0,0.2-0.1,0.5-0.2,0.7l-10.9,29.2c-3,8-6.5,18-15.6,18c-1.6,0-2.8-0.5-2.8-2.7
			c0-1.4,0.4-2.6,1.7-2.6c4.2,0,8.9-5.2,10.4-12.9L897.4,496.7z"/>
		<path d="M958.8,506.8v7.3c0,7.2-6.6,13.9-14.2,13.9s-14.1-6.6-14.1-13.9v-7.3c0-7.3,6.4-13.8,14.1-13.8
			C952.2,493,958.8,499.3,958.8,506.8z M952.8,506.8c0-4.2-3.7-8.4-8.2-8.4s-8.2,4.2-8.2,8.4v7.3c0,4.4,3.7,8.5,8.2,8.5
			s8.2-4.2,8.2-8.5V506.8z"/>
		<path d="M965.7,514.3v-18.6c0-1.1,1.3-2.1,3-2.1c1.5,0,2.9,1.1,2.9,2.1v18.6c0,4.2,3.7,8.4,8.2,8.4c4.5,0,8.2-4.1,8.2-8.4v-18.7
			c0-1.1,1.4-2.1,3-2.1c1.7,0,2.9,1,2.9,2.1v18.7c0,7.3-6.5,13.8-14.1,13.8C972,528,965.7,521.5,965.7,514.3z"/>
		<path d="M1032.7,518.7c0-8.7-17.5-3.7-17.5-15.6c0-4.7,3.2-10,11.8-10c5,0,10.1,1.9,10.1,3.9c0,0.9-0.9,3-2.4,3
			c-1.3,0-3.5-2.1-7.7-2.1c-4.8,0-6.5,2.9-6.5,5c0,7.3,17.6,2.6,17.6,15.6c0,5.9-4.3,9.6-12,9.6c-6.9,0-11.8-3-11.8-5.4
			c0-1.1,0.9-2.7,2.1-2.7c1.6,0,3.2,3.4,9.5,3.4C1031.1,523.2,1032.7,521,1032.7,518.7z"/>
		<path d="M1071.6,506.8v7.3c0,7.2-6.6,13.9-14.2,13.9s-14.1-6.6-14.1-13.9v-7.3c0-7.3,6.4-13.8,14.1-13.8
			C1065,493,1071.6,499.3,1071.6,506.8z M1065.6,506.8c0-4.2-3.7-8.4-8.2-8.4s-8.2,4.2-8.2,8.4v7.3c0,4.4,3.7,8.5,8.2,8.5
			s8.2-4.2,8.2-8.5V506.8z"/>
		<path d="M1105.8,506.8v7.3c0,7.2-6.6,13.9-14.2,13.9s-14.1-6.6-14.1-13.9v-7.3c0-7.3,6.4-13.8,14.1-13.8
			C1099.2,493,1105.8,499.3,1105.8,506.8z M1099.8,506.8c0-4.2-3.7-8.4-8.2-8.4s-8.2,4.2-8.2,8.4v7.3c0,4.4,3.7,8.5,8.2,8.5
			s8.2-4.2,8.2-8.5V506.8z"/>
		<path d="M1118.9,525.3c0,1.1-1.4,2.1-3,2.1c-1.7,0-2.9-1.1-2.9-2.1v-29.7c0-1.2,1.2-2.1,2.9-2.1c1.4,0,2.7,0.9,2.7,2.1v2.9
			c1.4-2.8,4.8-5.4,9.6-5.4c6.8,0,12.6,6.2,12.6,13.8v18.5c0,1.4-1.5,2.1-3,2.1c-1.4,0-2.9-0.7-2.9-2.1v-18.5c0-4.2-3.7-8.4-8.2-8.4
			c-3.9,0-7.8,3.2-7.8,8.4V525.3z"/>
		<path d="M1160.4,526.2c0-1.3,0.4-2.7,2.1-2.7c3.8,0,8.7-1.3,8.7-7.2v-30.4c0-3.9-3.2-8.2-8.7-8.2c-1.2,0-2.1-1.1-2.1-2.7
			c0-1.4,0.7-2.7,2.9-2.7c7.3,0,13.9,5.9,13.9,13.5v30.4c0,8.4-6.5,12.5-13.8,12.5C1161,528.9,1160.4,527.8,1160.4,526.2z"/>
	</g>
	<rect x="412.7" y="1211.3" class="st2" width="231.2" height="75.7"/>
</g>
<g id="success">
	<g>
		<path d="M658.7,276.1c0-35.6-53.2-18.3-53.2-57.4c0-23.4,19.1-29.2,34-29.2c12,0,26.9,4,26.9,9.8c0,2.1-1.8,5.9-4.6,5.9
			c-3,0-8.3-6.1-22.4-6.1c-11.9,0-23.2,4.3-23.2,18.6c0,29.8,53.2,13,53.2,57.4c0,22.8-14.1,33-33.8,33c-20.5,0-32.9-11.5-32.9-17.3
			c0-2.6,2.4-5.9,4.8-5.9c4.2,0,7.4,13.3,27.4,13.3C649.7,298.2,658.7,290.7,658.7,276.1z"/>
		<path d="M742.6,193.7c0-2.7,2.6-3.8,5.3-3.8c2.6,0,5.3,1.1,5.3,3.8v80c0,25-14.9,34.3-33.7,34.3c-18.9,0-33.7-9.3-33.7-34.3v-80
			c0-2.7,2.7-3.8,5.3-3.8c2.7,0,5.3,1.1,5.3,3.8v80c0,16.7,8.7,24.5,23.1,24.5s23.1-7.9,23.1-24.5V193.7z"/>
		<path d="M805.4,199.6c-14.9,0-23.1,7.7-23.1,24.4v49.7c0,16.8,8.2,24.5,23.7,24.5c19.1,0,20.8-12,21.8-19.7
			c0.3-2.6,1.9-4.2,5.3-4.2c3.7,0,5.3,1.3,5.3,6.6c0,14.6-12.3,27.1-33.5,27.1c-18.1,0-33.2-9.3-33.2-34.3V224
			c0-24.9,15.4-34.2,33.7-34.2c21,0,33,12.3,33,26.8c0,5.3-1.6,6.4-5.3,6.4s-5.1-1.8-5.3-4C827.6,212.1,824.5,199.6,805.4,199.6z"/>
		<path d="M888.1,199.6c-14.9,0-23.1,7.7-23.1,24.4v49.7c0,16.8,8.2,24.5,23.7,24.5c19.1,0,20.8-12,21.8-19.7
			c0.3-2.6,1.9-4.2,5.3-4.2c3.7,0,5.3,1.3,5.3,6.6c0,14.6-12.3,27.1-33.5,27.1c-18.1,0-33.2-9.3-33.2-34.3V224
			c0-24.9,15.4-34.2,33.7-34.2c21,0,33,12.3,33,26.8c0,5.3-1.6,6.4-5.3,6.4c-3.7,0-5.1-1.8-5.3-4
			C910.2,212.1,907.2,199.6,888.1,199.6z"/>
		<path d="M948.3,243.7h25.2c2.6,0,4,2.2,4,4.8c0,2.1-1.1,4.3-4,4.3h-25.2v44.4h51.3c2.6,0,4,2.4,4,5c0,2.2-1.1,4.8-4,4.8h-57.1
			c-2.4,0-4.8-1.4-4.8-4.2v-109c0-2.7,2.4-4,4.8-4h57.1c2.9,0,4,2.4,4,4.6c0,2.7-1.4,5.1-4,5.1h-51.3V243.7z"/>
		<path d="M1070.5,276.1c0-35.6-53.2-18.3-53.2-57.4c0-23.4,19.1-29.2,34-29.2c12,0,26.9,4,26.9,9.8c0,2.1-1.8,5.9-4.6,5.9
			c-3,0-8.3-6.1-22.4-6.1c-11.9,0-23.2,4.3-23.2,18.6c0,29.8,53.2,13,53.2,57.4c0,22.8-14.1,33-33.8,33c-20.5,0-32.9-11.5-32.9-17.3
			c0-2.6,2.4-5.9,4.8-5.9c4.2,0,7.4,13.3,27.4,13.3C1061.5,298.2,1070.5,290.7,1070.5,276.1z"/>
		<path d="M1150.2,276.1c0-35.6-53.2-18.3-53.2-57.4c0-23.4,19.1-29.2,34-29.2c12,0,26.9,4,26.9,9.8c0,2.1-1.8,5.9-4.6,5.9
			c-3,0-8.3-6.1-22.4-6.1c-11.9,0-23.2,4.3-23.2,18.6c0,29.8,53.2,13,53.2,57.4c0,22.8-14.1,33-33.8,33c-20.5,0-32.9-11.5-32.9-17.3
			c0-2.6,2.4-5.9,4.8-5.9c4.2,0,7.4,13.3,27.4,13.3C1141.2,298.2,1150.2,290.7,1150.2,276.1z"/>
		<path d="M1189.1,300.6c0,3.8-3.2,7.4-7.2,7.4c-4.3,0-7.4-3.5-7.4-7.4c0-4.2,3-7.5,7.4-7.5C1185.8,293.1,1189.1,296.5,1189.1,300.6
			z M1186,276.9c0,2.6-2.6,3.7-4.3,3.7c-2.1,0-4.2-1.1-4.2-3.7c0-26.3-1.9-56.6-1.9-82.9c0-4,2.7-6.3,6.1-6.3s6.1,2.2,6.1,6.3
			C1187.8,220.3,1186,250.6,1186,276.9z"/>
	</g>
</g>
<g id="Back">
</g>
<g id="Extras" class="st8">
	<path class="st9" d="M1487.7,2173.6h-295.3c-19.2,0-34.7,14.8-34.7,33v280.2c0,18.2,15.5,33,34.7,33h295.3
		c19.2,0,34.7-14.8,34.7-33v-280.2C1522.5,2188.3,1506.9,2173.6,1487.7,2173.6z"/>
	<path class="st10" d="M1397.5,2198.8v-64.6h-114.9v64.6c0,0,0,31.3,57.4,31.3S1397.5,2198.8,1397.5,2198.8z"/>
	<line class="st11" x1="1220.6" y1="2256.4" x2="1220.6" y2="2519.7"/>
	<line class="st11" x1="1454.6" y1="2253.7" x2="1454.6" y2="2517"/>
	<line class="st12" x1="1272.8" y1="2324.3" x2="1407.4" y2="2324.3"/>
	<line class="st13" x1="1159.4" y1="2354.8" x2="1221.9" y2="2354.8"/>
	<line class="st13" x1="1454.6" y1="2354.8" x2="1517.2" y2="2354.8"/>
	<g class="st14">
		<g>
			
				<ellipse transform="matrix(-0.9295 -0.3688 0.3688 -0.9295 2074.2334 4509.8223)" class="st15" cx="1468.2" cy="2056.7" rx="26.8" ry="45.2"/>
			
				<ellipse transform="matrix(0.9295 -0.3688 0.3688 0.9295 -673.1268 592.0627)" class="st15" cx="1212" cy="2056.7" rx="26.8" ry="45.2"/>
		</g>
		<path class="st16" d="M1462.9,2021c0,86.7-55,151.8-122.8,151.8s-122.8-65.1-122.8-151.8c0-86.7-12-113.4,122.8-113.4
			S1462.9,1934.3,1462.9,2021z"/>
		<path class="st17" d="M1318.7,1962.1v109c2.8,8.3,11.4,14.3,21.4,14.3s18.6-6,21.4-14.3"/>
		<g>
			<path class="st18" d="M1386.4,2113.9c0,13.8-20.7,25-46.3,25s-46.3-11.2-46.3-25H1386.4z"/>
		</g>
		<line class="st19" x1="1272.7" y1="2028.3" x2="1272.7" y2="2046.1"/>
		<line class="st19" x1="1411.7" y1="2028.3" x2="1411.7" y2="2046.1"/>
		<path class="st19" d="M1242.8,2004.9c8.2-4.7,18.6-7.5,30-7.5c7.7,0,15.1,1.3,21.6,3.6"/>
		<path class="st19" d="M1437.4,2004.9c-8.2-4.7-18.6-7.5-30-7.5c-7.7,0-15.1,1.3-21.6,3.6"/>
		<path class="st20" d="M1485.1,2037l-5.2-29.8c0,0-6.7-28.5,2.4-57.6c-30.6-37.8-31.2-52-42.6-74.4c-97.3-97.6-203.3,0-203.3,0
			s-8.6,30.8-45.7,75.5c14.5,32,12.1,61.6,12.1,61.6l-10.9,29.6c0,0,18.2,25.3,29.6,30.6c-5.9-75.3,11.7-126.5,11.7-126.5
			s12.3,24.6,18.3,19.1c1.4-12.9,12.1-35.4,12.1-35.4s42.6,37,90.6,48.2c-6.6-20.7-6.9-40.1-6.8-46.8c10.8,9,32.3,26.1,54.4,38.3
			c0,0,2.6-14.2,11.3-24.8c10.9,4.8,22.5,11.1,34.1,19.4c0,0,8.9,41.7,8.6,98.5L1485.1,2037z"/>
		<path class="st2" d="M1319.1,2136c6.3,1.8,13.4,2.9,21,2.9c8.3,0,16-1.3,22.8-3.4c-2.2-7.2-11.1-12.6-21.9-12.6
			C1330,2122.9,1320.9,2128.5,1319.1,2136z"/>
	</g>
	<path class="st21" d="M1002.4,2250.4v-204.8c0-89-76.1-161.1-170-161.1s-170,72.1-170,161.1v204.8"/>
	<path class="st22" d="M1014.7,2553.5V2243c0-18.2-15.5-33-34.7-33H684.7c-19.2,0-34.7,14.8-34.7,33v310.5H1014.7z"/>
	<path class="st10" d="M889.9,2235.2v-64.6H775v64.6c0,0,0,31.3,57.4,31.3C889.9,2266.6,889.9,2235.2,889.9,2235.2z"/>
	
		<ellipse transform="matrix(-0.9295 -0.3688 0.3688 -0.9295 1068.7083 4376.3838)" class="st23" cx="952.7" cy="2086" rx="26.7" ry="45"/>
	<path class="st24" d="M954.8,2073.7c-0.1,7.7-0.2,15.7-0.2,23.8c0,86.3-54.7,110.1-122.2,110.1c-67.5,0-122.2-23.8-122.2-110.1
		c0-4.9,0-9.6-0.1-14.4c3.9-0.7,99.2-18.8,153.9-96.4C864,1986.7,952.7,1995.3,954.8,2073.7z"/>
	<path class="st25" d="M811,2106.3c2.8,8.2,11.3,22.8,21.3,22.8c10,0,18.5-14.5,21.3-22.8"/>
	<path class="st26" d="M921.2,2060.5c-5.5-2.4-12.4-3.9-19.8-3.9c-11.6,0-21.8,3.5-27.8,8.9"/>
	<path class="st26" d="M778.3,2058.7c5.2,1.6,9.7,3.9,12.9,6.8"/>
	<path class="st25" d="M898.2,2142.1c0,19.6-29.5,35.5-65.8,35.5c-36.4,0-65.8-15.9-65.8-35.5H898.2z"/>
	<path class="st27" d="M832.4,2156.2c-21.2,0-41.9-0.8-61.9-2.2c9.1,13.7,33.4,23.5,61.9,23.5s52.8-9.8,61.9-23.5
		C874.3,2155.5,853.6,2156.2,832.4,2156.2z"/>
	<g class="st14">
		<line class="st28" x1="769.6" y1="2083.1" x2="769.6" y2="2108.1"/>
		<g>
			<path class="st7" d="M756.6,2077.8c0,0,0.8,0.7,2.1,1.5c0.3,0.2,0.7,0.4,1.1,0.6c0.4,0.2,0.8,0.4,1.2,0.6
				c0.4,0.2,0.9,0.4,1.3,0.6c0.5,0.2,0.9,0.3,1.4,0.5c0.5,0.1,0.9,0.2,1.4,0.2c0.4,0,0.9,0.1,1.3,0.1c0.2,0,0.4,0.1,0.6,0.1
				c0.2,0,0.4,0.1,0.6,0.1c0.4,0.1,0.8,0.2,1.1,0.2c0.4,0.1,0.7,0.2,1,0.2c0.3,0,0.6,0.1,0.8,0.2c0.5,0.1,0.8,0.2,0.8,0.2l0.1,0.3
				c0,0-0.2,0.2-0.6,0.6c-0.2,0.2-0.5,0.4-0.8,0.6c-0.3,0.2-0.7,0.3-1.1,0.5c-0.4,0.2-0.9,0.3-1.4,0.3c-0.5,0.1-1.1,0.1-1.6,0
				c-0.6-0.1-1.1-0.3-1.6-0.5c-0.5-0.2-1-0.5-1.6-0.8c-1-0.5-2-1.2-2.7-1.8c-0.4-0.3-0.8-0.7-1.1-1c-0.3-0.3-0.6-0.7-0.9-1
				c-1.1-1.2-1.6-2.2-1.6-2.2L756.6,2077.8z"/>
		</g>
		<g>
			<line class="st28" x1="895.2" y1="2083.1" x2="895.2" y2="2108.1"/>
			<g>
				<path class="st7" d="M908.4,2078c0,0-0.5,0.9-1.6,2.2c-0.3,0.3-0.6,0.6-0.9,1c-0.3,0.3-0.7,0.7-1.1,1c-0.8,0.7-1.7,1.3-2.7,1.8
					c-0.5,0.2-1,0.6-1.6,0.8c-0.5,0.2-1.1,0.5-1.6,0.5c-0.6,0.1-1.1,0.1-1.6,0c-0.5-0.1-1-0.1-1.4-0.3c-0.4-0.2-0.8-0.3-1.1-0.5
					c-0.3-0.2-0.6-0.4-0.8-0.6c-0.4-0.3-0.6-0.6-0.6-0.6l0.1-0.3c0,0,0.3-0.1,0.8-0.2c0.2-0.1,0.5-0.1,0.8-0.2
					c0.3-0.1,0.7-0.2,1-0.2c0.4,0,0.7-0.2,1.1-0.2c0.2,0,0.4-0.1,0.6-0.1c0.2-0.1,0.4-0.1,0.6-0.1c0.4,0,0.9-0.1,1.3-0.1
					c0.5,0,0.9-0.1,1.4-0.2c0.5-0.1,0.9-0.3,1.4-0.5c0.4-0.2,0.9-0.4,1.3-0.6c0.4-0.2,0.8-0.4,1.2-0.6c0.4-0.2,0.7-0.4,1.1-0.6
					c1.3-0.8,2.1-1.5,2.1-1.5L908.4,2078z"/>
			</g>
		</g>
	</g>
	<path class="st23" d="M710.1,2083.1c0,4.7,0.1,9.5,0.1,14.4c0,10.6,0.8,20.2,2.4,29c-9.8-4.8-19.4-15.9-25.2-30.6
		c-1.1-2.8-2.1-5.7-2.8-8.5C684.5,2087.4,706.2,2083.9,710.1,2083.1z"/>
	<g class="st14">
		<line class="st29" x1="715.4" y1="2292.9" x2="715.4" y2="2556.2"/>
		<line class="st29" x1="949.4" y1="2290.2" x2="949.4" y2="2553.5"/>
	</g>
	<g class="st14">
		<path class="st29" d="M822.8,2348.8c-8.5,12.6-24.5,21.1-42.7,21.1c-27.2,0-49.3-18.9-49.3-42.2"/>
		<path class="st29" d="M842,2348.8c8.5,12.6,24.5,21.1,42.7,21.1c27.2,0,49.3-18.9,49.3-42.2"/>
	</g>
	<line class="st13" x1="650" y1="2301.9" x2="712.6" y2="2301.9"/>
	<line class="st13" x1="951.2" y1="2301.9" x2="1013.8" y2="2301.9"/>
	<path class="st30" d="M832.4,2177.6c7.4,0,14.4-0.7,21-1.9c-1.6-5.6-10.3-9.9-21-9.9c-10.7,0-19.4,4.3-21,9.9
		C818,2176.9,825,2177.6,832.4,2177.6z"/>
	<g class="st14">
		<path class="st20" d="M2080.5,2282.9v-204.8c0-89-76.1-161.1-170-161.1s-170,72.1-170,161.1v204.8"/>
		<path class="st31" d="M2092.9,2519v-243.5c0-18.2-15.5-33-34.7-33h-295.3c-19.2,0-34.7,14.8-34.7,33V2519H2092.9z"/>
		<path class="st15" d="M1968,2267.8v-64.6h-114.9v64.6c0,0,0,31.3,57.4,31.3S1968,2267.8,1968,2267.8z"/>
		
			<ellipse transform="matrix(-0.9295 -0.3688 0.3688 -0.9295 3136.9707 4836.79)" class="st32" cx="2030.8" cy="2118.6" rx="26.7" ry="45"/>
		<path class="st33" d="M2032.9,2106.2c-0.1,7.7-0.2,15.7-0.2,23.8c0,86.3-54.7,110.1-122.2,110.1c-67.5,0-122.2-23.8-122.2-110.1
			c0-4.9,0-9.6-0.1-14.4c3.9-0.7,99.2-18.8,153.9-96.4C1942.1,2019.2,2030.8,2027.9,2032.9,2106.2z"/>
		<path class="st34" d="M1889.2,2138.9c2.8,8.2,11.3,22.8,21.3,22.8s18.5-14.5,21.3-22.8"/>
		<path class="st35" d="M1999.3,2093.1c-5.5-2.4-12.4-3.9-19.8-3.9c-11.6,0-21.8,3.5-27.8,8.9"/>
		<path class="st35" d="M1856.4,2091.3c5.2,1.6,9.7,3.9,12.9,6.8"/>
		<path class="st34" d="M1976.3,2174.6c0,19.6-29.5,35.5-65.8,35.5c-36.4,0-65.8-15.9-65.8-35.5H1976.3z"/>
		<path class="st7" d="M1910.5,2188.8c-21.2,0-41.9-0.8-61.9-2.2c9.1,13.7,33.4,23.5,61.9,23.5s52.8-9.8,61.9-23.5
			C1952.5,2188,1931.8,2188.8,1910.5,2188.8z"/>
		<g>
			<line class="st28" x1="1847.7" y1="2115.6" x2="1847.7" y2="2140.6"/>
			<g>
				<path class="st7" d="M1834.8,2110.3c0,0,0.8,0.7,2.1,1.5c0.3,0.2,0.7,0.4,1.1,0.6c0.4,0.2,0.8,0.4,1.2,0.6
					c0.4,0.2,0.9,0.4,1.3,0.6c0.5,0.2,0.9,0.3,1.4,0.5c0.5,0.1,0.9,0.2,1.4,0.2c0.4,0,0.9,0.1,1.3,0.1c0.2,0,0.4,0.1,0.6,0.1
					c0.2,0,0.4,0.1,0.6,0.1c0.4,0.1,0.8,0.2,1.1,0.2c0.4,0.1,0.7,0.2,1,0.2c0.3,0,0.6,0.1,0.8,0.2c0.5,0.1,0.8,0.2,0.8,0.2l0.1,0.3
					c0,0-0.2,0.2-0.6,0.6c-0.2,0.2-0.5,0.4-0.8,0.6c-0.3,0.2-0.7,0.3-1.1,0.5c-0.4,0.2-0.9,0.3-1.4,0.3c-0.5,0.1-1.1,0.1-1.6,0
					c-0.6-0.1-1.1-0.3-1.6-0.5c-0.5-0.2-1-0.5-1.6-0.8c-1-0.5-2-1.2-2.7-1.8c-0.4-0.3-0.8-0.7-1.1-1c-0.3-0.3-0.6-0.7-0.9-1
					c-1.1-1.2-1.6-2.2-1.6-2.2L1834.8,2110.3z"/>
			</g>
			<g>
				<line class="st28" x1="1973.3" y1="2115.6" x2="1973.3" y2="2140.6"/>
				<g>
					<path class="st7" d="M1986.5,2110.6c0,0-0.5,0.9-1.6,2.2c-0.3,0.3-0.6,0.6-0.9,1c-0.3,0.3-0.7,0.7-1.1,1
						c-0.8,0.7-1.7,1.3-2.7,1.8c-0.5,0.2-1,0.6-1.6,0.8c-0.5,0.2-1.1,0.5-1.6,0.5c-0.6,0.1-1.1,0.1-1.6,0c-0.5-0.1-1-0.1-1.4-0.3
						c-0.4-0.2-0.8-0.3-1.1-0.5c-0.3-0.2-0.6-0.4-0.8-0.6c-0.4-0.3-0.6-0.6-0.6-0.6l0.1-0.3c0,0,0.3-0.1,0.8-0.2
						c0.2-0.1,0.5-0.1,0.8-0.2c0.3-0.1,0.7-0.2,1-0.2c0.4,0,0.7-0.2,1.1-0.2c0.2,0,0.4-0.1,0.6-0.1c0.2-0.1,0.4-0.1,0.6-0.1
						c0.4,0,0.9-0.1,1.3-0.1c0.5,0,0.9-0.1,1.4-0.2c0.5-0.1,0.9-0.3,1.4-0.5c0.4-0.2,0.9-0.4,1.3-0.6c0.4-0.2,0.8-0.4,1.2-0.6
						c0.4-0.2,0.7-0.4,1.1-0.6c1.3-0.8,2.1-1.5,2.1-1.5L1986.5,2110.6z"/>
				</g>
			</g>
		</g>
		<path class="st32" d="M1788.2,2115.6c0,4.7,0.1,9.5,0.1,14.4c0,10.6,0.8,20.2,2.4,29c-9.8-4.8-19.4-15.9-25.2-30.6
			c-1.1-2.8-2.1-5.7-2.8-8.5C1762.7,2119.9,1784.3,2116.4,1788.2,2115.6z"/>
		<g>
			<line class="st29" x1="1793.5" y1="2325.4" x2="1793.5" y2="2521.7"/>
			<line class="st29" x1="2027.5" y1="2322.7" x2="2027.5" y2="2519"/>
		</g>
		<g>
			<path class="st29" d="M1900.9,2381.3c-8.5,12.6-24.5,21.1-42.7,21.1c-27.2,0-49.3-18.9-49.3-42.2"/>
			<path class="st29" d="M1920.1,2381.3c8.5,12.6,24.5,21.1,42.7,21.1c27.2,0,49.3-18.9,49.3-42.2"/>
		</g>
		<line class="st36" x1="1728.2" y1="2334.4" x2="1790.7" y2="2334.4"/>
		<line class="st36" x1="2029.4" y1="2334.4" x2="2091.9" y2="2334.4"/>
		<path class="st2" d="M1910.5,2210.1c7.4,0,14.4-0.7,21-1.9c-1.6-5.6-10.3-9.9-21-9.9c-10.7,0-19.4,4.3-21,9.9
			C1896.1,2209.5,1903.2,2210.1,1910.5,2210.1z"/>
	</g>
	<rect x="2532.8" y="2376.2" class="st30" width="67.2" height="60.4"/>
	<path class="st37" d="M2298.7,2519.1h234v-140.2l68,0l-0.2-122.6c0-18.2-15.5-33-34.7-33h-295.3c-19.2,0-34.7,14.8-34.7,33v122.6
		h1.6h61.2V2519.1"/>
	<path class="st37" d="M2298.7,2519.1"/>
	<path class="st10" d="M2475.7,2248.5v-64.6h-114.9v64.6c0,0,0,31.3,57.4,31.3S2475.7,2248.5,2475.7,2248.5z"/>
	<line class="st12" x1="2351" y1="2374" x2="2485.5" y2="2374"/>
	<rect x="2235.9" y="2378.9" class="st37" width="61.2" height="56.2"/>
	<path class="st37" d="M2324,2442.2h-10.5c-6.6,0-12-5.4-12-12v-7.8c0-6.6,5.4-12,12-12h10.5c6.6,0,12,5.4,12,12v7.8
		C2336,2436.8,2330.6,2442.2,2324,2442.2z"/>
	<path class="st37" d="M2543.8,2429.1l-48.6,0.2l-140.1,0.9c-17,0.1-30.8,14-30.7,31.1l0,2.4c0.1,17,14,30.8,31.1,30.7l213.7-1.2
		c17-0.1,30.8-14,30.7-31.1l0-2.4v-80.8"/>
	<path class="st37" d="M2355.6,2489.4c0,4.9-4,8.9-8.9,8.9H2287c-4.9,0-8.9-4-8.9-8.9v-58c0-4.9,4-8.9,8.9-8.9h59.7
		c4.9,0,8.9,4,8.9,8.9"/>
	<path class="st37" d="M2243.4,2415l-5.6,14.9c-6,16,2.1,33.8,18.1,39.7l2.3,0.9c16,6,33.8-2.1,39.7-18.1l63.4-169.3
		c6-16-2.1-33.8-18.1-39.7l-2.3-0.9c-16-6-33.8,2.1-39.7,18.1l-49.1,131.2"/>
	<path class="st37" d="M2321.4,2211.3l-8.2-3c-6.2-2.2-9.4-9.2-7.2-15.4l3-8.2c2.2-6.2,9.2-9.4,15.4-7.2l8.2,3
		c6.2,2.2,9.4,9.2,7.2,15.4l-3,8.2C2334.6,2210.3,2327.6,2213.6,2321.4,2211.3z"/>
	<line class="st11" x1="2532.8" y1="2378.9" x2="2532.8" y2="2303.4"/>
	<g class="st14">
		
			<ellipse transform="matrix(-0.7706 -0.6373 0.6373 -0.7706 3108.6699 5422.9116)" class="st15" cx="2530.3" cy="2152" rx="26.8" ry="45.2"/>
		
			<ellipse transform="matrix(0.9979 -6.446241e-02 6.446241e-02 0.9979 -128.8772 151.7147)" class="st15" cx="2286.7" cy="2073" rx="26.8" ry="45.2"/>
	</g>
	<path class="st38" d="M2534.6,2115.8c-26.7,82.4-99.1,127.5-163.6,106.6c-64.5-20.9-96.8-99.8-70-182.3
		c26.7-82.4,23.5-111.6,151.8-70S2561.3,2033.4,2534.6,2115.8z"/>
	<path class="st11" d="M2417.2,2016l-33.6,103.7c0.1,8.7,6.4,17.1,16,20.2c9.6,3.1,19.6,0,24.8-7"/>
	<line class="st39" x1="2351.8" y1="2055" x2="2346.3" y2="2071.9"/>
	<line class="st39" x1="2483.9" y1="2097.8" x2="2478.4" y2="2114.7"/>
	<path class="st39" d="M2515.4,2098.2c-4.8-11.8-13-20.5-23.7-24c-7.4-2.4-15.2-2.1-22.8,0.6"/>
	<path class="st21" d="M2552.5,2138.5l4.2-29.9c0,0,2.4-29.2,20.1-54.1c-17.5-45.4-13.6-59.1-17.6-83.9
		c-62.5-122.9-193.4-62.7-193.4-62.7s-17.7,26.7-66.7,57.7c3.9,34.9-7.4,62.3-7.4,62.3l-19.4,24.8c0,0,9.5,29.7,18.8,38.3
		c17.6-73.4,50.1-116.7,50.1-116.7s4.2,27.2,11.5,23.8c5.4-11.9,22.4-30,22.4-30s29.1,48.3,71.4,73.8c0.1-21.8,5.8-40.2,8-46.6
		c7.5,11.9,22.6,34.8,40,53.2c0,0,6.9-12.7,18.4-20.1c8.9,8,18,17.5,26.4,29c0,0-4.4,42.4-22.2,96.4L2552.5,2138.5z"/>
	<path class="st11" d="M2375.3,2155.8c5.5-0.5,17.4,1.7,30.6,6c11.8,3.8,21.8,8.4,26.8,11.9"/>
	<path class="st39" d="M2334.2,2039.5c10.8-6.7,22.5-9,33.3-5.6c7.4,2.4,13.5,7.2,18.2,13.8"/>
	<path class="st37" d="M2306.1,2256.2c-4.8-1.8-7.3-7.3-5.5-12.1l22.2-58.8c1.8-4.8,7.3-7.3,12.1-5.5l57.1,21.5
		c4.8,1.8,7.3,7.3,5.5,12.1l-22.2,58.8c-1.8,4.8-7.3,7.3-12.1,5.5l-4.9-1.9"/>
	<g class="st14">
		<text transform="matrix(1 0 0 1 2856.2397 2448.9883)" class="st2" style="font-family:'Dosis-Medium'; font-size:95.9166px;">Working on your brand was a </text>
		<g>
			<path class="st2" d="M3919.6,2488.4c0,0,88.6-37.4,116,21.1c0,0,52.9-84.7,132.2-14.3c0,0,11.2-80.4,72.5-71.9
				c0,0-44.2-79.6,23.9-114c0,0-115.9-10.8-97.3-95.4c0,0-93.6,95-127.7-9.7c0,0-44.5,113.5-129.5,45.9c0,0,61.7,67-55.8,128.9
				C3853.9,2379,3949.5,2388,3919.6,2488.4z"/>
			<g>
				
					<text transform="matrix(0.9943 -0.1063 0.1063 0.9943 3917.2068 2418.5039)" class="st1" style="font-family:'Dosis-ExtraBold'; font-size:99.7871px;">BLAST!</text>
			</g>
		</g>
	</g>
</g>
</svg>
