<?xml version="1.0" encoding="utf-8"?>
<!-- Generator: Adobe Illustrator 19.1.0, SVG Export Plug-In . SVG Version: 6.00 Build 0)  -->
<svg version="1.1" id="Layer_1" xmlns="http://www.w3.org/2000/svg" xmlns:xlink="http://www.w3.org/1999/xlink" x="0px" y="0px"
	 viewBox="0 0 144 144" style="enable-background:new 0 0 144 144;" xml:space="preserve">
<style type="text/css">
	.st0{fill:#F2F2F2;}
	.st1{fill:#FFFFFF;}
	.st2{fill:#363437;}
	.st3{fill:#353336;}
	.st4{fill:none;}
	.st5{fill:#303333;}
	.st6{fill:#2CBDC2;}
	.st7{fill:#373538;}
</style>
<rect class="st0" width="144" height="144"/>
<g>
	<g>
		<path class="st1" d="M103.8,87.6H40.2c-4.1,0-7.5,3.2-7.5,7.1v60.4c0,3.9,3.3,7.1,7.5,7.1h63.6c4.1,0,7.5-3.2,7.5-7.1V94.7
			C111.3,90.8,107.9,87.6,103.8,87.6z"/>
		<path class="st2" d="M103.8,162.6H40.2c-4.4,0-7.9-3.4-7.9-7.6V94.7c0-4.2,3.6-7.6,7.9-7.6h63.6c4.4,0,7.9,3.4,7.9,7.6v60.3
			C111.7,159.3,108.2,162.6,103.8,162.6z M40.2,88.1c-3.9,0-7,3-7,6.6v60.3c0,3.7,3.1,6.6,7,6.6h63.6c3.9,0,7-3,7-6.6V94.7
			c0-3.7-3.1-6.6-7-6.6H40.2L40.2,88.1z"/>
	</g>
	<g>
		<path class="st1" d="M84.4,93.1V79.1H59.6v13.9c0,0,0,6.7,12.4,6.7C84.4,99.8,84.4,93.1,84.4,93.1z"/>
		<path class="st2" d="M72,100.3c-12.7,0-12.8-6.9-12.8-7.2V79.1c0-0.3,0.2-0.5,0.5-0.5h24.7c0.3,0,0.5,0.2,0.5,0.5v13.9
			C84.8,93.4,84.7,100.3,72,100.3z M60.1,79.6v13.5c0,0.3,0.2,6.3,11.9,6.3c11.7,0,11.9-6,11.9-6.3V79.6L60.1,79.6L60.1,79.6z"/>
	</g>
	<g>
		<g>
			
				<ellipse transform="matrix(0.9295 0.3688 -0.3688 0.9295 30.0616 -32.3173)" class="st1" cx="99.6" cy="62.5" rx="5.8" ry="9.7"/>
			<path class="st2" d="M97.3,72.2c-0.5,0-1-0.1-1.5-0.3c-3.2-1.3-4.1-6.5-2-11.8l0,0c2.1-5.2,6.4-8.4,9.5-7.2
				c1.6,0.6,2.7,2.2,3,4.5c0.3,2.2,0,4.8-1,7.3c-1,2.5-2.5,4.6-4.3,6C99.8,71.7,98.5,72.2,97.3,72.2z M94.6,60.5
				c-1.9,4.8-1.2,9.5,1.5,10.6c1.3,0.5,2.8,0.1,4.4-1.1c1.6-1.3,3-3.2,4-5.6c0.9-2.3,1.3-4.8,0.9-6.8c-0.3-1.9-1.2-3.3-2.5-3.8
				C100.3,52.7,96.5,55.7,94.6,60.5L94.6,60.5z"/>
		</g>
		<g>
			
				<ellipse transform="matrix(-0.9295 0.3688 -0.3688 -0.9295 108.7507 104.1779)" class="st1" cx="44.4" cy="62.5" rx="5.8" ry="9.7"/>
			<path class="st2" d="M46.7,72.2c-1.2,0-2.5-0.5-3.8-1.5c-1.8-1.4-3.3-3.5-4.3-6c-1-2.5-1.3-5.1-1-7.3c0.4-2.3,1.4-3.9,3-4.5
				c3.2-1.3,7.5,2,9.5,7.2l0,0c1,2.5,1.3,5.1,1,7.3c-0.4,2.3-1.4,3.9-3,4.5C47.7,72.1,47.2,72.2,46.7,72.2z M42.2,53.6
				c-0.4,0-0.8,0.1-1.2,0.2c-1.3,0.5-2.2,1.9-2.5,3.8c-0.3,2,0,4.4,0.9,6.8c0.9,2.3,2.3,4.3,4,5.6c1.6,1.2,3.1,1.6,4.4,1.1
				c1.3-0.5,2.2-1.9,2.5-3.8c0.3-2,0-4.4-0.9-6.8C47.7,56.4,44.7,53.6,42.2,53.6z"/>
		</g>
	</g>
	<g>
		<path class="st1" d="M98.4,54.8c0,18.7-11.8,32.7-26.4,32.7s-26.4-14-26.4-32.7S43,30.4,72,30.4C101,30.4,98.4,36.1,98.4,54.8z"/>
		<path class="st2" d="M72,87.9c-15.1,0-26.9-14.6-26.9-33.1c0-1.5,0-2.9,0-4.2c-0.1-7.6-0.1-12.7,3.1-16c3.3-3.4,10-4.7,23.8-4.7
			s20.5,1.3,23.8,4.7c3.2,3.3,3.2,8.3,3.1,16c0,1.3,0,2.7,0,4.2C98.9,73.4,87.1,87.9,72,87.9z M72,30.8c-13.6,0-20.1,1.2-23.2,4.4
			c-3,3-2.9,7.9-2.8,15.3c0,1.3,0,2.7,0,4.2C46,72.8,57.4,87,72,87s26-14.2,26-32.2c0-1.5,0-2.9,0-4.2c0.1-7.4,0.1-12.3-2.8-15.3
			C92.1,32,85.6,30.8,72,30.8z"/>
	</g>
	<g>
		<path class="st1" d="M67.4,42.1v23.5c0.6,1.8,2.4,3.1,4.6,3.1c2.2,0,4-1.3,4.6-3.1"/>
		<path class="st2" d="M72,69c-2.3,0-4.3-1.3-4.9-3.3c0,0,0-0.1,0-0.1V42.1c0-0.2,0.2-0.3,0.3-0.3s0.3,0.2,0.3,0.3v23.4
			c0.6,1.7,2.3,2.8,4.3,2.8c2,0,3.7-1.1,4.3-2.8c0.1-0.2,0.3-0.3,0.4-0.2c0.2,0.1,0.3,0.3,0.2,0.4C76.3,67.7,74.3,69,72,69z"/>
	</g>
	<g>
		<g>
			<path class="st3" d="M82,74.8c0,3-4.5,5.4-10,5.4c-5.5,0-10-2.4-10-5.4H82z"/>
			<path class="st2" d="M72,80.5c-5.7,0-10.3-2.6-10.3-5.7c0-0.2,0.2-0.3,0.3-0.3H82c0.2,0,0.3,0.2,0.3,0.3
				C82.3,77.9,77.7,80.5,72,80.5z M62.4,75.1c0.3,2.6,4.5,4.7,9.6,4.7c5.1,0,9.3-2.1,9.6-4.7H62.4z"/>
		</g>
	</g>
	<g>
		<path class="st2" d="M57.5,60.6c-0.3,0-0.5-0.2-0.5-0.5v-3.8c0-0.3,0.2-0.5,0.5-0.5s0.5,0.2,0.5,0.5v3.8
			C57.9,60.4,57.7,60.6,57.5,60.6z"/>
	</g>
	<g>
		<path class="st2" d="M87.4,60.6c-0.3,0-0.5-0.2-0.5-0.5v-3.8c0-0.3,0.2-0.5,0.5-0.5s0.5,0.2,0.5,0.5v3.8
			C87.9,60.4,87.7,60.6,87.4,60.6z"/>
	</g>
	<g>
		<line class="st4" x1="46.3" y1="105.5" x2="46.3" y2="162.2"/>
		<path class="st2" d="M46.3,162.5c-0.2,0-0.3-0.2-0.3-0.3v-56.7c0-0.2,0.2-0.3,0.3-0.3c0.2,0,0.3,0.2,0.3,0.3v56.7
			C46.6,162.4,46.5,162.5,46.3,162.5z"/>
	</g>
	<g>
		<line class="st4" x1="96.7" y1="104.9" x2="96.7" y2="161.6"/>
		<path class="st2" d="M96.7,161.9c-0.2,0-0.3-0.2-0.3-0.3v-56.7c0-0.2,0.2-0.3,0.3-0.3c0.2,0,0.3,0.2,0.3,0.3v56.7
			C97,161.8,96.8,161.9,96.7,161.9z"/>
	</g>
	<g>
		<path class="st5" d="M86.5,120.4h-29c-0.2,0-0.3-0.2-0.3-0.3s0.2-0.3,0.3-0.3h29c0.2,0,0.3,0.2,0.3,0.3S86.7,120.4,86.5,120.4z"/>
	</g>
	<g>
		<rect x="33.1" y="126.3" class="st5" width="13.5" height="0.7"/>
	</g>
	<g>
		<rect x="96.7" y="126.3" class="st5" width="13.5" height="0.7"/>
	</g>
	<g>
		<path class="st1" d="M67.5,79.5c1.4,0.4,2.9,0.6,4.5,0.6c1.8,0,3.5-0.3,4.9-0.7c-0.5-1.6-2.4-2.7-4.7-2.7
			C69.8,76.7,67.9,77.9,67.5,79.5z"/>
	</g>
	<g>
		<path class="st6" d="M103.2,58.2l-1.1-6.4c0,0-1.4-6.1,0.5-12.4c-6.6-8.1-6.7-11.2-9.2-16c-21-21-43.8,0-43.8,0s-1.8,6.6-9.8,16.3
			c3.1,6.9,2.6,13.3,2.6,13.3l-2.3,6.4c0,0,3.9,5.5,6.4,6.6C45.2,49.7,49,38.6,49,38.6s2.7,5.3,3.9,4.1c0.3-2.8,2.6-7.6,2.6-7.6
			s9.2,8,19.5,10.4c-1.4-4.5-1.5-8.6-1.5-10.1c2.3,1.9,6.9,5.6,11.7,8.2c0,0,0.6-3.1,2.4-5.3c2.4,1,4.8,2.4,7.3,4.2
			c0,0,1.9,9,1.9,21.2L103.2,58.2z"/>
		<path class="st7" d="M46.5,66.3c-0.1,0-0.1,0-0.2,0c-2.5-1.2-6.4-6.5-6.6-6.7c-0.1-0.1-0.1-0.3-0.1-0.4l2.3-6.3
			c0-0.7,0.3-6.6-2.6-13c-0.1-0.2,0-0.3,0.1-0.5c7.8-9.4,9.7-16,9.8-16.1c0-0.1,0.1-0.2,0.1-0.2c0.2-0.2,23.4-21.1,44.4,0
			c0,0,0.1,0.1,0.1,0.1c0.7,1.3,1.2,2.5,1.7,3.7c1.3,3.1,2.7,6.4,7.5,12.3c0.1,0.1,0.1,0.3,0.1,0.4c-1.9,6.1-0.5,12.1-0.5,12.2
			l1.1,6.4c0,0.2,0,0.3-0.1,0.4l-6.3,5.5c-0.1,0.1-0.3,0.1-0.5,0.1c-0.2-0.1-0.3-0.2-0.3-0.4c0.1-11.1-1.6-19.7-1.8-21
			c-2.1-1.5-4.4-2.8-6.8-3.9c-1.6,2.1-2.1,4.8-2.1,4.9c0,0.1-0.1,0.3-0.3,0.3c-0.1,0.1-0.3,0.1-0.4,0c-4.3-2.4-8.5-5.6-11-7.7
			c0,1.9,0.3,5.3,1.4,9c0,0.2,0,0.3-0.1,0.4C75.3,45.9,75.1,46,75,46c-9-2.1-17.3-8.5-19.3-10.1c-0.6,1.3-2.1,4.8-2.3,6.9
			c0,0.1-0.1,0.2-0.1,0.3c-0.3,0.2-0.6,0.3-0.9,0.3c-1.1-0.2-2.4-2.2-3.2-3.5c-0.9,3.1-3.2,12.9-2.2,26c0,0.2-0.1,0.3-0.2,0.4
			C46.7,66.3,46.6,66.3,46.5,66.3z M40.6,59.2c0.6,0.9,3.3,4.4,5.4,5.8c-1.1-15.6,2.6-26.4,2.6-26.6c0.1-0.2,0.2-0.3,0.4-0.3
			c0.2,0,0.4,0.1,0.4,0.2c0.8,1.6,2.3,3.9,3.1,4c0,0,0,0,0,0c0.4-2.9,2.5-7.3,2.6-7.5c0.1-0.1,0.2-0.2,0.3-0.2c0.1,0,0.3,0,0.4,0.1
			c0.1,0.1,8.7,7.5,18.6,10.1c-1.2-4.2-1.3-8-1.2-9.5c0-0.2,0.1-0.3,0.3-0.4c0.2-0.1,0.3,0,0.5,0.1C76.1,37,80.5,40.4,85,43
			c0.3-1,1-3.2,2.4-4.9c0.1-0.2,0.3-0.2,0.5-0.1c2.6,1.2,5.1,2.6,7.4,4.2c0.1,0.1,0.2,0.2,0.2,0.3c0,0.1,1.8,8.7,1.9,20.3l5.3-4.7
			l-1.1-6.2c-0.1-0.2-1.4-6.2,0.5-12.4c-4.7-5.9-6.1-9.1-7.4-12.3c-0.5-1.1-1-2.3-1.6-3.6c-19.7-19.7-41.4-1.4-43,0
			c-0.3,1-2.4,7.2-9.7,16.1c3,6.8,2.6,13,2.5,13.2c0,0,0,0.1,0,0.1L40.6,59.2z"/>
	</g>
	<g>
		<path class="st2" d="M51,51.8c-0.2,0-0.3-0.1-0.4-0.2c-0.1-0.2,0-0.5,0.2-0.6c1.9-1.1,4.2-1.7,6.7-1.7c1.7,0,3.3,0.3,4.8,0.8
			c0.2,0.1,0.4,0.3,0.3,0.6c-0.1,0.2-0.3,0.4-0.6,0.3c-1.4-0.5-2.9-0.8-4.5-0.8c-2.3,0-4.4,0.5-6.2,1.5C51.2,51.7,51.1,51.8,51,51.8
			z"/>
	</g>
	<g>
		<path class="st2" d="M93,51.8c-0.1,0-0.2,0-0.2-0.1c-1.8-1-3.9-1.5-6.2-1.5c-1.6,0-3.1,0.3-4.5,0.8c-0.2,0.1-0.5,0-0.6-0.3
			c-0.1-0.2,0-0.5,0.3-0.6c1.5-0.5,3.1-0.8,4.8-0.8c2.4,0,4.8,0.6,6.7,1.7c0.2,0.1,0.3,0.4,0.2,0.6C93.3,51.7,93.1,51.8,93,51.8z"/>
	</g>
</g>
<g>
	<g>
		<path class="st6" d="M254.8,75.7V33.4c0-18.4-15.7-33.3-35.1-33.3S184.5,15,184.5,33.4v42.3"/>
		<path class="st7" d="M254.8,76.2c-0.2,0-0.4-0.2-0.4-0.4V33.4c0-18.1-15.6-32.9-34.7-32.9S185,15.3,185,33.4v42.3
			c0,0.2-0.2,0.4-0.4,0.4c-0.2,0-0.4-0.2-0.4-0.4V33.4c0-18.6,15.9-33.7,35.6-33.7s35.6,15.1,35.6,33.7v42.3
			C255.2,76,255,76.2,254.8,76.2z"/>
	</g>
	<g>
		<path class="st1" d="M257.3,138.4V74.2c0-3.8-3.2-6.8-7.2-6.8h-61c-4,0-7.2,3-7.2,6.8v64.1H257.3z"/>
		<path class="st3" d="M257.8,138.8h-76.2V74.2c0-4,3.4-7.2,7.6-7.2h61c4.2,0,7.6,3.3,7.6,7.2L257.8,138.8L257.8,138.8L257.8,138.8z
			 M182.4,137.9h74.5V74.2c0-3.5-3-6.4-6.7-6.4h-61c-3.7,0-6.7,2.9-6.7,6.4L182.4,137.9L182.4,137.9L182.4,137.9z"/>
	</g>
	<g>
		<path class="st1" d="M231.5,72.6V59.3h-23.7v13.4c0,0,0,6.5,11.9,6.5C231.5,79.1,231.5,72.6,231.5,72.6z"/>
		<path class="st2" d="M219.7,79.5c-12.2,0-12.3-6.6-12.3-6.9V59.3c0-0.2,0.2-0.4,0.4-0.4h23.7c0.2,0,0.4,0.2,0.4,0.4v13.3
			C232,72.9,231.8,79.5,219.7,79.5z M208.2,59.7v12.9c0,0.2,0.2,6,11.4,6c11.2,0,11.4-5.8,11.4-6V59.7H208.2L208.2,59.7z"/>
	</g>
	<g>
		
			<ellipse transform="matrix(0.9295 0.3688 -0.3688 0.9295 32.6473 -87.2238)" class="st1" cx="244.5" cy="41.8" rx="5.5" ry="9.3"/>
		<path class="st7" d="M242.3,51.1c-0.5,0-1-0.1-1.4-0.3c-3-1.2-3.9-6.3-1.9-11.2l0,0c2-5,6.1-8.1,9.1-6.9c1.5,0.6,2.5,2.1,2.9,4.3
			c0.3,2.1,0,4.6-1,6.9s-2.4,4.4-4.1,5.7C244.7,50.6,243.5,51.1,242.3,51.1z M239.8,39.9c-1.8,4.5-1.2,9.1,1.4,10.1
			c1.2,0.5,2.7,0.1,4.2-1c1.6-1.2,2.9-3.1,3.8-5.3c0.9-2.2,1.2-4.5,0.9-6.5c-0.3-1.9-1.1-3.2-2.3-3.6
			C245.2,32.5,241.6,35.4,239.8,39.9L239.8,39.9z"/>
	</g>
	<g>
		<path class="st1" d="M244.9,39.2c0,1.6,0,3.2,0,4.9c0,17.8-11.3,22.7-25.3,22.7c-13.9,0-25.3-4.9-25.3-22.7c0-1,0-2,0-3
			c0.8-0.1,20.5-3.9,31.8-19.9C226.2,21.2,244.5,23,244.9,39.2z"/>
		<path class="st7" d="M219.7,67.3c-17.3,0-25.7-7.6-25.7-23.2c0-1,0-2,0-3l0-0.4l0.4-0.1c0.8-0.2,20.3-3.9,31.5-19.7l0.1-0.2l0.3,0
			c0.2,0,18.7,2,19.2,18.4l0,0.9c0,1.3,0,2.7,0,4.1C245.3,59.7,236.9,67.3,219.7,67.3z M194.8,41.5c0,0.9,0,1.7,0,2.6
			c0,15,8.1,22.3,24.8,22.3s24.8-7.3,24.8-22.3c0-1.4,0-2.7,0-4.1l0-0.8c-0.4-14.6-16-17.2-18.1-17.5
			C215.7,36.7,197.7,40.9,194.8,41.5z"/>
	</g>
	<g>
		<path class="st1" d="M215.2,46c0.6,1.7,2.3,4.7,4.4,4.7c2.1,0,3.8-3,4.4-4.7"/>
		<path class="st7" d="M219.7,51c-2.2,0-4.1-3-4.7-4.9c-0.1-0.2,0-0.4,0.2-0.4c0.2-0.1,0.4,0,0.4,0.2c0.6,1.9,2.3,4.5,4.1,4.5
			s3.5-2.6,4.1-4.5c0.1-0.2,0.2-0.3,0.4-0.2c0.2,0.1,0.3,0.2,0.2,0.4C223.7,48,221.9,51,219.7,51z"/>
	</g>
	<g>
		<path class="st2" d="M228.2,37.9c-0.1,0-0.2,0-0.2-0.1c-0.1-0.1-0.1-0.3,0-0.5c1.3-1.2,3.6-1.9,6-1.9c1.5,0,3,0.3,4.2,0.8
			c0.2,0.1,0.2,0.3,0.2,0.4c-0.1,0.2-0.3,0.2-0.4,0.2c-1.1-0.5-2.5-0.8-4-0.8c-2.2,0-4.3,0.7-5.5,1.8
			C228.3,37.8,228.2,37.9,228.2,37.9z"/>
	</g>
	<g>
		<path class="st2" d="M211.1,37.9c-0.1,0-0.2,0-0.2-0.1c-0.6-0.6-1.5-1-2.5-1.3c-0.2-0.1-0.3-0.2-0.2-0.4c0.1-0.2,0.2-0.3,0.4-0.2
			c1.1,0.3,2.1,0.8,2.8,1.5c0.1,0.1,0.1,0.3,0,0.5C211.3,37.8,211.2,37.9,211.1,37.9z"/>
	</g>
	<g>
		<path class="st1" d="M233.3,53.4c0,4.1-6.1,7.3-13.6,7.3c-7.5,0-13.6-3.3-13.6-7.3H233.3z"/>
		<path class="st7" d="M219.7,61c-7.7,0-13.9-3.4-13.9-7.7c0-0.2,0.1-0.3,0.3-0.3h27.2c0.2,0,0.3,0.1,0.3,0.3
			C233.6,57.6,227.3,61,219.7,61z M206.4,53.7c0.3,3.7,6.1,6.7,13.3,6.7s12.9-3,13.3-6.7H206.4z"/>
	</g>
	<g>
		<path class="st7" d="M219.7,56.3c-4.4,0-8.7-0.2-12.8-0.4c1.9,2.8,6.9,4.9,12.8,4.9c5.9,0,10.9-2,12.8-4.9
			C228.3,56.1,224,56.3,219.7,56.3z"/>
	</g>
	<g>
		<g>
			<path class="st7" d="M206.7,46.8c-0.2,0-0.4-0.2-0.4-0.4v-5.2c0-0.2,0.2-0.4,0.4-0.4c0.2,0,0.4,0.2,0.4,0.4v5.2
				C207.1,46.6,206.9,46.8,206.7,46.8z"/>
		</g>
		<g>
			<path class="st7" d="M204,40.1c0,0,0.2,0.1,0.4,0.3c0.3,0.2,0.6,0.4,1,0.5c0.2,0.1,0.4,0.1,0.6,0.1c0.2,0,0.3,0.1,0.5,0.1
				c0.1,0,0.1,0,0.2,0c0.1,0,0.1,0,0.2,0c0.1,0,0.2,0,0.2,0l0,0.1c0,0,0,0-0.1,0.1c-0.1,0.1-0.2,0.1-0.4,0.2c-0.2,0-0.4,0.1-0.6,0
				c-0.2,0-0.4-0.1-0.6-0.2C204.4,40.9,204,40.1,204,40.1L204,40.1z"/>
		</g>
		<g>
			<g>
				<path class="st7" d="M232.6,46.8c-0.2,0-0.4-0.2-0.4-0.4v-5.2c0-0.2,0.2-0.4,0.4-0.4c0.2,0,0.4,0.2,0.4,0.4v5.2
					C233.1,46.6,232.9,46.8,232.6,46.8z"/>
			</g>
			<g>
				<path class="st7" d="M235.4,40.1c0,0-0.5,0.8-1.3,1.2c-0.2,0.1-0.4,0.2-0.6,0.2c-0.2,0-0.4,0-0.6,0c-0.2-0.1-0.3-0.1-0.4-0.2
					c-0.1-0.1-0.1-0.1-0.1-0.1l0-0.1c0,0,0.1,0,0.2,0c0,0,0.1,0,0.2,0c0.1,0,0.1,0,0.2,0c0.1,0,0.3-0.1,0.5-0.1c0.2,0,0.4,0,0.6-0.1
					c0.4-0.1,0.8-0.3,1-0.5C235.2,40.2,235.3,40.1,235.4,40.1L235.4,40.1z"/>
			</g>
		</g>
	</g>
	<g>
		<path class="st1" d="M194.4,41.2c0,1,0,2,0,3c0,2.2,0.2,4.2,0.5,6c-2-1-4-3.3-5.2-6.3c-0.2-0.6-0.4-1.2-0.6-1.8
			C189.1,42.1,193.6,41.3,194.4,41.2z"/>
		<path class="st7" d="M194.9,50.6c-0.1,0-0.1,0-0.2,0c-2.2-1.1-4.2-3.5-5.4-6.5c-0.2-0.6-0.4-1.2-0.6-1.8c0-0.1,0-0.2,0.1-0.3
			c0.1-0.1,0.2-0.2,0.3-0.2c0,0,4.5-0.7,5.3-0.9c0.1,0,0.3,0,0.4,0.1c0.1,0.1,0.2,0.2,0.2,0.3c0,1,0,2,0,3c0,2.1,0.2,4.1,0.5,5.9
			c0,0.2,0,0.3-0.2,0.4C195.1,50.5,195,50.6,194.9,50.6z M189.7,42.4c0.1,0.4,0.3,0.8,0.4,1.2c1,2.5,2.5,4.5,4.2,5.6
			c-0.2-1.6-0.4-3.4-0.4-5.2c0-0.8,0-1.6,0-2.4C192.9,41.9,190.6,42.2,189.7,42.4z"/>
	</g>
	<g>
		<g>
			<path class="st3" d="M195.5,139.2c-0.2,0-0.3-0.1-0.3-0.3V84.5c0-0.2,0.1-0.3,0.3-0.3s0.3,0.1,0.3,0.3v54.4
				C195.8,139.1,195.7,139.2,195.5,139.2z"/>
		</g>
		<g>
			<path class="st3" d="M243.8,138.7c-0.2,0-0.3-0.1-0.3-0.3V84c0-0.2,0.1-0.3,0.3-0.3c0.2,0,0.3,0.1,0.3,0.3v54.4
				C244.2,138.5,244,138.7,243.8,138.7z"/>
		</g>
	</g>
	<g>
		<g>
			<path class="st3" d="M208.8,100.7c-5.8,0-10.5-4.1-10.5-9c0-0.2,0.1-0.3,0.3-0.3s0.3,0.1,0.3,0.3c0,4.6,4.4,8.4,9.9,8.4
				c3.5,0,6.8-1.6,8.6-4.2c0.1-0.1,0.3-0.2,0.5-0.1c0.1,0.1,0.2,0.3,0.1,0.5C216.1,99,212.6,100.7,208.8,100.7z"/>
		</g>
		<g>
			<path class="st3" d="M230.5,100.7c-3.7,0-7.2-1.7-9.1-4.5c-0.1-0.1-0.1-0.4,0.1-0.5c0.1-0.1,0.4-0.1,0.5,0.1
				c1.8,2.6,5,4.2,8.6,4.2c5.4,0,9.9-3.8,9.9-8.4c0-0.2,0.1-0.3,0.3-0.3s0.3,0.1,0.3,0.3C241,96.7,236.3,100.7,230.5,100.7z"/>
		</g>
	</g>
	<g>
		<rect x="182" y="86" class="st5" width="12.9" height="0.7"/>
	</g>
	<g>
		<rect x="244.2" y="86" class="st5" width="12.9" height="0.7"/>
	</g>
	<g>
		<path class="st1" d="M219.7,60.7c1.5,0,3-0.1,4.3-0.4c-0.3-1.2-2.1-2-4.3-2c-2.2,0-4,0.9-4.3,2C216.7,60.6,218.1,60.7,219.7,60.7z
			"/>
	</g>
</g>
</svg>
