<?xml version="1.0" encoding="utf-8"?>
<!-- Generator: Adobe Illustrator 19.1.0, SVG Export Plug-In . SVG Version: 6.00 Build 0)  -->
<svg version="1.1" id="Layer_1" xmlns="http://www.w3.org/2000/svg" xmlns:xlink="http://www.w3.org/1999/xlink" x="0px" y="0px"
	 viewBox="0 0 144 144" style="enable-background:new 0 0 144 144;" xml:space="preserve">
<style type="text/css">
	.st0{fill:#F2F2F2;}
	.st1{fill:#FFFFFF;}
	.st2{fill:#363437;}
	.st3{fill:#353336;}
	.st4{fill:none;}
	.st5{fill:#303333;}
	.st6{fill:#2CBDC2;}
	.st7{fill:#373538;}
</style>
<rect class="st0" width="144" height="144"/>
<g>
	<g>
		<path class="st1" d="M-54.7,133.8h-67.5c-4.4,0-7.9,3.4-7.9,7.5v64c0,4.2,3.6,7.5,7.9,7.5h67.5c4.4,0,7.9-3.4,7.9-7.5v-64
			C-46.8,137.2-50.3,133.8-54.7,133.8z"/>
		<path class="st2" d="M-54.7,213.4h-67.5c-4.6,0-8.4-3.6-8.4-8v-64c0-4.4,3.8-8,8.4-8h67.5c4.6,0,8.4,3.6,8.4,8v64
			C-46.3,209.8-50.1,213.4-54.7,213.4z M-122.2,134.3c-4.1,0-7.4,3.2-7.4,7v64c0,3.9,3.3,7,7.4,7h67.5c4.1,0,7.4-3.2,7.4-7v-64
			c0-3.9-3.3-7-7.4-7H-122.2L-122.2,134.3z"/>
	</g>
	<g>
		<path class="st1" d="M-75.3,139.6v-14.8h-26.2v14.8c0,0,0,7.2,13.1,7.2C-75.3,146.7-75.3,139.6-75.3,139.6z"/>
		<path class="st2" d="M-88.5,147.2c-13.4,0-13.6-7.3-13.6-7.6v-14.8c0-0.3,0.2-0.5,0.5-0.5h26.2c0.3,0,0.5,0.2,0.5,0.5v14.8
			C-74.9,139.9-75,147.2-88.5,147.2z M-101.1,125.3v14.3c0,0.3,0.2,6.7,12.6,6.7c12.4,0,12.6-6.4,12.6-6.7v-14.3L-101.1,125.3
			L-101.1,125.3z"/>
	</g>
	<g>
		<g>
			
				<ellipse transform="matrix(0.9295 0.3688 -0.3688 0.9295 35.33 29.3852)" class="st1" cx="-59.2" cy="107.1" rx="6.1" ry="10.3"/>
			<path class="st2" d="M-61.6,117.4c-0.6,0-1.1-0.1-1.6-0.3c-3.4-1.3-4.3-6.9-2.1-12.5l0,0c2.2-5.5,6.7-9,10.1-7.6
				c1.7,0.7,2.8,2.4,3.2,4.8c0.4,2.3,0,5.1-1.1,7.7c-1.1,2.6-2.7,4.9-4.5,6.3C-58.9,116.9-60.3,117.4-61.6,117.4z M-64.4,105
				c-2,5.1-1.3,10.1,1.6,11.2c1.4,0.5,3,0.1,4.7-1.2c1.7-1.3,3.2-3.4,4.2-5.9c1-2.5,1.3-5,1-7.2c-0.3-2.1-1.3-3.5-2.6-4
				C-58.4,96.8-62.4,100-64.4,105L-64.4,105z"/>
		</g>
		<g>
			
				<ellipse transform="matrix(-0.9295 0.3688 -0.3688 -0.9295 -187.6302 250.0933)" class="st1" cx="-117.7" cy="107.1" rx="6.1" ry="10.3"/>
			<path class="st2" d="M-115.3,117.4c-1.3,0-2.7-0.5-4-1.6c-1.9-1.4-3.5-3.7-4.5-6.3c-1.1-2.6-1.4-5.4-1.1-7.7
				c0.4-2.4,1.5-4.1,3.2-4.8c3.4-1.3,7.9,2.1,10.1,7.6l0,0c1.1,2.6,1.4,5.4,1.1,7.7c-0.4,2.4-1.5,4.1-3.2,4.8
				C-114.2,117.3-114.8,117.4-115.3,117.4z M-120.1,97.7c-0.4,0-0.9,0.1-1.3,0.2c-1.4,0.5-2.3,2-2.6,4c-0.3,2.2,0,4.7,1,7.2
				c1,2.5,2.5,4.6,4.2,5.9c1.7,1.3,3.3,1.7,4.7,1.2c1.4-0.5,2.3-2,2.6-4c0.3-2.2,0-4.7-1-7.2C-114.2,100.7-117.4,97.7-120.1,97.7z"
				/>
		</g>
	</g>
	<g>
		<path class="st1" d="M-60.4,98.9c0,19.8-12.6,34.7-28.1,34.7s-28.1-14.9-28.1-34.7S-119.3,73-88.5,73
			C-57.7,73-60.4,79.1-60.4,98.9z"/>
		<path class="st2" d="M-88.5,134.1c-16,0-28.5-15.4-28.5-35.2c0-1.6,0-3.1,0-4.5c-0.1-8.1-0.2-13.5,3.3-16.9c3.5-3.6,10.6-5,25.3-5
			s21.8,1.4,25.3,5c3.4,3.5,3.4,8.8,3.3,16.9c0,1.4,0,2.9,0,4.5C-59.9,118.7-72.5,134.1-88.5,134.1z M-88.5,73.5
			c-14.4,0-21.3,1.3-24.6,4.7c-3.2,3.2-3.1,8.4-3,16.3c0,1.4,0,2.9,0,4.5c0,19.2,12.1,34.2,27.6,34.2s27.6-15,27.6-34.2
			c0-1.6,0-3.1,0-4.5c0.1-7.9,0.2-13.1-3-16.3C-67.2,74.8-74.1,73.5-88.5,73.5z"/>
	</g>
	<g>
		<path class="st1" d="M-93.4,85.5v24.9c0.6,1.9,2.6,3.3,4.9,3.3s4.3-1.4,4.9-3.3"/>
		<path class="st2" d="M-88.5,114c-2.4,0-4.5-1.4-5.2-3.5c0,0,0-0.1,0-0.1V85.5c0-0.2,0.2-0.4,0.4-0.4c0.2,0,0.4,0.2,0.4,0.4v24.8
			c0.6,1.8,2.5,3,4.5,3c2.1,0,3.9-1.2,4.6-3c0.1-0.2,0.3-0.3,0.5-0.2c0.2,0.1,0.3,0.3,0.2,0.5C-83.9,112.6-86,114-88.5,114z"/>
	</g>
	<g>
		<g>
			<path class="st3" d="M-77.9,120.2c0,3.2-4.7,5.7-10.6,5.7s-10.6-2.6-10.6-5.7H-77.9z"/>
			<path class="st2" d="M-88.5,126.2c-6,0-10.9-2.7-10.9-6.1c0-0.2,0.2-0.4,0.4-0.4h21.1c0.2,0,0.4,0.2,0.4,0.4
				C-77.5,123.5-82.4,126.2-88.5,126.2z M-98.6,120.5c0.4,2.8,4.8,5,10.2,5s9.8-2.2,10.2-5H-98.6z"/>
		</g>
	</g>
	<g>
		<path class="st2" d="M-103.8,105.2c-0.3,0-0.5-0.2-0.5-0.5v-4.1c0-0.3,0.2-0.5,0.5-0.5s0.5,0.2,0.5,0.5v4.1
			C-103.4,105-103.6,105.2-103.8,105.2z"/>
	</g>
	<g>
		<path class="st2" d="M-72.1,105.2c-0.3,0-0.5-0.2-0.5-0.5v-4.1c0-0.3,0.2-0.5,0.5-0.5c0.3,0,0.5,0.2,0.5,0.5v4.1
			C-71.6,105-71.8,105.2-72.1,105.2z"/>
	</g>
	<g>
		<line class="st4" x1="-115.8" y1="152.7" x2="-115.8" y2="212.9"/>
		<path class="st2" d="M-115.8,213.3c-0.2,0-0.4-0.2-0.4-0.4v-60.2c0-0.2,0.2-0.4,0.4-0.4s0.4,0.2,0.4,0.4v60.2
			C-115.4,213.1-115.6,213.3-115.8,213.3z"/>
	</g>
	<g>
		<line class="st4" x1="-62.3" y1="152.1" x2="-62.3" y2="212.3"/>
		<path class="st2" d="M-62.3,212.6c-0.2,0-0.4-0.2-0.4-0.4v-60.2c0-0.2,0.2-0.4,0.4-0.4s0.4,0.2,0.4,0.4v60.2
			C-61.9,212.5-62.1,212.6-62.3,212.6z"/>
	</g>
	<g>
		<path class="st5" d="M-73.1,168.6h-30.7c-0.2,0-0.4-0.2-0.4-0.4c0-0.2,0.2-0.4,0.4-0.4h30.7c0.2,0,0.4,0.2,0.4,0.4
			C-72.7,168.4-72.9,168.6-73.1,168.6z"/>
	</g>
	<g>
		<rect x="-129.7" y="174.9" class="st5" width="14.3" height="0.7"/>
	</g>
	<g>
		<rect x="-62.3" y="174.9" class="st5" width="14.3" height="0.7"/>
	</g>
	<g>
		<path class="st1" d="M-93.3,125.2c1.4,0.4,3.1,0.7,4.8,0.7c1.9,0,3.7-0.3,5.2-0.8c-0.5-1.6-2.5-2.9-5-2.9
			C-90.8,122.2-92.8,123.5-93.3,125.2z"/>
	</g>
	<g>
		<path class="st6" d="M-55.3,102.6l-1.2-6.8c0,0-1.5-6.5,0.6-13.2c-7-8.6-7.1-11.9-9.7-17c-22.2-22.3-46.5,0-46.5,0s-2,7-10.4,17.2
			c3.3,7.3,2.8,14.1,2.8,14.1l-2.5,6.8c0,0,4.2,5.8,6.8,7c-1.3-17.2,2.7-28.9,2.7-28.9s2.8,5.6,4.2,4.4c0.3-3,2.8-8.1,2.8-8.1
			s9.7,8.5,20.7,11c-1.5-4.7-1.6-9.2-1.5-10.7c2.5,2.1,7.4,6,12.4,8.7c0,0,0.6-3.2,2.6-5.7c2.5,1.1,5.1,2.5,7.8,4.4
			c0,0,2,9.5,2,22.5L-55.3,102.6z"/>
		<path class="st7" d="M-115.5,111.2c-0.1,0-0.1,0-0.2,0c-2.7-1.2-6.8-6.9-7-7.1c-0.1-0.1-0.1-0.3-0.1-0.4l2.5-6.7
			c0-0.7,0.3-7-2.7-13.8c-0.1-0.2,0-0.4,0.1-0.5c8.3-10,10.3-17,10.3-17.1c0-0.1,0.1-0.2,0.1-0.2c0.2-0.2,24.8-22.4,47.1,0
			c0,0,0.1,0.1,0.1,0.1c0.7,1.4,1.3,2.7,1.8,3.9c1.4,3.3,2.8,6.8,7.9,13c0.1,0.1,0.1,0.3,0.1,0.4c-2,6.4-0.6,12.8-0.5,12.9l1.2,6.8
			c0,0.2,0,0.3-0.2,0.4l-6.7,5.8c-0.1,0.1-0.3,0.2-0.5,0.1c-0.2-0.1-0.3-0.3-0.3-0.4c0.1-11.8-1.6-20.8-1.9-22.2
			c-2.3-1.6-4.7-3-7.2-4.1c-1.7,2.3-2.3,5.1-2.3,5.2c0,0.2-0.1,0.3-0.3,0.3c-0.1,0.1-0.3,0.1-0.4,0c-4.6-2.5-9.1-6-11.7-8.1
			c0,2,0.3,5.7,1.5,9.5c0.1,0.2,0,0.3-0.1,0.5c-0.1,0.1-0.3,0.2-0.5,0.1c-9.6-2.2-18.3-9-20.4-10.7c-0.6,1.4-2.2,5.1-2.5,7.4
			c0,0.1-0.1,0.2-0.2,0.3c-0.3,0.3-0.6,0.4-1,0.3c-1.2-0.2-2.6-2.4-3.4-3.8c-0.9,3.3-3.4,13.7-2.3,27.6c0,0.2-0.1,0.3-0.2,0.4
			C-115.3,111.2-115.4,111.2-115.5,111.2z M-121.8,103.6c0.7,0.9,3.5,4.7,5.7,6.2c-1.1-16.6,2.7-28.1,2.8-28.2
			c0.1-0.2,0.2-0.3,0.4-0.3c0.2,0,0.4,0.1,0.5,0.3c0.8,1.7,2.4,4.1,3.3,4.3c0,0,0,0,0,0c0.4-3,2.7-7.8,2.8-8
			c0.1-0.1,0.2-0.2,0.3-0.3c0.1,0,0.3,0,0.4,0.1c0.1,0.1,9.3,8,19.7,10.7c-1.3-4.4-1.4-8.5-1.3-10c0-0.2,0.1-0.4,0.3-0.4
			c0.2-0.1,0.4,0,0.5,0.1c2.4,2,7,5.7,11.8,8.4c0.3-1.1,1-3.4,2.5-5.2c0.1-0.2,0.4-0.2,0.6-0.1c2.8,1.2,5.4,2.7,7.9,4.5
			c0.1,0.1,0.2,0.2,0.2,0.3c0,0.1,1.9,9.2,2,21.6l5.7-5l-1.1-6.5c-0.1-0.2-1.5-6.5,0.5-13.1c-5-6.2-6.5-9.7-7.9-13
			c-0.5-1.2-1-2.4-1.7-3.8c-20.9-20.9-44-1.5-45.6,0c-0.3,1.1-2.6,7.7-10.3,17.1c3.2,7.2,2.7,13.7,2.7,14c0,0,0,0.1,0,0.1
			L-121.8,103.6z"/>
	</g>
	<g>
		<path class="st2" d="M-110.7,95.7c-0.2,0-0.3-0.1-0.4-0.2c-0.1-0.2-0.1-0.5,0.2-0.7c2-1.2,4.5-1.8,7.1-1.8c1.8,0,3.5,0.3,5.1,0.9
			c0.2,0.1,0.4,0.4,0.3,0.6c-0.1,0.2-0.4,0.4-0.6,0.3c-1.5-0.5-3.1-0.8-4.8-0.8c-2.4,0-4.7,0.6-6.6,1.6
			C-110.5,95.7-110.6,95.7-110.7,95.7z"/>
	</g>
	<g>
		<path class="st2" d="M-66.2,95.7c-0.1,0-0.2,0-0.2-0.1c-1.9-1.1-4.2-1.6-6.6-1.6c-1.7,0-3.3,0.3-4.8,0.8c-0.2,0.1-0.5,0-0.6-0.3
			c-0.1-0.3,0-0.5,0.3-0.6c1.6-0.6,3.3-0.9,5.1-0.9c2.6,0,5,0.6,7.1,1.8c0.2,0.1,0.3,0.4,0.2,0.7C-65.9,95.7-66.1,95.7-66.2,95.7z"
			/>
	</g>
</g>
<g>
	<g>
		<path class="st6" d="M108.8,95.1V52.8c0-18.4-15.7-33.3-35.1-33.3S38.5,34.4,38.5,52.8v42.3"/>
		<path class="st7" d="M108.8,95.5c-0.2,0-0.4-0.2-0.4-0.4V52.8c0-18.1-15.6-32.9-34.7-32.9S39,34.7,39,52.8v42.3
			c0,0.2-0.2,0.4-0.4,0.4c-0.2,0-0.4-0.2-0.4-0.4V52.8c0-18.6,15.9-33.7,35.6-33.7s35.6,15.1,35.6,33.7v42.3
			C109.2,95.3,109,95.5,108.8,95.5z"/>
	</g>
	<g>
		<path class="st1" d="M111.3,157.7V93.6c0-3.8-3.2-6.8-7.2-6.8h-61c-4,0-7.2,3-7.2,6.8v64.1H111.3z"/>
		<path class="st3" d="M111.8,158.1H35.5V93.6c0-4,3.4-7.2,7.6-7.2h61c4.2,0,7.6,3.3,7.6,7.2L111.8,158.1L111.8,158.1L111.8,158.1z
			 M36.4,157.3h74.5V93.6c0-3.5-3-6.4-6.7-6.4h-61c-3.7,0-6.7,2.9-6.7,6.4L36.4,157.3L36.4,157.3L36.4,157.3z"/>
	</g>
	<g>
		<path class="st1" d="M85.5,92V78.6H61.8V92c0,0,0,6.5,11.9,6.5C85.5,98.4,85.5,92,85.5,92z"/>
		<path class="st2" d="M73.7,98.9c-12.2,0-12.3-6.6-12.3-6.9V78.6c0-0.2,0.2-0.4,0.4-0.4h23.7c0.2,0,0.4,0.2,0.4,0.4V92
			C86,92.2,85.8,98.9,73.7,98.9z M62.2,79v12.9c0,0.2,0.2,6,11.4,6c11.2,0,11.4-5.8,11.4-6V79H62.2L62.2,79z"/>
	</g>
	<g>
		<ellipse transform="matrix(0.9295 0.3688 -0.3688 0.9295 29.491 -32.0147)" class="st1" cx="98.5" cy="61.1" rx="5.5" ry="9.3"/>
		<path class="st7" d="M96.3,70.4c-0.5,0-1-0.1-1.4-0.3c-3-1.2-3.9-6.3-1.9-11.2l0,0c2-5,6.1-8.1,9.1-6.9c1.5,0.6,2.5,2.1,2.9,4.3
			c0.3,2.1,0,4.6-1,6.9c-0.9,2.4-2.4,4.4-4.1,5.7C98.7,70,97.5,70.4,96.3,70.4z M93.8,59.3c-1.8,4.5-1.2,9.1,1.4,10.1
			c1.2,0.5,2.7,0.1,4.2-1c1.6-1.2,2.9-3.1,3.8-5.3c0.9-2.2,1.2-4.5,0.9-6.5c-0.3-1.9-1.1-3.2-2.3-3.6C99.2,51.8,95.6,54.7,93.8,59.3
			L93.8,59.3z"/>
	</g>
	<g>
		<path class="st1" d="M98.9,58.6c0,1.6,0,3.2,0,4.9c0,17.8-11.3,22.7-25.3,22.7c-13.9,0-25.3-4.9-25.3-22.7c0-1,0-2,0-3
			c0.8-0.1,20.5-3.9,31.8-19.9C80.2,40.6,98.5,42.4,98.9,58.6z"/>
		<path class="st7" d="M73.7,86.7C56.4,86.7,48,79.1,48,63.5c0-1,0-2,0-3l0-0.4l0.4-0.1c0.8-0.2,20.3-3.9,31.5-19.7l0.1-0.2l0.3,0
			c0.2,0,18.7,2,19.2,18.4l0,0.9c0,1.3,0,2.7,0,4.1C99.3,79.1,90.9,86.7,73.7,86.7z M48.8,60.9c0,0.9,0,1.7,0,2.6
			c0,15,8.1,22.3,24.8,22.3s24.8-7.3,24.8-22.3c0-1.4,0-2.7,0-4.1l0-0.8c-0.4-14.6-16-17.2-18.1-17.5C69.7,56,51.7,60.3,48.8,60.9z"
			/>
	</g>
	<g>
		<path class="st1" d="M69.2,65.3c0.6,1.7,2.3,4.7,4.4,4.7s3.8-3,4.4-4.7"/>
		<path class="st7" d="M73.7,70.3c-2.2,0-4.1-3-4.7-4.9c-0.1-0.2,0-0.4,0.2-0.4c0.2-0.1,0.4,0,0.4,0.2c0.6,1.9,2.3,4.5,4.1,4.5
			c1.8,0,3.5-2.6,4.1-4.5c0.1-0.2,0.2-0.3,0.4-0.2c0.2,0.1,0.3,0.2,0.2,0.4C77.7,67.3,75.9,70.3,73.7,70.3z"/>
	</g>
	<g>
		<path class="st2" d="M82.2,57.2c-0.1,0-0.2,0-0.2-0.1c-0.1-0.1-0.1-0.3,0-0.5c1.3-1.2,3.6-1.9,6-1.9c1.5,0,3,0.3,4.2,0.8
			c0.2,0.1,0.2,0.3,0.2,0.4c-0.1,0.2-0.3,0.2-0.4,0.2c-1.1-0.5-2.5-0.8-4-0.8c-2.2,0-4.3,0.7-5.5,1.8C82.3,57.2,82.2,57.2,82.2,57.2
			z"/>
	</g>
	<g>
		<path class="st2" d="M65.1,57.2c-0.1,0-0.2,0-0.2-0.1c-0.6-0.6-1.5-1-2.5-1.3c-0.2-0.1-0.3-0.2-0.2-0.4c0.1-0.2,0.2-0.3,0.4-0.2
			c1.1,0.3,2.1,0.8,2.8,1.5c0.1,0.1,0.1,0.3,0,0.5C65.3,57.2,65.2,57.2,65.1,57.2z"/>
	</g>
	<g>
		<path class="st1" d="M87.3,72.7c0,4.1-6.1,7.3-13.6,7.3c-7.5,0-13.6-3.3-13.6-7.3H87.3z"/>
		<path class="st7" d="M73.7,80.4c-7.7,0-13.9-3.4-13.9-7.7c0-0.2,0.1-0.3,0.3-0.3h27.2c0.2,0,0.3,0.1,0.3,0.3
			C87.6,76.9,81.3,80.4,73.7,80.4z M60.4,73c0.3,3.7,6.1,6.7,13.3,6.7s12.9-3,13.3-6.7H60.4z"/>
	</g>
	<g>
		<path class="st7" d="M73.7,75.6c-4.4,0-8.7-0.2-12.8-0.4C62.8,78,67.8,80,73.7,80s10.9-2,12.8-4.9C82.3,75.5,78,75.6,73.7,75.6z"
			/>
	</g>
	<g>
		<g>
			<path class="st7" d="M60.7,66.1c-0.2,0-0.4-0.2-0.4-0.4v-5.2c0-0.2,0.2-0.4,0.4-0.4s0.4,0.2,0.4,0.4v5.2
				C61.1,65.9,60.9,66.1,60.7,66.1z"/>
		</g>
		<g>
			<path class="st7" d="M58,59.4c0,0,0.2,0.1,0.4,0.3c0.3,0.2,0.6,0.4,1,0.5c0.2,0.1,0.4,0.1,0.6,0.1c0.2,0,0.3,0.1,0.5,0.1
				c0.1,0,0.1,0,0.2,0c0.1,0,0.1,0,0.2,0c0.1,0,0.2,0,0.2,0l0,0.1c0,0,0,0-0.1,0.1c-0.1,0.1-0.2,0.1-0.4,0.2c-0.2,0-0.4,0.1-0.6,0
				c-0.2,0-0.4-0.1-0.6-0.2C58.4,60.2,58,59.5,58,59.4L58,59.4z"/>
		</g>
		<g>
			<g>
				<path class="st7" d="M86.6,66.1c-0.2,0-0.4-0.2-0.4-0.4v-5.2c0-0.2,0.2-0.4,0.4-0.4c0.2,0,0.4,0.2,0.4,0.4v5.2
					C87.1,65.9,86.9,66.1,86.6,66.1z"/>
			</g>
			<g>
				<path class="st7" d="M89.4,59.5c0,0-0.5,0.8-1.3,1.2c-0.2,0.1-0.4,0.2-0.6,0.2c-0.2,0-0.4,0-0.6,0c-0.2-0.1-0.3-0.1-0.4-0.2
					c-0.1-0.1-0.1-0.1-0.1-0.1l0-0.1c0,0,0.1,0,0.2,0c0,0,0.1,0,0.2,0c0.1,0,0.1,0,0.2,0c0.1,0,0.3-0.1,0.5-0.1c0.2,0,0.4,0,0.6-0.1
					c0.4-0.1,0.8-0.3,1-0.5C89.2,59.6,89.3,59.4,89.4,59.5L89.4,59.5z"/>
			</g>
		</g>
	</g>
	<g>
		<path class="st1" d="M48.4,60.5c0,1,0,2,0,3c0,2.2,0.2,4.2,0.5,6c-2-1-4-3.3-5.2-6.3c-0.2-0.6-0.4-1.2-0.6-1.8
			C43.1,61.4,47.6,60.7,48.4,60.5z"/>
		<path class="st7" d="M48.9,69.9c-0.1,0-0.1,0-0.2,0c-2.2-1.1-4.2-3.5-5.4-6.5c-0.2-0.6-0.4-1.2-0.6-1.8c0-0.1,0-0.2,0.1-0.3
			c0.1-0.1,0.2-0.2,0.3-0.2c0,0,4.5-0.7,5.3-0.9c0.1,0,0.3,0,0.4,0.1c0.1,0.1,0.2,0.2,0.2,0.3c0,1,0,2,0,3c0,2.1,0.2,4.1,0.5,5.9
			c0,0.2,0,0.3-0.2,0.4C49.1,69.9,49,69.9,48.9,69.9z M43.7,61.8c0.1,0.4,0.3,0.8,0.4,1.2c1,2.5,2.5,4.5,4.2,5.6
			C48.1,67,48,65.3,48,63.5c0-0.8,0-1.6,0-2.4C46.9,61.2,44.6,61.6,43.7,61.8z"/>
	</g>
	<g>
		<g>
			<path class="st3" d="M49.5,158.6c-0.2,0-0.3-0.1-0.3-0.3v-54.4c0-0.2,0.1-0.3,0.3-0.3c0.2,0,0.3,0.1,0.3,0.3v54.4
				C49.8,158.4,49.7,158.6,49.5,158.6z"/>
		</g>
		<g>
			<path class="st3" d="M97.8,158c-0.2,0-0.3-0.1-0.3-0.3v-54.4c0-0.2,0.1-0.3,0.3-0.3s0.3,0.1,0.3,0.3v54.4
				C98.2,157.9,98,158,97.8,158z"/>
		</g>
	</g>
	<g>
		<g>
			<path class="st3" d="M62.8,120.1c-5.8,0-10.5-4.1-10.5-9c0-0.2,0.1-0.3,0.3-0.3s0.3,0.1,0.3,0.3c0,4.6,4.4,8.4,9.9,8.4
				c3.5,0,6.8-1.6,8.6-4.2c0.1-0.1,0.3-0.2,0.5-0.1c0.1,0.1,0.2,0.3,0.1,0.5C70.1,118.4,66.6,120.1,62.8,120.1z"/>
		</g>
		<g>
			<path class="st3" d="M84.5,120.1c-3.7,0-7.2-1.7-9.1-4.5c-0.1-0.1-0.1-0.4,0.1-0.5c0.1-0.1,0.4-0.1,0.5,0.1
				c1.8,2.6,5,4.2,8.6,4.2c5.4,0,9.9-3.8,9.9-8.4c0-0.2,0.1-0.3,0.3-0.3c0.2,0,0.3,0.1,0.3,0.3C95,116,90.3,120.1,84.5,120.1z"/>
		</g>
	</g>
	<g>
		<rect x="36" y="105.4" class="st5" width="12.9" height="0.7"/>
	</g>
	<g>
		<rect x="98.2" y="105.4" class="st5" width="12.9" height="0.7"/>
	</g>
	<g>
		<path class="st1" d="M73.7,80c1.5,0,3-0.1,4.3-0.4c-0.3-1.2-2.1-2-4.3-2c-2.2,0-4,0.9-4.3,2C70.7,79.9,72.1,80,73.7,80z"/>
	</g>
</g>
</svg>
