<?xml version="1.0" encoding="utf-8"?>
<!-- Generator: Adobe Illustrator 19.1.0, SVG Export Plug-In . SVG Version: 6.00 Build 0)  -->
<svg version="1.1" id="Layer_1" xmlns="http://www.w3.org/2000/svg" xmlns:xlink="http://www.w3.org/1999/xlink" x="0px" y="0px"
	 viewBox="264 104.92 1320.236 801.08" enable-background="new 264 104.92 1320.236 801.08" xml:space="preserve">
<g id="Layer_1_1_">
	<g>
		<path fill="#DDD3B2" d="M872.431,190.434c-28.034,0-55.007,3.287-80.222,9.209c-25.215,8.977-48.67,16.185-69.672,25.645
			c-21.001,10.581-39.547,24.741-54.942,39.104c-15.394,14.986-27.637,30.565-36.03,49.589
			c-8.393,19.872-12.939,34.832-12.939,57.097c0,2.562,10.359,2.601,28.118,0c17.758-1.049,42.917,3.601,72.515,0
			c29.598-2.405,63.636,0.172,99.153,0c35.518,0,72.515,0,108.033,0c26.639,0,52.444,0,76.168,0c23.725-1.148,45.369-2.753,63.682,0
			c18.314,0.918,33.298-2.846,43.703,0c10.406,2.329,16.233-3.451,16.233,0c0-21.62-4.546-37.753-12.939-57.097
			c-8.393-16.886-20.636-40.12-36.03-49.589c-15.394-11.09-33.94-33.519-54.942-39.104c-21.001-10.957-44.457-19.67-69.672-25.645
			C927.438,193.669,900.466,190.434,872.431,190.434z"/>
	</g>
	<ellipse fill="#00A79F" cx="1077.478" cy="333.919" rx="31.684" ry="24.732"/>
	<ellipse fill="#00A79F" cx="972.756" cy="229.108" rx="43.45" ry="33.917"/>
	
		<ellipse transform="matrix(-0.9995 -0.0316 0.0316 -0.9995 2090.9722 620.8765)" fill="#00A79F" cx="1050.392" cy="293.915" rx="46.808" ry="36.538"/>
	<rect x="683.448" y="698.579" fill="#4F5169" width="671.864" height="119.473"/>
	
		<ellipse transform="matrix(-0.9995 -0.0316 0.0316 -0.9995 2060.1492 529.6231)" fill="#00A79F" cx="1034.26" cy="248.532" rx="46.808" ry="36.538"/>
	<g>
		<path fill="#F1E889" d="M828.657,185.633c-28.034,0-55.007,3.287-80.222,9.209c-25.215,8.977-48.67,16.185-69.672,25.645
			c-21.001,10.581-39.547,24.741-54.942,39.104c-15.394,14.986-27.636,30.565-36.03,49.589
			c-8.393,19.872-12.939,34.832-12.939,57.097c0,2.562,10.359,2.601,28.118,0c17.758-1.049,42.917,3.601,72.515,0
			c29.598-2.405,63.636,0.172,99.153,0c35.518,0,72.515,0,108.033,0c26.639,0,52.443,0,76.168,0c23.725-1.148,45.369-2.753,63.682,0
			c18.314,0.918,33.298-2.846,43.703,0c10.406,2.329,16.233-3.451,16.233,0c0-21.62-4.546-37.753-12.939-57.097
			c-8.393-16.886-20.636-40.12-36.03-49.589c-15.394-11.09-33.94-33.519-54.942-39.104c-21.001-10.957-44.457-19.67-69.672-25.645
			C883.664,188.868,856.691,185.633,828.657,185.633z"/>
	</g>
	<g>
		<g>
			<g>
				<path fill="#362027" d="M735.19,263.146c0.894,0,0.896-1.39,0-1.39C734.295,261.757,734.294,263.146,735.19,263.146
					L735.19,263.146z"/>
			</g>
		</g>
		<g>
			<g>
				<path fill="#362027" d="M678.228,308.993c0.894,0,0.896-1.39,0-1.39C677.334,307.603,677.333,308.993,678.228,308.993
					L678.228,308.993z"/>
			</g>
		</g>
		<g>
			<g>
				<path fill="#362027" d="M697.679,281.579c0.894,0,0.896-1.39,0-1.39C696.785,280.19,696.783,281.579,697.679,281.579
					L697.679,281.579z"/>
			</g>
		</g>
		<g>
			<g>
				<path fill="#362027" d="M724.075,317.328c0.894,0,0.896-1.39,0-1.39C723.181,315.939,723.18,317.328,724.075,317.328
					L724.075,317.328z"/>
			</g>
		</g>
		<g>
			<g>
				<path fill="#362027" d="M760.196,286.764c0.894,0,0.896-1.39,0-1.39C759.302,285.375,759.3,286.764,760.196,286.764
					L760.196,286.764z"/>
			</g>
		</g>
		<g>
			<g>
				<path fill="#362027" d="M821.324,321.496c0.894,0,0.896-1.39,0-1.39C820.431,320.106,820.43,321.496,821.324,321.496
					L821.324,321.496z"/>
			</g>
		</g>
		<g>
			<g>
				<path fill="#362027" d="M822.714,250.643c0.894,0,0.896-1.39,0-1.39C821.82,249.253,821.818,250.643,822.714,250.643
					L822.714,250.643z"/>
			</g>
		</g>
		<g>
			<g>
				<path fill="#362027" d="M776.867,242.307c0.894,0,0.896-1.39,0-1.39C775.974,240.918,775.972,242.307,776.867,242.307
					L776.867,242.307z"/>
			</g>
		</g>
		<g>
			<g>
				<path fill="#362027" d="M839.385,289.542c0.894,0,0.896-1.39,0-1.39C838.491,288.153,838.49,289.542,839.385,289.542
					L839.385,289.542z"/>
			</g>
		</g>
		<g>
			<g>
				<path fill="#362027" d="M938.024,296.488c0.894,0,0.896-1.39,0-1.39C937.131,295.099,937.13,296.488,938.024,296.488
					L938.024,296.488z"/>
			</g>
		</g>
		<g>
			<g>
				<path fill="#362027" d="M908.85,249.253c0.894,0,0.896-1.39,0-1.39C907.955,247.864,907.954,249.253,908.85,249.253
					L908.85,249.253z"/>
			</g>
		</g>
		<g>
			<g>
				<path fill="#362027" d="M888.01,295.1c0.894,0,0.896-1.39,0-1.39C887.116,293.71,887.115,295.1,888.01,295.1L888.01,295.1z"/>
			</g>
		</g>
		<g>
			<g>
				<path fill="#362027" d="M935.246,322.886c0.894,0,0.896-1.39,0-1.39C934.352,321.496,934.35,322.886,935.246,322.886
					L935.246,322.886z"/>
			</g>
		</g>
		<g>
			<g>
				<path fill="#362027" d="M972.756,317.328c0.894,0,0.896-1.39,0-1.39C971.862,315.939,971.861,317.328,972.756,317.328
					L972.756,317.328z"/>
			</g>
		</g>
		<g>
			<g>
				<path fill="#362027" d="M963.032,267.314c0.894,0,0.896-1.39,0-1.39C962.137,265.924,962.136,267.314,963.032,267.314
					L963.032,267.314z"/>
			</g>
		</g>
		<g>
			<g>
				<path fill="#362027" d="M833.829,229.803c0.894,0,0.896-1.39,0-1.39C832.934,228.413,832.933,229.803,833.829,229.803
					L833.829,229.803z"/>
			</g>
		</g>
		<g>
			<g>
				<path fill="#362027" d="M664.336,271.482c0.894,0,0.896-1.39,0-1.39C663.441,270.092,663.44,271.482,664.336,271.482
					L664.336,271.482z"/>
			</g>
		</g>
	</g>
	<polygon fill="#FFFFFF" stroke="#404041" stroke-miterlimit="10" points="1411.204,630.698 1131.385,630.698 1131.385,363.806 
		1313.051,363.806 	"/>
	<g>
		<path fill="#00A79F" d="M1132.822,619.011v-256.59h-3.261h-1.8H541.16v455.494l-0.044,0.034h0.044h1.755h194.031
			c-0.795-5.973-1.225-12.166-1.225-18.526c0-48.149,24.006-87.182,53.621-87.182c29.614,0,53.62,39.033,53.62,87.182
			c0,6.36-0.43,12.553-1.225,18.526h298.435c-0.795-5.973-1.225-12.166-1.225-18.526c0-48.149,24.006-87.182,53.621-87.182
			c29.613,0,53.621,39.033,53.621,87.182c0,6.36-0.43,12.553-1.225,18.526h201.652V700.254v-43.591v-37.651L1132.822,619.011
			L1132.822,619.011z"/>
	</g>
	<path fill="none" stroke="#404041" stroke-width="6" stroke-miterlimit="10" d="M591.193,796.617
		c-13.519,24.46-40.568,40.846-68.509,41.501"/>
	<ellipse opacity="0.09" fill="#362027" enable-background="new    " cx="999.085" cy="865.724" rx="424.231" ry="13.758"/>
	<line fill="none" stroke="#404041" stroke-miterlimit="10" x1="1286.751" y1="427.168" x2="1353.955" y2="579.576"/>
	<line fill="none" stroke="#404041" stroke-miterlimit="10" x1="1276.782" y1="446.606" x2="1343.985" y2="599.014"/>
	<g>
		<g>
			<path fill="#404041" d="M1045.992,376.57c0.894,0,0.896-1.39,0-1.39C1045.098,375.18,1045.096,376.57,1045.992,376.57
				L1045.992,376.57z"/>
		</g>
	</g>
	<g>
		<g>
			<path fill="#404041" d="M683.389,402.966c0.894,0,0.896-1.39,0-1.39C682.495,401.577,682.494,402.966,683.389,402.966
				L683.389,402.966z"/>
		</g>
	</g>
	<g>
		<g>
			<polygon fill="#4F5169" points="1129.561,362.421 1127.761,362.421 541.16,362.421 541.16,817.915 1132.822,362.421 			"/>
		</g>
		<g>
			<path fill="#00A79F" d="M1132.822,619.011v-256.59L541.16,817.915l-0.044,0.034h0.044h1.755h194.031
				c-0.795-5.973-1.225-12.166-1.225-18.526c0-48.149,24.006-87.182,53.621-87.182c29.614,0,53.62,39.033,53.62,87.182
				c0,6.36-0.43,12.553-1.225,18.526h298.435c-0.795-5.973-1.225-12.166-1.225-18.526c0-48.149,24.006-87.182,53.621-87.182
				c29.615,0,53.621,39.033,53.621,87.182c0,6.36-0.43,12.553-1.225,18.526h201.652V700.254v-43.591v-37.651L1132.822,619.011
				L1132.822,619.011z"/>
		</g>
	</g>
	<rect x="534.508" y="759.367" fill="#404041" width="87.843" height="59.268"/>
	<rect x="1379.818" y="759.367" fill="#404041" width="87.843" height="59.268"/>
	<g>
		<path fill="#F9F7E9" d="M894.258,673.489c-0.65,0.414-1.57,0.23-1.989-0.488c-0.24-0.323-0.543-0.568-0.837-0.747
			c-0.295-0.177-0.719-0.273-1.069-0.307c-1.598-0.046-3.097,0.868-4.431,2.736c-1.573,2.236-3.028,5.637-4.337,10.479
			c-0.518,1.715-1.023,3.567-1.466,5.342l4.386-0.445c0.755-0.076,1.509,0.54,1.585,1.295c0.083,0.822-0.539,1.508-1.294,1.584
			l-5.483,0.557c-1.254,4.697-2.345,8.963-2.97,11.657l-0.41,1.425l0.007,0.069c-0.784,3.195-1.615,6.604-2.604,10.512
			c-0.681,2.838-1.363,5.676-2.038,8.586c0.459-0.255,0.925-0.44,1.315-0.688c2.693-1.45,5.123-3.427,7.326-6.282
			c2.271-2.86,4.24-6.662,5.802-11.737c0.198-0.78,1.054-1.214,1.774-0.942c0.781,0.199,1.215,1.054,1.01,1.766
			c-1.734,5.441-3.811,9.526-6.26,12.685c-2.442,3.225-5.264,5.45-8.284,7.072c-1.109,0.667-2.301,1.203-3.501,1.671l-0.579,2.481
			c-0.681,2.839-1.356,5.746-2.64,8.093c-1.395,2.634-3.422,4.501-6.697,4.971c-0.548,0.056-1.027,0.104-1.515,0.085
			c-2.215,0.018-3.949-0.707-5.164-1.762c-1.222-1.122-1.93-2.641-2.159-4.212c-0.034-0.342-0.069-0.685-0.097-0.958
			c0.012-6.024,4.857-7.416,11.112-9.228c1.679-0.517,3.433-0.972,5.235-1.64c0.817-3.545,1.703-7.098,2.52-10.642
			c0.797-3.058,1.676-6.679,2.596-10.58l0.062-0.076l0.347-1.352c0.648-2.488,1.575-6.322,2.727-10.662l-4.455,0.451
			c-0.823,0.083-1.502-0.47-1.585-1.292c-0.077-0.755,0.47-1.504,1.293-1.588l5.551-0.562c0.546-2.132,1.153-4.34,1.698-6.472
			c1.419-5.13,3.044-8.895,4.803-11.358c2.004-2.765,4.299-4.038,6.87-3.952c0.836,0.052,1.686,0.245,2.496,0.717
			c0.658,0.348,1.276,0.977,1.771,1.759C895.161,672.152,894.908,673.078,894.258,673.489z M867.217,730.451
			c-1.274,0.405-2.487,0.736-3.693,1.135c-5.049,1.413-8.948,2.57-8.977,6.38c0.021,0.206,0.042,0.411,0.062,0.617
			c0.159,0.885,0.524,1.748,1.21,2.371c0.762,0.684,1.77,1.066,3.223,1.056c0.349,0.034,0.762-0.007,1.172-0.048
			c2.186-0.292,3.569-1.679,4.498-3.435c1.107-2.051,1.734-4.747,2.368-7.372L867.217,730.451z"/>
		<path fill="#F9F7E9" d="M917.758,704.895c-0.157,0.501-0.252,0.926-0.409,1.426c-0.171,0.365-0.335,0.796-0.498,1.227
			c-0.779,1.88-1.626,3.766-2.919,5.351c-1.423,1.668-3.238,2.892-5.773,3.148c-0.685,0.069-1.31,0.064-1.94-0.011
			c-1.132-0.232-2.216-0.675-3.183-1.34c-2.188,3.683-5.397,6.849-8.688,7.183c-11.24,1.141-5.771-18.663-2.697-25.208
			c2.112-4.437,5.082-7.923,8.851-8.306l0.069-0.008c1.993-0.134,3.914,0.364,5.37,1.74c1.23,1.19,2.096,2.903,2.277,5.376
			c0.37,4.326-1.163,11.059-3.719,16.58c0.541,0.569,1.344,0.973,2.188,1.094c0.35,0.034,0.768,0.061,1.18,0.019
			c1.644-0.167,2.877-0.985,3.801-2.116c1.046-1.283,1.845-2.957,2.447-4.541c0.171-0.365,0.273-0.719,0.438-1.153
			c0.17-0.364,0.266-0.789,0.424-1.29c0.197-0.782,1.054-1.214,1.842-0.948C917.529,703.327,918.032,704.176,917.758,704.895z
			 M903.283,706.226c-0.15,0.569-0.162,1.125-0.182,1.611c1.639-4.32,2.482-8.976,2.23-12.135c-0.098-1.652-0.628-2.776-1.39-3.46
			c-0.769-0.753-1.907-1.053-3.147-0.996c-2.605,0.265-4.815,3.051-6.455,6.679c-2.234,4.59-7.138,21.774-0.285,21.078
			c2.536-0.257,5.136-3.291,7.07-6.739c-0.509-0.919-0.749-1.933-0.875-3.167c-0.104-1.028-0.079-2.139,0.146-3.34
			c0.122-0.843,0.834-1.33,1.678-1.207C902.848,704.677,903.405,705.384,903.283,706.226z"/>
		<path fill="#F9F7E9" d="M946.642,701.964c-0.157,0.501-0.252,0.926-0.409,1.426c-0.171,0.364-0.336,0.795-0.499,1.227
			c-0.779,1.88-1.626,3.766-2.919,5.352c-1.423,1.667-3.238,2.89-5.773,3.147c-0.686,0.069-1.31,0.065-1.94-0.01
			c-1.132-0.233-2.216-0.676-3.183-1.34c-2.188,3.683-5.397,6.848-8.688,7.183c-11.239,1.14-5.771-18.664-2.697-25.208
			c2.112-4.437,5.082-7.924,8.851-8.307l0.069-0.008c1.993-0.133,3.914,0.365,5.37,1.74c1.23,1.19,2.096,2.903,2.277,5.377
			c0.369,4.325-1.163,11.058-3.719,16.579c0.543,0.57,1.345,0.973,2.188,1.094c0.35,0.034,0.768,0.061,1.18,0.019
			c1.644-0.166,2.877-0.985,3.801-2.116c1.047-1.283,1.847-2.957,2.447-4.541c0.171-0.364,0.273-0.719,0.437-1.152
			c0.171-0.365,0.267-0.789,0.424-1.291c0.197-0.78,1.054-1.213,1.842-0.948C946.413,700.396,946.916,701.244,946.642,701.964z
			 M932.167,703.295c-0.15,0.569-0.162,1.126-0.183,1.611c1.64-4.32,2.482-8.976,2.231-12.135c-0.098-1.652-0.628-2.776-1.39-3.46
			c-0.769-0.753-1.907-1.053-3.148-0.996c-2.604,0.263-4.815,3.051-6.455,6.679c-2.236,4.589-7.137,21.773-0.285,21.078
			c2.536-0.257,5.136-3.291,7.07-6.74c-0.509-0.918-0.75-1.932-0.876-3.166c-0.104-1.028-0.078-2.139,0.147-3.34
			c0.122-0.843,0.834-1.331,1.678-1.208C931.733,701.747,932.29,702.453,932.167,703.295z"/>
		<path fill="#F9F7E9" d="M978.529,698.799c-1.127,3.229-2.233,5.973-3.395,8.169c-1.216,2.339-2.496,4.061-3.953,5.387
			c-0.767,0.63-1.616,1.133-2.548,1.505c-0.925,0.44-1.87,0.674-2.761,0.765l-0.069,0.007c-1.439,0.147-2.723-0.209-3.785-1.14
			c-0.919-0.876-1.614-2.259-1.802-4.109l-0.007-0.069l-0.013-0.136c0,0,0,0-0.007-0.069c-2.044,3.739-4.672,6.499-8.243,6.79
			c-1.994,0.134-3.448-0.549-4.486-1.899c-1.098-1.273-1.636-3.157-1.79-5.358c-0.321-3.843,0.963-11.658,3.744-17.689
			c2.111-4.437,5.006-7.987,8.906-8.45c0.206-0.022,0.411-0.042,0.617-0.063c1.863-0.051,3.6,0.673,4.972,1.919
			c0.316,0.383,0.7,0.76,0.948,1.151c0.293-1.207,0.648-2.489,0.94-3.696l1.071-4.47l-0.008-0.069l0.293-1.206
			c0.225-1.201,0.68-2.84,1.212-5.109c0.198-0.782,0.986-1.207,1.768-1.011c0.781,0.199,1.207,0.987,1.01,1.768
			c-0.442,1.777-0.873,3.688-1.158,4.965l-0.286,1.275l-0.062,0.075l-1.001,4.465c-1.432,5.684-2.794,11.362-4.19,17.39
			c-0.422,1.98-0.79,3.819-1.042,5.437c-0.266,1.481-0.407,2.811-0.325,3.633l0.014,0.137c0.111,1.096,0.462,1.823,0.915,2.193
			c0.383,0.376,0.885,0.533,1.502,0.47l0.069-0.007c0.617-0.063,1.288-0.269,1.953-0.544c0.596-0.269,1.184-0.606,1.76-1.079
			c1.143-1.016,2.238-2.512,3.284-4.487c1.039-2.044,2.091-4.645,3.155-7.799c0.273-0.72,1.13-1.153,1.85-0.882
			C978.368,697.222,978.795,698.01,978.529,698.799z M962.318,694.628c0.47-1.503,0.81-2.923,1.18-4.067
			c0.048-0.211,0.033-0.349,0.02-0.487c-0.229-1.571-0.771-2.83-1.61-3.578c-0.837-0.746-1.845-1.127-2.88-1.092
			c-0.143-0.055-0.281-0.04-0.417-0.026c-2.667,0.34-4.869,3.194-6.578,6.829c-2.555,5.523-3.765,12.709-3.479,16.21
			c0.167,1.644,0.505,2.926,1.143,3.762c0.474,0.575,1.126,0.856,2.023,0.833C957.286,712.587,960.286,701.897,962.318,694.628z"/>
		<path fill="#F9F7E9" d="M995.879,697.039c-1.127,3.229-2.233,5.973-3.395,8.169c-1.217,2.34-2.496,4.061-3.954,5.388
			c-0.767,0.629-1.616,1.133-2.479,1.497c-0.925,0.44-1.939,0.681-2.829,0.771l-0.069,0.007c-1.371,0.14-2.723-0.209-3.716-1.145
			c-0.988-0.869-1.683-2.253-1.871-4.103l-0.007-0.069l-0.013-0.136c-0.112-1.097,0.017-2.565,0.322-4.327
			c0.245-1.687,0.605-3.592,1.096-5.581c0.137-0.707,0.531-2.271,1.076-4.402c0.538-2.201,1.124-4.615,1.779-7.036
			c0.033-0.349,0.333-1.489,0.721-3.121l-4.318,0.439c-0.823,0.083-1.502-0.471-1.585-1.294c-0.077-0.754,0.47-1.501,1.293-1.584
			l5.277-0.535c0.157-0.501,0.239-1.064,0.395-1.564c0.92-3.901,1.88-8.084,2.132-9.01c0.198-0.78,0.978-1.274,1.76-1.078
			c0.783,0.198,1.276,0.979,1.078,1.761c-0.259,0.857-1.22,5.039-2.132,9.009c-0.048,0.211-0.102,0.357-0.15,0.57l4.592-0.466
			c0.822-0.083,1.508,0.539,1.585,1.293c0.083,0.823-0.471,1.502-1.293,1.585l-5.621,0.57c-0.422,1.981-0.824,3.476-0.967,4.114
			c-0.681,2.838-1.328,5.327-1.772,7.104c-0.442,1.778-0.777,3.265-1.022,4.26c-0.491,1.987-0.858,3.824-1.116,5.374
			c-0.19,1.543-0.338,2.804-0.248,3.695l0.014,0.137c0.111,1.096,0.461,1.822,0.915,2.192c0.384,0.377,0.953,0.527,1.502,0.47
			l0.069-0.007c0.617-0.063,1.289-0.269,1.952-0.544c0.596-0.268,1.185-0.605,1.76-1.079c1.213-1.023,2.239-2.511,3.284-4.487
			c1.107-2.051,2.091-4.645,3.156-7.799c0.272-0.72,1.128-1.153,1.918-0.888C995.717,695.461,996.144,696.249,995.879,697.039z"/>
		<path fill="#F9F7E9" d="M1023.4,694.246l-0.047,0.212c-1.952,6.014-4.866,14.827-11.035,15.452l-0.069,0.008
			c-1.851,0.188-3.167-0.509-4.108-1.592c-0.797-1.027-1.203-2.3-1.342-3.672l-0.021-0.206c-0.112-1.097,0.017-2.565,0.322-4.328
			c0.245-1.685,0.605-3.592,1.095-5.581c0.429-1.914,0.661-3.044,0.844-3.963c0.287-1.274,0.47-2.195,0.873-3.688l-1.132-0.233
			c-2.058-0.482-4.388-0.939-6.617-1.75c-0.143,0.637-0.355,1.282-0.511,1.783l0.007,0.068l-4.335,12.559
			c-0.265,0.788-1.061,1.146-1.849,0.878c-0.719-0.272-1.146-1.06-0.88-1.849l4.273-12.481c0.206-0.715,0.409-1.426,0.614-2.14
			c-2.421-1.347-4.131-3.182-4.149-6.088c0.033-1.043,0.422-1.982,1.038-2.738c-0.007-0.068,0.062-0.073,0.062-0.073
			c0.684-0.764,1.602-1.272,2.699-1.382c0.411-0.042,0.829-0.017,1.179,0.019l0.076,0.062c1.055,0.17,1.81,0.785,2.373,1.559
			c0.488,0.713,0.709,1.52,0.806,2.478c0.069,0.686,0.002,1.386-0.134,2.092c-0.135,0.707-0.326,1.556-0.517,2.408
			c2.016,0.764,4.423,1.282,6.48,1.764c0.988,0.177,1.907,0.361,2.688,0.559s1.215,1.053,1.017,1.834l0.007,0.069
			c-0.607,2.208-0.845,3.271-1.165,4.895c-0.238,1.063-0.531,2.27-0.913,3.971c-0.421,1.98-0.857,3.824-1.047,5.367
			c-0.257,1.551-0.339,2.804-0.317,3.703l0.014,0.137c0.083,0.822,0.304,1.631,0.77,2.137c0.316,0.385,0.756,0.616,1.578,0.532
			c4.318-0.438,6.788-8.167,8.536-13.468l0.048-0.211c0.265-0.788,1.053-1.214,1.842-0.948
			C1023.24,692.668,1023.667,693.457,1023.4,694.246z M1000.68,677.786c-0.041-0.411-0.151-0.814-0.317-1.075
			c-0.158-0.192-0.308-0.315-0.521-0.364l-0.068,0.008c-0.138,0.014-0.212-0.048-0.35-0.033c-0.342,0.034-0.603,0.201-0.787,0.427
			l-0.069,0.007c-0.185,0.226-0.287,0.583-0.32,0.933c-0.012,1.247,0.785,2.273,1.971,3.054c0.15-0.569,0.231-1.132,0.381-1.7
			C1000.696,678.615,1000.722,678.198,1000.68,677.786z"/>
		<path fill="#F9F7E9" d="M1050.99,691.447l-0.048,0.211c-1.952,6.014-4.866,14.827-10.966,15.446l-0.068,0.008l-0.069,0.007
			c-1.85,0.188-3.167-0.509-4.04-1.599c-0.631-0.767-1.009-1.766-1.252-2.78c-1.702,3.01-3.96,5.317-7.045,5.63l-0.069,0.008
			c-1.85,0.188-3.168-0.509-4.108-1.592c-0.797-1.027-1.203-2.301-1.343-3.673l-0.021-0.206c-0.111-1.097,0.018-2.564,0.324-4.327
			c0.245-1.686,0.605-3.592,1.095-5.581c0.246-0.996,0.722-3.121,1.416-5.822c0.839-3.338,1.833-7.179,2.781-10.806
			c0.198-0.783,0.986-1.21,1.768-1.012s1.207,0.985,1.009,1.768c-1.036,4.121-2.023,8.03-2.711,10.799
			c-0.64,2.559-1.193,4.622-1.432,5.686c-0.49,1.987-0.857,3.824-1.116,5.375c-0.19,1.543-0.339,2.803-0.249,3.694l0.015,0.137
			c0.083,0.822,0.303,1.632,0.703,2.144c0.316,0.385,0.823,0.609,1.645,0.526c4.249-0.431,6.787-8.167,8.536-13.468l-0.008-0.068
			c0.062-0.075,0.054-0.145,0.048-0.211c0.246-0.996,0.792-3.127,1.416-5.822c0.907-3.346,1.833-7.179,2.781-10.807
			c0.198-0.782,0.986-1.208,1.768-1.012c0.782,0.199,1.275,0.978,1.078,1.761c-1.104,4.129-2.092,8.037-2.78,10.807
			c-0.64,2.559-1.125,4.615-1.432,5.686l0.008,0.068c0.007,0.069-0.048,0.211-0.041,0.281c-0.436,1.844-0.81,3.613-1.013,5.019
			c-0.258,1.55-0.34,2.803-0.249,3.695l0.013,0.137c0.083,0.82,0.305,1.631,0.703,2.144c0.316,0.384,0.824,0.608,1.578,0.533
			l0.069-0.008c4.249-0.431,6.787-8.167,8.466-13.46l0.116-0.219c0.198-0.782,1.054-1.214,1.842-0.948
			C1050.83,689.869,1051.256,690.657,1050.99,691.447z"/>
		<path fill="#F9F7E9" d="M1078.532,688.652c-2.013,6.09-4.873,9.981-8.078,12.521c-3.272,2.549-6.835,3.601-10.276,3.814
			l-0.137,0.013l-0.069,0.008c-2.481,0.113-4.751-0.419-6.481-1.766c-1.803-1.411-2.993-3.574-3.237-6.665l-0.015-0.137
			l-0.007-0.069c-0.182-3.167,0.469-6.971,1.698-10.558c1.215-3.725,2.998-7.297,4.955-9.851c0.925-1.134,2.007-2.073,3.116-2.739
			c1.102-0.736,2.3-1.204,3.465-1.322l0.069-0.008l0.207-0.021l0.069-0.007c1.514-0.083,3.017,0.387,4.163,1.447
			c1.071,0.999,1.779,2.52,1.98,4.508c0.014,0.137,0.027,0.273,0.041,0.411c0.09,0.892-0.018,1.871-0.27,2.797
			c-0.182,0.919-0.579,1.79-1.044,2.668c-0.417,0.666-1.294,0.893-2.021,0.55c-0.665-0.417-0.893-1.293-0.551-2.02
			c0.426-0.598,0.636-1.242,0.779-1.879c0.211-0.645,0.279-1.345,0.216-1.962c-0.014-0.137-0.021-0.206-0.028-0.273
			c-0.125-1.233-0.496-2.164-1.099-2.658c-0.536-0.499-1.249-0.704-2.01-0.697l-0.207,0.022c-0.685,0.069-1.48,0.428-2.267,0.853
			c-0.774,0.565-1.602,1.273-2.273,2.17c-1.779,2.258-3.453,5.544-4.565,8.91c-1.051,3.292-1.677,6.68-1.529,9.504l0.014,0.137
			c0.155,2.2,0.931,3.713,2.125,4.562c1.133,0.923,2.764,1.312,4.553,1.199l0.137-0.014c2.886-0.225,5.983-1.093,8.741-3.242
			c2.759-2.149,5.311-5.662,7.044-11.102c0.273-0.718,1.061-1.146,1.842-0.948C1078.371,687.074,1078.736,687.938,1078.532,688.652z
			"/>
		<path fill="#F9F7E9" d="M1085.266,674.121c-0.49,1.989-2.093,8.036-3.62,14.146c-1.376,5.541-2.848,11.507-3.435,13.92
			c-0.191,0.852-0.978,1.275-1.752,1.147c-0.783-0.199-1.276-0.979-1.079-1.761c0.538-2.2,2.003-8.234,3.427-13.987l0.062-0.076
			c1.471-5.965,2.998-12.074,3.619-14.146l-0.007-0.069c0.485-2.058,0.674-2.908,0.934-3.765c0.382-1.7,0.777-3.264,0.96-4.183
			l0.292-1.205c0.294-1.208,0.675-2.908,1.214-5.11c0.197-0.78,0.985-1.207,1.766-1.011c0.782,0.199,1.276,0.981,1.079,1.761
			c-0.442,1.777-0.872,3.688-1.227,4.971c-0.096,0.426-0.129,0.775-0.286,1.276c-0.43,1.912-0.723,3.118-1.029,4.189l-0.865,3.758
			L1085.266,674.121z M1108.793,685.581c-0.955,2.866-2.114,6.447-3.819,9.457c-1.742,3.294-4.111,5.889-7.332,6.216
			c-1.576,0.16-2.729-0.279-3.71-1.078c-0.996-0.938-1.614-2.259-1.883-3.547l-0.007-0.069c-0.147-1.44-0.101-3.036-0.056-4.635
			c-0.002-1.384,0.058-2.845-0.068-4.079c-0.25-1.773-0.998-3.014-3.328-2.777c-0.48,0.049-1.007,0.309-1.527,0.639
			c-0.199,0.09-0.451,0.322-0.644,0.481l-0.869,0.988c-0.315,0.309-0.713,0.489-1.13,0.461c0,0-0.069,0.007-0.137,0.014
			c-0.008-0.069-0.074-0.062-0.145-0.055c0,0-0.069,0.007-0.074-0.063c-0.069,0.007-0.069,0.007-0.069,0.007
			s-0.069,0.008-0.076-0.06c-0.143-0.056-0.288-0.111-0.439-0.234c-0.535-0.499-0.625-1.391-0.202-1.987
			c0.315-0.309,0.624-0.687,1.067-1.079l13.865-15.532c0.562-0.611,1.459-0.633,2.07-0.07c0.605,0.491,0.633,1.459,0.133,1.993
			l-10.389,11.58c3.276,0.221,4.405,2.46,4.771,5.4c0.14,1.372,0.093,2.968,0.04,4.498c0.01,1.452-0.057,2.845,0.062,4.009
			l0.069-0.008c0.076,0.755,0.427,1.481,0.887,1.919c0.377,0.308,0.81,0.472,1.495,0.402c2.056-0.209,3.725-2.179,5.066-4.668
			c1.517-2.785,2.685-6.297,3.585-9.019c0.267-0.788,1.054-1.214,1.842-0.949C1108.628,683.937,1108.991,684.799,1108.793,685.581z"
			/>
	</g>
	<line fill="none" stroke="#F9F7E9" stroke-miterlimit="10" x1="886.878" y1="742.956" x2="1086.043" y2="722.748"/>
	<line fill="none" stroke="#F9F7E9" stroke-miterlimit="10" x1="878.529" y1="660.682" x2="1077.694" y2="640.473"/>
	<g>
		<path fill="#F9F7E9" d="M945.696,764.207c-0.743,0.076-1.403-0.125-1.987-0.6c-0.583-0.477-0.912-1.084-0.987-1.825l-0.967-9.53
			c-0.075-0.743,0.127-1.404,0.601-1.987c0.477-0.583,1.084-0.912,1.825-0.987c0.74-0.076,1.404,0.125,1.987,0.6
			c0.583,0.477,0.912,1.085,0.987,1.825l0.967,9.53c0.075,0.743-0.127,1.404-0.601,1.987S946.437,764.132,945.696,764.207z
			 M945.345,751.887c-0.06-0.593-0.387-0.859-0.979-0.8c-0.573,0.058-0.828,0.385-0.768,0.977l0.967,9.53
			c0.058,0.573,0.374,0.829,0.946,0.771c0.593-0.061,0.859-0.376,0.802-0.948L945.345,751.887z"/>
		<path fill="#F9F7E9" d="M956.179,763.143l-0.738-7.275l-1.072,7.46l-1.683,0.17l-2.549-7.09l0.738,7.275l-1.843,0.186
			l-1.515-14.93l1.771-0.18l3.835,10.671l1.614-11.223l1.771-0.18l1.515,14.93L956.179,763.143z"/>
		<path fill="#F9F7E9" d="M963.461,762.403l-0.928-3.532l-1.863,0.189l-0.24,3.652l-1.838,0.186l0.995-15.184l1.715-0.174
			l3.993,14.679L963.461,762.403z M961.008,753.389l-0.218,3.833l1.227-0.128L961.008,753.389z"/>
		<path fill="#F9F7E9" d="M969.49,761.792l-0.664-6.545l-1.749,0.177l0.664,6.545l-1.842,0.188l-1.515-14.931l1.842-0.186
			l0.664,6.543l1.749-0.177l-0.664-6.543l1.81-0.185l1.515,14.931L969.49,761.792z"/>
		<path fill="#F9F7E9" d="M976.74,761.057l-0.928-3.534l-1.863,0.189l-0.24,3.652l-1.838,0.188l0.995-15.185l1.715-0.174
			l3.993,14.679L976.74,761.057z M974.287,752.04l-0.219,3.833l1.227-0.127L974.287,752.04z"/>
		<path fill="#F9F7E9" d="M979.339,762.398l-0.129-1.271c0.317-0.032,0.498-0.158,0.539-0.376l-0.57,0.058l-0.227-2.223l2.226-0.226
			l0.128,1.271c0.071,0.698-0.061,1.3-0.394,1.804C980.56,762.005,980.038,762.327,979.339,762.398z"/>
		<path fill="#F9F7E9" d="M988.867,759.825l-2.549-7.09l0.738,7.275l-1.843,0.188l-1.515-14.931l1.739-0.176l2.592,7.122
			l-0.74-7.311l1.811-0.183l1.515,14.93L988.867,759.825z"/>
		<path fill="#F9F7E9" d="M991.248,759.584l-1.515-14.93l4.449-0.451l0.183,1.81l-2.606,0.265l0.48,4.734l2.606-0.265l0.188,1.842
			l-2.606,0.265l0.477,4.703l2.606-0.265l0.188,1.842L991.248,759.584z"/>
		<path fill="#F9F7E9" d="M999.031,758.795l-2.701,0.275l-1.515-14.931l2.701-0.273c0.74-0.076,1.403,0.125,1.987,0.6
			c0.583,0.477,0.912,1.085,0.986,1.825l0.303,2.986c0.068,0.678-0.093,1.293-0.487,1.847c0.497,0.464,0.778,1.034,0.848,1.711
			l0.302,2.986c0.076,0.743-0.125,1.404-0.6,1.987C1000.381,758.39,999.772,758.72,999.031,758.795z M998.68,746.475
			c-0.06-0.593-0.388-0.859-0.981-0.8l-0.858,0.087l0.48,4.734l0.858-0.087c0.593-0.061,0.862-0.376,0.803-0.948L998.68,746.475z
			 M999.344,753.018c-0.058-0.573-0.384-0.828-0.976-0.768l-0.858,0.087l0.477,4.703l0.858-0.087
			c0.593-0.061,0.862-0.376,0.803-0.948L999.344,753.018z"/>
		<path fill="#F9F7E9" d="M1005.956,758.091l-0.577-5.686c-0.058-0.573-0.385-0.828-0.977-0.767l-0.857,0.087l0.664,6.545
			l-1.843,0.186l-1.515-14.93l2.7-0.275c0.74-0.076,1.404,0.125,1.987,0.6c0.583,0.477,0.912,1.085,0.987,1.825l0.303,2.986
			c0.068,0.678-0.094,1.294-0.488,1.848c0.497,0.464,0.78,1.033,0.848,1.71l0.577,5.688L1005.956,758.091z M1004.714,745.861
			c-0.06-0.593-0.387-0.859-0.979-0.799l-0.858,0.087l0.48,4.733l0.857-0.087c0.593-0.06,0.862-0.376,0.803-0.948L1004.714,745.861z
			"/>
		<path fill="#F9F7E9" d="M1013.206,757.356l-0.928-3.534l-1.863,0.19l-0.24,3.652l-1.838,0.186l0.996-15.185l1.714-0.174
			l3.993,14.68L1013.206,757.356z M1010.754,748.339l-0.219,3.833l1.227-0.127L1010.754,748.339z"/>
		<path fill="#F9F7E9" d="M1018.345,756.835c-0.743,0.076-1.404-0.125-1.987-0.601c-0.583-0.475-0.912-1.084-0.987-1.825
			l-0.153-1.524l1.842-0.188l0.156,1.523c0.058,0.573,0.374,0.83,0.946,0.773c0.591-0.061,0.859-0.378,0.802-0.949l-0.146-1.43
			c-0.071-0.698-0.769-1.633-2.099-2.804c-1.327-1.171-2.033-2.179-2.119-3.027l-0.195-1.905c-0.075-0.74,0.127-1.403,0.601-1.987
			c0.475-0.583,1.084-0.912,1.825-0.986c0.74-0.076,1.403,0.125,1.987,0.6c0.583,0.475,0.912,1.084,0.986,1.825l0.152,1.493
			l-1.811,0.183l-0.151-1.493c-0.061-0.593-0.388-0.858-0.979-0.799c-0.573,0.058-0.828,0.392-0.766,1.001l0.148,1.469
			c0.068,0.674,0.761,1.599,2.08,2.773c1.317,1.175,2.018,2.183,2.103,3.024l0.191,1.895c0.076,0.738-0.127,1.396-0.601,1.976
			C1019.694,756.431,1019.085,756.759,1018.345,756.835z"/>
		<path fill="#F9F7E9" d="M1024.825,756.177l-1.975-3.33l0.355,3.494l-1.843,0.186l-1.515-14.93l1.843-0.188l0.355,3.494
			l1.266-3.659l2.136-0.217l-2.739,7.82l4.255,7.109L1024.825,756.177z"/>
		<path fill="#F9F7E9" d="M1032.201,755.429l-0.927-3.534l-1.865,0.19l-0.24,3.652l-1.835,0.186l0.995-15.185l1.715-0.175
			l3.993,14.68L1032.201,755.429z M1029.749,746.413l-0.219,3.833l1.227-0.127L1029.749,746.413z"/>
	</g>
	<rect x="1133.503" y="640.473" fill="#4F5169" width="313.111" height="54.977"/>
	<rect x="654.057" y="430.345" fill="#FFFFFF" width="365.865" height="191.45"/>
	<g>
		<path fill="#00A79F" d="M683.448,455.787c16.88,0,30.564-12.52,30.564-27.964h-61.128
			C652.884,443.268,666.568,455.787,683.448,455.787z"/>
	</g>
	<g>
		<path fill="#00A79F" d="M744.576,455.787c16.88,0,30.564-12.52,30.564-27.964h-61.128
			C714.012,443.268,727.696,455.787,744.576,455.787z"/>
	</g>
	<g>
		<path fill="#00A79F" d="M805.704,455.787c16.88,0,30.564-12.52,30.564-27.964H775.14
			C775.14,443.268,788.824,455.787,805.704,455.787z"/>
	</g>
	<g>
		<path fill="#00A79F" d="M864.44,455.787c16.88,0,30.564-12.52,30.564-27.964h-61.128
			C833.876,443.268,847.56,455.787,864.44,455.787z"/>
	</g>
	<g>
		<path fill="#00A79F" d="M925.568,455.787c16.88,0,30.564-12.52,30.564-27.964h-61.128
			C895.004,443.268,908.688,455.787,925.568,455.787z"/>
	</g>
	<g>
		<path fill="#00A79F" d="M987.097,455.787c16.88,0,30.564-12.52,30.564-27.964h-61.128
			C956.533,443.268,970.217,455.787,987.097,455.787z"/>
	</g>
	<rect x="672.003" y="555.006" fill="#E6E7E8" width="79.407" height="62.712"/>
	<g>
		<path fill="#E6E7E8" d="M786.381,617.718h-22.482v-48.586c0-4.551,3.69-8.242,8.242-8.242h5.999c4.551,0,8.242,3.69,8.242,8.242
			v48.586H786.381z"/>
		<path fill="#E6E7E8" d="M784.834,560.367c0,2.961-2.468,5.361-5.513,5.361h-8.376c-3.045,0-5.513-2.4-5.513-5.361l0,0
			c0-2.96,2.468-5.361,5.513-5.361h8.376C782.366,555.006,784.834,557.406,784.834,560.367L784.834,560.367z"/>
		<polygon fill="#E6E7E8" points="772.801,557.676 775.133,543.456 777.466,557.676 		"/>
	</g>
	<circle fill="#404041" cx="1474.831" cy="715.577" r="7.169"/>
	<ellipse fill="#404041" cx="788.345" cy="809.052" rx="21.384" ry="57.73"/>
	<ellipse fill="#404041" cx="1190.815" cy="809.052" rx="21.384" ry="57.73"/>
</g>
<path opacity="0.09" fill="#362027" enable-background="new    " d="M460.974,822.501c0-14.479-11.204-26.217-25.026-26.217
	c-7.276,0-13.807,3.273-18.379,8.467c-3.046-3.535-7.41-5.798-12.313-5.798c-9.192,0-16.644,7.807-16.644,17.437
	c0,3.512,1.011,6.769,2.717,9.506c-2.671,4.474-4.24,9.745-4.24,15.411c0,16.089,12.45,29.132,27.808,29.132
	c9.396,0,17.686-4.896,22.72-12.37c3.597,9.856,12.685,16.868,23.358,16.868c13.821,0,25.026-11.738,25.026-26.217
	C486,834.239,474.796,822.501,460.974,822.501z"/>
</svg>
