<?xml version="1.0" encoding="utf-8"?>
<!-- Generator: Adobe Illustrator 19.1.0, SVG Export Plug-In . SVG Version: 6.00 Build 0)  -->
<svg version="1.1" id="Layer_1" xmlns="http://www.w3.org/2000/svg" xmlns:xlink="http://www.w3.org/1999/xlink" x="0px" y="0px"
	 viewBox="0 0 72 72" enable-background="new 0 0 72 72" xml:space="preserve">
<g>
	<path fill="#363636" d="M67.834,18.701c-2.236,0.993-4.639,1.66-7.159,1.963c2.573-1.539,4.548-3.979,5.48-6.878
		c-2.406,1.421-5.074,2.456-7.909,3.017c-2.274-2.418-5.51-3.93-9.095-3.93c-6.878,0-12.457,5.567-12.457,12.438
		c0,0.97,0.11,1.925,0.322,2.835c-10.353-0.523-19.532-5.472-25.679-12.991c-1.069,1.834-1.686,3.968-1.686,6.245
		c0,4.316,2.202,8.121,5.544,10.35c-2.043-0.061-3.964-0.625-5.643-1.558c-0.004,0.053-0.004,0.102-0.004,0.159
		c0,6.026,4.298,11.051,9.997,12.191c-1.046,0.284-2.149,0.436-3.286,0.436c-0.8,0-1.584-0.076-2.342-0.224
		c1.584,4.942,6.185,8.538,11.638,8.633c-4.263,3.339-9.637,5.328-15.473,5.328c-1.004,0-1.997-0.061-2.971-0.178
		c5.514,3.528,12.063,5.59,19.096,5.59c22.913,0,35.441-18.949,35.441-35.377c0-0.538-0.008-1.076-0.03-1.611
		C64.052,23.385,66.163,21.198,67.834,18.701z"/>
</g>
</svg>
