<?xml version="1.0" encoding="utf-8"?>
<!-- Generator: Adobe Illustrator 19.1.0, SVG Export Plug-In . SVG Version: 6.00 Build 0)  -->
<svg version="1.1" id="Layer_1" xmlns="http://www.w3.org/2000/svg" xmlns:xlink="http://www.w3.org/1999/xlink" x="0px" y="0px"
	 viewBox="-336 294 190 277" style="enable-background:new -336 294 190 277;" xml:space="preserve">
<style type="text/css">
	.st0{fill:#E6E7E8;}
	.st1{fill:#505169;}
	.st2{fill:#00A79F;}
	.st3{fill:#FFFFFF;}
</style>
<ellipse class="st0" cx="-234.8" cy="552.5" rx="30.5" ry="6.8"/>
<rect x="-241.8" y="305.7" class="st1" width="11.8" height="246.8"/>
<polygon class="st2" points="-156.6,366.3 -306.2,366.3 -325.4,348.5 -306.2,333 -156.6,333 "/>
<g>
	<path class="st3" d="M-293.3,355l1.9-0.2v-9.1l-1.9,0v-1l3.5-0.8v10.8l1.9,0.2v1h-5.4V355z"/>
	<path class="st3" d="M-286.5,356v-1.1l4-4.4c0.7-0.8,1.2-1.4,1.4-1.9c0.3-0.5,0.4-0.9,0.4-1.4c0-0.6-0.2-1.1-0.5-1.5
		s-0.8-0.6-1.4-0.6c-0.8,0-1.5,0.2-1.8,0.6c-0.4,0.4-0.6,1-0.6,1.8h-1.6l0,0c0-1,0.3-1.9,1-2.6c0.7-0.7,1.7-1.1,3-1.1
		c1.1,0,2,0.3,2.6,1c0.6,0.6,1,1.4,1,2.4c0,0.7-0.2,1.3-0.6,2c-0.4,0.7-0.9,1.4-1.6,2.1l-3.2,3.5l0,0h4.3l0.1-1.4h1.4v2.7H-286.5z"
		/>
	<path class="st3" d="M-274.3,344.9v2.2h1.7v1.2h-1.7v5.5c0,0.4,0.1,0.7,0.3,0.9c0.2,0.2,0.4,0.3,0.7,0.3c0.1,0,0.3,0,0.5,0
		c0.2,0,0.3-0.1,0.5-0.1l0.2,1.1c-0.2,0.1-0.4,0.2-0.7,0.2c-0.3,0.1-0.6,0.1-0.9,0.1c-0.7,0-1.2-0.2-1.6-0.6c-0.4-0.4-0.6-1-0.6-1.9
		v-5.5h-1.4v-1.2h1.4v-2.2H-274.3z"/>
	<path class="st3" d="M-271.1,355l1.4-0.2v-10.4l-1.4-0.2v-1.1h3v5.2c0.3-0.4,0.7-0.8,1.1-1c0.4-0.2,0.9-0.4,1.5-0.4
		c1,0,1.7,0.3,2.2,0.9c0.5,0.6,0.8,1.5,0.8,2.7v4.4l1.4,0.2v1h-4.3v-1l1.4-0.2v-4.4c0-0.7-0.2-1.3-0.5-1.6c-0.3-0.4-0.8-0.5-1.4-0.5
		c-0.4,0-0.9,0.1-1.2,0.3c-0.4,0.2-0.7,0.5-0.9,0.9v5.4l1.4,0.2v1h-4.3V355z"/>
	<path class="st3" d="M-255.8,352.8c0-0.7,0.2-1.3,0.6-1.8c0.4-0.5,1-1,1.7-1.5c-0.4-0.5-0.8-1-1-1.5c-0.2-0.4-0.3-0.9-0.3-1.3
		c0-0.9,0.3-1.7,0.8-2.2c0.5-0.5,1.3-0.8,2.2-0.8c0.9,0,1.6,0.3,2.1,0.8c0.5,0.5,0.8,1.1,0.8,1.8c0,0.5-0.1,1-0.4,1.4
		c-0.3,0.4-0.7,0.8-1.3,1.2l-0.9,0.7l2.8,3.4c0.2-0.4,0.4-0.8,0.5-1.2c0.1-0.4,0.2-0.9,0.2-1.4h1.5c0,0.7-0.1,1.4-0.3,2
		c-0.2,0.6-0.5,1.2-0.9,1.7l1.5,1.9l0,0h-1.9l-0.7-0.8c-0.4,0.3-0.9,0.6-1.5,0.8c-0.5,0.2-1.1,0.3-1.7,0.3c-1.2,0-2.2-0.3-2.9-1
		C-255.5,354.6-255.8,353.8-255.8,352.8z M-251.9,354.9c0.4,0,0.8-0.1,1.2-0.2c0.4-0.1,0.8-0.3,1.1-0.6l-3-3.6l-0.3,0.2
		c-0.5,0.4-0.8,0.7-1,1.1c-0.2,0.3-0.2,0.7-0.2,0.9c0,0.6,0.2,1.1,0.6,1.5C-253.2,354.7-252.6,354.9-251.9,354.9z M-253.1,346.7
		c0,0.3,0.1,0.6,0.2,0.9c0.1,0.3,0.4,0.7,0.7,1l1.1-0.8c0.3-0.2,0.5-0.4,0.6-0.7c0.1-0.2,0.2-0.5,0.2-0.8c0-0.3-0.1-0.6-0.4-0.9
		c-0.3-0.3-0.6-0.4-1.1-0.4c-0.4,0-0.8,0.2-1,0.5C-253,345.8-253.1,346.2-253.1,346.7z"/>
	<path class="st3" d="M-232.2,343.9v1.1l-1.4,0.2v7.5c0,1.1-0.3,1.9-1,2.6c-0.7,0.6-1.6,1-2.7,1c-1.2,0-2.1-0.3-2.8-0.9
		c-0.7-0.6-1-1.4-1-2.6l0-0.1h1.6c0,0.7,0.2,1.3,0.6,1.7c0.4,0.4,0.9,0.6,1.6,0.6c0.6,0,1.1-0.2,1.5-0.6c0.4-0.4,0.6-1,0.6-1.6v-7.5
		l-1.4-0.2v-1.1h3H-232.2z"/>
	<path class="st3" d="M-225.1,356c-0.1-0.2-0.1-0.5-0.1-0.7c0-0.2,0-0.4-0.1-0.6c-0.3,0.4-0.7,0.7-1.2,1c-0.5,0.3-1,0.4-1.5,0.4
		c-0.9,0-1.6-0.2-2.1-0.7c-0.5-0.5-0.7-1.1-0.7-1.9c0-0.9,0.3-1.5,1-2c0.7-0.5,1.6-0.7,2.8-0.7h1.7v-1c0-0.5-0.2-0.9-0.5-1.2
		c-0.3-0.3-0.8-0.5-1.4-0.5c-0.4,0-0.8,0.1-1.1,0.2c-0.3,0.1-0.6,0.2-0.8,0.4l-0.2,0.9h-1.3V348c0.4-0.3,0.9-0.6,1.5-0.8
		c0.6-0.2,1.2-0.3,1.9-0.3c1,0,1.8,0.3,2.5,0.8c0.6,0.5,0.9,1.3,0.9,2.2v4.3c0,0.1,0,0.2,0,0.3c0,0.1,0,0.2,0,0.3l0.7,0.1v1H-225.1z
		 M-227.7,354.8c0.5,0,1-0.1,1.5-0.4c0.4-0.3,0.8-0.6,1-0.9V352h-1.7c-0.7,0-1.2,0.2-1.6,0.5c-0.4,0.3-0.6,0.7-0.6,1.1
		c0,0.4,0.1,0.7,0.4,0.9C-228.6,354.7-228.2,354.8-227.7,354.8z"/>
	<path class="st3" d="M-217.6,354.9c0.5,0,1-0.2,1.4-0.5c0.4-0.3,0.6-0.7,0.6-1.2h1.5l0,0c0,0.8-0.3,1.5-1,2.1
		c-0.7,0.6-1.6,0.9-2.5,0.9c-1.3,0-2.3-0.4-3-1.3c-0.7-0.9-1-1.9-1-3.2v-0.3c0-1.3,0.3-2.3,1-3.2c0.7-0.9,1.7-1.3,3-1.3
		c0.7,0,1.4,0.1,1.9,0.4s1,0.6,1.4,1l0.1,2h-1.3l-0.4-1.4c-0.2-0.2-0.4-0.3-0.7-0.5c-0.3-0.1-0.6-0.2-1-0.2c-0.9,0-1.5,0.3-1.8,0.9
		c-0.4,0.6-0.6,1.4-0.6,2.3v0.3c0,0.9,0.2,1.7,0.5,2.3C-219,354.6-218.4,354.9-217.6,354.9z"/>
	<path class="st3" d="M-212.6,344.1v-1.1h3v7.5h1l1.9-2.4l-0.8-0.1v-1.1h3.8v1.1l-1.1,0.2l-2.4,2.8l2.9,3.6l1,0.2v1h-3.7v-1l0.8-0.1
		l-2.4-3h-1.1v2.9l1.4,0.2v1h-4.3v-1l1.4-0.2v-10.4L-212.6,344.1z"/>
	<path class="st3" d="M-195.2,349.9h-1.2l-0.3-1.1c-0.2-0.2-0.4-0.3-0.8-0.5c-0.3-0.1-0.6-0.2-1-0.2c-0.6,0-1,0.1-1.3,0.4
		c-0.3,0.3-0.4,0.6-0.4,0.9c0,0.4,0.1,0.6,0.4,0.8c0.2,0.2,0.8,0.4,1.5,0.5c1.1,0.2,2,0.6,2.5,1c0.6,0.4,0.8,1,0.8,1.7
		c0,0.8-0.3,1.4-1,1.9c-0.6,0.5-1.5,0.7-2.5,0.7c-0.7,0-1.3-0.1-1.8-0.2c-0.5-0.2-1-0.4-1.5-0.7l0-2.1h1.2l0.3,1.2
		c0.2,0.2,0.4,0.3,0.8,0.4c0.3,0.1,0.7,0.1,1,0.1c0.6,0,1-0.1,1.4-0.4c0.3-0.2,0.5-0.5,0.5-0.9c0-0.4-0.1-0.7-0.4-0.9
		c-0.3-0.2-0.8-0.4-1.6-0.6c-1.1-0.2-1.9-0.6-2.5-1c-0.6-0.4-0.8-1-0.8-1.7c0-0.7,0.3-1.4,0.9-1.9c0.6-0.5,1.4-0.8,2.4-0.8
		c0.7,0,1.3,0.1,1.8,0.3c0.5,0.2,1,0.4,1.4,0.7L-195.2,349.9z"/>
	<path class="st3" d="M-193.4,351.5c0-1.3,0.4-2.4,1.1-3.3c0.7-0.9,1.7-1.3,2.9-1.3c1.2,0,2.2,0.4,2.9,1.3c0.7,0.9,1.1,2,1.1,3.3
		v0.2c0,1.3-0.4,2.4-1.1,3.3c-0.7,0.9-1.7,1.3-2.9,1.3c-1.2,0-2.2-0.4-2.9-1.3c-0.7-0.9-1.1-1.9-1.1-3.3V351.5z M-191.8,351.6
		c0,1,0.2,1.7,0.6,2.4c0.4,0.6,1,0.9,1.8,0.9c0.8,0,1.4-0.3,1.8-0.9c0.4-0.6,0.6-1.4,0.6-2.4v-0.2c0-0.9-0.2-1.7-0.6-2.3
		c-0.4-0.6-1-0.9-1.8-0.9c-0.8,0-1.4,0.3-1.8,0.9c-0.4,0.6-0.6,1.4-0.6,2.3V351.6z"/>
	<path class="st3" d="M-184.1,355l1.4-0.2v-6.4l-1.4-0.2v-1.1h2.8l0.1,1.3c0.3-0.5,0.7-0.8,1.1-1.1c0.5-0.3,1-0.4,1.5-0.4
		c1,0,1.7,0.3,2.3,0.9c0.5,0.6,0.8,1.4,0.8,2.6v4.4l1.4,0.2v1h-4.3v-1l1.4-0.2v-4.4c0-0.8-0.2-1.4-0.5-1.7c-0.3-0.3-0.8-0.5-1.4-0.5
		c-0.5,0-0.9,0.1-1.2,0.3c-0.4,0.2-0.7,0.5-0.9,0.9v5.3l1.4,0.2v1h-4.3V355z"/>
</g>
</svg>
