<?xml version="1.0" encoding="utf-8"?>
<!-- Generator: Adobe Illustrator 19.1.0, SVG Export Plug-In . SVG Version: 6.00 Build 0)  -->
<svg version="1.1" id="Layer_1" xmlns="http://www.w3.org/2000/svg" xmlns:xlink="http://www.w3.org/1999/xlink" x="0px" y="0px"
	 viewBox="94 42 190 277" style="enable-background:new 94 42 190 277;" xml:space="preserve">
<style type="text/css">
	.st0{fill:#E6E7E8;}
	.st1{fill:#505169;}
	.st2{fill:#00A79F;}
	.st3{enable-background:new    ;}
	.st4{fill:#FFFFFF;}
</style>
<g>
	<ellipse class="st0" cx="191.9" cy="304.4" rx="30.5" ry="6.8"/>
	<rect x="184.9" y="57.6" class="st1" width="11.8" height="246.8"/>
	<g>
		<polygon class="st2" points="270,118.2 120.4,118.2 101.3,100.4 120.4,84.9 270,84.9 		"/>
		<g>
			<g class="st3">
				<path class="st4" d="M135.8,106.9l1.9-0.2v-9.2l-1.9,0v-1l3.6-0.8v11l1.9,0.2v1.1h-5.5V106.9z"/>
				<path class="st4" d="M142.9,106.9l1.9-0.2v-9.2l-1.9,0v-1l3.6-0.8v11l1.9,0.2v1.1h-5.5V106.9z"/>
				<path class="st4" d="M152.7,96.6v2.2h1.7v1.2h-1.7v5.6c0,0.4,0.1,0.7,0.3,0.9c0.2,0.2,0.4,0.3,0.7,0.3c0.1,0,0.3,0,0.5,0
					c0.2,0,0.3-0.1,0.5-0.1l0.2,1.1c-0.2,0.1-0.4,0.2-0.7,0.2c-0.3,0.1-0.6,0.1-0.9,0.1c-0.7,0-1.2-0.2-1.6-0.6
					c-0.4-0.4-0.6-1.1-0.6-1.9v-5.6h-1.4v-1.2h1.4v-2.2H152.7z"/>
				<path class="st4" d="M155.9,106.9l1.4-0.2V96.1l-1.4-0.2v-1.1h3.1v5.3c0.3-0.4,0.7-0.8,1.2-1c0.5-0.2,1-0.4,1.5-0.4
					c1,0,1.7,0.3,2.3,0.9c0.5,0.6,0.8,1.5,0.8,2.7v4.4l1.4,0.2v1.1h-4.4v-1.1l1.4-0.2v-4.5c0-0.8-0.2-1.3-0.5-1.7
					c-0.3-0.4-0.8-0.5-1.5-0.5c-0.5,0-0.9,0.1-1.3,0.3c-0.4,0.2-0.7,0.5-0.9,0.9v5.5l1.4,0.2v1.1h-4.4V106.9z"/>
				<path class="st4" d="M171.6,104.7c0-0.7,0.2-1.3,0.6-1.8c0.4-0.5,1-1,1.8-1.6c-0.4-0.6-0.8-1.1-1-1.5c-0.2-0.4-0.3-0.9-0.3-1.4
					c0-1,0.3-1.7,0.8-2.2c0.6-0.5,1.3-0.8,2.3-0.8c0.9,0,1.6,0.3,2.2,0.8c0.6,0.5,0.8,1.1,0.8,1.9c0,0.6-0.1,1-0.4,1.4
					c-0.3,0.4-0.7,0.8-1.3,1.2l-0.9,0.7l2.9,3.5c0.2-0.4,0.4-0.8,0.5-1.2c0.1-0.4,0.2-0.9,0.2-1.4h1.5c0,0.7-0.1,1.4-0.3,2.1
					s-0.5,1.2-1,1.7l1.6,1.9l0,0h-1.9l-0.7-0.9c-0.5,0.3-1,0.6-1.5,0.8c-0.5,0.2-1.1,0.3-1.7,0.3c-1.2,0-2.2-0.3-2.9-1
					C171.9,106.5,171.6,105.7,171.6,104.7z M175.6,106.9c0.4,0,0.8-0.1,1.2-0.2c0.4-0.1,0.8-0.3,1.1-0.6l-3.1-3.7l-0.3,0.2
					c-0.5,0.4-0.9,0.8-1,1.1c-0.2,0.4-0.3,0.7-0.3,0.9c0,0.6,0.2,1.2,0.6,1.6C174.2,106.7,174.8,106.9,175.6,106.9z M174.3,98.4
					c0,0.3,0.1,0.6,0.2,0.9c0.2,0.3,0.4,0.7,0.7,1.1l1.2-0.8c0.3-0.2,0.5-0.4,0.7-0.7c0.1-0.3,0.2-0.5,0.2-0.8
					c0-0.3-0.1-0.6-0.4-0.9c-0.3-0.3-0.6-0.4-1.1-0.4c-0.5,0-0.8,0.2-1.1,0.5C174.4,97.6,174.3,98,174.3,98.4z"/>
				<path class="st4" d="M195.7,95.6v1.1l-1.4,0.2v7.6c0,1.1-0.3,2-1,2.6c-0.7,0.6-1.6,1-2.7,1c-1.2,0-2.1-0.3-2.8-0.9
					c-0.7-0.6-1-1.5-1-2.6l0-0.1h1.6c0,0.8,0.2,1.3,0.6,1.7c0.4,0.4,0.9,0.6,1.6,0.6c0.6,0,1.1-0.2,1.5-0.6c0.4-0.4,0.6-1,0.6-1.7
					V97l-1.4-0.2v-1.1h3.1H195.7z"/>
				<path class="st4" d="M202.9,108c-0.1-0.2-0.1-0.5-0.1-0.7c0-0.2,0-0.4-0.1-0.6c-0.3,0.4-0.7,0.8-1.2,1c-0.5,0.3-1,0.4-1.5,0.4
					c-1,0-1.7-0.2-2.2-0.7c-0.5-0.5-0.7-1.1-0.7-2c0-0.9,0.4-1.5,1.1-2c0.7-0.5,1.7-0.7,2.9-0.7h1.7v-1.1c0-0.5-0.2-1-0.5-1.3
					c-0.3-0.3-0.8-0.5-1.4-0.5c-0.4,0-0.8,0.1-1.1,0.2c-0.3,0.1-0.6,0.3-0.8,0.4l-0.2,1h-1.3v-1.8c0.4-0.3,0.9-0.6,1.5-0.8
					c0.6-0.2,1.2-0.3,1.9-0.3c1,0,1.9,0.3,2.5,0.8c0.6,0.5,1,1.3,1,2.3v4.4c0,0.1,0,0.2,0,0.3c0,0.1,0,0.2,0,0.3l0.7,0.1v1.1H202.9z
					 M200.3,106.8c0.6,0,1.1-0.1,1.5-0.4s0.8-0.6,1-1v-1.5H201c-0.7,0-1.2,0.2-1.6,0.5c-0.4,0.3-0.6,0.7-0.6,1.2
					c0,0.4,0.1,0.7,0.4,0.9S199.8,106.8,200.3,106.8z"/>
				<path class="st4" d="M210.6,106.9c0.6,0,1-0.2,1.5-0.5c0.4-0.3,0.6-0.8,0.6-1.3h1.5l0,0.1c0,0.8-0.3,1.5-1.1,2.1
					c-0.7,0.6-1.6,0.9-2.6,0.9c-1.3,0-2.4-0.4-3.1-1.3c-0.7-0.9-1.1-2-1.1-3.3v-0.4c0-1.3,0.4-2.4,1.1-3.3c0.7-0.9,1.7-1.3,3.1-1.3
					c0.7,0,1.4,0.1,2,0.4c0.6,0.2,1.1,0.6,1.5,1l0.1,2h-1.3l-0.4-1.4c-0.2-0.2-0.5-0.3-0.8-0.5c-0.3-0.1-0.7-0.2-1.1-0.2
					c-0.9,0-1.5,0.3-1.9,0.9s-0.6,1.4-0.6,2.3v0.4c0,0.9,0.2,1.7,0.6,2.3C209.1,106.5,209.8,106.9,210.6,106.9z"/>
				<path class="st4" d="M215.6,95.8v-1.1h3.1v7.7h1.1l2-2.4l-0.8-0.1v-1.1h3.8v1.1l-1.1,0.2l-2.4,2.9l2.9,3.7l1,0.2v1.1h-3.8v-1.1
					l0.9-0.1l-2.4-3.1h-1.1v2.9l1.4,0.2v1.1h-4.4v-1.1l1.4-0.2V96.1L215.6,95.8z"/>
				<path class="st4" d="M233.4,101.7h-1.3l-0.3-1.1c-0.2-0.2-0.5-0.3-0.8-0.5s-0.7-0.2-1-0.2c-0.6,0-1,0.1-1.3,0.4
					c-0.3,0.3-0.4,0.6-0.4,0.9c0,0.4,0.1,0.6,0.4,0.9c0.3,0.2,0.8,0.4,1.6,0.6c1.2,0.2,2,0.6,2.6,1c0.6,0.4,0.8,1,0.8,1.7
					c0,0.8-0.3,1.5-1,2c-0.7,0.5-1.5,0.8-2.6,0.8c-0.7,0-1.3-0.1-1.9-0.2c-0.6-0.2-1-0.4-1.5-0.7l0-2.1h1.3l0.3,1.2
					c0.2,0.2,0.5,0.3,0.8,0.4c0.3,0.1,0.7,0.1,1,0.1c0.6,0,1.1-0.1,1.4-0.4c0.3-0.2,0.5-0.6,0.5-0.9c0-0.4-0.1-0.7-0.4-0.9
					c-0.3-0.2-0.8-0.4-1.6-0.6c-1.1-0.2-2-0.6-2.5-1c-0.6-0.4-0.8-1-0.8-1.7c0-0.7,0.3-1.4,1-1.9c0.6-0.5,1.5-0.8,2.5-0.8
					c0.7,0,1.3,0.1,1.9,0.3c0.6,0.2,1,0.4,1.4,0.8L233.4,101.7z"/>
				<path class="st4" d="M235.3,103.3c0-1.4,0.4-2.5,1.1-3.4c0.7-0.9,1.7-1.3,3-1.3c1.3,0,2.3,0.4,3,1.3c0.7,0.9,1.1,2,1.1,3.4v0.2
					c0,1.4-0.4,2.5-1.1,3.4c-0.7,0.9-1.7,1.3-3,1.3c-1.3,0-2.3-0.4-3-1.3c-0.7-0.9-1.1-2-1.1-3.4V103.3z M237,103.5
					c0,1,0.2,1.8,0.6,2.4c0.4,0.6,1,0.9,1.8,0.9c0.8,0,1.4-0.3,1.8-0.9c0.4-0.6,0.6-1.4,0.6-2.4v-0.2c0-1-0.2-1.8-0.6-2.4
					c-0.4-0.6-1-1-1.8-1c-0.8,0-1.4,0.3-1.8,1c-0.4,0.6-0.6,1.4-0.6,2.4V103.5z"/>
				<path class="st4" d="M244.8,106.9l1.4-0.2v-6.6l-1.4-0.2v-1.1h2.9l0.1,1.4c0.3-0.5,0.7-0.9,1.1-1.1c0.5-0.3,1-0.4,1.6-0.4
					c1,0,1.8,0.3,2.3,0.9c0.5,0.6,0.8,1.5,0.8,2.7v4.5l1.4,0.2v1.1h-4.4v-1.1l1.4-0.2v-4.4c0-0.8-0.2-1.4-0.5-1.7
					c-0.3-0.3-0.8-0.5-1.5-0.5c-0.5,0-0.9,0.1-1.3,0.3c-0.4,0.2-0.7,0.5-0.9,0.9v5.4l1.4,0.2v1.1h-4.4V106.9z"/>
			</g>
		</g>
	</g>
</g>
</svg>
