<?xml version="1.0" encoding="utf-8"?>
<!-- Generator: Adobe Illustrator 19.1.0, SVG Export Plug-In . SVG Version: 6.00 Build 0)  -->
<svg version="1.1" id="Layer_1" xmlns="http://www.w3.org/2000/svg" xmlns:xlink="http://www.w3.org/1999/xlink" x="0px" y="0px"
	 viewBox="-84 42 190 277" style="enable-background:new -84 42 190 277;" xml:space="preserve">
<style type="text/css">
	.st0{fill:#E6E7E8;}
	.st1{fill:#505169;}
	.st2{fill:#00A79F;}
	.st3{fill:#F9F7F8;}
</style>
<ellipse class="st0" cx="17.2" cy="300.5" rx="30.5" ry="6.8"/>
<rect x="10.2" y="53.7" class="st1" width="11.8" height="246.8"/>
<polygon class="st2" points="95.3,114.3 -54.2,114.3 -73.3,96.5 -54.2,81 95.3,81 "/>
<g>
	<path class="st3" d="M-31.8,103.8v-1.2l4.1-4.5c0.7-0.8,1.2-1.5,1.5-1.9c0.3-0.5,0.4-1,0.4-1.5c0-0.6-0.2-1.1-0.5-1.6
		c-0.4-0.4-0.8-0.6-1.4-0.6c-0.9,0-1.5,0.2-1.9,0.7s-0.6,1.1-0.6,1.9h-1.6l0-0.1c0-1.1,0.3-2,1.1-2.7c0.7-0.7,1.8-1.1,3.1-1.1
		c1.1,0,2,0.3,2.7,1c0.7,0.7,1,1.5,1,2.5c0,0.7-0.2,1.4-0.6,2c-0.4,0.7-1,1.4-1.7,2.2l-3.3,3.6l0,0h4.4l0.1-1.4h1.4v2.7H-31.8z"/>
	<path class="st3" d="M-22.1,103.8v-1.2l4.1-4.5c0.7-0.8,1.2-1.5,1.5-1.9c0.3-0.5,0.4-1,0.4-1.5c0-0.6-0.2-1.1-0.5-1.6
		c-0.4-0.4-0.8-0.6-1.4-0.6c-0.9,0-1.5,0.2-1.9,0.7s-0.6,1.1-0.6,1.9h-1.6l0-0.1c0-1.1,0.3-2,1.1-2.7c0.7-0.7,1.8-1.1,3.1-1.1
		c1.1,0,2,0.3,2.7,1c0.7,0.7,1,1.5,1,2.5c0,0.7-0.2,1.4-0.6,2c-0.4,0.7-1,1.4-1.7,2.2l-3.3,3.6l0,0h4.4l0.1-1.4h1.4v2.7H-22.1z"/>
	<path class="st3" d="M-12.8,102.8l1.4-0.2v-6.6l-1.4-0.2v-1.1h2.9l0.1,1.4c0.3-0.5,0.7-0.9,1.2-1.1s1-0.4,1.6-0.4
		c1,0,1.8,0.3,2.3,0.9c0.5,0.6,0.8,1.5,0.8,2.7v4.5l1.4,0.2v1.1H-7v-1.1l1.4-0.2V98c0-0.8-0.2-1.4-0.5-1.7s-0.8-0.5-1.5-0.5
		c-0.5,0-0.9,0.1-1.3,0.3c-0.4,0.2-0.7,0.6-0.9,1v5.4l1.4,0.2v1.1h-4.5V102.8z"/>
	<path class="st3" d="M4.8,102.7c-0.3,0.4-0.7,0.7-1.1,1S2.8,104,2.2,104c-1.1,0-2-0.4-2.6-1.2c-0.6-0.8-1-1.9-1-3.2v-0.2
		c0-1.5,0.3-2.7,1-3.6c0.6-0.9,1.5-1.4,2.7-1.4c0.5,0,1,0.1,1.4,0.3c0.4,0.2,0.8,0.5,1.1,0.9v-3.8l-1.4-0.2v-1.1h1.4h1.7v12l1.4,0.2
		v1.1H4.9L4.8,102.7z M0.3,99.6c0,0.9,0.2,1.7,0.6,2.2c0.4,0.6,1,0.8,1.8,0.8c0.5,0,0.9-0.1,1.3-0.3c0.3-0.2,0.6-0.5,0.8-1v-4.3
		c-0.2-0.4-0.5-0.7-0.8-0.9s-0.8-0.3-1.2-0.3c-0.8,0-1.4,0.3-1.8,1s-0.6,1.5-0.6,2.6V99.6z"/>
	<path class="st3" d="M13.3,100.5c0-0.7,0.2-1.3,0.6-1.8c0.4-0.5,1-1,1.8-1.6c-0.4-0.6-0.8-1.1-1-1.5c-0.2-0.4-0.3-0.9-0.3-1.4
		c0-1,0.3-1.7,0.8-2.2c0.6-0.5,1.3-0.8,2.3-0.8c0.9,0,1.6,0.3,2.2,0.8s0.8,1.1,0.8,1.9c0,0.6-0.1,1-0.4,1.4
		c-0.3,0.4-0.7,0.8-1.3,1.2l-0.9,0.7l2.9,3.5c0.2-0.4,0.4-0.8,0.5-1.2c0.1-0.4,0.2-0.9,0.2-1.4H23c0,0.7-0.1,1.4-0.3,2.1
		s-0.5,1.2-1,1.7l1.6,1.9l0,0h-2l-0.7-0.9c-0.5,0.3-1,0.6-1.5,0.8c-0.6,0.2-1.1,0.3-1.7,0.3c-1.2,0-2.2-0.3-2.9-1
		C13.6,102.4,13.3,101.5,13.3,100.5z M17.3,102.7c0.4,0,0.8-0.1,1.2-0.2s0.8-0.3,1.1-0.6l-3.1-3.7l-0.3,0.2c-0.5,0.4-0.9,0.8-1,1.1
		c-0.2,0.4-0.3,0.7-0.3,1c0,0.6,0.2,1.2,0.6,1.6C16,102.5,16.6,102.7,17.3,102.7z M16,94.2c0,0.3,0.1,0.6,0.2,0.9
		c0.2,0.3,0.4,0.7,0.7,1.1l1.2-0.8c0.3-0.2,0.5-0.5,0.7-0.7c0.1-0.3,0.2-0.5,0.2-0.8c0-0.3-0.1-0.7-0.4-0.9s-0.6-0.4-1.1-0.4
		c-0.5,0-0.8,0.2-1.1,0.5C16.2,93.4,16,93.8,16,94.2z"/>
	<path class="st3" d="M34,91.4c1.3,0,2.3,0.3,3,0.8c0.7,0.6,1.1,1.4,1.1,2.5c0,0.6-0.2,1-0.5,1.5c-0.3,0.4-0.8,0.8-1.4,1
		c0.7,0.2,1.3,0.5,1.8,1.1c0.4,0.6,0.6,1.2,0.6,2c0,1.1-0.4,2-1.1,2.6c-0.7,0.6-1.7,0.9-3,0.9h-6v-1.1l1.4-0.2v-9.8l-1.4-0.2v-1.1
		H30H34z M31.6,96.7h2.8c0.6,0,1.1-0.2,1.5-0.5s0.6-0.8,0.6-1.4c0-0.7-0.2-1.2-0.6-1.5c-0.4-0.3-1-0.5-1.8-0.5h-2.4V96.7z M31.6,98
		v4.5h2.9c0.8,0,1.4-0.2,1.8-0.6c0.4-0.4,0.6-0.9,0.6-1.6c0-0.7-0.2-1.3-0.5-1.7c-0.4-0.4-0.9-0.6-1.6-0.6H31.6z"/>
	<path class="st3" d="M46.8,102.5c-0.3,0.5-0.7,0.9-1.1,1.1c-0.5,0.3-1,0.4-1.6,0.4c-1,0-1.8-0.3-2.3-1s-0.8-1.6-0.8-3v-4.1
		l-1.1-0.2v-1.1h1.1h1.7v5.5c0,1,0.1,1.7,0.4,2c0.3,0.4,0.7,0.6,1.4,0.6c0.6,0,1.1-0.1,1.5-0.4c0.4-0.2,0.7-0.6,0.9-1v-5.3l-1.2-0.2
		v-1.1h1.2h1.7v7.9l1.1,0.2v1.1h-2.6L46.8,102.5z"/>
	<path class="st3" d="M50.8,95.7v-1.1h2.9l0.2,1.3c0.3-0.5,0.6-0.8,1-1.1s0.8-0.4,1.3-0.4c0.1,0,0.3,0,0.4,0s0.2,0,0.3,0.1l-0.2,1.6
		l-1-0.1c-0.4,0-0.8,0.1-1.1,0.3c-0.3,0.2-0.5,0.5-0.7,0.9v5.3l1.4,0.2v1.1h-4.5v-1.1l1.4-0.2v-6.6L50.8,95.7z"/>
	<path class="st3" d="M61.2,92.4v2.2H63v1.2h-1.7v5.6c0,0.4,0.1,0.7,0.3,0.9c0.2,0.2,0.4,0.3,0.7,0.3c0.1,0,0.3,0,0.5,0
		c0.2,0,0.3-0.1,0.5-0.1l0.2,1.2c-0.2,0.1-0.4,0.2-0.7,0.3c-0.3,0.1-0.6,0.1-0.9,0.1c-0.7,0-1.2-0.2-1.6-0.6
		c-0.4-0.4-0.6-1.1-0.6-1.9v-5.6h-1.5v-1.2h1.5v-2.2H61.2z"/>
</g>
</svg>
