<?xml version="1.0" encoding="utf-8"?>
<!-- Generator: Adobe Illustrator 19.1.0, SVG Export Plug-In . SVG Version: 6.00 Build 0)  -->
<svg version="1.1" id="Layer_1" xmlns="http://www.w3.org/2000/svg" xmlns:xlink="http://www.w3.org/1999/xlink" x="0px" y="0px"
	 viewBox="-300 366 190 277" style="enable-background:new -300 366 190 277;" xml:space="preserve">
<style type="text/css">
	.st0{fill:#D2D4D6;}
	.st1{fill:#505169;}
	.st2{fill:#00A79F;}
	.st3{fill:#FFFFFF;}
</style>
<ellipse class="st0" cx="-206.2" cy="624.5" rx="30.5" ry="6.8"/>
<rect x="-212.1" y="377.7" class="st1" width="11.8" height="246.8"/>
<polygon class="st2" points="-126.9,438.3 -276.5,438.3 -295.7,420.5 -276.5,405 -126.9,405 "/>
<g>
	<path class="st3" d="M-241.9,428.5v-1.2l4.3-4.7c0.8-0.9,1.3-1.5,1.6-2c0.3-0.5,0.4-1,0.4-1.5c0-0.7-0.2-1.2-0.6-1.6
		s-0.9-0.7-1.5-0.7c-0.9,0-1.6,0.2-2,0.7s-0.6,1.1-0.6,2h-1.7v-0.1c0-1.1,0.3-2.1,1.1-2.8c0.8-0.8,1.8-1.1,3.2-1.1
		c1.2,0,2.1,0.3,2.8,1c0.7,0.7,1,1.6,1,2.6c0,0.7-0.2,1.4-0.6,2.1s-1,1.5-1.8,2.3l-3.4,3.7l0,0h4.6l0.1-1.5h1.5v2.9L-241.9,428.5
		L-241.9,428.5z"/>
	<path class="st3" d="M-224.5,424.2h1.8v1.4h-1.8v1.6l1.5,0.3v1.1h-4.7v-1.1l1.5-0.3v-1.6h-5.9v-1l5.7-9h1.9L-224.5,424.2
		L-224.5,424.2z M-230.2,424.2h4v-6.1h-0.1l-0.2,0.5L-230.2,424.2z"/>
	<path class="st3" d="M-218.1,416.5v2.3h1.8v1.3h-1.8v5.9c0,0.5,0.1,0.8,0.3,1s0.4,0.3,0.7,0.3c0.2,0,0.3,0,0.5,0s0.4-0.1,0.5-0.1
		l0.2,1.2c-0.2,0.1-0.4,0.2-0.7,0.3c-0.3,0.1-0.6,0.1-1,0.1c-0.7,0-1.3-0.2-1.7-0.6s-0.6-1.1-0.6-2v-5.9h-1.5V419h1.5v-2.3h1.8
		V416.5z"/>
	<path class="st3" d="M-214.8,427.4l1.5-0.3v-11.2l-1.5-0.3v-1h3.2v5.6c0.3-0.5,0.7-0.8,1.2-1.1c0.5-0.3,1-0.4,1.6-0.4
		c1,0,1.8,0.3,2.4,0.9c0.6,0.6,0.9,1.6,0.9,2.9v4.7l1.5,0.3v1.1h-4.7v-1.1l1.5-0.3v-4.7c0-0.8-0.2-1.4-0.5-1.8s-0.9-0.6-1.5-0.6
		c-0.5,0-0.9,0.1-1.3,0.3c-0.4,0.2-0.7,0.5-1,0.9v5.8l1.5,0.3v1.1h-4.7L-214.8,427.4L-214.8,427.4z"/>
	<path class="st3" d="M-198.3,425c0-0.7,0.2-1.4,0.6-1.9c0.4-0.5,1-1.1,1.9-1.6c-0.5-0.6-0.8-1.1-1-1.6s-0.3-0.9-0.3-1.4
		c0-1,0.3-1.8,0.9-2.3s1.4-0.8,2.4-0.8c0.9,0,1.7,0.3,2.3,0.8s0.9,1.2,0.9,2c0,0.6-0.2,1.1-0.5,1.5s-0.8,0.9-1.4,1.3l-1,0.7l3,3.7
		c0.2-0.4,0.4-0.8,0.6-1.3c0.1-0.5,0.2-1,0.2-1.5h1.6c0,0.8-0.1,1.5-0.3,2.2s-0.6,1.3-1,1.8l1.7,2l0,0h-2l-0.8-0.9
		c-0.5,0.4-1,0.6-1.6,0.8c-0.6,0.2-1.2,0.3-1.8,0.3c-1.3,0-2.3-0.3-3.1-1C-197.9,427-198.3,426.1-198.3,425z M-194,427.3
		c0.4,0,0.9-0.1,1.3-0.2c0.4-0.1,0.8-0.4,1.2-0.6l-3.2-3.9l-0.4,0.3c-0.5,0.4-0.9,0.8-1.1,1.2c-0.2,0.4-0.3,0.7-0.3,1
		c0,0.7,0.2,1.2,0.6,1.7C-195.4,427.1-194.8,427.3-194,427.3z M-195.4,418.4c0,0.3,0.1,0.6,0.2,1s0.4,0.7,0.7,1.1l1.2-0.9
		c0.3-0.2,0.6-0.5,0.7-0.7c0.1-0.3,0.2-0.6,0.2-0.9c0-0.4-0.1-0.7-0.4-1c-0.3-0.3-0.7-0.4-1.1-0.4c-0.5,0-0.9,0.2-1.1,0.5
		C-195.2,417.5-195.4,418-195.4,418.4z"/>
	<path class="st3" d="M-171.8,427.1c-0.4,0.4-0.9,0.8-1.7,1.1c-0.7,0.4-1.7,0.5-2.9,0.5c-1.7,0-3.2-0.6-4.3-1.8
		c-1.1-1.2-1.7-2.8-1.7-4.8v-0.2c0-2,0.5-3.6,1.6-4.8c1.1-1.2,2.5-1.8,4.3-1.8c1,0,1.8,0.2,2.5,0.5s1.3,0.7,1.8,1.2v2.4h-1.2
		l-0.4-1.8c-0.3-0.2-0.6-0.4-1.1-0.6s-0.9-0.2-1.5-0.2c-1.4,0-2.5,0.5-3.3,1.4s-1.1,2.2-1.1,3.7v0.2c0,1.6,0.4,2.8,1.1,3.8
		s1.8,1.4,3,1.4c0.7,0,1.3-0.1,1.7-0.2c0.5-0.1,0.8-0.3,1.1-0.5v-2.9l-2.1-0.1v-1.3h3.9v4.8H-171.8z"/>
</g>
</svg>
