<?xml version="1.0" encoding="utf-8"?>
<!-- Generator: Adobe Illustrator 19.1.0, SVG Export Plug-In . SVG Version: 6.00 Build 0)  -->
<svg version="1.1" id="Layer_1" xmlns="http://www.w3.org/2000/svg" xmlns:xlink="http://www.w3.org/1999/xlink" x="0px" y="0px"
	 viewBox="-84 42 190 277" style="enable-background:new -84 42 190 277;" xml:space="preserve">
<style type="text/css">
	.st0{fill:#E6E7E8;}
	.st1{fill:#505169;}
	.st2{fill:#00A79F;}
	.st3{fill:#FFFFFF;}
</style>
<ellipse class="st0" cx="17.2" cy="305.7" rx="30.5" ry="6.8"/>
<rect x="10.2" y="58.9" class="st1" width="11.8" height="246.8"/>
<polygon class="st2" points="95.3,119.5 -54.2,119.5 -73.3,101.7 -54.2,86.2 95.3,86.2 "/>
<g>
	<path class="st3" d="M-34.6,100.2c0,0.7-0.2,1.3-0.6,1.8c-0.4,0.5-0.9,0.9-1.5,1.1c0.7,0.3,1.3,0.7,1.8,1.2
		c0.4,0.6,0.7,1.2,0.7,1.9c0,1.2-0.4,2.1-1.2,2.7c-0.8,0.6-1.8,0.9-3,0.9c-1.3,0-2.3-0.3-3-0.9c-0.8-0.6-1.1-1.5-1.1-2.7
		c0-0.7,0.2-1.4,0.7-1.9c0.4-0.6,1-1,1.8-1.2c-0.6-0.2-1.1-0.6-1.5-1.1c-0.4-0.5-0.5-1.1-0.5-1.8c0-1.1,0.3-2,1-2.6
		c0.7-0.6,1.6-0.9,2.8-0.9c1.1,0,2,0.3,2.8,0.9C-34.9,98.2-34.6,99.1-34.6,100.2z M-35.9,106.2c0-0.7-0.2-1.3-0.7-1.7
		c-0.5-0.5-1.1-0.7-1.8-0.7c-0.7,0-1.3,0.2-1.7,0.7c-0.5,0.4-0.7,1-0.7,1.7c0,0.7,0.2,1.3,0.7,1.7c0.4,0.4,1,0.6,1.8,0.6
		c0.7,0,1.3-0.2,1.8-0.6S-35.9,106.9-35.9,106.2z M-36.3,100.2c0-0.6-0.2-1.2-0.6-1.6s-0.9-0.6-1.5-0.6c-0.6,0-1.1,0.2-1.5,0.6
		c-0.4,0.4-0.6,0.9-0.6,1.6c0,0.7,0.2,1.2,0.6,1.6c0.4,0.4,0.9,0.6,1.5,0.6c0.6,0,1.1-0.2,1.5-0.6
		C-36.5,101.4-36.3,100.9-36.3,100.2z"/>
	<path class="st3" d="M-25.4,105.4h1.8v1.4h-1.8v1.6l1.4,0.2v1.1h-4.6v-1.1l1.4-0.2v-1.6h-5.8v-1l5.7-8.9h1.8V105.4z M-31,105.4h3.9
		v-6l-0.1,0l-0.2,0.5L-31,105.4z"/>
	<path class="st3" d="M-19.1,97.8v2.3h1.8v1.3h-1.8v5.8c0,0.4,0.1,0.8,0.3,0.9c0.2,0.2,0.4,0.3,0.7,0.3c0.2,0,0.3,0,0.5,0
		c0.2,0,0.4-0.1,0.5-0.1l0.2,1.2c-0.2,0.1-0.4,0.2-0.7,0.3c-0.3,0.1-0.6,0.1-1,0.1c-0.7,0-1.3-0.2-1.7-0.6c-0.4-0.4-0.6-1.1-0.6-2
		v-5.8h-1.5v-1.3h1.5v-2.3H-19.1z"/>
	<path class="st3" d="M-15.8,108.6l1.4-0.2v-11l-1.4-0.2v-1.1h3.2v5.5c0.3-0.5,0.7-0.8,1.2-1.1c0.5-0.3,1-0.4,1.6-0.4
		c1,0,1.8,0.3,2.4,0.9c0.6,0.6,0.8,1.6,0.8,2.8v4.6l1.4,0.2v1.1h-4.6v-1.1l1.4-0.2v-4.6c0-0.8-0.2-1.4-0.5-1.7
		c-0.3-0.4-0.8-0.6-1.5-0.6c-0.5,0-0.9,0.1-1.3,0.3c-0.4,0.2-0.7,0.5-1,0.9v5.7l1.4,0.2v1.1h-4.6V108.6z"/>
	<path class="st3" d="M0.5,106.2c0-0.7,0.2-1.3,0.6-1.9s1-1.1,1.9-1.6c-0.5-0.6-0.8-1.1-1-1.6c-0.2-0.5-0.3-0.9-0.3-1.4
		c0-1,0.3-1.8,0.9-2.3c0.6-0.5,1.4-0.8,2.4-0.8c0.9,0,1.7,0.3,2.3,0.8C7.7,98,8,98.6,8,99.4c0,0.6-0.2,1.1-0.5,1.5
		c-0.3,0.4-0.8,0.9-1.4,1.3l-1,0.7l3,3.6c0.2-0.4,0.4-0.8,0.6-1.3c0.1-0.5,0.2-1,0.2-1.5h1.6c0,0.8-0.1,1.5-0.3,2.1
		c-0.2,0.7-0.6,1.2-1,1.8l1.6,2l0,0h-2L8,108.8c-0.5,0.4-1,0.6-1.6,0.8c-0.6,0.2-1.2,0.3-1.8,0.3c-1.3,0-2.3-0.3-3-1
		C0.8,108.2,0.5,107.3,0.5,106.2z M4.6,108.5c0.4,0,0.8-0.1,1.3-0.2c0.4-0.1,0.8-0.4,1.2-0.6l-3.2-3.8l-0.4,0.3
		c-0.5,0.4-0.9,0.8-1.1,1.1c-0.2,0.4-0.3,0.7-0.3,1c0,0.7,0.2,1.2,0.6,1.6C3.2,108.3,3.9,108.5,4.6,108.5z M3.3,99.7
		c0,0.3,0.1,0.6,0.2,1c0.2,0.3,0.4,0.7,0.7,1.1l1.2-0.8c0.3-0.2,0.6-0.5,0.7-0.7c0.1-0.3,0.2-0.6,0.2-0.9c0-0.4-0.1-0.7-0.4-1
		C5.6,98.2,5.3,98,4.8,98c-0.5,0-0.8,0.2-1.1,0.5C3.5,98.9,3.3,99.3,3.3,99.7z"/>
	<path class="st3" d="M26.2,100.8H25L24.7,99c-0.3-0.3-0.6-0.5-1-0.7c-0.4-0.2-0.9-0.3-1.5-0.3c-1.3,0-2.4,0.5-3.1,1.5
		c-0.7,1-1.1,2.2-1.1,3.7v0.2c0,1.5,0.4,2.7,1.1,3.7s1.7,1.5,2.9,1.5c0.6,0,1.1-0.1,1.6-0.3c0.5-0.2,0.8-0.4,1.1-0.7l0.3-1.8h1.2
		v2.3c-0.4,0.5-0.9,0.9-1.7,1.3c-0.7,0.4-1.6,0.6-2.6,0.6c-1.7,0-3-0.6-4.1-1.9c-1.1-1.2-1.6-2.8-1.6-4.7v-0.2
		c0-1.9,0.5-3.4,1.6-4.7c1.1-1.2,2.4-1.8,4.1-1.8c1,0,1.8,0.2,2.6,0.6c0.7,0.4,1.3,0.8,1.7,1.3V100.8z"/>
	<path class="st3" d="M32.4,109.9c-1.3,0-2.4-0.4-3.2-1.3c-0.8-0.9-1.2-2-1.2-3.4v-0.4c0-1.4,0.4-2.5,1.2-3.4
		c0.8-0.9,1.8-1.4,2.9-1.4c1.3,0,2.3,0.4,2.9,1.2c0.7,0.8,1,1.8,1,3.1v1.1h-6.2l0,0c0,0.9,0.2,1.7,0.7,2.3c0.4,0.6,1.1,0.9,1.9,0.9
		c0.6,0,1.1-0.1,1.5-0.3c0.4-0.2,0.8-0.4,1.2-0.7l0.7,1.1c-0.3,0.3-0.8,0.6-1.4,0.8C33.9,109.8,33.2,109.9,32.4,109.9z M32.2,101.3
		c-0.6,0-1.1,0.2-1.5,0.7c-0.4,0.5-0.7,1.1-0.8,1.8l0,0h4.4v-0.2c0-0.7-0.2-1.3-0.5-1.7C33.4,101.6,32.9,101.3,32.2,101.3z"/>
	<path class="st3" d="M37.5,108.6l1.4-0.2v-6.8l-1.4-0.2v-1.1h3l0.1,1.4c0.3-0.5,0.7-0.9,1.2-1.2c0.5-0.3,1-0.4,1.6-0.4
		c1,0,1.8,0.3,2.4,0.9c0.6,0.6,0.8,1.5,0.8,2.8v4.7l1.4,0.2v1.1h-4.6v-1.1l1.4-0.2v-4.6c0-0.8-0.2-1.4-0.5-1.8
		c-0.3-0.4-0.8-0.5-1.5-0.5c-0.5,0-0.9,0.1-1.3,0.4c-0.4,0.2-0.7,0.6-0.9,1v5.6l1.4,0.2v1.1h-4.6V108.6z"/>
	<path class="st3" d="M52.4,97.8v2.3h1.8v1.3h-1.8v5.8c0,0.4,0.1,0.8,0.3,0.9c0.2,0.2,0.4,0.3,0.7,0.3c0.2,0,0.3,0,0.5,0
		c0.2,0,0.4-0.1,0.5-0.1l0.2,1.2c-0.2,0.1-0.4,0.2-0.7,0.3c-0.3,0.1-0.6,0.1-1,0.1c-0.7,0-1.3-0.2-1.7-0.6c-0.4-0.4-0.6-1.1-0.6-2
		v-5.8h-1.5v-1.3h1.5v-2.3H52.4z"/>
	<path class="st3" d="M60.4,109.9c-1.3,0-2.4-0.4-3.2-1.3c-0.8-0.9-1.2-2-1.2-3.4v-0.4c0-1.4,0.4-2.5,1.2-3.4
		c0.8-0.9,1.8-1.4,2.9-1.4c1.3,0,2.3,0.4,2.9,1.2c0.7,0.8,1,1.8,1,3.1v1.1h-6.2l0,0c0,0.9,0.2,1.7,0.7,2.3c0.4,0.6,1.1,0.9,1.9,0.9
		c0.6,0,1.1-0.1,1.5-0.3c0.4-0.2,0.8-0.4,1.2-0.7l0.7,1.1c-0.3,0.3-0.8,0.6-1.4,0.8C61.8,109.8,61.2,109.9,60.4,109.9z M60.1,101.3
		c-0.6,0-1.1,0.2-1.5,0.7c-0.4,0.5-0.7,1.1-0.8,1.8l0,0h4.4v-0.2c0-0.7-0.2-1.3-0.5-1.7C61.4,101.6,60.8,101.3,60.1,101.3z"/>
	<path class="st3" d="M65.7,101.3v-1.1h3l0.2,1.4c0.3-0.5,0.6-0.9,1-1.1c0.4-0.3,0.9-0.4,1.4-0.4c0.1,0,0.3,0,0.4,0
		c0.1,0,0.3,0,0.3,0.1l-0.2,1.6l-1-0.1c-0.5,0-0.8,0.1-1.2,0.3c-0.3,0.2-0.6,0.5-0.7,0.9v5.5l1.4,0.2v1.1h-4.6v-1.1l1.4-0.2v-6.8
		L65.7,101.3z"/>
</g>
</svg>
