<?xml version="1.0" encoding="utf-8"?>
<!-- Generator: Adobe Illustrator 19.1.0, SVG Export Plug-In . SVG Version: 6.00 Build 0)  -->
<svg version="1.1" xmlns="http://www.w3.org/2000/svg" xmlns:xlink="http://www.w3.org/1999/xlink" x="0px" y="0px"
	 viewBox="0 24.9 360 313.1" style="enable-background:new 0 24.9 360 313.1;" xml:space="preserve">
<style type="text/css">
	.poop{fill:#64657F;}
	.poop2{fill:#FBF1CB;}
	.poop3{fill:#E9EAEB;}
</style>
<g id="Layer_1">
	<path class="poop" d="M83.8,167.6c10.6-22.9,60.8-22.5,115-0.2l0,0l52.9-4.9l-31.7,14.6c36.5,18.8,63.5,43,72.9,63.7l44.9-17.6
		l-43.3,41.9l-7.9,53.3l-21.3-36.9l0,0c-24.4,3.1-60.2-4-96.6-21c-1.8-0.8-3.5-1.7-5.3-2.5l-7.8,34l-13.3-45.4l0,0
		C99.5,220.7,74.3,188.1,83.8,167.6z"/>
	<circle class="poop2" cx="118.6" cy="173.1" r="10.6"/>
</g>
<g id="bubble1">
	<ellipse class="poop3" cx="59.8" cy="57.2" rx="18" ry="16"/>
</g>
<g id="bubble2">
	<ellipse class="poop3" cx="34" cy="102.9" rx="18" ry="16"/>
</g>
<g id="bubble2">
	<ellipse class="poop3" cx="63.8" cy="140.9" rx="18" ry="16"/>
</g>
</svg>
