<?xml version="1.0" encoding="utf-8"?>
<!-- Generator: Adobe Illustrator 19.1.0, SVG Export Plug-In . SVG Version: 6.00 Build 0)  -->
<svg version="1.1" id="Layer_1" xmlns="http://www.w3.org/2000/svg" xmlns:xlink="http://www.w3.org/1999/xlink" x="0px" y="0px"
	 viewBox="182 325 1156.4 360" style="enable-background:new 182 325 1156.4 360;" xml:space="preserve">
<style type="text/css">
	.st0{fill:#CECECE;}
	.st1{fill:#E6E7E8;}
	.st2{fill:#50516A;}
	.st3{fill:#748225;}
</style>
<path class="st0" d="M182.7,480.5c0.4-2.7,2.9-4.6,5.6-4.2s4.6,2.9,4.2,5.6c-1.9,13.8-2.9,38.6,2.8,46.4c4.2,5.7,10.2,7.2,14.4,7.4
	l-2.9-54.9c0-13.7,11.1-24.9,24.9-24.9c13.7,0,24.9,11.1,24.9,24.9l-3.8,71.6c5.8-2.1,10.6-4.6,12.9-7.4c7.5-9.1,2.2-20.1,1.9-20.6
	c-1.2-2.4-0.3-5.4,2.2-6.6c2.4-1.2,5.4-0.3,6.6,2.2c0.1,0.2,0.7,1.3,1.3,3.2c1.9,5.6,4.3,17.5-4.4,28.1c-4.2,5.1-12.4,8.9-21,11.7
	l-2,37.5h-37.2l-2.9-55c-6.4-0.1-16.1-2.1-22.9-11.4C177.4,520.5,182.1,484.6,182.7,480.5"/>
<g>
	<g>
		<path class="st1" d="M1315.7,670.5c-8.1-13.3-21.7-23.1-38.1-25.8c-6.6-1.1-13.2-1-19.5,0.2c6.3-7.8,10.8-17.3,12.5-28
			c5.4-32.7-16.6-63.7-49.2-69.1c-19.4-3.3-38.3,3.4-51.4,16.2c1.8-46.9-31.2-88.9-78.5-96.7c-48.8-8.1-95,23-106.6,70.4
			c-4.4-2.1-9.3-3.8-14.3-4.7c-28.1-4.7-54.6,14.3-59.2,42.5c-1.7,10.2-0.3,20.1,3.5,28.9c-3.3-1.2-6.7-2.2-10.3-2.7
			c-26.8-4.5-52.3,11.5-60.6,36.6c-15.1-14.8-35.8-24-58.7-24c-5.6,0-11.1,0.6-16.4,1.6c7.9-12.4,12.6-27.2,12.6-43.1
			c0-44-35.6-79.7-79.4-79.7c-8,0-15.7,1.2-23,3.4c-5.8-75.1-68.2-134.3-144.4-134.3c-73.8,0-134.7,55.4-143.8,127.2
			c-16.8-22.9-43.8-37.6-74.2-37.6c-50.9,0-92.3,41.5-92.3,92.7c0,16.6,4.4,32.1,12,45.6c-9.3-3.5-19.2-5.3-29.6-5.3
			c-47.2,0-85.4,38.4-85.4,85.8V821h1202.5V670.5H1315.7z"/>
	</g>
</g>
<g>
	<path class="st2" d="M3324.4,1455.2c-0.4,0.9-0.8,1.6-1.2,2.2s-0.8,1.1-1.3,1.4c-0.2,0.2-0.5,0.3-0.8,0.4s-0.6,0.1-0.8,0.1l0,0
		c-0.4,0-0.8-0.1-1-0.4c-0.3-0.3-0.4-0.7-0.4-1.2l0,0l0,0c0-0.3,0.1-0.7,0.2-1.2s0.3-1,0.5-1.6c0.1-0.2,0.2-0.6,0.4-1.2
		s0.5-1.3,0.7-2c0-0.1,0.1-0.4,0.3-0.9h-1.3c-0.2,0-0.4-0.2-0.4-0.4c0-0.2,0.2-0.4,0.4-0.4h1.5c0.1-0.1,0.1-0.3,0.2-0.4
		c0.4-1.1,0.8-2.3,0.9-2.5c0.1-0.2,0.3-0.3,0.5-0.3s0.3,0.3,0.3,0.5c-0.1,0.2-0.5,1.4-0.9,2.5c0,0.1,0,0.1-0.1,0.2h1.3
		c0.2,0,0.4,0.2,0.4,0.4c0,0.2-0.2,0.4-0.4,0.4h-1.6c-0.2,0.6-0.3,1-0.4,1.2c-0.3,0.8-0.5,1.5-0.7,2s-0.3,0.9-0.4,1.2
		c-0.2,0.6-0.4,1.1-0.5,1.5s-0.2,0.8-0.2,1.1l0,0c0,0.3,0.1,0.5,0.2,0.7c0.1,0.1,0.3,0.2,0.4,0.2l0,0c0.2,0,0.4,0,0.6-0.1
		c0.2-0.1,0.4-0.1,0.5-0.3c0.4-0.3,0.7-0.7,1.1-1.2c0.4-0.6,0.7-1.3,1.1-2.1c0.1-0.2,0.4-0.3,0.6-0.2
		C3324.4,1454.7,3324.5,1454.9,3324.4,1455.2z"/>
	<path class="st2" d="M3332.3,1455.2L3332.3,1455.2c-0.8,1.7-1.8,4.2-3.6,4.2l0,0c-0.6,0-0.9-0.2-1.1-0.6c-0.2-0.3-0.3-0.7-0.3-1.1
		v-0.1c0-0.4,0.1-0.9,0.2-1.4s0.3-1,0.5-1.4c0.1-0.1,0.1-0.2,0.1-0.4c0.3-0.7,0.7-1.8,0.7-2.7c0-0.6-0.3-1-1-1
		c-0.5,0-1.1,0.5-1.6,1.1c-0.7,0.9-1.4,2.2-1.8,3.3l0,0c-0.6,1.5-1.2,3.2-1.4,3.9c-0.1,0.2-0.3,0.3-0.5,0.3
		c-0.2-0.1-0.3-0.3-0.3-0.5c0.2-0.6,0.8-2.3,1.4-3.9l0,0l0,0l0,0c0.6-1.7,1.2-3.3,1.4-3.9l0,0c0.2-0.6,0.3-0.8,0.4-1.1
		c0.2-0.5,0.3-0.9,0.4-1.2l0.1-0.3c0.1-0.3,0.3-0.8,0.5-1.4c0.1-0.2,0.3-0.3,0.5-0.2s0.3,0.3,0.3,0.5c-0.2,0.5-0.4,1-0.5,1.4
		c0,0.1-0.1,0.2-0.1,0.3c-0.2,0.5-0.3,0.9-0.4,1.2l-0.3,0.7c0.6-0.6,1.2-0.9,1.8-0.9c1.4,0,1.9,0.8,1.9,1.9c0,1-0.5,2.2-0.8,3
		c-0.1,0.1-0.1,0.3-0.1,0.4c-0.2,0.5-0.3,0.9-0.5,1.4c-0.1,0.4-0.2,0.8-0.2,1.2l0,0c0,0.2,0,0.5,0.1,0.6s0.2,0.2,0.4,0.2l0,0
		c1.2,0,2.2-2.1,2.8-3.6v-0.1c0.1-0.2,0.3-0.3,0.6-0.2C3332.3,1454.7,3332.4,1454.9,3332.3,1455.2z"/>
	<path class="st2" d="M3339.5,1455.2c-0.8,1.7-1.7,2.7-2.7,3.4c-1,0.6-2.1,0.8-3.1,0.8l0,0l0,0c-0.7,0-1.4-0.3-1.8-0.7
		c-0.5-0.5-0.8-1.1-0.7-2l0,0l0,0c0-0.5,0.1-1.1,0.3-1.7l0,0c0.1-0.4,0.3-0.9,0.5-1.3c0.5-1,1.1-2,1.7-2.7c0.3-0.3,0.6-0.5,1-0.7
		c0.3-0.2,0.7-0.3,1.1-0.3c0.5,0,0.8,0.1,1.1,0.3c0.3,0.2,0.5,0.5,0.6,0.8s0,0.7-0.1,1c-0.2,0.5-0.5,1-1,1.4s-1.2,0.8-1.8,1.1
		c-0.9,0.4-1.8,0.7-2.3,0.8c-0.1,0.5-0.2,0.9-0.2,1.3l0,0c0,0.6,0.2,1.1,0.5,1.4s0.8,0.5,1.3,0.5l0,0c0.8,0,1.7-0.1,2.6-0.7
		c0.9-0.5,1.7-1.5,2.3-3c0.1-0.2,0.3-0.3,0.6-0.2C3339.5,1454.7,3339.6,1455,3339.5,1455.2z M3332.6,1454.4c0.5-0.1,1-0.3,1.6-0.6
		s1.2-0.6,1.6-1c0.3-0.3,0.6-0.6,0.7-1c0.1-0.2,0.1-0.4,0-0.6c0-0.1-0.1-0.2-0.2-0.3c-0.1-0.1-0.3-0.2-0.6-0.2
		c-0.2,0-0.5,0.1-0.7,0.2s-0.5,0.3-0.7,0.6c-0.6,0.6-1.2,1.5-1.6,2.4C3332.7,1454.1,3332.6,1454.2,3332.6,1454.4z"/>
	<path class="st2" d="M3343.2,1455.2c-0.4,0.8-0.8,1.8-1.4,2.6c-0.6,0.9-1.4,1.6-2.3,1.6l0,0c-0.5,0-0.9-0.2-1.1-0.6
		c-0.2-0.3-0.3-0.7-0.3-1.1v-0.1c0-0.3,0.1-0.7,0.2-1.2s0.3-1,0.5-1.6c0.1-0.2,0.2-0.6,0.4-1.2s0.5-1.3,0.7-2c0-0.1,0.1-0.3,0.2-0.5
		l0.3-0.9c0.1-0.2,0.3-0.3,0.5-0.3c0.2,0.1,0.3,0.3,0.3,0.5l-0.3,0.9l-0.2,0.5c-0.3,0.8-0.5,1.5-0.7,2s-0.3,0.9-0.4,1.2
		c-0.2,0.6-0.4,1.1-0.5,1.5s-0.2,0.8-0.2,1.1l0,0c0,0.2,0,0.5,0.1,0.6s0.2,0.2,0.4,0.2l0,0c0.6,0,1.1-0.5,1.6-1.2
		c0.5-0.8,0.9-1.7,1.3-2.5c0.1-0.2,0.4-0.3,0.6-0.2C3343.2,1454.7,3343.3,1454.9,3343.2,1455.2z M3341,1448.3c0-0.4,0.3-0.7,0.7-0.7
		s0.7,0.3,0.7,0.7c0,0.4-0.3,0.7-0.7,0.7C3341.3,1448.9,3341,1448.6,3341,1448.3z"/>
	<path class="st2" d="M3350.5,1455.2L3350.5,1455.2c-0.8,1.7-1.8,4.2-3.6,4.2l0,0c-0.5,0-0.9-0.2-1.1-0.6c-0.2-0.3-0.3-0.7-0.3-1.1
		v-0.1c0-0.3,0.1-0.7,0.2-1.2s0.3-1,0.5-1.6c0.2-0.5,0.3-0.9,0.4-1.1c0.1-0.4,0.2-0.6,0.4-1l-0.3-0.1c-0.6-0.2-1.2-0.4-1.8-0.7
		c-0.1,0.2-0.1,0.4-0.2,0.5l0,0l-1.6,3.5c-0.1,0.2-0.3,0.3-0.6,0.2c-0.2-0.1-0.3-0.3-0.2-0.6l1.6-3.5c0.1-0.2,0.2-0.4,0.2-0.6
		c-0.7-0.5-1.1-1-1-1.9c0-0.3,0.2-0.6,0.4-0.8l0,0c0.2-0.2,0.5-0.3,0.8-0.3c0.1,0,0.2,0,0.3,0l0,0c0.3,0.1,0.5,0.3,0.6,0.5
		s0.2,0.5,0.2,0.7s0,0.4-0.1,0.6s-0.1,0.4-0.2,0.7c0.6,0.3,1.2,0.5,1.8,0.7c0.3,0.1,0.5,0.2,0.8,0.2c0.2,0.1,0.3,0.3,0.2,0.6l0,0
		c-0.2,0.6-0.3,0.9-0.5,1.4c-0.1,0.3-0.2,0.6-0.4,1.1c-0.2,0.6-0.4,1.1-0.5,1.5s-0.2,0.8-0.2,1.1l0,0c0,0.2,0,0.5,0.2,0.6
		c0.1,0.1,0.2,0.2,0.4,0.2c1.3,0,2.2-2.1,2.8-3.6v-0.1c0.1-0.2,0.3-0.3,0.6-0.2C3350.5,1454.7,3350.6,1454.9,3350.5,1455.2z
		 M3344.5,1449.8c0-0.1,0-0.2-0.1-0.3c0-0.1-0.1-0.1-0.1-0.1l0,0h-0.1c-0.1,0-0.2,0-0.2,0.1l0,0c-0.1,0.1-0.1,0.2-0.1,0.3
		c0,0.4,0.2,0.7,0.5,0.9c0.1-0.2,0.1-0.3,0.2-0.5C3344.5,1450,3344.5,1449.9,3344.5,1449.8z"/>
	<path class="st2" d="M3361,1455.2L3361,1455.2c-0.8,1.7-1.8,4.2-3.6,4.2l0,0l0,0c-0.5,0-0.9-0.2-1.1-0.6c-0.2-0.2-0.2-0.5-0.3-0.8
		c-0.6,0.8-1.3,1.4-2.2,1.4l0,0c-0.5,0-0.9-0.2-1.1-0.6c-0.2-0.3-0.3-0.7-0.3-1.1v-0.1c0-0.3,0.1-0.7,0.2-1.2c0.1-0.5,0.3-1,0.5-1.6
		c0.1-0.3,0.3-0.9,0.6-1.6c0.3-0.9,0.7-2,1.1-3c0.1-0.2,0.3-0.3,0.5-0.2c0.2,0.1,0.3,0.3,0.2,0.5c-0.4,1.2-0.8,2.2-1.1,3
		c-0.3,0.7-0.5,1.3-0.6,1.6c-0.2,0.6-0.4,1.1-0.5,1.5s-0.2,0.8-0.2,1.1l0,0c0,0.2,0,0.5,0.1,0.6s0.2,0.2,0.5,0.2
		c1.2,0,2.2-2.1,2.8-3.6l0,0c0,0,0,0,0-0.1c0.1-0.3,0.3-0.9,0.6-1.6c0.4-0.9,0.7-2,1.1-3c0.1-0.2,0.3-0.3,0.5-0.2
		c0.2,0.1,0.3,0.3,0.3,0.5c-0.4,1.2-0.8,2.2-1.1,3c-0.3,0.7-0.5,1.3-0.6,1.6l0,0v0.1c-0.2,0.5-0.3,1-0.4,1.4
		c-0.1,0.4-0.2,0.8-0.2,1.1l0,0c0,0.2,0,0.5,0.1,0.6s0.2,0.2,0.4,0.2l0,0c1.2,0,2.2-2.1,2.8-3.6v-0.1c0.1-0.2,0.3-0.3,0.6-0.2
		C3361,1454.7,3361.1,1454.9,3361,1455.2z"/>
	<path class="st2" d="M3366.5,1455.8L3366.5,1455.8L3366.5,1455.8c0,1.2-0.5,2.1-1.2,2.7s-1.6,0.9-2.4,0.9l0,0c-0.1,0-0.1,0-0.2,0
		c-0.8,0-1.5-0.4-2-0.9s-0.8-1.2-0.8-1.9c0-0.1,0-0.1,0-0.2c0.1-0.7,0.3-1.4,0.8-2c0.5-0.5,1.1-0.8,1.9-0.8c0.5,0,1,0.2,1.4,0.6
		c0.3,0.3,0.5,0.8,0.6,1.4c0,0.2-0.2,0.4-0.4,0.4s-0.4-0.2-0.4-0.4c0-0.3-0.1-0.6-0.3-0.8c-0.2-0.2-0.5-0.3-0.7-0.3
		c-0.5,0-1,0.2-1.3,0.6c-0.4,0.4-0.6,0.9-0.6,1.4v0.1c0,0.5,0.2,1,0.5,1.4s0.9,0.6,1.4,0.7c0.1,0,0.1,0,0.2,0l0,0
		c0.7,0,1.4-0.2,1.9-0.7c0.5-0.4,0.9-1.1,0.9-2l0,0c0-1-0.5-1.8-1-2.7c-0.1-0.2-0.2-0.4-0.3-0.6c-0.1,0.1-0.3,0.3-0.4,0.5
		c-0.2,0.2-0.4,0.2-0.6,0c-0.2-0.1-0.2-0.4-0.1-0.6c0.2-0.3,0.4-0.5,0.7-0.7l0,0c-0.2-0.6-0.4-1.1-0.3-1.7c0-0.2,0.1-0.4,0.2-0.6
		l0,0c0.1-0.2,0.2-0.3,0.3-0.5c0.1-0.1,0.3-0.2,0.4-0.3c0.2-0.1,0.3-0.1,0.5-0.1c0.3,0,0.5,0.1,0.7,0.3c0.2,0.2,0.2,0.4,0.3,0.7
		c0,0.2,0,0.4-0.1,0.6c0,0.2-0.1,0.4-0.2,0.6c-0.2,0.5-0.5,0.9-0.8,1.2c0.1,0.3,0.3,0.5,0.4,0.8
		C3365.9,1453.6,3366.5,1454.6,3366.5,1455.8z M3365,1450.3c0.1-0.1,0.1-0.3,0.1-0.4s0.1-0.2,0-0.4c0-0.1,0-0.1,0-0.2c0,0,0,0-0.1,0
		h-0.1c-0.1,0-0.1,0.1-0.2,0.1c-0.1,0.1-0.1,0.1-0.2,0.2l0,0c0,0.1-0.1,0.2-0.1,0.3c0,0.3,0,0.6,0.1,0.9
		C3364.7,1450.8,3364.8,1450.5,3365,1450.3z"/>
	<path class="st2" d="M3375.9,1455.2L3375.9,1455.2c-0.8,1.7-1.8,4.2-3.6,4.2l0,0l0,0c-0.5,0-0.9-0.2-1.1-0.6
		c-0.2-0.2-0.2-0.5-0.3-0.8c-0.6,0.8-1.3,1.4-2.2,1.4l0,0c-0.5,0-0.9-0.2-1.1-0.6c-0.2-0.3-0.3-0.7-0.3-1.1v-0.1
		c0-0.3,0.1-0.7,0.2-1.2s0.3-1,0.5-1.6c0.1-0.3,0.3-0.9,0.6-1.6c0.3-0.9,0.7-2,1.1-3c0.1-0.2,0.3-0.3,0.5-0.2
		c0.2,0.1,0.3,0.3,0.2,0.5c-0.4,1.2-0.8,2.2-1.1,3c-0.3,0.7-0.5,1.3-0.6,1.6c-0.2,0.6-0.4,1.1-0.5,1.5s-0.2,0.8-0.2,1.1l0,0
		c0,0.2,0,0.5,0.1,0.6s0.2,0.2,0.5,0.2c1.2,0,2.2-2.1,2.8-3.6l0,0c0,0,0,0,0-0.1c0.1-0.3,0.3-0.9,0.6-1.6c0.4-0.9,0.7-2,1.1-3
		c0.1-0.2,0.3-0.3,0.5-0.2c0.2,0.1,0.3,0.3,0.3,0.5c-0.4,1.2-0.8,2.2-1.1,3c-0.3,0.7-0.5,1.3-0.6,1.6l0,0v0.1
		c-0.2,0.5-0.3,1-0.4,1.4c-0.1,0.4-0.2,0.8-0.2,1.1l0,0c0,0.2,0,0.5,0.1,0.6s0.2,0.2,0.4,0.2l0,0c1.2,0,2.2-2.1,2.8-3.6v-0.1
		c0.1-0.2,0.3-0.3,0.6-0.2C3375.9,1454.7,3376,1454.9,3375.9,1455.2z"/>
	<path class="st2" d="M3383.9,1455.2L3383.9,1455.2c-0.8,1.7-1.8,4.2-3.6,4.2l0,0c-0.5,0-0.9-0.2-1.1-0.6c-0.2-0.3-0.3-0.7-0.3-1.1
		l0,0c-0.7,1-1.5,1.7-2.5,1.6c-0.6,0-1-0.3-1.2-0.7c-0.3-0.4-0.4-1-0.4-1.6c0-1.1,0.6-3.3,1.6-5c0.7-1.2,1.7-2.1,2.8-2.2
		c0.1,0,0.1,0,0.2,0c0.5,0,1,0.3,1.4,0.7c0.1,0.1,0.2,0.2,0.3,0.4c0.1-0.3,0.2-0.6,0.3-0.9c0.1-0.2,0.3-0.3,0.5-0.2s0.3,0.3,0.2,0.5
		c-0.2,0.6-0.6,1.6-1,2.7c-0.3,0.7-0.5,1.4-0.7,2s-0.4,1.1-0.5,1.5s-0.2,0.8-0.2,1.1l0,0c0,0.2,0,0.5,0.1,0.6s0.2,0.2,0.5,0.2
		c1.2,0,2.2-2.1,2.8-3.6v-0.1c0.1-0.2,0.3-0.3,0.6-0.2C3383.9,1454.7,3384,1454.9,3383.9,1455.2z M3379.9,1453.5
		c0.2-0.4,0.3-0.8,0.5-1.1c0-0.1,0-0.1,0-0.1c0-0.5-0.1-0.8-0.4-1.1c-0.2-0.2-0.5-0.4-0.8-0.4h-0.1c-0.8,0-1.5,0.8-2.1,1.8
		c-0.9,1.5-1.4,3.5-1.5,4.5c0,0.5,0.1,0.9,0.2,1.1c0.1,0.2,0.3,0.3,0.6,0.3C3378,1458.5,3379.1,1455.5,3379.9,1453.5z"/>
	<path class="st2" d="M3388.1,1455.2c-0.4,0.9-0.8,1.6-1.2,2.2s-0.8,1.1-1.3,1.4c-0.2,0.2-0.5,0.3-0.8,0.4s-0.6,0.1-0.8,0.1l0,0
		c-0.4,0-0.8-0.1-1-0.4c-0.3-0.3-0.4-0.7-0.4-1.2l0,0l0,0c0-0.3,0.1-0.8,0.2-1.2c0.1-0.5,0.3-1,0.5-1.6c0.5-1.6,1.1-3.2,1.7-4.9
		l0.4-1.3l0.1-0.3c0.1-0.3,0.3-0.8,0.5-1.4c0.1-0.2,0.3-0.3,0.5-0.3c0.2,0.1,0.3,0.3,0.3,0.5c-0.2,0.5-0.4,1.1-0.5,1.4
		c0,0.1-0.1,0.2-0.1,0.4l-0.4,1.3c-0.6,1.6-1.1,3.2-1.7,4.9c-0.2,0.6-0.3,1.1-0.5,1.5c-0.1,0.4-0.2,0.8-0.2,1l0,0
		c0,0.3,0.1,0.5,0.2,0.7c0.1,0.1,0.3,0.2,0.4,0.2l0,0c0.2,0,0.4,0,0.6-0.1s0.4-0.1,0.5-0.3c0.4-0.3,0.7-0.7,1.1-1.2
		c0.4-0.6,0.7-1.3,1.1-2.1c0.1-0.2,0.4-0.3,0.6-0.2C3388.1,1454.7,3388.2,1454.9,3388.1,1455.2z"/>
	<path class="st2" d="M3396.8,1455.8L3396.8,1455.8L3396.8,1455.8c0,1.2-0.5,2.1-1.2,2.7s-1.6,0.9-2.4,0.9l0,0c-0.1,0-0.1,0-0.2,0
		c-0.8,0-1.5-0.4-2-0.9s-0.8-1.2-0.8-1.9c0-0.1,0-0.1,0-0.2c0.1-0.7,0.3-1.4,0.8-2c0.5-0.5,1.1-0.8,1.9-0.8c0.5,0,1,0.2,1.4,0.6
		c0.3,0.3,0.5,0.8,0.6,1.4c0,0.2-0.2,0.4-0.4,0.4s-0.4-0.2-0.4-0.4c0-0.3-0.1-0.6-0.3-0.8c-0.2-0.2-0.5-0.3-0.7-0.3
		c-0.5,0-1,0.2-1.3,0.6c-0.4,0.4-0.6,0.9-0.6,1.4v0.1c0,0.5,0.2,1,0.5,1.4s0.9,0.6,1.4,0.7c0.1,0,0.1,0,0.2,0l0,0
		c0.7,0,1.4-0.2,1.9-0.7c0.5-0.4,0.9-1.1,0.9-2l0,0c0-1-0.5-1.8-1-2.7c-0.1-0.2-0.2-0.4-0.3-0.6c-0.1,0.1-0.3,0.3-0.4,0.5
		c-0.2,0.2-0.4,0.2-0.6,0c-0.2-0.1-0.2-0.4-0.1-0.6c0.2-0.3,0.4-0.5,0.7-0.7l0,0c-0.2-0.6-0.4-1.1-0.3-1.7c0-0.2,0.1-0.4,0.2-0.6
		l0,0c0.1-0.2,0.2-0.3,0.3-0.5c0.1-0.1,0.3-0.2,0.4-0.3c0.2-0.1,0.3-0.1,0.5-0.1c0.3,0,0.5,0.1,0.7,0.3c0.2,0.2,0.2,0.4,0.3,0.7
		c0,0.2,0,0.4-0.1,0.6c0,0.2-0.1,0.4-0.2,0.6c-0.2,0.5-0.5,0.9-0.8,1.2c0.1,0.3,0.3,0.5,0.4,0.8
		C3396.2,1453.6,3396.8,1454.6,3396.8,1455.8z M3395.3,1450.3c0.1-0.1,0.1-0.3,0.1-0.4s0.1-0.2,0-0.4c0-0.1,0-0.1,0-0.2
		c0,0,0,0-0.1,0h-0.1c-0.1,0-0.1,0.1-0.2,0.1c-0.1,0.1-0.1,0.1-0.2,0.2l0,0c0,0.1-0.1,0.2-0.1,0.3c0,0.3,0,0.6,0.1,0.9
		C3395,1450.8,3395.2,1450.5,3395.3,1450.3z"/>
	<path class="st2" d="M3406.6,1455.1c0,0.1-0.1,0.3-0.2,0.4c-0.1,0.1-0.1,0.2-0.2,0.3c-0.3,0.5-0.6,1-1,1.4s-1,0.7-1.7,0.7
		c-0.2,0-0.4,0-0.6-0.1c-0.3-0.1-0.6-0.2-0.8-0.5c-0.8,1.1-1.8,1.9-3,1.8l0,0l0,0l0,0c-0.7,0-1.2-0.4-1.4-0.8
		c-0.9,2.5-1.7,4.7-1.9,5.3c-0.1,0.2-0.3,0.3-0.5,0.3c-0.2-0.1-0.3-0.3-0.3-0.5c0.2-0.6,1.2-3.4,2.2-6.2c1.1-3.1,2.3-6.3,2.5-6.9
		c0-0.1,0.1-0.2,0.1-0.3c0.1-0.2,0.3-0.3,0.5-0.3c0.2,0.1,0.3,0.3,0.3,0.5l-0.2,0.4c0.6-0.6,1.2-1,2-1c0.6,0,1,0.3,1.3,0.7
		s0.4,1,0.4,1.6v0.1l0,0c-0.1,1.1-0.6,2.9-1.4,4.4c0,0.1-0.1,0.1-0.1,0.2c0.2,0.2,0.4,0.3,0.6,0.4c0.1,0,0.2,0,0.4,0
		c0.5,0,0.8-0.2,1.2-0.5c0.3-0.3,0.6-0.8,0.8-1.2c0-0.1,0.1-0.2,0.2-0.3c0-0.1,0.1-0.2,0.1-0.4c0.1-0.2,0.3-0.3,0.6-0.2
		C3406.6,1454.7,3406.7,1454.9,3406.6,1455.1z M3402.4,1455.1c-0.1,0.2-0.1,0.4-0.1,0.5c0.6-1.2,0.9-2.5,1-3.4l0,0v-0.1l0,0
		c0-0.5,0-0.9-0.2-1.1c-0.1-0.2-0.3-0.3-0.6-0.3c-1.6,0-2.8,3-3.6,5l-0.1,0.3c-0.1,0.5-0.3,1-0.3,1.4c0,0.6,0.1,1,0.7,1l0,0l0,0
		c0.9,0,1.8-0.7,2.4-1.7c-0.1-0.3-0.2-0.6-0.2-1c0-0.3,0-0.6,0.1-1c0.1-0.2,0.3-0.4,0.5-0.3
		C3402.3,1454.6,3402.4,1454.9,3402.4,1455.1z"/>
	<path class="st2" d="M3414.3,1455.1c-0.1,0.1-0.1,0.3-0.2,0.4s-0.1,0.2-0.2,0.3c-0.3,0.5-0.6,1-1,1.4c-0.5,0.4-1,0.7-1.7,0.7
		c-0.2,0-0.4,0-0.6-0.1c-0.3-0.1-0.6-0.3-0.9-0.5c-0.7,1-1.7,1.8-2.7,1.8c-3.3,0-1.1-5.5,0-7.3c0.7-1.2,1.7-2.1,2.8-2.1l0,0
		c0.6,0,1.1,0.2,1.5,0.7c0.3,0.4,0.5,0.9,0.5,1.6c0,1.3-0.7,3.1-1.5,4.6c0.1,0.2,0.4,0.3,0.6,0.4c0.1,0,0.2,0,0.3,0
		c0.5,0,0.9-0.2,1.2-0.5s0.6-0.8,0.8-1.2c0.1-0.1,0.1-0.2,0.2-0.3c0.1-0.1,0.1-0.2,0.2-0.4c0.1-0.2,0.3-0.3,0.6-0.2
		C3414.3,1454.7,3414.4,1454.9,3414.3,1455.1z M3410.1,1455.1c-0.1,0.2-0.1,0.3-0.1,0.5c0.6-1.2,1-2.5,1-3.4c0-0.5-0.1-0.8-0.3-1
		s-0.5-0.4-0.9-0.4c-0.8,0-1.5,0.7-2,1.7c-0.8,1.3-2.7,6-0.7,6c0.7,0,1.6-0.8,2.2-1.7c-0.1-0.3-0.2-0.6-0.2-0.9s0-0.6,0.1-1
		c0.1-0.2,0.3-0.4,0.5-0.3C3410,1454.6,3410.2,1454.9,3410.1,1455.1z"/>
	<path class="st2" d="M3418.4,1455.2c-0.4,0.9-0.8,1.6-1.2,2.2s-0.8,1.1-1.3,1.4c-0.2,0.2-0.5,0.3-0.8,0.4s-0.6,0.1-0.8,0.1l0,0
		c-0.4,0-0.8-0.1-1-0.4c-0.3-0.3-0.4-0.7-0.4-1.2l0,0l0,0c0-0.3,0.1-0.7,0.2-1.2s0.3-1,0.5-1.6c0.1-0.2,0.2-0.6,0.4-1.2
		s0.5-1.3,0.7-2c0-0.1,0.1-0.4,0.3-0.9h-1.3c-0.2,0-0.4-0.2-0.4-0.4c0-0.2,0.2-0.4,0.4-0.4h1.5c0.1-0.1,0.1-0.3,0.2-0.4
		c0.4-1.1,0.8-2.3,0.9-2.5c0.1-0.2,0.3-0.3,0.5-0.3c0.2,0.1,0.3,0.3,0.3,0.5c-0.1,0.2-0.5,1.4-0.9,2.5c0,0.1,0,0.1-0.1,0.2h1.3
		c0.2,0,0.4,0.2,0.4,0.4c0,0.2-0.2,0.4-0.4,0.4h-1.6c-0.2,0.6-0.3,1-0.4,1.2c-0.3,0.8-0.5,1.5-0.7,2s-0.3,0.9-0.4,1.2
		c-0.2,0.6-0.4,1.1-0.5,1.5s-0.2,0.8-0.2,1.1l0,0c0,0.3,0.1,0.5,0.2,0.7c0.1,0.1,0.3,0.2,0.4,0.2l0,0c0.2,0,0.4,0,0.6-0.1
		c0.2-0.1,0.4-0.1,0.5-0.3c0.4-0.3,0.7-0.7,1.1-1.2c0.4-0.6,0.7-1.3,1.1-2.1c0.1-0.2,0.4-0.3,0.6-0.2
		C3418.4,1454.7,3418.5,1454.9,3418.4,1455.2z"/>
</g>
<g>
	<path class="st2" d="M3301.4,1452.2l-6.7,2.5l5,2.3c0.3,0.1,0.4,0.4,0.3,0.7c-0.1,0.2-0.4,0.4-0.7,0.2l-6.2-2.7
		c-0.1,0-0.2-0.1-0.3-0.3c-0.1-0.3,0-0.6,0.3-0.7l7.9-3c0.3-0.1,0.6,0,0.7,0.3C3301.8,1451.8,3301.7,1452.1,3301.4,1452.2z"/>
	<path class="st2" d="M3313.3,1452.2l-6.7,2.5l5,2.3c0.3,0.1,0.4,0.4,0.3,0.7c-0.1,0.2-0.4,0.4-0.7,0.2l-6.2-2.7
		c-0.1,0-0.2-0.1-0.3-0.3c-0.1-0.3,0-0.6,0.3-0.7l7.9-3c0.3-0.1,0.6,0,0.7,0.3C3313.6,1451.8,3313.5,1452.1,3313.3,1452.2z"/>
</g>
<path class="st0" d="M1287.8,555.8c-0.4-3-3.2-5.1-6.2-4.7c-3,0.4-5.1,3.2-4.7,6.2c2.2,15.4,3.2,43.1-3.1,51.8
	c-4.7,6.4-11.4,8-16.1,8.2l3.2-61.3c0-15.3-12.4-27.8-27.8-27.8s-27.8,12.4-27.8,27.8l4.2,80c-6.5-2.3-11.8-5.1-14.4-8.2
	c-8.3-10.2-2.4-22.5-2.2-23c1.4-2.7,0.3-6-2.4-7.4c-2.7-1.4-6-0.3-7.4,2.4c-0.1,0.2-0.7,1.5-1.4,3.5c-2.1,6.2-4.8,19.5,4.9,31.4
	c4.7,5.7,13.9,10,23.5,13.1l2.2,41.9h41.5l3.2-61.4c7.1-0.1,18-2.3,25.6-12.7C1293.7,600.4,1288.4,560.4,1287.8,555.8"/>
<g>
	<path class="st3" d="M1335.8,1665.1c0.4,0,0.8-0.1,1.2-0.3c0.4-0.2,0.7-0.6,0.9-1.1s0.3-1.1,0.3-1.8c0-0.7-0.1-1.3-0.3-1.7
		c-0.2-0.5-0.5-0.9-0.9-1.1c-0.4-0.3-0.8-0.4-1.2-0.4v-1.8c0.4,0.1,0.8,0.2,1.1,0.3c0.5,0.3,1,0.6,1.5,1.2v-3.7
		c0-0.5,0.1-0.9,0.3-1.2c0.2-0.3,0.5-0.4,0.9-0.4s0.7,0.1,0.9,0.4c0.2,0.2,0.3,0.6,0.3,1.1v11.2c0,0.5-0.1,0.8-0.3,1.1
		c-0.2,0.2-0.5,0.4-0.9,0.4c-0.3,0-0.6-0.1-0.9-0.4c-0.2-0.2-0.3-0.6-0.3-1.1v-0.3c-0.3,0.4-0.7,0.7-1,1c-0.3,0.2-0.7,0.4-1.1,0.6
		c-0.2,0-0.3,0.1-0.5,0.1V1665.1z M1333.4,1661.9c0,0.7,0.1,1.3,0.3,1.8c0.2,0.5,0.5,0.8,0.9,1.1c0.4,0.2,0.8,0.4,1.2,0.4l0,0v1.9
		c-0.2,0-0.5,0.1-0.8,0.1c-0.6,0-1.2-0.1-1.7-0.4s-1-0.6-1.3-1.1c-0.4-0.5-0.7-1-0.9-1.7c-0.2-0.6-0.3-1.3-0.3-2.1
		c0-1.6,0.4-2.8,1.2-3.7c0.8-0.9,1.8-1.3,3.1-1.3c0.3,0,0.5,0,0.7,0v1.8l0,0c-0.5,0-0.9,0.1-1.2,0.4c-0.4,0.3-0.6,0.6-0.8,1.1
		C1333.5,1660.7,1333.4,1661.3,1333.4,1661.9"/>
	<path class="st3" d="M1347.7,1661.1h2.3c-0.1-0.9-0.3-1.5-0.7-1.9c-0.4-0.4-0.9-0.6-1.6-0.6v-1.8h0.1c1,0,1.8,0.2,2.5,0.6
		s1.2,1,1.6,1.6c0.3,0.7,0.5,1.3,0.5,2c0,0.6-0.2,1.1-0.5,1.2c-0.4,0.2-0.9,0.3-1.5,0.3h-2.7L1347.7,1661.1L1347.7,1661.1z
		 M1347.7,1667.1v-1.7c0.1,0,0.1,0,0.2,0c0.3,0,0.6,0,0.8-0.1c0.2-0.1,0.5-0.2,0.7-0.3c0.2-0.2,0.5-0.3,0.7-0.5s0.5-0.4,0.8-0.7
		c0.1-0.1,0.3-0.2,0.6-0.2s0.5,0.1,0.6,0.2c0.2,0.1,0.2,0.3,0.2,0.6c0,0.2-0.1,0.5-0.3,0.8s-0.5,0.6-0.8,0.9
		c-0.4,0.3-0.8,0.5-1.4,0.7c-0.5,0.2-1.2,0.3-1.9,0.3C1347.9,1667.1,1347.8,1667.1,1347.7,1667.1 M1345.4,1661.1h2.3v1.4h-2.3
		c0,0.6,0.1,1.1,0.3,1.5c0.2,0.4,0.5,0.8,0.9,1c0.3,0.2,0.7,0.3,1,0.3v1.7c-1.5-0.1-2.7-0.5-3.5-1.4c-0.9-0.9-1.4-2.2-1.4-3.8
		c0-0.8,0.1-1.4,0.3-2.1c0.2-0.6,0.5-1.2,1-1.6c0.4-0.5,0.9-0.8,1.6-1c0.6-0.2,1.3-0.4,2-0.4v1.8l0,0c-0.6,0-1.2,0.2-1.6,0.6
		C1345.7,1659.6,1345.5,1660.3,1345.4,1661.1"/>
	<path class="st3" d="M1362.7,1663.8c0,0.7-0.2,1.3-0.5,1.8s-0.8,0.9-1.5,1.1c-0.7,0.3-1.5,0.4-2.4,0.4s-1.7-0.1-2.3-0.4
		c-0.7-0.3-1.1-0.6-1.4-1s-0.5-0.8-0.5-1.3c0-0.3,0.1-0.5,0.3-0.7c0.2-0.2,0.4-0.3,0.8-0.3c0.3,0,0.5,0.1,0.6,0.2s0.3,0.3,0.4,0.5
		c0.3,0.5,0.6,0.8,0.9,1c0.4,0.2,0.9,0.3,1.5,0.3c0.5,0,0.9-0.1,1.2-0.3c0.3-0.2,0.5-0.5,0.5-0.8c0-0.4-0.2-0.8-0.5-1
		s-0.9-0.4-1.7-0.6c-0.9-0.2-1.6-0.4-2.1-0.7c-0.5-0.2-1-0.5-1.3-0.9s-0.5-0.9-0.5-1.4s0.1-1,0.5-1.4c0.3-0.4,0.8-0.8,1.3-1.1
		c0.6-0.3,1.3-0.4,2.1-0.4c0.7,0,1.2,0.1,1.8,0.2c0.5,0.1,1,0.3,1.3,0.6c0.4,0.2,0.6,0.5,0.8,0.8c0.2,0.3,0.3,0.5,0.3,0.8
		s-0.1,0.5-0.3,0.7c-0.2,0.2-0.5,0.3-0.8,0.3s-0.5-0.1-0.7-0.2s-0.4-0.4-0.6-0.7c-0.2-0.2-0.4-0.4-0.7-0.6c-0.3-0.1-0.6-0.2-1.1-0.2
		s-0.8,0.1-1.1,0.3c-0.3,0.2-0.5,0.4-0.5,0.7c0,0.3,0.1,0.5,0.3,0.7c0.2,0.2,0.5,0.3,0.9,0.4s0.9,0.2,1.6,0.4
		c0.8,0.2,1.4,0.4,1.9,0.7c0.5,0.3,0.9,0.6,1.1,0.9C1362.6,1662.9,1362.7,1663.3,1362.7,1663.8"/>
	<path class="st3" d="M1367.4,1658.2v7.3c0,0.5-0.1,0.9-0.4,1.2c-0.2,0.3-0.5,0.4-0.9,0.4s-0.7-0.1-0.9-0.4s-0.3-0.6-0.3-1.1v-7.2
		c0-0.5,0.1-0.9,0.3-1.1c0.2-0.3,0.5-0.4,0.9-0.4s0.7,0.1,0.9,0.4C1367.2,1657.4,1367.4,1657.8,1367.4,1658.2 M1366.1,1655.6
		c-0.4,0-0.7-0.1-0.9-0.3c-0.3-0.2-0.4-0.5-0.4-0.9s0.1-0.7,0.4-0.9c0.3-0.2,0.6-0.3,0.9-0.3s0.6,0.1,0.9,0.3
		c0.3,0.2,0.4,0.5,0.4,0.9s-0.1,0.7-0.4,0.9C1366.8,1655.5,1366.5,1655.6,1366.1,1655.6"/>
	<path class="st3" d="M1374.4,1665c0.4,0,0.8-0.1,1.2-0.3c0.4-0.2,0.7-0.6,0.9-1c0.2-0.5,0.4-1,0.4-1.7c0-1-0.2-1.8-0.7-2.4
		c-0.4-0.6-1-0.8-1.8-0.9v-1.8c0.4,0.1,0.7,0.2,1.1,0.3c0.5,0.3,1,0.7,1.5,1.3v-0.3c0-0.4,0.1-0.8,0.3-1s0.5-0.4,0.8-0.4
		c0.5,0,0.8,0.2,1,0.5s0.2,0.8,0.2,1.4v7.3c0,0.8-0.1,1.6-0.3,2.2c-0.2,0.6-0.5,1.1-0.9,1.5s-0.9,0.7-1.6,0.9
		c-0.6,0.2-1.3,0.3-2.2,0.3v-1.8c0.6,0,1-0.1,1.3-0.3c0.4-0.2,0.6-0.4,0.8-0.8c0.1-0.3,0.2-0.7,0.3-1.1c0-0.4,0-1,0.1-1.8
		c-0.4,0.5-0.8,1-1.4,1.2c-0.3,0.2-0.7,0.3-1,0.4L1374.4,1665L1374.4,1665z M1372,1661.9c0,1,0.2,1.8,0.7,2.3s1,0.8,1.7,0.8l0,0v1.8
		c-0.2,0-0.5,0.1-0.8,0.1c-0.8,0-1.6-0.2-2.2-0.7c-0.6-0.4-1.1-1-1.5-1.8c-0.3-0.8-0.5-1.7-0.5-2.7c0-0.8,0.1-1.4,0.3-2.1
		c0.2-0.6,0.5-1.1,0.9-1.6c0.4-0.4,0.8-0.7,1.3-0.9c0.5-0.2,1.1-0.3,1.6-0.3c0.3,0,0.6,0,0.8,0.1v1.8l0,0c-0.7,0-1.3,0.3-1.7,0.8
		C1372.2,1660.1,1372,1660.8,1372,1661.9 M1374.4,1669.1v1.8h-0.2c-0.9,0-1.7-0.1-2.3-0.4c-0.7-0.2-1.2-0.6-1.6-0.9
		c-0.4-0.4-0.6-0.8-0.6-1.2c0-0.3,0.1-0.6,0.3-0.7c0.2-0.2,0.5-0.3,0.8-0.3c0.4,0,0.7,0.2,1,0.5c0.1,0.2,0.3,0.3,0.4,0.5
		s0.3,0.3,0.5,0.4s0.4,0.2,0.6,0.3c0.2,0.1,0.5,0.1,0.9,0.1C1374.3,1669.1,1374.3,1669.1,1374.4,1669.1"/>
	<path class="st3" d="M1384.1,1658.2v0.3c0.4-0.6,0.9-1,1.5-1.3c0.5-0.3,1.1-0.4,1.8-0.4c0.7,0,1.3,0.1,1.8,0.4s0.9,0.7,1.2,1.2
		c0.2,0.3,0.3,0.6,0.3,1c0.1,0.4,0.1,0.8,0.1,1.4v4.7c0,0.5-0.1,0.9-0.3,1.2c-0.2,0.3-0.5,0.4-0.9,0.4s-0.7-0.1-0.9-0.4
		c-0.2-0.3-0.4-0.6-0.4-1.1v-4.2c0-0.8-0.1-1.5-0.3-1.9s-0.7-0.7-1.4-0.7c-0.4,0-0.9,0.1-1.2,0.4c-0.4,0.3-0.6,0.6-0.8,1.1
		c-0.1,0.4-0.2,1.1-0.2,2.1v3.2c0,0.5-0.1,0.9-0.4,1.2c-0.2,0.3-0.5,0.4-0.9,0.4s-0.7-0.1-0.9-0.4c-0.2-0.3-0.4-0.6-0.4-1.1v-7.3
		c0-0.5,0.1-0.8,0.3-1.1c0.2-0.2,0.5-0.4,0.9-0.4c0.2,0,0.4,0,0.6,0.2c0.2,0.1,0.3,0.3,0.4,0.5
		C1384.1,1657.6,1384.1,1657.9,1384.1,1658.2"/>
	<path class="st3" d="M1397.7,1661.1h2.3c-0.1-0.9-0.3-1.5-0.7-1.9c-0.4-0.4-0.9-0.6-1.6-0.6v-1.8h0.1c1,0,1.8,0.2,2.5,0.6
		s1.2,1,1.6,1.6c0.3,0.7,0.5,1.3,0.5,2c0,0.6-0.2,1.1-0.5,1.2c-0.4,0.2-0.9,0.3-1.5,0.3h-2.7L1397.7,1661.1L1397.7,1661.1z
		 M1397.7,1667.1v-1.7c0.1,0,0.1,0,0.2,0c0.3,0,0.6,0,0.8-0.1c0.3-0.1,0.5-0.2,0.7-0.3c0.2-0.2,0.5-0.3,0.6-0.5
		c0.2-0.2,0.5-0.4,0.8-0.7c0.1-0.1,0.3-0.2,0.6-0.2c0.3,0,0.5,0.1,0.6,0.2c0.2,0.1,0.2,0.3,0.2,0.6c0,0.2-0.1,0.5-0.3,0.8
		c-0.2,0.3-0.4,0.6-0.8,0.9s-0.8,0.5-1.4,0.7C1399.2,1667,1398.5,1667.1,1397.7,1667.1C1397.9,1667.1,1397.8,1667.1,1397.7,1667.1
		 M1395.4,1661.1h2.3v1.4h-2.3c0,0.6,0.1,1.1,0.3,1.5c0.2,0.4,0.5,0.8,0.9,1c0.3,0.2,0.7,0.3,1.1,0.3v1.7c-1.5-0.1-2.7-0.5-3.5-1.4
		c-0.9-0.9-1.4-2.2-1.4-3.8c0-0.8,0.1-1.4,0.3-2.1c0.2-0.6,0.5-1.2,1-1.6c0.4-0.5,0.9-0.8,1.6-1c0.6-0.2,1.3-0.4,2-0.4v1.8l0,0
		c-0.6,0-1.1,0.2-1.6,0.6C1395.8,1659.6,1395.5,1660.3,1395.4,1661.1"/>
	<path class="st3" d="M1409,1665.1c0.4,0,0.8-0.1,1.2-0.3c0.4-0.2,0.7-0.6,0.9-1.1c0.2-0.5,0.3-1.1,0.3-1.8c0-0.7-0.1-1.3-0.3-1.7
		c-0.2-0.5-0.5-0.9-0.9-1.1c-0.4-0.3-0.8-0.4-1.2-0.4v-1.8c0.4,0.1,0.8,0.2,1.1,0.3c0.5,0.3,1,0.6,1.5,1.2v-3.7
		c0-0.5,0.1-0.9,0.3-1.2c0.2-0.3,0.5-0.4,0.9-0.4s0.7,0.1,0.9,0.4c0.2,0.2,0.3,0.6,0.3,1.1v11.2c0,0.5-0.1,0.8-0.3,1.1
		c-0.2,0.2-0.5,0.4-0.9,0.4c-0.3,0-0.6-0.1-0.9-0.4c-0.2-0.2-0.3-0.6-0.3-1.1v-0.3c-0.3,0.4-0.7,0.7-1,1c-0.3,0.2-0.7,0.4-1.1,0.6
		c-0.2,0-0.3,0.1-0.5,0.1V1665.1z M1406.5,1661.9c0,0.7,0.1,1.3,0.3,1.8c0.2,0.5,0.5,0.8,0.9,1.1c0.4,0.2,0.8,0.4,1.2,0.4l0,0v1.9
		c-0.3,0-0.5,0.1-0.8,0.1c-0.6,0-1.2-0.1-1.7-0.4s-1-0.6-1.3-1.1c-0.4-0.5-0.7-1-0.9-1.7c-0.2-0.6-0.3-1.3-0.3-2.1
		c0-1.6,0.4-2.8,1.2-3.7c0.8-0.9,1.8-1.3,3.1-1.3c0.3,0,0.5,0,0.8,0v1.8l0,0c-0.5,0-0.9,0.1-1.2,0.4c-0.4,0.3-0.6,0.6-0.8,1.1
		C1406.6,1660.7,1406.5,1661.3,1406.5,1661.9"/>
	<path class="st3" d="M1426.1,1665.1L1426.1,1665.1c0.7,0,1.3-0.3,1.7-0.8c0.5-0.6,0.7-1.3,0.7-2.4c0-0.7-0.1-1.2-0.3-1.7
		c-0.2-0.5-0.5-0.9-0.8-1.1c-0.4-0.3-0.8-0.4-1.2-0.4h-0.1v-1.8c0.2,0,0.5,0,0.8,0c0.8,0,1.6,0.2,2.2,0.6s1.1,1,1.5,1.7
		c0.4,0.8,0.5,1.7,0.5,2.7c0,0.8-0.1,1.5-0.3,2.1s-0.5,1.2-0.9,1.7s-0.8,0.8-1.3,1.1c-0.5,0.3-1.1,0.4-1.7,0.4c-0.3,0-0.5,0-0.7-0.1
		L1426.1,1665.1L1426.1,1665.1z M1423.7,1662c0,1,0.2,1.8,0.7,2.3c0.4,0.5,1,0.8,1.7,0.8v1.9c-0.1,0-0.3,0-0.4-0.1
		c-0.3-0.1-0.6-0.2-0.9-0.4c-0.2-0.1-0.4-0.3-0.6-0.5s-0.4-0.4-0.7-0.7v0.3c0,0.5-0.1,0.8-0.3,1.1c-0.2,0.2-0.5,0.4-0.9,0.4
		s-0.6-0.1-0.9-0.4c-0.2-0.2-0.3-0.6-0.3-1.1v-11.1c0-0.5,0.1-0.9,0.3-1.2c0.2-0.3,0.5-0.4,0.9-0.4s0.7,0.1,0.9,0.4
		c0.2,0.2,0.3,0.6,0.3,1.1v3.9c0.5-0.5,1-0.9,1.5-1.1c0.3-0.2,0.7-0.3,1.1-0.3v1.8c-0.4,0-0.8,0.1-1.2,0.4c-0.4,0.3-0.7,0.6-0.9,1.1
		C1423.8,1660.7,1423.7,1661.3,1423.7,1662"/>
	<path class="st3" d="M1435.2,1667.4l0.2-0.6l-3.1-7.8c-0.2-0.5-0.3-0.8-0.3-1s0.1-0.4,0.2-0.6s0.3-0.3,0.5-0.4s0.4-0.2,0.6-0.2
		c0.4,0,0.6,0.1,0.8,0.3c0.2,0.2,0.4,0.6,0.5,1l2.1,6.2l2-5.8c0.2-0.5,0.3-0.8,0.4-1.1c0.1-0.3,0.3-0.4,0.4-0.5s0.4-0.1,0.6-0.1
		s0.4,0.1,0.6,0.2s0.3,0.2,0.4,0.4c0.1,0.2,0.1,0.4,0.1,0.5s-0.1,0.3-0.1,0.5c-0.1,0.2-0.1,0.4-0.2,0.7l-3.3,8.6
		c-0.3,0.8-0.6,1.4-0.8,1.8c-0.3,0.4-0.6,0.8-1.1,1s-1.1,0.3-1.8,0.3c-0.7,0-1.3-0.1-1.7-0.2c-0.4-0.2-0.6-0.5-0.6-0.9
		c0-0.3,0.1-0.5,0.3-0.7c0.2-0.2,0.4-0.2,0.8-0.2c0.1,0,0.3,0,0.4,0.1c0.2,0,0.3,0.1,0.4,0.1c0.3,0,0.5,0,0.7-0.1s0.3-0.2,0.5-0.5
		C1434.8,1668.1,1435,1667.8,1435.2,1667.4"/>
	<path class="st3" d="M1482,1657h0.6v-0.8c0-0.8,0.1-1.4,0.3-1.9c0.2-0.5,0.5-0.8,1-1s1.1-0.3,2-0.3c1.5,0,2.2,0.4,2.2,1.1
		c0,0.2-0.1,0.4-0.2,0.6c-0.2,0.2-0.3,0.3-0.5,0.3c-0.1,0-0.3,0-0.5-0.1c-0.2,0-0.4-0.1-0.6-0.1c-0.5,0-0.8,0.1-0.9,0.4
		s-0.2,0.7-0.2,1.2v0.6h0.6c1,0,1.4,0.3,1.4,0.9c0,0.4-0.1,0.7-0.4,0.8c-0.3,0.1-0.6,0.2-1.1,0.2h-0.6v6.7c0,0.5-0.1,0.9-0.4,1.1
		c-0.2,0.3-0.5,0.4-0.9,0.4s-0.7-0.1-0.9-0.4s-0.4-0.7-0.4-1.1v-6.7h-0.7c-0.4,0-0.7-0.1-0.9-0.3c-0.2-0.2-0.3-0.4-0.3-0.7
		C1480.7,1657.3,1481.1,1657,1482,1657"/>
	<path class="st3" d="M1491,1663.4v2.1c0,0.5-0.1,0.9-0.4,1.2c-0.2,0.3-0.5,0.4-0.9,0.4s-0.7-0.1-0.9-0.4s-0.4-0.6-0.4-1.2v-7
		c0-1.1,0.4-1.7,1.2-1.7c0.4,0,0.7,0.1,0.9,0.4c0.2,0.3,0.3,0.7,0.3,1.2c0.3-0.5,0.6-0.9,0.9-1.2c0.3-0.3,0.7-0.4,1.3-0.4
		c0.5,0,1,0.1,1.5,0.4s0.8,0.6,0.8,1.1c0,0.3-0.1,0.6-0.3,0.8c-0.2,0.2-0.4,0.3-0.7,0.3c-0.1,0-0.3-0.1-0.7-0.2
		c-0.4-0.1-0.7-0.2-0.9-0.2c-0.4,0-0.7,0.1-0.9,0.3c-0.2,0.2-0.4,0.5-0.5,0.9s-0.2,0.8-0.3,1.4C1491,1662,1491,1662.7,1491,1663.4"
		/>
	<path class="st3" d="M1500.8,1661.1h2.3c-0.1-0.9-0.3-1.5-0.7-1.9c-0.4-0.4-0.9-0.6-1.6-0.6v-1.8h0.1c1,0,1.8,0.2,2.5,0.6
		s1.2,1,1.6,1.6c0.3,0.7,0.5,1.3,0.5,2c0,0.6-0.2,1.1-0.5,1.2c-0.4,0.2-0.9,0.3-1.5,0.3h-2.7L1500.8,1661.1L1500.8,1661.1z
		 M1500.8,1667.1v-1.7c0.1,0,0.1,0,0.2,0c0.3,0,0.6,0,0.8-0.1c0.2-0.1,0.5-0.2,0.7-0.3c0.2-0.2,0.5-0.3,0.7-0.5s0.5-0.4,0.8-0.7
		c0.1-0.1,0.3-0.2,0.6-0.2s0.5,0.1,0.6,0.2c0.2,0.1,0.2,0.3,0.2,0.6c0,0.2-0.1,0.5-0.3,0.8s-0.4,0.6-0.8,0.9s-0.8,0.5-1.4,0.7
		c-0.5,0.2-1.2,0.3-1.9,0.3C1500.9,1667.1,1500.8,1667.1,1500.8,1667.1 M1498.5,1661.1h2.3v1.4h-2.3c0,0.6,0.1,1.1,0.3,1.5
		c0.2,0.4,0.5,0.8,0.9,1c0.3,0.2,0.7,0.3,1,0.3v1.7c-1.5-0.1-2.7-0.5-3.5-1.4c-0.9-0.9-1.4-2.2-1.4-3.8c0-0.8,0.1-1.4,0.3-2.1
		c0.2-0.6,0.5-1.2,1-1.6c0.4-0.5,1-0.8,1.6-1s1.3-0.4,2-0.4v1.8l0,0c-0.6,0-1.2,0.2-1.6,0.6
		C1498.8,1659.6,1498.6,1660.3,1498.5,1661.1"/>
	<path class="st3" d="M1512,1661.1h2.3c-0.1-0.9-0.3-1.5-0.7-1.9s-0.9-0.6-1.6-0.6v-1.8h0.1c1,0,1.8,0.2,2.5,0.6s1.2,1,1.6,1.6
		c0.3,0.7,0.5,1.3,0.5,2c0,0.6-0.2,1.1-0.6,1.2c-0.4,0.2-0.9,0.3-1.5,0.3h-2.7L1512,1661.1L1512,1661.1z M1512,1667.1v-1.7
		c0.1,0,0.1,0,0.2,0c0.3,0,0.6,0,0.8-0.1s0.5-0.2,0.7-0.3c0.2-0.2,0.5-0.3,0.7-0.5s0.5-0.4,0.8-0.7c0.1-0.1,0.3-0.2,0.6-0.2
		c0.3,0,0.5,0.1,0.6,0.2s0.2,0.3,0.2,0.6c0,0.2-0.1,0.5-0.3,0.8c-0.2,0.3-0.4,0.6-0.8,0.9s-0.8,0.5-1.4,0.7
		c-0.5,0.2-1.2,0.3-1.9,0.3C1512.2,1667.1,1512.1,1667.1,1512,1667.1 M1509.7,1661.1h2.3v1.4h-2.3c0,0.6,0.1,1.1,0.3,1.5
		s0.5,0.8,0.9,1c0.3,0.2,0.7,0.3,1,0.3v1.7c-1.5-0.1-2.7-0.5-3.5-1.4c-0.9-0.9-1.4-2.2-1.4-3.8c0-0.8,0.1-1.4,0.3-2.1
		c0.2-0.6,0.5-1.2,1-1.6c0.4-0.5,1-0.8,1.6-1s1.3-0.4,2-0.4v1.8l0,0c-0.6,0-1.1,0.2-1.6,0.6
		C1510.1,1659.6,1509.8,1660.3,1509.7,1661.1"/>
	<path class="st3" d="M1526,1661.9c0-0.7-0.1-1.2-0.3-1.7c-0.2-0.5-0.5-0.9-0.8-1.1c-0.4-0.3-0.8-0.4-1.2-0.4h-0.1v-1.8
		c0.2,0,0.5-0.1,0.7-0.1c0.8,0,1.5,0.2,2.1,0.6c0.7,0.4,1.2,1,1.5,1.8c0.4,0.8,0.6,1.7,0.6,2.7c0,0.8-0.1,1.5-0.3,2.1
		c-0.2,0.7-0.5,1.2-0.9,1.6s-0.8,0.8-1.4,1c-0.5,0.2-1.1,0.4-1.7,0.4c-0.2,0-0.5,0-0.7,0v-1.9h0.1c0.4,0,0.8-0.1,1.2-0.4
		c0.4-0.2,0.6-0.6,0.9-1.1C1525.8,1663.2,1526,1662.6,1526,1661.9 M1523.5,1658.7c-0.7,0-1.2,0.3-1.7,0.8s-0.7,1.4-0.7,2.4
		s0.2,1.8,0.7,2.3s1,0.8,1.7,0.8v1.9c-0.4-0.1-0.8-0.2-1.1-0.4c-0.5-0.3-1-0.7-1.4-1.3v3.8c0,1.1-0.4,1.7-1.2,1.7
		c-0.5,0-0.8-0.1-1-0.4s-0.2-0.7-0.2-1.3v-10.9c0-0.5,0.1-0.8,0.3-1.1c0.2-0.2,0.5-0.4,0.9-0.4s0.6,0.1,0.9,0.4
		c0.2,0.2,0.3,0.6,0.3,1.1v0.3c0.5-0.6,1-1,1.5-1.3c0.3-0.2,0.7-0.3,1.1-0.4L1523.5,1658.7L1523.5,1658.7z"/>
	<path class="st3" d="M1533.1,1658.2v7.3c0,0.5-0.1,0.9-0.4,1.2c-0.2,0.3-0.5,0.4-0.9,0.4s-0.7-0.1-0.9-0.4s-0.3-0.6-0.3-1.1v-7.2
		c0-0.5,0.1-0.9,0.3-1.1c0.2-0.3,0.5-0.4,0.9-0.4s0.7,0.1,0.9,0.4C1532.9,1657.4,1533.1,1657.8,1533.1,1658.2 M1531.8,1655.6
		c-0.4,0-0.7-0.1-0.9-0.3c-0.2-0.2-0.4-0.5-0.4-0.9s0.1-0.7,0.4-0.9c0.3-0.2,0.6-0.3,0.9-0.3s0.6,0.1,0.9,0.3
		c0.2,0.2,0.4,0.5,0.4,0.9s-0.1,0.7-0.4,0.9S1532.1,1655.6,1531.8,1655.6"/>
	<path class="st3" d="M1542,1665.9l-2.2-3.7l-1.4,1.3v2c0,0.5-0.1,0.9-0.4,1.1c-0.3,0.3-0.6,0.4-0.9,0.4c-0.4,0-0.7-0.1-0.9-0.4
		c-0.2-0.3-0.3-0.6-0.3-1.2v-10.8c0-0.6,0.1-1,0.3-1.3c0.2-0.3,0.5-0.4,0.9-0.4s0.7,0.1,0.9,0.4c0.2,0.3,0.3,0.7,0.3,1.2v6.1l2.8-3
		c0.4-0.4,0.6-0.6,0.8-0.8c0.2-0.1,0.4-0.2,0.7-0.2c0.3,0,0.6,0.1,0.8,0.3c0.2,0.2,0.3,0.5,0.3,0.8c0,0.4-0.3,0.9-1,1.5l-1.3,1.2
		l2.6,4.1c0.2,0.3,0.3,0.5,0.4,0.7s0.1,0.3,0.1,0.4c0,0.4-0.1,0.7-0.3,1c-0.2,0.2-0.5,0.3-0.9,0.3c-0.3,0-0.5-0.1-0.7-0.2
		C1542.5,1666.7,1542.3,1666.4,1542,1665.9"/>
	<path class="st3" d="M1548.2,1667.1c-0.4,0-0.7-0.1-1-0.4c-0.3-0.2-0.4-0.6-0.4-1s0.1-0.7,0.4-1s0.6-0.4,1-0.4s0.7,0.1,1,0.4
		s0.4,0.6,0.4,1s-0.1,0.8-0.4,1C1548.9,1667,1548.6,1667.1,1548.2,1667.1"/>
	<path class="st3" d="M1561.6,1664c0,0.3-0.1,0.7-0.3,1c-0.2,0.4-0.5,0.7-0.9,1s-0.9,0.6-1.5,0.8c-0.6,0.2-1.3,0.3-2,0.3
		c-1.6,0-2.8-0.5-3.7-1.4s-1.3-2.1-1.3-3.7c0-1,0.2-2,0.6-2.8s1-1.4,1.7-1.8c0.8-0.4,1.7-0.7,2.7-0.7c0.7,0,1.2,0.1,1.8,0.3
		c0.5,0.2,1,0.4,1.4,0.7c0.4,0.3,0.7,0.6,0.9,1c0.2,0.3,0.3,0.7,0.3,1s-0.1,0.6-0.3,0.8c-0.2,0.2-0.5,0.3-0.8,0.3
		c-0.2,0-0.4-0.1-0.5-0.2s-0.3-0.3-0.5-0.5c-0.3-0.5-0.6-0.8-1-1.1c-0.3-0.2-0.8-0.4-1.3-0.4c-0.7,0-1.3,0.3-1.8,0.9
		s-0.7,1.4-0.7,2.4c0,0.5,0.1,0.9,0.2,1.3s0.3,0.7,0.5,1s0.5,0.5,0.8,0.6s0.7,0.2,1,0.2c0.5,0,0.9-0.1,1.3-0.4
		c0.4-0.2,0.7-0.6,1-1.1c0.2-0.3,0.3-0.5,0.5-0.7s0.4-0.2,0.7-0.2s0.6,0.1,0.8,0.4C1561.5,1663.4,1561.6,1663.7,1561.6,1664"/>
	<path class="st3" d="M1570.7,1662c0-1-0.2-1.8-0.7-2.4c-0.4-0.6-1.1-0.9-1.8-0.9v-1.9c0.8,0,1.5,0.1,2.1,0.4
		c0.6,0.2,1.2,0.6,1.6,1.1s0.8,1,1,1.6s0.3,1.3,0.3,2.1c0,0.7-0.1,1.4-0.3,2.1c-0.2,0.6-0.6,1.2-1,1.6c-0.4,0.5-1,0.8-1.6,1.1
		c-0.6,0.2-1.3,0.4-2.1,0.4v-1.9c0.8,0,1.4-0.3,1.8-0.9C1570.5,1663.8,1570.7,1663,1570.7,1662 M1568.2,1658.7L1568.2,1658.7
		c-0.5,0-0.9,0.1-1.3,0.4s-0.7,0.6-0.9,1.1s-0.3,1.1-0.3,1.8c0,0.7,0.1,1.2,0.3,1.7s0.5,0.9,0.9,1.1c0.4,0.3,0.8,0.4,1.3,0.4l0,0
		v1.9l0,0c-0.8,0-1.5-0.1-2.1-0.4c-0.6-0.2-1.1-0.6-1.6-1.1c-0.4-0.5-0.8-1-1-1.6s-0.4-1.3-0.4-2.1c0-0.8,0.1-1.5,0.4-2.1
		c0.2-0.6,0.6-1.2,1-1.6c0.4-0.5,1-0.8,1.6-1s1.3-0.4,2.1-0.4l0,0V1658.7z"/>
	<path class="st3" d="M1583.7,1662.1v3.4c0,0.5-0.1,0.9-0.4,1.2c-0.2,0.3-0.6,0.4-1,0.4s-0.7-0.1-0.9-0.4c-0.2-0.3-0.4-0.7-0.4-1.2
		v-4c0-0.6,0-1.1-0.1-1.5c0-0.4-0.2-0.6-0.4-0.9c-0.2-0.2-0.5-0.3-0.9-0.3c-0.8,0-1.4,0.3-1.6,0.8c-0.3,0.6-0.4,1.4-0.4,2.4v3.4
		c0,0.5-0.1,0.9-0.4,1.2c-0.2,0.3-0.6,0.4-0.9,0.4c-0.4,0-0.7-0.1-0.9-0.4c-0.2-0.3-0.4-0.7-0.4-1.2v-7.2c0-0.5,0.1-0.8,0.3-1.1
		c0.2-0.2,0.5-0.4,0.9-0.4c0.3,0,0.6,0.1,0.9,0.3c0.2,0.2,0.3,0.6,0.3,1v0.2c0.4-0.5,0.9-0.9,1.4-1.2c0.5-0.2,1.1-0.4,1.7-0.4
		s1.2,0.1,1.6,0.4c0.5,0.3,0.8,0.6,1.1,1.1c0.4-0.5,0.9-0.9,1.4-1.2c0.5-0.2,1-0.4,1.6-0.4c0.7,0,1.3,0.1,1.8,0.4s0.9,0.7,1.1,1.2
		s0.3,1.2,0.3,2.2v4.9c0,0.5-0.1,0.9-0.4,1.2c-0.2,0.3-0.5,0.4-1,0.4c-0.4,0-0.7-0.1-0.9-0.4s-0.4-0.7-0.4-1.2v-4.3
		c0-0.5,0-1-0.1-1.3c0-0.3-0.2-0.6-0.4-0.8c-0.2-0.2-0.5-0.3-0.9-0.3c-0.3,0-0.6,0.1-0.9,0.3c-0.3,0.2-0.5,0.5-0.7,0.8
		C1583.7,1660.3,1583.7,1661.1,1583.7,1662.1"/>
	<path class="st3" d="M1462,1650.3c-0.1-0.2-0.1-0.3-0.2-0.5c0.8-0.1,1.4-1.1,1-1.9c-0.2-0.5-0.7-0.7-1.1-0.7h-0.1
		c-0.4,0-0.8,0.2-1,0.5c-0.5,0.7-0.1,1.8,0.7,2c0.1,0.2,0.1,0.3,0.2,0.5c-1.3,0.1-2.6,0.4-3.6,1.1c0.1,0.3,0.2,0.6,0.3,0.9
		c2.2-0.9,4.6-0.7,6.8-0.5c0.1-0.3,0.2-0.6,0.2-0.9C1464.3,1650.4,1463.2,1650.3,1462,1650.3"/>
	<path class="st3" d="M1474.9,1653.8c-0.3,0.2-0.4,0.6-0.4,0.9c-0.4,0.4-0.2,0.9-0.2,1.4c-0.1,0.3-0.4,0.3-0.6,0.4
		c-0.3-0.4-0.6-0.9-1-1.3l0,0c-0.4-0.4-0.9-0.8-1.4-1.1c-0.4,0.4-0.8,0.8-1.2,1.3c0.8,0.8,1.5,1.7,2.1,2.7c0.4,0.7,0.8,1.5,1.1,2.3
		c0.6-0.3,1.3-0.7,1.9-1c-0.3-0.8-0.7-1.5-1.1-2.3c0.3-0.2,0.7-0.3,0.7-0.7c0-0.4-0.1-0.9,0.2-1.2c0.5,0.3,1.2,0,1.3-0.6
		C1476.2,1653.9,1475.4,1653.4,1474.9,1653.8"/>
	<path class="st3" d="M1469.8,1659c-0.1,1-1.1,1.9-2.2,1.9v4.2c2-0.5,3.8-1.3,5.6-2.3c0,0-0.4-2-1.8-4.2c-0.8-1.4-1.7-2.8-3-3.8
		c-0.3-0.2-0.5-0.4-0.8-0.6v2.4c0.3,0,0.5,0.1,0.8,0.1C1469.4,1656.8,1470,1657.9,1469.8,1659 M1467.6,1660.8L1467.6,1660.8
		c-0.6,0-1.2-0.2-1.6-0.7c-0.3-0.4-0.6-0.8-0.6-1.3c-0.1-1.1,0.6-2.2,1.6-2.4c0.2-0.1,0.4-0.1,0.6-0.1v-2.4
		c-1.3-0.9-2.8-1.5-4.4-1.5c-1.9,0-3.9,0.2-5.7,0.8v2.3c0.3,0,0.7,0,1,0.1c0.4,0.1,0.7,0.3,1,0.5c0.7,0.5,1.2,1.2,1.4,1.9
		c0.3,1,0.1,2.1-0.5,3c-0.4,0.6-1,1.1-1.7,1.3c-0.4,0.1-0.8,0.2-1.2,0.2v3.1h0.1c2.3,0.1,4.5,0.1,6.8-0.2c1.1-0.1,2.2-0.4,3.2-0.6
		L1467.6,1660.8L1467.6,1660.8z M1457.5,1653.3v2.3c-0.6,0-1.2,0.1-1.7,0.4c-1.1,0.6-1.8,1.7-1.9,2.9c-0.1,1,0.3,1.9,1,2.7
		c0.7,0.7,1.6,1.1,2.6,1.1v3.1c-2.3-0.1-4.5-0.6-6.7-1.2c-0.4-2-0.4-4.2,0.5-6.1c0.9-2.1,2.7-3.8,4.8-4.7
		C1456.6,1653.6,1457.1,1653.5,1457.5,1653.3"/>
	<path class="st3" d="M1451.3,1655.3c-0.9,0.5-1.6,1.3-2.3,2.2c-0.2-0.3-0.2-0.7-0.5-1c-0.1-0.2-0.4-0.1-0.6-0.1s-0.5,0-0.7-0.1
		c0.3-0.4,0.2-0.9-0.2-1.2c-0.4-0.3-1.1,0-1.2,0.5c-0.2,0.6,0.4,1.1,1,1c0.3,0.4,0.8,0.4,1.3,0.4c0.2,0.4,0.4,0.7,0.6,1.1
		c-0.5,1-0.8,2-0.8,3.1c0.6,0.3,1.2,0.5,1.9,0.8c0-0.7,0.1-1.3,0.2-2c0.2-1.5,1-2.7,2-3.8
		C1451.9,1655.8,1451.6,1655.6,1451.3,1655.3"/>
	<path class="st3" d="M1465.9,1666.3c-2.3,0.5-4.7,0.6-7,0.5c-1.6-0.1-3.2-0.2-4.7-0.6c-1.1-0.2-2.2-0.5-3.3-0.8
		c0.2,1.4,0.7,2.7,1.5,3.8c0.9,1.3,2.2,2.5,3.8,3c1.1,0.3,2.5,0.7,4.7,0.7h0.2h0.2c2.1,0,4.1-0.3,5.9-1.1c1.2-0.5,2.3-1.2,3.2-2.1
		c0.8-0.8,1.5-1.7,1.9-2.8c0.4-1,0.8-2.7,0.8-3.6C1471,1664.7,1468.4,1665.8,1465.9,1666.3"/>
</g>
<g>
	<rect x="1761" y="1486.5" class="st1" width="35.7" height="10.2"/>
	<rect x="1771.4" y="1476.9" class="st1" width="15" height="3.5"/>
	<polygon class="st1" points="1788.4,1480.4 1769.3,1480.4 1761,1486.5 1796.7,1486.5 	"/>
	<polygon class="st1" points="1783.3,1326.7 1774.5,1326.7 1773.4,1476.9 1784.3,1476.9 	"/>
	<rect x="1772.2" y="1325" class="st1" width="13.4" height="1.7"/>
	<rect x="1773.2" y="1323.7" class="st1" width="11.3" height="1.3"/>
	<rect x="1760.8" y="1298" class="st1" width="36.2" height="1.3"/>
	<rect x="1774.3" y="1320.3" class="st1" width="9.2" height="1.3"/>
	<rect x="1775.5" y="1321.6" class="st1" width="7" height="2.1"/>
	<rect x="1775.5" y="1288.4" class="st1" width="7" height="2.1"/>
	<rect x="1776.1" y="1283.8" class="st1" width="5.7" height="1.5"/>
	<polygon class="st1" points="1781.2,1280.6 1776.7,1280.6 1778.8,1272.9 1779.1,1272.9 	"/>
	<polygon class="st1" points="1786.6,1290.5 1771.1,1290.5 1762.9,1298 1794.9,1298 	"/>
	<rect x="1777.6" y="1285.2" class="st1" width="2.8" height="3.1"/>
	<rect x="1777.6" y="1280.6" class="st1" width="2.8" height="3.1"/>
	<path class="st1" d="M1759.7,1299.3v1.7h0.2c0.4,1.6,1.8,6,5.7,11.5c3.4,4.7,7.4,7.8,7.6,7.9l0,0v0.1h11.3v-0.1l0,0
		c0.2-0.1,4.2-3.2,7.6-7.9c3.9-5.4,5.3-9.8,5.7-11.5h0.2v-1.7H1759.7z M1774.4,1318.6c-0.3-0.2-4-3.1-7.1-7.4
		c-3.3-4.6-4.7-8.5-5.2-10.3h9.1c0,1.7,0.3,5.6,1.7,9.7c1.2,3.5,3,6.4,4.1,8H1774.4L1774.4,1318.6z M1774.8,1309.9
		c-1.3-3.8-1.6-7.4-1.6-9h11.3c0,1.6-0.3,5.2-1.6,9c-1.2,3.4-3,6.3-4.1,7.8C1777.8,1316.3,1776,1313.4,1774.8,1309.9z
		 M1790.5,1311.2c-3.1,4.3-6.8,7.2-7.1,7.4h-2.6c1.1-1.6,2.9-4.5,4.1-8c1.5-4.1,1.7-8,1.7-9.7h9.1
		C1795.2,1302.7,1793.8,1306.6,1790.5,1311.2z"/>
</g>
</svg>
