<?xml version="1.0" encoding="utf-8"?>
<!-- Generator: Adobe Illustrator 19.1.0, SVG Export Plug-In . SVG Version: 6.00 Build 0)  -->
<svg version="1.1" id="Layer_1" xmlns="http://www.w3.org/2000/svg" xmlns:xlink="http://www.w3.org/1999/xlink" x="0px" y="0px"
	 viewBox="182 325 1156.4 360" style="enable-background:new 182 325 1156.4 360;" xml:space="preserve">
<style type="text/css">
	.st0{fill:#CECECE;}
	.st1{fill:#E6E7E8;}
	.st2{fill:#F4EC8F;}
	.st3{fill:#D3CB7D;}
	.st4{fill:#50516A;}
	.st5{fill:#03A8A0;}
	.st6{fill:#748225;}
	.st7{fill:#FFFFFF;}
</style>
<path class="st0" d="M201.2,491.4c0.4-2.7,2.9-4.6,5.6-4.2s4.6,2.9,4.2,5.6c-1.9,13.8-2.9,38.6,2.8,46.4c4.2,5.7,10.2,7.2,14.4,7.4
	l-2.9-54.9c0-13.7,11.1-24.9,24.9-24.9c13.7,0,24.9,11.1,24.9,24.9l-3.8,71.6c5.8-2.1,10.6-4.6,12.9-7.4c7.5-9.1,2.2-20.1,1.9-20.6
	c-1.2-2.4-0.3-5.4,2.2-6.6c2.4-1.2,5.4-0.3,6.6,2.2c0.1,0.2,0.7,1.3,1.3,3.2c1.9,5.6,4.3,17.5-4.4,28.1c-4.2,5.1-12.4,8.9-21,11.7
	l-2,37.5h-37.2l-2.9-55c-6.4-0.1-16.1-2.1-22.9-11.4C195.9,531.4,200.6,495.5,201.2,491.4"/>
<g>
	<g>
		<path class="st1" d="M1334.2,681.4c-8.1-13.3-21.7-23.1-38.1-25.8c-6.6-1.1-13.2-1-19.5,0.2c6.3-7.8,10.8-17.3,12.5-28
			c5.4-32.7-16.6-63.7-49.2-69.1c-19.4-3.3-38.3,3.4-51.4,16.2c1.8-46.9-31.2-88.9-78.5-96.7c-48.8-8.1-95,23-106.6,70.4
			c-4.4-2.1-9.3-3.8-14.3-4.7c-28.1-4.7-54.6,14.3-59.2,42.5c-1.7,10.2-0.3,20.1,3.5,28.9c-3.3-1.2-6.7-2.2-10.3-2.7
			c-26.8-4.5-52.3,11.5-60.6,36.6c-15.1-14.8-35.8-24-58.7-24c-5.6,0-11.1,0.6-16.4,1.6c7.9-12.4,12.6-27.2,12.6-43.1
			c0-44-35.6-79.7-79.4-79.7c-8,0-15.7,1.2-23,3.4c-5.8-75.1-68.2-134.3-144.4-134.3c-73.8,0-134.7,55.4-143.8,127.2
			c-16.8-22.9-43.8-37.6-74.2-37.6c-50.9,0-92.3,41.5-92.3,92.7c0,16.6,4.4,32.1,12,45.6c-9.3-3.5-19.2-5.3-29.6-5.3
			c-47.2,0-85.4,38.4-85.4,85.8v150.4h1202.5V681.4H1334.2z"/>
	</g>
</g>
<rect x="175.8" y="644" class="st2" width="1181.1" height="52"/>
<ellipse class="st3" cx="1085.9" cy="660" rx="26.8" ry="6"/>
<rect x="1079.7" y="442.9" class="st4" width="10.4" height="217.1"/>
<polygon class="st5" points="1154.5,496.2 1023,496.2 1006.1,480.6 1023,466.9 1154.5,466.9 "/>
<g>
	<path class="st4" d="M2636.4,1238.2c-0.4,0.9-0.8,1.6-1.2,2.2s-0.8,1.1-1.3,1.4c-0.2,0.2-0.5,0.3-0.8,0.4s-0.6,0.1-0.8,0.1l0,0
		c-0.4,0-0.8-0.1-1-0.4c-0.3-0.3-0.4-0.7-0.4-1.2l0,0l0,0c0-0.3,0.1-0.7,0.2-1.2s0.3-1,0.5-1.6c0.1-0.2,0.2-0.6,0.4-1.2
		c0.2-0.6,0.5-1.3,0.7-2c0-0.1,0.1-0.4,0.3-0.9h-1.3c-0.2,0-0.4-0.2-0.4-0.4c0-0.2,0.2-0.4,0.4-0.4h1.5c0.1-0.1,0.1-0.3,0.2-0.4
		c0.4-1.1,0.8-2.3,0.9-2.5c0.1-0.2,0.3-0.3,0.5-0.3s0.3,0.3,0.3,0.5c-0.1,0.2-0.5,1.4-0.9,2.5c0,0.1,0,0.1-0.1,0.2h1.3
		c0.2,0,0.4,0.2,0.4,0.4c0,0.2-0.2,0.4-0.4,0.4h-1.6c-0.2,0.6-0.3,1-0.4,1.2c-0.3,0.8-0.5,1.5-0.7,2s-0.3,0.9-0.4,1.2
		c-0.2,0.6-0.4,1.1-0.5,1.5c-0.1,0.4-0.2,0.8-0.2,1.1l0,0c0,0.3,0.1,0.5,0.2,0.7c0.1,0.1,0.3,0.2,0.4,0.2l0,0c0.2,0,0.4,0,0.6-0.1
		c0.2-0.1,0.4-0.1,0.5-0.3c0.4-0.3,0.7-0.7,1.1-1.2c0.4-0.6,0.7-1.3,1.1-2.1c0.1-0.2,0.4-0.3,0.6-0.2
		C2636.4,1237.7,2636.5,1237.9,2636.4,1238.2z"/>
	<path class="st4" d="M2644.3,1238.2L2644.3,1238.2c-0.8,1.7-1.8,4.2-3.6,4.2l0,0c-0.6,0-0.9-0.2-1.1-0.6c-0.2-0.3-0.3-0.7-0.3-1.1
		v-0.1c0-0.4,0.1-0.9,0.2-1.4s0.3-1,0.5-1.4c0.1-0.1,0.1-0.2,0.1-0.4c0.3-0.7,0.7-1.8,0.7-2.7c0-0.6-0.3-1-1-1
		c-0.5,0-1.1,0.5-1.6,1.1c-0.7,0.9-1.4,2.2-1.8,3.3l0,0c-0.6,1.5-1.2,3.2-1.4,3.9c-0.1,0.2-0.3,0.3-0.5,0.3
		c-0.2-0.1-0.3-0.3-0.3-0.5c0.2-0.6,0.8-2.3,1.4-3.9l0,0l0,0l0,0c0.6-1.7,1.2-3.3,1.4-3.9l0,0c0.2-0.6,0.3-0.8,0.4-1.1
		c0.2-0.5,0.3-0.9,0.4-1.2l0.1-0.3c0.1-0.3,0.3-0.8,0.5-1.4c0.1-0.2,0.3-0.3,0.5-0.2s0.3,0.3,0.3,0.5c-0.2,0.5-0.4,1-0.5,1.4
		c0,0.1-0.1,0.2-0.1,0.3c-0.2,0.5-0.3,0.9-0.4,1.2l-0.3,0.7c0.6-0.6,1.2-0.9,1.8-0.9c1.4,0,1.9,0.8,1.9,1.9c0,1-0.5,2.2-0.8,3
		c-0.1,0.1-0.1,0.3-0.1,0.4c-0.2,0.5-0.3,0.9-0.5,1.4c-0.1,0.4-0.2,0.8-0.2,1.2l0,0c0,0.2,0,0.5,0.1,0.6s0.2,0.2,0.4,0.2l0,0
		c1.2,0,2.2-2.1,2.8-3.6v-0.1c0.1-0.2,0.3-0.3,0.6-0.2C2644.3,1237.7,2644.4,1237.9,2644.3,1238.2z"/>
	<path class="st4" d="M2651.5,1238.2c-0.8,1.7-1.7,2.7-2.7,3.4c-1,0.6-2.1,0.8-3.1,0.8l0,0l0,0c-0.7,0-1.4-0.3-1.8-0.7
		c-0.5-0.5-0.8-1.1-0.7-2l0,0l0,0c0-0.5,0.1-1.1,0.3-1.7l0,0c0.1-0.4,0.3-0.9,0.5-1.3c0.5-1,1.1-2,1.7-2.7c0.3-0.3,0.6-0.5,1-0.7
		c0.3-0.2,0.7-0.3,1.1-0.3c0.5,0,0.8,0.1,1.1,0.3c0.3,0.2,0.5,0.5,0.6,0.8s0,0.7-0.1,1c-0.2,0.5-0.5,1-1,1.4s-1.2,0.8-1.8,1.1
		c-0.9,0.4-1.8,0.7-2.3,0.8c-0.1,0.5-0.2,0.9-0.2,1.3l0,0c0,0.6,0.2,1.1,0.5,1.4c0.3,0.3,0.8,0.5,1.3,0.5l0,0c0.8,0,1.7-0.1,2.6-0.7
		c0.9-0.5,1.7-1.5,2.3-3c0.1-0.2,0.3-0.3,0.6-0.2C2651.5,1237.7,2651.6,1238,2651.5,1238.2z M2644.6,1237.4c0.5-0.1,1-0.3,1.6-0.6
		s1.2-0.6,1.6-1c0.3-0.3,0.6-0.6,0.7-1c0.1-0.2,0.1-0.4,0-0.6c0-0.1-0.1-0.2-0.2-0.3c-0.1-0.1-0.3-0.2-0.6-0.2
		c-0.2,0-0.5,0.1-0.7,0.2c-0.2,0.1-0.5,0.3-0.7,0.6c-0.6,0.6-1.2,1.5-1.6,2.4C2644.7,1237.1,2644.6,1237.2,2644.6,1237.4z"/>
	<path class="st4" d="M2655.2,1238.2c-0.4,0.8-0.8,1.8-1.4,2.6c-0.6,0.9-1.4,1.6-2.3,1.6l0,0c-0.5,0-0.9-0.2-1.1-0.6
		c-0.2-0.3-0.3-0.7-0.3-1.1v-0.1c0-0.3,0.1-0.7,0.2-1.2s0.3-1,0.5-1.6c0.1-0.2,0.2-0.6,0.4-1.2c0.2-0.6,0.5-1.3,0.7-2
		c0-0.1,0.1-0.3,0.2-0.5l0.3-0.9c0.1-0.2,0.3-0.3,0.5-0.3c0.2,0.1,0.3,0.3,0.3,0.5l-0.3,0.9l-0.2,0.5c-0.3,0.8-0.5,1.5-0.7,2
		s-0.3,0.9-0.4,1.2c-0.2,0.6-0.4,1.1-0.5,1.5c-0.1,0.4-0.2,0.8-0.2,1.1l0,0c0,0.2,0,0.5,0.1,0.6c0.1,0.1,0.2,0.2,0.4,0.2l0,0
		c0.6,0,1.1-0.5,1.6-1.2c0.5-0.8,0.9-1.7,1.3-2.5c0.1-0.2,0.4-0.3,0.6-0.2C2655.2,1237.7,2655.3,1237.9,2655.2,1238.2z M2653,1231.3
		c0-0.4,0.3-0.7,0.7-0.7s0.7,0.3,0.7,0.7c0,0.4-0.3,0.7-0.7,0.7C2653.3,1231.9,2653,1231.6,2653,1231.3z"/>
	<path class="st4" d="M2662.5,1238.2L2662.5,1238.2c-0.8,1.7-1.8,4.2-3.6,4.2l0,0c-0.5,0-0.9-0.2-1.1-0.6c-0.2-0.3-0.3-0.7-0.3-1.1
		v-0.1c0-0.3,0.1-0.7,0.2-1.2s0.3-1,0.5-1.6c0.2-0.5,0.3-0.9,0.4-1.1c0.1-0.4,0.2-0.6,0.4-1l-0.3-0.1c-0.6-0.2-1.2-0.4-1.8-0.7
		c-0.1,0.2-0.1,0.4-0.2,0.5l0,0l-1.6,3.5c-0.1,0.2-0.3,0.3-0.6,0.2c-0.2-0.1-0.3-0.3-0.2-0.6l1.6-3.5c0.1-0.2,0.2-0.4,0.2-0.6
		c-0.7-0.5-1.1-1-1-1.9c0-0.3,0.2-0.6,0.4-0.8l0,0c0.2-0.2,0.5-0.3,0.8-0.3c0.1,0,0.2,0,0.3,0l0,0c0.3,0.1,0.5,0.3,0.6,0.5
		c0.1,0.2,0.2,0.5,0.2,0.7s0,0.4-0.1,0.6s-0.1,0.4-0.2,0.7c0.6,0.3,1.2,0.5,1.8,0.7c0.3,0.1,0.5,0.2,0.8,0.2
		c0.2,0.1,0.3,0.3,0.2,0.6l0,0c-0.2,0.6-0.3,0.9-0.5,1.4c-0.1,0.3-0.2,0.6-0.4,1.1c-0.2,0.6-0.4,1.1-0.5,1.5
		c-0.1,0.4-0.2,0.8-0.2,1.1l0,0c0,0.2,0,0.5,0.2,0.6c0.1,0.1,0.2,0.2,0.4,0.2c1.3,0,2.2-2.1,2.8-3.6v-0.1c0.1-0.2,0.3-0.3,0.6-0.2
		C2662.5,1237.7,2662.6,1237.9,2662.5,1238.2z M2656.5,1232.8c0-0.1,0-0.2-0.1-0.3c0-0.1-0.1-0.1-0.1-0.1l0,0h-0.1
		c-0.1,0-0.2,0-0.2,0.1l0,0c-0.1,0.1-0.1,0.2-0.1,0.3c0,0.4,0.2,0.7,0.5,0.9c0.1-0.2,0.1-0.3,0.2-0.5
		C2656.5,1233,2656.5,1232.9,2656.5,1232.8z"/>
	<path class="st4" d="M2673,1238.2L2673,1238.2c-0.8,1.7-1.8,4.2-3.6,4.2l0,0l0,0c-0.5,0-0.9-0.2-1.1-0.6c-0.2-0.2-0.2-0.5-0.3-0.8
		c-0.6,0.8-1.3,1.4-2.2,1.4l0,0c-0.5,0-0.9-0.2-1.1-0.6c-0.2-0.3-0.3-0.7-0.3-1.1v-0.1c0-0.3,0.1-0.7,0.2-1.2c0.1-0.5,0.3-1,0.5-1.6
		c0.1-0.3,0.3-0.9,0.6-1.6c0.3-0.9,0.7-2,1.1-3c0.1-0.2,0.3-0.3,0.5-0.2c0.2,0.1,0.3,0.3,0.2,0.5c-0.4,1.2-0.8,2.2-1.1,3
		c-0.3,0.7-0.5,1.3-0.6,1.6c-0.2,0.6-0.4,1.1-0.5,1.5c-0.1,0.4-0.2,0.8-0.2,1.1l0,0c0,0.2,0,0.5,0.1,0.6c0.1,0.1,0.2,0.2,0.5,0.2
		c1.2,0,2.2-2.1,2.8-3.6l0,0c0,0,0,0,0-0.1c0.1-0.3,0.3-0.9,0.6-1.6c0.4-0.9,0.7-2,1.1-3c0.1-0.2,0.3-0.3,0.5-0.2
		c0.2,0.1,0.3,0.3,0.3,0.5c-0.4,1.2-0.8,2.2-1.1,3c-0.3,0.7-0.5,1.3-0.6,1.6l0,0v0.1c-0.2,0.5-0.3,1-0.4,1.4
		c-0.1,0.4-0.2,0.8-0.2,1.1l0,0c0,0.2,0,0.5,0.1,0.6c0.1,0.1,0.2,0.2,0.4,0.2l0,0c1.2,0,2.2-2.1,2.8-3.6v-0.1
		c0.1-0.2,0.3-0.3,0.6-0.2C2673,1237.7,2673.1,1237.9,2673,1238.2z"/>
	<path class="st4" d="M2678.5,1238.8L2678.5,1238.8L2678.5,1238.8c0,1.2-0.5,2.1-1.2,2.7s-1.6,0.9-2.4,0.9l0,0c-0.1,0-0.1,0-0.2,0
		c-0.8,0-1.5-0.4-2-0.9s-0.8-1.2-0.8-1.9c0-0.1,0-0.1,0-0.2c0.1-0.7,0.3-1.4,0.8-2c0.5-0.5,1.1-0.8,1.9-0.8c0.5,0,1,0.2,1.4,0.6
		c0.3,0.3,0.5,0.8,0.6,1.4c0,0.2-0.2,0.4-0.4,0.4s-0.4-0.2-0.4-0.4c0-0.3-0.1-0.6-0.3-0.8c-0.2-0.2-0.5-0.3-0.7-0.3
		c-0.5,0-1,0.2-1.3,0.6c-0.4,0.4-0.6,0.9-0.6,1.4v0.1c0,0.5,0.2,1,0.5,1.4s0.9,0.6,1.4,0.7c0.1,0,0.1,0,0.2,0l0,0
		c0.7,0,1.4-0.2,1.9-0.7c0.5-0.4,0.9-1.1,0.9-2l0,0c0-1-0.5-1.8-1-2.7c-0.1-0.2-0.2-0.4-0.3-0.6c-0.1,0.1-0.3,0.3-0.4,0.5
		c-0.2,0.2-0.4,0.2-0.6,0c-0.2-0.1-0.2-0.4-0.1-0.6c0.2-0.3,0.4-0.5,0.7-0.7l0,0c-0.2-0.6-0.4-1.1-0.3-1.7c0-0.2,0.1-0.4,0.2-0.6
		l0,0c0.1-0.2,0.2-0.3,0.3-0.5c0.1-0.1,0.3-0.2,0.4-0.3c0.2-0.1,0.3-0.1,0.5-0.1c0.3,0,0.5,0.1,0.7,0.3c0.2,0.2,0.2,0.4,0.3,0.7
		c0,0.2,0,0.4-0.1,0.6c0,0.2-0.1,0.4-0.2,0.6c-0.2,0.5-0.5,0.9-0.8,1.2c0.1,0.3,0.3,0.5,0.4,0.8
		C2677.9,1236.6,2678.5,1237.6,2678.5,1238.8z M2677,1233.3c0.1-0.1,0.1-0.3,0.1-0.4c0-0.1,0.1-0.2,0-0.4c0-0.1,0-0.1,0-0.2
		c0,0,0,0-0.1,0h-0.1c-0.1,0-0.1,0.1-0.2,0.1c-0.1,0.1-0.1,0.1-0.2,0.2l0,0c0,0.1-0.1,0.2-0.1,0.3c0,0.3,0,0.6,0.1,0.9
		C2676.7,1233.8,2676.8,1233.5,2677,1233.3z"/>
	<path class="st4" d="M2687.9,1238.2L2687.9,1238.2c-0.8,1.7-1.8,4.2-3.6,4.2l0,0l0,0c-0.5,0-0.9-0.2-1.1-0.6
		c-0.2-0.2-0.2-0.5-0.3-0.8c-0.6,0.8-1.3,1.4-2.2,1.4l0,0c-0.5,0-0.9-0.2-1.1-0.6c-0.2-0.3-0.3-0.7-0.3-1.1v-0.1
		c0-0.3,0.1-0.7,0.2-1.2s0.3-1,0.5-1.6c0.1-0.3,0.3-0.9,0.6-1.6c0.3-0.9,0.7-2,1.1-3c0.1-0.2,0.3-0.3,0.5-0.2
		c0.2,0.1,0.3,0.3,0.2,0.5c-0.4,1.2-0.8,2.2-1.1,3c-0.3,0.7-0.5,1.3-0.6,1.6c-0.2,0.6-0.4,1.1-0.5,1.5c-0.1,0.4-0.2,0.8-0.2,1.1l0,0
		c0,0.2,0,0.5,0.1,0.6c0.1,0.1,0.2,0.2,0.5,0.2c1.2,0,2.2-2.1,2.8-3.6l0,0c0,0,0,0,0-0.1c0.1-0.3,0.3-0.9,0.6-1.6
		c0.4-0.9,0.7-2,1.1-3c0.1-0.2,0.3-0.3,0.5-0.2c0.2,0.1,0.3,0.3,0.3,0.5c-0.4,1.2-0.8,2.2-1.1,3c-0.3,0.7-0.5,1.3-0.6,1.6l0,0v0.1
		c-0.2,0.5-0.3,1-0.4,1.4c-0.1,0.4-0.2,0.8-0.2,1.1l0,0c0,0.2,0,0.5,0.1,0.6c0.1,0.1,0.2,0.2,0.4,0.2l0,0c1.2,0,2.2-2.1,2.8-3.6
		v-0.1c0.1-0.2,0.3-0.3,0.6-0.2C2687.9,1237.7,2688,1237.9,2687.9,1238.2z"/>
	<path class="st4" d="M2695.9,1238.2L2695.9,1238.2c-0.8,1.7-1.8,4.2-3.6,4.2l0,0c-0.5,0-0.9-0.2-1.1-0.6c-0.2-0.3-0.3-0.7-0.3-1.1
		l0,0c-0.7,1-1.5,1.7-2.5,1.6c-0.6,0-1-0.3-1.2-0.7c-0.3-0.4-0.4-1-0.4-1.6c0-1.1,0.6-3.3,1.6-5c0.7-1.2,1.7-2.1,2.8-2.2
		c0.1,0,0.1,0,0.2,0c0.5,0,1,0.3,1.4,0.7c0.1,0.1,0.2,0.2,0.3,0.4c0.1-0.3,0.2-0.6,0.3-0.9c0.1-0.2,0.3-0.3,0.5-0.2s0.3,0.3,0.2,0.5
		c-0.2,0.6-0.6,1.6-1,2.7c-0.3,0.7-0.5,1.4-0.7,2c-0.2,0.6-0.4,1.1-0.5,1.5c-0.1,0.4-0.2,0.8-0.2,1.1l0,0c0,0.2,0,0.5,0.1,0.6
		c0.1,0.1,0.2,0.2,0.5,0.2c1.2,0,2.2-2.1,2.8-3.6v-0.1c0.1-0.2,0.3-0.3,0.6-0.2C2695.9,1237.7,2696,1237.9,2695.9,1238.2z
		 M2691.9,1236.5c0.2-0.4,0.3-0.8,0.5-1.1c0-0.1,0-0.1,0-0.1c0-0.5-0.1-0.8-0.4-1.1c-0.2-0.2-0.5-0.4-0.8-0.4h-0.1
		c-0.8,0-1.5,0.8-2.1,1.8c-0.9,1.5-1.4,3.5-1.5,4.5c0,0.5,0.1,0.9,0.2,1.1c0.1,0.2,0.3,0.3,0.6,0.3
		C2690,1241.5,2691.1,1238.5,2691.9,1236.5z"/>
	<path class="st4" d="M2700.1,1238.2c-0.4,0.9-0.8,1.6-1.2,2.2s-0.8,1.1-1.3,1.4c-0.2,0.2-0.5,0.3-0.8,0.4s-0.6,0.1-0.8,0.1l0,0
		c-0.4,0-0.8-0.1-1-0.4c-0.3-0.3-0.4-0.7-0.4-1.2l0,0l0,0c0-0.3,0.1-0.8,0.2-1.2c0.1-0.5,0.3-1,0.5-1.6c0.5-1.6,1.1-3.2,1.7-4.9
		l0.4-1.3l0.1-0.3c0.1-0.3,0.3-0.8,0.5-1.4c0.1-0.2,0.3-0.3,0.5-0.3c0.2,0.1,0.3,0.3,0.3,0.5c-0.2,0.5-0.4,1.1-0.5,1.4
		c0,0.1-0.1,0.2-0.1,0.4l-0.4,1.3c-0.6,1.6-1.1,3.2-1.7,4.9c-0.2,0.6-0.3,1.1-0.5,1.5c-0.1,0.4-0.2,0.8-0.2,1l0,0
		c0,0.3,0.1,0.5,0.2,0.7c0.1,0.1,0.3,0.2,0.4,0.2l0,0c0.2,0,0.4,0,0.6-0.1s0.4-0.1,0.5-0.3c0.4-0.3,0.7-0.7,1.1-1.2
		c0.4-0.6,0.7-1.3,1.1-2.1c0.1-0.2,0.4-0.3,0.6-0.2C2700.1,1237.7,2700.2,1237.9,2700.1,1238.2z"/>
	<path class="st4" d="M2708.8,1238.8L2708.8,1238.8L2708.8,1238.8c0,1.2-0.5,2.1-1.2,2.7s-1.6,0.9-2.4,0.9l0,0c-0.1,0-0.1,0-0.2,0
		c-0.8,0-1.5-0.4-2-0.9s-0.8-1.2-0.8-1.9c0-0.1,0-0.1,0-0.2c0.1-0.7,0.3-1.4,0.8-2c0.5-0.5,1.1-0.8,1.9-0.8c0.5,0,1,0.2,1.4,0.6
		c0.3,0.3,0.5,0.8,0.6,1.4c0,0.2-0.2,0.4-0.4,0.4s-0.4-0.2-0.4-0.4c0-0.3-0.1-0.6-0.3-0.8c-0.2-0.2-0.5-0.3-0.7-0.3
		c-0.5,0-1,0.2-1.3,0.6c-0.4,0.4-0.6,0.9-0.6,1.4v0.1c0,0.5,0.2,1,0.5,1.4s0.9,0.6,1.4,0.7c0.1,0,0.1,0,0.2,0l0,0
		c0.7,0,1.4-0.2,1.9-0.7c0.5-0.4,0.9-1.1,0.9-2l0,0c0-1-0.5-1.8-1-2.7c-0.1-0.2-0.2-0.4-0.3-0.6c-0.1,0.1-0.3,0.3-0.4,0.5
		c-0.2,0.2-0.4,0.2-0.6,0c-0.2-0.1-0.2-0.4-0.1-0.6c0.2-0.3,0.4-0.5,0.7-0.7l0,0c-0.2-0.6-0.4-1.1-0.3-1.7c0-0.2,0.1-0.4,0.2-0.6
		l0,0c0.1-0.2,0.2-0.3,0.3-0.5c0.1-0.1,0.3-0.2,0.4-0.3c0.2-0.1,0.3-0.1,0.5-0.1c0.3,0,0.5,0.1,0.7,0.3c0.2,0.2,0.2,0.4,0.3,0.7
		c0,0.2,0,0.4-0.1,0.6c0,0.2-0.1,0.4-0.2,0.6c-0.2,0.5-0.5,0.9-0.8,1.2c0.1,0.3,0.3,0.5,0.4,0.8
		C2708.2,1236.6,2708.8,1237.6,2708.8,1238.8z M2707.3,1233.3c0.1-0.1,0.1-0.3,0.1-0.4c0-0.1,0.1-0.2,0-0.4c0-0.1,0-0.1,0-0.2
		c0,0,0,0-0.1,0h-0.1c-0.1,0-0.1,0.1-0.2,0.1c-0.1,0.1-0.1,0.1-0.2,0.2l0,0c0,0.1-0.1,0.2-0.1,0.3c0,0.3,0,0.6,0.1,0.9
		C2707,1233.8,2707.2,1233.5,2707.3,1233.3z"/>
	<path class="st4" d="M2718.6,1238.1c0,0.1-0.1,0.3-0.2,0.4c-0.1,0.1-0.1,0.2-0.2,0.3c-0.3,0.5-0.6,1-1,1.4c-0.4,0.4-1,0.7-1.7,0.7
		c-0.2,0-0.4,0-0.6-0.1c-0.3-0.1-0.6-0.2-0.8-0.5c-0.8,1.1-1.8,1.9-3,1.8l0,0l0,0l0,0c-0.7,0-1.2-0.4-1.4-0.8
		c-0.9,2.5-1.7,4.7-1.9,5.3c-0.1,0.2-0.3,0.3-0.5,0.3c-0.2-0.1-0.3-0.3-0.3-0.5c0.2-0.6,1.2-3.4,2.2-6.2c1.1-3.1,2.3-6.3,2.5-6.9
		c0-0.1,0.1-0.2,0.1-0.3c0.1-0.2,0.3-0.3,0.5-0.3c0.2,0.1,0.3,0.3,0.3,0.5l-0.2,0.4c0.6-0.6,1.2-1,2-1c0.6,0,1,0.3,1.3,0.7
		s0.4,1,0.4,1.6v0.1l0,0c-0.1,1.1-0.6,2.9-1.4,4.4c0,0.1-0.1,0.1-0.1,0.2c0.2,0.2,0.4,0.3,0.6,0.4c0.1,0,0.2,0,0.4,0
		c0.5,0,0.8-0.2,1.2-0.5c0.3-0.3,0.6-0.8,0.8-1.2c0-0.1,0.1-0.2,0.2-0.3c0-0.1,0.1-0.2,0.1-0.4c0.1-0.2,0.3-0.3,0.6-0.2
		C2718.6,1237.7,2718.7,1237.9,2718.6,1238.1z M2714.4,1238.1c-0.1,0.2-0.1,0.4-0.1,0.5c0.6-1.2,0.9-2.5,1-3.4l0,0v-0.1l0,0
		c0-0.5,0-0.9-0.2-1.1c-0.1-0.2-0.3-0.3-0.6-0.3c-1.6,0-2.8,3-3.6,5l-0.1,0.3c-0.1,0.5-0.3,1-0.3,1.4c0,0.6,0.1,1,0.7,1l0,0l0,0
		c0.9,0,1.8-0.7,2.4-1.7c-0.1-0.3-0.2-0.6-0.2-1c0-0.3,0-0.6,0.1-1c0.1-0.2,0.3-0.4,0.5-0.3
		C2714.3,1237.6,2714.4,1237.9,2714.4,1238.1z"/>
	<path class="st4" d="M2726.3,1238.1c-0.1,0.1-0.1,0.3-0.2,0.4s-0.1,0.2-0.2,0.3c-0.3,0.5-0.6,1-1,1.4c-0.5,0.4-1,0.7-1.7,0.7
		c-0.2,0-0.4,0-0.6-0.1c-0.3-0.1-0.6-0.3-0.9-0.5c-0.7,1-1.7,1.8-2.7,1.8c-3.3,0-1.1-5.5,0-7.3c0.7-1.2,1.7-2.1,2.8-2.1l0,0
		c0.6,0,1.1,0.2,1.5,0.7c0.3,0.4,0.5,0.9,0.5,1.6c0,1.3-0.7,3.1-1.5,4.6c0.1,0.2,0.4,0.3,0.6,0.4c0.1,0,0.2,0,0.3,0
		c0.5,0,0.9-0.2,1.2-0.5c0.3-0.3,0.6-0.8,0.8-1.2c0.1-0.1,0.1-0.2,0.2-0.3c0.1-0.1,0.1-0.2,0.2-0.4c0.1-0.2,0.3-0.3,0.6-0.2
		C2726.3,1237.7,2726.4,1237.9,2726.3,1238.1z M2722.1,1238.1c-0.1,0.2-0.1,0.3-0.1,0.5c0.6-1.2,1-2.5,1-3.4c0-0.5-0.1-0.8-0.3-1
		s-0.5-0.4-0.9-0.4c-0.8,0-1.5,0.7-2,1.7c-0.8,1.3-2.7,6-0.7,6c0.7,0,1.6-0.8,2.2-1.7c-0.1-0.3-0.2-0.6-0.2-0.9s0-0.6,0.1-1
		c0.1-0.2,0.3-0.4,0.5-0.3C2722,1237.6,2722.2,1237.9,2722.1,1238.1z"/>
	<path class="st4" d="M2730.4,1238.2c-0.4,0.9-0.8,1.6-1.2,2.2s-0.8,1.1-1.3,1.4c-0.2,0.2-0.5,0.3-0.8,0.4s-0.6,0.1-0.8,0.1l0,0
		c-0.4,0-0.8-0.1-1-0.4c-0.3-0.3-0.4-0.7-0.4-1.2l0,0l0,0c0-0.3,0.1-0.7,0.2-1.2s0.3-1,0.5-1.6c0.1-0.2,0.2-0.6,0.4-1.2
		c0.2-0.6,0.5-1.3,0.7-2c0-0.1,0.1-0.4,0.3-0.9h-1.3c-0.2,0-0.4-0.2-0.4-0.4c0-0.2,0.2-0.4,0.4-0.4h1.5c0.1-0.1,0.1-0.3,0.2-0.4
		c0.4-1.1,0.8-2.3,0.9-2.5c0.1-0.2,0.3-0.3,0.5-0.3c0.2,0.1,0.3,0.3,0.3,0.5c-0.1,0.2-0.5,1.4-0.9,2.5c0,0.1,0,0.1-0.1,0.2h1.3
		c0.2,0,0.4,0.2,0.4,0.4c0,0.2-0.2,0.4-0.4,0.4h-1.6c-0.2,0.6-0.3,1-0.4,1.2c-0.3,0.8-0.5,1.5-0.7,2s-0.3,0.9-0.4,1.2
		c-0.2,0.6-0.4,1.1-0.5,1.5c-0.1,0.4-0.2,0.8-0.2,1.1l0,0c0,0.3,0.1,0.5,0.2,0.7c0.1,0.1,0.3,0.2,0.4,0.2l0,0c0.2,0,0.4,0,0.6-0.1
		c0.2-0.1,0.4-0.1,0.5-0.3c0.4-0.3,0.7-0.7,1.1-1.2c0.4-0.6,0.7-1.3,1.1-2.1c0.1-0.2,0.4-0.3,0.6-0.2
		C2730.4,1237.7,2730.5,1237.9,2730.4,1238.2z"/>
</g>
<g>
	<path class="st4" d="M2613.4,1235.2l-6.7,2.5l5,2.3c0.3,0.1,0.4,0.4,0.3,0.7c-0.1,0.2-0.4,0.4-0.7,0.2l-6.2-2.7
		c-0.1,0-0.2-0.1-0.3-0.3c-0.1-0.3,0-0.6,0.3-0.7l7.9-3c0.3-0.1,0.6,0,0.7,0.3C2613.8,1234.8,2613.7,1235.1,2613.4,1235.2z"/>
	<path class="st4" d="M2625.3,1235.2l-6.7,2.5l5,2.3c0.3,0.1,0.4,0.4,0.3,0.7c-0.1,0.2-0.4,0.4-0.7,0.2l-6.2-2.7
		c-0.1,0-0.2-0.1-0.3-0.3c-0.1-0.3,0-0.6,0.3-0.7l7.9-3c0.3-0.1,0.6,0,0.7,0.3C2625.6,1234.8,2625.5,1235.1,2625.3,1235.2z"/>
</g>
<path class="st0" d="M1240.3,549.4c-0.4-3-3.2-5.1-6.2-4.7c-3,0.4-5.1,3.2-4.7,6.2c2.2,15.4,3.2,43.1-3.1,51.8
	c-4.7,6.4-11.4,8-16.1,8.2l3.2-61.3c0-15.3-12.4-27.8-27.8-27.8s-27.8,12.4-27.8,27.8l4.2,80c-6.5-2.3-11.8-5.1-14.4-8.2
	c-8.3-10.2-2.4-22.5-2.2-23c1.4-2.7,0.3-6-2.4-7.4c-2.7-1.4-6-0.3-7.4,2.4c-0.1,0.2-0.7,1.5-1.4,3.5c-2.1,6.2-4.8,19.5,4.9,31.4
	c4.7,5.7,13.9,10,23.5,13.1l2.2,41.9h41.5l3.2-61.4c7.1-0.1,18-2.3,25.6-12.7C1246.2,594,1240.9,554,1240.3,549.4"/>
<g>
	<path class="st6" d="M647.8,1448.1c0.4,0,0.8-0.1,1.2-0.3c0.4-0.2,0.7-0.6,0.9-1.1c0.2-0.5,0.3-1.1,0.3-1.8c0-0.7-0.1-1.3-0.3-1.7
		c-0.2-0.5-0.5-0.9-0.9-1.1c-0.4-0.3-0.8-0.4-1.2-0.4v-1.8c0.4,0.1,0.8,0.2,1.1,0.3c0.5,0.3,1,0.6,1.5,1.2v-3.7
		c0-0.5,0.1-0.9,0.3-1.2c0.2-0.3,0.5-0.4,0.9-0.4s0.7,0.1,0.9,0.4c0.2,0.2,0.3,0.6,0.3,1.1v11.2c0,0.5-0.1,0.8-0.3,1.1
		c-0.2,0.2-0.5,0.4-0.9,0.4c-0.3,0-0.6-0.1-0.9-0.4c-0.2-0.2-0.3-0.6-0.3-1.1v-0.3c-0.3,0.4-0.7,0.7-1,1c-0.3,0.2-0.7,0.4-1.1,0.6
		c-0.2,0-0.3,0.1-0.5,0.1V1448.1z M645.4,1444.9c0,0.7,0.1,1.3,0.3,1.8c0.2,0.5,0.5,0.8,0.9,1.1c0.4,0.2,0.8,0.4,1.2,0.4l0,0v1.9
		c-0.2,0-0.5,0.1-0.8,0.1c-0.6,0-1.2-0.1-1.7-0.4s-1-0.6-1.3-1.1c-0.4-0.5-0.7-1-0.9-1.7c-0.2-0.6-0.3-1.3-0.3-2.1
		c0-1.6,0.4-2.8,1.2-3.7c0.8-0.9,1.8-1.3,3.1-1.3c0.3,0,0.5,0,0.7,0v1.8l0,0c-0.5,0-0.9,0.1-1.2,0.4c-0.4,0.3-0.6,0.6-0.8,1.1
		C645.5,1443.7,645.4,1444.3,645.4,1444.9"/>
	<path class="st6" d="M659.7,1444.1h2.3c-0.1-0.9-0.3-1.5-0.7-1.9c-0.4-0.4-0.9-0.6-1.6-0.6v-1.8h0.1c1,0,1.8,0.2,2.5,0.6
		s1.2,1,1.6,1.6c0.3,0.7,0.5,1.3,0.5,2c0,0.6-0.2,1.1-0.5,1.2c-0.4,0.2-0.9,0.3-1.5,0.3h-2.7L659.7,1444.1L659.7,1444.1z
		 M659.7,1450.1v-1.7c0.1,0,0.1,0,0.2,0c0.3,0,0.6,0,0.8-0.1s0.5-0.2,0.7-0.3c0.2-0.2,0.5-0.3,0.7-0.5s0.5-0.4,0.8-0.7
		c0.1-0.1,0.3-0.2,0.6-0.2c0.3,0,0.5,0.1,0.6,0.2c0.2,0.1,0.2,0.3,0.2,0.6c0,0.2-0.1,0.5-0.3,0.8s-0.5,0.6-0.8,0.9
		c-0.4,0.3-0.8,0.5-1.4,0.7c-0.5,0.2-1.2,0.3-1.9,0.3C659.9,1450.1,659.8,1450.1,659.7,1450.1 M657.4,1444.1h2.3v1.4h-2.3
		c0,0.6,0.1,1.1,0.3,1.5c0.2,0.4,0.5,0.8,0.9,1c0.3,0.2,0.7,0.3,1,0.3v1.7c-1.5-0.1-2.7-0.5-3.5-1.4c-0.9-0.9-1.4-2.2-1.4-3.8
		c0-0.8,0.1-1.4,0.3-2.1c0.2-0.6,0.5-1.2,1-1.6c0.4-0.5,0.9-0.8,1.6-1c0.6-0.2,1.3-0.4,2-0.4v1.8l0,0c-0.6,0-1.2,0.2-1.6,0.6
		C657.7,1442.6,657.5,1443.3,657.4,1444.1"/>
	<path class="st6" d="M674.7,1446.8c0,0.7-0.2,1.3-0.5,1.8s-0.8,0.9-1.5,1.1c-0.7,0.3-1.5,0.4-2.4,0.4c-0.9,0-1.7-0.1-2.3-0.4
		c-0.7-0.3-1.1-0.6-1.4-1s-0.5-0.8-0.5-1.3c0-0.3,0.1-0.5,0.3-0.7c0.2-0.2,0.4-0.3,0.8-0.3c0.3,0,0.5,0.1,0.6,0.2
		c0.1,0.1,0.3,0.3,0.4,0.5c0.3,0.5,0.6,0.8,0.9,1c0.4,0.2,0.9,0.3,1.5,0.3c0.5,0,0.9-0.1,1.2-0.3c0.3-0.2,0.5-0.5,0.5-0.8
		c0-0.4-0.2-0.8-0.5-1c-0.3-0.2-0.9-0.4-1.7-0.6c-0.9-0.2-1.6-0.4-2.1-0.7c-0.5-0.2-1-0.5-1.3-0.9s-0.5-0.9-0.5-1.4s0.1-1,0.5-1.4
		c0.3-0.4,0.8-0.8,1.3-1.1c0.6-0.3,1.3-0.4,2.1-0.4c0.7,0,1.2,0.1,1.8,0.2c0.5,0.1,1,0.3,1.3,0.6c0.4,0.2,0.6,0.5,0.8,0.8
		c0.2,0.3,0.3,0.5,0.3,0.8s-0.1,0.5-0.3,0.7c-0.2,0.2-0.5,0.3-0.8,0.3c-0.3,0-0.5-0.1-0.7-0.2c-0.2-0.1-0.4-0.4-0.6-0.7
		c-0.2-0.2-0.4-0.4-0.7-0.6c-0.3-0.1-0.6-0.2-1.1-0.2s-0.8,0.1-1.1,0.3c-0.3,0.2-0.5,0.4-0.5,0.7c0,0.3,0.1,0.5,0.3,0.7
		c0.2,0.2,0.5,0.3,0.9,0.4c0.4,0.1,0.9,0.2,1.6,0.4c0.8,0.2,1.4,0.4,1.9,0.7c0.5,0.3,0.9,0.6,1.1,0.9
		C674.6,1445.9,674.7,1446.3,674.7,1446.8"/>
	<path class="st6" d="M679.4,1441.2v7.3c0,0.5-0.1,0.9-0.4,1.2c-0.2,0.3-0.5,0.4-0.9,0.4c-0.4,0-0.7-0.1-0.9-0.4s-0.3-0.6-0.3-1.1
		v-7.2c0-0.5,0.1-0.9,0.3-1.1c0.2-0.3,0.5-0.4,0.9-0.4c0.4,0,0.7,0.1,0.9,0.4C679.2,1440.4,679.4,1440.8,679.4,1441.2 M678.1,1438.6
		c-0.4,0-0.7-0.1-0.9-0.3c-0.3-0.2-0.4-0.5-0.4-0.9s0.1-0.7,0.4-0.9c0.3-0.2,0.6-0.3,0.9-0.3c0.3,0,0.6,0.1,0.9,0.3
		c0.3,0.2,0.4,0.5,0.4,0.9s-0.1,0.7-0.4,0.9C678.8,1438.5,678.5,1438.6,678.1,1438.6"/>
	<path class="st6" d="M686.4,1448c0.4,0,0.8-0.1,1.2-0.3c0.4-0.2,0.7-0.6,0.9-1c0.2-0.5,0.4-1,0.4-1.7c0-1-0.2-1.8-0.7-2.4
		c-0.4-0.6-1-0.8-1.8-0.9v-1.8c0.4,0.1,0.7,0.2,1.1,0.3c0.5,0.3,1,0.7,1.5,1.3v-0.3c0-0.4,0.1-0.8,0.3-1s0.5-0.4,0.8-0.4
		c0.5,0,0.8,0.2,1,0.5s0.2,0.8,0.2,1.4v7.3c0,0.8-0.1,1.6-0.3,2.2s-0.5,1.1-0.9,1.5c-0.4,0.4-0.9,0.7-1.6,0.9
		c-0.6,0.2-1.3,0.3-2.2,0.3v-1.8c0.6,0,1-0.1,1.3-0.3c0.4-0.2,0.6-0.4,0.8-0.8c0.1-0.3,0.2-0.7,0.3-1.1c0-0.4,0-1,0.1-1.8
		c-0.4,0.5-0.8,1-1.4,1.2c-0.3,0.2-0.7,0.3-1,0.4L686.4,1448L686.4,1448z M684,1444.9c0,1,0.2,1.8,0.7,2.3s1,0.8,1.7,0.8l0,0v1.8
		c-0.2,0-0.5,0.1-0.8,0.1c-0.8,0-1.6-0.2-2.2-0.7c-0.6-0.4-1.1-1-1.5-1.8c-0.3-0.8-0.5-1.7-0.5-2.7c0-0.8,0.1-1.4,0.3-2.1
		c0.2-0.6,0.5-1.1,0.9-1.6c0.4-0.4,0.8-0.7,1.3-0.9c0.5-0.2,1.1-0.3,1.6-0.3c0.3,0,0.6,0,0.8,0.1v1.8l0,0c-0.7,0-1.3,0.3-1.7,0.8
		C684.2,1443.1,684,1443.8,684,1444.9 M686.4,1452.1v1.8h-0.2c-0.9,0-1.7-0.1-2.3-0.4c-0.7-0.2-1.2-0.6-1.6-0.9
		c-0.4-0.4-0.6-0.8-0.6-1.2c0-0.3,0.1-0.6,0.3-0.7c0.2-0.2,0.5-0.3,0.8-0.3c0.4,0,0.7,0.2,1,0.5c0.1,0.2,0.3,0.3,0.4,0.5
		s0.3,0.3,0.5,0.4s0.4,0.2,0.6,0.3c0.2,0.1,0.5,0.1,0.9,0.1C686.3,1452.1,686.3,1452.1,686.4,1452.1"/>
	<path class="st6" d="M696.1,1441.2v0.3c0.4-0.6,0.9-1,1.5-1.3c0.5-0.3,1.1-0.4,1.8-0.4s1.3,0.1,1.8,0.4s0.9,0.7,1.2,1.2
		c0.2,0.3,0.3,0.6,0.3,1c0.1,0.4,0.1,0.8,0.1,1.4v4.7c0,0.5-0.1,0.9-0.3,1.2c-0.2,0.3-0.5,0.4-0.9,0.4s-0.7-0.1-0.9-0.4
		s-0.4-0.6-0.4-1.1v-4.2c0-0.8-0.1-1.5-0.3-1.9s-0.7-0.7-1.4-0.7c-0.4,0-0.9,0.1-1.2,0.4c-0.4,0.3-0.6,0.6-0.8,1.1
		c-0.1,0.4-0.2,1.1-0.2,2.1v3.2c0,0.5-0.1,0.9-0.4,1.2c-0.2,0.3-0.5,0.4-0.9,0.4s-0.7-0.1-0.9-0.4s-0.4-0.6-0.4-1.1v-7.3
		c0-0.5,0.1-0.8,0.3-1.1c0.2-0.2,0.5-0.4,0.9-0.4c0.2,0,0.4,0,0.6,0.2c0.2,0.1,0.3,0.3,0.4,0.5
		C696.1,1440.6,696.1,1440.9,696.1,1441.2"/>
	<path class="st6" d="M709.7,1444.1h2.3c-0.1-0.9-0.3-1.5-0.7-1.9s-0.9-0.6-1.6-0.6v-1.8h0.1c1,0,1.8,0.2,2.5,0.6s1.2,1,1.6,1.6
		c0.3,0.7,0.5,1.3,0.5,2c0,0.6-0.2,1.1-0.5,1.2c-0.4,0.2-0.9,0.3-1.5,0.3h-2.7L709.7,1444.1L709.7,1444.1z M709.7,1450.1v-1.7
		c0.1,0,0.1,0,0.2,0c0.3,0,0.6,0,0.8-0.1c0.3-0.1,0.5-0.2,0.7-0.3c0.2-0.2,0.5-0.3,0.6-0.5c0.2-0.2,0.5-0.4,0.8-0.7
		c0.1-0.1,0.3-0.2,0.6-0.2s0.5,0.1,0.6,0.2c0.2,0.1,0.2,0.3,0.2,0.6c0,0.2-0.1,0.5-0.3,0.8s-0.4,0.6-0.8,0.9
		c-0.4,0.3-0.8,0.5-1.4,0.7C711.2,1450,710.5,1450.1,709.7,1450.1C709.9,1450.1,709.8,1450.1,709.7,1450.1 M707.4,1444.1h2.3v1.4
		h-2.3c0,0.6,0.1,1.1,0.3,1.5s0.5,0.8,0.9,1c0.3,0.2,0.7,0.3,1.1,0.3v1.7c-1.5-0.1-2.7-0.5-3.5-1.4c-0.9-0.9-1.4-2.2-1.4-3.8
		c0-0.8,0.1-1.4,0.3-2.1c0.2-0.6,0.5-1.2,1-1.6c0.4-0.5,0.9-0.8,1.6-1c0.6-0.2,1.3-0.4,2-0.4v1.8l0,0c-0.6,0-1.1,0.2-1.6,0.6
		C707.8,1442.6,707.5,1443.3,707.4,1444.1"/>
	<path class="st6" d="M721,1448.1c0.4,0,0.8-0.1,1.2-0.3c0.4-0.2,0.7-0.6,0.9-1.1s0.3-1.1,0.3-1.8c0-0.7-0.1-1.3-0.3-1.7
		c-0.2-0.5-0.5-0.9-0.9-1.1c-0.4-0.3-0.8-0.4-1.2-0.4v-1.8c0.4,0.1,0.8,0.2,1.1,0.3c0.5,0.3,1,0.6,1.5,1.2v-3.7
		c0-0.5,0.1-0.9,0.3-1.2c0.2-0.3,0.5-0.4,0.9-0.4s0.7,0.1,0.9,0.4c0.2,0.2,0.3,0.6,0.3,1.1v11.2c0,0.5-0.1,0.8-0.3,1.1
		c-0.2,0.2-0.5,0.4-0.9,0.4c-0.3,0-0.6-0.1-0.9-0.4c-0.2-0.2-0.3-0.6-0.3-1.1v-0.3c-0.3,0.4-0.7,0.7-1,1c-0.3,0.2-0.7,0.4-1.1,0.6
		c-0.2,0-0.3,0.1-0.5,0.1V1448.1z M718.5,1444.9c0,0.7,0.1,1.3,0.3,1.8s0.5,0.8,0.9,1.1c0.4,0.2,0.8,0.4,1.2,0.4l0,0v1.9
		c-0.3,0-0.5,0.1-0.8,0.1c-0.6,0-1.2-0.1-1.7-0.4s-1-0.6-1.3-1.1c-0.4-0.5-0.7-1-0.9-1.7c-0.2-0.6-0.3-1.3-0.3-2.1
		c0-1.6,0.4-2.8,1.2-3.7c0.8-0.9,1.8-1.3,3.1-1.3c0.3,0,0.5,0,0.8,0v1.8l0,0c-0.5,0-0.9,0.1-1.2,0.4c-0.4,0.3-0.6,0.6-0.8,1.1
		C718.6,1443.7,718.5,1444.3,718.5,1444.9"/>
	<path class="st6" d="M738.1,1448.1L738.1,1448.1c0.7,0,1.3-0.3,1.7-0.8c0.5-0.6,0.7-1.3,0.7-2.4c0-0.7-0.1-1.2-0.3-1.7
		s-0.5-0.9-0.8-1.1c-0.4-0.3-0.8-0.4-1.2-0.4h-0.1v-1.8c0.2,0,0.5,0,0.8,0c0.8,0,1.6,0.2,2.2,0.6c0.6,0.4,1.1,1,1.5,1.7
		c0.4,0.8,0.5,1.7,0.5,2.7c0,0.8-0.1,1.5-0.3,2.1s-0.5,1.2-0.9,1.7s-0.8,0.8-1.3,1.1c-0.5,0.3-1.1,0.4-1.7,0.4c-0.3,0-0.5,0-0.7-0.1
		L738.1,1448.1L738.1,1448.1z M735.7,1445c0,1,0.2,1.8,0.7,2.3c0.4,0.5,1,0.8,1.7,0.8v1.9c-0.1,0-0.3,0-0.4-0.1
		c-0.3-0.1-0.6-0.2-0.9-0.4c-0.2-0.1-0.4-0.3-0.6-0.5s-0.4-0.4-0.7-0.7v0.3c0,0.5-0.1,0.8-0.3,1.1c-0.2,0.2-0.5,0.4-0.9,0.4
		s-0.6-0.1-0.9-0.4c-0.2-0.2-0.3-0.6-0.3-1.1v-11.1c0-0.5,0.1-0.9,0.3-1.2c0.2-0.3,0.5-0.4,0.9-0.4s0.7,0.1,0.9,0.4
		c0.2,0.2,0.3,0.6,0.3,1.1v3.9c0.5-0.5,1-0.9,1.5-1.1c0.3-0.2,0.7-0.3,1.1-0.3v1.8c-0.4,0-0.8,0.1-1.2,0.4s-0.7,0.6-0.9,1.1
		C735.8,1443.7,735.7,1444.3,735.7,1445"/>
	<path class="st6" d="M747.2,1450.4l0.2-0.6l-3.1-7.8c-0.2-0.5-0.3-0.8-0.3-1s0.1-0.4,0.2-0.6c0.1-0.2,0.3-0.3,0.5-0.4
		s0.4-0.2,0.6-0.2c0.4,0,0.6,0.1,0.8,0.3c0.2,0.2,0.4,0.6,0.5,1l2.1,6.2l2-5.8c0.2-0.5,0.3-0.8,0.4-1.1c0.1-0.3,0.3-0.4,0.4-0.5
		s0.4-0.1,0.6-0.1s0.4,0.1,0.6,0.2s0.3,0.2,0.4,0.4c0.1,0.2,0.1,0.4,0.1,0.5s-0.1,0.3-0.1,0.5c-0.1,0.2-0.1,0.4-0.2,0.7l-3.3,8.6
		c-0.3,0.8-0.6,1.4-0.8,1.8c-0.3,0.4-0.6,0.8-1.1,1s-1.1,0.3-1.8,0.3s-1.3-0.1-1.7-0.2c-0.4-0.2-0.6-0.5-0.6-0.9
		c0-0.3,0.1-0.5,0.3-0.7s0.4-0.2,0.8-0.2c0.1,0,0.3,0,0.4,0.1c0.2,0,0.3,0.1,0.4,0.1c0.3,0,0.5,0,0.7-0.1s0.3-0.2,0.5-0.5
		C746.8,1451.1,747,1450.8,747.2,1450.4"/>
	<path class="st6" d="M794,1440h0.6v-0.8c0-0.8,0.1-1.4,0.3-1.9s0.5-0.8,1-1s1.1-0.3,2-0.3c1.5,0,2.2,0.4,2.2,1.1
		c0,0.2-0.1,0.4-0.2,0.6c-0.2,0.2-0.3,0.3-0.5,0.3c-0.1,0-0.3,0-0.5-0.1c-0.2,0-0.4-0.1-0.6-0.1c-0.5,0-0.8,0.1-0.9,0.4
		c-0.1,0.3-0.2,0.7-0.2,1.2v0.6h0.6c1,0,1.4,0.3,1.4,0.9c0,0.4-0.1,0.7-0.4,0.8c-0.3,0.1-0.6,0.2-1.1,0.2h-0.6v6.7
		c0,0.5-0.1,0.9-0.4,1.1c-0.2,0.3-0.5,0.4-0.9,0.4s-0.7-0.1-0.9-0.4s-0.4-0.7-0.4-1.1v-6.7h-0.7c-0.4,0-0.7-0.1-0.9-0.3
		c-0.2-0.2-0.3-0.4-0.3-0.7C792.7,1440.3,793.1,1440,794,1440"/>
	<path class="st6" d="M803,1446.4v2.1c0,0.5-0.1,0.9-0.4,1.2c-0.2,0.3-0.5,0.4-0.9,0.4s-0.7-0.1-0.9-0.4s-0.4-0.6-0.4-1.2v-7
		c0-1.1,0.4-1.7,1.2-1.7c0.4,0,0.7,0.1,0.9,0.4s0.3,0.7,0.3,1.2c0.3-0.5,0.6-0.9,0.9-1.2c0.3-0.3,0.7-0.4,1.3-0.4
		c0.5,0,1,0.1,1.5,0.4s0.8,0.6,0.8,1.1c0,0.3-0.1,0.6-0.3,0.8c-0.2,0.2-0.4,0.3-0.7,0.3c-0.1,0-0.3-0.1-0.7-0.2s-0.7-0.2-0.9-0.2
		c-0.4,0-0.7,0.1-0.9,0.3c-0.2,0.2-0.4,0.5-0.5,0.9s-0.2,0.8-0.3,1.4C803,1445,803,1445.7,803,1446.4"/>
	<path class="st6" d="M812.8,1444.1h2.3c-0.1-0.9-0.3-1.5-0.7-1.9s-0.9-0.6-1.6-0.6v-1.8h0.1c1,0,1.8,0.2,2.5,0.6s1.2,1,1.6,1.6
		c0.3,0.7,0.5,1.3,0.5,2c0,0.6-0.2,1.1-0.5,1.2c-0.4,0.2-0.9,0.3-1.5,0.3h-2.7L812.8,1444.1L812.8,1444.1z M812.8,1450.1v-1.7
		c0.1,0,0.1,0,0.2,0c0.3,0,0.6,0,0.8-0.1s0.5-0.2,0.7-0.3c0.2-0.2,0.5-0.3,0.7-0.5s0.5-0.4,0.8-0.7c0.1-0.1,0.3-0.2,0.6-0.2
		s0.5,0.1,0.6,0.2c0.2,0.1,0.2,0.3,0.2,0.6c0,0.2-0.1,0.5-0.3,0.8s-0.4,0.6-0.8,0.9c-0.4,0.3-0.8,0.5-1.4,0.7
		c-0.5,0.2-1.2,0.3-1.9,0.3C812.9,1450.1,812.8,1450.1,812.8,1450.1 M810.5,1444.1h2.3v1.4h-2.3c0,0.6,0.1,1.1,0.3,1.5
		s0.5,0.8,0.9,1c0.3,0.2,0.7,0.3,1,0.3v1.7c-1.5-0.1-2.7-0.5-3.5-1.4c-0.9-0.9-1.4-2.2-1.4-3.8c0-0.8,0.1-1.4,0.3-2.1
		c0.2-0.6,0.5-1.2,1-1.6c0.4-0.5,1-0.8,1.6-1s1.3-0.4,2-0.4v1.8l0,0c-0.6,0-1.2,0.2-1.6,0.6C810.8,1442.6,810.6,1443.3,810.5,1444.1
		"/>
	<path class="st6" d="M824,1444.1h2.3c-0.1-0.9-0.3-1.5-0.7-1.9s-0.9-0.6-1.6-0.6v-1.8h0.1c1,0,1.8,0.2,2.5,0.6s1.2,1,1.6,1.6
		c0.3,0.7,0.5,1.3,0.5,2c0,0.6-0.2,1.1-0.6,1.2c-0.4,0.2-0.9,0.3-1.5,0.3h-2.7L824,1444.1L824,1444.1z M824,1450.1v-1.7
		c0.1,0,0.1,0,0.2,0c0.3,0,0.6,0,0.8-0.1s0.5-0.2,0.7-0.3c0.2-0.2,0.5-0.3,0.7-0.5s0.5-0.4,0.8-0.7c0.1-0.1,0.3-0.2,0.6-0.2
		s0.5,0.1,0.6,0.2s0.2,0.3,0.2,0.6c0,0.2-0.1,0.5-0.3,0.8s-0.4,0.6-0.8,0.9s-0.8,0.5-1.4,0.7c-0.5,0.2-1.2,0.3-1.9,0.3
		C824.2,1450.1,824.1,1450.1,824,1450.1 M821.7,1444.1h2.3v1.4h-2.3c0,0.6,0.1,1.1,0.3,1.5s0.5,0.8,0.9,1c0.3,0.2,0.7,0.3,1,0.3v1.7
		c-1.5-0.1-2.7-0.5-3.5-1.4c-0.9-0.9-1.4-2.2-1.4-3.8c0-0.8,0.1-1.4,0.3-2.1c0.2-0.6,0.5-1.2,1-1.6c0.4-0.5,1-0.8,1.6-1
		s1.3-0.4,2-0.4v1.8l0,0c-0.6,0-1.1,0.2-1.6,0.6C822.1,1442.6,821.8,1443.3,821.7,1444.1"/>
	<path class="st6" d="M838,1444.9c0-0.7-0.1-1.2-0.3-1.7s-0.5-0.9-0.8-1.1c-0.4-0.3-0.8-0.4-1.2-0.4h-0.1v-1.8
		c0.2,0,0.5-0.1,0.7-0.1c0.8,0,1.5,0.2,2.1,0.6c0.7,0.4,1.2,1,1.5,1.8c0.4,0.8,0.6,1.7,0.6,2.7c0,0.8-0.1,1.5-0.3,2.1
		c-0.2,0.7-0.5,1.2-0.9,1.6s-0.8,0.8-1.4,1c-0.5,0.2-1.1,0.4-1.7,0.4c-0.2,0-0.5,0-0.7,0v-1.9h0.1c0.4,0,0.8-0.1,1.2-0.4
		c0.4-0.2,0.6-0.6,0.9-1.1C837.8,1446.2,838,1445.6,838,1444.9 M835.5,1441.7c-0.7,0-1.2,0.3-1.7,0.8s-0.7,1.4-0.7,2.4
		s0.2,1.8,0.7,2.3s1,0.8,1.7,0.8v1.9c-0.4-0.1-0.8-0.2-1.1-0.4c-0.5-0.3-1-0.7-1.4-1.3v3.8c0,1.1-0.4,1.7-1.2,1.7
		c-0.5,0-0.8-0.1-1-0.4s-0.2-0.7-0.2-1.3v-10.9c0-0.5,0.1-0.8,0.3-1.1c0.2-0.2,0.5-0.4,0.9-0.4s0.6,0.1,0.9,0.4
		c0.2,0.2,0.3,0.6,0.3,1.1v0.3c0.5-0.6,1-1,1.5-1.3c0.3-0.2,0.7-0.3,1.1-0.4L835.5,1441.7L835.5,1441.7z"/>
	<path class="st6" d="M845.1,1441.2v7.3c0,0.5-0.1,0.9-0.4,1.2c-0.2,0.3-0.5,0.4-0.9,0.4s-0.7-0.1-0.9-0.4s-0.3-0.6-0.3-1.1v-7.2
		c0-0.5,0.1-0.9,0.3-1.1c0.2-0.3,0.5-0.4,0.9-0.4s0.7,0.1,0.9,0.4C844.9,1440.4,845.1,1440.8,845.1,1441.2 M843.8,1438.6
		c-0.4,0-0.7-0.1-0.9-0.3c-0.2-0.2-0.4-0.5-0.4-0.9s0.1-0.7,0.4-0.9c0.3-0.2,0.6-0.3,0.9-0.3s0.6,0.1,0.9,0.3
		c0.2,0.2,0.4,0.5,0.4,0.9s-0.1,0.7-0.4,0.9C844.4,1438.5,844.1,1438.6,843.8,1438.6"/>
	<path class="st6" d="M854,1448.9l-2.2-3.7l-1.4,1.3v2c0,0.5-0.1,0.9-0.4,1.1c-0.3,0.3-0.6,0.4-0.9,0.4c-0.4,0-0.7-0.1-0.9-0.4
		s-0.3-0.6-0.3-1.2v-10.8c0-0.6,0.1-1,0.3-1.3s0.5-0.4,0.9-0.4s0.7,0.1,0.9,0.4s0.3,0.7,0.3,1.2v6.1l2.8-3c0.4-0.4,0.6-0.6,0.8-0.8
		c0.2-0.1,0.4-0.2,0.7-0.2s0.6,0.1,0.8,0.3c0.2,0.2,0.3,0.5,0.3,0.8c0,0.4-0.3,0.9-1,1.5l-1.3,1.2l2.6,4.1c0.2,0.3,0.3,0.5,0.4,0.7
		s0.1,0.3,0.1,0.4c0,0.4-0.1,0.7-0.3,1c-0.2,0.2-0.5,0.3-0.9,0.3c-0.3,0-0.5-0.1-0.7-0.2C854.5,1449.7,854.3,1449.4,854,1448.9"/>
	<path class="st6" d="M860.2,1450.1c-0.4,0-0.7-0.1-1-0.4c-0.3-0.2-0.4-0.6-0.4-1s0.1-0.7,0.4-1s0.6-0.4,1-0.4s0.7,0.1,1,0.4
		s0.4,0.6,0.4,1s-0.1,0.8-0.4,1C860.9,1450,860.6,1450.1,860.2,1450.1"/>
	<path class="st6" d="M873.6,1447c0,0.3-0.1,0.7-0.3,1c-0.2,0.4-0.5,0.7-0.9,1s-0.9,0.6-1.5,0.8c-0.6,0.2-1.3,0.3-2,0.3
		c-1.6,0-2.8-0.5-3.7-1.4s-1.3-2.1-1.3-3.7c0-1,0.2-2,0.6-2.8c0.4-0.8,1-1.4,1.7-1.8c0.8-0.4,1.7-0.7,2.7-0.7c0.7,0,1.2,0.1,1.8,0.3
		c0.5,0.2,1,0.4,1.4,0.7c0.4,0.3,0.7,0.6,0.9,1c0.2,0.3,0.3,0.7,0.3,1s-0.1,0.6-0.3,0.8c-0.2,0.2-0.5,0.3-0.8,0.3
		c-0.2,0-0.4-0.1-0.5-0.2s-0.3-0.3-0.5-0.5c-0.3-0.5-0.6-0.8-1-1.1c-0.3-0.2-0.8-0.4-1.3-0.4c-0.7,0-1.3,0.3-1.8,0.9
		s-0.7,1.4-0.7,2.4c0,0.5,0.1,0.9,0.2,1.3c0.1,0.4,0.3,0.7,0.5,1s0.5,0.5,0.8,0.6s0.7,0.2,1,0.2c0.5,0,0.9-0.1,1.3-0.4
		c0.4-0.2,0.7-0.6,1-1.1c0.2-0.3,0.3-0.5,0.5-0.7s0.4-0.2,0.7-0.2s0.6,0.1,0.8,0.4C873.5,1446.4,873.6,1446.7,873.6,1447"/>
	<path class="st6" d="M882.7,1445c0-1-0.2-1.8-0.7-2.4c-0.4-0.6-1.1-0.9-1.8-0.9v-1.9c0.8,0,1.5,0.1,2.1,0.4
		c0.6,0.2,1.2,0.6,1.6,1.1s0.8,1,1,1.6s0.3,1.3,0.3,2.1c0,0.7-0.1,1.4-0.3,2.1c-0.2,0.6-0.6,1.2-1,1.6c-0.4,0.5-1,0.8-1.6,1.1
		c-0.6,0.2-1.3,0.4-2.1,0.4v-1.9c0.8,0,1.4-0.3,1.8-0.9C882.5,1446.8,882.7,1446,882.7,1445 M880.2,1441.7L880.2,1441.7
		c-0.5,0-0.9,0.1-1.3,0.4s-0.7,0.6-0.9,1.1s-0.3,1.1-0.3,1.8c0,0.7,0.1,1.2,0.3,1.7s0.5,0.9,0.9,1.1c0.4,0.3,0.8,0.4,1.3,0.4l0,0
		v1.9l0,0c-0.8,0-1.5-0.1-2.1-0.4c-0.6-0.2-1.1-0.6-1.6-1.1c-0.4-0.5-0.8-1-1-1.6s-0.4-1.3-0.4-2.1c0-0.8,0.1-1.5,0.4-2.1
		c0.2-0.6,0.6-1.2,1-1.6c0.4-0.5,1-0.8,1.6-1s1.3-0.4,2.1-0.4l0,0V1441.7z"/>
	<path class="st6" d="M895.7,1445.1v3.4c0,0.5-0.1,0.9-0.4,1.2c-0.2,0.3-0.6,0.4-1,0.4s-0.7-0.1-0.9-0.4s-0.4-0.7-0.4-1.2v-4
		c0-0.6,0-1.1-0.1-1.5c0-0.4-0.2-0.6-0.4-0.9c-0.2-0.2-0.5-0.3-0.9-0.3c-0.8,0-1.4,0.3-1.6,0.8c-0.3,0.6-0.4,1.4-0.4,2.4v3.4
		c0,0.5-0.1,0.9-0.4,1.2c-0.2,0.3-0.6,0.4-0.9,0.4c-0.4,0-0.7-0.1-0.9-0.4s-0.4-0.7-0.4-1.2v-7.2c0-0.5,0.1-0.8,0.3-1.1
		c0.2-0.2,0.5-0.4,0.9-0.4c0.3,0,0.6,0.1,0.9,0.3c0.2,0.2,0.3,0.6,0.3,1v0.2c0.4-0.5,0.9-0.9,1.4-1.2c0.5-0.2,1.1-0.4,1.7-0.4
		c0.6,0,1.2,0.1,1.6,0.4c0.5,0.3,0.8,0.6,1.1,1.1c0.4-0.5,0.9-0.9,1.4-1.2c0.5-0.2,1-0.4,1.6-0.4c0.7,0,1.3,0.1,1.8,0.4
		s0.9,0.7,1.1,1.2s0.3,1.2,0.3,2.2v4.9c0,0.5-0.1,0.9-0.4,1.2c-0.2,0.3-0.5,0.4-1,0.4c-0.4,0-0.7-0.1-0.9-0.4s-0.4-0.7-0.4-1.2v-4.3
		c0-0.5,0-1-0.1-1.3c0-0.3-0.2-0.6-0.4-0.8c-0.2-0.2-0.5-0.3-0.9-0.3c-0.3,0-0.6,0.1-0.9,0.3c-0.3,0.2-0.5,0.5-0.7,0.8
		C895.7,1443.3,895.7,1444.1,895.7,1445.1"/>
	<path class="st6" d="M774,1433.3c-0.1-0.2-0.1-0.3-0.2-0.5c0.8-0.1,1.4-1.1,1-1.9c-0.2-0.5-0.7-0.7-1.1-0.7h-0.1
		c-0.4,0-0.8,0.2-1,0.5c-0.5,0.7-0.1,1.8,0.7,2c0.1,0.2,0.1,0.3,0.2,0.5c-1.3,0.1-2.6,0.4-3.6,1.1c0.1,0.3,0.2,0.6,0.3,0.9
		c2.2-0.9,4.6-0.7,6.8-0.5c0.1-0.3,0.2-0.6,0.2-0.9C776.3,1433.4,775.2,1433.3,774,1433.3"/>
	<path class="st6" d="M786.9,1436.8c-0.3,0.2-0.4,0.6-0.4,0.9c-0.4,0.4-0.2,0.9-0.2,1.4c-0.1,0.3-0.4,0.3-0.6,0.4
		c-0.3-0.4-0.6-0.9-1-1.3l0,0c-0.4-0.4-0.9-0.8-1.4-1.1c-0.4,0.4-0.8,0.8-1.2,1.3c0.8,0.8,1.5,1.7,2.1,2.7c0.4,0.7,0.8,1.5,1.1,2.3
		c0.6-0.3,1.3-0.7,1.9-1c-0.3-0.8-0.7-1.5-1.1-2.3c0.3-0.2,0.7-0.3,0.7-0.7c0-0.4-0.1-0.9,0.2-1.2c0.5,0.3,1.2,0,1.3-0.6
		C788.2,1436.9,787.4,1436.4,786.9,1436.8"/>
	<path class="st6" d="M781.8,1442c-0.1,1-1.1,1.9-2.2,1.9v4.2c2-0.5,3.8-1.3,5.6-2.3c0,0-0.4-2-1.8-4.2c-0.8-1.4-1.7-2.8-3-3.8
		c-0.3-0.2-0.5-0.4-0.8-0.6v2.4c0.3,0,0.5,0.1,0.8,0.1C781.4,1439.8,782,1440.9,781.8,1442 M779.6,1443.8L779.6,1443.8
		c-0.6,0-1.2-0.2-1.6-0.7c-0.3-0.4-0.6-0.8-0.6-1.3c-0.1-1.1,0.6-2.2,1.6-2.4c0.2-0.1,0.4-0.1,0.6-0.1v-2.4
		c-1.3-0.9-2.8-1.5-4.4-1.5c-1.9,0-3.9,0.2-5.7,0.8v2.3c0.3,0,0.7,0,1,0.1c0.4,0.1,0.7,0.3,1,0.5c0.7,0.5,1.2,1.2,1.4,1.9
		c0.3,1,0.1,2.1-0.5,3c-0.4,0.6-1,1.1-1.7,1.3c-0.4,0.1-0.8,0.2-1.2,0.2v3.1h0.1c2.3,0.1,4.5,0.1,6.8-0.2c1.1-0.1,2.2-0.4,3.2-0.6
		L779.6,1443.8L779.6,1443.8z M769.5,1436.3v2.3c-0.6,0-1.2,0.1-1.7,0.4c-1.1,0.6-1.8,1.7-1.9,2.9c-0.1,1,0.3,1.9,1,2.7
		c0.7,0.7,1.6,1.1,2.6,1.1v3.1c-2.3-0.1-4.5-0.6-6.7-1.2c-0.4-2-0.4-4.2,0.5-6.1c0.9-2.1,2.7-3.8,4.8-4.7
		C768.6,1436.6,769.1,1436.5,769.5,1436.3"/>
	<path class="st6" d="M763.3,1438.3c-0.9,0.5-1.6,1.3-2.3,2.2c-0.2-0.3-0.2-0.7-0.5-1c-0.1-0.2-0.4-0.1-0.6-0.1
		c-0.2,0-0.5,0-0.7-0.1c0.3-0.4,0.2-0.9-0.2-1.2c-0.4-0.3-1.1,0-1.2,0.5c-0.2,0.6,0.4,1.1,1,1c0.3,0.4,0.8,0.4,1.3,0.4
		c0.2,0.4,0.4,0.7,0.6,1.1c-0.5,1-0.8,2-0.8,3.1c0.6,0.3,1.2,0.5,1.9,0.8c0-0.7,0.1-1.3,0.2-2c0.2-1.5,1-2.7,2-3.8
		C763.9,1438.8,763.6,1438.6,763.3,1438.3"/>
	<path class="st6" d="M777.9,1449.3c-2.3,0.5-4.7,0.6-7,0.5c-1.6-0.1-3.2-0.2-4.7-0.6c-1.1-0.2-2.2-0.5-3.3-0.8
		c0.2,1.4,0.7,2.7,1.5,3.8c0.9,1.3,2.2,2.5,3.8,3c1.1,0.3,2.5,0.7,4.7,0.7h0.2h0.2c2.1,0,4.1-0.3,5.9-1.1c1.2-0.5,2.3-1.2,3.2-2.1
		c0.8-0.8,1.5-1.7,1.9-2.8c0.4-1,0.8-2.7,0.8-3.6C783,1447.7,780.4,1448.8,777.9,1449.3"/>
</g>
<g>
	<rect x="1073" y="1269.5" class="st1" width="35.7" height="10.2"/>
	<rect x="1083.4" y="1259.9" class="st1" width="15" height="3.5"/>
	<polygon class="st1" points="1100.4,1263.4 1081.3,1263.4 1073,1269.5 1108.7,1269.5 	"/>
	<polygon class="st1" points="1095.3,1109.7 1086.5,1109.7 1085.4,1259.9 1096.3,1259.9 	"/>
	<rect x="1084.2" y="1108" class="st1" width="13.4" height="1.7"/>
	<rect x="1085.2" y="1106.7" class="st1" width="11.3" height="1.3"/>
	<rect x="1072.8" y="1081" class="st1" width="36.2" height="1.3"/>
	<rect x="1086.3" y="1103.3" class="st1" width="9.2" height="1.3"/>
	<rect x="1087.5" y="1104.6" class="st1" width="7" height="2.1"/>
	<rect x="1087.5" y="1071.4" class="st1" width="7" height="2.1"/>
	<rect x="1088.1" y="1066.8" class="st1" width="5.7" height="1.5"/>
	<polygon class="st1" points="1093.2,1063.6 1088.7,1063.6 1090.8,1055.9 1091.1,1055.9 	"/>
	<polygon class="st1" points="1098.6,1073.5 1083.1,1073.5 1074.9,1081 1106.9,1081 	"/>
	<rect x="1089.6" y="1068.2" class="st1" width="2.8" height="3.1"/>
	<rect x="1089.6" y="1063.6" class="st1" width="2.8" height="3.1"/>
	<path class="st1" d="M1071.7,1082.3v1.7h0.2c0.4,1.6,1.8,6,5.7,11.5c3.4,4.7,7.4,7.8,7.6,7.9l0,0v0.1h11.3v-0.1l0,0
		c0.2-0.1,4.2-3.2,7.6-7.9c3.9-5.4,5.3-9.8,5.7-11.5h0.2v-1.7H1071.7z M1086.4,1101.6c-0.3-0.2-4-3.1-7.1-7.4
		c-3.3-4.6-4.7-8.5-5.2-10.3h9.1c0,1.7,0.3,5.6,1.7,9.7c1.2,3.5,3,6.4,4.1,8H1086.4z M1086.8,1092.9c-1.3-3.8-1.6-7.4-1.6-9h11.3
		c0,1.6-0.3,5.2-1.6,9c-1.2,3.4-3,6.3-4.1,7.8C1089.8,1099.3,1088,1096.4,1086.8,1092.9z M1102.5,1094.2c-3.1,4.3-6.8,7.2-7.1,7.4
		h-2.6c1.1-1.6,2.9-4.5,4.1-8c1.5-4.1,1.7-8,1.7-9.7h9.1C1107.2,1085.7,1105.8,1089.6,1102.5,1094.2z"/>
</g>
<g>
	<path class="st7" d="M1049.7,488.9v-1.2l4.3-4.7c0.8-0.9,1.3-1.5,1.6-2c0.3-0.5,0.4-1,0.4-1.5c0-0.7-0.2-1.2-0.6-1.6
		c-0.4-0.4-0.9-0.7-1.5-0.7c-0.9,0-1.6,0.2-2,0.7s-0.6,1.1-0.6,2h-1.7v-0.1c0-1.1,0.3-2.1,1.1-2.8c0.8-0.8,1.8-1.1,3.2-1.1
		c1.2,0,2.1,0.3,2.8,1c0.7,0.7,1,1.6,1,2.6c0,0.7-0.2,1.4-0.6,2.1s-1,1.5-1.8,2.3l-3.4,3.7l0,0h4.6l0.1-1.5h1.5v2.9L1049.7,488.9
		L1049.7,488.9z"/>
	<path class="st7" d="M1067.1,484.5h1.8v1.4h-1.8v1.6l1.5,0.3v1.1h-4.7v-1.1l1.5-0.3v-1.6h-5.9v-1l5.7-9h1.9V484.5z M1061.4,484.5h4
		v-6.1h-0.1l-0.2,0.5L1061.4,484.5z"/>
	<path class="st7" d="M1073.4,476.9v2.3h1.8v1.3h-1.8v5.9c0,0.5,0.1,0.8,0.3,1c0.2,0.2,0.4,0.3,0.7,0.3c0.2,0,0.3,0,0.5,0
		s0.4-0.1,0.5-0.1l0.2,1.2c-0.2,0.1-0.4,0.2-0.7,0.3c-0.3,0.1-0.6,0.1-1,0.1c-0.7,0-1.3-0.2-1.7-0.6s-0.6-1.1-0.6-2v-5.9h-1.5v-1.5
		h1.5v-2.3H1073.4z"/>
	<path class="st7" d="M1076.8,487.8l1.5-0.3v-11.2l-1.5-0.3v-1.1h3.2v5.6c0.3-0.5,0.7-0.8,1.2-1.1c0.5-0.3,1-0.4,1.6-0.4
		c1,0,1.8,0.3,2.4,0.9c0.6,0.6,0.9,1.6,0.9,2.9v4.7l1.5,0.3v1.1h-4.7v-1.1l1.5-0.3v-4.7c0-0.8-0.2-1.4-0.5-1.8s-0.9-0.6-1.5-0.6
		c-0.5,0-0.9,0.1-1.3,0.3c-0.4,0.2-0.7,0.5-1,0.9v5.8l1.5,0.3v1.1h-4.7L1076.8,487.8L1076.8,487.8z"/>
	<path class="st7" d="M1093.3,485.4c0-0.7,0.2-1.4,0.6-1.9s1-1.1,1.9-1.6c-0.5-0.6-0.8-1.1-1-1.6s-0.3-0.9-0.3-1.4
		c0-1,0.3-1.8,0.9-2.3s1.4-0.8,2.4-0.8c0.9,0,1.7,0.3,2.3,0.8s0.9,1.2,0.9,2c0,0.6-0.2,1.1-0.5,1.5s-0.8,0.9-1.4,1.3l-1,0.7l3,3.7
		c0.2-0.4,0.4-0.8,0.6-1.3c0.1-0.5,0.2-1,0.2-1.5h1.6c0,0.8-0.1,1.5-0.3,2.2c-0.2,0.7-0.6,1.3-1,1.8l1.7,2l0,0h-2l-0.8-0.9
		c-0.5,0.4-1,0.6-1.6,0.8c-0.6,0.2-1.2,0.3-1.8,0.3c-1.3,0-2.3-0.3-3.1-1C1093.7,487.4,1093.3,486.5,1093.3,485.4z M1097.6,487.7
		c0.4,0,0.9-0.1,1.3-0.2c0.4-0.1,0.8-0.4,1.2-0.6l-3.2-3.9l-0.4,0.3c-0.5,0.4-0.9,0.8-1.1,1.2c-0.2,0.4-0.3,0.7-0.3,1
		c0,0.7,0.2,1.2,0.6,1.7C1096.1,487.5,1096.8,487.7,1097.6,487.7z M1096.2,478.8c0,0.3,0.1,0.6,0.2,1s0.4,0.7,0.7,1.1l1.2-0.9
		c0.3-0.2,0.6-0.5,0.7-0.7c0.1-0.3,0.2-0.6,0.2-0.9c0-0.4-0.1-0.7-0.4-1c-0.3-0.3-0.7-0.4-1.1-0.4c-0.5,0-0.9,0.2-1.1,0.5
		C1096.3,477.9,1096.2,478.3,1096.2,478.8z"/>
	<path class="st7" d="M1119.8,487.4c-0.4,0.4-0.9,0.8-1.7,1.1c-0.7,0.4-1.7,0.5-2.9,0.5c-1.7,0-3.2-0.6-4.3-1.8
		c-1.1-1.2-1.7-2.8-1.7-4.8v-0.2c0-2,0.5-3.6,1.6-4.8c1.1-1.2,2.5-1.8,4.3-1.8c1,0,1.8,0.2,2.5,0.5s1.3,0.7,1.8,1.2v2.4h-1.2
		l-0.4-1.8c-0.3-0.2-0.6-0.4-1.1-0.6s-0.9-0.2-1.5-0.2c-1.4,0-2.5,0.5-3.3,1.4c-0.8,0.9-1.1,2.2-1.1,3.7v0.2c0,1.6,0.4,2.8,1.1,3.8
		s1.8,1.4,3,1.4c0.7,0,1.3-0.1,1.7-0.2c0.5-0.1,0.8-0.3,1.1-0.5v-2.7l-2.1-0.1v-1.3h3.9v4.6H1119.8L1119.8,487.4z"/>
</g>
</svg>
