<?xml version="1.0" encoding="utf-8"?>
<!-- Generator: Adobe Illustrator 19.1.0, SVG Export Plug-In . SVG Version: 6.00 Build 0)  -->
<svg version="1.1" id="Layer_1" xmlns="http://www.w3.org/2000/svg" xmlns:xlink="http://www.w3.org/1999/xlink" x="0px" y="0px"
	 viewBox="398 0 1156.4 360" style="enable-background:new 398 0 1156.4 360;" xml:space="preserve">
<style type="text/css">
	.st0{fill:#F4EC8F;}
	.st1{fill:#50516A;}
	.st2{fill-rule:evenodd;clip-rule:evenodd;fill:#E6E7E8;}
	.st3{fill:#D3CB7D;}
	.st4{fill:#505169;}
	.st5{fill:#00A79F;}
	.st6{fill:#F9F7F8;}
</style>
<rect x="398" y="320.7" class="st0" width="1156.4" height="39.3"/>
<g>
	<path class="st1" d="M1366.4,407.2c-0.4,0.9-0.8,1.6-1.2,2.2c-0.4,0.6-0.8,1.1-1.3,1.4c-0.2,0.2-0.5,0.3-0.8,0.4
		c-0.3,0.1-0.6,0.1-0.8,0.1h0c-0.4,0-0.8-0.1-1-0.4c-0.3-0.3-0.4-0.7-0.4-1.2v0v0c0-0.3,0.1-0.7,0.2-1.2c0.1-0.5,0.3-1,0.5-1.6
		c0.1-0.2,0.2-0.6,0.4-1.2c0.2-0.6,0.5-1.3,0.7-2c0-0.1,0.1-0.4,0.3-0.9h-1.3c-0.2,0-0.4-0.2-0.4-0.4c0-0.2,0.2-0.4,0.4-0.4h1.5
		c0.1-0.1,0.1-0.3,0.2-0.4c0.4-1.1,0.8-2.3,0.9-2.5c0.1-0.2,0.3-0.3,0.5-0.3s0.3,0.3,0.3,0.5c-0.1,0.2-0.5,1.4-0.9,2.5
		c0,0.1,0,0.1-0.1,0.2h1.3c0.2,0,0.4,0.2,0.4,0.4c0,0.2-0.2,0.4-0.4,0.4h-1.6c-0.2,0.6-0.3,1-0.4,1.2c-0.3,0.8-0.5,1.5-0.7,2
		c-0.2,0.5-0.3,0.9-0.4,1.2c-0.2,0.6-0.4,1.1-0.5,1.5c-0.1,0.4-0.2,0.8-0.2,1.1v0c0,0.3,0.1,0.5,0.2,0.7c0.1,0.1,0.3,0.2,0.4,0.2h0
		c0.2,0,0.4,0,0.6-0.1c0.2-0.1,0.4-0.1,0.5-0.3c0.4-0.3,0.7-0.7,1.1-1.2c0.4-0.6,0.7-1.3,1.1-2.1c0.1-0.2,0.4-0.3,0.6-0.2
		C1366.4,406.7,1366.5,406.9,1366.4,407.2z"/>
	<path class="st1" d="M1374.3,407.2L1374.3,407.2c-0.8,1.7-1.8,4.2-3.6,4.2h0c-0.6,0-0.9-0.2-1.1-0.6c-0.2-0.3-0.3-0.7-0.3-1.1v-0.1
		c0-0.4,0.1-0.9,0.2-1.4c0.1-0.5,0.3-1,0.5-1.4c0.1-0.1,0.1-0.2,0.1-0.4c0.3-0.7,0.7-1.8,0.7-2.7c0-0.6-0.3-1-1-1
		c-0.5,0-1.1,0.5-1.6,1.1c-0.7,0.9-1.4,2.2-1.8,3.3c0,0,0,0,0,0c-0.6,1.5-1.2,3.2-1.4,3.9c-0.1,0.2-0.3,0.3-0.5,0.3
		c-0.2-0.1-0.3-0.3-0.3-0.5c0.2-0.6,0.8-2.3,1.4-3.9l0,0v0c0,0,0,0,0,0c0.6-1.7,1.2-3.3,1.4-3.9v0c0.2-0.6,0.3-0.8,0.4-1.1
		c0.2-0.5,0.3-0.9,0.4-1.2l0.1-0.3c0.1-0.3,0.3-0.8,0.5-1.4c0.1-0.2,0.3-0.3,0.5-0.2c0.2,0.1,0.3,0.3,0.3,0.5
		c-0.2,0.5-0.4,1-0.5,1.4c0,0.1-0.1,0.2-0.1,0.3c-0.2,0.5-0.3,0.9-0.4,1.2l-0.3,0.7c0.6-0.6,1.2-0.9,1.8-0.9c1.4,0,1.9,0.8,1.9,1.9
		c0,1-0.5,2.2-0.8,3c-0.1,0.1-0.1,0.3-0.1,0.4c-0.2,0.5-0.3,0.9-0.5,1.4c-0.1,0.4-0.2,0.8-0.2,1.2v0c0,0.2,0,0.5,0.1,0.6
		c0.1,0.1,0.2,0.2,0.4,0.2h0c1.2,0,2.2-2.1,2.8-3.6l0-0.1c0.1-0.2,0.3-0.3,0.6-0.2C1374.3,406.7,1374.4,406.9,1374.3,407.2z"/>
	<path class="st1" d="M1381.5,407.2c-0.8,1.7-1.7,2.7-2.7,3.4c-1,0.6-2.1,0.8-3.1,0.8h0h0c-0.7,0-1.4-0.3-1.8-0.7
		c-0.5-0.5-0.8-1.1-0.7-2v0v0c0-0.5,0.1-1.1,0.3-1.7c0,0,0,0,0,0c0.1-0.4,0.3-0.9,0.5-1.3c0.5-1,1.1-2,1.7-2.7
		c0.3-0.3,0.6-0.5,1-0.7c0.3-0.2,0.7-0.3,1.1-0.3c0.5,0,0.8,0.1,1.1,0.3c0.3,0.2,0.5,0.5,0.6,0.8c0.1,0.3,0,0.7-0.1,1
		c-0.2,0.5-0.5,1-1,1.4c-0.5,0.4-1.2,0.8-1.8,1.1c-0.9,0.4-1.8,0.7-2.3,0.8c-0.1,0.5-0.2,0.9-0.2,1.3v0c0,0.6,0.2,1.1,0.5,1.4
		c0.3,0.3,0.8,0.5,1.3,0.5h0c0.8,0,1.7-0.1,2.6-0.7c0.9-0.5,1.7-1.5,2.3-3c0.1-0.2,0.3-0.3,0.6-0.2
		C1381.5,406.7,1381.6,407,1381.5,407.2z M1374.6,406.4c0.5-0.1,1-0.3,1.6-0.6c0.6-0.3,1.2-0.6,1.6-1c0.3-0.3,0.6-0.6,0.7-1
		c0.1-0.2,0.1-0.4,0-0.6c0-0.1-0.1-0.2-0.2-0.3c-0.1-0.1-0.3-0.2-0.6-0.2c-0.2,0-0.5,0.1-0.7,0.2c-0.2,0.1-0.5,0.3-0.7,0.6
		c-0.6,0.6-1.2,1.5-1.6,2.4C1374.7,406.1,1374.6,406.2,1374.6,406.4z"/>
	<path class="st1" d="M1385.2,407.2c-0.4,0.8-0.8,1.8-1.4,2.6c-0.6,0.9-1.4,1.6-2.3,1.6h0c-0.5,0-0.9-0.2-1.1-0.6
		c-0.2-0.3-0.3-0.7-0.3-1.1v-0.1c0-0.3,0.1-0.7,0.2-1.2c0.1-0.5,0.3-1,0.5-1.6c0.1-0.2,0.2-0.6,0.4-1.2c0.2-0.6,0.5-1.3,0.7-2
		c0-0.1,0.1-0.3,0.2-0.5l0.3-0.9c0.1-0.2,0.3-0.3,0.5-0.3c0.2,0.1,0.3,0.3,0.3,0.5l-0.3,0.9l-0.2,0.5c-0.3,0.8-0.5,1.5-0.7,2
		c-0.2,0.5-0.3,0.9-0.4,1.2c-0.2,0.6-0.4,1.1-0.5,1.5c-0.1,0.4-0.2,0.8-0.2,1.1v0c0,0.2,0,0.5,0.1,0.6c0.1,0.1,0.2,0.2,0.4,0.2h0
		c0.6,0,1.1-0.5,1.6-1.2c0.5-0.8,0.9-1.7,1.3-2.5c0.1-0.2,0.4-0.3,0.6-0.2C1385.2,406.7,1385.3,406.9,1385.2,407.2z M1383,400.3
		c0-0.4,0.3-0.7,0.7-0.7c0.4,0,0.7,0.3,0.7,0.7c0,0.4-0.3,0.7-0.7,0.7C1383.3,400.9,1383,400.6,1383,400.3z"/>
	<path class="st1" d="M1392.5,407.2L1392.5,407.2c-0.8,1.7-1.8,4.2-3.6,4.2h0c-0.5,0-0.9-0.2-1.1-0.6c-0.2-0.3-0.3-0.7-0.3-1.1v-0.1
		c0-0.3,0.1-0.7,0.2-1.2c0.1-0.5,0.3-1,0.5-1.6c0.2-0.5,0.3-0.9,0.4-1.1c0.1-0.4,0.2-0.6,0.4-1l-0.3-0.1c-0.6-0.2-1.2-0.4-1.8-0.7
		c-0.1,0.2-0.1,0.4-0.2,0.5v0l-1.6,3.5c-0.1,0.2-0.3,0.3-0.6,0.2c-0.2-0.1-0.3-0.3-0.2-0.6l1.6-3.5c0.1-0.2,0.2-0.4,0.2-0.6
		c-0.7-0.5-1.1-1-1-1.9c0-0.3,0.2-0.6,0.4-0.8c0,0,0,0,0,0c0.2-0.2,0.5-0.3,0.8-0.3c0.1,0,0.2,0,0.3,0l0,0c0.3,0.1,0.5,0.3,0.6,0.5
		c0.1,0.2,0.2,0.5,0.2,0.7c0,0.2,0,0.4-0.1,0.6c-0.1,0.2-0.1,0.4-0.2,0.7c0.6,0.3,1.2,0.5,1.8,0.7c0.3,0.1,0.5,0.2,0.8,0.2
		c0.2,0.1,0.3,0.3,0.2,0.6v0c-0.2,0.6-0.3,0.9-0.5,1.4c-0.1,0.3-0.2,0.6-0.4,1.1c-0.2,0.6-0.4,1.1-0.5,1.5c-0.1,0.4-0.2,0.8-0.2,1.1
		v0c0,0.2,0,0.5,0.2,0.6c0.1,0.1,0.2,0.2,0.4,0.2c1.3,0,2.2-2.1,2.8-3.6l0-0.1c0.1-0.2,0.3-0.3,0.6-0.2
		C1392.5,406.7,1392.6,406.9,1392.5,407.2z M1386.5,401.8c0-0.1,0-0.2-0.1-0.3c0-0.1-0.1-0.1-0.1-0.1h0c0,0-0.1,0-0.1,0
		c-0.1,0-0.2,0-0.2,0.1h0c-0.1,0.1-0.1,0.2-0.1,0.3c0,0.4,0.2,0.7,0.5,0.9c0.1-0.2,0.1-0.3,0.2-0.5
		C1386.5,402,1386.5,401.9,1386.5,401.8z"/>
	<path class="st1" d="M1403,407.2L1403,407.2c-0.8,1.7-1.8,4.2-3.6,4.2h0h0c-0.5,0-0.9-0.2-1.1-0.6c-0.2-0.2-0.2-0.5-0.3-0.8
		c-0.6,0.8-1.3,1.4-2.2,1.4h0c-0.5,0-0.9-0.2-1.1-0.6c-0.2-0.3-0.3-0.7-0.3-1.1v-0.1c0-0.3,0.1-0.7,0.2-1.2c0.1-0.5,0.3-1,0.5-1.6
		c0.1-0.3,0.3-0.9,0.6-1.6c0.3-0.9,0.7-2,1.1-3c0.1-0.2,0.3-0.3,0.5-0.2c0.2,0.1,0.3,0.3,0.2,0.5c-0.4,1.2-0.8,2.2-1.1,3
		c-0.3,0.7-0.5,1.3-0.6,1.6c-0.2,0.6-0.4,1.1-0.5,1.5c-0.1,0.4-0.2,0.8-0.2,1.1v0c0,0.2,0,0.5,0.1,0.6c0.1,0.1,0.2,0.2,0.5,0.2
		c1.2,0,2.2-2.1,2.8-3.6v0c0,0,0,0,0-0.1c0.1-0.3,0.3-0.9,0.6-1.6c0.4-0.9,0.7-2,1.1-3c0.1-0.2,0.3-0.3,0.5-0.2
		c0.2,0.1,0.3,0.3,0.3,0.5c-0.4,1.2-0.8,2.2-1.1,3c-0.3,0.7-0.5,1.3-0.6,1.6v0c0,0,0,0.1,0,0.1c-0.2,0.5-0.3,1-0.4,1.4
		c-0.1,0.4-0.2,0.8-0.2,1.1v0c0,0.2,0,0.5,0.1,0.6c0.1,0.1,0.2,0.2,0.4,0.2h0c1.2,0,2.2-2.1,2.8-3.6l0-0.1c0.1-0.2,0.3-0.3,0.6-0.2
		C1403,406.7,1403.1,406.9,1403,407.2z"/>
	<path class="st1" d="M1408.5,407.8L1408.5,407.8L1408.5,407.8c0,1.2-0.5,2.1-1.2,2.7c-0.7,0.6-1.6,0.9-2.4,0.9h0
		c-0.1,0-0.1,0-0.2,0c-0.8,0-1.5-0.4-2-0.9c-0.5-0.5-0.8-1.2-0.8-1.9c0-0.1,0-0.1,0-0.2c0.1-0.7,0.3-1.4,0.8-2
		c0.5-0.5,1.1-0.8,1.9-0.8c0.5,0,1,0.2,1.4,0.6c0.3,0.3,0.5,0.8,0.6,1.4c0,0.2-0.2,0.4-0.4,0.4s-0.4-0.2-0.4-0.4
		c0-0.3-0.1-0.6-0.3-0.8c-0.2-0.2-0.5-0.3-0.7-0.3c-0.5,0-1,0.2-1.3,0.6c-0.4,0.4-0.6,0.9-0.6,1.4c0,0,0,0.1,0,0.1
		c0,0.5,0.2,1,0.5,1.4c0.3,0.4,0.9,0.6,1.4,0.7c0.1,0,0.1,0,0.2,0h0c0.7,0,1.4-0.2,1.9-0.7c0.5-0.4,0.9-1.1,0.9-2v0
		c0-1-0.5-1.8-1-2.7c-0.1-0.2-0.2-0.4-0.3-0.6c-0.1,0.1-0.3,0.3-0.4,0.5c-0.2,0.2-0.4,0.2-0.6,0c-0.2-0.1-0.2-0.4-0.1-0.6
		c0.2-0.3,0.4-0.5,0.7-0.7l0,0c-0.2-0.6-0.4-1.1-0.3-1.7c0-0.2,0.1-0.4,0.2-0.6c0,0,0,0,0,0c0.1-0.2,0.2-0.3,0.3-0.5
		c0.1-0.1,0.3-0.2,0.4-0.3c0.2-0.1,0.3-0.1,0.5-0.1c0.3,0,0.5,0.1,0.7,0.3c0.2,0.2,0.2,0.4,0.3,0.7c0,0.2,0,0.4-0.1,0.6
		c0,0.2-0.1,0.4-0.2,0.6c-0.2,0.5-0.5,0.9-0.8,1.2c0.1,0.3,0.3,0.5,0.4,0.8C1407.9,405.6,1408.5,406.6,1408.5,407.8z M1407,402.3
		c0.1-0.1,0.1-0.3,0.1-0.4c0-0.1,0.1-0.2,0-0.4c0-0.1,0-0.1,0-0.2c0,0,0,0-0.1,0c0,0-0.1,0-0.1,0c-0.1,0-0.1,0.1-0.2,0.1
		c-0.1,0.1-0.1,0.1-0.2,0.2l0,0c0,0.1-0.1,0.2-0.1,0.3c0,0.3,0,0.6,0.1,0.9C1406.7,402.8,1406.8,402.5,1407,402.3z"/>
	<path class="st1" d="M1417.9,407.2L1417.9,407.2c-0.8,1.7-1.8,4.2-3.6,4.2h0h0c-0.5,0-0.9-0.2-1.1-0.6c-0.2-0.2-0.2-0.5-0.3-0.8
		c-0.6,0.8-1.3,1.4-2.2,1.4h0c-0.5,0-0.9-0.2-1.1-0.6c-0.2-0.3-0.3-0.7-0.3-1.1v-0.1c0-0.3,0.1-0.7,0.2-1.2c0.1-0.5,0.3-1,0.5-1.6
		c0.1-0.3,0.3-0.9,0.6-1.6c0.3-0.9,0.7-2,1.1-3c0.1-0.2,0.3-0.3,0.5-0.2c0.2,0.1,0.3,0.3,0.2,0.5c-0.4,1.2-0.8,2.2-1.1,3
		c-0.3,0.7-0.5,1.3-0.6,1.6c-0.2,0.6-0.4,1.1-0.5,1.5c-0.1,0.4-0.2,0.8-0.2,1.1v0c0,0.2,0,0.5,0.1,0.6c0.1,0.1,0.2,0.2,0.5,0.2
		c1.2,0,2.2-2.1,2.8-3.6v0c0,0,0,0,0-0.1c0.1-0.3,0.3-0.9,0.6-1.6c0.4-0.9,0.7-2,1.1-3c0.1-0.2,0.3-0.3,0.5-0.2
		c0.2,0.1,0.3,0.3,0.3,0.5c-0.4,1.2-0.8,2.2-1.1,3c-0.3,0.7-0.5,1.3-0.6,1.6v0c0,0,0,0.1,0,0.1c-0.2,0.5-0.3,1-0.4,1.4
		c-0.1,0.4-0.2,0.8-0.2,1.1v0c0,0.2,0,0.5,0.1,0.6c0.1,0.1,0.2,0.2,0.4,0.2h0c1.2,0,2.2-2.1,2.8-3.6l0-0.1c0.1-0.2,0.3-0.3,0.6-0.2
		C1417.9,406.7,1418,406.9,1417.9,407.2z"/>
	<path class="st1" d="M1425.9,407.2L1425.9,407.2c-0.8,1.7-1.8,4.2-3.6,4.2h0c-0.5,0-0.9-0.2-1.1-0.6c-0.2-0.3-0.3-0.7-0.3-1.1v0
		c-0.7,1-1.5,1.7-2.5,1.6c-0.6,0-1-0.3-1.2-0.7c-0.3-0.4-0.4-1-0.4-1.6c0-1.1,0.6-3.3,1.6-5c0.7-1.2,1.7-2.1,2.8-2.2
		c0.1,0,0.1,0,0.2,0c0.5,0,1,0.3,1.4,0.7c0.1,0.1,0.2,0.2,0.3,0.4c0.1-0.3,0.2-0.6,0.3-0.9c0.1-0.2,0.3-0.3,0.5-0.2
		c0.2,0.1,0.3,0.3,0.2,0.5c-0.2,0.6-0.6,1.6-1,2.7c-0.3,0.7-0.5,1.4-0.7,2c-0.2,0.6-0.4,1.1-0.5,1.5c-0.1,0.4-0.2,0.8-0.2,1.1v0
		c0,0.2,0,0.5,0.1,0.6c0.1,0.1,0.2,0.2,0.5,0.2c1.2,0,2.2-2.1,2.8-3.6l0-0.1c0.1-0.2,0.3-0.3,0.6-0.2
		C1425.9,406.7,1426,406.9,1425.9,407.2z M1421.9,405.5c0.2-0.4,0.3-0.8,0.5-1.1c0-0.1,0-0.1,0-0.1c0-0.5-0.1-0.8-0.4-1.1
		c-0.2-0.2-0.5-0.4-0.8-0.4c0,0-0.1,0-0.1,0c-0.8,0-1.5,0.8-2.1,1.8c-0.9,1.5-1.4,3.5-1.5,4.5c0,0.5,0.1,0.9,0.2,1.1
		c0.1,0.2,0.3,0.3,0.6,0.3C1420,410.5,1421.1,407.5,1421.9,405.5z"/>
	<path class="st1" d="M1430.1,407.2c-0.4,0.9-0.8,1.6-1.2,2.2c-0.4,0.6-0.8,1.1-1.3,1.4c-0.2,0.2-0.5,0.3-0.8,0.4
		c-0.3,0.1-0.6,0.1-0.8,0.1h0c-0.4,0-0.8-0.1-1-0.4c-0.3-0.3-0.4-0.7-0.4-1.2v0v0c0-0.3,0.1-0.8,0.2-1.2c0.1-0.5,0.3-1,0.5-1.6
		c0.5-1.6,1.1-3.2,1.7-4.9l0.4-1.3l0.1-0.3c0.1-0.3,0.3-0.8,0.5-1.4c0.1-0.2,0.3-0.3,0.5-0.3c0.2,0.1,0.3,0.3,0.3,0.5
		c-0.2,0.5-0.4,1.1-0.5,1.4c0,0.1-0.1,0.2-0.1,0.4l-0.4,1.3c-0.6,1.6-1.1,3.2-1.7,4.9c-0.2,0.6-0.3,1.1-0.5,1.5
		c-0.1,0.4-0.2,0.8-0.2,1v0c0,0.3,0.1,0.5,0.2,0.7c0.1,0.1,0.3,0.2,0.4,0.2h0c0.2,0,0.4,0,0.6-0.1c0.2-0.1,0.4-0.1,0.5-0.3
		c0.4-0.3,0.7-0.7,1.1-1.2c0.4-0.6,0.7-1.3,1.1-2.1c0.1-0.2,0.4-0.3,0.6-0.2C1430.1,406.7,1430.2,406.9,1430.1,407.2z"/>
	<path class="st1" d="M1438.8,407.8L1438.8,407.8L1438.8,407.8c0,1.2-0.5,2.1-1.2,2.7c-0.7,0.6-1.6,0.9-2.4,0.9h0
		c-0.1,0-0.1,0-0.2,0c-0.8,0-1.5-0.4-2-0.9c-0.5-0.5-0.8-1.2-0.8-1.9c0-0.1,0-0.1,0-0.2c0.1-0.7,0.3-1.4,0.8-2
		c0.5-0.5,1.1-0.8,1.9-0.8c0.5,0,1,0.2,1.4,0.6c0.3,0.3,0.5,0.8,0.6,1.4c0,0.2-0.2,0.4-0.4,0.4s-0.4-0.2-0.4-0.4
		c0-0.3-0.1-0.6-0.3-0.8c-0.2-0.2-0.5-0.3-0.7-0.3c-0.5,0-1,0.2-1.3,0.6c-0.4,0.4-0.6,0.9-0.6,1.4c0,0,0,0.1,0,0.1
		c0,0.5,0.2,1,0.5,1.4c0.3,0.4,0.9,0.6,1.4,0.7c0.1,0,0.1,0,0.2,0h0c0.7,0,1.4-0.2,1.9-0.7c0.5-0.4,0.9-1.1,0.9-2v0
		c0-1-0.5-1.8-1-2.7c-0.1-0.2-0.2-0.4-0.3-0.6c-0.1,0.1-0.3,0.3-0.4,0.5c-0.2,0.2-0.4,0.2-0.6,0c-0.2-0.1-0.2-0.4-0.1-0.6
		c0.2-0.3,0.4-0.5,0.7-0.7l0,0c-0.2-0.6-0.4-1.1-0.3-1.7c0-0.2,0.1-0.4,0.2-0.6c0,0,0,0,0,0c0.1-0.2,0.2-0.3,0.3-0.5
		c0.1-0.1,0.3-0.2,0.4-0.3c0.2-0.1,0.3-0.1,0.5-0.1c0.3,0,0.5,0.1,0.7,0.3c0.2,0.2,0.2,0.4,0.3,0.7c0,0.2,0,0.4-0.1,0.6
		c0,0.2-0.1,0.4-0.2,0.6c-0.2,0.5-0.5,0.9-0.8,1.2c0.1,0.3,0.3,0.5,0.4,0.8C1438.2,405.6,1438.8,406.6,1438.8,407.8z M1437.3,402.3
		c0.1-0.1,0.1-0.3,0.1-0.4c0-0.1,0.1-0.2,0-0.4c0-0.1,0-0.1,0-0.2c0,0,0,0-0.1,0c0,0-0.1,0-0.1,0c-0.1,0-0.1,0.1-0.2,0.1
		c-0.1,0.1-0.1,0.1-0.2,0.2l0,0c0,0.1-0.1,0.2-0.1,0.3c0,0.3,0,0.6,0.1,0.9C1437,402.8,1437.2,402.5,1437.3,402.3z"/>
	<path class="st1" d="M1448.6,407.1c0,0.1-0.1,0.3-0.2,0.4c-0.1,0.1-0.1,0.2-0.2,0.3c-0.3,0.5-0.6,1-1,1.4c-0.4,0.4-1,0.7-1.7,0.7
		c-0.2,0-0.4,0-0.6-0.1c-0.3-0.1-0.6-0.2-0.8-0.5c-0.8,1.1-1.8,1.9-3,1.8h0h0h0c-0.7,0-1.2-0.4-1.4-0.8c-0.9,2.5-1.7,4.7-1.9,5.3
		c-0.1,0.2-0.3,0.3-0.5,0.3c-0.2-0.1-0.3-0.3-0.3-0.5c0.2-0.6,1.2-3.4,2.2-6.2c1.1-3.1,2.3-6.3,2.5-6.9c0-0.1,0.1-0.2,0.1-0.3
		c0.1-0.2,0.3-0.3,0.5-0.3c0.2,0.1,0.3,0.3,0.3,0.5l-0.2,0.4c0.6-0.6,1.2-1,2-1c0.6,0,1,0.3,1.3,0.7c0.3,0.4,0.4,1,0.4,1.6l0,0.1v0
		c-0.1,1.1-0.6,2.9-1.4,4.4c0,0.1-0.1,0.1-0.1,0.2c0.2,0.2,0.4,0.3,0.6,0.4c0.1,0,0.2,0,0.4,0c0.5,0,0.8-0.2,1.2-0.5
		c0.3-0.3,0.6-0.8,0.8-1.2c0-0.1,0.1-0.2,0.2-0.3c0-0.1,0.1-0.2,0.1-0.4c0.1-0.2,0.3-0.3,0.6-0.2
		C1448.6,406.7,1448.7,406.9,1448.6,407.1z M1444.4,407.1c-0.1,0.2-0.1,0.4-0.1,0.5c0.6-1.2,0.9-2.5,1-3.4v0v-0.1v0
		c0-0.5,0-0.9-0.2-1.1c-0.1-0.2-0.3-0.3-0.6-0.3c-1.6,0-2.8,3-3.6,5l-0.1,0.3c-0.1,0.5-0.3,1-0.3,1.4c0,0.6,0.1,1,0.7,1h0h0
		c0.9,0,1.8-0.7,2.4-1.7c-0.1-0.3-0.2-0.6-0.2-1c0-0.3,0-0.6,0.1-1c0.1-0.2,0.3-0.4,0.5-0.3C1444.3,406.6,1444.4,406.9,1444.4,407.1
		z"/>
	<path class="st1" d="M1456.3,407.1c-0.1,0.1-0.1,0.3-0.2,0.4c-0.1,0.1-0.1,0.2-0.2,0.3c-0.3,0.5-0.6,1-1,1.4
		c-0.5,0.4-1,0.7-1.7,0.7c-0.2,0-0.4,0-0.6-0.1c-0.3-0.1-0.6-0.3-0.9-0.5c-0.7,1-1.7,1.8-2.7,1.8c-3.3,0-1.1-5.5,0-7.3
		c0.7-1.2,1.7-2.1,2.8-2.1h0c0.6,0,1.1,0.2,1.5,0.7c0.3,0.4,0.5,0.9,0.5,1.6c0,1.3-0.7,3.1-1.5,4.6c0.1,0.2,0.4,0.3,0.6,0.4
		c0.1,0,0.2,0,0.3,0c0.5,0,0.9-0.2,1.2-0.5c0.3-0.3,0.6-0.8,0.8-1.2c0.1-0.1,0.1-0.2,0.2-0.3c0.1-0.1,0.1-0.2,0.2-0.4
		c0.1-0.2,0.3-0.3,0.6-0.2C1456.3,406.7,1456.4,406.9,1456.3,407.1z M1452.1,407.1c-0.1,0.2-0.1,0.3-0.1,0.5c0.6-1.2,1-2.5,1-3.4
		c0-0.5-0.1-0.8-0.3-1c-0.2-0.2-0.5-0.4-0.9-0.4c-0.8,0-1.5,0.7-2,1.7c-0.8,1.3-2.7,6-0.7,6c0.7,0,1.6-0.8,2.2-1.7
		c-0.1-0.3-0.2-0.6-0.2-0.9c0-0.3,0-0.6,0.1-1c0.1-0.2,0.3-0.4,0.5-0.3C1452,406.6,1452.2,406.9,1452.1,407.1z"/>
	<path class="st1" d="M1460.4,407.2c-0.4,0.9-0.8,1.6-1.2,2.2c-0.4,0.6-0.8,1.1-1.3,1.4c-0.2,0.2-0.5,0.3-0.8,0.4
		c-0.3,0.1-0.6,0.1-0.8,0.1h0c-0.4,0-0.8-0.1-1-0.4c-0.3-0.3-0.4-0.7-0.4-1.2v0v0c0-0.3,0.1-0.7,0.2-1.2c0.1-0.5,0.3-1,0.5-1.6
		c0.1-0.2,0.2-0.6,0.4-1.2c0.2-0.6,0.5-1.3,0.7-2c0-0.1,0.1-0.4,0.3-0.9h-1.3c-0.2,0-0.4-0.2-0.4-0.4c0-0.2,0.2-0.4,0.4-0.4h1.5
		c0.1-0.1,0.1-0.3,0.2-0.4c0.4-1.1,0.8-2.3,0.9-2.5c0.1-0.2,0.3-0.3,0.5-0.3c0.2,0.1,0.3,0.3,0.3,0.5c-0.1,0.2-0.5,1.4-0.9,2.5
		c0,0.1,0,0.1-0.1,0.2h1.3c0.2,0,0.4,0.2,0.4,0.4c0,0.2-0.2,0.4-0.4,0.4h-1.6c-0.2,0.6-0.3,1-0.4,1.2c-0.3,0.8-0.5,1.5-0.7,2
		c-0.2,0.5-0.3,0.9-0.4,1.2c-0.2,0.6-0.4,1.1-0.5,1.5c-0.1,0.4-0.2,0.8-0.2,1.1v0c0,0.3,0.1,0.5,0.2,0.7c0.1,0.1,0.3,0.2,0.4,0.2h0
		c0.2,0,0.4,0,0.6-0.1c0.2-0.1,0.4-0.1,0.5-0.3c0.4-0.3,0.7-0.7,1.1-1.2c0.4-0.6,0.7-1.3,1.1-2.1c0.1-0.2,0.4-0.3,0.6-0.2
		C1460.4,406.7,1460.5,406.9,1460.4,407.2z"/>
</g>
<g>
	<path class="st1" d="M1343.4,404.2l-6.7,2.5l5,2.3c0.3,0.1,0.4,0.4,0.3,0.7c-0.1,0.2-0.4,0.4-0.7,0.2l-6.2-2.7
		c-0.1,0-0.2-0.1-0.3-0.3c-0.1-0.3,0-0.6,0.3-0.7l7.9-3c0.3-0.1,0.6,0,0.7,0.3C1343.8,403.8,1343.7,404.1,1343.4,404.2z"/>
	<path class="st1" d="M1355.3,404.2l-6.7,2.5l5,2.3c0.3,0.1,0.4,0.4,0.3,0.7c-0.1,0.2-0.4,0.4-0.7,0.2l-6.2-2.7
		c-0.1,0-0.2-0.1-0.3-0.3c-0.1-0.3,0-0.6,0.3-0.7l7.9-3c0.3-0.1,0.6,0,0.7,0.3C1355.6,403.8,1355.5,404.1,1355.3,404.2z"/>
</g>
<path class="st2" d="M852.9,154.5c-1.5,0.6-4.7,1.3-5.4,2.2c-3.8-2.1-7.6-1.3-9.9-2.8c-1.1-0.7-1.6-1.7-2.8-2.4
	c-0.8-0.5-1.4-0.9-2.2-1.5c-0.4-0.2-0.9-0.2-1.3-0.3c0.3-0.2,0.7-0.2,1.1-0.2c0.3-1,2-1.4,2.2-1.3c-4.5-7-10-11.7-22.3-6.5
	c22.5-14.2,21.9-0.6,25.7,3.7c3.5-8.6,2.9-25,42.6-9.2c-13.2,7.8-33.6-7.5-36.9,13.1c-0.3,1.9-0.7,3.6,1.7,4c1,0.2,2.3,0.3,3.6,0.4
	C850.6,154.1,851.8,154.2,852.9,154.5z"/>
<path class="st2" d="M1290.1,62.2c-3-2.6-6.6-2.4-8.4-4.1c-0.8-0.8-1.1-1.8-2-2.6c-0.7-0.6-1.1-1.1-1.7-1.7
	c-0.4-0.3-0.8-0.3-1.1-0.5c0.3-0.1,0.7-0.1,1,0c0.5-0.8,2-0.8,2.2-0.7c-2.6-7-6.3-12.8-19.3-13.2c10.8-1.7,14.6-1.3,18.3,1.1
	c4.1,2.8,3.2,7.8,4.6,10.3c2.6-3.8,4.2-10,8.4-12.9c4.8-3.4,16.4-2.6,31.1,1c-13.1,4.4-28.1-1.9-36.7,14.5c-0.8,1.5,0.2,4.9,2.3,5.8
	c0.8,0.4,2,0.7,3.1,1.1c0.9,0.3,1.3,0.6,1.3,0.8C1293.4,61.6,1290.7,61.7,1290.1,62.2z"/>
<path class="st2" d="M521,192c2.7-3.5,7-12.3,12.4-12c1.2,0.1,2.7,0.5,4.5,1.4c0,0,7.6,4.6,13.4,6.8c3.4,1.4,5,1.8-0.1,1.5
	c-5.9-0.3-11.1-4.4-17.4-3.3c-3.5,0.6-7.8,2.6-9.7,8.1c0,0,2.9,4.6,6.2,2.3c-0.7,1-1,1.8-3.8,2.1c0.6,0.5,2.7-0.2,2.5-0.1
	c0,0-1.4,1.1-3.2,0.6c-2,1.2-4.9,0-5.9-1.9c0,0-4.3,0.6-9.3,0.4c-6-0.2-4.4-1.2-7.9,4.1c-1.3,2-1.9,3.4-2.8,4.6
	c-8.7,12.7-6.9,6.2-2.9-2.7c0.4-1,1-2.3,1.6-4c4.2-11,4.9-8.2,14.8-5.7c1.8,0.4,3.5,0.6,4.8,0.2c-1-0.9-1.2-1.5-1.8-2.5
	c-0.3-0.4-0.9-1.1-1.7-1.5c0.1-0.2,1.4,0.5,1.9,0.4c0.9-0.9,1.5-0.4,2.2-0.2C519.5,190.8,520.1,191.7,521,192z"/>
<path class="st2" d="M978.5,159.1c0,0-3.6-0.7-4.6,1.2l-2.3,1.6l2.3-0.6c0,0,2,2.9,5.7,4.1c5.7,1.9,11.6,0.7,16.9-1.7
	c-0.6,0-2.4,0.4-5.2-0.6c-11.7-4-2.8-9,9-10.3c6.8-0.7,12.6,9,20.6,8.7c-23.8-28.1-34.4-9.9-40.5-4.8c-2.8-15.2-22.2-13.2-29-7.9
	c5,1.5,11.4-0.5,16.9-0.1C975.7,149.4,978.5,153,978.5,159.1z"/>
<g>
	<ellipse class="st3" cx="1335.8" cy="331.5" rx="26.4" ry="5.9"/>
	<rect x="1329.8" y="118" class="st4" width="10.2" height="213.5"/>
	<polygon class="st5" points="1403.4,170.5 1274,170.5 1257.5,155.1 1274,141.7 1403.4,141.7 	"/>
	<g>
		<path class="st6" d="M1293.4,161.4v-1l3.5-3.9c0.6-0.7,1.1-1.3,1.3-1.7c0.2-0.4,0.3-0.8,0.3-1.3c0-0.5-0.2-1-0.5-1.4
			c-0.3-0.4-0.7-0.5-1.2-0.5c-0.7,0-1.3,0.2-1.6,0.6c-0.3,0.4-0.5,0.9-0.5,1.6h-1.4l0,0c0-0.9,0.3-1.7,0.9-2.3
			c0.6-0.6,1.5-0.9,2.7-0.9c1,0,1.7,0.3,2.3,0.8c0.6,0.6,0.9,1.3,0.9,2.1c0,0.6-0.2,1.2-0.5,1.8c-0.3,0.6-0.8,1.2-1.5,1.9l-2.8,3.1
			l0,0h3.8l0.1-1.2h1.2v2.4H1293.4z"/>
		<path class="st6" d="M1301.8,161.4v-1l3.5-3.9c0.6-0.7,1.1-1.3,1.3-1.7c0.2-0.4,0.3-0.8,0.3-1.3c0-0.5-0.2-1-0.5-1.4
			c-0.3-0.4-0.7-0.5-1.2-0.5c-0.7,0-1.3,0.2-1.6,0.6c-0.3,0.4-0.5,0.9-0.5,1.6h-1.4l0,0c0-0.9,0.3-1.7,0.9-2.3
			c0.6-0.6,1.5-0.9,2.7-0.9c1,0,1.7,0.3,2.3,0.8c0.6,0.6,0.9,1.3,0.9,2.1c0,0.6-0.2,1.2-0.5,1.8c-0.3,0.6-0.8,1.2-1.5,1.9l-2.8,3.1
			l0,0h3.8l0.1-1.2h1.2v2.4H1301.8z"/>
		<path class="st6" d="M1309.8,160.5l1.2-0.2v-5.7l-1.2-0.2v-0.9h2.5l0.1,1.2c0.3-0.4,0.6-0.8,1-1c0.4-0.2,0.9-0.4,1.4-0.4
			c0.9,0,1.5,0.3,2,0.8c0.5,0.5,0.7,1.3,0.7,2.3v3.9l1.2,0.2v0.9h-3.9v-0.9l1.2-0.2v-3.9c0-0.7-0.1-1.2-0.4-1.5
			c-0.3-0.3-0.7-0.4-1.3-0.4c-0.4,0-0.8,0.1-1.1,0.3c-0.3,0.2-0.6,0.5-0.8,0.8v4.7l1.2,0.2v0.9h-3.9V160.5z"/>
		<path class="st6" d="M1325.1,160.4c-0.3,0.4-0.6,0.6-1,0.8c-0.4,0.2-0.8,0.3-1.3,0.3c-1,0-1.7-0.4-2.3-1.1
			c-0.5-0.7-0.8-1.6-0.8-2.8v-0.2c0-1.3,0.3-2.3,0.8-3.1c0.5-0.8,1.3-1.2,2.3-1.2c0.5,0,0.9,0.1,1.3,0.3c0.4,0.2,0.7,0.4,0.9,0.8
			V151l-1.2-0.2v-0.9h1.2h1.5v10.4l1.2,0.2v0.9h-2.5L1325.1,160.4z M1321.2,157.7c0,0.8,0.2,1.4,0.5,1.9c0.3,0.5,0.8,0.7,1.5,0.7
			c0.4,0,0.8-0.1,1.1-0.3c0.3-0.2,0.5-0.5,0.7-0.8v-3.7c-0.2-0.3-0.4-0.6-0.7-0.8c-0.3-0.2-0.7-0.3-1.1-0.3c-0.7,0-1.2,0.3-1.5,0.9
			c-0.3,0.6-0.5,1.3-0.5,2.2V157.7z"/>
		<path class="st6" d="M1332.4,158.5c0-0.6,0.2-1.1,0.5-1.6c0.3-0.4,0.9-0.9,1.6-1.4c-0.4-0.5-0.7-0.9-0.9-1.3
			c-0.2-0.4-0.3-0.8-0.3-1.2c0-0.8,0.2-1.5,0.7-1.9c0.5-0.4,1.1-0.7,2-0.7c0.8,0,1.4,0.2,1.9,0.7s0.7,1,0.7,1.6
			c0,0.5-0.1,0.9-0.4,1.2c-0.3,0.4-0.6,0.7-1.1,1.1l-0.8,0.6l2.5,3c0.2-0.3,0.4-0.7,0.5-1.1c0.1-0.4,0.2-0.8,0.2-1.2h1.3
			c0,0.6-0.1,1.2-0.3,1.8c-0.2,0.6-0.5,1-0.8,1.5l1.4,1.7l0,0h-1.7l-0.6-0.8c-0.4,0.3-0.8,0.5-1.3,0.7c-0.5,0.2-1,0.2-1.5,0.2
			c-1.1,0-1.9-0.3-2.5-0.8C1332.7,160.1,1332.4,159.4,1332.4,158.5z M1335.9,160.4c0.4,0,0.7-0.1,1-0.2c0.3-0.1,0.7-0.3,1-0.5
			l-2.7-3.2l-0.3,0.2c-0.4,0.3-0.7,0.7-0.9,1c-0.1,0.3-0.2,0.6-0.2,0.8c0,0.6,0.2,1,0.5,1.4C1334.7,160.2,1335.2,160.4,1335.9,160.4
			z M1334.8,153.1c0,0.3,0.1,0.5,0.2,0.8c0.1,0.3,0.3,0.6,0.6,0.9l1-0.7c0.3-0.2,0.5-0.4,0.6-0.6c0.1-0.2,0.2-0.5,0.2-0.7
			c0-0.3-0.1-0.6-0.4-0.8c-0.2-0.2-0.5-0.3-0.9-0.3c-0.4,0-0.7,0.1-0.9,0.4C1334.9,152.3,1334.8,152.7,1334.8,153.1z"/>
		<path class="st6" d="M1350.3,150.7c1.1,0,2,0.2,2.6,0.7c0.6,0.5,0.9,1.2,0.9,2.2c0,0.5-0.2,0.9-0.5,1.3c-0.3,0.4-0.7,0.7-1.2,0.8
			c0.6,0.1,1.2,0.5,1.5,1c0.4,0.5,0.6,1.1,0.6,1.7c0,1-0.3,1.7-1,2.3c-0.6,0.5-1.5,0.8-2.6,0.8h-5.2v-0.9l1.2-0.2v-8.5l-1.2-0.2
			v-0.9h1.2H1350.3z M1348.3,155.2h2.4c0.5,0,0.9-0.2,1.3-0.5c0.3-0.3,0.5-0.7,0.5-1.2c0-0.6-0.2-1-0.5-1.3
			c-0.4-0.3-0.9-0.4-1.6-0.4h-2V155.2z M1348.3,156.4v3.9h2.5c0.7,0,1.2-0.2,1.5-0.5c0.4-0.3,0.5-0.8,0.5-1.4c0-0.6-0.2-1.1-0.5-1.5
			c-0.3-0.4-0.8-0.5-1.4-0.5H1348.3z"/>
		<path class="st6" d="M1361.4,160.2c-0.3,0.4-0.6,0.8-1,1c-0.4,0.2-0.9,0.3-1.4,0.3c-0.9,0-1.5-0.3-2-0.8s-0.7-1.4-0.7-2.6v-3.6
			l-0.9-0.2v-0.9h0.9h1.5v4.7c0,0.9,0.1,1.4,0.4,1.8c0.2,0.3,0.6,0.5,1.2,0.5c0.5,0,0.9-0.1,1.3-0.3c0.3-0.2,0.6-0.5,0.8-0.9v-4.6
			l-1.1-0.2v-0.9h1.1h1.5v6.8l0.9,0.2v0.9h-2.2L1361.4,160.2z"/>
		<path class="st6" d="M1364.9,154.4v-0.9h2.5l0.1,1.2c0.2-0.4,0.5-0.7,0.8-1c0.3-0.2,0.7-0.3,1.1-0.3c0.1,0,0.2,0,0.4,0
			c0.1,0,0.2,0,0.3,0.1l-0.2,1.3l-0.8,0c-0.4,0-0.7,0.1-1,0.3c-0.3,0.2-0.5,0.4-0.6,0.8v4.6l1.2,0.2v0.9h-3.9v-0.9l1.2-0.2v-5.7
			L1364.9,154.4z"/>
		<path class="st6" d="M1373.9,151.5v1.9h1.5v1.1h-1.5v4.8c0,0.4,0.1,0.6,0.2,0.8c0.2,0.2,0.4,0.2,0.6,0.2c0.1,0,0.3,0,0.4,0
			c0.2,0,0.3,0,0.4-0.1l0.2,1c-0.1,0.1-0.3,0.2-0.6,0.2c-0.3,0.1-0.5,0.1-0.8,0.1c-0.6,0-1.1-0.2-1.4-0.5c-0.3-0.4-0.5-0.9-0.5-1.7
			v-4.8h-1.3v-1.1h1.3v-1.9H1373.9z"/>
	</g>
</g>
<path class="st2" d="M1411.8,21.6c-13,0-24,6.7-28,15.9c-2.5-0.5-5.2-0.8-8-0.8c-10.5,0-19.6,3.8-24.2,9.4
	c-8.6,1.2-15.1,6.3-15.1,12.3c0,3.1,1.6,5.9,4.4,8c-3.8,1.6-6.6,3.4-8.2,5.3c-9,1.1-15.3,3.6-15.3,6.4c0,3.7,10.8,6.7,24.6,7.1
	c9.6,3.7,24.6,6.1,41.5,6.1c2.9,0,5.7-0.1,8.4-0.2c4.5,0.1,9.1,0.2,13.9,0.2c31.2,0,56.5-2.9,56.5-6.6c0-0.6-0.8-1.2-2.2-1.8
	c8.7-1.6,14.1-3.8,14.1-6.3c0-0.1,0-0.2,0-0.3c13-1.2,21.9-3.8,21.9-6.8c0-2.5-6.4-4.7-16.2-6.1c0.4-1.1,0.7-2.3,0.7-3.5
	c0-8.7-12.1-15.8-27.8-17c-1.6-5.9-7.1-10.3-13.7-10.3c-0.7,0-1.4,0.1-2.1,0.2C1431.8,26.1,1422.5,21.6,1411.8,21.6z"/>
<path class="st2" d="M570.2,55.3c-13,0-24,6.7-28,15.9c-2.5-0.5-5.2-0.8-8-0.8c-10.5,0-19.6,3.8-24.2,9.4
	c-8.6,1.2-15.1,6.3-15.1,12.3c0,3.1,1.6,5.9,4.4,8c-3.8,1.6-6.6,3.4-8.2,5.3c-9,1.1-15.3,3.6-15.3,6.4c0,3.7,10.8,6.7,24.6,7.1
	c9.6,3.7,24.6,6.1,41.5,6.1c2.9,0,5.7-0.1,8.4-0.2c4.5,0.1,9.1,0.2,13.9,0.2c31.2,0,56.5-2.9,56.5-6.6c0-0.6-0.8-1.2-2.2-1.8
	c8.7-1.6,14.1-3.8,14.1-6.3c0-0.1,0-0.2,0-0.3c13-1.2,21.9-3.8,21.9-6.8c0-2.5-6.4-4.7-16.2-6.1c0.4-1.1,0.7-2.3,0.7-3.5
	c0-8.7-12.1-15.8-27.8-17c-1.6-5.9-7.1-10.3-13.7-10.3c-0.7,0-1.4,0.1-2.1,0.2C590.2,59.8,580.9,55.3,570.2,55.3z"/>
</svg>
