<?xml version="1.0" encoding="utf-8"?>
<!-- Generator: Adobe Illustrator 19.1.0, SVG Export Plug-In . SVG Version: 6.00 Build 0)  -->
<svg version="1.1" id="Layer_1" xmlns="http://www.w3.org/2000/svg" xmlns:xlink="http://www.w3.org/1999/xlink" x="0px" y="0px"
	 viewBox="398 0 1156.4 360" style="enable-background:new 398 0 1156.4 360;" xml:space="preserve">
<style type="text/css">
	.st0{fill:#CECECE;}
	.st1{fill:#E6E7E8;}
	.st2{fill:#F4EC8F;}
	.st3{fill:#D3CB7D;}
	.st4{fill:#50516A;}
	.st5{fill:#03A8A0;}
	.st6{fill:#748225;}
	.st7{fill:#FFFFFF;}
</style>
<path class="st0" d="M413.2,166.4c0.4-2.7,2.9-4.6,5.6-4.2c2.7,0.4,4.6,2.9,4.2,5.6c-1.9,13.8-2.9,38.6,2.8,46.4
	c4.2,5.7,10.2,7.2,14.4,7.4l-2.9-54.9c0-13.7,11.1-24.9,24.9-24.9c13.7,0,24.9,11.1,24.9,24.9l-3.8,71.6c5.8-2.1,10.6-4.6,12.9-7.4
	c7.5-9.1,2.2-20.1,1.9-20.6c-1.2-2.4-0.3-5.4,2.2-6.6c2.4-1.2,5.4-0.3,6.6,2.2c0.1,0.2,0.7,1.3,1.3,3.2c1.9,5.6,4.3,17.5-4.4,28.1
	c-4.2,5.1-12.4,8.9-21,11.7l-2,37.5h-37.2l-2.9-55c-6.4-0.1-16.1-2.1-22.9-11.4C407.9,206.4,412.6,170.5,413.2,166.4"/>
<g>
	<g>
		<path class="st1" d="M1546.2,356.4c-8.1-13.3-21.7-23.1-38.1-25.8c-6.6-1.1-13.2-1-19.5,0.2c6.3-7.8,10.8-17.3,12.5-28
			c5.4-32.7-16.6-63.7-49.2-69.1c-19.4-3.3-38.3,3.4-51.4,16.2c1.8-46.9-31.2-88.9-78.5-96.7c-48.8-8.1-95,23-106.6,70.4
			c-4.4-2.1-9.3-3.8-14.3-4.7c-28.1-4.7-54.6,14.3-59.2,42.5c-1.7,10.2-0.3,20.1,3.5,28.9c-3.3-1.2-6.7-2.2-10.3-2.7
			c-26.8-4.5-52.3,11.5-60.6,36.6c-15.1-14.8-35.8-24-58.7-24c-5.6,0-11.1,0.6-16.4,1.6c7.9-12.4,12.6-27.2,12.6-43.1
			c0-44-35.6-79.7-79.4-79.7c-8,0-15.7,1.2-23,3.4c-5.8-75.1-68.2-134.3-144.4-134.3c-73.8,0-134.7,55.4-143.8,127.2
			c-16.8-22.9-43.8-37.6-74.2-37.6c-50.9,0-92.3,41.5-92.3,92.7c0,16.6,4.4,32.1,12,45.6c-9.3-3.5-19.2-5.3-29.6-5.3
			c-47.2,0-85.4,38.4-85.4,85.8v150.4h1202.5V356.4H1546.2z"/>
	</g>
</g>
<rect x="387.8" y="319" class="st2" width="1181.1" height="39.3"/>
<ellipse class="st3" cx="1297.9" cy="335" rx="26.8" ry="6"/>
<rect x="1291.7" y="117.9" class="st4" width="10.4" height="217.1"/>
<polygon class="st5" points="1366.5,171.2 1235,171.2 1218.1,155.6 1235,141.9 1366.5,141.9 "/>
<g>
	<path class="st4" d="M2454.4,913.2c-0.4,0.9-0.8,1.6-1.2,2.2c-0.4,0.6-0.8,1.1-1.3,1.4c-0.2,0.2-0.5,0.3-0.8,0.4
		c-0.3,0.1-0.6,0.1-0.8,0.1l0,0c-0.4,0-0.8-0.1-1-0.4c-0.3-0.3-0.4-0.7-0.4-1.2l0,0l0,0c0-0.3,0.1-0.7,0.2-1.2s0.3-1,0.5-1.6
		c0.1-0.2,0.2-0.6,0.4-1.2c0.2-0.6,0.5-1.3,0.7-2c0-0.1,0.1-0.4,0.3-0.9h-1.3c-0.2,0-0.4-0.2-0.4-0.4s0.2-0.4,0.4-0.4h1.5
		c0.1-0.1,0.1-0.3,0.2-0.4c0.4-1.1,0.8-2.3,0.9-2.5s0.3-0.3,0.5-0.3s0.3,0.3,0.3,0.5c-0.1,0.2-0.5,1.4-0.9,2.5c0,0.1,0,0.1-0.1,0.2
		h1.3c0.2,0,0.4,0.2,0.4,0.4s-0.2,0.4-0.4,0.4h-1.6c-0.2,0.6-0.3,1-0.4,1.2c-0.3,0.8-0.5,1.5-0.7,2s-0.3,0.9-0.4,1.2
		c-0.2,0.6-0.4,1.1-0.5,1.5s-0.2,0.8-0.2,1.1l0,0c0,0.3,0.1,0.5,0.2,0.7c0.1,0.1,0.3,0.2,0.4,0.2l0,0c0.2,0,0.4,0,0.6-0.1
		c0.2-0.1,0.4-0.1,0.5-0.3c0.4-0.3,0.7-0.7,1.1-1.2c0.4-0.6,0.7-1.3,1.1-2.1c0.1-0.2,0.4-0.3,0.6-0.2
		C2454.4,912.7,2454.5,912.9,2454.4,913.2z"/>
	<path class="st4" d="M2462.3,913.2L2462.3,913.2c-0.8,1.7-1.8,4.2-3.6,4.2l0,0c-0.6,0-0.9-0.2-1.1-0.6c-0.2-0.3-0.3-0.7-0.3-1.1
		v-0.1c0-0.4,0.1-0.9,0.2-1.4s0.3-1,0.5-1.4c0.1-0.1,0.1-0.2,0.1-0.4c0.3-0.7,0.7-1.8,0.7-2.7c0-0.6-0.3-1-1-1
		c-0.5,0-1.1,0.5-1.6,1.1c-0.7,0.9-1.4,2.2-1.8,3.3l0,0c-0.6,1.5-1.2,3.2-1.4,3.9c-0.1,0.2-0.3,0.3-0.5,0.3
		c-0.2-0.1-0.3-0.3-0.3-0.5c0.2-0.6,0.8-2.3,1.4-3.9l0,0l0,0l0,0c0.6-1.7,1.2-3.3,1.4-3.9l0,0c0.2-0.6,0.3-0.8,0.4-1.1
		c0.2-0.5,0.3-0.9,0.4-1.2l0.1-0.3c0.1-0.3,0.3-0.8,0.5-1.4c0.1-0.2,0.3-0.3,0.5-0.2s0.3,0.3,0.3,0.5c-0.2,0.5-0.4,1-0.5,1.4
		c0,0.1-0.1,0.2-0.1,0.3c-0.2,0.5-0.3,0.9-0.4,1.2l-0.3,0.7c0.6-0.6,1.2-0.9,1.8-0.9c1.4,0,1.9,0.8,1.9,1.9c0,1-0.5,2.2-0.8,3
		c-0.1,0.1-0.1,0.3-0.1,0.4c-0.2,0.5-0.3,0.9-0.5,1.4c-0.1,0.4-0.2,0.8-0.2,1.2l0,0c0,0.2,0,0.5,0.1,0.6s0.2,0.2,0.4,0.2l0,0
		c1.2,0,2.2-2.1,2.8-3.6V913c0.1-0.2,0.3-0.3,0.6-0.2C2462.3,912.7,2462.4,912.9,2462.3,913.2z"/>
	<path class="st4" d="M2469.5,913.2c-0.8,1.7-1.7,2.7-2.7,3.4c-1,0.6-2.1,0.8-3.1,0.8l0,0l0,0c-0.7,0-1.4-0.3-1.8-0.7
		c-0.5-0.5-0.8-1.1-0.7-2l0,0l0,0c0-0.5,0.1-1.1,0.3-1.7l0,0c0.1-0.4,0.3-0.9,0.5-1.3c0.5-1,1.1-2,1.7-2.7c0.3-0.3,0.6-0.5,1-0.7
		c0.3-0.2,0.7-0.3,1.1-0.3c0.5,0,0.8,0.1,1.1,0.3s0.5,0.5,0.6,0.8s0,0.7-0.1,1c-0.2,0.5-0.5,1-1,1.4s-1.2,0.8-1.8,1.1
		c-0.9,0.4-1.8,0.7-2.3,0.8c-0.1,0.5-0.2,0.9-0.2,1.3l0,0c0,0.6,0.2,1.1,0.5,1.4c0.3,0.3,0.8,0.5,1.3,0.5l0,0c0.8,0,1.7-0.1,2.6-0.7
		c0.9-0.5,1.7-1.5,2.3-3c0.1-0.2,0.3-0.3,0.6-0.2C2469.5,912.7,2469.6,913,2469.5,913.2z M2462.6,912.4c0.5-0.1,1-0.3,1.6-0.6
		s1.2-0.6,1.6-1c0.3-0.3,0.6-0.6,0.7-1c0.1-0.2,0.1-0.4,0-0.6c0-0.1-0.1-0.2-0.2-0.3c-0.1-0.1-0.3-0.2-0.6-0.2
		c-0.2,0-0.5,0.1-0.7,0.2c-0.2,0.1-0.5,0.3-0.7,0.6c-0.6,0.6-1.2,1.5-1.6,2.4C2462.7,912.1,2462.6,912.2,2462.6,912.4z"/>
	<path class="st4" d="M2473.2,913.2c-0.4,0.8-0.8,1.8-1.4,2.6c-0.6,0.9-1.4,1.6-2.3,1.6l0,0c-0.5,0-0.9-0.2-1.1-0.6
		c-0.2-0.3-0.3-0.7-0.3-1.1v-0.1c0-0.3,0.1-0.7,0.2-1.2s0.3-1,0.5-1.6c0.1-0.2,0.2-0.6,0.4-1.2c0.2-0.6,0.5-1.3,0.7-2
		c0-0.1,0.1-0.3,0.2-0.5l0.3-0.9c0.1-0.2,0.3-0.3,0.5-0.3c0.2,0.1,0.3,0.3,0.3,0.5l-0.3,0.9l-0.2,0.5c-0.3,0.8-0.5,1.5-0.7,2
		s-0.3,0.9-0.4,1.2c-0.2,0.6-0.4,1.1-0.5,1.5s-0.2,0.8-0.2,1.1l0,0c0,0.2,0,0.5,0.1,0.6s0.2,0.2,0.4,0.2l0,0c0.6,0,1.1-0.5,1.6-1.2
		c0.5-0.8,0.9-1.7,1.3-2.5c0.1-0.2,0.4-0.3,0.6-0.2C2473.2,912.7,2473.3,912.9,2473.2,913.2z M2471,906.3c0-0.4,0.3-0.7,0.7-0.7
		s0.7,0.3,0.7,0.7s-0.3,0.7-0.7,0.7C2471.3,906.9,2471,906.6,2471,906.3z"/>
	<path class="st4" d="M2480.5,913.2L2480.5,913.2c-0.8,1.7-1.8,4.2-3.6,4.2l0,0c-0.5,0-0.9-0.2-1.1-0.6c-0.2-0.3-0.3-0.7-0.3-1.1
		v-0.1c0-0.3,0.1-0.7,0.2-1.2s0.3-1,0.5-1.6c0.2-0.5,0.3-0.9,0.4-1.1c0.1-0.4,0.2-0.6,0.4-1l-0.3-0.1c-0.6-0.2-1.2-0.4-1.8-0.7
		c-0.1,0.2-0.1,0.4-0.2,0.5l0,0l-1.6,3.5c-0.1,0.2-0.3,0.3-0.6,0.2c-0.2-0.1-0.3-0.3-0.2-0.6l1.6-3.5c0.1-0.2,0.2-0.4,0.2-0.6
		c-0.7-0.5-1.1-1-1-1.9c0-0.3,0.2-0.6,0.4-0.8l0,0c0.2-0.2,0.5-0.3,0.8-0.3c0.1,0,0.2,0,0.3,0l0,0c0.3,0.1,0.5,0.3,0.6,0.5
		s0.2,0.5,0.2,0.7s0,0.4-0.1,0.6s-0.1,0.4-0.2,0.7c0.6,0.3,1.2,0.5,1.8,0.7c0.3,0.1,0.5,0.2,0.8,0.2c0.2,0.1,0.3,0.3,0.2,0.6l0,0
		c-0.2,0.6-0.3,0.9-0.5,1.4c-0.1,0.3-0.2,0.6-0.4,1.1c-0.2,0.6-0.4,1.1-0.5,1.5s-0.2,0.8-0.2,1.1l0,0c0,0.2,0,0.5,0.2,0.6
		c0.1,0.1,0.2,0.2,0.4,0.2c1.3,0,2.2-2.1,2.8-3.6v-0.1c0.1-0.2,0.3-0.3,0.6-0.2C2480.5,912.7,2480.6,912.9,2480.5,913.2z
		 M2474.5,907.8c0-0.1,0-0.2-0.1-0.3c0-0.1-0.1-0.1-0.1-0.1l0,0h-0.1c-0.1,0-0.2,0-0.2,0.1l0,0c-0.1,0.1-0.1,0.2-0.1,0.3
		c0,0.4,0.2,0.7,0.5,0.9c0.1-0.2,0.1-0.3,0.2-0.5C2474.5,908,2474.5,907.9,2474.5,907.8z"/>
	<path class="st4" d="M2491,913.2L2491,913.2c-0.8,1.7-1.8,4.2-3.6,4.2l0,0l0,0c-0.5,0-0.9-0.2-1.1-0.6c-0.2-0.2-0.2-0.5-0.3-0.8
		c-0.6,0.8-1.3,1.4-2.2,1.4l0,0c-0.5,0-0.9-0.2-1.1-0.6c-0.2-0.3-0.3-0.7-0.3-1.1v-0.1c0-0.3,0.1-0.7,0.2-1.2c0.1-0.5,0.3-1,0.5-1.6
		c0.1-0.3,0.3-0.9,0.6-1.6c0.3-0.9,0.7-2,1.1-3c0.1-0.2,0.3-0.3,0.5-0.2s0.3,0.3,0.2,0.5c-0.4,1.2-0.8,2.2-1.1,3
		c-0.3,0.7-0.5,1.3-0.6,1.6c-0.2,0.6-0.4,1.1-0.5,1.5s-0.2,0.8-0.2,1.1l0,0c0,0.2,0,0.5,0.1,0.6s0.2,0.2,0.5,0.2
		c1.2,0,2.2-2.1,2.8-3.6l0,0c0,0,0,0,0-0.1c0.1-0.3,0.3-0.9,0.6-1.6c0.4-0.9,0.7-2,1.1-3c0.1-0.2,0.3-0.3,0.5-0.2s0.3,0.3,0.3,0.5
		c-0.4,1.2-0.8,2.2-1.1,3c-0.3,0.7-0.5,1.3-0.6,1.6l0,0v0.1c-0.2,0.5-0.3,1-0.4,1.4c-0.1,0.4-0.2,0.8-0.2,1.1l0,0
		c0,0.2,0,0.5,0.1,0.6s0.2,0.2,0.4,0.2l0,0c1.2,0,2.2-2.1,2.8-3.6v-0.1c0.1-0.2,0.3-0.3,0.6-0.2C2491,912.7,2491.1,912.9,2491,913.2
		z"/>
	<path class="st4" d="M2496.5,913.8L2496.5,913.8L2496.5,913.8c0,1.2-0.5,2.1-1.2,2.7s-1.6,0.9-2.4,0.9l0,0c-0.1,0-0.1,0-0.2,0
		c-0.8,0-1.5-0.4-2-0.9s-0.8-1.2-0.8-1.9c0-0.1,0-0.1,0-0.2c0.1-0.7,0.3-1.4,0.8-2c0.5-0.5,1.1-0.8,1.9-0.8c0.5,0,1,0.2,1.4,0.6
		c0.3,0.3,0.5,0.8,0.6,1.4c0,0.2-0.2,0.4-0.4,0.4s-0.4-0.2-0.4-0.4c0-0.3-0.1-0.6-0.3-0.8s-0.5-0.3-0.7-0.3c-0.5,0-1,0.2-1.3,0.6
		c-0.4,0.4-0.6,0.9-0.6,1.4v0.1c0,0.5,0.2,1,0.5,1.4s0.9,0.6,1.4,0.7c0.1,0,0.1,0,0.2,0l0,0c0.7,0,1.4-0.2,1.9-0.7
		c0.5-0.4,0.9-1.1,0.9-2l0,0c0-1-0.5-1.8-1-2.7c-0.1-0.2-0.2-0.4-0.3-0.6c-0.1,0.1-0.3,0.3-0.4,0.5c-0.2,0.2-0.4,0.2-0.6,0
		c-0.2-0.1-0.2-0.4-0.1-0.6c0.2-0.3,0.4-0.5,0.7-0.7l0,0c-0.2-0.6-0.4-1.1-0.3-1.7c0-0.2,0.1-0.4,0.2-0.6l0,0
		c0.1-0.2,0.2-0.3,0.3-0.5c0.1-0.1,0.3-0.2,0.4-0.3c0.2-0.1,0.3-0.1,0.5-0.1c0.3,0,0.5,0.1,0.7,0.3s0.2,0.4,0.3,0.7
		c0,0.2,0,0.4-0.1,0.6c0,0.2-0.1,0.4-0.2,0.6c-0.2,0.5-0.5,0.9-0.8,1.2c0.1,0.3,0.3,0.5,0.4,0.8
		C2495.9,911.6,2496.5,912.6,2496.5,913.8z M2495,908.3c0.1-0.1,0.1-0.3,0.1-0.4c0-0.1,0.1-0.2,0-0.4c0-0.1,0-0.1,0-0.2
		c0,0,0,0-0.1,0h-0.1c-0.1,0-0.1,0.1-0.2,0.1c-0.1,0.1-0.1,0.1-0.2,0.2l0,0c0,0.1-0.1,0.2-0.1,0.3c0,0.3,0,0.6,0.1,0.9
		C2494.7,908.8,2494.8,908.5,2495,908.3z"/>
	<path class="st4" d="M2505.9,913.2L2505.9,913.2c-0.8,1.7-1.8,4.2-3.6,4.2l0,0l0,0c-0.5,0-0.9-0.2-1.1-0.6
		c-0.2-0.2-0.2-0.5-0.3-0.8c-0.6,0.8-1.3,1.4-2.2,1.4l0,0c-0.5,0-0.9-0.2-1.1-0.6c-0.2-0.3-0.3-0.7-0.3-1.1v-0.1
		c0-0.3,0.1-0.7,0.2-1.2s0.3-1,0.5-1.6c0.1-0.3,0.3-0.9,0.6-1.6c0.3-0.9,0.7-2,1.1-3c0.1-0.2,0.3-0.3,0.5-0.2s0.3,0.3,0.2,0.5
		c-0.4,1.2-0.8,2.2-1.1,3c-0.3,0.7-0.5,1.3-0.6,1.6c-0.2,0.6-0.4,1.1-0.5,1.5s-0.2,0.8-0.2,1.1l0,0c0,0.2,0,0.5,0.1,0.6
		s0.2,0.2,0.5,0.2c1.2,0,2.2-2.1,2.8-3.6l0,0c0,0,0,0,0-0.1c0.1-0.3,0.3-0.9,0.6-1.6c0.4-0.9,0.7-2,1.1-3c0.1-0.2,0.3-0.3,0.5-0.2
		s0.3,0.3,0.3,0.5c-0.4,1.2-0.8,2.2-1.1,3c-0.3,0.7-0.5,1.3-0.6,1.6l0,0v0.1c-0.2,0.5-0.3,1-0.4,1.4s-0.2,0.8-0.2,1.1l0,0
		c0,0.2,0,0.5,0.1,0.6s0.2,0.2,0.4,0.2l0,0c1.2,0,2.2-2.1,2.8-3.6v-0.1c0.1-0.2,0.3-0.3,0.6-0.2
		C2505.9,912.7,2506,912.9,2505.9,913.2z"/>
	<path class="st4" d="M2513.9,913.2L2513.9,913.2c-0.8,1.7-1.8,4.2-3.6,4.2l0,0c-0.5,0-0.9-0.2-1.1-0.6c-0.2-0.3-0.3-0.7-0.3-1.1
		l0,0c-0.7,1-1.5,1.7-2.5,1.6c-0.6,0-1-0.3-1.2-0.7c-0.3-0.4-0.4-1-0.4-1.6c0-1.1,0.6-3.3,1.6-5c0.7-1.2,1.7-2.1,2.8-2.2
		c0.1,0,0.1,0,0.2,0c0.5,0,1,0.3,1.4,0.7c0.1,0.1,0.2,0.2,0.3,0.4c0.1-0.3,0.2-0.6,0.3-0.9c0.1-0.2,0.3-0.3,0.5-0.2s0.3,0.3,0.2,0.5
		c-0.2,0.6-0.6,1.6-1,2.7c-0.3,0.7-0.5,1.4-0.7,2s-0.4,1.1-0.5,1.5s-0.2,0.8-0.2,1.1l0,0c0,0.2,0,0.5,0.1,0.6s0.2,0.2,0.5,0.2
		c1.2,0,2.2-2.1,2.8-3.6v-0.1c0.1-0.2,0.3-0.3,0.6-0.2C2513.9,912.7,2514,912.9,2513.9,913.2z M2509.9,911.5
		c0.2-0.4,0.3-0.8,0.5-1.1c0-0.1,0-0.1,0-0.1c0-0.5-0.1-0.8-0.4-1.1c-0.2-0.2-0.5-0.4-0.8-0.4h-0.1c-0.8,0-1.5,0.8-2.1,1.8
		c-0.9,1.5-1.4,3.5-1.5,4.5c0,0.5,0.1,0.9,0.2,1.1c0.1,0.2,0.3,0.3,0.6,0.3C2508,916.5,2509.1,913.5,2509.9,911.5z"/>
	<path class="st4" d="M2518.1,913.2c-0.4,0.9-0.8,1.6-1.2,2.2c-0.4,0.6-0.8,1.1-1.3,1.4c-0.2,0.2-0.5,0.3-0.8,0.4
		c-0.3,0.1-0.6,0.1-0.8,0.1l0,0c-0.4,0-0.8-0.1-1-0.4c-0.3-0.3-0.4-0.7-0.4-1.2l0,0l0,0c0-0.3,0.1-0.8,0.2-1.2
		c0.1-0.5,0.3-1,0.5-1.6c0.5-1.6,1.1-3.2,1.7-4.9l0.4-1.3l0.1-0.3c0.1-0.3,0.3-0.8,0.5-1.4c0.1-0.2,0.3-0.3,0.5-0.3
		c0.2,0.1,0.3,0.3,0.3,0.5c-0.2,0.5-0.4,1.1-0.5,1.4c0,0.1-0.1,0.2-0.1,0.4l-0.4,1.3c-0.6,1.6-1.1,3.2-1.7,4.9
		c-0.2,0.6-0.3,1.1-0.5,1.5c-0.1,0.4-0.2,0.8-0.2,1l0,0c0,0.3,0.1,0.5,0.2,0.7c0.1,0.1,0.3,0.2,0.4,0.2l0,0c0.2,0,0.4,0,0.6-0.1
		s0.4-0.1,0.5-0.3c0.4-0.3,0.7-0.7,1.1-1.2c0.4-0.6,0.7-1.3,1.1-2.1c0.1-0.2,0.4-0.3,0.6-0.2
		C2518.1,912.7,2518.2,912.9,2518.1,913.2z"/>
	<path class="st4" d="M2526.8,913.8L2526.8,913.8L2526.8,913.8c0,1.2-0.5,2.1-1.2,2.7s-1.6,0.9-2.4,0.9l0,0c-0.1,0-0.1,0-0.2,0
		c-0.8,0-1.5-0.4-2-0.9s-0.8-1.2-0.8-1.9c0-0.1,0-0.1,0-0.2c0.1-0.7,0.3-1.4,0.8-2c0.5-0.5,1.1-0.8,1.9-0.8c0.5,0,1,0.2,1.4,0.6
		c0.3,0.3,0.5,0.8,0.6,1.4c0,0.2-0.2,0.4-0.4,0.4s-0.4-0.2-0.4-0.4c0-0.3-0.1-0.6-0.3-0.8s-0.5-0.3-0.7-0.3c-0.5,0-1,0.2-1.3,0.6
		c-0.4,0.4-0.6,0.9-0.6,1.4v0.1c0,0.5,0.2,1,0.5,1.4s0.9,0.6,1.4,0.7c0.1,0,0.1,0,0.2,0l0,0c0.7,0,1.4-0.2,1.9-0.7
		c0.5-0.4,0.9-1.1,0.9-2l0,0c0-1-0.5-1.8-1-2.7c-0.1-0.2-0.2-0.4-0.3-0.6c-0.1,0.1-0.3,0.3-0.4,0.5c-0.2,0.2-0.4,0.2-0.6,0
		c-0.2-0.1-0.2-0.4-0.1-0.6c0.2-0.3,0.4-0.5,0.7-0.7l0,0c-0.2-0.6-0.4-1.1-0.3-1.7c0-0.2,0.1-0.4,0.2-0.6l0,0
		c0.1-0.2,0.2-0.3,0.3-0.5c0.1-0.1,0.3-0.2,0.4-0.3c0.2-0.1,0.3-0.1,0.5-0.1c0.3,0,0.5,0.1,0.7,0.3s0.2,0.4,0.3,0.7
		c0,0.2,0,0.4-0.1,0.6c0,0.2-0.1,0.4-0.2,0.6c-0.2,0.5-0.5,0.9-0.8,1.2c0.1,0.3,0.3,0.5,0.4,0.8
		C2526.2,911.6,2526.8,912.6,2526.8,913.8z M2525.3,908.3c0.1-0.1,0.1-0.3,0.1-0.4c0-0.1,0.1-0.2,0-0.4c0-0.1,0-0.1,0-0.2
		c0,0,0,0-0.1,0h-0.1c-0.1,0-0.1,0.1-0.2,0.1c-0.1,0.1-0.1,0.1-0.2,0.2l0,0c0,0.1-0.1,0.2-0.1,0.3c0,0.3,0,0.6,0.1,0.9
		C2525,908.8,2525.2,908.5,2525.3,908.3z"/>
	<path class="st4" d="M2536.6,913.1c0,0.1-0.1,0.3-0.2,0.4c-0.1,0.1-0.1,0.2-0.2,0.3c-0.3,0.5-0.6,1-1,1.4s-1,0.7-1.7,0.7
		c-0.2,0-0.4,0-0.6-0.1c-0.3-0.1-0.6-0.2-0.8-0.5c-0.8,1.1-1.8,1.9-3,1.8l0,0l0,0l0,0c-0.7,0-1.2-0.4-1.4-0.8
		c-0.9,2.5-1.7,4.7-1.9,5.3c-0.1,0.2-0.3,0.3-0.5,0.3c-0.2-0.1-0.3-0.3-0.3-0.5c0.2-0.6,1.2-3.4,2.2-6.2c1.1-3.1,2.3-6.3,2.5-6.9
		c0-0.1,0.1-0.2,0.1-0.3c0.1-0.2,0.3-0.3,0.5-0.3c0.2,0.1,0.3,0.3,0.3,0.5l-0.2,0.4c0.6-0.6,1.2-1,2-1c0.6,0,1,0.3,1.3,0.7
		s0.4,1,0.4,1.6v0.1l0,0c-0.1,1.1-0.6,2.9-1.4,4.4c0,0.1-0.1,0.1-0.1,0.2c0.2,0.2,0.4,0.3,0.6,0.4c0.1,0,0.2,0,0.4,0
		c0.5,0,0.8-0.2,1.2-0.5c0.3-0.3,0.6-0.8,0.8-1.2c0-0.1,0.1-0.2,0.2-0.3c0-0.1,0.1-0.2,0.1-0.4c0.1-0.2,0.3-0.3,0.6-0.2
		C2536.6,912.7,2536.7,912.9,2536.6,913.1z M2532.4,913.1c-0.1,0.2-0.1,0.4-0.1,0.5c0.6-1.2,0.9-2.5,1-3.4l0,0v-0.1l0,0
		c0-0.5,0-0.9-0.2-1.1c-0.1-0.2-0.3-0.3-0.6-0.3c-1.6,0-2.8,3-3.6,5l-0.1,0.3c-0.1,0.5-0.3,1-0.3,1.4c0,0.6,0.1,1,0.7,1l0,0l0,0
		c0.9,0,1.8-0.7,2.4-1.7c-0.1-0.3-0.2-0.6-0.2-1c0-0.3,0-0.6,0.1-1c0.1-0.2,0.3-0.4,0.5-0.3C2532.3,912.6,2532.4,912.9,2532.4,913.1
		z"/>
	<path class="st4" d="M2544.3,913.1c-0.1,0.1-0.1,0.3-0.2,0.4s-0.1,0.2-0.2,0.3c-0.3,0.5-0.6,1-1,1.4c-0.5,0.4-1,0.7-1.7,0.7
		c-0.2,0-0.4,0-0.6-0.1c-0.3-0.1-0.6-0.3-0.9-0.5c-0.7,1-1.7,1.8-2.7,1.8c-3.3,0-1.1-5.5,0-7.3c0.7-1.2,1.7-2.1,2.8-2.1l0,0
		c0.6,0,1.1,0.2,1.5,0.7c0.3,0.4,0.5,0.9,0.5,1.6c0,1.3-0.7,3.1-1.5,4.6c0.1,0.2,0.4,0.3,0.6,0.4c0.1,0,0.2,0,0.3,0
		c0.5,0,0.9-0.2,1.2-0.5s0.6-0.8,0.8-1.2c0.1-0.1,0.1-0.2,0.2-0.3c0.1-0.1,0.1-0.2,0.2-0.4c0.1-0.2,0.3-0.3,0.6-0.2
		C2544.3,912.7,2544.4,912.9,2544.3,913.1z M2540.1,913.1c-0.1,0.2-0.1,0.3-0.1,0.5c0.6-1.2,1-2.5,1-3.4c0-0.5-0.1-0.8-0.3-1
		s-0.5-0.4-0.9-0.4c-0.8,0-1.5,0.7-2,1.7c-0.8,1.3-2.7,6-0.7,6c0.7,0,1.6-0.8,2.2-1.7c-0.1-0.3-0.2-0.6-0.2-0.9s0-0.6,0.1-1
		c0.1-0.2,0.3-0.4,0.5-0.3C2540,912.6,2540.2,912.9,2540.1,913.1z"/>
	<path class="st4" d="M2548.4,913.2c-0.4,0.9-0.8,1.6-1.2,2.2c-0.4,0.6-0.8,1.1-1.3,1.4c-0.2,0.2-0.5,0.3-0.8,0.4
		c-0.3,0.1-0.6,0.1-0.8,0.1l0,0c-0.4,0-0.8-0.1-1-0.4c-0.3-0.3-0.4-0.7-0.4-1.2l0,0l0,0c0-0.3,0.1-0.7,0.2-1.2s0.3-1,0.5-1.6
		c0.1-0.2,0.2-0.6,0.4-1.2c0.2-0.6,0.5-1.3,0.7-2c0-0.1,0.1-0.4,0.3-0.9h-1.3c-0.2,0-0.4-0.2-0.4-0.4s0.2-0.4,0.4-0.4h1.5
		c0.1-0.1,0.1-0.3,0.2-0.4c0.4-1.1,0.8-2.3,0.9-2.5s0.3-0.3,0.5-0.3c0.2,0.1,0.3,0.3,0.3,0.5c-0.1,0.2-0.5,1.4-0.9,2.5
		c0,0.1,0,0.1-0.1,0.2h1.3c0.2,0,0.4,0.2,0.4,0.4s-0.2,0.4-0.4,0.4h-1.6c-0.2,0.6-0.3,1-0.4,1.2c-0.3,0.8-0.5,1.5-0.7,2
		s-0.3,0.9-0.4,1.2c-0.2,0.6-0.4,1.1-0.5,1.5s-0.2,0.8-0.2,1.1l0,0c0,0.3,0.1,0.5,0.2,0.7c0.1,0.1,0.3,0.2,0.4,0.2l0,0
		c0.2,0,0.4,0,0.6-0.1c0.2-0.1,0.4-0.1,0.5-0.3c0.4-0.3,0.7-0.7,1.1-1.2c0.4-0.6,0.7-1.3,1.1-2.1c0.1-0.2,0.4-0.3,0.6-0.2
		C2548.4,912.7,2548.5,912.9,2548.4,913.2z"/>
</g>
<g>
	<path class="st4" d="M2431.4,910.2l-6.7,2.5l5,2.3c0.3,0.1,0.4,0.4,0.3,0.7c-0.1,0.2-0.4,0.4-0.7,0.2l-6.2-2.7
		c-0.1,0-0.2-0.1-0.3-0.3c-0.1-0.3,0-0.6,0.3-0.7l7.9-3c0.3-0.1,0.6,0,0.7,0.3C2431.8,909.8,2431.7,910.1,2431.4,910.2z"/>
	<path class="st4" d="M2443.3,910.2l-6.7,2.5l5,2.3c0.3,0.1,0.4,0.4,0.3,0.7c-0.1,0.2-0.4,0.4-0.7,0.2l-6.2-2.7
		c-0.1,0-0.2-0.1-0.3-0.3c-0.1-0.3,0-0.6,0.3-0.7l7.9-3c0.3-0.1,0.6,0,0.7,0.3C2443.6,909.8,2443.5,910.1,2443.3,910.2z"/>
</g>
<path class="st0" d="M1452.3,224.4c-0.4-3-3.2-5.1-6.2-4.7s-5.1,3.2-4.7,6.2c2.2,15.4,3.2,43.1-3.1,51.8c-4.7,6.4-11.4,8-16.1,8.2
	l3.2-61.3c0-15.3-12.4-27.8-27.8-27.8s-27.8,12.4-27.8,27.8l4.2,80c-6.5-2.3-11.8-5.1-14.4-8.2c-8.3-10.2-2.4-22.5-2.2-23
	c1.4-2.7,0.3-6-2.4-7.4c-2.7-1.4-6-0.3-7.4,2.4c-0.1,0.2-0.7,1.5-1.4,3.5c-2.1,6.2-4.8,19.5,4.9,31.4c4.7,5.7,13.9,10,23.5,13.1
	l2.2,41.9h41.5l3.2-61.4c7.1-0.1,18-2.3,25.6-12.7C1458.2,269,1452.9,229,1452.3,224.4"/>
<g>
	<path class="st6" d="M465.8,1123.1c0.4,0,0.8-0.1,1.2-0.3c0.4-0.2,0.7-0.6,0.9-1.1c0.2-0.5,0.3-1.1,0.3-1.8c0-0.7-0.1-1.3-0.3-1.7
		c-0.2-0.5-0.5-0.9-0.9-1.1c-0.4-0.3-0.8-0.4-1.2-0.4v-1.8c0.4,0.1,0.8,0.2,1.1,0.3c0.5,0.3,1,0.6,1.5,1.2v-3.7
		c0-0.5,0.1-0.9,0.3-1.2c0.2-0.3,0.5-0.4,0.9-0.4s0.7,0.1,0.9,0.4c0.2,0.2,0.3,0.6,0.3,1.1v11.2c0,0.5-0.1,0.8-0.3,1.1
		c-0.2,0.2-0.5,0.4-0.9,0.4c-0.3,0-0.6-0.1-0.9-0.4c-0.2-0.2-0.3-0.6-0.3-1.1v-0.3c-0.3,0.4-0.7,0.7-1,1c-0.3,0.2-0.7,0.4-1.1,0.6
		c-0.2,0-0.3,0.1-0.5,0.1V1123.1z M463.4,1119.9c0,0.7,0.1,1.3,0.3,1.8c0.2,0.5,0.5,0.8,0.9,1.1c0.4,0.2,0.8,0.4,1.2,0.4l0,0v1.9
		c-0.2,0-0.5,0.1-0.8,0.1c-0.6,0-1.2-0.1-1.7-0.4s-1-0.6-1.3-1.1c-0.4-0.5-0.7-1-0.9-1.7c-0.2-0.6-0.3-1.3-0.3-2.1
		c0-1.6,0.4-2.8,1.2-3.7c0.8-0.9,1.8-1.3,3.1-1.3c0.3,0,0.5,0,0.7,0v1.8l0,0c-0.5,0-0.9,0.1-1.2,0.4c-0.4,0.3-0.6,0.6-0.8,1.1
		C463.5,1118.7,463.4,1119.3,463.4,1119.9"/>
	<path class="st6" d="M477.7,1119.1h2.3c-0.1-0.9-0.3-1.5-0.7-1.9c-0.4-0.4-0.9-0.6-1.6-0.6v-1.8h0.1c1,0,1.8,0.2,2.5,0.6
		c0.7,0.4,1.2,1,1.6,1.6c0.3,0.7,0.5,1.3,0.5,2c0,0.6-0.2,1.1-0.5,1.2c-0.4,0.2-0.9,0.3-1.5,0.3h-2.7V1119.1L477.7,1119.1z
		 M477.7,1125.1v-1.7c0.1,0,0.1,0,0.2,0c0.3,0,0.6,0,0.8-0.1c0.2-0.1,0.5-0.2,0.7-0.3c0.2-0.2,0.5-0.3,0.7-0.5
		c0.2-0.2,0.5-0.4,0.8-0.7c0.1-0.1,0.3-0.2,0.6-0.2s0.5,0.1,0.6,0.2c0.2,0.1,0.2,0.3,0.2,0.6c0,0.2-0.1,0.5-0.3,0.8
		c-0.2,0.3-0.5,0.6-0.8,0.9c-0.4,0.3-0.8,0.5-1.4,0.7c-0.5,0.2-1.2,0.3-1.9,0.3C477.9,1125.1,477.8,1125.1,477.7,1125.1
		 M475.4,1119.1h2.3v1.4h-2.3c0,0.6,0.1,1.1,0.3,1.5c0.2,0.4,0.5,0.8,0.9,1c0.3,0.2,0.7,0.3,1,0.3v1.7c-1.5-0.1-2.7-0.5-3.5-1.4
		c-0.9-0.9-1.4-2.2-1.4-3.8c0-0.8,0.1-1.4,0.3-2.1c0.2-0.6,0.5-1.2,1-1.6c0.4-0.5,0.9-0.8,1.6-1c0.6-0.2,1.3-0.4,2-0.4v1.8l0,0
		c-0.6,0-1.2,0.2-1.6,0.6C475.7,1117.6,475.5,1118.3,475.4,1119.1"/>
	<path class="st6" d="M492.7,1121.8c0,0.7-0.2,1.3-0.5,1.8c-0.3,0.5-0.8,0.9-1.5,1.1c-0.7,0.3-1.5,0.4-2.4,0.4
		c-0.9,0-1.7-0.1-2.3-0.4c-0.7-0.3-1.1-0.6-1.4-1c-0.3-0.4-0.5-0.8-0.5-1.3c0-0.3,0.1-0.5,0.3-0.7c0.2-0.2,0.4-0.3,0.8-0.3
		c0.3,0,0.5,0.1,0.6,0.2c0.1,0.1,0.3,0.3,0.4,0.5c0.3,0.5,0.6,0.8,0.9,1c0.4,0.2,0.9,0.3,1.5,0.3c0.5,0,0.9-0.1,1.2-0.3
		c0.3-0.2,0.5-0.5,0.5-0.8c0-0.4-0.2-0.8-0.5-1c-0.3-0.2-0.9-0.4-1.7-0.6c-0.9-0.2-1.6-0.4-2.1-0.7c-0.5-0.2-1-0.5-1.3-0.9
		c-0.3-0.4-0.5-0.9-0.5-1.4s0.1-1,0.5-1.4c0.3-0.4,0.8-0.8,1.3-1.1c0.6-0.3,1.3-0.4,2.1-0.4c0.7,0,1.2,0.1,1.8,0.2
		c0.5,0.1,1,0.3,1.3,0.6c0.4,0.2,0.6,0.5,0.8,0.8s0.3,0.5,0.3,0.8s-0.1,0.5-0.3,0.7c-0.2,0.2-0.5,0.3-0.8,0.3
		c-0.3,0-0.5-0.1-0.7-0.2c-0.2-0.1-0.4-0.4-0.6-0.7c-0.2-0.2-0.4-0.4-0.7-0.6c-0.3-0.1-0.6-0.2-1.1-0.2s-0.8,0.1-1.1,0.3
		c-0.3,0.2-0.5,0.4-0.5,0.7c0,0.3,0.1,0.5,0.3,0.7c0.2,0.2,0.5,0.3,0.9,0.4c0.4,0.1,0.9,0.2,1.6,0.4c0.8,0.2,1.4,0.4,1.9,0.7
		c0.5,0.3,0.9,0.6,1.1,0.9C492.6,1120.9,492.7,1121.3,492.7,1121.8"/>
	<path class="st6" d="M497.4,1116.2v7.3c0,0.5-0.1,0.9-0.4,1.2c-0.2,0.3-0.5,0.4-0.9,0.4s-0.7-0.1-0.9-0.4c-0.2-0.3-0.3-0.6-0.3-1.1
		v-7.2c0-0.5,0.1-0.9,0.3-1.1c0.2-0.3,0.5-0.4,0.9-0.4s0.7,0.1,0.9,0.4C497.2,1115.4,497.4,1115.8,497.4,1116.2 M496.1,1113.6
		c-0.4,0-0.7-0.1-0.9-0.3c-0.3-0.2-0.4-0.5-0.4-0.9s0.1-0.7,0.4-0.9c0.3-0.2,0.6-0.3,0.9-0.3c0.3,0,0.6,0.1,0.9,0.3
		c0.3,0.2,0.4,0.5,0.4,0.9s-0.1,0.7-0.4,0.9C496.8,1113.5,496.5,1113.6,496.1,1113.6"/>
	<path class="st6" d="M504.4,1123c0.4,0,0.8-0.1,1.2-0.3c0.4-0.2,0.7-0.6,0.9-1c0.2-0.5,0.4-1,0.4-1.7c0-1-0.2-1.8-0.7-2.4
		c-0.4-0.6-1-0.8-1.8-0.9v-1.8c0.4,0.1,0.7,0.2,1.1,0.3c0.5,0.3,1,0.7,1.5,1.3v-0.3c0-0.4,0.1-0.8,0.3-1c0.2-0.2,0.5-0.4,0.8-0.4
		c0.5,0,0.8,0.2,1,0.5s0.2,0.8,0.2,1.4v7.3c0,0.8-0.1,1.6-0.3,2.2s-0.5,1.1-0.9,1.5s-0.9,0.7-1.6,0.9c-0.6,0.2-1.3,0.3-2.2,0.3v-1.8
		c0.6,0,1-0.1,1.3-0.3c0.4-0.2,0.6-0.4,0.8-0.8c0.1-0.3,0.2-0.7,0.3-1.1c0-0.4,0-1,0.1-1.8c-0.4,0.5-0.8,1-1.4,1.2
		c-0.3,0.2-0.7,0.3-1,0.4L504.4,1123L504.4,1123z M502,1119.9c0,1,0.2,1.8,0.7,2.3s1,0.8,1.7,0.8l0,0v1.8c-0.2,0-0.5,0.1-0.8,0.1
		c-0.8,0-1.6-0.2-2.2-0.7c-0.6-0.4-1.1-1-1.5-1.8c-0.3-0.8-0.5-1.7-0.5-2.7c0-0.8,0.1-1.4,0.3-2.1c0.2-0.6,0.5-1.1,0.9-1.6
		c0.4-0.4,0.8-0.7,1.3-0.9c0.5-0.2,1.1-0.3,1.6-0.3c0.3,0,0.6,0,0.8,0.1v1.8l0,0c-0.7,0-1.3,0.3-1.7,0.8
		C502.2,1118.1,502,1118.8,502,1119.9 M504.4,1127.1v1.8h-0.2c-0.9,0-1.7-0.1-2.3-0.4c-0.7-0.2-1.2-0.6-1.6-0.9
		c-0.4-0.4-0.6-0.8-0.6-1.2c0-0.3,0.1-0.6,0.3-0.7c0.2-0.2,0.5-0.3,0.8-0.3c0.4,0,0.7,0.2,1,0.5c0.1,0.2,0.3,0.3,0.4,0.5
		s0.3,0.3,0.5,0.4s0.4,0.2,0.6,0.3c0.2,0.1,0.5,0.1,0.9,0.1C504.3,1127.1,504.3,1127.1,504.4,1127.1"/>
	<path class="st6" d="M514.1,1116.2v0.3c0.4-0.6,0.9-1,1.5-1.3c0.5-0.3,1.1-0.4,1.8-0.4c0.7,0,1.3,0.1,1.8,0.4s0.9,0.7,1.2,1.2
		c0.2,0.3,0.3,0.6,0.3,1c0.1,0.4,0.1,0.8,0.1,1.4v4.7c0,0.5-0.1,0.9-0.3,1.2c-0.2,0.3-0.5,0.4-0.9,0.4c-0.4,0-0.7-0.1-0.9-0.4
		s-0.4-0.6-0.4-1.1v-4.2c0-0.8-0.1-1.5-0.3-1.9s-0.7-0.7-1.4-0.7c-0.4,0-0.9,0.1-1.2,0.4c-0.4,0.3-0.6,0.6-0.8,1.1
		c-0.1,0.4-0.2,1.1-0.2,2.1v3.2c0,0.5-0.1,0.9-0.4,1.2c-0.2,0.3-0.5,0.4-0.9,0.4c-0.4,0-0.7-0.1-0.9-0.4s-0.4-0.6-0.4-1.1v-7.3
		c0-0.5,0.1-0.8,0.3-1.1c0.2-0.2,0.5-0.4,0.9-0.4c0.2,0,0.4,0,0.6,0.2c0.2,0.1,0.3,0.3,0.4,0.5
		C514.1,1115.6,514.1,1115.9,514.1,1116.2"/>
	<path class="st6" d="M527.7,1119.1h2.3c-0.1-0.9-0.3-1.5-0.7-1.9c-0.4-0.4-0.9-0.6-1.6-0.6v-1.8h0.1c1,0,1.8,0.2,2.5,0.6
		s1.2,1,1.6,1.6c0.3,0.7,0.5,1.3,0.5,2c0,0.6-0.2,1.1-0.5,1.2c-0.4,0.2-0.9,0.3-1.5,0.3h-2.7V1119.1L527.7,1119.1z M527.7,1125.1
		v-1.7c0.1,0,0.1,0,0.2,0c0.3,0,0.6,0,0.8-0.1c0.3-0.1,0.5-0.2,0.7-0.3c0.2-0.2,0.5-0.3,0.6-0.5c0.2-0.2,0.5-0.4,0.8-0.7
		c0.1-0.1,0.3-0.2,0.6-0.2c0.3,0,0.5,0.1,0.6,0.2c0.2,0.1,0.2,0.3,0.2,0.6c0,0.2-0.1,0.5-0.3,0.8c-0.2,0.3-0.4,0.6-0.8,0.9
		c-0.4,0.3-0.8,0.5-1.4,0.7c-0.5,0.2-1.2,0.3-1.9,0.3C527.9,1125.1,527.8,1125.1,527.7,1125.1 M525.4,1119.1h2.3v1.4h-2.3
		c0,0.6,0.1,1.1,0.3,1.5s0.5,0.8,0.9,1c0.3,0.2,0.7,0.3,1.1,0.3v1.7c-1.5-0.1-2.7-0.5-3.5-1.4c-0.9-0.9-1.4-2.2-1.4-3.8
		c0-0.8,0.1-1.4,0.3-2.1c0.2-0.6,0.5-1.2,1-1.6c0.4-0.5,0.9-0.8,1.6-1c0.6-0.2,1.3-0.4,2-0.4v1.8l0,0c-0.6,0-1.1,0.2-1.6,0.6
		C525.8,1117.6,525.5,1118.3,525.4,1119.1"/>
	<path class="st6" d="M539,1123.1c0.4,0,0.8-0.1,1.2-0.3c0.4-0.2,0.7-0.6,0.9-1.1c0.2-0.5,0.3-1.1,0.3-1.8c0-0.7-0.1-1.3-0.3-1.7
		c-0.2-0.5-0.5-0.9-0.9-1.1c-0.4-0.3-0.8-0.4-1.2-0.4v-1.8c0.4,0.1,0.8,0.2,1.1,0.3c0.5,0.3,1,0.6,1.5,1.2v-3.7
		c0-0.5,0.1-0.9,0.3-1.2c0.2-0.3,0.5-0.4,0.9-0.4c0.4,0,0.7,0.1,0.9,0.4c0.2,0.2,0.3,0.6,0.3,1.1v11.2c0,0.5-0.1,0.8-0.3,1.1
		c-0.2,0.2-0.5,0.4-0.9,0.4c-0.3,0-0.6-0.1-0.9-0.4c-0.2-0.2-0.3-0.6-0.3-1.1v-0.3c-0.3,0.4-0.7,0.7-1,1c-0.3,0.2-0.7,0.4-1.1,0.6
		c-0.2,0-0.3,0.1-0.5,0.1V1123.1z M536.5,1119.9c0,0.7,0.1,1.3,0.3,1.8s0.5,0.8,0.9,1.1c0.4,0.2,0.8,0.4,1.2,0.4l0,0v1.9
		c-0.3,0-0.5,0.1-0.8,0.1c-0.6,0-1.2-0.1-1.7-0.4s-1-0.6-1.3-1.1c-0.4-0.5-0.7-1-0.9-1.7c-0.2-0.6-0.3-1.3-0.3-2.1
		c0-1.6,0.4-2.8,1.2-3.7c0.8-0.9,1.8-1.3,3.1-1.3c0.3,0,0.5,0,0.8,0v1.8l0,0c-0.5,0-0.9,0.1-1.2,0.4c-0.4,0.3-0.6,0.6-0.8,1.1
		C536.6,1118.7,536.5,1119.3,536.5,1119.9"/>
	<path class="st6" d="M556.1,1123.1L556.1,1123.1c0.7,0,1.3-0.3,1.7-0.8c0.5-0.6,0.7-1.3,0.7-2.4c0-0.7-0.1-1.2-0.3-1.7
		s-0.5-0.9-0.8-1.1c-0.4-0.3-0.8-0.4-1.2-0.4h-0.1v-1.8c0.2,0,0.5,0,0.8,0c0.8,0,1.6,0.2,2.2,0.6c0.6,0.4,1.1,1,1.5,1.7
		c0.4,0.8,0.5,1.7,0.5,2.7c0,0.8-0.1,1.5-0.3,2.1s-0.5,1.2-0.9,1.7c-0.4,0.5-0.8,0.8-1.3,1.1c-0.5,0.3-1.1,0.4-1.7,0.4
		c-0.3,0-0.5,0-0.7-0.1L556.1,1123.1L556.1,1123.1z M553.7,1120c0,1,0.2,1.8,0.7,2.3c0.4,0.5,1,0.8,1.7,0.8v1.9
		c-0.1,0-0.3,0-0.4-0.1c-0.3-0.1-0.6-0.2-0.9-0.4c-0.2-0.1-0.4-0.3-0.6-0.5s-0.4-0.4-0.7-0.7v0.3c0,0.5-0.1,0.8-0.3,1.1
		c-0.2,0.2-0.5,0.4-0.9,0.4c-0.4,0-0.6-0.1-0.9-0.4c-0.2-0.2-0.3-0.6-0.3-1.1v-11.1c0-0.5,0.1-0.9,0.3-1.2c0.2-0.3,0.5-0.4,0.9-0.4
		c0.4,0,0.7,0.1,0.9,0.4c0.2,0.2,0.3,0.6,0.3,1.1v3.9c0.5-0.5,1-0.9,1.5-1.1c0.3-0.2,0.7-0.3,1.1-0.3v1.8c-0.4,0-0.8,0.1-1.2,0.4
		c-0.4,0.3-0.7,0.6-0.9,1.1C553.8,1118.7,553.7,1119.3,553.7,1120"/>
	<path class="st6" d="M565.2,1125.4l0.2-0.6l-3.1-7.8c-0.2-0.5-0.3-0.8-0.3-1s0.1-0.4,0.2-0.6c0.1-0.2,0.3-0.3,0.5-0.4
		c0.2-0.1,0.4-0.2,0.6-0.2c0.4,0,0.6,0.1,0.8,0.3c0.2,0.2,0.4,0.6,0.5,1l2.1,6.2l2-5.8c0.2-0.5,0.3-0.8,0.4-1.1
		c0.1-0.3,0.3-0.4,0.4-0.5s0.4-0.1,0.6-0.1s0.4,0.1,0.6,0.2s0.3,0.2,0.4,0.4c0.1,0.2,0.1,0.4,0.1,0.5s-0.1,0.3-0.1,0.5
		c-0.1,0.2-0.1,0.4-0.2,0.7l-3.3,8.6c-0.3,0.8-0.6,1.4-0.8,1.8c-0.3,0.4-0.6,0.8-1.1,1s-1.1,0.3-1.8,0.3s-1.3-0.1-1.7-0.2
		c-0.4-0.2-0.6-0.5-0.6-0.9c0-0.3,0.1-0.5,0.3-0.7s0.4-0.2,0.8-0.2c0.1,0,0.3,0,0.4,0.1c0.2,0,0.3,0.1,0.4,0.1c0.3,0,0.5,0,0.7-0.1
		c0.2-0.1,0.3-0.2,0.5-0.5C564.8,1126.1,565,1125.8,565.2,1125.4"/>
	<path class="st6" d="M612,1115h0.6v-0.8c0-0.8,0.1-1.4,0.3-1.9c0.2-0.5,0.5-0.8,1-1s1.1-0.3,2-0.3c1.5,0,2.2,0.4,2.2,1.1
		c0,0.2-0.1,0.4-0.2,0.6c-0.2,0.2-0.3,0.3-0.5,0.3c-0.1,0-0.3,0-0.5-0.1c-0.2,0-0.4-0.1-0.6-0.1c-0.5,0-0.8,0.1-0.9,0.4
		c-0.1,0.3-0.2,0.7-0.2,1.2v0.6h0.6c1,0,1.4,0.3,1.4,0.9c0,0.4-0.1,0.7-0.4,0.8c-0.3,0.1-0.6,0.2-1.1,0.2h-0.6v6.7
		c0,0.5-0.1,0.9-0.4,1.1c-0.2,0.3-0.5,0.4-0.9,0.4c-0.4,0-0.7-0.1-0.9-0.4s-0.4-0.7-0.4-1.1v-6.7h-0.7c-0.4,0-0.7-0.1-0.9-0.3
		c-0.2-0.2-0.3-0.4-0.3-0.7C610.7,1115.3,611.1,1115,612,1115"/>
	<path class="st6" d="M621,1121.4v2.1c0,0.5-0.1,0.9-0.4,1.2c-0.2,0.3-0.5,0.4-0.9,0.4s-0.7-0.1-0.9-0.4c-0.2-0.3-0.4-0.6-0.4-1.2
		v-7c0-1.1,0.4-1.7,1.2-1.7c0.4,0,0.7,0.1,0.9,0.4c0.2,0.3,0.3,0.7,0.3,1.2c0.3-0.5,0.6-0.9,0.9-1.2c0.3-0.3,0.7-0.4,1.3-0.4
		c0.5,0,1,0.1,1.5,0.4s0.8,0.6,0.8,1.1c0,0.3-0.1,0.6-0.3,0.8c-0.2,0.2-0.4,0.3-0.7,0.3c-0.1,0-0.3-0.1-0.7-0.2
		c-0.4-0.1-0.7-0.2-0.9-0.2c-0.4,0-0.7,0.1-0.9,0.3c-0.2,0.2-0.4,0.5-0.5,0.9c-0.1,0.4-0.2,0.8-0.3,1.4
		C621,1120,621,1120.7,621,1121.4"/>
	<path class="st6" d="M630.8,1119.1h2.3c-0.1-0.9-0.3-1.5-0.7-1.9c-0.4-0.4-0.9-0.6-1.6-0.6v-1.8h0.1c1,0,1.8,0.2,2.5,0.6
		c0.7,0.4,1.2,1,1.6,1.6c0.3,0.7,0.5,1.3,0.5,2c0,0.6-0.2,1.1-0.5,1.2c-0.4,0.2-0.9,0.3-1.5,0.3h-2.7L630.8,1119.1L630.8,1119.1z
		 M630.8,1125.1v-1.7c0.1,0,0.1,0,0.2,0c0.3,0,0.6,0,0.8-0.1s0.5-0.2,0.7-0.3c0.2-0.2,0.5-0.3,0.7-0.5s0.5-0.4,0.8-0.7
		c0.1-0.1,0.3-0.2,0.6-0.2c0.3,0,0.5,0.1,0.6,0.2c0.2,0.1,0.2,0.3,0.2,0.6c0,0.2-0.1,0.5-0.3,0.8c-0.2,0.3-0.4,0.6-0.8,0.9
		c-0.4,0.3-0.8,0.5-1.4,0.7c-0.5,0.2-1.2,0.3-1.9,0.3C630.9,1125.1,630.8,1125.1,630.8,1125.1 M628.5,1119.1h2.3v1.4h-2.3
		c0,0.6,0.1,1.1,0.3,1.5s0.5,0.8,0.9,1c0.3,0.2,0.7,0.3,1,0.3v1.7c-1.5-0.1-2.7-0.5-3.5-1.4c-0.9-0.9-1.4-2.2-1.4-3.8
		c0-0.8,0.1-1.4,0.3-2.1c0.2-0.6,0.5-1.2,1-1.6c0.4-0.5,1-0.8,1.6-1s1.3-0.4,2-0.4v1.8l0,0c-0.6,0-1.2,0.2-1.6,0.6
		C628.8,1117.6,628.6,1118.3,628.5,1119.1"/>
	<path class="st6" d="M642,1119.1h2.3c-0.1-0.9-0.3-1.5-0.7-1.9c-0.4-0.4-0.9-0.6-1.6-0.6v-1.8h0.1c1,0,1.8,0.2,2.5,0.6
		c0.7,0.4,1.2,1,1.6,1.6c0.3,0.7,0.5,1.3,0.5,2c0,0.6-0.2,1.1-0.6,1.2c-0.4,0.2-0.9,0.3-1.5,0.3h-2.7L642,1119.1L642,1119.1z
		 M642,1125.1v-1.7c0.1,0,0.1,0,0.2,0c0.3,0,0.6,0,0.8-0.1s0.5-0.2,0.7-0.3c0.2-0.2,0.5-0.3,0.7-0.5c0.2-0.2,0.5-0.4,0.8-0.7
		c0.1-0.1,0.3-0.2,0.6-0.2s0.5,0.1,0.6,0.2c0.1,0.1,0.2,0.3,0.2,0.6c0,0.2-0.1,0.5-0.3,0.8s-0.4,0.6-0.8,0.9s-0.8,0.5-1.4,0.7
		c-0.5,0.2-1.2,0.3-1.9,0.3C642.2,1125.1,642.1,1125.1,642,1125.1 M639.7,1119.1h2.3v1.4h-2.3c0,0.6,0.1,1.1,0.3,1.5s0.5,0.8,0.9,1
		c0.3,0.2,0.7,0.3,1,0.3v1.7c-1.5-0.1-2.7-0.5-3.5-1.4c-0.9-0.9-1.4-2.2-1.4-3.8c0-0.8,0.1-1.4,0.3-2.1c0.2-0.6,0.5-1.2,1-1.6
		c0.4-0.5,1-0.8,1.6-1c0.6-0.2,1.3-0.4,2-0.4v1.8l0,0c-0.6,0-1.1,0.2-1.6,0.6C640.1,1117.6,639.8,1118.3,639.7,1119.1"/>
	<path class="st6" d="M656,1119.9c0-0.7-0.1-1.2-0.3-1.7s-0.5-0.9-0.8-1.1c-0.4-0.3-0.8-0.4-1.2-0.4h-0.1v-1.8
		c0.2,0,0.5-0.1,0.7-0.1c0.8,0,1.5,0.2,2.1,0.6c0.7,0.4,1.2,1,1.5,1.8c0.4,0.8,0.6,1.7,0.6,2.7c0,0.8-0.1,1.5-0.3,2.1
		c-0.2,0.7-0.5,1.2-0.9,1.6s-0.8,0.8-1.4,1c-0.5,0.2-1.1,0.4-1.7,0.4c-0.2,0-0.5,0-0.7,0v-1.9h0.1c0.4,0,0.8-0.1,1.2-0.4
		c0.4-0.2,0.6-0.6,0.9-1.1C655.8,1121.2,656,1120.6,656,1119.9 M653.5,1116.7c-0.7,0-1.2,0.3-1.7,0.8s-0.7,1.4-0.7,2.4
		s0.2,1.8,0.7,2.3s1,0.8,1.7,0.8v1.9c-0.4-0.1-0.8-0.2-1.1-0.4c-0.5-0.3-1-0.7-1.4-1.3v3.8c0,1.1-0.4,1.7-1.2,1.7
		c-0.5,0-0.8-0.1-1-0.4s-0.2-0.7-0.2-1.3v-10.9c0-0.5,0.1-0.8,0.3-1.1c0.2-0.2,0.5-0.4,0.9-0.4c0.4,0,0.6,0.1,0.9,0.4
		c0.2,0.2,0.3,0.6,0.3,1.1v0.3c0.5-0.6,1-1,1.5-1.3c0.3-0.2,0.7-0.3,1.1-0.4L653.5,1116.7L653.5,1116.7z"/>
	<path class="st6" d="M663.1,1116.2v7.3c0,0.5-0.1,0.9-0.4,1.2c-0.2,0.3-0.5,0.4-0.9,0.4c-0.4,0-0.7-0.1-0.9-0.4s-0.3-0.6-0.3-1.1
		v-7.2c0-0.5,0.1-0.9,0.3-1.1c0.2-0.3,0.5-0.4,0.9-0.4c0.4,0,0.7,0.1,0.9,0.4C662.9,1115.4,663.1,1115.8,663.1,1116.2 M661.8,1113.6
		c-0.4,0-0.7-0.1-0.9-0.3c-0.2-0.2-0.4-0.5-0.4-0.9s0.1-0.7,0.4-0.9c0.3-0.2,0.6-0.3,0.9-0.3s0.6,0.1,0.9,0.3
		c0.2,0.2,0.4,0.5,0.4,0.9s-0.1,0.7-0.4,0.9C662.4,1113.5,662.1,1113.6,661.8,1113.6"/>
	<path class="st6" d="M672,1123.9l-2.2-3.7l-1.4,1.3v2c0,0.5-0.1,0.9-0.4,1.1c-0.3,0.3-0.6,0.4-0.9,0.4c-0.4,0-0.7-0.1-0.9-0.4
		s-0.3-0.6-0.3-1.2v-10.8c0-0.6,0.1-1,0.3-1.3s0.5-0.4,0.9-0.4c0.4,0,0.7,0.1,0.9,0.4s0.3,0.7,0.3,1.2v6.1l2.8-3
		c0.4-0.4,0.6-0.6,0.8-0.8c0.2-0.1,0.4-0.2,0.7-0.2c0.3,0,0.6,0.1,0.8,0.3c0.2,0.2,0.3,0.5,0.3,0.8c0,0.4-0.3,0.9-1,1.5l-1.3,1.2
		l2.6,4.1c0.2,0.3,0.3,0.5,0.4,0.7s0.1,0.3,0.1,0.4c0,0.4-0.1,0.7-0.3,1c-0.2,0.2-0.5,0.3-0.9,0.3c-0.3,0-0.5-0.1-0.7-0.2
		C672.5,1124.7,672.3,1124.4,672,1123.9"/>
	<path class="st6" d="M678.2,1125.1c-0.4,0-0.7-0.1-1-0.4c-0.3-0.2-0.4-0.6-0.4-1s0.1-0.7,0.4-1s0.6-0.4,1-0.4s0.7,0.1,1,0.4
		s0.4,0.6,0.4,1s-0.1,0.8-0.4,1C678.9,1125,678.6,1125.1,678.2,1125.1"/>
	<path class="st6" d="M691.6,1122c0,0.3-0.1,0.7-0.3,1c-0.2,0.4-0.5,0.7-0.9,1s-0.9,0.6-1.5,0.8c-0.6,0.2-1.3,0.3-2,0.3
		c-1.6,0-2.8-0.5-3.7-1.4c-0.9-0.9-1.3-2.1-1.3-3.7c0-1,0.2-2,0.6-2.8c0.4-0.8,1-1.4,1.7-1.8c0.8-0.4,1.7-0.7,2.7-0.7
		c0.7,0,1.2,0.1,1.8,0.3c0.5,0.2,1,0.4,1.4,0.7c0.4,0.3,0.7,0.6,0.9,1c0.2,0.3,0.3,0.7,0.3,1s-0.1,0.6-0.3,0.8
		c-0.2,0.2-0.5,0.3-0.8,0.3c-0.2,0-0.4-0.1-0.5-0.2c-0.1-0.1-0.3-0.3-0.5-0.5c-0.3-0.5-0.6-0.8-1-1.1c-0.3-0.2-0.8-0.4-1.3-0.4
		c-0.7,0-1.3,0.3-1.8,0.9s-0.7,1.4-0.7,2.4c0,0.5,0.1,0.9,0.2,1.3c0.1,0.4,0.3,0.7,0.5,1c0.2,0.3,0.5,0.5,0.8,0.6
		c0.3,0.1,0.7,0.2,1,0.2c0.5,0,0.9-0.1,1.3-0.4c0.4-0.2,0.7-0.6,1-1.1c0.2-0.3,0.3-0.5,0.5-0.7c0.2-0.2,0.4-0.2,0.7-0.2
		c0.3,0,0.6,0.1,0.8,0.4C691.5,1121.4,691.6,1121.7,691.6,1122"/>
	<path class="st6" d="M700.7,1120c0-1-0.2-1.8-0.7-2.4c-0.4-0.6-1.1-0.9-1.8-0.9v-1.9c0.8,0,1.5,0.1,2.1,0.4
		c0.6,0.2,1.2,0.6,1.6,1.1s0.8,1,1,1.6s0.3,1.3,0.3,2.1c0,0.7-0.1,1.4-0.3,2.1c-0.2,0.6-0.6,1.2-1,1.6c-0.4,0.5-1,0.8-1.6,1.1
		c-0.6,0.2-1.3,0.4-2.1,0.4v-1.9c0.8,0,1.4-0.3,1.8-0.9C700.5,1121.8,700.7,1121,700.7,1120 M698.2,1116.7L698.2,1116.7
		c-0.5,0-0.9,0.1-1.3,0.4s-0.7,0.6-0.9,1.1c-0.2,0.5-0.3,1.1-0.3,1.8c0,0.7,0.1,1.2,0.3,1.7c0.2,0.5,0.5,0.9,0.9,1.1
		c0.4,0.3,0.8,0.4,1.3,0.4l0,0v1.9l0,0c-0.8,0-1.5-0.1-2.1-0.4c-0.6-0.2-1.1-0.6-1.6-1.1c-0.4-0.5-0.8-1-1-1.6s-0.4-1.3-0.4-2.1
		c0-0.8,0.1-1.5,0.4-2.1c0.2-0.6,0.6-1.2,1-1.6c0.4-0.5,1-0.8,1.6-1c0.6-0.2,1.3-0.4,2.1-0.4l0,0V1116.7z"/>
	<path class="st6" d="M713.7,1120.1v3.4c0,0.5-0.1,0.9-0.4,1.2c-0.2,0.3-0.6,0.4-1,0.4c-0.4,0-0.7-0.1-0.9-0.4
		c-0.2-0.3-0.4-0.7-0.4-1.2v-4c0-0.6,0-1.1-0.1-1.5c0-0.4-0.2-0.6-0.4-0.9c-0.2-0.2-0.5-0.3-0.9-0.3c-0.8,0-1.4,0.3-1.6,0.8
		c-0.3,0.6-0.4,1.4-0.4,2.4v3.4c0,0.5-0.1,0.9-0.4,1.2c-0.2,0.3-0.6,0.4-0.9,0.4c-0.4,0-0.7-0.1-0.9-0.4c-0.2-0.3-0.4-0.7-0.4-1.2
		v-7.2c0-0.5,0.1-0.8,0.3-1.1c0.2-0.2,0.5-0.4,0.9-0.4c0.3,0,0.6,0.1,0.9,0.3c0.2,0.2,0.3,0.6,0.3,1v0.2c0.4-0.5,0.9-0.9,1.4-1.2
		c0.5-0.2,1.1-0.4,1.7-0.4c0.6,0,1.2,0.1,1.6,0.4c0.5,0.3,0.8,0.6,1.1,1.1c0.4-0.5,0.9-0.9,1.4-1.2c0.5-0.2,1-0.4,1.6-0.4
		c0.7,0,1.3,0.1,1.8,0.4s0.9,0.7,1.1,1.2s0.3,1.2,0.3,2.2v4.9c0,0.5-0.1,0.9-0.4,1.2c-0.2,0.3-0.5,0.4-1,0.4c-0.4,0-0.7-0.1-0.9-0.4
		s-0.4-0.7-0.4-1.2v-4.3c0-0.5,0-1-0.1-1.3c0-0.3-0.2-0.6-0.4-0.8c-0.2-0.2-0.5-0.3-0.9-0.3c-0.3,0-0.6,0.1-0.9,0.3
		c-0.3,0.2-0.5,0.5-0.7,0.8C713.7,1118.3,713.7,1119.1,713.7,1120.1"/>
	<path class="st6" d="M592,1108.3c-0.1-0.2-0.1-0.3-0.2-0.5c0.8-0.1,1.4-1.1,1-1.9c-0.2-0.5-0.7-0.7-1.1-0.7h-0.1
		c-0.4,0-0.8,0.2-1,0.5c-0.5,0.7-0.1,1.8,0.7,2c0.1,0.2,0.1,0.3,0.2,0.5c-1.3,0.1-2.6,0.4-3.6,1.1c0.1,0.3,0.2,0.6,0.3,0.9
		c2.2-0.9,4.6-0.7,6.8-0.5c0.1-0.3,0.2-0.6,0.2-0.9C594.3,1108.4,593.2,1108.3,592,1108.3"/>
	<path class="st6" d="M604.9,1111.8c-0.3,0.2-0.4,0.6-0.4,0.9c-0.4,0.4-0.2,0.9-0.2,1.4c-0.1,0.3-0.4,0.3-0.6,0.4
		c-0.3-0.4-0.6-0.9-1-1.3l0,0c-0.4-0.4-0.9-0.8-1.4-1.1c-0.4,0.4-0.8,0.8-1.2,1.3c0.8,0.8,1.5,1.7,2.1,2.7c0.4,0.7,0.8,1.5,1.1,2.3
		c0.6-0.3,1.3-0.7,1.9-1c-0.3-0.8-0.7-1.5-1.1-2.3c0.3-0.2,0.7-0.3,0.7-0.7c0-0.4-0.1-0.9,0.2-1.2c0.5,0.3,1.2,0,1.3-0.6
		C606.2,1111.9,605.4,1111.4,604.9,1111.8"/>
	<path class="st6" d="M599.8,1117c-0.1,1-1.1,1.9-2.2,1.9v4.2c2-0.5,3.8-1.3,5.6-2.3c0,0-0.4-2-1.8-4.2c-0.8-1.4-1.7-2.8-3-3.8
		c-0.3-0.2-0.5-0.4-0.8-0.6v2.4c0.3,0,0.5,0.1,0.8,0.1C599.4,1114.8,600,1115.9,599.8,1117 M597.6,1118.8L597.6,1118.8
		c-0.6,0-1.2-0.2-1.6-0.7c-0.3-0.4-0.6-0.8-0.6-1.3c-0.1-1.1,0.6-2.2,1.6-2.4c0.2-0.1,0.4-0.1,0.6-0.1v-2.4
		c-1.3-0.9-2.8-1.5-4.4-1.5c-1.9,0-3.9,0.2-5.7,0.8v2.3c0.3,0,0.7,0,1,0.1c0.4,0.1,0.7,0.3,1,0.5c0.7,0.5,1.2,1.2,1.4,1.9
		c0.3,1,0.1,2.1-0.5,3c-0.4,0.6-1,1.1-1.7,1.3c-0.4,0.1-0.8,0.2-1.2,0.2v3.1h0.1c2.3,0.1,4.5,0.1,6.8-0.2c1.1-0.1,2.2-0.4,3.2-0.6
		L597.6,1118.8L597.6,1118.8z M587.5,1111.3v2.3c-0.6,0-1.2,0.1-1.7,0.4c-1.1,0.6-1.8,1.7-1.9,2.9c-0.1,1,0.3,1.9,1,2.7
		c0.7,0.7,1.6,1.1,2.6,1.1v3.1c-2.3-0.1-4.5-0.6-6.7-1.2c-0.4-2-0.4-4.2,0.5-6.1c0.9-2.1,2.7-3.8,4.8-4.7
		C586.6,1111.6,587.1,1111.5,587.5,1111.3"/>
	<path class="st6" d="M581.3,1113.3c-0.9,0.5-1.6,1.3-2.3,2.2c-0.2-0.3-0.2-0.7-0.5-1c-0.1-0.2-0.4-0.1-0.6-0.1
		c-0.2,0-0.5,0-0.7-0.1c0.3-0.4,0.2-0.9-0.2-1.2c-0.4-0.3-1.1,0-1.2,0.5c-0.2,0.6,0.4,1.1,1,1c0.3,0.4,0.8,0.4,1.3,0.4
		c0.2,0.4,0.4,0.7,0.6,1.1c-0.5,1-0.8,2-0.8,3.1c0.6,0.3,1.2,0.5,1.9,0.8c0-0.7,0.1-1.3,0.2-2c0.2-1.5,1-2.7,2-3.8
		C581.9,1113.8,581.6,1113.6,581.3,1113.3"/>
	<path class="st6" d="M595.9,1124.3c-2.3,0.5-4.7,0.6-7,0.5c-1.6-0.1-3.2-0.2-4.7-0.6c-1.1-0.2-2.2-0.5-3.3-0.8
		c0.2,1.4,0.7,2.7,1.5,3.8c0.9,1.3,2.2,2.5,3.8,3c1.1,0.3,2.5,0.7,4.7,0.7h0.2h0.2c2.1,0,4.1-0.3,5.9-1.1c1.2-0.5,2.3-1.2,3.2-2.1
		c0.8-0.8,1.5-1.7,1.9-2.8c0.4-1,0.8-2.7,0.8-3.6C601,1122.7,598.4,1123.8,595.9,1124.3"/>
</g>
<g>
	<rect x="891" y="944.5" class="st1" width="35.7" height="10.2"/>
	<rect x="901.4" y="934.9" class="st1" width="15" height="3.5"/>
	<polygon class="st1" points="918.4,938.4 899.3,938.4 891,944.5 926.7,944.5 	"/>
	<polygon class="st1" points="913.3,784.7 904.5,784.7 903.4,934.9 914.3,934.9 	"/>
	<rect x="902.2" y="783" class="st1" width="13.4" height="1.7"/>
	<rect x="903.2" y="781.7" class="st1" width="11.3" height="1.3"/>
	<rect x="890.8" y="756" class="st1" width="36.2" height="1.3"/>
	<rect x="904.3" y="778.3" class="st1" width="9.2" height="1.3"/>
	<rect x="905.5" y="779.6" class="st1" width="7" height="2.1"/>
	<rect x="905.5" y="746.4" class="st1" width="7" height="2.1"/>
	<rect x="906.1" y="741.8" class="st1" width="5.7" height="1.5"/>
	<polygon class="st1" points="911.2,738.6 906.7,738.6 908.8,730.9 909.1,730.9 	"/>
	<polygon class="st1" points="916.6,748.5 901.1,748.5 892.9,756 924.9,756 	"/>
	<rect x="907.6" y="743.2" class="st1" width="2.8" height="3.1"/>
	<rect x="907.6" y="738.6" class="st1" width="2.8" height="3.1"/>
	<path class="st1" d="M889.7,757.3v1.7h0.2c0.4,1.6,1.8,6,5.7,11.5c3.4,4.7,7.4,7.8,7.6,7.9l0,0v0.1h11.3v-0.1l0,0
		c0.2-0.1,4.2-3.2,7.6-7.9c3.9-5.4,5.3-9.8,5.7-11.5h0.2v-1.7H889.7z M904.4,776.6c-0.3-0.2-4-3.1-7.1-7.4
		c-3.3-4.6-4.7-8.5-5.2-10.3h9.1c0,1.7,0.3,5.6,1.7,9.7c1.2,3.5,3,6.4,4.1,8H904.4z M904.8,767.9c-1.3-3.8-1.6-7.4-1.6-9h11.3
		c0,1.6-0.3,5.2-1.6,9c-1.2,3.4-3,6.3-4.1,7.8C907.8,774.3,906,771.4,904.8,767.9z M920.5,769.2c-3.1,4.3-6.8,7.2-7.1,7.4h-2.6
		c1.1-1.6,2.9-4.5,4.1-8c1.5-4.1,1.7-8,1.7-9.7h9.1C925.2,760.7,923.8,764.6,920.5,769.2z"/>
</g>
<g>
	<path class="st7" d="M1261.7,163.9v-1.2l4.3-4.7c0.8-0.9,1.3-1.5,1.6-2c0.3-0.5,0.4-1,0.4-1.5c0-0.7-0.2-1.2-0.6-1.6
		s-0.9-0.7-1.5-0.7c-0.9,0-1.6,0.2-2,0.7s-0.6,1.1-0.6,2h-1.7v-0.1c0-1.1,0.3-2.1,1.1-2.8c0.8-0.8,1.8-1.1,3.2-1.1
		c1.2,0,2.1,0.3,2.8,1c0.7,0.7,1,1.6,1,2.6c0,0.7-0.2,1.4-0.6,2.1s-1,1.5-1.8,2.3l-3.4,3.7l0,0h4.6l0.1-1.5h1.5v2.9L1261.7,163.9
		L1261.7,163.9z"/>
	<path class="st7" d="M1279.1,159.5h1.8v1.4h-1.8v1.6l1.5,0.3v1.1h-4.7v-1.1l1.5-0.3v-1.6h-5.9v-1l5.7-9h1.9V159.5z M1273.4,159.5h4
		v-6.1h-0.1l-0.2,0.5L1273.4,159.5z"/>
	<path class="st7" d="M1285.4,151.9v2.3h1.8v1.3h-1.8v5.9c0,0.5,0.1,0.8,0.3,1c0.2,0.2,0.4,0.3,0.7,0.3c0.2,0,0.3,0,0.5,0
		s0.4-0.1,0.5-0.1l0.2,1.2c-0.2,0.1-0.4,0.2-0.7,0.3c-0.3,0.1-0.6,0.1-1,0.1c-0.7,0-1.3-0.2-1.7-0.6s-0.6-1.1-0.6-2v-5.9h-1.5v-1.5
		h1.5v-2.3H1285.4z"/>
	<path class="st7" d="M1288.8,162.8l1.5-0.3v-11.2l-1.5-0.3v-1.1h3.2v5.6c0.3-0.5,0.7-0.8,1.2-1.1s1-0.4,1.6-0.4
		c1,0,1.8,0.3,2.4,0.9s0.9,1.6,0.9,2.9v4.7l1.5,0.3v1.1h-4.7v-1.1l1.5-0.3v-4.7c0-0.8-0.2-1.4-0.5-1.8s-0.9-0.6-1.5-0.6
		c-0.5,0-0.9,0.1-1.3,0.3s-0.7,0.5-1,0.9v5.8l1.5,0.3v1.1h-4.7L1288.8,162.8L1288.8,162.8z"/>
	<path class="st7" d="M1305.3,160.4c0-0.7,0.2-1.4,0.6-1.9s1-1.1,1.9-1.6c-0.5-0.6-0.8-1.1-1-1.6s-0.3-0.9-0.3-1.4
		c0-1,0.3-1.8,0.9-2.3s1.4-0.8,2.4-0.8c0.9,0,1.7,0.3,2.3,0.8s0.9,1.2,0.9,2c0,0.6-0.2,1.1-0.5,1.5s-0.8,0.9-1.4,1.3l-1,0.7l3,3.7
		c0.2-0.4,0.4-0.8,0.6-1.3c0.1-0.5,0.2-1,0.2-1.5h1.6c0,0.8-0.1,1.5-0.3,2.2s-0.6,1.3-1,1.8l1.7,2l0,0h-2l-0.8-0.9
		c-0.5,0.4-1,0.6-1.6,0.8s-1.2,0.3-1.8,0.3c-1.3,0-2.3-0.3-3.1-1C1305.7,162.4,1305.3,161.5,1305.3,160.4z M1309.6,162.7
		c0.4,0,0.9-0.1,1.3-0.2s0.8-0.4,1.2-0.6l-3.2-3.9l-0.4,0.3c-0.5,0.4-0.9,0.8-1.1,1.2s-0.3,0.7-0.3,1c0,0.7,0.2,1.2,0.6,1.7
		C1308.1,162.5,1308.8,162.7,1309.6,162.7z M1308.2,153.8c0,0.3,0.1,0.6,0.2,1s0.4,0.7,0.7,1.1l1.2-0.9c0.3-0.2,0.6-0.5,0.7-0.7
		c0.1-0.3,0.2-0.6,0.2-0.9c0-0.4-0.1-0.7-0.4-1s-0.7-0.4-1.1-0.4c-0.5,0-0.9,0.2-1.1,0.5C1308.3,152.9,1308.2,153.3,1308.2,153.8z"
		/>
	<path class="st7" d="M1331.8,162.4c-0.4,0.4-0.9,0.8-1.7,1.1c-0.7,0.4-1.7,0.5-2.9,0.5c-1.7,0-3.2-0.6-4.3-1.8
		c-1.1-1.2-1.7-2.8-1.7-4.8v-0.2c0-2,0.5-3.6,1.6-4.8s2.5-1.8,4.3-1.8c1,0,1.8,0.2,2.5,0.5s1.3,0.7,1.8,1.2v2.4h-1.2l-0.4-1.8
		c-0.3-0.2-0.6-0.4-1.1-0.6s-0.9-0.2-1.5-0.2c-1.4,0-2.5,0.5-3.3,1.4s-1.1,2.2-1.1,3.7v0.2c0,1.6,0.4,2.8,1.1,3.8s1.8,1.4,3,1.4
		c0.7,0,1.3-0.1,1.7-0.2c0.5-0.1,0.8-0.3,1.1-0.5v-2.7l-2.1-0.1v-1.3h3.9v4.6L1331.8,162.4L1331.8,162.4z"/>
</g>
</svg>
