<?xml version="1.0" encoding="utf-8"?>
<!-- Generator: Adobe Illustrator 19.1.0, SVG Export Plug-In . SVG Version: 6.00 Build 0)  -->
<svg version="1.1" id="Layer_1" xmlns="http://www.w3.org/2000/svg" xmlns:xlink="http://www.w3.org/1999/xlink" x="0px" y="0px"
	 viewBox="506 -108 1156.4 360" style="enable-background:new 506 -108 1156.4 360;" xml:space="preserve">
<style type="text/css">
	.st0{fill:#CECECE;}
	.st1{fill:#E6E7E8;}
	.st2{fill:#F4EC8F;}
	.st3{fill:#D3CB7D;}
	.st4{fill:#50516A;}
	.st5{fill:#03A8A0;}
	.st6{fill:#748225;}
	.st7{fill:#FFFFFF;}
</style>
<path class="st0" d="M522.5,47.8c0.4-2.7,2.9-4.6,5.6-4.2s4.6,2.9,4.2,5.6c-1.9,13.8-2.9,38.6,2.8,46.4c4.2,5.7,10.2,7.2,14.4,7.4
	l-2.9-54.9c0-13.7,11.1-24.9,24.9-24.9c13.7,0,24.9,11.1,24.9,24.9l-3.8,71.6c5.8-2.1,10.6-4.6,12.9-7.4c7.5-9.1,2.2-20.1,1.9-20.6
	c-1.2-2.4-0.3-5.4,2.2-6.6c2.4-1.2,5.4-0.3,6.6,2.2c0.1,0.2,0.7,1.3,1.3,3.2c1.9,5.6,4.3,17.5-4.4,28.1c-4.2,5.1-12.4,8.9-21,11.7
	l-2,37.5h-37.2l-2.9-55c-6.4-0.1-16.1-2.1-22.9-11.4C517.2,87.8,521.9,51.9,522.5,47.8"/>
<g>
	<g>
		<path class="st1" d="M1655.5,237.8c-8.1-13.3-21.7-23.1-38.1-25.8c-6.6-1.1-13.2-1-19.5,0.2c6.3-7.8,10.8-17.3,12.5-28
			c5.4-32.7-16.6-63.7-49.2-69.1c-19.4-3.3-38.3,3.4-51.4,16.2c1.8-46.9-31.2-88.9-78.5-96.7c-48.8-8.1-95,23-106.6,70.4
			c-4.4-2.1-9.3-3.8-14.3-4.7c-28.1-4.7-54.6,14.3-59.2,42.5c-1.7,10.2-0.3,20.1,3.5,28.9c-3.3-1.2-6.7-2.2-10.3-2.7
			c-26.8-4.5-52.3,11.5-60.6,36.6c-15.1-14.8-35.8-24-58.7-24c-5.6,0-11.1,0.6-16.4,1.6c7.9-12.4,12.6-27.2,12.6-43.1
			c0-44-35.6-79.7-79.4-79.7c-8,0-15.7,1.2-23,3.4c-5.8-75.1-68.2-134.3-144.4-134.3c-73.8,0-134.7,55.4-143.8,127.2
			c-16.8-22.9-43.8-37.6-74.2-37.6c-50.9,0-92.3,41.5-92.3,92.7c0,16.6,4.4,32.1,12,45.6c-9.3-3.5-19.2-5.3-29.6-5.3
			c-47.2,0-85.4,38.4-85.4,85.8v150.4h1202.5V237.8H1655.5z"/>
	</g>
</g>
<rect x="497.1" y="200.4" class="st2" width="1181.1" height="52"/>
<ellipse class="st3" cx="1488.7" cy="230.4" rx="26.8" ry="6"/>
<rect x="1482.5" y="13.2" class="st4" width="10.4" height="217.1"/>
<polygon class="st5" points="1557.3,66.6 1425.8,66.6 1408.9,51 1425.8,37.2 1557.3,37.2 "/>
<g>
	<path class="st4" d="M3142.4,1130.2c-0.4,0.9-0.8,1.6-1.2,2.2s-0.8,1.1-1.3,1.4c-0.2,0.2-0.5,0.3-0.8,0.4s-0.6,0.1-0.8,0.1l0,0
		c-0.4,0-0.8-0.1-1-0.4c-0.3-0.3-0.4-0.7-0.4-1.2l0,0l0,0c0-0.3,0.1-0.7,0.2-1.2s0.3-1,0.5-1.6c0.1-0.2,0.2-0.6,0.4-1.2
		s0.5-1.3,0.7-2c0-0.1,0.1-0.4,0.3-0.9h-1.3c-0.2,0-0.4-0.2-0.4-0.4c0-0.2,0.2-0.4,0.4-0.4h1.5c0.1-0.1,0.1-0.3,0.2-0.4
		c0.4-1.1,0.8-2.3,0.9-2.5c0.1-0.2,0.3-0.3,0.5-0.3s0.3,0.3,0.3,0.5c-0.1,0.2-0.5,1.4-0.9,2.5c0,0.1,0,0.1-0.1,0.2h1.3
		c0.2,0,0.4,0.2,0.4,0.4c0,0.2-0.2,0.4-0.4,0.4h-1.6c-0.2,0.6-0.3,1-0.4,1.2c-0.3,0.8-0.5,1.5-0.7,2s-0.3,0.9-0.4,1.2
		c-0.2,0.6-0.4,1.1-0.5,1.5s-0.2,0.8-0.2,1.1l0,0c0,0.3,0.1,0.5,0.2,0.7c0.1,0.1,0.3,0.2,0.4,0.2l0,0c0.2,0,0.4,0,0.6-0.1
		c0.2-0.1,0.4-0.1,0.5-0.3c0.4-0.3,0.7-0.7,1.1-1.2c0.4-0.6,0.7-1.3,1.1-2.1c0.1-0.2,0.4-0.3,0.6-0.2
		C3142.4,1129.7,3142.5,1129.9,3142.4,1130.2z"/>
	<path class="st4" d="M3150.3,1130.2L3150.3,1130.2c-0.8,1.7-1.8,4.2-3.6,4.2l0,0c-0.6,0-0.9-0.2-1.1-0.6c-0.2-0.3-0.3-0.7-0.3-1.1
		v-0.1c0-0.4,0.1-0.9,0.2-1.4s0.3-1,0.5-1.4c0.1-0.1,0.1-0.2,0.1-0.4c0.3-0.7,0.7-1.8,0.7-2.7c0-0.6-0.3-1-1-1
		c-0.5,0-1.1,0.5-1.6,1.1c-0.7,0.9-1.4,2.2-1.8,3.3l0,0c-0.6,1.5-1.2,3.2-1.4,3.9c-0.1,0.2-0.3,0.3-0.5,0.3
		c-0.2-0.1-0.3-0.3-0.3-0.5c0.2-0.6,0.8-2.3,1.4-3.9l0,0l0,0l0,0c0.6-1.7,1.2-3.3,1.4-3.9l0,0c0.2-0.6,0.3-0.8,0.4-1.1
		c0.2-0.5,0.3-0.9,0.4-1.2l0.1-0.3c0.1-0.3,0.3-0.8,0.5-1.4c0.1-0.2,0.3-0.3,0.5-0.2s0.3,0.3,0.3,0.5c-0.2,0.5-0.4,1-0.5,1.4
		c0,0.1-0.1,0.2-0.1,0.3c-0.2,0.5-0.3,0.9-0.4,1.2l-0.3,0.7c0.6-0.6,1.2-0.9,1.8-0.9c1.4,0,1.9,0.8,1.9,1.9c0,1-0.5,2.2-0.8,3
		c-0.1,0.1-0.1,0.3-0.1,0.4c-0.2,0.5-0.3,0.9-0.5,1.4c-0.1,0.4-0.2,0.8-0.2,1.2l0,0c0,0.2,0,0.5,0.1,0.6s0.2,0.2,0.4,0.2l0,0
		c1.2,0,2.2-2.1,2.8-3.6v-0.1c0.1-0.2,0.3-0.3,0.6-0.2C3150.3,1129.7,3150.4,1129.9,3150.3,1130.2z"/>
	<path class="st4" d="M3157.5,1130.2c-0.8,1.7-1.7,2.7-2.7,3.4c-1,0.6-2.1,0.8-3.1,0.8l0,0l0,0c-0.7,0-1.4-0.3-1.8-0.7
		c-0.5-0.5-0.8-1.1-0.7-2l0,0l0,0c0-0.5,0.1-1.1,0.3-1.7l0,0c0.1-0.4,0.3-0.9,0.5-1.3c0.5-1,1.1-2,1.7-2.7c0.3-0.3,0.6-0.5,1-0.7
		c0.3-0.2,0.7-0.3,1.1-0.3c0.5,0,0.8,0.1,1.1,0.3c0.3,0.2,0.5,0.5,0.6,0.8s0,0.7-0.1,1c-0.2,0.5-0.5,1-1,1.4s-1.2,0.8-1.8,1.1
		c-0.9,0.4-1.8,0.7-2.3,0.8c-0.1,0.5-0.2,0.9-0.2,1.3l0,0c0,0.6,0.2,1.1,0.5,1.4s0.8,0.5,1.3,0.5l0,0c0.8,0,1.7-0.1,2.6-0.7
		c0.9-0.5,1.7-1.5,2.3-3c0.1-0.2,0.3-0.3,0.6-0.2C3157.5,1129.7,3157.6,1130,3157.5,1130.2z M3150.6,1129.4c0.5-0.1,1-0.3,1.6-0.6
		s1.2-0.6,1.6-1c0.3-0.3,0.6-0.6,0.7-1c0.1-0.2,0.1-0.4,0-0.6c0-0.1-0.1-0.2-0.2-0.3c-0.1-0.1-0.3-0.2-0.6-0.2
		c-0.2,0-0.5,0.1-0.7,0.2s-0.5,0.3-0.7,0.6c-0.6,0.6-1.2,1.5-1.6,2.4C3150.7,1129.1,3150.6,1129.2,3150.6,1129.4z"/>
	<path class="st4" d="M3161.2,1130.2c-0.4,0.8-0.8,1.8-1.4,2.6c-0.6,0.9-1.4,1.6-2.3,1.6l0,0c-0.5,0-0.9-0.2-1.1-0.6
		c-0.2-0.3-0.3-0.7-0.3-1.1v-0.1c0-0.3,0.1-0.7,0.2-1.2s0.3-1,0.5-1.6c0.1-0.2,0.2-0.6,0.4-1.2s0.5-1.3,0.7-2c0-0.1,0.1-0.3,0.2-0.5
		l0.3-0.9c0.1-0.2,0.3-0.3,0.5-0.3c0.2,0.1,0.3,0.3,0.3,0.5l-0.3,0.9l-0.2,0.5c-0.3,0.8-0.5,1.5-0.7,2s-0.3,0.9-0.4,1.2
		c-0.2,0.6-0.4,1.1-0.5,1.5s-0.2,0.8-0.2,1.1l0,0c0,0.2,0,0.5,0.1,0.6s0.2,0.2,0.4,0.2l0,0c0.6,0,1.1-0.5,1.6-1.2
		c0.5-0.8,0.9-1.7,1.3-2.5c0.1-0.2,0.4-0.3,0.6-0.2C3161.2,1129.7,3161.3,1129.9,3161.2,1130.2z M3159,1123.3c0-0.4,0.3-0.7,0.7-0.7
		s0.7,0.3,0.7,0.7c0,0.4-0.3,0.7-0.7,0.7C3159.3,1123.9,3159,1123.6,3159,1123.3z"/>
	<path class="st4" d="M3168.5,1130.2L3168.5,1130.2c-0.8,1.7-1.8,4.2-3.6,4.2l0,0c-0.5,0-0.9-0.2-1.1-0.6c-0.2-0.3-0.3-0.7-0.3-1.1
		v-0.1c0-0.3,0.1-0.7,0.2-1.2s0.3-1,0.5-1.6c0.2-0.5,0.3-0.9,0.4-1.1c0.1-0.4,0.2-0.6,0.4-1l-0.3-0.1c-0.6-0.2-1.2-0.4-1.8-0.7
		c-0.1,0.2-0.1,0.4-0.2,0.5l0,0l-1.6,3.5c-0.1,0.2-0.3,0.3-0.6,0.2c-0.2-0.1-0.3-0.3-0.2-0.6l1.6-3.5c0.1-0.2,0.2-0.4,0.2-0.6
		c-0.7-0.5-1.1-1-1-1.9c0-0.3,0.2-0.6,0.4-0.8l0,0c0.2-0.2,0.5-0.3,0.8-0.3c0.1,0,0.2,0,0.3,0l0,0c0.3,0.1,0.5,0.3,0.6,0.5
		s0.2,0.5,0.2,0.7s0,0.4-0.1,0.6s-0.1,0.4-0.2,0.7c0.6,0.3,1.2,0.5,1.8,0.7c0.3,0.1,0.5,0.2,0.8,0.2c0.2,0.1,0.3,0.3,0.2,0.6l0,0
		c-0.2,0.6-0.3,0.9-0.5,1.4c-0.1,0.3-0.2,0.6-0.4,1.1c-0.2,0.6-0.4,1.1-0.5,1.5s-0.2,0.8-0.2,1.1l0,0c0,0.2,0,0.5,0.2,0.6
		c0.1,0.1,0.2,0.2,0.4,0.2c1.3,0,2.2-2.1,2.8-3.6v-0.1c0.1-0.2,0.3-0.3,0.6-0.2C3168.5,1129.7,3168.6,1129.9,3168.5,1130.2z
		 M3162.5,1124.8c0-0.1,0-0.2-0.1-0.3c0-0.1-0.1-0.1-0.1-0.1l0,0h-0.1c-0.1,0-0.2,0-0.2,0.1l0,0c-0.1,0.1-0.1,0.2-0.1,0.3
		c0,0.4,0.2,0.7,0.5,0.9c0.1-0.2,0.1-0.3,0.2-0.5C3162.5,1125,3162.5,1124.9,3162.5,1124.8z"/>
	<path class="st4" d="M3179,1130.2L3179,1130.2c-0.8,1.7-1.8,4.2-3.6,4.2l0,0l0,0c-0.5,0-0.9-0.2-1.1-0.6c-0.2-0.2-0.2-0.5-0.3-0.8
		c-0.6,0.8-1.3,1.4-2.2,1.4l0,0c-0.5,0-0.9-0.2-1.1-0.6c-0.2-0.3-0.3-0.7-0.3-1.1v-0.1c0-0.3,0.1-0.7,0.2-1.2c0.1-0.5,0.3-1,0.5-1.6
		c0.1-0.3,0.3-0.9,0.6-1.6c0.3-0.9,0.7-2,1.1-3c0.1-0.2,0.3-0.3,0.5-0.2c0.2,0.1,0.3,0.3,0.2,0.5c-0.4,1.2-0.8,2.2-1.1,3
		c-0.3,0.7-0.5,1.3-0.6,1.6c-0.2,0.6-0.4,1.1-0.5,1.5s-0.2,0.8-0.2,1.1l0,0c0,0.2,0,0.5,0.1,0.6s0.2,0.2,0.5,0.2
		c1.2,0,2.2-2.1,2.8-3.6l0,0c0,0,0,0,0-0.1c0.1-0.3,0.3-0.9,0.6-1.6c0.4-0.9,0.7-2,1.1-3c0.1-0.2,0.3-0.3,0.5-0.2
		c0.2,0.1,0.3,0.3,0.3,0.5c-0.4,1.2-0.8,2.2-1.1,3c-0.3,0.7-0.5,1.3-0.6,1.6l0,0v0.1c-0.2,0.5-0.3,1-0.4,1.4
		c-0.1,0.4-0.2,0.8-0.2,1.1l0,0c0,0.2,0,0.5,0.1,0.6s0.2,0.2,0.4,0.2l0,0c1.2,0,2.2-2.1,2.8-3.6v-0.1c0.1-0.2,0.3-0.3,0.6-0.2
		C3179,1129.7,3179.1,1129.9,3179,1130.2z"/>
	<path class="st4" d="M3184.5,1130.8L3184.5,1130.8L3184.5,1130.8c0,1.2-0.5,2.1-1.2,2.7s-1.6,0.9-2.4,0.9l0,0c-0.1,0-0.1,0-0.2,0
		c-0.8,0-1.5-0.4-2-0.9s-0.8-1.2-0.8-1.9c0-0.1,0-0.1,0-0.2c0.1-0.7,0.3-1.4,0.8-2c0.5-0.5,1.1-0.8,1.9-0.8c0.5,0,1,0.2,1.4,0.6
		c0.3,0.3,0.5,0.8,0.6,1.4c0,0.2-0.2,0.4-0.4,0.4s-0.4-0.2-0.4-0.4c0-0.3-0.1-0.6-0.3-0.8c-0.2-0.2-0.5-0.3-0.7-0.3
		c-0.5,0-1,0.2-1.3,0.6c-0.4,0.4-0.6,0.9-0.6,1.4v0.1c0,0.5,0.2,1,0.5,1.4s0.9,0.6,1.4,0.7c0.1,0,0.1,0,0.2,0l0,0
		c0.7,0,1.4-0.2,1.9-0.7c0.5-0.4,0.9-1.1,0.9-2l0,0c0-1-0.5-1.8-1-2.7c-0.1-0.2-0.2-0.4-0.3-0.6c-0.1,0.1-0.3,0.3-0.4,0.5
		c-0.2,0.2-0.4,0.2-0.6,0c-0.2-0.1-0.2-0.4-0.1-0.6c0.2-0.3,0.4-0.5,0.7-0.7l0,0c-0.2-0.6-0.4-1.1-0.3-1.7c0-0.2,0.1-0.4,0.2-0.6
		l0,0c0.1-0.2,0.2-0.3,0.3-0.5c0.1-0.1,0.3-0.2,0.4-0.3c0.2-0.1,0.3-0.1,0.5-0.1c0.3,0,0.5,0.1,0.7,0.3c0.2,0.2,0.2,0.4,0.3,0.7
		c0,0.2,0,0.4-0.1,0.6c0,0.2-0.1,0.4-0.2,0.6c-0.2,0.5-0.5,0.9-0.8,1.2c0.1,0.3,0.3,0.5,0.4,0.8
		C3183.9,1128.6,3184.5,1129.6,3184.5,1130.8z M3183,1125.3c0.1-0.1,0.1-0.3,0.1-0.4s0.1-0.2,0-0.4c0-0.1,0-0.1,0-0.2c0,0,0,0-0.1,0
		h-0.1c-0.1,0-0.1,0.1-0.2,0.1c-0.1,0.1-0.1,0.1-0.2,0.2l0,0c0,0.1-0.1,0.2-0.1,0.3c0,0.3,0,0.6,0.1,0.9
		C3182.7,1125.8,3182.8,1125.5,3183,1125.3z"/>
	<path class="st4" d="M3193.9,1130.2L3193.9,1130.2c-0.8,1.7-1.8,4.2-3.6,4.2l0,0l0,0c-0.5,0-0.9-0.2-1.1-0.6
		c-0.2-0.2-0.2-0.5-0.3-0.8c-0.6,0.8-1.3,1.4-2.2,1.4l0,0c-0.5,0-0.9-0.2-1.1-0.6c-0.2-0.3-0.3-0.7-0.3-1.1v-0.1
		c0-0.3,0.1-0.7,0.2-1.2s0.3-1,0.5-1.6c0.1-0.3,0.3-0.9,0.6-1.6c0.3-0.9,0.7-2,1.1-3c0.1-0.2,0.3-0.3,0.5-0.2
		c0.2,0.1,0.3,0.3,0.2,0.5c-0.4,1.2-0.8,2.2-1.1,3c-0.3,0.7-0.5,1.3-0.6,1.6c-0.2,0.6-0.4,1.1-0.5,1.5s-0.2,0.8-0.2,1.1l0,0
		c0,0.2,0,0.5,0.1,0.6s0.2,0.2,0.5,0.2c1.2,0,2.2-2.1,2.8-3.6l0,0c0,0,0,0,0-0.1c0.1-0.3,0.3-0.9,0.6-1.6c0.4-0.9,0.7-2,1.1-3
		c0.1-0.2,0.3-0.3,0.5-0.2c0.2,0.1,0.3,0.3,0.3,0.5c-0.4,1.2-0.8,2.2-1.1,3c-0.3,0.7-0.5,1.3-0.6,1.6l0,0v0.1
		c-0.2,0.5-0.3,1-0.4,1.4c-0.1,0.4-0.2,0.8-0.2,1.1l0,0c0,0.2,0,0.5,0.1,0.6s0.2,0.2,0.4,0.2l0,0c1.2,0,2.2-2.1,2.8-3.6v-0.1
		c0.1-0.2,0.3-0.3,0.6-0.2C3193.9,1129.7,3194,1129.9,3193.9,1130.2z"/>
	<path class="st4" d="M3201.9,1130.2L3201.9,1130.2c-0.8,1.7-1.8,4.2-3.6,4.2l0,0c-0.5,0-0.9-0.2-1.1-0.6c-0.2-0.3-0.3-0.7-0.3-1.1
		l0,0c-0.7,1-1.5,1.7-2.5,1.6c-0.6,0-1-0.3-1.2-0.7c-0.3-0.4-0.4-1-0.4-1.6c0-1.1,0.6-3.3,1.6-5c0.7-1.2,1.7-2.1,2.8-2.2
		c0.1,0,0.1,0,0.2,0c0.5,0,1,0.3,1.4,0.7c0.1,0.1,0.2,0.2,0.3,0.4c0.1-0.3,0.2-0.6,0.3-0.9c0.1-0.2,0.3-0.3,0.5-0.2s0.3,0.3,0.2,0.5
		c-0.2,0.6-0.6,1.6-1,2.7c-0.3,0.7-0.5,1.4-0.7,2s-0.4,1.1-0.5,1.5s-0.2,0.8-0.2,1.1l0,0c0,0.2,0,0.5,0.1,0.6s0.2,0.2,0.5,0.2
		c1.2,0,2.2-2.1,2.8-3.6v-0.1c0.1-0.2,0.3-0.3,0.6-0.2C3201.9,1129.7,3202,1129.9,3201.9,1130.2z M3197.9,1128.5
		c0.2-0.4,0.3-0.8,0.5-1.1c0-0.1,0-0.1,0-0.1c0-0.5-0.1-0.8-0.4-1.1c-0.2-0.2-0.5-0.4-0.8-0.4h-0.1c-0.8,0-1.5,0.8-2.1,1.8
		c-0.9,1.5-1.4,3.5-1.5,4.5c0,0.5,0.1,0.9,0.2,1.1c0.1,0.2,0.3,0.3,0.6,0.3C3196,1133.5,3197.1,1130.5,3197.9,1128.5z"/>
	<path class="st4" d="M3206.1,1130.2c-0.4,0.9-0.8,1.6-1.2,2.2s-0.8,1.1-1.3,1.4c-0.2,0.2-0.5,0.3-0.8,0.4s-0.6,0.1-0.8,0.1l0,0
		c-0.4,0-0.8-0.1-1-0.4c-0.3-0.3-0.4-0.7-0.4-1.2l0,0l0,0c0-0.3,0.1-0.8,0.2-1.2c0.1-0.5,0.3-1,0.5-1.6c0.5-1.6,1.1-3.2,1.7-4.9
		l0.4-1.3l0.1-0.3c0.1-0.3,0.3-0.8,0.5-1.4c0.1-0.2,0.3-0.3,0.5-0.3c0.2,0.1,0.3,0.3,0.3,0.5c-0.2,0.5-0.4,1.1-0.5,1.4
		c0,0.1-0.1,0.2-0.1,0.4l-0.4,1.3c-0.6,1.6-1.1,3.2-1.7,4.9c-0.2,0.6-0.3,1.1-0.5,1.5c-0.1,0.4-0.2,0.8-0.2,1l0,0
		c0,0.3,0.1,0.5,0.2,0.7c0.1,0.1,0.3,0.2,0.4,0.2l0,0c0.2,0,0.4,0,0.6-0.1s0.4-0.1,0.5-0.3c0.4-0.3,0.7-0.7,1.1-1.2
		c0.4-0.6,0.7-1.3,1.1-2.1c0.1-0.2,0.4-0.3,0.6-0.2C3206.1,1129.7,3206.2,1129.9,3206.1,1130.2z"/>
	<path class="st4" d="M3214.8,1130.8L3214.8,1130.8L3214.8,1130.8c0,1.2-0.5,2.1-1.2,2.7s-1.6,0.9-2.4,0.9l0,0c-0.1,0-0.1,0-0.2,0
		c-0.8,0-1.5-0.4-2-0.9s-0.8-1.2-0.8-1.9c0-0.1,0-0.1,0-0.2c0.1-0.7,0.3-1.4,0.8-2c0.5-0.5,1.1-0.8,1.9-0.8c0.5,0,1,0.2,1.4,0.6
		c0.3,0.3,0.5,0.8,0.6,1.4c0,0.2-0.2,0.4-0.4,0.4s-0.4-0.2-0.4-0.4c0-0.3-0.1-0.6-0.3-0.8c-0.2-0.2-0.5-0.3-0.7-0.3
		c-0.5,0-1,0.2-1.3,0.6c-0.4,0.4-0.6,0.9-0.6,1.4v0.1c0,0.5,0.2,1,0.5,1.4s0.9,0.6,1.4,0.7c0.1,0,0.1,0,0.2,0l0,0
		c0.7,0,1.4-0.2,1.9-0.7c0.5-0.4,0.9-1.1,0.9-2l0,0c0-1-0.5-1.8-1-2.7c-0.1-0.2-0.2-0.4-0.3-0.6c-0.1,0.1-0.3,0.3-0.4,0.5
		c-0.2,0.2-0.4,0.2-0.6,0c-0.2-0.1-0.2-0.4-0.1-0.6c0.2-0.3,0.4-0.5,0.7-0.7l0,0c-0.2-0.6-0.4-1.1-0.3-1.7c0-0.2,0.1-0.4,0.2-0.6
		l0,0c0.1-0.2,0.2-0.3,0.3-0.5c0.1-0.1,0.3-0.2,0.4-0.3c0.2-0.1,0.3-0.1,0.5-0.1c0.3,0,0.5,0.1,0.7,0.3c0.2,0.2,0.2,0.4,0.3,0.7
		c0,0.2,0,0.4-0.1,0.6c0,0.2-0.1,0.4-0.2,0.6c-0.2,0.5-0.5,0.9-0.8,1.2c0.1,0.3,0.3,0.5,0.4,0.8
		C3214.2,1128.6,3214.8,1129.6,3214.8,1130.8z M3213.3,1125.3c0.1-0.1,0.1-0.3,0.1-0.4s0.1-0.2,0-0.4c0-0.1,0-0.1,0-0.2
		c0,0,0,0-0.1,0h-0.1c-0.1,0-0.1,0.1-0.2,0.1c-0.1,0.1-0.1,0.1-0.2,0.2l0,0c0,0.1-0.1,0.2-0.1,0.3c0,0.3,0,0.6,0.1,0.9
		C3213,1125.8,3213.2,1125.5,3213.3,1125.3z"/>
	<path class="st4" d="M3224.6,1130.1c0,0.1-0.1,0.3-0.2,0.4c-0.1,0.1-0.1,0.2-0.2,0.3c-0.3,0.5-0.6,1-1,1.4s-1,0.7-1.7,0.7
		c-0.2,0-0.4,0-0.6-0.1c-0.3-0.1-0.6-0.2-0.8-0.5c-0.8,1.1-1.8,1.9-3,1.8l0,0l0,0l0,0c-0.7,0-1.2-0.4-1.4-0.8
		c-0.9,2.5-1.7,4.7-1.9,5.3c-0.1,0.2-0.3,0.3-0.5,0.3c-0.2-0.1-0.3-0.3-0.3-0.5c0.2-0.6,1.2-3.4,2.2-6.2c1.1-3.1,2.3-6.3,2.5-6.9
		c0-0.1,0.1-0.2,0.1-0.3c0.1-0.2,0.3-0.3,0.5-0.3c0.2,0.1,0.3,0.3,0.3,0.5l-0.2,0.4c0.6-0.6,1.2-1,2-1c0.6,0,1,0.3,1.3,0.7
		s0.4,1,0.4,1.6v0.1l0,0c-0.1,1.1-0.6,2.9-1.4,4.4c0,0.1-0.1,0.1-0.1,0.2c0.2,0.2,0.4,0.3,0.6,0.4c0.1,0,0.2,0,0.4,0
		c0.5,0,0.8-0.2,1.2-0.5c0.3-0.3,0.6-0.8,0.8-1.2c0-0.1,0.1-0.2,0.2-0.3c0-0.1,0.1-0.2,0.1-0.4c0.1-0.2,0.3-0.3,0.6-0.2
		C3224.6,1129.7,3224.7,1129.9,3224.6,1130.1z M3220.4,1130.1c-0.1,0.2-0.1,0.4-0.1,0.5c0.6-1.2,0.9-2.5,1-3.4l0,0v-0.1l0,0
		c0-0.5,0-0.9-0.2-1.1c-0.1-0.2-0.3-0.3-0.6-0.3c-1.6,0-2.8,3-3.6,5l-0.1,0.3c-0.1,0.5-0.3,1-0.3,1.4c0,0.6,0.1,1,0.7,1l0,0l0,0
		c0.9,0,1.8-0.7,2.4-1.7c-0.1-0.3-0.2-0.6-0.2-1c0-0.3,0-0.6,0.1-1c0.1-0.2,0.3-0.4,0.5-0.3
		C3220.3,1129.6,3220.4,1129.9,3220.4,1130.1z"/>
	<path class="st4" d="M3232.3,1130.1c-0.1,0.1-0.1,0.3-0.2,0.4s-0.1,0.2-0.2,0.3c-0.3,0.5-0.6,1-1,1.4c-0.5,0.4-1,0.7-1.7,0.7
		c-0.2,0-0.4,0-0.6-0.1c-0.3-0.1-0.6-0.3-0.9-0.5c-0.7,1-1.7,1.8-2.7,1.8c-3.3,0-1.1-5.5,0-7.3c0.7-1.2,1.7-2.1,2.8-2.1l0,0
		c0.6,0,1.1,0.2,1.5,0.7c0.3,0.4,0.5,0.9,0.5,1.6c0,1.3-0.7,3.1-1.5,4.6c0.1,0.2,0.4,0.3,0.6,0.4c0.1,0,0.2,0,0.3,0
		c0.5,0,0.9-0.2,1.2-0.5s0.6-0.8,0.8-1.2c0.1-0.1,0.1-0.2,0.2-0.3c0.1-0.1,0.1-0.2,0.2-0.4c0.1-0.2,0.3-0.3,0.6-0.2
		C3232.3,1129.7,3232.4,1129.9,3232.3,1130.1z M3228.1,1130.1c-0.1,0.2-0.1,0.3-0.1,0.5c0.6-1.2,1-2.5,1-3.4c0-0.5-0.1-0.8-0.3-1
		s-0.5-0.4-0.9-0.4c-0.8,0-1.5,0.7-2,1.7c-0.8,1.3-2.7,6-0.7,6c0.7,0,1.6-0.8,2.2-1.7c-0.1-0.3-0.2-0.6-0.2-0.9s0-0.6,0.1-1
		c0.1-0.2,0.3-0.4,0.5-0.3C3228,1129.6,3228.2,1129.9,3228.1,1130.1z"/>
	<path class="st4" d="M3236.4,1130.2c-0.4,0.9-0.8,1.6-1.2,2.2s-0.8,1.1-1.3,1.4c-0.2,0.2-0.5,0.3-0.8,0.4s-0.6,0.1-0.8,0.1l0,0
		c-0.4,0-0.8-0.1-1-0.4c-0.3-0.3-0.4-0.7-0.4-1.2l0,0l0,0c0-0.3,0.1-0.7,0.2-1.2s0.3-1,0.5-1.6c0.1-0.2,0.2-0.6,0.4-1.2
		s0.5-1.3,0.7-2c0-0.1,0.1-0.4,0.3-0.9h-1.3c-0.2,0-0.4-0.2-0.4-0.4c0-0.2,0.2-0.4,0.4-0.4h1.5c0.1-0.1,0.1-0.3,0.2-0.4
		c0.4-1.1,0.8-2.3,0.9-2.5c0.1-0.2,0.3-0.3,0.5-0.3c0.2,0.1,0.3,0.3,0.3,0.5c-0.1,0.2-0.5,1.4-0.9,2.5c0,0.1,0,0.1-0.1,0.2h1.3
		c0.2,0,0.4,0.2,0.4,0.4c0,0.2-0.2,0.4-0.4,0.4h-1.6c-0.2,0.6-0.3,1-0.4,1.2c-0.3,0.8-0.5,1.5-0.7,2s-0.3,0.9-0.4,1.2
		c-0.2,0.6-0.4,1.1-0.5,1.5s-0.2,0.8-0.2,1.1l0,0c0,0.3,0.1,0.5,0.2,0.7c0.1,0.1,0.3,0.2,0.4,0.2l0,0c0.2,0,0.4,0,0.6-0.1
		c0.2-0.1,0.4-0.1,0.5-0.3c0.4-0.3,0.7-0.7,1.1-1.2c0.4-0.6,0.7-1.3,1.1-2.1c0.1-0.2,0.4-0.3,0.6-0.2
		C3236.4,1129.7,3236.5,1129.9,3236.4,1130.2z"/>
</g>
<g>
	<path class="st4" d="M3119.4,1127.2l-6.7,2.5l5,2.3c0.3,0.1,0.4,0.4,0.3,0.7c-0.1,0.2-0.4,0.4-0.7,0.2l-6.2-2.7
		c-0.1,0-0.2-0.1-0.3-0.3c-0.1-0.3,0-0.6,0.3-0.7l7.9-3c0.3-0.1,0.6,0,0.7,0.3C3119.8,1126.8,3119.7,1127.1,3119.4,1127.2z"/>
	<path class="st4" d="M3131.3,1127.2l-6.7,2.5l5,2.3c0.3,0.1,0.4,0.4,0.3,0.7c-0.1,0.2-0.4,0.4-0.7,0.2l-6.2-2.7
		c-0.1,0-0.2-0.1-0.3-0.3c-0.1-0.3,0-0.6,0.3-0.7l7.9-3c0.3-0.1,0.6,0,0.7,0.3C3131.6,1126.8,3131.5,1127.1,3131.3,1127.2z"/>
</g>
<path class="st0" d="M1627.6,123.1c-0.4-3-3.2-5.1-6.2-4.7c-3,0.4-5.1,3.2-4.7,6.2c2.2,15.4,3.2,43.1-3.1,51.8
	c-4.7,6.4-11.4,8-16.1,8.2l3.2-61.3c0-15.3-12.4-27.8-27.8-27.8s-27.8,12.4-27.8,27.8l4.2,80c-6.5-2.3-11.8-5.1-14.4-8.2
	c-8.3-10.2-2.4-22.5-2.2-23c1.4-2.7,0.3-6-2.4-7.4c-2.7-1.4-6-0.3-7.4,2.4c-0.1,0.2-0.7,1.5-1.4,3.5c-2.1,6.2-4.8,19.5,4.9,31.4
	c4.7,5.7,13.9,10,23.5,13.1l2.2,41.9h41.5l3.2-61.4c7.1-0.1,18-2.3,25.6-12.7C1633.5,167.7,1628.2,127.7,1627.6,123.1"/>
<g>
	<path class="st6" d="M1153.8,1340.1c0.4,0,0.8-0.1,1.2-0.3c0.4-0.2,0.7-0.6,0.9-1.1s0.3-1.1,0.3-1.8c0-0.7-0.1-1.3-0.3-1.7
		c-0.2-0.5-0.5-0.9-0.9-1.1c-0.4-0.3-0.8-0.4-1.2-0.4v-1.8c0.4,0.1,0.8,0.2,1.1,0.3c0.5,0.3,1,0.6,1.5,1.2v-3.7
		c0-0.5,0.1-0.9,0.3-1.2c0.2-0.3,0.5-0.4,0.9-0.4s0.7,0.1,0.9,0.4c0.2,0.2,0.3,0.6,0.3,1.1v11.2c0,0.5-0.1,0.8-0.3,1.1
		c-0.2,0.2-0.5,0.4-0.9,0.4c-0.3,0-0.6-0.1-0.9-0.4c-0.2-0.2-0.3-0.6-0.3-1.1v-0.3c-0.3,0.4-0.7,0.7-1,1c-0.3,0.2-0.7,0.4-1.1,0.6
		c-0.2,0-0.3,0.1-0.5,0.1V1340.1z M1151.4,1336.9c0,0.7,0.1,1.3,0.3,1.8c0.2,0.5,0.5,0.8,0.9,1.1c0.4,0.2,0.8,0.4,1.2,0.4l0,0v1.9
		c-0.2,0-0.5,0.1-0.8,0.1c-0.6,0-1.2-0.1-1.7-0.4s-1-0.6-1.3-1.1c-0.4-0.5-0.7-1-0.9-1.7c-0.2-0.6-0.3-1.3-0.3-2.1
		c0-1.6,0.4-2.8,1.2-3.7c0.8-0.9,1.8-1.3,3.1-1.3c0.3,0,0.5,0,0.7,0v1.8l0,0c-0.5,0-0.9,0.1-1.2,0.4c-0.4,0.3-0.6,0.6-0.8,1.1
		C1151.5,1335.7,1151.4,1336.3,1151.4,1336.9"/>
	<path class="st6" d="M1165.7,1336.1h2.3c-0.1-0.9-0.3-1.5-0.7-1.9c-0.4-0.4-0.9-0.6-1.6-0.6v-1.8h0.1c1,0,1.8,0.2,2.5,0.6
		c0.7,0.4,1.2,1,1.6,1.6c0.3,0.7,0.5,1.3,0.5,2c0,0.6-0.2,1.1-0.5,1.2c-0.4,0.2-0.9,0.3-1.5,0.3h-2.7V1336.1L1165.7,1336.1z
		 M1165.7,1342.1v-1.7c0.1,0,0.1,0,0.2,0c0.3,0,0.6,0,0.8-0.1c0.2-0.1,0.5-0.2,0.7-0.3c0.2-0.2,0.5-0.3,0.7-0.5
		c0.2-0.2,0.5-0.4,0.8-0.7c0.1-0.1,0.3-0.2,0.6-0.2s0.5,0.1,0.6,0.2c0.2,0.1,0.2,0.3,0.2,0.6c0,0.2-0.1,0.5-0.3,0.8
		s-0.5,0.6-0.8,0.9c-0.4,0.3-0.8,0.5-1.4,0.7c-0.5,0.2-1.2,0.3-1.9,0.3C1165.9,1342.1,1165.8,1342.1,1165.7,1342.1 M1163.4,1336.1
		h2.3v1.4h-2.3c0,0.6,0.1,1.1,0.3,1.5c0.2,0.4,0.5,0.8,0.9,1c0.3,0.2,0.7,0.3,1,0.3v1.7c-1.5-0.1-2.7-0.5-3.5-1.4
		c-0.9-0.9-1.4-2.2-1.4-3.8c0-0.8,0.1-1.4,0.3-2.1c0.2-0.6,0.5-1.2,1-1.6c0.4-0.5,0.9-0.8,1.6-1c0.6-0.2,1.3-0.4,2-0.4v1.8l0,0
		c-0.6,0-1.2,0.2-1.6,0.6C1163.7,1334.6,1163.5,1335.3,1163.4,1336.1"/>
	<path class="st6" d="M1180.7,1338.8c0,0.7-0.2,1.3-0.5,1.8c-0.3,0.5-0.8,0.9-1.5,1.1c-0.7,0.3-1.5,0.4-2.4,0.4
		c-0.9,0-1.7-0.1-2.3-0.4c-0.7-0.3-1.1-0.6-1.4-1s-0.5-0.8-0.5-1.3c0-0.3,0.1-0.5,0.3-0.7c0.2-0.2,0.4-0.3,0.8-0.3
		c0.3,0,0.5,0.1,0.6,0.2s0.3,0.3,0.4,0.5c0.3,0.5,0.6,0.8,0.9,1c0.4,0.2,0.9,0.3,1.5,0.3c0.5,0,0.9-0.1,1.2-0.3
		c0.3-0.2,0.5-0.5,0.5-0.8c0-0.4-0.2-0.8-0.5-1c-0.3-0.2-0.9-0.4-1.7-0.6c-0.9-0.2-1.6-0.4-2.1-0.7c-0.5-0.2-1-0.5-1.3-0.9
		c-0.3-0.4-0.5-0.9-0.5-1.4s0.1-1,0.5-1.4c0.3-0.4,0.8-0.8,1.3-1.1c0.6-0.3,1.3-0.4,2.1-0.4c0.7,0,1.2,0.1,1.8,0.2
		c0.5,0.1,1,0.3,1.3,0.6c0.4,0.2,0.6,0.5,0.8,0.8c0.2,0.3,0.3,0.5,0.3,0.8s-0.1,0.5-0.3,0.7c-0.2,0.2-0.5,0.3-0.8,0.3
		s-0.5-0.1-0.7-0.2c-0.2-0.1-0.4-0.4-0.6-0.7c-0.2-0.2-0.4-0.4-0.7-0.6c-0.3-0.1-0.6-0.2-1.1-0.2s-0.8,0.1-1.1,0.3
		c-0.3,0.2-0.5,0.4-0.5,0.7c0,0.3,0.1,0.5,0.3,0.7c0.2,0.2,0.5,0.3,0.9,0.4c0.4,0.1,0.9,0.2,1.6,0.4c0.8,0.2,1.4,0.4,1.9,0.7
		c0.5,0.3,0.9,0.6,1.1,0.9C1180.6,1337.9,1180.7,1338.3,1180.7,1338.8"/>
	<path class="st6" d="M1185.4,1333.2v7.3c0,0.5-0.1,0.9-0.4,1.2c-0.2,0.3-0.5,0.4-0.9,0.4s-0.7-0.1-0.9-0.4s-0.3-0.6-0.3-1.1v-7.2
		c0-0.5,0.1-0.9,0.3-1.1c0.2-0.3,0.5-0.4,0.9-0.4s0.7,0.1,0.9,0.4C1185.2,1332.4,1185.4,1332.8,1185.4,1333.2 M1184.1,1330.6
		c-0.4,0-0.7-0.1-0.9-0.3c-0.3-0.2-0.4-0.5-0.4-0.9s0.1-0.7,0.4-0.9c0.3-0.2,0.6-0.3,0.9-0.3c0.3,0,0.6,0.1,0.9,0.3
		c0.3,0.2,0.4,0.5,0.4,0.9s-0.1,0.7-0.4,0.9C1184.8,1330.5,1184.5,1330.6,1184.1,1330.6"/>
	<path class="st6" d="M1192.4,1340c0.4,0,0.8-0.1,1.2-0.3c0.4-0.2,0.7-0.6,0.9-1c0.2-0.5,0.4-1,0.4-1.7c0-1-0.2-1.8-0.7-2.4
		c-0.4-0.6-1-0.8-1.8-0.9v-1.8c0.4,0.1,0.7,0.2,1.1,0.3c0.5,0.3,1,0.7,1.5,1.3v-0.3c0-0.4,0.1-0.8,0.3-1s0.5-0.4,0.8-0.4
		c0.5,0,0.8,0.2,1,0.5c0.2,0.3,0.2,0.8,0.2,1.4v7.3c0,0.8-0.1,1.6-0.3,2.2c-0.2,0.6-0.5,1.1-0.9,1.5c-0.4,0.4-0.9,0.7-1.6,0.9
		c-0.6,0.2-1.3,0.3-2.2,0.3v-1.8c0.6,0,1-0.1,1.3-0.3c0.4-0.2,0.6-0.4,0.8-0.8c0.1-0.3,0.2-0.7,0.3-1.1c0-0.4,0-1,0.1-1.8
		c-0.4,0.5-0.8,1-1.4,1.2c-0.3,0.2-0.7,0.3-1,0.4L1192.4,1340L1192.4,1340z M1190,1336.9c0,1,0.2,1.8,0.7,2.3s1,0.8,1.7,0.8l0,0v1.8
		c-0.2,0-0.5,0.1-0.8,0.1c-0.8,0-1.6-0.2-2.2-0.7c-0.6-0.4-1.1-1-1.5-1.8c-0.3-0.8-0.5-1.7-0.5-2.7c0-0.8,0.1-1.4,0.3-2.1
		c0.2-0.6,0.5-1.1,0.9-1.6c0.4-0.4,0.8-0.7,1.3-0.9c0.5-0.2,1.1-0.3,1.6-0.3c0.3,0,0.6,0,0.8,0.1v1.8l0,0c-0.7,0-1.3,0.3-1.7,0.8
		C1190.2,1335.1,1190,1335.8,1190,1336.9 M1192.4,1344.1v1.8h-0.2c-0.9,0-1.7-0.1-2.3-0.4c-0.7-0.2-1.2-0.6-1.6-0.9
		c-0.4-0.4-0.6-0.8-0.6-1.2c0-0.3,0.1-0.6,0.3-0.7c0.2-0.2,0.5-0.3,0.8-0.3c0.4,0,0.7,0.2,1,0.5c0.1,0.2,0.3,0.3,0.4,0.5
		s0.3,0.3,0.5,0.4s0.4,0.2,0.6,0.3c0.2,0.1,0.5,0.1,0.9,0.1C1192.3,1344.1,1192.3,1344.1,1192.4,1344.1"/>
	<path class="st6" d="M1202.1,1333.2v0.3c0.4-0.6,0.9-1,1.5-1.3c0.5-0.3,1.1-0.4,1.8-0.4c0.7,0,1.3,0.1,1.8,0.4s0.9,0.7,1.2,1.2
		c0.2,0.3,0.3,0.6,0.3,1c0.1,0.4,0.1,0.8,0.1,1.4v4.7c0,0.5-0.1,0.9-0.3,1.2c-0.2,0.3-0.5,0.4-0.9,0.4c-0.4,0-0.7-0.1-0.9-0.4
		c-0.2-0.3-0.4-0.6-0.4-1.1v-4.2c0-0.8-0.1-1.5-0.3-1.9s-0.7-0.7-1.4-0.7c-0.4,0-0.9,0.1-1.2,0.4c-0.4,0.3-0.6,0.6-0.8,1.1
		c-0.1,0.4-0.2,1.1-0.2,2.1v3.2c0,0.5-0.1,0.9-0.4,1.2c-0.2,0.3-0.5,0.4-0.9,0.4c-0.4,0-0.7-0.1-0.9-0.4c-0.2-0.3-0.4-0.6-0.4-1.1
		v-7.3c0-0.5,0.1-0.8,0.3-1.1c0.2-0.2,0.5-0.4,0.9-0.4c0.2,0,0.4,0,0.6,0.2c0.2,0.1,0.3,0.3,0.4,0.5
		C1202.1,1332.6,1202.1,1332.9,1202.1,1333.2"/>
	<path class="st6" d="M1215.7,1336.1h2.3c-0.1-0.9-0.3-1.5-0.7-1.9c-0.4-0.4-0.9-0.6-1.6-0.6v-1.8h0.1c1,0,1.8,0.2,2.5,0.6
		c0.7,0.4,1.2,1,1.6,1.6c0.3,0.7,0.5,1.3,0.5,2c0,0.6-0.2,1.1-0.5,1.2c-0.4,0.2-0.9,0.3-1.5,0.3h-2.7V1336.1L1215.7,1336.1z
		 M1215.7,1342.1v-1.7c0.1,0,0.1,0,0.2,0c0.3,0,0.6,0,0.8-0.1c0.3-0.1,0.5-0.2,0.7-0.3c0.2-0.2,0.5-0.3,0.6-0.5
		c0.2-0.2,0.5-0.4,0.8-0.7c0.1-0.1,0.3-0.2,0.6-0.2c0.3,0,0.5,0.1,0.6,0.2c0.2,0.1,0.2,0.3,0.2,0.6c0,0.2-0.1,0.5-0.3,0.8
		c-0.2,0.3-0.4,0.6-0.8,0.9s-0.8,0.5-1.4,0.7C1217.2,1342,1216.5,1342.1,1215.7,1342.1C1215.9,1342.1,1215.8,1342.1,1215.7,1342.1
		 M1213.4,1336.1h2.3v1.4h-2.3c0,0.6,0.1,1.1,0.3,1.5c0.2,0.4,0.5,0.8,0.9,1c0.3,0.2,0.7,0.3,1.1,0.3v1.7c-1.5-0.1-2.7-0.5-3.5-1.4
		c-0.9-0.9-1.4-2.2-1.4-3.8c0-0.8,0.1-1.4,0.3-2.1c0.2-0.6,0.5-1.2,1-1.6c0.4-0.5,0.9-0.8,1.6-1c0.6-0.2,1.3-0.4,2-0.4v1.8l0,0
		c-0.6,0-1.1,0.2-1.6,0.6C1213.8,1334.6,1213.5,1335.3,1213.4,1336.1"/>
	<path class="st6" d="M1227,1340.1c0.4,0,0.8-0.1,1.2-0.3c0.4-0.2,0.7-0.6,0.9-1.1c0.2-0.5,0.3-1.1,0.3-1.8c0-0.7-0.1-1.3-0.3-1.7
		c-0.2-0.5-0.5-0.9-0.9-1.1c-0.4-0.3-0.8-0.4-1.2-0.4v-1.8c0.4,0.1,0.8,0.2,1.1,0.3c0.5,0.3,1,0.6,1.5,1.2v-3.7
		c0-0.5,0.1-0.9,0.3-1.2c0.2-0.3,0.5-0.4,0.9-0.4c0.4,0,0.7,0.1,0.9,0.4c0.2,0.2,0.3,0.6,0.3,1.1v11.2c0,0.5-0.1,0.8-0.3,1.1
		c-0.2,0.2-0.5,0.4-0.9,0.4c-0.3,0-0.6-0.1-0.9-0.4c-0.2-0.2-0.3-0.6-0.3-1.1v-0.3c-0.3,0.4-0.7,0.7-1,1c-0.3,0.2-0.7,0.4-1.1,0.6
		c-0.2,0-0.3,0.1-0.5,0.1V1340.1z M1224.5,1336.9c0,0.7,0.1,1.3,0.3,1.8c0.2,0.5,0.5,0.8,0.9,1.1c0.4,0.2,0.8,0.4,1.2,0.4l0,0v1.9
		c-0.3,0-0.5,0.1-0.8,0.1c-0.6,0-1.2-0.1-1.7-0.4s-1-0.6-1.3-1.1c-0.4-0.5-0.7-1-0.9-1.7c-0.2-0.6-0.3-1.3-0.3-2.1
		c0-1.6,0.4-2.8,1.2-3.7c0.8-0.9,1.8-1.3,3.1-1.3c0.3,0,0.5,0,0.8,0v1.8l0,0c-0.5,0-0.9,0.1-1.2,0.4c-0.4,0.3-0.6,0.6-0.8,1.1
		C1224.6,1335.7,1224.5,1336.3,1224.5,1336.9"/>
	<path class="st6" d="M1244.1,1340.1L1244.1,1340.1c0.7,0,1.3-0.3,1.7-0.8c0.5-0.6,0.7-1.3,0.7-2.4c0-0.7-0.1-1.2-0.3-1.7
		c-0.2-0.5-0.5-0.9-0.8-1.1c-0.4-0.3-0.8-0.4-1.2-0.4h-0.1v-1.8c0.2,0,0.5,0,0.8,0c0.8,0,1.6,0.2,2.2,0.6c0.6,0.4,1.1,1,1.5,1.7
		c0.4,0.8,0.5,1.7,0.5,2.7c0,0.8-0.1,1.5-0.3,2.1s-0.5,1.2-0.9,1.7s-0.8,0.8-1.3,1.1c-0.5,0.3-1.1,0.4-1.7,0.4c-0.3,0-0.5,0-0.7-0.1
		L1244.1,1340.1L1244.1,1340.1z M1241.7,1337c0,1,0.2,1.8,0.7,2.3c0.4,0.5,1,0.8,1.7,0.8v1.9c-0.1,0-0.3,0-0.4-0.1
		c-0.3-0.1-0.6-0.2-0.9-0.4c-0.2-0.1-0.4-0.3-0.6-0.5s-0.4-0.4-0.7-0.7v0.3c0,0.5-0.1,0.8-0.3,1.1c-0.2,0.2-0.5,0.4-0.9,0.4
		c-0.4,0-0.6-0.1-0.9-0.4c-0.2-0.2-0.3-0.6-0.3-1.1v-11.1c0-0.5,0.1-0.9,0.3-1.2c0.2-0.3,0.5-0.4,0.9-0.4c0.4,0,0.7,0.1,0.9,0.4
		c0.2,0.2,0.3,0.6,0.3,1.1v3.9c0.5-0.5,1-0.9,1.5-1.1c0.3-0.2,0.7-0.3,1.1-0.3v1.8c-0.4,0-0.8,0.1-1.2,0.4c-0.4,0.3-0.7,0.6-0.9,1.1
		C1241.8,1335.7,1241.7,1336.3,1241.7,1337"/>
	<path class="st6" d="M1253.2,1342.4l0.2-0.6l-3.1-7.8c-0.2-0.5-0.3-0.8-0.3-1s0.1-0.4,0.2-0.6s0.3-0.3,0.5-0.4s0.4-0.2,0.6-0.2
		c0.4,0,0.6,0.1,0.8,0.3c0.2,0.2,0.4,0.6,0.5,1l2.1,6.2l2-5.8c0.2-0.5,0.3-0.8,0.4-1.1c0.1-0.3,0.3-0.4,0.4-0.5
		c0.1-0.1,0.4-0.1,0.6-0.1s0.4,0.1,0.6,0.2s0.3,0.2,0.4,0.4c0.1,0.2,0.1,0.4,0.1,0.5s-0.1,0.3-0.1,0.5c-0.1,0.2-0.1,0.4-0.2,0.7
		l-3.3,8.6c-0.3,0.8-0.6,1.4-0.8,1.8c-0.3,0.4-0.6,0.8-1.1,1s-1.1,0.3-1.8,0.3c-0.7,0-1.3-0.1-1.7-0.2c-0.4-0.2-0.6-0.5-0.6-0.9
		c0-0.3,0.1-0.5,0.3-0.7c0.2-0.2,0.4-0.2,0.8-0.2c0.1,0,0.3,0,0.4,0.1c0.2,0,0.3,0.1,0.4,0.1c0.3,0,0.5,0,0.7-0.1
		c0.2-0.1,0.3-0.2,0.5-0.5C1252.8,1343.1,1253,1342.8,1253.2,1342.4"/>
	<path class="st6" d="M1300,1332h0.6v-0.8c0-0.8,0.1-1.4,0.3-1.9c0.2-0.5,0.5-0.8,1-1s1.1-0.3,2-0.3c1.5,0,2.2,0.4,2.2,1.1
		c0,0.2-0.1,0.4-0.2,0.6c-0.2,0.2-0.3,0.3-0.5,0.3c-0.1,0-0.3,0-0.5-0.1c-0.2,0-0.4-0.1-0.6-0.1c-0.5,0-0.8,0.1-0.9,0.4
		c-0.1,0.3-0.2,0.7-0.2,1.2v0.6h0.6c1,0,1.4,0.3,1.4,0.9c0,0.4-0.1,0.7-0.4,0.8c-0.3,0.1-0.6,0.2-1.1,0.2h-0.6v6.7
		c0,0.5-0.1,0.9-0.4,1.1c-0.2,0.3-0.5,0.4-0.9,0.4s-0.7-0.1-0.9-0.4s-0.4-0.7-0.4-1.1v-6.7h-0.7c-0.4,0-0.7-0.1-0.9-0.3
		c-0.2-0.2-0.3-0.4-0.3-0.7C1298.7,1332.3,1299.1,1332,1300,1332"/>
	<path class="st6" d="M1309,1338.4v2.1c0,0.5-0.1,0.9-0.4,1.2c-0.2,0.3-0.5,0.4-0.9,0.4s-0.7-0.1-0.9-0.4s-0.4-0.6-0.4-1.2v-7
		c0-1.1,0.4-1.7,1.2-1.7c0.4,0,0.7,0.1,0.9,0.4c0.2,0.3,0.3,0.7,0.3,1.2c0.3-0.5,0.6-0.9,0.9-1.2c0.3-0.3,0.7-0.4,1.3-0.4
		c0.5,0,1,0.1,1.5,0.4s0.8,0.6,0.8,1.1c0,0.3-0.1,0.6-0.3,0.8c-0.2,0.2-0.4,0.3-0.7,0.3c-0.1,0-0.3-0.1-0.7-0.2
		c-0.4-0.1-0.7-0.2-0.9-0.2c-0.4,0-0.7,0.1-0.9,0.3c-0.2,0.2-0.4,0.5-0.5,0.9c-0.1,0.4-0.2,0.8-0.3,1.4
		C1309,1337,1309,1337.7,1309,1338.4"/>
	<path class="st6" d="M1318.8,1336.1h2.3c-0.1-0.9-0.3-1.5-0.7-1.9c-0.4-0.4-0.9-0.6-1.6-0.6v-1.8h0.1c1,0,1.8,0.2,2.5,0.6
		c0.7,0.4,1.2,1,1.6,1.6c0.3,0.7,0.5,1.3,0.5,2c0,0.6-0.2,1.1-0.5,1.2c-0.4,0.2-0.9,0.3-1.5,0.3h-2.7L1318.8,1336.1L1318.8,1336.1z
		 M1318.8,1342.1v-1.7c0.1,0,0.1,0,0.2,0c0.3,0,0.6,0,0.8-0.1c0.2-0.1,0.5-0.2,0.7-0.3c0.2-0.2,0.5-0.3,0.7-0.5
		c0.2-0.2,0.5-0.4,0.8-0.7c0.1-0.1,0.3-0.2,0.6-0.2s0.5,0.1,0.6,0.2c0.2,0.1,0.2,0.3,0.2,0.6c0,0.2-0.1,0.5-0.3,0.8
		s-0.4,0.6-0.8,0.9c-0.4,0.3-0.8,0.5-1.4,0.7c-0.5,0.2-1.2,0.3-1.9,0.3C1318.9,1342.1,1318.8,1342.1,1318.8,1342.1 M1316.5,1336.1
		h2.3v1.4h-2.3c0,0.6,0.1,1.1,0.3,1.5c0.2,0.4,0.5,0.8,0.9,1c0.3,0.2,0.7,0.3,1,0.3v1.7c-1.5-0.1-2.7-0.5-3.5-1.4
		c-0.9-0.9-1.4-2.2-1.4-3.8c0-0.8,0.1-1.4,0.3-2.1c0.2-0.6,0.5-1.2,1-1.6c0.4-0.5,1-0.8,1.6-1s1.3-0.4,2-0.4v1.8l0,0
		c-0.6,0-1.2,0.2-1.6,0.6C1316.8,1334.6,1316.6,1335.3,1316.5,1336.1"/>
	<path class="st6" d="M1330,1336.1h2.3c-0.1-0.9-0.3-1.5-0.7-1.9s-0.9-0.6-1.6-0.6v-1.8h0.1c1,0,1.8,0.2,2.5,0.6s1.2,1,1.6,1.6
		c0.3,0.7,0.5,1.3,0.5,2c0,0.6-0.2,1.1-0.6,1.2c-0.4,0.2-0.9,0.3-1.5,0.3h-2.7L1330,1336.1L1330,1336.1z M1330,1342.1v-1.7
		c0.1,0,0.1,0,0.2,0c0.3,0,0.6,0,0.8-0.1s0.5-0.2,0.7-0.3c0.2-0.2,0.5-0.3,0.7-0.5s0.5-0.4,0.8-0.7c0.1-0.1,0.3-0.2,0.6-0.2
		c0.3,0,0.5,0.1,0.6,0.2c0.1,0.1,0.2,0.3,0.2,0.6c0,0.2-0.1,0.5-0.3,0.8c-0.2,0.3-0.4,0.6-0.8,0.9s-0.8,0.5-1.4,0.7
		c-0.5,0.2-1.2,0.3-1.9,0.3C1330.2,1342.1,1330.1,1342.1,1330,1342.1 M1327.7,1336.1h2.3v1.4h-2.3c0,0.6,0.1,1.1,0.3,1.5
		s0.5,0.8,0.9,1c0.3,0.2,0.7,0.3,1,0.3v1.7c-1.5-0.1-2.7-0.5-3.5-1.4c-0.9-0.9-1.4-2.2-1.4-3.8c0-0.8,0.1-1.4,0.3-2.1
		c0.2-0.6,0.5-1.2,1-1.6c0.4-0.5,1-0.8,1.6-1c0.6-0.2,1.3-0.4,2-0.4v1.8l0,0c-0.6,0-1.1,0.2-1.6,0.6
		C1328.1,1334.6,1327.8,1335.3,1327.7,1336.1"/>
	<path class="st6" d="M1344,1336.9c0-0.7-0.1-1.2-0.3-1.7c-0.2-0.5-0.5-0.9-0.8-1.1c-0.4-0.3-0.8-0.4-1.2-0.4h-0.1v-1.8
		c0.2,0,0.5-0.1,0.7-0.1c0.8,0,1.5,0.2,2.1,0.6c0.7,0.4,1.2,1,1.5,1.8c0.4,0.8,0.6,1.7,0.6,2.7c0,0.8-0.1,1.5-0.3,2.1
		c-0.2,0.7-0.5,1.2-0.9,1.6c-0.4,0.4-0.8,0.8-1.4,1c-0.5,0.2-1.1,0.4-1.7,0.4c-0.2,0-0.5,0-0.7,0v-1.9h0.1c0.4,0,0.8-0.1,1.2-0.4
		c0.4-0.2,0.6-0.6,0.9-1.1C1343.8,1338.2,1344,1337.6,1344,1336.9 M1341.5,1333.7c-0.7,0-1.2,0.3-1.7,0.8s-0.7,1.4-0.7,2.4
		s0.2,1.8,0.7,2.3s1,0.8,1.7,0.8v1.9c-0.4-0.1-0.8-0.2-1.1-0.4c-0.5-0.3-1-0.7-1.4-1.3v3.8c0,1.1-0.4,1.7-1.2,1.7
		c-0.5,0-0.8-0.1-1-0.4c-0.2-0.3-0.2-0.7-0.2-1.3v-10.9c0-0.5,0.1-0.8,0.3-1.1c0.2-0.2,0.5-0.4,0.9-0.4c0.4,0,0.6,0.1,0.9,0.4
		c0.2,0.2,0.3,0.6,0.3,1.1v0.3c0.5-0.6,1-1,1.5-1.3c0.3-0.2,0.7-0.3,1.1-0.4L1341.5,1333.7L1341.5,1333.7z"/>
	<path class="st6" d="M1351.1,1333.2v7.3c0,0.5-0.1,0.9-0.4,1.2c-0.2,0.3-0.5,0.4-0.9,0.4s-0.7-0.1-0.9-0.4s-0.3-0.6-0.3-1.1v-7.2
		c0-0.5,0.1-0.9,0.3-1.1c0.2-0.3,0.5-0.4,0.9-0.4s0.7,0.1,0.9,0.4C1350.9,1332.4,1351.1,1332.8,1351.1,1333.2 M1349.8,1330.6
		c-0.4,0-0.7-0.1-0.9-0.3c-0.2-0.2-0.4-0.5-0.4-0.9s0.1-0.7,0.4-0.9c0.3-0.2,0.6-0.3,0.9-0.3s0.6,0.1,0.9,0.3
		c0.2,0.2,0.4,0.5,0.4,0.9s-0.1,0.7-0.4,0.9C1350.4,1330.5,1350.1,1330.6,1349.8,1330.6"/>
	<path class="st6" d="M1360,1340.9l-2.2-3.7l-1.4,1.3v2c0,0.5-0.1,0.9-0.4,1.1c-0.3,0.3-0.6,0.4-0.9,0.4c-0.4,0-0.7-0.1-0.9-0.4
		c-0.2-0.3-0.3-0.6-0.3-1.2v-10.8c0-0.6,0.1-1,0.3-1.3c0.2-0.3,0.5-0.4,0.9-0.4c0.4,0,0.7,0.1,0.9,0.4c0.2,0.3,0.3,0.7,0.3,1.2v6.1
		l2.8-3c0.4-0.4,0.6-0.6,0.8-0.8c0.2-0.1,0.4-0.2,0.7-0.2c0.3,0,0.6,0.1,0.8,0.3c0.2,0.2,0.3,0.5,0.3,0.8c0,0.4-0.3,0.9-1,1.5
		l-1.3,1.2l2.6,4.1c0.2,0.3,0.3,0.5,0.4,0.7s0.1,0.3,0.1,0.4c0,0.4-0.1,0.7-0.3,1c-0.2,0.2-0.5,0.3-0.9,0.3c-0.3,0-0.5-0.1-0.7-0.2
		C1360.5,1341.7,1360.3,1341.4,1360,1340.9"/>
	<path class="st6" d="M1366.2,1342.1c-0.4,0-0.7-0.1-1-0.4c-0.3-0.2-0.4-0.6-0.4-1s0.1-0.7,0.4-1s0.6-0.4,1-0.4c0.4,0,0.7,0.1,1,0.4
		c0.3,0.3,0.4,0.6,0.4,1s-0.1,0.8-0.4,1C1366.9,1342,1366.6,1342.1,1366.2,1342.1"/>
	<path class="st6" d="M1379.6,1339c0,0.3-0.1,0.7-0.3,1c-0.2,0.4-0.5,0.7-0.9,1c-0.4,0.3-0.9,0.6-1.5,0.8c-0.6,0.2-1.3,0.3-2,0.3
		c-1.6,0-2.8-0.5-3.7-1.4s-1.3-2.1-1.3-3.7c0-1,0.2-2,0.6-2.8c0.4-0.8,1-1.4,1.7-1.8c0.8-0.4,1.7-0.7,2.7-0.7c0.7,0,1.2,0.1,1.8,0.3
		c0.5,0.2,1,0.4,1.4,0.7c0.4,0.3,0.7,0.6,0.9,1c0.2,0.3,0.3,0.7,0.3,1s-0.1,0.6-0.3,0.8c-0.2,0.2-0.5,0.3-0.8,0.3
		c-0.2,0-0.4-0.1-0.5-0.2c-0.1-0.1-0.3-0.3-0.5-0.5c-0.3-0.5-0.6-0.8-1-1.1c-0.3-0.2-0.8-0.4-1.3-0.4c-0.7,0-1.3,0.3-1.8,0.9
		s-0.7,1.4-0.7,2.4c0,0.5,0.1,0.9,0.2,1.3c0.1,0.4,0.3,0.7,0.5,1c0.2,0.3,0.5,0.5,0.8,0.6s0.7,0.2,1,0.2c0.5,0,0.9-0.1,1.3-0.4
		c0.4-0.2,0.7-0.6,1-1.1c0.2-0.3,0.3-0.5,0.5-0.7c0.2-0.2,0.4-0.2,0.7-0.2s0.6,0.1,0.8,0.4C1379.5,1338.4,1379.6,1338.7,1379.6,1339
		"/>
	<path class="st6" d="M1388.7,1337c0-1-0.2-1.8-0.7-2.4c-0.4-0.6-1.1-0.9-1.8-0.9v-1.9c0.8,0,1.5,0.1,2.1,0.4
		c0.6,0.2,1.2,0.6,1.6,1.1c0.4,0.5,0.8,1,1,1.6c0.2,0.6,0.3,1.3,0.3,2.1c0,0.7-0.1,1.4-0.3,2.1c-0.2,0.6-0.6,1.2-1,1.6
		c-0.4,0.5-1,0.8-1.6,1.1c-0.6,0.2-1.3,0.4-2.1,0.4v-1.9c0.8,0,1.4-0.3,1.8-0.9C1388.5,1338.8,1388.7,1338,1388.7,1337
		 M1386.2,1333.7L1386.2,1333.7c-0.5,0-0.9,0.1-1.3,0.4s-0.7,0.6-0.9,1.1s-0.3,1.1-0.3,1.8c0,0.7,0.1,1.2,0.3,1.7s0.5,0.9,0.9,1.1
		c0.4,0.3,0.8,0.4,1.3,0.4l0,0v1.9l0,0c-0.8,0-1.5-0.1-2.1-0.4c-0.6-0.2-1.1-0.6-1.6-1.1c-0.4-0.5-0.8-1-1-1.6
		c-0.2-0.6-0.4-1.3-0.4-2.1c0-0.8,0.1-1.5,0.4-2.1c0.2-0.6,0.6-1.2,1-1.6c0.4-0.5,1-0.8,1.6-1c0.6-0.2,1.3-0.4,2.1-0.4l0,0V1333.7z"
		/>
	<path class="st6" d="M1401.7,1337.1v3.4c0,0.5-0.1,0.9-0.4,1.2c-0.2,0.3-0.6,0.4-1,0.4c-0.4,0-0.7-0.1-0.9-0.4
		c-0.2-0.3-0.4-0.7-0.4-1.2v-4c0-0.6,0-1.1-0.1-1.5c0-0.4-0.2-0.6-0.4-0.9c-0.2-0.2-0.5-0.3-0.9-0.3c-0.8,0-1.4,0.3-1.6,0.8
		c-0.3,0.6-0.4,1.4-0.4,2.4v3.4c0,0.5-0.1,0.9-0.4,1.2c-0.2,0.3-0.6,0.4-0.9,0.4c-0.4,0-0.7-0.1-0.9-0.4c-0.2-0.3-0.4-0.7-0.4-1.2
		v-7.2c0-0.5,0.1-0.8,0.3-1.1c0.2-0.2,0.5-0.4,0.9-0.4c0.3,0,0.6,0.1,0.9,0.3c0.2,0.2,0.3,0.6,0.3,1v0.2c0.4-0.5,0.9-0.9,1.4-1.2
		c0.5-0.2,1.1-0.4,1.7-0.4s1.2,0.1,1.6,0.4c0.5,0.3,0.8,0.6,1.1,1.1c0.4-0.5,0.9-0.9,1.4-1.2c0.5-0.2,1-0.4,1.6-0.4
		c0.7,0,1.3,0.1,1.8,0.4s0.9,0.7,1.1,1.2s0.3,1.2,0.3,2.2v4.9c0,0.5-0.1,0.9-0.4,1.2c-0.2,0.3-0.5,0.4-1,0.4c-0.4,0-0.7-0.1-0.9-0.4
		s-0.4-0.7-0.4-1.2v-4.3c0-0.5,0-1-0.1-1.3c0-0.3-0.2-0.6-0.4-0.8c-0.2-0.2-0.5-0.3-0.9-0.3c-0.3,0-0.6,0.1-0.9,0.3
		c-0.3,0.2-0.5,0.5-0.7,0.8C1401.7,1335.3,1401.7,1336.1,1401.7,1337.1"/>
	<path class="st6" d="M1280,1325.3c-0.1-0.2-0.1-0.3-0.2-0.5c0.8-0.1,1.4-1.1,1-1.9c-0.2-0.5-0.7-0.7-1.1-0.7h-0.1
		c-0.4,0-0.8,0.2-1,0.5c-0.5,0.7-0.1,1.8,0.7,2c0.1,0.2,0.1,0.3,0.2,0.5c-1.3,0.1-2.6,0.4-3.6,1.1c0.1,0.3,0.2,0.6,0.3,0.9
		c2.2-0.9,4.6-0.7,6.8-0.5c0.1-0.3,0.2-0.6,0.2-0.9C1282.3,1325.4,1281.2,1325.3,1280,1325.3"/>
	<path class="st6" d="M1292.9,1328.8c-0.3,0.2-0.4,0.6-0.4,0.9c-0.4,0.4-0.2,0.9-0.2,1.4c-0.1,0.3-0.4,0.3-0.6,0.4
		c-0.3-0.4-0.6-0.9-1-1.3l0,0c-0.4-0.4-0.9-0.8-1.4-1.1c-0.4,0.4-0.8,0.8-1.2,1.3c0.8,0.8,1.5,1.7,2.1,2.7c0.4,0.7,0.8,1.5,1.1,2.3
		c0.6-0.3,1.3-0.7,1.9-1c-0.3-0.8-0.7-1.5-1.1-2.3c0.3-0.2,0.7-0.3,0.7-0.7c0-0.4-0.1-0.9,0.2-1.2c0.5,0.3,1.2,0,1.3-0.6
		C1294.2,1328.9,1293.4,1328.4,1292.9,1328.8"/>
	<path class="st6" d="M1287.8,1334c-0.1,1-1.1,1.9-2.2,1.9v4.2c2-0.5,3.8-1.3,5.6-2.3c0,0-0.4-2-1.8-4.2c-0.8-1.4-1.7-2.8-3-3.8
		c-0.3-0.2-0.5-0.4-0.8-0.6v2.4c0.3,0,0.5,0.1,0.8,0.1C1287.4,1331.8,1288,1332.9,1287.8,1334 M1285.6,1335.8L1285.6,1335.8
		c-0.6,0-1.2-0.2-1.6-0.7c-0.3-0.4-0.6-0.8-0.6-1.3c-0.1-1.1,0.6-2.2,1.6-2.4c0.2-0.1,0.4-0.1,0.6-0.1v-2.4
		c-1.3-0.9-2.8-1.5-4.4-1.5c-1.9,0-3.9,0.2-5.7,0.8v2.3c0.3,0,0.7,0,1,0.1c0.4,0.1,0.7,0.3,1,0.5c0.7,0.5,1.2,1.2,1.4,1.9
		c0.3,1,0.1,2.1-0.5,3c-0.4,0.6-1,1.1-1.7,1.3c-0.4,0.1-0.8,0.2-1.2,0.2v3.1h0.1c2.3,0.1,4.5,0.1,6.8-0.2c1.1-0.1,2.2-0.4,3.2-0.6
		L1285.6,1335.8L1285.6,1335.8z M1275.5,1328.3v2.3c-0.6,0-1.2,0.1-1.7,0.4c-1.1,0.6-1.8,1.7-1.9,2.9c-0.1,1,0.3,1.9,1,2.7
		c0.7,0.7,1.6,1.1,2.6,1.1v3.1c-2.3-0.1-4.5-0.6-6.7-1.2c-0.4-2-0.4-4.2,0.5-6.1c0.9-2.1,2.7-3.8,4.8-4.7
		C1274.6,1328.6,1275.1,1328.5,1275.5,1328.3"/>
	<path class="st6" d="M1269.3,1330.3c-0.9,0.5-1.6,1.3-2.3,2.2c-0.2-0.3-0.2-0.7-0.5-1c-0.1-0.2-0.4-0.1-0.6-0.1
		c-0.2,0-0.5,0-0.7-0.1c0.3-0.4,0.2-0.9-0.2-1.2c-0.4-0.3-1.1,0-1.2,0.5c-0.2,0.6,0.4,1.1,1,1c0.3,0.4,0.8,0.4,1.3,0.4
		c0.2,0.4,0.4,0.7,0.6,1.1c-0.5,1-0.8,2-0.8,3.1c0.6,0.3,1.2,0.5,1.9,0.8c0-0.7,0.1-1.3,0.2-2c0.2-1.5,1-2.7,2-3.8
		C1269.9,1330.8,1269.6,1330.6,1269.3,1330.3"/>
	<path class="st6" d="M1283.9,1341.3c-2.3,0.5-4.7,0.6-7,0.5c-1.6-0.1-3.2-0.2-4.7-0.6c-1.1-0.2-2.2-0.5-3.3-0.8
		c0.2,1.4,0.7,2.7,1.5,3.8c0.9,1.3,2.2,2.5,3.8,3c1.1,0.3,2.5,0.7,4.7,0.7h0.2h0.2c2.1,0,4.1-0.3,5.9-1.1c1.2-0.5,2.3-1.2,3.2-2.1
		c0.8-0.8,1.5-1.7,1.9-2.8c0.4-1,0.8-2.7,0.8-3.6C1289,1339.7,1286.4,1340.8,1283.9,1341.3"/>
</g>
<g>
	<rect x="1579" y="1161.5" class="st1" width="35.7" height="10.2"/>
	<rect x="1589.4" y="1151.9" class="st1" width="15" height="3.5"/>
	<polygon class="st1" points="1606.4,1155.4 1587.3,1155.4 1579,1161.5 1614.7,1161.5 	"/>
	<polygon class="st1" points="1601.3,1001.7 1592.5,1001.7 1591.4,1151.9 1602.3,1151.9 	"/>
	<rect x="1590.2" y="1000" class="st1" width="13.4" height="1.7"/>
	<rect x="1591.2" y="998.7" class="st1" width="11.3" height="1.3"/>
	<rect x="1578.8" y="973" class="st1" width="36.2" height="1.3"/>
	<rect x="1592.3" y="995.3" class="st1" width="9.2" height="1.3"/>
	<rect x="1593.5" y="996.6" class="st1" width="7" height="2.1"/>
	<rect x="1593.5" y="963.4" class="st1" width="7" height="2.1"/>
	<rect x="1594.1" y="958.8" class="st1" width="5.7" height="1.5"/>
	<polygon class="st1" points="1599.2,955.6 1594.7,955.6 1596.8,947.9 1597.1,947.9 	"/>
	<polygon class="st1" points="1604.6,965.5 1589.1,965.5 1580.9,973 1612.9,973 	"/>
	<rect x="1595.6" y="960.2" class="st1" width="2.8" height="3.1"/>
	<rect x="1595.6" y="955.6" class="st1" width="2.8" height="3.1"/>
	<path class="st1" d="M1577.7,974.3v1.7h0.2c0.4,1.6,1.8,6,5.7,11.5c3.4,4.7,7.4,7.8,7.6,7.9l0,0v0.1h11.3v-0.1l0,0
		c0.2-0.1,4.2-3.2,7.6-7.9c3.9-5.4,5.3-9.8,5.7-11.5h0.2v-1.7H1577.7z M1592.4,993.6c-0.3-0.2-4-3.1-7.1-7.4
		c-3.3-4.6-4.7-8.5-5.2-10.3h9.1c0,1.7,0.3,5.6,1.7,9.7c1.2,3.5,3,6.4,4.1,8L1592.4,993.6L1592.4,993.6z M1592.8,984.9
		c-1.3-3.8-1.6-7.4-1.6-9h11.3c0,1.6-0.3,5.2-1.6,9c-1.2,3.4-3,6.3-4.1,7.8C1595.8,991.3,1594,988.4,1592.8,984.9z M1608.5,986.2
		c-3.1,4.3-6.8,7.2-7.1,7.4h-2.6c1.1-1.6,2.9-4.5,4.1-8c1.5-4.1,1.7-8,1.7-9.7h9.1C1613.2,977.7,1611.8,981.6,1608.5,986.2z"/>
</g>
<g>
	<path class="st7" d="M1452.5,59.2V58l4.3-4.7c0.8-0.9,1.3-1.5,1.6-2c0.3-0.5,0.4-1,0.4-1.5c0-0.7-0.2-1.2-0.6-1.6s-0.9-0.7-1.5-0.7
		c-0.9,0-1.6,0.2-2,0.7s-0.6,1.1-0.6,2h-1.7v-0.1c0-1.1,0.3-2.1,1.1-2.8c0.8-0.8,1.8-1.1,3.2-1.1c1.2,0,2.1,0.3,2.8,1
		c0.7,0.7,1,1.6,1,2.6c0,0.7-0.2,1.4-0.6,2.1s-1,1.5-1.8,2.3l-3.4,3.7l0,0h4.6l0.1-1.5h1.5v2.9L1452.5,59.2L1452.5,59.2z"/>
	<path class="st7" d="M1469.9,54.9h1.8v1.4h-1.8v1.6l1.5,0.3v1.1h-4.7v-1.1l1.5-0.3v-1.6h-5.9v-1l5.7-9h1.9V54.9z M1464.2,54.9h4
		v-6.1h-0.1l-0.2,0.5L1464.2,54.9z"/>
	<path class="st7" d="M1476.2,47.2v2.3h1.8v1.3h-1.8v5.9c0,0.5,0.1,0.8,0.3,1c0.2,0.2,0.4,0.3,0.7,0.3c0.2,0,0.3,0,0.5,0
		s0.4-0.1,0.5-0.1l0.2,1.2c-0.2,0.1-0.4,0.2-0.7,0.3c-0.3,0.1-0.6,0.1-1,0.1c-0.7,0-1.3-0.2-1.7-0.6s-0.6-1.1-0.6-2V51h-1.5v-1.5
		h1.5v-2.3L1476.2,47.2L1476.2,47.2z"/>
	<path class="st7" d="M1479.6,58.1l1.5-0.3V46.6l-1.5-0.3v-1.1h3.2v5.6c0.3-0.5,0.7-0.8,1.2-1.1c0.5-0.3,1-0.4,1.6-0.4
		c1,0,1.8,0.3,2.4,0.9s0.9,1.6,0.9,2.9v4.7l1.5,0.3v1.1h-4.7v-1.1l1.5-0.3v-4.7c0-0.8-0.2-1.4-0.5-1.8s-0.9-0.6-1.5-0.6
		c-0.5,0-0.9,0.1-1.3,0.3c-0.4,0.2-0.7,0.5-1,0.9v5.8l1.5,0.3v1.1h-4.7L1479.6,58.1L1479.6,58.1z"/>
	<path class="st7" d="M1496.1,55.8c0-0.7,0.2-1.4,0.6-1.9s1-1.1,1.9-1.6c-0.5-0.6-0.8-1.1-1-1.6s-0.3-0.9-0.3-1.4
		c0-1,0.3-1.8,0.9-2.3s1.4-0.8,2.4-0.8c0.9,0,1.7,0.3,2.3,0.8s0.9,1.2,0.9,2c0,0.6-0.2,1.1-0.5,1.5s-0.8,0.9-1.4,1.3l-1,0.7l3,3.7
		c0.2-0.4,0.4-0.8,0.6-1.3c0.1-0.5,0.2-1,0.2-1.5h1.6c0,0.8-0.1,1.5-0.3,2.2c-0.2,0.7-0.6,1.3-1,1.8l1.7,2l0,0h-2l-0.8-0.9
		c-0.5,0.4-1,0.6-1.6,0.8c-0.6,0.2-1.2,0.3-1.8,0.3c-1.3,0-2.3-0.3-3.1-1C1496.5,57.8,1496.1,56.9,1496.1,55.8z M1500.4,58.1
		c0.4,0,0.9-0.1,1.3-0.2s0.8-0.4,1.2-0.6l-3.2-3.9l-0.4,0.3c-0.5,0.4-0.9,0.8-1.1,1.2c-0.2,0.4-0.3,0.7-0.3,1c0,0.7,0.2,1.2,0.6,1.7
		C1498.9,57.9,1499.6,58.1,1500.4,58.1z M1499,49.1c0,0.3,0.1,0.6,0.2,1s0.4,0.7,0.7,1.1l1.2-0.9c0.3-0.2,0.6-0.5,0.7-0.7
		c0.1-0.3,0.2-0.6,0.2-0.9c0-0.4-0.1-0.7-0.4-1s-0.7-0.4-1.1-0.4c-0.5,0-0.9,0.2-1.1,0.5C1499.1,48.2,1499,48.6,1499,49.1z"/>
	<path class="st7" d="M1522.6,57.8c-0.4,0.4-0.9,0.8-1.7,1.1c-0.7,0.4-1.7,0.5-2.9,0.5c-1.7,0-3.2-0.6-4.3-1.8
		c-1.1-1.2-1.7-2.8-1.7-4.8v-0.2c0-2,0.5-3.6,1.6-4.8c1.1-1.2,2.5-1.8,4.3-1.8c1,0,1.8,0.2,2.5,0.5s1.3,0.7,1.8,1.2v2.4h-1.2
		l-0.4-1.8c-0.3-0.2-0.6-0.4-1.1-0.6s-0.9-0.2-1.5-0.2c-1.4,0-2.5,0.5-3.3,1.4s-1.1,2.2-1.1,3.7v0.2c0,1.6,0.4,2.8,1.1,3.8
		s1.8,1.4,3,1.4c0.7,0,1.3-0.1,1.7-0.2c0.5-0.1,0.8-0.3,1.1-0.5v-2.7l-2.1-0.1v-1.3h3.9v4.6L1522.6,57.8L1522.6,57.8z"/>
</g>
</svg>
