<?xml version="1.0" encoding="utf-8"?>
<!-- Generator: Adobe Illustrator 19.1.0, SVG Export Plug-In . SVG Version: 6.00 Build 0)  -->
<svg version="1.1" id="Layer_1" xmlns="http://www.w3.org/2000/svg" xmlns:xlink="http://www.w3.org/1999/xlink" x="0px" y="0px"
	 viewBox="398 0 1156.4 360" style="enable-background:new 398 0 1156.4 360;" xml:space="preserve">
<style type="text/css">
	.st0{fill:#E6E7E8;}
	.st1{fill:#E2E0E0;}
	.st2{fill:#03A8A0;}
	.st3{fill:none;}
	.st4{fill:#F4EC8F;}
	.st5{fill:#D3CB7D;}
	.st6{fill:#50516A;}
	.st7{enable-background:new    ;}
	.st8{fill:#FFFFFF;}
	.st9{fill:#CECECE;}
</style>
<g>
	<path class="st0" d="M1517.7,168.9c-14.5,0-22.6-6.1-28-10.1c-4.1-3.1-5.8-4.4-10.7-4.4c-4.9,0-6.6,1.3-10.7,4.4
		c-5.4,4-13.5,10.1-28,10.1c-14.5,0-22.6-6.1-28-10.1c-4.1-3.1-5.8-4.4-10.7-4.4c-4.9,0-6.6,1.3-10.7,4.4c-5.4,4-13.5,10.1-28,10.1
		c-14.5,0-22.6-6.1-28-10.1c-4.1-3.1-5.8-4.4-10.7-4.4c-4.9,0-6.6,1.3-10.7,4.4c-5.4,4-13.5,10.1-28,10.1c-14.5,0-22.6-6.1-28-10.1
		c-4.1-3.1-5.8-4.4-10.7-4.4c-4.9,0-6.6,1.3-10.7,4.4c-5.4,4-13.5,10.1-28,10.1c-14.5,0-22.6-6.1-28-10.1c-4.1-3.1-5.8-4.4-10.7-4.4
		c-4.9,0-6.6,1.3-10.7,4.4c-5.4,4-13.5,10.1-28,10.1c-14.5,0-22.6-6.1-28-10.1c-4.1-3.1-5.8-4.4-10.7-4.4c-4.9,0-6.6,1.3-10.7,4.4
		c-5.4,4-13.5,10.1-28,10.1c-14.5,0-22.6-6.1-28-10.1c-4.1-3.1-5.8-4.4-10.7-4.4c-4.9,0-6.6,1.3-10.7,4.4c-5.4,4-13.5,10.1-28,10.1
		s-22.6-6.1-28-10.1c-4.1-3.1-5.8-4.4-10.7-4.4c-4.9,0-6.6,1.3-10.7,4.4c-5.4,4-13.5,10.1-28,10.1c-14.5,0-22.6-6.1-28-10.1
		c-4.1-3.1-5.8-4.4-10.7-4.4c-4.9,0-6.6,1.3-10.7,4.4c-5.4,4-13.5,10.1-28,10.1c-14.5,0-22.6-6.1-28-10.1c-4.1-3.1-5.8-4.4-10.7-4.4
		c-4.9,0-6.6,1.3-10.7,4.4c-5.4,4-13.5,10.1-28,10.1c-14.5,0-22.6-6.1-28-10.1c-4.1-3.1-5.8-4.4-10.7-4.4c-4.9,0-6.6,1.3-10.7,4.4
		c-5.4,4-13.5,10.1-28,10.1c-14.5,0-22.6-6.1-28-10.1c-4.1-3.1-5.8-4.3-10.7-4.3c-4.9,0-6.6,1.3-10.7,4.4c-5.4,4-13.5,10.1-28,10.1
		c-14.5,0-22.6-6.1-28-10.1c-4.1-3.1-5.8-4.4-10.7-4.4c-4.9,0-6.6,1.3-10.7,4.3c-5.4,4-13.5,10.1-28,10.1c-14.5,0-22.6-6.1-28-10.1
		c-4.1-3.1-5.8-4.4-10.7-4.4c-4.9,0-6.6,1.3-10.7,4.3c-5.4,4-13.5,10.1-28,10.1c-14.5,0-22.6-6.1-28-10.1c-4.1-3.1-5.8-4.4-10.7-4.4
		c-8,0-14.5-6.5-14.5-14.5c0-8,6.5-14.5,14.5-14.5c14.5,0,22.6,6.1,28,10.1c4.1,3.1,5.8,4.4,10.7,4.4c4.9,0,6.6-1.3,10.7-4.3
		c5.4-4,13.5-10.1,28-10.1c14.5,0,22.6,6.1,28,10.1c4.1,3.1,5.8,4.4,10.7,4.4c4.9,0,6.6-1.3,10.7-4.3c5.4-4,13.5-10.1,28-10.1
		c14.5,0,22.6,6.1,28,10.1c4.1,3.1,5.8,4.4,10.7,4.4s6.6-1.3,10.7-4.4c5.4-4,13.5-10.1,28-10.1c14.5,0,22.6,6.1,28,10.1
		c4.1,3.1,5.8,4.4,10.7,4.4c4.9,0,6.6-1.3,10.7-4.4c5.4-4,13.5-10.1,28-10.1c14.5,0,22.6,6.1,28,10.1c4.1,3.1,5.8,4.4,10.7,4.4
		c4.9,0,6.6-1.3,10.7-4.4c5.4-4,13.5-10.1,28-10.1c14.5,0,22.6,6.1,28,10.1c4.1,3.1,5.8,4.4,10.7,4.4c4.9,0,6.6-1.3,10.7-4.4
		c5.4-4,13.5-10.1,28-10.1c14.5,0,22.6,6.1,28,10.1c4.1,3.1,5.8,4.4,10.7,4.4c4.9,0,6.6-1.3,10.7-4.4c5.4-4,13.5-10.1,28-10.1
		c14.5,0,22.6,6.1,28,10.1c4.1,3.1,5.8,4.4,10.7,4.4c4.9,0,6.6-1.3,10.7-4.4c5.4-4,13.5-10.1,28-10.1c14.5,0,22.6,6.1,28,10.1
		c4.1,3.1,5.8,4.4,10.7,4.4c4.9,0,6.6-1.3,10.7-4.4c5.4-4,13.5-10.1,28-10.1c14.5,0,22.6,6.1,28,10.1c4.1,3.1,5.8,4.4,10.7,4.4
		c4.9,0,6.6-1.3,10.7-4.4c5.4-4,13.5-10.1,28-10.1c14.5,0,22.6,6.1,28,10.1c4.1,3.1,5.8,4.4,10.7,4.4c4.9,0,6.6-1.3,10.7-4.4
		c5.4-4,13.5-10.1,28-10.1c14.5,0,22.6,6.1,28,10.1c4.1,3.1,5.8,4.4,10.7,4.4c4.9,0,6.6-1.3,10.7-4.4c5.4-4,13.5-10.1,28-10.1
		c14.5,0,22.6,6.1,28,10.1c4.1,3.1,5.8,4.4,10.7,4.4c4.9,0,6.6-1.3,10.7-4.4c5.4-4,13.5-10.1,28-10.1c14.5,0,22.6,6.1,28,10.1
		c4.1,3.1,5.8,4.4,10.7,4.4c4.9,0,6.6-1.3,10.7-4.4c5.4-4,13.5-10.1,28-10.1c14.5,0,22.6,6.1,28,10.1c4.1,3.1,5.8,4.4,10.7,4.4
		s6.6-1.3,10.7-4.4c5.4-4,13.5-10.1,28-10.1c8,0,14.5,6.5,14.5,14.5c0,8-6.5,14.5-14.5,14.5c-4.9,0-6.6,1.3-10.7,4.4
		C1540.3,162.8,1532.2,168.9,1517.7,168.9z"/>
</g>
<g>
	<path class="st1" d="M1514.8,196.3c-14.5,0-22.6-6.1-28-10.1c-4.1-3.1-5.8-4.4-10.7-4.4c-4.9,0-6.6,1.3-10.7,4.4
		c-5.4,4-13.5,10.1-28,10.1c-14.5,0-22.6-6.1-28-10.1c-4.1-3.1-5.8-4.4-10.7-4.4c-4.9,0-6.6,1.3-10.7,4.4c-5.4,4-13.5,10.1-28,10.1
		c-14.5,0-22.6-6.1-28-10.1c-4.1-3.1-5.8-4.4-10.7-4.4c-4.9,0-6.6,1.3-10.7,4.4c-5.4,4-13.5,10.1-28,10.1c-14.5,0-22.6-6.1-28-10.1
		c-4.1-3.1-5.8-4.4-10.7-4.4c-4.9,0-6.6,1.3-10.7,4.4c-5.4,4-13.5,10.1-28,10.1c-14.5,0-22.6-6.1-28-10.1c-4.1-3.1-5.8-4.4-10.7-4.4
		c-4.9,0-6.6,1.3-10.7,4.4c-5.4,4-13.5,10.1-28,10.1c-14.5,0-22.6-6.1-28-10.1c-4.1-3.1-5.8-4.4-10.7-4.4c-4.9,0-6.6,1.3-10.7,4.4
		c-5.4,4-13.5,10.1-28,10.1c-14.5,0-22.6-6.1-28-10.1c-4.1-3.1-5.8-4.4-10.7-4.4c-4.9,0-6.6,1.3-10.7,4.4c-5.4,4-13.5,10.1-28,10.1
		c-14.5,0-22.6-6.1-28-10.1c-4.1-3.1-5.8-4.4-10.7-4.4c-4.9,0-6.6,1.3-10.7,4.4c-5.4,4-13.5,10.1-28,10.1c-14.5,0-22.6-6.1-28-10.1
		c-4.1-3.1-5.8-4.4-10.7-4.4c-4.9,0-6.6,1.3-10.7,4.4c-5.4,4-13.5,10.1-28,10.1c-14.5,0-22.6-6.1-28-10.1c-4.1-3.1-5.8-4.4-10.7-4.4
		c-4.9,0-6.6,1.3-10.7,4.4c-5.4,4-13.5,10.1-28,10.1c-14.5,0-22.6-6.1-28-10.1c-4.1-3.1-5.8-4.4-10.7-4.4c-4.9,0-6.6,1.3-10.7,4.4
		c-5.4,4-13.5,10.1-28,10.1c-14.5,0-22.6-6.1-28-10.1c-4.1-3.1-5.8-4.3-10.7-4.3c-4.9,0-6.6,1.3-10.7,4.4c-5.4,4-13.5,10.1-28,10.1
		c-14.5,0-22.6-6.1-28-10.1c-4.1-3.1-5.8-4.4-10.7-4.4c-4.9,0-6.6,1.3-10.7,4.3c-5.4,4-13.5,10.1-28,10.1c-14.5,0-22.6-6.1-28-10.1
		c-4.1-3.1-5.8-4.4-10.7-4.4c-4.9,0-6.6,1.3-10.7,4.3c-5.4,4-13.5,10.1-28,10.1c-14.5,0-22.6-6.1-28-10.1c-4.1-3.1-5.8-4.4-10.7-4.4
		c-8,0-14.5-6.5-14.5-14.5c0-8,6.5-14.5,14.5-14.5c14.5,0,22.6,6.1,28,10.1c4.1,3.1,5.8,4.4,10.7,4.4c4.9,0,6.6-1.3,10.7-4.3
		c5.4-4,13.5-10.1,28-10.1c14.5,0,22.6,6.1,28,10.1c4.1,3.1,5.8,4.4,10.7,4.4c4.9,0,6.6-1.3,10.7-4.3c5.4-4,13.5-10.1,28-10.1
		c14.5,0,22.6,6.1,28,10.1c4.1,3.1,5.8,4.4,10.7,4.4s6.6-1.3,10.7-4.4c5.4-4,13.5-10.1,28-10.1c14.5,0,22.6,6.1,28,10.1
		c4.1,3.1,5.8,4.4,10.7,4.4c4.9,0,6.6-1.3,10.7-4.4c5.4-4,13.5-10.1,28-10.1c14.5,0,22.6,6.1,28,10.1c4.1,3.1,5.8,4.4,10.7,4.4
		c4.9,0,6.6-1.3,10.7-4.4c5.4-4,13.5-10.1,28-10.1c14.5,0,22.6,6.1,28,10.1c4.1,3.1,5.8,4.4,10.7,4.4c4.9,0,6.6-1.3,10.7-4.4
		c5.4-4,13.5-10.1,28-10.1c14.5,0,22.6,6.1,28,10.1c4.1,3.1,5.8,4.4,10.7,4.4c4.9,0,6.6-1.3,10.7-4.4c5.4-4,13.5-10.1,28-10.1
		c14.5,0,22.6,6.1,28,10.1c4.1,3.1,5.8,4.4,10.7,4.4c4.9,0,6.6-1.3,10.7-4.4c5.4-4,13.5-10.1,28-10.1c14.5,0,22.6,6.1,28,10.1
		c4.1,3.1,5.8,4.4,10.7,4.4c4.9,0,6.6-1.3,10.7-4.4c5.4-4,13.5-10.1,28-10.1c14.5,0,22.6,6.1,28,10.1c4.1,3.1,5.8,4.4,10.7,4.4
		c4.9,0,6.6-1.3,10.7-4.4c5.4-4,13.5-10.1,28-10.1c14.5,0,22.6,6.1,28,10.1c4.1,3.1,5.8,4.4,10.7,4.4c4.9,0,6.6-1.3,10.7-4.4
		c5.4-4,13.5-10.1,28-10.1c14.5,0,22.6,6.1,28,10.1c4.1,3.1,5.8,4.4,10.7,4.4c4.9,0,6.6-1.3,10.7-4.4c5.4-4,13.5-10.1,28-10.1
		c14.5,0,22.6,6.1,28,10.1c4.1,3.1,5.8,4.4,10.7,4.4c4.9,0,6.6-1.3,10.7-4.4c5.4-4,13.5-10.1,28-10.1c14.5,0,22.6,6.1,28,10.1
		c4.1,3.1,5.8,4.4,10.7,4.4c4.9,0,6.6-1.3,10.7-4.4c5.4-4,13.5-10.1,28-10.1c14.5,0,22.6,6.1,28,10.1c4.1,3.1,5.8,4.4,10.7,4.4
		c4.9,0,6.6-1.3,10.7-4.4c5.4-4,13.5-10.1,28-10.1c8,0,14.5,6.5,14.5,14.5c0,8-6.5,14.5-14.5,14.5c-4.9,0-6.6,1.3-10.7,4.4
		C1537.4,190.3,1529.3,196.3,1514.8,196.3z"/>
</g>
<path class="st2" d="M1394.1,196.3c0,0,25-47.2,0-107.9c0,0-4.2-22.3,21.9-9.9c26.1,12.4,91,63.5,104.3,117.8H1394.1z"/>
<g>
	<path class="st0" d="M1517.7,224.1c-14.5,0-22.6-6.1-28-10.1c-4.1-3.1-5.8-4.4-10.7-4.4c-4.9,0-6.6,1.3-10.7,4.4
		c-5.4,4-13.5,10.1-28,10.1c-14.5,0-22.6-6.1-28-10.1c-4.1-3.1-5.8-4.4-10.7-4.4c-4.9,0-6.6,1.3-10.7,4.4c-5.4,4-13.5,10.1-28,10.1
		c-14.5,0-22.6-6.1-28-10.1c-4.1-3.1-5.8-4.4-10.7-4.4c-4.9,0-6.6,1.3-10.7,4.4c-5.4,4-13.5,10.1-28,10.1c-14.5,0-22.6-6.1-28-10.1
		c-4.1-3.1-5.8-4.4-10.7-4.4c-4.9,0-6.6,1.3-10.7,4.4c-5.4,4-13.5,10.1-28,10.1c-14.5,0-22.6-6.1-28-10.1c-4.1-3.1-5.8-4.4-10.7-4.4
		c-4.9,0-6.6,1.3-10.7,4.4c-5.4,4-13.5,10.1-28,10.1c-14.5,0-22.6-6.1-28-10.1c-4.1-3.1-5.8-4.4-10.7-4.4c-4.9,0-6.6,1.3-10.7,4.4
		c-5.4,4-13.5,10.1-28,10.1c-14.5,0-22.6-6.1-28-10.1c-4.1-3.1-5.8-4.4-10.7-4.4c-4.9,0-6.6,1.3-10.7,4.4c-5.4,4-13.5,10.1-28,10.1
		s-22.6-6.1-28-10.1c-4.1-3.1-5.8-4.4-10.7-4.4c-4.9,0-6.6,1.3-10.7,4.4c-5.4,4-13.5,10.1-28,10.1c-14.5,0-22.6-6.1-28-10.1
		c-4.1-3.1-5.8-4.4-10.7-4.4c-4.9,0-6.6,1.3-10.7,4.4c-5.4,4-13.5,10.1-28,10.1c-14.5,0-22.6-6.1-28-10.1c-4.1-3.1-5.8-4.4-10.7-4.4
		c-4.9,0-6.6,1.3-10.7,4.4c-5.4,4-13.5,10.1-28,10.1c-14.5,0-22.6-6.1-28-10.1c-4.1-3.1-5.8-4.4-10.7-4.4c-4.9,0-6.6,1.3-10.7,4.4
		c-5.4,4-13.5,10.1-28,10.1c-14.5,0-22.6-6.1-28-10.1c-4.1-3.1-5.8-4.3-10.7-4.3c-4.9,0-6.6,1.3-10.7,4.4c-5.4,4-13.5,10.1-28,10.1
		c-14.5,0-22.6-6.1-28-10.1c-4.1-3.1-5.8-4.4-10.7-4.4c-4.9,0-6.6,1.3-10.7,4.3c-5.4,4-13.5,10.1-28,10.1c-14.5,0-22.6-6.1-28-10.1
		c-4.1-3.1-5.8-4.4-10.7-4.4c-4.9,0-6.6,1.3-10.7,4.3c-5.4,4-13.5,10.1-28,10.1c-14.5,0-22.6-6.1-28-10.1c-4.1-3.1-5.8-4.4-10.7-4.4
		c-8,0-14.5-6.5-14.5-14.5s6.5-14.5,14.5-14.5c14.5,0,22.6,6.1,28,10.1c4.1,3.1,5.8,4.4,10.7,4.4c4.9,0,6.6-1.3,10.7-4.3
		c5.4-4,13.5-10.1,28-10.1c14.5,0,22.6,6.1,28,10.1c4.1,3.1,5.8,4.4,10.7,4.4c4.9,0,6.6-1.3,10.7-4.3c5.4-4,13.5-10.1,28-10.1
		c14.5,0,22.6,6.1,28,10.1c4.1,3.1,5.8,4.4,10.7,4.4s6.6-1.3,10.7-4.4c5.4-4,13.5-10.1,28-10.1c14.5,0,22.6,6.1,28,10.1
		c4.1,3.1,5.8,4.4,10.7,4.4c4.9,0,6.6-1.3,10.7-4.4c5.4-4,13.5-10.1,28-10.1c14.5,0,22.6,6.1,28,10.1c4.1,3.1,5.8,4.4,10.7,4.4
		c4.9,0,6.6-1.3,10.7-4.4c5.4-4,13.5-10.1,28-10.1c14.5,0,22.6,6.1,28,10.1c4.1,3.1,5.8,4.4,10.7,4.4c4.9,0,6.6-1.3,10.7-4.4
		c5.4-4,13.5-10.1,28-10.1c14.5,0,22.6,6.1,28,10.1c4.1,3.1,5.8,4.4,10.7,4.4c4.9,0,6.6-1.3,10.7-4.4c5.4-4,13.5-10.1,28-10.1
		c14.5,0,22.6,6.1,28,10.1c4.1,3.1,5.8,4.4,10.7,4.4c4.9,0,6.6-1.3,10.7-4.4c5.4-4,13.5-10.1,28-10.1c14.5,0,22.6,6.1,28,10.1
		c4.1,3.1,5.8,4.4,10.7,4.4c4.9,0,6.6-1.3,10.7-4.4c5.4-4,13.5-10.1,28-10.1c14.5,0,22.6,6.1,28,10.1c4.1,3.1,5.8,4.4,10.7,4.4
		c4.9,0,6.6-1.3,10.7-4.4c5.4-4,13.5-10.1,28-10.1c14.5,0,22.6,6.1,28,10.1c4.1,3.1,5.8,4.4,10.7,4.4c4.9,0,6.6-1.3,10.7-4.4
		c5.4-4,13.5-10.1,28-10.1c14.5,0,22.6,6.1,28,10.1c4.1,3.1,5.8,4.4,10.7,4.4c4.9,0,6.6-1.3,10.7-4.4c5.4-4,13.5-10.1,28-10.1
		c14.5,0,22.6,6.1,28,10.1c4.1,3.1,5.8,4.4,10.7,4.4c4.9,0,6.6-1.3,10.7-4.4c5.4-4,13.5-10.1,28-10.1c14.5,0,22.6,6.1,28,10.1
		c4.1,3.1,5.8,4.4,10.7,4.4c4.9,0,6.6-1.3,10.7-4.4c5.4-4,13.5-10.1,28-10.1c14.5,0,22.6,6.1,28,10.1c4.1,3.1,5.8,4.4,10.7,4.4
		s6.6-1.3,10.7-4.4c5.4-4,13.5-10.1,28-10.1c8,0,14.5,6.5,14.5,14.5s-6.5,14.5-14.5,14.5c-4.9,0-6.6,1.3-10.7,4.4
		C1540.3,218.1,1532.2,224.1,1517.7,224.1z"/>
</g>
<g>
	<path class="st1" d="M1514.8,251.6c-14.5,0-22.6-6.1-28-10.1c-4.1-3.1-5.8-4.4-10.7-4.4c-4.9,0-6.6,1.3-10.7,4.4
		c-5.4,4-13.5,10.1-28,10.1c-14.5,0-22.6-6.1-28-10.1c-4.1-3.1-5.8-4.4-10.7-4.4c-4.9,0-6.6,1.3-10.7,4.4c-5.4,4-13.5,10.1-28,10.1
		c-14.5,0-22.6-6.1-28-10.1c-4.1-3.1-5.8-4.4-10.7-4.4c-4.9,0-6.6,1.3-10.7,4.4c-5.4,4-13.5,10.1-28,10.1c-14.5,0-22.6-6.1-28-10.1
		c-4.1-3.1-5.8-4.4-10.7-4.4c-4.9,0-6.6,1.3-10.7,4.4c-5.4,4-13.5,10.1-28,10.1c-14.5,0-22.6-6.1-28-10.1c-4.1-3.1-5.8-4.4-10.7-4.4
		c-4.9,0-6.6,1.3-10.7,4.4c-5.4,4-13.5,10.1-28,10.1c-14.5,0-22.6-6.1-28-10.1c-4.1-3.1-5.8-4.4-10.7-4.4c-4.9,0-6.6,1.3-10.7,4.4
		c-5.4,4-13.5,10.1-28,10.1c-14.5,0-22.6-6.1-28-10.1c-4.1-3.1-5.8-4.4-10.7-4.4c-4.9,0-6.6,1.3-10.7,4.4c-5.4,4-13.5,10.1-28,10.1
		c-14.5,0-22.6-6.1-28-10.1c-4.1-3.1-5.8-4.4-10.7-4.4c-4.9,0-6.6,1.3-10.7,4.4c-5.4,4-13.5,10.1-28,10.1c-14.5,0-22.6-6.1-28-10.1
		c-4.1-3.1-5.8-4.4-10.7-4.4c-4.9,0-6.6,1.3-10.7,4.4c-5.4,4-13.5,10.1-28,10.1c-14.5,0-22.6-6.1-28-10.1c-4.1-3.1-5.8-4.4-10.7-4.4
		c-4.9,0-6.6,1.3-10.7,4.4c-5.4,4-13.5,10.1-28,10.1c-14.5,0-22.6-6.1-28-10.1c-4.1-3.1-5.8-4.4-10.7-4.4c-4.9,0-6.6,1.3-10.7,4.4
		c-5.4,4-13.5,10.1-28,10.1c-14.5,0-22.6-6.1-28-10.1c-4.1-3.1-5.8-4.3-10.7-4.3c-4.9,0-6.6,1.3-10.7,4.4c-5.4,4-13.5,10.1-28,10.1
		c-14.5,0-22.6-6.1-28-10.1c-4.1-3.1-5.8-4.4-10.7-4.4c-4.9,0-6.6,1.3-10.7,4.3c-5.4,4-13.5,10.1-28,10.1c-14.5,0-22.6-6.1-28-10.1
		c-4.1-3.1-5.8-4.4-10.7-4.4c-4.9,0-6.6,1.3-10.7,4.3c-5.4,4-13.5,10.1-28,10.1c-14.5,0-22.6-6.1-28-10.1c-4.1-3.1-5.8-4.4-10.7-4.4
		c-8,0-14.5-6.5-14.5-14.5c0-8,6.5-14.5,14.5-14.5c14.5,0,22.6,6.1,28,10.1c4.1,3.1,5.8,4.4,10.7,4.4c4.9,0,6.6-1.3,10.7-4.3
		c5.4-4,13.5-10.1,28-10.1c14.5,0,22.6,6.1,28,10.1c4.1,3.1,5.8,4.4,10.7,4.4c4.9,0,6.6-1.3,10.7-4.3c5.4-4,13.5-10.1,28-10.1
		c14.5,0,22.6,6.1,28,10.1c4.1,3.1,5.8,4.4,10.7,4.4s6.6-1.3,10.7-4.4c5.4-4,13.5-10.1,28-10.1c14.5,0,22.6,6.1,28,10.1
		c4.1,3.1,5.8,4.4,10.7,4.4c4.9,0,6.6-1.3,10.7-4.4c5.4-4,13.5-10.1,28-10.1c14.5,0,22.6,6.1,28,10.1c4.1,3.1,5.8,4.4,10.7,4.4
		c4.9,0,6.6-1.3,10.7-4.4c5.4-4,13.5-10.1,28-10.1c14.5,0,22.6,6.1,28,10.1c4.1,3.1,5.8,4.4,10.7,4.4c4.9,0,6.6-1.3,10.7-4.4
		c5.4-4,13.5-10.1,28-10.1c14.5,0,22.6,6.1,28,10.1c4.1,3.1,5.8,4.4,10.7,4.4c4.9,0,6.6-1.3,10.7-4.4c5.4-4,13.5-10.1,28-10.1
		c14.5,0,22.6,6.1,28,10.1c4.1,3.1,5.8,4.4,10.7,4.4c4.9,0,6.6-1.3,10.7-4.4c5.4-4,13.5-10.1,28-10.1c14.5,0,22.6,6.1,28,10.1
		c4.1,3.1,5.8,4.4,10.7,4.4c4.9,0,6.6-1.3,10.7-4.4c5.4-4,13.5-10.1,28-10.1c14.5,0,22.6,6.1,28,10.1c4.1,3.1,5.8,4.4,10.7,4.4
		c4.9,0,6.6-1.3,10.7-4.4c5.4-4,13.5-10.1,28-10.1c14.5,0,22.6,6.1,28,10.1c4.1,3.1,5.8,4.4,10.7,4.4c4.9,0,6.6-1.3,10.7-4.4
		c5.4-4,13.5-10.1,28-10.1c14.5,0,22.6,6.1,28,10.1c4.1,3.1,5.8,4.4,10.7,4.4c4.9,0,6.6-1.3,10.7-4.4c5.4-4,13.5-10.1,28-10.1
		c14.5,0,22.6,6.1,28,10.1c4.1,3.1,5.8,4.4,10.7,4.4c4.9,0,6.6-1.3,10.7-4.4c5.4-4,13.5-10.1,28-10.1c14.5,0,22.6,6.1,28,10.1
		c4.1,3.1,5.8,4.4,10.7,4.4c4.9,0,6.6-1.3,10.7-4.4c5.4-4,13.5-10.1,28-10.1c14.5,0,22.6,6.1,28,10.1c4.1,3.1,5.8,4.4,10.7,4.4
		c4.9,0,6.6-1.3,10.7-4.4c5.4-4,13.5-10.1,28-10.1c8,0,14.5,6.5,14.5,14.5c0,8-6.5,14.5-14.5,14.5c-4.9,0-6.6,1.3-10.7,4.4
		C1537.4,245.5,1529.3,251.6,1514.8,251.6z"/>
</g>
<g>
	<path class="st0" d="M1517.7,277.3c-14.5,0-22.6-6.1-28-10.1c-4.1-3.1-5.8-4.4-10.7-4.4c-4.9,0-6.6,1.3-10.7,4.4
		c-5.4,4-13.5,10.1-28,10.1c-14.5,0-22.6-6.1-28-10.1c-4.1-3.1-5.8-4.4-10.7-4.4c-4.9,0-6.6,1.3-10.7,4.4c-5.4,4-13.5,10.1-28,10.1
		c-14.5,0-22.6-6.1-28-10.1c-4.1-3.1-5.8-4.4-10.7-4.4c-4.9,0-6.6,1.3-10.7,4.4c-5.4,4-13.5,10.1-28,10.1c-14.5,0-22.6-6.1-28-10.1
		c-4.1-3.1-5.8-4.4-10.7-4.4c-4.9,0-6.6,1.3-10.7,4.4c-5.4,4-13.5,10.1-28,10.1c-14.5,0-22.6-6.1-28-10.1c-4.1-3.1-5.8-4.4-10.7-4.4
		c-4.9,0-6.6,1.3-10.7,4.4c-5.4,4-13.5,10.1-28,10.1c-14.5,0-22.6-6.1-28-10.1c-4.1-3.1-5.8-4.4-10.7-4.4c-4.9,0-6.6,1.3-10.7,4.4
		c-5.4,4-13.5,10.1-28,10.1c-14.5,0-22.6-6.1-28-10.1c-4.1-3.1-5.8-4.4-10.7-4.4c-4.9,0-6.6,1.3-10.7,4.4c-5.4,4-13.5,10.1-28,10.1
		s-22.6-6.1-28-10.1c-4.1-3.1-5.8-4.4-10.7-4.4c-4.9,0-6.6,1.3-10.7,4.4c-5.4,4-13.5,10.1-28,10.1c-14.5,0-22.6-6.1-28-10.1
		c-4.1-3.1-5.8-4.4-10.7-4.4c-4.9,0-6.6,1.3-10.7,4.4c-5.4,4-13.5,10.1-28,10.1c-14.5,0-22.6-6.1-28-10.1c-4.1-3.1-5.8-4.4-10.7-4.4
		c-4.9,0-6.6,1.3-10.7,4.4c-5.4,4-13.5,10.1-28,10.1c-14.5,0-22.6-6.1-28-10.1c-4.1-3.1-5.8-4.4-10.7-4.4c-4.9,0-6.6,1.3-10.7,4.4
		c-5.4,4-13.5,10.1-28,10.1c-14.5,0-22.6-6.1-28-10.1c-4.1-3.1-5.8-4.3-10.7-4.3c-4.9,0-6.6,1.3-10.7,4.4c-5.4,4-13.5,10.1-28,10.1
		c-14.5,0-22.6-6.1-28-10.1c-4.1-3.1-5.8-4.4-10.7-4.4c-4.9,0-6.6,1.3-10.7,4.3c-5.4,4-13.5,10.1-28,10.1c-14.5,0-22.6-6.1-28-10.1
		c-4.1-3.1-5.8-4.4-10.7-4.4c-4.9,0-6.6,1.3-10.7,4.3c-5.4,4-13.5,10.1-28,10.1c-14.5,0-22.6-6.1-28-10.1c-4.1-3.1-5.8-4.4-10.7-4.4
		c-8,0-14.5-6.5-14.5-14.5c0-8,6.5-14.5,14.5-14.5c14.5,0,22.6,6.1,28,10.1c4.1,3.1,5.8,4.4,10.7,4.4c4.9,0,6.6-1.3,10.7-4.3
		c5.4-4,13.5-10.1,28-10.1c14.5,0,22.6,6.1,28,10.1c4.1,3.1,5.8,4.4,10.7,4.4c4.9,0,6.6-1.3,10.7-4.3c5.4-4,13.5-10.1,28-10.1
		c14.5,0,22.6,6.1,28,10.1c4.1,3.1,5.8,4.4,10.7,4.4s6.6-1.3,10.7-4.4c5.4-4,13.5-10.1,28-10.1c14.5,0,22.6,6.1,28,10.1
		c4.1,3.1,5.8,4.4,10.7,4.4c4.9,0,6.6-1.3,10.7-4.4c5.4-4,13.5-10.1,28-10.1c14.5,0,22.6,6.1,28,10.1c4.1,3.1,5.8,4.4,10.7,4.4
		c4.9,0,6.6-1.3,10.7-4.4c5.4-4,13.5-10.1,28-10.1c14.5,0,22.6,6.1,28,10.1c4.1,3.1,5.8,4.4,10.7,4.4c4.9,0,6.6-1.3,10.7-4.4
		c5.4-4,13.5-10.1,28-10.1c14.5,0,22.6,6.1,28,10.1c4.1,3.1,5.8,4.4,10.7,4.4c4.9,0,6.6-1.3,10.7-4.4c5.4-4,13.5-10.1,28-10.1
		c14.5,0,22.6,6.1,28,10.1c4.1,3.1,5.8,4.4,10.7,4.4c4.9,0,6.6-1.3,10.7-4.4c5.4-4,13.5-10.1,28-10.1c14.5,0,22.6,6.1,28,10.1
		c4.1,3.1,5.8,4.4,10.7,4.4c4.9,0,6.6-1.3,10.7-4.4c5.4-4,13.5-10.1,28-10.1c14.5,0,22.6,6.1,28,10.1c4.1,3.1,5.8,4.4,10.7,4.4
		c4.9,0,6.6-1.3,10.7-4.4c5.4-4,13.5-10.1,28-10.1c14.5,0,22.6,6.1,28,10.1c4.1,3.1,5.8,4.4,10.7,4.4c4.9,0,6.6-1.3,10.7-4.4
		c5.4-4,13.5-10.1,28-10.1c14.5,0,22.6,6.1,28,10.1c4.1,3.1,5.8,4.4,10.7,4.4c4.9,0,6.6-1.3,10.7-4.4c5.4-4,13.5-10.1,28-10.1
		c14.5,0,22.6,6.1,28,10.1c4.1,3.1,5.8,4.4,10.7,4.4c4.9,0,6.6-1.3,10.7-4.4c5.4-4,13.5-10.1,28-10.1c14.5,0,22.6,6.1,28,10.1
		c4.1,3.1,5.8,4.4,10.7,4.4c4.9,0,6.6-1.3,10.7-4.4c5.4-4,13.5-10.1,28-10.1c14.5,0,22.6,6.1,28,10.1c4.1,3.1,5.8,4.4,10.7,4.4
		s6.6-1.3,10.7-4.4c5.4-4,13.5-10.1,28-10.1c8,0,14.5,6.5,14.5,14.5c0,8-6.5,14.5-14.5,14.5c-4.9,0-6.6,1.3-10.7,4.4
		C1540.3,271.2,1532.2,277.3,1517.7,277.3z"/>
</g>
<g>
	<path class="st1" d="M1514.8,304.7c-14.5,0-22.6-6.1-28-10.1c-4.1-3.1-5.8-4.4-10.7-4.4c-4.9,0-6.6,1.3-10.7,4.4
		c-5.4,4-13.5,10.1-28,10.1c-14.5,0-22.6-6.1-28-10.1c-4.1-3.1-5.8-4.4-10.7-4.4c-4.9,0-6.6,1.3-10.7,4.4c-5.4,4-13.5,10.1-28,10.1
		c-14.5,0-22.6-6.1-28-10.1c-4.1-3.1-5.8-4.4-10.7-4.4c-4.9,0-6.6,1.3-10.7,4.4c-5.4,4-13.5,10.1-28,10.1c-14.5,0-22.6-6.1-28-10.1
		c-4.1-3.1-5.8-4.4-10.7-4.4c-4.9,0-6.6,1.3-10.7,4.4c-5.4,4-13.5,10.1-28,10.1c-14.5,0-22.6-6.1-28-10.1c-4.1-3.1-5.8-4.4-10.7-4.4
		c-4.9,0-6.6,1.3-10.7,4.4c-5.4,4-13.5,10.1-28,10.1c-14.5,0-22.6-6.1-28-10.1c-4.1-3.1-5.8-4.4-10.7-4.4c-4.9,0-6.6,1.3-10.7,4.4
		c-5.4,4-13.5,10.1-28,10.1c-14.5,0-22.6-6.1-28-10.1c-4.1-3.1-5.8-4.4-10.7-4.4c-4.9,0-6.6,1.3-10.7,4.4c-5.4,4-13.5,10.1-28,10.1
		c-14.5,0-22.6-6.1-28-10.1c-4.1-3.1-5.8-4.4-10.7-4.4c-4.9,0-6.6,1.3-10.7,4.4c-5.4,4-13.5,10.1-28,10.1c-14.5,0-22.6-6.1-28-10.1
		c-4.1-3.1-5.8-4.4-10.7-4.4c-4.9,0-6.6,1.3-10.7,4.4c-5.4,4-13.5,10.1-28,10.1c-14.5,0-22.6-6.1-28-10.1c-4.1-3.1-5.8-4.4-10.7-4.4
		c-4.9,0-6.6,1.3-10.7,4.4c-5.4,4-13.5,10.1-28,10.1c-14.5,0-22.6-6.1-28-10.1c-4.1-3.1-5.8-4.4-10.7-4.4c-4.9,0-6.6,1.3-10.7,4.4
		c-5.4,4-13.5,10.1-28,10.1c-14.5,0-22.6-6.1-28-10.1c-4.1-3.1-5.8-4.3-10.7-4.3c-4.9,0-6.6,1.3-10.7,4.4c-5.4,4-13.5,10.1-28,10.1
		c-14.5,0-22.6-6.1-28-10.1c-4.1-3.1-5.8-4.4-10.7-4.4c-4.9,0-6.6,1.3-10.7,4.3c-5.4,4-13.5,10.1-28,10.1c-14.5,0-22.6-6.1-28-10.1
		c-4.1-3.1-5.8-4.4-10.7-4.4c-4.9,0-6.6,1.3-10.7,4.3c-5.4,4-13.5,10.1-28,10.1c-14.5,0-22.6-6.1-28-10.1c-4.1-3.1-5.8-4.4-10.7-4.4
		c-8,0-14.5-6.5-14.5-14.5c0-8,6.5-14.5,14.5-14.5c14.5,0,22.6,6.1,28,10.1c4.1,3.1,5.8,4.4,10.7,4.4c4.9,0,6.6-1.3,10.7-4.3
		c5.4-4,13.5-10.1,28-10.1c14.5,0,22.6,6.1,28,10.1c4.1,3.1,5.8,4.4,10.7,4.4c4.9,0,6.6-1.3,10.7-4.3c5.4-4,13.5-10.1,28-10.1
		c14.5,0,22.6,6.1,28,10.1c4.1,3.1,5.8,4.4,10.7,4.4s6.6-1.3,10.7-4.4c5.4-4,13.5-10.1,28-10.1c14.5,0,22.6,6.1,28,10.1
		c4.1,3.1,5.8,4.4,10.7,4.4c4.9,0,6.6-1.3,10.7-4.4c5.4-4,13.5-10.1,28-10.1c14.5,0,22.6,6.1,28,10.1c4.1,3.1,5.8,4.4,10.7,4.4
		c4.9,0,6.6-1.3,10.7-4.4c5.4-4,13.5-10.1,28-10.1c14.5,0,22.6,6.1,28,10.1c4.1,3.1,5.8,4.4,10.7,4.4c4.9,0,6.6-1.3,10.7-4.4
		c5.4-4,13.5-10.1,28-10.1c14.5,0,22.6,6.1,28,10.1c4.1,3.1,5.8,4.4,10.7,4.4c4.9,0,6.6-1.3,10.7-4.4c5.4-4,13.5-10.1,28-10.1
		c14.5,0,22.6,6.1,28,10.1c4.1,3.1,5.8,4.4,10.7,4.4c4.9,0,6.6-1.3,10.7-4.4c5.4-4,13.5-10.1,28-10.1c14.5,0,22.6,6.1,28,10.1
		c4.1,3.1,5.8,4.4,10.7,4.4c4.9,0,6.6-1.3,10.7-4.4c5.4-4,13.5-10.1,28-10.1c14.5,0,22.6,6.1,28,10.1c4.1,3.1,5.8,4.4,10.7,4.4
		c4.9,0,6.6-1.3,10.7-4.4c5.4-4,13.5-10.1,28-10.1c14.5,0,22.6,6.1,28,10.1c4.1,3.1,5.8,4.4,10.7,4.4c4.9,0,6.6-1.3,10.7-4.4
		c5.4-4,13.5-10.1,28-10.1c14.5,0,22.6,6.1,28,10.1c4.1,3.1,5.8,4.4,10.7,4.4c4.9,0,6.6-1.3,10.7-4.4c5.4-4,13.5-10.1,28-10.1
		c14.5,0,22.6,6.1,28,10.1c4.1,3.1,5.8,4.4,10.7,4.4c4.9,0,6.6-1.3,10.7-4.4c5.4-4,13.5-10.1,28-10.1c14.5,0,22.6,6.1,28,10.1
		c4.1,3.1,5.8,4.4,10.7,4.4c4.9,0,6.6-1.3,10.7-4.4c5.4-4,13.5-10.1,28-10.1c14.5,0,22.6,6.1,28,10.1c4.1,3.1,5.8,4.4,10.7,4.4
		c4.9,0,6.6-1.3,10.7-4.4c5.4-4,13.5-10.1,28-10.1c8,0,14.5,6.5,14.5,14.5c0,8-6.5,14.5-14.5,14.5c-4.9,0-6.6,1.3-10.7,4.4
		C1537.4,298.7,1529.3,304.7,1514.8,304.7z"/>
</g>
<g>
	<path class="st0" d="M1517.7,332.5c-14.5,0-22.6-6.1-28-10.1c-4.1-3.1-5.8-4.4-10.7-4.4c-4.9,0-6.6,1.3-10.7,4.4
		c-5.4,4-13.5,10.1-28,10.1c-14.5,0-22.6-6.1-28-10.1c-4.1-3.1-5.8-4.4-10.7-4.4c-4.9,0-6.6,1.3-10.7,4.4c-5.4,4-13.5,10.1-28,10.1
		c-14.5,0-22.6-6.1-28-10.1c-4.1-3.1-5.8-4.4-10.7-4.4c-4.9,0-6.6,1.3-10.7,4.4c-5.4,4-13.5,10.1-28,10.1c-14.5,0-22.6-6.1-28-10.1
		c-4.1-3.1-5.8-4.4-10.7-4.4c-4.9,0-6.6,1.3-10.7,4.4c-5.4,4-13.5,10.1-28,10.1c-14.5,0-22.6-6.1-28-10.1c-4.1-3.1-5.8-4.4-10.7-4.4
		c-4.9,0-6.6,1.3-10.7,4.4c-5.4,4-13.5,10.1-28,10.1c-14.5,0-22.6-6.1-28-10.1c-4.1-3.1-5.8-4.4-10.7-4.4c-4.9,0-6.6,1.3-10.7,4.4
		c-5.4,4-13.5,10.1-28,10.1c-14.5,0-22.6-6.1-28-10.1c-4.1-3.1-5.8-4.4-10.7-4.4c-4.9,0-6.6,1.3-10.7,4.4c-5.4,4-13.5,10.1-28,10.1
		s-22.6-6.1-28-10.1c-4.1-3.1-5.8-4.4-10.7-4.4c-4.9,0-6.6,1.3-10.7,4.4c-5.4,4-13.5,10.1-28,10.1c-14.5,0-22.6-6.1-28-10.1
		c-4.1-3.1-5.8-4.4-10.7-4.4c-4.9,0-6.6,1.3-10.7,4.4c-5.4,4-13.5,10.1-28,10.1c-14.5,0-22.6-6.1-28-10.1c-4.1-3.1-5.8-4.4-10.7-4.4
		c-4.9,0-6.6,1.3-10.7,4.4c-5.4,4-13.5,10.1-28,10.1c-14.5,0-22.6-6.1-28-10.1c-4.1-3.1-5.8-4.4-10.7-4.4c-4.9,0-6.6,1.3-10.7,4.4
		c-5.4,4-13.5,10.1-28,10.1c-14.5,0-22.6-6.1-28-10.1c-4.1-3.1-5.8-4.3-10.7-4.3c-4.9,0-6.6,1.3-10.7,4.4c-5.4,4-13.5,10.1-28,10.1
		c-14.5,0-22.6-6.1-28-10.1c-4.1-3.1-5.8-4.4-10.7-4.4c-4.9,0-6.6,1.3-10.7,4.3c-5.4,4-13.5,10.1-28,10.1c-14.5,0-22.6-6.1-28-10.1
		c-4.1-3.1-5.8-4.4-10.7-4.4c-4.9,0-6.6,1.3-10.7,4.3c-5.4,4-13.5,10.1-28,10.1c-14.5,0-22.6-6.1-28-10.1c-4.1-3.1-5.8-4.4-10.7-4.4
		c-8,0-14.5-6.5-14.5-14.5c0-8,6.5-14.5,14.5-14.5c14.5,0,22.6,6.1,28,10.1c4.1,3.1,5.8,4.4,10.7,4.4c4.9,0,6.6-1.3,10.7-4.3
		c5.4-4,13.5-10.1,28-10.1c14.5,0,22.6,6.1,28,10.1c4.1,3.1,5.8,4.4,10.7,4.4c4.9,0,6.6-1.3,10.7-4.3c5.4-4,13.5-10.1,28-10.1
		c14.5,0,22.6,6.1,28,10.1c4.1,3.1,5.8,4.4,10.7,4.4s6.6-1.3,10.7-4.4c5.4-4,13.5-10.1,28-10.1c14.5,0,22.6,6.1,28,10.1
		c4.1,3.1,5.8,4.4,10.7,4.4c4.9,0,6.6-1.3,10.7-4.4c5.4-4,13.5-10.1,28-10.1c14.5,0,22.6,6.1,28,10.1c4.1,3.1,5.8,4.4,10.7,4.4
		c4.9,0,6.6-1.3,10.7-4.4c5.4-4,13.5-10.1,28-10.1c14.5,0,22.6,6.1,28,10.1c4.1,3.1,5.8,4.4,10.7,4.4c4.9,0,6.6-1.3,10.7-4.4
		c5.4-4,13.5-10.1,28-10.1c14.5,0,22.6,6.1,28,10.1c4.1,3.1,5.8,4.4,10.7,4.4c4.9,0,6.6-1.3,10.7-4.4c5.4-4,13.5-10.1,28-10.1
		c14.5,0,22.6,6.1,28,10.1c4.1,3.1,5.8,4.4,10.7,4.4c4.9,0,6.6-1.3,10.7-4.4c5.4-4,13.5-10.1,28-10.1c14.5,0,22.6,6.1,28,10.1
		c4.1,3.1,5.8,4.4,10.7,4.4c4.9,0,6.6-1.3,10.7-4.4c5.4-4,13.5-10.1,28-10.1c14.5,0,22.6,6.1,28,10.1c4.1,3.1,5.8,4.4,10.7,4.4
		c4.9,0,6.6-1.3,10.7-4.4c5.4-4,13.5-10.1,28-10.1c14.5,0,22.6,6.1,28,10.1c4.1,3.1,5.8,4.4,10.7,4.4c4.9,0,6.6-1.3,10.7-4.4
		c5.4-4,13.5-10.1,28-10.1c14.5,0,22.6,6.1,28,10.1c4.1,3.1,5.8,4.4,10.7,4.4c4.9,0,6.6-1.3,10.7-4.4c5.4-4,13.5-10.1,28-10.1
		c14.5,0,22.6,6.1,28,10.1c4.1,3.1,5.8,4.4,10.7,4.4c4.9,0,6.6-1.3,10.7-4.4c5.4-4,13.5-10.1,28-10.1c14.5,0,22.6,6.1,28,10.1
		c4.1,3.1,5.8,4.4,10.7,4.4c4.9,0,6.6-1.3,10.7-4.4c5.4-4,13.5-10.1,28-10.1c14.5,0,22.6,6.1,28,10.1c4.1,3.1,5.8,4.4,10.7,4.4
		s6.6-1.3,10.7-4.4c5.4-4,13.5-10.1,28-10.1c8,0,14.5,6.5,14.5,14.5c0,8-6.5,14.5-14.5,14.5c-4.9,0-6.6,1.3-10.7,4.4
		C1540.3,326.5,1532.2,332.5,1517.7,332.5z"/>
</g>
<g>
	<path class="st1" d="M1514.8,360c-14.5,0-22.6-6.1-28-10.1c-4.1-3.1-5.8-4.4-10.7-4.4c-4.9,0-6.6,1.3-10.7,4.4
		c-5.4,4-13.5,10.1-28,10.1c-14.5,0-22.6-6.1-28-10.1c-4.1-3.1-5.8-4.4-10.7-4.4c-4.9,0-6.6,1.3-10.7,4.4c-5.4,4-13.5,10.1-28,10.1
		c-14.5,0-22.6-6.1-28-10.1c-4.1-3.1-5.8-4.4-10.7-4.4c-4.9,0-6.6,1.3-10.7,4.4c-5.4,4-13.5,10.1-28,10.1c-14.5,0-22.6-6.1-28-10.1
		c-4.1-3.1-5.8-4.4-10.7-4.4c-4.9,0-6.6,1.3-10.7,4.4c-5.4,4-13.5,10.1-28,10.1c-14.5,0-22.6-6.1-28-10.1c-4.1-3.1-5.8-4.4-10.7-4.4
		c-4.9,0-6.6,1.3-10.7,4.4c-5.4,4-13.5,10.1-28,10.1c-14.5,0-22.6-6.1-28-10.1c-4.1-3.1-5.8-4.4-10.7-4.4c-4.9,0-6.6,1.3-10.7,4.4
		c-5.4,4-13.5,10.1-28,10.1c-14.5,0-22.6-6.1-28-10.1c-4.1-3.1-5.8-4.4-10.7-4.4c-4.9,0-6.6,1.3-10.7,4.4c-5.4,4-13.5,10.1-28,10.1
		c-14.5,0-22.6-6.1-28-10.1c-4.1-3.1-5.8-4.4-10.7-4.4c-4.9,0-6.6,1.3-10.7,4.4c-5.4,4-13.5,10.1-28,10.1c-14.5,0-22.6-6.1-28-10.1
		c-4.1-3.1-5.8-4.4-10.7-4.4c-4.9,0-6.6,1.3-10.7,4.4c-5.4,4-13.5,10.1-28,10.1c-14.5,0-22.6-6.1-28-10.1c-4.1-3.1-5.8-4.4-10.7-4.4
		c-4.9,0-6.6,1.3-10.7,4.4c-5.4,4-13.5,10.1-28,10.1c-14.5,0-22.6-6.1-28-10.1c-4.1-3.1-5.8-4.4-10.7-4.4c-4.9,0-6.6,1.3-10.7,4.4
		c-5.4,4-13.5,10.1-28,10.1c-14.5,0-22.6-6.1-28-10.1c-4.1-3.1-5.8-4.3-10.7-4.3c-4.9,0-6.6,1.3-10.7,4.4c-5.4,4-13.5,10.1-28,10.1
		c-14.5,0-22.6-6.1-28-10.1c-4.1-3.1-5.8-4.4-10.7-4.4c-4.9,0-6.6,1.3-10.7,4.3c-5.4,4-13.5,10.1-28,10.1c-14.5,0-22.6-6.1-28-10.1
		c-4.1-3.1-5.8-4.4-10.7-4.4c-4.9,0-6.6,1.3-10.7,4.3c-5.4,4-13.5,10.1-28,10.1c-14.5,0-22.6-6.1-28-10.1c-4.1-3.1-5.8-4.4-10.7-4.4
		c-8,0-14.5-6.5-14.5-14.5c0-8,6.5-14.5,14.5-14.5c14.5,0,22.6,6.1,28,10.1c4.1,3.1,5.8,4.4,10.7,4.4c4.9,0,6.6-1.3,10.7-4.3
		c5.4-4,13.5-10.1,28-10.1c14.5,0,22.6,6.1,28,10.1c4.1,3.1,5.8,4.4,10.7,4.4c4.9,0,6.6-1.3,10.7-4.3c5.4-4,13.5-10.1,28-10.1
		c14.5,0,22.6,6.1,28,10.1c4.1,3.1,5.8,4.4,10.7,4.4s6.6-1.3,10.7-4.4c5.4-4,13.5-10.1,28-10.1c14.5,0,22.6,6.1,28,10.1
		c4.1,3.1,5.8,4.4,10.7,4.4c4.9,0,6.6-1.3,10.7-4.4c5.4-4,13.5-10.1,28-10.1c14.5,0,22.6,6.1,28,10.1c4.1,3.1,5.8,4.4,10.7,4.4
		c4.9,0,6.6-1.3,10.7-4.4c5.4-4,13.5-10.1,28-10.1c14.5,0,22.6,6.1,28,10.1c4.1,3.1,5.8,4.4,10.7,4.4c4.9,0,6.6-1.3,10.7-4.4
		c5.4-4,13.5-10.1,28-10.1c14.5,0,22.6,6.1,28,10.1c4.1,3.1,5.8,4.4,10.7,4.4c4.9,0,6.6-1.3,10.7-4.4c5.4-4,13.5-10.1,28-10.1
		c14.5,0,22.6,6.1,28,10.1c4.1,3.1,5.8,4.4,10.7,4.4c4.9,0,6.6-1.3,10.7-4.4c5.4-4,13.5-10.1,28-10.1c14.5,0,22.6,6.1,28,10.1
		c4.1,3.1,5.8,4.4,10.7,4.4c4.9,0,6.6-1.3,10.7-4.4c5.4-4,13.5-10.1,28-10.1c14.5,0,22.6,6.1,28,10.1c4.1,3.1,5.8,4.4,10.7,4.4
		c4.9,0,6.6-1.3,10.7-4.4c5.4-4,13.5-10.1,28-10.1c14.5,0,22.6,6.1,28,10.1c4.1,3.1,5.8,4.4,10.7,4.4c4.9,0,6.6-1.3,10.7-4.4
		c5.4-4,13.5-10.1,28-10.1c14.5,0,22.6,6.1,28,10.1c4.1,3.1,5.8,4.4,10.7,4.4c4.9,0,6.6-1.3,10.7-4.4c5.4-4,13.5-10.1,28-10.1
		c14.5,0,22.6,6.1,28,10.1c4.1,3.1,5.8,4.4,10.7,4.4c4.9,0,6.6-1.3,10.7-4.4c5.4-4,13.5-10.1,28-10.1c14.5,0,22.6,6.1,28,10.1
		c4.1,3.1,5.8,4.4,10.7,4.4c4.9,0,6.6-1.3,10.7-4.4c5.4-4,13.5-10.1,28-10.1c14.5,0,22.6,6.1,28,10.1c4.1,3.1,5.8,4.4,10.7,4.4
		c4.9,0,6.6-1.3,10.7-4.4c5.4-4,13.5-10.1,28-10.1c8,0,14.5,6.5,14.5,14.5c0,8-6.5,14.5-14.5,14.5c-4.9,0-6.6,1.3-10.7,4.4
		C1537.4,353.9,1529.3,360,1514.8,360z"/>
</g>
<rect x="398" y="53.3" class="st3" width="1156.4" height="279.4"/>
<g>
	<g>
		<path class="st0" d="M1493.4,891.9c-8.1-13.3-21.7-23.1-38.1-25.8c-6.6-1.1-13.2-1-19.5,0.2c6.3-7.8,10.8-17.3,12.5-28
			c5.4-32.7-16.6-63.7-49.2-69.1c-19.4-3.3-38.3,3.4-51.4,16.2c1.8-46.9-31.2-88.9-78.5-96.7c-48.8-8.1-95,23-106.6,70.4
			c-4.4-2.1-9.3-3.8-14.3-4.7c-28.1-4.7-54.6,14.3-59.2,42.5c-1.7,10.2-0.3,20.1,3.5,28.9c-3.3-1.2-6.7-2.2-10.3-2.7
			c-26.8-4.5-52.3,11.5-60.6,36.6c-15.1-14.8-35.8-24-58.7-24c-5.6,0-11.1,0.6-16.4,1.6c7.9-12.4,12.6-27.2,12.6-43.1
			c0-44-35.6-79.7-79.4-79.7c-8,0-15.7,1.2-23,3.4c-5.8-75-68.2-134.2-144.5-134.2c-73.8,0-134.7,55.4-143.8,127.2
			c-16.8-22.9-43.8-37.6-74.2-37.6c-50.9,0-92.3,41.5-92.3,92.7c0,16.6,4.4,32.1,12,45.6c-9.3-3.5-19.2-5.3-29.6-5.3
			c-47.2,0-85.4,38.4-85.4,85.8v150.4h1202.5V891.9H1493.4z"/>
	</g>
</g>
<rect x="398" y="322.8" class="st4" width="1156.4" height="39.3"/>
<ellipse class="st5" cx="1308.1" cy="338.7" rx="26.8" ry="6"/>
<rect x="1301.9" y="121.6" class="st6" width="10.4" height="217.1"/>
<polygon class="st2" points="1376.7,174.9 1245.2,174.9 1228.3,159.3 1245.2,145.6 1376.7,145.6 "/>
<g>
	<g class="st7">
		<path class="st8" d="M1085-44.3l1.7-0.2v-8.1h-1.7v-0.9l3.2-0.7v9.7l1.7,0.2v0.9h-4.8L1085-44.3L1085-44.3z"/>
		<path class="st8" d="M1091.3-44.3l1.7-0.2v-8.1h-1.7v-0.9l3.2-0.7v9.7l1.7,0.2v0.9h-4.9V-44.3L1091.3-44.3z"/>
		<path class="st8" d="M1099.9-53.4v1.9h1.5v1.1h-1.5v4.9c0,0.4,0.1,0.6,0.2,0.8c0.2,0.2,0.4,0.2,0.6,0.2c0.1,0,0.3,0,0.4,0
			c0.2,0,0.3,0,0.4-0.1l0.2,1c-0.1,0.1-0.3,0.2-0.6,0.2c-0.3,0.1-0.5,0.1-0.8,0.1c-0.6,0-1.1-0.2-1.4-0.5c-0.4-0.4-0.5-0.9-0.5-1.7
			v-4.9h-1.3v-1.1h1.3v-1.9H1099.9z"/>
		<path class="st8" d="M1102.7-44.3l1.2-0.2v-9.4l-1.2-0.2V-55h2.7v4.6c0.3-0.4,0.6-0.7,1-0.9s0.8-0.3,1.3-0.3c0.9,0,1.5,0.3,2,0.8
			s0.7,1.3,0.7,2.4v3.9l1.2,0.2v0.9h-3.9v-0.9l1.2-0.2v-3.9c0-0.7-0.1-1.2-0.4-1.5s-0.7-0.5-1.3-0.5c-0.4,0-0.8,0.1-1.1,0.3
			c-0.3,0.2-0.6,0.5-0.8,0.8v4.8l1.2,0.2v0.9h-3.9L1102.7-44.3L1102.7-44.3z"/>
		<path class="st8" d="M1116.5-46.3c0-0.6,0.2-1.1,0.5-1.6c0.4-0.5,0.9-0.9,1.6-1.4c-0.4-0.5-0.7-0.9-0.9-1.3
			c-0.2-0.4-0.3-0.8-0.3-1.2c0-0.8,0.2-1.5,0.7-1.9c0.5-0.5,1.2-0.7,2-0.7s1.4,0.2,1.9,0.7s0.7,1,0.7,1.6c0,0.5-0.1,0.9-0.4,1.3
			s-0.6,0.7-1.2,1.1l-0.8,0.6l2.5,3c0.2-0.3,0.4-0.7,0.5-1.1c0.1-0.4,0.2-0.8,0.2-1.2h1.3c0,0.7-0.1,1.3-0.3,1.8
			c-0.2,0.6-0.5,1.1-0.8,1.5l1.4,1.7l0,0h-1.7l-0.6-0.8c-0.4,0.3-0.8,0.5-1.3,0.7s-1,0.2-1.5,0.2c-1.1,0-1.9-0.3-2.6-0.9
			C1116.8-44.6,1116.5-45.4,1116.5-46.3z M1120-44.4c0.4,0,0.7-0.1,1.1-0.2c0.3-0.1,0.7-0.3,1-0.5l-2.7-3.2l-0.3,0.2
			c-0.5,0.3-0.8,0.7-0.9,1s-0.2,0.6-0.2,0.8c0,0.6,0.2,1,0.5,1.4C1118.8-44.5,1119.3-44.4,1120-44.4z M1118.9-51.8
			c0,0.3,0.1,0.5,0.2,0.8c0.1,0.3,0.3,0.6,0.6,0.9l1-0.7c0.3-0.2,0.5-0.4,0.6-0.6c0.1-0.2,0.2-0.5,0.2-0.7c0-0.3-0.1-0.6-0.4-0.8
			c-0.2-0.2-0.6-0.4-0.9-0.4c-0.4,0-0.7,0.1-0.9,0.4C1119-52.5,1118.9-52.2,1118.9-51.8z"/>
		<path class="st8" d="M1137.7-54.2v0.9l-1.2,0.2v6.7c0,1-0.3,1.7-0.9,2.3s-1.4,0.9-2.4,0.9s-1.9-0.3-2.5-0.8s-0.9-1.3-0.9-2.3l0,0
			h1.4c0,0.7,0.2,1.2,0.5,1.5s0.8,0.5,1.4,0.5c0.5,0,1-0.2,1.3-0.5c0.3-0.4,0.5-0.9,0.5-1.5V-53l-1.2-0.2v-0.9h2.7L1137.7-54.2
			L1137.7-54.2z"/>
		<path class="st8" d="M1144.1-43.4c0-0.2-0.1-0.4-0.1-0.6s0-0.3-0.1-0.5c-0.3,0.4-0.6,0.7-1.1,0.9c-0.4,0.2-0.9,0.4-1.4,0.4
			c-0.8,0-1.5-0.2-1.9-0.6s-0.7-1-0.7-1.7c0-0.8,0.3-1.4,0.9-1.8c0.6-0.4,1.5-0.6,2.5-0.6h1.5v-1c0-0.5-0.1-0.8-0.4-1.1
			s-0.7-0.4-1.2-0.4c-0.4,0-0.7,0-1,0.1s-0.5,0.2-0.7,0.4l-0.2,0.8h-0.9v-1.6c0.4-0.3,0.8-0.5,1.3-0.7s1.1-0.3,1.7-0.3
			c0.9,0,1.7,0.2,2.2,0.7c0.6,0.5,0.8,1.1,0.8,2v3.9c0,0.1,0,0.2,0,0.3s0,0.2,0,0.3l0.6,0.1v0.9h-1.8L1144.1-43.4L1144.1-43.4z
			 M1141.7-44.5c0.5,0,0.9-0.1,1.3-0.4c0.4-0.2,0.7-0.5,0.9-0.8V-47h-1.6c-0.6,0-1.1,0.1-1.4,0.4c-0.4,0.3-0.5,0.6-0.5,1
			s0.1,0.6,0.3,0.8C1140.9-44.5,1141.2-44.5,1141.7-44.5z"/>
		<path class="st8" d="M1150.8-44.4c0.5,0,0.9-0.1,1.3-0.5c0.4-0.3,0.6-0.7,0.6-1.1h1.3l0,0c0,0.7-0.3,1.3-0.9,1.9
			c-0.6,0.5-1.4,0.8-2.2,0.8c-1.2,0-2.1-0.4-2.7-1.1c-0.6-0.8-0.9-1.7-0.9-2.9v-0.3c0-1.1,0.3-2.1,0.9-2.9c0.6-0.8,1.5-1.2,2.7-1.2
			c0.6,0,1.2,0.1,1.7,0.3s0.9,0.5,1.3,0.9l0.1,1.8h-1.2l-0.3-1.3c-0.2-0.2-0.4-0.3-0.7-0.4c-0.3-0.1-0.6-0.2-0.9-0.2
			c-0.8,0-1.3,0.3-1.7,0.8s-0.5,1.2-0.5,2v0.3c0,0.8,0.2,1.5,0.5,2.1C1149.5-44.6,1150-44.4,1150.8-44.4z"/>
		<path class="st8" d="M1155.2-54.1V-55h2.7v6.7h0.9l1.7-2.1l-0.7-0.1v-0.9h3.4v0.9l-1,0.2l-2.1,2.5l2.6,3.3l0.9,0.2v0.9h-3.3v-0.9
			l0.8-0.1l-2.1-2.7h-1v2.6l1.2,0.2v0.9h-3.9v-0.9l1.2-0.2v-9.4L1155.2-54.1z"/>
		<path class="st8" d="M1170.9-48.9h-1.1l-0.2-1c-0.2-0.2-0.4-0.3-0.7-0.4c-0.3-0.1-0.6-0.2-0.9-0.2c-0.5,0-0.9,0.1-1.2,0.3
			c-0.3,0.2-0.4,0.5-0.4,0.8s0.1,0.6,0.3,0.8s0.7,0.3,1.4,0.5c1,0.2,1.8,0.5,2.3,0.9s0.7,0.9,0.7,1.5c0,0.7-0.3,1.3-0.9,1.7
			s-1.3,0.7-2.3,0.7c-0.6,0-1.2-0.1-1.6-0.2c-0.5-0.1-0.9-0.3-1.3-0.6v-1.8h1.1l0.3,1.1c0.2,0.2,0.4,0.3,0.7,0.3
			c0.3,0.1,0.6,0.1,0.9,0.1c0.5,0,0.9-0.1,1.2-0.3c0.3-0.2,0.4-0.5,0.4-0.8s-0.1-0.6-0.4-0.8c-0.2-0.2-0.7-0.4-1.4-0.5
			c-1-0.2-1.7-0.5-2.2-0.9s-0.7-0.9-0.7-1.5c0-0.7,0.3-1.2,0.8-1.7c0.6-0.5,1.3-0.7,2.2-0.7c0.6,0,1.2,0.1,1.6,0.2
			c0.5,0.2,0.9,0.4,1.2,0.7L1170.9-48.9z"/>
		<path class="st8" d="M1172.5-47.5c0-1.2,0.3-2.2,1-2.9c0.6-0.8,1.5-1.2,2.6-1.2s2,0.4,2.6,1.2s1,1.8,1,3v0.2c0,1.2-0.3,2.2-1,3
			c-0.6,0.8-1.5,1.1-2.6,1.1s-2-0.4-2.6-1.2s-1-1.8-1-2.9V-47.5z M1174-47.3c0,0.9,0.2,1.6,0.5,2.1c0.4,0.6,0.9,0.8,1.6,0.8
			s1.2-0.3,1.6-0.8c0.4-0.6,0.5-1.3,0.5-2.1v-0.2c0-0.8-0.2-1.5-0.5-2.1c-0.4-0.6-0.9-0.8-1.6-0.8s-1.2,0.3-1.6,0.8
			c-0.4,0.6-0.5,1.3-0.5,2.1V-47.3z"/>
		<path class="st8" d="M1180.8-44.3l1.2-0.2v-5.8l-1.2-0.2v-0.9h2.5l0.1,1.2c0.3-0.4,0.6-0.8,1-1c0.4-0.2,0.9-0.4,1.4-0.4
			c0.9,0,1.5,0.3,2,0.8s0.7,1.3,0.7,2.4v3.9l1.2,0.2v0.9h-3.9v-0.9l1.2-0.2v-3.9c0-0.7-0.1-1.2-0.4-1.5s-0.7-0.4-1.3-0.4
			c-0.4,0-0.8,0.1-1.1,0.3c-0.3,0.2-0.6,0.5-0.8,0.8v4.7l1.2,0.2v0.9h-3.9v-0.9L1180.8-44.3L1180.8-44.3z"/>
	</g>
</g>
<g>
	<path class="st6" d="M2056.4,913.2c-0.4,0.9-0.8,1.6-1.2,2.2c-0.4,0.6-0.8,1.1-1.3,1.4c-0.2,0.2-0.5,0.3-0.8,0.4
		c-0.3,0.1-0.6,0.1-0.8,0.1l0,0c-0.4,0-0.8-0.1-1-0.4c-0.3-0.3-0.4-0.7-0.4-1.2l0,0l0,0c0-0.3,0.1-0.7,0.2-1.2s0.3-1,0.5-1.6
		c0.1-0.2,0.2-0.6,0.4-1.2c0.2-0.6,0.5-1.3,0.7-2c0-0.1,0.1-0.4,0.3-0.9h-1.3c-0.2,0-0.4-0.2-0.4-0.4s0.2-0.4,0.4-0.4h1.5
		c0.1-0.1,0.1-0.3,0.2-0.4c0.4-1.1,0.8-2.3,0.9-2.5s0.3-0.3,0.5-0.3s0.3,0.3,0.3,0.5c-0.1,0.2-0.5,1.4-0.9,2.5c0,0.1,0,0.1-0.1,0.2
		h1.3c0.2,0,0.4,0.2,0.4,0.4s-0.2,0.4-0.4,0.4h-1.6c-0.2,0.6-0.3,1-0.4,1.2c-0.3,0.8-0.5,1.5-0.7,2s-0.3,0.9-0.4,1.2
		c-0.2,0.6-0.4,1.1-0.5,1.5c-0.1,0.4-0.2,0.8-0.2,1.1l0,0c0,0.3,0.1,0.5,0.2,0.7c0.1,0.1,0.3,0.2,0.4,0.2l0,0c0.2,0,0.4,0,0.6-0.1
		c0.2-0.1,0.4-0.1,0.5-0.3c0.4-0.3,0.7-0.7,1.1-1.2c0.4-0.6,0.7-1.3,1.1-2.1c0.1-0.2,0.4-0.3,0.6-0.2
		C2056.4,912.7,2056.5,912.9,2056.4,913.2z"/>
	<path class="st6" d="M2064.3,913.2L2064.3,913.2c-0.8,1.7-1.8,4.2-3.6,4.2l0,0c-0.6,0-0.9-0.2-1.1-0.6c-0.2-0.3-0.3-0.7-0.3-1.1
		v-0.1c0-0.4,0.1-0.9,0.2-1.4s0.3-1,0.5-1.4c0.1-0.1,0.1-0.2,0.1-0.4c0.3-0.7,0.7-1.8,0.7-2.7c0-0.6-0.3-1-1-1
		c-0.5,0-1.1,0.5-1.6,1.1c-0.7,0.9-1.4,2.2-1.8,3.3l0,0c-0.6,1.5-1.2,3.2-1.4,3.9c-0.1,0.2-0.3,0.3-0.5,0.3
		c-0.2-0.1-0.3-0.3-0.3-0.5c0.2-0.6,0.8-2.3,1.4-3.9l0,0l0,0l0,0c0.6-1.7,1.2-3.3,1.4-3.9l0,0c0.2-0.6,0.3-0.8,0.4-1.1
		c0.2-0.5,0.3-0.9,0.4-1.2l0.1-0.3c0.1-0.3,0.3-0.8,0.5-1.4c0.1-0.2,0.3-0.3,0.5-0.2s0.3,0.3,0.3,0.5c-0.2,0.5-0.4,1-0.5,1.4
		c0,0.1-0.1,0.2-0.1,0.3c-0.2,0.5-0.3,0.9-0.4,1.2l-0.3,0.7c0.6-0.6,1.2-0.9,1.8-0.9c1.4,0,1.9,0.8,1.9,1.9c0,1-0.5,2.2-0.8,3
		c-0.1,0.1-0.1,0.3-0.1,0.4c-0.2,0.5-0.3,0.9-0.5,1.4c-0.1,0.4-0.2,0.8-0.2,1.2l0,0c0,0.2,0,0.5,0.1,0.6c0.1,0.1,0.2,0.2,0.4,0.2
		l0,0c1.2,0,2.2-2.1,2.8-3.6V913c0.1-0.2,0.3-0.3,0.6-0.2C2064.3,912.7,2064.4,912.9,2064.3,913.2z"/>
	<path class="st6" d="M2071.5,913.2c-0.8,1.7-1.7,2.7-2.7,3.4c-1,0.6-2.1,0.8-3.1,0.8l0,0l0,0c-0.7,0-1.4-0.3-1.8-0.7
		c-0.5-0.5-0.8-1.1-0.7-2l0,0l0,0c0-0.5,0.1-1.1,0.3-1.7l0,0c0.1-0.4,0.3-0.9,0.5-1.3c0.5-1,1.1-2,1.7-2.7c0.3-0.3,0.6-0.5,1-0.7
		c0.3-0.2,0.7-0.3,1.1-0.3c0.5,0,0.8,0.1,1.1,0.3c0.3,0.2,0.5,0.5,0.6,0.8s0,0.7-0.1,1c-0.2,0.5-0.5,1-1,1.4s-1.2,0.8-1.8,1.1
		c-0.9,0.4-1.8,0.7-2.3,0.8c-0.1,0.5-0.2,0.9-0.2,1.3l0,0c0,0.6,0.2,1.1,0.5,1.4c0.3,0.3,0.8,0.5,1.3,0.5l0,0c0.8,0,1.7-0.1,2.6-0.7
		c0.9-0.5,1.7-1.5,2.3-3c0.1-0.2,0.3-0.3,0.6-0.2C2071.5,912.7,2071.6,913,2071.5,913.2z M2064.6,912.4c0.5-0.1,1-0.3,1.6-0.6
		s1.2-0.6,1.6-1c0.3-0.3,0.6-0.6,0.7-1c0.1-0.2,0.1-0.4,0-0.6c0-0.1-0.1-0.2-0.2-0.3c-0.1-0.1-0.3-0.2-0.6-0.2
		c-0.2,0-0.5,0.1-0.7,0.2c-0.2,0.1-0.5,0.3-0.7,0.6c-0.6,0.6-1.2,1.5-1.6,2.4C2064.7,912.1,2064.6,912.2,2064.6,912.4z"/>
	<path class="st6" d="M2075.2,913.2c-0.4,0.8-0.8,1.8-1.4,2.6c-0.6,0.9-1.4,1.6-2.3,1.6l0,0c-0.5,0-0.9-0.2-1.1-0.6
		c-0.2-0.3-0.3-0.7-0.3-1.1v-0.1c0-0.3,0.1-0.7,0.2-1.2s0.3-1,0.5-1.6c0.1-0.2,0.2-0.6,0.4-1.2c0.2-0.6,0.5-1.3,0.7-2
		c0-0.1,0.1-0.3,0.2-0.5l0.3-0.9c0.1-0.2,0.3-0.3,0.5-0.3c0.2,0.1,0.3,0.3,0.3,0.5l-0.3,0.9l-0.2,0.5c-0.3,0.8-0.5,1.5-0.7,2
		c-0.2,0.5-0.3,0.9-0.4,1.2c-0.2,0.6-0.4,1.1-0.5,1.5s-0.2,0.8-0.2,1.1l0,0c0,0.2,0,0.5,0.1,0.6c0.1,0.1,0.2,0.2,0.4,0.2l0,0
		c0.6,0,1.1-0.5,1.6-1.2c0.5-0.8,0.9-1.7,1.3-2.5c0.1-0.2,0.4-0.3,0.6-0.2C2075.2,912.7,2075.3,912.9,2075.2,913.2z M2073,906.3
		c0-0.4,0.3-0.7,0.7-0.7c0.4,0,0.7,0.3,0.7,0.7s-0.3,0.7-0.7,0.7C2073.3,906.9,2073,906.6,2073,906.3z"/>
	<path class="st6" d="M2082.5,913.2L2082.5,913.2c-0.8,1.7-1.8,4.2-3.6,4.2l0,0c-0.5,0-0.9-0.2-1.1-0.6c-0.2-0.3-0.3-0.7-0.3-1.1
		v-0.1c0-0.3,0.1-0.7,0.2-1.2s0.3-1,0.5-1.6c0.2-0.5,0.3-0.9,0.4-1.1c0.1-0.4,0.2-0.6,0.4-1l-0.3-0.1c-0.6-0.2-1.2-0.4-1.8-0.7
		c-0.1,0.2-0.1,0.4-0.2,0.5l0,0l-1.6,3.5c-0.1,0.2-0.3,0.3-0.6,0.2c-0.2-0.1-0.3-0.3-0.2-0.6l1.6-3.5c0.1-0.2,0.2-0.4,0.2-0.6
		c-0.7-0.5-1.1-1-1-1.9c0-0.3,0.2-0.6,0.4-0.8l0,0c0.2-0.2,0.5-0.3,0.8-0.3c0.1,0,0.2,0,0.3,0l0,0c0.3,0.1,0.5,0.3,0.6,0.5
		c0.1,0.2,0.2,0.5,0.2,0.7s0,0.4-0.1,0.6s-0.1,0.4-0.2,0.7c0.6,0.3,1.2,0.5,1.8,0.7c0.3,0.1,0.5,0.2,0.8,0.2
		c0.2,0.1,0.3,0.3,0.2,0.6l0,0c-0.2,0.6-0.3,0.9-0.5,1.4c-0.1,0.3-0.2,0.6-0.4,1.1c-0.2,0.6-0.4,1.1-0.5,1.5
		c-0.1,0.4-0.2,0.8-0.2,1.1l0,0c0,0.2,0,0.5,0.2,0.6c0.1,0.1,0.2,0.2,0.4,0.2c1.3,0,2.2-2.1,2.8-3.6v-0.1c0.1-0.2,0.3-0.3,0.6-0.2
		C2082.5,912.7,2082.6,912.9,2082.5,913.2z M2076.5,907.8c0-0.1,0-0.2-0.1-0.3c0-0.1-0.1-0.1-0.1-0.1l0,0h-0.1c-0.1,0-0.2,0-0.2,0.1
		l0,0c-0.1,0.1-0.1,0.2-0.1,0.3c0,0.4,0.2,0.7,0.5,0.9c0.1-0.2,0.1-0.3,0.2-0.5C2076.5,908,2076.5,907.9,2076.5,907.8z"/>
	<path class="st6" d="M2093,913.2L2093,913.2c-0.8,1.7-1.8,4.2-3.6,4.2l0,0l0,0c-0.5,0-0.9-0.2-1.1-0.6c-0.2-0.2-0.2-0.5-0.3-0.8
		c-0.6,0.8-1.3,1.4-2.2,1.4l0,0c-0.5,0-0.9-0.2-1.1-0.6c-0.2-0.3-0.3-0.7-0.3-1.1v-0.1c0-0.3,0.1-0.7,0.2-1.2c0.1-0.5,0.3-1,0.5-1.6
		c0.1-0.3,0.3-0.9,0.6-1.6c0.3-0.9,0.7-2,1.1-3c0.1-0.2,0.3-0.3,0.5-0.2c0.2,0.1,0.3,0.3,0.2,0.5c-0.4,1.2-0.8,2.2-1.1,3
		c-0.3,0.7-0.5,1.3-0.6,1.6c-0.2,0.6-0.4,1.1-0.5,1.5c-0.1,0.4-0.2,0.8-0.2,1.1l0,0c0,0.2,0,0.5,0.1,0.6s0.2,0.2,0.5,0.2
		c1.2,0,2.2-2.1,2.8-3.6l0,0c0,0,0,0,0-0.1c0.1-0.3,0.3-0.9,0.6-1.6c0.4-0.9,0.7-2,1.1-3c0.1-0.2,0.3-0.3,0.5-0.2s0.3,0.3,0.3,0.5
		c-0.4,1.2-0.8,2.2-1.1,3c-0.3,0.7-0.5,1.3-0.6,1.6l0,0v0.1c-0.2,0.5-0.3,1-0.4,1.4c-0.1,0.4-0.2,0.8-0.2,1.1l0,0
		c0,0.2,0,0.5,0.1,0.6s0.2,0.2,0.4,0.2l0,0c1.2,0,2.2-2.1,2.8-3.6v-0.1c0.1-0.2,0.3-0.3,0.6-0.2C2093,912.7,2093.1,912.9,2093,913.2
		z"/>
	<path class="st6" d="M2098.5,913.8L2098.5,913.8L2098.5,913.8c0,1.2-0.5,2.1-1.2,2.7s-1.6,0.9-2.4,0.9l0,0c-0.1,0-0.1,0-0.2,0
		c-0.8,0-1.5-0.4-2-0.9s-0.8-1.2-0.8-1.9c0-0.1,0-0.1,0-0.2c0.1-0.7,0.3-1.4,0.8-2c0.5-0.5,1.1-0.8,1.9-0.8c0.5,0,1,0.2,1.4,0.6
		c0.3,0.3,0.5,0.8,0.6,1.4c0,0.2-0.2,0.4-0.4,0.4c-0.2,0-0.4-0.2-0.4-0.4c0-0.3-0.1-0.6-0.3-0.8c-0.2-0.2-0.5-0.3-0.7-0.3
		c-0.5,0-1,0.2-1.3,0.6c-0.4,0.4-0.6,0.9-0.6,1.4v0.1c0,0.5,0.2,1,0.5,1.4c0.3,0.4,0.9,0.6,1.4,0.7c0.1,0,0.1,0,0.2,0l0,0
		c0.7,0,1.4-0.2,1.9-0.7c0.5-0.4,0.9-1.1,0.9-2l0,0c0-1-0.5-1.8-1-2.7c-0.1-0.2-0.2-0.4-0.3-0.6c-0.1,0.1-0.3,0.3-0.4,0.5
		c-0.2,0.2-0.4,0.2-0.6,0c-0.2-0.1-0.2-0.4-0.1-0.6c0.2-0.3,0.4-0.5,0.7-0.7l0,0c-0.2-0.6-0.4-1.1-0.3-1.7c0-0.2,0.1-0.4,0.2-0.6
		l0,0c0.1-0.2,0.2-0.3,0.3-0.5c0.1-0.1,0.3-0.2,0.4-0.3c0.2-0.1,0.3-0.1,0.5-0.1c0.3,0,0.5,0.1,0.7,0.3s0.2,0.4,0.3,0.7
		c0,0.2,0,0.4-0.1,0.6c0,0.2-0.1,0.4-0.2,0.6c-0.2,0.5-0.5,0.9-0.8,1.2c0.1,0.3,0.3,0.5,0.4,0.8
		C2097.9,911.6,2098.5,912.6,2098.5,913.8z M2097,908.3c0.1-0.1,0.1-0.3,0.1-0.4c0-0.1,0.1-0.2,0-0.4c0-0.1,0-0.1,0-0.2
		c0,0,0,0-0.1,0h-0.1c-0.1,0-0.1,0.1-0.2,0.1c-0.1,0.1-0.1,0.1-0.2,0.2l0,0c0,0.1-0.1,0.2-0.1,0.3c0,0.3,0,0.6,0.1,0.9
		C2096.7,908.8,2096.8,908.5,2097,908.3z"/>
	<path class="st6" d="M2107.9,913.2L2107.9,913.2c-0.8,1.7-1.8,4.2-3.6,4.2l0,0l0,0c-0.5,0-0.9-0.2-1.1-0.6
		c-0.2-0.2-0.2-0.5-0.3-0.8c-0.6,0.8-1.3,1.4-2.2,1.4l0,0c-0.5,0-0.9-0.2-1.1-0.6c-0.2-0.3-0.3-0.7-0.3-1.1v-0.1
		c0-0.3,0.1-0.7,0.2-1.2s0.3-1,0.5-1.6c0.1-0.3,0.3-0.9,0.6-1.6c0.3-0.9,0.7-2,1.1-3c0.1-0.2,0.3-0.3,0.5-0.2s0.3,0.3,0.2,0.5
		c-0.4,1.2-0.8,2.2-1.1,3c-0.3,0.7-0.5,1.3-0.6,1.6c-0.2,0.6-0.4,1.1-0.5,1.5s-0.2,0.8-0.2,1.1l0,0c0,0.2,0,0.5,0.1,0.6
		c0.1,0.1,0.2,0.2,0.5,0.2c1.2,0,2.2-2.1,2.8-3.6l0,0c0,0,0,0,0-0.1c0.1-0.3,0.3-0.9,0.6-1.6c0.4-0.9,0.7-2,1.1-3
		c0.1-0.2,0.3-0.3,0.5-0.2c0.2,0.1,0.3,0.3,0.3,0.5c-0.4,1.2-0.8,2.2-1.1,3c-0.3,0.7-0.5,1.3-0.6,1.6l0,0v0.1
		c-0.2,0.5-0.3,1-0.4,1.4s-0.2,0.8-0.2,1.1l0,0c0,0.2,0,0.5,0.1,0.6c0.1,0.1,0.2,0.2,0.4,0.2l0,0c1.2,0,2.2-2.1,2.8-3.6v-0.1
		c0.1-0.2,0.3-0.3,0.6-0.2C2107.9,912.7,2108,912.9,2107.9,913.2z"/>
	<path class="st6" d="M2115.9,913.2L2115.9,913.2c-0.8,1.7-1.8,4.2-3.6,4.2l0,0c-0.5,0-0.9-0.2-1.1-0.6c-0.2-0.3-0.3-0.7-0.3-1.1
		l0,0c-0.7,1-1.5,1.7-2.5,1.6c-0.6,0-1-0.3-1.2-0.7c-0.3-0.4-0.4-1-0.4-1.6c0-1.1,0.6-3.3,1.6-5c0.7-1.2,1.7-2.1,2.8-2.2
		c0.1,0,0.1,0,0.2,0c0.5,0,1,0.3,1.4,0.7c0.1,0.1,0.2,0.2,0.3,0.4c0.1-0.3,0.2-0.6,0.3-0.9c0.1-0.2,0.3-0.3,0.5-0.2s0.3,0.3,0.2,0.5
		c-0.2,0.6-0.6,1.6-1,2.7c-0.3,0.7-0.5,1.4-0.7,2s-0.4,1.1-0.5,1.5s-0.2,0.8-0.2,1.1l0,0c0,0.2,0,0.5,0.1,0.6
		c0.1,0.1,0.2,0.2,0.5,0.2c1.2,0,2.2-2.1,2.8-3.6v-0.1c0.1-0.2,0.3-0.3,0.6-0.2C2115.9,912.7,2116,912.9,2115.9,913.2z
		 M2111.9,911.5c0.2-0.4,0.3-0.8,0.5-1.1c0-0.1,0-0.1,0-0.1c0-0.5-0.1-0.8-0.4-1.1c-0.2-0.2-0.5-0.4-0.8-0.4h-0.1
		c-0.8,0-1.5,0.8-2.1,1.8c-0.9,1.5-1.4,3.5-1.5,4.5c0,0.5,0.1,0.9,0.2,1.1c0.1,0.2,0.3,0.3,0.6,0.3
		C2110,916.5,2111.1,913.5,2111.9,911.5z"/>
	<path class="st6" d="M2120.1,913.2c-0.4,0.9-0.8,1.6-1.2,2.2c-0.4,0.6-0.8,1.1-1.3,1.4c-0.2,0.2-0.5,0.3-0.8,0.4
		c-0.3,0.1-0.6,0.1-0.8,0.1l0,0c-0.4,0-0.8-0.1-1-0.4c-0.3-0.3-0.4-0.7-0.4-1.2l0,0l0,0c0-0.3,0.1-0.8,0.2-1.2
		c0.1-0.5,0.3-1,0.5-1.6c0.5-1.6,1.1-3.2,1.7-4.9l0.4-1.3l0.1-0.3c0.1-0.3,0.3-0.8,0.5-1.4c0.1-0.2,0.3-0.3,0.5-0.3
		c0.2,0.1,0.3,0.3,0.3,0.5c-0.2,0.5-0.4,1.1-0.5,1.4c0,0.1-0.1,0.2-0.1,0.4l-0.4,1.3c-0.6,1.6-1.1,3.2-1.7,4.9
		c-0.2,0.6-0.3,1.1-0.5,1.5c-0.1,0.4-0.2,0.8-0.2,1l0,0c0,0.3,0.1,0.5,0.2,0.7c0.1,0.1,0.3,0.2,0.4,0.2l0,0c0.2,0,0.4,0,0.6-0.1
		s0.4-0.1,0.5-0.3c0.4-0.3,0.7-0.7,1.1-1.2c0.4-0.6,0.7-1.3,1.1-2.1c0.1-0.2,0.4-0.3,0.6-0.2
		C2120.1,912.7,2120.2,912.9,2120.1,913.2z"/>
	<path class="st6" d="M2128.8,913.8L2128.8,913.8L2128.8,913.8c0,1.2-0.5,2.1-1.2,2.7s-1.6,0.9-2.4,0.9l0,0c-0.1,0-0.1,0-0.2,0
		c-0.8,0-1.5-0.4-2-0.9s-0.8-1.2-0.8-1.9c0-0.1,0-0.1,0-0.2c0.1-0.7,0.3-1.4,0.8-2c0.5-0.5,1.1-0.8,1.9-0.8c0.5,0,1,0.2,1.4,0.6
		c0.3,0.3,0.5,0.8,0.6,1.4c0,0.2-0.2,0.4-0.4,0.4c-0.2,0-0.4-0.2-0.4-0.4c0-0.3-0.1-0.6-0.3-0.8s-0.5-0.3-0.7-0.3
		c-0.5,0-1,0.2-1.3,0.6c-0.4,0.4-0.6,0.9-0.6,1.4v0.1c0,0.5,0.2,1,0.5,1.4c0.3,0.4,0.9,0.6,1.4,0.7c0.1,0,0.1,0,0.2,0l0,0
		c0.7,0,1.4-0.2,1.9-0.7c0.5-0.4,0.9-1.1,0.9-2l0,0c0-1-0.5-1.8-1-2.7c-0.1-0.2-0.2-0.4-0.3-0.6c-0.1,0.1-0.3,0.3-0.4,0.5
		c-0.2,0.2-0.4,0.2-0.6,0c-0.2-0.1-0.2-0.4-0.1-0.6c0.2-0.3,0.4-0.5,0.7-0.7l0,0c-0.2-0.6-0.4-1.1-0.3-1.7c0-0.2,0.1-0.4,0.2-0.6
		l0,0c0.1-0.2,0.2-0.3,0.3-0.5c0.1-0.1,0.3-0.2,0.4-0.3c0.2-0.1,0.3-0.1,0.5-0.1c0.3,0,0.5,0.1,0.7,0.3s0.2,0.4,0.3,0.7
		c0,0.2,0,0.4-0.1,0.6c0,0.2-0.1,0.4-0.2,0.6c-0.2,0.5-0.5,0.9-0.8,1.2c0.1,0.3,0.3,0.5,0.4,0.8
		C2128.2,911.6,2128.8,912.6,2128.8,913.8z M2127.3,908.3c0.1-0.1,0.1-0.3,0.1-0.4c0-0.1,0.1-0.2,0-0.4c0-0.1,0-0.1,0-0.2
		c0,0,0,0-0.1,0h-0.1c-0.1,0-0.1,0.1-0.2,0.1c-0.1,0.1-0.1,0.1-0.2,0.2l0,0c0,0.1-0.1,0.2-0.1,0.3c0,0.3,0,0.6,0.1,0.9
		C2127,908.8,2127.2,908.5,2127.3,908.3z"/>
	<path class="st6" d="M2138.6,913.1c0,0.1-0.1,0.3-0.2,0.4c-0.1,0.1-0.1,0.2-0.2,0.3c-0.3,0.5-0.6,1-1,1.4c-0.4,0.4-1,0.7-1.7,0.7
		c-0.2,0-0.4,0-0.6-0.1c-0.3-0.1-0.6-0.2-0.8-0.5c-0.8,1.1-1.8,1.9-3,1.8l0,0l0,0l0,0c-0.7,0-1.2-0.4-1.4-0.8
		c-0.9,2.5-1.7,4.7-1.9,5.3c-0.1,0.2-0.3,0.3-0.5,0.3c-0.2-0.1-0.3-0.3-0.3-0.5c0.2-0.6,1.2-3.4,2.2-6.2c1.1-3.1,2.3-6.3,2.5-6.9
		c0-0.1,0.1-0.2,0.1-0.3c0.1-0.2,0.3-0.3,0.5-0.3c0.2,0.1,0.3,0.3,0.3,0.5l-0.2,0.4c0.6-0.6,1.2-1,2-1c0.6,0,1,0.3,1.3,0.7
		c0.3,0.4,0.4,1,0.4,1.6v0.1l0,0c-0.1,1.1-0.6,2.9-1.4,4.4c0,0.1-0.1,0.1-0.1,0.2c0.2,0.2,0.4,0.3,0.6,0.4c0.1,0,0.2,0,0.4,0
		c0.5,0,0.8-0.2,1.2-0.5c0.3-0.3,0.6-0.8,0.8-1.2c0-0.1,0.1-0.2,0.2-0.3c0-0.1,0.1-0.2,0.1-0.4c0.1-0.2,0.3-0.3,0.6-0.2
		C2138.6,912.7,2138.7,912.9,2138.6,913.1z M2134.4,913.1c-0.1,0.2-0.1,0.4-0.1,0.5c0.6-1.2,0.9-2.5,1-3.4l0,0v-0.1l0,0
		c0-0.5,0-0.9-0.2-1.1c-0.1-0.2-0.3-0.3-0.6-0.3c-1.6,0-2.8,3-3.6,5l-0.1,0.3c-0.1,0.5-0.3,1-0.3,1.4c0,0.6,0.1,1,0.7,1l0,0l0,0
		c0.9,0,1.8-0.7,2.4-1.7c-0.1-0.3-0.2-0.6-0.2-1c0-0.3,0-0.6,0.1-1c0.1-0.2,0.3-0.4,0.5-0.3C2134.3,912.6,2134.4,912.9,2134.4,913.1
		z"/>
	<path class="st6" d="M2146.3,913.1c-0.1,0.1-0.1,0.3-0.2,0.4s-0.1,0.2-0.2,0.3c-0.3,0.5-0.6,1-1,1.4c-0.5,0.4-1,0.7-1.7,0.7
		c-0.2,0-0.4,0-0.6-0.1c-0.3-0.1-0.6-0.3-0.9-0.5c-0.7,1-1.7,1.8-2.7,1.8c-3.3,0-1.1-5.5,0-7.3c0.7-1.2,1.7-2.1,2.8-2.1l0,0
		c0.6,0,1.1,0.2,1.5,0.7c0.3,0.4,0.5,0.9,0.5,1.6c0,1.3-0.7,3.1-1.5,4.6c0.1,0.2,0.4,0.3,0.6,0.4c0.1,0,0.2,0,0.3,0
		c0.5,0,0.9-0.2,1.2-0.5c0.3-0.3,0.6-0.8,0.8-1.2c0.1-0.1,0.1-0.2,0.2-0.3c0.1-0.1,0.1-0.2,0.2-0.4c0.1-0.2,0.3-0.3,0.6-0.2
		C2146.3,912.7,2146.4,912.9,2146.3,913.1z M2142.1,913.1c-0.1,0.2-0.1,0.3-0.1,0.5c0.6-1.2,1-2.5,1-3.4c0-0.5-0.1-0.8-0.3-1
		s-0.5-0.4-0.9-0.4c-0.8,0-1.5,0.7-2,1.7c-0.8,1.3-2.7,6-0.7,6c0.7,0,1.6-0.8,2.2-1.7c-0.1-0.3-0.2-0.6-0.2-0.9s0-0.6,0.1-1
		c0.1-0.2,0.3-0.4,0.5-0.3C2142,912.6,2142.2,912.9,2142.1,913.1z"/>
	<path class="st6" d="M2150.4,913.2c-0.4,0.9-0.8,1.6-1.2,2.2c-0.4,0.6-0.8,1.1-1.3,1.4c-0.2,0.2-0.5,0.3-0.8,0.4
		c-0.3,0.1-0.6,0.1-0.8,0.1l0,0c-0.4,0-0.8-0.1-1-0.4c-0.3-0.3-0.4-0.7-0.4-1.2l0,0l0,0c0-0.3,0.1-0.7,0.2-1.2s0.3-1,0.5-1.6
		c0.1-0.2,0.2-0.6,0.4-1.2c0.2-0.6,0.5-1.3,0.7-2c0-0.1,0.1-0.4,0.3-0.9h-1.3c-0.2,0-0.4-0.2-0.4-0.4s0.2-0.4,0.4-0.4h1.5
		c0.1-0.1,0.1-0.3,0.2-0.4c0.4-1.1,0.8-2.3,0.9-2.5s0.3-0.3,0.5-0.3c0.2,0.1,0.3,0.3,0.3,0.5c-0.1,0.2-0.5,1.4-0.9,2.5
		c0,0.1,0,0.1-0.1,0.2h1.3c0.2,0,0.4,0.2,0.4,0.4s-0.2,0.4-0.4,0.4h-1.6c-0.2,0.6-0.3,1-0.4,1.2c-0.3,0.8-0.5,1.5-0.7,2
		s-0.3,0.9-0.4,1.2c-0.2,0.6-0.4,1.1-0.5,1.5c-0.1,0.4-0.2,0.8-0.2,1.1l0,0c0,0.3,0.1,0.5,0.2,0.7c0.1,0.1,0.3,0.2,0.4,0.2l0,0
		c0.2,0,0.4,0,0.6-0.1c0.2-0.1,0.4-0.1,0.5-0.3c0.4-0.3,0.7-0.7,1.1-1.2c0.4-0.6,0.7-1.3,1.1-2.1c0.1-0.2,0.4-0.3,0.6-0.2
		C2150.4,912.7,2150.5,912.9,2150.4,913.2z"/>
</g>
<g>
	<path class="st6" d="M2033.4,910.2l-6.7,2.5l5,2.3c0.3,0.1,0.4,0.4,0.3,0.7c-0.1,0.2-0.4,0.4-0.7,0.2l-6.2-2.7
		c-0.1,0-0.2-0.1-0.3-0.3c-0.1-0.3,0-0.6,0.3-0.7l7.9-3c0.3-0.1,0.6,0,0.7,0.3C2033.8,909.8,2033.7,910.1,2033.4,910.2z"/>
	<path class="st6" d="M2045.3,910.2l-6.7,2.5l5,2.3c0.3,0.1,0.4,0.4,0.3,0.7c-0.1,0.2-0.4,0.4-0.7,0.2l-6.2-2.7
		c-0.1,0-0.2-0.1-0.3-0.3c-0.1-0.3,0-0.6,0.3-0.7l7.9-3c0.3-0.1,0.6,0,0.7,0.3C2045.6,909.8,2045.5,910.1,2045.3,910.2z"/>
</g>
<path class="st9" d="M202.3,285c0.4-2.7,2.9-4.6,5.6-4.2c2.7,0.4,4.6,2.9,4.2,5.6c-1.9,13.8-2.9,38.6,2.8,46.4
	c4.2,5.7,10.2,7.2,14.4,7.4l-2.9-54.9c0-13.7,11.1-24.9,24.9-24.9c13.7,0,24.9,11.1,24.9,24.9l-3.8,71.6c5.8-2.1,10.6-4.6,12.9-7.4
	c7.5-9.1,2.2-20.1,1.9-20.6c-1.2-2.4-0.3-5.4,2.2-6.6c2.4-1.2,5.4-0.3,6.6,2.2c0.1,0.2,0.7,1.3,1.3,3.2c1.9,5.6,4.3,17.5-4.4,28.1
	c-4.2,5.1-12.4,8.9-21,11.7l-2,37.5h-37.2l-2.9-55c-6.4-0.1-16.1-2.1-22.9-11.4C197,325,201.7,289.1,202.3,285"/>
<g>
	<path class="st8" d="M1215.5,453.4v-1.2l4.3-4.7c0.8-0.9,1.3-1.5,1.6-2c0.3-0.5,0.4-1,0.4-1.5c0-0.7-0.2-1.2-0.6-1.6
		s-0.9-0.7-1.5-0.7c-0.9,0-1.6,0.2-2,0.7s-0.6,1.1-0.6,2h-1.7v-0.1c0-1.1,0.3-2.1,1.1-2.8c0.8-0.8,1.8-1.1,3.2-1.1
		c1.2,0,2.1,0.3,2.8,1c0.7,0.7,1,1.6,1,2.6c0,0.7-0.2,1.4-0.6,2.1s-1,1.5-1.8,2.3l-3.4,3.7l0,0h4.6l0.1-1.5h1.5v2.9L1215.5,453.4
		L1215.5,453.4z"/>
	<path class="st8" d="M1232.9,449h1.8v1.4h-1.8v1.6l1.5,0.3v1.1h-4.7v-1.1l1.5-0.3v-1.6h-5.9v-1l5.7-9h1.9V449z M1227.2,449h4v-6.1
		h-0.1l-0.2,0.5L1227.2,449z"/>
	<path class="st8" d="M1239.2,441.4v2.3h1.8v1.3h-1.8v5.9c0,0.5,0.1,0.8,0.3,1c0.2,0.2,0.4,0.3,0.7,0.3c0.2,0,0.3,0,0.5,0
		s0.4-0.1,0.5-0.1l0.2,1.2c-0.2,0.1-0.4,0.2-0.7,0.3c-0.3,0.1-0.6,0.1-1,0.1c-0.7,0-1.3-0.2-1.7-0.6s-0.6-1.1-0.6-2v-5.9h-1.5v-1.5
		h1.5v-2.3H1239.2z"/>
	<path class="st8" d="M1242.6,452.3l1.5-0.3v-11.2l-1.5-0.3v-1.1h3.2v5.6c0.3-0.5,0.7-0.8,1.2-1.1c0.5-0.3,1-0.4,1.6-0.4
		c1,0,1.8,0.3,2.4,0.9s0.9,1.6,0.9,2.9v4.7l1.5,0.3v1.1h-4.7v-1.1l1.5-0.3v-4.7c0-0.8-0.2-1.4-0.5-1.8s-0.9-0.6-1.5-0.6
		c-0.5,0-0.9,0.1-1.3,0.3c-0.4,0.2-0.7,0.5-1,0.9v5.8l1.5,0.3v1.1h-4.7L1242.6,452.3L1242.6,452.3z"/>
	<path class="st8" d="M1259.1,449.9c0-0.7,0.2-1.4,0.6-1.9s1-1.1,1.9-1.6c-0.5-0.6-0.8-1.1-1-1.6s-0.3-0.9-0.3-1.4
		c0-1,0.3-1.8,0.9-2.3s1.4-0.8,2.4-0.8c0.9,0,1.7,0.3,2.3,0.8s0.9,1.2,0.9,2c0,0.6-0.2,1.1-0.5,1.5s-0.8,0.9-1.4,1.3l-1,0.7l3,3.7
		c0.2-0.4,0.4-0.8,0.6-1.3c0.1-0.5,0.2-1,0.2-1.5h1.6c0,0.8-0.1,1.5-0.3,2.2s-0.6,1.3-1,1.8l1.7,2l0,0h-2l-0.8-0.9
		c-0.5,0.4-1,0.6-1.6,0.8c-0.6,0.2-1.2,0.3-1.8,0.3c-1.3,0-2.3-0.3-3.1-1C1259.5,451.9,1259.1,451,1259.1,449.9z M1263.4,452.2
		c0.4,0,0.9-0.1,1.3-0.2s0.8-0.4,1.2-0.6l-3.2-3.9l-0.4,0.3c-0.5,0.4-0.9,0.8-1.1,1.2c-0.2,0.4-0.3,0.7-0.3,1c0,0.7,0.2,1.2,0.6,1.7
		C1261.9,452,1262.6,452.2,1263.4,452.2z M1262,443.3c0,0.3,0.1,0.6,0.2,1s0.4,0.7,0.7,1.1l1.2-0.9c0.3-0.2,0.6-0.5,0.7-0.7
		c0.1-0.3,0.2-0.6,0.2-0.9c0-0.4-0.1-0.7-0.4-1s-0.7-0.4-1.1-0.4c-0.5,0-0.9,0.2-1.1,0.5C1262.1,442.4,1262,442.8,1262,443.3z"/>
	<path class="st8" d="M1285.6,451.9c-0.4,0.4-0.9,0.8-1.7,1.1c-0.7,0.4-1.7,0.5-2.9,0.5c-1.7,0-3.2-0.6-4.3-1.8
		c-1.1-1.2-1.7-2.8-1.7-4.8v-0.2c0-2,0.5-3.6,1.6-4.8c1.1-1.2,2.5-1.8,4.3-1.8c1,0,1.8,0.2,2.5,0.5s1.3,0.7,1.8,1.2v2.4h-1.2
		l-0.4-1.8c-0.3-0.2-0.6-0.4-1.1-0.6s-0.9-0.2-1.5-0.2c-1.4,0-2.5,0.5-3.3,1.4s-1.1,2.2-1.1,3.7v0.2c0,1.6,0.4,2.8,1.1,3.8
		s1.8,1.4,3,1.4c0.7,0,1.3-0.1,1.7-0.2c0.5-0.1,0.8-0.3,1.1-0.5v-2.7l-2.1-0.1v-1.3h3.9v4.6H1285.6z"/>
</g>
<g>
	<path class="st8" d="M1265.9,157.4c0,0.6-0.2,1.1-0.5,1.5c-0.3,0.4-0.8,0.8-1.3,1c0.6,0.2,1.2,0.6,1.5,1.1c0.4,0.5,0.6,1,0.6,1.7
		c0,1-0.3,1.8-1,2.4s-1.5,0.8-2.6,0.8c-1.1,0-2-0.3-2.6-0.8s-1-1.3-1-2.4c0-0.6,0.2-1.2,0.6-1.7c0.4-0.5,0.9-0.8,1.5-1.1
		c-0.6-0.2-1-0.5-1.3-1c-0.3-0.4-0.5-0.9-0.5-1.5c0-1,0.3-1.7,0.9-2.3c0.6-0.5,1.4-0.8,2.4-0.8c1,0,1.8,0.3,2.4,0.8
		C1265.6,155.6,1265.9,156.4,1265.9,157.4z M1264.7,162.6c0-0.6-0.2-1.1-0.6-1.5c-0.4-0.4-0.9-0.6-1.5-0.6c-0.6,0-1.1,0.2-1.5,0.6
		c-0.4,0.4-0.6,0.9-0.6,1.5c0,0.6,0.2,1.1,0.6,1.5c0.4,0.4,0.9,0.5,1.5,0.5c0.6,0,1.1-0.2,1.5-0.5S1264.7,163.2,1264.7,162.6z
		 M1264.4,157.4c0-0.6-0.2-1-0.5-1.4s-0.8-0.5-1.3-0.5c-0.5,0-1,0.2-1.3,0.5c-0.3,0.4-0.5,0.8-0.5,1.4c0,0.6,0.2,1,0.5,1.4
		s0.8,0.5,1.3,0.5c0.5,0,1-0.2,1.3-0.5S1264.4,158,1264.4,157.4z"/>
	<path class="st8" d="M1273.9,161.9h1.5v1.2h-1.5v1.4l1.3,0.2v1h-4v-1l1.3-0.2v-1.4h-5v-0.9l4.9-7.8h1.6V161.9z M1269,161.9h3.4
		v-5.3l0,0l-0.2,0.4L1269,161.9z"/>
	<path class="st8" d="M1279.3,155.3v2h1.6v1.1h-1.6v5.1c0,0.4,0.1,0.7,0.2,0.8c0.2,0.2,0.4,0.2,0.6,0.2c0.1,0,0.3,0,0.5,0
		c0.2,0,0.3,0,0.4-0.1l0.2,1c-0.1,0.1-0.4,0.2-0.6,0.2c-0.3,0.1-0.6,0.1-0.8,0.1c-0.6,0-1.1-0.2-1.5-0.6c-0.4-0.4-0.5-1-0.5-1.7
		v-5.1h-1.3v-1.1h1.3v-2H1279.3z"/>
	<path class="st8" d="M1282.2,164.7l1.3-0.2v-9.6l-1.3-0.2v-1h2.8v4.8c0.3-0.4,0.6-0.7,1.1-0.9c0.4-0.2,0.9-0.3,1.4-0.3
		c0.9,0,1.6,0.3,2.1,0.8c0.5,0.5,0.7,1.4,0.7,2.5v4l1.3,0.2v1h-4v-1l1.3-0.2v-4c0-0.7-0.1-1.2-0.4-1.5c-0.3-0.3-0.7-0.5-1.3-0.5
		c-0.4,0-0.8,0.1-1.1,0.3s-0.6,0.5-0.8,0.8v5l1.3,0.2v1h-4V164.7z"/>
	<path class="st8" d="M1296.4,162.6c0-0.6,0.2-1.2,0.5-1.6s0.9-0.9,1.6-1.4c-0.4-0.5-0.7-1-0.9-1.4c-0.2-0.4-0.3-0.8-0.3-1.2
		c0-0.9,0.2-1.5,0.8-2c0.5-0.5,1.2-0.7,2.1-0.7c0.8,0,1.5,0.2,2,0.7c0.5,0.5,0.8,1,0.8,1.7c0,0.5-0.1,0.9-0.4,1.3
		c-0.3,0.4-0.7,0.7-1.2,1.1l-0.8,0.6l2.6,3.1c0.2-0.3,0.4-0.7,0.5-1.1c0.1-0.4,0.2-0.8,0.2-1.3h1.4c0,0.7-0.1,1.3-0.3,1.9
		s-0.5,1.1-0.9,1.5l1.4,1.7l0,0h-1.8l-0.7-0.8c-0.4,0.3-0.9,0.5-1.4,0.7c-0.5,0.2-1,0.2-1.5,0.2c-1.1,0-2-0.3-2.7-0.9
		C1296.7,164.3,1296.4,163.6,1296.4,162.6z M1300.1,164.6c0.4,0,0.7-0.1,1.1-0.2s0.7-0.3,1-0.5l-2.8-3.3l-0.3,0.2
		c-0.5,0.3-0.8,0.7-0.9,1s-0.2,0.6-0.2,0.9c0,0.6,0.2,1.1,0.5,1.4C1298.8,164.4,1299.4,164.6,1300.1,164.6z M1298.9,157
		c0,0.3,0.1,0.6,0.2,0.8c0.1,0.3,0.3,0.6,0.6,1l1.1-0.7c0.3-0.2,0.5-0.4,0.6-0.6c0.1-0.2,0.2-0.5,0.2-0.8c0-0.3-0.1-0.6-0.4-0.8
		c-0.2-0.2-0.6-0.4-1-0.4c-0.4,0-0.7,0.1-1,0.4C1299,156.2,1298.9,156.6,1298.9,157z"/>
	<path class="st8" d="M1318.9,157.9h-1.1l-0.3-1.6c-0.2-0.2-0.5-0.4-0.9-0.6s-0.8-0.2-1.3-0.2c-1.2,0-2.1,0.4-2.7,1.3
		c-0.6,0.8-0.9,1.9-0.9,3.2v0.2c0,1.3,0.3,2.4,0.9,3.2s1.5,1.3,2.5,1.3c0.5,0,1-0.1,1.4-0.2c0.4-0.2,0.7-0.4,1-0.6l0.3-1.6h1.1v2
		c-0.3,0.4-0.8,0.8-1.5,1.1c-0.6,0.3-1.4,0.5-2.2,0.5c-1.5,0-2.6-0.5-3.6-1.6s-1.4-2.4-1.4-4.1V160c0-1.6,0.5-3,1.4-4.1
		c0.9-1.1,2.1-1.6,3.6-1.6c0.9,0,1.6,0.2,2.2,0.5c0.6,0.3,1.1,0.7,1.5,1.1V157.9z"/>
	<path class="st8" d="M1324.3,165.8c-1.2,0-2.1-0.4-2.8-1.2c-0.7-0.8-1-1.8-1-3v-0.3c0-1.2,0.4-2.2,1.1-3c0.7-0.8,1.5-1.2,2.5-1.2
		c1.1,0,2,0.3,2.5,1c0.6,0.7,0.9,1.6,0.9,2.7v0.9h-5.4l0,0c0,0.8,0.2,1.5,0.6,2c0.4,0.5,0.9,0.8,1.6,0.8c0.5,0,1-0.1,1.3-0.2
		s0.7-0.3,1-0.6l0.6,1c-0.3,0.3-0.7,0.5-1.2,0.7C1325.6,165.7,1325,165.8,1324.3,165.8z M1324.1,158.4c-0.5,0-0.9,0.2-1.3,0.6
		c-0.4,0.4-0.6,1-0.7,1.6l0,0h3.8v-0.2c0-0.6-0.2-1.1-0.5-1.5C1325.2,158.6,1324.7,158.4,1324.1,158.4z"/>
	<path class="st8" d="M1328.7,164.7l1.3-0.2v-5.9l-1.3-0.2v-1h2.6l0.1,1.2c0.3-0.4,0.6-0.8,1-1c0.4-0.2,0.9-0.4,1.4-0.4
		c0.9,0,1.6,0.3,2.1,0.8c0.5,0.5,0.7,1.3,0.7,2.4v4.1l1.3,0.2v1h-4v-1l1.3-0.2v-4c0-0.7-0.1-1.3-0.4-1.6c-0.3-0.3-0.7-0.5-1.3-0.5
		c-0.4,0-0.8,0.1-1.2,0.3c-0.3,0.2-0.6,0.5-0.8,0.9v4.9l1.3,0.2v1h-4V164.7z"/>
	<path class="st8" d="M1341.7,155.3v2h1.6v1.1h-1.6v5.1c0,0.4,0.1,0.7,0.2,0.8c0.2,0.2,0.4,0.2,0.6,0.2c0.1,0,0.3,0,0.5,0
		c0.2,0,0.3,0,0.4-0.1l0.2,1c-0.1,0.1-0.4,0.2-0.6,0.2c-0.3,0.1-0.6,0.1-0.8,0.1c-0.6,0-1.1-0.2-1.5-0.6c-0.4-0.4-0.5-1-0.5-1.7
		v-5.1h-1.3v-1.1h1.3v-2H1341.7z"/>
	<path class="st8" d="M1348.7,165.8c-1.2,0-2.1-0.4-2.8-1.2c-0.7-0.8-1-1.8-1-3v-0.3c0-1.2,0.4-2.2,1.1-3c0.7-0.8,1.5-1.2,2.5-1.2
		c1.1,0,2,0.3,2.5,1c0.6,0.7,0.9,1.6,0.9,2.7v0.9h-5.4l0,0c0,0.8,0.2,1.5,0.6,2c0.4,0.5,0.9,0.8,1.6,0.8c0.5,0,1-0.1,1.3-0.2
		s0.7-0.3,1-0.6l0.6,1c-0.3,0.3-0.7,0.5-1.2,0.7C1349.9,165.7,1349.3,165.8,1348.7,165.8z M1348.4,158.4c-0.5,0-0.9,0.2-1.3,0.6
		c-0.4,0.4-0.6,1-0.7,1.6l0,0h3.8v-0.2c0-0.6-0.2-1.1-0.5-1.5C1349.5,158.6,1349.1,158.4,1348.4,158.4z"/>
	<path class="st8" d="M1353.3,158.3v-1h2.6l0.1,1.2c0.2-0.4,0.5-0.8,0.9-1c0.3-0.2,0.7-0.4,1.2-0.4c0.1,0,0.2,0,0.4,0
		c0.1,0,0.2,0,0.3,0.1l-0.2,1.4l-0.9,0c-0.4,0-0.7,0.1-1,0.3c-0.3,0.2-0.5,0.4-0.6,0.8v4.8l1.3,0.2v1h-4v-1l1.3-0.2v-5.9
		L1353.3,158.3z"/>
</g>
</svg>
