<?xml version="1.0" encoding="utf-8"?>
<!-- Generator: Adobe Illustrator 19.1.0, SVG Export Plug-In . SVG Version: 6.00 Build 0)  -->
<svg version="1.1" id="Layer_1" xmlns="http://www.w3.org/2000/svg" xmlns:xlink="http://www.w3.org/1999/xlink" x="0px" y="0px"
	 viewBox="146 253 1156.4 360" style="enable-background:new 146 253 1156.4 360;" xml:space="preserve">
<style type="text/css">
	.st0{fill:#F4EC8F;}
	.st1{fill:#50516A;}
	.st2{fill:#E6E7E8;}
	.st3{fill:#D3CB7D;}
	.st4{fill:#505169;}
	.st5{fill:#00A79F;}
	.st6{fill:#F9F7F8;}
</style>
<rect x="146" y="575" class="st0" width="1156.4" height="39.3"/>
<g>
	<path class="st1" d="M1512.4,660.2c-0.4,0.9-0.8,1.6-1.2,2.2c-0.4,0.6-0.8,1.1-1.3,1.4c-0.2,0.2-0.5,0.3-0.8,0.4s-0.6,0.1-0.8,0.1
		l0,0c-0.4,0-0.8-0.1-1-0.4c-0.3-0.3-0.4-0.7-0.4-1.2l0,0l0,0c0-0.3,0.1-0.7,0.2-1.2s0.3-1,0.5-1.6c0.1-0.2,0.2-0.6,0.4-1.2
		c0.2-0.6,0.5-1.3,0.7-2c0-0.1,0.1-0.4,0.3-0.9h-1.3c-0.2,0-0.4-0.2-0.4-0.4c0-0.2,0.2-0.4,0.4-0.4h1.5c0.1-0.1,0.1-0.3,0.2-0.4
		c0.4-1.1,0.8-2.3,0.9-2.5c0.1-0.2,0.3-0.3,0.5-0.3s0.3,0.3,0.3,0.5c-0.1,0.2-0.5,1.4-0.9,2.5c0,0.1,0,0.1-0.1,0.2h1.3
		c0.2,0,0.4,0.2,0.4,0.4c0,0.2-0.2,0.4-0.4,0.4h-1.6c-0.2,0.6-0.3,1-0.4,1.2c-0.3,0.8-0.5,1.5-0.7,2s-0.3,0.9-0.4,1.2
		c-0.2,0.6-0.4,1.1-0.5,1.5c-0.1,0.4-0.2,0.8-0.2,1.1l0,0c0,0.3,0.1,0.5,0.2,0.7c0.1,0.1,0.3,0.2,0.4,0.2l0,0c0.2,0,0.4,0,0.6-0.1
		c0.2-0.1,0.4-0.1,0.5-0.3c0.4-0.3,0.7-0.7,1.1-1.2c0.4-0.6,0.7-1.3,1.1-2.1c0.1-0.2,0.4-0.3,0.6-0.2
		C1512.4,659.7,1512.5,659.9,1512.4,660.2z"/>
	<path class="st1" d="M1520.3,660.2L1520.3,660.2c-0.8,1.7-1.8,4.2-3.6,4.2l0,0c-0.6,0-0.9-0.2-1.1-0.6c-0.2-0.3-0.3-0.7-0.3-1.1
		v-0.1c0-0.4,0.1-0.9,0.2-1.4s0.3-1,0.5-1.4c0.1-0.1,0.1-0.2,0.1-0.4c0.3-0.7,0.7-1.8,0.7-2.7c0-0.6-0.3-1-1-1
		c-0.5,0-1.1,0.5-1.6,1.1c-0.7,0.9-1.4,2.2-1.8,3.3l0,0c-0.6,1.5-1.2,3.2-1.4,3.9c-0.1,0.2-0.3,0.3-0.5,0.3
		c-0.2-0.1-0.3-0.3-0.3-0.5c0.2-0.6,0.8-2.3,1.4-3.9l0,0l0,0l0,0c0.6-1.7,1.2-3.3,1.4-3.9l0,0c0.2-0.6,0.3-0.8,0.4-1.1
		c0.2-0.5,0.3-0.9,0.4-1.2l0.1-0.3c0.1-0.3,0.3-0.8,0.5-1.4c0.1-0.2,0.3-0.3,0.5-0.2c0.2,0.1,0.3,0.3,0.3,0.5
		c-0.2,0.5-0.4,1-0.5,1.4c0,0.1-0.1,0.2-0.1,0.3c-0.2,0.5-0.3,0.9-0.4,1.2l-0.3,0.7c0.6-0.6,1.2-0.9,1.8-0.9c1.4,0,1.9,0.8,1.9,1.9
		c0,1-0.5,2.2-0.8,3c-0.1,0.1-0.1,0.3-0.1,0.4c-0.2,0.5-0.3,0.9-0.5,1.4c-0.1,0.4-0.2,0.8-0.2,1.2l0,0c0,0.2,0,0.5,0.1,0.6
		s0.2,0.2,0.4,0.2l0,0c1.2,0,2.2-2.1,2.8-3.6V660c0.1-0.2,0.3-0.3,0.6-0.2C1520.3,659.7,1520.4,659.9,1520.3,660.2z"/>
	<path class="st1" d="M1527.5,660.2c-0.8,1.7-1.7,2.7-2.7,3.4c-1,0.6-2.1,0.8-3.1,0.8l0,0l0,0c-0.7,0-1.4-0.3-1.8-0.7
		c-0.5-0.5-0.8-1.1-0.7-2l0,0l0,0c0-0.5,0.1-1.1,0.3-1.7l0,0c0.1-0.4,0.3-0.9,0.5-1.3c0.5-1,1.1-2,1.7-2.7c0.3-0.3,0.6-0.5,1-0.7
		c0.3-0.2,0.7-0.3,1.1-0.3c0.5,0,0.8,0.1,1.1,0.3c0.3,0.2,0.5,0.5,0.6,0.8c0.1,0.3,0,0.7-0.1,1c-0.2,0.5-0.5,1-1,1.4
		s-1.2,0.8-1.8,1.1c-0.9,0.4-1.8,0.7-2.3,0.8c-0.1,0.5-0.2,0.9-0.2,1.3l0,0c0,0.6,0.2,1.1,0.5,1.4s0.8,0.5,1.3,0.5l0,0
		c0.8,0,1.7-0.1,2.6-0.7c0.9-0.5,1.7-1.5,2.3-3c0.1-0.2,0.3-0.3,0.6-0.2C1527.5,659.7,1527.6,660,1527.5,660.2z M1520.6,659.4
		c0.5-0.1,1-0.3,1.6-0.6s1.2-0.6,1.6-1c0.3-0.3,0.6-0.6,0.7-1c0.1-0.2,0.1-0.4,0-0.6c0-0.1-0.1-0.2-0.2-0.3
		c-0.1-0.1-0.3-0.2-0.6-0.2c-0.2,0-0.5,0.1-0.7,0.2c-0.2,0.1-0.5,0.3-0.7,0.6c-0.6,0.6-1.2,1.5-1.6,2.4
		C1520.7,659.1,1520.6,659.2,1520.6,659.4z"/>
	<path class="st1" d="M1531.2,660.2c-0.4,0.8-0.8,1.8-1.4,2.6c-0.6,0.9-1.4,1.6-2.3,1.6l0,0c-0.5,0-0.9-0.2-1.1-0.6
		c-0.2-0.3-0.3-0.7-0.3-1.1v-0.1c0-0.3,0.1-0.7,0.2-1.2s0.3-1,0.5-1.6c0.1-0.2,0.2-0.6,0.4-1.2c0.2-0.6,0.5-1.3,0.7-2
		c0-0.1,0.1-0.3,0.2-0.5l0.3-0.9c0.1-0.2,0.3-0.3,0.5-0.3c0.2,0.1,0.3,0.3,0.3,0.5l-0.3,0.9l-0.2,0.5c-0.3,0.8-0.5,1.5-0.7,2
		s-0.3,0.9-0.4,1.2c-0.2,0.6-0.4,1.1-0.5,1.5s-0.2,0.8-0.2,1.1l0,0c0,0.2,0,0.5,0.1,0.6s0.2,0.2,0.4,0.2l0,0c0.6,0,1.1-0.5,1.6-1.2
		c0.5-0.8,0.9-1.7,1.3-2.5c0.1-0.2,0.4-0.3,0.6-0.2C1531.2,659.7,1531.3,659.9,1531.2,660.2z M1529,653.3c0-0.4,0.3-0.7,0.7-0.7
		c0.4,0,0.7,0.3,0.7,0.7c0,0.4-0.3,0.7-0.7,0.7C1529.3,653.9,1529,653.6,1529,653.3z"/>
	<path class="st1" d="M1538.5,660.2L1538.5,660.2c-0.8,1.7-1.8,4.2-3.6,4.2l0,0c-0.5,0-0.9-0.2-1.1-0.6c-0.2-0.3-0.3-0.7-0.3-1.1
		v-0.1c0-0.3,0.1-0.7,0.2-1.2s0.3-1,0.5-1.6c0.2-0.5,0.3-0.9,0.4-1.1c0.1-0.4,0.2-0.6,0.4-1l-0.3-0.1c-0.6-0.2-1.2-0.4-1.8-0.7
		c-0.1,0.2-0.1,0.4-0.2,0.5l0,0l-1.6,3.5c-0.1,0.2-0.3,0.3-0.6,0.2c-0.2-0.1-0.3-0.3-0.2-0.6l1.6-3.5c0.1-0.2,0.2-0.4,0.2-0.6
		c-0.7-0.5-1.1-1-1-1.9c0-0.3,0.2-0.6,0.4-0.8l0,0c0.2-0.2,0.5-0.3,0.8-0.3c0.1,0,0.2,0,0.3,0l0,0c0.3,0.1,0.5,0.3,0.6,0.5
		c0.1,0.2,0.2,0.5,0.2,0.7c0,0.2,0,0.4-0.1,0.6s-0.1,0.4-0.2,0.7c0.6,0.3,1.2,0.5,1.8,0.7c0.3,0.1,0.5,0.2,0.8,0.2
		c0.2,0.1,0.3,0.3,0.2,0.6l0,0c-0.2,0.6-0.3,0.9-0.5,1.4c-0.1,0.3-0.2,0.6-0.4,1.1c-0.2,0.6-0.4,1.1-0.5,1.5
		c-0.1,0.4-0.2,0.8-0.2,1.1l0,0c0,0.2,0,0.5,0.2,0.6c0.1,0.1,0.2,0.2,0.4,0.2c1.3,0,2.2-2.1,2.8-3.6v-0.1c0.1-0.2,0.3-0.3,0.6-0.2
		C1538.5,659.7,1538.6,659.9,1538.5,660.2z M1532.5,654.8c0-0.1,0-0.2-0.1-0.3c0-0.1-0.1-0.1-0.1-0.1l0,0h-0.1c-0.1,0-0.2,0-0.2,0.1
		l0,0c-0.1,0.1-0.1,0.2-0.1,0.3c0,0.4,0.2,0.7,0.5,0.9c0.1-0.2,0.1-0.3,0.2-0.5C1532.5,655,1532.5,654.9,1532.5,654.8z"/>
	<path class="st1" d="M1549,660.2L1549,660.2c-0.8,1.7-1.8,4.2-3.6,4.2l0,0l0,0c-0.5,0-0.9-0.2-1.1-0.6c-0.2-0.2-0.2-0.5-0.3-0.8
		c-0.6,0.8-1.3,1.4-2.2,1.4l0,0c-0.5,0-0.9-0.2-1.1-0.6c-0.2-0.3-0.3-0.7-0.3-1.1v-0.1c0-0.3,0.1-0.7,0.2-1.2s0.3-1,0.5-1.6
		c0.1-0.3,0.3-0.9,0.6-1.6c0.3-0.9,0.7-2,1.1-3c0.1-0.2,0.3-0.3,0.5-0.2s0.3,0.3,0.2,0.5c-0.4,1.2-0.8,2.2-1.1,3
		c-0.3,0.7-0.5,1.3-0.6,1.6c-0.2,0.6-0.4,1.1-0.5,1.5s-0.2,0.8-0.2,1.1l0,0c0,0.2,0,0.5,0.1,0.6s0.2,0.2,0.5,0.2
		c1.2,0,2.2-2.1,2.8-3.6l0,0c0,0,0,0,0-0.1c0.1-0.3,0.3-0.9,0.6-1.6c0.4-0.9,0.7-2,1.1-3c0.1-0.2,0.3-0.3,0.5-0.2s0.3,0.3,0.3,0.5
		c-0.4,1.2-0.8,2.2-1.1,3c-0.3,0.7-0.5,1.3-0.6,1.6l0,0v0.1c-0.2,0.5-0.3,1-0.4,1.4s-0.2,0.8-0.2,1.1l0,0c0,0.2,0,0.5,0.1,0.6
		s0.2,0.2,0.4,0.2l0,0c1.2,0,2.2-2.1,2.8-3.6v-0.1c0.1-0.2,0.3-0.3,0.6-0.2C1549,659.7,1549.1,659.9,1549,660.2z"/>
	<path class="st1" d="M1554.5,660.8L1554.5,660.8L1554.5,660.8c0,1.2-0.5,2.1-1.2,2.7s-1.6,0.9-2.4,0.9l0,0c-0.1,0-0.1,0-0.2,0
		c-0.8,0-1.5-0.4-2-0.9s-0.8-1.2-0.8-1.9c0-0.1,0-0.1,0-0.2c0.1-0.7,0.3-1.4,0.8-2c0.5-0.5,1.1-0.8,1.9-0.8c0.5,0,1,0.2,1.4,0.6
		c0.3,0.3,0.5,0.8,0.6,1.4c0,0.2-0.2,0.4-0.4,0.4s-0.4-0.2-0.4-0.4c0-0.3-0.1-0.6-0.3-0.8c-0.2-0.2-0.5-0.3-0.7-0.3
		c-0.5,0-1,0.2-1.3,0.6c-0.4,0.4-0.6,0.9-0.6,1.4v0.1c0,0.5,0.2,1,0.5,1.4c0.3,0.4,0.9,0.6,1.4,0.7c0.1,0,0.1,0,0.2,0l0,0
		c0.7,0,1.4-0.2,1.9-0.7c0.5-0.4,0.9-1.1,0.9-2l0,0c0-1-0.5-1.8-1-2.7c-0.1-0.2-0.2-0.4-0.3-0.6c-0.1,0.1-0.3,0.3-0.4,0.5
		c-0.2,0.2-0.4,0.2-0.6,0c-0.2-0.1-0.2-0.4-0.1-0.6c0.2-0.3,0.4-0.5,0.7-0.7l0,0c-0.2-0.6-0.4-1.1-0.3-1.7c0-0.2,0.1-0.4,0.2-0.6
		l0,0c0.1-0.2,0.2-0.3,0.3-0.5c0.1-0.1,0.3-0.2,0.4-0.3c0.2-0.1,0.3-0.1,0.5-0.1c0.3,0,0.5,0.1,0.7,0.3c0.2,0.2,0.2,0.4,0.3,0.7
		c0,0.2,0,0.4-0.1,0.6c0,0.2-0.1,0.4-0.2,0.6c-0.2,0.5-0.5,0.9-0.8,1.2c0.1,0.3,0.3,0.5,0.4,0.8
		C1553.9,658.6,1554.5,659.6,1554.5,660.8z M1553,655.3c0.1-0.1,0.1-0.3,0.1-0.4c0-0.1,0.1-0.2,0-0.4c0-0.1,0-0.1,0-0.2
		c0,0,0,0-0.1,0h-0.1c-0.1,0-0.1,0.1-0.2,0.1c-0.1,0.1-0.1,0.1-0.2,0.2l0,0c0,0.1-0.1,0.2-0.1,0.3c0,0.3,0,0.6,0.1,0.9
		C1552.7,655.8,1552.8,655.5,1553,655.3z"/>
	<path class="st1" d="M1563.9,660.2L1563.9,660.2c-0.8,1.7-1.8,4.2-3.6,4.2l0,0l0,0c-0.5,0-0.9-0.2-1.1-0.6
		c-0.2-0.2-0.2-0.5-0.3-0.8c-0.6,0.8-1.3,1.4-2.2,1.4l0,0c-0.5,0-0.9-0.2-1.1-0.6c-0.2-0.3-0.3-0.7-0.3-1.1v-0.1
		c0-0.3,0.1-0.7,0.2-1.2s0.3-1,0.5-1.6c0.1-0.3,0.3-0.9,0.6-1.6c0.3-0.9,0.7-2,1.1-3c0.1-0.2,0.3-0.3,0.5-0.2s0.3,0.3,0.2,0.5
		c-0.4,1.2-0.8,2.2-1.1,3c-0.3,0.7-0.5,1.3-0.6,1.6c-0.2,0.6-0.4,1.1-0.5,1.5s-0.2,0.8-0.2,1.1l0,0c0,0.2,0,0.5,0.1,0.6
		s0.2,0.2,0.5,0.2c1.2,0,2.2-2.1,2.8-3.6l0,0c0,0,0,0,0-0.1c0.1-0.3,0.3-0.9,0.6-1.6c0.4-0.9,0.7-2,1.1-3c0.1-0.2,0.3-0.3,0.5-0.2
		s0.3,0.3,0.3,0.5c-0.4,1.2-0.8,2.2-1.1,3c-0.3,0.7-0.5,1.3-0.6,1.6l0,0v0.1c-0.2,0.5-0.3,1-0.4,1.4s-0.2,0.8-0.2,1.1l0,0
		c0,0.2,0,0.5,0.1,0.6s0.2,0.2,0.4,0.2l0,0c1.2,0,2.2-2.1,2.8-3.6v-0.1c0.1-0.2,0.3-0.3,0.6-0.2
		C1563.9,659.7,1564,659.9,1563.9,660.2z"/>
	<path class="st1" d="M1571.9,660.2L1571.9,660.2c-0.8,1.7-1.8,4.2-3.6,4.2l0,0c-0.5,0-0.9-0.2-1.1-0.6c-0.2-0.3-0.3-0.7-0.3-1.1
		l0,0c-0.7,1-1.5,1.7-2.5,1.6c-0.6,0-1-0.3-1.2-0.7c-0.3-0.4-0.4-1-0.4-1.6c0-1.1,0.6-3.3,1.6-5c0.7-1.2,1.7-2.1,2.8-2.2
		c0.1,0,0.1,0,0.2,0c0.5,0,1,0.3,1.4,0.7c0.1,0.1,0.2,0.2,0.3,0.4c0.1-0.3,0.2-0.6,0.3-0.9c0.1-0.2,0.3-0.3,0.5-0.2
		c0.2,0.1,0.3,0.3,0.2,0.5c-0.2,0.6-0.6,1.6-1,2.7c-0.3,0.7-0.5,1.4-0.7,2s-0.4,1.1-0.5,1.5s-0.2,0.8-0.2,1.1l0,0
		c0,0.2,0,0.5,0.1,0.6s0.2,0.2,0.5,0.2c1.2,0,2.2-2.1,2.8-3.6v-0.1c0.1-0.2,0.3-0.3,0.6-0.2C1571.9,659.7,1572,659.9,1571.9,660.2z
		 M1567.9,658.5c0.2-0.4,0.3-0.8,0.5-1.1c0-0.1,0-0.1,0-0.1c0-0.5-0.1-0.8-0.4-1.1c-0.2-0.2-0.5-0.4-0.8-0.4h-0.1
		c-0.8,0-1.5,0.8-2.1,1.8c-0.9,1.5-1.4,3.5-1.5,4.5c0,0.5,0.1,0.9,0.2,1.1c0.1,0.2,0.3,0.3,0.6,0.3
		C1566,663.5,1567.1,660.5,1567.9,658.5z"/>
	<path class="st1" d="M1576.1,660.2c-0.4,0.9-0.8,1.6-1.2,2.2c-0.4,0.6-0.8,1.1-1.3,1.4c-0.2,0.2-0.5,0.3-0.8,0.4s-0.6,0.1-0.8,0.1
		l0,0c-0.4,0-0.8-0.1-1-0.4c-0.3-0.3-0.4-0.7-0.4-1.2l0,0l0,0c0-0.3,0.1-0.8,0.2-1.2c0.1-0.5,0.3-1,0.5-1.6c0.5-1.6,1.1-3.2,1.7-4.9
		l0.4-1.3l0.1-0.3c0.1-0.3,0.3-0.8,0.5-1.4c0.1-0.2,0.3-0.3,0.5-0.3c0.2,0.1,0.3,0.3,0.3,0.5c-0.2,0.5-0.4,1.1-0.5,1.4
		c0,0.1-0.1,0.2-0.1,0.4l-0.4,1.3c-0.6,1.6-1.1,3.2-1.7,4.9c-0.2,0.6-0.3,1.1-0.5,1.5c-0.1,0.4-0.2,0.8-0.2,1l0,0
		c0,0.3,0.1,0.5,0.2,0.7c0.1,0.1,0.3,0.2,0.4,0.2l0,0c0.2,0,0.4,0,0.6-0.1c0.2-0.1,0.4-0.1,0.5-0.3c0.4-0.3,0.7-0.7,1.1-1.2
		c0.4-0.6,0.7-1.3,1.1-2.1c0.1-0.2,0.4-0.3,0.6-0.2C1576.1,659.7,1576.2,659.9,1576.1,660.2z"/>
	<path class="st1" d="M1584.8,660.8L1584.8,660.8L1584.8,660.8c0,1.2-0.5,2.1-1.2,2.7s-1.6,0.9-2.4,0.9l0,0c-0.1,0-0.1,0-0.2,0
		c-0.8,0-1.5-0.4-2-0.9s-0.8-1.2-0.8-1.9c0-0.1,0-0.1,0-0.2c0.1-0.7,0.3-1.4,0.8-2c0.5-0.5,1.1-0.8,1.9-0.8c0.5,0,1,0.2,1.4,0.6
		c0.3,0.3,0.5,0.8,0.6,1.4c0,0.2-0.2,0.4-0.4,0.4s-0.4-0.2-0.4-0.4c0-0.3-0.1-0.6-0.3-0.8c-0.2-0.2-0.5-0.3-0.7-0.3
		c-0.5,0-1,0.2-1.3,0.6c-0.4,0.4-0.6,0.9-0.6,1.4v0.1c0,0.5,0.2,1,0.5,1.4c0.3,0.4,0.9,0.6,1.4,0.7c0.1,0,0.1,0,0.2,0l0,0
		c0.7,0,1.4-0.2,1.9-0.7c0.5-0.4,0.9-1.1,0.9-2l0,0c0-1-0.5-1.8-1-2.7c-0.1-0.2-0.2-0.4-0.3-0.6c-0.1,0.1-0.3,0.3-0.4,0.5
		c-0.2,0.2-0.4,0.2-0.6,0c-0.2-0.1-0.2-0.4-0.1-0.6c0.2-0.3,0.4-0.5,0.7-0.7l0,0c-0.2-0.6-0.4-1.1-0.3-1.7c0-0.2,0.1-0.4,0.2-0.6
		l0,0c0.1-0.2,0.2-0.3,0.3-0.5c0.1-0.1,0.3-0.2,0.4-0.3c0.2-0.1,0.3-0.1,0.5-0.1c0.3,0,0.5,0.1,0.7,0.3c0.2,0.2,0.2,0.4,0.3,0.7
		c0,0.2,0,0.4-0.1,0.6c0,0.2-0.1,0.4-0.2,0.6c-0.2,0.5-0.5,0.9-0.8,1.2c0.1,0.3,0.3,0.5,0.4,0.8
		C1584.2,658.6,1584.8,659.6,1584.8,660.8z M1583.3,655.3c0.1-0.1,0.1-0.3,0.1-0.4c0-0.1,0.1-0.2,0-0.4c0-0.1,0-0.1,0-0.2
		c0,0,0,0-0.1,0h-0.1c-0.1,0-0.1,0.1-0.2,0.1c-0.1,0.1-0.1,0.1-0.2,0.2l0,0c0,0.1-0.1,0.2-0.1,0.3c0,0.3,0,0.6,0.1,0.9
		C1583,655.8,1583.2,655.5,1583.3,655.3z"/>
	<path class="st1" d="M1594.6,660.1c0,0.1-0.1,0.3-0.2,0.4s-0.1,0.2-0.2,0.3c-0.3,0.5-0.6,1-1,1.4c-0.4,0.4-1,0.7-1.7,0.7
		c-0.2,0-0.4,0-0.6-0.1c-0.3-0.1-0.6-0.2-0.8-0.5c-0.8,1.1-1.8,1.9-3,1.8l0,0l0,0l0,0c-0.7,0-1.2-0.4-1.4-0.8
		c-0.9,2.5-1.7,4.7-1.9,5.3c-0.1,0.2-0.3,0.3-0.5,0.3c-0.2-0.1-0.3-0.3-0.3-0.5c0.2-0.6,1.2-3.4,2.2-6.2c1.1-3.1,2.3-6.3,2.5-6.9
		c0-0.1,0.1-0.2,0.1-0.3c0.1-0.2,0.3-0.3,0.5-0.3c0.2,0.1,0.3,0.3,0.3,0.5l-0.2,0.4c0.6-0.6,1.2-1,2-1c0.6,0,1,0.3,1.3,0.7
		c0.3,0.4,0.4,1,0.4,1.6v0.1l0,0c-0.1,1.1-0.6,2.9-1.4,4.4c0,0.1-0.1,0.1-0.1,0.2c0.2,0.2,0.4,0.3,0.6,0.4c0.1,0,0.2,0,0.4,0
		c0.5,0,0.8-0.2,1.2-0.5c0.3-0.3,0.6-0.8,0.8-1.2c0-0.1,0.1-0.2,0.2-0.3c0-0.1,0.1-0.2,0.1-0.4c0.1-0.2,0.3-0.3,0.6-0.2
		C1594.6,659.7,1594.7,659.9,1594.6,660.1z M1590.4,660.1c-0.1,0.2-0.1,0.4-0.1,0.5c0.6-1.2,0.9-2.5,1-3.4l0,0v-0.1l0,0
		c0-0.5,0-0.9-0.2-1.1c-0.1-0.2-0.3-0.3-0.6-0.3c-1.6,0-2.8,3-3.6,5l-0.1,0.3c-0.1,0.5-0.3,1-0.3,1.4c0,0.6,0.1,1,0.7,1l0,0l0,0
		c0.9,0,1.8-0.7,2.4-1.7c-0.1-0.3-0.2-0.6-0.2-1c0-0.3,0-0.6,0.1-1c0.1-0.2,0.3-0.4,0.5-0.3C1590.3,659.6,1590.4,659.9,1590.4,660.1
		z"/>
	<path class="st1" d="M1602.3,660.1c-0.1,0.1-0.1,0.3-0.2,0.4s-0.1,0.2-0.2,0.3c-0.3,0.5-0.6,1-1,1.4c-0.5,0.4-1,0.7-1.7,0.7
		c-0.2,0-0.4,0-0.6-0.1c-0.3-0.1-0.6-0.3-0.9-0.5c-0.7,1-1.7,1.8-2.7,1.8c-3.3,0-1.1-5.5,0-7.3c0.7-1.2,1.7-2.1,2.8-2.1l0,0
		c0.6,0,1.1,0.2,1.5,0.7c0.3,0.4,0.5,0.9,0.5,1.6c0,1.3-0.7,3.1-1.5,4.6c0.1,0.2,0.4,0.3,0.6,0.4c0.1,0,0.2,0,0.3,0
		c0.5,0,0.9-0.2,1.2-0.5c0.3-0.3,0.6-0.8,0.8-1.2c0.1-0.1,0.1-0.2,0.2-0.3s0.1-0.2,0.2-0.4c0.1-0.2,0.3-0.3,0.6-0.2
		C1602.3,659.7,1602.4,659.9,1602.3,660.1z M1598.1,660.1c-0.1,0.2-0.1,0.3-0.1,0.5c0.6-1.2,1-2.5,1-3.4c0-0.5-0.1-0.8-0.3-1
		c-0.2-0.2-0.5-0.4-0.9-0.4c-0.8,0-1.5,0.7-2,1.7c-0.8,1.3-2.7,6-0.7,6c0.7,0,1.6-0.8,2.2-1.7c-0.1-0.3-0.2-0.6-0.2-0.9s0-0.6,0.1-1
		c0.1-0.2,0.3-0.4,0.5-0.3C1598,659.6,1598.2,659.9,1598.1,660.1z"/>
	<path class="st1" d="M1606.4,660.2c-0.4,0.9-0.8,1.6-1.2,2.2c-0.4,0.6-0.8,1.1-1.3,1.4c-0.2,0.2-0.5,0.3-0.8,0.4s-0.6,0.1-0.8,0.1
		l0,0c-0.4,0-0.8-0.1-1-0.4c-0.3-0.3-0.4-0.7-0.4-1.2l0,0l0,0c0-0.3,0.1-0.7,0.2-1.2s0.3-1,0.5-1.6c0.1-0.2,0.2-0.6,0.4-1.2
		c0.2-0.6,0.5-1.3,0.7-2c0-0.1,0.1-0.4,0.3-0.9h-1.3c-0.2,0-0.4-0.2-0.4-0.4c0-0.2,0.2-0.4,0.4-0.4h1.5c0.1-0.1,0.1-0.3,0.2-0.4
		c0.4-1.1,0.8-2.3,0.9-2.5c0.1-0.2,0.3-0.3,0.5-0.3c0.2,0.1,0.3,0.3,0.3,0.5c-0.1,0.2-0.5,1.4-0.9,2.5c0,0.1,0,0.1-0.1,0.2h1.3
		c0.2,0,0.4,0.2,0.4,0.4c0,0.2-0.2,0.4-0.4,0.4h-1.6c-0.2,0.6-0.3,1-0.4,1.2c-0.3,0.8-0.5,1.5-0.7,2s-0.3,0.9-0.4,1.2
		c-0.2,0.6-0.4,1.1-0.5,1.5c-0.1,0.4-0.2,0.8-0.2,1.1l0,0c0,0.3,0.1,0.5,0.2,0.7c0.1,0.1,0.3,0.2,0.4,0.2l0,0c0.2,0,0.4,0,0.6-0.1
		c0.2-0.1,0.4-0.1,0.5-0.3c0.4-0.3,0.7-0.7,1.1-1.2c0.4-0.6,0.7-1.3,1.1-2.1c0.1-0.2,0.4-0.3,0.6-0.2
		C1606.4,659.7,1606.5,659.9,1606.4,660.2z"/>
</g>
<g>
	<path class="st1" d="M1489.4,657.2l-6.7,2.5l5,2.3c0.3,0.1,0.4,0.4,0.3,0.7c-0.1,0.2-0.4,0.4-0.7,0.2l-6.2-2.7
		c-0.1,0-0.2-0.1-0.3-0.3c-0.1-0.3,0-0.6,0.3-0.7l7.9-3c0.3-0.1,0.6,0,0.7,0.3C1489.8,656.8,1489.7,657.1,1489.4,657.2z"/>
	<path class="st1" d="M1501.3,657.2l-6.7,2.5l5,2.3c0.3,0.1,0.4,0.4,0.3,0.7c-0.1,0.2-0.4,0.4-0.7,0.2l-6.2-2.7
		c-0.1,0-0.2-0.1-0.3-0.3c-0.1-0.3,0-0.6,0.3-0.7l7.9-3c0.3-0.1,0.6,0,0.7,0.3C1501.6,656.8,1501.5,657.1,1501.3,657.2z"/>
</g>
<path class="st2" d="M1227.8,532.4c-1.5,0.6-4.7,1.3-5.4,2.2c-3.8-2.1-7.6-1.3-9.9-2.8c-1.1-0.7-1.6-1.7-2.8-2.4
	c-0.8-0.5-1.4-0.9-2.2-1.5c-0.4-0.2-0.9-0.2-1.3-0.3c0.3-0.2,0.7-0.2,1.1-0.2c0.3-1,2-1.4,2.2-1.3c-4.5-7-10-11.7-22.3-6.5
	c22.5-14.2,21.9-0.6,25.7,3.7c3.5-8.6,2.9-25,42.6-9.2c-13.2,7.8-33.6-7.5-36.9,13.1c-0.3,1.9-0.7,3.6,1.7,4c1,0.2,2.3,0.3,3.6,0.4
	C1225.5,532,1226.7,532.1,1227.8,532.4z"/>
<path class="st2" d="M1038.1,316.5c-3-2.6-6.6-2.4-8.4-4.1c-0.8-0.8-1.1-1.8-2-2.6c-0.7-0.6-1.1-1.1-1.7-1.7
	c-0.4-0.3-0.8-0.3-1.1-0.5c0.3-0.1,0.7-0.1,1,0c0.5-0.8,2-0.8,2.2-0.7c-2.6-7-6.3-12.8-19.3-13.2c10.8-1.7,14.6-1.3,18.3,1.1
	c4.1,2.8,3.2,7.8,4.6,10.3c2.6-3.8,4.2-10,8.4-12.9c4.8-3.4,16.4-2.6,31.1,1c-13.1,4.4-28.1-1.9-36.7,14.5c-0.8,1.5,0.2,4.9,2.3,5.8
	c0.8,0.4,2,0.7,3.1,1.1c0.9,0.3,1.3,0.6,1.3,0.8C1041.4,315.9,1038.7,316,1038.1,316.5z"/>
<path class="st2" d="M208.2,485.8c2.7-3.5,7-12.3,12.4-12c1.2,0.1,2.7,0.5,4.5,1.4c0,0,7.6,4.6,13.4,6.8c3.4,1.4,5,1.8-0.1,1.5
	c-5.9-0.3-11.1-4.4-17.4-3.3c-3.5,0.6-7.8,2.6-9.7,8.1c0,0,2.9,4.6,6.2,2.3c-0.7,1-1,1.8-3.8,2.1c0.6,0.5,2.7-0.2,2.5-0.1
	c0,0-1.4,1.1-3.2,0.6c-2,1.2-4.9,0-5.9-1.9c0,0-4.3,0.6-9.3,0.4c-6-0.2-4.4-1.2-7.9,4.1c-1.3,2-1.9,3.4-2.8,4.6
	c-8.7,12.7-6.9,6.2-2.9-2.7c0.4-1,1-2.3,1.6-4c4.2-11,4.9-8.2,14.8-5.7c1.8,0.4,3.5,0.6,4.8,0.2c-1-0.9-1.2-1.5-1.8-2.5
	c-0.3-0.4-0.9-1.1-1.7-1.5c0.1-0.2,1.4,0.5,1.9,0.4c0.9-0.9,1.5-0.4,2.2-0.2C206.7,484.6,207.3,485.5,208.2,485.8z"/>
<path class="st2" d="M587.8,511c0,0-3.6-0.7-4.6,1.2l-2.3,1.6l2.3-0.6c0,0,2,2.9,5.7,4.1c5.7,1.9,11.6,0.7,16.9-1.7
	c-0.6,0-2.4,0.4-5.2-0.6c-11.7-4-2.8-9,9-10.3c6.8-0.7,12.6,9,20.6,8.7c-23.8-28.1-34.4-9.9-40.5-4.8c-2.8-15.2-22.2-13.2-29-7.9
	c5,1.5,11.4-0.5,16.9-0.1C585,501.3,587.8,504.9,587.8,511z"/>
<g>
	<ellipse class="st3" cx="1081.1" cy="597.4" rx="26.4" ry="5.9"/>
	<rect x="1075.1" y="383.9" class="st4" width="10.2" height="213.5"/>
	<polygon class="st5" points="1148.6,436.4 1019.2,436.4 1002.8,421 1019.2,407.6 1148.6,407.6 	"/>
	<g>
		<path class="st6" d="M1038.6,427.3v-1l3.5-3.9c0.6-0.7,1.1-1.3,1.3-1.7s0.3-0.8,0.3-1.3s-0.2-1-0.5-1.4c-0.3-0.4-0.7-0.5-1.2-0.5
			c-0.7,0-1.3,0.2-1.6,0.6c-0.3,0.4-0.5,0.9-0.5,1.6h-1.4l0,0c0-0.9,0.3-1.7,0.9-2.3s1.5-0.9,2.7-0.9c1,0,1.7,0.3,2.3,0.8
			c0.6,0.6,0.9,1.3,0.9,2.1c0,0.6-0.2,1.2-0.5,1.8s-0.8,1.2-1.5,1.9l-2.8,3.1l0,0h3.8l0.1-1.2h1.2v2.4h-7L1038.6,427.3L1038.6,427.3
			z"/>
		<path class="st6" d="M1047.1,427.3v-1l3.5-3.9c0.6-0.7,1.1-1.3,1.3-1.7c0.2-0.4,0.3-0.8,0.3-1.3s-0.2-1-0.5-1.4
			c-0.3-0.4-0.7-0.5-1.2-0.5c-0.7,0-1.3,0.2-1.6,0.6c-0.3,0.4-0.5,0.9-0.5,1.6h-1.4l0,0c0-0.9,0.3-1.7,0.9-2.3s1.5-0.9,2.7-0.9
			c1,0,1.7,0.3,2.3,0.8c0.6,0.6,0.9,1.3,0.9,2.1c0,0.6-0.2,1.2-0.5,1.8s-0.8,1.2-1.5,1.9l-2.8,3.1l0,0h3.8l0.1-1.2h1.2v2.4h-7
			L1047.1,427.3L1047.1,427.3z"/>
		<path class="st6" d="M1055.1,426.4l1.2-0.2v-5.7l-1.2-0.2v-0.9h2.5l0.1,1.2c0.3-0.4,0.6-0.8,1-1s0.9-0.4,1.4-0.4
			c0.9,0,1.5,0.3,2,0.8s0.7,1.3,0.7,2.3v3.9l1.2,0.2v0.9h-3.9v-0.9l1.2-0.2v-3.9c0-0.7-0.1-1.2-0.4-1.5s-0.7-0.4-1.3-0.4
			c-0.4,0-0.8,0.1-1.1,0.3c-0.3,0.2-0.6,0.5-0.8,0.8v4.7l1.2,0.2v0.9h-3.9v-0.9L1055.1,426.4L1055.1,426.4z"/>
		<path class="st6" d="M1070.3,426.3c-0.3,0.4-0.6,0.6-1,0.8s-0.8,0.3-1.3,0.3c-1,0-1.7-0.4-2.3-1.1c-0.5-0.7-0.8-1.6-0.8-2.8v-0.2
			c0-1.3,0.3-2.3,0.8-3.1c0.5-0.8,1.3-1.2,2.3-1.2c0.5,0,0.9,0.1,1.3,0.3c0.4,0.2,0.7,0.4,0.9,0.8v-3.2l-1.2-0.2v-0.9h1.2h1.5v10.4
			l1.2,0.2v0.9h-2.5L1070.3,426.3z M1066.4,423.6c0,0.8,0.2,1.4,0.5,1.9s0.8,0.7,1.5,0.7c0.4,0,0.8-0.1,1.1-0.3
			c0.3-0.2,0.5-0.5,0.7-0.8v-3.7c-0.2-0.3-0.4-0.6-0.7-0.8c-0.3-0.2-0.7-0.3-1.1-0.3c-0.7,0-1.2,0.3-1.5,0.9s-0.5,1.3-0.5,2.2V423.6
			z"/>
		<path class="st6" d="M1077.6,424.4c0-0.6,0.2-1.1,0.5-1.6c0.3-0.4,0.9-0.9,1.6-1.4c-0.4-0.5-0.7-0.9-0.9-1.3
			c-0.2-0.4-0.3-0.8-0.3-1.2c0-0.8,0.2-1.5,0.7-1.9s1.1-0.7,2-0.7c0.8,0,1.4,0.2,1.9,0.7s0.7,1,0.7,1.6c0,0.5-0.1,0.9-0.4,1.2
			c-0.3,0.4-0.6,0.7-1.1,1.1l-0.8,0.6l2.5,3c0.2-0.3,0.4-0.7,0.5-1.1c0.1-0.4,0.2-0.8,0.2-1.2h1.3c0,0.6-0.1,1.2-0.3,1.8
			c-0.2,0.6-0.5,1-0.8,1.5l1.4,1.7l0,0h-1.7l-0.6-0.8c-0.4,0.3-0.8,0.5-1.3,0.7s-1,0.2-1.5,0.2c-1.1,0-1.9-0.3-2.5-0.8
			C1077.9,426,1077.6,425.3,1077.6,424.4z M1081.1,426.3c0.4,0,0.7-0.1,1-0.2s0.7-0.3,1-0.5l-2.7-3.2l-0.3,0.2
			c-0.4,0.3-0.7,0.7-0.9,1c-0.1,0.3-0.2,0.6-0.2,0.8c0,0.6,0.2,1,0.5,1.4C1079.9,426.1,1080.4,426.3,1081.1,426.3z M1080.1,419
			c0,0.3,0.1,0.5,0.2,0.8c0.1,0.3,0.3,0.6,0.6,0.9l1-0.7c0.3-0.2,0.5-0.4,0.6-0.6c0.1-0.2,0.2-0.5,0.2-0.7c0-0.3-0.1-0.6-0.4-0.8
			c-0.2-0.2-0.5-0.3-0.9-0.3s-0.7,0.1-0.9,0.4C1080.1,418.2,1080.1,418.6,1080.1,419z"/>
		<path class="st6" d="M1095.6,416.6c1.1,0,2,0.2,2.6,0.7s0.9,1.2,0.9,2.2c0,0.5-0.2,0.9-0.5,1.3c-0.3,0.4-0.7,0.7-1.2,0.8
			c0.6,0.1,1.2,0.5,1.5,1c0.4,0.5,0.6,1.1,0.6,1.7c0,1-0.3,1.7-1,2.3c-0.6,0.5-1.5,0.8-2.6,0.8h-5.2v-0.9l1.2-0.2v-8.5l-1.2-0.2
			v-0.9h1.2h3.7V416.6z M1093.6,421.1h2.4c0.5,0,0.9-0.2,1.3-0.5c0.3-0.3,0.5-0.7,0.5-1.2c0-0.6-0.2-1-0.5-1.3
			c-0.4-0.3-0.9-0.4-1.6-0.4h-2v3.4H1093.6z M1093.6,422.3v3.9h2.5c0.7,0,1.2-0.2,1.5-0.5c0.4-0.3,0.5-0.8,0.5-1.4
			c0-0.6-0.2-1.1-0.5-1.5c-0.3-0.4-0.8-0.5-1.4-0.5H1093.6z"/>
		<path class="st6" d="M1106.6,426.1c-0.3,0.4-0.6,0.8-1,1s-0.9,0.3-1.4,0.3c-0.9,0-1.5-0.3-2-0.8s-0.7-1.4-0.7-2.6v-3.6l-0.9-0.2
			v-0.9h0.9h1.5v4.7c0,0.9,0.1,1.4,0.4,1.8c0.2,0.3,0.6,0.5,1.2,0.5c0.5,0,0.9-0.1,1.3-0.3c0.3-0.2,0.6-0.5,0.8-0.9v-4.6l-1.1-0.2
			v-0.9h1.1h1.5v6.8l0.9,0.2v0.9h-2.2L1106.6,426.1z"/>
		<path class="st6" d="M1110.1,420.3v-0.9h2.5l0.1,1.2c0.2-0.4,0.5-0.7,0.8-1c0.3-0.2,0.7-0.3,1.1-0.3c0.1,0,0.2,0,0.4,0
			c0.1,0,0.2,0,0.3,0.1l-0.2,1.3h-0.8c-0.4,0-0.7,0.1-1,0.3c-0.3,0.2-0.5,0.4-0.6,0.8v4.6l1.2,0.2v0.9h-3.9v-0.9l1.2-0.2v-5.7
			L1110.1,420.3z"/>
		<path class="st6" d="M1119.1,417.4v1.9h1.5v1.1h-1.5v4.8c0,0.4,0.1,0.6,0.2,0.8c0.2,0.2,0.4,0.2,0.6,0.2c0.1,0,0.3,0,0.4,0
			c0.2,0,0.3,0,0.4-0.1l0.2,1c-0.1,0.1-0.3,0.2-0.6,0.2c-0.3,0.1-0.5,0.1-0.8,0.1c-0.6,0-1.1-0.2-1.4-0.5c-0.3-0.4-0.5-0.9-0.5-1.7
			v-4.8h-1.3v-1.1h1.3v-1.9H1119.1z"/>
	</g>
</g>
<g id="Layer_3">
	<path class="st2" d="M262.2,310.8c-13,0-24,6.7-28,15.9c-2.5-0.5-5.2-0.8-8-0.8c-10.5,0-19.6,3.8-24.2,9.4
		c-8.6,1.2-15.1,6.3-15.1,12.3c0,3.1,1.6,5.9,4.4,8c-3.8,1.6-6.6,3.4-8.2,5.3c-9,1.1-15.3,3.6-15.3,6.4c0,3.7,10.8,6.7,24.6,7.1
		c9.6,3.7,24.6,6.1,41.5,6.1c2.9,0,5.7-0.1,8.4-0.2c4.5,0.1,9.1,0.2,13.9,0.2c31.2,0,56.5-2.9,56.5-6.6c0-0.6-0.8-1.2-2.2-1.8
		c8.7-1.6,14.1-3.8,14.1-6.3c0-0.1,0-0.2,0-0.3c13-1.2,21.9-3.8,21.9-6.8c0-2.5-6.4-4.7-16.2-6.1c0.4-1.1,0.7-2.3,0.7-3.5
		c0-8.7-12.1-15.8-27.8-17c-1.6-5.9-7.1-10.3-13.7-10.3c-0.7,0-1.4,0.1-2.1,0.2C282.2,315.2,272.9,310.8,262.2,310.8z"/>
</g>
<g id="Layer_2">
	<path class="st2" d="M1192.2,290c-13,0-24,6.7-28,15.9c-2.5-0.5-5.2-0.8-8-0.8c-10.5,0-19.6,3.8-24.2,9.4
		c-8.6,1.2-15.1,6.3-15.1,12.3c0,3.1,1.6,5.9,4.4,8c-3.8,1.6-6.6,3.4-8.2,5.3c-9,1.1-15.3,3.6-15.3,6.4c0,3.7,10.8,6.7,24.6,7.1
		c9.6,3.7,24.6,6.1,41.5,6.1c2.9,0,5.7-0.1,8.4-0.2c4.5,0.1,9.1,0.2,13.9,0.2c31.2,0,56.5-2.9,56.5-6.6c0-0.6-0.8-1.2-2.2-1.8
		c8.7-1.6,14.1-3.8,14.1-6.3c0-0.1,0-0.2,0-0.3c13-1.2,21.9-3.8,21.9-6.8c0-2.5-6.4-4.7-16.2-6.1c0.4-1.1,0.7-2.3,0.7-3.5
		c0-8.7-12.1-15.8-27.8-17c-1.6-5.9-7.1-10.3-13.7-10.3c-0.7,0-1.4,0.1-2.1,0.2C1212.2,294.5,1202.9,290,1192.2,290z"/>
</g>
</svg>
