<?xml version="1.0" encoding="utf-8"?>
<!-- Generator: Adobe Illustrator 19.1.0, SVG Export Plug-In . SVG Version: 6.00 Build 0)  -->
<svg version="1.1" id="Layer_1" xmlns="http://www.w3.org/2000/svg" xmlns:xlink="http://www.w3.org/1999/xlink" x="0px" y="0px"
	 viewBox="506 -108 1156.4 360" style="enable-background:new 506 -108 1156.4 360;" xml:space="preserve">
<style type="text/css">
	.st0{fill:#E6E7E8;}
	.st1{fill:#F4EC8F;}
	.st2{fill:#D3CB7D;}
	.st3{fill:#50516A;}
	.st4{fill:#03A8A0;}
	.st5{enable-background:new    ;}
	.st6{fill:#FFFFFF;}
</style>
<path class="st0" d="M1559.5,119.8c-3.3,2.9-6.7,5.6-10.1,8.4 M1531.1,130.1c2.6,5.2,3.9,10.8,4.1,16.5v0.1
	c0.2,11.3-1.2,22.4-2.6,33.6c-1.2,10.1-2.4,20.4-3.5,30.5h23.5c-0.1-1.2-0.3-2.5-0.4-3.7c-0.9-11.6-2-23.2-2.8-34.7
	c-0.3-4.5-0.7-9-0.7-13.5c0-1,0-2.1,0-3.1c0.1-10.5,4.5-20.6,12.3-27.7"/>
<ellipse class="st0" cx="1506.7" cy="73.4" rx="74.3" ry="71"/>
<ellipse class="st0" cx="1564.2" cy="-13.4" rx="57.4" ry="54.9"/>
<ellipse class="st0" cx="1581" cy="81.2" rx="61.7" ry="59"/>
<ellipse class="st0" cx="1498.3" cy="-23" rx="47.3" ry="45.3"/>
<ellipse class="st0" cx="1498.3" cy="64.7" rx="74.3" ry="71"/>
<rect x="506" y="210.9" class="st1" width="1156.4" height="39.3"/>
<g>
	<ellipse class="st2" cx="1498.7" cy="233.8" rx="26.8" ry="6"/>
	<rect x="1492.5" y="16.7" class="st3" width="10.4" height="217.1"/>
	<g>
		<polygon class="st4" points="1567.3,70 1435.8,70 1418.9,54.4 1435.8,40.7 1567.3,40.7 		"/>
		<g>
			<g class="st5">
				<path class="st6" d="M1449.3,60.1l1.7-0.2v-8.1h-1.7v-0.9l3.2-0.7v9.7l1.7,0.2V61h-4.8L1449.3,60.1L1449.3,60.1z"/>
				<path class="st6" d="M1455.6,60.1l1.7-0.2v-8.1h-1.7v-0.9l3.2-0.7v9.7l1.7,0.2V61h-4.9V60.1L1455.6,60.1z"/>
				<path class="st6" d="M1464.2,51v1.9h1.5V54h-1.5v4.9c0,0.4,0.1,0.6,0.2,0.8c0.2,0.2,0.4,0.2,0.6,0.2c0.1,0,0.3,0,0.4,0
					c0.2,0,0.3,0,0.4-0.1l0.2,1c-0.1,0.1-0.3,0.2-0.6,0.2c-0.3,0.1-0.5,0.1-0.8,0.1c-0.6,0-1.1-0.2-1.4-0.5
					c-0.4-0.4-0.5-0.9-0.5-1.7V54h-1.3v-1.1h1.3V51H1464.2z"/>
				<path class="st6" d="M1467,60.1l1.2-0.2v-9.4l-1.2-0.2v-0.9h2.7V54c0.3-0.4,0.6-0.7,1-0.9c0.4-0.2,0.8-0.3,1.3-0.3
					c0.9,0,1.5,0.3,2,0.8s0.7,1.3,0.7,2.4v3.9l1.2,0.2V61h-3.9v-0.9l1.2-0.2V56c0-0.7-0.1-1.2-0.4-1.5s-0.7-0.5-1.3-0.5
					c-0.4,0-0.8,0.1-1.1,0.3c-0.3,0.2-0.6,0.5-0.8,0.8v4.8l1.2,0.2V61h-3.9L1467,60.1L1467,60.1z"/>
				<path class="st6" d="M1480.8,58.1c0-0.6,0.2-1.1,0.5-1.6c0.4-0.5,0.9-0.9,1.6-1.4c-0.4-0.5-0.7-0.9-0.9-1.3s-0.3-0.8-0.3-1.2
					c0-0.8,0.2-1.5,0.7-1.9c0.5-0.5,1.2-0.7,2-0.7s1.4,0.2,1.9,0.7s0.7,1,0.7,1.6c0,0.5-0.1,0.9-0.4,1.3s-0.6,0.7-1.2,1.1l-0.8,0.6
					l2.5,3c0.2-0.3,0.4-0.7,0.5-1.1c0.1-0.4,0.2-0.8,0.2-1.2h1.3c0,0.7-0.1,1.3-0.3,1.8c-0.2,0.6-0.5,1.1-0.8,1.5l1.4,1.7l0,0h-1.7
					l-0.6-0.8c-0.4,0.3-0.8,0.5-1.3,0.7s-1,0.2-1.5,0.2c-1.1,0-1.9-0.3-2.6-0.9C1481.1,59.8,1480.8,59,1480.8,58.1z M1484.3,60
					c0.4,0,0.7-0.1,1.1-0.2c0.3-0.1,0.7-0.3,1-0.5l-2.7-3.2l-0.3,0.2c-0.5,0.3-0.8,0.7-0.9,1c-0.1,0.3-0.2,0.6-0.2,0.8
					c0,0.6,0.2,1,0.5,1.4S1483.6,60,1484.3,60z M1483.2,52.6c0,0.3,0.1,0.5,0.2,0.8c0.1,0.3,0.3,0.6,0.6,0.9l1-0.7
					c0.3-0.2,0.5-0.4,0.6-0.6c0.1-0.2,0.2-0.5,0.2-0.7c0-0.3-0.1-0.6-0.4-0.8c-0.2-0.2-0.6-0.4-0.9-0.4c-0.4,0-0.7,0.1-0.9,0.4
					C1483.3,51.9,1483.2,52.2,1483.2,52.6z"/>
				<path class="st6" d="M1502,50.2v0.9l-1.2,0.2V58c0,1-0.3,1.7-0.9,2.3c-0.6,0.6-1.4,0.9-2.4,0.9s-1.9-0.3-2.5-0.8
					c-0.6-0.5-0.9-1.3-0.9-2.3l0,0h1.4c0,0.7,0.2,1.2,0.5,1.5s0.8,0.5,1.4,0.5c0.5,0,1-0.2,1.3-0.5c0.3-0.4,0.5-0.9,0.5-1.5v-6.7
					l-1.2-0.2v-0.9h2.7L1502,50.2L1502,50.2z"/>
				<path class="st6" d="M1508.4,61c0-0.2-0.1-0.4-0.1-0.6s0-0.3-0.1-0.5c-0.3,0.4-0.6,0.7-1.1,0.9c-0.4,0.2-0.9,0.4-1.4,0.4
					c-0.8,0-1.5-0.2-1.9-0.6c-0.4-0.4-0.7-1-0.7-1.7c0-0.8,0.3-1.4,0.9-1.8c0.6-0.4,1.5-0.6,2.5-0.6h1.5v-1c0-0.5-0.1-0.8-0.4-1.1
					c-0.3-0.3-0.7-0.4-1.2-0.4c-0.4,0-0.7,0-1,0.1s-0.5,0.2-0.7,0.4l-0.2,0.8h-0.9v-1.6c0.4-0.3,0.8-0.5,1.3-0.7s1.1-0.3,1.7-0.3
					c0.9,0,1.7,0.2,2.2,0.7c0.6,0.5,0.8,1.1,0.8,2v3.9c0,0.1,0,0.2,0,0.3s0,0.2,0,0.3l0.6,0.1v0.9h-1.8V61L1508.4,61z M1506,59.9
					c0.5,0,0.9-0.1,1.3-0.4c0.4-0.2,0.7-0.5,0.9-0.8v-1.3h-1.6c-0.6,0-1.1,0.1-1.4,0.4c-0.4,0.3-0.5,0.6-0.5,1s0.1,0.6,0.3,0.8
					C1505.2,59.9,1505.5,59.9,1506,59.9z"/>
				<path class="st6" d="M1515.1,60c0.5,0,0.9-0.1,1.3-0.5c0.4-0.3,0.6-0.7,0.6-1.1h1.3l0,0c0,0.7-0.3,1.3-0.9,1.9
					c-0.6,0.5-1.4,0.8-2.2,0.8c-1.2,0-2.1-0.4-2.7-1.1c-0.6-0.8-0.9-1.7-0.9-2.9v-0.3c0-1.1,0.3-2.1,0.9-2.9
					c0.6-0.8,1.5-1.2,2.7-1.2c0.6,0,1.2,0.1,1.7,0.3c0.5,0.2,0.9,0.5,1.3,0.9l0.1,1.8h-1.2l-0.3-1.3c-0.2-0.2-0.4-0.3-0.7-0.4
					s-0.6-0.2-0.9-0.2c-0.8,0-1.3,0.3-1.7,0.8s-0.5,1.2-0.5,2v0.3c0,0.8,0.2,1.5,0.5,2.1C1513.8,59.8,1514.3,60,1515.1,60z"/>
				<path class="st6" d="M1519.5,50.3v-0.9h2.7v6.7h0.9l1.7-2.1l-0.7-0.1V53h3.4v0.9l-1,0.2l-2.1,2.5l2.6,3.3l0.9,0.2V61h-3.3v-0.9
					l0.8-0.1l-2.1-2.7h-1v2.6l1.2,0.2V61h-3.9v-0.9l1.2-0.2v-9.4L1519.5,50.3z"/>
				<path class="st6" d="M1535.2,55.5h-1.1l-0.2-1c-0.2-0.2-0.4-0.3-0.7-0.4c-0.3-0.1-0.6-0.2-0.9-0.2c-0.5,0-0.9,0.1-1.2,0.3
					c-0.3,0.2-0.4,0.5-0.4,0.8s0.1,0.6,0.3,0.8c0.2,0.2,0.7,0.3,1.4,0.5c1,0.2,1.8,0.5,2.3,0.9s0.7,0.9,0.7,1.5
					c0,0.7-0.3,1.3-0.9,1.7c-0.6,0.4-1.3,0.7-2.3,0.7c-0.6,0-1.2-0.1-1.6-0.2c-0.5-0.1-0.9-0.3-1.3-0.6v-1.8h1.1l0.3,1.1
					c0.2,0.2,0.4,0.3,0.7,0.3c0.3,0.1,0.6,0.1,0.9,0.1c0.5,0,0.9-0.1,1.2-0.3c0.3-0.2,0.4-0.5,0.4-0.8s-0.1-0.6-0.4-0.8
					c-0.2-0.2-0.7-0.4-1.4-0.5c-1-0.2-1.7-0.5-2.2-0.9s-0.7-0.9-0.7-1.5c0-0.7,0.3-1.2,0.8-1.7c0.6-0.5,1.3-0.7,2.2-0.7
					c0.6,0,1.2,0.1,1.6,0.2c0.5,0.2,0.9,0.4,1.2,0.7L1535.2,55.5z"/>
				<path class="st6" d="M1536.8,56.9c0-1.2,0.3-2.2,1-2.9c0.6-0.8,1.5-1.2,2.6-1.2c1.1,0,2,0.4,2.6,1.2c0.6,0.8,1,1.8,1,3v0.2
					c0,1.2-0.3,2.2-1,3c-0.6,0.8-1.5,1.1-2.6,1.1c-1.1,0-2-0.4-2.6-1.2c-0.6-0.8-1-1.8-1-2.9V56.9z M1538.3,57.1
					c0,0.9,0.2,1.6,0.5,2.1c0.4,0.6,0.9,0.8,1.6,0.8s1.2-0.3,1.6-0.8c0.4-0.6,0.5-1.3,0.5-2.1v-0.2c0-0.8-0.2-1.5-0.5-2.1
					c-0.4-0.6-0.9-0.8-1.6-0.8s-1.2,0.3-1.6,0.8c-0.4,0.6-0.5,1.3-0.5,2.1V57.1z"/>
				<path class="st6" d="M1545.1,60.1l1.2-0.2v-5.8l-1.2-0.2V53h2.5l0.1,1.2c0.3-0.4,0.6-0.8,1-1c0.4-0.2,0.9-0.4,1.4-0.4
					c0.9,0,1.5,0.3,2,0.8s0.7,1.3,0.7,2.4v3.9l1.2,0.2V61h-3.9v-0.9l1.2-0.2V56c0-0.7-0.1-1.2-0.4-1.5s-0.7-0.4-1.3-0.4
					c-0.4,0-0.8,0.1-1.1,0.3c-0.3,0.2-0.6,0.5-0.8,0.8v4.7l1.2,0.2V61h-3.9v-0.9H1545.1L1545.1,60.1z"/>
			</g>
		</g>
	</g>
</g>
<g>
	<rect x="556.5" y="173.9" class="st0" width="35.7" height="10.2"/>
	<rect x="566.9" y="164.3" class="st0" width="15" height="3.5"/>
	<polygon class="st0" points="583.9,167.8 564.8,167.8 556.5,173.9 592.2,173.9 	"/>
	<polygon class="st0" points="578.8,14.1 570,14.1 568.9,164.3 579.8,164.3 	"/>
	<rect x="567.7" y="12.4" class="st0" width="13.4" height="1.7"/>
	<rect x="568.7" y="11.1" class="st0" width="11.3" height="1.3"/>
	<rect x="556.3" y="-14.6" class="st0" width="36.2" height="1.3"/>
	<rect x="569.8" y="7.7" class="st0" width="9.2" height="1.3"/>
	<rect x="571" y="9" class="st0" width="7" height="2.1"/>
	<rect x="571" y="-24.2" class="st0" width="7" height="2.1"/>
	<rect x="571.6" y="-28.8" class="st0" width="5.7" height="1.5"/>
	<polygon class="st0" points="576.7,-32 572.2,-32 574.3,-39.7 574.6,-39.7 	"/>
	<polygon class="st0" points="582.1,-22.1 566.6,-22.1 558.4,-14.6 590.4,-14.6 	"/>
	<rect x="573.1" y="-27.4" class="st0" width="2.8" height="3.1"/>
	<rect x="573.1" y="-32" class="st0" width="2.8" height="3.1"/>
	<path class="st0" d="M555.2-13.3v1.7h0.2c0.4,1.6,1.8,6,5.7,11.5c3.4,4.7,7.4,7.8,7.6,7.9l0,0v0.1H580V7.8l0,0
		c0.2-0.1,4.2-3.2,7.6-7.9c3.9-5.4,5.3-9.8,5.7-11.5h0.2v-1.7H555.2z M569.9,6c-0.3-0.2-4-3.1-7.1-7.4c-3.3-4.6-4.7-8.5-5.2-10.3
		h9.1c0,1.7,0.3,5.6,1.7,9.7c1.2,3.5,3,6.4,4.1,8C572.5,6,569.9,6,569.9,6z M570.3-2.7c-1.3-3.8-1.6-7.4-1.6-9H580
		c0,1.6-0.3,5.2-1.6,9c-1.2,3.4-3,6.3-4.1,7.8C573.3,3.7,571.5,0.8,570.3-2.7z M586-1.4c-3.1,4.3-6.8,7.2-7.1,7.4h-2.6
		c1.1-1.6,2.9-4.5,4.1-8c1.5-4.1,1.7-8,1.7-9.7h9.1C590.7-9.9,589.3-6,586-1.4z"/>
</g>
<g id="XMLID_163_">
	<g id="XMLID_175_">
		<rect id="XMLID_180_" x="610.8" y="128.2" class="st0" width="123.2" height="3.3"/>
		<rect id="XMLID_179_" x="610.8" y="135.4" class="st0" width="123.2" height="3.3"/>
		<rect id="XMLID_178_" x="610.8" y="142.5" class="st0" width="123.2" height="3.3"/>
		<rect id="XMLID_177_" x="610.8" y="149.6" class="st0" width="123.2" height="3.3"/>
		<rect id="XMLID_176_" x="610.8" y="156.8" class="st0" width="123.2" height="3.3"/>
	</g>
	<rect id="XMLID_174_" x="605.9" y="162.1" class="st0" width="133.1" height="5.2"/>
	<g id="XMLID_171_">
		<rect id="XMLID_173_" x="615.9" y="127.5" class="st0" width="4.1" height="35.9"/>
		<rect id="XMLID_172_" x="724.8" y="127.5" class="st0" width="4.1" height="35.9"/>
	</g>
	<g id="XMLID_164_">
		<g id="XMLID_168_">
			<rect id="XMLID_170_" x="608.1" y="164.4" class="st0" width="3.9" height="21.1"/>
			<rect id="XMLID_169_" x="612.9" y="164.5" class="st0" width="3.9" height="21.1"/>
		</g>
		<g id="XMLID_165_">
			<rect id="XMLID_167_" x="727.3" y="164.4" class="st0" width="3.9" height="21.1"/>
			<rect id="XMLID_166_" x="732" y="164.5" class="st0" width="3.9" height="21.1"/>
		</g>
	</g>
</g>
<g>
	<path class="st3" d="M2018.4,552.2c-0.4,0.9-0.8,1.6-1.2,2.2c-0.4,0.6-0.8,1.1-1.3,1.4c-0.2,0.2-0.5,0.3-0.8,0.4s-0.6,0.1-0.8,0.1
		l0,0c-0.4,0-0.8-0.1-1-0.4c-0.3-0.3-0.4-0.7-0.4-1.2l0,0l0,0c0-0.3,0.1-0.7,0.2-1.2s0.3-1,0.5-1.6c0.1-0.2,0.2-0.6,0.4-1.2
		c0.2-0.6,0.5-1.3,0.7-2c0-0.1,0.1-0.4,0.3-0.9h-1.3c-0.2,0-0.4-0.2-0.4-0.4s0.2-0.4,0.4-0.4h1.5c0.1-0.1,0.1-0.3,0.2-0.4
		c0.4-1.1,0.8-2.3,0.9-2.5s0.3-0.3,0.5-0.3s0.3,0.3,0.3,0.5c-0.1,0.2-0.5,1.4-0.9,2.5c0,0.1,0,0.1-0.1,0.2h1.3
		c0.2,0,0.4,0.2,0.4,0.4s-0.2,0.4-0.4,0.4h-1.6c-0.2,0.6-0.3,1-0.4,1.2c-0.3,0.8-0.5,1.5-0.7,2s-0.3,0.9-0.4,1.2
		c-0.2,0.6-0.4,1.1-0.5,1.5s-0.2,0.8-0.2,1.1l0,0c0,0.3,0.1,0.5,0.2,0.7c0.1,0.1,0.3,0.2,0.4,0.2l0,0c0.2,0,0.4,0,0.6-0.1
		s0.4-0.1,0.5-0.3c0.4-0.3,0.7-0.7,1.1-1.2c0.4-0.6,0.7-1.3,1.1-2.1c0.1-0.2,0.4-0.3,0.6-0.2
		C2018.4,551.7,2018.5,551.9,2018.4,552.2z"/>
	<path class="st3" d="M2026.3,552.2L2026.3,552.2c-0.8,1.7-1.8,4.2-3.6,4.2l0,0c-0.6,0-0.9-0.2-1.1-0.6c-0.2-0.3-0.3-0.7-0.3-1.1
		v-0.1c0-0.4,0.1-0.9,0.2-1.4s0.3-1,0.5-1.4c0.1-0.1,0.1-0.2,0.1-0.4c0.3-0.7,0.7-1.8,0.7-2.7c0-0.6-0.3-1-1-1
		c-0.5,0-1.1,0.5-1.6,1.1c-0.7,0.9-1.4,2.2-1.8,3.3l0,0c-0.6,1.5-1.2,3.2-1.4,3.9c-0.1,0.2-0.3,0.3-0.5,0.3
		c-0.2-0.1-0.3-0.3-0.3-0.5c0.2-0.6,0.8-2.3,1.4-3.9l0,0l0,0l0,0c0.6-1.7,1.2-3.3,1.4-3.9l0,0c0.2-0.6,0.3-0.8,0.4-1.1
		c0.2-0.5,0.3-0.9,0.4-1.2l0.1-0.3c0.1-0.3,0.3-0.8,0.5-1.4c0.1-0.2,0.3-0.3,0.5-0.2s0.3,0.3,0.3,0.5c-0.2,0.5-0.4,1-0.5,1.4
		c0,0.1-0.1,0.2-0.1,0.3c-0.2,0.5-0.3,0.9-0.4,1.2l-0.3,0.7c0.6-0.6,1.2-0.9,1.8-0.9c1.4,0,1.9,0.8,1.9,1.9c0,1-0.5,2.2-0.8,3
		c-0.1,0.1-0.1,0.3-0.1,0.4c-0.2,0.5-0.3,0.9-0.5,1.4c-0.1,0.4-0.2,0.8-0.2,1.2l0,0c0,0.2,0,0.5,0.1,0.6s0.2,0.2,0.4,0.2l0,0
		c1.2,0,2.2-2.1,2.8-3.6V552c0.1-0.2,0.3-0.3,0.6-0.2C2026.3,551.7,2026.4,551.9,2026.3,552.2z"/>
	<path class="st3" d="M2033.5,552.2c-0.8,1.7-1.7,2.7-2.7,3.4c-1,0.6-2.1,0.8-3.1,0.8l0,0l0,0c-0.7,0-1.4-0.3-1.8-0.7
		c-0.5-0.5-0.8-1.1-0.7-2l0,0l0,0c0-0.5,0.1-1.1,0.3-1.7l0,0c0.1-0.4,0.3-0.9,0.5-1.3c0.5-1,1.1-2,1.7-2.7c0.3-0.3,0.6-0.5,1-0.7
		c0.3-0.2,0.7-0.3,1.1-0.3c0.5,0,0.8,0.1,1.1,0.3c0.3,0.2,0.5,0.5,0.6,0.8s0,0.7-0.1,1c-0.2,0.5-0.5,1-1,1.4s-1.2,0.8-1.8,1.1
		c-0.9,0.4-1.8,0.7-2.3,0.8c-0.1,0.5-0.2,0.9-0.2,1.3l0,0c0,0.6,0.2,1.1,0.5,1.4s0.8,0.5,1.3,0.5l0,0c0.8,0,1.7-0.1,2.6-0.7
		c0.9-0.5,1.7-1.5,2.3-3c0.1-0.2,0.3-0.3,0.6-0.2C2033.5,551.7,2033.6,552,2033.5,552.2z M2026.6,551.4c0.5-0.1,1-0.3,1.6-0.6
		s1.2-0.6,1.6-1c0.3-0.3,0.6-0.6,0.7-1c0.1-0.2,0.1-0.4,0-0.6c0-0.1-0.1-0.2-0.2-0.3s-0.3-0.2-0.6-0.2c-0.2,0-0.5,0.1-0.7,0.2
		c-0.2,0.1-0.5,0.3-0.7,0.6c-0.6,0.6-1.2,1.5-1.6,2.4C2026.7,551.1,2026.6,551.2,2026.6,551.4z"/>
	<path class="st3" d="M2037.2,552.2c-0.4,0.8-0.8,1.8-1.4,2.6c-0.6,0.9-1.4,1.6-2.3,1.6l0,0c-0.5,0-0.9-0.2-1.1-0.6
		c-0.2-0.3-0.3-0.7-0.3-1.1v-0.1c0-0.3,0.1-0.7,0.2-1.2s0.3-1,0.5-1.6c0.1-0.2,0.2-0.6,0.4-1.2c0.2-0.6,0.5-1.3,0.7-2
		c0-0.1,0.1-0.3,0.2-0.5l0.3-0.9c0.1-0.2,0.3-0.3,0.5-0.3c0.2,0.1,0.3,0.3,0.3,0.5l-0.3,0.9l-0.2,0.5c-0.3,0.8-0.5,1.5-0.7,2
		s-0.3,0.9-0.4,1.2c-0.2,0.6-0.4,1.1-0.5,1.5s-0.2,0.8-0.2,1.1l0,0c0,0.2,0,0.5,0.1,0.6s0.2,0.2,0.4,0.2l0,0c0.6,0,1.1-0.5,1.6-1.2
		c0.5-0.8,0.9-1.7,1.3-2.5c0.1-0.2,0.4-0.3,0.6-0.2C2037.2,551.7,2037.3,551.9,2037.2,552.2z M2035,545.3c0-0.4,0.3-0.7,0.7-0.7
		c0.4,0,0.7,0.3,0.7,0.7s-0.3,0.7-0.7,0.7C2035.3,545.9,2035,545.6,2035,545.3z"/>
	<path class="st3" d="M2044.5,552.2L2044.5,552.2c-0.8,1.7-1.8,4.2-3.6,4.2l0,0c-0.5,0-0.9-0.2-1.1-0.6c-0.2-0.3-0.3-0.7-0.3-1.1
		v-0.1c0-0.3,0.1-0.7,0.2-1.2s0.3-1,0.5-1.6c0.2-0.5,0.3-0.9,0.4-1.1c0.1-0.4,0.2-0.6,0.4-1l-0.3-0.1c-0.6-0.2-1.2-0.4-1.8-0.7
		c-0.1,0.2-0.1,0.4-0.2,0.5l0,0l-1.6,3.5c-0.1,0.2-0.3,0.3-0.6,0.2c-0.2-0.1-0.3-0.3-0.2-0.6l1.6-3.5c0.1-0.2,0.2-0.4,0.2-0.6
		c-0.7-0.5-1.1-1-1-1.9c0-0.3,0.2-0.6,0.4-0.8l0,0c0.2-0.2,0.5-0.3,0.8-0.3c0.1,0,0.2,0,0.3,0l0,0c0.3,0.1,0.5,0.3,0.6,0.5
		s0.2,0.5,0.2,0.7s0,0.4-0.1,0.6s-0.1,0.4-0.2,0.7c0.6,0.3,1.2,0.5,1.8,0.7c0.3,0.1,0.5,0.2,0.8,0.2c0.2,0.1,0.3,0.3,0.2,0.6l0,0
		c-0.2,0.6-0.3,0.9-0.5,1.4c-0.1,0.3-0.2,0.6-0.4,1.1c-0.2,0.6-0.4,1.1-0.5,1.5s-0.2,0.8-0.2,1.1l0,0c0,0.2,0,0.5,0.2,0.6
		c0.1,0.1,0.2,0.2,0.4,0.2c1.3,0,2.2-2.1,2.8-3.6v-0.1c0.1-0.2,0.3-0.3,0.6-0.2C2044.5,551.7,2044.6,551.9,2044.5,552.2z
		 M2038.5,546.8c0-0.1,0-0.2-0.1-0.3c0-0.1-0.1-0.1-0.1-0.1l0,0h-0.1c-0.1,0-0.2,0-0.2,0.1l0,0c-0.1,0.1-0.1,0.2-0.1,0.3
		c0,0.4,0.2,0.7,0.5,0.9c0.1-0.2,0.1-0.3,0.2-0.5C2038.5,547,2038.5,546.9,2038.5,546.8z"/>
	<path class="st3" d="M2055,552.2L2055,552.2c-0.8,1.7-1.8,4.2-3.6,4.2l0,0l0,0c-0.5,0-0.9-0.2-1.1-0.6c-0.2-0.2-0.2-0.5-0.3-0.8
		c-0.6,0.8-1.3,1.4-2.2,1.4l0,0c-0.5,0-0.9-0.2-1.1-0.6c-0.2-0.3-0.3-0.7-0.3-1.1v-0.1c0-0.3,0.1-0.7,0.2-1.2s0.3-1,0.5-1.6
		c0.1-0.3,0.3-0.9,0.6-1.6c0.3-0.9,0.7-2,1.1-3c0.1-0.2,0.3-0.3,0.5-0.2c0.2,0.1,0.3,0.3,0.2,0.5c-0.4,1.2-0.8,2.2-1.1,3
		c-0.3,0.7-0.5,1.3-0.6,1.6c-0.2,0.6-0.4,1.1-0.5,1.5s-0.2,0.8-0.2,1.1l0,0c0,0.2,0,0.5,0.1,0.6s0.2,0.2,0.5,0.2
		c1.2,0,2.2-2.1,2.8-3.6l0,0c0,0,0,0,0-0.1c0.1-0.3,0.3-0.9,0.6-1.6c0.4-0.9,0.7-2,1.1-3c0.1-0.2,0.3-0.3,0.5-0.2s0.3,0.3,0.3,0.5
		c-0.4,1.2-0.8,2.2-1.1,3c-0.3,0.7-0.5,1.3-0.6,1.6l0,0v0.1c-0.2,0.5-0.3,1-0.4,1.4c-0.1,0.4-0.2,0.8-0.2,1.1l0,0
		c0,0.2,0,0.5,0.1,0.6s0.2,0.2,0.4,0.2l0,0c1.2,0,2.2-2.1,2.8-3.6v-0.1c0.1-0.2,0.3-0.3,0.6-0.2C2055,551.7,2055.1,551.9,2055,552.2
		z"/>
	<path class="st3" d="M2060.5,552.8L2060.5,552.8L2060.5,552.8c0,1.2-0.5,2.1-1.2,2.7s-1.6,0.9-2.4,0.9l0,0c-0.1,0-0.1,0-0.2,0
		c-0.8,0-1.5-0.4-2-0.9s-0.8-1.2-0.8-1.9c0-0.1,0-0.1,0-0.2c0.1-0.7,0.3-1.4,0.8-2c0.5-0.5,1.1-0.8,1.9-0.8c0.5,0,1,0.2,1.4,0.6
		c0.3,0.3,0.5,0.8,0.6,1.4c0,0.2-0.2,0.4-0.4,0.4c-0.2,0-0.4-0.2-0.4-0.4c0-0.3-0.1-0.6-0.3-0.8c-0.2-0.2-0.5-0.3-0.7-0.3
		c-0.5,0-1,0.2-1.3,0.6c-0.4,0.4-0.6,0.9-0.6,1.4v0.1c0,0.5,0.2,1,0.5,1.4c0.3,0.4,0.9,0.6,1.4,0.7c0.1,0,0.1,0,0.2,0l0,0
		c0.7,0,1.4-0.2,1.9-0.7c0.5-0.4,0.9-1.1,0.9-2l0,0c0-1-0.5-1.8-1-2.7c-0.1-0.2-0.2-0.4-0.3-0.6c-0.1,0.1-0.3,0.3-0.4,0.5
		c-0.2,0.2-0.4,0.2-0.6,0c-0.2-0.1-0.2-0.4-0.1-0.6c0.2-0.3,0.4-0.5,0.7-0.7l0,0c-0.2-0.6-0.4-1.1-0.3-1.7c0-0.2,0.1-0.4,0.2-0.6
		l0,0c0.1-0.2,0.2-0.3,0.3-0.5c0.1-0.1,0.3-0.2,0.4-0.3c0.2-0.1,0.3-0.1,0.5-0.1c0.3,0,0.5,0.1,0.7,0.3s0.2,0.4,0.3,0.7
		c0,0.2,0,0.4-0.1,0.6c0,0.2-0.1,0.4-0.2,0.6c-0.2,0.5-0.5,0.9-0.8,1.2c0.1,0.3,0.3,0.5,0.4,0.8
		C2059.9,550.6,2060.5,551.6,2060.5,552.8z M2059,547.3c0.1-0.1,0.1-0.3,0.1-0.4c0-0.1,0.1-0.2,0-0.4c0-0.1,0-0.1,0-0.2
		c0,0,0,0-0.1,0h-0.1c-0.1,0-0.1,0.1-0.2,0.1c-0.1,0.1-0.1,0.1-0.2,0.2l0,0c0,0.1-0.1,0.2-0.1,0.3c0,0.3,0,0.6,0.1,0.9
		C2058.7,547.8,2058.8,547.5,2059,547.3z"/>
	<path class="st3" d="M2069.9,552.2L2069.9,552.2c-0.8,1.7-1.8,4.2-3.6,4.2l0,0l0,0c-0.5,0-0.9-0.2-1.1-0.6
		c-0.2-0.2-0.2-0.5-0.3-0.8c-0.6,0.8-1.3,1.4-2.2,1.4l0,0c-0.5,0-0.9-0.2-1.1-0.6c-0.2-0.3-0.3-0.7-0.3-1.1v-0.1
		c0-0.3,0.1-0.7,0.2-1.2s0.3-1,0.5-1.6c0.1-0.3,0.3-0.9,0.6-1.6c0.3-0.9,0.7-2,1.1-3c0.1-0.2,0.3-0.3,0.5-0.2s0.3,0.3,0.2,0.5
		c-0.4,1.2-0.8,2.2-1.1,3c-0.3,0.7-0.5,1.3-0.6,1.6c-0.2,0.6-0.4,1.1-0.5,1.5s-0.2,0.8-0.2,1.1l0,0c0,0.2,0,0.5,0.1,0.6
		c0.1,0.1,0.2,0.2,0.5,0.2c1.2,0,2.2-2.1,2.8-3.6l0,0c0,0,0,0,0-0.1c0.1-0.3,0.3-0.9,0.6-1.6c0.4-0.9,0.7-2,1.1-3
		c0.1-0.2,0.3-0.3,0.5-0.2c0.2,0.1,0.3,0.3,0.3,0.5c-0.4,1.2-0.8,2.2-1.1,3c-0.3,0.7-0.5,1.3-0.6,1.6l0,0v0.1
		c-0.2,0.5-0.3,1-0.4,1.4s-0.2,0.8-0.2,1.1l0,0c0,0.2,0,0.5,0.1,0.6c0.1,0.1,0.2,0.2,0.4,0.2l0,0c1.2,0,2.2-2.1,2.8-3.6v-0.1
		c0.1-0.2,0.3-0.3,0.6-0.2C2069.9,551.7,2070,551.9,2069.9,552.2z"/>
	<path class="st3" d="M2077.9,552.2L2077.9,552.2c-0.8,1.7-1.8,4.2-3.6,4.2l0,0c-0.5,0-0.9-0.2-1.1-0.6c-0.2-0.3-0.3-0.7-0.3-1.1
		l0,0c-0.7,1-1.5,1.7-2.5,1.6c-0.6,0-1-0.3-1.2-0.7c-0.3-0.4-0.4-1-0.4-1.6c0-1.1,0.6-3.3,1.6-5c0.7-1.2,1.7-2.1,2.8-2.2
		c0.1,0,0.1,0,0.2,0c0.5,0,1,0.3,1.4,0.7c0.1,0.1,0.2,0.2,0.3,0.4c0.1-0.3,0.2-0.6,0.3-0.9c0.1-0.2,0.3-0.3,0.5-0.2s0.3,0.3,0.2,0.5
		c-0.2,0.6-0.6,1.6-1,2.7c-0.3,0.7-0.5,1.4-0.7,2s-0.4,1.1-0.5,1.5s-0.2,0.8-0.2,1.1l0,0c0,0.2,0,0.5,0.1,0.6
		c0.1,0.1,0.2,0.2,0.5,0.2c1.2,0,2.2-2.1,2.8-3.6v-0.1c0.1-0.2,0.3-0.3,0.6-0.2C2077.9,551.7,2078,551.9,2077.9,552.2z
		 M2073.9,550.5c0.2-0.4,0.3-0.8,0.5-1.1c0-0.1,0-0.1,0-0.1c0-0.5-0.1-0.8-0.4-1.1c-0.2-0.2-0.5-0.4-0.8-0.4h-0.1
		c-0.8,0-1.5,0.8-2.1,1.8c-0.9,1.5-1.4,3.5-1.5,4.5c0,0.5,0.1,0.9,0.2,1.1c0.1,0.2,0.3,0.3,0.6,0.3
		C2072,555.5,2073.1,552.5,2073.9,550.5z"/>
	<path class="st3" d="M2082.1,552.2c-0.4,0.9-0.8,1.6-1.2,2.2c-0.4,0.6-0.8,1.1-1.3,1.4c-0.2,0.2-0.5,0.3-0.8,0.4
		c-0.3,0.1-0.6,0.1-0.8,0.1l0,0c-0.4,0-0.8-0.1-1-0.4c-0.3-0.3-0.4-0.7-0.4-1.2l0,0l0,0c0-0.3,0.1-0.8,0.2-1.2
		c0.1-0.5,0.3-1,0.5-1.6c0.5-1.6,1.1-3.2,1.7-4.9l0.4-1.3l0.1-0.3c0.1-0.3,0.3-0.8,0.5-1.4c0.1-0.2,0.3-0.3,0.5-0.3
		c0.2,0.1,0.3,0.3,0.3,0.5c-0.2,0.5-0.4,1.1-0.5,1.4c0,0.1-0.1,0.2-0.1,0.4l-0.4,1.3c-0.6,1.6-1.1,3.2-1.7,4.9
		c-0.2,0.6-0.3,1.1-0.5,1.5c-0.1,0.4-0.2,0.8-0.2,1l0,0c0,0.3,0.1,0.5,0.2,0.7c0.1,0.1,0.3,0.2,0.4,0.2l0,0c0.2,0,0.4,0,0.6-0.1
		s0.4-0.1,0.5-0.3c0.4-0.3,0.7-0.7,1.1-1.2c0.4-0.6,0.7-1.3,1.1-2.1c0.1-0.2,0.4-0.3,0.6-0.2
		C2082.1,551.7,2082.2,551.9,2082.1,552.2z"/>
	<path class="st3" d="M2090.8,552.8L2090.8,552.8L2090.8,552.8c0,1.2-0.5,2.1-1.2,2.7s-1.6,0.9-2.4,0.9l0,0c-0.1,0-0.1,0-0.2,0
		c-0.8,0-1.5-0.4-2-0.9s-0.8-1.2-0.8-1.9c0-0.1,0-0.1,0-0.2c0.1-0.7,0.3-1.4,0.8-2c0.5-0.5,1.1-0.8,1.9-0.8c0.5,0,1,0.2,1.4,0.6
		c0.3,0.3,0.5,0.8,0.6,1.4c0,0.2-0.2,0.4-0.4,0.4c-0.2,0-0.4-0.2-0.4-0.4c0-0.3-0.1-0.6-0.3-0.8s-0.5-0.3-0.7-0.3
		c-0.5,0-1,0.2-1.3,0.6c-0.4,0.4-0.6,0.9-0.6,1.4v0.1c0,0.5,0.2,1,0.5,1.4c0.3,0.4,0.9,0.6,1.4,0.7c0.1,0,0.1,0,0.2,0l0,0
		c0.7,0,1.4-0.2,1.9-0.7c0.5-0.4,0.9-1.1,0.9-2l0,0c0-1-0.5-1.8-1-2.7c-0.1-0.2-0.2-0.4-0.3-0.6c-0.1,0.1-0.3,0.3-0.4,0.5
		c-0.2,0.2-0.4,0.2-0.6,0c-0.2-0.1-0.2-0.4-0.1-0.6c0.2-0.3,0.4-0.5,0.7-0.7l0,0c-0.2-0.6-0.4-1.1-0.3-1.7c0-0.2,0.1-0.4,0.2-0.6
		l0,0c0.1-0.2,0.2-0.3,0.3-0.5c0.1-0.1,0.3-0.2,0.4-0.3c0.2-0.1,0.3-0.1,0.5-0.1c0.3,0,0.5,0.1,0.7,0.3s0.2,0.4,0.3,0.7
		c0,0.2,0,0.4-0.1,0.6c0,0.2-0.1,0.4-0.2,0.6c-0.2,0.5-0.5,0.9-0.8,1.2c0.1,0.3,0.3,0.5,0.4,0.8
		C2090.2,550.6,2090.8,551.6,2090.8,552.8z M2089.3,547.3c0.1-0.1,0.1-0.3,0.1-0.4c0-0.1,0.1-0.2,0-0.4c0-0.1,0-0.1,0-0.2
		c0,0,0,0-0.1,0h-0.1c-0.1,0-0.1,0.1-0.2,0.1c-0.1,0.1-0.1,0.1-0.2,0.2l0,0c0,0.1-0.1,0.2-0.1,0.3c0,0.3,0,0.6,0.1,0.9
		C2089,547.8,2089.2,547.5,2089.3,547.3z"/>
	<path class="st3" d="M2100.6,552.1c0,0.1-0.1,0.3-0.2,0.4c-0.1,0.1-0.1,0.2-0.2,0.3c-0.3,0.5-0.6,1-1,1.4c-0.4,0.4-1,0.7-1.7,0.7
		c-0.2,0-0.4,0-0.6-0.1c-0.3-0.1-0.6-0.2-0.8-0.5c-0.8,1.1-1.8,1.9-3,1.8l0,0l0,0l0,0c-0.7,0-1.2-0.4-1.4-0.8
		c-0.9,2.5-1.7,4.7-1.9,5.3c-0.1,0.2-0.3,0.3-0.5,0.3c-0.2-0.1-0.3-0.3-0.3-0.5c0.2-0.6,1.2-3.4,2.2-6.2c1.1-3.1,2.3-6.3,2.5-6.9
		c0-0.1,0.1-0.2,0.1-0.3c0.1-0.2,0.3-0.3,0.5-0.3c0.2,0.1,0.3,0.3,0.3,0.5l-0.2,0.4c0.6-0.6,1.2-1,2-1c0.6,0,1,0.3,1.3,0.7
		c0.3,0.4,0.4,1,0.4,1.6v0.1l0,0c-0.1,1.1-0.6,2.9-1.4,4.4c0,0.1-0.1,0.1-0.1,0.2c0.2,0.2,0.4,0.3,0.6,0.4c0.1,0,0.2,0,0.4,0
		c0.5,0,0.8-0.2,1.2-0.5c0.3-0.3,0.6-0.8,0.8-1.2c0-0.1,0.1-0.2,0.2-0.3c0-0.1,0.1-0.2,0.1-0.4c0.1-0.2,0.3-0.3,0.6-0.2
		C2100.6,551.7,2100.7,551.9,2100.6,552.1z M2096.4,552.1c-0.1,0.2-0.1,0.4-0.1,0.5c0.6-1.2,0.9-2.5,1-3.4l0,0v-0.1l0,0
		c0-0.5,0-0.9-0.2-1.1c-0.1-0.2-0.3-0.3-0.6-0.3c-1.6,0-2.8,3-3.6,5l-0.1,0.3c-0.1,0.5-0.3,1-0.3,1.4c0,0.6,0.1,1,0.7,1l0,0l0,0
		c0.9,0,1.8-0.7,2.4-1.7c-0.1-0.3-0.2-0.6-0.2-1c0-0.3,0-0.6,0.1-1c0.1-0.2,0.3-0.4,0.5-0.3C2096.3,551.6,2096.4,551.9,2096.4,552.1
		z"/>
	<path class="st3" d="M2108.3,552.1c-0.1,0.1-0.1,0.3-0.2,0.4s-0.1,0.2-0.2,0.3c-0.3,0.5-0.6,1-1,1.4c-0.5,0.4-1,0.7-1.7,0.7
		c-0.2,0-0.4,0-0.6-0.1c-0.3-0.1-0.6-0.3-0.9-0.5c-0.7,1-1.7,1.8-2.7,1.8c-3.3,0-1.1-5.5,0-7.3c0.7-1.2,1.7-2.1,2.8-2.1l0,0
		c0.6,0,1.1,0.2,1.5,0.7c0.3,0.4,0.5,0.9,0.5,1.6c0,1.3-0.7,3.1-1.5,4.6c0.1,0.2,0.4,0.3,0.6,0.4c0.1,0,0.2,0,0.3,0
		c0.5,0,0.9-0.2,1.2-0.5c0.3-0.3,0.6-0.8,0.8-1.2c0.1-0.1,0.1-0.2,0.2-0.3c0.1-0.1,0.1-0.2,0.2-0.4c0.1-0.2,0.3-0.3,0.6-0.2
		C2108.3,551.7,2108.4,551.9,2108.3,552.1z M2104.1,552.1c-0.1,0.2-0.1,0.3-0.1,0.5c0.6-1.2,1-2.5,1-3.4c0-0.5-0.1-0.8-0.3-1
		s-0.5-0.4-0.9-0.4c-0.8,0-1.5,0.7-2,1.7c-0.8,1.3-2.7,6-0.7,6c0.7,0,1.6-0.8,2.2-1.7c-0.1-0.3-0.2-0.6-0.2-0.9s0-0.6,0.1-1
		c0.1-0.2,0.3-0.4,0.5-0.3C2104,551.6,2104.2,551.9,2104.1,552.1z"/>
	<path class="st3" d="M2112.4,552.2c-0.4,0.9-0.8,1.6-1.2,2.2c-0.4,0.6-0.8,1.1-1.3,1.4c-0.2,0.2-0.5,0.3-0.8,0.4
		c-0.3,0.1-0.6,0.1-0.8,0.1l0,0c-0.4,0-0.8-0.1-1-0.4c-0.3-0.3-0.4-0.7-0.4-1.2l0,0l0,0c0-0.3,0.1-0.7,0.2-1.2s0.3-1,0.5-1.6
		c0.1-0.2,0.2-0.6,0.4-1.2c0.2-0.6,0.5-1.3,0.7-2c0-0.1,0.1-0.4,0.3-0.9h-1.3c-0.2,0-0.4-0.2-0.4-0.4s0.2-0.4,0.4-0.4h1.5
		c0.1-0.1,0.1-0.3,0.2-0.4c0.4-1.1,0.8-2.3,0.9-2.5s0.3-0.3,0.5-0.3c0.2,0.1,0.3,0.3,0.3,0.5c-0.1,0.2-0.5,1.4-0.9,2.5
		c0,0.1,0,0.1-0.1,0.2h1.3c0.2,0,0.4,0.2,0.4,0.4s-0.2,0.4-0.4,0.4h-1.6c-0.2,0.6-0.3,1-0.4,1.2c-0.3,0.8-0.5,1.5-0.7,2
		s-0.3,0.9-0.4,1.2c-0.2,0.6-0.4,1.1-0.5,1.5c-0.1,0.4-0.2,0.8-0.2,1.1l0,0c0,0.3,0.1,0.5,0.2,0.7c0.1,0.1,0.3,0.2,0.4,0.2l0,0
		c0.2,0,0.4,0,0.6-0.1c0.2-0.1,0.4-0.1,0.5-0.3c0.4-0.3,0.7-0.7,1.1-1.2c0.4-0.6,0.7-1.3,1.1-2.1c0.1-0.2,0.4-0.3,0.6-0.2
		C2112.4,551.7,2112.5,551.9,2112.4,552.2z"/>
</g>
<g>
	<path class="st3" d="M1995.4,549.2l-6.7,2.5l5,2.3c0.3,0.1,0.4,0.4,0.3,0.7c-0.1,0.2-0.4,0.4-0.7,0.2l-6.2-2.7
		c-0.1,0-0.2-0.1-0.3-0.3c-0.1-0.3,0-0.6,0.3-0.7l7.9-3c0.3-0.1,0.6,0,0.7,0.3C1995.8,548.8,1995.7,549.1,1995.4,549.2z"/>
	<path class="st3" d="M2007.3,549.2l-6.7,2.5l5,2.3c0.3,0.1,0.4,0.4,0.3,0.7c-0.1,0.2-0.4,0.4-0.7,0.2l-6.2-2.7
		c-0.1,0-0.2-0.1-0.3-0.3c-0.1-0.3,0-0.6,0.3-0.7l7.9-3c0.3-0.1,0.6,0,0.7,0.3C2007.6,548.8,2007.5,549.1,2007.3,549.2z"/>
</g>
</svg>
