<?xml version="1.0" encoding="utf-8"?>
<!-- Generator: Adobe Illustrator 19.1.0, SVG Export Plug-In . SVG Version: 6.00 Build 0)  -->
<svg version="1.1" id="Layer_1" xmlns="http://www.w3.org/2000/svg" xmlns:xlink="http://www.w3.org/1999/xlink" x="0px" y="0px"
	 viewBox="182 325 1156.4 461" style="enable-background:new 182 325 1156.4 461;" xml:space="preserve">
<style type="text/css">
	.st0{fill:#50516A;}
	.st1{fill:#E6E6E6;}
</style>
<g>
	<path class="st0" d="M2564.4,1527.2c-0.4,0.9-0.8,1.6-1.2,2.2s-0.8,1.1-1.3,1.4c-0.2,0.2-0.5,0.3-0.8,0.4s-0.6,0.1-0.8,0.1l0,0
		c-0.4,0-0.8-0.1-1-0.4c-0.3-0.3-0.4-0.7-0.4-1.2l0,0l0,0c0-0.3,0.1-0.7,0.2-1.2s0.3-1,0.5-1.6c0.1-0.2,0.2-0.6,0.4-1.2
		s0.5-1.3,0.7-2c0-0.1,0.1-0.4,0.3-0.9h-1.3c-0.2,0-0.4-0.2-0.4-0.4c0-0.2,0.2-0.4,0.4-0.4h1.5c0.1-0.1,0.1-0.3,0.2-0.4
		c0.4-1.1,0.8-2.3,0.9-2.5c0.1-0.2,0.3-0.3,0.5-0.3s0.3,0.3,0.3,0.5c-0.1,0.2-0.5,1.4-0.9,2.5c0,0.1,0,0.1-0.1,0.2h1.3
		c0.2,0,0.4,0.2,0.4,0.4c0,0.2-0.2,0.4-0.4,0.4h-1.6c-0.2,0.6-0.3,1-0.4,1.2c-0.3,0.8-0.5,1.5-0.7,2s-0.3,0.9-0.4,1.2
		c-0.2,0.6-0.4,1.1-0.5,1.5s-0.2,0.8-0.2,1.1l0,0c0,0.3,0.1,0.5,0.2,0.7c0.1,0.1,0.3,0.2,0.4,0.2l0,0c0.2,0,0.4,0,0.6-0.1
		c0.2-0.1,0.4-0.1,0.5-0.3c0.4-0.3,0.7-0.7,1.1-1.2c0.4-0.6,0.7-1.3,1.1-2.1c0.1-0.2,0.4-0.3,0.6-0.2
		C2564.4,1526.7,2564.5,1526.9,2564.4,1527.2z"/>
	<path class="st0" d="M2572.3,1527.2L2572.3,1527.2c-0.8,1.7-1.8,4.2-3.6,4.2l0,0c-0.6,0-0.9-0.2-1.1-0.6c-0.2-0.3-0.3-0.7-0.3-1.1
		v-0.1c0-0.4,0.1-0.9,0.2-1.4s0.3-1,0.5-1.4c0.1-0.1,0.1-0.2,0.1-0.4c0.3-0.7,0.7-1.8,0.7-2.7c0-0.6-0.3-1-1-1
		c-0.5,0-1.1,0.5-1.6,1.1c-0.7,0.9-1.4,2.2-1.8,3.3l0,0c-0.6,1.5-1.2,3.2-1.4,3.9c-0.1,0.2-0.3,0.3-0.5,0.3
		c-0.2-0.1-0.3-0.3-0.3-0.5c0.2-0.6,0.8-2.3,1.4-3.9l0,0l0,0l0,0c0.6-1.7,1.2-3.3,1.4-3.9l0,0c0.2-0.6,0.3-0.8,0.4-1.1
		c0.2-0.5,0.3-0.9,0.4-1.2l0.1-0.3c0.1-0.3,0.3-0.8,0.5-1.4c0.1-0.2,0.3-0.3,0.5-0.2s0.3,0.3,0.3,0.5c-0.2,0.5-0.4,1-0.5,1.4
		c0,0.1-0.1,0.2-0.1,0.3c-0.2,0.5-0.3,0.9-0.4,1.2l-0.3,0.7c0.6-0.6,1.2-0.9,1.8-0.9c1.4,0,1.9,0.8,1.9,1.9c0,1-0.5,2.2-0.8,3
		c-0.1,0.1-0.1,0.3-0.1,0.4c-0.2,0.5-0.3,0.9-0.5,1.4c-0.1,0.4-0.2,0.8-0.2,1.2l0,0c0,0.2,0,0.5,0.1,0.6s0.2,0.2,0.4,0.2l0,0
		c1.2,0,2.2-2.1,2.8-3.6v-0.1c0.1-0.2,0.3-0.3,0.6-0.2C2572.3,1526.7,2572.4,1526.9,2572.3,1527.2z"/>
	<path class="st0" d="M2579.5,1527.2c-0.8,1.7-1.7,2.7-2.7,3.4c-1,0.6-2.1,0.8-3.1,0.8l0,0l0,0c-0.7,0-1.4-0.3-1.8-0.7
		c-0.5-0.5-0.8-1.1-0.7-2l0,0l0,0c0-0.5,0.1-1.1,0.3-1.7l0,0c0.1-0.4,0.3-0.9,0.5-1.3c0.5-1,1.1-2,1.7-2.7c0.3-0.3,0.6-0.5,1-0.7
		c0.3-0.2,0.7-0.3,1.1-0.3c0.5,0,0.8,0.1,1.1,0.3c0.3,0.2,0.5,0.5,0.6,0.8s0,0.7-0.1,1c-0.2,0.5-0.5,1-1,1.4s-1.2,0.8-1.8,1.1
		c-0.9,0.4-1.8,0.7-2.3,0.8c-0.1,0.5-0.2,0.9-0.2,1.3l0,0c0,0.6,0.2,1.1,0.5,1.4s0.8,0.5,1.3,0.5l0,0c0.8,0,1.7-0.1,2.6-0.7
		c0.9-0.5,1.7-1.5,2.3-3c0.1-0.2,0.3-0.3,0.6-0.2C2579.5,1526.7,2579.6,1527,2579.5,1527.2z M2572.6,1526.4c0.5-0.1,1-0.3,1.6-0.6
		s1.2-0.6,1.6-1c0.3-0.3,0.6-0.6,0.7-1c0.1-0.2,0.1-0.4,0-0.6c0-0.1-0.1-0.2-0.2-0.3c-0.1-0.1-0.3-0.2-0.6-0.2
		c-0.2,0-0.5,0.1-0.7,0.2s-0.5,0.3-0.7,0.6c-0.6,0.6-1.2,1.5-1.6,2.4C2572.7,1526.1,2572.6,1526.2,2572.6,1526.4z"/>
	<path class="st0" d="M2583.2,1527.2c-0.4,0.8-0.8,1.8-1.4,2.6c-0.6,0.9-1.4,1.6-2.3,1.6l0,0c-0.5,0-0.9-0.2-1.1-0.6
		c-0.2-0.3-0.3-0.7-0.3-1.1v-0.1c0-0.3,0.1-0.7,0.2-1.2s0.3-1,0.5-1.6c0.1-0.2,0.2-0.6,0.4-1.2s0.5-1.3,0.7-2c0-0.1,0.1-0.3,0.2-0.5
		l0.3-0.9c0.1-0.2,0.3-0.3,0.5-0.3c0.2,0.1,0.3,0.3,0.3,0.5l-0.3,0.9l-0.2,0.5c-0.3,0.8-0.5,1.5-0.7,2s-0.3,0.9-0.4,1.2
		c-0.2,0.6-0.4,1.1-0.5,1.5s-0.2,0.8-0.2,1.1l0,0c0,0.2,0,0.5,0.1,0.6s0.2,0.2,0.4,0.2l0,0c0.6,0,1.1-0.5,1.6-1.2
		c0.5-0.8,0.9-1.7,1.3-2.5c0.1-0.2,0.4-0.3,0.6-0.2C2583.2,1526.7,2583.3,1526.9,2583.2,1527.2z M2581,1520.3c0-0.4,0.3-0.7,0.7-0.7
		s0.7,0.3,0.7,0.7c0,0.4-0.3,0.7-0.7,0.7C2581.3,1520.9,2581,1520.6,2581,1520.3z"/>
	<path class="st0" d="M2590.5,1527.2L2590.5,1527.2c-0.8,1.7-1.8,4.2-3.6,4.2l0,0c-0.5,0-0.9-0.2-1.1-0.6c-0.2-0.3-0.3-0.7-0.3-1.1
		v-0.1c0-0.3,0.1-0.7,0.2-1.2s0.3-1,0.5-1.6c0.2-0.5,0.3-0.9,0.4-1.1c0.1-0.4,0.2-0.6,0.4-1l-0.3-0.1c-0.6-0.2-1.2-0.4-1.8-0.7
		c-0.1,0.2-0.1,0.4-0.2,0.5l0,0l-1.6,3.5c-0.1,0.2-0.3,0.3-0.6,0.2c-0.2-0.1-0.3-0.3-0.2-0.6l1.6-3.5c0.1-0.2,0.2-0.4,0.2-0.6
		c-0.7-0.5-1.1-1-1-1.9c0-0.3,0.2-0.6,0.4-0.8l0,0c0.2-0.2,0.5-0.3,0.8-0.3c0.1,0,0.2,0,0.3,0l0,0c0.3,0.1,0.5,0.3,0.6,0.5
		s0.2,0.5,0.2,0.7s0,0.4-0.1,0.6s-0.1,0.4-0.2,0.7c0.6,0.3,1.2,0.5,1.8,0.7c0.3,0.1,0.5,0.2,0.8,0.2c0.2,0.1,0.3,0.3,0.2,0.6l0,0
		c-0.2,0.6-0.3,0.9-0.5,1.4c-0.1,0.3-0.2,0.6-0.4,1.1c-0.2,0.6-0.4,1.1-0.5,1.5s-0.2,0.8-0.2,1.1l0,0c0,0.2,0,0.5,0.2,0.6
		c0.1,0.1,0.2,0.2,0.4,0.2c1.3,0,2.2-2.1,2.8-3.6v-0.1c0.1-0.2,0.3-0.3,0.6-0.2C2590.5,1526.7,2590.6,1526.9,2590.5,1527.2z
		 M2584.5,1521.8c0-0.1,0-0.2-0.1-0.3c0-0.1-0.1-0.1-0.1-0.1l0,0h-0.1c-0.1,0-0.2,0-0.2,0.1l0,0c-0.1,0.1-0.1,0.2-0.1,0.3
		c0,0.4,0.2,0.7,0.5,0.9c0.1-0.2,0.1-0.3,0.2-0.5C2584.5,1522,2584.5,1521.9,2584.5,1521.8z"/>
	<path class="st0" d="M2601,1527.2L2601,1527.2c-0.8,1.7-1.8,4.2-3.6,4.2l0,0l0,0c-0.5,0-0.9-0.2-1.1-0.6c-0.2-0.2-0.2-0.5-0.3-0.8
		c-0.6,0.8-1.3,1.4-2.2,1.4l0,0c-0.5,0-0.9-0.2-1.1-0.6c-0.2-0.3-0.3-0.7-0.3-1.1v-0.1c0-0.3,0.1-0.7,0.2-1.2c0.1-0.5,0.3-1,0.5-1.6
		c0.1-0.3,0.3-0.9,0.6-1.6c0.3-0.9,0.7-2,1.1-3c0.1-0.2,0.3-0.3,0.5-0.2c0.2,0.1,0.3,0.3,0.2,0.5c-0.4,1.2-0.8,2.2-1.1,3
		c-0.3,0.7-0.5,1.3-0.6,1.6c-0.2,0.6-0.4,1.1-0.5,1.5s-0.2,0.8-0.2,1.1l0,0c0,0.2,0,0.5,0.1,0.6s0.2,0.2,0.5,0.2
		c1.2,0,2.2-2.1,2.8-3.6l0,0c0,0,0,0,0-0.1c0.1-0.3,0.3-0.9,0.6-1.6c0.4-0.9,0.7-2,1.1-3c0.1-0.2,0.3-0.3,0.5-0.2
		c0.2,0.1,0.3,0.3,0.3,0.5c-0.4,1.2-0.8,2.2-1.1,3c-0.3,0.7-0.5,1.3-0.6,1.6l0,0v0.1c-0.2,0.5-0.3,1-0.4,1.4
		c-0.1,0.4-0.2,0.8-0.2,1.1l0,0c0,0.2,0,0.5,0.1,0.6s0.2,0.2,0.4,0.2l0,0c1.2,0,2.2-2.1,2.8-3.6v-0.1c0.1-0.2,0.3-0.3,0.6-0.2
		C2601,1526.7,2601.1,1526.9,2601,1527.2z"/>
	<path class="st0" d="M2606.5,1527.8L2606.5,1527.8L2606.5,1527.8c0,1.2-0.5,2.1-1.2,2.7s-1.6,0.9-2.4,0.9l0,0c-0.1,0-0.1,0-0.2,0
		c-0.8,0-1.5-0.4-2-0.9s-0.8-1.2-0.8-1.9c0-0.1,0-0.1,0-0.2c0.1-0.7,0.3-1.4,0.8-2c0.5-0.5,1.1-0.8,1.9-0.8c0.5,0,1,0.2,1.4,0.6
		c0.3,0.3,0.5,0.8,0.6,1.4c0,0.2-0.2,0.4-0.4,0.4s-0.4-0.2-0.4-0.4c0-0.3-0.1-0.6-0.3-0.8c-0.2-0.2-0.5-0.3-0.7-0.3
		c-0.5,0-1,0.2-1.3,0.6c-0.4,0.4-0.6,0.9-0.6,1.4v0.1c0,0.5,0.2,1,0.5,1.4s0.9,0.6,1.4,0.7c0.1,0,0.1,0,0.2,0l0,0
		c0.7,0,1.4-0.2,1.9-0.7c0.5-0.4,0.9-1.1,0.9-2l0,0c0-1-0.5-1.8-1-2.7c-0.1-0.2-0.2-0.4-0.3-0.6c-0.1,0.1-0.3,0.3-0.4,0.5
		c-0.2,0.2-0.4,0.2-0.6,0c-0.2-0.1-0.2-0.4-0.1-0.6c0.2-0.3,0.4-0.5,0.7-0.7l0,0c-0.2-0.6-0.4-1.1-0.3-1.7c0-0.2,0.1-0.4,0.2-0.6
		l0,0c0.1-0.2,0.2-0.3,0.3-0.5c0.1-0.1,0.3-0.2,0.4-0.3c0.2-0.1,0.3-0.1,0.5-0.1c0.3,0,0.5,0.1,0.7,0.3c0.2,0.2,0.2,0.4,0.3,0.7
		c0,0.2,0,0.4-0.1,0.6c0,0.2-0.1,0.4-0.2,0.6c-0.2,0.5-0.5,0.9-0.8,1.2c0.1,0.3,0.3,0.5,0.4,0.8
		C2605.9,1525.6,2606.5,1526.6,2606.5,1527.8z M2605,1522.3c0.1-0.1,0.1-0.3,0.1-0.4s0.1-0.2,0-0.4c0-0.1,0-0.1,0-0.2c0,0,0,0-0.1,0
		h-0.1c-0.1,0-0.1,0.1-0.2,0.1c-0.1,0.1-0.1,0.1-0.2,0.2l0,0c0,0.1-0.1,0.2-0.1,0.3c0,0.3,0,0.6,0.1,0.9
		C2604.7,1522.8,2604.8,1522.5,2605,1522.3z"/>
	<path class="st0" d="M2615.9,1527.2L2615.9,1527.2c-0.8,1.7-1.8,4.2-3.6,4.2l0,0l0,0c-0.5,0-0.9-0.2-1.1-0.6
		c-0.2-0.2-0.2-0.5-0.3-0.8c-0.6,0.8-1.3,1.4-2.2,1.4l0,0c-0.5,0-0.9-0.2-1.1-0.6c-0.2-0.3-0.3-0.7-0.3-1.1v-0.1
		c0-0.3,0.1-0.7,0.2-1.2s0.3-1,0.5-1.6c0.1-0.3,0.3-0.9,0.6-1.6c0.3-0.9,0.7-2,1.1-3c0.1-0.2,0.3-0.3,0.5-0.2
		c0.2,0.1,0.3,0.3,0.2,0.5c-0.4,1.2-0.8,2.2-1.1,3c-0.3,0.7-0.5,1.3-0.6,1.6c-0.2,0.6-0.4,1.1-0.5,1.5s-0.2,0.8-0.2,1.1l0,0
		c0,0.2,0,0.5,0.1,0.6s0.2,0.2,0.5,0.2c1.2,0,2.2-2.1,2.8-3.6l0,0c0,0,0,0,0-0.1c0.1-0.3,0.3-0.9,0.6-1.6c0.4-0.9,0.7-2,1.1-3
		c0.1-0.2,0.3-0.3,0.5-0.2c0.2,0.1,0.3,0.3,0.3,0.5c-0.4,1.2-0.8,2.2-1.1,3c-0.3,0.7-0.5,1.3-0.6,1.6l0,0v0.1
		c-0.2,0.5-0.3,1-0.4,1.4c-0.1,0.4-0.2,0.8-0.2,1.1l0,0c0,0.2,0,0.5,0.1,0.6s0.2,0.2,0.4,0.2l0,0c1.2,0,2.2-2.1,2.8-3.6v-0.1
		c0.1-0.2,0.3-0.3,0.6-0.2C2615.9,1526.7,2616,1526.9,2615.9,1527.2z"/>
	<path class="st0" d="M2623.9,1527.2L2623.9,1527.2c-0.8,1.7-1.8,4.2-3.6,4.2l0,0c-0.5,0-0.9-0.2-1.1-0.6c-0.2-0.3-0.3-0.7-0.3-1.1
		l0,0c-0.7,1-1.5,1.7-2.5,1.6c-0.6,0-1-0.3-1.2-0.7c-0.3-0.4-0.4-1-0.4-1.6c0-1.1,0.6-3.3,1.6-5c0.7-1.2,1.7-2.1,2.8-2.2
		c0.1,0,0.1,0,0.2,0c0.5,0,1,0.3,1.4,0.7c0.1,0.1,0.2,0.2,0.3,0.4c0.1-0.3,0.2-0.6,0.3-0.9c0.1-0.2,0.3-0.3,0.5-0.2s0.3,0.3,0.2,0.5
		c-0.2,0.6-0.6,1.6-1,2.7c-0.3,0.7-0.5,1.4-0.7,2s-0.4,1.1-0.5,1.5s-0.2,0.8-0.2,1.1l0,0c0,0.2,0,0.5,0.1,0.6s0.2,0.2,0.5,0.2
		c1.2,0,2.2-2.1,2.8-3.6v-0.1c0.1-0.2,0.3-0.3,0.6-0.2C2623.9,1526.7,2624,1526.9,2623.9,1527.2z M2619.9,1525.5
		c0.2-0.4,0.3-0.8,0.5-1.1c0-0.1,0-0.1,0-0.1c0-0.5-0.1-0.8-0.4-1.1c-0.2-0.2-0.5-0.4-0.8-0.4h-0.1c-0.8,0-1.5,0.8-2.1,1.8
		c-0.9,1.5-1.4,3.5-1.5,4.5c0,0.5,0.1,0.9,0.2,1.1c0.1,0.2,0.3,0.3,0.6,0.3C2618,1530.5,2619.1,1527.5,2619.9,1525.5z"/>
	<path class="st0" d="M2628.1,1527.2c-0.4,0.9-0.8,1.6-1.2,2.2s-0.8,1.1-1.3,1.4c-0.2,0.2-0.5,0.3-0.8,0.4s-0.6,0.1-0.8,0.1l0,0
		c-0.4,0-0.8-0.1-1-0.4c-0.3-0.3-0.4-0.7-0.4-1.2l0,0l0,0c0-0.3,0.1-0.8,0.2-1.2c0.1-0.5,0.3-1,0.5-1.6c0.5-1.6,1.1-3.2,1.7-4.9
		l0.4-1.3l0.1-0.3c0.1-0.3,0.3-0.8,0.5-1.4c0.1-0.2,0.3-0.3,0.5-0.3c0.2,0.1,0.3,0.3,0.3,0.5c-0.2,0.5-0.4,1.1-0.5,1.4
		c0,0.1-0.1,0.2-0.1,0.4l-0.4,1.3c-0.6,1.6-1.1,3.2-1.7,4.9c-0.2,0.6-0.3,1.1-0.5,1.5c-0.1,0.4-0.2,0.8-0.2,1l0,0
		c0,0.3,0.1,0.5,0.2,0.7c0.1,0.1,0.3,0.2,0.4,0.2l0,0c0.2,0,0.4,0,0.6-0.1s0.4-0.1,0.5-0.3c0.4-0.3,0.7-0.7,1.1-1.2
		c0.4-0.6,0.7-1.3,1.1-2.1c0.1-0.2,0.4-0.3,0.6-0.2C2628.1,1526.7,2628.2,1526.9,2628.1,1527.2z"/>
	<path class="st0" d="M2636.8,1527.8L2636.8,1527.8L2636.8,1527.8c0,1.2-0.5,2.1-1.2,2.7s-1.6,0.9-2.4,0.9l0,0c-0.1,0-0.1,0-0.2,0
		c-0.8,0-1.5-0.4-2-0.9s-0.8-1.2-0.8-1.9c0-0.1,0-0.1,0-0.2c0.1-0.7,0.3-1.4,0.8-2c0.5-0.5,1.1-0.8,1.9-0.8c0.5,0,1,0.2,1.4,0.6
		c0.3,0.3,0.5,0.8,0.6,1.4c0,0.2-0.2,0.4-0.4,0.4s-0.4-0.2-0.4-0.4c0-0.3-0.1-0.6-0.3-0.8c-0.2-0.2-0.5-0.3-0.7-0.3
		c-0.5,0-1,0.2-1.3,0.6c-0.4,0.4-0.6,0.9-0.6,1.4v0.1c0,0.5,0.2,1,0.5,1.4s0.9,0.6,1.4,0.7c0.1,0,0.1,0,0.2,0l0,0
		c0.7,0,1.4-0.2,1.9-0.7c0.5-0.4,0.9-1.1,0.9-2l0,0c0-1-0.5-1.8-1-2.7c-0.1-0.2-0.2-0.4-0.3-0.6c-0.1,0.1-0.3,0.3-0.4,0.5
		c-0.2,0.2-0.4,0.2-0.6,0c-0.2-0.1-0.2-0.4-0.1-0.6c0.2-0.3,0.4-0.5,0.7-0.7l0,0c-0.2-0.6-0.4-1.1-0.3-1.7c0-0.2,0.1-0.4,0.2-0.6
		l0,0c0.1-0.2,0.2-0.3,0.3-0.5c0.1-0.1,0.3-0.2,0.4-0.3c0.2-0.1,0.3-0.1,0.5-0.1c0.3,0,0.5,0.1,0.7,0.3c0.2,0.2,0.2,0.4,0.3,0.7
		c0,0.2,0,0.4-0.1,0.6c0,0.2-0.1,0.4-0.2,0.6c-0.2,0.5-0.5,0.9-0.8,1.2c0.1,0.3,0.3,0.5,0.4,0.8
		C2636.2,1525.6,2636.8,1526.6,2636.8,1527.8z M2635.3,1522.3c0.1-0.1,0.1-0.3,0.1-0.4s0.1-0.2,0-0.4c0-0.1,0-0.1,0-0.2
		c0,0,0,0-0.1,0h-0.1c-0.1,0-0.1,0.1-0.2,0.1c-0.1,0.1-0.1,0.1-0.2,0.2l0,0c0,0.1-0.1,0.2-0.1,0.3c0,0.3,0,0.6,0.1,0.9
		C2635,1522.8,2635.2,1522.5,2635.3,1522.3z"/>
	<path class="st0" d="M2646.6,1527.1c0,0.1-0.1,0.3-0.2,0.4c-0.1,0.1-0.1,0.2-0.2,0.3c-0.3,0.5-0.6,1-1,1.4s-1,0.7-1.7,0.7
		c-0.2,0-0.4,0-0.6-0.1c-0.3-0.1-0.6-0.2-0.8-0.5c-0.8,1.1-1.8,1.9-3,1.8l0,0l0,0l0,0c-0.7,0-1.2-0.4-1.4-0.8
		c-0.9,2.5-1.7,4.7-1.9,5.3c-0.1,0.2-0.3,0.3-0.5,0.3c-0.2-0.1-0.3-0.3-0.3-0.5c0.2-0.6,1.2-3.4,2.2-6.2c1.1-3.1,2.3-6.3,2.5-6.9
		c0-0.1,0.1-0.2,0.1-0.3c0.1-0.2,0.3-0.3,0.5-0.3c0.2,0.1,0.3,0.3,0.3,0.5l-0.2,0.4c0.6-0.6,1.2-1,2-1c0.6,0,1,0.3,1.3,0.7
		s0.4,1,0.4,1.6v0.1l0,0c-0.1,1.1-0.6,2.9-1.4,4.4c0,0.1-0.1,0.1-0.1,0.2c0.2,0.2,0.4,0.3,0.6,0.4c0.1,0,0.2,0,0.4,0
		c0.5,0,0.8-0.2,1.2-0.5c0.3-0.3,0.6-0.8,0.8-1.2c0-0.1,0.1-0.2,0.2-0.3c0-0.1,0.1-0.2,0.1-0.4c0.1-0.2,0.3-0.3,0.6-0.2
		C2646.6,1526.7,2646.7,1526.9,2646.6,1527.1z M2642.4,1527.1c-0.1,0.2-0.1,0.4-0.1,0.5c0.6-1.2,0.9-2.5,1-3.4l0,0v-0.1l0,0
		c0-0.5,0-0.9-0.2-1.1c-0.1-0.2-0.3-0.3-0.6-0.3c-1.6,0-2.8,3-3.6,5l-0.1,0.3c-0.1,0.5-0.3,1-0.3,1.4c0,0.6,0.1,1,0.7,1l0,0l0,0
		c0.9,0,1.8-0.7,2.4-1.7c-0.1-0.3-0.2-0.6-0.2-1c0-0.3,0-0.6,0.1-1c0.1-0.2,0.3-0.4,0.5-0.3
		C2642.3,1526.6,2642.4,1526.9,2642.4,1527.1z"/>
	<path class="st0" d="M2654.3,1527.1c-0.1,0.1-0.1,0.3-0.2,0.4s-0.1,0.2-0.2,0.3c-0.3,0.5-0.6,1-1,1.4c-0.5,0.4-1,0.7-1.7,0.7
		c-0.2,0-0.4,0-0.6-0.1c-0.3-0.1-0.6-0.3-0.9-0.5c-0.7,1-1.7,1.8-2.7,1.8c-3.3,0-1.1-5.5,0-7.3c0.7-1.2,1.7-2.1,2.8-2.1l0,0
		c0.6,0,1.1,0.2,1.5,0.7c0.3,0.4,0.5,0.9,0.5,1.6c0,1.3-0.7,3.1-1.5,4.6c0.1,0.2,0.4,0.3,0.6,0.4c0.1,0,0.2,0,0.3,0
		c0.5,0,0.9-0.2,1.2-0.5s0.6-0.8,0.8-1.2c0.1-0.1,0.1-0.2,0.2-0.3c0.1-0.1,0.1-0.2,0.2-0.4c0.1-0.2,0.3-0.3,0.6-0.2
		C2654.3,1526.7,2654.4,1526.9,2654.3,1527.1z M2650.1,1527.1c-0.1,0.2-0.1,0.3-0.1,0.5c0.6-1.2,1-2.5,1-3.4c0-0.5-0.1-0.8-0.3-1
		s-0.5-0.4-0.9-0.4c-0.8,0-1.5,0.7-2,1.7c-0.8,1.3-2.7,6-0.7,6c0.7,0,1.6-0.8,2.2-1.7c-0.1-0.3-0.2-0.6-0.2-0.9s0-0.6,0.1-1
		c0.1-0.2,0.3-0.4,0.5-0.3C2650,1526.6,2650.2,1526.9,2650.1,1527.1z"/>
	<path class="st0" d="M2658.4,1527.2c-0.4,0.9-0.8,1.6-1.2,2.2s-0.8,1.1-1.3,1.4c-0.2,0.2-0.5,0.3-0.8,0.4s-0.6,0.1-0.8,0.1l0,0
		c-0.4,0-0.8-0.1-1-0.4c-0.3-0.3-0.4-0.7-0.4-1.2l0,0l0,0c0-0.3,0.1-0.7,0.2-1.2s0.3-1,0.5-1.6c0.1-0.2,0.2-0.6,0.4-1.2
		s0.5-1.3,0.7-2c0-0.1,0.1-0.4,0.3-0.9h-1.3c-0.2,0-0.4-0.2-0.4-0.4c0-0.2,0.2-0.4,0.4-0.4h1.5c0.1-0.1,0.1-0.3,0.2-0.4
		c0.4-1.1,0.8-2.3,0.9-2.5c0.1-0.2,0.3-0.3,0.5-0.3c0.2,0.1,0.3,0.3,0.3,0.5c-0.1,0.2-0.5,1.4-0.9,2.5c0,0.1,0,0.1-0.1,0.2h1.3
		c0.2,0,0.4,0.2,0.4,0.4c0,0.2-0.2,0.4-0.4,0.4h-1.6c-0.2,0.6-0.3,1-0.4,1.2c-0.3,0.8-0.5,1.5-0.7,2s-0.3,0.9-0.4,1.2
		c-0.2,0.6-0.4,1.1-0.5,1.5s-0.2,0.8-0.2,1.1l0,0c0,0.3,0.1,0.5,0.2,0.7c0.1,0.1,0.3,0.2,0.4,0.2l0,0c0.2,0,0.4,0,0.6-0.1
		c0.2-0.1,0.4-0.1,0.5-0.3c0.4-0.3,0.7-0.7,1.1-1.2c0.4-0.6,0.7-1.3,1.1-2.1c0.1-0.2,0.4-0.3,0.6-0.2
		C2658.4,1526.7,2658.5,1526.9,2658.4,1527.2z"/>
</g>
<g>
	<path class="st0" d="M2541.4,1524.2l-6.7,2.5l5,2.3c0.3,0.1,0.4,0.4,0.3,0.7c-0.1,0.2-0.4,0.4-0.7,0.2l-6.2-2.7
		c-0.1,0-0.2-0.1-0.3-0.3c-0.1-0.3,0-0.6,0.3-0.7l7.9-3c0.3-0.1,0.6,0,0.7,0.3C2541.8,1523.8,2541.7,1524.1,2541.4,1524.2z"/>
	<path class="st0" d="M2553.3,1524.2l-6.7,2.5l5,2.3c0.3,0.1,0.4,0.4,0.3,0.7c-0.1,0.2-0.4,0.4-0.7,0.2l-6.2-2.7
		c-0.1,0-0.2-0.1-0.3-0.3c-0.1-0.3,0-0.6,0.3-0.7l7.9-3c0.3-0.1,0.6,0,0.7,0.3C2553.6,1523.8,2553.5,1524.1,2553.3,1524.2z"/>
</g>
<path class="st1" d="M900.6,538c0.1-0.7,0.2-1.3,0.2-2c0-7.8-8.3-14.1-18.6-14.1c-4.3,0-8.3,1.1-11.4,3c-5.4-6.6-14.8-11-25.6-11
	c-3.6,0-7,0.5-10.2,1.4c-0.1-15.5-13.9-28-31-28c-11,0-20.7,5.2-26.2,13.1c-6.1-3-13.3-4.8-21.1-4.8c-21.2,0-38.4,13.1-38.9,29.4
	c-3.9-2.5-9-4.1-14.5-4.1c-12.3,0-22.3,7.6-22.3,17l0,0L900.6,538L900.6,538z"/>
<path class="st1" d="M401.9,644c-3.1-16.4-21.3-29-43.4-29c-10,0-19.1,2.6-26.5,6.9c-1.9-16.5-17.2-29.4-35.9-29.4
	c-18.7,0-34.1,13-35.9,29.6c-4.4-1.7-9.3-2.7-14.6-2.7c-17.8,0-32.2,11-32.2,24.5c0,0,0,0,0,0.1H401.9z"/>
<path class="st1" d="M1307,467.9c-8.6-17.7-30.6-30.3-56.4-30.3c-12.3,0-23.7,2.9-33.2,7.7c-1.3-29.2-27.7-52.5-60.2-52.5
	c-25.4,0-47.1,14.3-56,34.6c-6.2-3.8-14-6-22.5-6c-19.7,0-35.7,12-36,27c-5-2.3-10.8-3.6-17-3.6c-17.4,0-31.6,10.2-33,23.1
	L1307,467.9L1307,467.9z"/>
<g>
	<g>
		<path class="st1" d="M884.4,452.1c-0.1,0-0.3,0-0.4-0.1c-0.6-0.2-0.9-0.9-0.7-1.5c3.8-10.3-1.5-21.8-11.8-25.7
			c-8.2-3-19.7-1.5-26.3,3.4c-0.5,0.4-1.2,0.3-1.6-0.2c-0.4-0.5-0.3-1.2,0.2-1.6c7.3-5.5,19.5-7.1,28.5-3.7
			c11.5,4.3,17.4,17.1,13.1,28.6C885.3,451.8,884.9,452.1,884.4,452.1z"/>
	</g>
	<g>
		<path class="st1" d="M930,460.2c-0.5,0-1-0.4-1.1-0.9c-1.8-8-9.5-16.7-17.7-19.8c-5-1.9-10.4-1.7-15.3,0.6
			c-4.8,2.2-8.5,6.2-10.4,11.2c-0.2,0.6-0.9,0.9-1.5,0.7c-0.6-0.2-0.9-0.9-0.7-1.5c4.3-11.5,17.1-17.4,28.6-13.1
			c9,3.3,17.2,12.5,19.1,21.4C931.1,459.4,930.7,460,930,460.2C930.1,460.2,930,460.2,930,460.2z"/>
	</g>
</g>
<g>
	<g>
		<path class="st1" d="M1433.1,932.6c-0.1,0-0.3,0-0.4-0.1c-0.6-0.2-0.9-0.9-0.7-1.5c3.8-10.3-1.5-21.8-11.8-25.7
			c-8.2-3-19.7-1.5-26.3,3.4c-0.5,0.4-1.2,0.3-1.6-0.2s-0.3-1.2,0.2-1.6c7.3-5.5,19.5-7.1,28.5-3.7c11.5,4.3,17.4,17.1,13.1,28.6
			C1434,932.3,1433.6,932.6,1433.1,932.6z"/>
	</g>
	<g>
		<path class="st1" d="M1478.7,940.7c-0.5,0-1-0.4-1.1-0.9c-1.8-8-9.5-16.7-17.7-19.8c-5-1.9-10.4-1.7-15.3,0.6
			c-4.8,2.2-8.5,6.2-10.4,11.2c-0.2,0.6-0.9,0.9-1.5,0.7s-0.9-0.9-0.7-1.5c4.3-11.5,17.1-17.4,28.6-13.1c9,3.3,17.2,12.5,19.1,21.4
			C1479.8,939.9,1479.4,940.5,1478.7,940.7C1478.8,940.7,1478.7,940.7,1478.7,940.7z"/>
	</g>
</g>
<g>
	<g>
		<path class="st1" d="M1455.2,1154.6c-0.1,0-0.3,0-0.4-0.1c-0.6-0.2-0.9-0.9-0.7-1.5c3.8-10.3-1.5-21.8-11.8-25.7
			c-8.2-3-19.7-1.5-26.3,3.4c-0.5,0.4-1.2,0.3-1.6-0.2s-0.3-1.2,0.2-1.6c7.3-5.5,19.5-7.1,28.5-3.7c11.5,4.3,17.4,17.1,13.1,28.6
			C1456.1,1154.3,1455.7,1154.6,1455.2,1154.6z"/>
	</g>
	<g>
		<path class="st1" d="M1500.8,1162.7c-0.5,0-1-0.4-1.1-0.9c-1.8-8-9.5-16.7-17.7-19.8c-5-1.9-10.4-1.7-15.3,0.6
			c-4.8,2.2-8.5,6.2-10.4,11.2c-0.2,0.6-0.9,0.9-1.5,0.7s-0.9-0.9-0.7-1.5c4.3-11.5,17.1-17.4,28.6-13.1c9,3.3,17.2,12.5,19.1,21.4
			C1501.9,1161.9,1501.5,1162.5,1500.8,1162.7C1500.9,1162.7,1500.8,1162.7,1500.8,1162.7z"/>
	</g>
</g>
<g>
	<g>
		<path class="st1" d="M1191.2,627.1c-0.1,0-0.4,0-0.6-0.1c-0.8-0.3-1.3-1.3-1-2.1c5.3-14.4-2.1-30.4-16.5-35.9
			c-11.4-4.2-27.5-2.1-36.7,4.7c-0.7,0.6-1.7,0.4-2.2-0.3s-0.4-1.7,0.3-2.2c10.2-7.7,27.2-9.9,39.8-5.2c16.1,6,24.3,23.9,18.3,39.9
			C1192.4,626.7,1191.9,627.1,1191.2,627.1z"/>
	</g>
	<g>
		<path class="st1" d="M1254.8,638.4c-0.7,0-1.4-0.6-1.5-1.3c-2.5-11.2-13.3-23.3-24.7-27.6c-7-2.7-14.5-2.4-21.4,0.8
			c-6.7,3.1-11.9,8.7-14.5,15.6c-0.3,0.8-1.3,1.3-2.1,1s-1.3-1.3-1-2.1c6-16.1,23.9-24.3,39.9-18.3c12.6,4.6,24,17.5,26.7,29.9
			c0.1,0.8-0.4,1.7-1.3,1.8C1255,638.4,1254.8,638.4,1254.8,638.4z"/>
	</g>
</g>
<g>
	<g>
		<path class="st1" d="M273.7,535.4c-4.3-11.5,1.6-24.3,13.1-28.6c9-3.4,21.2-1.8,28.5,3.7c0.5,0.4,0.6,1.1,0.2,1.6
			c-0.4,0.5-1.1,0.6-1.6,0.2c-6.6-4.9-18.1-6.4-26.3-3.4c-10.3,3.9-15.6,15.4-11.8,25.7c0.2,0.6-0.1,1.3-0.7,1.5
			c-0.1,0.1-0.3,0.1-0.4,0.1C274.2,536.2,273.8,535.9,273.7,535.4z"/>
	</g>
	<g>
		<path class="st1" d="M229,544.2c-0.6-0.1-1-0.7-0.9-1.3c1.9-8.9,10.1-18.1,19.1-21.4c11.5-4.3,24.3,1.6,28.6,13.1
			c0.2,0.6-0.1,1.3-0.7,1.5s-1.3-0.1-1.5-0.7c-1.9-5-5.6-9-10.4-11.2c-4.9-2.3-10.3-2.5-15.3-0.6c-8.2,3.1-15.9,11.8-17.7,19.8
			C230.1,543.9,229.6,544.3,229,544.2C229.1,544.3,229,544.3,229,544.2z"/>
	</g>
</g>
<g>
	<g>
		<path class="st1" d="M368.9,732.3c-7.1-18.9,2.6-39.9,21.5-47c14.8-5.6,34.8-3,46.8,6.1c0.8,0.7,1,1.8,0.3,2.6
			c-0.7,0.8-1.8,1-2.6,0.3c-10.8-8-29.7-10.5-43.2-5.6c-16.9,6.4-25.6,25.3-19.4,42.2c0.3,1-0.2,2.1-1.1,2.5
			c-0.2,0.2-0.5,0.2-0.7,0.2C369.7,733.6,369.1,733.1,368.9,732.3z"/>
	</g>
	<g>
		<path class="st1" d="M295.5,746.7c-1-0.2-1.6-1.1-1.5-2.1c3.1-14.6,16.6-29.7,31.4-35.2c18.9-7.1,39.9,2.6,47,21.5
			c0.3,1-0.2,2.1-1.1,2.5s-2.1-0.2-2.5-1.1c-3.1-8.2-9.2-14.8-17.1-18.4c-8-3.8-16.9-4.1-25.1-1c-13.5,5.1-26.1,19.4-29.1,32.5
			c-0.2,0.8-1,1.5-1.8,1.5C295.7,746.9,295.5,746.9,295.5,746.7z"/>
	</g>
</g>
<g>
	<g>
		<path class="st1" d="M960.4,433.1c-0.1,0-0.2,0-0.3-0.1c-0.4-0.2-0.6-0.6-0.5-1c2.7-7.4-1-15.6-8.4-18.3
			c-5.8-2.2-14.1-1.1-18.8,2.4c-0.4,0.3-0.9,0.2-1.1-0.2c-0.3-0.4-0.2-0.9,0.2-1.1c5.2-3.9,13.9-5,20.3-2.7
			c8.2,3,12.4,12.2,9.4,20.4C961,432.9,960.7,433.1,960.4,433.1z"/>
	</g>
	<g>
		<path class="st1" d="M992.9,438.9c-0.4,0-0.7-0.3-0.8-0.6c-1.3-5.7-6.8-11.9-12.6-14.1c-3.6-1.3-7.4-1.2-10.9,0.4s-6.1,4.4-7.4,8
			c-0.2,0.4-0.6,0.6-1,0.5c-0.4-0.2-0.6-0.6-0.5-1c3-8.2,12.2-12.4,20.4-9.4c6.4,2.4,12.3,8.9,13.7,15.3c0.1,0.4-0.2,0.9-0.6,1
			C993,438.9,992.9,438.9,992.9,438.9z"/>
	</g>
</g>
</svg>
