<?xml version="1.0" encoding="utf-8"?>
<!-- Generator: Adobe Illustrator 19.1.0, SVG Export Plug-In . SVG Version: 6.00 Build 0)  -->
<svg version="1.1" id="Layer_1" xmlns="http://www.w3.org/2000/svg" xmlns:xlink="http://www.w3.org/1999/xlink" x="0px" y="0px"
	 viewBox="182 325 1156.4 360" style="enable-background:new 182 325 1156.4 360;" xml:space="preserve">
<style type="text/css">
	.st0{fill:#E6E7E8;}
	.st1{fill:#03A8A0;}
	.st2{opacity:0.2;fill:#03A8A0;}
	.st3{fill:#E2E0E0;}
	.st4{fill:none;}
	.st5{fill:#F4EC8F;}
	.st6{fill:#D3CB7D;}
	.st7{fill:#50516A;}
	.st8{fill:#FFFFFF;}
</style>
<g>
	<path class="st0" d="M1302,489.5c-14.5,0-22.6-6.1-28-10.1c-4.1-3.1-5.8-4.4-10.7-4.4c-4.9,0-6.6,1.3-10.7,4.4
		c-5.4,4-13.5,10.1-28,10.1s-22.6-6.1-28-10.1c-4.1-3.1-5.8-4.4-10.7-4.4c-4.9,0-6.6,1.3-10.7,4.4c-5.4,4-13.5,10.1-28,10.1
		s-22.6-6.1-28-10.1c-4.1-3.1-5.8-4.4-10.7-4.4c-4.9,0-6.6,1.3-10.7,4.4c-5.4,4-13.5,10.1-28,10.1s-22.6-6.1-28-10.1
		c-4.1-3.1-5.8-4.4-10.7-4.4c-4.9,0-6.6,1.3-10.7,4.4c-5.4,4-13.5,10.1-28,10.1s-22.6-6.1-28-10.1c-4.1-3.1-5.8-4.4-10.7-4.4
		c-4.9,0-6.6,1.3-10.7,4.4c-5.4,4-13.5,10.1-28,10.1s-22.6-6.1-28-10.1c-4.1-3.1-5.8-4.4-10.7-4.4c-4.9,0-6.6,1.3-10.7,4.4
		c-5.4,4-13.5,10.1-28,10.1s-22.6-6.1-28-10.1c-4.1-3.1-5.8-4.4-10.7-4.4s-6.6,1.3-10.7,4.4c-5.4,4-13.5,10.1-28,10.1
		s-22.6-6.1-28-10.1c-4.1-3.1-5.8-4.4-10.7-4.4s-6.6,1.3-10.7,4.4c-5.4,4-13.5,10.1-28,10.1s-22.6-6.1-28-10.1
		c-4.1-3.1-5.8-4.4-10.7-4.4s-6.6,1.3-10.7,4.4c-5.4,4-13.5,10.1-28,10.1s-22.6-6.1-28-10.1c-4.1-3.1-5.8-4.4-10.7-4.4
		s-6.6,1.3-10.7,4.4c-5.4,4-13.5,10.1-28,10.1s-22.6-6.1-28-10.1c-4.1-3.1-5.8-4.4-10.7-4.4s-6.6,1.3-10.7,4.4
		c-5.4,4-13.5,10.1-28,10.1s-22.6-6.1-28-10.1c-4.1-3.1-5.8-4.3-10.7-4.3s-6.6,1.3-10.7,4.4c-5.4,4-13.5,10.1-28,10.1
		s-22.6-6.1-28-10.1c-4.1-3.1-5.8-4.4-10.7-4.4s-6.6,1.3-10.7,4.3c-5.4,4-13.5,10.1-28,10.1s-22.6-6.1-28-10.1
		c-4.1-3.1-5.8-4.4-10.7-4.4c-4.9,0-6.6,1.3-10.7,4.3c-5.4,4-13.5,10.1-28,10.1s-22.6-6.1-28-10.1c-4.1-3.1-5.8-4.4-10.7-4.4
		c-8,0-14.5-6.5-14.5-14.5s6.5-14.5,14.5-14.5c14.5,0,22.6,6.1,28,10.1c4.1,3.1,5.8,4.4,10.7,4.4c4.9,0,6.6-1.3,10.7-4.3
		c5.4-4,13.5-10.1,28-10.1s22.6,6.1,28,10.1c4.1,3.1,5.8,4.4,10.7,4.4s6.6-1.3,10.7-4.3c5.4-4,13.5-10.1,28-10.1s22.6,6.1,28,10.1
		c4.1,3.1,5.8,4.4,10.7,4.4s6.6-1.3,10.7-4.4c5.4-4,13.5-10.1,28-10.1s22.6,6.1,28,10.1c4.1,3.1,5.8,4.4,10.7,4.4s6.6-1.3,10.7-4.4
		c5.4-4,13.5-10.1,28-10.1s22.6,6.1,28,10.1c4.1,3.1,5.8,4.4,10.7,4.4s6.6-1.3,10.7-4.4c5.4-4,13.5-10.1,28-10.1s22.6,6.1,28,10.1
		c4.1,3.1,5.8,4.4,10.7,4.4s6.6-1.3,10.7-4.4c5.4-4,13.5-10.1,28-10.1s22.6,6.1,28,10.1c4.1,3.1,5.8,4.4,10.7,4.4s6.6-1.3,10.7-4.4
		c5.4-4,13.5-10.1,28-10.1s22.6,6.1,28,10.1c4.1,3.1,5.8,4.4,10.7,4.4s6.6-1.3,10.7-4.4c5.4-4,13.5-10.1,28-10.1
		c14.5,0,22.6,6.1,28,10.1c4.1,3.1,5.8,4.4,10.7,4.4c4.9,0,6.6-1.3,10.7-4.4c5.4-4,13.5-10.1,28-10.1s22.6,6.1,28,10.1
		c4.1,3.1,5.8,4.4,10.7,4.4c4.9,0,6.6-1.3,10.7-4.4c5.4-4,13.5-10.1,28-10.1s22.6,6.1,28,10.1c4.1,3.1,5.8,4.4,10.7,4.4
		c4.9,0,6.6-1.3,10.7-4.4c5.4-4,13.5-10.1,28-10.1s22.6,6.1,28,10.1c4.1,3.1,5.8,4.4,10.7,4.4c4.9,0,6.6-1.3,10.7-4.4
		c5.4-4,13.5-10.1,28-10.1s22.6,6.1,28,10.1c4.1,3.1,5.8,4.4,10.7,4.4c4.9,0,6.6-1.3,10.7-4.4c5.4-4,13.5-10.1,28-10.1
		s22.6,6.1,28,10.1c4.1,3.1,5.8,4.4,10.7,4.4c4.9,0,6.6-1.3,10.7-4.4c5.4-4,13.5-10.1,28-10.1s22.6,6.1,28,10.1
		c4.1,3.1,5.8,4.4,10.7,4.4s6.6-1.3,10.7-4.4c5.4-4,13.5-10.1,28-10.1c8,0,14.5,6.5,14.5,14.5s-6.5,14.5-14.5,14.5
		c-4.9,0-6.6,1.3-10.7,4.4C1324.6,483.4,1316.5,489.5,1302,489.5z"/>
</g>
<g>
	<g>
		<g>
			<g>
				<g>
					<g>
						<path class="st1" d="M1315,525.8c-0.3,1.3-1.1-1-3.9-4.7c-2.7-3.7-4-2.7-6.4-5.6c-0.2-0.3-0.4-0.6-0.6-0.9
							c-1.4-2.5,0.2-4.2,1.9-3.7c0.1,0,0.1,0,0.2,0.1C1309,512.2,1316.5,519.3,1315,525.8z"/>
						<path class="st1" d="M1304.1,514.7c-0.5,0-1.2-0.1-2-0.3c-1.6-0.5-3-1.2-4.2-1.9c-0.5-0.3-1-0.6-1.5-0.9
							c-1.5-0.9-2.9-1.8-4.7-2.2c-0.3-0.1-0.6-0.2-0.9-0.3c-2.8-1.1-2.6-3.6-0.9-4.1c0.3-0.1,0.9-0.2,1.5-0.2c1.5,0,3.8,0.2,6.1,0.8
							c0.6,0.1,1.1,0.3,1.7,0.5c3.2,1,6.2,2.7,6.9,5c0,0.1,0,0.1,0.1,0.2C1306.5,512.3,1306.6,514.6,1304.1,514.7z"/>
						<path class="st1" d="M1291,509.1c-0.4,0.2-1,0.3-1.7,0.4c-1.5,0.2-2.9,0.2-4.1,0.1c-0.6,0-1.2-0.1-1.7-0.2
							c-1.6-0.2-3.1-0.4-4.6-0.2c-0.3,0-0.7,0.1-1,0.2c-3.7,0.8-4.8-1.9-3.5-3.2c0.8-0.8,3.2-1.8,6-2.4c0.6-0.1,1.1-0.2,1.7-0.3
							c1.2-0.2,2.4-0.3,3.5-0.3c0.1,0,0.2,0,0.3,0c0.1,0,0.2,0,0.3,0c2.2,0,4.2,0.5,5.3,1.7c0.1,0.1,0.1,0.1,0.2,0.2
							C1292.4,505.8,1293.5,508,1291,509.1z"/>
					</g>
					<g>
						<path class="st1" d="M1319.2,513.6c-0.1,1.3-1.2-0.8-4.4-4.2c-3.1-3.4-4.3-2.2-7-4.9c-0.3-0.3-0.5-0.5-0.7-0.8
							c-1.7-2.3-0.2-4.2,1.4-3.9c0.1,0,0.1,0,0.2,0C1311.7,500.7,1319.9,506.9,1319.2,513.6z"/>
						<path class="st1" d="M1307.2,503.7c-0.5,0.1-1.2,0.1-2-0.1c-1.7-0.3-3.1-0.8-4.3-1.4c-0.5-0.2-1.1-0.5-1.6-0.7
							c-1.6-0.8-3.1-1.5-4.9-1.7c-0.3,0-0.6-0.1-0.9-0.2c-2.1-0.5-2.7-2-2.3-3c0.1-0.4,0.5-0.8,0.9-1c0.3-0.1,0.7-0.2,1.1-0.3
							c0.1,0,0.2,0,0.3-0.1c1.5-0.2,3.8-0.2,6.1,0.1c0.6,0.1,1.2,0.2,1.8,0.3c3.3,0.7,6.4,2,7.4,4.2c0,0.1,0.1,0.1,0.1,0.2
							C1309.2,501.1,1309.6,503.4,1307.2,503.7z"/>
						<path class="st1" d="M1293.5,499.7c-0.4,0.2-0.9,0.4-1.6,0.6c-1.5,0.4-2.8,0.5-4.1,0.6c-0.6,0-1.2,0-1.8,0
							c-1.1,0-2.1,0-3.2,0.1c-0.8,0.1-1.5,0.2-2.3,0.5c-3.6,1.2-5-1.3-3.8-2.8c0.5-0.6,1.8-1.5,3.5-2.2c0.7-0.3,1.4-0.6,2.1-0.9
							c0.4-0.1,0.8-0.3,1.2-0.4c0.9-0.3,1.8-0.5,2.7-0.7c0.5-0.1,1-0.2,1.5-0.2c0.1,0,0.2,0,0.2,0c2.1-0.2,4.1,0,5.4,1
							c0,0,0.1,0,0.1,0.1c0.1,0.1,0.1,0.1,0.2,0.2C1294.5,496.3,1295.9,498.3,1293.5,499.7z"/>
					</g>
					<g>
						<path class="st1" d="M1304.5,542.5c-0.6,1.1-0.8-1.2-2.4-5.6c-1.6-4.3-3.1-3.7-4.6-7.2c-0.2-0.3-0.3-0.7-0.3-1
							c-0.7-2.8,1.4-4,2.8-3c0,0,0.1,0.1,0.2,0.1C1302.5,527.7,1307.7,536.6,1304.5,542.5z"/>
						<path class="st1" d="M1300.1,525.9v0.2c0,1.1-0.6,3.3-3,2.7c-0.5-0.1-1.1-0.4-1.8-0.8c-2.8-1.7-4.3-4-6.1-5.7
							c-0.4-0.4-0.8-0.8-1.3-1.1c-0.4-0.3-0.8-0.6-1.2-0.8c-0.3-0.2-0.5-0.3-0.7-0.5c-2.4-1.8-1.5-4.1,0.2-4.2c0.4,0,0.9,0,1.5,0.2
							c0.4,0.1,0.8,0.2,1.3,0.4c0.5,0.2,1,0.4,1.5,0.6C1294.6,518.6,1300,522.3,1300.1,525.9z"/>
						<path class="st1" d="M1286,519.8c-0.5,0.1-1,0.1-1.7,0c-2.2-0.3-4-1-5.6-1.7c-1.6-0.7-3-1.3-4.7-1.6c-0.1,0-0.1,0-0.2,0
							c-0.2,0-0.3,0-0.5,0c-1.1-0.1-1.9-0.4-2.4-0.8c-1.3-0.9-1.2-2.4-0.2-3.1c0.1,0,0.1-0.1,0.2-0.1c0.9-0.5,3.2-0.8,5.7-0.7
							c0.4,0,0.7,0,1.1,0c1.5,0.1,3,0.3,4.4,0.7c2.5,0.6,4.7,1.7,5.6,3.4c0,0.1,0.1,0.2,0.1,0.3C1288.3,517,1288.7,519.5,1286,519.8
							z"/>
					</g>
					<g>
						<path class="st1" d="M1290.2,556.5c-0.9,0.9-0.4-1.4-0.6-6.1c-0.2-4.6-1.8-4.5-2.2-8.2c0-0.4,0-0.7,0-1.1
							c0.2-2.8,2.6-3.4,3.6-2c0,0,0.1,0.1,0.1,0.2C1292.8,541.9,1295.1,551.9,1290.2,556.5z"/>
						<path class="st1" d="M1291.1,539.3c0,0.1,0,0.1-0.1,0.2c-0.4,1-1.6,3-3.7,1.7c-0.4-0.3-0.9-0.7-1.5-1.3
							c-2.2-2.6-2.9-5.2-4.1-7.5c-0.3-0.5-0.6-1.1-1-1.6c-0.2-0.3-0.4-0.5-0.7-0.8c-0.2-0.2-0.4-0.5-0.6-0.7
							c-1.7-2.4-0.2-4.4,1.5-3.9c0.2,0,0.4,0.1,0.6,0.2c0.2,0.1,0.5,0.3,0.7,0.4c0.2,0.1,0.3,0.2,0.5,0.3
							C1286.5,528.8,1292.3,535.2,1291.1,539.3z"/>
						<path class="st1" d="M1281,529.2c-0.4,0.1-0.9,0.2-1.5,0.1c-0.5-0.1-1-0.3-1.6-0.5c-2.1-1-3.6-2.3-5-3.5
							c-0.9-0.8-1.7-1.5-2.7-2.1c-0.5-0.4-1.1-0.7-1.8-0.9c-3.5-1.4-3-4.2-1.1-4.6c0.6-0.1,1.5,0,2.6,0.2c2,0.4,4.7,1.3,7.1,2.6h0
							c2.1,1.1,3.9,2.5,4.8,4.1c0.3,0.5,0.5,1,0.6,1.5c0,0.1,0,0.2,0,0.3C1282.5,527.1,1282.4,528.7,1281,529.2z"/>
					</g>
				</g>
			</g>
			<g>
				<g>
					<g>
						<path class="st1" d="M1159.2,525.8c0.3,1.3,1.1-1,3.9-4.7c2.7-3.7,4-2.7,6.4-5.6c0.2-0.3,0.4-0.6,0.6-0.9
							c1.4-2.5-0.2-4.2-1.9-3.7c-0.1,0-0.1,0-0.2,0.1C1165.2,512.2,1157.8,519.3,1159.2,525.8z"/>
						<path class="st1" d="M1170.1,514.7c0.5,0,1.2-0.1,2-0.3c1.6-0.5,3-1.2,4.2-1.9c0.5-0.3,1-0.6,1.5-0.9c1.5-0.9,2.9-1.8,4.7-2.2
							c0.3-0.1,0.6-0.2,0.8-0.3c2.8-1.1,2.6-3.5,0.9-4.1c-0.3-0.1-0.8-0.2-1.5-0.2c-1.5,0-3.8,0.2-6.1,0.8c-0.6,0.1-1.1,0.3-1.7,0.5
							c-3.2,1-6.2,2.7-6.9,5c0,0.1,0,0.1-0.1,0.2C1167.8,512.3,1167.7,514.6,1170.1,514.7z"/>
						<path class="st1" d="M1183.3,509.1c0.4,0.2,1,0.3,1.7,0.4c1.5,0.2,2.9,0.2,4.1,0.1c2.6-0.2,4.9-0.8,7.4-0.3
							c3.7,0.8,4.8-1.9,3.5-3.2c-0.8-0.8-3.2-1.8-6-2.4c-1.8-0.4-3.7-0.7-5.6-0.7c-0.1,0-0.2,0-0.2,0c-2.2,0-4.2,0.5-5.3,1.7
							c-0.1,0.1-0.1,0.1-0.2,0.2C1181.9,505.8,1180.7,508,1183.3,509.1z"/>
					</g>
					<g>
						<path class="st1" d="M1155,513.6c0.1,1.3,1.2-0.8,4.4-4.2c3.1-3.4,4.3-2.2,7-4.9c0.3-0.3,0.5-0.5,0.7-0.8
							c1.7-2.3,0.2-4.2-1.4-3.9c-0.1,0-0.1,0-0.2,0C1162.5,500.7,1154.3,506.9,1155,513.6z"/>
						<path class="st1" d="M1167.1,503.7c0.5,0.1,1.2,0.1,2-0.1c1.7-0.3,3.1-0.8,4.3-1.4c0.5-0.2,1.1-0.5,1.6-0.7
							c1.6-0.8,3.1-1.5,4.9-1.7c0.3,0,0.6-0.1,0.9-0.2c2.9-0.7,3-3.2,1.4-4c-0.3-0.2-0.8-0.3-1.4-0.4c-1.5-0.2-3.8-0.2-6.1,0.1
							c-0.6,0.1-1.2,0.2-1.7,0.3c-3.3,0.7-6.4,2-7.4,4.2c0,0.1-0.1,0.1-0.1,0.2C1165,501.1,1164.7,503.4,1167.1,503.7z"/>
						<path class="st1" d="M1180.8,499.7c0.4,0.2,0.9,0.4,1.6,0.6c1.5,0.4,2.8,0.5,4.1,0.6c2.6,0.1,4.9-0.2,7.3,0.6
							c3.6,1.2,5-1.3,3.8-2.8c-0.7-0.9-3-2.1-5.7-3.1c-1.7-0.6-3.6-1.1-5.4-1.3c-0.1,0-0.2,0-0.2,0c-2.2-0.2-4.2,0-5.5,1.1
							c-0.1,0.1-0.1,0.1-0.2,0.2C1179.8,496.3,1178.4,498.3,1180.8,499.7z"/>
					</g>
					<g>
						<path class="st1" d="M1169.8,542.5c0.6,1.1,0.8-1.2,2.4-5.6c1.6-4.3,3.1-3.7,4.6-7.2c0.2-0.4,0.3-0.7,0.3-1
							c0.7-2.8-1.4-4-2.8-3c0,0-0.1,0.1-0.2,0.1C1171.8,527.7,1166.6,536.6,1169.8,542.5z"/>
						<path class="st1" d="M1174.2,525.9v0.2c0,1.1,0.6,3.3,3,2.7c0.5-0.1,1.1-0.4,1.8-0.8c2.8-1.7,4.3-4,6.1-5.7
							c0.4-0.4,0.8-0.8,1.3-1.1c0.4-0.3,0.8-0.6,1.2-0.8c0.3-0.2,0.5-0.3,0.7-0.5c2.4-1.8,1.5-4.1-0.2-4.2c-0.4,0-0.9,0.1-1.5,0.2
							c-0.4,0.1-0.8,0.2-1.3,0.4c-0.5,0.2-1,0.4-1.5,0.6C1179.6,518.6,1174.3,522.3,1174.2,525.9z"/>
						<path class="st1" d="M1188.2,519.8c0.5,0.1,1,0.1,1.7,0c4.3-0.5,6.9-2.8,10.3-3.3c0.1,0,0.1,0,0.2,0c0.2,0,0.3,0,0.5,0
							c3.6-0.2,4.1-2.9,2.7-3.9c-0.1,0-0.1-0.1-0.2-0.1c-1-0.6-3.8-0.8-6.8-0.7c-4.1,0.3-8.7,1.4-10,4c0,0.1-0.1,0.2-0.1,0.3
							C1186,517,1185.5,519.5,1188.2,519.8z"/>
					</g>
					<g>
						<path class="st1" d="M1184,556.5c0.9,0.9,0.4-1.4,0.6-6c0.2-4.6,1.8-4.5,2.2-8.2c0-0.4,0-0.7,0-1.1c-0.2-2.8-2.6-3.4-3.6-2
							c0,0-0.1,0.1-0.1,0.2C1181.4,541.9,1179.2,551.9,1184,556.5z"/>
						<path class="st1" d="M1183.1,539.3c0,0.1,0,0.1,0.1,0.2c0.4,1,1.6,3,3.7,1.7c0.5-0.3,0.9-0.7,1.5-1.3c2.2-2.6,2.9-5.2,4.1-7.5
							c0.3-0.5,0.6-1.1,1-1.6c0.2-0.3,0.4-0.5,0.7-0.8c0.2-0.2,0.4-0.5,0.6-0.7c1.7-2.4,0.2-4.4-1.5-3.9c-0.2,0-0.4,0.1-0.6,0.2
							c-0.2,0.1-0.5,0.2-0.7,0.4c-0.2,0.1-0.3,0.2-0.5,0.3C1187.8,528.8,1181.9,535.2,1183.1,539.3z"/>
						<path class="st1" d="M1193.2,529.2c0.4,0.1,0.9,0.2,1.5,0.1c0.5-0.1,1-0.3,1.6-0.6c3.4-1.6,5.2-4,7.7-5.6
							c0.5-0.4,1.1-0.7,1.8-0.9c3.5-1.4,3-4.2,1.1-4.6c-0.6-0.1-1.5,0-2.6,0.2c-3.8,0.8-10,3.4-11.9,6.7c-0.3,0.5-0.5,1-0.6,1.5
							c0,0.1,0,0.2,0,0.3C1191.7,527.1,1191.9,528.7,1193.2,529.2z"/>
					</g>
				</g>
			</g>
		</g>
		<path class="st1" d="M1286.3,496.5c0,0.8,0,1.5-0.1,2.3h0c0,0.1,0,0.2,0,0.2c0,0.1,0,0.1,0,0.2c-0.1,0.5-0.1,1.1-0.2,1.6
			c-0.1,0.7-0.3,1.5-0.4,2.2c-0.5,2.1-1.2,4.3-2.1,6.4c-0.4,1-0.9,2-1.4,2.9c-1,1.9-2.1,3.8-3.4,5.7c-0.5,0.8-1.1,1.6-1.7,2.3h0
			c-1.3,1.7-2.6,3.3-4.1,4.8c0,0,0,0,0,0c-3.2,3.4-6.8,6.4-10.6,9c-0.6,0.4-1.2,0.8-1.8,1.2c-7.2,4.5-15.3,7.2-23.3,7.3h-0.3
			c-0.3,0-0.5,0-0.7,0c-8.6-0.2-17.1-3.5-24.6-8.5c-3.8-2.6-7.2-5.6-10.3-8.8c-0.1-0.1-0.2-0.2-0.3-0.3c-1.3-1.4-2.6-3-3.8-4.5
			c-0.6-0.8-1.1-1.6-1.7-2.4c-1.3-1.9-2.4-3.8-3.3-5.7c-0.5-1-0.9-2-1.4-2.9c-0.9-2.1-1.6-4.3-2.1-6.4c-0.2-0.7-0.3-1.5-0.4-2.2
			c-0.1-0.6-0.2-1.2-0.2-1.8V499c0-0.1,0-0.1,0-0.2c-0.1-0.8-0.1-1.5-0.1-2.3c0-0.7,0-1.4,0.1-2.1c0.2-2.7,0.8-5.3,1.8-7.8
			c0.1-0.3,0.2-0.6,0.3-0.8c0.4-0.9,0.8-1.7,1.2-2.5c0.6-1.1,1.2-2.1,1.9-3.1c1.4-2.1,3-4,4.9-5.8c0.1-0.1,0.2-0.2,0.3-0.3
			c5.3-5.2,12.3-9.3,19.9-12c3.5-1.2,7.2-2.1,11-2.6c2.2-0.3,4.5-0.5,6.8-0.5c0.3,0,0.5,0,0.7,0h0.3c2.6,0,5.2,0.2,7.8,0.6
			c3.3,0.5,6.7,1.3,9.9,2.3c0.3,0.1,0.7,0.2,1,0.3c7.6,2.6,14.6,6.8,19.9,11.9c0.1,0.1,0.2,0.2,0.2,0.2c1.9,1.8,3.6,3.8,5,5.9
			c0.7,1,1.3,2,1.9,3.1c0.5,0.8,0.9,1.7,1.2,2.6c0.1,0.3,0.2,0.5,0.3,0.8c1,2.5,1.6,5.1,1.8,7.8
			C1286.3,495.2,1286.3,495.9,1286.3,496.5z"/>
		<g>
			<g>
				<g>
					<path class="st1" d="M1303.1,480.7c-0.1,3.3-1.7,6.5-3.9,9.2c-0.5,0.7-1.1,1.3-1.7,1.9c-1.3,1.3-2.7,2.5-4.1,3.5
						c-0.1,0-0.1,0.1-0.2,0.1c-0.7,0.5-1.4,0.9-2.1,1.3c-1.2,0.7-2.4,1.3-3.5,1.7c-0.1,0-0.1,0.1-0.2,0.1c-0.4,0.2-0.9,0.3-1.2,0.4
						h0c-0.4,0.1-0.8,0.2-1.1,0.2c-0.6,0.1-1.3,0-1.9-0.2c0,0,0,0,0,0c-1.2-0.4-2.3-1.2-3.1-2.3c-1.2-1.9-1.4-4.5,1.2-7.1
						c0.5-0.5,1-1.1,1.4-1.6c0.1-0.1,0.1-0.1,0.1-0.2c0.4-0.6,0.8-1.1,1.2-1.7c2.2-3.5,3-6.9,6.7-11.6c0.2-0.3,0.5-0.6,0.7-0.9
						c0.3-0.4,0.6-0.7,0.9-1c1.4-1.3,2.6-1.9,3.8-1.9c0.8,0,1.5,0.2,2.1,0.5c1,0.5,1.8,1.4,2.5,2.3c0.7,1,1.3,2.1,1.6,2.8
						C1302.9,477.7,1303.2,479.2,1303.1,480.7z"/>
					<path class="st1" d="M1304.3,462.6c0,0.7-0.1,1.4-0.2,2c-0.6,3.4-2,6.7-3.3,8.7c0,0-0.1,0.1-0.1,0.1c0,0-0.1,0.1-0.1,0.1
						c-0.4,0.6-0.9,1.1-1.3,1.5c-0.4,0.3-0.8,0.6-1.3,0.7c-2.2,0.7-5.2-0.3-5.6-3.3c-0.1-0.6-0.1-1.3,0-2c0.1-0.6,0.2-1.1,0.2-1.7
						c0.2-3.6-0.8-6-1-10c0-0.7,0-1.5,0-2.4c0-0.3,0-0.6,0.1-0.9c0.2-2.1,0.8-3.4,1.7-4.1c0.5-0.4,1-0.6,1.6-0.6
						c1.8-0.2,3.9,0.8,5,1.5c0.8,0.5,1.5,1.1,2,1.7c0.2,0.3,0.4,0.5,0.6,0.8C1304.1,457,1304.5,459.8,1304.3,462.6z"/>
					<g>
						<path class="st1" d="M1284.9,447.6c-2.3,1.1-5.2,1.2-7.9-0.5l0,0c-0.8-0.5-1.5-1.1-2.3-1.7c-0.3-0.2-0.5-0.4-0.8-0.6
							c-0.2-0.1-0.3-0.3-0.5-0.4c-0.9-0.7-1.7-1.4-2.5-2.2c-14.5-13.4-14.6-31.1-10.6-27.5c1.7,1.5,0,7.3,11,15.5
							c3.5,2.6,6.5,3.9,9,4.4c0,0,0.9-0.1,2.2-0.1c1.2,0,2.6,0.2,3.9,0.7c1.4,0.6,2.5,1.6,2.8,3.3
							C1290.1,442.6,1288,446.1,1284.9,447.6z"/>
						<path class="st1" d="M1306.1,447.3c-0.6,1.4-1.4,2.8-2.3,4.2c-0.4,0.6-0.9,1.3-1.4,1.9c-0.1,0.2-0.3,0.3-0.4,0.5
							c-0.1,0.1-0.2,0.2-0.2,0.3c-3.1,3.5-6.7,4.7-10.2,4.5h0c-5.9-0.4-11.7-4.6-15.6-8.5c-0.7-0.7-1.4-1.4-2-2.1
							c-0.1-0.1-0.2-0.2-0.3-0.3c-1.5-1.7-2.4-3.1-2.5-3.7c-0.2-0.8-0.3-1.4-0.2-1.9c0.1-0.8,0.7-1.1,1.5-1.2
							c1.3-0.2,2.2,3.5,8.3-3.4c0.6-0.6,1.2-1.6,1.7-2.9c0-0.1,0.1-0.2,0.1-0.3c1.4-3.9,1.2-10.2-7.4-17.8
							c-11.7-10.4-17.7-7.1-19.9-8.7c-5.4-4,18.2-8.3,37.6,9C1303.8,426.8,1310.4,437,1306.1,447.3z"/>
					</g>
				</g>
			</g>
			<g>
				<g>
					<path class="st1" d="M1171.1,480.7c0.1,3.3,1.7,6.5,3.9,9.2c0.5,0.7,1.1,1.3,1.7,1.9c3.1,3.1,7,5.5,9.9,6.6
						c0.1,0,0.1,0,0.2,0.1c0.9,0.3,1.7,0.5,2.3,0.6c0.6,0.1,1.3,0,1.9-0.2c3.2-1,6-5.3,1.9-9.5c-0.5-0.5-1-1.1-1.4-1.6
						c-3.3-4.2-3.7-8-8-13.5c-0.2-0.3-0.5-0.6-0.7-0.9c-1.7-2.1-3.3-2.9-4.7-2.9c-0.8,0-1.5,0.2-2.1,0.5c-2,1.1-3.5,3.6-4.1,5.1
						C1171.3,477.7,1171.1,479.2,1171.1,480.7z"/>
					<path class="st1" d="M1171.7,454.8c-1.5,2.2-1.9,5-1.7,7.8c0,0.7,0.1,1.4,0.2,2c0.6,3.5,2,6.8,3.4,8.9c0,0,0.1,0.1,0.1,0.1
						c0.4,0.6,0.9,1.1,1.2,1.4c0.4,0.3,0.8,0.6,1.3,0.7c2.6,0.8,6.3-0.7,5.6-5.3c-0.1-0.6-0.2-1.1-0.2-1.7c-0.3-4.3,1.3-6.9,1-12.5
						c0-0.3,0-0.6-0.1-0.9c-0.2-2.1-0.8-3.4-1.7-4.1c-0.5-0.4-1-0.6-1.6-0.6c-1.8-0.2-3.9,0.8-5,1.5
						C1173.2,452.9,1172.3,453.8,1171.7,454.8z"/>
					<g>
						<path class="st1" d="M1185,438.5c-0.8,4.1,1.3,7.6,4.4,9.1c2.3,1.1,5.2,1.2,7.9-0.5l0,0c0.8-0.5,1.6-1.1,2.3-1.7
							c0.3-0.2,0.5-0.4,0.8-0.6c0.2-0.1,0.3-0.3,0.5-0.4c17-13.6,17.4-33.4,13.1-29.6c-1.7,1.5,0,7.3-11,15.5
							c-3.5,2.6-6.5,3.9-9,4.4c0,0-3.5-0.5-6.1,0.6C1186.4,435.8,1185.3,436.8,1185,438.5z"/>
						<path class="st1" d="M1181.3,417c-10.9,9.7-17.5,20-13.2,30.3c0.6,1.4,1.3,2.8,2.3,4.2c0.4,0.6,0.9,1.3,1.4,1.9
							c0.2,0.3,0.4,0.5,0.7,0.8c3.1,3.5,6.7,4.7,10.2,4.5c5.9-0.4,11.7-4.6,15.6-8.5c0.7-0.7,1.4-1.5,2-2.1c0.1-0.1,0.2-0.2,0.3-0.3
							c1.5-1.7,2.4-3.1,2.5-3.7c0.6-2.3,0-2.9-1.4-3c-1.3-0.2-2.2,3.5-8.3-3.4c-0.6-0.6-1.2-1.6-1.7-2.9c-1.5-3.8-1.5-10.3,7.3-18.1
							c11.7-10.4,17.8-7.1,19.9-8.7C1224.3,404,1200.7,399.7,1181.3,417z"/>
					</g>
				</g>
			</g>
		</g>
		<g>
			<g>
				<path class="st1" d="M1256.7,458.9c0,1.2-0.3,2.3-1,3.3c-1.1,1.7-2.9,2.7-5,2.7c-0.4,0-0.8,0-1.1-0.1c-2.6-0.5-4.5-2.6-4.8-5.3
					c0-0.2,0-0.4,0-0.6c0-2.5,1.5-4.6,3.6-5.5c0.7-0.3,1.5-0.5,2.3-0.5C1254.1,452.9,1256.7,455.6,1256.7,458.9z"/>
				<ellipse class="st1" cx="1252.9" cy="457.4" rx="2.8" ry="2.8"/>
			</g>
			<g>
				<ellipse class="st1" cx="1223.4" cy="458.9" rx="5.9" ry="6"/>
				<ellipse class="st1" cx="1221.4" cy="457.4" rx="2.8" ry="2.8"/>
			</g>
		</g>
		<path class="st2" d="M1286.3,496.5c0,0.8,0,1.5-0.1,2.3h0c0,0.1,0,0.2,0,0.2c0,0.1,0,0.1,0,0.2c-0.1,0.5-0.1,1.1-0.2,1.6
			c-0.1,0.7-0.3,1.5-0.4,2.2c-0.5,2.1-1.2,4.3-2.1,6.4c-0.4,1-0.9,2-1.4,2.9c-1,1.9-2.1,3.8-3.4,5.7c-0.5,0.8-1.1,1.6-1.7,2.3h0
			c-1.3,1.7-2.6,3.3-4.1,4.8c0,0,0,0,0,0c-3.2,3.4-6.8,6.4-10.6,9c-0.6,0.4-1.2,0.8-1.8,1.2c-7.2,4.5-15.3,7.2-23.3,7.3h-0.3
			c-0.3,0-0.5,0-0.7,0c-8.6-0.2-17.1-3.5-24.6-8.5c-3.8-2.6-7.2-5.6-10.3-8.8c-0.1-0.1-0.2-0.2-0.3-0.3c-1.3-1.4-2.6-3-3.8-4.5
			c-0.6-0.8-1.1-1.6-1.7-2.4c-1.3-1.9-2.4-3.8-3.3-5.7c-0.5-1-0.9-2-1.4-2.9c-0.9-2.1-1.6-4.3-2.1-6.4c-0.2-0.7-0.3-1.5-0.4-2.2
			c-0.1-0.6-0.2-1.2-0.2-1.8V499c0-0.1,0-0.1,0-0.2c-0.1-0.8-0.1-1.5-0.1-2.3c0-0.7,0-1.4,0.1-2.1c0.2-2.7,0.8-5.3,1.8-7.8
			c0.1-0.3,0.2-0.6,0.3-0.8c0.4-0.9,0.8-1.7,1.2-2.5c0.6-1.1,1.2-2.1,1.9-3.1c-0.7,1.8-1.4,4.4-2,7.3c-0.4,2.4-0.7,5-0.6,7.7
			c0,1.2,0.2,2.4,0.3,3.6c0.1,0.7,0.3,1.5,0.5,2.2c0.2,0.8,0.5,1.6,0.8,2.5c0.8,2,1.8,4,3.3,5.8c0,0,0,0,0,0
			c0.7,0.9,1.5,1.7,2.3,2.4c1.6,1.4,3.5,2.7,5.6,3.8c11.4,6.1,28.1,7.6,32.5,7.9c0.7,0.1,1.1,0.1,1.1,0.1v0.2
			c2.4-0.1,21.2-1.3,33.6-8c2.1-1.2,4.1-2.5,5.7-4c0.8-0.7,1.5-1.4,2.1-2.2c0.1-0.1,0.1-0.2,0.2-0.3c1.4-1.8,2.5-3.8,3.2-5.8
			c0.3-0.8,0.5-1.6,0.7-2.5c0.2-0.7,0.3-1.5,0.4-2.2c0.2-1.2,0.3-2.4,0.3-3.6c0.1-2.7-0.2-5.3-0.6-7.6c-0.5-3-1.3-5.5-2-7.3
			c0.7,1,1.3,2,1.9,3.1c0.5,0.8,0.9,1.7,1.2,2.6c0.1,0.3,0.2,0.5,0.3,0.8c1,2.5,1.6,5.1,1.8,7.8
			C1286.3,495.2,1286.3,495.9,1286.3,496.5z"/>
	</g>
</g>
<g>
	<path class="st3" d="M1299.1,516.9c-14.5,0-22.6-6.1-28-10.1c-4.1-3.1-5.8-4.4-10.7-4.4c-4.9,0-6.6,1.3-10.7,4.4
		c-5.4,4-13.5,10.1-28,10.1s-22.6-6.1-28-10.1c-4.1-3.1-5.8-4.4-10.7-4.4c-4.9,0-6.6,1.3-10.7,4.4c-5.4,4-13.5,10.1-28,10.1
		s-22.6-6.1-28-10.1c-4.1-3.1-5.8-4.4-10.7-4.4c-4.9,0-6.6,1.3-10.7,4.4c-5.4,4-13.5,10.1-28,10.1s-22.6-6.1-28-10.1
		c-4.1-3.1-5.8-4.4-10.7-4.4c-4.9,0-6.6,1.3-10.7,4.4c-5.4,4-13.5,10.1-28,10.1s-22.6-6.1-28-10.1c-4.1-3.1-5.8-4.4-10.7-4.4
		c-4.9,0-6.6,1.3-10.7,4.4c-5.4,4-13.5,10.1-28,10.1s-22.6-6.1-28-10.1c-4.1-3.1-5.8-4.4-10.7-4.4c-4.9,0-6.6,1.3-10.7,4.4
		c-5.4,4-13.5,10.1-28,10.1s-22.6-6.1-28-10.1c-4.1-3.1-5.8-4.4-10.7-4.4s-6.6,1.3-10.7,4.4c-5.4,4-13.5,10.1-28,10.1
		s-22.6-6.1-28-10.1c-4.1-3.1-5.8-4.4-10.7-4.4s-6.6,1.3-10.7,4.4c-5.4,4-13.5,10.1-28,10.1s-22.6-6.1-28-10.1
		c-4.1-3.1-5.8-4.4-10.7-4.4s-6.6,1.3-10.7,4.4c-5.4,4-13.5,10.1-28,10.1s-22.6-6.1-28-10.1c-4.1-3.1-5.8-4.4-10.7-4.4
		s-6.6,1.3-10.7,4.4c-5.4,4-13.5,10.1-28,10.1s-22.6-6.1-28-10.1c-4.1-3.1-5.8-4.4-10.7-4.4s-6.6,1.3-10.7,4.4
		c-5.4,4-13.5,10.1-28,10.1s-22.6-6.1-28-10.1c-4.1-3.1-5.8-4.3-10.7-4.3s-6.6,1.3-10.7,4.4c-5.4,4-13.5,10.1-28,10.1
		s-22.6-6.1-28-10.1c-4.1-3.1-5.8-4.4-10.7-4.4s-6.6,1.3-10.7,4.3c-5.4,4-13.5,10.1-28,10.1s-22.6-6.1-28-10.1
		c-4.1-3.1-5.8-4.4-10.7-4.4c-4.9,0-6.6,1.3-10.7,4.3c-5.4,4-13.5,10.1-28,10.1s-22.6-6.1-28-10.1c-4.1-3.1-5.8-4.4-10.7-4.4
		c-8,0-14.5-6.5-14.5-14.5s6.5-14.5,14.5-14.5c14.5,0,22.6,6.1,28,10.1c4.1,3.1,5.8,4.4,10.7,4.4c4.9,0,6.6-1.3,10.7-4.3
		c5.4-4,13.5-10.1,28-10.1s22.6,6.1,28,10.1c4.1,3.1,5.8,4.4,10.7,4.4s6.6-1.3,10.7-4.3c5.4-4,13.5-10.1,28-10.1s22.6,6.1,28,10.1
		c4.1,3.1,5.8,4.4,10.7,4.4s6.6-1.3,10.7-4.4c5.4-4,13.5-10.1,28-10.1s22.6,6.1,28,10.1c4.1,3.1,5.8,4.4,10.7,4.4s6.6-1.3,10.7-4.4
		c5.4-4,13.5-10.1,28-10.1s22.6,6.1,28,10.1c4.1,3.1,5.8,4.4,10.7,4.4s6.6-1.3,10.7-4.4c5.4-4,13.5-10.1,28-10.1s22.6,6.1,28,10.1
		c4.1,3.1,5.8,4.4,10.7,4.4s6.6-1.3,10.7-4.4c5.4-4,13.5-10.1,28-10.1s22.6,6.1,28,10.1c4.1,3.1,5.8,4.4,10.7,4.4s6.6-1.3,10.7-4.4
		c5.4-4,13.5-10.1,28-10.1s22.6,6.1,28,10.1c4.1,3.1,5.8,4.4,10.7,4.4s6.6-1.3,10.7-4.4c5.4-4,13.5-10.1,28-10.1
		c14.5,0,22.6,6.1,28,10.1c4.1,3.1,5.8,4.4,10.7,4.4c4.9,0,6.6-1.3,10.7-4.4c5.4-4,13.5-10.1,28-10.1s22.6,6.1,28,10.1
		c4.1,3.1,5.8,4.4,10.7,4.4c4.9,0,6.6-1.3,10.7-4.4c5.4-4,13.5-10.1,28-10.1s22.6,6.1,28,10.1c4.1,3.1,5.8,4.4,10.7,4.4
		c4.9,0,6.6-1.3,10.7-4.4c5.4-4,13.5-10.1,28-10.1s22.6,6.1,28,10.1c4.1,3.1,5.8,4.4,10.7,4.4c4.9,0,6.6-1.3,10.7-4.4
		c5.4-4,13.5-10.1,28-10.1s22.6,6.1,28,10.1c4.1,3.1,5.8,4.4,10.7,4.4c4.9,0,6.6-1.3,10.7-4.4c5.4-4,13.5-10.1,28-10.1
		s22.6,6.1,28,10.1c4.1,3.1,5.8,4.4,10.7,4.4c4.9,0,6.6-1.3,10.7-4.4c5.4-4,13.5-10.1,28-10.1s22.6,6.1,28,10.1
		c4.1,3.1,5.8,4.4,10.7,4.4c4.9,0,6.6-1.3,10.7-4.4c5.4-4,13.5-10.1,28-10.1c8,0,14.5,6.5,14.5,14.5s-6.5,14.5-14.5,14.5
		c-4.9,0-6.6,1.3-10.7,4.4C1321.7,510.9,1313.6,516.9,1299.1,516.9z"/>
</g>
<path class="st1" d="M1421.4,841c0,0,25-47.2,0-107.9c0,0-4.2-22.3,21.9-9.9c26.1,12.4,91,63.5,104.3,117.8H1421.4z"/>
<g>
	<path class="st0" d="M1302,544.7c-14.5,0-22.6-6.1-28-10.1c-4.1-3.1-5.8-4.4-10.7-4.4c-4.9,0-6.6,1.3-10.7,4.4
		c-5.4,4-13.5,10.1-28,10.1s-22.6-6.1-28-10.1c-4.1-3.1-5.8-4.4-10.7-4.4c-4.9,0-6.6,1.3-10.7,4.4c-5.4,4-13.5,10.1-28,10.1
		s-22.6-6.1-28-10.1c-4.1-3.1-5.8-4.4-10.7-4.4c-4.9,0-6.6,1.3-10.7,4.4c-5.4,4-13.5,10.1-28,10.1s-22.6-6.1-28-10.1
		c-4.1-3.1-5.8-4.4-10.7-4.4c-4.9,0-6.6,1.3-10.7,4.4c-5.4,4-13.5,10.1-28,10.1s-22.6-6.1-28-10.1c-4.1-3.1-5.8-4.4-10.7-4.4
		c-4.9,0-6.6,1.3-10.7,4.4c-5.4,4-13.5,10.1-28,10.1s-22.6-6.1-28-10.1c-4.1-3.1-5.8-4.4-10.7-4.4c-4.9,0-6.6,1.3-10.7,4.4
		c-5.4,4-13.5,10.1-28,10.1s-22.6-6.1-28-10.1c-4.1-3.1-5.8-4.4-10.7-4.4s-6.6,1.3-10.7,4.4c-5.4,4-13.5,10.1-28,10.1
		s-22.6-6.1-28-10.1c-4.1-3.1-5.8-4.4-10.7-4.4s-6.6,1.3-10.7,4.4c-5.4,4-13.5,10.1-28,10.1s-22.6-6.1-28-10.1
		c-4.1-3.1-5.8-4.4-10.7-4.4s-6.6,1.3-10.7,4.4c-5.4,4-13.5,10.1-28,10.1s-22.6-6.1-28-10.1c-4.1-3.1-5.8-4.4-10.7-4.4
		s-6.6,1.3-10.7,4.4c-5.4,4-13.5,10.1-28,10.1s-22.6-6.1-28-10.1c-4.1-3.1-5.8-4.4-10.7-4.4s-6.6,1.3-10.7,4.4
		c-5.4,4-13.5,10.1-28,10.1s-22.6-6.1-28-10.1c-4.1-3.1-5.8-4.3-10.7-4.3s-6.6,1.3-10.7,4.4c-5.4,4-13.5,10.1-28,10.1
		s-22.6-6.1-28-10.1c-4.1-3.1-5.8-4.4-10.7-4.4s-6.6,1.3-10.7,4.3c-5.4,4-13.5,10.1-28,10.1s-22.6-6.1-28-10.1
		c-4.1-3.1-5.8-4.4-10.7-4.4c-4.9,0-6.6,1.3-10.7,4.3c-5.4,4-13.5,10.1-28,10.1s-22.6-6.1-28-10.1c-4.1-3.1-5.8-4.4-10.7-4.4
		c-8,0-14.5-6.5-14.5-14.5s6.5-14.5,14.5-14.5c14.5,0,22.6,6.1,28,10.1c4.1,3.1,5.8,4.4,10.7,4.4c4.9,0,6.6-1.3,10.7-4.3
		c5.4-4,13.5-10.1,28-10.1s22.6,6.1,28,10.1c4.1,3.1,5.8,4.4,10.7,4.4s6.6-1.3,10.7-4.3c5.4-4,13.5-10.1,28-10.1s22.6,6.1,28,10.1
		c4.1,3.1,5.8,4.4,10.7,4.4s6.6-1.3,10.7-4.4c5.4-4,13.5-10.1,28-10.1s22.6,6.1,28,10.1c4.1,3.1,5.8,4.4,10.7,4.4s6.6-1.3,10.7-4.4
		c5.4-4,13.5-10.1,28-10.1s22.6,6.1,28,10.1c4.1,3.1,5.8,4.4,10.7,4.4s6.6-1.3,10.7-4.4c5.4-4,13.5-10.1,28-10.1s22.6,6.1,28,10.1
		c4.1,3.1,5.8,4.4,10.7,4.4s6.6-1.3,10.7-4.4c5.4-4,13.5-10.1,28-10.1s22.6,6.1,28,10.1c4.1,3.1,5.8,4.4,10.7,4.4s6.6-1.3,10.7-4.4
		c5.4-4,13.5-10.1,28-10.1s22.6,6.1,28,10.1c4.1,3.1,5.8,4.4,10.7,4.4s6.6-1.3,10.7-4.4c5.4-4,13.5-10.1,28-10.1
		c14.5,0,22.6,6.1,28,10.1c4.1,3.1,5.8,4.4,10.7,4.4c4.9,0,6.6-1.3,10.7-4.4c5.4-4,13.5-10.1,28-10.1s22.6,6.1,28,10.1
		c4.1,3.1,5.8,4.4,10.7,4.4c4.9,0,6.6-1.3,10.7-4.4c5.4-4,13.5-10.1,28-10.1s22.6,6.1,28,10.1c4.1,3.1,5.8,4.4,10.7,4.4
		c4.9,0,6.6-1.3,10.7-4.4c5.4-4,13.5-10.1,28-10.1s22.6,6.1,28,10.1c4.1,3.1,5.8,4.4,10.7,4.4c4.9,0,6.6-1.3,10.7-4.4
		c5.4-4,13.5-10.1,28-10.1s22.6,6.1,28,10.1c4.1,3.1,5.8,4.4,10.7,4.4c4.9,0,6.6-1.3,10.7-4.4c5.4-4,13.5-10.1,28-10.1
		s22.6,6.1,28,10.1c4.1,3.1,5.8,4.4,10.7,4.4c4.9,0,6.6-1.3,10.7-4.4c5.4-4,13.5-10.1,28-10.1s22.6,6.1,28,10.1
		c4.1,3.1,5.8,4.4,10.7,4.4s6.6-1.3,10.7-4.4c5.4-4,13.5-10.1,28-10.1c8,0,14.5,6.5,14.5,14.5s-6.5,14.5-14.5,14.5
		c-4.9,0-6.6,1.3-10.7,4.4C1324.6,538.7,1316.5,544.7,1302,544.7z"/>
</g>
<g>
	<path class="st3" d="M1299.1,572.2c-14.5,0-22.6-6.1-28-10.1c-4.1-3.1-5.8-4.4-10.7-4.4c-4.9,0-6.6,1.3-10.7,4.4
		c-5.4,4-13.5,10.1-28,10.1s-22.6-6.1-28-10.1c-4.1-3.1-5.8-4.4-10.7-4.4c-4.9,0-6.6,1.3-10.7,4.4c-5.4,4-13.5,10.1-28,10.1
		s-22.6-6.1-28-10.1c-4.1-3.1-5.8-4.4-10.7-4.4c-4.9,0-6.6,1.3-10.7,4.4c-5.4,4-13.5,10.1-28,10.1s-22.6-6.1-28-10.1
		c-4.1-3.1-5.8-4.4-10.7-4.4c-4.9,0-6.6,1.3-10.7,4.4c-5.4,4-13.5,10.1-28,10.1s-22.6-6.1-28-10.1c-4.1-3.1-5.8-4.4-10.7-4.4
		c-4.9,0-6.6,1.3-10.7,4.4c-5.4,4-13.5,10.1-28,10.1s-22.6-6.1-28-10.1c-4.1-3.1-5.8-4.4-10.7-4.4c-4.9,0-6.6,1.3-10.7,4.4
		c-5.4,4-13.5,10.1-28,10.1s-22.6-6.1-28-10.1c-4.1-3.1-5.8-4.4-10.7-4.4s-6.6,1.3-10.7,4.4c-5.4,4-13.5,10.1-28,10.1
		s-22.6-6.1-28-10.1c-4.1-3.1-5.8-4.4-10.7-4.4s-6.6,1.3-10.7,4.4c-5.4,4-13.5,10.1-28,10.1s-22.6-6.1-28-10.1
		c-4.1-3.1-5.8-4.4-10.7-4.4s-6.6,1.3-10.7,4.4c-5.4,4-13.5,10.1-28,10.1s-22.6-6.1-28-10.1c-4.1-3.1-5.8-4.4-10.7-4.4
		s-6.6,1.3-10.7,4.4c-5.4,4-13.5,10.1-28,10.1s-22.6-6.1-28-10.1c-4.1-3.1-5.8-4.4-10.7-4.4s-6.6,1.3-10.7,4.4
		c-5.4,4-13.5,10.1-28,10.1s-22.6-6.1-28-10.1c-4.1-3.1-5.8-4.3-10.7-4.3s-6.6,1.3-10.7,4.4c-5.4,4-13.5,10.1-28,10.1
		s-22.6-6.1-28-10.1c-4.1-3.1-5.8-4.4-10.7-4.4s-6.6,1.3-10.7,4.3c-5.4,4-13.5,10.1-28,10.1s-22.6-6.1-28-10.1
		c-4.1-3.1-5.8-4.4-10.7-4.4c-4.9,0-6.6,1.3-10.7,4.3c-5.4,4-13.5,10.1-28,10.1s-22.6-6.1-28-10.1c-4.1-3.1-5.8-4.4-10.7-4.4
		c-8,0-14.5-6.5-14.5-14.5s6.5-14.5,14.5-14.5c14.5,0,22.6,6.1,28,10.1c4.1,3.1,5.8,4.4,10.7,4.4c4.9,0,6.6-1.3,10.7-4.3
		c5.4-4,13.5-10.1,28-10.1s22.6,6.1,28,10.1c4.1,3.1,5.8,4.4,10.7,4.4s6.6-1.3,10.7-4.3c5.4-4,13.5-10.1,28-10.1s22.6,6.1,28,10.1
		c4.1,3.1,5.8,4.4,10.7,4.4s6.6-1.3,10.7-4.4c5.4-4,13.5-10.1,28-10.1s22.6,6.1,28,10.1c4.1,3.1,5.8,4.4,10.7,4.4s6.6-1.3,10.7-4.4
		c5.4-4,13.5-10.1,28-10.1s22.6,6.1,28,10.1c4.1,3.1,5.8,4.4,10.7,4.4s6.6-1.3,10.7-4.4c5.4-4,13.5-10.1,28-10.1s22.6,6.1,28,10.1
		c4.1,3.1,5.8,4.4,10.7,4.4s6.6-1.3,10.7-4.4c5.4-4,13.5-10.1,28-10.1s22.6,6.1,28,10.1c4.1,3.1,5.8,4.4,10.7,4.4s6.6-1.3,10.7-4.4
		c5.4-4,13.5-10.1,28-10.1s22.6,6.1,28,10.1c4.1,3.1,5.8,4.4,10.7,4.4s6.6-1.3,10.7-4.4c5.4-4,13.5-10.1,28-10.1
		c14.5,0,22.6,6.1,28,10.1c4.1,3.1,5.8,4.4,10.7,4.4c4.9,0,6.6-1.3,10.7-4.4c5.4-4,13.5-10.1,28-10.1s22.6,6.1,28,10.1
		c4.1,3.1,5.8,4.4,10.7,4.4c4.9,0,6.6-1.3,10.7-4.4c5.4-4,13.5-10.1,28-10.1s22.6,6.1,28,10.1c4.1,3.1,5.8,4.4,10.7,4.4
		c4.9,0,6.6-1.3,10.7-4.4c5.4-4,13.5-10.1,28-10.1s22.6,6.1,28,10.1c4.1,3.1,5.8,4.4,10.7,4.4c4.9,0,6.6-1.3,10.7-4.4
		c5.4-4,13.5-10.1,28-10.1s22.6,6.1,28,10.1c4.1,3.1,5.8,4.4,10.7,4.4c4.9,0,6.6-1.3,10.7-4.4c5.4-4,13.5-10.1,28-10.1
		s22.6,6.1,28,10.1c4.1,3.1,5.8,4.4,10.7,4.4c4.9,0,6.6-1.3,10.7-4.4c5.4-4,13.5-10.1,28-10.1s22.6,6.1,28,10.1
		c4.1,3.1,5.8,4.4,10.7,4.4c4.9,0,6.6-1.3,10.7-4.4c5.4-4,13.5-10.1,28-10.1c8,0,14.5,6.5,14.5,14.5s-6.5,14.5-14.5,14.5
		c-4.9,0-6.6,1.3-10.7,4.4C1321.7,566.1,1313.6,572.2,1299.1,572.2z"/>
</g>
<g>
	<path class="st0" d="M1302,597.9c-14.5,0-22.6-6.1-28-10.1c-4.1-3.1-5.8-4.4-10.7-4.4c-4.9,0-6.6,1.3-10.7,4.4
		c-5.4,4-13.5,10.1-28,10.1s-22.6-6.1-28-10.1c-4.1-3.1-5.8-4.4-10.7-4.4c-4.9,0-6.6,1.3-10.7,4.4c-5.4,4-13.5,10.1-28,10.1
		s-22.6-6.1-28-10.1c-4.1-3.1-5.8-4.4-10.7-4.4c-4.9,0-6.6,1.3-10.7,4.4c-5.4,4-13.5,10.1-28,10.1s-22.6-6.1-28-10.1
		c-4.1-3.1-5.8-4.4-10.7-4.4c-4.9,0-6.6,1.3-10.7,4.4c-5.4,4-13.5,10.1-28,10.1s-22.6-6.1-28-10.1c-4.1-3.1-5.8-4.4-10.7-4.4
		c-4.9,0-6.6,1.3-10.7,4.4c-5.4,4-13.5,10.1-28,10.1s-22.6-6.1-28-10.1c-4.1-3.1-5.8-4.4-10.7-4.4c-4.9,0-6.6,1.3-10.7,4.4
		c-5.4,4-13.5,10.1-28,10.1s-22.6-6.1-28-10.1c-4.1-3.1-5.8-4.4-10.7-4.4s-6.6,1.3-10.7,4.4c-5.4,4-13.5,10.1-28,10.1
		s-22.6-6.1-28-10.1c-4.1-3.1-5.8-4.4-10.7-4.4s-6.6,1.3-10.7,4.4c-5.4,4-13.5,10.1-28,10.1s-22.6-6.1-28-10.1
		c-4.1-3.1-5.8-4.4-10.7-4.4s-6.6,1.3-10.7,4.4c-5.4,4-13.5,10.1-28,10.1s-22.6-6.1-28-10.1c-4.1-3.1-5.8-4.4-10.7-4.4
		s-6.6,1.3-10.7,4.4c-5.4,4-13.5,10.1-28,10.1s-22.6-6.1-28-10.1c-4.1-3.1-5.8-4.4-10.7-4.4s-6.6,1.3-10.7,4.4
		c-5.4,4-13.5,10.1-28,10.1s-22.6-6.1-28-10.1c-4.1-3.1-5.8-4.3-10.7-4.3s-6.6,1.3-10.7,4.4c-5.4,4-13.5,10.1-28,10.1
		s-22.6-6.1-28-10.1c-4.1-3.1-5.8-4.4-10.7-4.4s-6.6,1.3-10.7,4.3c-5.4,4-13.5,10.1-28,10.1s-22.6-6.1-28-10.1
		c-4.1-3.1-5.8-4.4-10.7-4.4c-4.9,0-6.6,1.3-10.7,4.3c-5.4,4-13.5,10.1-28,10.1s-22.6-6.1-28-10.1c-4.1-3.1-5.8-4.4-10.7-4.4
		c-8,0-14.5-6.5-14.5-14.5s6.5-14.5,14.5-14.5c14.5,0,22.6,6.1,28,10.1c4.1,3.1,5.8,4.4,10.7,4.4c4.9,0,6.6-1.3,10.7-4.3
		c5.4-4,13.5-10.1,28-10.1s22.6,6.1,28,10.1c4.1,3.1,5.8,4.4,10.7,4.4s6.6-1.3,10.7-4.3c5.4-4,13.5-10.1,28-10.1s22.6,6.1,28,10.1
		c4.1,3.1,5.8,4.4,10.7,4.4s6.6-1.3,10.7-4.4c5.4-4,13.5-10.1,28-10.1s22.6,6.1,28,10.1c4.1,3.1,5.8,4.4,10.7,4.4s6.6-1.3,10.7-4.4
		c5.4-4,13.5-10.1,28-10.1s22.6,6.1,28,10.1c4.1,3.1,5.8,4.4,10.7,4.4s6.6-1.3,10.7-4.4c5.4-4,13.5-10.1,28-10.1s22.6,6.1,28,10.1
		c4.1,3.1,5.8,4.4,10.7,4.4s6.6-1.3,10.7-4.4c5.4-4,13.5-10.1,28-10.1s22.6,6.1,28,10.1c4.1,3.1,5.8,4.4,10.7,4.4s6.6-1.3,10.7-4.4
		c5.4-4,13.5-10.1,28-10.1s22.6,6.1,28,10.1c4.1,3.1,5.8,4.4,10.7,4.4s6.6-1.3,10.7-4.4c5.4-4,13.5-10.1,28-10.1
		c14.5,0,22.6,6.1,28,10.1c4.1,3.1,5.8,4.4,10.7,4.4c4.9,0,6.6-1.3,10.7-4.4c5.4-4,13.5-10.1,28-10.1s22.6,6.1,28,10.1
		c4.1,3.1,5.8,4.4,10.7,4.4c4.9,0,6.6-1.3,10.7-4.4c5.4-4,13.5-10.1,28-10.1s22.6,6.1,28,10.1c4.1,3.1,5.8,4.4,10.7,4.4
		c4.9,0,6.6-1.3,10.7-4.4c5.4-4,13.5-10.1,28-10.1s22.6,6.1,28,10.1c4.1,3.1,5.8,4.4,10.7,4.4c4.9,0,6.6-1.3,10.7-4.4
		c5.4-4,13.5-10.1,28-10.1s22.6,6.1,28,10.1c4.1,3.1,5.8,4.4,10.7,4.4c4.9,0,6.6-1.3,10.7-4.4c5.4-4,13.5-10.1,28-10.1
		s22.6,6.1,28,10.1c4.1,3.1,5.8,4.4,10.7,4.4c4.9,0,6.6-1.3,10.7-4.4c5.4-4,13.5-10.1,28-10.1s22.6,6.1,28,10.1
		c4.1,3.1,5.8,4.4,10.7,4.4s6.6-1.3,10.7-4.4c5.4-4,13.5-10.1,28-10.1c8,0,14.5,6.5,14.5,14.5s-6.5,14.5-14.5,14.5
		c-4.9,0-6.6,1.3-10.7,4.4C1324.6,591.8,1316.5,597.9,1302,597.9z"/>
</g>
<g>
	<path class="st3" d="M1299.1,625.3c-14.5,0-22.6-6.1-28-10.1c-4.1-3.1-5.8-4.4-10.7-4.4c-4.9,0-6.6,1.3-10.7,4.4
		c-5.4,4-13.5,10.1-28,10.1s-22.6-6.1-28-10.1c-4.1-3.1-5.8-4.4-10.7-4.4c-4.9,0-6.6,1.3-10.7,4.4c-5.4,4-13.5,10.1-28,10.1
		s-22.6-6.1-28-10.1c-4.1-3.1-5.8-4.4-10.7-4.4c-4.9,0-6.6,1.3-10.7,4.4c-5.4,4-13.5,10.1-28,10.1s-22.6-6.1-28-10.1
		c-4.1-3.1-5.8-4.4-10.7-4.4c-4.9,0-6.6,1.3-10.7,4.4c-5.4,4-13.5,10.1-28,10.1s-22.6-6.1-28-10.1c-4.1-3.1-5.8-4.4-10.7-4.4
		c-4.9,0-6.6,1.3-10.7,4.4c-5.4,4-13.5,10.1-28,10.1s-22.6-6.1-28-10.1c-4.1-3.1-5.8-4.4-10.7-4.4c-4.9,0-6.6,1.3-10.7,4.4
		c-5.4,4-13.5,10.1-28,10.1s-22.6-6.1-28-10.1c-4.1-3.1-5.8-4.4-10.7-4.4s-6.6,1.3-10.7,4.4c-5.4,4-13.5,10.1-28,10.1
		s-22.6-6.1-28-10.1c-4.1-3.1-5.8-4.4-10.7-4.4s-6.6,1.3-10.7,4.4c-5.4,4-13.5,10.1-28,10.1s-22.6-6.1-28-10.1
		c-4.1-3.1-5.8-4.4-10.7-4.4s-6.6,1.3-10.7,4.4c-5.4,4-13.5,10.1-28,10.1s-22.6-6.1-28-10.1c-4.1-3.1-5.8-4.4-10.7-4.4
		s-6.6,1.3-10.7,4.4c-5.4,4-13.5,10.1-28,10.1s-22.6-6.1-28-10.1c-4.1-3.1-5.8-4.4-10.7-4.4s-6.6,1.3-10.7,4.4
		c-5.4,4-13.5,10.1-28,10.1s-22.6-6.1-28-10.1c-4.1-3.1-5.8-4.3-10.7-4.3s-6.6,1.3-10.7,4.4c-5.4,4-13.5,10.1-28,10.1
		s-22.6-6.1-28-10.1c-4.1-3.1-5.8-4.4-10.7-4.4s-6.6,1.3-10.7,4.3c-5.4,4-13.5,10.1-28,10.1s-22.6-6.1-28-10.1
		c-4.1-3.1-5.8-4.4-10.7-4.4c-4.9,0-6.6,1.3-10.7,4.3c-5.4,4-13.5,10.1-28,10.1s-22.6-6.1-28-10.1c-4.1-3.1-5.8-4.4-10.7-4.4
		c-8,0-14.5-6.5-14.5-14.5s6.5-14.5,14.5-14.5c14.5,0,22.6,6.1,28,10.1c4.1,3.1,5.8,4.4,10.7,4.4c4.9,0,6.6-1.3,10.7-4.3
		c5.4-4,13.5-10.1,28-10.1s22.6,6.1,28,10.1c4.1,3.1,5.8,4.4,10.7,4.4s6.6-1.3,10.7-4.3c5.4-4,13.5-10.1,28-10.1s22.6,6.1,28,10.1
		c4.1,3.1,5.8,4.4,10.7,4.4s6.6-1.3,10.7-4.4c5.4-4,13.5-10.1,28-10.1s22.6,6.1,28,10.1c4.1,3.1,5.8,4.4,10.7,4.4s6.6-1.3,10.7-4.4
		c5.4-4,13.5-10.1,28-10.1s22.6,6.1,28,10.1c4.1,3.1,5.8,4.4,10.7,4.4s6.6-1.3,10.7-4.4c5.4-4,13.5-10.1,28-10.1s22.6,6.1,28,10.1
		c4.1,3.1,5.8,4.4,10.7,4.4s6.6-1.3,10.7-4.4c5.4-4,13.5-10.1,28-10.1s22.6,6.1,28,10.1c4.1,3.1,5.8,4.4,10.7,4.4s6.6-1.3,10.7-4.4
		c5.4-4,13.5-10.1,28-10.1s22.6,6.1,28,10.1c4.1,3.1,5.8,4.4,10.7,4.4s6.6-1.3,10.7-4.4c5.4-4,13.5-10.1,28-10.1
		c14.5,0,22.6,6.1,28,10.1c4.1,3.1,5.8,4.4,10.7,4.4c4.9,0,6.6-1.3,10.7-4.4c5.4-4,13.5-10.1,28-10.1s22.6,6.1,28,10.1
		c4.1,3.1,5.8,4.4,10.7,4.4c4.9,0,6.6-1.3,10.7-4.4c5.4-4,13.5-10.1,28-10.1s22.6,6.1,28,10.1c4.1,3.1,5.8,4.4,10.7,4.4
		c4.9,0,6.6-1.3,10.7-4.4c5.4-4,13.5-10.1,28-10.1s22.6,6.1,28,10.1c4.1,3.1,5.8,4.4,10.7,4.4c4.9,0,6.6-1.3,10.7-4.4
		c5.4-4,13.5-10.1,28-10.1s22.6,6.1,28,10.1c4.1,3.1,5.8,4.4,10.7,4.4c4.9,0,6.6-1.3,10.7-4.4c5.4-4,13.5-10.1,28-10.1
		s22.6,6.1,28,10.1c4.1,3.1,5.8,4.4,10.7,4.4c4.9,0,6.6-1.3,10.7-4.4c5.4-4,13.5-10.1,28-10.1s22.6,6.1,28,10.1
		c4.1,3.1,5.8,4.4,10.7,4.4c4.9,0,6.6-1.3,10.7-4.4c5.4-4,13.5-10.1,28-10.1c8,0,14.5,6.5,14.5,14.5s-6.5,14.5-14.5,14.5
		c-4.9,0-6.6,1.3-10.7,4.4C1321.7,619.3,1313.6,625.3,1299.1,625.3z"/>
</g>
<g>
	<path class="st0" d="M1302,653.1c-14.5,0-22.6-6.1-28-10.1c-4.1-3.1-5.8-4.4-10.7-4.4c-4.9,0-6.6,1.3-10.7,4.4
		c-5.4,4-13.5,10.1-28,10.1s-22.6-6.1-28-10.1c-4.1-3.1-5.8-4.4-10.7-4.4c-4.9,0-6.6,1.3-10.7,4.4c-5.4,4-13.5,10.1-28,10.1
		s-22.6-6.1-28-10.1c-4.1-3.1-5.8-4.4-10.7-4.4c-4.9,0-6.6,1.3-10.7,4.4c-5.4,4-13.5,10.1-28,10.1s-22.6-6.1-28-10.1
		c-4.1-3.1-5.8-4.4-10.7-4.4c-4.9,0-6.6,1.3-10.7,4.4c-5.4,4-13.5,10.1-28,10.1s-22.6-6.1-28-10.1c-4.1-3.1-5.8-4.4-10.7-4.4
		c-4.9,0-6.6,1.3-10.7,4.4c-5.4,4-13.5,10.1-28,10.1s-22.6-6.1-28-10.1c-4.1-3.1-5.8-4.4-10.7-4.4c-4.9,0-6.6,1.3-10.7,4.4
		c-5.4,4-13.5,10.1-28,10.1s-22.6-6.1-28-10.1c-4.1-3.1-5.8-4.4-10.7-4.4s-6.6,1.3-10.7,4.4c-5.4,4-13.5,10.1-28,10.1
		s-22.6-6.1-28-10.1c-4.1-3.1-5.8-4.4-10.7-4.4s-6.6,1.3-10.7,4.4c-5.4,4-13.5,10.1-28,10.1s-22.6-6.1-28-10.1
		c-4.1-3.1-5.8-4.4-10.7-4.4s-6.6,1.3-10.7,4.4c-5.4,4-13.5,10.1-28,10.1s-22.6-6.1-28-10.1c-4.1-3.1-5.8-4.4-10.7-4.4
		s-6.6,1.3-10.7,4.4c-5.4,4-13.5,10.1-28,10.1s-22.6-6.1-28-10.1c-4.1-3.1-5.8-4.4-10.7-4.4s-6.6,1.3-10.7,4.4
		c-5.4,4-13.5,10.1-28,10.1s-22.6-6.1-28-10.1c-4.1-3.1-5.8-4.3-10.7-4.3s-6.6,1.3-10.7,4.4c-5.4,4-13.5,10.1-28,10.1
		s-22.6-6.1-28-10.1c-4.1-3.1-5.8-4.4-10.7-4.4s-6.6,1.3-10.7,4.3c-5.4,4-13.5,10.1-28,10.1s-22.6-6.1-28-10.1
		c-4.1-3.1-5.8-4.4-10.7-4.4c-4.9,0-6.6,1.3-10.7,4.3c-5.4,4-13.5,10.1-28,10.1s-22.6-6.1-28-10.1c-4.1-3.1-5.8-4.4-10.7-4.4
		c-8,0-14.5-6.5-14.5-14.5s6.5-14.5,14.5-14.5c14.5,0,22.6,6.1,28,10.1c4.1,3.1,5.8,4.4,10.7,4.4c4.9,0,6.6-1.3,10.7-4.3
		c5.4-4,13.5-10.1,28-10.1s22.6,6.1,28,10.1c4.1,3.1,5.8,4.4,10.7,4.4s6.6-1.3,10.7-4.3c5.4-4,13.5-10.1,28-10.1s22.6,6.1,28,10.1
		c4.1,3.1,5.8,4.4,10.7,4.4s6.6-1.3,10.7-4.4c5.4-4,13.5-10.1,28-10.1s22.6,6.1,28,10.1c4.1,3.1,5.8,4.4,10.7,4.4s6.6-1.3,10.7-4.4
		c5.4-4,13.5-10.1,28-10.1s22.6,6.1,28,10.1c4.1,3.1,5.8,4.4,10.7,4.4s6.6-1.3,10.7-4.4c5.4-4,13.5-10.1,28-10.1s22.6,6.1,28,10.1
		c4.1,3.1,5.8,4.4,10.7,4.4s6.6-1.3,10.7-4.4c5.4-4,13.5-10.1,28-10.1s22.6,6.1,28,10.1c4.1,3.1,5.8,4.4,10.7,4.4s6.6-1.3,10.7-4.4
		c5.4-4,13.5-10.1,28-10.1s22.6,6.1,28,10.1c4.1,3.1,5.8,4.4,10.7,4.4s6.6-1.3,10.7-4.4c5.4-4,13.5-10.1,28-10.1
		c14.5,0,22.6,6.1,28,10.1c4.1,3.1,5.8,4.4,10.7,4.4c4.9,0,6.6-1.3,10.7-4.4c5.4-4,13.5-10.1,28-10.1s22.6,6.1,28,10.1
		c4.1,3.1,5.8,4.4,10.7,4.4c4.9,0,6.6-1.3,10.7-4.4c5.4-4,13.5-10.1,28-10.1s22.6,6.1,28,10.1c4.1,3.1,5.8,4.4,10.7,4.4
		c4.9,0,6.6-1.3,10.7-4.4c5.4-4,13.5-10.1,28-10.1s22.6,6.1,28,10.1c4.1,3.1,5.8,4.4,10.7,4.4c4.9,0,6.6-1.3,10.7-4.4
		c5.4-4,13.5-10.1,28-10.1s22.6,6.1,28,10.1c4.1,3.1,5.8,4.4,10.7,4.4c4.9,0,6.6-1.3,10.7-4.4c5.4-4,13.5-10.1,28-10.1
		s22.6,6.1,28,10.1c4.1,3.1,5.8,4.4,10.7,4.4c4.9,0,6.6-1.3,10.7-4.4c5.4-4,13.5-10.1,28-10.1s22.6,6.1,28,10.1
		c4.1,3.1,5.8,4.4,10.7,4.4s6.6-1.3,10.7-4.4c5.4-4,13.5-10.1,28-10.1c8,0,14.5,6.5,14.5,14.5s-6.5,14.5-14.5,14.5
		c-4.9,0-6.6,1.3-10.7,4.4C1324.6,647.1,1316.5,653.1,1302,653.1z"/>
</g>
<g>
	<path class="st3" d="M1299.1,680.6c-14.5,0-22.6-6.1-28-10.1c-4.1-3.1-5.8-4.4-10.7-4.4c-4.9,0-6.6,1.3-10.7,4.4
		c-5.4,4-13.5,10.1-28,10.1s-22.6-6.1-28-10.1c-4.1-3.1-5.8-4.4-10.7-4.4c-4.9,0-6.6,1.3-10.7,4.4c-5.4,4-13.5,10.1-28,10.1
		s-22.6-6.1-28-10.1c-4.1-3.1-5.8-4.4-10.7-4.4c-4.9,0-6.6,1.3-10.7,4.4c-5.4,4-13.5,10.1-28,10.1s-22.6-6.1-28-10.1
		c-4.1-3.1-5.8-4.4-10.7-4.4c-4.9,0-6.6,1.3-10.7,4.4c-5.4,4-13.5,10.1-28,10.1s-22.6-6.1-28-10.1c-4.1-3.1-5.8-4.4-10.7-4.4
		c-4.9,0-6.6,1.3-10.7,4.4c-5.4,4-13.5,10.1-28,10.1s-22.6-6.1-28-10.1c-4.1-3.1-5.8-4.4-10.7-4.4c-4.9,0-6.6,1.3-10.7,4.4
		c-5.4,4-13.5,10.1-28,10.1s-22.6-6.1-28-10.1c-4.1-3.1-5.8-4.4-10.7-4.4s-6.6,1.3-10.7,4.4c-5.4,4-13.5,10.1-28,10.1
		s-22.6-6.1-28-10.1c-4.1-3.1-5.8-4.4-10.7-4.4s-6.6,1.3-10.7,4.4c-5.4,4-13.5,10.1-28,10.1s-22.6-6.1-28-10.1
		c-4.1-3.1-5.8-4.4-10.7-4.4s-6.6,1.3-10.7,4.4c-5.4,4-13.5,10.1-28,10.1s-22.6-6.1-28-10.1c-4.1-3.1-5.8-4.4-10.7-4.4
		s-6.6,1.3-10.7,4.4c-5.4,4-13.5,10.1-28,10.1s-22.6-6.1-28-10.1c-4.1-3.1-5.8-4.4-10.7-4.4s-6.6,1.3-10.7,4.4
		c-5.4,4-13.5,10.1-28,10.1s-22.6-6.1-28-10.1c-4.1-3.1-5.8-4.3-10.7-4.3s-6.6,1.3-10.7,4.4c-5.4,4-13.5,10.1-28,10.1
		s-22.6-6.1-28-10.1c-4.1-3.1-5.8-4.4-10.7-4.4s-6.6,1.3-10.7,4.3c-5.4,4-13.5,10.1-28,10.1s-22.6-6.1-28-10.1
		c-4.1-3.1-5.8-4.4-10.7-4.4c-4.9,0-6.6,1.3-10.7,4.3c-5.4,4-13.5,10.1-28,10.1s-22.6-6.1-28-10.1c-4.1-3.1-5.8-4.4-10.7-4.4
		c-8,0-14.5-6.5-14.5-14.5s6.5-14.5,14.5-14.5c14.5,0,22.6,6.1,28,10.1c4.1,3.1,5.8,4.4,10.7,4.4c4.9,0,6.6-1.3,10.7-4.3
		c5.4-4,13.5-10.1,28-10.1s22.6,6.1,28,10.1c4.1,3.1,5.8,4.4,10.7,4.4s6.6-1.3,10.7-4.3c5.4-4,13.5-10.1,28-10.1s22.6,6.1,28,10.1
		c4.1,3.1,5.8,4.4,10.7,4.4s6.6-1.3,10.7-4.4c5.4-4,13.5-10.1,28-10.1s22.6,6.1,28,10.1c4.1,3.1,5.8,4.4,10.7,4.4s6.6-1.3,10.7-4.4
		c5.4-4,13.5-10.1,28-10.1s22.6,6.1,28,10.1c4.1,3.1,5.8,4.4,10.7,4.4s6.6-1.3,10.7-4.4c5.4-4,13.5-10.1,28-10.1s22.6,6.1,28,10.1
		c4.1,3.1,5.8,4.4,10.7,4.4s6.6-1.3,10.7-4.4c5.4-4,13.5-10.1,28-10.1s22.6,6.1,28,10.1c4.1,3.1,5.8,4.4,10.7,4.4s6.6-1.3,10.7-4.4
		c5.4-4,13.5-10.1,28-10.1s22.6,6.1,28,10.1c4.1,3.1,5.8,4.4,10.7,4.4s6.6-1.3,10.7-4.4c5.4-4,13.5-10.1,28-10.1
		c14.5,0,22.6,6.1,28,10.1c4.1,3.1,5.8,4.4,10.7,4.4c4.9,0,6.6-1.3,10.7-4.4c5.4-4,13.5-10.1,28-10.1s22.6,6.1,28,10.1
		c4.1,3.1,5.8,4.4,10.7,4.4c4.9,0,6.6-1.3,10.7-4.4c5.4-4,13.5-10.1,28-10.1s22.6,6.1,28,10.1c4.1,3.1,5.8,4.4,10.7,4.4
		c4.9,0,6.6-1.3,10.7-4.4c5.4-4,13.5-10.1,28-10.1s22.6,6.1,28,10.1c4.1,3.1,5.8,4.4,10.7,4.4c4.9,0,6.6-1.3,10.7-4.4
		c5.4-4,13.5-10.1,28-10.1s22.6,6.1,28,10.1c4.1,3.1,5.8,4.4,10.7,4.4c4.9,0,6.6-1.3,10.7-4.4c5.4-4,13.5-10.1,28-10.1
		s22.6,6.1,28,10.1c4.1,3.1,5.8,4.4,10.7,4.4c4.9,0,6.6-1.3,10.7-4.4c5.4-4,13.5-10.1,28-10.1s22.6,6.1,28,10.1
		c4.1,3.1,5.8,4.4,10.7,4.4c4.9,0,6.6-1.3,10.7-4.4c5.4-4,13.5-10.1,28-10.1c8,0,14.5,6.5,14.5,14.5s-6.5,14.5-14.5,14.5
		c-4.9,0-6.6,1.3-10.7,4.4C1321.7,674.5,1313.6,680.6,1299.1,680.6z"/>
</g>
<rect x="182.3" y="373.9" class="st4" width="1156.4" height="279.4"/>
<rect x="182.3" y="643.4" class="st5" width="1156.4" height="55.2"/>
<ellipse class="st6" cx="1092.4" cy="659.3" rx="26.8" ry="6"/>
<rect x="1086.2" y="442.2" class="st7" width="10.4" height="217.1"/>
<polygon class="st1" points="1161,495.5 1029.5,495.5 1012.6,479.9 1029.5,466.2 1161,466.2 "/>
<g>
	<path class="st7" d="M2238.4,1238.2c-0.4,0.9-0.8,1.6-1.2,2.2s-0.8,1.1-1.3,1.4c-0.2,0.2-0.5,0.3-0.8,0.4s-0.6,0.1-0.8,0.1l0,0
		c-0.4,0-0.8-0.1-1-0.4c-0.3-0.3-0.4-0.7-0.4-1.2l0,0l0,0c0-0.3,0.1-0.7,0.2-1.2s0.3-1,0.5-1.6c0.1-0.2,0.2-0.6,0.4-1.2
		c0.2-0.6,0.5-1.3,0.7-2c0-0.1,0.1-0.4,0.3-0.9h-1.3c-0.2,0-0.4-0.2-0.4-0.4c0-0.2,0.2-0.4,0.4-0.4h1.5c0.1-0.1,0.1-0.3,0.2-0.4
		c0.4-1.1,0.8-2.3,0.9-2.5c0.1-0.2,0.3-0.3,0.5-0.3s0.3,0.3,0.3,0.5c-0.1,0.2-0.5,1.4-0.9,2.5c0,0.1,0,0.1-0.1,0.2h1.3
		c0.2,0,0.4,0.2,0.4,0.4c0,0.2-0.2,0.4-0.4,0.4h-1.6c-0.2,0.6-0.3,1-0.4,1.2c-0.3,0.8-0.5,1.5-0.7,2s-0.3,0.9-0.4,1.2
		c-0.2,0.6-0.4,1.1-0.5,1.5c-0.1,0.4-0.2,0.8-0.2,1.1l0,0c0,0.3,0.1,0.5,0.2,0.7c0.1,0.1,0.3,0.2,0.4,0.2l0,0c0.2,0,0.4,0,0.6-0.1
		c0.2-0.1,0.4-0.1,0.5-0.3c0.4-0.3,0.7-0.7,1.1-1.2c0.4-0.6,0.7-1.3,1.1-2.1c0.1-0.2,0.4-0.3,0.6-0.2
		C2238.4,1237.7,2238.5,1237.9,2238.4,1238.2z"/>
	<path class="st7" d="M2246.3,1238.2L2246.3,1238.2c-0.8,1.7-1.8,4.2-3.6,4.2l0,0c-0.6,0-0.9-0.2-1.1-0.6c-0.2-0.3-0.3-0.7-0.3-1.1
		v-0.1c0-0.4,0.1-0.9,0.2-1.4s0.3-1,0.5-1.4c0.1-0.1,0.1-0.2,0.1-0.4c0.3-0.7,0.7-1.8,0.7-2.7c0-0.6-0.3-1-1-1
		c-0.5,0-1.1,0.5-1.6,1.1c-0.7,0.9-1.4,2.2-1.8,3.3l0,0c-0.6,1.5-1.2,3.2-1.4,3.9c-0.1,0.2-0.3,0.3-0.5,0.3
		c-0.2-0.1-0.3-0.3-0.3-0.5c0.2-0.6,0.8-2.3,1.4-3.9l0,0l0,0l0,0c0.6-1.7,1.2-3.3,1.4-3.9l0,0c0.2-0.6,0.3-0.8,0.4-1.1
		c0.2-0.5,0.3-0.9,0.4-1.2l0.1-0.3c0.1-0.3,0.3-0.8,0.5-1.4c0.1-0.2,0.3-0.3,0.5-0.2s0.3,0.3,0.3,0.5c-0.2,0.5-0.4,1-0.5,1.4
		c0,0.1-0.1,0.2-0.1,0.3c-0.2,0.5-0.3,0.9-0.4,1.2l-0.3,0.7c0.6-0.6,1.2-0.9,1.8-0.9c1.4,0,1.9,0.8,1.9,1.9c0,1-0.5,2.2-0.8,3
		c-0.1,0.1-0.1,0.3-0.1,0.4c-0.2,0.5-0.3,0.9-0.5,1.4c-0.1,0.4-0.2,0.8-0.2,1.2l0,0c0,0.2,0,0.5,0.1,0.6s0.2,0.2,0.4,0.2l0,0
		c1.2,0,2.2-2.1,2.8-3.6v-0.1c0.1-0.2,0.3-0.3,0.6-0.2C2246.3,1237.7,2246.4,1237.9,2246.3,1238.2z"/>
	<path class="st7" d="M2253.5,1238.2c-0.8,1.7-1.7,2.7-2.7,3.4c-1,0.6-2.1,0.8-3.1,0.8l0,0l0,0c-0.7,0-1.4-0.3-1.8-0.7
		c-0.5-0.5-0.8-1.1-0.7-2l0,0l0,0c0-0.5,0.1-1.1,0.3-1.7l0,0c0.1-0.4,0.3-0.9,0.5-1.3c0.5-1,1.1-2,1.7-2.7c0.3-0.3,0.6-0.5,1-0.7
		c0.3-0.2,0.7-0.3,1.1-0.3c0.5,0,0.8,0.1,1.1,0.3c0.3,0.2,0.5,0.5,0.6,0.8s0,0.7-0.1,1c-0.2,0.5-0.5,1-1,1.4s-1.2,0.8-1.8,1.1
		c-0.9,0.4-1.8,0.7-2.3,0.8c-0.1,0.5-0.2,0.9-0.2,1.3l0,0c0,0.6,0.2,1.1,0.5,1.4c0.3,0.3,0.8,0.5,1.3,0.5l0,0c0.8,0,1.7-0.1,2.6-0.7
		c0.9-0.5,1.7-1.5,2.3-3c0.1-0.2,0.3-0.3,0.6-0.2C2253.5,1237.7,2253.6,1238,2253.5,1238.2z M2246.6,1237.4c0.5-0.1,1-0.3,1.6-0.6
		s1.2-0.6,1.6-1c0.3-0.3,0.6-0.6,0.7-1c0.1-0.2,0.1-0.4,0-0.6c0-0.1-0.1-0.2-0.2-0.3c-0.1-0.1-0.3-0.2-0.6-0.2
		c-0.2,0-0.5,0.1-0.7,0.2c-0.2,0.1-0.5,0.3-0.7,0.6c-0.6,0.6-1.2,1.5-1.6,2.4C2246.7,1237.1,2246.6,1237.2,2246.6,1237.4z"/>
	<path class="st7" d="M2257.2,1238.2c-0.4,0.8-0.8,1.8-1.4,2.6c-0.6,0.9-1.4,1.6-2.3,1.6l0,0c-0.5,0-0.9-0.2-1.1-0.6
		c-0.2-0.3-0.3-0.7-0.3-1.1v-0.1c0-0.3,0.1-0.7,0.2-1.2s0.3-1,0.5-1.6c0.1-0.2,0.2-0.6,0.4-1.2c0.2-0.6,0.5-1.3,0.7-2
		c0-0.1,0.1-0.3,0.2-0.5l0.3-0.9c0.1-0.2,0.3-0.3,0.5-0.3c0.2,0.1,0.3,0.3,0.3,0.5l-0.3,0.9l-0.2,0.5c-0.3,0.8-0.5,1.5-0.7,2
		s-0.3,0.9-0.4,1.2c-0.2,0.6-0.4,1.1-0.5,1.5c-0.1,0.4-0.2,0.8-0.2,1.1l0,0c0,0.2,0,0.5,0.1,0.6c0.1,0.1,0.2,0.2,0.4,0.2l0,0
		c0.6,0,1.1-0.5,1.6-1.2c0.5-0.8,0.9-1.7,1.3-2.5c0.1-0.2,0.4-0.3,0.6-0.2C2257.2,1237.7,2257.3,1237.9,2257.2,1238.2z M2255,1231.3
		c0-0.4,0.3-0.7,0.7-0.7s0.7,0.3,0.7,0.7c0,0.4-0.3,0.7-0.7,0.7C2255.3,1231.9,2255,1231.6,2255,1231.3z"/>
	<path class="st7" d="M2264.5,1238.2L2264.5,1238.2c-0.8,1.7-1.8,4.2-3.6,4.2l0,0c-0.5,0-0.9-0.2-1.1-0.6c-0.2-0.3-0.3-0.7-0.3-1.1
		v-0.1c0-0.3,0.1-0.7,0.2-1.2s0.3-1,0.5-1.6c0.2-0.5,0.3-0.9,0.4-1.1c0.1-0.4,0.2-0.6,0.4-1l-0.3-0.1c-0.6-0.2-1.2-0.4-1.8-0.7
		c-0.1,0.2-0.1,0.4-0.2,0.5l0,0l-1.6,3.5c-0.1,0.2-0.3,0.3-0.6,0.2c-0.2-0.1-0.3-0.3-0.2-0.6l1.6-3.5c0.1-0.2,0.2-0.4,0.2-0.6
		c-0.7-0.5-1.1-1-1-1.9c0-0.3,0.2-0.6,0.4-0.8l0,0c0.2-0.2,0.5-0.3,0.8-0.3c0.1,0,0.2,0,0.3,0l0,0c0.3,0.1,0.5,0.3,0.6,0.5
		c0.1,0.2,0.2,0.5,0.2,0.7s0,0.4-0.1,0.6s-0.1,0.4-0.2,0.7c0.6,0.3,1.2,0.5,1.8,0.7c0.3,0.1,0.5,0.2,0.8,0.2
		c0.2,0.1,0.3,0.3,0.2,0.6l0,0c-0.2,0.6-0.3,0.9-0.5,1.4c-0.1,0.3-0.2,0.6-0.4,1.1c-0.2,0.6-0.4,1.1-0.5,1.5
		c-0.1,0.4-0.2,0.8-0.2,1.1l0,0c0,0.2,0,0.5,0.2,0.6c0.1,0.1,0.2,0.2,0.4,0.2c1.3,0,2.2-2.1,2.8-3.6v-0.1c0.1-0.2,0.3-0.3,0.6-0.2
		C2264.5,1237.7,2264.6,1237.9,2264.5,1238.2z M2258.5,1232.8c0-0.1,0-0.2-0.1-0.3c0-0.1-0.1-0.1-0.1-0.1l0,0h-0.1
		c-0.1,0-0.2,0-0.2,0.1l0,0c-0.1,0.1-0.1,0.2-0.1,0.3c0,0.4,0.2,0.7,0.5,0.9c0.1-0.2,0.1-0.3,0.2-0.5
		C2258.5,1233,2258.5,1232.9,2258.5,1232.8z"/>
	<path class="st7" d="M2275,1238.2L2275,1238.2c-0.8,1.7-1.8,4.2-3.6,4.2l0,0l0,0c-0.5,0-0.9-0.2-1.1-0.6c-0.2-0.2-0.2-0.5-0.3-0.8
		c-0.6,0.8-1.3,1.4-2.2,1.4l0,0c-0.5,0-0.9-0.2-1.1-0.6c-0.2-0.3-0.3-0.7-0.3-1.1v-0.1c0-0.3,0.1-0.7,0.2-1.2c0.1-0.5,0.3-1,0.5-1.6
		c0.1-0.3,0.3-0.9,0.6-1.6c0.3-0.9,0.7-2,1.1-3c0.1-0.2,0.3-0.3,0.5-0.2c0.2,0.1,0.3,0.3,0.2,0.5c-0.4,1.2-0.8,2.2-1.1,3
		c-0.3,0.7-0.5,1.3-0.6,1.6c-0.2,0.6-0.4,1.1-0.5,1.5c-0.1,0.4-0.2,0.8-0.2,1.1l0,0c0,0.2,0,0.5,0.1,0.6c0.1,0.1,0.2,0.2,0.5,0.2
		c1.2,0,2.2-2.1,2.8-3.6l0,0c0,0,0,0,0-0.1c0.1-0.3,0.3-0.9,0.6-1.6c0.4-0.9,0.7-2,1.1-3c0.1-0.2,0.3-0.3,0.5-0.2
		c0.2,0.1,0.3,0.3,0.3,0.5c-0.4,1.2-0.8,2.2-1.1,3c-0.3,0.7-0.5,1.3-0.6,1.6l0,0v0.1c-0.2,0.5-0.3,1-0.4,1.4
		c-0.1,0.4-0.2,0.8-0.2,1.1l0,0c0,0.2,0,0.5,0.1,0.6c0.1,0.1,0.2,0.2,0.4,0.2l0,0c1.2,0,2.2-2.1,2.8-3.6v-0.1
		c0.1-0.2,0.3-0.3,0.6-0.2C2275,1237.7,2275.1,1237.9,2275,1238.2z"/>
	<path class="st7" d="M2280.5,1238.8L2280.5,1238.8L2280.5,1238.8c0,1.2-0.5,2.1-1.2,2.7s-1.6,0.9-2.4,0.9l0,0c-0.1,0-0.1,0-0.2,0
		c-0.8,0-1.5-0.4-2-0.9s-0.8-1.2-0.8-1.9c0-0.1,0-0.1,0-0.2c0.1-0.7,0.3-1.4,0.8-2c0.5-0.5,1.1-0.8,1.9-0.8c0.5,0,1,0.2,1.4,0.6
		c0.3,0.3,0.5,0.8,0.6,1.4c0,0.2-0.2,0.4-0.4,0.4s-0.4-0.2-0.4-0.4c0-0.3-0.1-0.6-0.3-0.8c-0.2-0.2-0.5-0.3-0.7-0.3
		c-0.5,0-1,0.2-1.3,0.6c-0.4,0.4-0.6,0.9-0.6,1.4v0.1c0,0.5,0.2,1,0.5,1.4s0.9,0.6,1.4,0.7c0.1,0,0.1,0,0.2,0l0,0
		c0.7,0,1.4-0.2,1.9-0.7c0.5-0.4,0.9-1.1,0.9-2l0,0c0-1-0.5-1.8-1-2.7c-0.1-0.2-0.2-0.4-0.3-0.6c-0.1,0.1-0.3,0.3-0.4,0.5
		c-0.2,0.2-0.4,0.2-0.6,0c-0.2-0.1-0.2-0.4-0.1-0.6c0.2-0.3,0.4-0.5,0.7-0.7l0,0c-0.2-0.6-0.4-1.1-0.3-1.7c0-0.2,0.1-0.4,0.2-0.6
		l0,0c0.1-0.2,0.2-0.3,0.3-0.5c0.1-0.1,0.3-0.2,0.4-0.3c0.2-0.1,0.3-0.1,0.5-0.1c0.3,0,0.5,0.1,0.7,0.3c0.2,0.2,0.2,0.4,0.3,0.7
		c0,0.2,0,0.4-0.1,0.6c0,0.2-0.1,0.4-0.2,0.6c-0.2,0.5-0.5,0.9-0.8,1.2c0.1,0.3,0.3,0.5,0.4,0.8
		C2279.9,1236.6,2280.5,1237.6,2280.5,1238.8z M2279,1233.3c0.1-0.1,0.1-0.3,0.1-0.4c0-0.1,0.1-0.2,0-0.4c0-0.1,0-0.1,0-0.2
		c0,0,0,0-0.1,0h-0.1c-0.1,0-0.1,0.1-0.2,0.1c-0.1,0.1-0.1,0.1-0.2,0.2l0,0c0,0.1-0.1,0.2-0.1,0.3c0,0.3,0,0.6,0.1,0.9
		C2278.7,1233.8,2278.8,1233.5,2279,1233.3z"/>
	<path class="st7" d="M2289.9,1238.2L2289.9,1238.2c-0.8,1.7-1.8,4.2-3.6,4.2l0,0l0,0c-0.5,0-0.9-0.2-1.1-0.6
		c-0.2-0.2-0.2-0.5-0.3-0.8c-0.6,0.8-1.3,1.4-2.2,1.4l0,0c-0.5,0-0.9-0.2-1.1-0.6c-0.2-0.3-0.3-0.7-0.3-1.1v-0.1
		c0-0.3,0.1-0.7,0.2-1.2s0.3-1,0.5-1.6c0.1-0.3,0.3-0.9,0.6-1.6c0.3-0.9,0.7-2,1.1-3c0.1-0.2,0.3-0.3,0.5-0.2
		c0.2,0.1,0.3,0.3,0.2,0.5c-0.4,1.2-0.8,2.2-1.1,3c-0.3,0.7-0.5,1.3-0.6,1.6c-0.2,0.6-0.4,1.1-0.5,1.5c-0.1,0.4-0.2,0.8-0.2,1.1l0,0
		c0,0.2,0,0.5,0.1,0.6c0.1,0.1,0.2,0.2,0.5,0.2c1.2,0,2.2-2.1,2.8-3.6l0,0c0,0,0,0,0-0.1c0.1-0.3,0.3-0.9,0.6-1.6
		c0.4-0.9,0.7-2,1.1-3c0.1-0.2,0.3-0.3,0.5-0.2c0.2,0.1,0.3,0.3,0.3,0.5c-0.4,1.2-0.8,2.2-1.1,3c-0.3,0.7-0.5,1.3-0.6,1.6l0,0v0.1
		c-0.2,0.5-0.3,1-0.4,1.4c-0.1,0.4-0.2,0.8-0.2,1.1l0,0c0,0.2,0,0.5,0.1,0.6c0.1,0.1,0.2,0.2,0.4,0.2l0,0c1.2,0,2.2-2.1,2.8-3.6
		v-0.1c0.1-0.2,0.3-0.3,0.6-0.2C2289.9,1237.7,2290,1237.9,2289.9,1238.2z"/>
	<path class="st7" d="M2297.9,1238.2L2297.9,1238.2c-0.8,1.7-1.8,4.2-3.6,4.2l0,0c-0.5,0-0.9-0.2-1.1-0.6c-0.2-0.3-0.3-0.7-0.3-1.1
		l0,0c-0.7,1-1.5,1.7-2.5,1.6c-0.6,0-1-0.3-1.2-0.7c-0.3-0.4-0.4-1-0.4-1.6c0-1.1,0.6-3.3,1.6-5c0.7-1.2,1.7-2.1,2.8-2.2
		c0.1,0,0.1,0,0.2,0c0.5,0,1,0.3,1.4,0.7c0.1,0.1,0.2,0.2,0.3,0.4c0.1-0.3,0.2-0.6,0.3-0.9c0.1-0.2,0.3-0.3,0.5-0.2s0.3,0.3,0.2,0.5
		c-0.2,0.6-0.6,1.6-1,2.7c-0.3,0.7-0.5,1.4-0.7,2c-0.2,0.6-0.4,1.1-0.5,1.5c-0.1,0.4-0.2,0.8-0.2,1.1l0,0c0,0.2,0,0.5,0.1,0.6
		c0.1,0.1,0.2,0.2,0.5,0.2c1.2,0,2.2-2.1,2.8-3.6v-0.1c0.1-0.2,0.3-0.3,0.6-0.2C2297.9,1237.7,2298,1237.9,2297.9,1238.2z
		 M2293.9,1236.5c0.2-0.4,0.3-0.8,0.5-1.1c0-0.1,0-0.1,0-0.1c0-0.5-0.1-0.8-0.4-1.1c-0.2-0.2-0.5-0.4-0.8-0.4h-0.1
		c-0.8,0-1.5,0.8-2.1,1.8c-0.9,1.5-1.4,3.5-1.5,4.5c0,0.5,0.1,0.9,0.2,1.1c0.1,0.2,0.3,0.3,0.6,0.3
		C2292,1241.5,2293.1,1238.5,2293.9,1236.5z"/>
	<path class="st7" d="M2302.1,1238.2c-0.4,0.9-0.8,1.6-1.2,2.2s-0.8,1.1-1.3,1.4c-0.2,0.2-0.5,0.3-0.8,0.4s-0.6,0.1-0.8,0.1l0,0
		c-0.4,0-0.8-0.1-1-0.4c-0.3-0.3-0.4-0.7-0.4-1.2l0,0l0,0c0-0.3,0.1-0.8,0.2-1.2c0.1-0.5,0.3-1,0.5-1.6c0.5-1.6,1.1-3.2,1.7-4.9
		l0.4-1.3l0.1-0.3c0.1-0.3,0.3-0.8,0.5-1.4c0.1-0.2,0.3-0.3,0.5-0.3c0.2,0.1,0.3,0.3,0.3,0.5c-0.2,0.5-0.4,1.1-0.5,1.4
		c0,0.1-0.1,0.2-0.1,0.4l-0.4,1.3c-0.6,1.6-1.1,3.2-1.7,4.9c-0.2,0.6-0.3,1.1-0.5,1.5c-0.1,0.4-0.2,0.8-0.2,1l0,0
		c0,0.3,0.1,0.5,0.2,0.7c0.1,0.1,0.3,0.2,0.4,0.2l0,0c0.2,0,0.4,0,0.6-0.1s0.4-0.1,0.5-0.3c0.4-0.3,0.7-0.7,1.1-1.2
		c0.4-0.6,0.7-1.3,1.1-2.1c0.1-0.2,0.4-0.3,0.6-0.2C2302.1,1237.7,2302.2,1237.9,2302.1,1238.2z"/>
	<path class="st7" d="M2310.8,1238.8L2310.8,1238.8L2310.8,1238.8c0,1.2-0.5,2.1-1.2,2.7s-1.6,0.9-2.4,0.9l0,0c-0.1,0-0.1,0-0.2,0
		c-0.8,0-1.5-0.4-2-0.9s-0.8-1.2-0.8-1.9c0-0.1,0-0.1,0-0.2c0.1-0.7,0.3-1.4,0.8-2c0.5-0.5,1.1-0.8,1.9-0.8c0.5,0,1,0.2,1.4,0.6
		c0.3,0.3,0.5,0.8,0.6,1.4c0,0.2-0.2,0.4-0.4,0.4s-0.4-0.2-0.4-0.4c0-0.3-0.1-0.6-0.3-0.8c-0.2-0.2-0.5-0.3-0.7-0.3
		c-0.5,0-1,0.2-1.3,0.6c-0.4,0.4-0.6,0.9-0.6,1.4v0.1c0,0.5,0.2,1,0.5,1.4s0.9,0.6,1.4,0.7c0.1,0,0.1,0,0.2,0l0,0
		c0.7,0,1.4-0.2,1.9-0.7c0.5-0.4,0.9-1.1,0.9-2l0,0c0-1-0.5-1.8-1-2.7c-0.1-0.2-0.2-0.4-0.3-0.6c-0.1,0.1-0.3,0.3-0.4,0.5
		c-0.2,0.2-0.4,0.2-0.6,0c-0.2-0.1-0.2-0.4-0.1-0.6c0.2-0.3,0.4-0.5,0.7-0.7l0,0c-0.2-0.6-0.4-1.1-0.3-1.7c0-0.2,0.1-0.4,0.2-0.6
		l0,0c0.1-0.2,0.2-0.3,0.3-0.5c0.1-0.1,0.3-0.2,0.4-0.3c0.2-0.1,0.3-0.1,0.5-0.1c0.3,0,0.5,0.1,0.7,0.3c0.2,0.2,0.2,0.4,0.3,0.7
		c0,0.2,0,0.4-0.1,0.6c0,0.2-0.1,0.4-0.2,0.6c-0.2,0.5-0.5,0.9-0.8,1.2c0.1,0.3,0.3,0.5,0.4,0.8
		C2310.2,1236.6,2310.8,1237.6,2310.8,1238.8z M2309.3,1233.3c0.1-0.1,0.1-0.3,0.1-0.4c0-0.1,0.1-0.2,0-0.4c0-0.1,0-0.1,0-0.2
		c0,0,0,0-0.1,0h-0.1c-0.1,0-0.1,0.1-0.2,0.1c-0.1,0.1-0.1,0.1-0.2,0.2l0,0c0,0.1-0.1,0.2-0.1,0.3c0,0.3,0,0.6,0.1,0.9
		C2309,1233.8,2309.2,1233.5,2309.3,1233.3z"/>
	<path class="st7" d="M2320.6,1238.1c0,0.1-0.1,0.3-0.2,0.4c-0.1,0.1-0.1,0.2-0.2,0.3c-0.3,0.5-0.6,1-1,1.4c-0.4,0.4-1,0.7-1.7,0.7
		c-0.2,0-0.4,0-0.6-0.1c-0.3-0.1-0.6-0.2-0.8-0.5c-0.8,1.1-1.8,1.9-3,1.8l0,0l0,0l0,0c-0.7,0-1.2-0.4-1.4-0.8
		c-0.9,2.5-1.7,4.7-1.9,5.3c-0.1,0.2-0.3,0.3-0.5,0.3c-0.2-0.1-0.3-0.3-0.3-0.5c0.2-0.6,1.2-3.4,2.2-6.2c1.1-3.1,2.3-6.3,2.5-6.9
		c0-0.1,0.1-0.2,0.1-0.3c0.1-0.2,0.3-0.3,0.5-0.3c0.2,0.1,0.3,0.3,0.3,0.5l-0.2,0.4c0.6-0.6,1.2-1,2-1c0.6,0,1,0.3,1.3,0.7
		s0.4,1,0.4,1.6v0.1l0,0c-0.1,1.1-0.6,2.9-1.4,4.4c0,0.1-0.1,0.1-0.1,0.2c0.2,0.2,0.4,0.3,0.6,0.4c0.1,0,0.2,0,0.4,0
		c0.5,0,0.8-0.2,1.2-0.5c0.3-0.3,0.6-0.8,0.8-1.2c0-0.1,0.1-0.2,0.2-0.3c0-0.1,0.1-0.2,0.1-0.4c0.1-0.2,0.3-0.3,0.6-0.2
		C2320.6,1237.7,2320.7,1237.9,2320.6,1238.1z M2316.4,1238.1c-0.1,0.2-0.1,0.4-0.1,0.5c0.6-1.2,0.9-2.5,1-3.4l0,0v-0.1l0,0
		c0-0.5,0-0.9-0.2-1.1c-0.1-0.2-0.3-0.3-0.6-0.3c-1.6,0-2.8,3-3.6,5l-0.1,0.3c-0.1,0.5-0.3,1-0.3,1.4c0,0.6,0.1,1,0.7,1l0,0l0,0
		c0.9,0,1.8-0.7,2.4-1.7c-0.1-0.3-0.2-0.6-0.2-1c0-0.3,0-0.6,0.1-1c0.1-0.2,0.3-0.4,0.5-0.3
		C2316.3,1237.6,2316.4,1237.9,2316.4,1238.1z"/>
	<path class="st7" d="M2328.3,1238.1c-0.1,0.1-0.1,0.3-0.2,0.4s-0.1,0.2-0.2,0.3c-0.3,0.5-0.6,1-1,1.4c-0.5,0.4-1,0.7-1.7,0.7
		c-0.2,0-0.4,0-0.6-0.1c-0.3-0.1-0.6-0.3-0.9-0.5c-0.7,1-1.7,1.8-2.7,1.8c-3.3,0-1.1-5.5,0-7.3c0.7-1.2,1.7-2.1,2.8-2.1l0,0
		c0.6,0,1.1,0.2,1.5,0.7c0.3,0.4,0.5,0.9,0.5,1.6c0,1.3-0.7,3.1-1.5,4.6c0.1,0.2,0.4,0.3,0.6,0.4c0.1,0,0.2,0,0.3,0
		c0.5,0,0.9-0.2,1.2-0.5c0.3-0.3,0.6-0.8,0.8-1.2c0.1-0.1,0.1-0.2,0.2-0.3c0.1-0.1,0.1-0.2,0.2-0.4c0.1-0.2,0.3-0.3,0.6-0.2
		C2328.3,1237.7,2328.4,1237.9,2328.3,1238.1z M2324.1,1238.1c-0.1,0.2-0.1,0.3-0.1,0.5c0.6-1.2,1-2.5,1-3.4c0-0.5-0.1-0.8-0.3-1
		s-0.5-0.4-0.9-0.4c-0.8,0-1.5,0.7-2,1.7c-0.8,1.3-2.7,6-0.7,6c0.7,0,1.6-0.8,2.2-1.7c-0.1-0.3-0.2-0.6-0.2-0.9s0-0.6,0.1-1
		c0.1-0.2,0.3-0.4,0.5-0.3C2324,1237.6,2324.2,1237.9,2324.1,1238.1z"/>
	<path class="st7" d="M2332.4,1238.2c-0.4,0.9-0.8,1.6-1.2,2.2s-0.8,1.1-1.3,1.4c-0.2,0.2-0.5,0.3-0.8,0.4s-0.6,0.1-0.8,0.1l0,0
		c-0.4,0-0.8-0.1-1-0.4c-0.3-0.3-0.4-0.7-0.4-1.2l0,0l0,0c0-0.3,0.1-0.7,0.2-1.2s0.3-1,0.5-1.6c0.1-0.2,0.2-0.6,0.4-1.2
		c0.2-0.6,0.5-1.3,0.7-2c0-0.1,0.1-0.4,0.3-0.9h-1.3c-0.2,0-0.4-0.2-0.4-0.4c0-0.2,0.2-0.4,0.4-0.4h1.5c0.1-0.1,0.1-0.3,0.2-0.4
		c0.4-1.1,0.8-2.3,0.9-2.5c0.1-0.2,0.3-0.3,0.5-0.3c0.2,0.1,0.3,0.3,0.3,0.5c-0.1,0.2-0.5,1.4-0.9,2.5c0,0.1,0,0.1-0.1,0.2h1.3
		c0.2,0,0.4,0.2,0.4,0.4c0,0.2-0.2,0.4-0.4,0.4h-1.6c-0.2,0.6-0.3,1-0.4,1.2c-0.3,0.8-0.5,1.5-0.7,2s-0.3,0.9-0.4,1.2
		c-0.2,0.6-0.4,1.1-0.5,1.5c-0.1,0.4-0.2,0.8-0.2,1.1l0,0c0,0.3,0.1,0.5,0.2,0.7c0.1,0.1,0.3,0.2,0.4,0.2l0,0c0.2,0,0.4,0,0.6-0.1
		c0.2-0.1,0.4-0.1,0.5-0.3c0.4-0.3,0.7-0.7,1.1-1.2c0.4-0.6,0.7-1.3,1.1-2.1c0.1-0.2,0.4-0.3,0.6-0.2
		C2332.4,1237.7,2332.5,1237.9,2332.4,1238.2z"/>
</g>
<g>
	<path class="st7" d="M2215.4,1235.2l-6.7,2.5l5,2.3c0.3,0.1,0.4,0.4,0.3,0.7c-0.1,0.2-0.4,0.4-0.7,0.2l-6.2-2.7
		c-0.1,0-0.2-0.1-0.3-0.3c-0.1-0.3,0-0.6,0.3-0.7l7.9-3c0.3-0.1,0.6,0,0.7,0.3C2215.8,1234.8,2215.7,1235.1,2215.4,1235.2z"/>
	<path class="st7" d="M2227.3,1235.2l-6.7,2.5l5,2.3c0.3,0.1,0.4,0.4,0.3,0.7c-0.1,0.2-0.4,0.4-0.7,0.2l-6.2-2.7
		c-0.1,0-0.2-0.1-0.3-0.3c-0.1-0.3,0-0.6,0.3-0.7l7.9-3c0.3-0.1,0.6,0,0.7,0.3C2227.6,1234.8,2227.5,1235.1,2227.3,1235.2z"/>
</g>
<g>
	<path class="st8" d="M1050.2,478c0,0.6-0.2,1.1-0.5,1.5s-0.8,0.8-1.3,1c0.6,0.2,1.2,0.6,1.5,1.1c0.4,0.5,0.6,1,0.6,1.7
		c0,1-0.3,1.8-1,2.4c-0.7,0.6-1.5,0.8-2.6,0.8s-2-0.3-2.6-0.8s-1-1.3-1-2.4c0-0.6,0.2-1.2,0.6-1.7s0.9-0.8,1.5-1.1
		c-0.6-0.2-1-0.5-1.3-1c-0.3-0.4-0.5-0.9-0.5-1.5c0-1,0.3-1.7,0.9-2.3c0.6-0.5,1.4-0.8,2.4-0.8s1.8,0.3,2.4,0.8
		S1050.2,477,1050.2,478z M1049,483.2c0-0.6-0.2-1.1-0.6-1.5s-0.9-0.6-1.5-0.6s-1.1,0.2-1.5,0.6c-0.4,0.4-0.6,0.9-0.6,1.5
		s0.2,1.1,0.6,1.5s0.9,0.5,1.5,0.5s1.1-0.2,1.5-0.5S1049,483.8,1049,483.2z M1048.7,478c0-0.6-0.2-1-0.5-1.4s-0.8-0.5-1.3-0.5
		s-1,0.2-1.3,0.5c-0.3,0.4-0.5,0.8-0.5,1.4c0,0.6,0.2,1,0.5,1.4s0.8,0.5,1.3,0.5s1-0.2,1.3-0.5S1048.7,478.6,1048.7,478z"/>
	<path class="st8" d="M1058.2,482.5h1.5v1.2h-1.5v1.4l1.3,0.2v1h-4v-1l1.3-0.2v-1.4h-5v-0.9l4.9-7.8h1.6v7.5H1058.2z M1053.3,482.5
		h3.4v-5.3l0,0l-0.2,0.4L1053.3,482.5z"/>
	<path class="st8" d="M1063.6,475.9v2h1.6v1.1h-1.6v5.1c0,0.4,0.1,0.7,0.2,0.8c0.2,0.2,0.4,0.2,0.6,0.2c0.1,0,0.3,0,0.5,0
		s0.3,0,0.4-0.1l0.2,1c-0.1,0.1-0.4,0.2-0.6,0.2c-0.3,0.1-0.6,0.1-0.8,0.1c-0.6,0-1.1-0.2-1.5-0.6c-0.4-0.4-0.5-1-0.5-1.7v-5.1h-1.3
		v-1.1h1.3v-2h1.5V475.9z"/>
	<path class="st8" d="M1066.5,485.3l1.3-0.2v-9.6l-1.3-0.2v-1h2.8v4.8c0.3-0.4,0.6-0.7,1.1-0.9c0.4-0.2,0.9-0.3,1.4-0.3
		c0.9,0,1.6,0.3,2.1,0.8s0.7,1.4,0.7,2.5v4l1.3,0.2v1h-4v-1l1.3-0.2v-4c0-0.7-0.1-1.2-0.4-1.5s-0.7-0.5-1.3-0.5
		c-0.4,0-0.8,0.1-1.1,0.3c-0.3,0.2-0.6,0.5-0.8,0.8v5l1.3,0.2v1h-4v-1.2H1066.5z"/>
	<path class="st8" d="M1080.7,483.2c0-0.6,0.2-1.2,0.5-1.6s0.9-0.9,1.6-1.4c-0.4-0.5-0.7-1-0.9-1.4c-0.2-0.4-0.3-0.8-0.3-1.2
		c0-0.9,0.2-1.5,0.8-2c0.5-0.5,1.2-0.7,2.1-0.7c0.8,0,1.5,0.2,2,0.7s0.8,1,0.8,1.7c0,0.5-0.1,0.9-0.4,1.3c-0.3,0.4-0.7,0.7-1.2,1.1
		l-0.8,0.6l2.6,3.1c0.2-0.3,0.4-0.7,0.5-1.1c0.1-0.4,0.2-0.8,0.2-1.3h1.4c0,0.7-0.1,1.3-0.3,1.9s-0.5,1.1-0.9,1.5l1.4,1.7l0,0h-1.8
		l-0.7-0.8c-0.4,0.3-0.9,0.5-1.4,0.7c-0.5,0.2-1,0.2-1.5,0.2c-1.1,0-2-0.3-2.7-0.9C1081,484.9,1080.7,484.2,1080.7,483.2z
		 M1084.4,485.2c0.4,0,0.7-0.1,1.1-0.2c0.4-0.1,0.7-0.3,1-0.5l-2.8-3.3l-0.3,0.2c-0.5,0.3-0.8,0.7-0.9,1c-0.1,0.3-0.2,0.6-0.2,0.9
		c0,0.6,0.2,1.1,0.5,1.4C1083.1,485,1083.7,485.2,1084.4,485.2z M1083.2,477.6c0,0.3,0.1,0.6,0.2,0.8c0.1,0.3,0.3,0.6,0.6,1l1.1-0.7
		c0.3-0.2,0.5-0.4,0.6-0.6c0.1-0.2,0.2-0.5,0.2-0.8c0-0.3-0.1-0.6-0.4-0.8c-0.2-0.2-0.6-0.4-1-0.4s-0.7,0.1-1,0.4
		C1083.3,476.8,1083.2,477.2,1083.2,477.6z"/>
	<path class="st8" d="M1103.2,478.5h-1.1l-0.3-1.6c-0.2-0.2-0.5-0.4-0.9-0.6s-0.8-0.2-1.3-0.2c-1.2,0-2.1,0.4-2.7,1.3
		c-0.6,0.8-0.9,1.9-0.9,3.2v0.2c0,1.3,0.3,2.4,0.9,3.2c0.6,0.8,1.5,1.3,2.5,1.3c0.5,0,1-0.1,1.4-0.2c0.4-0.2,0.7-0.4,1-0.6l0.3-1.6
		h1.1v2c-0.3,0.4-0.8,0.8-1.5,1.1c-0.6,0.3-1.4,0.5-2.2,0.5c-1.5,0-2.6-0.5-3.6-1.6c-1-1.1-1.4-2.4-1.4-4.1v-0.2
		c0-1.6,0.5-3,1.4-4.1s2.1-1.6,3.6-1.6c0.9,0,1.6,0.2,2.2,0.5s1.1,0.7,1.5,1.1V478.5z"/>
	<path class="st8" d="M1108.6,486.4c-1.2,0-2.1-0.4-2.8-1.2c-0.7-0.8-1-1.8-1-3v-0.3c0-1.2,0.4-2.2,1.1-3c0.7-0.8,1.5-1.2,2.5-1.2
		c1.1,0,2,0.3,2.5,1c0.6,0.7,0.9,1.6,0.9,2.7v0.9h-5.4l0,0c0,0.8,0.2,1.5,0.6,2s0.9,0.8,1.6,0.8c0.5,0,1-0.1,1.3-0.2
		c0.3-0.1,0.7-0.3,1-0.6l0.6,1c-0.3,0.3-0.7,0.5-1.2,0.7C1109.9,486.3,1109.3,486.4,1108.6,486.4z M1108.4,479
		c-0.5,0-0.9,0.2-1.3,0.6s-0.6,1-0.7,1.6l0,0h3.8V481c0-0.6-0.2-1.1-0.5-1.5C1109.5,479.2,1109,479,1108.4,479z"/>
	<path class="st8" d="M1113,485.3l1.3-0.2v-5.9l-1.3-0.2v-1h2.6l0.1,1.2c0.3-0.4,0.6-0.8,1-1s0.9-0.4,1.4-0.4c0.9,0,1.6,0.3,2.1,0.8
		s0.7,1.3,0.7,2.4v4.1l1.3,0.2v1h-4v-1l1.3-0.2v-4c0-0.7-0.1-1.3-0.4-1.6c-0.3-0.3-0.7-0.5-1.3-0.5c-0.4,0-0.8,0.1-1.2,0.3
		c-0.3,0.2-0.6,0.5-0.8,0.9v4.9l1.3,0.2v1h-4L1113,485.3L1113,485.3z"/>
	<path class="st8" d="M1126,475.9v2h1.6v1.1h-1.6v5.1c0,0.4,0.1,0.7,0.2,0.8c0.2,0.2,0.4,0.2,0.6,0.2c0.1,0,0.3,0,0.5,0
		s0.3,0,0.4-0.1l0.2,1c-0.1,0.1-0.4,0.2-0.6,0.2c-0.3,0.1-0.6,0.1-0.8,0.1c-0.6,0-1.1-0.2-1.5-0.6c-0.4-0.4-0.5-1-0.5-1.7v-5.1h-1.3
		v-1.1h1.3v-2h1.5V475.9z"/>
	<path class="st8" d="M1133,486.4c-1.2,0-2.1-0.4-2.8-1.2c-0.7-0.8-1-1.8-1-3v-0.3c0-1.2,0.4-2.2,1.1-3c0.7-0.8,1.5-1.2,2.5-1.2
		c1.1,0,2,0.3,2.5,1c0.6,0.7,0.9,1.6,0.9,2.7v0.9h-5.4l0,0c0,0.8,0.2,1.5,0.6,2s0.9,0.8,1.6,0.8c0.5,0,1-0.1,1.3-0.2
		c0.3-0.1,0.7-0.3,1-0.6l0.6,1c-0.3,0.3-0.7,0.5-1.2,0.7C1134.2,486.3,1133.6,486.4,1133,486.4z M1132.7,479c-0.5,0-0.9,0.2-1.3,0.6
		s-0.6,1-0.7,1.6l0,0h3.8V481c0-0.6-0.2-1.1-0.5-1.5C1133.8,479.2,1133.4,479,1132.7,479z"/>
	<path class="st8" d="M1137.6,478.9v-1h2.6l0.1,1.2c0.2-0.4,0.5-0.8,0.9-1c0.3-0.2,0.7-0.4,1.2-0.4c0.1,0,0.2,0,0.4,0
		c0.1,0,0.2,0,0.3,0.1l-0.2,1.4h-0.9c-0.4,0-0.7,0.1-1,0.3c-0.3,0.2-0.5,0.4-0.6,0.8v4.8l1.3,0.2v1h-4v-1l1.3-0.2v-5.9L1137.6,478.9
		z"/>
</g>
</svg>
