<?xml version="1.0" encoding="utf-8"?>
<!-- Generator: Adobe Illustrator 19.1.0, SVG Export Plug-In . SVG Version: 6.00 Build 0)  -->
<svg version="1.1" id="Layer_1" xmlns="http://www.w3.org/2000/svg" xmlns:xlink="http://www.w3.org/1999/xlink" x="0px" y="0px"
	 viewBox="182 325 1156.4 360" style="enable-background:new 182 325 1156.4 360;" xml:space="preserve">
<style type="text/css">
	.st0{fill:#E6E7E8;}
	.st1{fill:#03A8A0;}
	.st2{opacity:0.2;fill:#03A8A0;}
	.st3{fill:#E2E0E0;}
	.st4{fill:none;}
	.st5{fill:#F4EC8F;}
	.st6{fill:#D3CB7D;}
	.st7{fill:#50516A;}
	.st8{fill:#FFFFFF;}
</style>
<g>
	<path class="st0" d="M1302,489.5c-14.5,0-22.6-6.1-28-10.1c-4.1-3.1-5.8-4.4-10.7-4.4c-4.9,0-6.6,1.3-10.7,4.4
		c-5.4,4-13.5,10.1-28,10.1s-22.6-6.1-28-10.1c-4.1-3.1-5.8-4.4-10.7-4.4c-4.9,0-6.6,1.3-10.7,4.4c-5.4,4-13.5,10.1-28,10.1
		s-22.6-6.1-28-10.1c-4.1-3.1-5.8-4.4-10.7-4.4c-4.9,0-6.6,1.3-10.7,4.4c-5.4,4-13.5,10.1-28,10.1s-22.6-6.1-28-10.1
		c-4.1-3.1-5.8-4.4-10.7-4.4c-4.9,0-6.6,1.3-10.7,4.4c-5.4,4-13.5,10.1-28,10.1s-22.6-6.1-28-10.1c-4.1-3.1-5.8-4.4-10.7-4.4
		c-4.9,0-6.6,1.3-10.7,4.4c-5.4,4-13.5,10.1-28,10.1s-22.6-6.1-28-10.1c-4.1-3.1-5.8-4.4-10.7-4.4c-4.9,0-6.6,1.3-10.7,4.4
		c-5.4,4-13.5,10.1-28,10.1s-22.6-6.1-28-10.1c-4.1-3.1-5.8-4.4-10.7-4.4s-6.6,1.3-10.7,4.4c-5.4,4-13.5,10.1-28,10.1
		s-22.6-6.1-28-10.1c-4.1-3.1-5.8-4.4-10.7-4.4s-6.6,1.3-10.7,4.4c-5.4,4-13.5,10.1-28,10.1s-22.6-6.1-28-10.1
		c-4.1-3.1-5.8-4.4-10.7-4.4s-6.6,1.3-10.7,4.4c-5.4,4-13.5,10.1-28,10.1s-22.6-6.1-28-10.1c-4.1-3.1-5.8-4.4-10.7-4.4
		s-6.6,1.3-10.7,4.4c-5.4,4-13.5,10.1-28,10.1s-22.6-6.1-28-10.1c-4.1-3.1-5.8-4.4-10.7-4.4s-6.6,1.3-10.7,4.4
		c-5.4,4-13.5,10.1-28,10.1s-22.6-6.1-28-10.1c-4.1-3.1-5.8-4.3-10.7-4.3s-6.6,1.3-10.7,4.4c-5.4,4-13.5,10.1-28,10.1
		s-22.6-6.1-28-10.1c-4.1-3.1-5.8-4.4-10.7-4.4s-6.6,1.3-10.7,4.3c-5.4,4-13.5,10.1-28,10.1s-22.6-6.1-28-10.1
		c-4.1-3.1-5.8-4.4-10.7-4.4c-4.9,0-6.6,1.3-10.7,4.3c-5.4,4-13.5,10.1-28,10.1s-22.6-6.1-28-10.1c-4.1-3.1-5.8-4.4-10.7-4.4
		c-8,0-14.5-6.5-14.5-14.5s6.5-14.5,14.5-14.5c14.5,0,22.6,6.1,28,10.1c4.1,3.1,5.8,4.4,10.7,4.4c4.9,0,6.6-1.3,10.7-4.3
		c5.4-4,13.5-10.1,28-10.1s22.6,6.1,28,10.1c4.1,3.1,5.8,4.4,10.7,4.4s6.6-1.3,10.7-4.3c5.4-4,13.5-10.1,28-10.1s22.6,6.1,28,10.1
		c4.1,3.1,5.8,4.4,10.7,4.4s6.6-1.3,10.7-4.4c5.4-4,13.5-10.1,28-10.1s22.6,6.1,28,10.1c4.1,3.1,5.8,4.4,10.7,4.4s6.6-1.3,10.7-4.4
		c5.4-4,13.5-10.1,28-10.1s22.6,6.1,28,10.1c4.1,3.1,5.8,4.4,10.7,4.4s6.6-1.3,10.7-4.4c5.4-4,13.5-10.1,28-10.1s22.6,6.1,28,10.1
		c4.1,3.1,5.8,4.4,10.7,4.4s6.6-1.3,10.7-4.4c5.4-4,13.5-10.1,28-10.1s22.6,6.1,28,10.1c4.1,3.1,5.8,4.4,10.7,4.4s6.6-1.3,10.7-4.4
		c5.4-4,13.5-10.1,28-10.1s22.6,6.1,28,10.1c4.1,3.1,5.8,4.4,10.7,4.4s6.6-1.3,10.7-4.4c5.4-4,13.5-10.1,28-10.1
		c14.5,0,22.6,6.1,28,10.1c4.1,3.1,5.8,4.4,10.7,4.4c4.9,0,6.6-1.3,10.7-4.4c5.4-4,13.5-10.1,28-10.1s22.6,6.1,28,10.1
		c4.1,3.1,5.8,4.4,10.7,4.4c4.9,0,6.6-1.3,10.7-4.4c5.4-4,13.5-10.1,28-10.1s22.6,6.1,28,10.1c4.1,3.1,5.8,4.4,10.7,4.4
		c4.9,0,6.6-1.3,10.7-4.4c5.4-4,13.5-10.1,28-10.1s22.6,6.1,28,10.1c4.1,3.1,5.8,4.4,10.7,4.4c4.9,0,6.6-1.3,10.7-4.4
		c5.4-4,13.5-10.1,28-10.1s22.6,6.1,28,10.1c4.1,3.1,5.8,4.4,10.7,4.4c4.9,0,6.6-1.3,10.7-4.4c5.4-4,13.5-10.1,28-10.1
		s22.6,6.1,28,10.1c4.1,3.1,5.8,4.4,10.7,4.4c4.9,0,6.6-1.3,10.7-4.4c5.4-4,13.5-10.1,28-10.1s22.6,6.1,28,10.1
		c4.1,3.1,5.8,4.4,10.7,4.4s6.6-1.3,10.7-4.4c5.4-4,13.5-10.1,28-10.1c8,0,14.5,6.5,14.5,14.5s-6.5,14.5-14.5,14.5
		c-4.9,0-6.6,1.3-10.7,4.4C1324.6,483.4,1316.5,489.5,1302,489.5z"/>
</g>
<g>
	<g>
		<g>
			<g>
				<g>
					<g>
						<path class="st1" d="M355.7,511.5c-0.3,1.3-1.1-1-3.9-4.7c-2.7-3.7-4-2.7-6.4-5.6c-0.2-0.3-0.4-0.6-0.6-0.9
							c-1.4-2.5,0.2-4.2,1.9-3.7c0.1,0,0.1,0,0.2,0.1C349.7,497.8,357.1,505,355.7,511.5z"/>
						<path class="st1" d="M344.8,500.3c-0.5,0-1.2-0.1-2-0.3c-1.6-0.5-3-1.2-4.2-1.9c-0.5-0.3-1-0.6-1.5-0.9
							c-1.5-0.9-2.9-1.8-4.7-2.2c-0.3-0.1-0.6-0.2-0.9-0.3c-2.8-1.1-2.6-3.6-0.9-4.1c0.3-0.1,0.9-0.2,1.5-0.2c1.5,0,3.8,0.2,6.1,0.8
							c0.6,0.1,1.1,0.3,1.7,0.5c3.2,1,6.2,2.7,6.9,5c0,0.1,0,0.1,0.1,0.2C347.2,497.9,347.3,500.2,344.8,500.3z"/>
						<path class="st1" d="M331.7,494.8c-0.4,0.2-1,0.3-1.7,0.4c-1.5,0.2-2.9,0.2-4.1,0.1c-0.6,0-1.2-0.1-1.7-0.2
							c-1.6-0.2-3.1-0.4-4.6-0.2c-0.3,0-0.7,0.1-1,0.2c-3.7,0.8-4.8-1.9-3.5-3.2c0.8-0.8,3.2-1.8,6-2.4c0.6-0.1,1.1-0.2,1.7-0.3
							c1.2-0.2,2.4-0.3,3.5-0.3c0.1,0,0.2,0,0.3,0c0.1,0,0.2,0,0.3,0c2.2,0,4.2,0.5,5.3,1.7c0.1,0.1,0.1,0.1,0.2,0.2
							C333.1,491.5,334.2,493.7,331.7,494.8z"/>
					</g>
					<g>
						<path class="st1" d="M359.9,499.2c-0.1,1.3-1.2-0.8-4.4-4.2c-3.1-3.4-4.3-2.2-7-4.9c-0.3-0.3-0.5-0.5-0.7-0.8
							c-1.7-2.3-0.2-4.2,1.4-3.9c0.1,0,0.1,0,0.2,0C352.4,486.4,360.6,492.6,359.9,499.2z"/>
						<path class="st1" d="M347.9,489.4c-0.5,0.1-1.2,0.1-2-0.1c-1.7-0.3-3.1-0.8-4.3-1.4c-0.5-0.2-1.1-0.5-1.6-0.7
							c-1.6-0.8-3.1-1.5-4.9-1.7c-0.3,0-0.6-0.1-0.9-0.2c-2.1-0.5-2.7-2-2.3-3c0.1-0.4,0.5-0.8,0.9-1c0.3-0.1,0.7-0.2,1.1-0.3
							c0.1,0,0.2,0,0.3-0.1c1.5-0.2,3.8-0.2,6.1,0.1c0.6,0.1,1.2,0.2,1.8,0.3c3.3,0.7,6.4,2,7.4,4.2c0,0.1,0.1,0.1,0.1,0.2
							C349.9,486.7,350.3,489,347.9,489.4z"/>
						<path class="st1" d="M334.2,485.3c-0.4,0.2-0.9,0.4-1.6,0.6c-1.5,0.4-2.8,0.5-4.1,0.6c-0.6,0-1.2,0-1.8,0
							c-1.1,0-2.1,0-3.2,0.1c-0.8,0.1-1.5,0.2-2.3,0.5c-3.6,1.2-5-1.3-3.8-2.8c0.5-0.6,1.8-1.5,3.5-2.2c0.7-0.3,1.4-0.6,2.1-0.9
							c0.4-0.1,0.8-0.3,1.2-0.4c0.9-0.3,1.8-0.5,2.7-0.7c0.5-0.1,1-0.2,1.5-0.2c0.1,0,0.2,0,0.2,0c2.1-0.2,4.1,0,5.4,1
							c0,0,0.1,0,0.1,0.1c0.1,0.1,0.1,0.1,0.2,0.2C335.2,481.9,336.5,484,334.2,485.3z"/>
					</g>
					<g>
						<path class="st1" d="M345.2,528.2c-0.6,1.1-0.8-1.2-2.4-5.6c-1.6-4.3-3.1-3.7-4.6-7.2c-0.2-0.3-0.3-0.7-0.3-1
							c-0.7-2.8,1.4-4,2.8-3c0,0,0.1,0.1,0.2,0.1C343.2,513.4,348.4,522.3,345.2,528.2z"/>
						<path class="st1" d="M340.8,511.5v0.2c0,1.1-0.6,3.3-3,2.7c-0.5-0.1-1.1-0.4-1.8-0.8c-2.8-1.7-4.3-4-6.1-5.7
							c-0.4-0.4-0.8-0.8-1.3-1.1c-0.4-0.3-0.8-0.6-1.2-0.8c-0.3-0.2-0.5-0.3-0.7-0.5c-2.4-1.8-1.5-4.1,0.2-4.2c0.4,0,0.9,0,1.5,0.2
							c0.4,0.1,0.8,0.2,1.3,0.4c0.5,0.2,1,0.4,1.5,0.6C335.3,504.2,340.7,507.9,340.8,511.5z"/>
						<path class="st1" d="M326.7,505.4c-0.5,0.1-1,0.1-1.7,0c-2.2-0.3-4-1-5.6-1.7c-1.6-0.7-3-1.3-4.7-1.6c-0.1,0-0.1,0-0.2,0
							c-0.2,0-0.3,0-0.5,0c-1.1-0.1-1.9-0.4-2.4-0.8c-1.3-0.9-1.2-2.4-0.2-3.1c0.1,0,0.1-0.1,0.2-0.1c0.9-0.5,3.2-0.8,5.7-0.7
							c0.4,0,0.7,0,1.1,0c1.5,0.1,3,0.3,4.4,0.7c2.5,0.6,4.7,1.7,5.6,3.4c0,0.1,0.1,0.2,0.1,0.3
							C328.9,502.7,329.4,505.1,326.7,505.4z"/>
					</g>
					<g>
						<path class="st1" d="M330.9,542.2c-0.9,0.9-0.4-1.4-0.6-6.1c-0.2-4.6-1.8-4.5-2.2-8.2c0-0.4,0-0.7,0-1.1
							c0.2-2.8,2.6-3.4,3.6-2c0,0,0.1,0.1,0.1,0.2C333.5,527.5,335.7,537.6,330.9,542.2z"/>
						<path class="st1" d="M331.8,525c0,0.1,0,0.1-0.1,0.2c-0.4,1-1.6,3-3.7,1.7c-0.4-0.3-0.9-0.7-1.5-1.3c-2.2-2.6-2.9-5.2-4.1-7.5
							c-0.3-0.5-0.6-1.1-1-1.6c-0.2-0.3-0.4-0.5-0.7-0.8c-0.2-0.2-0.4-0.5-0.6-0.7c-1.7-2.4-0.2-4.4,1.5-3.9c0.2,0,0.4,0.1,0.6,0.2
							c0.2,0.1,0.5,0.3,0.7,0.4c0.2,0.1,0.3,0.2,0.5,0.3C327.1,514.4,333,520.9,331.8,525z"/>
						<path class="st1" d="M321.7,514.8c-0.4,0.1-0.9,0.2-1.5,0.1c-0.5-0.1-1-0.3-1.6-0.5c-2.1-1-3.6-2.3-5-3.5
							c-0.9-0.8-1.7-1.5-2.7-2.1c-0.5-0.4-1.1-0.7-1.8-0.9c-3.5-1.4-3-4.2-1.1-4.6c0.6-0.1,1.5,0,2.6,0.2c2,0.4,4.7,1.3,7.1,2.6h0
							c2.1,1.1,3.9,2.5,4.8,4.1c0.3,0.5,0.5,1,0.6,1.5c0,0.1,0,0.2,0,0.3C323.2,512.7,323,514.4,321.7,514.8z"/>
					</g>
				</g>
			</g>
			<g>
				<g>
					<g>
						<path class="st1" d="M199.9,511.5c0.3,1.3,1.1-1,3.9-4.7c2.7-3.7,4-2.7,6.4-5.6c0.2-0.3,0.4-0.6,0.6-0.9
							c1.4-2.5-0.2-4.2-1.9-3.7c-0.1,0-0.1,0-0.2,0.1C205.9,497.8,198.5,505,199.9,511.5z"/>
						<path class="st1" d="M210.8,500.3c0.5,0,1.2-0.1,2-0.3c1.6-0.5,3-1.2,4.2-1.9c0.5-0.3,1-0.6,1.5-0.9c1.5-0.9,2.9-1.8,4.7-2.2
							c0.3-0.1,0.6-0.2,0.8-0.3c2.8-1.1,2.6-3.5,0.9-4.1c-0.3-0.1-0.8-0.2-1.5-0.2c-1.5,0-3.8,0.2-6.1,0.8c-0.6,0.1-1.1,0.3-1.7,0.5
							c-3.2,1-6.2,2.7-6.9,5c0,0.1,0,0.1-0.1,0.2C208.4,497.9,208.4,500.2,210.8,500.3z"/>
						<path class="st1" d="M224,494.7c0.4,0.2,1,0.3,1.7,0.4c1.5,0.2,2.9,0.2,4.1,0.1c2.6-0.2,4.9-0.8,7.4-0.3
							c3.7,0.8,4.8-1.9,3.5-3.2c-0.8-0.8-3.2-1.8-6-2.4c-1.8-0.4-3.7-0.7-5.6-0.7c-0.1,0-0.2,0-0.2,0c-2.2,0-4.2,0.5-5.3,1.7
							c-0.1,0.1-0.1,0.1-0.2,0.2C222.6,491.5,221.4,493.7,224,494.7z"/>
					</g>
					<g>
						<path class="st1" d="M195.7,499.2c0.1,1.3,1.2-0.8,4.4-4.2c3.1-3.4,4.3-2.2,7-4.9c0.3-0.3,0.5-0.5,0.7-0.8
							c1.7-2.3,0.2-4.2-1.4-3.9c-0.1,0-0.1,0-0.2,0C203.2,486.4,195,492.6,195.7,499.2z"/>
						<path class="st1" d="M207.7,489.4c0.5,0.1,1.2,0.1,2-0.1c1.7-0.3,3.1-0.8,4.3-1.4c0.5-0.2,1.1-0.5,1.6-0.7
							c1.6-0.8,3.1-1.5,4.9-1.7c0.3,0,0.6-0.1,0.9-0.2c2.9-0.7,3-3.2,1.4-4c-0.3-0.2-0.8-0.3-1.4-0.4c-1.5-0.2-3.8-0.2-6.1,0.1
							c-0.6,0.1-1.2,0.2-1.7,0.3c-3.3,0.7-6.4,2-7.4,4.2c0,0.1-0.1,0.1-0.1,0.2C205.7,486.7,205.3,489,207.7,489.4z"/>
						<path class="st1" d="M221.5,485.3c0.4,0.2,0.9,0.4,1.6,0.6c1.5,0.4,2.8,0.5,4.1,0.6c2.6,0.1,4.9-0.2,7.3,0.6
							c3.6,1.2,5-1.3,3.8-2.8c-0.7-0.9-3-2.1-5.7-3.1c-1.7-0.6-3.6-1.1-5.4-1.3c-0.1,0-0.2,0-0.2,0c-2.2-0.2-4.2,0-5.5,1.1
							c-0.1,0.1-0.1,0.1-0.2,0.2C220.4,481.9,219.1,484,221.5,485.3z"/>
					</g>
					<g>
						<path class="st1" d="M210.5,528.2c0.6,1.1,0.8-1.2,2.4-5.6c1.6-4.3,3.1-3.7,4.6-7.2c0.2-0.4,0.3-0.7,0.3-1
							c0.7-2.8-1.4-4-2.8-3c0,0-0.1,0.1-0.2,0.1C212.4,513.4,207.2,522.3,210.5,528.2z"/>
						<path class="st1" d="M214.8,511.5v0.2c0,1.1,0.6,3.3,3,2.7c0.5-0.1,1.1-0.4,1.8-0.8c2.8-1.7,4.3-4,6.1-5.7
							c0.4-0.4,0.8-0.8,1.3-1.1c0.4-0.3,0.8-0.6,1.2-0.8c0.3-0.2,0.5-0.3,0.7-0.5c2.4-1.8,1.5-4.1-0.2-4.2c-0.4,0-0.9,0.1-1.5,0.2
							c-0.4,0.1-0.8,0.2-1.3,0.4c-0.5,0.2-1,0.4-1.5,0.6C220.3,504.2,214.9,507.9,214.8,511.5z"/>
						<path class="st1" d="M228.9,505.4c0.5,0.1,1,0.1,1.7,0c4.3-0.5,6.9-2.8,10.3-3.3c0.1,0,0.1,0,0.2,0c0.2,0,0.3,0,0.5,0
							c3.6-0.2,4.1-2.9,2.7-3.9c-0.1,0-0.1-0.1-0.2-0.1c-1-0.6-3.8-0.8-6.8-0.7c-4.1,0.3-8.7,1.4-10,4c0,0.1-0.1,0.2-0.1,0.3
							C226.7,502.7,226.2,505.1,228.9,505.4z"/>
					</g>
					<g>
						<path class="st1" d="M224.7,542.2c0.9,0.9,0.4-1.4,0.6-6c0.2-4.6,1.8-4.5,2.2-8.2c0-0.4,0-0.7,0-1.1c-0.2-2.8-2.6-3.4-3.6-2
							c0,0-0.1,0.1-0.1,0.2C222.1,527.5,219.9,537.6,224.7,542.2z"/>
						<path class="st1" d="M223.8,525c0,0.1,0,0.1,0.1,0.2c0.4,1,1.6,3,3.7,1.7c0.5-0.3,0.9-0.7,1.5-1.3c2.2-2.6,2.9-5.2,4.1-7.5
							c0.3-0.5,0.6-1.1,1-1.6c0.2-0.3,0.4-0.5,0.7-0.8c0.2-0.2,0.4-0.5,0.6-0.7c1.7-2.4,0.2-4.4-1.5-3.9c-0.2,0-0.4,0.1-0.6,0.2
							c-0.2,0.1-0.5,0.2-0.7,0.4c-0.2,0.1-0.3,0.2-0.5,0.3C228.5,514.4,222.6,520.9,223.8,525z"/>
						<path class="st1" d="M233.9,514.8c0.4,0.1,0.9,0.2,1.5,0.1c0.5-0.1,1-0.3,1.6-0.6c3.4-1.6,5.2-4,7.7-5.6
							c0.5-0.4,1.1-0.7,1.8-0.9c3.5-1.4,3-4.2,1.1-4.6c-0.6-0.1-1.5,0-2.6,0.2c-3.8,0.8-10,3.4-11.9,6.7c-0.3,0.5-0.5,1-0.6,1.5
							c0,0.1,0,0.2,0,0.3C232.4,512.7,232.6,514.4,233.9,514.8z"/>
					</g>
				</g>
			</g>
		</g>
		<path class="st1" d="M327,482.2c0,0.8,0,1.5-0.1,2.3h0c0,0.1,0,0.2,0,0.2c0,0.1,0,0.1,0,0.2c-0.1,0.5-0.1,1.1-0.2,1.6
			c-0.1,0.7-0.3,1.5-0.4,2.2c-0.5,2.1-1.2,4.3-2.1,6.4c-0.4,1-0.9,2-1.4,2.9c-1,1.9-2.1,3.8-3.4,5.7c-0.5,0.8-1.1,1.6-1.7,2.3h0
			c-1.3,1.7-2.6,3.3-4.1,4.8c0,0,0,0,0,0c-3.2,3.4-6.8,6.4-10.6,9c-0.6,0.4-1.2,0.8-1.8,1.2c-7.2,4.5-15.3,7.2-23.3,7.3h-0.3
			c-0.3,0-0.5,0-0.7,0c-8.6-0.2-17.1-3.5-24.6-8.5c-3.8-2.6-7.2-5.6-10.3-8.8c-0.1-0.1-0.2-0.2-0.3-0.3c-1.3-1.4-2.6-3-3.8-4.5
			c-0.6-0.8-1.1-1.6-1.7-2.4c-1.3-1.9-2.4-3.8-3.3-5.7c-0.5-1-0.9-2-1.4-2.9c-0.9-2.1-1.6-4.3-2.1-6.4c-0.2-0.7-0.3-1.5-0.4-2.2
			c-0.1-0.6-0.2-1.2-0.2-1.8v-0.1c0-0.1,0-0.1,0-0.2c-0.1-0.8-0.1-1.5-0.1-2.3c0-0.7,0-1.4,0.1-2.1c0.2-2.7,0.8-5.3,1.8-7.8
			c0.1-0.3,0.2-0.6,0.3-0.8c0.4-0.9,0.8-1.7,1.2-2.5c0.6-1.1,1.2-2.1,1.9-3.1c1.4-2.1,3-4,4.9-5.8c0.1-0.1,0.2-0.2,0.3-0.3
			c5.3-5.2,12.3-9.3,19.9-12c3.5-1.2,7.2-2.1,11-2.6c2.2-0.3,4.5-0.5,6.8-0.5c0.3,0,0.5,0,0.7,0h0.3c2.6,0,5.2,0.2,7.8,0.6
			c3.3,0.5,6.7,1.3,9.9,2.3c0.3,0.1,0.7,0.2,1,0.3c7.6,2.6,14.6,6.8,19.9,11.9c0.1,0.1,0.2,0.2,0.2,0.2c1.9,1.8,3.6,3.8,5,5.9
			c0.7,1,1.3,2,1.9,3.1c0.5,0.8,0.9,1.7,1.2,2.6c0.1,0.3,0.2,0.5,0.3,0.8c1,2.5,1.6,5.1,1.8,7.8C327,480.8,327,481.5,327,482.2z"/>
		<g>
			<g>
				<g>
					<path class="st1" d="M343.8,466.3c-0.1,3.3-1.7,6.5-3.9,9.2c-0.5,0.7-1.1,1.3-1.7,1.9c-1.3,1.3-2.7,2.5-4.1,3.5
						c-0.1,0-0.1,0.1-0.2,0.1c-0.7,0.5-1.4,0.9-2.1,1.3c-1.2,0.7-2.4,1.3-3.5,1.7c-0.1,0-0.1,0.1-0.2,0.1c-0.4,0.2-0.9,0.3-1.2,0.4
						h0c-0.4,0.1-0.8,0.2-1.1,0.2c-0.6,0.1-1.3,0-1.9-0.2c0,0,0,0,0,0c-1.2-0.4-2.3-1.2-3.1-2.3c-1.2-1.9-1.4-4.5,1.2-7.1
						c0.5-0.5,1-1.1,1.4-1.6c0.1-0.1,0.1-0.1,0.1-0.2c0.4-0.6,0.8-1.1,1.2-1.7c2.2-3.5,3-6.9,6.7-11.6c0.2-0.3,0.5-0.6,0.7-0.9
						c0.3-0.4,0.6-0.7,0.9-1c1.4-1.3,2.6-1.9,3.8-1.9c0.8,0,1.5,0.2,2.1,0.5c1,0.5,1.8,1.4,2.5,2.3c0.7,1,1.3,2.1,1.6,2.8
						C343.6,463.3,343.9,464.8,343.8,466.3z"/>
					<path class="st1" d="M345,448.2c0,0.7-0.1,1.4-0.2,2c-0.6,3.4-2,6.7-3.3,8.7c0,0-0.1,0.1-0.1,0.1c0,0-0.1,0.1-0.1,0.1
						c-0.4,0.6-0.9,1.1-1.3,1.5c-0.4,0.3-0.8,0.6-1.3,0.7c-2.2,0.7-5.2-0.3-5.6-3.3c-0.1-0.6-0.1-1.3,0-2c0.1-0.6,0.2-1.1,0.2-1.7
						c0.2-3.6-0.8-6-1-10c0-0.7,0-1.5,0-2.4c0-0.3,0-0.6,0.1-0.9c0.2-2.1,0.8-3.4,1.7-4.1c0.5-0.4,1-0.6,1.6-0.6
						c1.8-0.2,3.9,0.8,5,1.5c0.8,0.5,1.5,1.1,2,1.7c0.2,0.3,0.4,0.5,0.6,0.8C344.7,442.6,345.2,445.4,345,448.2z"/>
					<g>
						<path class="st1" d="M325.6,433.2c-2.3,1.1-5.2,1.2-7.9-0.5l0,0c-0.8-0.5-1.5-1.1-2.3-1.7c-0.3-0.2-0.5-0.4-0.8-0.6
							c-0.2-0.1-0.3-0.3-0.5-0.4c-0.9-0.7-1.7-1.4-2.5-2.2c-14.5-13.4-14.6-31.1-10.6-27.5c1.7,1.5,0,7.3,11,15.5
							c3.5,2.6,6.5,3.9,9,4.4c0,0,0.9-0.1,2.2-0.1c1.2,0,2.6,0.2,3.9,0.7c1.4,0.6,2.5,1.6,2.8,3.3
							C330.8,428.3,328.7,431.7,325.6,433.2z"/>
						<path class="st1" d="M346.8,433c-0.6,1.4-1.4,2.8-2.3,4.2c-0.4,0.6-0.9,1.3-1.4,1.9c-0.1,0.2-0.3,0.3-0.4,0.5
							c-0.1,0.1-0.2,0.2-0.2,0.3c-3.1,3.5-6.7,4.7-10.2,4.5h0c-5.9-0.4-11.7-4.6-15.6-8.5c-0.7-0.7-1.4-1.4-2-2.1
							c-0.1-0.1-0.2-0.2-0.3-0.3c-1.5-1.7-2.4-3.1-2.5-3.7c-0.2-0.8-0.3-1.4-0.2-1.9c0.1-0.8,0.7-1.1,1.5-1.2
							c1.3-0.2,2.2,3.5,8.3-3.4c0.6-0.6,1.2-1.6,1.7-2.9c0-0.1,0.1-0.2,0.1-0.3c1.4-3.9,1.2-10.2-7.4-17.8
							c-11.7-10.4-17.7-7.1-19.9-8.7c-5.4-4,18.2-8.3,37.6,9C344.5,412.4,351.1,422.6,346.8,433z"/>
					</g>
				</g>
			</g>
			<g>
				<g>
					<path class="st1" d="M211.8,466.3c0.1,3.3,1.7,6.5,3.9,9.2c0.5,0.7,1.1,1.3,1.7,1.9c3.1,3.1,7,5.5,9.9,6.6c0.1,0,0.1,0,0.2,0.1
						c0.9,0.3,1.7,0.5,2.3,0.6c0.6,0.1,1.3,0,1.9-0.2c3.2-1,6-5.3,1.9-9.5c-0.5-0.5-1-1.1-1.4-1.6c-3.3-4.2-3.7-8-8-13.5
						c-0.2-0.3-0.5-0.6-0.7-0.9c-1.7-2.1-3.3-2.9-4.7-2.9c-0.8,0-1.5,0.2-2.1,0.5c-2,1.1-3.5,3.6-4.1,5.1
						C212,463.3,211.7,464.8,211.8,466.3z"/>
					<path class="st1" d="M212.4,440.4c-1.5,2.2-1.9,5-1.7,7.8c0,0.7,0.1,1.4,0.2,2c0.6,3.5,2,6.8,3.4,8.9c0,0,0.1,0.1,0.1,0.1
						c0.4,0.6,0.9,1.1,1.2,1.4c0.4,0.3,0.8,0.6,1.3,0.7c2.6,0.8,6.3-0.7,5.6-5.3c-0.1-0.6-0.2-1.1-0.2-1.7c-0.3-4.3,1.3-6.9,1-12.5
						c0-0.3,0-0.6-0.1-0.9c-0.2-2.1-0.8-3.4-1.7-4.1c-0.5-0.4-1-0.6-1.6-0.6c-1.8-0.2-3.9,0.8-5,1.5
						C213.9,438.6,213,439.4,212.4,440.4z"/>
					<g>
						<path class="st1" d="M225.6,424.2c-0.8,4.1,1.3,7.6,4.4,9.1c2.3,1.1,5.2,1.2,7.9-0.5l0,0c0.8-0.5,1.6-1.1,2.3-1.7
							c0.3-0.2,0.5-0.4,0.8-0.6c0.2-0.1,0.3-0.3,0.5-0.4c17-13.6,17.4-33.4,13.1-29.6c-1.7,1.5,0,7.3-11,15.5
							c-3.5,2.6-6.5,3.9-9,4.4c0,0-3.5-0.5-6.1,0.6C227.1,421.5,226,422.5,225.6,424.2z"/>
						<path class="st1" d="M222,402.7c-10.9,9.7-17.5,20-13.2,30.3c0.6,1.4,1.3,2.8,2.3,4.2c0.4,0.6,0.9,1.3,1.4,1.9
							c0.2,0.3,0.4,0.5,0.7,0.8c3.1,3.5,6.7,4.7,10.2,4.5c5.9-0.4,11.7-4.6,15.6-8.5c0.7-0.7,1.4-1.5,2-2.1c0.1-0.1,0.2-0.2,0.3-0.3
							c1.5-1.7,2.4-3.1,2.5-3.7c0.6-2.3,0-2.9-1.4-3c-1.3-0.2-2.2,3.5-8.3-3.4c-0.6-0.6-1.2-1.6-1.7-2.9c-1.5-3.8-1.5-10.3,7.3-18.1
							c11.7-10.4,17.8-7.1,19.9-8.7C265,389.6,241.4,385.3,222,402.7z"/>
					</g>
				</g>
			</g>
		</g>
		<g>
			<g>
				<path class="st1" d="M297.4,444.5c0,1.2-0.3,2.3-1,3.3c-1.1,1.7-2.9,2.7-5,2.7c-0.4,0-0.8,0-1.1-0.1c-2.6-0.5-4.5-2.6-4.8-5.3
					c0-0.2,0-0.4,0-0.6c0-2.5,1.5-4.6,3.6-5.5c0.7-0.3,1.5-0.5,2.3-0.5C294.8,438.5,297.4,441.2,297.4,444.5z"/>
				<ellipse class="st1" cx="293.6" cy="443" rx="2.8" ry="2.8"/>
			</g>
			<g>
				<ellipse class="st1" cx="264.1" cy="444.5" rx="5.9" ry="6"/>
				<ellipse class="st1" cx="262.1" cy="443" rx="2.8" ry="2.8"/>
			</g>
		</g>
		<path class="st2" d="M327,482.2c0,0.8,0,1.5-0.1,2.3h0c0,0.1,0,0.2,0,0.2c0,0.1,0,0.1,0,0.2c-0.1,0.5-0.1,1.1-0.2,1.6
			c-0.1,0.7-0.3,1.5-0.4,2.2c-0.5,2.1-1.2,4.3-2.1,6.4c-0.4,1-0.9,2-1.4,2.9c-1,1.9-2.1,3.8-3.4,5.7c-0.5,0.8-1.1,1.6-1.7,2.3h0
			c-1.3,1.7-2.6,3.3-4.1,4.8c0,0,0,0,0,0c-3.2,3.4-6.8,6.4-10.6,9c-0.6,0.4-1.2,0.8-1.8,1.2c-7.2,4.5-15.3,7.2-23.3,7.3h-0.3
			c-0.3,0-0.5,0-0.7,0c-8.6-0.2-17.1-3.5-24.6-8.5c-3.8-2.6-7.2-5.6-10.3-8.8c-0.1-0.1-0.2-0.2-0.3-0.3c-1.3-1.4-2.6-3-3.8-4.5
			c-0.6-0.8-1.1-1.6-1.7-2.4c-1.3-1.9-2.4-3.8-3.3-5.7c-0.5-1-0.9-2-1.4-2.9c-0.9-2.1-1.6-4.3-2.1-6.4c-0.2-0.7-0.3-1.5-0.4-2.2
			c-0.1-0.6-0.2-1.2-0.2-1.8v-0.1c0-0.1,0-0.1,0-0.2c-0.1-0.8-0.1-1.5-0.1-2.3c0-0.7,0-1.4,0.1-2.1c0.2-2.7,0.8-5.3,1.8-7.8
			c0.1-0.3,0.2-0.6,0.3-0.8c0.4-0.9,0.8-1.7,1.2-2.5c0.6-1.1,1.2-2.1,1.9-3.1c-0.7,1.8-1.4,4.4-2,7.3c-0.4,2.4-0.7,5-0.6,7.7
			c0,1.2,0.2,2.4,0.3,3.6c0.1,0.7,0.3,1.5,0.5,2.2c0.2,0.8,0.5,1.6,0.8,2.5c0.8,2,1.8,4,3.3,5.8c0,0,0,0,0,0
			c0.7,0.9,1.5,1.7,2.3,2.4c1.6,1.4,3.5,2.7,5.6,3.8c11.4,6.1,28.1,7.6,32.5,7.9c0.7,0.1,1.1,0.1,1.1,0.1v0.2
			c2.4-0.1,21.2-1.3,33.6-8c2.1-1.2,4.1-2.5,5.7-4c0.8-0.7,1.5-1.4,2.1-2.2c0.1-0.1,0.1-0.2,0.2-0.3c1.4-1.8,2.5-3.8,3.2-5.8
			c0.3-0.8,0.5-1.6,0.7-2.5c0.2-0.7,0.3-1.5,0.4-2.2c0.2-1.2,0.3-2.4,0.3-3.6c0.1-2.7-0.2-5.3-0.6-7.6c-0.5-3-1.3-5.5-2-7.3
			c0.7,1,1.3,2,1.9,3.1c0.5,0.8,0.9,1.7,1.2,2.6c0.1,0.3,0.2,0.5,0.3,0.8c1,2.5,1.6,5.1,1.8,7.8C327,480.8,327,481.5,327,482.2z"/>
	</g>
</g>
<g>
	<path class="st3" d="M1299.1,516.9c-14.5,0-22.6-6.1-28-10.1c-4.1-3.1-5.8-4.4-10.7-4.4c-4.9,0-6.6,1.3-10.7,4.4
		c-5.4,4-13.5,10.1-28,10.1s-22.6-6.1-28-10.1c-4.1-3.1-5.8-4.4-10.7-4.4c-4.9,0-6.6,1.3-10.7,4.4c-5.4,4-13.5,10.1-28,10.1
		s-22.6-6.1-28-10.1c-4.1-3.1-5.8-4.4-10.7-4.4c-4.9,0-6.6,1.3-10.7,4.4c-5.4,4-13.5,10.1-28,10.1s-22.6-6.1-28-10.1
		c-4.1-3.1-5.8-4.4-10.7-4.4c-4.9,0-6.6,1.3-10.7,4.4c-5.4,4-13.5,10.1-28,10.1s-22.6-6.1-28-10.1c-4.1-3.1-5.8-4.4-10.7-4.4
		c-4.9,0-6.6,1.3-10.7,4.4c-5.4,4-13.5,10.1-28,10.1s-22.6-6.1-28-10.1c-4.1-3.1-5.8-4.4-10.7-4.4c-4.9,0-6.6,1.3-10.7,4.4
		c-5.4,4-13.5,10.1-28,10.1s-22.6-6.1-28-10.1c-4.1-3.1-5.8-4.4-10.7-4.4s-6.6,1.3-10.7,4.4c-5.4,4-13.5,10.1-28,10.1
		s-22.6-6.1-28-10.1c-4.1-3.1-5.8-4.4-10.7-4.4s-6.6,1.3-10.7,4.4c-5.4,4-13.5,10.1-28,10.1s-22.6-6.1-28-10.1
		c-4.1-3.1-5.8-4.4-10.7-4.4s-6.6,1.3-10.7,4.4c-5.4,4-13.5,10.1-28,10.1s-22.6-6.1-28-10.1c-4.1-3.1-5.8-4.4-10.7-4.4
		s-6.6,1.3-10.7,4.4c-5.4,4-13.5,10.1-28,10.1s-22.6-6.1-28-10.1c-4.1-3.1-5.8-4.4-10.7-4.4s-6.6,1.3-10.7,4.4
		c-5.4,4-13.5,10.1-28,10.1s-22.6-6.1-28-10.1c-4.1-3.1-5.8-4.3-10.7-4.3s-6.6,1.3-10.7,4.4c-5.4,4-13.5,10.1-28,10.1
		s-22.6-6.1-28-10.1c-4.1-3.1-5.8-4.4-10.7-4.4s-6.6,1.3-10.7,4.3c-5.4,4-13.5,10.1-28,10.1s-22.6-6.1-28-10.1
		c-4.1-3.1-5.8-4.4-10.7-4.4c-4.9,0-6.6,1.3-10.7,4.3c-5.4,4-13.5,10.1-28,10.1s-22.6-6.1-28-10.1c-4.1-3.1-5.8-4.4-10.7-4.4
		c-8,0-14.5-6.5-14.5-14.5s6.5-14.5,14.5-14.5c14.5,0,22.6,6.1,28,10.1c4.1,3.1,5.8,4.4,10.7,4.4c4.9,0,6.6-1.3,10.7-4.3
		c5.4-4,13.5-10.1,28-10.1s22.6,6.1,28,10.1c4.1,3.1,5.8,4.4,10.7,4.4s6.6-1.3,10.7-4.3c5.4-4,13.5-10.1,28-10.1s22.6,6.1,28,10.1
		c4.1,3.1,5.8,4.4,10.7,4.4s6.6-1.3,10.7-4.4c5.4-4,13.5-10.1,28-10.1s22.6,6.1,28,10.1c4.1,3.1,5.8,4.4,10.7,4.4s6.6-1.3,10.7-4.4
		c5.4-4,13.5-10.1,28-10.1s22.6,6.1,28,10.1c4.1,3.1,5.8,4.4,10.7,4.4s6.6-1.3,10.7-4.4c5.4-4,13.5-10.1,28-10.1s22.6,6.1,28,10.1
		c4.1,3.1,5.8,4.4,10.7,4.4s6.6-1.3,10.7-4.4c5.4-4,13.5-10.1,28-10.1s22.6,6.1,28,10.1c4.1,3.1,5.8,4.4,10.7,4.4s6.6-1.3,10.7-4.4
		c5.4-4,13.5-10.1,28-10.1s22.6,6.1,28,10.1c4.1,3.1,5.8,4.4,10.7,4.4s6.6-1.3,10.7-4.4c5.4-4,13.5-10.1,28-10.1
		c14.5,0,22.6,6.1,28,10.1c4.1,3.1,5.8,4.4,10.7,4.4c4.9,0,6.6-1.3,10.7-4.4c5.4-4,13.5-10.1,28-10.1s22.6,6.1,28,10.1
		c4.1,3.1,5.8,4.4,10.7,4.4c4.9,0,6.6-1.3,10.7-4.4c5.4-4,13.5-10.1,28-10.1s22.6,6.1,28,10.1c4.1,3.1,5.8,4.4,10.7,4.4
		c4.9,0,6.6-1.3,10.7-4.4c5.4-4,13.5-10.1,28-10.1s22.6,6.1,28,10.1c4.1,3.1,5.8,4.4,10.7,4.4c4.9,0,6.6-1.3,10.7-4.4
		c5.4-4,13.5-10.1,28-10.1s22.6,6.1,28,10.1c4.1,3.1,5.8,4.4,10.7,4.4c4.9,0,6.6-1.3,10.7-4.4c5.4-4,13.5-10.1,28-10.1
		s22.6,6.1,28,10.1c4.1,3.1,5.8,4.4,10.7,4.4c4.9,0,6.6-1.3,10.7-4.4c5.4-4,13.5-10.1,28-10.1s22.6,6.1,28,10.1
		c4.1,3.1,5.8,4.4,10.7,4.4c4.9,0,6.6-1.3,10.7-4.4c5.4-4,13.5-10.1,28-10.1c8,0,14.5,6.5,14.5,14.5s-6.5,14.5-14.5,14.5
		c-4.9,0-6.6,1.3-10.7,4.4C1321.7,510.9,1313.6,516.9,1299.1,516.9z"/>
</g>
<path class="st1" d="M1421.4,841c0,0,25-47.2,0-107.9c0,0-4.2-22.3,21.9-9.9c26.1,12.4,91,63.5,104.3,117.8H1421.4z"/>
<g>
	<path class="st0" d="M1302,544.7c-14.5,0-22.6-6.1-28-10.1c-4.1-3.1-5.8-4.4-10.7-4.4c-4.9,0-6.6,1.3-10.7,4.4
		c-5.4,4-13.5,10.1-28,10.1s-22.6-6.1-28-10.1c-4.1-3.1-5.8-4.4-10.7-4.4c-4.9,0-6.6,1.3-10.7,4.4c-5.4,4-13.5,10.1-28,10.1
		s-22.6-6.1-28-10.1c-4.1-3.1-5.8-4.4-10.7-4.4c-4.9,0-6.6,1.3-10.7,4.4c-5.4,4-13.5,10.1-28,10.1s-22.6-6.1-28-10.1
		c-4.1-3.1-5.8-4.4-10.7-4.4c-4.9,0-6.6,1.3-10.7,4.4c-5.4,4-13.5,10.1-28,10.1s-22.6-6.1-28-10.1c-4.1-3.1-5.8-4.4-10.7-4.4
		c-4.9,0-6.6,1.3-10.7,4.4c-5.4,4-13.5,10.1-28,10.1s-22.6-6.1-28-10.1c-4.1-3.1-5.8-4.4-10.7-4.4c-4.9,0-6.6,1.3-10.7,4.4
		c-5.4,4-13.5,10.1-28,10.1s-22.6-6.1-28-10.1c-4.1-3.1-5.8-4.4-10.7-4.4s-6.6,1.3-10.7,4.4c-5.4,4-13.5,10.1-28,10.1
		s-22.6-6.1-28-10.1c-4.1-3.1-5.8-4.4-10.7-4.4s-6.6,1.3-10.7,4.4c-5.4,4-13.5,10.1-28,10.1s-22.6-6.1-28-10.1
		c-4.1-3.1-5.8-4.4-10.7-4.4s-6.6,1.3-10.7,4.4c-5.4,4-13.5,10.1-28,10.1s-22.6-6.1-28-10.1c-4.1-3.1-5.8-4.4-10.7-4.4
		s-6.6,1.3-10.7,4.4c-5.4,4-13.5,10.1-28,10.1s-22.6-6.1-28-10.1c-4.1-3.1-5.8-4.4-10.7-4.4s-6.6,1.3-10.7,4.4
		c-5.4,4-13.5,10.1-28,10.1s-22.6-6.1-28-10.1c-4.1-3.1-5.8-4.3-10.7-4.3s-6.6,1.3-10.7,4.4c-5.4,4-13.5,10.1-28,10.1
		s-22.6-6.1-28-10.1c-4.1-3.1-5.8-4.4-10.7-4.4s-6.6,1.3-10.7,4.3c-5.4,4-13.5,10.1-28,10.1s-22.6-6.1-28-10.1
		c-4.1-3.1-5.8-4.4-10.7-4.4c-4.9,0-6.6,1.3-10.7,4.3c-5.4,4-13.5,10.1-28,10.1s-22.6-6.1-28-10.1c-4.1-3.1-5.8-4.4-10.7-4.4
		c-8,0-14.5-6.5-14.5-14.5s6.5-14.5,14.5-14.5c14.5,0,22.6,6.1,28,10.1c4.1,3.1,5.8,4.4,10.7,4.4c4.9,0,6.6-1.3,10.7-4.3
		c5.4-4,13.5-10.1,28-10.1s22.6,6.1,28,10.1c4.1,3.1,5.8,4.4,10.7,4.4s6.6-1.3,10.7-4.3c5.4-4,13.5-10.1,28-10.1s22.6,6.1,28,10.1
		c4.1,3.1,5.8,4.4,10.7,4.4s6.6-1.3,10.7-4.4c5.4-4,13.5-10.1,28-10.1s22.6,6.1,28,10.1c4.1,3.1,5.8,4.4,10.7,4.4s6.6-1.3,10.7-4.4
		c5.4-4,13.5-10.1,28-10.1s22.6,6.1,28,10.1c4.1,3.1,5.8,4.4,10.7,4.4s6.6-1.3,10.7-4.4c5.4-4,13.5-10.1,28-10.1s22.6,6.1,28,10.1
		c4.1,3.1,5.8,4.4,10.7,4.4s6.6-1.3,10.7-4.4c5.4-4,13.5-10.1,28-10.1s22.6,6.1,28,10.1c4.1,3.1,5.8,4.4,10.7,4.4s6.6-1.3,10.7-4.4
		c5.4-4,13.5-10.1,28-10.1s22.6,6.1,28,10.1c4.1,3.1,5.8,4.4,10.7,4.4s6.6-1.3,10.7-4.4c5.4-4,13.5-10.1,28-10.1
		c14.5,0,22.6,6.1,28,10.1c4.1,3.1,5.8,4.4,10.7,4.4c4.9,0,6.6-1.3,10.7-4.4c5.4-4,13.5-10.1,28-10.1s22.6,6.1,28,10.1
		c4.1,3.1,5.8,4.4,10.7,4.4c4.9,0,6.6-1.3,10.7-4.4c5.4-4,13.5-10.1,28-10.1s22.6,6.1,28,10.1c4.1,3.1,5.8,4.4,10.7,4.4
		c4.9,0,6.6-1.3,10.7-4.4c5.4-4,13.5-10.1,28-10.1s22.6,6.1,28,10.1c4.1,3.1,5.8,4.4,10.7,4.4c4.9,0,6.6-1.3,10.7-4.4
		c5.4-4,13.5-10.1,28-10.1s22.6,6.1,28,10.1c4.1,3.1,5.8,4.4,10.7,4.4c4.9,0,6.6-1.3,10.7-4.4c5.4-4,13.5-10.1,28-10.1
		s22.6,6.1,28,10.1c4.1,3.1,5.8,4.4,10.7,4.4c4.9,0,6.6-1.3,10.7-4.4c5.4-4,13.5-10.1,28-10.1s22.6,6.1,28,10.1
		c4.1,3.1,5.8,4.4,10.7,4.4s6.6-1.3,10.7-4.4c5.4-4,13.5-10.1,28-10.1c8,0,14.5,6.5,14.5,14.5s-6.5,14.5-14.5,14.5
		c-4.9,0-6.6,1.3-10.7,4.4C1324.6,538.7,1316.5,544.7,1302,544.7z"/>
</g>
<g>
	<path class="st3" d="M1299.1,572.2c-14.5,0-22.6-6.1-28-10.1c-4.1-3.1-5.8-4.4-10.7-4.4c-4.9,0-6.6,1.3-10.7,4.4
		c-5.4,4-13.5,10.1-28,10.1s-22.6-6.1-28-10.1c-4.1-3.1-5.8-4.4-10.7-4.4c-4.9,0-6.6,1.3-10.7,4.4c-5.4,4-13.5,10.1-28,10.1
		s-22.6-6.1-28-10.1c-4.1-3.1-5.8-4.4-10.7-4.4c-4.9,0-6.6,1.3-10.7,4.4c-5.4,4-13.5,10.1-28,10.1s-22.6-6.1-28-10.1
		c-4.1-3.1-5.8-4.4-10.7-4.4c-4.9,0-6.6,1.3-10.7,4.4c-5.4,4-13.5,10.1-28,10.1s-22.6-6.1-28-10.1c-4.1-3.1-5.8-4.4-10.7-4.4
		c-4.9,0-6.6,1.3-10.7,4.4c-5.4,4-13.5,10.1-28,10.1s-22.6-6.1-28-10.1c-4.1-3.1-5.8-4.4-10.7-4.4c-4.9,0-6.6,1.3-10.7,4.4
		c-5.4,4-13.5,10.1-28,10.1s-22.6-6.1-28-10.1c-4.1-3.1-5.8-4.4-10.7-4.4s-6.6,1.3-10.7,4.4c-5.4,4-13.5,10.1-28,10.1
		s-22.6-6.1-28-10.1c-4.1-3.1-5.8-4.4-10.7-4.4s-6.6,1.3-10.7,4.4c-5.4,4-13.5,10.1-28,10.1s-22.6-6.1-28-10.1
		c-4.1-3.1-5.8-4.4-10.7-4.4s-6.6,1.3-10.7,4.4c-5.4,4-13.5,10.1-28,10.1s-22.6-6.1-28-10.1c-4.1-3.1-5.8-4.4-10.7-4.4
		s-6.6,1.3-10.7,4.4c-5.4,4-13.5,10.1-28,10.1s-22.6-6.1-28-10.1c-4.1-3.1-5.8-4.4-10.7-4.4s-6.6,1.3-10.7,4.4
		c-5.4,4-13.5,10.1-28,10.1s-22.6-6.1-28-10.1c-4.1-3.1-5.8-4.3-10.7-4.3s-6.6,1.3-10.7,4.4c-5.4,4-13.5,10.1-28,10.1
		s-22.6-6.1-28-10.1c-4.1-3.1-5.8-4.4-10.7-4.4s-6.6,1.3-10.7,4.3c-5.4,4-13.5,10.1-28,10.1s-22.6-6.1-28-10.1
		c-4.1-3.1-5.8-4.4-10.7-4.4c-4.9,0-6.6,1.3-10.7,4.3c-5.4,4-13.5,10.1-28,10.1s-22.6-6.1-28-10.1c-4.1-3.1-5.8-4.4-10.7-4.4
		c-8,0-14.5-6.5-14.5-14.5s6.5-14.5,14.5-14.5c14.5,0,22.6,6.1,28,10.1c4.1,3.1,5.8,4.4,10.7,4.4c4.9,0,6.6-1.3,10.7-4.3
		c5.4-4,13.5-10.1,28-10.1s22.6,6.1,28,10.1c4.1,3.1,5.8,4.4,10.7,4.4s6.6-1.3,10.7-4.3c5.4-4,13.5-10.1,28-10.1s22.6,6.1,28,10.1
		c4.1,3.1,5.8,4.4,10.7,4.4s6.6-1.3,10.7-4.4c5.4-4,13.5-10.1,28-10.1s22.6,6.1,28,10.1c4.1,3.1,5.8,4.4,10.7,4.4s6.6-1.3,10.7-4.4
		c5.4-4,13.5-10.1,28-10.1s22.6,6.1,28,10.1c4.1,3.1,5.8,4.4,10.7,4.4s6.6-1.3,10.7-4.4c5.4-4,13.5-10.1,28-10.1s22.6,6.1,28,10.1
		c4.1,3.1,5.8,4.4,10.7,4.4s6.6-1.3,10.7-4.4c5.4-4,13.5-10.1,28-10.1s22.6,6.1,28,10.1c4.1,3.1,5.8,4.4,10.7,4.4s6.6-1.3,10.7-4.4
		c5.4-4,13.5-10.1,28-10.1s22.6,6.1,28,10.1c4.1,3.1,5.8,4.4,10.7,4.4s6.6-1.3,10.7-4.4c5.4-4,13.5-10.1,28-10.1
		c14.5,0,22.6,6.1,28,10.1c4.1,3.1,5.8,4.4,10.7,4.4c4.9,0,6.6-1.3,10.7-4.4c5.4-4,13.5-10.1,28-10.1s22.6,6.1,28,10.1
		c4.1,3.1,5.8,4.4,10.7,4.4c4.9,0,6.6-1.3,10.7-4.4c5.4-4,13.5-10.1,28-10.1s22.6,6.1,28,10.1c4.1,3.1,5.8,4.4,10.7,4.4
		c4.9,0,6.6-1.3,10.7-4.4c5.4-4,13.5-10.1,28-10.1s22.6,6.1,28,10.1c4.1,3.1,5.8,4.4,10.7,4.4c4.9,0,6.6-1.3,10.7-4.4
		c5.4-4,13.5-10.1,28-10.1s22.6,6.1,28,10.1c4.1,3.1,5.8,4.4,10.7,4.4c4.9,0,6.6-1.3,10.7-4.4c5.4-4,13.5-10.1,28-10.1
		s22.6,6.1,28,10.1c4.1,3.1,5.8,4.4,10.7,4.4c4.9,0,6.6-1.3,10.7-4.4c5.4-4,13.5-10.1,28-10.1s22.6,6.1,28,10.1
		c4.1,3.1,5.8,4.4,10.7,4.4c4.9,0,6.6-1.3,10.7-4.4c5.4-4,13.5-10.1,28-10.1c8,0,14.5,6.5,14.5,14.5s-6.5,14.5-14.5,14.5
		c-4.9,0-6.6,1.3-10.7,4.4C1321.7,566.1,1313.6,572.2,1299.1,572.2z"/>
</g>
<g>
	<path class="st0" d="M1302,597.9c-14.5,0-22.6-6.1-28-10.1c-4.1-3.1-5.8-4.4-10.7-4.4c-4.9,0-6.6,1.3-10.7,4.4
		c-5.4,4-13.5,10.1-28,10.1s-22.6-6.1-28-10.1c-4.1-3.1-5.8-4.4-10.7-4.4c-4.9,0-6.6,1.3-10.7,4.4c-5.4,4-13.5,10.1-28,10.1
		s-22.6-6.1-28-10.1c-4.1-3.1-5.8-4.4-10.7-4.4c-4.9,0-6.6,1.3-10.7,4.4c-5.4,4-13.5,10.1-28,10.1s-22.6-6.1-28-10.1
		c-4.1-3.1-5.8-4.4-10.7-4.4c-4.9,0-6.6,1.3-10.7,4.4c-5.4,4-13.5,10.1-28,10.1s-22.6-6.1-28-10.1c-4.1-3.1-5.8-4.4-10.7-4.4
		c-4.9,0-6.6,1.3-10.7,4.4c-5.4,4-13.5,10.1-28,10.1s-22.6-6.1-28-10.1c-4.1-3.1-5.8-4.4-10.7-4.4c-4.9,0-6.6,1.3-10.7,4.4
		c-5.4,4-13.5,10.1-28,10.1s-22.6-6.1-28-10.1c-4.1-3.1-5.8-4.4-10.7-4.4s-6.6,1.3-10.7,4.4c-5.4,4-13.5,10.1-28,10.1
		s-22.6-6.1-28-10.1c-4.1-3.1-5.8-4.4-10.7-4.4s-6.6,1.3-10.7,4.4c-5.4,4-13.5,10.1-28,10.1s-22.6-6.1-28-10.1
		c-4.1-3.1-5.8-4.4-10.7-4.4s-6.6,1.3-10.7,4.4c-5.4,4-13.5,10.1-28,10.1s-22.6-6.1-28-10.1c-4.1-3.1-5.8-4.4-10.7-4.4
		s-6.6,1.3-10.7,4.4c-5.4,4-13.5,10.1-28,10.1s-22.6-6.1-28-10.1c-4.1-3.1-5.8-4.4-10.7-4.4s-6.6,1.3-10.7,4.4
		c-5.4,4-13.5,10.1-28,10.1s-22.6-6.1-28-10.1c-4.1-3.1-5.8-4.3-10.7-4.3s-6.6,1.3-10.7,4.4c-5.4,4-13.5,10.1-28,10.1
		s-22.6-6.1-28-10.1c-4.1-3.1-5.8-4.4-10.7-4.4s-6.6,1.3-10.7,4.3c-5.4,4-13.5,10.1-28,10.1s-22.6-6.1-28-10.1
		c-4.1-3.1-5.8-4.4-10.7-4.4c-4.9,0-6.6,1.3-10.7,4.3c-5.4,4-13.5,10.1-28,10.1s-22.6-6.1-28-10.1c-4.1-3.1-5.8-4.4-10.7-4.4
		c-8,0-14.5-6.5-14.5-14.5s6.5-14.5,14.5-14.5c14.5,0,22.6,6.1,28,10.1c4.1,3.1,5.8,4.4,10.7,4.4c4.9,0,6.6-1.3,10.7-4.3
		c5.4-4,13.5-10.1,28-10.1s22.6,6.1,28,10.1c4.1,3.1,5.8,4.4,10.7,4.4s6.6-1.3,10.7-4.3c5.4-4,13.5-10.1,28-10.1s22.6,6.1,28,10.1
		c4.1,3.1,5.8,4.4,10.7,4.4s6.6-1.3,10.7-4.4c5.4-4,13.5-10.1,28-10.1s22.6,6.1,28,10.1c4.1,3.1,5.8,4.4,10.7,4.4s6.6-1.3,10.7-4.4
		c5.4-4,13.5-10.1,28-10.1s22.6,6.1,28,10.1c4.1,3.1,5.8,4.4,10.7,4.4s6.6-1.3,10.7-4.4c5.4-4,13.5-10.1,28-10.1s22.6,6.1,28,10.1
		c4.1,3.1,5.8,4.4,10.7,4.4s6.6-1.3,10.7-4.4c5.4-4,13.5-10.1,28-10.1s22.6,6.1,28,10.1c4.1,3.1,5.8,4.4,10.7,4.4s6.6-1.3,10.7-4.4
		c5.4-4,13.5-10.1,28-10.1s22.6,6.1,28,10.1c4.1,3.1,5.8,4.4,10.7,4.4s6.6-1.3,10.7-4.4c5.4-4,13.5-10.1,28-10.1
		c14.5,0,22.6,6.1,28,10.1c4.1,3.1,5.8,4.4,10.7,4.4c4.9,0,6.6-1.3,10.7-4.4c5.4-4,13.5-10.1,28-10.1s22.6,6.1,28,10.1
		c4.1,3.1,5.8,4.4,10.7,4.4c4.9,0,6.6-1.3,10.7-4.4c5.4-4,13.5-10.1,28-10.1s22.6,6.1,28,10.1c4.1,3.1,5.8,4.4,10.7,4.4
		c4.9,0,6.6-1.3,10.7-4.4c5.4-4,13.5-10.1,28-10.1s22.6,6.1,28,10.1c4.1,3.1,5.8,4.4,10.7,4.4c4.9,0,6.6-1.3,10.7-4.4
		c5.4-4,13.5-10.1,28-10.1s22.6,6.1,28,10.1c4.1,3.1,5.8,4.4,10.7,4.4c4.9,0,6.6-1.3,10.7-4.4c5.4-4,13.5-10.1,28-10.1
		s22.6,6.1,28,10.1c4.1,3.1,5.8,4.4,10.7,4.4c4.9,0,6.6-1.3,10.7-4.4c5.4-4,13.5-10.1,28-10.1s22.6,6.1,28,10.1
		c4.1,3.1,5.8,4.4,10.7,4.4s6.6-1.3,10.7-4.4c5.4-4,13.5-10.1,28-10.1c8,0,14.5,6.5,14.5,14.5s-6.5,14.5-14.5,14.5
		c-4.9,0-6.6,1.3-10.7,4.4C1324.6,591.8,1316.5,597.9,1302,597.9z"/>
</g>
<g>
	<path class="st3" d="M1299.1,625.3c-14.5,0-22.6-6.1-28-10.1c-4.1-3.1-5.8-4.4-10.7-4.4c-4.9,0-6.6,1.3-10.7,4.4
		c-5.4,4-13.5,10.1-28,10.1s-22.6-6.1-28-10.1c-4.1-3.1-5.8-4.4-10.7-4.4c-4.9,0-6.6,1.3-10.7,4.4c-5.4,4-13.5,10.1-28,10.1
		s-22.6-6.1-28-10.1c-4.1-3.1-5.8-4.4-10.7-4.4c-4.9,0-6.6,1.3-10.7,4.4c-5.4,4-13.5,10.1-28,10.1s-22.6-6.1-28-10.1
		c-4.1-3.1-5.8-4.4-10.7-4.4c-4.9,0-6.6,1.3-10.7,4.4c-5.4,4-13.5,10.1-28,10.1s-22.6-6.1-28-10.1c-4.1-3.1-5.8-4.4-10.7-4.4
		c-4.9,0-6.6,1.3-10.7,4.4c-5.4,4-13.5,10.1-28,10.1s-22.6-6.1-28-10.1c-4.1-3.1-5.8-4.4-10.7-4.4c-4.9,0-6.6,1.3-10.7,4.4
		c-5.4,4-13.5,10.1-28,10.1s-22.6-6.1-28-10.1c-4.1-3.1-5.8-4.4-10.7-4.4s-6.6,1.3-10.7,4.4c-5.4,4-13.5,10.1-28,10.1
		s-22.6-6.1-28-10.1c-4.1-3.1-5.8-4.4-10.7-4.4s-6.6,1.3-10.7,4.4c-5.4,4-13.5,10.1-28,10.1s-22.6-6.1-28-10.1
		c-4.1-3.1-5.8-4.4-10.7-4.4s-6.6,1.3-10.7,4.4c-5.4,4-13.5,10.1-28,10.1s-22.6-6.1-28-10.1c-4.1-3.1-5.8-4.4-10.7-4.4
		s-6.6,1.3-10.7,4.4c-5.4,4-13.5,10.1-28,10.1s-22.6-6.1-28-10.1c-4.1-3.1-5.8-4.4-10.7-4.4s-6.6,1.3-10.7,4.4
		c-5.4,4-13.5,10.1-28,10.1s-22.6-6.1-28-10.1c-4.1-3.1-5.8-4.3-10.7-4.3s-6.6,1.3-10.7,4.4c-5.4,4-13.5,10.1-28,10.1
		s-22.6-6.1-28-10.1c-4.1-3.1-5.8-4.4-10.7-4.4s-6.6,1.3-10.7,4.3c-5.4,4-13.5,10.1-28,10.1s-22.6-6.1-28-10.1
		c-4.1-3.1-5.8-4.4-10.7-4.4c-4.9,0-6.6,1.3-10.7,4.3c-5.4,4-13.5,10.1-28,10.1s-22.6-6.1-28-10.1c-4.1-3.1-5.8-4.4-10.7-4.4
		c-8,0-14.5-6.5-14.5-14.5s6.5-14.5,14.5-14.5c14.5,0,22.6,6.1,28,10.1c4.1,3.1,5.8,4.4,10.7,4.4c4.9,0,6.6-1.3,10.7-4.3
		c5.4-4,13.5-10.1,28-10.1s22.6,6.1,28,10.1c4.1,3.1,5.8,4.4,10.7,4.4s6.6-1.3,10.7-4.3c5.4-4,13.5-10.1,28-10.1s22.6,6.1,28,10.1
		c4.1,3.1,5.8,4.4,10.7,4.4s6.6-1.3,10.7-4.4c5.4-4,13.5-10.1,28-10.1s22.6,6.1,28,10.1c4.1,3.1,5.8,4.4,10.7,4.4s6.6-1.3,10.7-4.4
		c5.4-4,13.5-10.1,28-10.1s22.6,6.1,28,10.1c4.1,3.1,5.8,4.4,10.7,4.4s6.6-1.3,10.7-4.4c5.4-4,13.5-10.1,28-10.1s22.6,6.1,28,10.1
		c4.1,3.1,5.8,4.4,10.7,4.4s6.6-1.3,10.7-4.4c5.4-4,13.5-10.1,28-10.1s22.6,6.1,28,10.1c4.1,3.1,5.8,4.4,10.7,4.4s6.6-1.3,10.7-4.4
		c5.4-4,13.5-10.1,28-10.1s22.6,6.1,28,10.1c4.1,3.1,5.8,4.4,10.7,4.4s6.6-1.3,10.7-4.4c5.4-4,13.5-10.1,28-10.1
		c14.5,0,22.6,6.1,28,10.1c4.1,3.1,5.8,4.4,10.7,4.4c4.9,0,6.6-1.3,10.7-4.4c5.4-4,13.5-10.1,28-10.1s22.6,6.1,28,10.1
		c4.1,3.1,5.8,4.4,10.7,4.4c4.9,0,6.6-1.3,10.7-4.4c5.4-4,13.5-10.1,28-10.1s22.6,6.1,28,10.1c4.1,3.1,5.8,4.4,10.7,4.4
		c4.9,0,6.6-1.3,10.7-4.4c5.4-4,13.5-10.1,28-10.1s22.6,6.1,28,10.1c4.1,3.1,5.8,4.4,10.7,4.4c4.9,0,6.6-1.3,10.7-4.4
		c5.4-4,13.5-10.1,28-10.1s22.6,6.1,28,10.1c4.1,3.1,5.8,4.4,10.7,4.4c4.9,0,6.6-1.3,10.7-4.4c5.4-4,13.5-10.1,28-10.1
		s22.6,6.1,28,10.1c4.1,3.1,5.8,4.4,10.7,4.4c4.9,0,6.6-1.3,10.7-4.4c5.4-4,13.5-10.1,28-10.1s22.6,6.1,28,10.1
		c4.1,3.1,5.8,4.4,10.7,4.4c4.9,0,6.6-1.3,10.7-4.4c5.4-4,13.5-10.1,28-10.1c8,0,14.5,6.5,14.5,14.5s-6.5,14.5-14.5,14.5
		c-4.9,0-6.6,1.3-10.7,4.4C1321.7,619.3,1313.6,625.3,1299.1,625.3z"/>
</g>
<g>
	<path class="st0" d="M1302,653.1c-14.5,0-22.6-6.1-28-10.1c-4.1-3.1-5.8-4.4-10.7-4.4c-4.9,0-6.6,1.3-10.7,4.4
		c-5.4,4-13.5,10.1-28,10.1s-22.6-6.1-28-10.1c-4.1-3.1-5.8-4.4-10.7-4.4c-4.9,0-6.6,1.3-10.7,4.4c-5.4,4-13.5,10.1-28,10.1
		s-22.6-6.1-28-10.1c-4.1-3.1-5.8-4.4-10.7-4.4c-4.9,0-6.6,1.3-10.7,4.4c-5.4,4-13.5,10.1-28,10.1s-22.6-6.1-28-10.1
		c-4.1-3.1-5.8-4.4-10.7-4.4c-4.9,0-6.6,1.3-10.7,4.4c-5.4,4-13.5,10.1-28,10.1s-22.6-6.1-28-10.1c-4.1-3.1-5.8-4.4-10.7-4.4
		c-4.9,0-6.6,1.3-10.7,4.4c-5.4,4-13.5,10.1-28,10.1s-22.6-6.1-28-10.1c-4.1-3.1-5.8-4.4-10.7-4.4c-4.9,0-6.6,1.3-10.7,4.4
		c-5.4,4-13.5,10.1-28,10.1s-22.6-6.1-28-10.1c-4.1-3.1-5.8-4.4-10.7-4.4s-6.6,1.3-10.7,4.4c-5.4,4-13.5,10.1-28,10.1
		s-22.6-6.1-28-10.1c-4.1-3.1-5.8-4.4-10.7-4.4s-6.6,1.3-10.7,4.4c-5.4,4-13.5,10.1-28,10.1s-22.6-6.1-28-10.1
		c-4.1-3.1-5.8-4.4-10.7-4.4s-6.6,1.3-10.7,4.4c-5.4,4-13.5,10.1-28,10.1s-22.6-6.1-28-10.1c-4.1-3.1-5.8-4.4-10.7-4.4
		s-6.6,1.3-10.7,4.4c-5.4,4-13.5,10.1-28,10.1s-22.6-6.1-28-10.1c-4.1-3.1-5.8-4.4-10.7-4.4s-6.6,1.3-10.7,4.4
		c-5.4,4-13.5,10.1-28,10.1s-22.6-6.1-28-10.1c-4.1-3.1-5.8-4.3-10.7-4.3s-6.6,1.3-10.7,4.4c-5.4,4-13.5,10.1-28,10.1
		s-22.6-6.1-28-10.1c-4.1-3.1-5.8-4.4-10.7-4.4s-6.6,1.3-10.7,4.3c-5.4,4-13.5,10.1-28,10.1s-22.6-6.1-28-10.1
		c-4.1-3.1-5.8-4.4-10.7-4.4c-4.9,0-6.6,1.3-10.7,4.3c-5.4,4-13.5,10.1-28,10.1s-22.6-6.1-28-10.1c-4.1-3.1-5.8-4.4-10.7-4.4
		c-8,0-14.5-6.5-14.5-14.5s6.5-14.5,14.5-14.5c14.5,0,22.6,6.1,28,10.1c4.1,3.1,5.8,4.4,10.7,4.4c4.9,0,6.6-1.3,10.7-4.3
		c5.4-4,13.5-10.1,28-10.1s22.6,6.1,28,10.1c4.1,3.1,5.8,4.4,10.7,4.4s6.6-1.3,10.7-4.3c5.4-4,13.5-10.1,28-10.1s22.6,6.1,28,10.1
		c4.1,3.1,5.8,4.4,10.7,4.4s6.6-1.3,10.7-4.4c5.4-4,13.5-10.1,28-10.1s22.6,6.1,28,10.1c4.1,3.1,5.8,4.4,10.7,4.4s6.6-1.3,10.7-4.4
		c5.4-4,13.5-10.1,28-10.1s22.6,6.1,28,10.1c4.1,3.1,5.8,4.4,10.7,4.4s6.6-1.3,10.7-4.4c5.4-4,13.5-10.1,28-10.1s22.6,6.1,28,10.1
		c4.1,3.1,5.8,4.4,10.7,4.4s6.6-1.3,10.7-4.4c5.4-4,13.5-10.1,28-10.1s22.6,6.1,28,10.1c4.1,3.1,5.8,4.4,10.7,4.4s6.6-1.3,10.7-4.4
		c5.4-4,13.5-10.1,28-10.1s22.6,6.1,28,10.1c4.1,3.1,5.8,4.4,10.7,4.4s6.6-1.3,10.7-4.4c5.4-4,13.5-10.1,28-10.1
		c14.5,0,22.6,6.1,28,10.1c4.1,3.1,5.8,4.4,10.7,4.4c4.9,0,6.6-1.3,10.7-4.4c5.4-4,13.5-10.1,28-10.1s22.6,6.1,28,10.1
		c4.1,3.1,5.8,4.4,10.7,4.4c4.9,0,6.6-1.3,10.7-4.4c5.4-4,13.5-10.1,28-10.1s22.6,6.1,28,10.1c4.1,3.1,5.8,4.4,10.7,4.4
		c4.9,0,6.6-1.3,10.7-4.4c5.4-4,13.5-10.1,28-10.1s22.6,6.1,28,10.1c4.1,3.1,5.8,4.4,10.7,4.4c4.9,0,6.6-1.3,10.7-4.4
		c5.4-4,13.5-10.1,28-10.1s22.6,6.1,28,10.1c4.1,3.1,5.8,4.4,10.7,4.4c4.9,0,6.6-1.3,10.7-4.4c5.4-4,13.5-10.1,28-10.1
		s22.6,6.1,28,10.1c4.1,3.1,5.8,4.4,10.7,4.4c4.9,0,6.6-1.3,10.7-4.4c5.4-4,13.5-10.1,28-10.1s22.6,6.1,28,10.1
		c4.1,3.1,5.8,4.4,10.7,4.4s6.6-1.3,10.7-4.4c5.4-4,13.5-10.1,28-10.1c8,0,14.5,6.5,14.5,14.5s-6.5,14.5-14.5,14.5
		c-4.9,0-6.6,1.3-10.7,4.4C1324.6,647.1,1316.5,653.1,1302,653.1z"/>
</g>
<g>
	<path class="st3" d="M1299.1,680.6c-14.5,0-22.6-6.1-28-10.1c-4.1-3.1-5.8-4.4-10.7-4.4c-4.9,0-6.6,1.3-10.7,4.4
		c-5.4,4-13.5,10.1-28,10.1s-22.6-6.1-28-10.1c-4.1-3.1-5.8-4.4-10.7-4.4c-4.9,0-6.6,1.3-10.7,4.4c-5.4,4-13.5,10.1-28,10.1
		s-22.6-6.1-28-10.1c-4.1-3.1-5.8-4.4-10.7-4.4c-4.9,0-6.6,1.3-10.7,4.4c-5.4,4-13.5,10.1-28,10.1s-22.6-6.1-28-10.1
		c-4.1-3.1-5.8-4.4-10.7-4.4c-4.9,0-6.6,1.3-10.7,4.4c-5.4,4-13.5,10.1-28,10.1s-22.6-6.1-28-10.1c-4.1-3.1-5.8-4.4-10.7-4.4
		c-4.9,0-6.6,1.3-10.7,4.4c-5.4,4-13.5,10.1-28,10.1s-22.6-6.1-28-10.1c-4.1-3.1-5.8-4.4-10.7-4.4c-4.9,0-6.6,1.3-10.7,4.4
		c-5.4,4-13.5,10.1-28,10.1s-22.6-6.1-28-10.1c-4.1-3.1-5.8-4.4-10.7-4.4s-6.6,1.3-10.7,4.4c-5.4,4-13.5,10.1-28,10.1
		s-22.6-6.1-28-10.1c-4.1-3.1-5.8-4.4-10.7-4.4s-6.6,1.3-10.7,4.4c-5.4,4-13.5,10.1-28,10.1s-22.6-6.1-28-10.1
		c-4.1-3.1-5.8-4.4-10.7-4.4s-6.6,1.3-10.7,4.4c-5.4,4-13.5,10.1-28,10.1s-22.6-6.1-28-10.1c-4.1-3.1-5.8-4.4-10.7-4.4
		s-6.6,1.3-10.7,4.4c-5.4,4-13.5,10.1-28,10.1s-22.6-6.1-28-10.1c-4.1-3.1-5.8-4.4-10.7-4.4s-6.6,1.3-10.7,4.4
		c-5.4,4-13.5,10.1-28,10.1s-22.6-6.1-28-10.1c-4.1-3.1-5.8-4.3-10.7-4.3s-6.6,1.3-10.7,4.4c-5.4,4-13.5,10.1-28,10.1
		s-22.6-6.1-28-10.1c-4.1-3.1-5.8-4.4-10.7-4.4s-6.6,1.3-10.7,4.3c-5.4,4-13.5,10.1-28,10.1s-22.6-6.1-28-10.1
		c-4.1-3.1-5.8-4.4-10.7-4.4c-4.9,0-6.6,1.3-10.7,4.3c-5.4,4-13.5,10.1-28,10.1s-22.6-6.1-28-10.1c-4.1-3.1-5.8-4.4-10.7-4.4
		c-8,0-14.5-6.5-14.5-14.5s6.5-14.5,14.5-14.5c14.5,0,22.6,6.1,28,10.1c4.1,3.1,5.8,4.4,10.7,4.4c4.9,0,6.6-1.3,10.7-4.3
		c5.4-4,13.5-10.1,28-10.1s22.6,6.1,28,10.1c4.1,3.1,5.8,4.4,10.7,4.4s6.6-1.3,10.7-4.3c5.4-4,13.5-10.1,28-10.1s22.6,6.1,28,10.1
		c4.1,3.1,5.8,4.4,10.7,4.4s6.6-1.3,10.7-4.4c5.4-4,13.5-10.1,28-10.1s22.6,6.1,28,10.1c4.1,3.1,5.8,4.4,10.7,4.4s6.6-1.3,10.7-4.4
		c5.4-4,13.5-10.1,28-10.1s22.6,6.1,28,10.1c4.1,3.1,5.8,4.4,10.7,4.4s6.6-1.3,10.7-4.4c5.4-4,13.5-10.1,28-10.1s22.6,6.1,28,10.1
		c4.1,3.1,5.8,4.4,10.7,4.4s6.6-1.3,10.7-4.4c5.4-4,13.5-10.1,28-10.1s22.6,6.1,28,10.1c4.1,3.1,5.8,4.4,10.7,4.4s6.6-1.3,10.7-4.4
		c5.4-4,13.5-10.1,28-10.1s22.6,6.1,28,10.1c4.1,3.1,5.8,4.4,10.7,4.4s6.6-1.3,10.7-4.4c5.4-4,13.5-10.1,28-10.1
		c14.5,0,22.6,6.1,28,10.1c4.1,3.1,5.8,4.4,10.7,4.4c4.9,0,6.6-1.3,10.7-4.4c5.4-4,13.5-10.1,28-10.1s22.6,6.1,28,10.1
		c4.1,3.1,5.8,4.4,10.7,4.4c4.9,0,6.6-1.3,10.7-4.4c5.4-4,13.5-10.1,28-10.1s22.6,6.1,28,10.1c4.1,3.1,5.8,4.4,10.7,4.4
		c4.9,0,6.6-1.3,10.7-4.4c5.4-4,13.5-10.1,28-10.1s22.6,6.1,28,10.1c4.1,3.1,5.8,4.4,10.7,4.4c4.9,0,6.6-1.3,10.7-4.4
		c5.4-4,13.5-10.1,28-10.1s22.6,6.1,28,10.1c4.1,3.1,5.8,4.4,10.7,4.4c4.9,0,6.6-1.3,10.7-4.4c5.4-4,13.5-10.1,28-10.1
		s22.6,6.1,28,10.1c4.1,3.1,5.8,4.4,10.7,4.4c4.9,0,6.6-1.3,10.7-4.4c5.4-4,13.5-10.1,28-10.1s22.6,6.1,28,10.1
		c4.1,3.1,5.8,4.4,10.7,4.4c4.9,0,6.6-1.3,10.7-4.4c5.4-4,13.5-10.1,28-10.1c8,0,14.5,6.5,14.5,14.5s-6.5,14.5-14.5,14.5
		c-4.9,0-6.6,1.3-10.7,4.4C1321.7,674.5,1313.6,680.6,1299.1,680.6z"/>
</g>
<rect x="182.3" y="373.9" class="st4" width="1156.4" height="279.4"/>
<rect x="182.3" y="643.4" class="st5" width="1156.4" height="55.2"/>
<ellipse class="st6" cx="1208.4" cy="667.7" rx="26.8" ry="6"/>
<rect x="1202.2" y="450.6" class="st7" width="10.4" height="217.1"/>
<polygon class="st1" points="1277,503.9 1145.5,503.9 1128.6,488.3 1145.5,474.6 1277,474.6 "/>
<g>
	<path class="st7" d="M2238.4,1238.2c-0.4,0.9-0.8,1.6-1.2,2.2s-0.8,1.1-1.3,1.4c-0.2,0.2-0.5,0.3-0.8,0.4s-0.6,0.1-0.8,0.1l0,0
		c-0.4,0-0.8-0.1-1-0.4c-0.3-0.3-0.4-0.7-0.4-1.2l0,0l0,0c0-0.3,0.1-0.7,0.2-1.2s0.3-1,0.5-1.6c0.1-0.2,0.2-0.6,0.4-1.2
		c0.2-0.6,0.5-1.3,0.7-2c0-0.1,0.1-0.4,0.3-0.9h-1.3c-0.2,0-0.4-0.2-0.4-0.4c0-0.2,0.2-0.4,0.4-0.4h1.5c0.1-0.1,0.1-0.3,0.2-0.4
		c0.4-1.1,0.8-2.3,0.9-2.5c0.1-0.2,0.3-0.3,0.5-0.3s0.3,0.3,0.3,0.5c-0.1,0.2-0.5,1.4-0.9,2.5c0,0.1,0,0.1-0.1,0.2h1.3
		c0.2,0,0.4,0.2,0.4,0.4c0,0.2-0.2,0.4-0.4,0.4h-1.6c-0.2,0.6-0.3,1-0.4,1.2c-0.3,0.8-0.5,1.5-0.7,2s-0.3,0.9-0.4,1.2
		c-0.2,0.6-0.4,1.1-0.5,1.5c-0.1,0.4-0.2,0.8-0.2,1.1l0,0c0,0.3,0.1,0.5,0.2,0.7c0.1,0.1,0.3,0.2,0.4,0.2l0,0c0.2,0,0.4,0,0.6-0.1
		c0.2-0.1,0.4-0.1,0.5-0.3c0.4-0.3,0.7-0.7,1.1-1.2c0.4-0.6,0.7-1.3,1.1-2.1c0.1-0.2,0.4-0.3,0.6-0.2
		C2238.4,1237.7,2238.5,1237.9,2238.4,1238.2z"/>
	<path class="st7" d="M2246.3,1238.2L2246.3,1238.2c-0.8,1.7-1.8,4.2-3.6,4.2l0,0c-0.6,0-0.9-0.2-1.1-0.6c-0.2-0.3-0.3-0.7-0.3-1.1
		v-0.1c0-0.4,0.1-0.9,0.2-1.4s0.3-1,0.5-1.4c0.1-0.1,0.1-0.2,0.1-0.4c0.3-0.7,0.7-1.8,0.7-2.7c0-0.6-0.3-1-1-1
		c-0.5,0-1.1,0.5-1.6,1.1c-0.7,0.9-1.4,2.2-1.8,3.3l0,0c-0.6,1.5-1.2,3.2-1.4,3.9c-0.1,0.2-0.3,0.3-0.5,0.3
		c-0.2-0.1-0.3-0.3-0.3-0.5c0.2-0.6,0.8-2.3,1.4-3.9l0,0l0,0l0,0c0.6-1.7,1.2-3.3,1.4-3.9l0,0c0.2-0.6,0.3-0.8,0.4-1.1
		c0.2-0.5,0.3-0.9,0.4-1.2l0.1-0.3c0.1-0.3,0.3-0.8,0.5-1.4c0.1-0.2,0.3-0.3,0.5-0.2s0.3,0.3,0.3,0.5c-0.2,0.5-0.4,1-0.5,1.4
		c0,0.1-0.1,0.2-0.1,0.3c-0.2,0.5-0.3,0.9-0.4,1.2l-0.3,0.7c0.6-0.6,1.2-0.9,1.8-0.9c1.4,0,1.9,0.8,1.9,1.9c0,1-0.5,2.2-0.8,3
		c-0.1,0.1-0.1,0.3-0.1,0.4c-0.2,0.5-0.3,0.9-0.5,1.4c-0.1,0.4-0.2,0.8-0.2,1.2l0,0c0,0.2,0,0.5,0.1,0.6s0.2,0.2,0.4,0.2l0,0
		c1.2,0,2.2-2.1,2.8-3.6v-0.1c0.1-0.2,0.3-0.3,0.6-0.2C2246.3,1237.7,2246.4,1237.9,2246.3,1238.2z"/>
	<path class="st7" d="M2253.5,1238.2c-0.8,1.7-1.7,2.7-2.7,3.4c-1,0.6-2.1,0.8-3.1,0.8l0,0l0,0c-0.7,0-1.4-0.3-1.8-0.7
		c-0.5-0.5-0.8-1.1-0.7-2l0,0l0,0c0-0.5,0.1-1.1,0.3-1.7l0,0c0.1-0.4,0.3-0.9,0.5-1.3c0.5-1,1.1-2,1.7-2.7c0.3-0.3,0.6-0.5,1-0.7
		c0.3-0.2,0.7-0.3,1.1-0.3c0.5,0,0.8,0.1,1.1,0.3c0.3,0.2,0.5,0.5,0.6,0.8s0,0.7-0.1,1c-0.2,0.5-0.5,1-1,1.4s-1.2,0.8-1.8,1.1
		c-0.9,0.4-1.8,0.7-2.3,0.8c-0.1,0.5-0.2,0.9-0.2,1.3l0,0c0,0.6,0.2,1.1,0.5,1.4c0.3,0.3,0.8,0.5,1.3,0.5l0,0c0.8,0,1.7-0.1,2.6-0.7
		c0.9-0.5,1.7-1.5,2.3-3c0.1-0.2,0.3-0.3,0.6-0.2C2253.5,1237.7,2253.6,1238,2253.5,1238.2z M2246.6,1237.4c0.5-0.1,1-0.3,1.6-0.6
		s1.2-0.6,1.6-1c0.3-0.3,0.6-0.6,0.7-1c0.1-0.2,0.1-0.4,0-0.6c0-0.1-0.1-0.2-0.2-0.3c-0.1-0.1-0.3-0.2-0.6-0.2
		c-0.2,0-0.5,0.1-0.7,0.2c-0.2,0.1-0.5,0.3-0.7,0.6c-0.6,0.6-1.2,1.5-1.6,2.4C2246.7,1237.1,2246.6,1237.2,2246.6,1237.4z"/>
	<path class="st7" d="M2257.2,1238.2c-0.4,0.8-0.8,1.8-1.4,2.6c-0.6,0.9-1.4,1.6-2.3,1.6l0,0c-0.5,0-0.9-0.2-1.1-0.6
		c-0.2-0.3-0.3-0.7-0.3-1.1v-0.1c0-0.3,0.1-0.7,0.2-1.2s0.3-1,0.5-1.6c0.1-0.2,0.2-0.6,0.4-1.2c0.2-0.6,0.5-1.3,0.7-2
		c0-0.1,0.1-0.3,0.2-0.5l0.3-0.9c0.1-0.2,0.3-0.3,0.5-0.3c0.2,0.1,0.3,0.3,0.3,0.5l-0.3,0.9l-0.2,0.5c-0.3,0.8-0.5,1.5-0.7,2
		s-0.3,0.9-0.4,1.2c-0.2,0.6-0.4,1.1-0.5,1.5c-0.1,0.4-0.2,0.8-0.2,1.1l0,0c0,0.2,0,0.5,0.1,0.6c0.1,0.1,0.2,0.2,0.4,0.2l0,0
		c0.6,0,1.1-0.5,1.6-1.2c0.5-0.8,0.9-1.7,1.3-2.5c0.1-0.2,0.4-0.3,0.6-0.2C2257.2,1237.7,2257.3,1237.9,2257.2,1238.2z M2255,1231.3
		c0-0.4,0.3-0.7,0.7-0.7s0.7,0.3,0.7,0.7c0,0.4-0.3,0.7-0.7,0.7C2255.3,1231.9,2255,1231.6,2255,1231.3z"/>
	<path class="st7" d="M2264.5,1238.2L2264.5,1238.2c-0.8,1.7-1.8,4.2-3.6,4.2l0,0c-0.5,0-0.9-0.2-1.1-0.6c-0.2-0.3-0.3-0.7-0.3-1.1
		v-0.1c0-0.3,0.1-0.7,0.2-1.2s0.3-1,0.5-1.6c0.2-0.5,0.3-0.9,0.4-1.1c0.1-0.4,0.2-0.6,0.4-1l-0.3-0.1c-0.6-0.2-1.2-0.4-1.8-0.7
		c-0.1,0.2-0.1,0.4-0.2,0.5l0,0l-1.6,3.5c-0.1,0.2-0.3,0.3-0.6,0.2c-0.2-0.1-0.3-0.3-0.2-0.6l1.6-3.5c0.1-0.2,0.2-0.4,0.2-0.6
		c-0.7-0.5-1.1-1-1-1.9c0-0.3,0.2-0.6,0.4-0.8l0,0c0.2-0.2,0.5-0.3,0.8-0.3c0.1,0,0.2,0,0.3,0l0,0c0.3,0.1,0.5,0.3,0.6,0.5
		c0.1,0.2,0.2,0.5,0.2,0.7s0,0.4-0.1,0.6s-0.1,0.4-0.2,0.7c0.6,0.3,1.2,0.5,1.8,0.7c0.3,0.1,0.5,0.2,0.8,0.2
		c0.2,0.1,0.3,0.3,0.2,0.6l0,0c-0.2,0.6-0.3,0.9-0.5,1.4c-0.1,0.3-0.2,0.6-0.4,1.1c-0.2,0.6-0.4,1.1-0.5,1.5
		c-0.1,0.4-0.2,0.8-0.2,1.1l0,0c0,0.2,0,0.5,0.2,0.6c0.1,0.1,0.2,0.2,0.4,0.2c1.3,0,2.2-2.1,2.8-3.6v-0.1c0.1-0.2,0.3-0.3,0.6-0.2
		C2264.5,1237.7,2264.6,1237.9,2264.5,1238.2z M2258.5,1232.8c0-0.1,0-0.2-0.1-0.3c0-0.1-0.1-0.1-0.1-0.1l0,0h-0.1
		c-0.1,0-0.2,0-0.2,0.1l0,0c-0.1,0.1-0.1,0.2-0.1,0.3c0,0.4,0.2,0.7,0.5,0.9c0.1-0.2,0.1-0.3,0.2-0.5
		C2258.5,1233,2258.5,1232.9,2258.5,1232.8z"/>
	<path class="st7" d="M2275,1238.2L2275,1238.2c-0.8,1.7-1.8,4.2-3.6,4.2l0,0l0,0c-0.5,0-0.9-0.2-1.1-0.6c-0.2-0.2-0.2-0.5-0.3-0.8
		c-0.6,0.8-1.3,1.4-2.2,1.4l0,0c-0.5,0-0.9-0.2-1.1-0.6c-0.2-0.3-0.3-0.7-0.3-1.1v-0.1c0-0.3,0.1-0.7,0.2-1.2c0.1-0.5,0.3-1,0.5-1.6
		c0.1-0.3,0.3-0.9,0.6-1.6c0.3-0.9,0.7-2,1.1-3c0.1-0.2,0.3-0.3,0.5-0.2c0.2,0.1,0.3,0.3,0.2,0.5c-0.4,1.2-0.8,2.2-1.1,3
		c-0.3,0.7-0.5,1.3-0.6,1.6c-0.2,0.6-0.4,1.1-0.5,1.5c-0.1,0.4-0.2,0.8-0.2,1.1l0,0c0,0.2,0,0.5,0.1,0.6c0.1,0.1,0.2,0.2,0.5,0.2
		c1.2,0,2.2-2.1,2.8-3.6l0,0c0,0,0,0,0-0.1c0.1-0.3,0.3-0.9,0.6-1.6c0.4-0.9,0.7-2,1.1-3c0.1-0.2,0.3-0.3,0.5-0.2
		c0.2,0.1,0.3,0.3,0.3,0.5c-0.4,1.2-0.8,2.2-1.1,3c-0.3,0.7-0.5,1.3-0.6,1.6l0,0v0.1c-0.2,0.5-0.3,1-0.4,1.4
		c-0.1,0.4-0.2,0.8-0.2,1.1l0,0c0,0.2,0,0.5,0.1,0.6c0.1,0.1,0.2,0.2,0.4,0.2l0,0c1.2,0,2.2-2.1,2.8-3.6v-0.1
		c0.1-0.2,0.3-0.3,0.6-0.2C2275,1237.7,2275.1,1237.9,2275,1238.2z"/>
	<path class="st7" d="M2280.5,1238.8L2280.5,1238.8L2280.5,1238.8c0,1.2-0.5,2.1-1.2,2.7s-1.6,0.9-2.4,0.9l0,0c-0.1,0-0.1,0-0.2,0
		c-0.8,0-1.5-0.4-2-0.9s-0.8-1.2-0.8-1.9c0-0.1,0-0.1,0-0.2c0.1-0.7,0.3-1.4,0.8-2c0.5-0.5,1.1-0.8,1.9-0.8c0.5,0,1,0.2,1.4,0.6
		c0.3,0.3,0.5,0.8,0.6,1.4c0,0.2-0.2,0.4-0.4,0.4s-0.4-0.2-0.4-0.4c0-0.3-0.1-0.6-0.3-0.8c-0.2-0.2-0.5-0.3-0.7-0.3
		c-0.5,0-1,0.2-1.3,0.6c-0.4,0.4-0.6,0.9-0.6,1.4v0.1c0,0.5,0.2,1,0.5,1.4s0.9,0.6,1.4,0.7c0.1,0,0.1,0,0.2,0l0,0
		c0.7,0,1.4-0.2,1.9-0.7c0.5-0.4,0.9-1.1,0.9-2l0,0c0-1-0.5-1.8-1-2.7c-0.1-0.2-0.2-0.4-0.3-0.6c-0.1,0.1-0.3,0.3-0.4,0.5
		c-0.2,0.2-0.4,0.2-0.6,0c-0.2-0.1-0.2-0.4-0.1-0.6c0.2-0.3,0.4-0.5,0.7-0.7l0,0c-0.2-0.6-0.4-1.1-0.3-1.7c0-0.2,0.1-0.4,0.2-0.6
		l0,0c0.1-0.2,0.2-0.3,0.3-0.5c0.1-0.1,0.3-0.2,0.4-0.3c0.2-0.1,0.3-0.1,0.5-0.1c0.3,0,0.5,0.1,0.7,0.3c0.2,0.2,0.2,0.4,0.3,0.7
		c0,0.2,0,0.4-0.1,0.6c0,0.2-0.1,0.4-0.2,0.6c-0.2,0.5-0.5,0.9-0.8,1.2c0.1,0.3,0.3,0.5,0.4,0.8
		C2279.9,1236.6,2280.5,1237.6,2280.5,1238.8z M2279,1233.3c0.1-0.1,0.1-0.3,0.1-0.4c0-0.1,0.1-0.2,0-0.4c0-0.1,0-0.1,0-0.2
		c0,0,0,0-0.1,0h-0.1c-0.1,0-0.1,0.1-0.2,0.1c-0.1,0.1-0.1,0.1-0.2,0.2l0,0c0,0.1-0.1,0.2-0.1,0.3c0,0.3,0,0.6,0.1,0.9
		C2278.7,1233.8,2278.8,1233.5,2279,1233.3z"/>
	<path class="st7" d="M2289.9,1238.2L2289.9,1238.2c-0.8,1.7-1.8,4.2-3.6,4.2l0,0l0,0c-0.5,0-0.9-0.2-1.1-0.6
		c-0.2-0.2-0.2-0.5-0.3-0.8c-0.6,0.8-1.3,1.4-2.2,1.4l0,0c-0.5,0-0.9-0.2-1.1-0.6c-0.2-0.3-0.3-0.7-0.3-1.1v-0.1
		c0-0.3,0.1-0.7,0.2-1.2s0.3-1,0.5-1.6c0.1-0.3,0.3-0.9,0.6-1.6c0.3-0.9,0.7-2,1.1-3c0.1-0.2,0.3-0.3,0.5-0.2
		c0.2,0.1,0.3,0.3,0.2,0.5c-0.4,1.2-0.8,2.2-1.1,3c-0.3,0.7-0.5,1.3-0.6,1.6c-0.2,0.6-0.4,1.1-0.5,1.5c-0.1,0.4-0.2,0.8-0.2,1.1l0,0
		c0,0.2,0,0.5,0.1,0.6c0.1,0.1,0.2,0.2,0.5,0.2c1.2,0,2.2-2.1,2.8-3.6l0,0c0,0,0,0,0-0.1c0.1-0.3,0.3-0.9,0.6-1.6
		c0.4-0.9,0.7-2,1.1-3c0.1-0.2,0.3-0.3,0.5-0.2c0.2,0.1,0.3,0.3,0.3,0.5c-0.4,1.2-0.8,2.2-1.1,3c-0.3,0.7-0.5,1.3-0.6,1.6l0,0v0.1
		c-0.2,0.5-0.3,1-0.4,1.4c-0.1,0.4-0.2,0.8-0.2,1.1l0,0c0,0.2,0,0.5,0.1,0.6c0.1,0.1,0.2,0.2,0.4,0.2l0,0c1.2,0,2.2-2.1,2.8-3.6
		v-0.1c0.1-0.2,0.3-0.3,0.6-0.2C2289.9,1237.7,2290,1237.9,2289.9,1238.2z"/>
	<path class="st7" d="M2297.9,1238.2L2297.9,1238.2c-0.8,1.7-1.8,4.2-3.6,4.2l0,0c-0.5,0-0.9-0.2-1.1-0.6c-0.2-0.3-0.3-0.7-0.3-1.1
		l0,0c-0.7,1-1.5,1.7-2.5,1.6c-0.6,0-1-0.3-1.2-0.7c-0.3-0.4-0.4-1-0.4-1.6c0-1.1,0.6-3.3,1.6-5c0.7-1.2,1.7-2.1,2.8-2.2
		c0.1,0,0.1,0,0.2,0c0.5,0,1,0.3,1.4,0.7c0.1,0.1,0.2,0.2,0.3,0.4c0.1-0.3,0.2-0.6,0.3-0.9c0.1-0.2,0.3-0.3,0.5-0.2s0.3,0.3,0.2,0.5
		c-0.2,0.6-0.6,1.6-1,2.7c-0.3,0.7-0.5,1.4-0.7,2c-0.2,0.6-0.4,1.1-0.5,1.5c-0.1,0.4-0.2,0.8-0.2,1.1l0,0c0,0.2,0,0.5,0.1,0.6
		c0.1,0.1,0.2,0.2,0.5,0.2c1.2,0,2.2-2.1,2.8-3.6v-0.1c0.1-0.2,0.3-0.3,0.6-0.2C2297.9,1237.7,2298,1237.9,2297.9,1238.2z
		 M2293.9,1236.5c0.2-0.4,0.3-0.8,0.5-1.1c0-0.1,0-0.1,0-0.1c0-0.5-0.1-0.8-0.4-1.1c-0.2-0.2-0.5-0.4-0.8-0.4h-0.1
		c-0.8,0-1.5,0.8-2.1,1.8c-0.9,1.5-1.4,3.5-1.5,4.5c0,0.5,0.1,0.9,0.2,1.1c0.1,0.2,0.3,0.3,0.6,0.3
		C2292,1241.5,2293.1,1238.5,2293.9,1236.5z"/>
	<path class="st7" d="M2302.1,1238.2c-0.4,0.9-0.8,1.6-1.2,2.2s-0.8,1.1-1.3,1.4c-0.2,0.2-0.5,0.3-0.8,0.4s-0.6,0.1-0.8,0.1l0,0
		c-0.4,0-0.8-0.1-1-0.4c-0.3-0.3-0.4-0.7-0.4-1.2l0,0l0,0c0-0.3,0.1-0.8,0.2-1.2c0.1-0.5,0.3-1,0.5-1.6c0.5-1.6,1.1-3.2,1.7-4.9
		l0.4-1.3l0.1-0.3c0.1-0.3,0.3-0.8,0.5-1.4c0.1-0.2,0.3-0.3,0.5-0.3c0.2,0.1,0.3,0.3,0.3,0.5c-0.2,0.5-0.4,1.1-0.5,1.4
		c0,0.1-0.1,0.2-0.1,0.4l-0.4,1.3c-0.6,1.6-1.1,3.2-1.7,4.9c-0.2,0.6-0.3,1.1-0.5,1.5c-0.1,0.4-0.2,0.8-0.2,1l0,0
		c0,0.3,0.1,0.5,0.2,0.7c0.1,0.1,0.3,0.2,0.4,0.2l0,0c0.2,0,0.4,0,0.6-0.1s0.4-0.1,0.5-0.3c0.4-0.3,0.7-0.7,1.1-1.2
		c0.4-0.6,0.7-1.3,1.1-2.1c0.1-0.2,0.4-0.3,0.6-0.2C2302.1,1237.7,2302.2,1237.9,2302.1,1238.2z"/>
	<path class="st7" d="M2310.8,1238.8L2310.8,1238.8L2310.8,1238.8c0,1.2-0.5,2.1-1.2,2.7s-1.6,0.9-2.4,0.9l0,0c-0.1,0-0.1,0-0.2,0
		c-0.8,0-1.5-0.4-2-0.9s-0.8-1.2-0.8-1.9c0-0.1,0-0.1,0-0.2c0.1-0.7,0.3-1.4,0.8-2c0.5-0.5,1.1-0.8,1.9-0.8c0.5,0,1,0.2,1.4,0.6
		c0.3,0.3,0.5,0.8,0.6,1.4c0,0.2-0.2,0.4-0.4,0.4s-0.4-0.2-0.4-0.4c0-0.3-0.1-0.6-0.3-0.8c-0.2-0.2-0.5-0.3-0.7-0.3
		c-0.5,0-1,0.2-1.3,0.6c-0.4,0.4-0.6,0.9-0.6,1.4v0.1c0,0.5,0.2,1,0.5,1.4s0.9,0.6,1.4,0.7c0.1,0,0.1,0,0.2,0l0,0
		c0.7,0,1.4-0.2,1.9-0.7c0.5-0.4,0.9-1.1,0.9-2l0,0c0-1-0.5-1.8-1-2.7c-0.1-0.2-0.2-0.4-0.3-0.6c-0.1,0.1-0.3,0.3-0.4,0.5
		c-0.2,0.2-0.4,0.2-0.6,0c-0.2-0.1-0.2-0.4-0.1-0.6c0.2-0.3,0.4-0.5,0.7-0.7l0,0c-0.2-0.6-0.4-1.1-0.3-1.7c0-0.2,0.1-0.4,0.2-0.6
		l0,0c0.1-0.2,0.2-0.3,0.3-0.5c0.1-0.1,0.3-0.2,0.4-0.3c0.2-0.1,0.3-0.1,0.5-0.1c0.3,0,0.5,0.1,0.7,0.3c0.2,0.2,0.2,0.4,0.3,0.7
		c0,0.2,0,0.4-0.1,0.6c0,0.2-0.1,0.4-0.2,0.6c-0.2,0.5-0.5,0.9-0.8,1.2c0.1,0.3,0.3,0.5,0.4,0.8
		C2310.2,1236.6,2310.8,1237.6,2310.8,1238.8z M2309.3,1233.3c0.1-0.1,0.1-0.3,0.1-0.4c0-0.1,0.1-0.2,0-0.4c0-0.1,0-0.1,0-0.2
		c0,0,0,0-0.1,0h-0.1c-0.1,0-0.1,0.1-0.2,0.1c-0.1,0.1-0.1,0.1-0.2,0.2l0,0c0,0.1-0.1,0.2-0.1,0.3c0,0.3,0,0.6,0.1,0.9
		C2309,1233.8,2309.2,1233.5,2309.3,1233.3z"/>
	<path class="st7" d="M2320.6,1238.1c0,0.1-0.1,0.3-0.2,0.4c-0.1,0.1-0.1,0.2-0.2,0.3c-0.3,0.5-0.6,1-1,1.4c-0.4,0.4-1,0.7-1.7,0.7
		c-0.2,0-0.4,0-0.6-0.1c-0.3-0.1-0.6-0.2-0.8-0.5c-0.8,1.1-1.8,1.9-3,1.8l0,0l0,0l0,0c-0.7,0-1.2-0.4-1.4-0.8
		c-0.9,2.5-1.7,4.7-1.9,5.3c-0.1,0.2-0.3,0.3-0.5,0.3c-0.2-0.1-0.3-0.3-0.3-0.5c0.2-0.6,1.2-3.4,2.2-6.2c1.1-3.1,2.3-6.3,2.5-6.9
		c0-0.1,0.1-0.2,0.1-0.3c0.1-0.2,0.3-0.3,0.5-0.3c0.2,0.1,0.3,0.3,0.3,0.5l-0.2,0.4c0.6-0.6,1.2-1,2-1c0.6,0,1,0.3,1.3,0.7
		s0.4,1,0.4,1.6v0.1l0,0c-0.1,1.1-0.6,2.9-1.4,4.4c0,0.1-0.1,0.1-0.1,0.2c0.2,0.2,0.4,0.3,0.6,0.4c0.1,0,0.2,0,0.4,0
		c0.5,0,0.8-0.2,1.2-0.5c0.3-0.3,0.6-0.8,0.8-1.2c0-0.1,0.1-0.2,0.2-0.3c0-0.1,0.1-0.2,0.1-0.4c0.1-0.2,0.3-0.3,0.6-0.2
		C2320.6,1237.7,2320.7,1237.9,2320.6,1238.1z M2316.4,1238.1c-0.1,0.2-0.1,0.4-0.1,0.5c0.6-1.2,0.9-2.5,1-3.4l0,0v-0.1l0,0
		c0-0.5,0-0.9-0.2-1.1c-0.1-0.2-0.3-0.3-0.6-0.3c-1.6,0-2.8,3-3.6,5l-0.1,0.3c-0.1,0.5-0.3,1-0.3,1.4c0,0.6,0.1,1,0.7,1l0,0l0,0
		c0.9,0,1.8-0.7,2.4-1.7c-0.1-0.3-0.2-0.6-0.2-1c0-0.3,0-0.6,0.1-1c0.1-0.2,0.3-0.4,0.5-0.3
		C2316.3,1237.6,2316.4,1237.9,2316.4,1238.1z"/>
	<path class="st7" d="M2328.3,1238.1c-0.1,0.1-0.1,0.3-0.2,0.4s-0.1,0.2-0.2,0.3c-0.3,0.5-0.6,1-1,1.4c-0.5,0.4-1,0.7-1.7,0.7
		c-0.2,0-0.4,0-0.6-0.1c-0.3-0.1-0.6-0.3-0.9-0.5c-0.7,1-1.7,1.8-2.7,1.8c-3.3,0-1.1-5.5,0-7.3c0.7-1.2,1.7-2.1,2.8-2.1l0,0
		c0.6,0,1.1,0.2,1.5,0.7c0.3,0.4,0.5,0.9,0.5,1.6c0,1.3-0.7,3.1-1.5,4.6c0.1,0.2,0.4,0.3,0.6,0.4c0.1,0,0.2,0,0.3,0
		c0.5,0,0.9-0.2,1.2-0.5c0.3-0.3,0.6-0.8,0.8-1.2c0.1-0.1,0.1-0.2,0.2-0.3c0.1-0.1,0.1-0.2,0.2-0.4c0.1-0.2,0.3-0.3,0.6-0.2
		C2328.3,1237.7,2328.4,1237.9,2328.3,1238.1z M2324.1,1238.1c-0.1,0.2-0.1,0.3-0.1,0.5c0.6-1.2,1-2.5,1-3.4c0-0.5-0.1-0.8-0.3-1
		s-0.5-0.4-0.9-0.4c-0.8,0-1.5,0.7-2,1.7c-0.8,1.3-2.7,6-0.7,6c0.7,0,1.6-0.8,2.2-1.7c-0.1-0.3-0.2-0.6-0.2-0.9s0-0.6,0.1-1
		c0.1-0.2,0.3-0.4,0.5-0.3C2324,1237.6,2324.2,1237.9,2324.1,1238.1z"/>
	<path class="st7" d="M2332.4,1238.2c-0.4,0.9-0.8,1.6-1.2,2.2s-0.8,1.1-1.3,1.4c-0.2,0.2-0.5,0.3-0.8,0.4s-0.6,0.1-0.8,0.1l0,0
		c-0.4,0-0.8-0.1-1-0.4c-0.3-0.3-0.4-0.7-0.4-1.2l0,0l0,0c0-0.3,0.1-0.7,0.2-1.2s0.3-1,0.5-1.6c0.1-0.2,0.2-0.6,0.4-1.2
		c0.2-0.6,0.5-1.3,0.7-2c0-0.1,0.1-0.4,0.3-0.9h-1.3c-0.2,0-0.4-0.2-0.4-0.4c0-0.2,0.2-0.4,0.4-0.4h1.5c0.1-0.1,0.1-0.3,0.2-0.4
		c0.4-1.1,0.8-2.3,0.9-2.5c0.1-0.2,0.3-0.3,0.5-0.3c0.2,0.1,0.3,0.3,0.3,0.5c-0.1,0.2-0.5,1.4-0.9,2.5c0,0.1,0,0.1-0.1,0.2h1.3
		c0.2,0,0.4,0.2,0.4,0.4c0,0.2-0.2,0.4-0.4,0.4h-1.6c-0.2,0.6-0.3,1-0.4,1.2c-0.3,0.8-0.5,1.5-0.7,2s-0.3,0.9-0.4,1.2
		c-0.2,0.6-0.4,1.1-0.5,1.5c-0.1,0.4-0.2,0.8-0.2,1.1l0,0c0,0.3,0.1,0.5,0.2,0.7c0.1,0.1,0.3,0.2,0.4,0.2l0,0c0.2,0,0.4,0,0.6-0.1
		c0.2-0.1,0.4-0.1,0.5-0.3c0.4-0.3,0.7-0.7,1.1-1.2c0.4-0.6,0.7-1.3,1.1-2.1c0.1-0.2,0.4-0.3,0.6-0.2
		C2332.4,1237.7,2332.5,1237.9,2332.4,1238.2z"/>
</g>
<g>
	<path class="st7" d="M2215.4,1235.2l-6.7,2.5l5,2.3c0.3,0.1,0.4,0.4,0.3,0.7c-0.1,0.2-0.4,0.4-0.7,0.2l-6.2-2.7
		c-0.1,0-0.2-0.1-0.3-0.3c-0.1-0.3,0-0.6,0.3-0.7l7.9-3c0.3-0.1,0.6,0,0.7,0.3C2215.8,1234.8,2215.7,1235.1,2215.4,1235.2z"/>
	<path class="st7" d="M2227.3,1235.2l-6.7,2.5l5,2.3c0.3,0.1,0.4,0.4,0.3,0.7c-0.1,0.2-0.4,0.4-0.7,0.2l-6.2-2.7
		c-0.1,0-0.2-0.1-0.3-0.3c-0.1-0.3,0-0.6,0.3-0.7l7.9-3c0.3-0.1,0.6,0,0.7,0.3C2227.6,1234.8,2227.5,1235.1,2227.3,1235.2z"/>
</g>
<g>
	<path class="st8" d="M1166.2,486.4c0,0.6-0.2,1.1-0.5,1.5s-0.8,0.8-1.3,1c0.6,0.2,1.2,0.6,1.5,1.1c0.4,0.5,0.6,1,0.6,1.7
		c0,1-0.3,1.8-1,2.4c-0.7,0.6-1.5,0.8-2.6,0.8c-1.1,0-2-0.3-2.6-0.8c-0.6-0.5-1-1.3-1-2.4c0-0.6,0.2-1.2,0.6-1.7
		c0.4-0.5,0.9-0.8,1.5-1.1c-0.6-0.2-1-0.5-1.3-1c-0.3-0.4-0.5-0.9-0.5-1.5c0-1,0.3-1.7,0.9-2.3c0.6-0.5,1.4-0.8,2.4-0.8
		s1.8,0.3,2.4,0.8C1165.9,484.6,1166.2,485.4,1166.2,486.4z M1165,491.6c0-0.6-0.2-1.1-0.6-1.5c-0.4-0.4-0.9-0.6-1.5-0.6
		c-0.6,0-1.1,0.2-1.5,0.6c-0.4,0.4-0.6,0.9-0.6,1.5s0.2,1.1,0.6,1.5c0.4,0.4,0.9,0.5,1.5,0.5c0.6,0,1.1-0.2,1.5-0.5
		C1164.8,492.8,1165,492.2,1165,491.6z M1164.7,486.4c0-0.6-0.2-1-0.5-1.4s-0.8-0.5-1.3-0.5s-1,0.2-1.3,0.5
		c-0.3,0.4-0.5,0.8-0.5,1.4c0,0.6,0.2,1,0.5,1.4s0.8,0.5,1.3,0.5s1-0.2,1.3-0.5C1164.5,487.5,1164.7,487,1164.7,486.4z"/>
	<path class="st8" d="M1174.2,490.9h1.5v1.2h-1.5v1.4l1.3,0.2v1h-4v-1l1.3-0.2v-1.4h-5v-0.9l4.9-7.8h1.6v7.5H1174.2z M1169.3,490.9
		h3.4v-5.3l0,0l-0.2,0.4L1169.3,490.9z"/>
	<path class="st8" d="M1179.6,484.3v2h1.6v1.1h-1.6v5.1c0,0.4,0.1,0.7,0.2,0.8c0.2,0.2,0.4,0.2,0.6,0.2c0.1,0,0.3,0,0.5,0
		s0.3,0,0.4-0.1l0.2,1c-0.1,0.1-0.4,0.2-0.6,0.2c-0.3,0.1-0.6,0.1-0.8,0.1c-0.6,0-1.1-0.2-1.5-0.6c-0.4-0.4-0.5-1-0.5-1.7v-5.1h-1.3
		v-1.1h1.3v-2h1.5V484.3z"/>
	<path class="st8" d="M1182.5,493.7l1.3-0.2v-9.6l-1.3-0.2v-1h2.8v4.8c0.3-0.4,0.6-0.7,1.1-0.9c0.4-0.2,0.9-0.3,1.4-0.3
		c0.9,0,1.6,0.3,2.1,0.8s0.7,1.4,0.7,2.5v4l1.3,0.2v1h-4v-1l1.3-0.2v-4c0-0.7-0.1-1.2-0.4-1.5c-0.3-0.3-0.7-0.5-1.3-0.5
		c-0.4,0-0.8,0.1-1.1,0.3c-0.3,0.2-0.6,0.5-0.8,0.8v5l1.3,0.2v1h-4v-1.2H1182.5z"/>
	<path class="st8" d="M1196.7,491.6c0-0.6,0.2-1.2,0.5-1.6c0.3-0.4,0.9-0.9,1.6-1.4c-0.4-0.5-0.7-1-0.9-1.4
		c-0.2-0.4-0.3-0.8-0.3-1.2c0-0.9,0.2-1.5,0.8-2c0.5-0.5,1.2-0.7,2.1-0.7c0.8,0,1.5,0.2,2,0.7s0.8,1,0.8,1.7c0,0.5-0.1,0.9-0.4,1.3
		c-0.3,0.4-0.7,0.7-1.2,1.1l-0.8,0.6l2.6,3.1c0.2-0.3,0.4-0.7,0.5-1.1c0.1-0.4,0.2-0.8,0.2-1.3h1.4c0,0.7-0.1,1.3-0.3,1.9
		c-0.2,0.6-0.5,1.1-0.9,1.5l1.4,1.7l0,0h-1.8l-0.7-0.8c-0.4,0.3-0.9,0.5-1.4,0.7c-0.5,0.2-1,0.2-1.5,0.2c-1.1,0-2-0.3-2.7-0.9
		C1197,493.3,1196.7,492.6,1196.7,491.6z M1200.4,493.6c0.4,0,0.7-0.1,1.1-0.2c0.4-0.1,0.7-0.3,1-0.5l-2.8-3.3l-0.3,0.2
		c-0.5,0.3-0.8,0.7-0.9,1c-0.1,0.3-0.2,0.6-0.2,0.9c0,0.6,0.2,1.1,0.5,1.4C1199.1,493.4,1199.7,493.6,1200.4,493.6z M1199.2,486
		c0,0.3,0.1,0.6,0.2,0.8c0.1,0.3,0.3,0.6,0.6,1l1.1-0.7c0.3-0.2,0.5-0.4,0.6-0.6c0.1-0.2,0.2-0.5,0.2-0.8c0-0.3-0.1-0.6-0.4-0.8
		c-0.2-0.2-0.6-0.4-1-0.4c-0.4,0-0.7,0.1-1,0.4C1199.3,485.2,1199.2,485.6,1199.2,486z"/>
	<path class="st8" d="M1219.2,486.9h-1.1l-0.3-1.6c-0.2-0.2-0.5-0.4-0.9-0.6c-0.4-0.2-0.8-0.2-1.3-0.2c-1.2,0-2.1,0.4-2.7,1.3
		c-0.6,0.8-0.9,1.9-0.9,3.2v0.2c0,1.3,0.3,2.4,0.9,3.2c0.6,0.8,1.5,1.3,2.5,1.3c0.5,0,1-0.1,1.4-0.2c0.4-0.2,0.7-0.4,1-0.6l0.3-1.6
		h1.1v2c-0.3,0.4-0.8,0.8-1.5,1.1c-0.6,0.3-1.4,0.5-2.2,0.5c-1.5,0-2.6-0.5-3.6-1.6s-1.4-2.4-1.4-4.1V489c0-1.6,0.5-3,1.4-4.1
		c0.9-1.1,2.1-1.6,3.6-1.6c0.9,0,1.6,0.2,2.2,0.5c0.6,0.3,1.1,0.7,1.5,1.1V486.9z"/>
	<path class="st8" d="M1224.6,494.8c-1.2,0-2.1-0.4-2.8-1.2c-0.7-0.8-1-1.8-1-3v-0.3c0-1.2,0.4-2.2,1.1-3c0.7-0.8,1.5-1.2,2.5-1.2
		c1.1,0,2,0.3,2.5,1c0.6,0.7,0.9,1.6,0.9,2.7v0.9h-5.4l0,0c0,0.8,0.2,1.5,0.6,2c0.4,0.5,0.9,0.8,1.6,0.8c0.5,0,1-0.1,1.3-0.2
		c0.3-0.1,0.7-0.3,1-0.6l0.6,1c-0.3,0.3-0.7,0.5-1.2,0.7C1225.9,494.7,1225.3,494.8,1224.6,494.8z M1224.4,487.4
		c-0.5,0-0.9,0.2-1.3,0.6c-0.4,0.4-0.6,1-0.7,1.6l0,0h3.8v-0.2c0-0.6-0.2-1.1-0.5-1.5C1225.5,487.6,1225,487.4,1224.4,487.4z"/>
	<path class="st8" d="M1229,493.7l1.3-0.2v-5.9l-1.3-0.2v-1h2.6l0.1,1.2c0.3-0.4,0.6-0.8,1-1c0.4-0.2,0.9-0.4,1.4-0.4
		c0.9,0,1.6,0.3,2.1,0.8s0.7,1.3,0.7,2.4v4.1l1.3,0.2v1h-4v-1l1.3-0.2v-4c0-0.7-0.1-1.3-0.4-1.6c-0.3-0.3-0.7-0.5-1.3-0.5
		c-0.4,0-0.8,0.1-1.2,0.3c-0.3,0.2-0.6,0.5-0.8,0.9v4.9l1.3,0.2v1h-4L1229,493.7L1229,493.7z"/>
	<path class="st8" d="M1242,484.3v2h1.6v1.1h-1.6v5.1c0,0.4,0.1,0.7,0.2,0.8c0.2,0.2,0.4,0.2,0.6,0.2c0.1,0,0.3,0,0.5,0
		s0.3,0,0.4-0.1l0.2,1c-0.1,0.1-0.4,0.2-0.6,0.2c-0.3,0.1-0.6,0.1-0.8,0.1c-0.6,0-1.1-0.2-1.5-0.6c-0.4-0.4-0.5-1-0.5-1.7v-5.1h-1.3
		v-1.1h1.3v-2h1.5V484.3z"/>
	<path class="st8" d="M1249,494.8c-1.2,0-2.1-0.4-2.8-1.2c-0.7-0.8-1-1.8-1-3v-0.3c0-1.2,0.4-2.2,1.1-3c0.7-0.8,1.5-1.2,2.5-1.2
		c1.1,0,2,0.3,2.5,1c0.6,0.7,0.9,1.6,0.9,2.7v0.9h-5.4l0,0c0,0.8,0.2,1.5,0.6,2c0.4,0.5,0.9,0.8,1.6,0.8c0.5,0,1-0.1,1.3-0.2
		c0.3-0.1,0.7-0.3,1-0.6l0.6,1c-0.3,0.3-0.7,0.5-1.2,0.7C1250.2,494.7,1249.6,494.8,1249,494.8z M1248.7,487.4
		c-0.5,0-0.9,0.2-1.3,0.6c-0.4,0.4-0.6,1-0.7,1.6l0,0h3.8v-0.2c0-0.6-0.2-1.1-0.5-1.5C1249.8,487.6,1249.4,487.4,1248.7,487.4z"/>
	<path class="st8" d="M1253.6,487.3v-1h2.6l0.1,1.2c0.2-0.4,0.5-0.8,0.9-1c0.3-0.2,0.7-0.4,1.2-0.4c0.1,0,0.2,0,0.4,0
		c0.1,0,0.2,0,0.3,0.1l-0.2,1.4h-0.9c-0.4,0-0.7,0.1-1,0.3c-0.3,0.2-0.5,0.4-0.6,0.8v4.8l1.3,0.2v1h-4v-1l1.3-0.2v-5.9L1253.6,487.3
		z"/>
</g>
</svg>
