<?xml version="1.0" encoding="utf-8"?>
<!-- Generator: Adobe Illustrator 19.1.0, SVG Export Plug-In . SVG Version: 6.00 Build 0)  -->
<svg version="1.1" id="Layer_1" xmlns="http://www.w3.org/2000/svg" xmlns:xlink="http://www.w3.org/1999/xlink" x="0px" y="0px"
	 viewBox="182 325 1156.4 360" style="enable-background:new 182 325 1156.4 360;" xml:space="preserve">
<style type="text/css">
	.st0{fill:#E6E7E8;}
	.st1{fill:#50516A;}
</style>
<g>
	<path class="st0" d="M1250.6,519.1c-3,2.6-6.1,5.1-9.1,7.6 M1224.8,528.4c2.3,4.7,3.5,9.8,3.7,14.9v0.1c0.2,10.2-1.1,20.2-2.3,30.4
		c-1.1,9.1-2.2,18.4-3.2,27.6h21.2c-0.1-1.1-0.3-2.3-0.4-3.3c-0.8-10.5-1.8-21-2.5-31.4c-0.3-4.1-0.6-8.1-0.6-12.2
		c0-0.9,0-1.9,0-2.8c0.1-9.5,4.1-18.6,11.1-25"/>
	<ellipse class="st0" cx="1202.8" cy="477.2" rx="67.1" ry="64.1"/>
	<ellipse class="st0" cx="1254.8" cy="398.8" rx="51.9" ry="49.6"/>
	<ellipse class="st0" cx="1269.9" cy="484.3" rx="55.7" ry="53.3"/>
	<ellipse class="st0" cx="1195.2" cy="390.1" rx="42.7" ry="40.9"/>
	<ellipse class="st0" cx="1195.2" cy="469.3" rx="67.1" ry="64.1"/>
</g>
<g>
	<g>
		<rect x="250.7" y="580.7" class="st0" width="35.7" height="10.2"/>
		<rect x="261.2" y="571.1" class="st0" width="15" height="3.5"/>
		<polygon class="st0" points="278.2,574.6 259,574.6 250.7,580.7 286.4,580.7 		"/>
		<polygon class="st0" points="273,420.9 264.2,420.9 263.2,571.1 274,571.1 		"/>
		<rect x="261.9" y="419.2" class="st0" width="13.4" height="1.7"/>
		<rect x="262.9" y="417.9" class="st0" width="11.3" height="1.3"/>
		<rect x="250.5" y="392.2" class="st0" width="36.2" height="1.3"/>
		<rect x="264" y="414.5" class="st0" width="9.2" height="1.3"/>
		<rect x="265.2" y="415.8" class="st0" width="7" height="2.1"/>
		<rect x="265.2" y="382.6" class="st0" width="7" height="2.1"/>
		<rect x="265.8" y="378" class="st0" width="5.7" height="1.5"/>
		<polygon class="st0" points="270.9,374.8 266.4,374.8 268.5,367.1 268.8,367.1 		"/>
		<polygon class="st0" points="276.3,384.7 260.8,384.7 252.6,392.2 284.6,392.2 		"/>
		<rect x="267.3" y="379.4" class="st0" width="2.8" height="3.1"/>
		<rect x="267.3" y="374.8" class="st0" width="2.8" height="3.1"/>
		<path class="st0" d="M249.4,393.5v1.7h0.2c0.4,1.6,1.8,6,5.7,11.5c3.4,4.7,7.4,7.8,7.6,7.9l0,0v0.1h11.3v-0.1l0,0
			c0.2-0.1,4.2-3.2,7.6-7.9c3.9-5.4,5.3-9.8,5.7-11.5h0.2v-1.7H249.4z M264.2,412.8c-0.3-0.2-4-3.1-7.1-7.4
			c-3.3-4.6-4.7-8.5-5.2-10.3h9.1c0,1.7,0.3,5.6,1.7,9.7c1.2,3.5,3,6.4,4.1,8C266.7,412.8,264.2,412.8,264.2,412.8z M264.5,404.1
			c-1.3-3.8-1.6-7.4-1.6-9h11.3c0,1.6-0.3,5.2-1.6,9c-1.2,3.4-3,6.3-4.1,7.8C267.5,410.5,265.7,407.6,264.5,404.1z M280.2,405.4
			c-3.1,4.3-6.8,7.2-7.1,7.4h-2.6c1.1-1.6,2.9-4.5,4.1-8c1.5-4.1,1.7-8,1.7-9.7h9.1C284.9,396.9,283.5,400.8,280.2,405.4z"/>
	</g>
	<g id="XMLID_163_">
		<g id="XMLID_175_">
			<rect id="XMLID_180_" x="305" y="535" class="st0" width="123.2" height="3.3"/>
			<rect id="XMLID_179_" x="305" y="542.1" class="st0" width="123.2" height="3.3"/>
			<rect id="XMLID_178_" x="305" y="549.3" class="st0" width="123.2" height="3.3"/>
			<rect id="XMLID_177_" x="305" y="556.4" class="st0" width="123.2" height="3.3"/>
			<rect id="XMLID_176_" x="305" y="563.6" class="st0" width="123.2" height="3.3"/>
		</g>
		<rect id="XMLID_174_" x="300.2" y="568.9" class="st0" width="133.1" height="5.2"/>
		<g id="XMLID_171_">
			<rect id="XMLID_173_" x="310.2" y="534.3" class="st0" width="4.1" height="35.9"/>
			<rect id="XMLID_172_" x="419" y="534.3" class="st0" width="4.1" height="35.9"/>
		</g>
		<g id="XMLID_164_">
			<g id="XMLID_168_">
				<rect id="XMLID_170_" x="302.3" y="571.1" class="st0" width="3.9" height="21.1"/>
				<rect id="XMLID_169_" x="307.2" y="571.3" class="st0" width="3.9" height="21.1"/>
			</g>
			<g id="XMLID_165_">
				<rect id="XMLID_167_" x="421.5" y="571.1" class="st0" width="3.9" height="21.1"/>
				<rect id="XMLID_166_" x="426.2" y="571.3" class="st0" width="3.9" height="21.1"/>
			</g>
		</g>
	</g>
</g>
<g>
	<path class="st1" d="M2382.4,1202.2c-0.4,0.9-0.8,1.6-1.2,2.2s-0.8,1.1-1.3,1.4c-0.2,0.2-0.5,0.3-0.8,0.4s-0.6,0.1-0.8,0.1l0,0
		c-0.4,0-0.8-0.1-1-0.4c-0.3-0.3-0.4-0.7-0.4-1.2l0,0l0,0c0-0.3,0.1-0.7,0.2-1.2s0.3-1,0.5-1.6c0.1-0.2,0.2-0.6,0.4-1.2
		c0.2-0.6,0.5-1.3,0.7-2c0-0.1,0.1-0.4,0.3-0.9h-1.3c-0.2,0-0.4-0.2-0.4-0.4c0-0.2,0.2-0.4,0.4-0.4h1.5c0.1-0.1,0.1-0.3,0.2-0.4
		c0.4-1.1,0.8-2.3,0.9-2.5c0.1-0.2,0.3-0.3,0.5-0.3s0.3,0.3,0.3,0.5c-0.1,0.2-0.5,1.4-0.9,2.5c0,0.1,0,0.1-0.1,0.2h1.3
		c0.2,0,0.4,0.2,0.4,0.4c0,0.2-0.2,0.4-0.4,0.4h-1.6c-0.2,0.6-0.3,1-0.4,1.2c-0.3,0.8-0.5,1.5-0.7,2s-0.3,0.9-0.4,1.2
		c-0.2,0.6-0.4,1.1-0.5,1.5c-0.1,0.4-0.2,0.8-0.2,1.1l0,0c0,0.3,0.1,0.5,0.2,0.7c0.1,0.1,0.3,0.2,0.4,0.2l0,0c0.2,0,0.4,0,0.6-0.1
		c0.2-0.1,0.4-0.1,0.5-0.3c0.4-0.3,0.7-0.7,1.1-1.2c0.4-0.6,0.7-1.3,1.1-2.1c0.1-0.2,0.4-0.3,0.6-0.2
		C2382.4,1201.7,2382.5,1201.9,2382.4,1202.2z"/>
	<path class="st1" d="M2390.3,1202.2L2390.3,1202.2c-0.8,1.7-1.8,4.2-3.6,4.2l0,0c-0.6,0-0.9-0.2-1.1-0.6c-0.2-0.3-0.3-0.7-0.3-1.1
		v-0.1c0-0.4,0.1-0.9,0.2-1.4s0.3-1,0.5-1.4c0.1-0.1,0.1-0.2,0.1-0.4c0.3-0.7,0.7-1.8,0.7-2.7c0-0.6-0.3-1-1-1
		c-0.5,0-1.1,0.5-1.6,1.1c-0.7,0.9-1.4,2.2-1.8,3.3l0,0c-0.6,1.5-1.2,3.2-1.4,3.9c-0.1,0.2-0.3,0.3-0.5,0.3
		c-0.2-0.1-0.3-0.3-0.3-0.5c0.2-0.6,0.8-2.3,1.4-3.9l0,0l0,0l0,0c0.6-1.7,1.2-3.3,1.4-3.9l0,0c0.2-0.6,0.3-0.8,0.4-1.1
		c0.2-0.5,0.3-0.9,0.4-1.2l0.1-0.3c0.1-0.3,0.3-0.8,0.5-1.4c0.1-0.2,0.3-0.3,0.5-0.2s0.3,0.3,0.3,0.5c-0.2,0.5-0.4,1-0.5,1.4
		c0,0.1-0.1,0.2-0.1,0.3c-0.2,0.5-0.3,0.9-0.4,1.2l-0.3,0.7c0.6-0.6,1.2-0.9,1.8-0.9c1.4,0,1.9,0.8,1.9,1.9c0,1-0.5,2.2-0.8,3
		c-0.1,0.1-0.1,0.3-0.1,0.4c-0.2,0.5-0.3,0.9-0.5,1.4c-0.1,0.4-0.2,0.8-0.2,1.2l0,0c0,0.2,0,0.5,0.1,0.6s0.2,0.2,0.4,0.2l0,0
		c1.2,0,2.2-2.1,2.8-3.6v-0.1c0.1-0.2,0.3-0.3,0.6-0.2C2390.3,1201.7,2390.4,1201.9,2390.3,1202.2z"/>
	<path class="st1" d="M2397.5,1202.2c-0.8,1.7-1.7,2.7-2.7,3.4c-1,0.6-2.1,0.8-3.1,0.8l0,0l0,0c-0.7,0-1.4-0.3-1.8-0.7
		c-0.5-0.5-0.8-1.1-0.7-2l0,0l0,0c0-0.5,0.1-1.1,0.3-1.7l0,0c0.1-0.4,0.3-0.9,0.5-1.3c0.5-1,1.1-2,1.7-2.7c0.3-0.3,0.6-0.5,1-0.7
		c0.3-0.2,0.7-0.3,1.1-0.3c0.5,0,0.8,0.1,1.1,0.3c0.3,0.2,0.5,0.5,0.6,0.8s0,0.7-0.1,1c-0.2,0.5-0.5,1-1,1.4s-1.2,0.8-1.8,1.1
		c-0.9,0.4-1.8,0.7-2.3,0.8c-0.1,0.5-0.2,0.9-0.2,1.3l0,0c0,0.6,0.2,1.1,0.5,1.4c0.3,0.3,0.8,0.5,1.3,0.5l0,0c0.8,0,1.7-0.1,2.6-0.7
		c0.9-0.5,1.7-1.5,2.3-3c0.1-0.2,0.3-0.3,0.6-0.2C2397.5,1201.7,2397.6,1202,2397.5,1202.2z M2390.6,1201.4c0.5-0.1,1-0.3,1.6-0.6
		s1.2-0.6,1.6-1c0.3-0.3,0.6-0.6,0.7-1c0.1-0.2,0.1-0.4,0-0.6c0-0.1-0.1-0.2-0.2-0.3c-0.1-0.1-0.3-0.2-0.6-0.2
		c-0.2,0-0.5,0.1-0.7,0.2c-0.2,0.1-0.5,0.3-0.7,0.6c-0.6,0.6-1.2,1.5-1.6,2.4C2390.7,1201.1,2390.6,1201.2,2390.6,1201.4z"/>
	<path class="st1" d="M2401.2,1202.2c-0.4,0.8-0.8,1.8-1.4,2.6c-0.6,0.9-1.4,1.6-2.3,1.6l0,0c-0.5,0-0.9-0.2-1.1-0.6
		c-0.2-0.3-0.3-0.7-0.3-1.1v-0.1c0-0.3,0.1-0.7,0.2-1.2s0.3-1,0.5-1.6c0.1-0.2,0.2-0.6,0.4-1.2c0.2-0.6,0.5-1.3,0.7-2
		c0-0.1,0.1-0.3,0.2-0.5l0.3-0.9c0.1-0.2,0.3-0.3,0.5-0.3c0.2,0.1,0.3,0.3,0.3,0.5l-0.3,0.9l-0.2,0.5c-0.3,0.8-0.5,1.5-0.7,2
		s-0.3,0.9-0.4,1.2c-0.2,0.6-0.4,1.1-0.5,1.5c-0.1,0.4-0.2,0.8-0.2,1.1l0,0c0,0.2,0,0.5,0.1,0.6c0.1,0.1,0.2,0.2,0.4,0.2l0,0
		c0.6,0,1.1-0.5,1.6-1.2c0.5-0.8,0.9-1.7,1.3-2.5c0.1-0.2,0.4-0.3,0.6-0.2C2401.2,1201.7,2401.3,1201.9,2401.2,1202.2z M2399,1195.3
		c0-0.4,0.3-0.7,0.7-0.7s0.7,0.3,0.7,0.7c0,0.4-0.3,0.7-0.7,0.7C2399.3,1195.9,2399,1195.6,2399,1195.3z"/>
	<path class="st1" d="M2408.5,1202.2L2408.5,1202.2c-0.8,1.7-1.8,4.2-3.6,4.2l0,0c-0.5,0-0.9-0.2-1.1-0.6c-0.2-0.3-0.3-0.7-0.3-1.1
		v-0.1c0-0.3,0.1-0.7,0.2-1.2s0.3-1,0.5-1.6c0.2-0.5,0.3-0.9,0.4-1.1c0.1-0.4,0.2-0.6,0.4-1l-0.3-0.1c-0.6-0.2-1.2-0.4-1.8-0.7
		c-0.1,0.2-0.1,0.4-0.2,0.5l0,0l-1.6,3.5c-0.1,0.2-0.3,0.3-0.6,0.2c-0.2-0.1-0.3-0.3-0.2-0.6l1.6-3.5c0.1-0.2,0.2-0.4,0.2-0.6
		c-0.7-0.5-1.1-1-1-1.9c0-0.3,0.2-0.6,0.4-0.8l0,0c0.2-0.2,0.5-0.3,0.8-0.3c0.1,0,0.2,0,0.3,0l0,0c0.3,0.1,0.5,0.3,0.6,0.5
		c0.1,0.2,0.2,0.5,0.2,0.7s0,0.4-0.1,0.6s-0.1,0.4-0.2,0.7c0.6,0.3,1.2,0.5,1.8,0.7c0.3,0.1,0.5,0.2,0.8,0.2
		c0.2,0.1,0.3,0.3,0.2,0.6l0,0c-0.2,0.6-0.3,0.9-0.5,1.4c-0.1,0.3-0.2,0.6-0.4,1.1c-0.2,0.6-0.4,1.1-0.5,1.5
		c-0.1,0.4-0.2,0.8-0.2,1.1l0,0c0,0.2,0,0.5,0.2,0.6c0.1,0.1,0.2,0.2,0.4,0.2c1.3,0,2.2-2.1,2.8-3.6v-0.1c0.1-0.2,0.3-0.3,0.6-0.2
		C2408.5,1201.7,2408.6,1201.9,2408.5,1202.2z M2402.5,1196.8c0-0.1,0-0.2-0.1-0.3c0-0.1-0.1-0.1-0.1-0.1l0,0h-0.1
		c-0.1,0-0.2,0-0.2,0.1l0,0c-0.1,0.1-0.1,0.2-0.1,0.3c0,0.4,0.2,0.7,0.5,0.9c0.1-0.2,0.1-0.3,0.2-0.5
		C2402.5,1197,2402.5,1196.9,2402.5,1196.8z"/>
	<path class="st1" d="M2419,1202.2L2419,1202.2c-0.8,1.7-1.8,4.2-3.6,4.2l0,0l0,0c-0.5,0-0.9-0.2-1.1-0.6c-0.2-0.2-0.2-0.5-0.3-0.8
		c-0.6,0.8-1.3,1.4-2.2,1.4l0,0c-0.5,0-0.9-0.2-1.1-0.6c-0.2-0.3-0.3-0.7-0.3-1.1v-0.1c0-0.3,0.1-0.7,0.2-1.2c0.1-0.5,0.3-1,0.5-1.6
		c0.1-0.3,0.3-0.9,0.6-1.6c0.3-0.9,0.7-2,1.1-3c0.1-0.2,0.3-0.3,0.5-0.2c0.2,0.1,0.3,0.3,0.2,0.5c-0.4,1.2-0.8,2.2-1.1,3
		c-0.3,0.7-0.5,1.3-0.6,1.6c-0.2,0.6-0.4,1.1-0.5,1.5c-0.1,0.4-0.2,0.8-0.2,1.1l0,0c0,0.2,0,0.5,0.1,0.6c0.1,0.1,0.2,0.2,0.5,0.2
		c1.2,0,2.2-2.1,2.8-3.6l0,0c0,0,0,0,0-0.1c0.1-0.3,0.3-0.9,0.6-1.6c0.4-0.9,0.7-2,1.1-3c0.1-0.2,0.3-0.3,0.5-0.2
		c0.2,0.1,0.3,0.3,0.3,0.5c-0.4,1.2-0.8,2.2-1.1,3c-0.3,0.7-0.5,1.3-0.6,1.6l0,0v0.1c-0.2,0.5-0.3,1-0.4,1.4
		c-0.1,0.4-0.2,0.8-0.2,1.1l0,0c0,0.2,0,0.5,0.1,0.6c0.1,0.1,0.2,0.2,0.4,0.2l0,0c1.2,0,2.2-2.1,2.8-3.6v-0.1
		c0.1-0.2,0.3-0.3,0.6-0.2C2419,1201.7,2419.1,1201.9,2419,1202.2z"/>
	<path class="st1" d="M2424.5,1202.8L2424.5,1202.8L2424.5,1202.8c0,1.2-0.5,2.1-1.2,2.7s-1.6,0.9-2.4,0.9l0,0c-0.1,0-0.1,0-0.2,0
		c-0.8,0-1.5-0.4-2-0.9s-0.8-1.2-0.8-1.9c0-0.1,0-0.1,0-0.2c0.1-0.7,0.3-1.4,0.8-2c0.5-0.5,1.1-0.8,1.9-0.8c0.5,0,1,0.2,1.4,0.6
		c0.3,0.3,0.5,0.8,0.6,1.4c0,0.2-0.2,0.4-0.4,0.4s-0.4-0.2-0.4-0.4c0-0.3-0.1-0.6-0.3-0.8c-0.2-0.2-0.5-0.3-0.7-0.3
		c-0.5,0-1,0.2-1.3,0.6c-0.4,0.4-0.6,0.9-0.6,1.4v0.1c0,0.5,0.2,1,0.5,1.4s0.9,0.6,1.4,0.7c0.1,0,0.1,0,0.2,0l0,0
		c0.7,0,1.4-0.2,1.9-0.7c0.5-0.4,0.9-1.1,0.9-2l0,0c0-1-0.5-1.8-1-2.7c-0.1-0.2-0.2-0.4-0.3-0.6c-0.1,0.1-0.3,0.3-0.4,0.5
		c-0.2,0.2-0.4,0.2-0.6,0c-0.2-0.1-0.2-0.4-0.1-0.6c0.2-0.3,0.4-0.5,0.7-0.7l0,0c-0.2-0.6-0.4-1.1-0.3-1.7c0-0.2,0.1-0.4,0.2-0.6
		l0,0c0.1-0.2,0.2-0.3,0.3-0.5c0.1-0.1,0.3-0.2,0.4-0.3c0.2-0.1,0.3-0.1,0.5-0.1c0.3,0,0.5,0.1,0.7,0.3c0.2,0.2,0.2,0.4,0.3,0.7
		c0,0.2,0,0.4-0.1,0.6c0,0.2-0.1,0.4-0.2,0.6c-0.2,0.5-0.5,0.9-0.8,1.2c0.1,0.3,0.3,0.5,0.4,0.8
		C2423.9,1200.6,2424.5,1201.6,2424.5,1202.8z M2423,1197.3c0.1-0.1,0.1-0.3,0.1-0.4c0-0.1,0.1-0.2,0-0.4c0-0.1,0-0.1,0-0.2
		c0,0,0,0-0.1,0h-0.1c-0.1,0-0.1,0.1-0.2,0.1c-0.1,0.1-0.1,0.1-0.2,0.2l0,0c0,0.1-0.1,0.2-0.1,0.3c0,0.3,0,0.6,0.1,0.9
		C2422.7,1197.8,2422.8,1197.5,2423,1197.3z"/>
	<path class="st1" d="M2433.9,1202.2L2433.9,1202.2c-0.8,1.7-1.8,4.2-3.6,4.2l0,0l0,0c-0.5,0-0.9-0.2-1.1-0.6
		c-0.2-0.2-0.2-0.5-0.3-0.8c-0.6,0.8-1.3,1.4-2.2,1.4l0,0c-0.5,0-0.9-0.2-1.1-0.6c-0.2-0.3-0.3-0.7-0.3-1.1v-0.1
		c0-0.3,0.1-0.7,0.2-1.2s0.3-1,0.5-1.6c0.1-0.3,0.3-0.9,0.6-1.6c0.3-0.9,0.7-2,1.1-3c0.1-0.2,0.3-0.3,0.5-0.2
		c0.2,0.1,0.3,0.3,0.2,0.5c-0.4,1.2-0.8,2.2-1.1,3c-0.3,0.7-0.5,1.3-0.6,1.6c-0.2,0.6-0.4,1.1-0.5,1.5c-0.1,0.4-0.2,0.8-0.2,1.1l0,0
		c0,0.2,0,0.5,0.1,0.6c0.1,0.1,0.2,0.2,0.5,0.2c1.2,0,2.2-2.1,2.8-3.6l0,0c0,0,0,0,0-0.1c0.1-0.3,0.3-0.9,0.6-1.6
		c0.4-0.9,0.7-2,1.1-3c0.1-0.2,0.3-0.3,0.5-0.2c0.2,0.1,0.3,0.3,0.3,0.5c-0.4,1.2-0.8,2.2-1.1,3c-0.3,0.7-0.5,1.3-0.6,1.6l0,0v0.1
		c-0.2,0.5-0.3,1-0.4,1.4c-0.1,0.4-0.2,0.8-0.2,1.1l0,0c0,0.2,0,0.5,0.1,0.6c0.1,0.1,0.2,0.2,0.4,0.2l0,0c1.2,0,2.2-2.1,2.8-3.6
		v-0.1c0.1-0.2,0.3-0.3,0.6-0.2C2433.9,1201.7,2434,1201.9,2433.9,1202.2z"/>
	<path class="st1" d="M2441.9,1202.2L2441.9,1202.2c-0.8,1.7-1.8,4.2-3.6,4.2l0,0c-0.5,0-0.9-0.2-1.1-0.6c-0.2-0.3-0.3-0.7-0.3-1.1
		l0,0c-0.7,1-1.5,1.7-2.5,1.6c-0.6,0-1-0.3-1.2-0.7c-0.3-0.4-0.4-1-0.4-1.6c0-1.1,0.6-3.3,1.6-5c0.7-1.2,1.7-2.1,2.8-2.2
		c0.1,0,0.1,0,0.2,0c0.5,0,1,0.3,1.4,0.7c0.1,0.1,0.2,0.2,0.3,0.4c0.1-0.3,0.2-0.6,0.3-0.9c0.1-0.2,0.3-0.3,0.5-0.2s0.3,0.3,0.2,0.5
		c-0.2,0.6-0.6,1.6-1,2.7c-0.3,0.7-0.5,1.4-0.7,2c-0.2,0.6-0.4,1.1-0.5,1.5c-0.1,0.4-0.2,0.8-0.2,1.1l0,0c0,0.2,0,0.5,0.1,0.6
		c0.1,0.1,0.2,0.2,0.5,0.2c1.2,0,2.2-2.1,2.8-3.6v-0.1c0.1-0.2,0.3-0.3,0.6-0.2C2441.9,1201.7,2442,1201.9,2441.9,1202.2z
		 M2437.9,1200.5c0.2-0.4,0.3-0.8,0.5-1.1c0-0.1,0-0.1,0-0.1c0-0.5-0.1-0.8-0.4-1.1c-0.2-0.2-0.5-0.4-0.8-0.4h-0.1
		c-0.8,0-1.5,0.8-2.1,1.8c-0.9,1.5-1.4,3.5-1.5,4.5c0,0.5,0.1,0.9,0.2,1.1c0.1,0.2,0.3,0.3,0.6,0.3
		C2436,1205.5,2437.1,1202.5,2437.9,1200.5z"/>
	<path class="st1" d="M2446.1,1202.2c-0.4,0.9-0.8,1.6-1.2,2.2s-0.8,1.1-1.3,1.4c-0.2,0.2-0.5,0.3-0.8,0.4s-0.6,0.1-0.8,0.1l0,0
		c-0.4,0-0.8-0.1-1-0.4c-0.3-0.3-0.4-0.7-0.4-1.2l0,0l0,0c0-0.3,0.1-0.8,0.2-1.2c0.1-0.5,0.3-1,0.5-1.6c0.5-1.6,1.1-3.2,1.7-4.9
		l0.4-1.3l0.1-0.3c0.1-0.3,0.3-0.8,0.5-1.4c0.1-0.2,0.3-0.3,0.5-0.3c0.2,0.1,0.3,0.3,0.3,0.5c-0.2,0.5-0.4,1.1-0.5,1.4
		c0,0.1-0.1,0.2-0.1,0.4l-0.4,1.3c-0.6,1.6-1.1,3.2-1.7,4.9c-0.2,0.6-0.3,1.1-0.5,1.5c-0.1,0.4-0.2,0.8-0.2,1l0,0
		c0,0.3,0.1,0.5,0.2,0.7c0.1,0.1,0.3,0.2,0.4,0.2l0,0c0.2,0,0.4,0,0.6-0.1s0.4-0.1,0.5-0.3c0.4-0.3,0.7-0.7,1.1-1.2
		c0.4-0.6,0.7-1.3,1.1-2.1c0.1-0.2,0.4-0.3,0.6-0.2C2446.1,1201.7,2446.2,1201.9,2446.1,1202.2z"/>
	<path class="st1" d="M2454.8,1202.8L2454.8,1202.8L2454.8,1202.8c0,1.2-0.5,2.1-1.2,2.7s-1.6,0.9-2.4,0.9l0,0c-0.1,0-0.1,0-0.2,0
		c-0.8,0-1.5-0.4-2-0.9s-0.8-1.2-0.8-1.9c0-0.1,0-0.1,0-0.2c0.1-0.7,0.3-1.4,0.8-2c0.5-0.5,1.1-0.8,1.9-0.8c0.5,0,1,0.2,1.4,0.6
		c0.3,0.3,0.5,0.8,0.6,1.4c0,0.2-0.2,0.4-0.4,0.4s-0.4-0.2-0.4-0.4c0-0.3-0.1-0.6-0.3-0.8c-0.2-0.2-0.5-0.3-0.7-0.3
		c-0.5,0-1,0.2-1.3,0.6c-0.4,0.4-0.6,0.9-0.6,1.4v0.1c0,0.5,0.2,1,0.5,1.4s0.9,0.6,1.4,0.7c0.1,0,0.1,0,0.2,0l0,0
		c0.7,0,1.4-0.2,1.9-0.7c0.5-0.4,0.9-1.1,0.9-2l0,0c0-1-0.5-1.8-1-2.7c-0.1-0.2-0.2-0.4-0.3-0.6c-0.1,0.1-0.3,0.3-0.4,0.5
		c-0.2,0.2-0.4,0.2-0.6,0c-0.2-0.1-0.2-0.4-0.1-0.6c0.2-0.3,0.4-0.5,0.7-0.7l0,0c-0.2-0.6-0.4-1.1-0.3-1.7c0-0.2,0.1-0.4,0.2-0.6
		l0,0c0.1-0.2,0.2-0.3,0.3-0.5c0.1-0.1,0.3-0.2,0.4-0.3c0.2-0.1,0.3-0.1,0.5-0.1c0.3,0,0.5,0.1,0.7,0.3c0.2,0.2,0.2,0.4,0.3,0.7
		c0,0.2,0,0.4-0.1,0.6c0,0.2-0.1,0.4-0.2,0.6c-0.2,0.5-0.5,0.9-0.8,1.2c0.1,0.3,0.3,0.5,0.4,0.8
		C2454.2,1200.6,2454.8,1201.6,2454.8,1202.8z M2453.3,1197.3c0.1-0.1,0.1-0.3,0.1-0.4c0-0.1,0.1-0.2,0-0.4c0-0.1,0-0.1,0-0.2
		c0,0,0,0-0.1,0h-0.1c-0.1,0-0.1,0.1-0.2,0.1c-0.1,0.1-0.1,0.1-0.2,0.2l0,0c0,0.1-0.1,0.2-0.1,0.3c0,0.3,0,0.6,0.1,0.9
		C2453,1197.8,2453.2,1197.5,2453.3,1197.3z"/>
	<path class="st1" d="M2464.6,1202.1c0,0.1-0.1,0.3-0.2,0.4c-0.1,0.1-0.1,0.2-0.2,0.3c-0.3,0.5-0.6,1-1,1.4c-0.4,0.4-1,0.7-1.7,0.7
		c-0.2,0-0.4,0-0.6-0.1c-0.3-0.1-0.6-0.2-0.8-0.5c-0.8,1.1-1.8,1.9-3,1.8l0,0l0,0l0,0c-0.7,0-1.2-0.4-1.4-0.8
		c-0.9,2.5-1.7,4.7-1.9,5.3c-0.1,0.2-0.3,0.3-0.5,0.3c-0.2-0.1-0.3-0.3-0.3-0.5c0.2-0.6,1.2-3.4,2.2-6.2c1.1-3.1,2.3-6.3,2.5-6.9
		c0-0.1,0.1-0.2,0.1-0.3c0.1-0.2,0.3-0.3,0.5-0.3c0.2,0.1,0.3,0.3,0.3,0.5l-0.2,0.4c0.6-0.6,1.2-1,2-1c0.6,0,1,0.3,1.3,0.7
		s0.4,1,0.4,1.6v0.1l0,0c-0.1,1.1-0.6,2.9-1.4,4.4c0,0.1-0.1,0.1-0.1,0.2c0.2,0.2,0.4,0.3,0.6,0.4c0.1,0,0.2,0,0.4,0
		c0.5,0,0.8-0.2,1.2-0.5c0.3-0.3,0.6-0.8,0.8-1.2c0-0.1,0.1-0.2,0.2-0.3c0-0.1,0.1-0.2,0.1-0.4c0.1-0.2,0.3-0.3,0.6-0.2
		C2464.6,1201.7,2464.7,1201.9,2464.6,1202.1z M2460.4,1202.1c-0.1,0.2-0.1,0.4-0.1,0.5c0.6-1.2,0.9-2.5,1-3.4l0,0v-0.1l0,0
		c0-0.5,0-0.9-0.2-1.1c-0.1-0.2-0.3-0.3-0.6-0.3c-1.6,0-2.8,3-3.6,5l-0.1,0.3c-0.1,0.5-0.3,1-0.3,1.4c0,0.6,0.1,1,0.7,1l0,0l0,0
		c0.9,0,1.8-0.7,2.4-1.7c-0.1-0.3-0.2-0.6-0.2-1c0-0.3,0-0.6,0.1-1c0.1-0.2,0.3-0.4,0.5-0.3
		C2460.3,1201.6,2460.4,1201.9,2460.4,1202.1z"/>
	<path class="st1" d="M2472.3,1202.1c-0.1,0.1-0.1,0.3-0.2,0.4s-0.1,0.2-0.2,0.3c-0.3,0.5-0.6,1-1,1.4c-0.5,0.4-1,0.7-1.7,0.7
		c-0.2,0-0.4,0-0.6-0.1c-0.3-0.1-0.6-0.3-0.9-0.5c-0.7,1-1.7,1.8-2.7,1.8c-3.3,0-1.1-5.5,0-7.3c0.7-1.2,1.7-2.1,2.8-2.1l0,0
		c0.6,0,1.1,0.2,1.5,0.7c0.3,0.4,0.5,0.9,0.5,1.6c0,1.3-0.7,3.1-1.5,4.6c0.1,0.2,0.4,0.3,0.6,0.4c0.1,0,0.2,0,0.3,0
		c0.5,0,0.9-0.2,1.2-0.5c0.3-0.3,0.6-0.8,0.8-1.2c0.1-0.1,0.1-0.2,0.2-0.3c0.1-0.1,0.1-0.2,0.2-0.4c0.1-0.2,0.3-0.3,0.6-0.2
		C2472.3,1201.7,2472.4,1201.9,2472.3,1202.1z M2468.1,1202.1c-0.1,0.2-0.1,0.3-0.1,0.5c0.6-1.2,1-2.5,1-3.4c0-0.5-0.1-0.8-0.3-1
		s-0.5-0.4-0.9-0.4c-0.8,0-1.5,0.7-2,1.7c-0.8,1.3-2.7,6-0.7,6c0.7,0,1.6-0.8,2.2-1.7c-0.1-0.3-0.2-0.6-0.2-0.9s0-0.6,0.1-1
		c0.1-0.2,0.3-0.4,0.5-0.3C2468,1201.6,2468.2,1201.9,2468.1,1202.1z"/>
	<path class="st1" d="M2476.4,1202.2c-0.4,0.9-0.8,1.6-1.2,2.2s-0.8,1.1-1.3,1.4c-0.2,0.2-0.5,0.3-0.8,0.4s-0.6,0.1-0.8,0.1l0,0
		c-0.4,0-0.8-0.1-1-0.4c-0.3-0.3-0.4-0.7-0.4-1.2l0,0l0,0c0-0.3,0.1-0.7,0.2-1.2s0.3-1,0.5-1.6c0.1-0.2,0.2-0.6,0.4-1.2
		c0.2-0.6,0.5-1.3,0.7-2c0-0.1,0.1-0.4,0.3-0.9h-1.3c-0.2,0-0.4-0.2-0.4-0.4c0-0.2,0.2-0.4,0.4-0.4h1.5c0.1-0.1,0.1-0.3,0.2-0.4
		c0.4-1.1,0.8-2.3,0.9-2.5c0.1-0.2,0.3-0.3,0.5-0.3c0.2,0.1,0.3,0.3,0.3,0.5c-0.1,0.2-0.5,1.4-0.9,2.5c0,0.1,0,0.1-0.1,0.2h1.3
		c0.2,0,0.4,0.2,0.4,0.4c0,0.2-0.2,0.4-0.4,0.4h-1.6c-0.2,0.6-0.3,1-0.4,1.2c-0.3,0.8-0.5,1.5-0.7,2s-0.3,0.9-0.4,1.2
		c-0.2,0.6-0.4,1.1-0.5,1.5c-0.1,0.4-0.2,0.8-0.2,1.1l0,0c0,0.3,0.1,0.5,0.2,0.7c0.1,0.1,0.3,0.2,0.4,0.2l0,0c0.2,0,0.4,0,0.6-0.1
		c0.2-0.1,0.4-0.1,0.5-0.3c0.4-0.3,0.7-0.7,1.1-1.2c0.4-0.6,0.7-1.3,1.1-2.1c0.1-0.2,0.4-0.3,0.6-0.2
		C2476.4,1201.7,2476.5,1201.9,2476.4,1202.2z"/>
</g>
<g>
	<path class="st1" d="M2359.4,1199.2l-6.7,2.5l5,2.3c0.3,0.1,0.4,0.4,0.3,0.7c-0.1,0.2-0.4,0.4-0.7,0.2l-6.2-2.7
		c-0.1,0-0.2-0.1-0.3-0.3c-0.1-0.3,0-0.6,0.3-0.7l7.9-3c0.3-0.1,0.6,0,0.7,0.3C2359.8,1198.8,2359.7,1199.1,2359.4,1199.2z"/>
	<path class="st1" d="M2371.3,1199.2l-6.7,2.5l5,2.3c0.3,0.1,0.4,0.4,0.3,0.7c-0.1,0.2-0.4,0.4-0.7,0.2l-6.2-2.7
		c-0.1,0-0.2-0.1-0.3-0.3c-0.1-0.3,0-0.6,0.3-0.7l7.9-3c0.3-0.1,0.6,0,0.7,0.3C2371.6,1198.8,2371.5,1199.1,2371.3,1199.2z"/>
</g>
</svg>
