<?xml version="1.0" encoding="utf-8"?>
<!-- Generator: Adobe Illustrator 19.1.0, SVG Export Plug-In . SVG Version: 6.00 Build 0)  -->
<svg version="1.1" id="Layer_1" xmlns="http://www.w3.org/2000/svg" xmlns:xlink="http://www.w3.org/1999/xlink" x="0px" y="0px"
	 viewBox="0 0 1156.4 360" style="enable-background:new 0 0 1156.4 360;" xml:space="preserve">
<style type="text/css">
	.st0{fill:#E6E7E8;}
	.st1{fill:#50516A;}
	.st2{fill:#03A8A0;}
	.st3{enable-background:new    ;}
	.st4{fill:#FFFFFF;}
	.st5{fill-rule:evenodd;clip-rule:evenodd;fill:#E6E7E8;}
</style>
<path class="st0" d="M1020.5,101.4c1.8-0.6,16.1-3.4,23.7-3.6c3.2-0.1,11.5-1.1,11.5-1.1c-8.1-0.8-16.2-0.4-24.2,0.2
	c0-1,0-1.9,0-2.8c0-2.2,0.1-2.4,2.2-3.2c3.4-1.2,6.9-2.2,10.3-3.3c1.1-0.4,2.2-0.8,3.3-1.2c0-0.1-0.1-0.3-0.1-0.4
	c-2.8,0.7-5.7,1.4-8.5,2c0.3-0.6,0.7-0.9,1.1-1.1c8.4-5.2,14.8-9.1,23.2-14.3c0.6-0.4,3.3-1.9,2.7-3c-11,6.3-22,12.5-32.9,18.7
	c2.1-4.6,3.5-12.7,3.5-12.7c-2.5,3.8-1.8,7.1-4.2,10.8c-1.6-1.1-1-3.5-3-4.1c0.4,1.5,0.7,3.1,1.5,4.3c0.8,1.3,0.5,3-1,3.9
	c-1.1,0.6-2.3,0.8-3.5,1.1c-6.6,1.8-12.5,5.1-18,9c-2.8,2-5.7,3.8-8.5,5.8c-0.2-0.2-0.2-0.2-0.4-0.4c0.4-0.8,0.7-1.6,1.1-2.3
	c3.8-6.4,7.6-12.8,11.6-19.1c1.2-1.9,3-3.3,4.3-5.1c1.8-2.5,3.9-3.8,7.2-3.2c2.2,0.4,4.5,0,6.6-1c-2.8-0.5-5.6,0.9-8.6-0.4
	c5.6-4.7,9.8-10.6,14.4-16.1c0.2-0.2-0.1-0.5-0.3-0.3c-4,3.9-10.5,10.1-14.6,13.7c0.9-2.2,2.2-6.3,2.1-8.6c0,0-2.1,5.8-3.3,8.6
	c-0.9,2-2.5,2.9-4.6,4.2c0.3-1.6,0.6-2.8,0.8-4.1c-0.2,0-0.3-2.3-0.9-2.2c0.2-3.3,0.3-4.1,0.5-7.8c-0.7,0.7-2.2,8.5-2.4,12
	c-0.1,1.9-0.1,3.7-1.4,5.4c-4,5.5-7.9,11.1-11.8,16.7c-4.2,5.9-7.6,12.3-9.5,19.4c-0.6,2.3-1.2,4.7-2.3,6.7
	c-3.5,6.5-7.3,12.9-10.1,19.8c-1,2.4-2.5,4.6-3.8,6.9c-0.2,0-0.3,0-0.5,0c-0.3-0.5-0.7-1.1-0.8-1.6c-0.1-2.2-0.2-4.4-0.1-6.6
	c0.4-6.8,1.3-13.6,0.7-20.4c-0.3-3.7-0.2-7.4,2.2-10.6c0.7-0.9,0.9-2.1,1.3-3.2c0.9-2.4,1.3-5.4,2.9-7.1c4.1-4.4,9-8.1,15-9.7
	c1.7-0.5,2.3-1.5,2.7-3.1c-2,0.5-3.9,1-6.2,1.6c-0.1-2.2-0.5-4.2-0.1-6c0.8-3.2,2.1-6.2,3.1-9.3c0.5-1.5,1.1-3,1.5-4.6
	c0.1-0.5-0.2-1.1-0.3-1.6c-1.4,3.2-2.7,6.3-4.1,9.4c-1.4,3.1-2.7,6.2-2.3,9.6c0.2,2.1-0.2,3.8-2.4,4.6c-0.7,0.3-1.4,0.9-2.1,1.3
	c-1.6,1-3.3,1.9-5,2.9c0-0.5,0-0.8,0-1c0.5-3.2,0.9-6.5,1.5-9.7c0.1-0.6,0.5-1.4,0.9-1.8c1.2-0.9,2.5-1.7,3.8-2.5
	c0.7,0.5,1.5,1.2,2.2,1.8c0.1-0.1,0.2-0.2,0.3-0.3c-0.1-0.3-0.2-0.6-0.4-0.8c-1.5-1.7-1.2-3.3,0-5c0.2-0.2,0.3-0.5,0.4-0.7
	c0.7-1.3,1.4-2.7,2.1-4l-0.4-0.3c-0.4,0.3-0.9,0.5-1.1,0.9c-0.9,1.3-1.6,2.8-2.4,4.1c-0.9,1.4-1.8,2.9-3,4c-0.5,0.5-2,1-2.5,0.7
	c-1.4-0.9-2.6-2.3-3.9-3.5c-0.7-0.7-0.8-1.3-0.1-2.2c2.3-3.1,4.5-6.2,6.8-9.3c0.4-0.6,0.7-1.2,1.1-1.8l-0.4-0.2
	c-2.8,3.7-5.7,7.4-8.5,11.2c-0.2-0.3-0.2-0.5-0.2-0.7c1.4-3.6,2.6-7.3,4.1-10.9c2.1-4.8,4.4-9.6,8-13.5c2.7-2.9,5-6.1,6.7-9.7
	c1.9-4.1,3.3-8.5,5-12.7c0.1-0.3,0-0.6,0-0.9c-0.7,0.3-1.2,0.7-1.4,1.2c-0.9,2.1-1.8,4.2-2.6,6.3c-1.3,3.6-3.1,6.9-5.5,10.1
	c-1.5-3-2.8-5.9-4.3-8.7c-0.3-0.5-0.8-0.9-1.2-1.4l-0.4,0.3c0.3,0.8,0.5,1.5,0.8,2.3c1.2,2.6,2.4,5.1,3.6,7.7
	c0.4,0.8,0.3,1.3-0.4,1.8c-2.8,2.2-5,4.8-6.6,7.9c-1.2,2.3-2.5,4.6-3.8,6.8c-0.2,0.3-0.4,0.5-0.5,0.8c-0.1,0-0.3-0.1-0.4-0.1
	c0.7-2.8,1.3-5.6,2-8.3c1.3-5.2,2.7-10.5,4.1-15.7c-1.2-0.6-1.5-0.1-1.7,0.7c-0.9,3.4-1.8,6.8-2.8,10.2c-0.5,1.9-1.2,3.7-1.9,5.9
	c-0.8-1.4-1.5-2.3-2-3.3c-2.2-3.8-4.4-7.7-6.6-11.5c-0.3-0.6-0.9-1-1.4-1.6l-0.4,0.3c0.2,0.4,0.3,0.8,0.5,1.2
	c2.4,4.6,4.7,9.3,7.2,13.8c1.2,2.2,1.6,4.4,0.9,6.8c-0.4,1.5-0.7,3.1-0.5,4.6c0.2,2.1-0.2,3.9-1.2,5.7c-1.2-1.4-1.3-3.4-3.3-4.6
	c0.3,0.8,0.4,1.4,0.7,1.8c0.5,1,1,2,1.5,3.1c1,2,0.1,3.4-2.1,3.3c-1.4,0-2.7-0.1-4.2-0.2c-0.1-0.3-0.2-0.6-0.3-0.9
	c-1.5-7.1-3.2-14.2-4.5-21.3c-1.1-6.2-1.5-12.4-2.3-18.6c-0.3-2.3-0.3-4.6,0.5-6.9c0.4-1.2,0.5-2.4,0.7-3.7c-1.9,0.8-1.3,2.7-2.2,4
	c-0.1-0.5-0.3-0.9-0.4-1.4c-0.6-3-1.1-5.9-1.7-8.9c-0.2-0.8-0.4-1.4-1.5-1c0,0.2,0,0.5,0.1,0.7c0.7,4,1.6,8,2,12
	c0.5,4.8,0.5,9.7,0.9,14.5c0.4,5,0.8,10,1.4,15c0.8,7.2,1.9,14.4,3.8,21.4c0.9,3.2,1.9,6.3,2.4,9.6c0.7,4.8,1.3,9.6,1.4,14.5
	c0.3,8.4,0.2,16.8,0.3,25.2c0,0.2,0,0.5,0,0.7c-0.3,2.3-0.7,4.5-1,6.8c-1.4-0.4-2.1-1.1-2.2-2.4c-0.1-1.5-0.4-2.9-0.5-4.4
	c-0.2-1.9-0.5-3.6-1.5-5.3c-1.7-3.3-3.3-6.6-4.8-10c-0.2-0.5-0.1-1.3,0.2-1.8c0.9-1.6,2-3.1,2.9-4.6c0.8-1.3,0.8-2.2,0.4-2.9
	c-1.6,2.4-3.3,4.8-5.1,7.5c-2.2-2.5-4.2-4.6-5.9-6.9c-1.9-2.5-3.4-5.2-5.1-7.8c-0.1-0.2-0.2-0.5-0.1-0.8c0.5-2.3,1-4.6,1.5-7
	c0.5-2.6,1.3-5.2,1.4-7.8c0.1-3-0.4-6-0.7-9c0-0.3-0.3-0.6-0.5-1l-0.5,0.1c0.2,2.5,0.5,5,0.5,7.5c0,2.4-0.3,4.8-0.4,7.2
	c-0.2,0.1-0.2,0-0.4,0.1l-2.9-4.8c0.5,2.3,1.7,4.3,1.9,6.5c0.2,2.2-0.8,4.4-1.2,6.6c-0.2,0-0.2,0-0.5,0.1c-1.6-3.2-3.8-6.3-4.8-9.8
	c-1.4-5.1-3.4-9.9-6.2-14.4c-0.4-0.7-0.8-1.6-0.9-2.4c-0.1-2.2-0.2-4.4,0.1-6.6c0.7-4.9,1-9.9,0.6-14.8c-0.3-3.7-0.5-7.4-0.8-11.1
	c-0.9,0.2-0.9,0.3-0.8,1.9c0.2,4.4,0.5,8.9,0.4,13.3c0,2.9-0.5,5.8-0.8,8.8c-0.2,0-0.2,0-0.4,0l-0.2-1.3c-0.1,0-0.2,0-0.3,0
	c0,6.7,0,13.4,0,20.3c-1.5-1.2-2.4-2.6-3-4.3c-1.7-4.1-0.9-8.6-1.9-12.8c-0.1-0.7-0.1-1.4-0.1-2c0.2-3.2,0.4-6.5,0.6-9.7
	c0-0.6-0.1-1.1-0.2-1.7l-0.4,0l-0.8,8.7c-1-1.1-0.4-2.6-2-3.7c0.1,0.9,0.2,1.5,0.3,2.1c0.4,1.7,0.8,3.5,1.1,5.2
	c0.2,1.7,0.8,3.6,0.3,5.1c-1.2,3.9-3,7.6-4.7,11.6c-0.4-0.5-0.5-0.6-0.6-0.7c-2.2-3.4-4.3-6.8-6.4-10.2c-0.5-0.8-0.9-1.1-1.7-0.4
	c0.2,0.4,0.4,0.9,0.6,1.3c2.1,3.5,4.2,7.1,6.3,10.6c3,5.1,4.7,10.6,5,16.5c-0.5-0.4-1.1-0.7-1.5-1.1c-3.1-2.6-6.4-4.9-9.9-6.9
	c-4-2.3-7.2-5.8-9.3-9.9c-2.8-5.3-5-10.9-7.4-16.3c-0.7-1.6-1.4-3.3-2.1-4.9l-0.4,0.1c0,0.5,0,1,0.2,1.5c0.4,1.2,0.9,2.4,1.4,3.6
	c2.2,5.6,4.4,11.3,6.7,16.9c0.1,0.3,0.3,0.7,0.5,1c2.8,4.2,5.8,8.1,10,11c2.7,1.9,5.2,4,7.8,6c2,1.6,4.1,3,6.1,4.7
	c1,0.8,1.8,2,2.7,3c-0.1,0.2-0.1,0.2-0.2,0.4c-1.9,0.3-3.9,0.7-5.8,0.8c-2,0.2-4,0.1-6,0.1c-1.9,0-3.8,0-5.7,0c0,0.2,0,0.1,0,0.3
	c2.6,0.2,5.1,0.3,8.1,0.5c-1.3,1.3-2.4,2.3-3.4,3.3c0.1,0.2,0.1,0.1,0.2,0.3c1-0.8,2-1.7,3-2.4c0.6-0.4,1.2-0.9,1.8-1
	c2.6-0.4,5.2-0.6,7.8-0.9c0.4,0,1,0.2,1.2,0.5c1.5,2.3,2.8,4.6,4.2,6.9c-3.3,1.2-6.6,2-10.3,1.2c-3.8-0.9-7.8-1.2-11.6-1.8
	c-0.1,0-0.2,0-0.3-0.1c-0.3-0.3-0.6-0.5-0.8-0.7c0,0-0.1,0-0.1-0.1c-0.5-0.7-1-1.4-1.4-2.2c-1.2-2-2.3-4-3.6-6
	c-0.3-0.5-0.9-0.8-1.4-1.2c0,0.1-0.1,0.1-0.1,0.2c1.8,3.3,3.6,6.5,5.6,10c-1.4,0.2-2.4,0.2-3.3,0.4c-0.3,0.1-0.6,0.4-0.9,0.5
	c0.3,0.2,0.7,0.5,1,0.5c1.2,0,2.4-0.1,3.5-0.2c0.7,0,1.4,0,2.2,0.1c4.2,4.7,8.4,9.5,13.5,13.5c-2.9,1.4-5.8,0.2-8.5,0.8
	c2.2,0.9,4.5,1.1,6.7,0.7c3.3-0.7,5.4,0.4,7.4,2.9c1.4,1.7,3.3,3.1,4.6,4.9c4.3,6.1,8.4,12.3,12.5,18.5c0.5,0.7,0.8,1.5,1.2,2.2
	c-0.2,0.2-0.2,0.2-0.4,0.4c-2.9-1.8-5.9-3.5-8.8-5.3c-5.7-3.7-11.7-6.7-18.5-8.1c-1.2-0.3-2.4-0.4-3.5-0.9c-1.6-0.7-2-2.4-1.2-3.8
	c0.7-1.3,1-2.9,1.3-4.4c-2,0.7-1.3,3.1-2.8,4.2c-2.6-3.6-2.1-6.9-4.8-10.6c0,0,1.8,8.1,4.1,12.6c-11.3-5.7-22.5-11.4-33.8-17.1
	c-0.5,1.1,2.3,2.6,2.9,2.9c8.7,4.8,15.2,8.4,23.9,13.1c0.4,0.2,0.8,0.5,1.1,1c-2.9-0.5-5.7-1.1-8.6-1.6c0,0.1-0.1,0.3-0.1,0.4
	c1.1,0.3,2.3,0.7,3.4,1c3.5,1,7,1.8,10.4,2.8c2.2,0.6,2.2,0.8,2.4,3.1c0,0.9,0.1,1.8,0.1,2.8c-8-0.2-16.1-0.2-24.2,1
	c0,0,8.3,0.6,11.5,0.6c8-0.1,16,0.5,23.8,2.4c1.7,0.4,3.5,1.2,5.1,2c3.3,1.7,6.4,3.7,9.7,5.5c1,0.5,2.3,0.5,3.4,0.9
	c2,0.7,3.9,1.5,5.8,2.3c0.5,0.2,0.9,0.9,1.1,1.5c1.2,3.2,2.4,6.4,3.6,9.6c0.3,0.7,0.7,1.4,1.2,2.2c-2-0.8-3.9-1.5-5.7-2.4
	c-1.1-0.5-2.4-1.1-3.2-1.9c-1-1.1-1.7-2.4-2.5-3.7c-0.8-1.2-1.5-2.5-2.2-3.8c-0.2,0.1,1.7,5.4,2.8,8c-1.9-0.6-3.5-1.4-5-2.6
	c-2.1-1.8-9.3-7.2-9.4-7.1c1,1,2,2.1,3,3.1c1.1,1.1,2.2,2,3.3,3.1c2.7,2.8,5.9,4.7,9.7,6c3.7,1.2,7.3,2.8,10.8,4.6
	c1.2,0.6,1.9,2.3,2.6,3.6c1.1,2.1,2.8,5.6,4.4,8.6c1.9,3.8,2.9,8,3,12.2l0,0.1c0.2,8.3-0.9,16.5-1.9,24.7c-0.9,7.5-1.7,15-2.6,22.5
	h17.3c-0.1-0.9-0.2-1.8-0.3-2.7c-0.7-8.5-1.4-17-2.1-25.6c-0.3-3.3-0.5-6.7-0.6-10c0-0.8,0-1.5,0-2.3c0.1-7.8,3.4-15.2,9.1-20.4
	c3.5-3.2,7.3-6.7,9.6-9c1.7-1.6,3.8-2.8,5.8-4c6.3-3.8,11.4-8.8,16-14.4c4.3-5.3,8.6-10.6,12.8-16c1.3-1.7,3-2.2,4.8-2.8
	c3.3-1.2,10.4-4.8,10.9-5.6c-3.5,1.2-4.3,1.5-7.4,2.6c-0.1-0.5-2.3,0-2.4-0.2c-1.1,0.6-2.2,1.2-3.7,1.9c0.6-2.4,1-4.2,2.7-5.5
	c2.3-1.9,7.3-5.6,7.3-5.6c-2.2,0.5-5.8,2.9-7.7,4.4c2.3-4.9,6.5-12.9,9.1-17.8c0.1-0.2-0.2-0.4-0.4-0.2c-4.1,6-8.5,11.6-11.5,18.3
	c-2-2.5-1.5-5.6-2.7-8.1c-0.4,2.3-0.1,4.7,0.9,6.7c1.4,3,0.8,5.4-1.1,7.8c-1.4,1.8-2.3,3.9-3.7,5.6c-5,5.6-10.1,11-15.2,16.4
	c-0.6,0.6-1.3,1.1-1.9,1.7c-0.3-0.2-0.2-0.1-0.5-0.3c1.1-3.3,2.1-6.5,3.2-9.8c2.3-6.4,3.9-13,3.7-19.8c0-1.2-0.1-2.5,0.1-3.7
	c0.4-1.7,1.9-2.5,3.4-2.1c1.4,0.4,3,0.3,4.6,0.2c-1.2-1.8-3.3-0.5-4.8-1.8c2.9-3.4,6.3-3.6,9.2-7c0,0-7.1,2.7-10.9,6
	c0,0,4.6-14.1,3.8-18.9l-1.6,6.2c-0.1,0.5-0.3,1-0.6,1.5l-2.5,5c-0.1,0.5-0.3,0.9-0.8,1.3c-0.1-2.9-1-6.4-1-5.2
	c-0.1,3.6-0.2,7.2-0.4,10.8c-0.1,2.2-0.3,2.4-2.4,3c-0.9,0.3-1.7,0.5-2.7,0.8c0,0-1.2,3.7-1.3,11.8c0,1.8-0.3,3.6-0.8,5.4
	c-0.9,3.6-2.2,7.1-3.1,10.7c-0.3,1.1,0,2.4-0.1,3.5c-0.2,2.1-0.5,4.1-0.9,6.2c-0.1,0.5-0.7,1.1-1.2,1.4c-2.8,1.9-5.7,3.8-8.5,5.7
	c-0.6,0.4-1.2,1-1.9,1.6c0.3-2.1,0.6-4.1,1-6.1c0.2-1.2,0.5-2.6,1.2-3.6c0.8-1.2,2-2.2,3.1-3.3c1-1,2.1-2,3.2-3
	c-0.1-0.2-4.8,2.8-7.2,4.6c0.1-1.9,0.5-3.8,1.4-5.4c1.3-2.4,4.9-10.7,4.7-10.8c-0.8,1.2-1.6,2.4-2.3,3.6c-0.8,1.3-1.5,2.6-2.3,3.9
	c-2.1,3.3-3.3,6.8-3.6,10.8c-0.3,3.9-1.1,7.8-2,11.6c-0.3,1.3-1.7,2.4-2.9,3.4c-2.5,2.1-5,4.1-7.5,6.2c0-4.8-0.1-9.6-0.1-14.4
	c0-4.5-0.1-9,1.4-13.4c0.5-1.3,0.6-2.8,1-4.1c0.7-2.3,1.4-4.6,2.3-6.8c0.6-1.6,1.6-3.1,2.3-4.6c1.8-4.1,3.5-8.3,5.4-12.4
	c0.6-1.3,1.3-3,2.4-3.7c3.4-2,6.9-3.8,10.6-5.2c3.7-1.4,6.8-3.5,9.4-6.4c1-1.1,2.1-2.1,3.1-3.3c1-1.1,1.9-2.2,2.8-3.2
	c-0.1-0.1-7.1,5.6-9.1,7.5c-1.4,1.3-3,2.2-4.8,2.9c1.1-2.8,2.6-8.1,2.5-8.2c-0.7,1.3-1.3,2.6-2,3.9c-0.7,1.3-1.3,2.7-2.3,3.8
	c-0.8,0.9-2,1.5-3.1,2.1c-1.8,0.9-3.6,1.7-5.6,2.6c0.4-0.9,0.8-1.5,1-2.3c1.1-3.3,2-6.5,3.1-9.8c0.2-0.6,0.6-1.3,1.1-1.5
	c1.8-1,3.8-1.8,5.7-2.6c1.1-0.4,2.4-0.5,3.4-1.1c3-1.8,6-3.8,9-5.7c0.2-0.1,0.4-0.3,0.6-0.4C1016.3,103.2,1017.8,102.3,1020.5,101.4
	z M918.7,76.9c0.6-1.3,1.1-2.6,1.7-3.9c0.6-1.3,1.2-2.6,1.9-4c0.4,1.9,0.8,3.6,1.3,5.4c0.6,2.2,1.7,4.1,3.5,5.6
	c0.8,0.7,1.4,1.6,2.1,2.4c-0.1,0.1-0.2,0.2-0.3,0.4c-0.4-0.1-0.8-0.2-1.2-0.4c-2.7-1.3-5.5-2.7-8.2-4
	C918.6,78,918.3,77.7,918.7,76.9z M929.4,98.9c-4.6-1.1-6.4-4.6-7-8.8c-0.5-3.3-1.5-6.4-3-9.3c-0.2-0.5-0.4-1.1-0.7-1.8
	c0.5,0.2,0.7,0.2,0.9,0.3c2.7,1.4,5.4,2.8,8.1,4.2c0.8,0.4,1.2,0.9,1.4,1.9C929.9,89.9,930.5,94.4,929.4,98.9z M921.5,148.6
	c-1.4-0.2-2.8-0.4-4.2-0.6c-2.2-0.4-3-1.5-2.7-4.1c2.4,1.5,4.7,3,7,4.5C921.6,148.4,921.6,148.5,921.5,148.6z M920.4,144.1
	c6.6,2,12.1,5.8,17.5,10C932.1,150.7,925.6,148.4,920.4,144.1z M1023.9,93.7c-5,4.6-11.3,7.2-16.9,10.8
	C1012,100,1017.4,96,1023.9,93.7z M972.2,82c0.9-1.8,2-3.5,3.1-5.3c1.1,1.2,2.1,2.4,3.2,3.4c1.2,1,1.5,1.9,0.5,3.1
	c-0.3,0.4-0.5,0.9-0.6,1.4c-0.8,3.5-1.4,7-2.3,10.4c-0.9,3.1-2.2,6.1-3.4,9.5c-0.5-3.5-1-6.6-1.4-9.7c-0.2-1.7-0.2-3.4-0.6-5
	C969.9,87,970.9,84.5,972.2,82z M965.8,73.7c2.1,0.3,3.7,0.5,5.7,0.7c-1.1,1.8-2,3.3-3,4.9c-0.1,0-0.3,0-0.4,0
	C967.4,77.5,966.6,75.7,965.8,73.7z M954.6,113.1c1.5,3.6,3.1,8.2,4.4,11.9c0.6,1.6,0.4,3.4,0.6,5.1c-0.1,0.1-0.2,0.1-0.3,0.2
	c-0.4-0.5-0.8-0.9-1.2-1.4c-1.6-1.9-3.2-3.8-4.6-5.8c-0.5-0.7-0.9-1.8-0.8-2.6c0.3-2.1,0.9-4.2,1.5-6.3
	C954.1,114.2,954.4,113.1,954.6,113.1z M937.8,89.1c3.3,5.9,6.8,11.7,10.4,17.3c1.4,2.2,3.4,3.9,5.1,5.8c-1,2.3-2,4.6-3,6.9
	c-0.6-1.1-1.1-2.4-1.9-3.3c-2-2.1-4.3-4.1-6.4-6.1c-2.4-2.3-5.2-4.3-7.2-6.9c-1.2-1.6-1.7-4.1-1.6-6.1c0.2-3.4-0.6-6.5-0.9-9.8
	c0-0.4-0.1-0.8-0.1-1.4C934.7,85.9,936.5,86.8,937.8,89.1z M944.2,120.2c-5.1-4-9.3-8.7-13.3-13.8
	C936.6,109.7,940.6,114.8,944.2,120.2z M936.1,85.2c-1.2-0.3-2.3-0.5-3.4-0.7c-0.3-0.1-0.7-0.4-0.7-0.6c-1.1-4.2-1.5-8.6-1.5-12.9
	C933.2,75.3,935.3,80,936.1,85.2z M909.9,111.8c3.1,0.4,6.1,1.2,9.1,2.1c0.3,0.1,0.7,0.2,1,0.3c0,2.3,1.5,6.2,2.5,8.3
	C919.1,119.7,913.9,115.3,909.9,111.8z M923.7,122.4c-1.2-2.4-3.2-7.2-3.7-8.2c2.5,0.6,5,0.8,7.6,0.3c0.2,2,0.3,3.1,0.6,5.6
	c-0.5,0-0.6,2.3-0.8,2.3c0.3,1.2,0.6,2.4,1,4C926.3,125.2,924.7,124.4,923.7,122.4z M957.7,171c-1.2-2-1.9-4.4-2.6-6.6
	c-2.3-7-5.9-13.1-10.4-18.9c-4.2-5.4-8.3-10.8-12.6-16.1c-1.3-1.6-1.4-3.5-1.7-5.3c-0.3-2.5-1.3-7.1-2.2-9.8c0.3-0.1,0.7-0.2,1-0.3
	c2.1-0.7,3.9-0.4,5.2,1.5c0.3,0.4,0.8,0.8,1.1,1.2c2.9,3.1,5.9,6.1,9.6,8.3c4.3,2.5,7.5,6.1,10.1,10.3c0.8,1.2,1.8,2.4,3,3.2
	c2.5,1.6,4,4,5.6,6.3c0.2,0.3,0.3,0.9,0.3,1.3c0,3.1,0.1,6.2,0.1,9.3c0,2.2-0.3,4.5-0.2,6.7c0.2,4.7,0.8,9.5,0.9,14.2
	c0.1,2.4,0.1,4.8,0.2,7.2C962.9,179.4,960.3,175.2,957.7,171z M1006.2,157.3c2-6.4,2.7-13.2,5.8-19.3
	C1011.5,144.9,1009.1,151.2,1006.2,157.3z M1010.8,132.4c-1,2.7-1.9,5.3-2.8,7.9c-0.1,0-0.2,0-0.3-0.1c-0.1-1.4-0.3-2.8-0.3-4.2
	C1007.3,133.8,1008.2,132.7,1010.8,132.4z M1027.1,97.4c-1.4,0.3-2.8,0.6-4.1,0.8c0-0.1-0.1-0.2-0.1-0.3c2.2-1.6,4.5-3.2,6.8-4.8
	C1030,95.8,1029.2,97,1027.1,97.4z"/>
<path class="st0" d="M1073.3,126.9c2.4-0.8,21.2-4.4,31.1-4.8c4.2-0.2,15.1-1.5,15.1-1.5c-10.6-1.1-21.2-0.5-31.8,0.3
	c0-1.3,0-2.5,0-3.7c0-2.9,0.1-3.2,2.9-4.2c4.5-1.5,9-2.9,13.5-4.4c1.5-0.5,2.9-1,4.4-1.6c-0.1-0.2-0.1-0.3-0.2-0.5
	c-3.7,0.9-7.5,1.8-11.2,2.7c0.4-0.7,0.9-1.1,1.4-1.4c11-6.8,19.4-12,30.4-18.8c0.8-0.5,4.3-2.5,3.6-4c-14.5,8.2-28.9,16.4-43.3,24.6
	c2.7-6,4.6-16.7,4.6-16.7c-3.3,5-2.3,9.3-5.5,14.2c-2.1-1.4-1.3-4.6-4-5.4c0.5,2,0.9,4,1.9,5.7c1.1,1.8,0.6,4-1.4,5.1
	c-1.4,0.7-3,1.1-4.6,1.5c-8.7,2.3-16.4,6.7-23.7,11.9c-3.7,2.6-7.4,5-11.2,7.6c-0.3-0.3-0.3-0.2-0.6-0.5c0.5-1,0.9-2.1,1.4-3
	c5-8.4,10-16.8,15.2-25.1c1.6-2.5,3.9-4.4,5.7-6.7c2.4-3.3,5.2-5,9.5-4.2c2.9,0.5,5.9,0,8.7-1.3c-3.7-0.6-7.4,1.2-11.2-0.5
	c7.3-6.2,12.9-13.9,18.9-21.1c0.2-0.3-0.2-0.6-0.4-0.4c-5.2,5.1-13.8,13.3-19.2,18c1.2-2.9,2.9-8.3,2.7-11.2c0,0-2.8,7.6-4.4,11.3
	c-1.1,2.6-3.2,3.8-6,5.4c0.4-2.1,0.7-3.7,1.1-5.3c-0.2,0-0.4-3-1.1-2.9c0.3-4.3,0.3-5.4,0.6-10.2c-0.9,0.9-2.9,11.2-3.2,15.8
	c-0.2,2.5-0.2,4.9-1.8,7.1c-5.3,7.2-10.4,14.6-15.5,21.9c-5.5,7.8-9.9,16.1-12.4,25.4c-0.8,3-1.5,6.1-3,8.8
	c-4.6,8.5-9.6,16.9-13.2,26c-1.3,3.2-3.3,6.1-4.9,9.1c-0.3,0-0.4,0-0.7,0c-0.4-0.7-1-1.4-1-2.1c-0.1-2.9-0.3-5.8-0.1-8.6
	c0.6-8.9,1.7-17.8,0.9-26.8c-0.4-4.9-0.3-9.7,2.9-14c0.9-1.2,1.2-2.8,1.8-4.2c1.2-3.2,1.7-7.1,3.8-9.3c5.4-5.8,11.8-10.6,19.6-12.8
	c2.2-0.6,3-2,3.5-4c-2.7,0.7-5.1,1.3-8.1,2c-0.1-2.8-0.7-5.5-0.1-7.9c1-4.2,2.7-8.2,4.1-12.2c0.7-2,1.4-4,1.9-6
	c0.2-0.6-0.2-1.4-0.3-2c-1.8,4.2-3.6,8.3-5.4,12.3c-1.8,4-3.5,8.1-3,12.6c0.3,2.8-0.3,4.9-3.1,6.1c-1,0.4-1.8,1.2-2.7,1.8
	c-2.1,1.3-4.3,2.5-6.6,3.8c0-0.6,0-1,0-1.3c0.6-4.3,1.2-8.5,1.9-12.8c0.1-0.8,0.6-1.8,1.2-2.3c1.6-1.2,3.3-2.2,4.9-3.3
	c0.9,0.7,1.9,1.5,2.9,2.3c0.1-0.1,0.2-0.2,0.3-0.3c-0.2-0.4-0.2-0.8-0.5-1.1c-1.9-2.2-1.5-4.4,0-6.5c0.2-0.3,0.4-0.6,0.6-1
	c0.9-1.7,1.8-3.5,2.7-5.2l-0.5-0.4c-0.5,0.4-1.1,0.7-1.5,1.2c-1.1,1.8-2.1,3.7-3.2,5.4c-1.2,1.8-2.4,3.8-3.9,5.3
	c-0.7,0.7-2.6,1.3-3.2,0.9c-1.9-1.2-3.4-3-5.1-4.6c-1-0.9-1-1.7-0.1-2.9c3.1-4,6-8.1,8.9-12.2c0.5-0.8,0.9-1.6,1.4-2.4l-0.5-0.3
	c-3.7,4.9-7.4,9.8-11.2,14.6c-0.3-0.4-0.3-0.7-0.3-0.9c1.8-4.8,3.4-9.6,5.4-14.3c2.8-6.3,5.8-12.7,10.5-17.8c3.6-3.9,6.6-8,8.7-12.7
	c2.5-5.4,4.4-11.1,6.5-16.7c0.1-0.3,0-0.8,0-1.2c-0.9,0.4-1.6,0.9-1.9,1.6c-1.2,2.7-2.4,5.5-3.4,8.3c-1.7,4.7-4.1,9-7.2,13.3
	c-1.9-4-3.7-7.7-5.6-11.4c-0.3-0.7-1-1.2-1.5-1.8l-0.6,0.4c0.3,1,0.6,2,1,3c1.6,3.4,3.1,6.8,4.8,10.1c0.5,1.1,0.4,1.6-0.5,2.4
	c-3.6,2.9-6.6,6.3-8.7,10.4c-1.6,3-3.3,6-5,9c-0.2,0.4-0.5,0.7-0.7,1c-0.2-0.1-0.3-0.1-0.5-0.2c0.9-3.6,1.8-7.3,2.7-10.9
	c1.8-6.9,3.6-13.8,5.3-20.6c-1.5-0.7-1.9-0.2-2.2,0.9c-1.2,4.5-2.4,8.9-3.6,13.4c-0.7,2.5-1.6,4.8-2.6,7.8c-1.1-1.8-1.9-3-2.6-4.3
	c-2.9-5-5.7-10.1-8.7-15.1c-0.5-0.8-1.2-1.4-1.8-2.1l-0.5,0.4c0.2,0.5,0.4,1,0.7,1.5c3.1,6.1,6.2,12.2,9.5,18.2
	c1.6,2.9,2.2,5.7,1.2,9c-0.6,1.9-0.9,4.1-0.7,6c0.3,2.7-0.3,5.1-1.6,7.5c-1.5-1.9-1.8-4.5-4.4-6.1c0.4,1.1,0.6,1.8,0.9,2.4
	c0.6,1.4,1.4,2.7,2,4c1.3,2.7,0.2,4.4-2.8,4.3c-1.8-0.1-3.6-0.2-5.5-0.3c-0.1-0.3-0.3-0.8-0.4-1.2c-2-9.3-4.3-18.6-5.9-28
	c-1.4-8.1-2-16.3-3-24.5c-0.4-3.1-0.4-6,0.7-9c0.6-1.5,0.6-3.2,0.9-4.8c-2.6,1-1.7,3.6-2.9,5.2c-0.2-0.6-0.4-1.2-0.5-1.8
	c-0.7-3.9-1.5-7.8-2.2-11.7c-0.2-1.1-0.5-1.9-1.9-1.3c0,0.3,0,0.6,0.1,0.9c0.9,5.3,2,10.5,2.6,15.8c0.7,6.3,0.7,12.7,1.2,19
	c0.5,6.6,1,13.2,1.8,19.7c1.1,9.5,2.5,18.9,5,28.1c1.2,4.2,2.5,8.3,3.2,12.5c0.9,6.3,1.7,12.6,1.9,19c0.4,11,0.3,22,0.5,33.1
	c0,0.3,0,0.6-0.1,0.9c-0.4,3-0.9,6-1.4,9c-1.9-0.6-2.8-1.5-2.8-3.2c-0.1-1.9-0.5-3.8-0.7-5.7c-0.2-2.5-0.7-4.8-1.9-7
	c-2.3-4.3-4.3-8.7-6.3-13.1c-0.3-0.6-0.1-1.7,0.2-2.4c1.2-2.1,2.6-4,3.8-6.1c1.1-1.8,1.1-2.9,0.5-3.9c-2.1,3.1-4.3,6.3-6.8,9.8
	c-2.9-3.3-5.5-6-7.7-9c-2.4-3.3-4.5-6.8-6.7-10.2c-0.2-0.3-0.3-0.7-0.2-1c0.6-3.1,1.3-6.1,1.9-9.1c0.7-3.4,1.7-6.8,1.8-10.2
	c0.1-3.9-0.6-7.9-1-11.8c0-0.4-0.4-0.8-0.6-1.3l-0.6,0.2c0.2,3.3,0.7,6.5,0.7,9.8c0,3.1-0.3,6.3-0.6,9.4c-0.3,0.1-0.3,0.1-0.5,0.1
	l-3.8-6.3c0.7,3,2.3,5.7,2.5,8.5c0.2,2.8-1,5.8-1.6,8.7c-0.3,0-0.3,0-0.6,0.1c-2.2-4.3-5.1-8.3-6.3-12.8c-1.9-6.7-4.5-13-8.1-18.9
	c-0.6-0.9-1.1-2.1-1.1-3.2c-0.1-2.9-0.3-5.8,0.2-8.7c0.9-6.5,1.3-13,0.8-19.5c-0.4-4.8-0.7-9.7-1-14.5c-1.2,0.3-1.2,0.4-1.1,2.5
	c0.2,5.8,0.6,11.6,0.5,17.5c0,3.8-0.7,7.7-1.1,11.5c-0.3,0-0.2,0-0.5,0l-0.3-1.7c-0.1,0-0.2,0-0.4,0c0,8.8,0,17.7,0,26.7
	c-2-1.5-3.1-3.4-4-5.6c-2.2-5.4-1.2-11.3-2.5-16.8c-0.2-0.9-0.2-1.8-0.1-2.7c0.3-4.3,0.6-8.5,0.8-12.8c0-0.7-0.1-1.5-0.2-2.3l-0.5,0
	l-1.1,11.4c-1.3-1.4-0.6-3.5-2.6-4.8c0.2,1.2,0.2,2,0.4,2.7c0.5,2.3,1.1,4.6,1.4,6.9c0.3,2.2,1,4.7,0.4,6.7
	c-1.6,5.1-3.9,10-6.1,15.3c-0.5-0.6-0.7-0.8-0.8-1c-2.8-4.5-5.7-8.9-8.5-13.4c-0.6-1-1.1-1.5-2.3-0.5c0.3,0.5,0.5,1.1,0.8,1.7
	c2.7,4.6,5.5,9.3,8.2,13.9c4,6.7,6.1,13.9,6.6,21.7c-0.7-0.5-1.4-1-2-1.5c-4-3.5-8.4-6.4-13-9.1c-5.3-3.1-9.4-7.6-12.2-13
	c-3.6-6.9-6.6-14.3-9.8-21.4c-1-2.1-1.8-4.3-2.8-6.5l-0.6,0.1c0.1,0.7,0,1.4,0.2,2c0.6,1.6,1.2,3.1,1.9,4.7
	c2.9,7.4,5.8,14.8,8.7,22.2c0.2,0.4,0.4,0.9,0.7,1.3c3.7,5.5,7.6,10.6,13.1,14.4c3.5,2.5,6.9,5.2,10.3,7.9c2.7,2,5.4,4,8,6.1
	c1.3,1.1,2.4,2.6,3.6,3.9c-0.1,0.3-0.1,0.3-0.2,0.6c-2.5,0.4-5.1,0.9-7.6,1.1c-2.6,0.2-5.3,0.1-7.9,0.1c-2.5,0-5,0-7.5,0
	c0,0.2,0,0.1,0,0.4c3.4,0.2,6.7,0.4,10.7,0.7c-1.7,1.7-3.1,3.1-4.5,4.4c0.2,0.2,0.1,0.1,0.3,0.3c1.3-1.1,2.6-2.2,3.9-3.2
	c0.7-0.6,1.6-1.2,2.4-1.3c3.4-0.5,6.8-0.8,10.2-1.1c0.5,0,1.3,0.3,1.6,0.7c1.9,3,3.7,6,5.5,9c-4.3,1.6-8.7,2.7-13.6,1.6
	c-5-1.2-10.2-1.6-15.3-2.3c-0.1,0-0.3-0.1-0.4-0.1c-0.4-0.3-0.8-0.7-1.1-1c-0.1,0-0.1-0.1-0.2-0.1c-0.7-0.9-1.3-1.9-1.8-2.9
	c-1.6-2.6-3.1-5.3-4.7-7.8c-0.4-0.6-1.2-1-1.9-1.5c0,0.1-0.1,0.2-0.1,0.3c2.4,4.3,4.8,8.6,7.3,13.1c-1.8,0.2-3.1,0.3-4.3,0.5
	c-0.4,0.1-0.8,0.5-1.2,0.7c0.4,0.2,0.9,0.7,1.3,0.7c1.6,0,3.1-0.2,4.7-0.2c0.9,0,1.9,0,2.8,0.1c5.6,6.2,11,12.5,17.7,17.7
	c-3.8,1.9-7.6,0.2-11.2,1c2.9,1.2,5.9,1.5,8.8,0.9c4.3-0.9,7.1,0.6,9.7,3.8c1.8,2.3,4.3,4.1,6,6.5c5.6,8,11,16.2,16.4,24.3
	c0.6,0.9,1.1,2,1.6,2.9c-0.3,0.3-0.3,0.2-0.5,0.5c-3.8-2.3-7.7-4.6-11.5-7c-7.5-4.8-15.4-8.8-24.2-10.7c-1.6-0.3-3.2-0.6-4.6-1.2
	c-2.1-1-2.6-3.2-1.6-5c0.9-1.7,1.3-3.8,1.6-5.8c-2.7,1-1.7,4.1-3.7,5.6c-3.4-4.8-2.7-9.1-6.2-13.9c0,0,2.4,10.6,5.4,16.5
	c-14.8-7.5-29.6-14.9-44.4-22.4c-0.7,1.5,3,3.3,3.8,3.8c11.4,6.3,20,11,31.3,17.3c0.6,0.3,1.1,0.7,1.5,1.4
	c-3.8-0.7-7.5-1.4-11.3-2.1c0,0.2-0.1,0.4-0.1,0.5c1.5,0.5,3,0.9,4.5,1.4c4.6,1.2,9.2,2.4,13.7,3.7c2.8,0.8,2.9,1.1,3.1,4
	c0.1,1.2,0.1,2.4,0.2,3.7c-10.6-0.3-21.2-0.3-31.7,1.3c0,0,11,0.8,15.2,0.7c10.5-0.1,21,0.6,31.2,3.2c2.3,0.6,4.5,1.5,6.6,2.6
	c4.3,2.3,8.4,4.9,12.7,7.2c1.3,0.7,3,0.7,4.5,1.2c2.6,0.9,5.1,1.9,7.6,3.1c0.7,0.3,1.2,1.2,1.5,1.9c1.6,4.2,3.1,8.4,4.7,12.6
	c0.4,0.9,0.9,1.8,1.5,2.9c-2.6-1.1-5.1-2-7.5-3.1c-1.5-0.7-3.1-1.4-4.2-2.5c-1.3-1.4-2.2-3.2-3.3-4.9c-1-1.6-1.9-3.3-2.9-5
	c-0.2,0.1,2.2,7,3.7,10.6c-2.4-0.8-4.6-1.8-6.5-3.4c-2.7-2.3-12.2-9.5-12.4-9.3c1.3,1.4,2.6,2.7,3.9,4.1c1.4,1.4,2.9,2.7,4.3,4.1
	c3.6,3.7,7.8,6.2,12.7,7.8c4.9,1.6,9.6,3.7,14.2,6.1c1.5,0.8,2.5,3,3.4,4.7c1.4,2.7,3.7,7.3,5.7,11.3c2.5,5,3.8,10.4,4,16l0,0.1
	c0.2,10.9-1.2,21.7-2.5,32.5c-1.2,9.8-2.3,19.7-3.4,29.5h22.7c-0.1-1.2-0.3-2.4-0.4-3.6c-0.9-11.2-1.9-22.4-2.7-33.6
	c-0.3-4.4-0.7-8.7-0.7-13.1c0-1,0-2,0-3c0.1-10.2,4.4-19.9,11.9-26.8c4.6-4.2,9.5-8.8,12.6-11.8c2.2-2.1,5-3.7,7.7-5.3
	c8.2-5,15-11.5,21-18.9c5.6-7,11.3-13.9,16.8-21c1.7-2.2,4-2.8,6.3-3.7c4.3-1.6,13.6-6.3,14.3-7.4c-4.5,1.6-5.6,2-9.7,3.4
	c-0.1-0.7-3.1,0-3.1-0.3c-1.5,0.8-2.9,1.5-4.8,2.5c0.8-3.1,1.4-5.5,3.6-7.3c3.1-2.5,9.6-7.3,9.6-7.3c-2.9,0.6-7.6,3.8-10.1,5.7
	c3.1-6.4,8.6-16.9,12-23.4c0.2-0.3-0.3-0.6-0.5-0.3c-5.3,7.8-11.1,15.3-15.1,24c-2.7-3.2-1.9-7.3-3.5-10.7c-0.5,3-0.1,6.1,1.2,8.7
	c1.9,4,1.1,7.1-1.4,10.3c-1.8,2.3-3,5.1-4.9,7.3c-6.5,7.3-13.2,14.4-19.9,21.5c-0.8,0.8-1.7,1.5-2.5,2.2c-0.3-0.2-0.3-0.2-0.6-0.4
	c1.4-4.3,2.7-8.6,4.2-12.8c3-8.4,5.1-17,4.9-26c0-1.6-0.2-3.3,0.2-4.8c0.5-2.2,2.5-3.3,4.5-2.7c1.9,0.5,4,0.4,6,0.3
	c-1.5-2.4-4.3-0.7-6.3-2.4c3.9-4.4,8.2-4.7,12.1-9.2c0,0-9.3,3.5-14.3,7.8c0,0,6.1-18.4,5-24.9l-2.1,8.2c-0.2,0.7-0.4,1.3-0.7,1.9
	l-3.3,6.6c-0.2,0.6-0.4,1.2-1,1.8c-0.2-3.8-1.3-8.4-1.4-6.9c-0.2,4.7-0.2,9.5-0.5,14.2c-0.2,2.9-0.4,3.1-3.2,3.9
	c-1.1,0.3-2.3,0.7-3.5,1c0,0-1.5,4.9-1.7,15.5c0,2.4-0.5,4.8-1.1,7.1c-1.2,4.7-2.8,9.3-4.1,14c-0.4,1.5,0,3.1-0.1,4.6
	c-0.3,2.7-0.7,5.4-1.2,8.1c-0.1,0.7-0.9,1.5-1.5,1.9c-3.7,2.5-7.5,5-11.2,7.5c-0.8,0.6-1.5,1.3-2.5,2.1c0.4-2.8,0.8-5.4,1.3-8
	c0.3-1.6,0.7-3.3,1.5-4.7c1-1.6,2.6-2.9,4-4.3c1.4-1.3,2.8-2.6,4.2-3.9c-0.2-0.2-6.3,3.7-9.4,6c0.2-2.5,0.7-4.9,1.9-7.1
	c1.7-3.2,6.4-14.1,6.2-14.2c-1,1.6-2.1,3.1-3.1,4.7c-1,1.7-1.9,3.5-3,5.1c-2.7,4.3-4.3,9-4.7,14.2c-0.5,5.1-1.4,10.2-2.7,15.2
	c-0.4,1.7-2.3,3.2-3.8,4.4c-3.2,2.8-6.5,5.4-9.8,8.1c0-6.3-0.1-12.6-0.2-18.9c0-5.9-0.1-11.9,1.9-17.6c0.6-1.7,0.7-3.7,1.3-5.4
	c0.9-3,1.9-6,3-9c0.8-2.1,2.2-4,3.1-6.1c2.4-5.4,4.6-10.9,7.1-16.3c0.8-1.8,1.7-4,3.2-4.8c4.4-2.6,9.1-4.9,13.9-6.8
	c4.9-1.9,8.9-4.6,12.3-8.4c1.3-1.5,2.8-2.8,4.1-4.3c1.3-1.4,2.5-2.8,3.7-4.3c-0.2-0.2-9.3,7.4-11.9,9.9c-1.8,1.7-4,2.9-6.3,3.7
	c1.4-3.6,3.5-10.6,3.2-10.7c-0.9,1.7-1.7,3.4-2.6,5.1c-0.9,1.7-1.7,3.6-3,5c-1.1,1.2-2.6,2-4.1,2.7c-2.3,1.2-4.8,2.3-7.4,3.5
	c0.5-1.1,1.1-2,1.4-3c1.4-4.3,2.7-8.6,4.1-12.8c0.2-0.7,0.8-1.6,1.4-2c2.4-1.3,4.9-2.4,7.5-3.4c1.4-0.6,3.1-0.6,4.4-1.4
	c4-2.4,7.8-5,11.8-7.4c0.3-0.2,0.5-0.3,0.8-0.5C1067.8,129.2,1069.8,128.1,1073.3,126.9z M939.6,94.7c0.8-1.7,1.5-3.4,2.2-5.1
	c0.8-1.7,1.6-3.4,2.4-5.3c0.6,2.5,1.1,4.8,1.7,7.1c0.8,2.9,2.2,5.4,4.6,7.3c1.1,0.9,1.8,2.1,2.7,3.2c-0.1,0.2-0.3,0.3-0.4,0.5
	c-0.5-0.2-1.1-0.3-1.6-0.6c-3.6-1.7-7.2-3.5-10.8-5.2C939.6,96.2,939.2,95.7,939.6,94.7z M953.7,123.6c-6.1-1.4-8.4-6-9.2-11.5
	c-0.7-4.3-2-8.4-3.9-12.3c-0.3-0.7-0.5-1.4-0.9-2.4c0.6,0.2,0.9,0.3,1.2,0.4c3.6,1.8,7.1,3.7,10.6,5.5c1,0.5,1.6,1.2,1.8,2.4
	C954.4,111.8,955.3,117.7,953.7,123.6z M943.4,188.8c-1.8-0.3-3.7-0.5-5.5-0.8c-2.9-0.5-3.9-2-3.6-5.4c3.2,2,6.2,4,9.2,5.9
	C943.5,188.6,943.5,188.7,943.4,188.8z M941.9,182.9c8.6,2.6,15.9,7.6,22.9,13.1C957.2,191.6,948.8,188.6,941.9,182.9z
	 M1077.8,116.8c-6.6,6-14.9,9.4-22.2,14.2C1062.2,125.1,1069.3,119.9,1077.8,116.8z M1009.9,101.5c1.2-2.3,2.7-4.5,4.1-7
	c1.5,1.6,2.7,3.2,4.3,4.5c1.5,1.3,2,2.5,0.6,4.1c-0.4,0.5-0.6,1.2-0.7,1.8c-1,4.5-1.8,9.2-3.1,13.6c-1.2,4.1-2.9,8-4.5,12.5
	c-0.7-4.6-1.3-8.6-1.9-12.7c-0.3-2.2-0.3-4.5-0.8-6.6C1006.9,108,1008.2,104.7,1009.9,101.5z M1001.5,90.5c2.7,0.3,4.9,0.6,7.5,1
	c-1.4,2.3-2.7,4.3-3.9,6.4c-0.2,0-0.4,0-0.6,0.1C1003.6,95.6,1002.6,93.2,1001.5,90.5z M986.8,142.3c1.9,4.7,4.1,10.8,5.7,15.6
	c0.7,2.1,0.5,4.5,0.7,6.7c-0.1,0.1-0.3,0.1-0.4,0.2c-0.5-0.6-1-1.2-1.5-1.8c-2-2.5-4.2-5-6-7.6c-0.7-0.9-1.2-2.3-1.1-3.4
	c0.4-2.8,1.2-5.5,1.9-8.3C986.1,143.7,986.6,142.3,986.8,142.3z M964.8,110.8c4.3,7.7,8.9,15.3,13.7,22.8c1.8,2.8,4.4,5.2,6.6,7.7
	c-1.3,3-2.6,6-3.9,9.1c-0.8-1.5-1.4-3.2-2.5-4.4c-2.7-2.8-5.6-5.3-8.5-8c-3.2-3-6.8-5.7-9.4-9.1c-1.6-2-2.2-5.3-2-8
	c0.3-4.4-0.8-8.6-1.2-12.8c0-0.5-0.1-1.1-0.2-1.8C960.7,106.6,963.1,107.8,964.8,110.8z M973.1,151.6c-6.7-5.2-12.3-11.4-17.4-18.1
	C963.3,137.8,968.4,144.5,973.1,151.6z M962.5,105.7c-1.6-0.3-3.1-0.6-4.5-1c-0.4-0.1-0.9-0.5-1-0.8c-1.4-5.6-1.9-11.2-2-17
	C958.8,92.7,961.4,98.9,962.5,105.7z M928.1,140.6c4.1,0.5,8,1.6,12,2.8c0.4,0.1,0.9,0.2,1.3,0.3c0.1,3,2,8.1,3.3,10.9
	C940.2,151,933.5,145.2,928.1,140.6z M946.3,154.5c-1.5-3.2-4.3-9.5-4.8-10.8c3.3,0.8,6.6,1.1,9.9,0.4c0.3,2.6,0.4,4,0.8,7.3
	c-0.7,0-0.7,3-1,3c0.4,1.6,0.8,3.2,1.3,5.3C949.7,158.2,947.6,157.1,946.3,154.5z M990.9,218.3c-1.6-2.6-2.4-5.7-3.4-8.7
	c-3-9.1-7.8-17.2-13.7-24.8c-5.5-7.1-10.9-14.2-16.6-21.1c-1.8-2.2-1.9-4.5-2.2-7c-0.4-3.3-1.8-9.3-2.8-12.9
	c0.4-0.1,0.9-0.2,1.3-0.4c2.7-0.9,5.1-0.5,6.9,1.9c0.4,0.6,1,1,1.5,1.6c3.8,4.1,7.7,8,12.6,10.9c5.6,3.2,9.8,8,13.3,13.5
	c1,1.6,2.4,3.2,4,4.2c3.3,2.1,5.2,5.3,7.3,8.3c0.3,0.5,0.4,1.1,0.4,1.7c0.1,4.1,0.1,8.2,0.1,12.3c0,2.9-0.3,5.9-0.2,8.8
	c0.3,6.2,1.1,12.4,1.2,18.7c0.1,3.2,0.1,6.3,0.2,9.5C997.7,229.2,994.3,223.8,990.9,218.3z M1054.5,200.3c2.6-8.4,3.6-17.3,7.6-25.3
	C1061.5,184,1058.3,192.3,1054.5,200.3z M1060.6,167.6c-1.2,3.5-2.4,6.9-3.6,10.3c-0.1,0-0.2-0.1-0.4-0.1c-0.1-1.8-0.3-3.7-0.4-5.5
	C1056,169.4,1057.2,168.1,1060.6,167.6z M1082,121.7c-1.8,0.4-3.6,0.7-5.4,1.1c-0.1-0.1-0.1-0.2-0.2-0.3c2.9-2.1,5.9-4.2,8.9-6.3
	C1085.8,119.5,1084.8,121.1,1082,121.7z"/>
<g>
	<ellipse class="st0" cx="909.1" cy="323.3" rx="26.8" ry="6"/>
	<rect x="902.9" y="106.2" class="st1" width="10.4" height="217.1"/>
	<g>
		<polygon class="st2" points="977.7,159.5 846.2,159.5 829.3,143.9 846.2,130.2 977.7,130.2 		"/>
		<g>
			<g class="st3">
				<path class="st4" d="M859.7,149.6l1.7-0.2v-8.1l-1.7,0v-0.9l3.2-0.7v9.7l1.7,0.2v0.9h-4.8V149.6z"/>
				<path class="st4" d="M866,149.6l1.7-0.2v-8.1l-1.7,0v-0.9l3.2-0.7v9.7l1.7,0.2v0.9H866V149.6z"/>
				<path class="st4" d="M874.6,140.5v1.9h1.5v1.1h-1.5v4.9c0,0.4,0.1,0.6,0.2,0.8c0.2,0.2,0.4,0.2,0.6,0.2c0.1,0,0.3,0,0.4,0
					c0.2,0,0.3,0,0.4-0.1l0.2,1c-0.1,0.1-0.3,0.2-0.6,0.2c-0.3,0.1-0.5,0.1-0.8,0.1c-0.6,0-1.1-0.2-1.4-0.5
					c-0.4-0.4-0.5-0.9-0.5-1.7v-4.9h-1.3v-1.1h1.3v-1.9H874.6z"/>
				<path class="st4" d="M877.4,149.6l1.2-0.2V140l-1.2-0.2v-0.9h2.7v4.6c0.3-0.4,0.6-0.7,1-0.9c0.4-0.2,0.8-0.3,1.3-0.3
					c0.9,0,1.5,0.3,2,0.8c0.5,0.5,0.7,1.3,0.7,2.4v3.9l1.2,0.2v0.9h-3.9v-0.9l1.2-0.2v-3.9c0-0.7-0.1-1.2-0.4-1.5
					c-0.3-0.3-0.7-0.5-1.3-0.5c-0.4,0-0.8,0.1-1.1,0.3c-0.3,0.2-0.6,0.5-0.8,0.8v4.8l1.2,0.2v0.9h-3.9V149.6z"/>
				<path class="st4" d="M891.2,147.6c0-0.6,0.2-1.1,0.5-1.6c0.4-0.5,0.9-0.9,1.6-1.4c-0.4-0.5-0.7-0.9-0.9-1.3
					c-0.2-0.4-0.3-0.8-0.3-1.2c0-0.8,0.2-1.5,0.7-1.9c0.5-0.5,1.2-0.7,2-0.7c0.8,0,1.4,0.2,1.9,0.7c0.5,0.5,0.7,1,0.7,1.6
					c0,0.5-0.1,0.9-0.4,1.3c-0.3,0.4-0.6,0.7-1.2,1.1l-0.8,0.6l2.5,3c0.2-0.3,0.4-0.7,0.5-1.1c0.1-0.4,0.2-0.8,0.2-1.2h1.3
					c0,0.7-0.1,1.3-0.3,1.8c-0.2,0.6-0.5,1.1-0.8,1.5l1.4,1.7l0,0h-1.7l-0.6-0.8c-0.4,0.3-0.8,0.5-1.3,0.7c-0.5,0.2-1,0.2-1.5,0.2
					c-1.1,0-1.9-0.3-2.6-0.9C891.5,149.3,891.2,148.5,891.2,147.6z M894.7,149.5c0.4,0,0.7-0.1,1.1-0.2c0.3-0.1,0.7-0.3,1-0.5
					l-2.7-3.2l-0.3,0.2c-0.5,0.3-0.8,0.7-0.9,1c-0.1,0.3-0.2,0.6-0.2,0.8c0,0.6,0.2,1,0.5,1.4C893.5,149.4,894,149.5,894.7,149.5z
					 M893.6,142.1c0,0.3,0.1,0.5,0.2,0.8c0.1,0.3,0.3,0.6,0.6,0.9l1-0.7c0.3-0.2,0.5-0.4,0.6-0.6c0.1-0.2,0.2-0.5,0.2-0.7
					c0-0.3-0.1-0.6-0.4-0.8c-0.2-0.2-0.6-0.4-0.9-0.4c-0.4,0-0.7,0.1-0.9,0.4C893.7,141.4,893.6,141.7,893.6,142.1z"/>
				<path class="st4" d="M912.4,139.7v0.9l-1.2,0.2v6.7c0,1-0.3,1.7-0.9,2.3c-0.6,0.6-1.4,0.9-2.4,0.9c-1,0-1.9-0.3-2.5-0.8
					c-0.6-0.5-0.9-1.3-0.9-2.3l0,0h1.4c0,0.7,0.2,1.2,0.5,1.5c0.3,0.3,0.8,0.5,1.4,0.5c0.5,0,1-0.2,1.3-0.5c0.3-0.4,0.5-0.9,0.5-1.5
					v-6.7l-1.2-0.2v-0.9h2.7H912.4z"/>
				<path class="st4" d="M918.8,150.5c0-0.2-0.1-0.4-0.1-0.6s0-0.3-0.1-0.5c-0.3,0.4-0.6,0.7-1.1,0.9c-0.4,0.2-0.9,0.4-1.4,0.4
					c-0.8,0-1.5-0.2-1.9-0.6c-0.4-0.4-0.7-1-0.7-1.7c0-0.8,0.3-1.4,0.9-1.8c0.6-0.4,1.5-0.6,2.5-0.6h1.5V145c0-0.5-0.1-0.8-0.4-1.1
					c-0.3-0.3-0.7-0.4-1.2-0.4c-0.4,0-0.7,0-1,0.1c-0.3,0.1-0.5,0.2-0.7,0.4l-0.2,0.8H914v-1.6c0.4-0.3,0.8-0.5,1.3-0.7
					c0.5-0.2,1.1-0.3,1.7-0.3c0.9,0,1.7,0.2,2.2,0.7c0.6,0.5,0.8,1.1,0.8,2v3.9c0,0.1,0,0.2,0,0.3c0,0.1,0,0.2,0,0.3l0.6,0.1v0.9
					H918.8z M916.4,149.4c0.5,0,0.9-0.1,1.3-0.4c0.4-0.2,0.7-0.5,0.9-0.8v-1.3H917c-0.6,0-1.1,0.1-1.4,0.4c-0.4,0.3-0.5,0.6-0.5,1
					c0,0.4,0.1,0.6,0.3,0.8C915.6,149.4,915.9,149.4,916.4,149.4z"/>
				<path class="st4" d="M925.5,149.5c0.5,0,0.9-0.1,1.3-0.5c0.4-0.3,0.6-0.7,0.6-1.1h1.3l0,0c0,0.7-0.3,1.3-0.9,1.9
					c-0.6,0.5-1.4,0.8-2.2,0.8c-1.2,0-2.1-0.4-2.7-1.1c-0.6-0.8-0.9-1.7-0.9-2.9v-0.3c0-1.1,0.3-2.1,0.9-2.9
					c0.6-0.8,1.5-1.2,2.7-1.2c0.6,0,1.2,0.1,1.7,0.3c0.5,0.2,0.9,0.5,1.3,0.9l0.1,1.8h-1.2l-0.3-1.3c-0.2-0.2-0.4-0.3-0.7-0.4
					c-0.3-0.1-0.6-0.2-0.9-0.2c-0.8,0-1.3,0.3-1.7,0.8s-0.5,1.2-0.5,2v0.3c0,0.8,0.2,1.5,0.5,2.1
					C924.2,149.3,924.7,149.5,925.5,149.5z"/>
				<path class="st4" d="M929.9,139.8v-0.9h2.7v6.7h0.9l1.7-2.1l-0.7-0.1v-0.9h3.4v0.9l-1,0.2l-2.1,2.5l2.6,3.3l0.9,0.2v0.9H935
					v-0.9l0.8-0.1l-2.1-2.7h-1v2.6l1.2,0.2v0.9h-3.9v-0.9l1.2-0.2V140L929.9,139.8z"/>
				<path class="st4" d="M945.6,145h-1.1l-0.2-1c-0.2-0.2-0.4-0.3-0.7-0.4c-0.3-0.1-0.6-0.2-0.9-0.2c-0.5,0-0.9,0.1-1.2,0.3
					c-0.3,0.2-0.4,0.5-0.4,0.8c0,0.3,0.1,0.6,0.3,0.8c0.2,0.2,0.7,0.3,1.4,0.5c1,0.2,1.8,0.5,2.3,0.9c0.5,0.4,0.7,0.9,0.7,1.5
					c0,0.7-0.3,1.3-0.9,1.7s-1.3,0.7-2.3,0.7c-0.6,0-1.2-0.1-1.6-0.2c-0.5-0.1-0.9-0.3-1.3-0.6l0-1.8h1.1l0.3,1.1
					c0.2,0.2,0.4,0.3,0.7,0.3c0.3,0.1,0.6,0.1,0.9,0.1c0.5,0,0.9-0.1,1.2-0.3s0.4-0.5,0.4-0.8c0-0.3-0.1-0.6-0.4-0.8
					c-0.2-0.2-0.7-0.4-1.4-0.5c-1-0.2-1.7-0.5-2.2-0.9c-0.5-0.4-0.7-0.9-0.7-1.5c0-0.7,0.3-1.2,0.8-1.7c0.6-0.5,1.3-0.7,2.2-0.7
					c0.6,0,1.2,0.1,1.6,0.2c0.5,0.2,0.9,0.4,1.2,0.7L945.6,145z"/>
				<path class="st4" d="M947.2,146.4c0-1.2,0.3-2.2,1-2.9c0.6-0.8,1.5-1.2,2.6-1.2c1.1,0,2,0.4,2.6,1.2c0.6,0.8,1,1.8,1,3v0.2
					c0,1.2-0.3,2.2-1,3c-0.6,0.8-1.5,1.1-2.6,1.1c-1.1,0-2-0.4-2.6-1.2c-0.6-0.8-1-1.8-1-2.9V146.4z M948.7,146.6
					c0,0.9,0.2,1.6,0.5,2.1c0.4,0.6,0.9,0.8,1.6,0.8c0.7,0,1.2-0.3,1.6-0.8c0.4-0.6,0.5-1.3,0.5-2.1v-0.2c0-0.8-0.2-1.5-0.5-2.1
					c-0.4-0.6-0.9-0.8-1.6-0.8c-0.7,0-1.2,0.3-1.6,0.8c-0.4,0.6-0.5,1.3-0.5,2.1V146.6z"/>
				<path class="st4" d="M955.5,149.6l1.2-0.2v-5.8l-1.2-0.2v-0.9h2.5l0.1,1.2c0.3-0.4,0.6-0.8,1-1c0.4-0.2,0.9-0.4,1.4-0.4
					c0.9,0,1.5,0.3,2,0.8c0.5,0.5,0.7,1.3,0.7,2.4v3.9l1.2,0.2v0.9h-3.9v-0.9l1.2-0.2v-3.9c0-0.7-0.1-1.2-0.4-1.5
					c-0.3-0.3-0.7-0.4-1.3-0.4c-0.4,0-0.8,0.1-1.1,0.3c-0.3,0.2-0.6,0.5-0.8,0.8v4.7l1.2,0.2v0.9h-3.9V149.6z"/>
			</g>
		</g>
	</g>
</g>
<g>
	<rect x="50.5" y="283.7" class="st0" width="35.7" height="10.2"/>
	<rect x="60.9" y="274.1" class="st0" width="15" height="3.5"/>
	<polygon class="st0" points="77.9,277.6 58.8,277.6 50.5,283.7 86.2,283.7 	"/>
	<polygon class="st0" points="72.8,123.9 64,123.9 62.9,274.1 73.8,274.1 	"/>
	<rect x="61.7" y="122.2" class="st0" width="13.4" height="1.7"/>
	<rect x="62.7" y="120.9" class="st0" width="11.3" height="1.3"/>
	<rect x="50.3" y="95.2" class="st0" width="36.2" height="1.3"/>
	<rect x="63.8" y="117.5" class="st0" width="9.2" height="1.3"/>
	<rect x="65" y="118.8" class="st0" width="7" height="2.1"/>
	<rect x="65" y="85.6" class="st0" width="7" height="2.1"/>
	<rect x="65.6" y="81" class="st0" width="5.7" height="1.5"/>
	<polygon class="st0" points="70.7,77.8 66.2,77.8 68.3,70.1 68.6,70.1 	"/>
	<polygon class="st0" points="76.1,87.7 60.6,87.7 52.4,95.2 84.4,95.2 	"/>
	<rect x="67.1" y="82.4" class="st0" width="2.8" height="3.1"/>
	<rect x="67.1" y="77.8" class="st0" width="2.8" height="3.1"/>
	<path class="st0" d="M49.2,96.5v1.7h0.2c0.4,1.6,1.8,6,5.7,11.5c3.4,4.7,7.4,7.8,7.6,7.9l0,0v0.1H74v-0.1l0,0
		c0.2-0.1,4.2-3.2,7.6-7.9c3.9-5.4,5.3-9.8,5.7-11.5h0.2v-1.7H49.2z M63.9,115.8c-0.3-0.2-4-3.1-7.1-7.4c-3.3-4.6-4.7-8.5-5.2-10.3
		h9.1c0,1.7,0.3,5.6,1.7,9.7c1.2,3.5,3,6.4,4.1,8H63.9z M64.3,107.1c-1.3-3.8-1.6-7.4-1.6-9H74c0,1.6-0.3,5.2-1.6,9
		c-1.2,3.4-3,6.3-4.1,7.8C67.3,113.5,65.5,110.6,64.3,107.1z M80,108.4c-3.1,4.3-6.8,7.2-7.1,7.4h-2.6c1.1-1.6,2.9-4.5,4.1-8
		c1.5-4.1,1.7-8,1.7-9.7h9.1C84.7,99.9,83.3,103.8,80,108.4z"/>
</g>
<g id="XMLID_163_">
	<g id="XMLID_175_">
		<rect id="XMLID_180_" x="104.8" y="238" class="st5" width="123.2" height="3.3"/>
		<rect id="XMLID_179_" x="104.8" y="245.2" class="st5" width="123.2" height="3.3"/>
		<rect id="XMLID_178_" x="104.8" y="252.3" class="st5" width="123.2" height="3.3"/>
		<rect id="XMLID_177_" x="104.8" y="259.4" class="st5" width="123.2" height="3.3"/>
		<rect id="XMLID_176_" x="104.8" y="266.6" class="st5" width="123.2" height="3.3"/>
	</g>
	<rect id="XMLID_174_" x="99.9" y="271.9" class="st5" width="133.1" height="5.2"/>
	<g id="XMLID_171_">
		<rect id="XMLID_173_" x="109.9" y="237.3" class="st5" width="4.1" height="35.9"/>
		<rect id="XMLID_172_" x="218.8" y="237.3" class="st5" width="4.1" height="35.9"/>
	</g>
	<g id="XMLID_164_">
		<g id="XMLID_168_">
			<rect id="XMLID_170_" x="102.1" y="274.2" class="st5" width="3.9" height="21.1"/>
			<rect id="XMLID_169_" x="106.9" y="274.3" class="st5" width="3.9" height="21.1"/>
		</g>
		<g id="XMLID_165_">
			<rect id="XMLID_167_" x="221.3" y="274.2" class="st5" width="3.9" height="21.1"/>
			<rect id="XMLID_166_" x="226" y="274.3" class="st5" width="3.9" height="21.1"/>
		</g>
	</g>
</g>
</svg>
