<?xml version="1.0" encoding="utf-8"?>
<!-- Generator: Adobe Illustrator 19.1.0, SVG Export Plug-In . SVG Version: 6.00 Build 0)  -->
<svg version="1.1" id="Layer_1" xmlns="http://www.w3.org/2000/svg" xmlns:xlink="http://www.w3.org/1999/xlink" x="0px" y="0px"
	 viewBox="182 325 1156.4 360" style="enable-background:new 182 325 1156.4 360;" xml:space="preserve">
<style type="text/css">
	.st0{fill:#E6E7E8;}
	.st1{fill:#50516A;}
	.st2{fill:#E6E6E6;}
</style>
<g>
	<g>
		<rect x="247.1" y="603" class="st0" width="35.7" height="10.2"/>
		<rect x="257.5" y="593.4" class="st0" width="15" height="3.5"/>
		<polygon class="st0" points="274.5,596.9 255.4,596.9 247.1,603 282.8,603 		"/>
		<polygon class="st0" points="269.4,443.2 260.5,443.2 259.5,593.4 270.4,593.4 		"/>
		<rect x="258.2" y="441.5" class="st0" width="13.4" height="1.7"/>
		<rect x="259.2" y="440.2" class="st0" width="11.3" height="1.3"/>
		<rect x="246.9" y="414.5" class="st0" width="36.2" height="1.3"/>
		<rect x="260.4" y="436.8" class="st0" width="9.2" height="1.3"/>
		<rect x="261.5" y="438.1" class="st0" width="7" height="2.1"/>
		<rect x="261.5" y="404.9" class="st0" width="7" height="2.1"/>
		<rect x="262.2" y="400.3" class="st0" width="5.7" height="1.5"/>
		<polygon class="st0" points="267.2,397.1 262.8,397.1 264.9,389.4 265.2,389.4 		"/>
		<polygon class="st0" points="272.7,407 257.2,407 249,414.5 281,414.5 		"/>
		<rect x="263.7" y="401.7" class="st0" width="2.8" height="3.1"/>
		<rect x="263.7" y="397.1" class="st0" width="2.8" height="3.1"/>
		<path class="st0" d="M245.8,415.8v1.7h0.2c0.4,1.6,1.8,6,5.7,11.5c3.4,4.7,7.4,7.8,7.6,7.9l0,0v0.1h11.3v-0.1l0,0
			c0.2-0.1,4.2-3.2,7.6-7.9c3.9-5.4,5.3-9.8,5.7-11.5h0.2v-1.7H245.8z M260.5,435.1c-0.3-0.2-4-3.1-7.1-7.4
			c-3.3-4.6-4.7-8.5-5.2-10.3h9.1c0,1.7,0.3,5.6,1.7,9.7c1.2,3.5,3,6.4,4.1,8C263,435.1,260.5,435.1,260.5,435.1z M260.9,426.4
			c-1.3-3.8-1.6-7.4-1.6-9h11.3c0,1.6-0.3,5.2-1.6,9c-1.2,3.4-3,6.3-4.1,7.8C263.9,432.8,262,429.9,260.9,426.4z M276.5,427.7
			c-3.1,4.3-6.8,7.2-7.1,7.4h-2.6c1.1-1.6,2.9-4.5,4.1-8c1.5-4.1,1.7-8,1.7-9.7h9.1C281.2,419.2,279.9,423.1,276.5,427.7z"/>
	</g>
	<g id="XMLID_163_">
		<g id="XMLID_175_">
			<rect id="XMLID_180_" x="301.4" y="557.3" class="st0" width="123.2" height="3.3"/>
			<rect id="XMLID_179_" x="301.4" y="564.4" class="st0" width="123.2" height="3.3"/>
			<rect id="XMLID_178_" x="301.4" y="571.6" class="st0" width="123.2" height="3.3"/>
			<rect id="XMLID_177_" x="301.4" y="578.7" class="st0" width="123.2" height="3.3"/>
			<rect id="XMLID_176_" x="301.4" y="585.9" class="st0" width="123.2" height="3.3"/>
		</g>
		<rect id="XMLID_174_" x="296.5" y="591.2" class="st0" width="133.1" height="5.2"/>
		<g id="XMLID_171_">
			<rect id="XMLID_173_" x="306.5" y="556.6" class="st0" width="4.1" height="35.9"/>
			<rect id="XMLID_172_" x="415.4" y="556.6" class="st0" width="4.1" height="35.9"/>
		</g>
		<g id="XMLID_164_">
			<g id="XMLID_168_">
				<rect id="XMLID_170_" x="298.7" y="593.4" class="st0" width="3.9" height="21.1"/>
				<rect id="XMLID_169_" x="303.5" y="593.6" class="st0" width="3.9" height="21.1"/>
			</g>
			<g id="XMLID_165_">
				<rect id="XMLID_167_" x="417.9" y="593.4" class="st0" width="3.9" height="21.1"/>
				<rect id="XMLID_166_" x="422.5" y="593.6" class="st0" width="3.9" height="21.1"/>
			</g>
		</g>
	</g>
</g>
<g>
	<path class="st1" d="M2746.4,1852.2c-0.4,0.9-0.8,1.6-1.2,2.2s-0.8,1.1-1.3,1.4c-0.2,0.2-0.5,0.3-0.8,0.4s-0.6,0.1-0.8,0.1l0,0
		c-0.4,0-0.8-0.1-1-0.4c-0.3-0.3-0.4-0.7-0.4-1.2l0,0l0,0c0-0.3,0.1-0.7,0.2-1.2s0.3-1,0.5-1.6c0.1-0.2,0.2-0.6,0.4-1.2
		s0.5-1.3,0.7-2c0-0.1,0.1-0.4,0.3-0.9h-1.3c-0.2,0-0.4-0.2-0.4-0.4c0-0.2,0.2-0.4,0.4-0.4h1.5c0.1-0.1,0.1-0.3,0.2-0.4
		c0.4-1.1,0.8-2.3,0.9-2.5c0.1-0.2,0.3-0.3,0.5-0.3s0.3,0.3,0.3,0.5c-0.1,0.2-0.5,1.4-0.9,2.5c0,0.1,0,0.1-0.1,0.2h1.3
		c0.2,0,0.4,0.2,0.4,0.4c0,0.2-0.2,0.4-0.4,0.4h-1.6c-0.2,0.6-0.3,1-0.4,1.2c-0.3,0.8-0.5,1.5-0.7,2s-0.3,0.9-0.4,1.2
		c-0.2,0.6-0.4,1.1-0.5,1.5s-0.2,0.8-0.2,1.1l0,0c0,0.3,0.1,0.5,0.2,0.7c0.1,0.1,0.3,0.2,0.4,0.2l0,0c0.2,0,0.4,0,0.6-0.1
		c0.2-0.1,0.4-0.1,0.5-0.3c0.4-0.3,0.7-0.7,1.1-1.2c0.4-0.6,0.7-1.3,1.1-2.1c0.1-0.2,0.4-0.3,0.6-0.2
		C2746.4,1851.7,2746.5,1851.9,2746.4,1852.2z"/>
	<path class="st1" d="M2754.3,1852.2L2754.3,1852.2c-0.8,1.7-1.8,4.2-3.6,4.2l0,0c-0.6,0-0.9-0.2-1.1-0.6c-0.2-0.3-0.3-0.7-0.3-1.1
		v-0.1c0-0.4,0.1-0.9,0.2-1.4s0.3-1,0.5-1.4c0.1-0.1,0.1-0.2,0.1-0.4c0.3-0.7,0.7-1.8,0.7-2.7c0-0.6-0.3-1-1-1
		c-0.5,0-1.1,0.5-1.6,1.1c-0.7,0.9-1.4,2.2-1.8,3.3l0,0c-0.6,1.5-1.2,3.2-1.4,3.9c-0.1,0.2-0.3,0.3-0.5,0.3
		c-0.2-0.1-0.3-0.3-0.3-0.5c0.2-0.6,0.8-2.3,1.4-3.9l0,0l0,0l0,0c0.6-1.7,1.2-3.3,1.4-3.9l0,0c0.2-0.6,0.3-0.8,0.4-1.1
		c0.2-0.5,0.3-0.9,0.4-1.2l0.1-0.3c0.1-0.3,0.3-0.8,0.5-1.4c0.1-0.2,0.3-0.3,0.5-0.2s0.3,0.3,0.3,0.5c-0.2,0.5-0.4,1-0.5,1.4
		c0,0.1-0.1,0.2-0.1,0.3c-0.2,0.5-0.3,0.9-0.4,1.2l-0.3,0.7c0.6-0.6,1.2-0.9,1.8-0.9c1.4,0,1.9,0.8,1.9,1.9c0,1-0.5,2.2-0.8,3
		c-0.1,0.1-0.1,0.3-0.1,0.4c-0.2,0.5-0.3,0.9-0.5,1.4c-0.1,0.4-0.2,0.8-0.2,1.2l0,0c0,0.2,0,0.5,0.1,0.6s0.2,0.2,0.4,0.2l0,0
		c1.2,0,2.2-2.1,2.8-3.6v-0.1c0.1-0.2,0.3-0.3,0.6-0.2C2754.3,1851.7,2754.4,1851.9,2754.3,1852.2z"/>
	<path class="st1" d="M2761.5,1852.2c-0.8,1.7-1.7,2.7-2.7,3.4c-1,0.6-2.1,0.8-3.1,0.8l0,0l0,0c-0.7,0-1.4-0.3-1.8-0.7
		c-0.5-0.5-0.8-1.1-0.7-2l0,0l0,0c0-0.5,0.1-1.1,0.3-1.7l0,0c0.1-0.4,0.3-0.9,0.5-1.3c0.5-1,1.1-2,1.7-2.7c0.3-0.3,0.6-0.5,1-0.7
		c0.3-0.2,0.7-0.3,1.1-0.3c0.5,0,0.8,0.1,1.1,0.3c0.3,0.2,0.5,0.5,0.6,0.8s0,0.7-0.1,1c-0.2,0.5-0.5,1-1,1.4s-1.2,0.8-1.8,1.1
		c-0.9,0.4-1.8,0.7-2.3,0.8c-0.1,0.5-0.2,0.9-0.2,1.3l0,0c0,0.6,0.2,1.1,0.5,1.4s0.8,0.5,1.3,0.5l0,0c0.8,0,1.7-0.1,2.6-0.7
		c0.9-0.5,1.7-1.5,2.3-3c0.1-0.2,0.3-0.3,0.6-0.2C2761.5,1851.7,2761.6,1852,2761.5,1852.2z M2754.6,1851.4c0.5-0.1,1-0.3,1.6-0.6
		s1.2-0.6,1.6-1c0.3-0.3,0.6-0.6,0.7-1c0.1-0.2,0.1-0.4,0-0.6c0-0.1-0.1-0.2-0.2-0.3c-0.1-0.1-0.3-0.2-0.6-0.2
		c-0.2,0-0.5,0.1-0.7,0.2s-0.5,0.3-0.7,0.6c-0.6,0.6-1.2,1.5-1.6,2.4C2754.7,1851.1,2754.6,1851.2,2754.6,1851.4z"/>
	<path class="st1" d="M2765.2,1852.2c-0.4,0.8-0.8,1.8-1.4,2.6c-0.6,0.9-1.4,1.6-2.3,1.6l0,0c-0.5,0-0.9-0.2-1.1-0.6
		c-0.2-0.3-0.3-0.7-0.3-1.1v-0.1c0-0.3,0.1-0.7,0.2-1.2s0.3-1,0.5-1.6c0.1-0.2,0.2-0.6,0.4-1.2s0.5-1.3,0.7-2c0-0.1,0.1-0.3,0.2-0.5
		l0.3-0.9c0.1-0.2,0.3-0.3,0.5-0.3c0.2,0.1,0.3,0.3,0.3,0.5l-0.3,0.9l-0.2,0.5c-0.3,0.8-0.5,1.5-0.7,2s-0.3,0.9-0.4,1.2
		c-0.2,0.6-0.4,1.1-0.5,1.5s-0.2,0.8-0.2,1.1l0,0c0,0.2,0,0.5,0.1,0.6s0.2,0.2,0.4,0.2l0,0c0.6,0,1.1-0.5,1.6-1.2
		c0.5-0.8,0.9-1.7,1.3-2.5c0.1-0.2,0.4-0.3,0.6-0.2C2765.2,1851.7,2765.3,1851.9,2765.2,1852.2z M2763,1845.3c0-0.4,0.3-0.7,0.7-0.7
		s0.7,0.3,0.7,0.7c0,0.4-0.3,0.7-0.7,0.7C2763.3,1845.9,2763,1845.6,2763,1845.3z"/>
	<path class="st1" d="M2772.5,1852.2L2772.5,1852.2c-0.8,1.7-1.8,4.2-3.6,4.2l0,0c-0.5,0-0.9-0.2-1.1-0.6c-0.2-0.3-0.3-0.7-0.3-1.1
		v-0.1c0-0.3,0.1-0.7,0.2-1.2s0.3-1,0.5-1.6c0.2-0.5,0.3-0.9,0.4-1.1c0.1-0.4,0.2-0.6,0.4-1l-0.3-0.1c-0.6-0.2-1.2-0.4-1.8-0.7
		c-0.1,0.2-0.1,0.4-0.2,0.5l0,0l-1.6,3.5c-0.1,0.2-0.3,0.3-0.6,0.2c-0.2-0.1-0.3-0.3-0.2-0.6l1.6-3.5c0.1-0.2,0.2-0.4,0.2-0.6
		c-0.7-0.5-1.1-1-1-1.9c0-0.3,0.2-0.6,0.4-0.8l0,0c0.2-0.2,0.5-0.3,0.8-0.3c0.1,0,0.2,0,0.3,0l0,0c0.3,0.1,0.5,0.3,0.6,0.5
		s0.2,0.5,0.2,0.7s0,0.4-0.1,0.6s-0.1,0.4-0.2,0.7c0.6,0.3,1.2,0.5,1.8,0.7c0.3,0.1,0.5,0.2,0.8,0.2c0.2,0.1,0.3,0.3,0.2,0.6l0,0
		c-0.2,0.6-0.3,0.9-0.5,1.4c-0.1,0.3-0.2,0.6-0.4,1.1c-0.2,0.6-0.4,1.1-0.5,1.5s-0.2,0.8-0.2,1.1l0,0c0,0.2,0,0.5,0.2,0.6
		c0.1,0.1,0.2,0.2,0.4,0.2c1.3,0,2.2-2.1,2.8-3.6v-0.1c0.1-0.2,0.3-0.3,0.6-0.2C2772.5,1851.7,2772.6,1851.9,2772.5,1852.2z
		 M2766.5,1846.8c0-0.1,0-0.2-0.1-0.3c0-0.1-0.1-0.1-0.1-0.1l0,0h-0.1c-0.1,0-0.2,0-0.2,0.1l0,0c-0.1,0.1-0.1,0.2-0.1,0.3
		c0,0.4,0.2,0.7,0.5,0.9c0.1-0.2,0.1-0.3,0.2-0.5C2766.5,1847,2766.5,1846.9,2766.5,1846.8z"/>
	<path class="st1" d="M2783,1852.2L2783,1852.2c-0.8,1.7-1.8,4.2-3.6,4.2l0,0l0,0c-0.5,0-0.9-0.2-1.1-0.6c-0.2-0.2-0.2-0.5-0.3-0.8
		c-0.6,0.8-1.3,1.4-2.2,1.4l0,0c-0.5,0-0.9-0.2-1.1-0.6c-0.2-0.3-0.3-0.7-0.3-1.1v-0.1c0-0.3,0.1-0.7,0.2-1.2c0.1-0.5,0.3-1,0.5-1.6
		c0.1-0.3,0.3-0.9,0.6-1.6c0.3-0.9,0.7-2,1.1-3c0.1-0.2,0.3-0.3,0.5-0.2c0.2,0.1,0.3,0.3,0.2,0.5c-0.4,1.2-0.8,2.2-1.1,3
		c-0.3,0.7-0.5,1.3-0.6,1.6c-0.2,0.6-0.4,1.1-0.5,1.5s-0.2,0.8-0.2,1.1l0,0c0,0.2,0,0.5,0.1,0.6s0.2,0.2,0.5,0.2
		c1.2,0,2.2-2.1,2.8-3.6l0,0c0,0,0,0,0-0.1c0.1-0.3,0.3-0.9,0.6-1.6c0.4-0.9,0.7-2,1.1-3c0.1-0.2,0.3-0.3,0.5-0.2
		c0.2,0.1,0.3,0.3,0.3,0.5c-0.4,1.2-0.8,2.2-1.1,3c-0.3,0.7-0.5,1.3-0.6,1.6l0,0v0.1c-0.2,0.5-0.3,1-0.4,1.4
		c-0.1,0.4-0.2,0.8-0.2,1.1l0,0c0,0.2,0,0.5,0.1,0.6s0.2,0.2,0.4,0.2l0,0c1.2,0,2.2-2.1,2.8-3.6v-0.1c0.1-0.2,0.3-0.3,0.6-0.2
		C2783,1851.7,2783.1,1851.9,2783,1852.2z"/>
	<path class="st1" d="M2788.5,1852.8L2788.5,1852.8L2788.5,1852.8c0,1.2-0.5,2.1-1.2,2.7s-1.6,0.9-2.4,0.9l0,0c-0.1,0-0.1,0-0.2,0
		c-0.8,0-1.5-0.4-2-0.9s-0.8-1.2-0.8-1.9c0-0.1,0-0.1,0-0.2c0.1-0.7,0.3-1.4,0.8-2c0.5-0.5,1.1-0.8,1.9-0.8c0.5,0,1,0.2,1.4,0.6
		c0.3,0.3,0.5,0.8,0.6,1.4c0,0.2-0.2,0.4-0.4,0.4s-0.4-0.2-0.4-0.4c0-0.3-0.1-0.6-0.3-0.8c-0.2-0.2-0.5-0.3-0.7-0.3
		c-0.5,0-1,0.2-1.3,0.6c-0.4,0.4-0.6,0.9-0.6,1.4v0.1c0,0.5,0.2,1,0.5,1.4s0.9,0.6,1.4,0.7c0.1,0,0.1,0,0.2,0l0,0
		c0.7,0,1.4-0.2,1.9-0.7c0.5-0.4,0.9-1.1,0.9-2l0,0c0-1-0.5-1.8-1-2.7c-0.1-0.2-0.2-0.4-0.3-0.6c-0.1,0.1-0.3,0.3-0.4,0.5
		c-0.2,0.2-0.4,0.2-0.6,0c-0.2-0.1-0.2-0.4-0.1-0.6c0.2-0.3,0.4-0.5,0.7-0.7l0,0c-0.2-0.6-0.4-1.1-0.3-1.7c0-0.2,0.1-0.4,0.2-0.6
		l0,0c0.1-0.2,0.2-0.3,0.3-0.5c0.1-0.1,0.3-0.2,0.4-0.3c0.2-0.1,0.3-0.1,0.5-0.1c0.3,0,0.5,0.1,0.7,0.3c0.2,0.2,0.2,0.4,0.3,0.7
		c0,0.2,0,0.4-0.1,0.6c0,0.2-0.1,0.4-0.2,0.6c-0.2,0.5-0.5,0.9-0.8,1.2c0.1,0.3,0.3,0.5,0.4,0.8
		C2787.9,1850.6,2788.5,1851.6,2788.5,1852.8z M2787,1847.3c0.1-0.1,0.1-0.3,0.1-0.4s0.1-0.2,0-0.4c0-0.1,0-0.1,0-0.2c0,0,0,0-0.1,0
		h-0.1c-0.1,0-0.1,0.1-0.2,0.1c-0.1,0.1-0.1,0.1-0.2,0.2l0,0c0,0.1-0.1,0.2-0.1,0.3c0,0.3,0,0.6,0.1,0.9
		C2786.7,1847.8,2786.8,1847.5,2787,1847.3z"/>
	<path class="st1" d="M2797.9,1852.2L2797.9,1852.2c-0.8,1.7-1.8,4.2-3.6,4.2l0,0l0,0c-0.5,0-0.9-0.2-1.1-0.6
		c-0.2-0.2-0.2-0.5-0.3-0.8c-0.6,0.8-1.3,1.4-2.2,1.4l0,0c-0.5,0-0.9-0.2-1.1-0.6c-0.2-0.3-0.3-0.7-0.3-1.1v-0.1
		c0-0.3,0.1-0.7,0.2-1.2s0.3-1,0.5-1.6c0.1-0.3,0.3-0.9,0.6-1.6c0.3-0.9,0.7-2,1.1-3c0.1-0.2,0.3-0.3,0.5-0.2
		c0.2,0.1,0.3,0.3,0.2,0.5c-0.4,1.2-0.8,2.2-1.1,3c-0.3,0.7-0.5,1.3-0.6,1.6c-0.2,0.6-0.4,1.1-0.5,1.5s-0.2,0.8-0.2,1.1l0,0
		c0,0.2,0,0.5,0.1,0.6s0.2,0.2,0.5,0.2c1.2,0,2.2-2.1,2.8-3.6l0,0c0,0,0,0,0-0.1c0.1-0.3,0.3-0.9,0.6-1.6c0.4-0.9,0.7-2,1.1-3
		c0.1-0.2,0.3-0.3,0.5-0.2c0.2,0.1,0.3,0.3,0.3,0.5c-0.4,1.2-0.8,2.2-1.1,3c-0.3,0.7-0.5,1.3-0.6,1.6l0,0v0.1
		c-0.2,0.5-0.3,1-0.4,1.4c-0.1,0.4-0.2,0.8-0.2,1.1l0,0c0,0.2,0,0.5,0.1,0.6s0.2,0.2,0.4,0.2l0,0c1.2,0,2.2-2.1,2.8-3.6v-0.1
		c0.1-0.2,0.3-0.3,0.6-0.2C2797.9,1851.7,2798,1851.9,2797.9,1852.2z"/>
	<path class="st1" d="M2805.9,1852.2L2805.9,1852.2c-0.8,1.7-1.8,4.2-3.6,4.2l0,0c-0.5,0-0.9-0.2-1.1-0.6c-0.2-0.3-0.3-0.7-0.3-1.1
		l0,0c-0.7,1-1.5,1.7-2.5,1.6c-0.6,0-1-0.3-1.2-0.7c-0.3-0.4-0.4-1-0.4-1.6c0-1.1,0.6-3.3,1.6-5c0.7-1.2,1.7-2.1,2.8-2.2
		c0.1,0,0.1,0,0.2,0c0.5,0,1,0.3,1.4,0.7c0.1,0.1,0.2,0.2,0.3,0.4c0.1-0.3,0.2-0.6,0.3-0.9c0.1-0.2,0.3-0.3,0.5-0.2s0.3,0.3,0.2,0.5
		c-0.2,0.6-0.6,1.6-1,2.7c-0.3,0.7-0.5,1.4-0.7,2s-0.4,1.1-0.5,1.5s-0.2,0.8-0.2,1.1l0,0c0,0.2,0,0.5,0.1,0.6s0.2,0.2,0.5,0.2
		c1.2,0,2.2-2.1,2.8-3.6v-0.1c0.1-0.2,0.3-0.3,0.6-0.2C2805.9,1851.7,2806,1851.9,2805.9,1852.2z M2801.9,1850.5
		c0.2-0.4,0.3-0.8,0.5-1.1c0-0.1,0-0.1,0-0.1c0-0.5-0.1-0.8-0.4-1.1c-0.2-0.2-0.5-0.4-0.8-0.4h-0.1c-0.8,0-1.5,0.8-2.1,1.8
		c-0.9,1.5-1.4,3.5-1.5,4.5c0,0.5,0.1,0.9,0.2,1.1c0.1,0.2,0.3,0.3,0.6,0.3C2800,1855.5,2801.1,1852.5,2801.9,1850.5z"/>
	<path class="st1" d="M2810.1,1852.2c-0.4,0.9-0.8,1.6-1.2,2.2s-0.8,1.1-1.3,1.4c-0.2,0.2-0.5,0.3-0.8,0.4s-0.6,0.1-0.8,0.1l0,0
		c-0.4,0-0.8-0.1-1-0.4c-0.3-0.3-0.4-0.7-0.4-1.2l0,0l0,0c0-0.3,0.1-0.8,0.2-1.2c0.1-0.5,0.3-1,0.5-1.6c0.5-1.6,1.1-3.2,1.7-4.9
		l0.4-1.3l0.1-0.3c0.1-0.3,0.3-0.8,0.5-1.4c0.1-0.2,0.3-0.3,0.5-0.3c0.2,0.1,0.3,0.3,0.3,0.5c-0.2,0.5-0.4,1.1-0.5,1.4
		c0,0.1-0.1,0.2-0.1,0.4l-0.4,1.3c-0.6,1.6-1.1,3.2-1.7,4.9c-0.2,0.6-0.3,1.1-0.5,1.5c-0.1,0.4-0.2,0.8-0.2,1l0,0
		c0,0.3,0.1,0.5,0.2,0.7c0.1,0.1,0.3,0.2,0.4,0.2l0,0c0.2,0,0.4,0,0.6-0.1s0.4-0.1,0.5-0.3c0.4-0.3,0.7-0.7,1.1-1.2
		c0.4-0.6,0.7-1.3,1.1-2.1c0.1-0.2,0.4-0.3,0.6-0.2C2810.1,1851.7,2810.2,1851.9,2810.1,1852.2z"/>
	<path class="st1" d="M2818.8,1852.8L2818.8,1852.8L2818.8,1852.8c0,1.2-0.5,2.1-1.2,2.7s-1.6,0.9-2.4,0.9l0,0c-0.1,0-0.1,0-0.2,0
		c-0.8,0-1.5-0.4-2-0.9s-0.8-1.2-0.8-1.9c0-0.1,0-0.1,0-0.2c0.1-0.7,0.3-1.4,0.8-2c0.5-0.5,1.1-0.8,1.9-0.8c0.5,0,1,0.2,1.4,0.6
		c0.3,0.3,0.5,0.8,0.6,1.4c0,0.2-0.2,0.4-0.4,0.4s-0.4-0.2-0.4-0.4c0-0.3-0.1-0.6-0.3-0.8c-0.2-0.2-0.5-0.3-0.7-0.3
		c-0.5,0-1,0.2-1.3,0.6c-0.4,0.4-0.6,0.9-0.6,1.4v0.1c0,0.5,0.2,1,0.5,1.4s0.9,0.6,1.4,0.7c0.1,0,0.1,0,0.2,0l0,0
		c0.7,0,1.4-0.2,1.9-0.7c0.5-0.4,0.9-1.1,0.9-2l0,0c0-1-0.5-1.8-1-2.7c-0.1-0.2-0.2-0.4-0.3-0.6c-0.1,0.1-0.3,0.3-0.4,0.5
		c-0.2,0.2-0.4,0.2-0.6,0c-0.2-0.1-0.2-0.4-0.1-0.6c0.2-0.3,0.4-0.5,0.7-0.7l0,0c-0.2-0.6-0.4-1.1-0.3-1.7c0-0.2,0.1-0.4,0.2-0.6
		l0,0c0.1-0.2,0.2-0.3,0.3-0.5c0.1-0.1,0.3-0.2,0.4-0.3c0.2-0.1,0.3-0.1,0.5-0.1c0.3,0,0.5,0.1,0.7,0.3c0.2,0.2,0.2,0.4,0.3,0.7
		c0,0.2,0,0.4-0.1,0.6c0,0.2-0.1,0.4-0.2,0.6c-0.2,0.5-0.5,0.9-0.8,1.2c0.1,0.3,0.3,0.5,0.4,0.8
		C2818.2,1850.6,2818.8,1851.6,2818.8,1852.8z M2817.3,1847.3c0.1-0.1,0.1-0.3,0.1-0.4s0.1-0.2,0-0.4c0-0.1,0-0.1,0-0.2
		c0,0,0,0-0.1,0h-0.1c-0.1,0-0.1,0.1-0.2,0.1c-0.1,0.1-0.1,0.1-0.2,0.2l0,0c0,0.1-0.1,0.2-0.1,0.3c0,0.3,0,0.6,0.1,0.9
		C2817,1847.8,2817.2,1847.5,2817.3,1847.3z"/>
	<path class="st1" d="M2828.6,1852.1c0,0.1-0.1,0.3-0.2,0.4c-0.1,0.1-0.1,0.2-0.2,0.3c-0.3,0.5-0.6,1-1,1.4s-1,0.7-1.7,0.7
		c-0.2,0-0.4,0-0.6-0.1c-0.3-0.1-0.6-0.2-0.8-0.5c-0.8,1.1-1.8,1.9-3,1.8l0,0l0,0l0,0c-0.7,0-1.2-0.4-1.4-0.8
		c-0.9,2.5-1.7,4.7-1.9,5.3c-0.1,0.2-0.3,0.3-0.5,0.3c-0.2-0.1-0.3-0.3-0.3-0.5c0.2-0.6,1.2-3.4,2.2-6.2c1.1-3.1,2.3-6.3,2.5-6.9
		c0-0.1,0.1-0.2,0.1-0.3c0.1-0.2,0.3-0.3,0.5-0.3c0.2,0.1,0.3,0.3,0.3,0.5l-0.2,0.4c0.6-0.6,1.2-1,2-1c0.6,0,1,0.3,1.3,0.7
		s0.4,1,0.4,1.6v0.1l0,0c-0.1,1.1-0.6,2.9-1.4,4.4c0,0.1-0.1,0.1-0.1,0.2c0.2,0.2,0.4,0.3,0.6,0.4c0.1,0,0.2,0,0.4,0
		c0.5,0,0.8-0.2,1.2-0.5c0.3-0.3,0.6-0.8,0.8-1.2c0-0.1,0.1-0.2,0.2-0.3c0-0.1,0.1-0.2,0.1-0.4c0.1-0.2,0.3-0.3,0.6-0.2
		C2828.6,1851.7,2828.7,1851.9,2828.6,1852.1z M2824.4,1852.1c-0.1,0.2-0.1,0.4-0.1,0.5c0.6-1.2,0.9-2.5,1-3.4l0,0v-0.1l0,0
		c0-0.5,0-0.9-0.2-1.1c-0.1-0.2-0.3-0.3-0.6-0.3c-1.6,0-2.8,3-3.6,5l-0.1,0.3c-0.1,0.5-0.3,1-0.3,1.4c0,0.6,0.1,1,0.7,1l0,0l0,0
		c0.9,0,1.8-0.7,2.4-1.7c-0.1-0.3-0.2-0.6-0.2-1c0-0.3,0-0.6,0.1-1c0.1-0.2,0.3-0.4,0.5-0.3
		C2824.3,1851.6,2824.4,1851.9,2824.4,1852.1z"/>
	<path class="st1" d="M2836.3,1852.1c-0.1,0.1-0.1,0.3-0.2,0.4s-0.1,0.2-0.2,0.3c-0.3,0.5-0.6,1-1,1.4c-0.5,0.4-1,0.7-1.7,0.7
		c-0.2,0-0.4,0-0.6-0.1c-0.3-0.1-0.6-0.3-0.9-0.5c-0.7,1-1.7,1.8-2.7,1.8c-3.3,0-1.1-5.5,0-7.3c0.7-1.2,1.7-2.1,2.8-2.1l0,0
		c0.6,0,1.1,0.2,1.5,0.7c0.3,0.4,0.5,0.9,0.5,1.6c0,1.3-0.7,3.1-1.5,4.6c0.1,0.2,0.4,0.3,0.6,0.4c0.1,0,0.2,0,0.3,0
		c0.5,0,0.9-0.2,1.2-0.5s0.6-0.8,0.8-1.2c0.1-0.1,0.1-0.2,0.2-0.3c0.1-0.1,0.1-0.2,0.2-0.4c0.1-0.2,0.3-0.3,0.6-0.2
		C2836.3,1851.7,2836.4,1851.9,2836.3,1852.1z M2832.1,1852.1c-0.1,0.2-0.1,0.3-0.1,0.5c0.6-1.2,1-2.5,1-3.4c0-0.5-0.1-0.8-0.3-1
		s-0.5-0.4-0.9-0.4c-0.8,0-1.5,0.7-2,1.7c-0.8,1.3-2.7,6-0.7,6c0.7,0,1.6-0.8,2.2-1.7c-0.1-0.3-0.2-0.6-0.2-0.9s0-0.6,0.1-1
		c0.1-0.2,0.3-0.4,0.5-0.3C2832,1851.6,2832.2,1851.9,2832.1,1852.1z"/>
	<path class="st1" d="M2840.4,1852.2c-0.4,0.9-0.8,1.6-1.2,2.2s-0.8,1.1-1.3,1.4c-0.2,0.2-0.5,0.3-0.8,0.4s-0.6,0.1-0.8,0.1l0,0
		c-0.4,0-0.8-0.1-1-0.4c-0.3-0.3-0.4-0.7-0.4-1.2l0,0l0,0c0-0.3,0.1-0.7,0.2-1.2s0.3-1,0.5-1.6c0.1-0.2,0.2-0.6,0.4-1.2
		s0.5-1.3,0.7-2c0-0.1,0.1-0.4,0.3-0.9h-1.3c-0.2,0-0.4-0.2-0.4-0.4c0-0.2,0.2-0.4,0.4-0.4h1.5c0.1-0.1,0.1-0.3,0.2-0.4
		c0.4-1.1,0.8-2.3,0.9-2.5c0.1-0.2,0.3-0.3,0.5-0.3c0.2,0.1,0.3,0.3,0.3,0.5c-0.1,0.2-0.5,1.4-0.9,2.5c0,0.1,0,0.1-0.1,0.2h1.3
		c0.2,0,0.4,0.2,0.4,0.4c0,0.2-0.2,0.4-0.4,0.4h-1.6c-0.2,0.6-0.3,1-0.4,1.2c-0.3,0.8-0.5,1.5-0.7,2s-0.3,0.9-0.4,1.2
		c-0.2,0.6-0.4,1.1-0.5,1.5s-0.2,0.8-0.2,1.1l0,0c0,0.3,0.1,0.5,0.2,0.7c0.1,0.1,0.3,0.2,0.4,0.2l0,0c0.2,0,0.4,0,0.6-0.1
		c0.2-0.1,0.4-0.1,0.5-0.3c0.4-0.3,0.7-0.7,1.1-1.2c0.4-0.6,0.7-1.3,1.1-2.1c0.1-0.2,0.4-0.3,0.6-0.2
		C2840.4,1851.7,2840.5,1851.9,2840.4,1852.2z"/>
</g>
<g>
	<path class="st1" d="M2723.4,1849.2l-6.7,2.5l5,2.3c0.3,0.1,0.4,0.4,0.3,0.7c-0.1,0.2-0.4,0.4-0.7,0.2l-6.2-2.7
		c-0.1,0-0.2-0.1-0.3-0.3c-0.1-0.3,0-0.6,0.3-0.7l7.9-3c0.3-0.1,0.6,0,0.7,0.3C2723.8,1848.8,2723.7,1849.1,2723.4,1849.2z"/>
	<path class="st1" d="M2735.3,1849.2l-6.7,2.5l5,2.3c0.3,0.1,0.4,0.4,0.3,0.7c-0.1,0.2-0.4,0.4-0.7,0.2l-6.2-2.7
		c-0.1,0-0.2-0.1-0.3-0.3c-0.1-0.3,0-0.6,0.3-0.7l7.9-3c0.3-0.1,0.6,0,0.7,0.3C2735.6,1848.8,2735.5,1849.1,2735.3,1849.2z"/>
</g>
<g>
	<path class="st2" d="M1148.5,604h20.6c-0.1-1.2-0.3-2.5-0.4-3.7c-1-11.4-2.1-22.7-2.8-35c-0.4-5.6-0.7-11.1-0.7-16.8
		c0.1-10.6,15.6-27.9,23.5-35.1c-6-4.3-5.8-5-11.1,0.2c-5.5,5.4-10.8,11.4-16.9,16.3c-3-5.9-6-11.9-8.9-17.8
		c-1.3,3.2-3.5,1.7-4.8,4.9c-1.1,2.7,4.5,18.3,4.6,22.2v0.1C1151.5,539.3,1154.2,568.3,1148.5,604z"/>
	<ellipse class="st2" cx="1192.2" cy="364.4" rx="45.5" ry="39.4"/>
	<ellipse class="st2" cx="1183.8" cy="398.7" rx="45.5" ry="39.4"/>
	<ellipse class="st2" cx="1212.3" cy="465.6" rx="62.3" ry="54.1"/>
	<ellipse class="st2" cx="1120.2" cy="386.1" rx="47.7" ry="38.3"/>
	<ellipse class="st2" cx="1233.8" cy="406.5" rx="32.4" ry="26"/>
	<ellipse class="st2" cx="1120.2" cy="454.9" rx="76.8" ry="68.7"/>
</g>
</svg>
