<?xml version="1.0" encoding="utf-8"?>
<!-- Generator: Adobe Illustrator 19.1.0, SVG Export Plug-In . SVG Version: 6.00 Build 0)  -->
<svg version="1.1" id="Layer_1" xmlns="http://www.w3.org/2000/svg" xmlns:xlink="http://www.w3.org/1999/xlink" x="0px" y="0px"
	 viewBox="182 325 1156.4 360" style="enable-background:new 182 325 1156.4 360;" xml:space="preserve">
<style type="text/css">
	.st0{fill:#03A8A0;}
	.st1{opacity:0.2;fill:#03A8A0;enable-background:new    ;}
	.st2{fill:#E6E7E8;}
	.st3{fill:#D3CB7D;}
	.st4{fill:#50516A;}
	.st5{fill:#FFFFFF;}
</style>
<g>
	<g>
		<g>
			<g>
				<g>
					<g>
						<path class="st0" d="M241.7,1013.6c-0.3,1.3-1.1-1-3.9-4.7c-2.7-3.7-4-2.7-6.4-5.6c-0.2-0.3-0.4-0.6-0.6-0.9
							c-1.4-2.5,0.2-4.2,1.9-3.7c0.1,0,0.1,0,0.2,0.1C235.7,999.9,243.1,1007.1,241.7,1013.6z"/>
						<path class="st0" d="M230.8,1002.4c-0.5,0-1.2-0.1-2-0.3c-1.6-0.5-3-1.2-4.2-1.9c-0.5-0.3-1-0.6-1.5-0.9
							c-1.5-0.9-2.9-1.8-4.7-2.2c-0.3-0.1-0.6-0.2-0.9-0.3c-2.8-1.1-2.6-3.6-0.9-4.1c0.3-0.1,0.9-0.2,1.5-0.2c1.5,0,3.8,0.2,6.1,0.8
							c0.6,0.1,1.1,0.3,1.7,0.5c3.2,1,6.2,2.7,6.9,5c0,0.1,0,0.1,0.1,0.2C233.2,1000,233.3,1002.3,230.8,1002.4z"/>
						<path class="st0" d="M217.7,996.9c-0.4,0.2-1,0.3-1.7,0.4c-1.5,0.2-2.9,0.2-4.1,0.1c-0.6,0-1.2-0.1-1.7-0.2
							c-1.6-0.2-3.1-0.4-4.6-0.2c-0.3,0-0.7,0.1-1,0.2c-3.7,0.8-4.8-1.9-3.5-3.2c0.8-0.8,3.2-1.8,6-2.4c0.6-0.1,1.1-0.2,1.7-0.3
							c1.2-0.2,2.4-0.3,3.5-0.3c0.1,0,0.2,0,0.3,0c0.1,0,0.2,0,0.3,0c2.2,0,4.2,0.5,5.3,1.7c0.1,0.1,0.1,0.1,0.2,0.2
							C219.1,993.6,220.2,995.8,217.7,996.9z"/>
					</g>
					<g>
						<path class="st0" d="M245.9,1001.3c-0.1,1.3-1.2-0.8-4.4-4.2c-3.1-3.4-4.3-2.2-7-4.9c-0.3-0.3-0.5-0.5-0.7-0.8
							c-1.7-2.3-0.2-4.2,1.4-3.9c0.1,0,0.1,0,0.2,0C238.4,988.5,246.6,994.7,245.9,1001.3z"/>
						<path class="st0" d="M233.9,991.5c-0.5,0.1-1.2,0.1-2-0.1c-1.7-0.3-3.1-0.8-4.3-1.4c-0.5-0.2-1.1-0.5-1.6-0.7
							c-1.6-0.8-3.1-1.5-4.9-1.7c-0.3,0-0.6-0.1-0.9-0.2c-2.1-0.5-2.7-2-2.3-3c0.1-0.4,0.5-0.8,0.9-1c0.3-0.1,0.7-0.2,1.1-0.3
							c0.1,0,0.2,0,0.3-0.1c1.5-0.2,3.8-0.2,6.1,0.1c0.6,0.1,1.2,0.2,1.8,0.3c3.3,0.7,6.4,2,7.4,4.2c0,0.1,0.1,0.1,0.1,0.2
							C235.9,988.8,236.3,991.1,233.9,991.5z"/>
						<path class="st0" d="M220.2,987.4c-0.4,0.2-0.9,0.4-1.6,0.6c-1.5,0.4-2.8,0.5-4.1,0.6c-0.6,0-1.2,0-1.8,0
							c-1.1,0-2.1,0-3.2,0.1c-0.8,0.1-1.5,0.2-2.3,0.5c-3.6,1.2-5-1.3-3.8-2.8c0.5-0.6,1.8-1.5,3.5-2.2c0.7-0.3,1.4-0.6,2.1-0.9
							c0.4-0.1,0.8-0.3,1.2-0.4c0.9-0.3,1.8-0.5,2.7-0.7c0.5-0.1,1-0.2,1.5-0.2c0.1,0,0.2,0,0.2,0c2.1-0.2,4.1,0,5.4,1
							c0,0,0.1,0,0.1,0.1c0.1,0.1,0.1,0.1,0.2,0.2C221.2,984,222.5,986.1,220.2,987.4z"/>
					</g>
					<g>
						<path class="st0" d="M231.2,1030.3c-0.6,1.1-0.8-1.2-2.4-5.6c-1.6-4.3-3.1-3.7-4.6-7.2c-0.2-0.3-0.3-0.7-0.3-1
							c-0.7-2.8,1.4-4,2.8-3c0,0,0.1,0.1,0.2,0.1C229.2,1015.5,234.4,1024.4,231.2,1030.3z"/>
						<path class="st0" d="M226.8,1013.6v0.2c0,1.1-0.6,3.3-3,2.7c-0.5-0.1-1.1-0.4-1.8-0.8c-2.8-1.7-4.3-4-6.1-5.7
							c-0.4-0.4-0.8-0.8-1.3-1.1c-0.4-0.3-0.8-0.6-1.2-0.8c-0.3-0.2-0.5-0.3-0.7-0.5c-2.4-1.8-1.5-4.1,0.2-4.2c0.4,0,0.9,0,1.5,0.2
							c0.4,0.1,0.8,0.2,1.3,0.4s1,0.4,1.5,0.6C221.3,1006.3,226.7,1010,226.8,1013.6z"/>
						<path class="st0" d="M212.7,1007.5c-0.5,0.1-1,0.1-1.7,0c-2.2-0.3-4-1-5.6-1.7c-1.6-0.7-3-1.3-4.7-1.6c-0.1,0-0.1,0-0.2,0
							c-0.2,0-0.3,0-0.5,0c-1.1-0.1-1.9-0.4-2.4-0.8c-1.3-0.9-1.2-2.4-0.2-3.1c0.1,0,0.1-0.1,0.2-0.1c0.9-0.5,3.2-0.8,5.7-0.7
							c0.4,0,0.7,0,1.1,0c1.5,0.1,3,0.3,4.4,0.7c2.5,0.6,4.7,1.7,5.6,3.4c0,0.1,0.1,0.2,0.1,0.3
							C214.9,1004.8,215.4,1007.2,212.7,1007.5z"/>
					</g>
					<g>
						<path class="st0" d="M216.9,1044.3c-0.9,0.9-0.4-1.4-0.6-6.1c-0.2-4.6-1.8-4.5-2.2-8.2c0-0.4,0-0.7,0-1.1
							c0.2-2.8,2.6-3.4,3.6-2c0,0,0.1,0.1,0.1,0.2C219.5,1029.6,221.7,1039.7,216.9,1044.3z"/>
						<path class="st0" d="M217.8,1027.1c0,0.1,0,0.1-0.1,0.2c-0.4,1-1.6,3-3.7,1.7c-0.4-0.3-0.9-0.7-1.5-1.3
							c-2.2-2.6-2.9-5.2-4.1-7.5c-0.3-0.5-0.6-1.1-1-1.6c-0.2-0.3-0.4-0.5-0.7-0.8c-0.2-0.2-0.4-0.5-0.6-0.7
							c-1.7-2.4-0.2-4.4,1.5-3.9c0.2,0,0.4,0.1,0.6,0.2c0.2,0.1,0.5,0.3,0.7,0.4s0.3,0.2,0.5,0.3
							C213.1,1016.5,219,1023,217.8,1027.1z"/>
						<path class="st0" d="M207.7,1016.9c-0.4,0.1-0.9,0.2-1.5,0.1c-0.5-0.1-1-0.3-1.6-0.5c-2.1-1-3.6-2.3-5-3.5
							c-0.9-0.8-1.7-1.5-2.7-2.1c-0.5-0.4-1.1-0.7-1.8-0.9c-3.5-1.4-3-4.2-1.1-4.6c0.6-0.1,1.5,0,2.6,0.2c2,0.4,4.7,1.3,7.1,2.6l0,0
							c2.1,1.1,3.9,2.5,4.8,4.1c0.3,0.5,0.5,1,0.6,1.5c0,0.1,0,0.2,0,0.3C209.2,1014.8,209,1016.5,207.7,1016.9z"/>
					</g>
				</g>
			</g>
			<g>
				<g>
					<g>
						<path class="st0" d="M85.9,1013.6c0.3,1.3,1.1-1,3.9-4.7c2.7-3.7,4-2.7,6.4-5.6c0.2-0.3,0.4-0.6,0.6-0.9
							c1.4-2.5-0.2-4.2-1.9-3.7c-0.1,0-0.1,0-0.2,0.1C91.9,999.9,84.5,1007.1,85.9,1013.6z"/>
						<path class="st0" d="M96.8,1002.4c0.5,0,1.2-0.1,2-0.3c1.6-0.5,3-1.2,4.2-1.9c0.5-0.3,1-0.6,1.5-0.9c1.5-0.9,2.9-1.8,4.7-2.2
							c0.3-0.1,0.6-0.2,0.8-0.3c2.8-1.1,2.6-3.5,0.9-4.1c-0.3-0.1-0.8-0.2-1.5-0.2c-1.5,0-3.8,0.2-6.1,0.8c-0.6,0.1-1.1,0.3-1.7,0.5
							c-3.2,1-6.2,2.7-6.9,5c0,0.1,0,0.1-0.1,0.2C94.4,1000,94.4,1002.3,96.8,1002.4z"/>
						<path class="st0" d="M110,996.8c0.4,0.2,1,0.3,1.7,0.4c1.5,0.2,2.9,0.2,4.1,0.1c2.6-0.2,4.9-0.8,7.4-0.3
							c3.7,0.8,4.8-1.9,3.5-3.2c-0.8-0.8-3.2-1.8-6-2.4c-1.8-0.4-3.7-0.7-5.6-0.7c-0.1,0-0.2,0-0.2,0c-2.2,0-4.2,0.5-5.3,1.7
							c-0.1,0.1-0.1,0.1-0.2,0.2C108.6,993.6,107.4,995.8,110,996.8z"/>
					</g>
					<g>
						<path class="st0" d="M81.7,1001.3c0.1,1.3,1.2-0.8,4.4-4.2c3.1-3.4,4.3-2.2,7-4.9c0.3-0.3,0.5-0.5,0.7-0.8
							c1.7-2.3,0.2-4.2-1.4-3.9c-0.1,0-0.1,0-0.2,0C89.2,988.5,81,994.7,81.7,1001.3z"/>
						<path class="st0" d="M93.7,991.5c0.5,0.1,1.2,0.1,2-0.1c1.7-0.3,3.1-0.8,4.3-1.4c0.5-0.2,1.1-0.5,1.6-0.7
							c1.6-0.8,3.1-1.5,4.9-1.7c0.3,0,0.6-0.1,0.9-0.2c2.9-0.7,3-3.2,1.4-4c-0.3-0.2-0.8-0.3-1.4-0.4c-1.5-0.2-3.8-0.2-6.1,0.1
							c-0.6,0.1-1.2,0.2-1.7,0.3c-3.3,0.7-6.4,2-7.4,4.2c0,0.1-0.1,0.1-0.1,0.2C91.7,988.8,91.3,991.1,93.7,991.5z"/>
						<path class="st0" d="M107.5,987.4c0.4,0.2,0.9,0.4,1.6,0.6c1.5,0.4,2.8,0.5,4.1,0.6c2.6,0.1,4.9-0.2,7.3,0.6
							c3.6,1.2,5-1.3,3.8-2.8c-0.7-0.9-3-2.1-5.7-3.1c-1.7-0.6-3.6-1.1-5.4-1.3c-0.1,0-0.2,0-0.2,0c-2.2-0.2-4.2,0-5.5,1.1
							c-0.1,0.1-0.1,0.1-0.2,0.2C106.4,984,105.1,986.1,107.5,987.4z"/>
					</g>
					<g>
						<path class="st0" d="M96.5,1030.3c0.6,1.1,0.8-1.2,2.4-5.6c1.6-4.3,3.1-3.7,4.6-7.2c0.2-0.4,0.3-0.7,0.3-1
							c0.7-2.8-1.4-4-2.8-3c0,0-0.1,0.1-0.2,0.1C98.4,1015.5,93.2,1024.4,96.5,1030.3z"/>
						<path class="st0" d="M100.8,1013.6v0.2c0,1.1,0.6,3.3,3,2.7c0.5-0.1,1.1-0.4,1.8-0.8c2.8-1.7,4.3-4,6.1-5.7
							c0.4-0.4,0.8-0.8,1.3-1.1c0.4-0.3,0.8-0.6,1.2-0.8c0.3-0.2,0.5-0.3,0.7-0.5c2.4-1.8,1.5-4.1-0.2-4.2c-0.4,0-0.9,0.1-1.5,0.2
							c-0.4,0.1-0.8,0.2-1.3,0.4s-1,0.4-1.5,0.6C106.3,1006.3,100.9,1010,100.8,1013.6z"/>
						<path class="st0" d="M114.9,1007.5c0.5,0.1,1,0.1,1.7,0c4.3-0.5,6.9-2.8,10.3-3.3c0.1,0,0.1,0,0.2,0c0.2,0,0.3,0,0.5,0
							c3.6-0.2,4.1-2.9,2.7-3.9c-0.1,0-0.1-0.1-0.2-0.1c-1-0.6-3.8-0.8-6.8-0.7c-4.1,0.3-8.7,1.4-10,4c0,0.1-0.1,0.2-0.1,0.3
							C112.7,1004.8,112.2,1007.2,114.9,1007.5z"/>
					</g>
					<g>
						<path class="st0" d="M110.7,1044.3c0.9,0.9,0.4-1.4,0.6-6c0.2-4.6,1.8-4.5,2.2-8.2c0-0.4,0-0.7,0-1.1c-0.2-2.8-2.6-3.4-3.6-2
							c0,0-0.1,0.1-0.1,0.2C108.1,1029.6,105.9,1039.7,110.7,1044.3z"/>
						<path class="st0" d="M109.8,1027.1c0,0.1,0,0.1,0.1,0.2c0.4,1,1.6,3,3.7,1.7c0.5-0.3,0.9-0.7,1.5-1.3c2.2-2.6,2.9-5.2,4.1-7.5
							c0.3-0.5,0.6-1.1,1-1.6c0.2-0.3,0.4-0.5,0.7-0.8c0.2-0.2,0.4-0.5,0.6-0.7c1.7-2.4,0.2-4.4-1.5-3.9c-0.2,0-0.4,0.1-0.6,0.2
							c-0.2,0.1-0.5,0.2-0.7,0.4c-0.2,0.1-0.3,0.2-0.5,0.3C114.5,1016.5,108.6,1023,109.8,1027.1z"/>
						<path class="st0" d="M119.9,1016.9c0.4,0.1,0.9,0.2,1.5,0.1c0.5-0.1,1-0.3,1.6-0.6c3.4-1.6,5.2-4,7.7-5.6
							c0.5-0.4,1.1-0.7,1.8-0.9c3.5-1.4,3-4.2,1.1-4.6c-0.6-0.1-1.5,0-2.6,0.2c-3.8,0.8-10,3.4-11.9,6.7c-0.3,0.5-0.5,1-0.6,1.5
							c0,0.1,0,0.2,0,0.3C118.4,1014.8,118.6,1016.5,119.9,1016.9z"/>
					</g>
				</g>
			</g>
		</g>
		<path class="st0" d="M213,984.3c0,0.8,0,1.5-0.1,2.3l0,0c0,0.1,0,0.2,0,0.2c0,0.1,0,0.1,0,0.2c-0.1,0.5-0.1,1.1-0.2,1.6
			c-0.1,0.7-0.3,1.5-0.4,2.2c-0.5,2.1-1.2,4.3-2.1,6.4c-0.4,1-0.9,2-1.4,2.9c-1,1.9-2.1,3.8-3.4,5.7c-0.5,0.8-1.1,1.6-1.7,2.3l0,0
			c-1.3,1.7-2.6,3.3-4.1,4.8l0,0c-3.2,3.4-6.8,6.4-10.6,9c-0.6,0.4-1.2,0.8-1.8,1.2c-7.2,4.5-15.3,7.2-23.3,7.3h-0.3
			c-0.3,0-0.5,0-0.7,0c-8.6-0.2-17.1-3.5-24.6-8.5c-3.8-2.6-7.2-5.6-10.3-8.8c-0.1-0.1-0.2-0.2-0.3-0.3c-1.3-1.4-2.6-3-3.8-4.5
			c-0.6-0.8-1.1-1.6-1.7-2.4c-1.3-1.9-2.4-3.8-3.3-5.7c-0.5-1-0.9-2-1.4-2.9c-0.9-2.1-1.6-4.3-2.1-6.4c-0.2-0.7-0.3-1.5-0.4-2.2
			c-0.1-0.6-0.2-1.2-0.2-1.8v-0.1c0-0.1,0-0.1,0-0.2c-0.1-0.8-0.1-1.5-0.1-2.3c0-0.7,0-1.4,0.1-2.1c0.2-2.7,0.8-5.3,1.8-7.8
			c0.1-0.3,0.2-0.6,0.3-0.8c0.4-0.9,0.8-1.7,1.2-2.5c0.6-1.1,1.2-2.1,1.9-3.1c1.4-2.1,3-4,4.9-5.8c0.1-0.1,0.2-0.2,0.3-0.3
			c5.3-5.2,12.3-9.3,19.9-12c3.5-1.2,7.2-2.1,11-2.6c2.2-0.3,4.5-0.5,6.8-0.5c0.3,0,0.5,0,0.7,0h0.3c2.6,0,5.2,0.2,7.8,0.6
			c3.3,0.5,6.7,1.3,9.9,2.3c0.3,0.1,0.7,0.2,1,0.3c7.6,2.6,14.6,6.8,19.9,11.9c0.1,0.1,0.2,0.2,0.2,0.2c1.9,1.8,3.6,3.8,5,5.9
			c0.7,1,1.3,2,1.9,3.1c0.5,0.8,0.9,1.7,1.2,2.6c0.1,0.3,0.2,0.5,0.3,0.8c1,2.5,1.6,5.1,1.8,7.8C213,982.9,213,983.6,213,984.3z"/>
		<g>
			<g>
				<g>
					<path class="st0" d="M229.8,968.4c-0.1,3.3-1.7,6.5-3.9,9.2c-0.5,0.7-1.1,1.3-1.7,1.9c-1.3,1.3-2.7,2.5-4.1,3.5
						c-0.1,0-0.1,0.1-0.2,0.1c-0.7,0.5-1.4,0.9-2.1,1.3c-1.2,0.7-2.4,1.3-3.5,1.7c-0.1,0-0.1,0.1-0.2,0.1c-0.4,0.2-0.9,0.3-1.2,0.4
						l0,0c-0.4,0.1-0.8,0.2-1.1,0.2c-0.6,0.1-1.3,0-1.9-0.2l0,0c-1.2-0.4-2.3-1.2-3.1-2.3c-1.2-1.9-1.4-4.5,1.2-7.1
						c0.5-0.5,1-1.1,1.4-1.6c0.1-0.1,0.1-0.1,0.1-0.2c0.4-0.6,0.8-1.1,1.2-1.7c2.2-3.5,3-6.9,6.7-11.6c0.2-0.3,0.5-0.6,0.7-0.9
						c0.3-0.4,0.6-0.7,0.9-1c1.4-1.3,2.6-1.9,3.8-1.9c0.8,0,1.5,0.2,2.1,0.5c1,0.5,1.8,1.4,2.5,2.3c0.7,1,1.3,2.1,1.6,2.8
						C229.6,965.4,229.9,966.9,229.8,968.4z"/>
					<path class="st0" d="M231,950.3c0,0.7-0.1,1.4-0.2,2c-0.6,3.4-2,6.7-3.3,8.7l-0.1,0.1l-0.1,0.1c-0.4,0.6-0.9,1.1-1.3,1.5
						c-0.4,0.3-0.8,0.6-1.3,0.7c-2.2,0.7-5.2-0.3-5.6-3.3c-0.1-0.6-0.1-1.3,0-2c0.1-0.6,0.2-1.1,0.2-1.7c0.2-3.6-0.8-6-1-10
						c0-0.7,0-1.5,0-2.4c0-0.3,0-0.6,0.1-0.9c0.2-2.1,0.8-3.4,1.7-4.1c0.5-0.4,1-0.6,1.6-0.6c1.8-0.2,3.9,0.8,5,1.5
						c0.8,0.5,1.5,1.1,2,1.7c0.2,0.3,0.4,0.5,0.6,0.8C230.7,944.7,231.2,947.5,231,950.3z"/>
					<g>
						<path class="st0" d="M211.6,935.3c-2.3,1.1-5.2,1.2-7.9-0.5l0,0c-0.8-0.5-1.5-1.1-2.3-1.7c-0.3-0.2-0.5-0.4-0.8-0.6
							c-0.2-0.1-0.3-0.3-0.5-0.4c-0.9-0.7-1.7-1.4-2.5-2.2c-14.5-13.4-14.6-31.1-10.6-27.5c1.7,1.5,0,7.3,11,15.5
							c3.5,2.6,6.5,3.9,9,4.4c0,0,0.9-0.1,2.2-0.1c1.2,0,2.6,0.2,3.9,0.7c1.4,0.6,2.5,1.6,2.8,3.3
							C216.8,930.4,214.7,933.8,211.6,935.3z"/>
						<path class="st0" d="M232.8,935.1c-0.6,1.4-1.4,2.8-2.3,4.2c-0.4,0.6-0.9,1.3-1.4,1.9c-0.1,0.2-0.3,0.3-0.4,0.5
							c-0.1,0.1-0.2,0.2-0.2,0.3c-3.1,3.5-6.7,4.7-10.2,4.5l0,0c-5.9-0.4-11.7-4.6-15.6-8.5c-0.7-0.7-1.4-1.4-2-2.1
							c-0.1-0.1-0.2-0.2-0.3-0.3c-1.5-1.7-2.4-3.1-2.5-3.7c-0.2-0.8-0.3-1.4-0.2-1.9c0.1-0.8,0.7-1.1,1.5-1.2
							c1.3-0.2,2.2,3.5,8.3-3.4c0.6-0.6,1.2-1.6,1.7-2.9c0-0.1,0.1-0.2,0.1-0.3c1.4-3.9,1.2-10.2-7.4-17.8
							c-11.7-10.4-17.7-7.1-19.9-8.7c-5.4-4,18.2-8.3,37.6,9C230.5,914.5,237.1,924.7,232.8,935.1z"/>
					</g>
				</g>
			</g>
			<g>
				<g>
					<path class="st0" d="M97.8,968.4c0.1,3.3,1.7,6.5,3.9,9.2c0.5,0.7,1.1,1.3,1.7,1.9c3.1,3.1,7,5.5,9.9,6.6c0.1,0,0.1,0,0.2,0.1
						c0.9,0.3,1.7,0.5,2.3,0.6s1.3,0,1.9-0.2c3.2-1,6-5.3,1.9-9.5c-0.5-0.5-1-1.1-1.4-1.6c-3.3-4.2-3.7-8-8-13.5
						c-0.2-0.3-0.5-0.6-0.7-0.9c-1.7-2.1-3.3-2.9-4.7-2.9c-0.8,0-1.5,0.2-2.1,0.5c-2,1.1-3.5,3.6-4.1,5.1
						C98,965.4,97.7,966.9,97.8,968.4z"/>
					<path class="st0" d="M98.4,942.5c-1.5,2.2-1.9,5-1.7,7.8c0,0.7,0.1,1.4,0.2,2c0.6,3.5,2,6.8,3.4,8.9l0.1,0.1
						c0.4,0.6,0.9,1.1,1.2,1.4c0.4,0.3,0.8,0.6,1.3,0.7c2.6,0.8,6.3-0.7,5.6-5.3c-0.1-0.6-0.2-1.1-0.2-1.7c-0.3-4.3,1.3-6.9,1-12.5
						c0-0.3,0-0.6-0.1-0.9c-0.2-2.1-0.8-3.4-1.7-4.1c-0.5-0.4-1-0.6-1.6-0.6c-1.8-0.2-3.9,0.8-5,1.5C99.9,940.7,99,941.5,98.4,942.5
						z"/>
					<g>
						<path class="st0" d="M111.6,926.3c-0.8,4.1,1.3,7.6,4.4,9.1c2.3,1.1,5.2,1.2,7.9-0.5l0,0c0.8-0.5,1.6-1.1,2.3-1.7
							c0.3-0.2,0.5-0.4,0.8-0.6c0.2-0.1,0.3-0.3,0.5-0.4c17-13.6,17.4-33.4,13.1-29.6c-1.7,1.5,0,7.3-11,15.5
							c-3.5,2.6-6.5,3.9-9,4.4c0,0-3.5-0.5-6.1,0.6C113.1,923.6,112,924.6,111.6,926.3z"/>
						<path class="st0" d="M108,904.8c-10.9,9.7-17.5,20-13.2,30.3c0.6,1.4,1.3,2.8,2.3,4.2c0.4,0.6,0.9,1.3,1.4,1.9
							c0.2,0.3,0.4,0.5,0.7,0.8c3.1,3.5,6.7,4.7,10.2,4.5c5.9-0.4,11.7-4.6,15.6-8.5c0.7-0.7,1.4-1.5,2-2.1c0.1-0.1,0.2-0.2,0.3-0.3
							c1.5-1.7,2.4-3.1,2.5-3.7c0.6-2.3,0-2.9-1.4-3c-1.3-0.2-2.2,3.5-8.3-3.4c-0.6-0.6-1.2-1.6-1.7-2.9c-1.5-3.8-1.5-10.3,7.3-18.1
							c11.7-10.4,17.8-7.1,19.9-8.7C151,891.7,127.4,887.4,108,904.8z"/>
					</g>
				</g>
			</g>
		</g>
		<g>
			<g>
				<path class="st0" d="M183.4,946.6c0,1.2-0.3,2.3-1,3.3c-1.1,1.7-2.9,2.7-5,2.7c-0.4,0-0.8,0-1.1-0.1c-2.6-0.5-4.5-2.6-4.8-5.3
					c0-0.2,0-0.4,0-0.6c0-2.5,1.5-4.6,3.6-5.5c0.7-0.3,1.5-0.5,2.3-0.5C180.8,940.6,183.4,943.3,183.4,946.6z"/>
				<ellipse class="st0" cx="179.6" cy="945.1" rx="2.8" ry="2.8"/>
			</g>
			<g>
				<ellipse class="st0" cx="150.1" cy="946.6" rx="5.9" ry="6"/>
				<ellipse class="st0" cx="148.1" cy="945.1" rx="2.8" ry="2.8"/>
			</g>
		</g>
		<path class="st1" d="M213,984.3c0,0.8,0,1.5-0.1,2.3l0,0c0,0.1,0,0.2,0,0.2c0,0.1,0,0.1,0,0.2c-0.1,0.5-0.1,1.1-0.2,1.6
			c-0.1,0.7-0.3,1.5-0.4,2.2c-0.5,2.1-1.2,4.3-2.1,6.4c-0.4,1-0.9,2-1.4,2.9c-1,1.9-2.1,3.8-3.4,5.7c-0.5,0.8-1.1,1.6-1.7,2.3l0,0
			c-1.3,1.7-2.6,3.3-4.1,4.8l0,0c-3.2,3.4-6.8,6.4-10.6,9c-0.6,0.4-1.2,0.8-1.8,1.2c-7.2,4.5-15.3,7.2-23.3,7.3h-0.3
			c-0.3,0-0.5,0-0.7,0c-8.6-0.2-17.1-3.5-24.6-8.5c-3.8-2.6-7.2-5.6-10.3-8.8c-0.1-0.1-0.2-0.2-0.3-0.3c-1.3-1.4-2.6-3-3.8-4.5
			c-0.6-0.8-1.1-1.6-1.7-2.4c-1.3-1.9-2.4-3.8-3.3-5.7c-0.5-1-0.9-2-1.4-2.9c-0.9-2.1-1.6-4.3-2.1-6.4c-0.2-0.7-0.3-1.5-0.4-2.2
			c-0.1-0.6-0.2-1.2-0.2-1.8v-0.1c0-0.1,0-0.1,0-0.2c-0.1-0.8-0.1-1.5-0.1-2.3c0-0.7,0-1.4,0.1-2.1c0.2-2.7,0.8-5.3,1.8-7.8
			c0.1-0.3,0.2-0.6,0.3-0.8c0.4-0.9,0.8-1.7,1.2-2.5c0.6-1.1,1.2-2.1,1.9-3.1c-0.7,1.8-1.4,4.4-2,7.3c-0.4,2.4-0.7,5-0.6,7.7
			c0,1.2,0.2,2.4,0.3,3.6c0.1,0.7,0.3,1.5,0.5,2.2c0.2,0.8,0.5,1.6,0.8,2.5c0.8,2,1.8,4,3.3,5.8l0,0c0.7,0.9,1.5,1.7,2.3,2.4
			c1.6,1.4,3.5,2.7,5.6,3.8c11.4,6.1,28.1,7.6,32.5,7.9c0.7,0.1,1.1,0.1,1.1,0.1v0.2c2.4-0.1,21.2-1.3,33.6-8c2.1-1.2,4.1-2.5,5.7-4
			c0.8-0.7,1.5-1.4,2.1-2.2c0.1-0.1,0.1-0.2,0.2-0.3c1.4-1.8,2.5-3.8,3.2-5.8c0.3-0.8,0.5-1.6,0.7-2.5c0.2-0.7,0.3-1.5,0.4-2.2
			c0.2-1.2,0.3-2.4,0.3-3.6c0.1-2.7-0.2-5.3-0.6-7.6c-0.5-3-1.3-5.5-2-7.3c0.7,1,1.3,2,1.9,3.1c0.5,0.8,0.9,1.7,1.2,2.6
			c0.1,0.3,0.2,0.5,0.3,0.8c1,2.5,1.6,5.1,1.8,7.8C213,982.9,213,983.6,213,984.3z"/>
	</g>
</g>
<path class="st0" d="M1603.4,1166c0,0,25-47.2,0-107.9c0,0-4.2-22.3,21.9-9.9c26.1,12.4,91,63.5,104.3,117.8H1603.4L1603.4,1166z"/>
<g>
	<path class="st2" d="M1302,544.9c-14.5,0-22.6-6.1-28-10.1c-4.1-3.1-5.8-4.4-10.7-4.4c-4.9,0-6.6,1.3-10.7,4.4
		c-5.4,4-13.5,10.1-28,10.1s-22.6-6.1-28-10.1c-4.1-3.1-5.8-4.4-10.7-4.4c-4.9,0-6.6,1.3-10.7,4.4c-5.4,4-13.5,10.1-28,10.1
		s-22.6-6.1-28-10.1c-4.1-3.1-5.8-4.4-10.7-4.4c-4.9,0-6.6,1.3-10.7,4.4c-5.4,4-13.5,10.1-28,10.1s-22.6-6.1-28-10.1
		c-4.1-3.1-5.8-4.4-10.7-4.4c-4.9,0-6.6,1.3-10.7,4.4c-5.4,4-13.5,10.1-28,10.1s-22.6-6.1-28-10.1c-4.1-3.1-5.8-4.4-10.7-4.4
		s-6.6,1.3-10.7,4.4c-5.4,4-13.5,10.1-28,10.1s-22.6-6.1-28-10.1c-4.1-3.1-5.8-4.4-10.7-4.4s-6.6,1.3-10.7,4.4
		c-5.4,4-13.5,10.1-28,10.1s-22.6-6.1-28-10.1c-4.1-3.1-5.8-4.4-10.7-4.4s-6.6,1.3-10.7,4.4c-5.4,4-13.5,10.1-28,10.1
		s-22.6-6.1-28-10.1c-4.1-3.1-5.8-4.4-10.7-4.4s-6.6,1.3-10.7,4.4c-5.4,4-13.5,10.1-28,10.1s-22.6-6.1-28-10.1
		c-4.1-3.1-5.8-4.4-10.7-4.4s-6.6,1.3-10.7,4.4c-5.4,4-13.5,10.1-28,10.1s-22.6-6.1-28-10.1c-4.1-3.1-5.8-4.4-10.7-4.4
		s-6.6,1.3-10.7,4.4c-5.4,4-13.5,10.1-28,10.1s-22.6-6.1-28-10.1c-4.1-3.1-5.8-4.4-10.7-4.4s-6.6,1.3-10.7,4.4
		c-5.4,4-13.5,10.1-28,10.1s-22.6-6.1-28-10.1c-4.1-3.1-5.8-4.3-10.7-4.3s-6.6,1.3-10.7,4.4c-5.4,4-13.5,10.1-28,10.1
		s-22.6-6.1-28-10.1c-4.1-3.1-5.8-4.4-10.7-4.4s-6.6,1.3-10.7,4.3c-5.4,4-13.5,10.1-28,10.1s-22.6-6.1-28-10.1
		c-4.1-3.1-5.8-4.4-10.7-4.4c-4.9,0-6.6,1.3-10.7,4.3c-5.4,4-13.5,10.1-28,10.1s-22.6-6.1-28-10.1c-4.1-3.1-5.8-4.4-10.7-4.4
		c-8,0-14.5-6.5-14.5-14.5c0-8,6.5-14.5,14.5-14.5c14.5,0,22.6,6.1,28,10.1c4.1,3.1,5.8,4.4,10.7,4.4s6.6-1.3,10.7-4.3
		c5.4-4,13.5-10.1,28-10.1c14.5,0,22.6,6.1,28,10.1c4.1,3.1,5.8,4.4,10.7,4.4s6.6-1.3,10.7-4.3c5.4-4,13.5-10.1,28-10.1
		s22.6,6.1,28,10.1c4.1,3.1,5.8,4.4,10.7,4.4s6.6-1.3,10.7-4.4c5.4-4,13.5-10.1,28-10.1s22.6,6.1,28,10.1c4.1,3.1,5.8,4.4,10.7,4.4
		s6.6-1.3,10.7-4.4c5.4-4,13.5-10.1,28-10.1s22.6,6.1,28,10.1c4.1,3.1,5.8,4.4,10.7,4.4s6.6-1.3,10.7-4.4c5.4-4,13.5-10.1,28-10.1
		s22.6,6.1,28,10.1c4.1,3.1,5.8,4.4,10.7,4.4s6.6-1.3,10.7-4.4c5.4-4,13.5-10.1,28-10.1s22.6,6.1,28,10.1c4.1,3.1,5.8,4.4,10.7,4.4
		s6.6-1.3,10.7-4.4c5.4-4,13.5-10.1,28-10.1s22.6,6.1,28,10.1c4.1,3.1,5.8,4.4,10.7,4.4s6.6-1.3,10.7-4.4c5.4-4,13.5-10.1,28-10.1
		s22.6,6.1,28,10.1c4.1,3.1,5.8,4.4,10.7,4.4s6.6-1.3,10.7-4.4c5.4-4,13.5-10.1,28-10.1s22.6,6.1,28,10.1c4.1,3.1,5.8,4.4,10.7,4.4
		s6.6-1.3,10.7-4.4c5.4-4,13.5-10.1,28-10.1s22.6,6.1,28,10.1c4.1,3.1,5.8,4.4,10.7,4.4s6.6-1.3,10.7-4.4c5.4-4,13.5-10.1,28-10.1
		s22.6,6.1,28,10.1c4.1,3.1,5.8,4.4,10.7,4.4c4.9,0,6.6-1.3,10.7-4.4c5.4-4,13.5-10.1,28-10.1s22.6,6.1,28,10.1
		c4.1,3.1,5.8,4.4,10.7,4.4c4.9,0,6.6-1.3,10.7-4.4c5.4-4,13.5-10.1,28-10.1s22.6,6.1,28,10.1c4.1,3.1,5.8,4.4,10.7,4.4
		c4.9,0,6.6-1.3,10.7-4.4c5.4-4,13.5-10.1,28-10.1s22.6,6.1,28,10.1c4.1,3.1,5.8,4.4,10.7,4.4s6.6-1.3,10.7-4.4
		c5.4-4,13.5-10.1,28-10.1c8,0,14.5,6.5,14.5,14.5c0,8-6.5,14.5-14.5,14.5c-4.9,0-6.6,1.3-10.7,4.4
		C1324.6,538.8,1316.5,544.9,1302,544.9z"/>
</g>
<g>
	<path class="st2" d="M1302,606.2c-14.5,0-22.6-6.1-28-10.1c-4.1-3.1-5.8-4.4-10.7-4.4c-4.9,0-6.6,1.3-10.7,4.4
		c-5.4,4-13.5,10.1-28,10.1s-22.6-6.1-28-10.1c-4.1-3.1-5.8-4.4-10.7-4.4c-4.9,0-6.6,1.3-10.7,4.4c-5.4,4-13.5,10.1-28,10.1
		s-22.6-6.1-28-10.1c-4.1-3.1-5.8-4.4-10.7-4.4c-4.9,0-6.6,1.3-10.7,4.4c-5.4,4-13.5,10.1-28,10.1s-22.6-6.1-28-10.1
		c-4.1-3.1-5.8-4.4-10.7-4.4c-4.9,0-6.6,1.3-10.7,4.4c-5.4,4-13.5,10.1-28,10.1s-22.6-6.1-28-10.1c-4.1-3.1-5.8-4.4-10.7-4.4
		s-6.6,1.3-10.7,4.4c-5.4,4-13.5,10.1-28,10.1s-22.6-6.1-28-10.1c-4.1-3.1-5.8-4.4-10.7-4.4s-6.6,1.3-10.7,4.4
		c-5.4,4-13.5,10.1-28,10.1s-22.6-6.1-28-10.1c-4.1-3.1-5.8-4.4-10.7-4.4s-6.6,1.3-10.7,4.4c-5.4,4-13.5,10.1-28,10.1
		s-22.6-6.1-28-10.1c-4.1-3.1-5.8-4.4-10.7-4.4s-6.6,1.3-10.7,4.4c-5.4,4-13.5,10.1-28,10.1s-22.6-6.1-28-10.1
		c-4.1-3.1-5.8-4.4-10.7-4.4s-6.6,1.3-10.7,4.4c-5.4,4-13.5,10.1-28,10.1s-22.6-6.1-28-10.1c-4.1-3.1-5.8-4.4-10.7-4.4
		s-6.6,1.3-10.7,4.4c-5.4,4-13.5,10.1-28,10.1s-22.6-6.1-28-10.1c-4.1-3.1-5.8-4.4-10.7-4.4s-6.6,1.3-10.7,4.4
		c-5.4,4-13.5,10.1-28,10.1s-22.6-6.1-28-10.1c-4.1-3.1-5.8-4.3-10.7-4.3s-6.6,1.3-10.7,4.4c-5.4,4-13.5,10.1-28,10.1
		s-22.6-6.1-28-10.1c-4.1-3.1-5.8-4.4-10.7-4.4s-6.6,1.3-10.7,4.3c-5.4,4-13.5,10.1-28,10.1s-22.6-6.1-28-10.1
		c-4.1-3.1-5.8-4.4-10.7-4.4c-4.9,0-6.6,1.3-10.7,4.3c-5.4,4-13.5,10.1-28,10.1s-22.6-6.1-28-10.1c-4.1-3.1-5.8-4.4-10.7-4.4
		c-8,0-14.5-6.5-14.5-14.5s6.5-14.5,14.5-14.5c14.5,0,22.6,6.1,28,10.1c4.1,3.1,5.8,4.4,10.7,4.4s6.6-1.3,10.7-4.3
		c5.4-4,13.5-10.1,28-10.1c14.5,0,22.6,6.1,28,10.1c4.1,3.1,5.8,4.4,10.7,4.4s6.6-1.3,10.7-4.3c5.4-4,13.5-10.1,28-10.1
		s22.6,6.1,28,10.1c4.1,3.1,5.8,4.4,10.7,4.4s6.6-1.3,10.7-4.4c5.4-4,13.5-10.1,28-10.1s22.6,6.1,28,10.1c4.1,3.1,5.8,4.4,10.7,4.4
		s6.6-1.3,10.7-4.4c5.4-4,13.5-10.1,28-10.1s22.6,6.1,28,10.1c4.1,3.1,5.8,4.4,10.7,4.4s6.6-1.3,10.7-4.4c5.4-4,13.5-10.1,28-10.1
		s22.6,6.1,28,10.1c4.1,3.1,5.8,4.4,10.7,4.4s6.6-1.3,10.7-4.4c5.4-4,13.5-10.1,28-10.1s22.6,6.1,28,10.1c4.1,3.1,5.8,4.4,10.7,4.4
		s6.6-1.3,10.7-4.4c5.4-4,13.5-10.1,28-10.1s22.6,6.1,28,10.1c4.1,3.1,5.8,4.4,10.7,4.4s6.6-1.3,10.7-4.4c5.4-4,13.5-10.1,28-10.1
		s22.6,6.1,28,10.1c4.1,3.1,5.8,4.4,10.7,4.4s6.6-1.3,10.7-4.4c5.4-4,13.5-10.1,28-10.1s22.6,6.1,28,10.1c4.1,3.1,5.8,4.4,10.7,4.4
		s6.6-1.3,10.7-4.4c5.4-4,13.5-10.1,28-10.1s22.6,6.1,28,10.1c4.1,3.1,5.8,4.4,10.7,4.4s6.6-1.3,10.7-4.4c5.4-4,13.5-10.1,28-10.1
		s22.6,6.1,28,10.1c4.1,3.1,5.8,4.4,10.7,4.4c4.9,0,6.6-1.3,10.7-4.4c5.4-4,13.5-10.1,28-10.1s22.6,6.1,28,10.1
		c4.1,3.1,5.8,4.4,10.7,4.4c4.9,0,6.6-1.3,10.7-4.4c5.4-4,13.5-10.1,28-10.1s22.6,6.1,28,10.1c4.1,3.1,5.8,4.4,10.7,4.4
		c4.9,0,6.6-1.3,10.7-4.4c5.4-4,13.5-10.1,28-10.1s22.6,6.1,28,10.1c4.1,3.1,5.8,4.4,10.7,4.4s6.6-1.3,10.7-4.4
		c5.4-4,13.5-10.1,28-10.1c8,0,14.5,6.5,14.5,14.5s-6.5,14.5-14.5,14.5c-4.9,0-6.6,1.3-10.7,4.4
		C1324.6,600.2,1316.5,606.2,1302,606.2z"/>
</g>
<g>
	<path class="st2" d="M1302,667.4c-14.5,0-22.6-6.1-28-10.1c-4.1-3.1-5.8-4.4-10.7-4.4c-4.9,0-6.6,1.3-10.7,4.4
		c-5.4,4-13.5,10.1-28,10.1s-22.6-6.1-28-10.1c-4.1-3.1-5.8-4.4-10.7-4.4c-4.9,0-6.6,1.3-10.7,4.4c-5.4,4-13.5,10.1-28,10.1
		s-22.6-6.1-28-10.1c-4.1-3.1-5.8-4.4-10.7-4.4c-4.9,0-6.6,1.3-10.7,4.4c-5.4,4-13.5,10.1-28,10.1s-22.6-6.1-28-10.1
		c-4.1-3.1-5.8-4.4-10.7-4.4c-4.9,0-6.6,1.3-10.7,4.4c-5.4,4-13.5,10.1-28,10.1s-22.6-6.1-28-10.1c-4.1-3.1-5.8-4.4-10.7-4.4
		s-6.6,1.3-10.7,4.4c-5.4,4-13.5,10.1-28,10.1s-22.6-6.1-28-10.1c-4.1-3.1-5.8-4.4-10.7-4.4s-6.6,1.3-10.7,4.4
		c-5.4,4-13.5,10.1-28,10.1s-22.6-6.1-28-10.1c-4.1-3.1-5.8-4.4-10.7-4.4s-6.6,1.3-10.7,4.4c-5.4,4-13.5,10.1-28,10.1
		s-22.6-6.1-28-10.1c-4.1-3.1-5.8-4.4-10.7-4.4s-6.6,1.3-10.7,4.4c-5.4,4-13.5,10.1-28,10.1s-22.6-6.1-28-10.1
		c-4.1-3.1-5.8-4.4-10.7-4.4s-6.6,1.3-10.7,4.4c-5.4,4-13.5,10.1-28,10.1s-22.6-6.1-28-10.1c-4.1-3.1-5.8-4.4-10.7-4.4
		s-6.6,1.3-10.7,4.4c-5.4,4-13.5,10.1-28,10.1s-22.6-6.1-28-10.1c-4.1-3.1-5.8-4.4-10.7-4.4s-6.6,1.3-10.7,4.4
		c-5.4,4-13.5,10.1-28,10.1s-22.6-6.1-28-10.1c-4.1-3.1-5.8-4.3-10.7-4.3s-6.6,1.3-10.7,4.4c-5.4,4-13.5,10.1-28,10.1
		s-22.6-6.1-28-10.1c-4.1-3.1-5.8-4.4-10.7-4.4s-6.6,1.3-10.7,4.3c-5.4,4-13.5,10.1-28,10.1s-22.6-6.1-28-10.1
		c-4.1-3.1-5.8-4.4-10.7-4.4c-4.9,0-6.6,1.3-10.7,4.3c-5.4,4-13.5,10.1-28,10.1s-22.6-6.1-28-10.1c-4.1-3.1-5.8-4.4-10.7-4.4
		c-8,0-14.5-6.5-14.5-14.5s6.5-14.5,14.5-14.5c14.5,0,22.6,6.1,28,10.1c4.1,3.1,5.8,4.4,10.7,4.4s6.6-1.3,10.7-4.3
		c5.4-4,13.5-10.1,28-10.1c14.5,0,22.6,6.1,28,10.1c4.1,3.1,5.8,4.4,10.7,4.4s6.6-1.3,10.7-4.3c5.4-4,13.5-10.1,28-10.1
		s22.6,6.1,28,10.1c4.1,3.1,5.8,4.4,10.7,4.4s6.6-1.3,10.7-4.4c5.4-4,13.5-10.1,28-10.1s22.6,6.1,28,10.1c4.1,3.1,5.8,4.4,10.7,4.4
		s6.6-1.3,10.7-4.4c5.4-4,13.5-10.1,28-10.1s22.6,6.1,28,10.1c4.1,3.1,5.8,4.4,10.7,4.4s6.6-1.3,10.7-4.4c5.4-4,13.5-10.1,28-10.1
		s22.6,6.1,28,10.1c4.1,3.1,5.8,4.4,10.7,4.4s6.6-1.3,10.7-4.4c5.4-4,13.5-10.1,28-10.1s22.6,6.1,28,10.1c4.1,3.1,5.8,4.4,10.7,4.4
		s6.6-1.3,10.7-4.4c5.4-4,13.5-10.1,28-10.1s22.6,6.1,28,10.1c4.1,3.1,5.8,4.4,10.7,4.4s6.6-1.3,10.7-4.4c5.4-4,13.5-10.1,28-10.1
		s22.6,6.1,28,10.1c4.1,3.1,5.8,4.4,10.7,4.4s6.6-1.3,10.7-4.4c5.4-4,13.5-10.1,28-10.1s22.6,6.1,28,10.1c4.1,3.1,5.8,4.4,10.7,4.4
		s6.6-1.3,10.7-4.4c5.4-4,13.5-10.1,28-10.1s22.6,6.1,28,10.1c4.1,3.1,5.8,4.4,10.7,4.4s6.6-1.3,10.7-4.4c5.4-4,13.5-10.1,28-10.1
		s22.6,6.1,28,10.1c4.1,3.1,5.8,4.4,10.7,4.4c4.9,0,6.6-1.3,10.7-4.4c5.4-4,13.5-10.1,28-10.1s22.6,6.1,28,10.1
		c4.1,3.1,5.8,4.4,10.7,4.4c4.9,0,6.6-1.3,10.7-4.4c5.4-4,13.5-10.1,28-10.1s22.6,6.1,28,10.1c4.1,3.1,5.8,4.4,10.7,4.4
		c4.9,0,6.6-1.3,10.7-4.4c5.4-4,13.5-10.1,28-10.1s22.6,6.1,28,10.1c4.1,3.1,5.8,4.4,10.7,4.4s6.6-1.3,10.7-4.4
		c5.4-4,13.5-10.1,28-10.1c8,0,14.5,6.5,14.5,14.5s-6.5,14.5-14.5,14.5c-4.9,0-6.6,1.3-10.7,4.4
		C1324.6,661.4,1316.5,667.4,1302,667.4z"/>
</g>
<ellipse class="st3" cx="1278.4" cy="968" rx="26.8" ry="6"/>
<rect x="1171.9" y="849.7" class="st4" width="10.4" height="217.1"/>
<polygon class="st0" points="1400,1054.5 1268.5,1054.5 1251.6,1038.9 1268.5,1025.2 1400,1025.2 "/>
<g>
	<path class="st4" d="M2420.4,1563.2c-0.4,0.9-0.8,1.6-1.2,2.2s-0.8,1.1-1.3,1.4c-0.2,0.2-0.5,0.3-0.8,0.4s-0.6,0.1-0.8,0.1l0,0
		c-0.4,0-0.8-0.1-1-0.4c-0.3-0.3-0.4-0.7-0.4-1.2l0,0l0,0c0-0.3,0.1-0.7,0.2-1.2s0.3-1,0.5-1.6c0.1-0.2,0.2-0.6,0.4-1.2
		s0.5-1.3,0.7-2c0-0.1,0.1-0.4,0.3-0.9h-1.3c-0.2,0-0.4-0.2-0.4-0.4c0-0.2,0.2-0.4,0.4-0.4h1.5c0.1-0.1,0.1-0.3,0.2-0.4
		c0.4-1.1,0.8-2.3,0.9-2.5c0.1-0.2,0.3-0.3,0.5-0.3s0.3,0.3,0.3,0.5c-0.1,0.2-0.5,1.4-0.9,2.5c0,0.1,0,0.1-0.1,0.2h1.3
		c0.2,0,0.4,0.2,0.4,0.4c0,0.2-0.2,0.4-0.4,0.4h-1.6c-0.2,0.6-0.3,1-0.4,1.2c-0.3,0.8-0.5,1.5-0.7,2s-0.3,0.9-0.4,1.2
		c-0.2,0.6-0.4,1.1-0.5,1.5s-0.2,0.8-0.2,1.1l0,0c0,0.3,0.1,0.5,0.2,0.7c0.1,0.1,0.3,0.2,0.4,0.2l0,0c0.2,0,0.4,0,0.6-0.1
		c0.2-0.1,0.4-0.1,0.5-0.3c0.4-0.3,0.7-0.7,1.1-1.2c0.4-0.6,0.7-1.3,1.1-2.1c0.1-0.2,0.4-0.3,0.6-0.2
		C2420.4,1562.7,2420.5,1562.9,2420.4,1563.2z"/>
	<path class="st4" d="M2428.3,1563.2L2428.3,1563.2c-0.8,1.7-1.8,4.2-3.6,4.2l0,0c-0.6,0-0.9-0.2-1.1-0.6c-0.2-0.3-0.3-0.7-0.3-1.1
		v-0.1c0-0.4,0.1-0.9,0.2-1.4s0.3-1,0.5-1.4c0.1-0.1,0.1-0.2,0.1-0.4c0.3-0.7,0.7-1.8,0.7-2.7c0-0.6-0.3-1-1-1
		c-0.5,0-1.1,0.5-1.6,1.1c-0.7,0.9-1.4,2.2-1.8,3.3l0,0c-0.6,1.5-1.2,3.2-1.4,3.9c-0.1,0.2-0.3,0.3-0.5,0.3
		c-0.2-0.1-0.3-0.3-0.3-0.5c0.2-0.6,0.8-2.3,1.4-3.9l0,0l0,0l0,0c0.6-1.7,1.2-3.3,1.4-3.9l0,0c0.2-0.6,0.3-0.8,0.4-1.1
		c0.2-0.5,0.3-0.9,0.4-1.2l0.1-0.3c0.1-0.3,0.3-0.8,0.5-1.4c0.1-0.2,0.3-0.3,0.5-0.2s0.3,0.3,0.3,0.5c-0.2,0.5-0.4,1-0.5,1.4
		c0,0.1-0.1,0.2-0.1,0.3c-0.2,0.5-0.3,0.9-0.4,1.2l-0.3,0.7c0.6-0.6,1.2-0.9,1.8-0.9c1.4,0,1.9,0.8,1.9,1.9c0,1-0.5,2.2-0.8,3
		c-0.1,0.1-0.1,0.3-0.1,0.4c-0.2,0.5-0.3,0.9-0.5,1.4c-0.1,0.4-0.2,0.8-0.2,1.2l0,0c0,0.2,0,0.5,0.1,0.6s0.2,0.2,0.4,0.2l0,0
		c1.2,0,2.2-2.1,2.8-3.6v-0.1c0.1-0.2,0.3-0.3,0.6-0.2C2428.3,1562.7,2428.4,1562.9,2428.3,1563.2z"/>
	<path class="st4" d="M2435.5,1563.2c-0.8,1.7-1.7,2.7-2.7,3.4c-1,0.6-2.1,0.8-3.1,0.8l0,0l0,0c-0.7,0-1.4-0.3-1.8-0.7
		c-0.5-0.5-0.8-1.1-0.7-2l0,0l0,0c0-0.5,0.1-1.1,0.3-1.7l0,0c0.1-0.4,0.3-0.9,0.5-1.3c0.5-1,1.1-2,1.7-2.7c0.3-0.3,0.6-0.5,1-0.7
		c0.3-0.2,0.7-0.3,1.1-0.3c0.5,0,0.8,0.1,1.1,0.3c0.3,0.2,0.5,0.5,0.6,0.8s0,0.7-0.1,1c-0.2,0.5-0.5,1-1,1.4s-1.2,0.8-1.8,1.1
		c-0.9,0.4-1.8,0.7-2.3,0.8c-0.1,0.5-0.2,0.9-0.2,1.3l0,0c0,0.6,0.2,1.1,0.5,1.4s0.8,0.5,1.3,0.5l0,0c0.8,0,1.7-0.1,2.6-0.7
		c0.9-0.5,1.7-1.5,2.3-3c0.1-0.2,0.3-0.3,0.6-0.2C2435.5,1562.7,2435.6,1563,2435.5,1563.2z M2428.6,1562.4c0.5-0.1,1-0.3,1.6-0.6
		s1.2-0.6,1.6-1c0.3-0.3,0.6-0.6,0.7-1c0.1-0.2,0.1-0.4,0-0.6c0-0.1-0.1-0.2-0.2-0.3c-0.1-0.1-0.3-0.2-0.6-0.2
		c-0.2,0-0.5,0.1-0.7,0.2s-0.5,0.3-0.7,0.6c-0.6,0.6-1.2,1.5-1.6,2.4C2428.7,1562.1,2428.6,1562.2,2428.6,1562.4z"/>
	<path class="st4" d="M2439.2,1563.2c-0.4,0.8-0.8,1.8-1.4,2.6c-0.6,0.9-1.4,1.6-2.3,1.6l0,0c-0.5,0-0.9-0.2-1.1-0.6
		c-0.2-0.3-0.3-0.7-0.3-1.1v-0.1c0-0.3,0.1-0.7,0.2-1.2s0.3-1,0.5-1.6c0.1-0.2,0.2-0.6,0.4-1.2s0.5-1.3,0.7-2c0-0.1,0.1-0.3,0.2-0.5
		l0.3-0.9c0.1-0.2,0.3-0.3,0.5-0.3c0.2,0.1,0.3,0.3,0.3,0.5l-0.3,0.9l-0.2,0.5c-0.3,0.8-0.5,1.5-0.7,2s-0.3,0.9-0.4,1.2
		c-0.2,0.6-0.4,1.1-0.5,1.5s-0.2,0.8-0.2,1.1l0,0c0,0.2,0,0.5,0.1,0.6s0.2,0.2,0.4,0.2l0,0c0.6,0,1.1-0.5,1.6-1.2
		c0.5-0.8,0.9-1.7,1.3-2.5c0.1-0.2,0.4-0.3,0.6-0.2C2439.2,1562.7,2439.3,1562.9,2439.2,1563.2z M2437,1556.3c0-0.4,0.3-0.7,0.7-0.7
		s0.7,0.3,0.7,0.7c0,0.4-0.3,0.7-0.7,0.7C2437.3,1556.9,2437,1556.6,2437,1556.3z"/>
	<path class="st4" d="M2446.5,1563.2L2446.5,1563.2c-0.8,1.7-1.8,4.2-3.6,4.2l0,0c-0.5,0-0.9-0.2-1.1-0.6c-0.2-0.3-0.3-0.7-0.3-1.1
		v-0.1c0-0.3,0.1-0.7,0.2-1.2s0.3-1,0.5-1.6c0.2-0.5,0.3-0.9,0.4-1.1c0.1-0.4,0.2-0.6,0.4-1l-0.3-0.1c-0.6-0.2-1.2-0.4-1.8-0.7
		c-0.1,0.2-0.1,0.4-0.2,0.5l0,0l-1.6,3.5c-0.1,0.2-0.3,0.3-0.6,0.2c-0.2-0.1-0.3-0.3-0.2-0.6l1.6-3.5c0.1-0.2,0.2-0.4,0.2-0.6
		c-0.7-0.5-1.1-1-1-1.9c0-0.3,0.2-0.6,0.4-0.8l0,0c0.2-0.2,0.5-0.3,0.8-0.3c0.1,0,0.2,0,0.3,0l0,0c0.3,0.1,0.5,0.3,0.6,0.5
		s0.2,0.5,0.2,0.7s0,0.4-0.1,0.6s-0.1,0.4-0.2,0.7c0.6,0.3,1.2,0.5,1.8,0.7c0.3,0.1,0.5,0.2,0.8,0.2c0.2,0.1,0.3,0.3,0.2,0.6l0,0
		c-0.2,0.6-0.3,0.9-0.5,1.4c-0.1,0.3-0.2,0.6-0.4,1.1c-0.2,0.6-0.4,1.1-0.5,1.5s-0.2,0.8-0.2,1.1l0,0c0,0.2,0,0.5,0.2,0.6
		c0.1,0.1,0.2,0.2,0.4,0.2c1.3,0,2.2-2.1,2.8-3.6v-0.1c0.1-0.2,0.3-0.3,0.6-0.2C2446.5,1562.7,2446.6,1562.9,2446.5,1563.2z
		 M2440.5,1557.8c0-0.1,0-0.2-0.1-0.3c0-0.1-0.1-0.1-0.1-0.1l0,0h-0.1c-0.1,0-0.2,0-0.2,0.1l0,0c-0.1,0.1-0.1,0.2-0.1,0.3
		c0,0.4,0.2,0.7,0.5,0.9c0.1-0.2,0.1-0.3,0.2-0.5C2440.5,1558,2440.5,1557.9,2440.5,1557.8z"/>
	<path class="st4" d="M2457,1563.2L2457,1563.2c-0.8,1.7-1.8,4.2-3.6,4.2l0,0l0,0c-0.5,0-0.9-0.2-1.1-0.6c-0.2-0.2-0.2-0.5-0.3-0.8
		c-0.6,0.8-1.3,1.4-2.2,1.4l0,0c-0.5,0-0.9-0.2-1.1-0.6c-0.2-0.3-0.3-0.7-0.3-1.1v-0.1c0-0.3,0.1-0.7,0.2-1.2c0.1-0.5,0.3-1,0.5-1.6
		c0.1-0.3,0.3-0.9,0.6-1.6c0.3-0.9,0.7-2,1.1-3c0.1-0.2,0.3-0.3,0.5-0.2c0.2,0.1,0.3,0.3,0.2,0.5c-0.4,1.2-0.8,2.2-1.1,3
		c-0.3,0.7-0.5,1.3-0.6,1.6c-0.2,0.6-0.4,1.1-0.5,1.5s-0.2,0.8-0.2,1.1l0,0c0,0.2,0,0.5,0.1,0.6s0.2,0.2,0.5,0.2
		c1.2,0,2.2-2.1,2.8-3.6l0,0c0,0,0,0,0-0.1c0.1-0.3,0.3-0.9,0.6-1.6c0.4-0.9,0.7-2,1.1-3c0.1-0.2,0.3-0.3,0.5-0.2
		c0.2,0.1,0.3,0.3,0.3,0.5c-0.4,1.2-0.8,2.2-1.1,3c-0.3,0.7-0.5,1.3-0.6,1.6l0,0v0.1c-0.2,0.5-0.3,1-0.4,1.4
		c-0.1,0.4-0.2,0.8-0.2,1.1l0,0c0,0.2,0,0.5,0.1,0.6s0.2,0.2,0.4,0.2l0,0c1.2,0,2.2-2.1,2.8-3.6v-0.1c0.1-0.2,0.3-0.3,0.6-0.2
		C2457,1562.7,2457.1,1562.9,2457,1563.2z"/>
	<path class="st4" d="M2462.5,1563.8L2462.5,1563.8L2462.5,1563.8c0,1.2-0.5,2.1-1.2,2.7s-1.6,0.9-2.4,0.9l0,0c-0.1,0-0.1,0-0.2,0
		c-0.8,0-1.5-0.4-2-0.9s-0.8-1.2-0.8-1.9c0-0.1,0-0.1,0-0.2c0.1-0.7,0.3-1.4,0.8-2c0.5-0.5,1.1-0.8,1.9-0.8c0.5,0,1,0.2,1.4,0.6
		c0.3,0.3,0.5,0.8,0.6,1.4c0,0.2-0.2,0.4-0.4,0.4s-0.4-0.2-0.4-0.4c0-0.3-0.1-0.6-0.3-0.8c-0.2-0.2-0.5-0.3-0.7-0.3
		c-0.5,0-1,0.2-1.3,0.6c-0.4,0.4-0.6,0.9-0.6,1.4v0.1c0,0.5,0.2,1,0.5,1.4s0.9,0.6,1.4,0.7c0.1,0,0.1,0,0.2,0l0,0
		c0.7,0,1.4-0.2,1.9-0.7c0.5-0.4,0.9-1.1,0.9-2l0,0c0-1-0.5-1.8-1-2.7c-0.1-0.2-0.2-0.4-0.3-0.6c-0.1,0.1-0.3,0.3-0.4,0.5
		c-0.2,0.2-0.4,0.2-0.6,0c-0.2-0.1-0.2-0.4-0.1-0.6c0.2-0.3,0.4-0.5,0.7-0.7l0,0c-0.2-0.6-0.4-1.1-0.3-1.7c0-0.2,0.1-0.4,0.2-0.6
		l0,0c0.1-0.2,0.2-0.3,0.3-0.5c0.1-0.1,0.3-0.2,0.4-0.3c0.2-0.1,0.3-0.1,0.5-0.1c0.3,0,0.5,0.1,0.7,0.3c0.2,0.2,0.2,0.4,0.3,0.7
		c0,0.2,0,0.4-0.1,0.6c0,0.2-0.1,0.4-0.2,0.6c-0.2,0.5-0.5,0.9-0.8,1.2c0.1,0.3,0.3,0.5,0.4,0.8
		C2461.9,1561.6,2462.5,1562.6,2462.5,1563.8z M2461,1558.3c0.1-0.1,0.1-0.3,0.1-0.4s0.1-0.2,0-0.4c0-0.1,0-0.1,0-0.2c0,0,0,0-0.1,0
		h-0.1c-0.1,0-0.1,0.1-0.2,0.1c-0.1,0.1-0.1,0.1-0.2,0.2l0,0c0,0.1-0.1,0.2-0.1,0.3c0,0.3,0,0.6,0.1,0.9
		C2460.7,1558.8,2460.8,1558.5,2461,1558.3z"/>
	<path class="st4" d="M2471.9,1563.2L2471.9,1563.2c-0.8,1.7-1.8,4.2-3.6,4.2l0,0l0,0c-0.5,0-0.9-0.2-1.1-0.6
		c-0.2-0.2-0.2-0.5-0.3-0.8c-0.6,0.8-1.3,1.4-2.2,1.4l0,0c-0.5,0-0.9-0.2-1.1-0.6c-0.2-0.3-0.3-0.7-0.3-1.1v-0.1
		c0-0.3,0.1-0.7,0.2-1.2s0.3-1,0.5-1.6c0.1-0.3,0.3-0.9,0.6-1.6c0.3-0.9,0.7-2,1.1-3c0.1-0.2,0.3-0.3,0.5-0.2
		c0.2,0.1,0.3,0.3,0.2,0.5c-0.4,1.2-0.8,2.2-1.1,3c-0.3,0.7-0.5,1.3-0.6,1.6c-0.2,0.6-0.4,1.1-0.5,1.5s-0.2,0.8-0.2,1.1l0,0
		c0,0.2,0,0.5,0.1,0.6s0.2,0.2,0.5,0.2c1.2,0,2.2-2.1,2.8-3.6l0,0c0,0,0,0,0-0.1c0.1-0.3,0.3-0.9,0.6-1.6c0.4-0.9,0.7-2,1.1-3
		c0.1-0.2,0.3-0.3,0.5-0.2c0.2,0.1,0.3,0.3,0.3,0.5c-0.4,1.2-0.8,2.2-1.1,3c-0.3,0.7-0.5,1.3-0.6,1.6l0,0v0.1
		c-0.2,0.5-0.3,1-0.4,1.4c-0.1,0.4-0.2,0.8-0.2,1.1l0,0c0,0.2,0,0.5,0.1,0.6s0.2,0.2,0.4,0.2l0,0c1.2,0,2.2-2.1,2.8-3.6v-0.1
		c0.1-0.2,0.3-0.3,0.6-0.2C2471.9,1562.7,2472,1562.9,2471.9,1563.2z"/>
	<path class="st4" d="M2479.9,1563.2L2479.9,1563.2c-0.8,1.7-1.8,4.2-3.6,4.2l0,0c-0.5,0-0.9-0.2-1.1-0.6c-0.2-0.3-0.3-0.7-0.3-1.1
		l0,0c-0.7,1-1.5,1.7-2.5,1.6c-0.6,0-1-0.3-1.2-0.7c-0.3-0.4-0.4-1-0.4-1.6c0-1.1,0.6-3.3,1.6-5c0.7-1.2,1.7-2.1,2.8-2.2
		c0.1,0,0.1,0,0.2,0c0.5,0,1,0.3,1.4,0.7c0.1,0.1,0.2,0.2,0.3,0.4c0.1-0.3,0.2-0.6,0.3-0.9c0.1-0.2,0.3-0.3,0.5-0.2s0.3,0.3,0.2,0.5
		c-0.2,0.6-0.6,1.6-1,2.7c-0.3,0.7-0.5,1.4-0.7,2s-0.4,1.1-0.5,1.5s-0.2,0.8-0.2,1.1l0,0c0,0.2,0,0.5,0.1,0.6s0.2,0.2,0.5,0.2
		c1.2,0,2.2-2.1,2.8-3.6v-0.1c0.1-0.2,0.3-0.3,0.6-0.2C2479.9,1562.7,2480,1562.9,2479.9,1563.2z M2475.9,1561.5
		c0.2-0.4,0.3-0.8,0.5-1.1c0-0.1,0-0.1,0-0.1c0-0.5-0.1-0.8-0.4-1.1c-0.2-0.2-0.5-0.4-0.8-0.4h-0.1c-0.8,0-1.5,0.8-2.1,1.8
		c-0.9,1.5-1.4,3.5-1.5,4.5c0,0.5,0.1,0.9,0.2,1.1c0.1,0.2,0.3,0.3,0.6,0.3C2474,1566.5,2475.1,1563.5,2475.9,1561.5z"/>
	<path class="st4" d="M2484.1,1563.2c-0.4,0.9-0.8,1.6-1.2,2.2s-0.8,1.1-1.3,1.4c-0.2,0.2-0.5,0.3-0.8,0.4s-0.6,0.1-0.8,0.1l0,0
		c-0.4,0-0.8-0.1-1-0.4c-0.3-0.3-0.4-0.7-0.4-1.2l0,0l0,0c0-0.3,0.1-0.8,0.2-1.2c0.1-0.5,0.3-1,0.5-1.6c0.5-1.6,1.1-3.2,1.7-4.9
		l0.4-1.3l0.1-0.3c0.1-0.3,0.3-0.8,0.5-1.4c0.1-0.2,0.3-0.3,0.5-0.3c0.2,0.1,0.3,0.3,0.3,0.5c-0.2,0.5-0.4,1.1-0.5,1.4
		c0,0.1-0.1,0.2-0.1,0.4l-0.4,1.3c-0.6,1.6-1.1,3.2-1.7,4.9c-0.2,0.6-0.3,1.1-0.5,1.5c-0.1,0.4-0.2,0.8-0.2,1l0,0
		c0,0.3,0.1,0.5,0.2,0.7c0.1,0.1,0.3,0.2,0.4,0.2l0,0c0.2,0,0.4,0,0.6-0.1s0.4-0.1,0.5-0.3c0.4-0.3,0.7-0.7,1.1-1.2
		c0.4-0.6,0.7-1.3,1.1-2.1c0.1-0.2,0.4-0.3,0.6-0.2C2484.1,1562.7,2484.2,1562.9,2484.1,1563.2z"/>
	<path class="st4" d="M2492.8,1563.8L2492.8,1563.8L2492.8,1563.8c0,1.2-0.5,2.1-1.2,2.7s-1.6,0.9-2.4,0.9l0,0c-0.1,0-0.1,0-0.2,0
		c-0.8,0-1.5-0.4-2-0.9s-0.8-1.2-0.8-1.9c0-0.1,0-0.1,0-0.2c0.1-0.7,0.3-1.4,0.8-2c0.5-0.5,1.1-0.8,1.9-0.8c0.5,0,1,0.2,1.4,0.6
		c0.3,0.3,0.5,0.8,0.6,1.4c0,0.2-0.2,0.4-0.4,0.4s-0.4-0.2-0.4-0.4c0-0.3-0.1-0.6-0.3-0.8c-0.2-0.2-0.5-0.3-0.7-0.3
		c-0.5,0-1,0.2-1.3,0.6c-0.4,0.4-0.6,0.9-0.6,1.4v0.1c0,0.5,0.2,1,0.5,1.4s0.9,0.6,1.4,0.7c0.1,0,0.1,0,0.2,0l0,0
		c0.7,0,1.4-0.2,1.9-0.7c0.5-0.4,0.9-1.1,0.9-2l0,0c0-1-0.5-1.8-1-2.7c-0.1-0.2-0.2-0.4-0.3-0.6c-0.1,0.1-0.3,0.3-0.4,0.5
		c-0.2,0.2-0.4,0.2-0.6,0c-0.2-0.1-0.2-0.4-0.1-0.6c0.2-0.3,0.4-0.5,0.7-0.7l0,0c-0.2-0.6-0.4-1.1-0.3-1.7c0-0.2,0.1-0.4,0.2-0.6
		l0,0c0.1-0.2,0.2-0.3,0.3-0.5c0.1-0.1,0.3-0.2,0.4-0.3c0.2-0.1,0.3-0.1,0.5-0.1c0.3,0,0.5,0.1,0.7,0.3c0.2,0.2,0.2,0.4,0.3,0.7
		c0,0.2,0,0.4-0.1,0.6c0,0.2-0.1,0.4-0.2,0.6c-0.2,0.5-0.5,0.9-0.8,1.2c0.1,0.3,0.3,0.5,0.4,0.8
		C2492.2,1561.6,2492.8,1562.6,2492.8,1563.8z M2491.3,1558.3c0.1-0.1,0.1-0.3,0.1-0.4s0.1-0.2,0-0.4c0-0.1,0-0.1,0-0.2
		c0,0,0,0-0.1,0h-0.1c-0.1,0-0.1,0.1-0.2,0.1c-0.1,0.1-0.1,0.1-0.2,0.2l0,0c0,0.1-0.1,0.2-0.1,0.3c0,0.3,0,0.6,0.1,0.9
		C2491,1558.8,2491.2,1558.5,2491.3,1558.3z"/>
	<path class="st4" d="M2502.6,1563.1c0,0.1-0.1,0.3-0.2,0.4c-0.1,0.1-0.1,0.2-0.2,0.3c-0.3,0.5-0.6,1-1,1.4s-1,0.7-1.7,0.7
		c-0.2,0-0.4,0-0.6-0.1c-0.3-0.1-0.6-0.2-0.8-0.5c-0.8,1.1-1.8,1.9-3,1.8l0,0l0,0l0,0c-0.7,0-1.2-0.4-1.4-0.8
		c-0.9,2.5-1.7,4.7-1.9,5.3c-0.1,0.2-0.3,0.3-0.5,0.3c-0.2-0.1-0.3-0.3-0.3-0.5c0.2-0.6,1.2-3.4,2.2-6.2c1.1-3.1,2.3-6.3,2.5-6.9
		c0-0.1,0.1-0.2,0.1-0.3c0.1-0.2,0.3-0.3,0.5-0.3c0.2,0.1,0.3,0.3,0.3,0.5l-0.2,0.4c0.6-0.6,1.2-1,2-1c0.6,0,1,0.3,1.3,0.7
		s0.4,1,0.4,1.6v0.1l0,0c-0.1,1.1-0.6,2.9-1.4,4.4c0,0.1-0.1,0.1-0.1,0.2c0.2,0.2,0.4,0.3,0.6,0.4c0.1,0,0.2,0,0.4,0
		c0.5,0,0.8-0.2,1.2-0.5c0.3-0.3,0.6-0.8,0.8-1.2c0-0.1,0.1-0.2,0.2-0.3c0-0.1,0.1-0.2,0.1-0.4c0.1-0.2,0.3-0.3,0.6-0.2
		C2502.6,1562.7,2502.7,1562.9,2502.6,1563.1z M2498.4,1563.1c-0.1,0.2-0.1,0.4-0.1,0.5c0.6-1.2,0.9-2.5,1-3.4l0,0v-0.1l0,0
		c0-0.5,0-0.9-0.2-1.1c-0.1-0.2-0.3-0.3-0.6-0.3c-1.6,0-2.8,3-3.6,5l-0.1,0.3c-0.1,0.5-0.3,1-0.3,1.4c0,0.6,0.1,1,0.7,1l0,0l0,0
		c0.9,0,1.8-0.7,2.4-1.7c-0.1-0.3-0.2-0.6-0.2-1c0-0.3,0-0.6,0.1-1c0.1-0.2,0.3-0.4,0.5-0.3
		C2498.3,1562.6,2498.4,1562.9,2498.4,1563.1z"/>
	<path class="st4" d="M2510.3,1563.1c-0.1,0.1-0.1,0.3-0.2,0.4s-0.1,0.2-0.2,0.3c-0.3,0.5-0.6,1-1,1.4c-0.5,0.4-1,0.7-1.7,0.7
		c-0.2,0-0.4,0-0.6-0.1c-0.3-0.1-0.6-0.3-0.9-0.5c-0.7,1-1.7,1.8-2.7,1.8c-3.3,0-1.1-5.5,0-7.3c0.7-1.2,1.7-2.1,2.8-2.1l0,0
		c0.6,0,1.1,0.2,1.5,0.7c0.3,0.4,0.5,0.9,0.5,1.6c0,1.3-0.7,3.1-1.5,4.6c0.1,0.2,0.4,0.3,0.6,0.4c0.1,0,0.2,0,0.3,0
		c0.5,0,0.9-0.2,1.2-0.5s0.6-0.8,0.8-1.2c0.1-0.1,0.1-0.2,0.2-0.3c0.1-0.1,0.1-0.2,0.2-0.4c0.1-0.2,0.3-0.3,0.6-0.2
		C2510.3,1562.7,2510.4,1562.9,2510.3,1563.1z M2506.1,1563.1c-0.1,0.2-0.1,0.3-0.1,0.5c0.6-1.2,1-2.5,1-3.4c0-0.5-0.1-0.8-0.3-1
		s-0.5-0.4-0.9-0.4c-0.8,0-1.5,0.7-2,1.7c-0.8,1.3-2.7,6-0.7,6c0.7,0,1.6-0.8,2.2-1.7c-0.1-0.3-0.2-0.6-0.2-0.9s0-0.6,0.1-1
		c0.1-0.2,0.3-0.4,0.5-0.3C2506,1562.6,2506.2,1562.9,2506.1,1563.1z"/>
	<path class="st4" d="M2514.4,1563.2c-0.4,0.9-0.8,1.6-1.2,2.2s-0.8,1.1-1.3,1.4c-0.2,0.2-0.5,0.3-0.8,0.4s-0.6,0.1-0.8,0.1l0,0
		c-0.4,0-0.8-0.1-1-0.4c-0.3-0.3-0.4-0.7-0.4-1.2l0,0l0,0c0-0.3,0.1-0.7,0.2-1.2s0.3-1,0.5-1.6c0.1-0.2,0.2-0.6,0.4-1.2
		s0.5-1.3,0.7-2c0-0.1,0.1-0.4,0.3-0.9h-1.3c-0.2,0-0.4-0.2-0.4-0.4c0-0.2,0.2-0.4,0.4-0.4h1.5c0.1-0.1,0.1-0.3,0.2-0.4
		c0.4-1.1,0.8-2.3,0.9-2.5c0.1-0.2,0.3-0.3,0.5-0.3c0.2,0.1,0.3,0.3,0.3,0.5c-0.1,0.2-0.5,1.4-0.9,2.5c0,0.1,0,0.1-0.1,0.2h1.3
		c0.2,0,0.4,0.2,0.4,0.4c0,0.2-0.2,0.4-0.4,0.4h-1.6c-0.2,0.6-0.3,1-0.4,1.2c-0.3,0.8-0.5,1.5-0.7,2s-0.3,0.9-0.4,1.2
		c-0.2,0.6-0.4,1.1-0.5,1.5s-0.2,0.8-0.2,1.1l0,0c0,0.3,0.1,0.5,0.2,0.7c0.1,0.1,0.3,0.2,0.4,0.2l0,0c0.2,0,0.4,0,0.6-0.1
		c0.2-0.1,0.4-0.1,0.5-0.3c0.4-0.3,0.7-0.7,1.1-1.2c0.4-0.6,0.7-1.3,1.1-2.1c0.1-0.2,0.4-0.3,0.6-0.2
		C2514.4,1562.7,2514.5,1562.9,2514.4,1563.2z"/>
</g>
<g>
	<path class="st4" d="M2397.4,1560.2l-6.7,2.5l5,2.3c0.3,0.1,0.4,0.4,0.3,0.7c-0.1,0.2-0.4,0.4-0.7,0.2l-6.2-2.7
		c-0.1,0-0.2-0.1-0.3-0.3c-0.1-0.3,0-0.6,0.3-0.7l7.9-3c0.3-0.1,0.6,0,0.7,0.3C2397.8,1559.8,2397.7,1560.1,2397.4,1560.2z"/>
	<path class="st4" d="M2409.3,1560.2l-6.7,2.5l5,2.3c0.3,0.1,0.4,0.4,0.3,0.7c-0.1,0.2-0.4,0.4-0.7,0.2l-6.2-2.7
		c-0.1,0-0.2-0.1-0.3-0.3c-0.1-0.3,0-0.6,0.3-0.7l7.9-3c0.3-0.1,0.6,0,0.7,0.3C2409.6,1559.8,2409.5,1560.1,2409.3,1560.2z"/>
</g>
<g>
	<path class="st5" d="M1087,1042c0,0.6-0.2,1.1-0.5,1.5s-0.8,0.8-1.3,1c0.6,0.2,1.2,0.6,1.5,1.1c0.4,0.5,0.6,1,0.6,1.7
		c0,1-0.3,1.8-1,2.4c-0.7,0.6-1.5,0.8-2.6,0.8s-2-0.3-2.6-0.8s-1-1.3-1-2.4c0-0.6,0.2-1.2,0.6-1.7s0.9-0.8,1.5-1.1
		c-0.6-0.2-1-0.5-1.3-1c-0.3-0.4-0.5-0.9-0.5-1.5c0-1,0.3-1.7,0.9-2.3c0.6-0.5,1.4-0.8,2.4-0.8s1.8,0.3,2.4,0.8
		C1086.8,1040.2,1087,1041,1087,1042z M1085.8,1047.2c0-0.6-0.2-1.1-0.6-1.5c-0.4-0.4-0.9-0.6-1.5-0.6s-1.1,0.2-1.5,0.6
		c-0.4,0.4-0.6,0.9-0.6,1.5c0,0.6,0.2,1.1,0.6,1.5c0.4,0.4,0.9,0.5,1.5,0.5s1.1-0.2,1.5-0.5
		C1085.7,1048.4,1085.8,1047.8,1085.8,1047.2z M1085.5,1042c0-0.6-0.2-1-0.5-1.4c-0.3-0.4-0.8-0.5-1.3-0.5s-1,0.2-1.3,0.5
		c-0.3,0.4-0.5,0.8-0.5,1.4s0.2,1,0.5,1.4s0.8,0.5,1.3,0.5s1-0.2,1.3-0.5S1085.5,1042.6,1085.5,1042z"/>
	<path class="st5" d="M1095,1046.5h1.5v1.2h-1.5v1.4l1.3,0.2v1h-4v-1l1.3-0.2v-1.4h-5v-0.9l4.9-7.8h1.6v7.5L1095,1046.5L1095,1046.5
		z M1090.2,1046.5h3.4v-5.3l0,0l-0.2,0.4L1090.2,1046.5z"/>
	<path class="st5" d="M1100.4,1039.9v2h1.6v1.1h-1.6v5.1c0,0.4,0.1,0.7,0.2,0.8c0.2,0.2,0.4,0.2,0.6,0.2c0.1,0,0.3,0,0.5,0
		s0.3,0,0.4-0.1l0.2,1c-0.1,0.1-0.4,0.2-0.6,0.2c-0.3,0.1-0.6,0.1-0.8,0.1c-0.6,0-1.1-0.2-1.5-0.6c-0.4-0.4-0.5-1-0.5-1.7v-5.1h-1.3
		v-1.1h1.3v-2L1100.4,1039.9L1100.4,1039.9L1100.4,1039.9z"/>
	<path class="st5" d="M1103.3,1049.3l1.3-0.2v-9.6l-1.3-0.2v-1h2.8v4.8c0.3-0.4,0.6-0.7,1.1-0.9c0.4-0.2,0.9-0.3,1.4-0.3
		c0.9,0,1.6,0.3,2.1,0.8s0.7,1.4,0.7,2.5v4l1.3,0.2v1h-4v-1l1.3-0.2v-4c0-0.7-0.1-1.2-0.4-1.5c-0.3-0.3-0.7-0.5-1.3-0.5
		c-0.4,0-0.8,0.1-1.1,0.3c-0.3,0.2-0.6,0.5-0.8,0.8v5l1.3,0.2v1h-4v-1.2L1103.3,1049.3L1103.3,1049.3z"/>
	<path class="st5" d="M1117.5,1047.2c0-0.6,0.2-1.2,0.5-1.6c0.3-0.4,0.9-0.9,1.6-1.4c-0.4-0.5-0.7-1-0.9-1.4
		c-0.2-0.4-0.3-0.8-0.3-1.2c0-0.9,0.2-1.5,0.8-2c0.5-0.5,1.2-0.7,2.1-0.7c0.8,0,1.5,0.2,2,0.7s0.8,1,0.8,1.7c0,0.5-0.1,0.9-0.4,1.3
		c-0.3,0.4-0.7,0.7-1.2,1.1l-0.8,0.6l2.6,3.1c0.2-0.3,0.4-0.7,0.5-1.1s0.2-0.8,0.2-1.3h1.4c0,0.7-0.1,1.3-0.3,1.9
		c-0.2,0.6-0.5,1.1-0.9,1.5l1.4,1.7l0,0h-1.8l-0.7-0.8c-0.4,0.3-0.9,0.5-1.4,0.7c-0.5,0.2-1,0.2-1.5,0.2c-1.1,0-2-0.3-2.7-0.9
		C1117.8,1048.9,1117.5,1048.2,1117.5,1047.2z M1121.2,1049.2c0.4,0,0.7-0.1,1.1-0.2s0.7-0.3,1-0.5l-2.8-3.3l-0.3,0.2
		c-0.5,0.3-0.8,0.7-0.9,1c-0.1,0.3-0.2,0.6-0.2,0.9c0,0.6,0.2,1.1,0.5,1.4C1119.9,1049,1120.5,1049.2,1121.2,1049.2z M1120,1041.6
		c0,0.3,0.1,0.6,0.2,0.8c0.1,0.3,0.3,0.6,0.6,1l1.1-0.7c0.3-0.2,0.5-0.4,0.6-0.6c0.1-0.2,0.2-0.5,0.2-0.8c0-0.3-0.1-0.6-0.4-0.8
		c-0.2-0.2-0.6-0.4-1-0.4s-0.7,0.1-1,0.4C1120.2,1040.8,1120,1041.2,1120,1041.6z"/>
	<path class="st5" d="M1140,1042.5h-1.1l-0.3-1.6c-0.2-0.2-0.5-0.4-0.9-0.6c-0.4-0.2-0.8-0.2-1.3-0.2c-1.2,0-2.1,0.4-2.7,1.3
		c-0.6,0.8-0.9,1.9-0.9,3.2v0.2c0,1.3,0.3,2.4,0.9,3.2c0.6,0.8,1.5,1.3,2.5,1.3c0.5,0,1-0.1,1.4-0.2c0.4-0.2,0.7-0.4,1-0.6l0.3-1.6
		h1.1v2c-0.3,0.4-0.8,0.8-1.5,1.1c-0.6,0.3-1.4,0.5-2.2,0.5c-1.5,0-2.6-0.5-3.6-1.6c-1-1.1-1.4-2.4-1.4-4.1v-0.2
		c0-1.6,0.5-3,1.4-4.1s2.1-1.6,3.6-1.6c0.9,0,1.6,0.2,2.2,0.5s1.1,0.7,1.5,1.1V1042.5z"/>
	<path class="st5" d="M1145.4,1050.4c-1.2,0-2.1-0.4-2.8-1.2c-0.7-0.8-1-1.8-1-3v-0.3c0-1.2,0.4-2.2,1.1-3s1.5-1.2,2.5-1.2
		c1.1,0,2,0.3,2.5,1c0.6,0.7,0.9,1.6,0.9,2.7v0.9h-5.4l0,0c0,0.8,0.2,1.5,0.6,2s0.9,0.8,1.6,0.8c0.5,0,1-0.1,1.3-0.2
		c0.3-0.1,0.7-0.3,1-0.6l0.6,1c-0.3,0.3-0.7,0.5-1.2,0.7C1146.8,1050.3,1146.2,1050.4,1145.4,1050.4z M1145.2,1043
		c-0.5,0-0.9,0.2-1.3,0.6c-0.4,0.4-0.6,1-0.7,1.6l0,0h3.8v-0.2c0-0.6-0.2-1.1-0.5-1.5C1146.3,1043.2,1145.8,1043,1145.2,1043z"/>
	<path class="st5" d="M1149.8,1049.3l1.3-0.2v-5.9l-1.3-0.2v-1h2.6l0.1,1.2c0.3-0.4,0.6-0.8,1-1c0.4-0.2,0.9-0.4,1.4-0.4
		c0.9,0,1.6,0.3,2.1,0.8s0.7,1.3,0.7,2.4v4.1l1.3,0.2v1h-4v-1l1.3-0.2v-4c0-0.7-0.1-1.3-0.4-1.6c-0.3-0.3-0.7-0.5-1.3-0.5
		c-0.4,0-0.8,0.1-1.2,0.3c-0.3,0.2-0.6,0.5-0.8,0.9v4.9l1.3,0.2v1h-4L1149.8,1049.3L1149.8,1049.3z"/>
	<path class="st5" d="M1162.8,1039.9v2h1.6v1.1h-1.6v5.1c0,0.4,0.1,0.7,0.2,0.8c0.2,0.2,0.4,0.2,0.6,0.2c0.1,0,0.3,0,0.5,0
		s0.3,0,0.4-0.1l0.2,1c-0.1,0.1-0.4,0.2-0.6,0.2c-0.3,0.1-0.6,0.1-0.8,0.1c-0.6,0-1.1-0.2-1.5-0.6c-0.4-0.4-0.5-1-0.5-1.7v-5.1h-1.3
		v-1.1h1.3v-2L1162.8,1039.9L1162.8,1039.9L1162.8,1039.9z"/>
	<path class="st5" d="M1169.8,1050.4c-1.2,0-2.1-0.4-2.8-1.2c-0.7-0.8-1-1.8-1-3v-0.3c0-1.2,0.4-2.2,1.1-3s1.5-1.2,2.5-1.2
		c1.1,0,2,0.3,2.5,1c0.6,0.7,0.9,1.6,0.9,2.7v0.9h-5.4l0,0c0,0.8,0.2,1.5,0.6,2s0.9,0.8,1.6,0.8c0.5,0,1-0.1,1.3-0.2
		c0.3-0.1,0.7-0.3,1-0.6l0.6,1c-0.3,0.3-0.7,0.5-1.2,0.7C1171,1050.3,1170.4,1050.4,1169.8,1050.4z M1169.5,1043
		c-0.5,0-0.9,0.2-1.3,0.6c-0.4,0.4-0.6,1-0.7,1.6l0,0h3.8v-0.2c0-0.6-0.2-1.1-0.5-1.5C1170.7,1043.2,1170.2,1043,1169.5,1043z"/>
	<path class="st5" d="M1174.4,1042.9v-1h2.6l0.1,1.2c0.2-0.4,0.5-0.8,0.9-1c0.3-0.2,0.7-0.4,1.2-0.4c0.1,0,0.2,0,0.4,0
		c0.1,0,0.2,0,0.3,0.1l-0.2,1.4h-0.9c-0.4,0-0.7,0.1-1,0.3c-0.3,0.2-0.5,0.4-0.6,0.8v4.8l1.3,0.2v1h-4v-1l1.3-0.2v-5.9
		L1174.4,1042.9z"/>
</g>
</svg>
