<?xml version="1.0" encoding="utf-8"?>
<!-- Generator: Adobe Illustrator 19.1.0, SVG Export Plug-In . SVG Version: 6.00 Build 0)  -->
<svg version="1.1" id="Layer_1" xmlns="http://www.w3.org/2000/svg" xmlns:xlink="http://www.w3.org/1999/xlink" x="0px" y="0px"
	 viewBox="398 0 1156.4 360" style="enable-background:new 398 0 1156.4 360;" xml:space="preserve">
<style type="text/css">
	.st0{fill:#F4EC8F;}
	.st1{fill:#E6E7E8;}
	.st2{fill:#D3CB7D;}
	.st3{fill:#50516A;}
	.st4{fill:#03A8A0;}
	.st5{enable-background:new    ;}
	.st6{fill:#FFFFFF;}
</style>
<rect x="398" y="320.7" class="st0" width="1156.4" height="39.3"/>
<path class="st1" d="M1495,124.1c2.4-0.8,21.2-4.4,31.1-4.8c4.2-0.2,15.1-1.5,15.1-1.5c-10.6-1.1-21.2-0.5-31.8,0.3
	c0-1.3,0-2.5,0-3.7c0-2.9,0.1-3.2,2.9-4.2c4.5-1.5,9-2.9,13.5-4.4c1.5-0.5,2.9-1,4.4-1.6c-0.1-0.2-0.1-0.3-0.2-0.5
	c-3.7,0.9-7.5,1.8-11.2,2.7c0.4-0.7,0.9-1.1,1.4-1.4c11-6.8,19.4-12,30.4-18.8c0.8-0.5,4.3-2.5,3.6-4c-14.5,8.2-28.9,16.4-43.4,24.6
	c2.7-6,4.6-16.7,4.6-16.7c-3.3,5-2.3,9.3-5.5,14.2c-2.1-1.4-1.3-4.6-4-5.4c0.5,2,0.9,4,1.9,5.7c1.1,1.8,0.6,4-1.4,5.1
	c-1.4,0.7-3,1.1-4.6,1.5c-8.7,2.3-16.4,6.7-23.7,11.9c-3.7,2.6-7.4,5-11.2,7.6c-0.3-0.3-0.3-0.2-0.6-0.5c0.5-1,0.9-2.1,1.4-3
	c5-8.4,10-16.8,15.2-25.1c1.6-2.5,3.9-4.4,5.7-6.7c2.4-3.3,5.2-5,9.5-4.2c2.9,0.5,5.9,0,8.7-1.3c-3.7-0.6-7.4,1.2-11.2-0.5
	c7.3-6.2,12.9-13.9,18.9-21.1c0.2-0.3-0.2-0.6-0.4-0.4c-5.2,5.1-13.8,13.3-19.2,18c1.2-2.9,2.9-8.3,2.7-11.2c0,0-2.8,7.6-4.4,11.3
	c-1.1,2.6-3.2,3.8-6,5.4c0.4-2.1,0.7-3.7,1.1-5.3c-0.2,0-0.4-3-1.1-2.9c0.3-4.3,0.3-5.4,0.6-10.2c-0.9,0.9-2.9,11.2-3.2,15.8
	c-0.2,2.5-0.2,4.9-1.8,7.1c-5.3,7.2-10.4,14.6-15.5,21.9c-5.5,7.8-9.9,16.1-12.4,25.4c-0.8,3-1.5,6.1-3,8.8
	c-4.6,8.5-9.6,16.9-13.2,26c-1.3,3.2-3.3,6.1-4.9,9.1c-0.3,0-0.4,0-0.7,0c-0.4-0.7-1-1.4-1-2.1c-0.1-2.9-0.3-5.8-0.1-8.6
	c0.6-8.9,1.7-17.8,0.9-26.8c-0.4-4.9-0.3-9.7,2.9-14c0.9-1.2,1.2-2.8,1.8-4.2c1.2-3.2,1.7-7.1,3.8-9.3c5.4-5.8,11.8-10.6,19.6-12.8
	c2.2-0.6,3-2,3.5-4c-2.7,0.7-5.1,1.3-8.1,2c-0.1-2.8-0.7-5.5-0.1-7.9c1-4.2,2.7-8.2,4.1-12.2c0.7-2,1.4-4,1.9-6
	c0.2-0.6-0.2-1.4-0.3-2c-1.8,4.2-3.6,8.3-5.4,12.3s-3.5,8.1-3,12.6c0.3,2.8-0.3,4.9-3.1,6.1c-1,0.4-1.8,1.2-2.7,1.8
	c-2.1,1.3-4.3,2.5-6.6,3.8c0-0.6,0-1,0-1.3c0.6-4.3,1.2-8.5,1.9-12.8c0.1-0.8,0.6-1.8,1.2-2.3c1.6-1.2,3.3-2.2,4.9-3.3
	c0.9,0.7,1.9,1.5,2.9,2.3c0.1-0.1,0.2-0.2,0.3-0.3c-0.2-0.4-0.2-0.8-0.5-1.1c-1.9-2.2-1.5-4.4,0-6.5c0.2-0.3,0.4-0.6,0.6-1
	c0.9-1.7,1.8-3.5,2.7-5.2l-0.5-0.4c-0.5,0.4-1.1,0.7-1.5,1.2c-1.1,1.8-2.1,3.7-3.2,5.4c-1.2,1.8-2.4,3.8-3.9,5.3
	c-0.7,0.7-2.6,1.3-3.2,0.9c-1.9-1.2-3.4-3-5.1-4.6c-1-0.9-1-1.7-0.1-2.9c3.1-4,6-8.1,8.9-12.2c0.5-0.8,0.9-1.6,1.4-2.4l-0.5-0.3
	c-3.7,4.9-7.4,9.8-11.2,14.6c-0.3-0.4-0.3-0.7-0.3-0.9c1.8-4.8,3.4-9.6,5.4-14.3c2.8-6.3,5.8-12.7,10.5-17.8c3.6-3.9,6.6-8,8.7-12.7
	c2.5-5.4,4.4-11.1,6.5-16.7c0.1-0.3,0-0.8,0-1.2c-0.9,0.4-1.6,0.9-1.9,1.6c-1.2,2.7-2.4,5.5-3.4,8.3c-1.7,4.7-4.1,9-7.2,13.3
	c-1.9-4-3.7-7.7-5.6-11.4c-0.3-0.7-1-1.2-1.5-1.8l-0.6,0.4c0.3,1,0.6,2,1,3c1.6,3.4,3.1,6.8,4.8,10.1c0.5,1.1,0.4,1.6-0.5,2.4
	c-3.6,2.9-6.6,6.3-8.7,10.4c-1.6,3-3.3,6-5,9c-0.2,0.4-0.5,0.7-0.7,1c-0.2-0.1-0.3-0.1-0.5-0.2c0.9-3.6,1.8-7.3,2.7-10.9
	c1.8-6.9,3.6-13.8,5.3-20.6c-1.5-0.7-1.9-0.2-2.2,0.9c-1.2,4.5-2.4,8.9-3.6,13.4c-0.7,2.5-1.6,4.8-2.6,7.8c-1.1-1.8-1.9-3-2.6-4.3
	c-2.9-5-5.7-10.1-8.7-15.1c-0.5-0.8-1.2-1.4-1.8-2.1l-0.5,0.4c0.2,0.5,0.4,1,0.7,1.5c3.1,6.1,6.2,12.2,9.5,18.2
	c1.6,2.9,2.2,5.7,1.2,9c-0.6,1.9-0.9,4.1-0.7,6c0.3,2.7-0.3,5.1-1.6,7.5c-1.5-1.9-1.8-4.5-4.4-6.1c0.4,1.1,0.6,1.8,0.9,2.4
	c0.6,1.4,1.4,2.7,2,4c1.3,2.7,0.2,4.4-2.8,4.3c-1.8-0.1-3.6-0.2-5.5-0.3c-0.1-0.3-0.3-0.8-0.4-1.2c-2-9.3-4.3-18.6-5.9-28
	c-1.4-8.1-2-16.3-3-24.5c-0.4-3.1-0.4-6,0.7-9c0.6-1.5,0.6-3.2,0.9-4.8c-2.6,1-1.7,3.6-2.9,5.2c-0.2-0.6-0.4-1.2-0.5-1.8
	c-0.7-3.9-1.5-7.8-2.2-11.7c-0.2-1.1-0.5-1.9-1.9-1.3c0,0.3,0,0.6,0.1,0.9c0.9,5.3,2,10.5,2.6,15.8c0.7,6.3,0.7,12.7,1.2,19
	c0.5,6.6,1,13.2,1.8,19.7c1.1,9.5,2.5,18.9,5,28.1c1.2,4.2,2.5,8.3,3.2,12.5c0.9,6.3,1.7,12.6,1.9,19c0.4,11,0.3,22,0.5,33.1
	c0,0.3,0,0.6-0.1,0.9c-0.4,3-0.9,6-1.4,9c-1.9-0.6-2.8-1.5-2.8-3.2c-0.1-1.9-0.5-3.8-0.7-5.7c-0.2-2.5-0.7-4.8-1.9-7
	c-2.3-4.3-4.3-8.7-6.3-13.1c-0.3-0.6-0.1-1.7,0.2-2.4c1.2-2.1,2.6-4,3.8-6.1c1.1-1.8,1.1-2.9,0.5-3.9c-2.1,3.1-4.3,6.3-6.8,9.8
	c-2.9-3.3-5.5-6-7.7-9c-2.4-3.3-4.5-6.8-6.7-10.2c-0.2-0.3-0.3-0.7-0.2-1c0.6-3.1,1.3-6.1,1.9-9.1c0.7-3.4,1.7-6.8,1.8-10.2
	c0.1-3.9-0.6-7.9-1-11.8c0-0.4-0.4-0.8-0.6-1.3l-0.6,0.2c0.2,3.3,0.7,6.5,0.7,9.8c0,3.1-0.3,6.3-0.6,9.4c-0.3,0.1-0.3,0.1-0.5,0.1
	l-3.8-6.3c0.7,3,2.3,5.7,2.5,8.5c0.2,2.8-1,5.8-1.6,8.7c-0.3,0-0.3,0-0.6,0.1c-2.2-4.3-5.1-8.3-6.3-12.8c-1.9-6.7-4.5-13-8.1-18.9
	c-0.6-0.9-1.1-2.1-1.1-3.2c-0.1-2.9-0.3-5.8,0.2-8.7c0.9-6.5,1.3-13,0.8-19.5c-0.4-4.8-0.7-9.7-1-14.5c-1.2,0.3-1.2,0.4-1.1,2.5
	c0.2,5.8,0.6,11.6,0.5,17.5c0,3.8-0.7,7.7-1.1,11.5c-0.3,0-0.2,0-0.5,0l-0.3-1.7c-0.1,0-0.2,0-0.4,0c0,8.8,0,17.7,0,26.7
	c-2-1.5-3.1-3.4-4-5.6c-2.2-5.4-1.2-11.3-2.5-16.8c-0.2-0.9-0.2-1.8-0.1-2.7c0.3-4.3,0.6-8.5,0.8-12.8c0-0.7-0.1-1.5-0.2-2.3h-0.5
	l-1.1,11.4c-1.3-1.4-0.6-3.5-2.6-4.8c0.2,1.2,0.2,2,0.4,2.7c0.5,2.3,1.1,4.6,1.4,6.9c0.3,2.2,1,4.7,0.4,6.7
	c-1.6,5.1-3.9,10-6.1,15.3c-0.5-0.6-0.7-0.8-0.8-1c-2.8-4.5-5.7-8.9-8.5-13.4c-0.6-1-1.1-1.5-2.3-0.5c0.3,0.5,0.5,1.1,0.8,1.7
	c2.7,4.6,5.5,9.3,8.2,13.9c4,6.7,6.1,13.9,6.6,21.7c-0.7-0.5-1.4-1-2-1.5c-4-3.5-8.4-6.4-13-9.1c-5.3-3.1-9.4-7.6-12.2-13
	c-3.6-6.9-6.6-14.3-9.8-21.4c-1-2.1-1.8-4.3-2.8-6.5l-0.6,0.1c0.1,0.7,0,1.4,0.2,2c0.6,1.6,1.2,3.1,1.9,4.7
	c2.9,7.4,5.8,14.8,8.7,22.2c0.2,0.4,0.4,0.9,0.7,1.3c3.7,5.5,7.6,10.6,13.1,14.4c3.5,2.5,6.9,5.2,10.3,7.9c2.7,2,5.4,4,8,6.1
	c1.3,1.1,2.4,2.6,3.6,3.9c-0.1,0.3-0.1,0.3-0.2,0.6c-2.5,0.4-5.1,0.9-7.6,1.1c-2.6,0.2-5.3,0.1-7.9,0.1c-2.5,0-5,0-7.5,0
	c0,0.2,0,0.1,0,0.4c3.4,0.2,6.7,0.4,10.7,0.7c-1.7,1.7-3.1,3.1-4.5,4.4c0.2,0.2,0.1,0.1,0.3,0.3c1.3-1.1,2.6-2.2,3.9-3.2
	c0.7-0.6,1.6-1.2,2.4-1.3c3.4-0.5,6.8-0.8,10.2-1.1c0.5,0,1.3,0.3,1.6,0.7c1.9,3,3.7,6,5.5,9c-4.3,1.6-8.7,2.7-13.6,1.6
	c-5-1.2-10.2-1.6-15.3-2.3c-0.1,0-0.3-0.1-0.4-0.1c-0.4-0.3-0.8-0.7-1.1-1c-0.1,0-0.1-0.1-0.2-0.1c-0.7-0.9-1.3-1.9-1.8-2.9
	c-1.6-2.6-3.1-5.3-4.7-7.8c-0.4-0.6-1.2-1-1.9-1.5c0,0.1-0.1,0.2-0.1,0.3c2.4,4.3,4.8,8.6,7.3,13.1c-1.8,0.2-3.1,0.3-4.3,0.5
	c-0.4,0.1-0.8,0.5-1.2,0.7c0.4,0.2,0.9,0.7,1.3,0.7c1.6,0,3.1-0.2,4.7-0.2c0.9,0,1.9,0,2.8,0.1c5.6,6.2,11,12.5,17.7,17.7
	c-3.8,1.9-7.6,0.2-11.2,1c2.9,1.2,5.9,1.5,8.8,0.9c4.3-0.9,7.1,0.6,9.7,3.8c1.8,2.3,4.3,4.1,6,6.5c5.6,8,11,16.2,16.4,24.3
	c0.6,0.9,1.1,2,1.6,2.9c-0.3,0.3-0.3,0.2-0.5,0.5c-3.8-2.3-7.7-4.6-11.5-7c-7.5-4.8-15.4-8.8-24.2-10.7c-1.6-0.3-3.2-0.6-4.6-1.2
	c-2.1-1-2.6-3.2-1.6-5c0.9-1.7,1.3-3.8,1.6-5.8c-2.7,1-1.7,4.1-3.7,5.6c-3.4-4.8-2.7-9.1-6.2-13.9c0,0,2.4,10.6,5.4,16.5
	c-14.8-7.5-29.6-14.9-44.5-22.4c-0.7,1.5,3,3.3,3.8,3.8c11.4,6.3,20,11,31.3,17.3c0.6,0.3,1.1,0.7,1.5,1.4
	c-3.8-0.7-7.5-1.4-11.3-2.1c0,0.2-0.1,0.4-0.1,0.5c1.5,0.5,3,0.9,4.5,1.4c4.6,1.2,9.2,2.4,13.7,3.7c2.8,0.8,2.9,1.1,3.1,4
	c0.1,1.2,0.1,2.4,0.2,3.7c-10.6-0.3-21.2-0.3-31.7,1.3c0,0,11,0.8,15.2,0.7c10.5-0.1,21,0.6,31.2,3.2c2.3,0.6,4.5,1.5,6.6,2.6
	c4.3,2.3,8.4,4.9,12.7,7.2c1.3,0.7,3,0.7,4.5,1.2c2.6,0.9,5.1,1.9,7.6,3.1c0.7,0.3,1.2,1.2,1.5,1.9c1.6,4.2,3.1,8.4,4.7,12.6
	c0.4,0.9,0.9,1.8,1.5,2.9c-2.6-1.1-5.1-2-7.5-3.1c-1.5-0.7-3.1-1.4-4.2-2.5c-1.3-1.4-2.2-3.2-3.3-4.9c-1-1.6-1.9-3.3-2.9-5
	c-0.2,0.1,2.2,7,3.7,10.6c-2.4-0.8-4.6-1.8-6.5-3.4c-2.7-2.3-12.2-9.5-12.4-9.3c1.3,1.4,2.6,2.7,3.9,4.1c1.4,1.4,2.9,2.7,4.3,4.1
	c3.6,3.7,7.8,6.2,12.7,7.8c4.9,1.6,9.6,3.7,14.2,6.1c1.5,0.8,2.5,3,3.4,4.7c1.4,2.7,3.7,7.3,5.7,11.3c2.5,5,3.8,10.4,4,16v0.1
	c0.2,10.9-1.2,21.7-2.5,32.5c-1.2,9.8-2.3,19.7-3.4,29.5h22.7c-0.1-1.2-0.3-2.4-0.4-3.6c-0.9-11.2-1.9-22.4-2.7-33.6
	c-0.3-4.4-0.7-8.7-0.7-13.1c0-1,0-2,0-3c0.1-10.2,4.4-19.9,11.9-26.8c4.6-4.2,9.5-8.8,12.6-11.8c2.2-2.1,5-3.7,7.7-5.3
	c8.2-5,15-11.5,21-18.9c5.6-7,11.3-13.9,16.8-21c1.7-2.2,4-2.8,6.3-3.7c4.3-1.6,13.6-6.3,14.3-7.4c-4.5,1.6-5.6,2-9.7,3.4
	c-0.1-0.7-3.1,0-3.1-0.3c-1.5,0.8-2.9,1.5-4.8,2.5c0.8-3.1,1.4-5.5,3.6-7.3c3.1-2.5,9.6-7.3,9.6-7.3c-2.9,0.6-7.6,3.8-10.1,5.7
	c3.1-6.4,8.6-16.9,12-23.4c0.2-0.3-0.3-0.6-0.5-0.3c-5.3,7.8-11.1,15.3-15.1,24c-2.7-3.2-1.9-7.3-3.5-10.7c-0.5,3-0.1,6.1,1.2,8.7
	c1.9,4,1.1,7.1-1.4,10.3c-1.8,2.3-3,5.1-4.9,7.3c-6.5,7.3-13.2,14.4-19.9,21.5c-0.8,0.8-1.7,1.5-2.5,2.2c-0.3-0.2-0.3-0.2-0.6-0.4
	c1.4-4.3,2.7-8.6,4.2-12.8c3-8.4,5.1-17,4.9-26c0-1.6-0.2-3.3,0.2-4.8c0.5-2.2,2.5-3.3,4.5-2.7c1.9,0.5,4,0.4,6,0.3
	c-1.5-2.4-4.3-0.7-6.3-2.4c3.9-4.4,8.2-4.7,12.1-9.2c0,0-9.3,3.5-14.3,7.8c0,0,6.1-18.4,5-24.9l-2.1,8.2c-0.2,0.7-0.4,1.3-0.7,1.9
	l-3.3,6.6c-0.2,0.6-0.4,1.2-1,1.8c-0.2-3.8-1.3-8.4-1.4-6.9c-0.2,4.7-0.2,9.5-0.5,14.2c-0.2,2.9-0.4,3.1-3.2,3.9
	c-1.1,0.3-2.3,0.7-3.5,1c0,0-1.5,4.9-1.7,15.5c0,2.4-0.5,4.8-1.1,7.1c-1.2,4.7-2.8,9.3-4.1,14c-0.4,1.5,0,3.1-0.1,4.6
	c-0.3,2.7-0.7,5.4-1.2,8.1c-0.1,0.7-0.9,1.5-1.5,1.9c-3.7,2.5-7.5,5-11.2,7.5c-0.8,0.6-1.5,1.3-2.5,2.1c0.4-2.8,0.8-5.4,1.3-8
	c0.3-1.6,0.7-3.3,1.5-4.7c1-1.6,2.6-2.9,4-4.3c1.4-1.3,2.8-2.6,4.2-3.9c-0.2-0.2-6.3,3.7-9.4,6c0.2-2.5,0.7-4.9,1.9-7.1
	c1.7-3.2,6.4-14.1,6.2-14.2c-1,1.6-2.1,3.1-3.1,4.7c-1,1.7-1.9,3.5-3,5.1c-2.7,4.3-4.3,9-4.7,14.2c-0.5,5.1-1.4,10.2-2.7,15.2
	c-0.4,1.7-2.3,3.2-3.8,4.4c-3.2,2.8-6.5,5.4-9.8,8.1c0-6.3-0.1-12.6-0.2-18.9c0-5.9-0.1-11.9,1.9-17.6c0.6-1.7,0.7-3.7,1.3-5.4
	c0.9-3,1.9-6,3-9c0.8-2.1,2.2-4,3.1-6.1c2.4-5.4,4.6-10.9,7.1-16.3c0.8-1.8,1.7-4,3.2-4.8c4.4-2.6,9.1-4.9,13.9-6.8
	c4.9-1.9,8.9-4.6,12.3-8.4c1.3-1.5,2.8-2.8,4.1-4.3c1.3-1.4,2.5-2.8,3.7-4.3c-0.2-0.2-9.3,7.4-11.9,9.9c-1.8,1.7-4,2.9-6.3,3.7
	c1.4-3.6,3.5-10.6,3.2-10.7c-0.9,1.7-1.7,3.4-2.6,5.1c-0.9,1.7-1.7,3.6-3,5c-1.1,1.2-2.6,2-4.1,2.7c-2.3,1.2-4.8,2.3-7.4,3.5
	c0.5-1.1,1.1-2,1.4-3c1.4-4.3,2.7-8.6,4.1-12.8c0.2-0.7,0.8-1.6,1.4-2c2.4-1.3,4.9-2.4,7.5-3.4c1.4-0.6,3.1-0.6,4.4-1.4
	c4-2.4,7.8-5,11.8-7.4c0.3-0.2,0.5-0.3,0.8-0.5C1489.5,126.4,1491.5,125.3,1495,124.1z M1361.1,91.9c0.8-1.7,1.5-3.4,2.2-5.1
	c0.8-1.7,1.6-3.4,2.4-5.3c0.6,2.5,1.1,4.8,1.7,7.1c0.8,2.9,2.2,5.4,4.6,7.3c1.1,0.9,1.8,2.1,2.7,3.2c-0.1,0.2-0.3,0.3-0.4,0.5
	c-0.5-0.2-1.1-0.3-1.6-0.6c-3.6-1.7-7.2-3.5-10.8-5.2C1361.1,93.4,1360.7,92.9,1361.1,91.9z M1375.3,120.8c-6.1-1.4-8.4-6-9.2-11.5
	c-0.7-4.3-2-8.4-3.9-12.3c-0.3-0.7-0.5-1.4-0.9-2.4c0.6,0.2,0.9,0.3,1.2,0.4c3.6,1.8,7.1,3.7,10.6,5.5c1,0.5,1.6,1.2,1.8,2.4
	C1376,109,1376.9,114.9,1375.3,120.8z M1364.9,186.1c-1.8-0.3-3.7-0.5-5.5-0.8c-2.9-0.5-3.9-2-3.6-5.4c3.2,2,6.2,4,9.2,5.9
	C1365,185.9,1365,186,1364.9,186.1z M1363.4,180.2c8.6,2.6,15.9,7.6,22.9,13.1C1378.8,188.9,1370.4,185.9,1363.4,180.2z M1499.5,114
	c-6.6,6-14.9,9.4-22.2,14.2C1483.9,122.3,1491,117.1,1499.5,114z M1431.5,98.7c1.2-2.3,2.7-4.5,4.1-7c1.5,1.6,2.7,3.2,4.3,4.5
	c1.5,1.3,2,2.5,0.6,4.1c-0.4,0.5-0.6,1.2-0.7,1.8c-1,4.5-1.8,9.2-3.1,13.6c-1.2,4.1-2.9,8-4.5,12.5c-0.7-4.6-1.3-8.6-1.9-12.7
	c-0.3-2.2-0.3-4.5-0.8-6.6C1428.5,105.2,1429.8,101.9,1431.5,98.7z M1423.1,87.7c2.7,0.3,4.9,0.6,7.5,1c-1.4,2.3-2.7,4.3-3.9,6.4
	c-0.2,0-0.4,0-0.6,0.1C1425.2,92.8,1424.2,90.4,1423.1,87.7z M1408.4,139.5c1.9,4.7,4.1,10.8,5.7,15.6c0.7,2.1,0.5,4.5,0.7,6.7
	c-0.1,0.1-0.3,0.1-0.4,0.2c-0.5-0.6-1-1.2-1.5-1.8c-2-2.5-4.2-5-6-7.6c-0.7-0.9-1.2-2.3-1.1-3.4c0.4-2.8,1.2-5.5,1.9-8.3
	C1407.7,140.9,1408.2,139.5,1408.4,139.5z M1386.4,108c4.3,7.7,8.9,15.3,13.7,22.8c1.8,2.8,4.4,5.2,6.6,7.7c-1.3,3-2.6,6-3.9,9.1
	c-0.8-1.5-1.4-3.2-2.5-4.4c-2.7-2.8-5.6-5.3-8.5-8c-3.2-3-6.8-5.7-9.4-9.1c-1.6-2-2.2-5.3-2-8c0.3-4.4-0.8-8.6-1.2-12.8
	c0-0.5-0.1-1.1-0.2-1.8C1382.3,103.8,1384.7,105,1386.4,108z M1394.7,148.9c-6.7-5.2-12.3-11.4-17.4-18.1
	C1384.9,135,1390,141.7,1394.7,148.9z M1384.1,102.9c-1.6-0.3-3.1-0.6-4.5-1c-0.4-0.1-0.9-0.5-1-0.8c-1.4-5.6-1.9-11.2-2-17
	C1380.4,89.9,1383,96.1,1384.1,102.9z M1349.6,137.8c4.1,0.5,8,1.6,12,2.8c0.4,0.1,0.9,0.2,1.3,0.3c0.1,3,2,8.1,3.3,10.9
	C1361.7,148.2,1355,142.4,1349.6,137.8z M1367.8,151.8c-1.5-3.2-4.3-9.5-4.8-10.8c3.3,0.8,6.6,1.1,9.9,0.4c0.3,2.6,0.4,4,0.8,7.3
	c-0.7,0-0.7,3-1,3c0.4,1.6,0.8,3.2,1.3,5.3C1371.3,155.5,1369.2,154.4,1367.8,151.8z M1412.5,215.6c-1.6-2.6-2.4-5.7-3.4-8.7
	c-3-9.1-7.8-17.2-13.7-24.8c-5.5-7.1-10.9-14.2-16.6-21.1c-1.8-2.2-1.9-4.5-2.2-7c-0.4-3.3-1.8-9.3-2.8-12.9
	c0.4-0.1,0.9-0.2,1.3-0.4c2.7-0.9,5.1-0.5,6.9,1.9c0.4,0.6,1,1,1.5,1.6c3.8,4.1,7.7,8,12.6,10.9c5.6,3.2,9.8,8,13.3,13.5
	c1,1.6,2.4,3.2,4,4.2c3.3,2.1,5.2,5.3,7.3,8.3c0.3,0.5,0.4,1.1,0.4,1.7c0.1,4.1,0.1,8.2,0.1,12.3c0,2.9-0.3,5.9-0.2,8.8
	c0.3,6.2,1.1,12.4,1.2,18.7c0.1,3.2,0.1,6.3,0.2,9.5C1419.3,226.6,1415.9,221.2,1412.5,215.6z M1476.2,197.6
	c2.6-8.4,3.6-17.3,7.6-25.3C1483.2,181.3,1480,189.6,1476.2,197.6z M1482.3,164.9c-1.2,3.5-2.4,6.9-3.6,10.3c-0.1,0-0.2-0.1-0.4-0.1
	c-0.1-1.8-0.3-3.7-0.4-5.5C1477.7,166.7,1478.9,165.4,1482.3,164.9z M1503.7,118.9c-1.8,0.4-3.6,0.7-5.4,1.1
	c-0.1-0.1-0.1-0.2-0.2-0.3c2.9-2.1,5.9-4.2,8.9-6.3C1507.5,116.7,1506.5,118.3,1503.7,118.9z"/>
<ellipse class="st2" cx="1308.1" cy="336.6" rx="26.8" ry="6"/>
<rect x="1301.9" y="119.5" class="st3" width="10.4" height="217.1"/>
<g>
	<polygon class="st4" points="1376.7,172.8 1245.2,172.8 1228.3,157.2 1245.2,143.5 1376.7,143.5 	"/>
	<g>
		<g class="st5">
			<path class="st6" d="M1258.7,162.9l1.7-0.2v-8.1h-1.7v-0.9l3.2-0.7v9.7l1.7,0.2v0.9h-4.8v-0.9H1258.7z"/>
			<path class="st6" d="M1265,162.9l1.7-0.2v-8.1h-1.7v-0.9l3.2-0.7v9.7l1.7,0.2v0.9h-4.9V162.9z"/>
			<path class="st6" d="M1273.6,153.8v1.9h1.5v1.1h-1.5v4.9c0,0.4,0.1,0.6,0.2,0.8c0.2,0.2,0.4,0.2,0.6,0.2c0.1,0,0.3,0,0.4,0
				c0.2,0,0.3,0,0.4-0.1l0.2,1c-0.1,0.1-0.3,0.2-0.6,0.2c-0.3,0.1-0.5,0.1-0.8,0.1c-0.6,0-1.1-0.2-1.4-0.5c-0.4-0.4-0.5-0.9-0.5-1.7
				v-4.9h-1.3v-1.1h1.3v-1.9H1273.6z"/>
			<path class="st6" d="M1276.4,162.9l1.2-0.2v-9.4l-1.2-0.2v-0.9h2.7v4.6c0.3-0.4,0.6-0.7,1-0.9c0.4-0.2,0.8-0.3,1.3-0.3
				c0.9,0,1.5,0.3,2,0.8s0.7,1.3,0.7,2.4v3.9l1.2,0.2v0.9h-3.9v-0.9l1.2-0.2v-3.9c0-0.7-0.1-1.2-0.4-1.5c-0.3-0.3-0.7-0.5-1.3-0.5
				c-0.4,0-0.8,0.1-1.1,0.3c-0.3,0.2-0.6,0.5-0.8,0.8v4.8l1.2,0.2v0.9h-3.9L1276.4,162.9L1276.4,162.9z"/>
			<path class="st6" d="M1290.2,160.9c0-0.6,0.2-1.1,0.5-1.6c0.4-0.5,0.9-0.9,1.6-1.4c-0.4-0.5-0.7-0.9-0.9-1.3s-0.3-0.8-0.3-1.2
				c0-0.8,0.2-1.5,0.7-1.9c0.5-0.5,1.2-0.7,2-0.7s1.4,0.2,1.9,0.7s0.7,1,0.7,1.6c0,0.5-0.1,0.9-0.4,1.3c-0.3,0.4-0.6,0.7-1.2,1.1
				l-0.8,0.6l2.5,3c0.2-0.3,0.4-0.7,0.5-1.1c0.1-0.4,0.2-0.8,0.2-1.2h1.3c0,0.7-0.1,1.3-0.3,1.8c-0.2,0.6-0.5,1.1-0.8,1.5l1.4,1.7
				l0,0h-1.7l-0.6-0.8c-0.4,0.3-0.8,0.5-1.3,0.7c-0.5,0.2-1,0.2-1.5,0.2c-1.1,0-1.9-0.3-2.6-0.9
				C1290.5,162.6,1290.2,161.8,1290.2,160.9z M1293.7,162.8c0.4,0,0.7-0.1,1.1-0.2c0.3-0.1,0.7-0.3,1-0.5l-2.7-3.2l-0.3,0.2
				c-0.5,0.3-0.8,0.7-0.9,1c-0.1,0.3-0.2,0.6-0.2,0.8c0,0.6,0.2,1,0.5,1.4S1293,162.8,1293.7,162.8z M1292.6,155.4
				c0,0.3,0.1,0.5,0.2,0.8c0.1,0.3,0.3,0.6,0.6,0.9l1-0.7c0.3-0.2,0.5-0.4,0.6-0.6c0.1-0.2,0.2-0.5,0.2-0.7c0-0.3-0.1-0.6-0.4-0.8
				c-0.2-0.2-0.6-0.4-0.9-0.4c-0.4,0-0.7,0.1-0.9,0.4C1292.7,154.7,1292.6,155,1292.6,155.4z"/>
			<path class="st6" d="M1311.4,153v0.9l-1.2,0.2v6.7c0,1-0.3,1.7-0.9,2.3s-1.4,0.9-2.4,0.9s-1.9-0.3-2.5-0.8s-0.9-1.3-0.9-2.3l0,0
				h1.4c0,0.7,0.2,1.2,0.5,1.5c0.3,0.3,0.8,0.5,1.4,0.5c0.5,0,1-0.2,1.3-0.5c0.3-0.4,0.5-0.9,0.5-1.5v-6.7l-1.2-0.2v-0.9h2.7
				L1311.4,153L1311.4,153z"/>
			<path class="st6" d="M1317.8,163.8c0-0.2-0.1-0.4-0.1-0.6s0-0.3-0.1-0.5c-0.3,0.4-0.6,0.7-1.1,0.9c-0.4,0.2-0.9,0.4-1.4,0.4
				c-0.8,0-1.5-0.2-1.9-0.6c-0.4-0.4-0.7-1-0.7-1.7c0-0.8,0.3-1.4,0.9-1.8c0.6-0.4,1.5-0.6,2.5-0.6h1.5v-1c0-0.5-0.1-0.8-0.4-1.1
				c-0.3-0.3-0.7-0.4-1.2-0.4c-0.4,0-0.7,0-1,0.1s-0.5,0.2-0.7,0.4l-0.2,0.8h-0.9v-1.6c0.4-0.3,0.8-0.5,1.3-0.7
				c0.5-0.2,1.1-0.3,1.7-0.3c0.9,0,1.7,0.2,2.2,0.7c0.6,0.5,0.8,1.1,0.8,2v3.9c0,0.1,0,0.2,0,0.3s0,0.2,0,0.3l0.6,0.1v0.9h-1.8
				V163.8z M1315.4,162.7c0.5,0,0.9-0.1,1.3-0.4c0.4-0.2,0.7-0.5,0.9-0.8v-1.3h-1.6c-0.6,0-1.1,0.1-1.4,0.4c-0.4,0.3-0.5,0.6-0.5,1
				s0.1,0.6,0.3,0.8C1314.6,162.7,1314.9,162.7,1315.4,162.7z"/>
			<path class="st6" d="M1324.5,162.8c0.5,0,0.9-0.1,1.3-0.5c0.4-0.3,0.6-0.7,0.6-1.1h1.3l0,0c0,0.7-0.3,1.3-0.9,1.9
				c-0.6,0.5-1.4,0.8-2.2,0.8c-1.2,0-2.1-0.4-2.7-1.1c-0.6-0.8-0.9-1.7-0.9-2.9v-0.3c0-1.1,0.3-2.1,0.9-2.9c0.6-0.8,1.5-1.2,2.7-1.2
				c0.6,0,1.2,0.1,1.7,0.3c0.5,0.2,0.9,0.5,1.3,0.9l0.1,1.8h-1.2l-0.3-1.3c-0.2-0.2-0.4-0.3-0.7-0.4c-0.3-0.1-0.6-0.2-0.9-0.2
				c-0.8,0-1.3,0.3-1.7,0.8s-0.5,1.2-0.5,2v0.3c0,0.8,0.2,1.5,0.5,2.1C1323.2,162.6,1323.7,162.8,1324.5,162.8z"/>
			<path class="st6" d="M1328.9,153.1v-0.9h2.7v6.7h0.9l1.7-2.1l-0.7-0.1v-0.9h3.4v0.9l-1,0.2l-2.1,2.5l2.6,3.3l0.9,0.2v0.9h-3.3
				v-0.9l0.8-0.1l-2.1-2.7h-1v2.6l1.2,0.2v0.9h-3.9v-0.9l1.2-0.2v-9.4L1328.9,153.1z"/>
			<path class="st6" d="M1344.6,158.3h-1.1l-0.2-1c-0.2-0.2-0.4-0.3-0.7-0.4c-0.3-0.1-0.6-0.2-0.9-0.2c-0.5,0-0.9,0.1-1.2,0.3
				c-0.3,0.2-0.4,0.5-0.4,0.8c0,0.3,0.1,0.6,0.3,0.8c0.2,0.2,0.7,0.3,1.4,0.5c1,0.2,1.8,0.5,2.3,0.9s0.7,0.9,0.7,1.5
				c0,0.7-0.3,1.3-0.9,1.7c-0.6,0.4-1.3,0.7-2.3,0.7c-0.6,0-1.2-0.1-1.6-0.2c-0.5-0.1-0.9-0.3-1.3-0.6v-1.8h1.1l0.3,1.1
				c0.2,0.2,0.4,0.3,0.7,0.3c0.3,0.1,0.6,0.1,0.9,0.1c0.5,0,0.9-0.1,1.2-0.3c0.3-0.2,0.4-0.5,0.4-0.8c0-0.3-0.1-0.6-0.4-0.8
				c-0.2-0.2-0.7-0.4-1.4-0.5c-1-0.2-1.7-0.5-2.2-0.9s-0.7-0.9-0.7-1.5c0-0.7,0.3-1.2,0.8-1.7c0.6-0.5,1.3-0.7,2.2-0.7
				c0.6,0,1.2,0.1,1.6,0.2c0.5,0.2,0.9,0.4,1.2,0.7L1344.6,158.3z"/>
			<path class="st6" d="M1346.2,159.7c0-1.2,0.3-2.2,1-2.9c0.6-0.8,1.5-1.2,2.6-1.2s2,0.4,2.6,1.2c0.6,0.8,1,1.8,1,3v0.2
				c0,1.2-0.3,2.2-1,3c-0.6,0.8-1.5,1.1-2.6,1.1s-2-0.4-2.6-1.2c-0.6-0.8-1-1.8-1-2.9V159.7z M1347.7,159.9c0,0.9,0.2,1.6,0.5,2.1
				c0.4,0.6,0.9,0.8,1.6,0.8c0.7,0,1.2-0.3,1.6-0.8c0.4-0.6,0.5-1.3,0.5-2.1v-0.2c0-0.8-0.2-1.5-0.5-2.1c-0.4-0.6-0.9-0.8-1.6-0.8
				c-0.7,0-1.2,0.3-1.6,0.8c-0.4,0.6-0.5,1.3-0.5,2.1V159.9z"/>
			<path class="st6" d="M1354.5,162.9l1.2-0.2v-5.8l-1.2-0.2v-0.9h2.5l0.1,1.2c0.3-0.4,0.6-0.8,1-1c0.4-0.2,0.9-0.4,1.4-0.4
				c0.9,0,1.5,0.3,2,0.8s0.7,1.3,0.7,2.4v3.9l1.2,0.2v0.9h-3.9v-0.9l1.2-0.2v-3.9c0-0.7-0.1-1.2-0.4-1.5c-0.3-0.3-0.7-0.4-1.3-0.4
				c-0.4,0-0.8,0.1-1.1,0.3c-0.3,0.2-0.6,0.5-0.8,0.8v4.7l1.2,0.2v0.9h-3.9v-0.9H1354.5z"/>
		</g>
	</g>
</g>
<g>
	<rect x="448.5" y="283.7" class="st1" width="35.7" height="10.2"/>
	<rect x="458.9" y="274.1" class="st1" width="15" height="3.5"/>
	<polygon class="st1" points="475.9,277.6 456.8,277.6 448.5,283.7 484.2,283.7 	"/>
	<polygon class="st1" points="470.8,123.9 462,123.9 460.9,274.1 471.8,274.1 	"/>
	<rect x="459.7" y="122.2" class="st1" width="13.4" height="1.7"/>
	<rect x="460.7" y="120.9" class="st1" width="11.3" height="1.3"/>
	<rect x="448.3" y="95.2" class="st1" width="36.2" height="1.3"/>
	<rect x="461.8" y="117.5" class="st1" width="9.2" height="1.3"/>
	<rect x="463" y="118.8" class="st1" width="7" height="2.1"/>
	<rect x="463" y="85.6" class="st1" width="7" height="2.1"/>
	<rect x="463.6" y="81" class="st1" width="5.7" height="1.5"/>
	<polygon class="st1" points="468.7,77.8 464.2,77.8 466.3,70.1 466.6,70.1 	"/>
	<polygon class="st1" points="474.1,87.7 458.6,87.7 450.4,95.2 482.4,95.2 	"/>
	<rect x="465.1" y="82.4" class="st1" width="2.8" height="3.1"/>
	<rect x="465.1" y="77.8" class="st1" width="2.8" height="3.1"/>
	<path class="st1" d="M447.2,96.5v1.7h0.2c0.4,1.6,1.8,6,5.7,11.5c3.4,4.7,7.4,7.8,7.6,7.9l0,0v0.1H472v-0.1l0,0
		c0.2-0.1,4.2-3.2,7.6-7.9c3.9-5.4,5.3-9.8,5.7-11.5h0.2v-1.7H447.2z M461.9,115.8c-0.3-0.2-4-3.1-7.1-7.4
		c-3.3-4.6-4.7-8.5-5.2-10.3h9.1c0,1.7,0.3,5.6,1.7,9.7c1.2,3.5,3,6.4,4.1,8C464.5,115.8,461.9,115.8,461.9,115.8z M462.3,107.1
		c-1.3-3.8-1.6-7.4-1.6-9H472c0,1.6-0.3,5.2-1.6,9c-1.2,3.4-3,6.3-4.1,7.8C465.3,113.5,463.5,110.6,462.3,107.1z M478,108.4
		c-3.1,4.3-6.8,7.2-7.1,7.4h-2.6c1.1-1.6,2.9-4.5,4.1-8c1.5-4.1,1.7-8,1.7-9.7h9.1C482.7,99.9,481.3,103.8,478,108.4z"/>
</g>
<g id="XMLID_163_">
	<g id="XMLID_175_">
		<rect id="XMLID_180_" x="502.8" y="238" class="st1" width="123.2" height="3.3"/>
		<rect id="XMLID_179_" x="502.8" y="245.2" class="st1" width="123.2" height="3.3"/>
		<rect id="XMLID_178_" x="502.8" y="252.3" class="st1" width="123.2" height="3.3"/>
		<rect id="XMLID_177_" x="502.8" y="259.4" class="st1" width="123.2" height="3.3"/>
		<rect id="XMLID_176_" x="502.8" y="266.6" class="st1" width="123.2" height="3.3"/>
	</g>
	<rect id="XMLID_174_" x="497.9" y="271.9" class="st1" width="133.1" height="5.2"/>
	<g id="XMLID_171_">
		<rect id="XMLID_173_" x="507.9" y="237.3" class="st1" width="4.1" height="35.9"/>
		<rect id="XMLID_172_" x="616.8" y="237.3" class="st1" width="4.1" height="35.9"/>
	</g>
	<g id="XMLID_164_">
		<g id="XMLID_168_">
			<rect id="XMLID_170_" x="500.1" y="274.2" class="st1" width="3.9" height="21.1"/>
			<rect id="XMLID_169_" x="504.9" y="274.3" class="st1" width="3.9" height="21.1"/>
		</g>
		<g id="XMLID_165_">
			<rect id="XMLID_167_" x="619.3" y="274.2" class="st1" width="3.9" height="21.1"/>
			<rect id="XMLID_166_" x="624" y="274.3" class="st1" width="3.9" height="21.1"/>
		</g>
	</g>
</g>
<g>
	<path class="st3" d="M1366.4,407.2c-0.4,0.9-0.8,1.6-1.2,2.2c-0.4,0.6-0.8,1.1-1.3,1.4c-0.2,0.2-0.5,0.3-0.8,0.4
		c-0.3,0.1-0.6,0.1-0.8,0.1h0c-0.4,0-0.8-0.1-1-0.4c-0.3-0.3-0.4-0.7-0.4-1.2v0v0c0-0.3,0.1-0.7,0.2-1.2c0.1-0.5,0.3-1,0.5-1.6
		c0.1-0.2,0.2-0.6,0.4-1.2c0.2-0.6,0.5-1.3,0.7-2c0-0.1,0.1-0.4,0.3-0.9h-1.3c-0.2,0-0.4-0.2-0.4-0.4c0-0.2,0.2-0.4,0.4-0.4h1.5
		c0.1-0.1,0.1-0.3,0.2-0.4c0.4-1.1,0.8-2.3,0.9-2.5c0.1-0.2,0.3-0.3,0.5-0.3s0.3,0.3,0.3,0.5c-0.1,0.2-0.5,1.4-0.9,2.5
		c0,0.1,0,0.1-0.1,0.2h1.3c0.2,0,0.4,0.2,0.4,0.4c0,0.2-0.2,0.4-0.4,0.4h-1.6c-0.2,0.6-0.3,1-0.4,1.2c-0.3,0.8-0.5,1.5-0.7,2
		c-0.2,0.5-0.3,0.9-0.4,1.2c-0.2,0.6-0.4,1.1-0.5,1.5c-0.1,0.4-0.2,0.8-0.2,1.1v0c0,0.3,0.1,0.5,0.2,0.7c0.1,0.1,0.3,0.2,0.4,0.2h0
		c0.2,0,0.4,0,0.6-0.1c0.2-0.1,0.4-0.1,0.5-0.3c0.4-0.3,0.7-0.7,1.1-1.2c0.4-0.6,0.7-1.3,1.1-2.1c0.1-0.2,0.4-0.3,0.6-0.2
		C1366.4,406.7,1366.5,406.9,1366.4,407.2z"/>
	<path class="st3" d="M1374.3,407.2L1374.3,407.2c-0.8,1.7-1.8,4.2-3.6,4.2h0c-0.6,0-0.9-0.2-1.1-0.6c-0.2-0.3-0.3-0.7-0.3-1.1v-0.1
		c0-0.4,0.1-0.9,0.2-1.4c0.1-0.5,0.3-1,0.5-1.4c0.1-0.1,0.1-0.2,0.1-0.4c0.3-0.7,0.7-1.8,0.7-2.7c0-0.6-0.3-1-1-1
		c-0.5,0-1.1,0.5-1.6,1.1c-0.7,0.9-1.4,2.2-1.8,3.3c0,0,0,0,0,0c-0.6,1.5-1.2,3.2-1.4,3.9c-0.1,0.2-0.3,0.3-0.5,0.3
		c-0.2-0.1-0.3-0.3-0.3-0.5c0.2-0.6,0.8-2.3,1.4-3.9l0,0v0c0,0,0,0,0,0c0.6-1.7,1.2-3.3,1.4-3.9v0c0.2-0.6,0.3-0.8,0.4-1.1
		c0.2-0.5,0.3-0.9,0.4-1.2l0.1-0.3c0.1-0.3,0.3-0.8,0.5-1.4c0.1-0.2,0.3-0.3,0.5-0.2c0.2,0.1,0.3,0.3,0.3,0.5
		c-0.2,0.5-0.4,1-0.5,1.4c0,0.1-0.1,0.2-0.1,0.3c-0.2,0.5-0.3,0.9-0.4,1.2l-0.3,0.7c0.6-0.6,1.2-0.9,1.8-0.9c1.4,0,1.9,0.8,1.9,1.9
		c0,1-0.5,2.2-0.8,3c-0.1,0.1-0.1,0.3-0.1,0.4c-0.2,0.5-0.3,0.9-0.5,1.4c-0.1,0.4-0.2,0.8-0.2,1.2v0c0,0.2,0,0.5,0.1,0.6
		c0.1,0.1,0.2,0.2,0.4,0.2h0c1.2,0,2.2-2.1,2.8-3.6l0-0.1c0.1-0.2,0.3-0.3,0.6-0.2C1374.3,406.7,1374.4,406.9,1374.3,407.2z"/>
	<path class="st3" d="M1381.5,407.2c-0.8,1.7-1.7,2.7-2.7,3.4c-1,0.6-2.1,0.8-3.1,0.8h0h0c-0.7,0-1.4-0.3-1.8-0.7
		c-0.5-0.5-0.8-1.1-0.7-2v0v0c0-0.5,0.1-1.1,0.3-1.7c0,0,0,0,0,0c0.1-0.4,0.3-0.9,0.5-1.3c0.5-1,1.1-2,1.7-2.7
		c0.3-0.3,0.6-0.5,1-0.7c0.3-0.2,0.7-0.3,1.1-0.3c0.5,0,0.8,0.1,1.1,0.3c0.3,0.2,0.5,0.5,0.6,0.8c0.1,0.3,0,0.7-0.1,1
		c-0.2,0.5-0.5,1-1,1.4c-0.5,0.4-1.2,0.8-1.8,1.1c-0.9,0.4-1.8,0.7-2.3,0.8c-0.1,0.5-0.2,0.9-0.2,1.3v0c0,0.6,0.2,1.1,0.5,1.4
		c0.3,0.3,0.8,0.5,1.3,0.5h0c0.8,0,1.7-0.1,2.6-0.7c0.9-0.5,1.7-1.5,2.3-3c0.1-0.2,0.3-0.3,0.6-0.2
		C1381.5,406.7,1381.6,407,1381.5,407.2z M1374.6,406.4c0.5-0.1,1-0.3,1.6-0.6c0.6-0.3,1.2-0.6,1.6-1c0.3-0.3,0.6-0.6,0.7-1
		c0.1-0.2,0.1-0.4,0-0.6c0-0.1-0.1-0.2-0.2-0.3c-0.1-0.1-0.3-0.2-0.6-0.2c-0.2,0-0.5,0.1-0.7,0.2c-0.2,0.1-0.5,0.3-0.7,0.6
		c-0.6,0.6-1.2,1.5-1.6,2.4C1374.7,406.1,1374.6,406.2,1374.6,406.4z"/>
	<path class="st3" d="M1385.2,407.2c-0.4,0.8-0.8,1.8-1.4,2.6c-0.6,0.9-1.4,1.6-2.3,1.6h0c-0.5,0-0.9-0.2-1.1-0.6
		c-0.2-0.3-0.3-0.7-0.3-1.1v-0.1c0-0.3,0.1-0.7,0.2-1.2c0.1-0.5,0.3-1,0.5-1.6c0.1-0.2,0.2-0.6,0.4-1.2c0.2-0.6,0.5-1.3,0.7-2
		c0-0.1,0.1-0.3,0.2-0.5l0.3-0.9c0.1-0.2,0.3-0.3,0.5-0.3c0.2,0.1,0.3,0.3,0.3,0.5l-0.3,0.9l-0.2,0.5c-0.3,0.8-0.5,1.5-0.7,2
		c-0.2,0.5-0.3,0.9-0.4,1.2c-0.2,0.6-0.4,1.1-0.5,1.5c-0.1,0.4-0.2,0.8-0.2,1.1v0c0,0.2,0,0.5,0.1,0.6c0.1,0.1,0.2,0.2,0.4,0.2h0
		c0.6,0,1.1-0.5,1.6-1.2c0.5-0.8,0.9-1.7,1.3-2.5c0.1-0.2,0.4-0.3,0.6-0.2C1385.2,406.7,1385.3,406.9,1385.2,407.2z M1383,400.3
		c0-0.4,0.3-0.7,0.7-0.7c0.4,0,0.7,0.3,0.7,0.7c0,0.4-0.3,0.7-0.7,0.7C1383.3,400.9,1383,400.6,1383,400.3z"/>
	<path class="st3" d="M1392.5,407.2L1392.5,407.2c-0.8,1.7-1.8,4.2-3.6,4.2h0c-0.5,0-0.9-0.2-1.1-0.6c-0.2-0.3-0.3-0.7-0.3-1.1v-0.1
		c0-0.3,0.1-0.7,0.2-1.2c0.1-0.5,0.3-1,0.5-1.6c0.2-0.5,0.3-0.9,0.4-1.1c0.1-0.4,0.2-0.6,0.4-1l-0.3-0.1c-0.6-0.2-1.2-0.4-1.8-0.7
		c-0.1,0.2-0.1,0.4-0.2,0.5v0l-1.6,3.5c-0.1,0.2-0.3,0.3-0.6,0.2c-0.2-0.1-0.3-0.3-0.2-0.6l1.6-3.5c0.1-0.2,0.2-0.4,0.2-0.6
		c-0.7-0.5-1.1-1-1-1.9c0-0.3,0.2-0.6,0.4-0.8c0,0,0,0,0,0c0.2-0.2,0.5-0.3,0.8-0.3c0.1,0,0.2,0,0.3,0l0,0c0.3,0.1,0.5,0.3,0.6,0.5
		c0.1,0.2,0.2,0.5,0.2,0.7c0,0.2,0,0.4-0.1,0.6c-0.1,0.2-0.1,0.4-0.2,0.7c0.6,0.3,1.2,0.5,1.8,0.7c0.3,0.1,0.5,0.2,0.8,0.2
		c0.2,0.1,0.3,0.3,0.2,0.6v0c-0.2,0.6-0.3,0.9-0.5,1.4c-0.1,0.3-0.2,0.6-0.4,1.1c-0.2,0.6-0.4,1.1-0.5,1.5c-0.1,0.4-0.2,0.8-0.2,1.1
		v0c0,0.2,0,0.5,0.2,0.6c0.1,0.1,0.2,0.2,0.4,0.2c1.3,0,2.2-2.1,2.8-3.6l0-0.1c0.1-0.2,0.3-0.3,0.6-0.2
		C1392.5,406.7,1392.6,406.9,1392.5,407.2z M1386.5,401.8c0-0.1,0-0.2-0.1-0.3c0-0.1-0.1-0.1-0.1-0.1h0c0,0-0.1,0-0.1,0
		c-0.1,0-0.2,0-0.2,0.1h0c-0.1,0.1-0.1,0.2-0.1,0.3c0,0.4,0.2,0.7,0.5,0.9c0.1-0.2,0.1-0.3,0.2-0.5
		C1386.5,402,1386.5,401.9,1386.5,401.8z"/>
	<path class="st3" d="M1403,407.2L1403,407.2c-0.8,1.7-1.8,4.2-3.6,4.2h0h0c-0.5,0-0.9-0.2-1.1-0.6c-0.2-0.2-0.2-0.5-0.3-0.8
		c-0.6,0.8-1.3,1.4-2.2,1.4h0c-0.5,0-0.9-0.2-1.1-0.6c-0.2-0.3-0.3-0.7-0.3-1.1v-0.1c0-0.3,0.1-0.7,0.2-1.2c0.1-0.5,0.3-1,0.5-1.6
		c0.1-0.3,0.3-0.9,0.6-1.6c0.3-0.9,0.7-2,1.1-3c0.1-0.2,0.3-0.3,0.5-0.2c0.2,0.1,0.3,0.3,0.2,0.5c-0.4,1.2-0.8,2.2-1.1,3
		c-0.3,0.7-0.5,1.3-0.6,1.6c-0.2,0.6-0.4,1.1-0.5,1.5c-0.1,0.4-0.2,0.8-0.2,1.1v0c0,0.2,0,0.5,0.1,0.6c0.1,0.1,0.2,0.2,0.5,0.2
		c1.2,0,2.2-2.1,2.8-3.6v0c0,0,0,0,0-0.1c0.1-0.3,0.3-0.9,0.6-1.6c0.4-0.9,0.7-2,1.1-3c0.1-0.2,0.3-0.3,0.5-0.2
		c0.2,0.1,0.3,0.3,0.3,0.5c-0.4,1.2-0.8,2.2-1.1,3c-0.3,0.7-0.5,1.3-0.6,1.6v0c0,0,0,0.1,0,0.1c-0.2,0.5-0.3,1-0.4,1.4
		c-0.1,0.4-0.2,0.8-0.2,1.1v0c0,0.2,0,0.5,0.1,0.6c0.1,0.1,0.2,0.2,0.4,0.2h0c1.2,0,2.2-2.1,2.8-3.6l0-0.1c0.1-0.2,0.3-0.3,0.6-0.2
		C1403,406.7,1403.1,406.9,1403,407.2z"/>
	<path class="st3" d="M1408.5,407.8L1408.5,407.8L1408.5,407.8c0,1.2-0.5,2.1-1.2,2.7c-0.7,0.6-1.6,0.9-2.4,0.9h0
		c-0.1,0-0.1,0-0.2,0c-0.8,0-1.5-0.4-2-0.9c-0.5-0.5-0.8-1.2-0.8-1.9c0-0.1,0-0.1,0-0.2c0.1-0.7,0.3-1.4,0.8-2
		c0.5-0.5,1.1-0.8,1.9-0.8c0.5,0,1,0.2,1.4,0.6c0.3,0.3,0.5,0.8,0.6,1.4c0,0.2-0.2,0.4-0.4,0.4s-0.4-0.2-0.4-0.4
		c0-0.3-0.1-0.6-0.3-0.8c-0.2-0.2-0.5-0.3-0.7-0.3c-0.5,0-1,0.2-1.3,0.6c-0.4,0.4-0.6,0.9-0.6,1.4c0,0,0,0.1,0,0.1
		c0,0.5,0.2,1,0.5,1.4c0.3,0.4,0.9,0.6,1.4,0.7c0.1,0,0.1,0,0.2,0h0c0.7,0,1.4-0.2,1.9-0.7c0.5-0.4,0.9-1.1,0.9-2v0
		c0-1-0.5-1.8-1-2.7c-0.1-0.2-0.2-0.4-0.3-0.6c-0.1,0.1-0.3,0.3-0.4,0.5c-0.2,0.2-0.4,0.2-0.6,0c-0.2-0.1-0.2-0.4-0.1-0.6
		c0.2-0.3,0.4-0.5,0.7-0.7l0,0c-0.2-0.6-0.4-1.1-0.3-1.7c0-0.2,0.1-0.4,0.2-0.6c0,0,0,0,0,0c0.1-0.2,0.2-0.3,0.3-0.5
		c0.1-0.1,0.3-0.2,0.4-0.3c0.2-0.1,0.3-0.1,0.5-0.1c0.3,0,0.5,0.1,0.7,0.3c0.2,0.2,0.2,0.4,0.3,0.7c0,0.2,0,0.4-0.1,0.6
		c0,0.2-0.1,0.4-0.2,0.6c-0.2,0.5-0.5,0.9-0.8,1.2c0.1,0.3,0.3,0.5,0.4,0.8C1407.9,405.6,1408.5,406.6,1408.5,407.8z M1407,402.3
		c0.1-0.1,0.1-0.3,0.1-0.4c0-0.1,0.1-0.2,0-0.4c0-0.1,0-0.1,0-0.2c0,0,0,0-0.1,0c0,0-0.1,0-0.1,0c-0.1,0-0.1,0.1-0.2,0.1
		c-0.1,0.1-0.1,0.1-0.2,0.2l0,0c0,0.1-0.1,0.2-0.1,0.3c0,0.3,0,0.6,0.1,0.9C1406.7,402.8,1406.8,402.5,1407,402.3z"/>
	<path class="st3" d="M1417.9,407.2L1417.9,407.2c-0.8,1.7-1.8,4.2-3.6,4.2h0h0c-0.5,0-0.9-0.2-1.1-0.6c-0.2-0.2-0.2-0.5-0.3-0.8
		c-0.6,0.8-1.3,1.4-2.2,1.4h0c-0.5,0-0.9-0.2-1.1-0.6c-0.2-0.3-0.3-0.7-0.3-1.1v-0.1c0-0.3,0.1-0.7,0.2-1.2c0.1-0.5,0.3-1,0.5-1.6
		c0.1-0.3,0.3-0.9,0.6-1.6c0.3-0.9,0.7-2,1.1-3c0.1-0.2,0.3-0.3,0.5-0.2c0.2,0.1,0.3,0.3,0.2,0.5c-0.4,1.2-0.8,2.2-1.1,3
		c-0.3,0.7-0.5,1.3-0.6,1.6c-0.2,0.6-0.4,1.1-0.5,1.5c-0.1,0.4-0.2,0.8-0.2,1.1v0c0,0.2,0,0.5,0.1,0.6c0.1,0.1,0.2,0.2,0.5,0.2
		c1.2,0,2.2-2.1,2.8-3.6v0c0,0,0,0,0-0.1c0.1-0.3,0.3-0.9,0.6-1.6c0.4-0.9,0.7-2,1.1-3c0.1-0.2,0.3-0.3,0.5-0.2
		c0.2,0.1,0.3,0.3,0.3,0.5c-0.4,1.2-0.8,2.2-1.1,3c-0.3,0.7-0.5,1.3-0.6,1.6v0c0,0,0,0.1,0,0.1c-0.2,0.5-0.3,1-0.4,1.4
		c-0.1,0.4-0.2,0.8-0.2,1.1v0c0,0.2,0,0.5,0.1,0.6c0.1,0.1,0.2,0.2,0.4,0.2h0c1.2,0,2.2-2.1,2.8-3.6l0-0.1c0.1-0.2,0.3-0.3,0.6-0.2
		C1417.9,406.7,1418,406.9,1417.9,407.2z"/>
	<path class="st3" d="M1425.9,407.2L1425.9,407.2c-0.8,1.7-1.8,4.2-3.6,4.2h0c-0.5,0-0.9-0.2-1.1-0.6c-0.2-0.3-0.3-0.7-0.3-1.1v0
		c-0.7,1-1.5,1.7-2.5,1.6c-0.6,0-1-0.3-1.2-0.7c-0.3-0.4-0.4-1-0.4-1.6c0-1.1,0.6-3.3,1.6-5c0.7-1.2,1.7-2.1,2.8-2.2
		c0.1,0,0.1,0,0.2,0c0.5,0,1,0.3,1.4,0.7c0.1,0.1,0.2,0.2,0.3,0.4c0.1-0.3,0.2-0.6,0.3-0.9c0.1-0.2,0.3-0.3,0.5-0.2
		c0.2,0.1,0.3,0.3,0.2,0.5c-0.2,0.6-0.6,1.6-1,2.7c-0.3,0.7-0.5,1.4-0.7,2c-0.2,0.6-0.4,1.1-0.5,1.5c-0.1,0.4-0.2,0.8-0.2,1.1v0
		c0,0.2,0,0.5,0.1,0.6c0.1,0.1,0.2,0.2,0.5,0.2c1.2,0,2.2-2.1,2.8-3.6l0-0.1c0.1-0.2,0.3-0.3,0.6-0.2
		C1425.9,406.7,1426,406.9,1425.9,407.2z M1421.9,405.5c0.2-0.4,0.3-0.8,0.5-1.1c0-0.1,0-0.1,0-0.1c0-0.5-0.1-0.8-0.4-1.1
		c-0.2-0.2-0.5-0.4-0.8-0.4c0,0-0.1,0-0.1,0c-0.8,0-1.5,0.8-2.1,1.8c-0.9,1.5-1.4,3.5-1.5,4.5c0,0.5,0.1,0.9,0.2,1.1
		c0.1,0.2,0.3,0.3,0.6,0.3C1420,410.5,1421.1,407.5,1421.9,405.5z"/>
	<path class="st3" d="M1430.1,407.2c-0.4,0.9-0.8,1.6-1.2,2.2c-0.4,0.6-0.8,1.1-1.3,1.4c-0.2,0.2-0.5,0.3-0.8,0.4
		c-0.3,0.1-0.6,0.1-0.8,0.1h0c-0.4,0-0.8-0.1-1-0.4c-0.3-0.3-0.4-0.7-0.4-1.2v0v0c0-0.3,0.1-0.8,0.2-1.2c0.1-0.5,0.3-1,0.5-1.6
		c0.5-1.6,1.1-3.2,1.7-4.9l0.4-1.3l0.1-0.3c0.1-0.3,0.3-0.8,0.5-1.4c0.1-0.2,0.3-0.3,0.5-0.3c0.2,0.1,0.3,0.3,0.3,0.5
		c-0.2,0.5-0.4,1.1-0.5,1.4c0,0.1-0.1,0.2-0.1,0.4l-0.4,1.3c-0.6,1.6-1.1,3.2-1.7,4.9c-0.2,0.6-0.3,1.1-0.5,1.5
		c-0.1,0.4-0.2,0.8-0.2,1v0c0,0.3,0.1,0.5,0.2,0.7c0.1,0.1,0.3,0.2,0.4,0.2h0c0.2,0,0.4,0,0.6-0.1c0.2-0.1,0.4-0.1,0.5-0.3
		c0.4-0.3,0.7-0.7,1.1-1.2c0.4-0.6,0.7-1.3,1.1-2.1c0.1-0.2,0.4-0.3,0.6-0.2C1430.1,406.7,1430.2,406.9,1430.1,407.2z"/>
	<path class="st3" d="M1438.8,407.8L1438.8,407.8L1438.8,407.8c0,1.2-0.5,2.1-1.2,2.7c-0.7,0.6-1.6,0.9-2.4,0.9h0
		c-0.1,0-0.1,0-0.2,0c-0.8,0-1.5-0.4-2-0.9c-0.5-0.5-0.8-1.2-0.8-1.9c0-0.1,0-0.1,0-0.2c0.1-0.7,0.3-1.4,0.8-2
		c0.5-0.5,1.1-0.8,1.9-0.8c0.5,0,1,0.2,1.4,0.6c0.3,0.3,0.5,0.8,0.6,1.4c0,0.2-0.2,0.4-0.4,0.4s-0.4-0.2-0.4-0.4
		c0-0.3-0.1-0.6-0.3-0.8c-0.2-0.2-0.5-0.3-0.7-0.3c-0.5,0-1,0.2-1.3,0.6c-0.4,0.4-0.6,0.9-0.6,1.4c0,0,0,0.1,0,0.1
		c0,0.5,0.2,1,0.5,1.4c0.3,0.4,0.9,0.6,1.4,0.7c0.1,0,0.1,0,0.2,0h0c0.7,0,1.4-0.2,1.9-0.7c0.5-0.4,0.9-1.1,0.9-2v0
		c0-1-0.5-1.8-1-2.7c-0.1-0.2-0.2-0.4-0.3-0.6c-0.1,0.1-0.3,0.3-0.4,0.5c-0.2,0.2-0.4,0.2-0.6,0c-0.2-0.1-0.2-0.4-0.1-0.6
		c0.2-0.3,0.4-0.5,0.7-0.7l0,0c-0.2-0.6-0.4-1.1-0.3-1.7c0-0.2,0.1-0.4,0.2-0.6c0,0,0,0,0,0c0.1-0.2,0.2-0.3,0.3-0.5
		c0.1-0.1,0.3-0.2,0.4-0.3c0.2-0.1,0.3-0.1,0.5-0.1c0.3,0,0.5,0.1,0.7,0.3c0.2,0.2,0.2,0.4,0.3,0.7c0,0.2,0,0.4-0.1,0.6
		c0,0.2-0.1,0.4-0.2,0.6c-0.2,0.5-0.5,0.9-0.8,1.2c0.1,0.3,0.3,0.5,0.4,0.8C1438.2,405.6,1438.8,406.6,1438.8,407.8z M1437.3,402.3
		c0.1-0.1,0.1-0.3,0.1-0.4c0-0.1,0.1-0.2,0-0.4c0-0.1,0-0.1,0-0.2c0,0,0,0-0.1,0c0,0-0.1,0-0.1,0c-0.1,0-0.1,0.1-0.2,0.1
		c-0.1,0.1-0.1,0.1-0.2,0.2l0,0c0,0.1-0.1,0.2-0.1,0.3c0,0.3,0,0.6,0.1,0.9C1437,402.8,1437.2,402.5,1437.3,402.3z"/>
	<path class="st3" d="M1448.6,407.1c0,0.1-0.1,0.3-0.2,0.4c-0.1,0.1-0.1,0.2-0.2,0.3c-0.3,0.5-0.6,1-1,1.4c-0.4,0.4-1,0.7-1.7,0.7
		c-0.2,0-0.4,0-0.6-0.1c-0.3-0.1-0.6-0.2-0.8-0.5c-0.8,1.1-1.8,1.9-3,1.8h0h0h0c-0.7,0-1.2-0.4-1.4-0.8c-0.9,2.5-1.7,4.7-1.9,5.3
		c-0.1,0.2-0.3,0.3-0.5,0.3c-0.2-0.1-0.3-0.3-0.3-0.5c0.2-0.6,1.2-3.4,2.2-6.2c1.1-3.1,2.3-6.3,2.5-6.9c0-0.1,0.1-0.2,0.1-0.3
		c0.1-0.2,0.3-0.3,0.5-0.3c0.2,0.1,0.3,0.3,0.3,0.5l-0.2,0.4c0.6-0.6,1.2-1,2-1c0.6,0,1,0.3,1.3,0.7c0.3,0.4,0.4,1,0.4,1.6l0,0.1v0
		c-0.1,1.1-0.6,2.9-1.4,4.4c0,0.1-0.1,0.1-0.1,0.2c0.2,0.2,0.4,0.3,0.6,0.4c0.1,0,0.2,0,0.4,0c0.5,0,0.8-0.2,1.2-0.5
		c0.3-0.3,0.6-0.8,0.8-1.2c0-0.1,0.1-0.2,0.2-0.3c0-0.1,0.1-0.2,0.1-0.4c0.1-0.2,0.3-0.3,0.6-0.2
		C1448.6,406.7,1448.7,406.9,1448.6,407.1z M1444.4,407.1c-0.1,0.2-0.1,0.4-0.1,0.5c0.6-1.2,0.9-2.5,1-3.4v0v-0.1v0
		c0-0.5,0-0.9-0.2-1.1c-0.1-0.2-0.3-0.3-0.6-0.3c-1.6,0-2.8,3-3.6,5l-0.1,0.3c-0.1,0.5-0.3,1-0.3,1.4c0,0.6,0.1,1,0.7,1h0h0
		c0.9,0,1.8-0.7,2.4-1.7c-0.1-0.3-0.2-0.6-0.2-1c0-0.3,0-0.6,0.1-1c0.1-0.2,0.3-0.4,0.5-0.3C1444.3,406.6,1444.4,406.9,1444.4,407.1
		z"/>
	<path class="st3" d="M1456.3,407.1c-0.1,0.1-0.1,0.3-0.2,0.4c-0.1,0.1-0.1,0.2-0.2,0.3c-0.3,0.5-0.6,1-1,1.4
		c-0.5,0.4-1,0.7-1.7,0.7c-0.2,0-0.4,0-0.6-0.1c-0.3-0.1-0.6-0.3-0.9-0.5c-0.7,1-1.7,1.8-2.7,1.8c-3.3,0-1.1-5.5,0-7.3
		c0.7-1.2,1.7-2.1,2.8-2.1h0c0.6,0,1.1,0.2,1.5,0.7c0.3,0.4,0.5,0.9,0.5,1.6c0,1.3-0.7,3.1-1.5,4.6c0.1,0.2,0.4,0.3,0.6,0.4
		c0.1,0,0.2,0,0.3,0c0.5,0,0.9-0.2,1.2-0.5c0.3-0.3,0.6-0.8,0.8-1.2c0.1-0.1,0.1-0.2,0.2-0.3c0.1-0.1,0.1-0.2,0.2-0.4
		c0.1-0.2,0.3-0.3,0.6-0.2C1456.3,406.7,1456.4,406.9,1456.3,407.1z M1452.1,407.1c-0.1,0.2-0.1,0.3-0.1,0.5c0.6-1.2,1-2.5,1-3.4
		c0-0.5-0.1-0.8-0.3-1c-0.2-0.2-0.5-0.4-0.9-0.4c-0.8,0-1.5,0.7-2,1.7c-0.8,1.3-2.7,6-0.7,6c0.7,0,1.6-0.8,2.2-1.7
		c-0.1-0.3-0.2-0.6-0.2-0.9c0-0.3,0-0.6,0.1-1c0.1-0.2,0.3-0.4,0.5-0.3C1452,406.6,1452.2,406.9,1452.1,407.1z"/>
	<path class="st3" d="M1460.4,407.2c-0.4,0.9-0.8,1.6-1.2,2.2c-0.4,0.6-0.8,1.1-1.3,1.4c-0.2,0.2-0.5,0.3-0.8,0.4
		c-0.3,0.1-0.6,0.1-0.8,0.1h0c-0.4,0-0.8-0.1-1-0.4c-0.3-0.3-0.4-0.7-0.4-1.2v0v0c0-0.3,0.1-0.7,0.2-1.2c0.1-0.5,0.3-1,0.5-1.6
		c0.1-0.2,0.2-0.6,0.4-1.2c0.2-0.6,0.5-1.3,0.7-2c0-0.1,0.1-0.4,0.3-0.9h-1.3c-0.2,0-0.4-0.2-0.4-0.4c0-0.2,0.2-0.4,0.4-0.4h1.5
		c0.1-0.1,0.1-0.3,0.2-0.4c0.4-1.1,0.8-2.3,0.9-2.5c0.1-0.2,0.3-0.3,0.5-0.3c0.2,0.1,0.3,0.3,0.3,0.5c-0.1,0.2-0.5,1.4-0.9,2.5
		c0,0.1,0,0.1-0.1,0.2h1.3c0.2,0,0.4,0.2,0.4,0.4c0,0.2-0.2,0.4-0.4,0.4h-1.6c-0.2,0.6-0.3,1-0.4,1.2c-0.3,0.8-0.5,1.5-0.7,2
		c-0.2,0.5-0.3,0.9-0.4,1.2c-0.2,0.6-0.4,1.1-0.5,1.5c-0.1,0.4-0.2,0.8-0.2,1.1v0c0,0.3,0.1,0.5,0.2,0.7c0.1,0.1,0.3,0.2,0.4,0.2h0
		c0.2,0,0.4,0,0.6-0.1c0.2-0.1,0.4-0.1,0.5-0.3c0.4-0.3,0.7-0.7,1.1-1.2c0.4-0.6,0.7-1.3,1.1-2.1c0.1-0.2,0.4-0.3,0.6-0.2
		C1460.4,406.7,1460.5,406.9,1460.4,407.2z"/>
</g>
<g>
	<path class="st3" d="M1343.4,404.2l-6.7,2.5l5,2.3c0.3,0.1,0.4,0.4,0.3,0.7c-0.1,0.2-0.4,0.4-0.7,0.2l-6.2-2.7
		c-0.1,0-0.2-0.1-0.3-0.3c-0.1-0.3,0-0.6,0.3-0.7l7.9-3c0.3-0.1,0.6,0,0.7,0.3C1343.8,403.8,1343.7,404.1,1343.4,404.2z"/>
	<path class="st3" d="M1355.3,404.2l-6.7,2.5l5,2.3c0.3,0.1,0.4,0.4,0.3,0.7c-0.1,0.2-0.4,0.4-0.7,0.2l-6.2-2.7
		c-0.1,0-0.2-0.1-0.3-0.3c-0.1-0.3,0-0.6,0.3-0.7l7.9-3c0.3-0.1,0.6,0,0.7,0.3C1355.6,403.8,1355.5,404.1,1355.3,404.2z"/>
</g>
</svg>
