<?xml version="1.0" encoding="utf-8"?>
<!-- Generator: Adobe Illustrator 19.1.0, SVG Export Plug-In . SVG Version: 6.00 Build 0)  -->
<svg version="1.1" id="Layer_1" xmlns="http://www.w3.org/2000/svg" xmlns:xlink="http://www.w3.org/1999/xlink" x="0px" y="0px"
	 viewBox="146 253 1156.4 360" style="enable-background:new 146 253 1156.4 360;" xml:space="preserve">
<style type="text/css">
	.st0{fill:#E6E7E8;}
	.st1{fill:#F4EC8F;}
	.st2{fill:#D3CB7D;}
	.st3{fill:#50516A;}
	.st4{fill:#03A8A0;}
	.st5{enable-background:new    ;}
	.st6{fill:#FFFFFF;}
	.st7{fill:#FCDA9F;}
	.st8{fill:#CECECE;}
	.st9{fill-rule:evenodd;clip-rule:evenodd;fill:#748225;}
</style>
<g>
	<g>
		<path class="st0" d="M1284.9,556.9c-8-13.1-21.3-22.7-37.5-25.4c-6.5-1.1-13-1-19.2,0.2c6.2-7.7,10.6-17,12.3-27.5
			c5.3-32.2-16.3-62.7-48.4-68c-19.1-3.2-37.7,3.3-50.6,15.9c1.8-46.1-30.7-87.4-77.2-95.1c-48-8-93.4,22.6-104.9,69.2
			c-4.3-2.1-9.1-3.7-14.1-4.6c-27.6-4.6-53.7,14.1-58.2,41.8c-1.7,10-0.3,19.8,3.4,28.4c-3.2-1.2-6.6-2.2-10.1-2.7
			c-26.4-4.4-51.4,11.3-59.6,36c-14.9-14.6-35.2-23.6-57.7-23.6c-5.5,0-10.9,0.6-16.1,1.6c7.8-12.2,12.4-26.8,12.4-42.4
			c0-43.3-35-78.4-78.1-78.4c-7.9,0-15.4,1.2-22.6,3.3c-5.7-73.8-67.1-132-142.1-132c-72.6,0-132.5,54.5-141.4,125.1
			c-16.5-22.5-43.1-37-73-37c-50.1,0-90.8,40.8-90.8,91.2c0,16.3,4.3,31.6,11.8,44.9c-9.1-3.4-18.9-5.2-29.1-5.2
			c-46.4,0-84,37.8-84,84.4v147.9h1182.8V556.9H1284.9z"/>
	</g>
</g>
<rect x="146" y="571.9" class="st1" width="1156.4" height="39.3"/>
<ellipse class="st2" cx="1056.1" cy="587.8" rx="26.8" ry="6"/>
<rect x="1049.9" y="370.7" class="st3" width="10.4" height="217.1"/>
<polygon class="st4" points="1124.7,424 993.2,424 976.3,408.4 993.2,394.7 1124.7,394.7 "/>
<g>
	<g class="st5">
		<path class="st6" d="M833,204.8l1.7-0.2v-8.1H833v-0.9l3.2-0.7v9.7l1.7,0.2v0.9h-4.8L833,204.8L833,204.8z"/>
		<path class="st6" d="M839.3,204.8l1.7-0.2v-8.1h-1.7v-0.9l3.2-0.7v9.7l1.7,0.2v0.9h-4.9V204.8L839.3,204.8z"/>
		<path class="st6" d="M847.9,195.7v1.9h1.5v1.1h-1.5v4.9c0,0.4,0.1,0.6,0.2,0.8c0.2,0.2,0.4,0.2,0.6,0.2c0.1,0,0.3,0,0.4,0
			c0.2,0,0.3,0,0.4-0.1l0.2,1c-0.1,0.1-0.3,0.2-0.6,0.2c-0.3,0.1-0.5,0.1-0.8,0.1c-0.6,0-1.1-0.2-1.4-0.5c-0.4-0.4-0.5-0.9-0.5-1.7
			v-4.9h-1.3v-1.1h1.3v-1.9H847.9z"/>
		<path class="st6" d="M850.7,204.8l1.2-0.2v-9.4l-1.2-0.2v-0.9h2.7v4.6c0.3-0.4,0.6-0.7,1-0.9c0.4-0.2,0.8-0.3,1.3-0.3
			c0.9,0,1.5,0.3,2,0.8s0.7,1.3,0.7,2.4v3.9l1.2,0.2v0.9h-3.9v-0.9l1.2-0.2v-3.9c0-0.7-0.1-1.2-0.4-1.5s-0.7-0.5-1.3-0.5
			c-0.4,0-0.8,0.1-1.1,0.3c-0.3,0.2-0.6,0.5-0.8,0.8v4.8l1.2,0.2v0.9h-3.9L850.7,204.8L850.7,204.8z"/>
		<path class="st6" d="M864.5,202.8c0-0.6,0.2-1.1,0.5-1.6c0.4-0.5,0.9-0.9,1.6-1.4c-0.4-0.5-0.7-0.9-0.9-1.3
			c-0.2-0.4-0.3-0.8-0.3-1.2c0-0.8,0.2-1.5,0.7-1.9c0.5-0.5,1.2-0.7,2-0.7s1.4,0.2,1.9,0.7s0.7,1,0.7,1.6c0,0.5-0.1,0.9-0.4,1.3
			s-0.6,0.7-1.2,1.1l-0.8,0.6l2.5,3c0.2-0.3,0.4-0.7,0.5-1.1s0.2-0.8,0.2-1.2h1.3c0,0.7-0.1,1.3-0.3,1.8c-0.2,0.6-0.5,1.1-0.8,1.5
			l1.4,1.7l0,0h-1.7l-0.6-0.8c-0.4,0.3-0.8,0.5-1.3,0.7s-1,0.2-1.5,0.2c-1.1,0-1.9-0.3-2.6-0.9C864.8,204.5,864.5,203.7,864.5,202.8
			z M868,204.7c0.4,0,0.7-0.1,1.1-0.2c0.3-0.1,0.7-0.3,1-0.5l-2.7-3.2l-0.3,0.2c-0.5,0.3-0.8,0.7-0.9,1s-0.2,0.6-0.2,0.8
			c0,0.6,0.2,1,0.5,1.4S867.3,204.7,868,204.7z M866.9,197.3c0,0.3,0.1,0.5,0.2,0.8s0.3,0.6,0.6,0.9l1-0.7c0.3-0.2,0.5-0.4,0.6-0.6
			s0.2-0.5,0.2-0.7c0-0.3-0.1-0.6-0.4-0.8c-0.2-0.2-0.6-0.4-0.9-0.4c-0.4,0-0.7,0.1-0.9,0.4C867,196.6,866.9,196.9,866.9,197.3z"/>
		<path class="st6" d="M885.7,194.9v0.9l-1.2,0.2v6.7c0,1-0.3,1.7-0.9,2.3s-1.4,0.9-2.4,0.9s-1.9-0.3-2.5-0.8s-0.9-1.3-0.9-2.3l0,0
			h1.4c0,0.7,0.2,1.2,0.5,1.5s0.8,0.5,1.4,0.5c0.5,0,1-0.2,1.3-0.5c0.3-0.4,0.5-0.9,0.5-1.5v-6.7l-1.2-0.2V195h2.7L885.7,194.9
			L885.7,194.9z"/>
		<path class="st6" d="M892.1,205.7c0-0.2-0.1-0.4-0.1-0.6s0-0.3-0.1-0.5c-0.3,0.4-0.6,0.7-1.1,0.9c-0.4,0.2-0.9,0.4-1.4,0.4
			c-0.8,0-1.5-0.2-1.9-0.6s-0.7-1-0.7-1.7c0-0.8,0.3-1.4,0.9-1.8s1.5-0.6,2.5-0.6h1.5v-1c0-0.5-0.1-0.8-0.4-1.1
			c-0.3-0.3-0.7-0.4-1.2-0.4c-0.4,0-0.7,0-1,0.1s-0.5,0.2-0.7,0.4l-0.2,0.8h-0.9v-1.6c0.4-0.3,0.8-0.5,1.3-0.7s1.1-0.3,1.7-0.3
			c0.9,0,1.7,0.2,2.2,0.7c0.6,0.5,0.8,1.1,0.8,2v3.9c0,0.1,0,0.2,0,0.3s0,0.2,0,0.3l0.6,0.1v0.9h-1.8L892.1,205.7L892.1,205.7z
			 M889.7,204.6c0.5,0,0.9-0.1,1.3-0.4c0.4-0.2,0.7-0.5,0.9-0.8v-1.3h-1.6c-0.6,0-1.1,0.1-1.4,0.4c-0.4,0.3-0.5,0.6-0.5,1
			s0.1,0.6,0.3,0.8C888.9,204.6,889.2,204.6,889.7,204.6z"/>
		<path class="st6" d="M898.8,204.7c0.5,0,0.9-0.1,1.3-0.5c0.4-0.3,0.6-0.7,0.6-1.1h1.3l0,0c0,0.7-0.3,1.3-0.9,1.9
			c-0.6,0.5-1.4,0.8-2.2,0.8c-1.2,0-2.1-0.4-2.7-1.1c-0.6-0.8-0.9-1.7-0.9-2.9v-0.3c0-1.1,0.3-2.1,0.9-2.9s1.5-1.2,2.7-1.2
			c0.6,0,1.2,0.1,1.7,0.3c0.5,0.2,0.9,0.5,1.3,0.9l0.1,1.8h-1.2l-0.3-1.3c-0.2-0.2-0.4-0.3-0.7-0.4c-0.3-0.1-0.6-0.2-0.9-0.2
			c-0.8,0-1.3,0.3-1.7,0.8s-0.5,1.2-0.5,2v0.3c0,0.8,0.2,1.5,0.5,2.1C897.5,204.5,898,204.7,898.8,204.7z"/>
		<path class="st6" d="M903.2,195v-0.9h2.7v6.7h0.9l1.7-2.1l-0.7-0.1v-0.9h3.4v0.9l-1,0.2l-2.1,2.5l2.6,3.3l0.9,0.2v0.9h-3.3v-0.9
			l0.8-0.1L907,202h-1v2.6l1.2,0.2v0.9h-3.9v-0.9l1.2-0.2v-9.4L903.2,195z"/>
		<path class="st6" d="M918.9,200.2h-1.1l-0.2-1c-0.2-0.2-0.4-0.3-0.7-0.4c-0.3-0.1-0.6-0.2-0.9-0.2c-0.5,0-0.9,0.1-1.2,0.3
			c-0.3,0.2-0.4,0.5-0.4,0.8s0.1,0.6,0.3,0.8c0.2,0.2,0.7,0.3,1.4,0.5c1,0.2,1.8,0.5,2.3,0.9s0.7,0.9,0.7,1.5c0,0.7-0.3,1.3-0.9,1.7
			s-1.3,0.7-2.3,0.7c-0.6,0-1.2-0.1-1.6-0.2c-0.5-0.1-0.9-0.3-1.3-0.6v-1.8h1.1l0.3,1.1c0.2,0.2,0.4,0.3,0.7,0.3
			c0.3,0.1,0.6,0.1,0.9,0.1c0.5,0,0.9-0.1,1.2-0.3c0.3-0.2,0.4-0.5,0.4-0.8s-0.1-0.6-0.4-0.8c-0.2-0.2-0.7-0.4-1.4-0.5
			c-1-0.2-1.7-0.5-2.2-0.9s-0.7-0.9-0.7-1.5c0-0.7,0.3-1.2,0.8-1.7c0.6-0.5,1.3-0.7,2.2-0.7c0.6,0,1.2,0.1,1.6,0.2
			c0.5,0.2,0.9,0.4,1.2,0.7L918.9,200.2z"/>
		<path class="st6" d="M920.5,201.6c0-1.2,0.3-2.2,1-2.9c0.6-0.8,1.5-1.2,2.6-1.2s2,0.4,2.6,1.2c0.6,0.8,1,1.8,1,3v0.2
			c0,1.2-0.3,2.2-1,3c-0.6,0.8-1.5,1.1-2.6,1.1s-2-0.4-2.6-1.2c-0.6-0.8-1-1.8-1-2.9V201.6z M922,201.8c0,0.9,0.2,1.6,0.5,2.1
			c0.4,0.6,0.9,0.8,1.6,0.8s1.2-0.3,1.6-0.8c0.4-0.6,0.5-1.3,0.5-2.1v-0.2c0-0.8-0.2-1.5-0.5-2.1c-0.4-0.6-0.9-0.8-1.6-0.8
			s-1.2,0.3-1.6,0.8c-0.4,0.6-0.5,1.3-0.5,2.1V201.8z"/>
		<path class="st6" d="M928.8,204.8l1.2-0.2v-5.8l-1.2-0.2v-0.9h2.5l0.1,1.2c0.3-0.4,0.6-0.8,1-1s0.9-0.4,1.4-0.4
			c0.9,0,1.5,0.3,2,0.8s0.7,1.3,0.7,2.4v3.9l1.2,0.2v0.9h-3.9v-0.9l1.2-0.2v-3.9c0-0.7-0.1-1.2-0.4-1.5s-0.7-0.4-1.3-0.4
			c-0.4,0-0.8,0.1-1.1,0.3c-0.3,0.2-0.6,0.5-0.8,0.8v4.7l1.2,0.2v0.9h-3.9v-0.9H928.8L928.8,204.8z"/>
	</g>
</g>
<g>
	<path class="st3" d="M1658.4,913.2c-0.4,0.9-0.8,1.6-1.2,2.2c-0.4,0.6-0.8,1.1-1.3,1.4c-0.2,0.2-0.5,0.3-0.8,0.4s-0.6,0.1-0.8,0.1
		l0,0c-0.4,0-0.8-0.1-1-0.4c-0.3-0.3-0.4-0.7-0.4-1.2l0,0l0,0c0-0.3,0.1-0.7,0.2-1.2s0.3-1,0.5-1.6c0.1-0.2,0.2-0.6,0.4-1.2
		c0.2-0.6,0.5-1.3,0.7-2c0-0.1,0.1-0.4,0.3-0.9h-1.3c-0.2,0-0.4-0.2-0.4-0.4s0.2-0.4,0.4-0.4h1.5c0.1-0.1,0.1-0.3,0.2-0.4
		c0.4-1.1,0.8-2.3,0.9-2.5s0.3-0.3,0.5-0.3s0.3,0.3,0.3,0.5c-0.1,0.2-0.5,1.4-0.9,2.5c0,0.1,0,0.1-0.1,0.2h1.3
		c0.2,0,0.4,0.2,0.4,0.4s-0.2,0.4-0.4,0.4h-1.6c-0.2,0.6-0.3,1-0.4,1.2c-0.3,0.8-0.5,1.5-0.7,2s-0.3,0.9-0.4,1.2
		c-0.2,0.6-0.4,1.1-0.5,1.5s-0.2,0.8-0.2,1.1l0,0c0,0.3,0.1,0.5,0.2,0.7c0.1,0.1,0.3,0.2,0.4,0.2l0,0c0.2,0,0.4,0,0.6-0.1
		s0.4-0.1,0.5-0.3c0.4-0.3,0.7-0.7,1.1-1.2c0.4-0.6,0.7-1.3,1.1-2.1c0.1-0.2,0.4-0.3,0.6-0.2
		C1658.4,912.7,1658.5,912.9,1658.4,913.2z"/>
	<path class="st3" d="M1666.3,913.2L1666.3,913.2c-0.8,1.7-1.8,4.2-3.6,4.2l0,0c-0.6,0-0.9-0.2-1.1-0.6c-0.2-0.3-0.3-0.7-0.3-1.1
		v-0.1c0-0.4,0.1-0.9,0.2-1.4s0.3-1,0.5-1.4c0.1-0.1,0.1-0.2,0.1-0.4c0.3-0.7,0.7-1.8,0.7-2.7c0-0.6-0.3-1-1-1
		c-0.5,0-1.1,0.5-1.6,1.1c-0.7,0.9-1.4,2.2-1.8,3.3l0,0c-0.6,1.5-1.2,3.2-1.4,3.9c-0.1,0.2-0.3,0.3-0.5,0.3
		c-0.2-0.1-0.3-0.3-0.3-0.5c0.2-0.6,0.8-2.3,1.4-3.9l0,0l0,0l0,0c0.6-1.7,1.2-3.3,1.4-3.9l0,0c0.2-0.6,0.3-0.8,0.4-1.1
		c0.2-0.5,0.3-0.9,0.4-1.2l0.1-0.3c0.1-0.3,0.3-0.8,0.5-1.4c0.1-0.2,0.3-0.3,0.5-0.2s0.3,0.3,0.3,0.5c-0.2,0.5-0.4,1-0.5,1.4
		c0,0.1-0.1,0.2-0.1,0.3c-0.2,0.5-0.3,0.9-0.4,1.2l-0.3,0.7c0.6-0.6,1.2-0.9,1.8-0.9c1.4,0,1.9,0.8,1.9,1.9c0,1-0.5,2.2-0.8,3
		c-0.1,0.1-0.1,0.3-0.1,0.4c-0.2,0.5-0.3,0.9-0.5,1.4c-0.1,0.4-0.2,0.8-0.2,1.2l0,0c0,0.2,0,0.5,0.1,0.6s0.2,0.2,0.4,0.2l0,0
		c1.2,0,2.2-2.1,2.8-3.6V913c0.1-0.2,0.3-0.3,0.6-0.2C1666.3,912.7,1666.4,912.9,1666.3,913.2z"/>
	<path class="st3" d="M1673.5,913.2c-0.8,1.7-1.7,2.7-2.7,3.4c-1,0.6-2.1,0.8-3.1,0.8l0,0l0,0c-0.7,0-1.4-0.3-1.8-0.7
		c-0.5-0.5-0.8-1.1-0.7-2l0,0l0,0c0-0.5,0.1-1.1,0.3-1.7l0,0c0.1-0.4,0.3-0.9,0.5-1.3c0.5-1,1.1-2,1.7-2.7c0.3-0.3,0.6-0.5,1-0.7
		c0.3-0.2,0.7-0.3,1.1-0.3c0.5,0,0.8,0.1,1.1,0.3c0.3,0.2,0.5,0.5,0.6,0.8s0,0.7-0.1,1c-0.2,0.5-0.5,1-1,1.4s-1.2,0.8-1.8,1.1
		c-0.9,0.4-1.8,0.7-2.3,0.8c-0.1,0.5-0.2,0.9-0.2,1.3l0,0c0,0.6,0.2,1.1,0.5,1.4s0.8,0.5,1.3,0.5l0,0c0.8,0,1.7-0.1,2.6-0.7
		c0.9-0.5,1.7-1.5,2.3-3c0.1-0.2,0.3-0.3,0.6-0.2C1673.5,912.7,1673.6,913,1673.5,913.2z M1666.6,912.4c0.5-0.1,1-0.3,1.6-0.6
		s1.2-0.6,1.6-1c0.3-0.3,0.6-0.6,0.7-1c0.1-0.2,0.1-0.4,0-0.6c0-0.1-0.1-0.2-0.2-0.3s-0.3-0.2-0.6-0.2c-0.2,0-0.5,0.1-0.7,0.2
		c-0.2,0.1-0.5,0.3-0.7,0.6c-0.6,0.6-1.2,1.5-1.6,2.4C1666.7,912.1,1666.6,912.2,1666.6,912.4z"/>
	<path class="st3" d="M1677.2,913.2c-0.4,0.8-0.8,1.8-1.4,2.6c-0.6,0.9-1.4,1.6-2.3,1.6l0,0c-0.5,0-0.9-0.2-1.1-0.6
		c-0.2-0.3-0.3-0.7-0.3-1.1v-0.1c0-0.3,0.1-0.7,0.2-1.2s0.3-1,0.5-1.6c0.1-0.2,0.2-0.6,0.4-1.2c0.2-0.6,0.5-1.3,0.7-2
		c0-0.1,0.1-0.3,0.2-0.5l0.3-0.9c0.1-0.2,0.3-0.3,0.5-0.3c0.2,0.1,0.3,0.3,0.3,0.5l-0.3,0.9l-0.2,0.5c-0.3,0.8-0.5,1.5-0.7,2
		s-0.3,0.9-0.4,1.2c-0.2,0.6-0.4,1.1-0.5,1.5s-0.2,0.8-0.2,1.1l0,0c0,0.2,0,0.5,0.1,0.6s0.2,0.2,0.4,0.2l0,0c0.6,0,1.1-0.5,1.6-1.2
		c0.5-0.8,0.9-1.7,1.3-2.5c0.1-0.2,0.4-0.3,0.6-0.2C1677.2,912.7,1677.3,912.9,1677.2,913.2z M1675,906.3c0-0.4,0.3-0.7,0.7-0.7
		c0.4,0,0.7,0.3,0.7,0.7s-0.3,0.7-0.7,0.7C1675.3,906.9,1675,906.6,1675,906.3z"/>
	<path class="st3" d="M1684.5,913.2L1684.5,913.2c-0.8,1.7-1.8,4.2-3.6,4.2l0,0c-0.5,0-0.9-0.2-1.1-0.6c-0.2-0.3-0.3-0.7-0.3-1.1
		v-0.1c0-0.3,0.1-0.7,0.2-1.2s0.3-1,0.5-1.6c0.2-0.5,0.3-0.9,0.4-1.1c0.1-0.4,0.2-0.6,0.4-1l-0.3-0.1c-0.6-0.2-1.2-0.4-1.8-0.7
		c-0.1,0.2-0.1,0.4-0.2,0.5l0,0l-1.6,3.5c-0.1,0.2-0.3,0.3-0.6,0.2c-0.2-0.1-0.3-0.3-0.2-0.6l1.6-3.5c0.1-0.2,0.2-0.4,0.2-0.6
		c-0.7-0.5-1.1-1-1-1.9c0-0.3,0.2-0.6,0.4-0.8l0,0c0.2-0.2,0.5-0.3,0.8-0.3c0.1,0,0.2,0,0.3,0l0,0c0.3,0.1,0.5,0.3,0.6,0.5
		s0.2,0.5,0.2,0.7s0,0.4-0.1,0.6s-0.1,0.4-0.2,0.7c0.6,0.3,1.2,0.5,1.8,0.7c0.3,0.1,0.5,0.2,0.8,0.2c0.2,0.1,0.3,0.3,0.2,0.6l0,0
		c-0.2,0.6-0.3,0.9-0.5,1.4c-0.1,0.3-0.2,0.6-0.4,1.1c-0.2,0.6-0.4,1.1-0.5,1.5s-0.2,0.8-0.2,1.1l0,0c0,0.2,0,0.5,0.2,0.6
		c0.1,0.1,0.2,0.2,0.4,0.2c1.3,0,2.2-2.1,2.8-3.6v-0.1c0.1-0.2,0.3-0.3,0.6-0.2C1684.5,912.7,1684.6,912.9,1684.5,913.2z
		 M1678.5,907.8c0-0.1,0-0.2-0.1-0.3c0-0.1-0.1-0.1-0.1-0.1l0,0h-0.1c-0.1,0-0.2,0-0.2,0.1l0,0c-0.1,0.1-0.1,0.2-0.1,0.3
		c0,0.4,0.2,0.7,0.5,0.9c0.1-0.2,0.1-0.3,0.2-0.5C1678.5,908,1678.5,907.9,1678.5,907.8z"/>
	<path class="st3" d="M1695,913.2L1695,913.2c-0.8,1.7-1.8,4.2-3.6,4.2l0,0l0,0c-0.5,0-0.9-0.2-1.1-0.6c-0.2-0.2-0.2-0.5-0.3-0.8
		c-0.6,0.8-1.3,1.4-2.2,1.4l0,0c-0.5,0-0.9-0.2-1.1-0.6c-0.2-0.3-0.3-0.7-0.3-1.1v-0.1c0-0.3,0.1-0.7,0.2-1.2s0.3-1,0.5-1.6
		c0.1-0.3,0.3-0.9,0.6-1.6c0.3-0.9,0.7-2,1.1-3c0.1-0.2,0.3-0.3,0.5-0.2s0.3,0.3,0.2,0.5c-0.4,1.2-0.8,2.2-1.1,3
		c-0.3,0.7-0.5,1.3-0.6,1.6c-0.2,0.6-0.4,1.1-0.5,1.5s-0.2,0.8-0.2,1.1l0,0c0,0.2,0,0.5,0.1,0.6s0.2,0.2,0.5,0.2
		c1.2,0,2.2-2.1,2.8-3.6l0,0c0,0,0,0,0-0.1c0.1-0.3,0.3-0.9,0.6-1.6c0.4-0.9,0.7-2,1.1-3c0.1-0.2,0.3-0.3,0.5-0.2s0.3,0.3,0.3,0.5
		c-0.4,1.2-0.8,2.2-1.1,3c-0.3,0.7-0.5,1.3-0.6,1.6l0,0v0.1c-0.2,0.5-0.3,1-0.4,1.4s-0.2,0.8-0.2,1.1l0,0c0,0.2,0,0.5,0.1,0.6
		s0.2,0.2,0.4,0.2l0,0c1.2,0,2.2-2.1,2.8-3.6v-0.1c0.1-0.2,0.3-0.3,0.6-0.2C1695,912.7,1695.1,912.9,1695,913.2z"/>
	<path class="st3" d="M1700.5,913.8L1700.5,913.8L1700.5,913.8c0,1.2-0.5,2.1-1.2,2.7s-1.6,0.9-2.4,0.9l0,0c-0.1,0-0.1,0-0.2,0
		c-0.8,0-1.5-0.4-2-0.9s-0.8-1.2-0.8-1.9c0-0.1,0-0.1,0-0.2c0.1-0.7,0.3-1.4,0.8-2c0.5-0.5,1.1-0.8,1.9-0.8c0.5,0,1,0.2,1.4,0.6
		c0.3,0.3,0.5,0.8,0.6,1.4c0,0.2-0.2,0.4-0.4,0.4s-0.4-0.2-0.4-0.4c0-0.3-0.1-0.6-0.3-0.8c-0.2-0.2-0.5-0.3-0.7-0.3
		c-0.5,0-1,0.2-1.3,0.6c-0.4,0.4-0.6,0.9-0.6,1.4v0.1c0,0.5,0.2,1,0.5,1.4s0.9,0.6,1.4,0.7c0.1,0,0.1,0,0.2,0l0,0
		c0.7,0,1.4-0.2,1.9-0.7c0.5-0.4,0.9-1.1,0.9-2l0,0c0-1-0.5-1.8-1-2.7c-0.1-0.2-0.2-0.4-0.3-0.6c-0.1,0.1-0.3,0.3-0.4,0.5
		c-0.2,0.2-0.4,0.2-0.6,0c-0.2-0.1-0.2-0.4-0.1-0.6c0.2-0.3,0.4-0.5,0.7-0.7l0,0c-0.2-0.6-0.4-1.1-0.3-1.7c0-0.2,0.1-0.4,0.2-0.6
		l0,0c0.1-0.2,0.2-0.3,0.3-0.5c0.1-0.1,0.3-0.2,0.4-0.3c0.2-0.1,0.3-0.1,0.5-0.1c0.3,0,0.5,0.1,0.7,0.3s0.2,0.4,0.3,0.7
		c0,0.2,0,0.4-0.1,0.6c0,0.2-0.1,0.4-0.2,0.6c-0.2,0.5-0.5,0.9-0.8,1.2c0.1,0.3,0.3,0.5,0.4,0.8
		C1699.9,911.6,1700.5,912.6,1700.5,913.8z M1699,908.3c0.1-0.1,0.1-0.3,0.1-0.4c0-0.1,0.1-0.2,0-0.4c0-0.1,0-0.1,0-0.2
		c0,0,0,0-0.1,0h-0.1c-0.1,0-0.1,0.1-0.2,0.1c-0.1,0.1-0.1,0.1-0.2,0.2l0,0c0,0.1-0.1,0.2-0.1,0.3c0,0.3,0,0.6,0.1,0.9
		C1698.7,908.8,1698.8,908.5,1699,908.3z"/>
	<path class="st3" d="M1709.9,913.2L1709.9,913.2c-0.8,1.7-1.8,4.2-3.6,4.2l0,0l0,0c-0.5,0-0.9-0.2-1.1-0.6
		c-0.2-0.2-0.2-0.5-0.3-0.8c-0.6,0.8-1.3,1.4-2.2,1.4l0,0c-0.5,0-0.9-0.2-1.1-0.6c-0.2-0.3-0.3-0.7-0.3-1.1v-0.1
		c0-0.3,0.1-0.7,0.2-1.2s0.3-1,0.5-1.6c0.1-0.3,0.3-0.9,0.6-1.6c0.3-0.9,0.7-2,1.1-3c0.1-0.2,0.3-0.3,0.5-0.2s0.3,0.3,0.2,0.5
		c-0.4,1.2-0.8,2.2-1.1,3c-0.3,0.7-0.5,1.3-0.6,1.6c-0.2,0.6-0.4,1.1-0.5,1.5s-0.2,0.8-0.2,1.1l0,0c0,0.2,0,0.5,0.1,0.6
		s0.2,0.2,0.5,0.2c1.2,0,2.2-2.1,2.8-3.6l0,0c0,0,0,0,0-0.1c0.1-0.3,0.3-0.9,0.6-1.6c0.4-0.9,0.7-2,1.1-3c0.1-0.2,0.3-0.3,0.5-0.2
		s0.3,0.3,0.3,0.5c-0.4,1.2-0.8,2.2-1.1,3c-0.3,0.7-0.5,1.3-0.6,1.6l0,0v0.1c-0.2,0.5-0.3,1-0.4,1.4s-0.2,0.8-0.2,1.1l0,0
		c0,0.2,0,0.5,0.1,0.6s0.2,0.2,0.4,0.2l0,0c1.2,0,2.2-2.1,2.8-3.6v-0.1c0.1-0.2,0.3-0.3,0.6-0.2
		C1709.9,912.7,1710,912.9,1709.9,913.2z"/>
	<path class="st3" d="M1717.9,913.2L1717.9,913.2c-0.8,1.7-1.8,4.2-3.6,4.2l0,0c-0.5,0-0.9-0.2-1.1-0.6c-0.2-0.3-0.3-0.7-0.3-1.1
		l0,0c-0.7,1-1.5,1.7-2.5,1.6c-0.6,0-1-0.3-1.2-0.7c-0.3-0.4-0.4-1-0.4-1.6c0-1.1,0.6-3.3,1.6-5c0.7-1.2,1.7-2.1,2.8-2.2
		c0.1,0,0.1,0,0.2,0c0.5,0,1,0.3,1.4,0.7c0.1,0.1,0.2,0.2,0.3,0.4c0.1-0.3,0.2-0.6,0.3-0.9c0.1-0.2,0.3-0.3,0.5-0.2s0.3,0.3,0.2,0.5
		c-0.2,0.6-0.6,1.6-1,2.7c-0.3,0.7-0.5,1.4-0.7,2s-0.4,1.1-0.5,1.5s-0.2,0.8-0.2,1.1l0,0c0,0.2,0,0.5,0.1,0.6s0.2,0.2,0.5,0.2
		c1.2,0,2.2-2.1,2.8-3.6v-0.1c0.1-0.2,0.3-0.3,0.6-0.2C1717.9,912.7,1718,912.9,1717.9,913.2z M1713.9,911.5
		c0.2-0.4,0.3-0.8,0.5-1.1c0-0.1,0-0.1,0-0.1c0-0.5-0.1-0.8-0.4-1.1c-0.2-0.2-0.5-0.4-0.8-0.4h-0.1c-0.8,0-1.5,0.8-2.1,1.8
		c-0.9,1.5-1.4,3.5-1.5,4.5c0,0.5,0.1,0.9,0.2,1.1c0.1,0.2,0.3,0.3,0.6,0.3C1712,916.5,1713.1,913.5,1713.9,911.5z"/>
	<path class="st3" d="M1722.1,913.2c-0.4,0.9-0.8,1.6-1.2,2.2c-0.4,0.6-0.8,1.1-1.3,1.4c-0.2,0.2-0.5,0.3-0.8,0.4s-0.6,0.1-0.8,0.1
		l0,0c-0.4,0-0.8-0.1-1-0.4c-0.3-0.3-0.4-0.7-0.4-1.2l0,0l0,0c0-0.3,0.1-0.8,0.2-1.2c0.1-0.5,0.3-1,0.5-1.6c0.5-1.6,1.1-3.2,1.7-4.9
		l0.4-1.3l0.1-0.3c0.1-0.3,0.3-0.8,0.5-1.4c0.1-0.2,0.3-0.3,0.5-0.3c0.2,0.1,0.3,0.3,0.3,0.5c-0.2,0.5-0.4,1.1-0.5,1.4
		c0,0.1-0.1,0.2-0.1,0.4l-0.4,1.3c-0.6,1.6-1.1,3.2-1.7,4.9c-0.2,0.6-0.3,1.1-0.5,1.5c-0.1,0.4-0.2,0.8-0.2,1l0,0
		c0,0.3,0.1,0.5,0.2,0.7c0.1,0.1,0.3,0.2,0.4,0.2l0,0c0.2,0,0.4,0,0.6-0.1s0.4-0.1,0.5-0.3c0.4-0.3,0.7-0.7,1.1-1.2
		c0.4-0.6,0.7-1.3,1.1-2.1c0.1-0.2,0.4-0.3,0.6-0.2C1722.1,912.7,1722.2,912.9,1722.1,913.2z"/>
	<path class="st3" d="M1730.8,913.8L1730.8,913.8L1730.8,913.8c0,1.2-0.5,2.1-1.2,2.7s-1.6,0.9-2.4,0.9l0,0c-0.1,0-0.1,0-0.2,0
		c-0.8,0-1.5-0.4-2-0.9s-0.8-1.2-0.8-1.9c0-0.1,0-0.1,0-0.2c0.1-0.7,0.3-1.4,0.8-2c0.5-0.5,1.1-0.8,1.9-0.8c0.5,0,1,0.2,1.4,0.6
		c0.3,0.3,0.5,0.8,0.6,1.4c0,0.2-0.2,0.4-0.4,0.4s-0.4-0.2-0.4-0.4c0-0.3-0.1-0.6-0.3-0.8c-0.2-0.2-0.5-0.3-0.7-0.3
		c-0.5,0-1,0.2-1.3,0.6c-0.4,0.4-0.6,0.9-0.6,1.4v0.1c0,0.5,0.2,1,0.5,1.4s0.9,0.6,1.4,0.7c0.1,0,0.1,0,0.2,0l0,0
		c0.7,0,1.4-0.2,1.9-0.7c0.5-0.4,0.9-1.1,0.9-2l0,0c0-1-0.5-1.8-1-2.7c-0.1-0.2-0.2-0.4-0.3-0.6c-0.1,0.1-0.3,0.3-0.4,0.5
		c-0.2,0.2-0.4,0.2-0.6,0c-0.2-0.1-0.2-0.4-0.1-0.6c0.2-0.3,0.4-0.5,0.7-0.7l0,0c-0.2-0.6-0.4-1.1-0.3-1.7c0-0.2,0.1-0.4,0.2-0.6
		l0,0c0.1-0.2,0.2-0.3,0.3-0.5c0.1-0.1,0.3-0.2,0.4-0.3c0.2-0.1,0.3-0.1,0.5-0.1c0.3,0,0.5,0.1,0.7,0.3s0.2,0.4,0.3,0.7
		c0,0.2,0,0.4-0.1,0.6c0,0.2-0.1,0.4-0.2,0.6c-0.2,0.5-0.5,0.9-0.8,1.2c0.1,0.3,0.3,0.5,0.4,0.8
		C1730.2,911.6,1730.8,912.6,1730.8,913.8z M1729.3,908.3c0.1-0.1,0.1-0.3,0.1-0.4c0-0.1,0.1-0.2,0-0.4c0-0.1,0-0.1,0-0.2
		c0,0,0,0-0.1,0h-0.1c-0.1,0-0.1,0.1-0.2,0.1c-0.1,0.1-0.1,0.1-0.2,0.2l0,0c0,0.1-0.1,0.2-0.1,0.3c0,0.3,0,0.6,0.1,0.9
		C1729,908.8,1729.2,908.5,1729.3,908.3z"/>
	<path class="st3" d="M1740.6,913.1c0,0.1-0.1,0.3-0.2,0.4s-0.1,0.2-0.2,0.3c-0.3,0.5-0.6,1-1,1.4s-1,0.7-1.7,0.7
		c-0.2,0-0.4,0-0.6-0.1c-0.3-0.1-0.6-0.2-0.8-0.5c-0.8,1.1-1.8,1.9-3,1.8l0,0l0,0l0,0c-0.7,0-1.2-0.4-1.4-0.8
		c-0.9,2.5-1.7,4.7-1.9,5.3c-0.1,0.2-0.3,0.3-0.5,0.3c-0.2-0.1-0.3-0.3-0.3-0.5c0.2-0.6,1.2-3.4,2.2-6.2c1.1-3.1,2.3-6.3,2.5-6.9
		c0-0.1,0.1-0.2,0.1-0.3c0.1-0.2,0.3-0.3,0.5-0.3c0.2,0.1,0.3,0.3,0.3,0.5l-0.2,0.4c0.6-0.6,1.2-1,2-1c0.6,0,1,0.3,1.3,0.7
		s0.4,1,0.4,1.6v0.1l0,0c-0.1,1.1-0.6,2.9-1.4,4.4c0,0.1-0.1,0.1-0.1,0.2c0.2,0.2,0.4,0.3,0.6,0.4c0.1,0,0.2,0,0.4,0
		c0.5,0,0.8-0.2,1.2-0.5c0.3-0.3,0.6-0.8,0.8-1.2c0-0.1,0.1-0.2,0.2-0.3c0-0.1,0.1-0.2,0.1-0.4c0.1-0.2,0.3-0.3,0.6-0.2
		C1740.6,912.7,1740.7,912.9,1740.6,913.1z M1736.4,913.1c-0.1,0.2-0.1,0.4-0.1,0.5c0.6-1.2,0.9-2.5,1-3.4l0,0v-0.1l0,0
		c0-0.5,0-0.9-0.2-1.1c-0.1-0.2-0.3-0.3-0.6-0.3c-1.6,0-2.8,3-3.6,5l-0.1,0.3c-0.1,0.5-0.3,1-0.3,1.4c0,0.6,0.1,1,0.7,1l0,0l0,0
		c0.9,0,1.8-0.7,2.4-1.7c-0.1-0.3-0.2-0.6-0.2-1c0-0.3,0-0.6,0.1-1c0.1-0.2,0.3-0.4,0.5-0.3C1736.3,912.6,1736.4,912.9,1736.4,913.1
		z"/>
	<path class="st3" d="M1748.3,913.1c-0.1,0.1-0.1,0.3-0.2,0.4s-0.1,0.2-0.2,0.3c-0.3,0.5-0.6,1-1,1.4c-0.5,0.4-1,0.7-1.7,0.7
		c-0.2,0-0.4,0-0.6-0.1c-0.3-0.1-0.6-0.3-0.9-0.5c-0.7,1-1.7,1.8-2.7,1.8c-3.3,0-1.1-5.5,0-7.3c0.7-1.2,1.7-2.1,2.8-2.1l0,0
		c0.6,0,1.1,0.2,1.5,0.7c0.3,0.4,0.5,0.9,0.5,1.6c0,1.3-0.7,3.1-1.5,4.6c0.1,0.2,0.4,0.3,0.6,0.4c0.1,0,0.2,0,0.3,0
		c0.5,0,0.9-0.2,1.2-0.5c0.3-0.3,0.6-0.8,0.8-1.2c0.1-0.1,0.1-0.2,0.2-0.3s0.1-0.2,0.2-0.4s0.3-0.3,0.6-0.2
		C1748.3,912.7,1748.4,912.9,1748.3,913.1z M1744.1,913.1c-0.1,0.2-0.1,0.3-0.1,0.5c0.6-1.2,1-2.5,1-3.4c0-0.5-0.1-0.8-0.3-1
		c-0.2-0.2-0.5-0.4-0.9-0.4c-0.8,0-1.5,0.7-2,1.7c-0.8,1.3-2.7,6-0.7,6c0.7,0,1.6-0.8,2.2-1.7c-0.1-0.3-0.2-0.6-0.2-0.9s0-0.6,0.1-1
		c0.1-0.2,0.3-0.4,0.5-0.3C1744,912.6,1744.2,912.9,1744.1,913.1z"/>
	<path class="st3" d="M1752.4,913.2c-0.4,0.9-0.8,1.6-1.2,2.2c-0.4,0.6-0.8,1.1-1.3,1.4c-0.2,0.2-0.5,0.3-0.8,0.4s-0.6,0.1-0.8,0.1
		l0,0c-0.4,0-0.8-0.1-1-0.4c-0.3-0.3-0.4-0.7-0.4-1.2l0,0l0,0c0-0.3,0.1-0.7,0.2-1.2s0.3-1,0.5-1.6c0.1-0.2,0.2-0.6,0.4-1.2
		c0.2-0.6,0.5-1.3,0.7-2c0-0.1,0.1-0.4,0.3-0.9h-1.3c-0.2,0-0.4-0.2-0.4-0.4s0.2-0.4,0.4-0.4h1.5c0.1-0.1,0.1-0.3,0.2-0.4
		c0.4-1.1,0.8-2.3,0.9-2.5s0.3-0.3,0.5-0.3c0.2,0.1,0.3,0.3,0.3,0.5c-0.1,0.2-0.5,1.4-0.9,2.5c0,0.1,0,0.1-0.1,0.2h1.3
		c0.2,0,0.4,0.2,0.4,0.4s-0.2,0.4-0.4,0.4h-1.6c-0.2,0.6-0.3,1-0.4,1.2c-0.3,0.8-0.5,1.5-0.7,2s-0.3,0.9-0.4,1.2
		c-0.2,0.6-0.4,1.1-0.5,1.5s-0.2,0.8-0.2,1.1l0,0c0,0.3,0.1,0.5,0.2,0.7c0.1,0.1,0.3,0.2,0.4,0.2l0,0c0.2,0,0.4,0,0.6-0.1
		s0.4-0.1,0.5-0.3c0.4-0.3,0.7-0.7,1.1-1.2c0.4-0.6,0.7-1.3,1.1-2.1c0.1-0.2,0.4-0.3,0.6-0.2
		C1752.4,912.7,1752.5,912.9,1752.4,913.2z"/>
</g>
<g>
	<path class="st3" d="M1635.4,910.2l-6.7,2.5l5,2.3c0.3,0.1,0.4,0.4,0.3,0.7c-0.1,0.2-0.4,0.4-0.7,0.2l-6.2-2.7
		c-0.1,0-0.2-0.1-0.3-0.3c-0.1-0.3,0-0.6,0.3-0.7l7.9-3c0.3-0.1,0.6,0,0.7,0.3C1635.8,909.8,1635.7,910.1,1635.4,910.2z"/>
	<path class="st3" d="M1647.3,910.2l-6.7,2.5l5,2.3c0.3,0.1,0.4,0.4,0.3,0.7c-0.1,0.2-0.4,0.4-0.7,0.2l-6.2-2.7
		c-0.1,0-0.2-0.1-0.3-0.3c-0.1-0.3,0-0.6,0.3-0.7l7.9-3c0.3-0.1,0.6,0,0.7,0.3C1647.6,909.8,1647.5,910.1,1647.3,910.2z"/>
</g>
<g>
	<path class="st7" d="M-25.8-148.2c-24.3-37.9-66.7-63.1-114.9-63.1c-71.8,0-130.6,55.7-136.1,126.4c-6.8-2.1-14.1-3.2-21.6-3.2
		c-41.3,0-74.8,33.6-74.8,75.1c0,15,4.4,28.9,11.9,40.6c-5-1-10.2-1.5-15.4-1.5c-21.5,0-41,8.6-55.2,22.6
		c-7.8-23.7-31.8-38.7-57.1-34.5c-3.4,0.6-6.6,1.5-9.7,2.6c3.6-8.3,4.9-17.7,3.3-27.2c-4.4-26.5-29.4-44.5-55.8-40
		c-4.8,0.8-9.3,2.3-13.5,4.4c-11-44.6-54.5-74-100.5-66.3c-44.5,7.4-75.6,47-73.9,91.1c-12.4-12.1-30.1-18.3-48.5-15.2
		c-15.8,2.6-29,11.7-37.4,24.1v63.6c0.9,1.3,1.8,2.6,2.8,3.8c-0.9-0.2-1.9-0.3-2.8-0.4V329h799.2V-148.2z"/>
</g>
<path class="st8" d="M1210.5,477.2c-0.4-3-3.2-5.1-6.2-4.7c-3,0.4-5.1,3.2-4.7,6.2c2.2,15.4,3.2,43.1-3.1,51.8
	c-4.7,6.4-11.4,8-16.1,8.2l3.2-61.3c0-15.3-12.4-27.8-27.8-27.8s-27.8,12.4-27.8,27.8l4.2,80c-6.5-2.3-11.8-5.1-14.4-8.2
	c-8.3-10.2-2.4-22.5-2.2-23c1.4-2.7,0.3-6-2.4-7.4c-2.7-1.4-6-0.3-7.4,2.4c-0.1,0.2-0.7,1.5-1.4,3.5c-2.1,6.2-4.8,19.5,4.9,31.4
	c4.7,5.7,13.9,10,23.5,13.1l2.2,41.9h41.5l3.2-61.4c7.1-0.1,18-2.3,25.6-12.7C1216.4,521.9,1211.1,481.8,1210.5,477.2"/>
<path class="st8" d="M238.5,491.2c0.4-2.7,2.9-4.6,5.6-4.2c2.7,0.4,4.6,2.9,4.2,5.6c-1.9,13.8-2.9,38.6,2.8,46.4
	c4.2,5.7,10.2,7.2,14.4,7.4l-2.9-54.9c0-13.7,11.1-24.9,24.9-24.9c13.7,0,24.9,11.1,24.9,24.9l-3.8,71.6c5.8-2.1,10.6-4.6,12.9-7.4
	c7.5-9.1,2.2-20.1,1.9-20.6c-1.2-2.4-0.3-5.4,2.2-6.6c2.4-1.2,5.4-0.3,6.6,2.2c0.1,0.2,0.7,1.3,1.3,3.2c1.9,5.6,4.3,17.5-4.4,28.1
	c-4.2,5.1-12.4,8.9-21,11.7l-2,37.5h-37.2l-2.9-55c-6.4-0.1-16.1-2.1-22.9-11.4C233.2,531.2,237.9,495.3,238.5,491.2"/>
<g>
	<path class="st9" d="M-330.2,1123.1c0.4,0,0.8-0.1,1.2-0.3c0.4-0.2,0.7-0.6,0.9-1.1c0.2-0.5,0.3-1.1,0.3-1.8c0-0.7-0.1-1.3-0.3-1.7
		c-0.2-0.5-0.5-0.9-0.9-1.1c-0.4-0.3-0.8-0.4-1.2-0.4v-1.8c0.4,0.1,0.8,0.2,1.1,0.3c0.5,0.3,1,0.6,1.5,1.2v-3.7
		c0-0.5,0.1-0.9,0.3-1.2c0.2-0.3,0.5-0.4,0.9-0.4c0.4,0,0.7,0.1,0.9,0.4c0.2,0.2,0.3,0.6,0.3,1.1v11.2c0,0.5-0.1,0.8-0.3,1.1
		c-0.2,0.2-0.5,0.4-0.9,0.4c-0.3,0-0.6-0.1-0.9-0.4c-0.2-0.2-0.3-0.6-0.3-1.1v-0.3c-0.3,0.4-0.7,0.7-1,1c-0.3,0.2-0.7,0.4-1.1,0.6
		c-0.2,0-0.3,0.1-0.5,0.1V1123.1z M-332.6,1119.9c0,0.7,0.1,1.3,0.3,1.8c0.2,0.5,0.5,0.8,0.9,1.1c0.4,0.2,0.8,0.4,1.2,0.4h0v1.9
		c-0.2,0-0.5,0.1-0.8,0.1c-0.6,0-1.2-0.1-1.7-0.4c-0.5-0.3-1-0.6-1.3-1.1c-0.4-0.5-0.7-1-0.9-1.7c-0.2-0.6-0.3-1.3-0.3-2.1
		c0-1.6,0.4-2.8,1.2-3.7c0.8-0.9,1.8-1.3,3.1-1.3c0.3,0,0.5,0,0.7,0v1.8h0c-0.5,0-0.9,0.1-1.2,0.4c-0.4,0.3-0.6,0.6-0.8,1.1
		C-332.5,1118.7-332.6,1119.3-332.6,1119.9"/>
	<path class="st9" d="M-318.3,1119.1h2.3c-0.1-0.9-0.3-1.5-0.7-1.9c-0.4-0.4-0.9-0.6-1.6-0.6v-1.8h0.1c1,0,1.8,0.2,2.5,0.6
		c0.7,0.4,1.2,1,1.6,1.6c0.3,0.7,0.5,1.3,0.5,2c0,0.6-0.2,1.1-0.5,1.2c-0.4,0.2-0.9,0.3-1.5,0.3h-2.7V1119.1z M-318.3,1125.1v-1.7
		c0.1,0,0.1,0,0.2,0c0.3,0,0.6,0,0.8-0.1c0.2-0.1,0.5-0.2,0.7-0.3c0.2-0.2,0.5-0.3,0.7-0.5c0.2-0.2,0.5-0.4,0.8-0.7
		c0.1-0.1,0.3-0.2,0.6-0.2c0.3,0,0.5,0.1,0.6,0.2c0.2,0.1,0.2,0.3,0.2,0.6c0,0.2-0.1,0.5-0.3,0.8c-0.2,0.3-0.5,0.6-0.8,0.9
		c-0.4,0.3-0.8,0.5-1.4,0.7c-0.5,0.2-1.2,0.3-1.9,0.3C-318.1,1125.1-318.2,1125.1-318.3,1125.1 M-320.6,1119.1h2.3v1.4h-2.3
		c0,0.6,0.1,1.1,0.3,1.5c0.2,0.4,0.5,0.8,0.9,1c0.3,0.2,0.7,0.3,1,0.3v1.7c-1.5-0.1-2.7-0.5-3.5-1.4c-0.9-0.9-1.4-2.2-1.4-3.8
		c0-0.8,0.1-1.4,0.3-2.1c0.2-0.6,0.5-1.2,1-1.6c0.4-0.5,0.9-0.8,1.6-1c0.6-0.2,1.3-0.4,2-0.4v1.8h0c-0.6,0-1.2,0.2-1.6,0.6
		C-320.3,1117.6-320.5,1118.3-320.6,1119.1"/>
	<path class="st9" d="M-303.3,1121.8c0,0.7-0.2,1.3-0.5,1.8c-0.3,0.5-0.8,0.9-1.5,1.1c-0.7,0.3-1.5,0.4-2.4,0.4
		c-0.9,0-1.7-0.1-2.3-0.4c-0.7-0.3-1.1-0.6-1.4-1c-0.3-0.4-0.5-0.8-0.5-1.3c0-0.3,0.1-0.5,0.3-0.7c0.2-0.2,0.4-0.3,0.8-0.3
		c0.3,0,0.5,0.1,0.6,0.2c0.1,0.1,0.3,0.3,0.4,0.5c0.3,0.5,0.6,0.8,0.9,1c0.4,0.2,0.9,0.3,1.5,0.3c0.5,0,0.9-0.1,1.2-0.3
		c0.3-0.2,0.5-0.5,0.5-0.8c0-0.4-0.2-0.8-0.5-1c-0.3-0.2-0.9-0.4-1.7-0.6c-0.9-0.2-1.6-0.4-2.1-0.7c-0.5-0.2-1-0.5-1.3-0.9
		c-0.3-0.4-0.5-0.9-0.5-1.4c0-0.5,0.1-1,0.5-1.4c0.3-0.4,0.8-0.8,1.3-1.1c0.6-0.3,1.3-0.4,2.1-0.4c0.7,0,1.2,0.1,1.8,0.2
		c0.5,0.1,1,0.3,1.3,0.6c0.4,0.2,0.6,0.5,0.8,0.8c0.2,0.3,0.3,0.5,0.3,0.8c0,0.3-0.1,0.5-0.3,0.7c-0.2,0.2-0.5,0.3-0.8,0.3
		c-0.3,0-0.5-0.1-0.7-0.2c-0.2-0.1-0.4-0.4-0.6-0.7c-0.2-0.2-0.4-0.4-0.7-0.6c-0.3-0.1-0.6-0.2-1.1-0.2c-0.5,0-0.8,0.1-1.1,0.3
		c-0.3,0.2-0.5,0.4-0.5,0.7c0,0.3,0.1,0.5,0.3,0.7c0.2,0.2,0.5,0.3,0.9,0.4c0.4,0.1,0.9,0.2,1.6,0.4c0.8,0.2,1.4,0.4,1.9,0.7
		c0.5,0.3,0.9,0.6,1.1,0.9C-303.4,1120.9-303.3,1121.3-303.3,1121.8"/>
	<path class="st9" d="M-298.6,1116.2v7.3c0,0.5-0.1,0.9-0.4,1.2c-0.2,0.3-0.5,0.4-0.9,0.4c-0.4,0-0.7-0.1-0.9-0.4
		c-0.2-0.3-0.3-0.6-0.3-1.1v-7.2c0-0.5,0.1-0.9,0.3-1.1c0.2-0.3,0.5-0.4,0.9-0.4c0.4,0,0.7,0.1,0.9,0.4
		C-298.8,1115.4-298.6,1115.8-298.6,1116.2 M-299.9,1113.6c-0.4,0-0.7-0.1-0.9-0.3c-0.3-0.2-0.4-0.5-0.4-0.9c0-0.4,0.1-0.7,0.4-0.9
		c0.3-0.2,0.6-0.3,0.9-0.3c0.3,0,0.6,0.1,0.9,0.3c0.3,0.2,0.4,0.5,0.4,0.9c0,0.4-0.1,0.7-0.4,0.9
		C-299.2,1113.5-299.5,1113.6-299.9,1113.6"/>
	<path class="st9" d="M-291.6,1123c0.4,0,0.8-0.1,1.2-0.3c0.4-0.2,0.7-0.6,0.9-1c0.2-0.5,0.4-1,0.4-1.7c0-1-0.2-1.8-0.7-2.4
		c-0.4-0.6-1-0.8-1.8-0.9v-1.8c0.4,0.1,0.7,0.2,1.1,0.3c0.5,0.3,1,0.7,1.5,1.3v-0.3c0-0.4,0.1-0.8,0.3-1c0.2-0.2,0.5-0.4,0.8-0.4
		c0.5,0,0.8,0.2,1,0.5c0.2,0.3,0.2,0.8,0.2,1.4v7.3c0,0.8-0.1,1.6-0.3,2.2c-0.2,0.6-0.5,1.1-0.9,1.5c-0.4,0.4-0.9,0.7-1.6,0.9
		c-0.6,0.2-1.3,0.3-2.2,0.3v-1.8c0.6,0,1-0.1,1.3-0.3c0.4-0.2,0.6-0.4,0.8-0.8c0.1-0.3,0.2-0.7,0.3-1.1c0-0.4,0-1,0.1-1.8
		c-0.4,0.5-0.8,1-1.4,1.2c-0.3,0.2-0.7,0.3-1,0.4V1123z M-294,1119.9c0,1,0.2,1.8,0.7,2.3c0.5,0.5,1,0.8,1.7,0.8h0v1.8
		c-0.2,0-0.5,0.1-0.8,0.1c-0.8,0-1.6-0.2-2.2-0.7c-0.6-0.4-1.1-1-1.5-1.8c-0.3-0.8-0.5-1.7-0.5-2.7c0-0.8,0.1-1.4,0.3-2.1
		c0.2-0.6,0.5-1.1,0.9-1.6c0.4-0.4,0.8-0.7,1.3-0.9c0.5-0.2,1.1-0.3,1.6-0.3c0.3,0,0.6,0,0.8,0.1v1.8h0c-0.7,0-1.3,0.3-1.7,0.8
		C-293.8,1118.1-294,1118.8-294,1119.9 M-291.6,1127.1v1.8l-0.2,0c-0.9,0-1.7-0.1-2.3-0.4c-0.7-0.2-1.2-0.6-1.6-0.9
		c-0.4-0.4-0.6-0.8-0.6-1.2c0-0.3,0.1-0.6,0.3-0.7c0.2-0.2,0.5-0.3,0.8-0.3c0.4,0,0.7,0.2,1,0.5c0.1,0.2,0.3,0.3,0.4,0.5
		c0.1,0.2,0.3,0.3,0.5,0.4c0.2,0.1,0.4,0.2,0.6,0.3c0.2,0.1,0.5,0.1,0.9,0.1C-291.7,1127.1-291.7,1127.1-291.6,1127.1"/>
	<path class="st9" d="M-281.9,1116.2v0.3c0.4-0.6,0.9-1,1.5-1.3c0.5-0.3,1.1-0.4,1.8-0.4c0.7,0,1.3,0.1,1.8,0.4
		c0.5,0.3,0.9,0.7,1.2,1.2c0.2,0.3,0.3,0.6,0.3,1c0.1,0.4,0.1,0.8,0.1,1.4v4.7c0,0.5-0.1,0.9-0.3,1.2c-0.2,0.3-0.5,0.4-0.9,0.4
		c-0.4,0-0.7-0.1-0.9-0.4c-0.2-0.3-0.4-0.6-0.4-1.1v-4.2c0-0.8-0.1-1.5-0.3-1.9c-0.2-0.4-0.7-0.7-1.4-0.7c-0.4,0-0.9,0.1-1.2,0.4
		c-0.4,0.3-0.6,0.6-0.8,1.1c-0.1,0.4-0.2,1.1-0.2,2.1v3.2c0,0.5-0.1,0.9-0.4,1.2c-0.2,0.3-0.5,0.4-0.9,0.4c-0.4,0-0.7-0.1-0.9-0.4
		c-0.2-0.3-0.4-0.6-0.4-1.1v-7.3c0-0.5,0.1-0.8,0.3-1.1c0.2-0.2,0.5-0.4,0.9-0.4c0.2,0,0.4,0,0.6,0.2c0.2,0.1,0.3,0.3,0.4,0.5
		C-281.9,1115.6-281.9,1115.9-281.9,1116.2"/>
	<path class="st9" d="M-268.3,1119.1h2.3c-0.1-0.9-0.3-1.5-0.7-1.9c-0.4-0.4-0.9-0.6-1.6-0.6v-1.8h0.1c1,0,1.8,0.2,2.5,0.6
		c0.7,0.4,1.2,1,1.6,1.6c0.3,0.7,0.5,1.3,0.5,2c0,0.6-0.2,1.1-0.5,1.2c-0.4,0.2-0.9,0.3-1.5,0.3h-2.7V1119.1z M-268.3,1125.1v-1.7
		c0.1,0,0.1,0,0.2,0c0.3,0,0.6,0,0.8-0.1c0.3-0.1,0.5-0.2,0.7-0.3c0.2-0.2,0.5-0.3,0.6-0.5c0.2-0.2,0.5-0.4,0.8-0.7
		c0.1-0.1,0.3-0.2,0.6-0.2c0.3,0,0.5,0.1,0.6,0.2c0.2,0.1,0.2,0.3,0.2,0.6c0,0.2-0.1,0.5-0.3,0.8c-0.2,0.3-0.4,0.6-0.8,0.9
		c-0.4,0.3-0.8,0.5-1.4,0.7c-0.5,0.2-1.2,0.3-1.9,0.3C-268.1,1125.1-268.2,1125.1-268.3,1125.1 M-270.6,1119.1h2.3v1.4h-2.3
		c0,0.6,0.1,1.1,0.3,1.5c0.2,0.4,0.5,0.8,0.9,1c0.3,0.2,0.7,0.3,1.1,0.3v1.7c-1.5-0.1-2.7-0.5-3.5-1.4c-0.9-0.9-1.4-2.2-1.4-3.8
		c0-0.8,0.1-1.4,0.3-2.1c0.2-0.6,0.5-1.2,1-1.6c0.4-0.5,0.9-0.8,1.6-1c0.6-0.2,1.3-0.4,2-0.4v1.8h0c-0.6,0-1.1,0.2-1.6,0.6
		C-270.2,1117.6-270.5,1118.3-270.6,1119.1"/>
	<path class="st9" d="M-257,1123.1c0.4,0,0.8-0.1,1.2-0.3c0.4-0.2,0.7-0.6,0.9-1.1c0.2-0.5,0.3-1.1,0.3-1.8c0-0.7-0.1-1.3-0.3-1.7
		c-0.2-0.5-0.5-0.9-0.9-1.1c-0.4-0.3-0.8-0.4-1.2-0.4v-1.8c0.4,0.1,0.8,0.2,1.1,0.3c0.5,0.3,1,0.6,1.5,1.2v-3.7
		c0-0.5,0.1-0.9,0.3-1.2c0.2-0.3,0.5-0.4,0.9-0.4c0.4,0,0.7,0.1,0.9,0.4c0.2,0.2,0.3,0.6,0.3,1.1v11.2c0,0.5-0.1,0.8-0.3,1.1
		c-0.2,0.2-0.5,0.4-0.9,0.4c-0.3,0-0.6-0.1-0.9-0.4c-0.2-0.2-0.3-0.6-0.3-1.1v-0.3c-0.3,0.4-0.7,0.7-1,1c-0.3,0.2-0.7,0.4-1.1,0.6
		c-0.2,0-0.3,0.1-0.5,0.1V1123.1z M-259.5,1119.9c0,0.7,0.1,1.3,0.3,1.8c0.2,0.5,0.5,0.8,0.9,1.1c0.4,0.2,0.8,0.4,1.2,0.4h0v1.9
		c-0.3,0-0.5,0.1-0.8,0.1c-0.6,0-1.2-0.1-1.7-0.4c-0.5-0.3-1-0.6-1.3-1.1c-0.4-0.5-0.7-1-0.9-1.7c-0.2-0.6-0.3-1.3-0.3-2.1
		c0-1.6,0.4-2.8,1.2-3.7c0.8-0.9,1.8-1.3,3.1-1.3c0.3,0,0.5,0,0.8,0v1.8h0c-0.5,0-0.9,0.1-1.2,0.4c-0.4,0.3-0.6,0.6-0.8,1.1
		C-259.4,1118.7-259.5,1119.3-259.5,1119.9"/>
	<path class="st9" d="M-239.9,1123.1L-239.9,1123.1c0.7,0,1.3-0.3,1.7-0.8c0.5-0.6,0.7-1.3,0.7-2.4c0-0.7-0.1-1.2-0.3-1.7
		c-0.2-0.5-0.5-0.9-0.8-1.1c-0.4-0.3-0.8-0.4-1.2-0.4c0,0-0.1,0-0.1,0v-1.8c0.2,0,0.5,0,0.8,0c0.8,0,1.6,0.2,2.2,0.6
		c0.6,0.4,1.1,1,1.5,1.7c0.4,0.8,0.5,1.7,0.5,2.7c0,0.8-0.1,1.5-0.3,2.1c-0.2,0.6-0.5,1.2-0.9,1.7c-0.4,0.5-0.8,0.8-1.3,1.1
		c-0.5,0.3-1.1,0.4-1.7,0.4c-0.3,0-0.5,0-0.7-0.1V1123.1z M-242.3,1120c0,1,0.2,1.8,0.7,2.3c0.4,0.5,1,0.8,1.7,0.8v1.9
		c-0.1,0-0.3,0-0.4-0.1c-0.3-0.1-0.6-0.2-0.9-0.4c-0.2-0.1-0.4-0.3-0.6-0.5c-0.2-0.2-0.4-0.4-0.7-0.7v0.3c0,0.5-0.1,0.8-0.3,1.1
		c-0.2,0.2-0.5,0.4-0.9,0.4c-0.4,0-0.6-0.1-0.9-0.4c-0.2-0.2-0.3-0.6-0.3-1.1v-11.1c0-0.5,0.1-0.9,0.3-1.2c0.2-0.3,0.5-0.4,0.9-0.4
		c0.4,0,0.7,0.1,0.9,0.4c0.2,0.2,0.3,0.6,0.3,1.1v3.9c0.5-0.5,1-0.9,1.5-1.1c0.3-0.2,0.7-0.3,1.1-0.3v1.8c-0.4,0-0.8,0.1-1.2,0.4
		c-0.4,0.3-0.7,0.6-0.9,1.1C-242.2,1118.7-242.3,1119.3-242.3,1120"/>
	<path class="st9" d="M-230.8,1125.4l0.2-0.6l-3.1-7.8c-0.2-0.5-0.3-0.8-0.3-1c0-0.2,0.1-0.4,0.2-0.6c0.1-0.2,0.3-0.3,0.5-0.4
		c0.2-0.1,0.4-0.2,0.6-0.2c0.4,0,0.6,0.1,0.8,0.3c0.2,0.2,0.4,0.6,0.5,1l2.1,6.2l2-5.8c0.2-0.5,0.3-0.8,0.4-1.1
		c0.1-0.3,0.3-0.4,0.4-0.5c0.1-0.1,0.4-0.1,0.6-0.1c0.2,0,0.4,0.1,0.6,0.2c0.2,0.1,0.3,0.2,0.4,0.4c0.1,0.2,0.1,0.4,0.1,0.5
		c0,0.1-0.1,0.3-0.1,0.5c-0.1,0.2-0.1,0.4-0.2,0.7l-3.3,8.6c-0.3,0.8-0.6,1.4-0.8,1.8c-0.3,0.4-0.6,0.8-1.1,1
		c-0.5,0.2-1.1,0.3-1.8,0.3c-0.7,0-1.3-0.1-1.7-0.2c-0.4-0.2-0.6-0.5-0.6-0.9c0-0.3,0.1-0.5,0.3-0.7c0.2-0.2,0.4-0.2,0.8-0.2
		c0.1,0,0.3,0,0.4,0.1c0.2,0,0.3,0.1,0.4,0.1c0.3,0,0.5,0,0.7-0.1c0.2-0.1,0.3-0.2,0.5-0.5C-231.2,1126.1-231,1125.8-230.8,1125.4"
		/>
	<path class="st9" d="M-184,1115h0.6v-0.8c0-0.8,0.1-1.4,0.3-1.9c0.2-0.5,0.5-0.8,1-1c0.5-0.2,1.1-0.3,2-0.3c1.5,0,2.2,0.4,2.2,1.1
		c0,0.2-0.1,0.4-0.2,0.6c-0.2,0.2-0.3,0.3-0.5,0.3c-0.1,0-0.3,0-0.5-0.1c-0.2,0-0.4-0.1-0.6-0.1c-0.5,0-0.8,0.1-0.9,0.4
		c-0.1,0.3-0.2,0.7-0.2,1.2v0.6h0.6c1,0,1.4,0.3,1.4,0.9c0,0.4-0.1,0.7-0.4,0.8c-0.3,0.1-0.6,0.2-1.1,0.2h-0.6v6.7
		c0,0.5-0.1,0.9-0.4,1.1c-0.2,0.3-0.5,0.4-0.9,0.4c-0.4,0-0.7-0.1-0.9-0.4c-0.2-0.3-0.4-0.7-0.4-1.1v-6.7h-0.7
		c-0.4,0-0.7-0.1-0.9-0.3c-0.2-0.2-0.3-0.4-0.3-0.7C-185.3,1115.3-184.9,1115-184,1115"/>
	<path class="st9" d="M-175,1121.4v2.1c0,0.5-0.1,0.9-0.4,1.2c-0.2,0.3-0.5,0.4-0.9,0.4c-0.4,0-0.7-0.1-0.9-0.4
		c-0.2-0.3-0.4-0.6-0.4-1.2v-7c0-1.1,0.4-1.7,1.2-1.7c0.4,0,0.7,0.1,0.9,0.4c0.2,0.3,0.3,0.7,0.3,1.2c0.3-0.5,0.6-0.9,0.9-1.2
		c0.3-0.3,0.7-0.4,1.3-0.4c0.5,0,1,0.1,1.5,0.4c0.5,0.3,0.8,0.6,0.8,1.1c0,0.3-0.1,0.6-0.3,0.8c-0.2,0.2-0.4,0.3-0.7,0.3
		c-0.1,0-0.3-0.1-0.7-0.2c-0.4-0.1-0.7-0.2-0.9-0.2c-0.4,0-0.7,0.1-0.9,0.3c-0.2,0.2-0.4,0.5-0.5,0.9c-0.1,0.4-0.2,0.8-0.3,1.4
		C-175,1120-175,1120.7-175,1121.4"/>
	<path class="st9" d="M-165.2,1119.1h2.3c-0.1-0.9-0.3-1.5-0.7-1.9c-0.4-0.4-0.9-0.6-1.6-0.6v-1.8h0.1c1,0,1.8,0.2,2.5,0.6
		c0.7,0.4,1.2,1,1.6,1.6c0.3,0.7,0.5,1.3,0.5,2c0,0.6-0.2,1.1-0.5,1.2c-0.4,0.2-0.9,0.3-1.5,0.3h-2.7V1119.1z M-165.2,1125.1v-1.7
		c0.1,0,0.1,0,0.2,0c0.3,0,0.6,0,0.8-0.1c0.2-0.1,0.5-0.2,0.7-0.3c0.2-0.2,0.5-0.3,0.7-0.5c0.2-0.2,0.5-0.4,0.8-0.7
		c0.1-0.1,0.3-0.2,0.6-0.2c0.3,0,0.5,0.1,0.6,0.2c0.2,0.1,0.2,0.3,0.2,0.6c0,0.2-0.1,0.5-0.3,0.8c-0.2,0.3-0.4,0.6-0.8,0.9
		c-0.4,0.3-0.8,0.5-1.4,0.7c-0.5,0.2-1.2,0.3-1.9,0.3C-165.1,1125.1-165.2,1125.1-165.2,1125.1 M-167.5,1119.1h2.3v1.4h-2.3
		c0,0.6,0.1,1.1,0.3,1.5c0.2,0.4,0.5,0.8,0.9,1c0.3,0.2,0.7,0.3,1,0.3v1.7c-1.5-0.1-2.7-0.5-3.5-1.4c-0.9-0.9-1.4-2.2-1.4-3.8
		c0-0.8,0.1-1.4,0.3-2.1c0.2-0.6,0.5-1.2,1-1.6c0.4-0.5,1-0.8,1.6-1c0.6-0.2,1.3-0.4,2-0.4v1.8h0c-0.6,0-1.2,0.2-1.6,0.6
		C-167.2,1117.6-167.4,1118.3-167.5,1119.1"/>
	<path class="st9" d="M-154,1119.1h2.3c-0.1-0.9-0.3-1.5-0.7-1.9c-0.4-0.4-0.9-0.6-1.6-0.6v-1.8h0.1c1,0,1.8,0.2,2.5,0.6
		c0.7,0.4,1.2,1,1.6,1.6c0.3,0.7,0.5,1.3,0.5,2c0,0.6-0.2,1.1-0.6,1.2c-0.4,0.2-0.9,0.3-1.5,0.3h-2.7V1119.1z M-154,1125.1v-1.7
		c0.1,0,0.1,0,0.2,0c0.3,0,0.6,0,0.8-0.1c0.2-0.1,0.5-0.2,0.7-0.3c0.2-0.2,0.5-0.3,0.7-0.5c0.2-0.2,0.5-0.4,0.8-0.7
		c0.1-0.1,0.3-0.2,0.6-0.2c0.3,0,0.5,0.1,0.6,0.2c0.1,0.1,0.2,0.3,0.2,0.6c0,0.2-0.1,0.5-0.3,0.8c-0.2,0.3-0.4,0.6-0.8,0.9
		c-0.4,0.3-0.8,0.5-1.4,0.7c-0.5,0.2-1.2,0.3-1.9,0.3C-153.8,1125.1-153.9,1125.1-154,1125.1 M-156.3,1119.1h2.3v1.4h-2.3
		c0,0.6,0.1,1.1,0.3,1.5c0.2,0.4,0.5,0.8,0.9,1c0.3,0.2,0.7,0.3,1,0.3v1.7c-1.5-0.1-2.7-0.5-3.5-1.4c-0.9-0.9-1.4-2.2-1.4-3.8
		c0-0.8,0.1-1.4,0.3-2.1c0.2-0.6,0.5-1.2,1-1.6c0.4-0.5,1-0.8,1.6-1c0.6-0.2,1.3-0.4,2-0.4v1.8h0c-0.6,0-1.1,0.2-1.6,0.6
		C-155.9,1117.6-156.2,1118.3-156.3,1119.1"/>
	<path class="st9" d="M-140,1119.9c0-0.7-0.1-1.2-0.3-1.7c-0.2-0.5-0.5-0.9-0.8-1.1c-0.4-0.3-0.8-0.4-1.2-0.4l-0.1,0v-1.8
		c0.2,0,0.5-0.1,0.7-0.1c0.8,0,1.5,0.2,2.1,0.6c0.7,0.4,1.2,1,1.5,1.8c0.4,0.8,0.6,1.7,0.6,2.7c0,0.8-0.1,1.5-0.3,2.1
		c-0.2,0.7-0.5,1.2-0.9,1.6c-0.4,0.4-0.8,0.8-1.4,1c-0.5,0.2-1.1,0.4-1.7,0.4c-0.2,0-0.5,0-0.7,0v-1.9h0.1c0.4,0,0.8-0.1,1.2-0.4
		c0.4-0.2,0.6-0.6,0.9-1.1C-140.2,1121.2-140,1120.6-140,1119.9 M-142.5,1116.7c-0.7,0-1.2,0.3-1.7,0.8c-0.5,0.5-0.7,1.4-0.7,2.4
		c0,1,0.2,1.8,0.7,2.3c0.5,0.5,1,0.8,1.7,0.8v1.9c-0.4-0.1-0.8-0.2-1.1-0.4c-0.5-0.3-1-0.7-1.4-1.3v3.8c0,1.1-0.4,1.7-1.2,1.7
		c-0.5,0-0.8-0.1-1-0.4c-0.2-0.3-0.2-0.7-0.2-1.3v-10.9c0-0.5,0.1-0.8,0.3-1.1c0.2-0.2,0.5-0.4,0.9-0.4c0.4,0,0.6,0.1,0.9,0.4
		c0.2,0.2,0.3,0.6,0.3,1.1v0.3c0.5-0.6,1-1,1.5-1.3c0.3-0.2,0.7-0.3,1.1-0.4V1116.7z"/>
	<path class="st9" d="M-132.9,1116.2v7.3c0,0.5-0.1,0.9-0.4,1.2c-0.2,0.3-0.5,0.4-0.9,0.4c-0.4,0-0.7-0.1-0.9-0.4
		c-0.2-0.3-0.3-0.6-0.3-1.1v-7.2c0-0.5,0.1-0.9,0.3-1.1c0.2-0.3,0.5-0.4,0.9-0.4c0.4,0,0.7,0.1,0.9,0.4
		C-133.1,1115.4-132.9,1115.8-132.9,1116.2 M-134.2,1113.6c-0.4,0-0.7-0.1-0.9-0.3c-0.2-0.2-0.4-0.5-0.4-0.9c0-0.4,0.1-0.7,0.4-0.9
		c0.3-0.2,0.6-0.3,0.9-0.3c0.3,0,0.6,0.1,0.9,0.3c0.2,0.2,0.4,0.5,0.4,0.9c0,0.4-0.1,0.7-0.4,0.9
		C-133.6,1113.5-133.9,1113.6-134.2,1113.6"/>
	<path class="st9" d="M-124,1123.9l-2.2-3.7l-1.4,1.3v2c0,0.5-0.1,0.9-0.4,1.1c-0.3,0.3-0.6,0.4-0.9,0.4c-0.4,0-0.7-0.1-0.9-0.4
		c-0.2-0.3-0.3-0.6-0.3-1.2v-10.8c0-0.6,0.1-1,0.3-1.3c0.2-0.3,0.5-0.4,0.9-0.4c0.4,0,0.7,0.1,0.9,0.4c0.2,0.3,0.3,0.7,0.3,1.2v6.1
		l2.8-3c0.4-0.4,0.6-0.6,0.8-0.8c0.2-0.1,0.4-0.2,0.7-0.2c0.3,0,0.6,0.1,0.8,0.3c0.2,0.2,0.3,0.5,0.3,0.8c0,0.4-0.3,0.9-1,1.5
		l-1.3,1.2l2.6,4.1c0.2,0.3,0.3,0.5,0.4,0.7c0.1,0.2,0.1,0.3,0.1,0.4c0,0.4-0.1,0.7-0.3,1c-0.2,0.2-0.5,0.3-0.9,0.3
		c-0.3,0-0.5-0.1-0.7-0.2C-123.5,1124.7-123.7,1124.4-124,1123.9"/>
	<path class="st9" d="M-117.8,1125.1c-0.4,0-0.7-0.1-1-0.4c-0.3-0.2-0.4-0.6-0.4-1c0-0.4,0.1-0.7,0.4-1c0.3-0.3,0.6-0.4,1-0.4
		c0.4,0,0.7,0.1,1,0.4c0.3,0.3,0.4,0.6,0.4,1c0,0.4-0.1,0.8-0.4,1C-117.1,1125-117.4,1125.1-117.8,1125.1"/>
	<path class="st9" d="M-104.4,1122c0,0.3-0.1,0.7-0.3,1c-0.2,0.4-0.5,0.7-0.9,1c-0.4,0.3-0.9,0.6-1.5,0.8c-0.6,0.2-1.3,0.3-2,0.3
		c-1.6,0-2.8-0.5-3.7-1.4c-0.9-0.9-1.3-2.1-1.3-3.7c0-1,0.2-2,0.6-2.8c0.4-0.8,1-1.4,1.7-1.8c0.8-0.4,1.7-0.7,2.7-0.7
		c0.7,0,1.2,0.1,1.8,0.3c0.5,0.2,1,0.4,1.4,0.7c0.4,0.3,0.7,0.6,0.9,1c0.2,0.3,0.3,0.7,0.3,1c0,0.3-0.1,0.6-0.3,0.8
		c-0.2,0.2-0.5,0.3-0.8,0.3c-0.2,0-0.4-0.1-0.5-0.2c-0.1-0.1-0.3-0.3-0.5-0.5c-0.3-0.5-0.6-0.8-1-1.1c-0.3-0.2-0.8-0.4-1.3-0.4
		c-0.7,0-1.3,0.3-1.8,0.9c-0.5,0.6-0.7,1.4-0.7,2.4c0,0.5,0.1,0.9,0.2,1.3c0.1,0.4,0.3,0.7,0.5,1c0.2,0.3,0.5,0.5,0.8,0.6
		c0.3,0.1,0.7,0.2,1,0.2c0.5,0,0.9-0.1,1.3-0.4c0.4-0.2,0.7-0.6,1-1.1c0.2-0.3,0.3-0.5,0.5-0.7c0.2-0.2,0.4-0.2,0.7-0.2
		c0.3,0,0.6,0.1,0.8,0.4C-104.5,1121.4-104.4,1121.7-104.4,1122"/>
	<path class="st9" d="M-95.3,1120c0-1-0.2-1.8-0.7-2.4c-0.4-0.6-1.1-0.9-1.8-0.9v-1.9c0.8,0,1.5,0.1,2.1,0.4
		c0.6,0.2,1.2,0.6,1.6,1.1c0.4,0.5,0.8,1,1,1.6c0.2,0.6,0.3,1.3,0.3,2.1c0,0.7-0.1,1.4-0.3,2.1c-0.2,0.6-0.6,1.2-1,1.6
		c-0.4,0.5-1,0.8-1.6,1.1c-0.6,0.2-1.3,0.4-2.1,0.4v-1.9c0.8,0,1.4-0.3,1.8-0.9C-95.5,1121.8-95.3,1121-95.3,1120 M-97.8,1116.7
		L-97.8,1116.7c-0.5,0-0.9,0.1-1.3,0.4c-0.4,0.3-0.7,0.6-0.9,1.1c-0.2,0.5-0.3,1.1-0.3,1.8c0,0.7,0.1,1.2,0.3,1.7
		c0.2,0.5,0.5,0.9,0.9,1.1c0.4,0.3,0.8,0.4,1.3,0.4h0v1.9h0c-0.8,0-1.5-0.1-2.1-0.4c-0.6-0.2-1.1-0.6-1.6-1.1c-0.4-0.5-0.8-1-1-1.6
		c-0.2-0.6-0.4-1.3-0.4-2.1c0-0.8,0.1-1.5,0.4-2.1c0.2-0.6,0.6-1.2,1-1.6c0.4-0.5,1-0.8,1.6-1c0.6-0.2,1.3-0.4,2.1-0.4h0V1116.7z"/>
	<path class="st9" d="M-82.3,1120.1v3.4c0,0.5-0.1,0.9-0.4,1.2c-0.2,0.3-0.6,0.4-1,0.4c-0.4,0-0.7-0.1-0.9-0.4
		c-0.2-0.3-0.4-0.7-0.4-1.2v-4c0-0.6,0-1.1-0.1-1.5c0-0.4-0.2-0.6-0.4-0.9c-0.2-0.2-0.5-0.3-0.9-0.3c-0.8,0-1.4,0.3-1.6,0.8
		c-0.3,0.6-0.4,1.4-0.4,2.4v3.4c0,0.5-0.1,0.9-0.4,1.2c-0.2,0.3-0.6,0.4-0.9,0.4c-0.4,0-0.7-0.1-0.9-0.4c-0.2-0.3-0.4-0.7-0.4-1.2
		v-7.2c0-0.5,0.1-0.8,0.3-1.1c0.2-0.2,0.5-0.4,0.9-0.4c0.3,0,0.6,0.1,0.9,0.3c0.2,0.2,0.3,0.6,0.3,1v0.2c0.4-0.5,0.9-0.9,1.4-1.2
		c0.5-0.2,1.1-0.4,1.7-0.4c0.6,0,1.2,0.1,1.6,0.4c0.5,0.3,0.8,0.6,1.1,1.1c0.4-0.5,0.9-0.9,1.4-1.2c0.5-0.2,1-0.4,1.6-0.4
		c0.7,0,1.3,0.1,1.8,0.4c0.5,0.3,0.9,0.7,1.1,1.2c0.2,0.5,0.3,1.2,0.3,2.2v4.9c0,0.5-0.1,0.9-0.4,1.2c-0.2,0.3-0.5,0.4-1,0.4
		c-0.4,0-0.7-0.1-0.9-0.4c-0.2-0.3-0.4-0.7-0.4-1.2v-4.3c0-0.5,0-1-0.1-1.3c0-0.3-0.2-0.6-0.4-0.8c-0.2-0.2-0.5-0.3-0.9-0.3
		c-0.3,0-0.6,0.1-0.9,0.3c-0.3,0.2-0.5,0.5-0.7,0.8C-82.3,1118.3-82.3,1119.1-82.3,1120.1"/>
	<path class="st9" d="M-204,1108.3c-0.1-0.2-0.1-0.3-0.2-0.5c0.8-0.1,1.4-1.1,1-1.9c-0.2-0.5-0.7-0.7-1.1-0.7h-0.1
		c-0.4,0-0.8,0.2-1,0.5c-0.5,0.7-0.1,1.8,0.7,2c0.1,0.2,0.1,0.3,0.2,0.5c-1.3,0.1-2.6,0.4-3.6,1.1c0.1,0.3,0.2,0.6,0.3,0.9
		c2.2-0.9,4.6-0.7,6.8-0.5c0.1-0.3,0.2-0.6,0.2-0.9C-201.7,1108.4-202.8,1108.3-204,1108.3"/>
	<path class="st9" d="M-191.1,1111.8c-0.3,0.2-0.4,0.6-0.4,0.9c-0.4,0.4-0.2,0.9-0.2,1.4c-0.1,0.3-0.4,0.3-0.6,0.4
		c-0.3-0.4-0.6-0.9-1-1.3v0c-0.4-0.4-0.9-0.8-1.4-1.1c-0.4,0.4-0.8,0.8-1.2,1.3c0.8,0.8,1.5,1.7,2.1,2.7c0.4,0.7,0.8,1.5,1.1,2.3
		c0.6-0.3,1.3-0.7,1.9-1c-0.3-0.8-0.7-1.5-1.1-2.3c0.3-0.2,0.7-0.3,0.7-0.7c0-0.4-0.1-0.9,0.2-1.2c0.5,0.3,1.2,0,1.3-0.6
		C-189.8,1111.9-190.6,1111.4-191.1,1111.8"/>
	<path class="st9" d="M-196.2,1117c-0.1,1-1.1,1.9-2.2,1.9v4.2c2-0.5,3.8-1.3,5.6-2.3c0,0-0.4-2-1.8-4.2c-0.8-1.4-1.7-2.8-3-3.8
		c-0.3-0.2-0.5-0.4-0.8-0.6v2.4c0.3,0,0.5,0.1,0.8,0.1C-196.6,1114.8-196,1115.9-196.2,1117 M-198.4,1118.8L-198.4,1118.8
		c-0.6,0-1.2-0.2-1.6-0.7c-0.3-0.4-0.6-0.8-0.6-1.3c-0.1-1.1,0.6-2.2,1.6-2.4c0.2-0.1,0.4-0.1,0.6-0.1v-2.4
		c-1.3-0.9-2.8-1.5-4.4-1.5c-1.9,0-3.9,0.2-5.7,0.8v2.3c0.3,0,0.7,0,1,0.1c0.4,0.1,0.7,0.3,1,0.5c0.7,0.5,1.2,1.2,1.4,1.9
		c0.3,1,0.1,2.1-0.5,3c-0.4,0.6-1,1.1-1.7,1.3c-0.4,0.1-0.8,0.2-1.2,0.2v3.1l0.1,0c2.3,0.1,4.5,0.1,6.8-0.2c1.1-0.1,2.2-0.4,3.2-0.6
		V1118.8z M-208.5,1111.3v2.3c-0.6,0-1.2,0.1-1.7,0.4c-1.1,0.6-1.8,1.7-1.9,2.9c-0.1,1,0.3,1.9,1,2.7c0.7,0.7,1.6,1.1,2.6,1.1v3.1
		c-2.3-0.1-4.5-0.6-6.7-1.2c-0.4-2-0.4-4.2,0.5-6.1c0.9-2.1,2.7-3.8,4.8-4.7C-209.4,1111.6-208.9,1111.5-208.5,1111.3"/>
	<path class="st9" d="M-214.7,1113.3c-0.9,0.5-1.6,1.3-2.3,2.2c-0.2-0.3-0.2-0.7-0.5-1c-0.1-0.2-0.4-0.1-0.6-0.1
		c-0.2,0-0.5,0-0.7-0.1c0.3-0.4,0.2-0.9-0.2-1.2c-0.4-0.3-1.1,0-1.2,0.5c-0.2,0.6,0.4,1.1,1,1c0.3,0.4,0.8,0.4,1.3,0.4
		c0.2,0.4,0.4,0.7,0.6,1.1c-0.5,1-0.8,2-0.8,3.1c0.6,0.3,1.2,0.5,1.9,0.8c0-0.7,0.1-1.3,0.2-2c0.2-1.5,1-2.7,2-3.8
		C-214.1,1113.8-214.4,1113.6-214.7,1113.3"/>
	<path class="st9" d="M-200.1,1124.3c-2.3,0.5-4.7,0.6-7,0.5c-1.6-0.1-3.2-0.2-4.7-0.6c-1.1-0.2-2.2-0.5-3.3-0.8
		c0.2,1.4,0.7,2.7,1.5,3.8c0.9,1.3,2.2,2.5,3.8,3c1.1,0.3,2.5,0.7,4.7,0.7h0.2l0.2,0c2.1,0,4.1-0.3,5.9-1.1c1.2-0.5,2.3-1.2,3.2-2.1
		c0.8-0.8,1.5-1.7,1.9-2.8c0.4-1,0.8-2.7,0.8-3.6C-195,1122.7-197.6,1123.8-200.1,1124.3"/>
</g>
<g>
	<rect x="95" y="944.5" class="st0" width="35.7" height="10.2"/>
	<rect x="105.4" y="934.9" class="st0" width="15" height="3.5"/>
	<polygon class="st0" points="122.4,938.4 103.3,938.4 95,944.5 130.7,944.5 	"/>
	<polygon class="st0" points="117.3,784.7 108.5,784.7 107.4,934.9 118.3,934.9 	"/>
	<rect x="106.2" y="783" class="st0" width="13.4" height="1.7"/>
	<rect x="107.2" y="781.7" class="st0" width="11.3" height="1.3"/>
	<rect x="94.8" y="756" class="st0" width="36.2" height="1.3"/>
	<rect x="108.3" y="778.3" class="st0" width="9.2" height="1.3"/>
	<rect x="109.5" y="779.6" class="st0" width="7" height="2.1"/>
	<rect x="109.5" y="746.4" class="st0" width="7" height="2.1"/>
	<rect x="110.1" y="741.8" class="st0" width="5.7" height="1.5"/>
	<polygon class="st0" points="115.2,738.6 110.7,738.6 112.8,730.9 113.1,730.9 	"/>
	<polygon class="st0" points="120.6,748.5 105.1,748.5 96.9,756 128.9,756 	"/>
	<rect x="111.6" y="743.2" class="st0" width="2.8" height="3.1"/>
	<rect x="111.6" y="738.6" class="st0" width="2.8" height="3.1"/>
	<path class="st0" d="M93.7,757.3v1.7h0.2c0.4,1.6,1.8,6,5.7,11.5c3.4,4.7,7.4,7.8,7.6,7.9l0,0v0.1h11.3v-0.1l0,0
		c0.2-0.1,4.2-3.2,7.6-7.9c3.9-5.4,5.3-9.8,5.7-11.5h0.2v-1.7H93.7z M108.4,776.6c-0.3-0.2-4-3.1-7.1-7.4c-3.3-4.6-4.7-8.5-5.2-10.3
		h9.1c0,1.7,0.3,5.6,1.7,9.7c1.2,3.5,3,6.4,4.1,8C111,776.6,108.4,776.6,108.4,776.6z M108.8,767.9c-1.3-3.8-1.6-7.4-1.6-9h11.3
		c0,1.6-0.3,5.2-1.6,9c-1.2,3.4-3,6.3-4.1,7.8C111.8,774.3,110,771.4,108.8,767.9z M124.5,769.2c-3.1,4.3-6.8,7.2-7.1,7.4h-2.6
		c1.1-1.6,2.9-4.5,4.1-8c1.5-4.1,1.7-8,1.7-9.7h9.1C129.2,760.7,127.8,764.6,124.5,769.2z"/>
</g>
<g>
	<path class="st6" d="M1019.9,416.7v-1.2l4.3-4.7c0.8-0.9,1.3-1.5,1.6-2c0.3-0.5,0.4-1,0.4-1.5c0-0.7-0.2-1.2-0.6-1.6
		c-0.4-0.4-0.9-0.7-1.5-0.7c-0.9,0-1.6,0.2-2,0.7s-0.6,1.1-0.6,2h-1.7l0-0.1c0-1.1,0.3-2.1,1.1-2.8c0.8-0.8,1.8-1.1,3.2-1.1
		c1.2,0,2.1,0.3,2.8,1c0.7,0.7,1,1.6,1,2.6c0,0.7-0.2,1.4-0.6,2.1c-0.4,0.7-1,1.5-1.8,2.3l-3.4,3.7l0,0h4.6l0.1-1.5h1.5v2.9H1019.9z
		"/>
	<path class="st6" d="M1037.3,412.3h1.8v1.4h-1.8v1.6l1.5,0.3v1.1h-4.7v-1.1l1.5-0.3v-1.6h-5.9v-1l5.7-9h1.9V412.3z M1031.6,412.3h4
		v-6.1l-0.1,0l-0.2,0.5L1031.6,412.3z"/>
	<path class="st6" d="M1043.6,404.7v2.3h1.8v1.3h-1.8v5.9c0,0.5,0.1,0.8,0.3,1c0.2,0.2,0.4,0.3,0.7,0.3c0.2,0,0.3,0,0.5,0
		c0.2,0,0.4-0.1,0.5-0.1l0.2,1.2c-0.2,0.1-0.4,0.2-0.7,0.3c-0.3,0.1-0.6,0.1-1,0.1c-0.7,0-1.3-0.2-1.7-0.6s-0.6-1.1-0.6-2v-5.9h-1.5
		V407h1.5v-2.3H1043.6z"/>
	<path class="st6" d="M1047,415.6l1.5-0.3v-11.2l-1.5-0.3v-1.1h3.2v5.6c0.3-0.5,0.7-0.8,1.2-1.1c0.5-0.3,1-0.4,1.6-0.4
		c1,0,1.8,0.3,2.4,0.9c0.6,0.6,0.9,1.6,0.9,2.9v4.7l1.5,0.3v1.1h-4.7v-1.1l1.5-0.3v-4.7c0-0.8-0.2-1.4-0.5-1.8
		c-0.3-0.4-0.9-0.6-1.5-0.6c-0.5,0-0.9,0.1-1.3,0.3c-0.4,0.2-0.7,0.5-1,0.9v5.8l1.5,0.3v1.1h-4.7V415.6z"/>
	<path class="st6" d="M1063.5,413.2c0-0.7,0.2-1.4,0.6-1.9c0.4-0.5,1-1.1,1.9-1.6c-0.5-0.6-0.8-1.1-1-1.6s-0.3-0.9-0.3-1.4
		c0-1,0.3-1.8,0.9-2.3s1.4-0.8,2.4-0.8c0.9,0,1.7,0.3,2.3,0.8s0.9,1.2,0.9,2c0,0.6-0.2,1.1-0.5,1.5c-0.3,0.4-0.8,0.9-1.4,1.3l-1,0.7
		l3,3.7c0.2-0.4,0.4-0.8,0.6-1.3c0.1-0.5,0.2-1,0.2-1.5h1.6c0,0.8-0.1,1.5-0.3,2.2s-0.6,1.3-1,1.8l1.7,2l0,0h-2l-0.8-0.9
		c-0.5,0.4-1,0.6-1.6,0.8c-0.6,0.2-1.2,0.3-1.8,0.3c-1.3,0-2.3-0.3-3.1-1C1063.9,415.2,1063.5,414.3,1063.5,413.2z M1067.8,415.5
		c0.4,0,0.9-0.1,1.3-0.2c0.4-0.1,0.8-0.4,1.2-0.6l-3.2-3.9l-0.4,0.3c-0.5,0.4-0.9,0.8-1.1,1.2c-0.2,0.4-0.3,0.7-0.3,1
		c0,0.7,0.2,1.2,0.6,1.7C1066.3,415.3,1067,415.5,1067.8,415.5z M1066.4,406.6c0,0.3,0.1,0.6,0.2,1s0.4,0.7,0.7,1.1l1.2-0.9
		c0.3-0.2,0.6-0.5,0.7-0.7c0.1-0.3,0.2-0.6,0.2-0.9c0-0.4-0.1-0.7-0.4-1c-0.3-0.3-0.7-0.4-1.1-0.4c-0.5,0-0.9,0.2-1.1,0.5
		C1066.5,405.7,1066.4,406.1,1066.4,406.6z"/>
	<path class="st6" d="M1090,415.2c-0.4,0.4-0.9,0.8-1.7,1.1c-0.7,0.4-1.7,0.5-2.9,0.5c-1.7,0-3.2-0.6-4.3-1.8
		c-1.1-1.2-1.7-2.8-1.7-4.8v-0.2c0-2,0.5-3.6,1.6-4.8c1.1-1.2,2.5-1.8,4.3-1.8c1,0,1.8,0.2,2.5,0.5c0.7,0.3,1.3,0.7,1.8,1.2v2.4
		h-1.2l-0.4-1.8c-0.3-0.2-0.6-0.4-1.1-0.6s-0.9-0.2-1.5-0.2c-1.4,0-2.5,0.5-3.3,1.4s-1.1,2.2-1.1,3.7v0.2c0,1.6,0.4,2.8,1.1,3.8
		s1.8,1.4,3,1.4c0.7,0,1.3-0.1,1.7-0.2c0.5-0.1,0.8-0.3,1.1-0.5V412l-2.1-0.1v-1.3h3.9V415.2z"/>
</g>
</svg>
