<?xml version="1.0" encoding="utf-8"?>
<!-- Generator: Adobe Illustrator 19.1.0, SVG Export Plug-In . SVG Version: 6.00 Build 0)  -->
<svg version="1.1" id="Layer_1" xmlns="http://www.w3.org/2000/svg" xmlns:xlink="http://www.w3.org/1999/xlink" x="0px" y="0px"
	 viewBox="182 325 1156.4 360" style="enable-background:new 182 325 1156.4 360;" xml:space="preserve">
<style type="text/css">
	.st0{fill:#50516A;}
	.st1{fill:#E6E6E6;}
	.st2{fill:#CDCDCD;}
</style>
<g>
	<path class="st0" d="M3506.4,1780.2c-0.4,0.9-0.8,1.6-1.2,2.2s-0.8,1.1-1.3,1.4c-0.2,0.2-0.5,0.3-0.8,0.4s-0.6,0.1-0.8,0.1l0,0
		c-0.4,0-0.8-0.1-1-0.4c-0.3-0.3-0.4-0.7-0.4-1.2l0,0l0,0c0-0.3,0.1-0.7,0.2-1.2s0.3-1,0.5-1.6c0.1-0.2,0.2-0.6,0.4-1.2
		s0.5-1.3,0.7-2c0-0.1,0.1-0.4,0.3-0.9h-1.3c-0.2,0-0.4-0.2-0.4-0.4c0-0.2,0.2-0.4,0.4-0.4h1.5c0.1-0.1,0.1-0.3,0.2-0.4
		c0.4-1.1,0.8-2.3,0.9-2.5c0.1-0.2,0.3-0.3,0.5-0.3s0.3,0.3,0.3,0.5c-0.1,0.2-0.5,1.4-0.9,2.5c0,0.1,0,0.1-0.1,0.2h1.3
		c0.2,0,0.4,0.2,0.4,0.4c0,0.2-0.2,0.4-0.4,0.4h-1.6c-0.2,0.6-0.3,1-0.4,1.2c-0.3,0.8-0.5,1.5-0.7,2s-0.3,0.9-0.4,1.2
		c-0.2,0.6-0.4,1.1-0.5,1.5s-0.2,0.8-0.2,1.1l0,0c0,0.3,0.1,0.5,0.2,0.7c0.1,0.1,0.3,0.2,0.4,0.2l0,0c0.2,0,0.4,0,0.6-0.1
		c0.2-0.1,0.4-0.1,0.5-0.3c0.4-0.3,0.7-0.7,1.1-1.2c0.4-0.6,0.7-1.3,1.1-2.1c0.1-0.2,0.4-0.3,0.6-0.2
		C3506.4,1779.7,3506.5,1779.9,3506.4,1780.2z"/>
	<path class="st0" d="M3514.3,1780.2L3514.3,1780.2c-0.8,1.7-1.8,4.2-3.6,4.2l0,0c-0.6,0-0.9-0.2-1.1-0.6c-0.2-0.3-0.3-0.7-0.3-1.1
		v-0.1c0-0.4,0.1-0.9,0.2-1.4s0.3-1,0.5-1.4c0.1-0.1,0.1-0.2,0.1-0.4c0.3-0.7,0.7-1.8,0.7-2.7c0-0.6-0.3-1-1-1
		c-0.5,0-1.1,0.5-1.6,1.1c-0.7,0.9-1.4,2.2-1.8,3.3l0,0c-0.6,1.5-1.2,3.2-1.4,3.9c-0.1,0.2-0.3,0.3-0.5,0.3
		c-0.2-0.1-0.3-0.3-0.3-0.5c0.2-0.6,0.8-2.3,1.4-3.9l0,0l0,0l0,0c0.6-1.7,1.2-3.3,1.4-3.9l0,0c0.2-0.6,0.3-0.8,0.4-1.1
		c0.2-0.5,0.3-0.9,0.4-1.2l0.1-0.3c0.1-0.3,0.3-0.8,0.5-1.4c0.1-0.2,0.3-0.3,0.5-0.2s0.3,0.3,0.3,0.5c-0.2,0.5-0.4,1-0.5,1.4
		c0,0.1-0.1,0.2-0.1,0.3c-0.2,0.5-0.3,0.9-0.4,1.2l-0.3,0.7c0.6-0.6,1.2-0.9,1.8-0.9c1.4,0,1.9,0.8,1.9,1.9c0,1-0.5,2.2-0.8,3
		c-0.1,0.1-0.1,0.3-0.1,0.4c-0.2,0.5-0.3,0.9-0.5,1.4c-0.1,0.4-0.2,0.8-0.2,1.2l0,0c0,0.2,0,0.5,0.1,0.6s0.2,0.2,0.4,0.2l0,0
		c1.2,0,2.2-2.1,2.8-3.6v-0.1c0.1-0.2,0.3-0.3,0.6-0.2C3514.3,1779.7,3514.4,1779.9,3514.3,1780.2z"/>
	<path class="st0" d="M3521.5,1780.2c-0.8,1.7-1.7,2.7-2.7,3.4c-1,0.6-2.1,0.8-3.1,0.8l0,0l0,0c-0.7,0-1.4-0.3-1.8-0.7
		c-0.5-0.5-0.8-1.1-0.7-2l0,0l0,0c0-0.5,0.1-1.1,0.3-1.7l0,0c0.1-0.4,0.3-0.9,0.5-1.3c0.5-1,1.1-2,1.7-2.7c0.3-0.3,0.6-0.5,1-0.7
		c0.3-0.2,0.7-0.3,1.1-0.3c0.5,0,0.8,0.1,1.1,0.3c0.3,0.2,0.5,0.5,0.6,0.8s0,0.7-0.1,1c-0.2,0.5-0.5,1-1,1.4s-1.2,0.8-1.8,1.1
		c-0.9,0.4-1.8,0.7-2.3,0.8c-0.1,0.5-0.2,0.9-0.2,1.3l0,0c0,0.6,0.2,1.1,0.5,1.4s0.8,0.5,1.3,0.5l0,0c0.8,0,1.7-0.1,2.6-0.7
		c0.9-0.5,1.7-1.5,2.3-3c0.1-0.2,0.3-0.3,0.6-0.2C3521.5,1779.7,3521.6,1780,3521.5,1780.2z M3514.6,1779.4c0.5-0.1,1-0.3,1.6-0.6
		s1.2-0.6,1.6-1c0.3-0.3,0.6-0.6,0.7-1c0.1-0.2,0.1-0.4,0-0.6c0-0.1-0.1-0.2-0.2-0.3c-0.1-0.1-0.3-0.2-0.6-0.2
		c-0.2,0-0.5,0.1-0.7,0.2s-0.5,0.3-0.7,0.6c-0.6,0.6-1.2,1.5-1.6,2.4C3514.7,1779.1,3514.6,1779.2,3514.6,1779.4z"/>
	<path class="st0" d="M3525.2,1780.2c-0.4,0.8-0.8,1.8-1.4,2.6c-0.6,0.9-1.4,1.6-2.3,1.6l0,0c-0.5,0-0.9-0.2-1.1-0.6
		c-0.2-0.3-0.3-0.7-0.3-1.1v-0.1c0-0.3,0.1-0.7,0.2-1.2s0.3-1,0.5-1.6c0.1-0.2,0.2-0.6,0.4-1.2s0.5-1.3,0.7-2c0-0.1,0.1-0.3,0.2-0.5
		l0.3-0.9c0.1-0.2,0.3-0.3,0.5-0.3c0.2,0.1,0.3,0.3,0.3,0.5l-0.3,0.9l-0.2,0.5c-0.3,0.8-0.5,1.5-0.7,2s-0.3,0.9-0.4,1.2
		c-0.2,0.6-0.4,1.1-0.5,1.5s-0.2,0.8-0.2,1.1l0,0c0,0.2,0,0.5,0.1,0.6s0.2,0.2,0.4,0.2l0,0c0.6,0,1.1-0.5,1.6-1.2
		c0.5-0.8,0.9-1.7,1.3-2.5c0.1-0.2,0.4-0.3,0.6-0.2C3525.2,1779.7,3525.3,1779.9,3525.2,1780.2z M3523,1773.3c0-0.4,0.3-0.7,0.7-0.7
		s0.7,0.3,0.7,0.7c0,0.4-0.3,0.7-0.7,0.7C3523.3,1773.9,3523,1773.6,3523,1773.3z"/>
	<path class="st0" d="M3532.5,1780.2L3532.5,1780.2c-0.8,1.7-1.8,4.2-3.6,4.2l0,0c-0.5,0-0.9-0.2-1.1-0.6c-0.2-0.3-0.3-0.7-0.3-1.1
		v-0.1c0-0.3,0.1-0.7,0.2-1.2s0.3-1,0.5-1.6c0.2-0.5,0.3-0.9,0.4-1.1c0.1-0.4,0.2-0.6,0.4-1l-0.3-0.1c-0.6-0.2-1.2-0.4-1.8-0.7
		c-0.1,0.2-0.1,0.4-0.2,0.5l0,0l-1.6,3.5c-0.1,0.2-0.3,0.3-0.6,0.2c-0.2-0.1-0.3-0.3-0.2-0.6l1.6-3.5c0.1-0.2,0.2-0.4,0.2-0.6
		c-0.7-0.5-1.1-1-1-1.9c0-0.3,0.2-0.6,0.4-0.8l0,0c0.2-0.2,0.5-0.3,0.8-0.3c0.1,0,0.2,0,0.3,0l0,0c0.3,0.1,0.5,0.3,0.6,0.5
		s0.2,0.5,0.2,0.7s0,0.4-0.1,0.6s-0.1,0.4-0.2,0.7c0.6,0.3,1.2,0.5,1.8,0.7c0.3,0.1,0.5,0.2,0.8,0.2c0.2,0.1,0.3,0.3,0.2,0.6l0,0
		c-0.2,0.6-0.3,0.9-0.5,1.4c-0.1,0.3-0.2,0.6-0.4,1.1c-0.2,0.6-0.4,1.1-0.5,1.5s-0.2,0.8-0.2,1.1l0,0c0,0.2,0,0.5,0.2,0.6
		c0.1,0.1,0.2,0.2,0.4,0.2c1.3,0,2.2-2.1,2.8-3.6v-0.1c0.1-0.2,0.3-0.3,0.6-0.2C3532.5,1779.7,3532.6,1779.9,3532.5,1780.2z
		 M3526.5,1774.8c0-0.1,0-0.2-0.1-0.3c0-0.1-0.1-0.1-0.1-0.1l0,0h-0.1c-0.1,0-0.2,0-0.2,0.1l0,0c-0.1,0.1-0.1,0.2-0.1,0.3
		c0,0.4,0.2,0.7,0.5,0.9c0.1-0.2,0.1-0.3,0.2-0.5C3526.5,1775,3526.5,1774.9,3526.5,1774.8z"/>
	<path class="st0" d="M3543,1780.2L3543,1780.2c-0.8,1.7-1.8,4.2-3.6,4.2l0,0l0,0c-0.5,0-0.9-0.2-1.1-0.6c-0.2-0.2-0.2-0.5-0.3-0.8
		c-0.6,0.8-1.3,1.4-2.2,1.4l0,0c-0.5,0-0.9-0.2-1.1-0.6c-0.2-0.3-0.3-0.7-0.3-1.1v-0.1c0-0.3,0.1-0.7,0.2-1.2c0.1-0.5,0.3-1,0.5-1.6
		c0.1-0.3,0.3-0.9,0.6-1.6c0.3-0.9,0.7-2,1.1-3c0.1-0.2,0.3-0.3,0.5-0.2c0.2,0.1,0.3,0.3,0.2,0.5c-0.4,1.2-0.8,2.2-1.1,3
		c-0.3,0.7-0.5,1.3-0.6,1.6c-0.2,0.6-0.4,1.1-0.5,1.5s-0.2,0.8-0.2,1.1l0,0c0,0.2,0,0.5,0.1,0.6s0.2,0.2,0.5,0.2
		c1.2,0,2.2-2.1,2.8-3.6l0,0c0,0,0,0,0-0.1c0.1-0.3,0.3-0.9,0.6-1.6c0.4-0.9,0.7-2,1.1-3c0.1-0.2,0.3-0.3,0.5-0.2
		c0.2,0.1,0.3,0.3,0.3,0.5c-0.4,1.2-0.8,2.2-1.1,3c-0.3,0.7-0.5,1.3-0.6,1.6l0,0v0.1c-0.2,0.5-0.3,1-0.4,1.4
		c-0.1,0.4-0.2,0.8-0.2,1.1l0,0c0,0.2,0,0.5,0.1,0.6s0.2,0.2,0.4,0.2l0,0c1.2,0,2.2-2.1,2.8-3.6v-0.1c0.1-0.2,0.3-0.3,0.6-0.2
		C3543,1779.7,3543.1,1779.9,3543,1780.2z"/>
	<path class="st0" d="M3548.5,1780.8L3548.5,1780.8L3548.5,1780.8c0,1.2-0.5,2.1-1.2,2.7s-1.6,0.9-2.4,0.9l0,0c-0.1,0-0.1,0-0.2,0
		c-0.8,0-1.5-0.4-2-0.9s-0.8-1.2-0.8-1.9c0-0.1,0-0.1,0-0.2c0.1-0.7,0.3-1.4,0.8-2c0.5-0.5,1.1-0.8,1.9-0.8c0.5,0,1,0.2,1.4,0.6
		c0.3,0.3,0.5,0.8,0.6,1.4c0,0.2-0.2,0.4-0.4,0.4s-0.4-0.2-0.4-0.4c0-0.3-0.1-0.6-0.3-0.8c-0.2-0.2-0.5-0.3-0.7-0.3
		c-0.5,0-1,0.2-1.3,0.6c-0.4,0.4-0.6,0.9-0.6,1.4v0.1c0,0.5,0.2,1,0.5,1.4s0.9,0.6,1.4,0.7c0.1,0,0.1,0,0.2,0l0,0
		c0.7,0,1.4-0.2,1.9-0.7c0.5-0.4,0.9-1.1,0.9-2l0,0c0-1-0.5-1.8-1-2.7c-0.1-0.2-0.2-0.4-0.3-0.6c-0.1,0.1-0.3,0.3-0.4,0.5
		c-0.2,0.2-0.4,0.2-0.6,0c-0.2-0.1-0.2-0.4-0.1-0.6c0.2-0.3,0.4-0.5,0.7-0.7l0,0c-0.2-0.6-0.4-1.1-0.3-1.7c0-0.2,0.1-0.4,0.2-0.6
		l0,0c0.1-0.2,0.2-0.3,0.3-0.5c0.1-0.1,0.3-0.2,0.4-0.3c0.2-0.1,0.3-0.1,0.5-0.1c0.3,0,0.5,0.1,0.7,0.3c0.2,0.2,0.2,0.4,0.3,0.7
		c0,0.2,0,0.4-0.1,0.6c0,0.2-0.1,0.4-0.2,0.6c-0.2,0.5-0.5,0.9-0.8,1.2c0.1,0.3,0.3,0.5,0.4,0.8
		C3547.9,1778.6,3548.5,1779.6,3548.5,1780.8z M3547,1775.3c0.1-0.1,0.1-0.3,0.1-0.4s0.1-0.2,0-0.4c0-0.1,0-0.1,0-0.2c0,0,0,0-0.1,0
		h-0.1c-0.1,0-0.1,0.1-0.2,0.1c-0.1,0.1-0.1,0.1-0.2,0.2l0,0c0,0.1-0.1,0.2-0.1,0.3c0,0.3,0,0.6,0.1,0.9
		C3546.7,1775.8,3546.8,1775.5,3547,1775.3z"/>
	<path class="st0" d="M3557.9,1780.2L3557.9,1780.2c-0.8,1.7-1.8,4.2-3.6,4.2l0,0l0,0c-0.5,0-0.9-0.2-1.1-0.6
		c-0.2-0.2-0.2-0.5-0.3-0.8c-0.6,0.8-1.3,1.4-2.2,1.4l0,0c-0.5,0-0.9-0.2-1.1-0.6c-0.2-0.3-0.3-0.7-0.3-1.1v-0.1
		c0-0.3,0.1-0.7,0.2-1.2s0.3-1,0.5-1.6c0.1-0.3,0.3-0.9,0.6-1.6c0.3-0.9,0.7-2,1.1-3c0.1-0.2,0.3-0.3,0.5-0.2
		c0.2,0.1,0.3,0.3,0.2,0.5c-0.4,1.2-0.8,2.2-1.1,3c-0.3,0.7-0.5,1.3-0.6,1.6c-0.2,0.6-0.4,1.1-0.5,1.5s-0.2,0.8-0.2,1.1l0,0
		c0,0.2,0,0.5,0.1,0.6s0.2,0.2,0.5,0.2c1.2,0,2.2-2.1,2.8-3.6l0,0c0,0,0,0,0-0.1c0.1-0.3,0.3-0.9,0.6-1.6c0.4-0.9,0.7-2,1.1-3
		c0.1-0.2,0.3-0.3,0.5-0.2c0.2,0.1,0.3,0.3,0.3,0.5c-0.4,1.2-0.8,2.2-1.1,3c-0.3,0.7-0.5,1.3-0.6,1.6l0,0v0.1
		c-0.2,0.5-0.3,1-0.4,1.4c-0.1,0.4-0.2,0.8-0.2,1.1l0,0c0,0.2,0,0.5,0.1,0.6s0.2,0.2,0.4,0.2l0,0c1.2,0,2.2-2.1,2.8-3.6v-0.1
		c0.1-0.2,0.3-0.3,0.6-0.2C3557.9,1779.7,3558,1779.9,3557.9,1780.2z"/>
	<path class="st0" d="M3565.9,1780.2L3565.9,1780.2c-0.8,1.7-1.8,4.2-3.6,4.2l0,0c-0.5,0-0.9-0.2-1.1-0.6c-0.2-0.3-0.3-0.7-0.3-1.1
		l0,0c-0.7,1-1.5,1.7-2.5,1.6c-0.6,0-1-0.3-1.2-0.7c-0.3-0.4-0.4-1-0.4-1.6c0-1.1,0.6-3.3,1.6-5c0.7-1.2,1.7-2.1,2.8-2.2
		c0.1,0,0.1,0,0.2,0c0.5,0,1,0.3,1.4,0.7c0.1,0.1,0.2,0.2,0.3,0.4c0.1-0.3,0.2-0.6,0.3-0.9c0.1-0.2,0.3-0.3,0.5-0.2s0.3,0.3,0.2,0.5
		c-0.2,0.6-0.6,1.6-1,2.7c-0.3,0.7-0.5,1.4-0.7,2s-0.4,1.1-0.5,1.5s-0.2,0.8-0.2,1.1l0,0c0,0.2,0,0.5,0.1,0.6s0.2,0.2,0.5,0.2
		c1.2,0,2.2-2.1,2.8-3.6v-0.1c0.1-0.2,0.3-0.3,0.6-0.2C3565.9,1779.7,3566,1779.9,3565.9,1780.2z M3561.9,1778.5
		c0.2-0.4,0.3-0.8,0.5-1.1c0-0.1,0-0.1,0-0.1c0-0.5-0.1-0.8-0.4-1.1c-0.2-0.2-0.5-0.4-0.8-0.4h-0.1c-0.8,0-1.5,0.8-2.1,1.8
		c-0.9,1.5-1.4,3.5-1.5,4.5c0,0.5,0.1,0.9,0.2,1.1c0.1,0.2,0.3,0.3,0.6,0.3C3560,1783.5,3561.1,1780.5,3561.9,1778.5z"/>
	<path class="st0" d="M3570.1,1780.2c-0.4,0.9-0.8,1.6-1.2,2.2s-0.8,1.1-1.3,1.4c-0.2,0.2-0.5,0.3-0.8,0.4s-0.6,0.1-0.8,0.1l0,0
		c-0.4,0-0.8-0.1-1-0.4c-0.3-0.3-0.4-0.7-0.4-1.2l0,0l0,0c0-0.3,0.1-0.8,0.2-1.2c0.1-0.5,0.3-1,0.5-1.6c0.5-1.6,1.1-3.2,1.7-4.9
		l0.4-1.3l0.1-0.3c0.1-0.3,0.3-0.8,0.5-1.4c0.1-0.2,0.3-0.3,0.5-0.3c0.2,0.1,0.3,0.3,0.3,0.5c-0.2,0.5-0.4,1.1-0.5,1.4
		c0,0.1-0.1,0.2-0.1,0.4l-0.4,1.3c-0.6,1.6-1.1,3.2-1.7,4.9c-0.2,0.6-0.3,1.1-0.5,1.5c-0.1,0.4-0.2,0.8-0.2,1l0,0
		c0,0.3,0.1,0.5,0.2,0.7c0.1,0.1,0.3,0.2,0.4,0.2l0,0c0.2,0,0.4,0,0.6-0.1s0.4-0.1,0.5-0.3c0.4-0.3,0.7-0.7,1.1-1.2
		c0.4-0.6,0.7-1.3,1.1-2.1c0.1-0.2,0.4-0.3,0.6-0.2C3570.1,1779.7,3570.2,1779.9,3570.1,1780.2z"/>
	<path class="st0" d="M3578.8,1780.8L3578.8,1780.8L3578.8,1780.8c0,1.2-0.5,2.1-1.2,2.7s-1.6,0.9-2.4,0.9l0,0c-0.1,0-0.1,0-0.2,0
		c-0.8,0-1.5-0.4-2-0.9s-0.8-1.2-0.8-1.9c0-0.1,0-0.1,0-0.2c0.1-0.7,0.3-1.4,0.8-2c0.5-0.5,1.1-0.8,1.9-0.8c0.5,0,1,0.2,1.4,0.6
		c0.3,0.3,0.5,0.8,0.6,1.4c0,0.2-0.2,0.4-0.4,0.4s-0.4-0.2-0.4-0.4c0-0.3-0.1-0.6-0.3-0.8c-0.2-0.2-0.5-0.3-0.7-0.3
		c-0.5,0-1,0.2-1.3,0.6c-0.4,0.4-0.6,0.9-0.6,1.4v0.1c0,0.5,0.2,1,0.5,1.4s0.9,0.6,1.4,0.7c0.1,0,0.1,0,0.2,0l0,0
		c0.7,0,1.4-0.2,1.9-0.7c0.5-0.4,0.9-1.1,0.9-2l0,0c0-1-0.5-1.8-1-2.7c-0.1-0.2-0.2-0.4-0.3-0.6c-0.1,0.1-0.3,0.3-0.4,0.5
		c-0.2,0.2-0.4,0.2-0.6,0c-0.2-0.1-0.2-0.4-0.1-0.6c0.2-0.3,0.4-0.5,0.7-0.7l0,0c-0.2-0.6-0.4-1.1-0.3-1.7c0-0.2,0.1-0.4,0.2-0.6
		l0,0c0.1-0.2,0.2-0.3,0.3-0.5c0.1-0.1,0.3-0.2,0.4-0.3c0.2-0.1,0.3-0.1,0.5-0.1c0.3,0,0.5,0.1,0.7,0.3c0.2,0.2,0.2,0.4,0.3,0.7
		c0,0.2,0,0.4-0.1,0.6c0,0.2-0.1,0.4-0.2,0.6c-0.2,0.5-0.5,0.9-0.8,1.2c0.1,0.3,0.3,0.5,0.4,0.8
		C3578.2,1778.6,3578.8,1779.6,3578.8,1780.8z M3577.3,1775.3c0.1-0.1,0.1-0.3,0.1-0.4s0.1-0.2,0-0.4c0-0.1,0-0.1,0-0.2
		c0,0,0,0-0.1,0h-0.1c-0.1,0-0.1,0.1-0.2,0.1c-0.1,0.1-0.1,0.1-0.2,0.2l0,0c0,0.1-0.1,0.2-0.1,0.3c0,0.3,0,0.6,0.1,0.9
		C3577,1775.8,3577.2,1775.5,3577.3,1775.3z"/>
	<path class="st0" d="M3588.6,1780.1c0,0.1-0.1,0.3-0.2,0.4c-0.1,0.1-0.1,0.2-0.2,0.3c-0.3,0.5-0.6,1-1,1.4s-1,0.7-1.7,0.7
		c-0.2,0-0.4,0-0.6-0.1c-0.3-0.1-0.6-0.2-0.8-0.5c-0.8,1.1-1.8,1.9-3,1.8l0,0l0,0l0,0c-0.7,0-1.2-0.4-1.4-0.8
		c-0.9,2.5-1.7,4.7-1.9,5.3c-0.1,0.2-0.3,0.3-0.5,0.3c-0.2-0.1-0.3-0.3-0.3-0.5c0.2-0.6,1.2-3.4,2.2-6.2c1.1-3.1,2.3-6.3,2.5-6.9
		c0-0.1,0.1-0.2,0.1-0.3c0.1-0.2,0.3-0.3,0.5-0.3c0.2,0.1,0.3,0.3,0.3,0.5l-0.2,0.4c0.6-0.6,1.2-1,2-1c0.6,0,1,0.3,1.3,0.7
		s0.4,1,0.4,1.6v0.1l0,0c-0.1,1.1-0.6,2.9-1.4,4.4c0,0.1-0.1,0.1-0.1,0.2c0.2,0.2,0.4,0.3,0.6,0.4c0.1,0,0.2,0,0.4,0
		c0.5,0,0.8-0.2,1.2-0.5c0.3-0.3,0.6-0.8,0.8-1.2c0-0.1,0.1-0.2,0.2-0.3c0-0.1,0.1-0.2,0.1-0.4c0.1-0.2,0.3-0.3,0.6-0.2
		C3588.6,1779.7,3588.7,1779.9,3588.6,1780.1z M3584.4,1780.1c-0.1,0.2-0.1,0.4-0.1,0.5c0.6-1.2,0.9-2.5,1-3.4l0,0v-0.1l0,0
		c0-0.5,0-0.9-0.2-1.1c-0.1-0.2-0.3-0.3-0.6-0.3c-1.6,0-2.8,3-3.6,5l-0.1,0.3c-0.1,0.5-0.3,1-0.3,1.4c0,0.6,0.1,1,0.7,1l0,0l0,0
		c0.9,0,1.8-0.7,2.4-1.7c-0.1-0.3-0.2-0.6-0.2-1c0-0.3,0-0.6,0.1-1c0.1-0.2,0.3-0.4,0.5-0.3
		C3584.3,1779.6,3584.4,1779.9,3584.4,1780.1z"/>
	<path class="st0" d="M3596.3,1780.1c-0.1,0.1-0.1,0.3-0.2,0.4s-0.1,0.2-0.2,0.3c-0.3,0.5-0.6,1-1,1.4c-0.5,0.4-1,0.7-1.7,0.7
		c-0.2,0-0.4,0-0.6-0.1c-0.3-0.1-0.6-0.3-0.9-0.5c-0.7,1-1.7,1.8-2.7,1.8c-3.3,0-1.1-5.5,0-7.3c0.7-1.2,1.7-2.1,2.8-2.1l0,0
		c0.6,0,1.1,0.2,1.5,0.7c0.3,0.4,0.5,0.9,0.5,1.6c0,1.3-0.7,3.1-1.5,4.6c0.1,0.2,0.4,0.3,0.6,0.4c0.1,0,0.2,0,0.3,0
		c0.5,0,0.9-0.2,1.2-0.5s0.6-0.8,0.8-1.2c0.1-0.1,0.1-0.2,0.2-0.3c0.1-0.1,0.1-0.2,0.2-0.4c0.1-0.2,0.3-0.3,0.6-0.2
		C3596.3,1779.7,3596.4,1779.9,3596.3,1780.1z M3592.1,1780.1c-0.1,0.2-0.1,0.3-0.1,0.5c0.6-1.2,1-2.5,1-3.4c0-0.5-0.1-0.8-0.3-1
		s-0.5-0.4-0.9-0.4c-0.8,0-1.5,0.7-2,1.7c-0.8,1.3-2.7,6-0.7,6c0.7,0,1.6-0.8,2.2-1.7c-0.1-0.3-0.2-0.6-0.2-0.9s0-0.6,0.1-1
		c0.1-0.2,0.3-0.4,0.5-0.3C3592,1779.6,3592.2,1779.9,3592.1,1780.1z"/>
	<path class="st0" d="M3600.4,1780.2c-0.4,0.9-0.8,1.6-1.2,2.2s-0.8,1.1-1.3,1.4c-0.2,0.2-0.5,0.3-0.8,0.4s-0.6,0.1-0.8,0.1l0,0
		c-0.4,0-0.8-0.1-1-0.4c-0.3-0.3-0.4-0.7-0.4-1.2l0,0l0,0c0-0.3,0.1-0.7,0.2-1.2s0.3-1,0.5-1.6c0.1-0.2,0.2-0.6,0.4-1.2
		s0.5-1.3,0.7-2c0-0.1,0.1-0.4,0.3-0.9h-1.3c-0.2,0-0.4-0.2-0.4-0.4c0-0.2,0.2-0.4,0.4-0.4h1.5c0.1-0.1,0.1-0.3,0.2-0.4
		c0.4-1.1,0.8-2.3,0.9-2.5c0.1-0.2,0.3-0.3,0.5-0.3c0.2,0.1,0.3,0.3,0.3,0.5c-0.1,0.2-0.5,1.4-0.9,2.5c0,0.1,0,0.1-0.1,0.2h1.3
		c0.2,0,0.4,0.2,0.4,0.4c0,0.2-0.2,0.4-0.4,0.4h-1.6c-0.2,0.6-0.3,1-0.4,1.2c-0.3,0.8-0.5,1.5-0.7,2s-0.3,0.9-0.4,1.2
		c-0.2,0.6-0.4,1.1-0.5,1.5s-0.2,0.8-0.2,1.1l0,0c0,0.3,0.1,0.5,0.2,0.7c0.1,0.1,0.3,0.2,0.4,0.2l0,0c0.2,0,0.4,0,0.6-0.1
		c0.2-0.1,0.4-0.1,0.5-0.3c0.4-0.3,0.7-0.7,1.1-1.2c0.4-0.6,0.7-1.3,1.1-2.1c0.1-0.2,0.4-0.3,0.6-0.2
		C3600.4,1779.7,3600.5,1779.9,3600.4,1780.2z"/>
</g>
<g>
	<path class="st0" d="M3483.4,1777.2l-6.7,2.5l5,2.3c0.3,0.1,0.4,0.4,0.3,0.7c-0.1,0.2-0.4,0.4-0.7,0.2l-6.2-2.7
		c-0.1,0-0.2-0.1-0.3-0.3c-0.1-0.3,0-0.6,0.3-0.7l7.9-3c0.3-0.1,0.6,0,0.7,0.3C3483.8,1776.8,3483.7,1777.1,3483.4,1777.2z"/>
	<path class="st0" d="M3495.3,1777.2l-6.7,2.5l5,2.3c0.3,0.1,0.4,0.4,0.3,0.7c-0.1,0.2-0.4,0.4-0.7,0.2l-6.2-2.7
		c-0.1,0-0.2-0.1-0.3-0.3c-0.1-0.3,0-0.6,0.3-0.7l7.9-3c0.3-0.1,0.6,0,0.7,0.3C3495.6,1776.8,3495.5,1777.1,3495.3,1777.2z"/>
</g>
<path class="st1" d="M932,438.2H828.4c-6.4,0-11.6-5.2-11.6-11.6v-0.2c0-6.4,5.2-11.6,11.6-11.6h37.7c3.5,0,6.4-2.9,6.4-6.4v-0.2
	c0-3.5-2.9-6.4-6.4-6.4H784c-6.4,0-11.7-5.2-11.7-11.7V390c0-6.4,5.2-11.7,11.7-11.7h122.7c6.4,0,11.7,5.2,11.7,11.7v0.2
	c0,6.4-5.2,11.7-11.7,11.7h-6.4c-3.5,0-6.4,2.9-6.4,6.4v0.2c0,3.5,2.9,6.4,6.4,6.4H932c6.4,0,11.6,5.2,11.6,11.6v0.2
	C943.6,433,938.4,438.2,932,438.2z"/>
<path class="st1" d="M1297.2,384.7h-53.8c-3.5,0-6.4-2.9-6.4-6.4v-0.2c0-3.5,2.9-6.4,6.4-6.4h19.1c6.4,0,11.6-5.2,11.6-11.6v-0.2
	c0-6.4-5.2-11.6-11.6-11.6h-79.6c-6.4,0-11.6,5.2-11.6,11.6v0.2c0,6.4,5.2,11.6,11.6,11.6h26.3c3.5,0,6.4,2.9,6.4,6.4v0.2
	c0,3.5-2.9,6.4-6.4,6.4h-60.5c-6.4,0-11.7,5.2-11.7,11.7v0.2c0,6.4,5.2,11.7,11.7,11.7h148.5c6.4,0,11.7-5.2,11.7-11.7v-0.2
	C1308.9,390,1303.7,384.7,1297.2,384.7z"/>
<path class="st1" d="M1136.7,896.4h-79.6c-6.4,0-11.6,5.2-11.6,11.6v0.2c0,6.4,5.2,11.6,11.6,11.6h79.6c6.4,0,11.6-5.2,11.6-11.6
	V908C1148.3,901.6,1143.1,896.4,1136.7,896.4z"/>
<path class="st1" d="M1125.5,348.4h-38.6c-6.4,0-11.6,5.2-11.6,11.6v0.2c0,6.4,5.2,11.6,11.6,11.6h38.6c6.4,0,11.6-5.2,11.6-11.6
	v-0.2C1137.1,353.6,1131.9,348.4,1125.5,348.4z"/>
<path class="st1" d="M378.9,371.7h31.7c6.4,0,11.6-5.2,11.6-11.6v-0.2c0-6.4-5.2-11.6-11.6-11.6H307c-6.4,0-11.6,5.2-11.6,11.6v0.2
	c0,6.4,5.2,11.6,11.6,11.6h37.7c3.5,0,6.4,2.9,6.4,6.4v0.2c0,3.5-2.9,6.4-6.4,6.4h-82.1c-6.4,0-11.7,5.2-11.7,11.7v0.2
	c0,6.4,5.2,11.7,11.7,11.7h12.3c0.4,0,0.9,0.1,1.3,0.1h31.7c3.5,0,6.4,2.9,6.4,6.4v0.2c0,3.5-2.9,6.4-6.4,6.4h-96.4
	c-6.4,0-11.7,5.2-11.7,11.7v0.2c0,6.4,5.2,11.7,11.7,11.7h198.6c6.4,0,11.7-5.2,11.7-11.7V433c0-6.4-5.2-11.7-11.7-11.7H342
	c-3.5,0-6.4-2.9-6.4-6.4v-0.2c0-3.5,2.9-6.4,6.4-6.4h37.7c0.4,0,0.9,0,1.3-0.1h4.3c6.4,0,11.7-5.2,11.7-11.7v-0.2
	c0-6.4-5.2-11.7-11.7-11.7h-6.4c-3.5,0-6.4-2.9-6.4-6.4v-0.2C372.5,374.6,375.3,371.7,378.9,371.7z"/>
<path class="st2" d="M314.1,491.4h-0.1c-5.4,0-9.8,4.4-9.8,9.8v51.2c0,17.3-5.8,25.3-18.9,25.7v-98.5c0-7.2-5.8-13-13-13h-0.3
	c-7.2,0-13,5.8-13,13v117.6c-12.7-0.5-18.9-9.3-18.9-26.7v-11.7c0-4.8-3.9-8.8-8.8-8.8h-0.1c-4.8,0-8.8,3.9-8.8,8.8v11.4
	c0,28.9,14,47,36.5,47.4v70.6h26.2v-87.4c23.5-0.9,38.5-20.1,38.5-49.4v-50.4C323.8,495.8,319.4,491.4,314.1,491.4z"/>
<path class="st2" d="M1194.9,541.5L1194.9,541.5c4.1,0,7.4,3.3,7.4,7.3v19.8c0,14.7,6.7,16.9,12.7,17.1V480.1c0-7.8,6.3-14,14-14
	h0.3c7.8,0,14,6.3,14,14v98.4c15.5-0.7,23.1-11.4,23.1-32.7v-12.1c0-5.5,4.4-9.9,9.9-9.9h0.2c5.5,0,9.9,4.4,9.9,9.9v11.8
	c0,17.7-4.3,32.2-12.5,42c-7.5,9-18.1,13.9-30.5,14.2V689h-28.4v-86.2c-7.7-0.2-14.6-3.5-19.5-9.3c-5.1-6.2-7.9-15-7.9-25.5v-19.2
	C1187.6,544.8,1190.8,541.5,1194.9,541.5z"/>
</svg>
