<?xml version="1.0" encoding="utf-8"?>
<!-- Generator: Adobe Illustrator 19.1.0, SVG Export Plug-In . SVG Version: 6.00 Build 0)  -->
<svg version="1.1" id="Layer_1" xmlns="http://www.w3.org/2000/svg" xmlns:xlink="http://www.w3.org/1999/xlink" x="0px" y="0px"
	 viewBox="182 325 1156.4 545" style="enable-background:new 182 325 1156.4 545;" xml:space="preserve">
<style type="text/css">
	.st0{fill:#E6E7E8;}
	.st1{opacity:0.2;fill:#E6E7E8;enable-background:new    ;}
	.st2{fill:#03A8A0;}
	.st3{fill:#D3CB7D;}
	.st4{fill:#50516A;}
	.st5{fill:#FFFFFF;}
	.st6{fill:#E6E6E6;}
</style>
<g>
	<g>
		<g>
			<g>
				<g>
					<g>
						<path class="st0" d="M319.1,597.8c-0.2,1.1-0.9-0.8-3.2-3.9c-2.2-3.1-3.3-2.2-5.3-4.6c-0.2-0.2-0.3-0.5-0.5-0.7
							c-1.2-2.1,0.2-3.5,1.6-3.1c0.1,0,0.1,0,0.2,0.1C314.1,586.5,320.2,592.5,319.1,597.8z"/>
						<path class="st0" d="M310,588.6c-0.4,0-1-0.1-1.7-0.2c-1.3-0.4-2.5-1-3.5-1.6c-0.4-0.2-0.8-0.5-1.2-0.7
							c-1.2-0.7-2.4-1.5-3.9-1.8c-0.2-0.1-0.5-0.2-0.7-0.2c-2.3-0.9-2.2-3-0.7-3.4c0.2-0.1,0.7-0.2,1.2-0.2c1.2,0,3.1,0.2,5.1,0.7
							c0.5,0.1,0.9,0.2,1.4,0.4c2.7,0.8,5.1,2.2,5.7,4.1c0,0.1,0,0.1,0.1,0.2C312,586.6,312.1,588.5,310,588.6z"/>
						<path class="st0" d="M299.2,584c-0.3,0.2-0.8,0.2-1.4,0.3c-1.2,0.2-2.4,0.2-3.4,0.1c-0.5,0-1-0.1-1.4-0.2
							c-1.3-0.2-2.6-0.3-3.8-0.2c-0.2,0-0.6,0.1-0.8,0.2c-3.1,0.7-4-1.6-2.9-2.7c0.7-0.7,2.7-1.5,5-2c0.5-0.1,0.9-0.2,1.4-0.2
							c1-0.2,2-0.2,2.9-0.2c0.1,0,0.2,0,0.2,0s0.2,0,0.2,0c1.8,0,3.5,0.4,4.4,1.4c0.1,0.1,0.1,0.1,0.2,0.2
							C300.3,581.3,301.2,583.1,299.2,584z"/>
					</g>
					<g>
						<path class="st0" d="M322.5,587.6c-0.1,1.1-1-0.7-3.6-3.5c-2.6-2.8-3.6-1.8-5.8-4.1c-0.2-0.2-0.4-0.4-0.6-0.7
							c-1.4-1.9-0.2-3.5,1.2-3.2c0.1,0,0.1,0,0.2,0C316.3,577,323.1,582.2,322.5,587.6z"/>
						<path class="st0" d="M312.6,579.5c-0.4,0.1-1,0.1-1.7-0.1c-1.4-0.2-2.6-0.7-3.6-1.2c-0.4-0.2-0.9-0.4-1.3-0.6
							c-1.3-0.7-2.6-1.2-4.1-1.4c-0.2,0-0.5-0.1-0.7-0.2c-1.7-0.4-2.2-1.7-1.9-2.5c0.1-0.3,0.4-0.7,0.7-0.8c0.2-0.1,0.6-0.2,0.9-0.2
							c0.1,0,0.2,0,0.2-0.1c1.2-0.2,3.1-0.2,5.1,0.1c0.5,0.1,1,0.2,1.5,0.2c2.7,0.6,5.3,1.7,6.1,3.5c0,0.1,0.1,0.1,0.1,0.2
							C314.3,577.3,314.6,579.2,312.6,579.5z"/>
						<path class="st0" d="M301.2,576.1c-0.3,0.2-0.7,0.3-1.3,0.5c-1.2,0.3-2.3,0.4-3.4,0.5c-0.5,0-1,0-1.5,0c-0.9,0-1.7,0-2.7,0.1
							c-0.7,0.1-1.2,0.2-1.9,0.4c-3,1-4.1-1.1-3.1-2.3c0.4-0.5,1.5-1.2,2.9-1.8c0.6-0.2,1.2-0.5,1.7-0.7c0.3-0.1,0.7-0.2,1-0.3
							c0.7-0.2,1.5-0.4,2.2-0.6c0.4-0.1,0.8-0.2,1.2-0.2c0.1,0,0.2,0,0.2,0c1.7-0.2,3.4,0,4.5,0.8c0,0,0.1,0,0.1,0.1
							c0.1,0.1,0.1,0.1,0.2,0.2C302.1,573.3,303.1,575,301.2,576.1z"/>
					</g>
					<g>
						<path class="st0" d="M310.4,611.7c-0.5,0.9-0.7-1-2-4.6c-1.3-3.6-2.6-3.1-3.8-6c-0.2-0.2-0.2-0.6-0.2-0.8
							c-0.6-2.3,1.2-3.3,2.3-2.5c0,0,0.1,0.1,0.2,0.1C308.7,599.4,313,606.8,310.4,611.7z"/>
						<path class="st0" d="M306.7,597.8v0.2c0,0.9-0.5,2.7-2.5,2.2c-0.4-0.1-0.9-0.3-1.5-0.7c-2.3-1.4-3.6-3.3-5.1-4.7
							c-0.3-0.3-0.7-0.7-1.1-0.9c-0.3-0.2-0.7-0.5-1-0.7c-0.2-0.2-0.4-0.2-0.6-0.4c-2-1.5-1.2-3.4,0.2-3.5c0.3,0,0.7,0,1.2,0.2
							c0.3,0.1,0.7,0.2,1.1,0.3c0.4,0.2,0.8,0.3,1.2,0.5C302.2,591.8,306.6,594.9,306.7,597.8z"/>
						<path class="st0" d="M295,592.8c-0.4,0.1-0.8,0.1-1.4,0c-1.8-0.2-3.3-0.8-4.6-1.4c-1.3-0.6-2.5-1.1-3.9-1.3
							c-0.1,0-0.1,0-0.2,0c-0.2,0-0.2,0-0.4,0c-0.9-0.1-1.6-0.3-2-0.7c-1.1-0.7-1-2-0.2-2.6c0.1,0,0.1-0.1,0.2-0.1
							c0.7-0.4,2.7-0.7,4.7-0.6c0.3,0,0.6,0,0.9,0c1.2,0.1,2.5,0.2,3.6,0.6c2.1,0.5,3.9,1.4,4.6,2.8c0,0.1,0.1,0.2,0.1,0.2
							C296.9,590.5,297.3,592.5,295,592.8z"/>
					</g>
					<g>
						<path class="st0" d="M298.5,623.3c-0.7,0.7-0.3-1.2-0.5-5.1c-0.2-3.8-1.5-3.7-1.8-6.8c0-0.3,0-0.6,0-0.9
							c0.2-2.3,2.2-2.8,3-1.7c0,0,0.1,0.1,0.1,0.2C300.7,611.1,302.5,619.5,298.5,623.3z"/>
						<path class="st0" d="M299.3,609c0,0.1,0,0.1-0.1,0.2c-0.3,0.8-1.3,2.5-3.1,1.4c-0.3-0.2-0.7-0.6-1.2-1.1
							c-1.8-2.2-2.4-4.3-3.4-6.2c-0.2-0.4-0.5-0.9-0.8-1.3c-0.2-0.2-0.3-0.4-0.6-0.7c-0.2-0.2-0.3-0.4-0.5-0.6
							c-1.4-2-0.2-3.6,1.2-3.2c0.2,0,0.3,0.1,0.5,0.2s0.4,0.2,0.6,0.3c0.2,0.1,0.2,0.2,0.4,0.2C295.4,600.2,300.2,605.6,299.3,609z"
							/>
						<path class="st0" d="M290.9,600.6c-0.3,0.1-0.7,0.2-1.2,0.1c-0.4-0.1-0.8-0.2-1.3-0.4c-1.7-0.8-3-1.9-4.1-2.9
							c-0.7-0.7-1.4-1.2-2.2-1.7c-0.4-0.3-0.9-0.6-1.5-0.7c-2.9-1.2-2.5-3.5-0.9-3.8c0.5-0.1,1.2,0,2.2,0.2c1.7,0.3,3.9,1.1,5.9,2.2
							l0,0c1.7,0.9,3.2,2.1,4,3.4c0.2,0.4,0.4,0.8,0.5,1.2c0,0.1,0,0.2,0,0.2C292.1,598.8,292,600.2,290.9,600.6z"/>
					</g>
				</g>
			</g>
			<g>
				<g>
					<g>
						<path class="st0" d="M189.9,597.8c0.2,1.1,0.9-0.8,3.2-3.9c2.2-3.1,3.3-2.2,5.3-4.6c0.2-0.2,0.3-0.5,0.5-0.7
							c1.2-2.1-0.2-3.5-1.6-3.1c-0.1,0-0.1,0-0.2,0.1C194.9,586.5,188.8,592.5,189.9,597.8z"/>
						<path class="st0" d="M199,588.6c0.4,0,1-0.1,1.7-0.2c1.3-0.4,2.5-1,3.5-1.6c0.4-0.2,0.8-0.5,1.2-0.7c1.2-0.7,2.4-1.5,3.9-1.8
							c0.2-0.1,0.5-0.2,0.7-0.2c2.3-0.9,2.2-2.9,0.7-3.4c-0.2-0.1-0.7-0.2-1.2-0.2c-1.2,0-3.1,0.2-5.1,0.7c-0.5,0.1-0.9,0.2-1.4,0.4
							c-2.7,0.8-5.1,2.2-5.7,4.1c0,0.1,0,0.1-0.1,0.2C197,586.6,197,588.5,199,588.6z"/>
						<path class="st0" d="M209.9,583.9c0.3,0.2,0.8,0.2,1.4,0.3c1.2,0.2,2.4,0.2,3.4,0.1c2.2-0.2,4.1-0.7,6.1-0.2
							c3.1,0.7,4-1.6,2.9-2.7c-0.7-0.7-2.7-1.5-5-2c-1.5-0.3-3.1-0.6-4.6-0.6c-0.1,0-0.2,0-0.2,0c-1.8,0-3.5,0.4-4.4,1.4
							c-0.1,0.1-0.1,0.1-0.2,0.2C208.8,581.3,207.8,583.1,209.9,583.9z"/>
					</g>
					<g>
						<path class="st0" d="M186.5,587.6c0.1,1.1,1-0.7,3.6-3.5c2.6-2.8,3.6-1.8,5.8-4.1c0.2-0.2,0.4-0.4,0.6-0.7
							c1.4-1.9,0.2-3.5-1.2-3.2c-0.1,0-0.1,0-0.2,0C192.7,577,185.9,582.2,186.5,587.6z"/>
						<path class="st0" d="M196.4,579.5c0.4,0.1,1,0.1,1.7-0.1c1.4-0.2,2.6-0.7,3.6-1.2c0.4-0.2,0.9-0.4,1.3-0.6
							c1.3-0.7,2.6-1.2,4.1-1.4c0.2,0,0.5-0.1,0.7-0.2c2.4-0.6,2.5-2.7,1.2-3.3c-0.2-0.2-0.7-0.2-1.2-0.3c-1.2-0.2-3.1-0.2-5.1,0.1
							c-0.5,0.1-1,0.2-1.4,0.2c-2.7,0.6-5.3,1.7-6.1,3.5c0,0.1-0.1,0.1-0.1,0.2C194.8,577.3,194.4,579.2,196.4,579.5z"/>
						<path class="st0" d="M207.8,576.1c0.3,0.2,0.7,0.3,1.3,0.5c1.2,0.3,2.3,0.4,3.4,0.5c2.2,0.1,4.1-0.2,6,0.5
							c3,1,4.1-1.1,3.1-2.3c-0.6-0.7-2.5-1.7-4.7-2.6c-1.4-0.5-3-0.9-4.5-1.1c-0.1,0-0.2,0-0.2,0c-1.8-0.2-3.5,0-4.6,0.9
							c-0.1,0.1-0.1,0.1-0.2,0.2C206.9,573.3,205.9,575,207.8,576.1z"/>
					</g>
					<g>
						<path class="st0" d="M198.7,611.7c0.5,0.9,0.7-1,2-4.6c1.3-3.6,2.6-3.1,3.8-6c0.2-0.3,0.2-0.6,0.2-0.8
							c0.6-2.3-1.2-3.3-2.3-2.5c0,0-0.1,0.1-0.2,0.1C200.3,599.4,196,606.8,198.7,611.7z"/>
						<path class="st0" d="M202.3,597.8v0.2c0,0.9,0.5,2.7,2.5,2.2c0.4-0.1,0.9-0.3,1.5-0.7c2.3-1.4,3.6-3.3,5.1-4.7
							c0.3-0.3,0.7-0.7,1.1-0.9c0.3-0.2,0.7-0.5,1-0.7c0.2-0.2,0.4-0.2,0.6-0.4c2-1.5,1.2-3.4-0.2-3.5c-0.3,0-0.7,0.1-1.2,0.2
							c-0.3,0.1-0.7,0.2-1.1,0.3c-0.4,0.2-0.8,0.3-1.2,0.5C206.9,591.8,202.4,594.9,202.3,597.8z"/>
						<path class="st0" d="M214,592.8c0.4,0.1,0.8,0.1,1.4,0c3.6-0.4,5.7-2.3,8.5-2.7c0.1,0,0.1,0,0.2,0c0.2,0,0.2,0,0.4,0
							c3-0.2,3.4-2.4,2.2-3.2c-0.1,0-0.1-0.1-0.2-0.1c-0.8-0.5-3.1-0.7-5.6-0.6c-3.4,0.2-7.2,1.2-8.3,3.3c0,0.1-0.1,0.2-0.1,0.2
							C212.2,590.5,211.7,592.5,214,592.8z"/>
					</g>
					<g>
						<path class="st0" d="M210.5,623.3c0.7,0.7,0.3-1.2,0.5-5s1.5-3.7,1.8-6.8c0-0.3,0-0.6,0-0.9c-0.2-2.3-2.2-2.8-3-1.7
							c0,0-0.1,0.1-0.1,0.2C208.3,611.1,206.5,619.5,210.5,623.3z"/>
						<path class="st0" d="M209.8,609c0,0.1,0,0.1,0.1,0.2c0.3,0.8,1.3,2.5,3.1,1.4c0.4-0.2,0.7-0.6,1.2-1.1
							c1.8-2.2,2.4-4.3,3.4-6.2c0.2-0.4,0.5-0.9,0.8-1.3c0.2-0.2,0.3-0.4,0.6-0.7c0.2-0.2,0.3-0.4,0.5-0.6c1.4-2,0.2-3.6-1.2-3.2
							c-0.2,0-0.3,0.1-0.5,0.2c-0.2,0.1-0.4,0.2-0.6,0.3c-0.2,0.1-0.2,0.2-0.4,0.2C213.6,600.2,208.8,605.6,209.8,609z"/>
						<path class="st0" d="M218.1,600.6c0.3,0.1,0.7,0.2,1.2,0.1c0.4-0.1,0.8-0.2,1.3-0.5c2.8-1.3,4.3-3.3,6.4-4.6
							c0.4-0.3,0.9-0.6,1.5-0.7c2.9-1.2,2.5-3.5,0.9-3.8c-0.5-0.1-1.2,0-2.2,0.2c-3.1,0.7-8.3,2.8-9.9,5.6c-0.2,0.4-0.4,0.8-0.5,1.2
							c0,0.1,0,0.2,0,0.2C216.9,598.8,217,600.2,218.1,600.6z"/>
					</g>
				</g>
			</g>
		</g>
		<path class="st0" d="M295.3,573.6c0,0.7,0,1.2-0.1,1.9l0,0c0,0.1,0,0.2,0,0.2c0,0.1,0,0.1,0,0.2c-0.1,0.4-0.1,0.9-0.2,1.3
			c-0.1,0.6-0.2,1.2-0.3,1.8c-0.4,1.7-1,3.6-1.7,5.3c-0.3,0.8-0.7,1.7-1.2,2.4c-0.8,1.6-1.7,3.1-2.8,4.7c-0.4,0.7-0.9,1.3-1.4,1.9
			l0,0c-1.1,1.4-2.2,2.7-3.4,4l0,0c-2.7,2.8-5.6,5.3-8.8,7.5c-0.5,0.3-1,0.7-1.5,1c-6,3.7-12.7,6-19.3,6h-0.2c-0.2,0-0.4,0-0.6,0
			c-7.1-0.2-14.2-2.9-20.4-7c-3.1-2.2-6-4.6-8.5-7.3c-0.1-0.1-0.2-0.2-0.2-0.2c-1.1-1.2-2.2-2.5-3.1-3.7c-0.5-0.7-0.9-1.3-1.4-2
			c-1.1-1.6-2-3.1-2.7-4.7c-0.4-0.8-0.7-1.7-1.2-2.4c-0.7-1.7-1.3-3.6-1.7-5.3c-0.2-0.6-0.2-1.2-0.3-1.8c-0.1-0.5-0.2-1-0.2-1.5
			v-0.1c0-0.1,0-0.1,0-0.2c-0.1-0.7-0.1-1.2-0.1-1.9c0-0.6,0-1.2,0.1-1.7c0.2-2.2,0.7-4.4,1.5-6.5c0.1-0.2,0.2-0.5,0.2-0.7
			c0.3-0.7,0.7-1.4,1-2.1c0.5-0.9,1-1.7,1.6-2.6c1.2-1.7,2.5-3.3,4.1-4.8c0.1-0.1,0.2-0.2,0.2-0.2c4.4-4.3,10.2-7.7,16.5-9.9
			c2.9-1,6-1.7,9.1-2.2c1.8-0.2,3.7-0.4,5.6-0.4c0.2,0,0.4,0,0.6,0h0.2c2.2,0,4.3,0.2,6.5,0.5c2.7,0.4,5.6,1.1,8.2,1.9
			c0.2,0.1,0.6,0.2,0.8,0.2c6.3,2.2,12.1,5.6,16.5,9.9c0.1,0.1,0.2,0.2,0.2,0.2c1.6,1.5,3,3.1,4.1,4.9c0.6,0.8,1.1,1.7,1.6,2.6
			c0.4,0.7,0.7,1.4,1,2.2c0.1,0.2,0.2,0.4,0.2,0.7c0.8,2.1,1.3,4.2,1.5,6.5C295.3,572.4,295.3,573,295.3,573.6z"/>
		<g>
			<g>
				<g>
					<path class="st0" d="M309.2,560.4c-0.1,2.7-1.4,5.4-3.2,7.6c-0.4,0.6-0.9,1.1-1.4,1.6c-1.1,1.1-2.2,2.1-3.4,2.9
						c-0.1,0-0.1,0.1-0.2,0.1c-0.6,0.4-1.2,0.7-1.7,1.1c-1,0.6-2,1.1-2.9,1.4c-0.1,0-0.1,0.1-0.2,0.1c-0.3,0.2-0.7,0.2-1,0.3l0,0
						c-0.3,0.1-0.7,0.2-0.9,0.2c-0.5,0.1-1.1,0-1.6-0.2l0,0c-1-0.3-1.9-1-2.6-1.9c-1-1.6-1.2-3.7,1-5.9c0.4-0.4,0.8-0.9,1.2-1.3
						c0.1-0.1,0.1-0.1,0.1-0.2c0.3-0.5,0.7-0.9,1-1.4c1.8-2.9,2.5-5.7,5.6-9.6c0.2-0.2,0.4-0.5,0.6-0.7c0.2-0.3,0.5-0.6,0.7-0.8
						c1.2-1.1,2.2-1.6,3.1-1.6c0.7,0,1.2,0.2,1.7,0.4c0.8,0.4,1.5,1.2,2.1,1.9c0.6,0.8,1.1,1.7,1.3,2.3
						C309,557.9,309.3,559.1,309.2,560.4z"/>
					<path class="st0" d="M310.2,545.4c0,0.6-0.1,1.2-0.2,1.7c-0.5,2.8-1.7,5.6-2.7,7.2l-0.1,0.1l-0.1,0.1c-0.3,0.5-0.7,0.9-1.1,1.2
						c-0.3,0.2-0.7,0.5-1.1,0.6c-1.8,0.6-4.3-0.2-4.6-2.7c-0.1-0.5-0.1-1.1,0-1.7c0.1-0.5,0.2-0.9,0.2-1.4c0.2-3-0.7-5-0.8-8.3
						c0-0.6,0-1.2,0-2c0-0.2,0-0.5,0.1-0.7c0.2-1.7,0.7-2.8,1.4-3.4c0.4-0.3,0.8-0.5,1.3-0.5c1.5-0.2,3.2,0.7,4.1,1.2
						c0.7,0.4,1.2,0.9,1.7,1.4c0.2,0.2,0.3,0.4,0.5,0.7C309.9,540.7,310.4,543.1,310.2,545.4z"/>
					<g>
						<path class="st0" d="M294.1,533c-1.9,0.9-4.3,1-6.5-0.4l0,0c-0.7-0.4-1.2-0.9-1.9-1.4c-0.2-0.2-0.4-0.3-0.7-0.5
							c-0.2-0.1-0.2-0.2-0.4-0.3c-0.7-0.6-1.4-1.2-2.1-1.8c-12-11.1-12.1-25.8-8.8-22.8c1.4,1.2,0,6,9.1,12.8
							c2.9,2.2,5.4,3.2,7.5,3.6c0,0,0.7-0.1,1.8-0.1c1,0,2.2,0.2,3.2,0.6c1.2,0.5,2.1,1.3,2.3,2.7
							C298.4,528.9,296.7,531.7,294.1,533z"/>
						<path class="st0" d="M311.7,532.8c-0.5,1.2-1.2,2.3-1.9,3.5c-0.3,0.5-0.7,1.1-1.2,1.6c-0.1,0.2-0.2,0.2-0.3,0.4
							c-0.1,0.1-0.2,0.2-0.2,0.2c-2.6,2.9-5.6,3.9-8.5,3.7l0,0c-4.9-0.3-9.7-3.8-12.9-7c-0.6-0.6-1.2-1.2-1.7-1.7
							c-0.1-0.1-0.2-0.2-0.2-0.2c-1.2-1.4-2-2.6-2.1-3.1c-0.2-0.7-0.2-1.2-0.2-1.6c0.1-0.7,0.6-0.9,1.2-1c1.1-0.2,1.8,2.9,6.9-2.8
							c0.5-0.5,1-1.3,1.4-2.4c0-0.1,0.1-0.2,0.1-0.2c1.2-3.2,1-8.5-6.1-14.8c-9.7-8.6-14.7-5.9-16.5-7.2c-4.5-3.3,15.1-6.9,31.2,7.5
							C309.8,515.7,315.2,524.2,311.7,532.8z"/>
					</g>
				</g>
			</g>
			<g>
				<g>
					<path class="st0" d="M199.8,560.4c0.1,2.7,1.4,5.4,3.2,7.6c0.4,0.6,0.9,1.1,1.4,1.6c2.6,2.6,5.8,4.6,8.2,5.5
						c0.1,0,0.1,0,0.2,0.1c0.7,0.2,1.4,0.4,1.9,0.5c0.5,0.1,1.1,0,1.6-0.2c2.7-0.8,5-4.4,1.6-7.9c-0.4-0.4-0.8-0.9-1.2-1.3
						c-2.7-3.5-3.1-6.6-6.6-11.2c-0.2-0.2-0.4-0.5-0.6-0.7c-1.4-1.7-2.7-2.4-3.9-2.4c-0.7,0-1.2,0.2-1.7,0.4c-1.7,0.9-2.9,3-3.4,4.2
						C200,557.9,199.7,559.1,199.8,560.4z"/>
					<path class="st0" d="M200.3,538.9c-1.2,1.8-1.6,4.1-1.4,6.5c0,0.6,0.1,1.2,0.2,1.7c0.5,2.9,1.7,5.6,2.8,7.4l0.1,0.1
						c0.3,0.5,0.7,0.9,1,1.2c0.3,0.2,0.7,0.5,1.1,0.6c2.2,0.7,5.2-0.6,4.6-4.4c-0.1-0.5-0.2-0.9-0.2-1.4c-0.2-3.6,1.1-5.7,0.8-10.4
						c0-0.2,0-0.5-0.1-0.7c-0.2-1.7-0.7-2.8-1.4-3.4c-0.4-0.3-0.8-0.5-1.3-0.5c-1.5-0.2-3.2,0.7-4.1,1.2
						C201.6,537.4,200.8,538.1,200.3,538.9z"/>
					<g>
						<path class="st0" d="M211.2,525.5c-0.7,3.4,1.1,6.3,3.6,7.5c1.9,0.9,4.3,1,6.5-0.4l0,0c0.7-0.4,1.3-0.9,1.9-1.4
							c0.2-0.2,0.4-0.3,0.7-0.5c0.2-0.1,0.2-0.2,0.4-0.3c14.1-11.3,14.4-27.7,10.9-24.5c-1.4,1.2,0,6-9.1,12.8
							c-2.9,2.2-5.4,3.2-7.5,3.6c0,0-2.9-0.4-5.1,0.5C212.5,523.3,211.6,524.1,211.2,525.5z"/>
						<path class="st0" d="M208.3,507.7c-9,8-14.5,16.6-10.9,25.1c0.5,1.2,1.1,2.3,1.9,3.5c0.3,0.5,0.7,1.1,1.2,1.6
							c0.2,0.2,0.3,0.4,0.6,0.7c2.6,2.9,5.6,3.9,8.5,3.7c4.9-0.3,9.7-3.8,12.9-7c0.6-0.6,1.2-1.2,1.7-1.7c0.1-0.1,0.2-0.2,0.2-0.2
							c1.2-1.4,2-2.6,2.1-3.1c0.5-1.9,0-2.4-1.2-2.5c-1.1-0.2-1.8,2.9-6.9-2.8c-0.5-0.5-1-1.3-1.4-2.4c-1.2-3.1-1.2-8.5,6-15
							c9.7-8.6,14.8-5.9,16.5-7.2C243.9,496.8,224.3,493.3,208.3,507.7z"/>
					</g>
				</g>
			</g>
		</g>
		<g>
			<g>
				<path class="st0" d="M270.7,542.3c0,1-0.2,1.9-0.8,2.7c-0.9,1.4-2.4,2.2-4.1,2.2c-0.3,0-0.7,0-0.9-0.1c-2.2-0.4-3.7-2.2-4-4.4
					c0-0.2,0-0.3,0-0.5c0-2.1,1.2-3.8,3-4.6c0.6-0.2,1.2-0.4,1.9-0.4C268.6,537.3,270.7,539.6,270.7,542.3z"/>
				<ellipse class="st0" cx="267.6" cy="541.1" rx="2.3" ry="2.3"/>
			</g>
			<g>
				<ellipse class="st0" cx="243.2" cy="542.3" rx="4.9" ry="5"/>
				<ellipse class="st0" cx="241.5" cy="541.1" rx="2.3" ry="2.3"/>
			</g>
		</g>
		<path class="st1" d="M295.3,573.6c0,0.7,0,1.2-0.1,1.9l0,0c0,0.1,0,0.2,0,0.2c0,0.1,0,0.1,0,0.2c-0.1,0.4-0.1,0.9-0.2,1.3
			c-0.1,0.6-0.2,1.2-0.3,1.8c-0.4,1.7-1,3.6-1.7,5.3c-0.3,0.8-0.7,1.7-1.2,2.4c-0.8,1.6-1.7,3.1-2.8,4.7c-0.4,0.7-0.9,1.3-1.4,1.9
			l0,0c-1.1,1.4-2.2,2.7-3.4,4l0,0c-2.7,2.8-5.6,5.3-8.8,7.5c-0.5,0.3-1,0.7-1.5,1c-6,3.7-12.7,6-19.3,6h-0.2c-0.2,0-0.4,0-0.6,0
			c-7.1-0.2-14.2-2.9-20.4-7c-3.1-2.2-6-4.6-8.5-7.3c-0.1-0.1-0.2-0.2-0.2-0.2c-1.1-1.2-2.2-2.5-3.1-3.7c-0.5-0.7-0.9-1.3-1.4-2
			c-1.1-1.6-2-3.1-2.7-4.7c-0.4-0.8-0.7-1.7-1.2-2.4c-0.7-1.7-1.3-3.6-1.7-5.3c-0.2-0.6-0.2-1.2-0.3-1.8c-0.1-0.5-0.2-1-0.2-1.5
			v-0.1c0-0.1,0-0.1,0-0.2c-0.1-0.7-0.1-1.2-0.1-1.9c0-0.6,0-1.2,0.1-1.7c0.2-2.2,0.7-4.4,1.5-6.5c0.1-0.2,0.2-0.5,0.2-0.7
			c0.3-0.7,0.7-1.4,1-2.1c0.5-0.9,1-1.7,1.6-2.6c-0.6,1.5-1.2,3.6-1.7,6c-0.3,2-0.6,4.1-0.5,6.4c0,1,0.2,2,0.2,3
			c0.1,0.6,0.2,1.2,0.4,1.8c0.2,0.7,0.4,1.3,0.7,2.1c0.7,1.7,1.5,3.3,2.7,4.8l0,0c0.6,0.7,1.2,1.4,1.9,2c1.3,1.2,2.9,2.2,4.6,3.1
			c9.4,5.1,23.3,6.3,26.9,6.5c0.6,0.1,0.9,0.1,0.9,0.1v0.2c2-0.1,17.6-1.1,27.8-6.6c1.7-1,3.4-2.1,4.7-3.3c0.7-0.6,1.2-1.2,1.7-1.8
			c0.1-0.1,0.1-0.2,0.2-0.2c1.2-1.5,2.1-3.1,2.7-4.8c0.2-0.7,0.4-1.3,0.6-2.1c0.2-0.6,0.2-1.2,0.3-1.8c0.2-1,0.2-2,0.2-3
			c0.1-2.2-0.2-4.4-0.5-6.3c-0.4-2.5-1.1-4.6-1.7-6c0.6,0.8,1.1,1.7,1.6,2.6c0.4,0.7,0.7,1.4,1,2.2c0.1,0.2,0.2,0.4,0.2,0.7
			c0.8,2.1,1.3,4.2,1.5,6.5C295.3,572.4,295.3,573,295.3,573.6z"/>
	</g>
</g>
<path class="st2" d="M1785.4,1491c0,0,25-47.2,0-107.9c0,0-4.2-22.3,21.9-9.9s91,63.5,104.3,117.8H1785.4L1785.4,1491z"/>
<g>
	<path class="st0" d="M1302,603.9c-14.5,0-22.6-6.1-28-10.1c-4.1-3.1-5.8-4.4-10.7-4.4c-4.9,0-6.6,1.3-10.7,4.4
		c-5.4,4-13.5,10.1-28,10.1s-22.6-6.1-28-10.1c-4.1-3.1-5.8-4.4-10.7-4.4c-4.9,0-6.6,1.3-10.7,4.4c-5.4,4-13.5,10.1-28,10.1
		s-22.6-6.1-28-10.1c-4.1-3.1-5.8-4.4-10.7-4.4c-4.9,0-6.6,1.3-10.7,4.4c-5.4,4-13.5,10.1-28,10.1s-22.6-6.1-28-10.1
		c-4.1-3.1-5.8-4.4-10.7-4.4c-4.9,0-6.6,1.3-10.7,4.4c-5.4,4-13.5,10.1-28,10.1s-22.6-6.1-28-10.1c-4.1-3.1-5.8-4.4-10.7-4.4
		s-6.6,1.3-10.7,4.4c-5.4,4-13.5,10.1-28,10.1s-22.6-6.1-28-10.1c-4.1-3.1-5.8-4.4-10.7-4.4s-6.6,1.3-10.7,4.4
		c-5.4,4-13.5,10.1-28,10.1s-22.6-6.1-28-10.1c-4.1-3.1-5.8-4.4-10.7-4.4s-6.6,1.3-10.7,4.4c-5.4,4-13.5,10.1-28,10.1
		s-22.6-6.1-28-10.1c-4.1-3.1-5.8-4.4-10.7-4.4s-6.6,1.3-10.7,4.4c-5.4,4-13.5,10.1-28,10.1s-22.6-6.1-28-10.1
		c-4.1-3.1-5.8-4.4-10.7-4.4s-6.6,1.3-10.7,4.4c-5.4,4-13.5,10.1-28,10.1s-22.6-6.1-28-10.1c-4.1-3.1-5.8-4.4-10.7-4.4
		s-6.6,1.3-10.7,4.4c-5.4,4-13.5,10.1-28,10.1s-22.6-6.1-28-10.1c-4.1-3.1-5.8-4.4-10.7-4.4s-6.6,1.3-10.7,4.4
		c-5.4,4-13.5,10.1-28,10.1s-22.6-6.1-28-10.1c-4.1-3.1-5.8-4.3-10.7-4.3s-6.6,1.3-10.7,4.4c-5.4,4-13.5,10.1-28,10.1
		s-22.6-6.1-28-10.1c-4.1-3.1-5.8-4.4-10.7-4.4s-6.6,1.3-10.7,4.3c-5.4,4-13.5,10.1-28,10.1s-22.6-6.1-28-10.1
		c-4.1-3.1-5.8-4.4-10.7-4.4c-4.9,0-6.6,1.3-10.7,4.3c-5.4,4-13.5,10.1-28,10.1s-22.6-6.1-28-10.1c-4.1-3.1-5.8-4.4-10.7-4.4
		c-8,0-14.5-6.5-14.5-14.5s6.5-14.5,14.5-14.5c14.5,0,22.6,6.1,28,10.1c4.1,3.1,5.8,4.4,10.7,4.4s6.6-1.3,10.7-4.3
		c5.4-4,13.5-10.1,28-10.1c14.5,0,22.6,6.1,28,10.1c4.1,3.1,5.8,4.4,10.7,4.4s6.6-1.3,10.7-4.3c5.4-4,13.5-10.1,28-10.1
		s22.6,6.1,28,10.1c4.1,3.1,5.8,4.4,10.7,4.4s6.6-1.3,10.7-4.4c5.4-4,13.5-10.1,28-10.1s22.6,6.1,28,10.1c4.1,3.1,5.8,4.4,10.7,4.4
		s6.6-1.3,10.7-4.4c5.4-4,13.5-10.1,28-10.1s22.6,6.1,28,10.1c4.1,3.1,5.8,4.4,10.7,4.4s6.6-1.3,10.7-4.4c5.4-4,13.5-10.1,28-10.1
		s22.6,6.1,28,10.1c4.1,3.1,5.8,4.4,10.7,4.4s6.6-1.3,10.7-4.4c5.4-4,13.5-10.1,28-10.1s22.6,6.1,28,10.1c4.1,3.1,5.8,4.4,10.7,4.4
		s6.6-1.3,10.7-4.4c5.4-4,13.5-10.1,28-10.1s22.6,6.1,28,10.1c4.1,3.1,5.8,4.4,10.7,4.4s6.6-1.3,10.7-4.4c5.4-4,13.5-10.1,28-10.1
		s22.6,6.1,28,10.1c4.1,3.1,5.8,4.4,10.7,4.4s6.6-1.3,10.7-4.4c5.4-4,13.5-10.1,28-10.1s22.6,6.1,28,10.1c4.1,3.1,5.8,4.4,10.7,4.4
		s6.6-1.3,10.7-4.4c5.4-4,13.5-10.1,28-10.1s22.6,6.1,28,10.1c4.1,3.1,5.8,4.4,10.7,4.4s6.6-1.3,10.7-4.4c5.4-4,13.5-10.1,28-10.1
		s22.6,6.1,28,10.1c4.1,3.1,5.8,4.4,10.7,4.4c4.9,0,6.6-1.3,10.7-4.4c5.4-4,13.5-10.1,28-10.1s22.6,6.1,28,10.1
		c4.1,3.1,5.8,4.4,10.7,4.4c4.9,0,6.6-1.3,10.7-4.4c5.4-4,13.5-10.1,28-10.1s22.6,6.1,28,10.1c4.1,3.1,5.8,4.4,10.7,4.4
		c4.9,0,6.6-1.3,10.7-4.4c5.4-4,13.5-10.1,28-10.1s22.6,6.1,28,10.1c4.1,3.1,5.8,4.4,10.7,4.4s6.6-1.3,10.7-4.4
		c5.4-4,13.5-10.1,28-10.1c8,0,14.5,6.5,14.5,14.5s-6.5,14.5-14.5,14.5c-4.9,0-6.6,1.3-10.7,4.4
		C1324.6,597.8,1316.5,603.9,1302,603.9z"/>
</g>
<g>
	<path class="st0" d="M1302,665.2c-14.5,0-22.6-6.1-28-10.1c-4.1-3.1-5.8-4.4-10.7-4.4c-4.9,0-6.6,1.3-10.7,4.4
		c-5.4,4-13.5,10.1-28,10.1s-22.6-6.1-28-10.1c-4.1-3.1-5.8-4.4-10.7-4.4c-4.9,0-6.6,1.3-10.7,4.4c-5.4,4-13.5,10.1-28,10.1
		s-22.6-6.1-28-10.1c-4.1-3.1-5.8-4.4-10.7-4.4c-4.9,0-6.6,1.3-10.7,4.4c-5.4,4-13.5,10.1-28,10.1s-22.6-6.1-28-10.1
		c-4.1-3.1-5.8-4.4-10.7-4.4c-4.9,0-6.6,1.3-10.7,4.4c-5.4,4-13.5,10.1-28,10.1s-22.6-6.1-28-10.1c-4.1-3.1-5.8-4.4-10.7-4.4
		s-6.6,1.3-10.7,4.4c-5.4,4-13.5,10.1-28,10.1s-22.6-6.1-28-10.1c-4.1-3.1-5.8-4.4-10.7-4.4s-6.6,1.3-10.7,4.4
		c-5.4,4-13.5,10.1-28,10.1s-22.6-6.1-28-10.1c-4.1-3.1-5.8-4.4-10.7-4.4s-6.6,1.3-10.7,4.4c-5.4,4-13.5,10.1-28,10.1
		s-22.6-6.1-28-10.1c-4.1-3.1-5.8-4.4-10.7-4.4s-6.6,1.3-10.7,4.4c-5.4,4-13.5,10.1-28,10.1s-22.6-6.1-28-10.1
		c-4.1-3.1-5.8-4.4-10.7-4.4s-6.6,1.3-10.7,4.4c-5.4,4-13.5,10.1-28,10.1s-22.6-6.1-28-10.1c-4.1-3.1-5.8-4.4-10.7-4.4
		s-6.6,1.3-10.7,4.4c-5.4,4-13.5,10.1-28,10.1s-22.6-6.1-28-10.1c-4.1-3.1-5.8-4.4-10.7-4.4s-6.6,1.3-10.7,4.4
		c-5.4,4-13.5,10.1-28,10.1s-22.6-6.1-28-10.1c-4.1-3.1-5.8-4.3-10.7-4.3s-6.6,1.3-10.7,4.4c-5.4,4-13.5,10.1-28,10.1
		s-22.6-6.1-28-10.1c-4.1-3.1-5.8-4.4-10.7-4.4s-6.6,1.3-10.7,4.3c-5.4,4-13.5,10.1-28,10.1s-22.6-6.1-28-10.1
		c-4.1-3.1-5.8-4.4-10.7-4.4c-4.9,0-6.6,1.3-10.7,4.3c-5.4,4-13.5,10.1-28,10.1s-22.6-6.1-28-10.1c-4.1-3.1-5.8-4.4-10.7-4.4
		c-8,0-14.5-6.5-14.5-14.5s6.5-14.5,14.5-14.5c14.5,0,22.6,6.1,28,10.1c4.1,3.1,5.8,4.4,10.7,4.4s6.6-1.3,10.7-4.3
		c5.4-4,13.5-10.1,28-10.1c14.5,0,22.6,6.1,28,10.1c4.1,3.1,5.8,4.4,10.7,4.4s6.6-1.3,10.7-4.3c5.4-4,13.5-10.1,28-10.1
		s22.6,6.1,28,10.1c4.1,3.1,5.8,4.4,10.7,4.4s6.6-1.3,10.7-4.4c5.4-4,13.5-10.1,28-10.1s22.6,6.1,28,10.1c4.1,3.1,5.8,4.4,10.7,4.4
		s6.6-1.3,10.7-4.4c5.4-4,13.5-10.1,28-10.1s22.6,6.1,28,10.1c4.1,3.1,5.8,4.4,10.7,4.4s6.6-1.3,10.7-4.4c5.4-4,13.5-10.1,28-10.1
		s22.6,6.1,28,10.1c4.1,3.1,5.8,4.4,10.7,4.4s6.6-1.3,10.7-4.4c5.4-4,13.5-10.1,28-10.1s22.6,6.1,28,10.1c4.1,3.1,5.8,4.4,10.7,4.4
		s6.6-1.3,10.7-4.4c5.4-4,13.5-10.1,28-10.1s22.6,6.1,28,10.1c4.1,3.1,5.8,4.4,10.7,4.4s6.6-1.3,10.7-4.4c5.4-4,13.5-10.1,28-10.1
		s22.6,6.1,28,10.1c4.1,3.1,5.8,4.4,10.7,4.4s6.6-1.3,10.7-4.4c5.4-4,13.5-10.1,28-10.1s22.6,6.1,28,10.1c4.1,3.1,5.8,4.4,10.7,4.4
		s6.6-1.3,10.7-4.4c5.4-4,13.5-10.1,28-10.1s22.6,6.1,28,10.1c4.1,3.1,5.8,4.4,10.7,4.4s6.6-1.3,10.7-4.4c5.4-4,13.5-10.1,28-10.1
		s22.6,6.1,28,10.1c4.1,3.1,5.8,4.4,10.7,4.4c4.9,0,6.6-1.3,10.7-4.4c5.4-4,13.5-10.1,28-10.1s22.6,6.1,28,10.1
		c4.1,3.1,5.8,4.4,10.7,4.4c4.9,0,6.6-1.3,10.7-4.4c5.4-4,13.5-10.1,28-10.1s22.6,6.1,28,10.1c4.1,3.1,5.8,4.4,10.7,4.4
		c4.9,0,6.6-1.3,10.7-4.4c5.4-4,13.5-10.1,28-10.1s22.6,6.1,28,10.1c4.1,3.1,5.8,4.4,10.7,4.4s6.6-1.3,10.7-4.4
		c5.4-4,13.5-10.1,28-10.1c8,0,14.5,6.5,14.5,14.5s-6.5,14.5-14.5,14.5c-4.9,0-6.6,1.3-10.7,4.4
		C1324.6,659.2,1316.5,665.2,1302,665.2z"/>
</g>
<g>
	<path class="st0" d="M1302,726.4c-14.5,0-22.6-6.1-28-10.1c-4.1-3.1-5.8-4.4-10.7-4.4c-4.9,0-6.6,1.3-10.7,4.4
		c-5.4,4-13.5,10.1-28,10.1s-22.6-6.1-28-10.1c-4.1-3.1-5.8-4.4-10.7-4.4c-4.9,0-6.6,1.3-10.7,4.4c-5.4,4-13.5,10.1-28,10.1
		s-22.6-6.1-28-10.1c-4.1-3.1-5.8-4.4-10.7-4.4c-4.9,0-6.6,1.3-10.7,4.4c-5.4,4-13.5,10.1-28,10.1s-22.6-6.1-28-10.1
		c-4.1-3.1-5.8-4.4-10.7-4.4c-4.9,0-6.6,1.3-10.7,4.4c-5.4,4-13.5,10.1-28,10.1s-22.6-6.1-28-10.1c-4.1-3.1-5.8-4.4-10.7-4.4
		s-6.6,1.3-10.7,4.4c-5.4,4-13.5,10.1-28,10.1s-22.6-6.1-28-10.1c-4.1-3.1-5.8-4.4-10.7-4.4s-6.6,1.3-10.7,4.4
		c-5.4,4-13.5,10.1-28,10.1s-22.6-6.1-28-10.1c-4.1-3.1-5.8-4.4-10.7-4.4s-6.6,1.3-10.7,4.4c-5.4,4-13.5,10.1-28,10.1
		s-22.6-6.1-28-10.1c-4.1-3.1-5.8-4.4-10.7-4.4s-6.6,1.3-10.7,4.4c-5.4,4-13.5,10.1-28,10.1s-22.6-6.1-28-10.1
		c-4.1-3.1-5.8-4.4-10.7-4.4s-6.6,1.3-10.7,4.4c-5.4,4-13.5,10.1-28,10.1s-22.6-6.1-28-10.1c-4.1-3.1-5.8-4.4-10.7-4.4
		s-6.6,1.3-10.7,4.4c-5.4,4-13.5,10.1-28,10.1s-22.6-6.1-28-10.1c-4.1-3.1-5.8-4.4-10.7-4.4s-6.6,1.3-10.7,4.4
		c-5.4,4-13.5,10.1-28,10.1s-22.6-6.1-28-10.1c-4.1-3.1-5.8-4.3-10.7-4.3s-6.6,1.3-10.7,4.4c-5.4,4-13.5,10.1-28,10.1
		s-22.6-6.1-28-10.1c-4.1-3.1-5.8-4.4-10.7-4.4s-6.6,1.3-10.7,4.3c-5.4,4-13.5,10.1-28,10.1s-22.6-6.1-28-10.1
		c-4.1-3.1-5.8-4.4-10.7-4.4c-4.9,0-6.6,1.3-10.7,4.3c-5.4,4-13.5,10.1-28,10.1s-22.6-6.1-28-10.1c-4.1-3.1-5.8-4.4-10.7-4.4
		c-8,0-14.5-6.5-14.5-14.5s6.5-14.5,14.5-14.5c14.5,0,22.6,6.1,28,10.1c4.1,3.1,5.8,4.4,10.7,4.4s6.6-1.3,10.7-4.3
		c5.4-4,13.5-10.1,28-10.1c14.5,0,22.6,6.1,28,10.1c4.1,3.1,5.8,4.4,10.7,4.4s6.6-1.3,10.7-4.3c5.4-4,13.5-10.1,28-10.1
		s22.6,6.1,28,10.1c4.1,3.1,5.8,4.4,10.7,4.4s6.6-1.3,10.7-4.4c5.4-4,13.5-10.1,28-10.1s22.6,6.1,28,10.1c4.1,3.1,5.8,4.4,10.7,4.4
		s6.6-1.3,10.7-4.4c5.4-4,13.5-10.1,28-10.1s22.6,6.1,28,10.1c4.1,3.1,5.8,4.4,10.7,4.4s6.6-1.3,10.7-4.4c5.4-4,13.5-10.1,28-10.1
		s22.6,6.1,28,10.1c4.1,3.1,5.8,4.4,10.7,4.4s6.6-1.3,10.7-4.4c5.4-4,13.5-10.1,28-10.1s22.6,6.1,28,10.1c4.1,3.1,5.8,4.4,10.7,4.4
		s6.6-1.3,10.7-4.4c5.4-4,13.5-10.1,28-10.1s22.6,6.1,28,10.1c4.1,3.1,5.8,4.4,10.7,4.4s6.6-1.3,10.7-4.4c5.4-4,13.5-10.1,28-10.1
		s22.6,6.1,28,10.1c4.1,3.1,5.8,4.4,10.7,4.4s6.6-1.3,10.7-4.4c5.4-4,13.5-10.1,28-10.1s22.6,6.1,28,10.1c4.1,3.1,5.8,4.4,10.7,4.4
		s6.6-1.3,10.7-4.4c5.4-4,13.5-10.1,28-10.1s22.6,6.1,28,10.1c4.1,3.1,5.8,4.4,10.7,4.4s6.6-1.3,10.7-4.4c5.4-4,13.5-10.1,28-10.1
		s22.6,6.1,28,10.1c4.1,3.1,5.8,4.4,10.7,4.4c4.9,0,6.6-1.3,10.7-4.4c5.4-4,13.5-10.1,28-10.1s22.6,6.1,28,10.1
		c4.1,3.1,5.8,4.4,10.7,4.4c4.9,0,6.6-1.3,10.7-4.4c5.4-4,13.5-10.1,28-10.1s22.6,6.1,28,10.1c4.1,3.1,5.8,4.4,10.7,4.4
		c4.9,0,6.6-1.3,10.7-4.4c5.4-4,13.5-10.1,28-10.1s22.6,6.1,28,10.1c4.1,3.1,5.8,4.4,10.7,4.4s6.6-1.3,10.7-4.4
		c5.4-4,13.5-10.1,28-10.1c8,0,14.5,6.5,14.5,14.5s-6.5,14.5-14.5,14.5c-4.9,0-6.6,1.3-10.7,4.4
		C1324.6,720.4,1316.5,726.4,1302,726.4z"/>
</g>
<ellipse class="st3" cx="1460.4" cy="1293" rx="26.8" ry="6"/>
<rect x="1353.9" y="1174.7" class="st4" width="10.4" height="217.1"/>
<polygon class="st2" points="1582,1379.5 1450.5,1379.5 1433.6,1363.9 1450.5,1350.2 1582,1350.2 "/>
<g>
	<path class="st4" d="M2602.4,1888.2c-0.4,0.9-0.8,1.6-1.2,2.2s-0.8,1.1-1.3,1.4c-0.2,0.2-0.5,0.3-0.8,0.4s-0.6,0.1-0.8,0.1l0,0
		c-0.4,0-0.8-0.1-1-0.4c-0.3-0.3-0.4-0.7-0.4-1.2l0,0l0,0c0-0.3,0.1-0.7,0.2-1.2s0.3-1,0.5-1.6c0.1-0.2,0.2-0.6,0.4-1.2
		s0.5-1.3,0.7-2c0-0.1,0.1-0.4,0.3-0.9h-1.3c-0.2,0-0.4-0.2-0.4-0.4c0-0.2,0.2-0.4,0.4-0.4h1.5c0.1-0.1,0.1-0.3,0.2-0.4
		c0.4-1.1,0.8-2.3,0.9-2.5c0.1-0.2,0.3-0.3,0.5-0.3s0.3,0.3,0.3,0.5c-0.1,0.2-0.5,1.4-0.9,2.5c0,0.1,0,0.1-0.1,0.2h1.3
		c0.2,0,0.4,0.2,0.4,0.4c0,0.2-0.2,0.4-0.4,0.4h-1.6c-0.2,0.6-0.3,1-0.4,1.2c-0.3,0.8-0.5,1.5-0.7,2s-0.3,0.9-0.4,1.2
		c-0.2,0.6-0.4,1.1-0.5,1.5s-0.2,0.8-0.2,1.1l0,0c0,0.3,0.1,0.5,0.2,0.7c0.1,0.1,0.3,0.2,0.4,0.2l0,0c0.2,0,0.4,0,0.6-0.1
		c0.2-0.1,0.4-0.1,0.5-0.3c0.4-0.3,0.7-0.7,1.1-1.2c0.4-0.6,0.7-1.3,1.1-2.1c0.1-0.2,0.4-0.3,0.6-0.2
		C2602.4,1887.7,2602.5,1887.9,2602.4,1888.2z"/>
	<path class="st4" d="M2610.3,1888.2L2610.3,1888.2c-0.8,1.7-1.8,4.2-3.6,4.2l0,0c-0.6,0-0.9-0.2-1.1-0.6c-0.2-0.3-0.3-0.7-0.3-1.1
		v-0.1c0-0.4,0.1-0.9,0.2-1.4s0.3-1,0.5-1.4c0.1-0.1,0.1-0.2,0.1-0.4c0.3-0.7,0.7-1.8,0.7-2.7c0-0.6-0.3-1-1-1
		c-0.5,0-1.1,0.5-1.6,1.1c-0.7,0.9-1.4,2.2-1.8,3.3l0,0c-0.6,1.5-1.2,3.2-1.4,3.9c-0.1,0.2-0.3,0.3-0.5,0.3
		c-0.2-0.1-0.3-0.3-0.3-0.5c0.2-0.6,0.8-2.3,1.4-3.9l0,0l0,0l0,0c0.6-1.7,1.2-3.3,1.4-3.9l0,0c0.2-0.6,0.3-0.8,0.4-1.1
		c0.2-0.5,0.3-0.9,0.4-1.2l0.1-0.3c0.1-0.3,0.3-0.8,0.5-1.4c0.1-0.2,0.3-0.3,0.5-0.2s0.3,0.3,0.3,0.5c-0.2,0.5-0.4,1-0.5,1.4
		c0,0.1-0.1,0.2-0.1,0.3c-0.2,0.5-0.3,0.9-0.4,1.2l-0.3,0.7c0.6-0.6,1.2-0.9,1.8-0.9c1.4,0,1.9,0.8,1.9,1.9c0,1-0.5,2.2-0.8,3
		c-0.1,0.1-0.1,0.3-0.1,0.4c-0.2,0.5-0.3,0.9-0.5,1.4c-0.1,0.4-0.2,0.8-0.2,1.2l0,0c0,0.2,0,0.5,0.1,0.6s0.2,0.2,0.4,0.2l0,0
		c1.2,0,2.2-2.1,2.8-3.6v-0.1c0.1-0.2,0.3-0.3,0.6-0.2C2610.3,1887.7,2610.4,1887.9,2610.3,1888.2z"/>
	<path class="st4" d="M2617.5,1888.2c-0.8,1.7-1.7,2.7-2.7,3.4c-1,0.6-2.1,0.8-3.1,0.8l0,0l0,0c-0.7,0-1.4-0.3-1.8-0.7
		c-0.5-0.5-0.8-1.1-0.7-2l0,0l0,0c0-0.5,0.1-1.1,0.3-1.7l0,0c0.1-0.4,0.3-0.9,0.5-1.3c0.5-1,1.1-2,1.7-2.7c0.3-0.3,0.6-0.5,1-0.7
		c0.3-0.2,0.7-0.3,1.1-0.3c0.5,0,0.8,0.1,1.1,0.3c0.3,0.2,0.5,0.5,0.6,0.8s0,0.7-0.1,1c-0.2,0.5-0.5,1-1,1.4s-1.2,0.8-1.8,1.1
		c-0.9,0.4-1.8,0.7-2.3,0.8c-0.1,0.5-0.2,0.9-0.2,1.3l0,0c0,0.6,0.2,1.1,0.5,1.4s0.8,0.5,1.3,0.5l0,0c0.8,0,1.7-0.1,2.6-0.7
		c0.9-0.5,1.7-1.5,2.3-3c0.1-0.2,0.3-0.3,0.6-0.2C2617.5,1887.7,2617.6,1888,2617.5,1888.2z M2610.6,1887.4c0.5-0.1,1-0.3,1.6-0.6
		s1.2-0.6,1.6-1c0.3-0.3,0.6-0.6,0.7-1c0.1-0.2,0.1-0.4,0-0.6c0-0.1-0.1-0.2-0.2-0.3c-0.1-0.1-0.3-0.2-0.6-0.2
		c-0.2,0-0.5,0.1-0.7,0.2s-0.5,0.3-0.7,0.6c-0.6,0.6-1.2,1.5-1.6,2.4C2610.7,1887.1,2610.6,1887.2,2610.6,1887.4z"/>
	<path class="st4" d="M2621.2,1888.2c-0.4,0.8-0.8,1.8-1.4,2.6c-0.6,0.9-1.4,1.6-2.3,1.6l0,0c-0.5,0-0.9-0.2-1.1-0.6
		c-0.2-0.3-0.3-0.7-0.3-1.1v-0.1c0-0.3,0.1-0.7,0.2-1.2s0.3-1,0.5-1.6c0.1-0.2,0.2-0.6,0.4-1.2s0.5-1.3,0.7-2c0-0.1,0.1-0.3,0.2-0.5
		l0.3-0.9c0.1-0.2,0.3-0.3,0.5-0.3c0.2,0.1,0.3,0.3,0.3,0.5l-0.3,0.9l-0.2,0.5c-0.3,0.8-0.5,1.5-0.7,2s-0.3,0.9-0.4,1.2
		c-0.2,0.6-0.4,1.1-0.5,1.5s-0.2,0.8-0.2,1.1l0,0c0,0.2,0,0.5,0.1,0.6s0.2,0.2,0.4,0.2l0,0c0.6,0,1.1-0.5,1.6-1.2
		c0.5-0.8,0.9-1.7,1.3-2.5c0.1-0.2,0.4-0.3,0.6-0.2C2621.2,1887.7,2621.3,1887.9,2621.2,1888.2z M2619,1881.3c0-0.4,0.3-0.7,0.7-0.7
		s0.7,0.3,0.7,0.7c0,0.4-0.3,0.7-0.7,0.7C2619.3,1881.9,2619,1881.6,2619,1881.3z"/>
	<path class="st4" d="M2628.5,1888.2L2628.5,1888.2c-0.8,1.7-1.8,4.2-3.6,4.2l0,0c-0.5,0-0.9-0.2-1.1-0.6c-0.2-0.3-0.3-0.7-0.3-1.1
		v-0.1c0-0.3,0.1-0.7,0.2-1.2s0.3-1,0.5-1.6c0.2-0.5,0.3-0.9,0.4-1.1c0.1-0.4,0.2-0.6,0.4-1l-0.3-0.1c-0.6-0.2-1.2-0.4-1.8-0.7
		c-0.1,0.2-0.1,0.4-0.2,0.5l0,0l-1.6,3.5c-0.1,0.2-0.3,0.3-0.6,0.2c-0.2-0.1-0.3-0.3-0.2-0.6l1.6-3.5c0.1-0.2,0.2-0.4,0.2-0.6
		c-0.7-0.5-1.1-1-1-1.9c0-0.3,0.2-0.6,0.4-0.8l0,0c0.2-0.2,0.5-0.3,0.8-0.3c0.1,0,0.2,0,0.3,0l0,0c0.3,0.1,0.5,0.3,0.6,0.5
		s0.2,0.5,0.2,0.7s0,0.4-0.1,0.6s-0.1,0.4-0.2,0.7c0.6,0.3,1.2,0.5,1.8,0.7c0.3,0.1,0.5,0.2,0.8,0.2c0.2,0.1,0.3,0.3,0.2,0.6l0,0
		c-0.2,0.6-0.3,0.9-0.5,1.4c-0.1,0.3-0.2,0.6-0.4,1.1c-0.2,0.6-0.4,1.1-0.5,1.5s-0.2,0.8-0.2,1.1l0,0c0,0.2,0,0.5,0.2,0.6
		c0.1,0.1,0.2,0.2,0.4,0.2c1.3,0,2.2-2.1,2.8-3.6v-0.1c0.1-0.2,0.3-0.3,0.6-0.2C2628.5,1887.7,2628.6,1887.9,2628.5,1888.2z
		 M2622.5,1882.8c0-0.1,0-0.2-0.1-0.3c0-0.1-0.1-0.1-0.1-0.1l0,0h-0.1c-0.1,0-0.2,0-0.2,0.1l0,0c-0.1,0.1-0.1,0.2-0.1,0.3
		c0,0.4,0.2,0.7,0.5,0.9c0.1-0.2,0.1-0.3,0.2-0.5C2622.5,1883,2622.5,1882.9,2622.5,1882.8z"/>
	<path class="st4" d="M2639,1888.2L2639,1888.2c-0.8,1.7-1.8,4.2-3.6,4.2l0,0l0,0c-0.5,0-0.9-0.2-1.1-0.6c-0.2-0.2-0.2-0.5-0.3-0.8
		c-0.6,0.8-1.3,1.4-2.2,1.4l0,0c-0.5,0-0.9-0.2-1.1-0.6c-0.2-0.3-0.3-0.7-0.3-1.1v-0.1c0-0.3,0.1-0.7,0.2-1.2c0.1-0.5,0.3-1,0.5-1.6
		c0.1-0.3,0.3-0.9,0.6-1.6c0.3-0.9,0.7-2,1.1-3c0.1-0.2,0.3-0.3,0.5-0.2c0.2,0.1,0.3,0.3,0.2,0.5c-0.4,1.2-0.8,2.2-1.1,3
		c-0.3,0.7-0.5,1.3-0.6,1.6c-0.2,0.6-0.4,1.1-0.5,1.5s-0.2,0.8-0.2,1.1l0,0c0,0.2,0,0.5,0.1,0.6s0.2,0.2,0.5,0.2
		c1.2,0,2.2-2.1,2.8-3.6l0,0c0,0,0,0,0-0.1c0.1-0.3,0.3-0.9,0.6-1.6c0.4-0.9,0.7-2,1.1-3c0.1-0.2,0.3-0.3,0.5-0.2
		c0.2,0.1,0.3,0.3,0.3,0.5c-0.4,1.2-0.8,2.2-1.1,3c-0.3,0.7-0.5,1.3-0.6,1.6l0,0v0.1c-0.2,0.5-0.3,1-0.4,1.4
		c-0.1,0.4-0.2,0.8-0.2,1.1l0,0c0,0.2,0,0.5,0.1,0.6s0.2,0.2,0.4,0.2l0,0c1.2,0,2.2-2.1,2.8-3.6v-0.1c0.1-0.2,0.3-0.3,0.6-0.2
		C2639,1887.7,2639.1,1887.9,2639,1888.2z"/>
	<path class="st4" d="M2644.5,1888.8L2644.5,1888.8L2644.5,1888.8c0,1.2-0.5,2.1-1.2,2.7s-1.6,0.9-2.4,0.9l0,0c-0.1,0-0.1,0-0.2,0
		c-0.8,0-1.5-0.4-2-0.9s-0.8-1.2-0.8-1.9c0-0.1,0-0.1,0-0.2c0.1-0.7,0.3-1.4,0.8-2c0.5-0.5,1.1-0.8,1.9-0.8c0.5,0,1,0.2,1.4,0.6
		c0.3,0.3,0.5,0.8,0.6,1.4c0,0.2-0.2,0.4-0.4,0.4s-0.4-0.2-0.4-0.4c0-0.3-0.1-0.6-0.3-0.8c-0.2-0.2-0.5-0.3-0.7-0.3
		c-0.5,0-1,0.2-1.3,0.6c-0.4,0.4-0.6,0.9-0.6,1.4v0.1c0,0.5,0.2,1,0.5,1.4s0.9,0.6,1.4,0.7c0.1,0,0.1,0,0.2,0l0,0
		c0.7,0,1.4-0.2,1.9-0.7c0.5-0.4,0.9-1.1,0.9-2l0,0c0-1-0.5-1.8-1-2.7c-0.1-0.2-0.2-0.4-0.3-0.6c-0.1,0.1-0.3,0.3-0.4,0.5
		c-0.2,0.2-0.4,0.2-0.6,0c-0.2-0.1-0.2-0.4-0.1-0.6c0.2-0.3,0.4-0.5,0.7-0.7l0,0c-0.2-0.6-0.4-1.1-0.3-1.7c0-0.2,0.1-0.4,0.2-0.6
		l0,0c0.1-0.2,0.2-0.3,0.3-0.5c0.1-0.1,0.3-0.2,0.4-0.3c0.2-0.1,0.3-0.1,0.5-0.1c0.3,0,0.5,0.1,0.7,0.3c0.2,0.2,0.2,0.4,0.3,0.7
		c0,0.2,0,0.4-0.1,0.6c0,0.2-0.1,0.4-0.2,0.6c-0.2,0.5-0.5,0.9-0.8,1.2c0.1,0.3,0.3,0.5,0.4,0.8
		C2643.9,1886.6,2644.5,1887.6,2644.5,1888.8z M2643,1883.3c0.1-0.1,0.1-0.3,0.1-0.4s0.1-0.2,0-0.4c0-0.1,0-0.1,0-0.2c0,0,0,0-0.1,0
		h-0.1c-0.1,0-0.1,0.1-0.2,0.1c-0.1,0.1-0.1,0.1-0.2,0.2l0,0c0,0.1-0.1,0.2-0.1,0.3c0,0.3,0,0.6,0.1,0.9
		C2642.7,1883.8,2642.8,1883.5,2643,1883.3z"/>
	<path class="st4" d="M2653.9,1888.2L2653.9,1888.2c-0.8,1.7-1.8,4.2-3.6,4.2l0,0l0,0c-0.5,0-0.9-0.2-1.1-0.6
		c-0.2-0.2-0.2-0.5-0.3-0.8c-0.6,0.8-1.3,1.4-2.2,1.4l0,0c-0.5,0-0.9-0.2-1.1-0.6c-0.2-0.3-0.3-0.7-0.3-1.1v-0.1
		c0-0.3,0.1-0.7,0.2-1.2s0.3-1,0.5-1.6c0.1-0.3,0.3-0.9,0.6-1.6c0.3-0.9,0.7-2,1.1-3c0.1-0.2,0.3-0.3,0.5-0.2
		c0.2,0.1,0.3,0.3,0.2,0.5c-0.4,1.2-0.8,2.2-1.1,3c-0.3,0.7-0.5,1.3-0.6,1.6c-0.2,0.6-0.4,1.1-0.5,1.5s-0.2,0.8-0.2,1.1l0,0
		c0,0.2,0,0.5,0.1,0.6s0.2,0.2,0.5,0.2c1.2,0,2.2-2.1,2.8-3.6l0,0c0,0,0,0,0-0.1c0.1-0.3,0.3-0.9,0.6-1.6c0.4-0.9,0.7-2,1.1-3
		c0.1-0.2,0.3-0.3,0.5-0.2c0.2,0.1,0.3,0.3,0.3,0.5c-0.4,1.2-0.8,2.2-1.1,3c-0.3,0.7-0.5,1.3-0.6,1.6l0,0v0.1
		c-0.2,0.5-0.3,1-0.4,1.4c-0.1,0.4-0.2,0.8-0.2,1.1l0,0c0,0.2,0,0.5,0.1,0.6s0.2,0.2,0.4,0.2l0,0c1.2,0,2.2-2.1,2.8-3.6v-0.1
		c0.1-0.2,0.3-0.3,0.6-0.2C2653.9,1887.7,2654,1887.9,2653.9,1888.2z"/>
	<path class="st4" d="M2661.9,1888.2L2661.9,1888.2c-0.8,1.7-1.8,4.2-3.6,4.2l0,0c-0.5,0-0.9-0.2-1.1-0.6c-0.2-0.3-0.3-0.7-0.3-1.1
		l0,0c-0.7,1-1.5,1.7-2.5,1.6c-0.6,0-1-0.3-1.2-0.7c-0.3-0.4-0.4-1-0.4-1.6c0-1.1,0.6-3.3,1.6-5c0.7-1.2,1.7-2.1,2.8-2.2
		c0.1,0,0.1,0,0.2,0c0.5,0,1,0.3,1.4,0.7c0.1,0.1,0.2,0.2,0.3,0.4c0.1-0.3,0.2-0.6,0.3-0.9c0.1-0.2,0.3-0.3,0.5-0.2s0.3,0.3,0.2,0.5
		c-0.2,0.6-0.6,1.6-1,2.7c-0.3,0.7-0.5,1.4-0.7,2s-0.4,1.1-0.5,1.5s-0.2,0.8-0.2,1.1l0,0c0,0.2,0,0.5,0.1,0.6s0.2,0.2,0.5,0.2
		c1.2,0,2.2-2.1,2.8-3.6v-0.1c0.1-0.2,0.3-0.3,0.6-0.2C2661.9,1887.7,2662,1887.9,2661.9,1888.2z M2657.9,1886.5
		c0.2-0.4,0.3-0.8,0.5-1.1c0-0.1,0-0.1,0-0.1c0-0.5-0.1-0.8-0.4-1.1c-0.2-0.2-0.5-0.4-0.8-0.4h-0.1c-0.8,0-1.5,0.8-2.1,1.8
		c-0.9,1.5-1.4,3.5-1.5,4.5c0,0.5,0.1,0.9,0.2,1.1c0.1,0.2,0.3,0.3,0.6,0.3C2656,1891.5,2657.1,1888.5,2657.9,1886.5z"/>
	<path class="st4" d="M2666.1,1888.2c-0.4,0.9-0.8,1.6-1.2,2.2s-0.8,1.1-1.3,1.4c-0.2,0.2-0.5,0.3-0.8,0.4s-0.6,0.1-0.8,0.1l0,0
		c-0.4,0-0.8-0.1-1-0.4c-0.3-0.3-0.4-0.7-0.4-1.2l0,0l0,0c0-0.3,0.1-0.8,0.2-1.2c0.1-0.5,0.3-1,0.5-1.6c0.5-1.6,1.1-3.2,1.7-4.9
		l0.4-1.3l0.1-0.3c0.1-0.3,0.3-0.8,0.5-1.4c0.1-0.2,0.3-0.3,0.5-0.3c0.2,0.1,0.3,0.3,0.3,0.5c-0.2,0.5-0.4,1.1-0.5,1.4
		c0,0.1-0.1,0.2-0.1,0.4l-0.4,1.3c-0.6,1.6-1.1,3.2-1.7,4.9c-0.2,0.6-0.3,1.1-0.5,1.5c-0.1,0.4-0.2,0.8-0.2,1l0,0
		c0,0.3,0.1,0.5,0.2,0.7c0.1,0.1,0.3,0.2,0.4,0.2l0,0c0.2,0,0.4,0,0.6-0.1s0.4-0.1,0.5-0.3c0.4-0.3,0.7-0.7,1.1-1.2
		c0.4-0.6,0.7-1.3,1.1-2.1c0.1-0.2,0.4-0.3,0.6-0.2C2666.1,1887.7,2666.2,1887.9,2666.1,1888.2z"/>
	<path class="st4" d="M2674.8,1888.8L2674.8,1888.8L2674.8,1888.8c0,1.2-0.5,2.1-1.2,2.7s-1.6,0.9-2.4,0.9l0,0c-0.1,0-0.1,0-0.2,0
		c-0.8,0-1.5-0.4-2-0.9s-0.8-1.2-0.8-1.9c0-0.1,0-0.1,0-0.2c0.1-0.7,0.3-1.4,0.8-2c0.5-0.5,1.1-0.8,1.9-0.8c0.5,0,1,0.2,1.4,0.6
		c0.3,0.3,0.5,0.8,0.6,1.4c0,0.2-0.2,0.4-0.4,0.4s-0.4-0.2-0.4-0.4c0-0.3-0.1-0.6-0.3-0.8c-0.2-0.2-0.5-0.3-0.7-0.3
		c-0.5,0-1,0.2-1.3,0.6c-0.4,0.4-0.6,0.9-0.6,1.4v0.1c0,0.5,0.2,1,0.5,1.4s0.9,0.6,1.4,0.7c0.1,0,0.1,0,0.2,0l0,0
		c0.7,0,1.4-0.2,1.9-0.7c0.5-0.4,0.9-1.1,0.9-2l0,0c0-1-0.5-1.8-1-2.7c-0.1-0.2-0.2-0.4-0.3-0.6c-0.1,0.1-0.3,0.3-0.4,0.5
		c-0.2,0.2-0.4,0.2-0.6,0c-0.2-0.1-0.2-0.4-0.1-0.6c0.2-0.3,0.4-0.5,0.7-0.7l0,0c-0.2-0.6-0.4-1.1-0.3-1.7c0-0.2,0.1-0.4,0.2-0.6
		l0,0c0.1-0.2,0.2-0.3,0.3-0.5c0.1-0.1,0.3-0.2,0.4-0.3c0.2-0.1,0.3-0.1,0.5-0.1c0.3,0,0.5,0.1,0.7,0.3c0.2,0.2,0.2,0.4,0.3,0.7
		c0,0.2,0,0.4-0.1,0.6c0,0.2-0.1,0.4-0.2,0.6c-0.2,0.5-0.5,0.9-0.8,1.2c0.1,0.3,0.3,0.5,0.4,0.8
		C2674.2,1886.6,2674.8,1887.6,2674.8,1888.8z M2673.3,1883.3c0.1-0.1,0.1-0.3,0.1-0.4s0.1-0.2,0-0.4c0-0.1,0-0.1,0-0.2
		c0,0,0,0-0.1,0h-0.1c-0.1,0-0.1,0.1-0.2,0.1c-0.1,0.1-0.1,0.1-0.2,0.2l0,0c0,0.1-0.1,0.2-0.1,0.3c0,0.3,0,0.6,0.1,0.9
		C2673,1883.8,2673.2,1883.5,2673.3,1883.3z"/>
	<path class="st4" d="M2684.6,1888.1c0,0.1-0.1,0.3-0.2,0.4c-0.1,0.1-0.1,0.2-0.2,0.3c-0.3,0.5-0.6,1-1,1.4s-1,0.7-1.7,0.7
		c-0.2,0-0.4,0-0.6-0.1c-0.3-0.1-0.6-0.2-0.8-0.5c-0.8,1.1-1.8,1.9-3,1.8l0,0l0,0l0,0c-0.7,0-1.2-0.4-1.4-0.8
		c-0.9,2.5-1.7,4.7-1.9,5.3c-0.1,0.2-0.3,0.3-0.5,0.3c-0.2-0.1-0.3-0.3-0.3-0.5c0.2-0.6,1.2-3.4,2.2-6.2c1.1-3.1,2.3-6.3,2.5-6.9
		c0-0.1,0.1-0.2,0.1-0.3c0.1-0.2,0.3-0.3,0.5-0.3c0.2,0.1,0.3,0.3,0.3,0.5l-0.2,0.4c0.6-0.6,1.2-1,2-1c0.6,0,1,0.3,1.3,0.7
		s0.4,1,0.4,1.6v0.1l0,0c-0.1,1.1-0.6,2.9-1.4,4.4c0,0.1-0.1,0.1-0.1,0.2c0.2,0.2,0.4,0.3,0.6,0.4c0.1,0,0.2,0,0.4,0
		c0.5,0,0.8-0.2,1.2-0.5c0.3-0.3,0.6-0.8,0.8-1.2c0-0.1,0.1-0.2,0.2-0.3c0-0.1,0.1-0.2,0.1-0.4c0.1-0.2,0.3-0.3,0.6-0.2
		C2684.6,1887.7,2684.7,1887.9,2684.6,1888.1z M2680.4,1888.1c-0.1,0.2-0.1,0.4-0.1,0.5c0.6-1.2,0.9-2.5,1-3.4l0,0v-0.1l0,0
		c0-0.5,0-0.9-0.2-1.1c-0.1-0.2-0.3-0.3-0.6-0.3c-1.6,0-2.8,3-3.6,5l-0.1,0.3c-0.1,0.5-0.3,1-0.3,1.4c0,0.6,0.1,1,0.7,1l0,0l0,0
		c0.9,0,1.8-0.7,2.4-1.7c-0.1-0.3-0.2-0.6-0.2-1c0-0.3,0-0.6,0.1-1c0.1-0.2,0.3-0.4,0.5-0.3
		C2680.3,1887.6,2680.4,1887.9,2680.4,1888.1z"/>
	<path class="st4" d="M2692.3,1888.1c-0.1,0.1-0.1,0.3-0.2,0.4s-0.1,0.2-0.2,0.3c-0.3,0.5-0.6,1-1,1.4c-0.5,0.4-1,0.7-1.7,0.7
		c-0.2,0-0.4,0-0.6-0.1c-0.3-0.1-0.6-0.3-0.9-0.5c-0.7,1-1.7,1.8-2.7,1.8c-3.3,0-1.1-5.5,0-7.3c0.7-1.2,1.7-2.1,2.8-2.1l0,0
		c0.6,0,1.1,0.2,1.5,0.7c0.3,0.4,0.5,0.9,0.5,1.6c0,1.3-0.7,3.1-1.5,4.6c0.1,0.2,0.4,0.3,0.6,0.4c0.1,0,0.2,0,0.3,0
		c0.5,0,0.9-0.2,1.2-0.5s0.6-0.8,0.8-1.2c0.1-0.1,0.1-0.2,0.2-0.3c0.1-0.1,0.1-0.2,0.2-0.4c0.1-0.2,0.3-0.3,0.6-0.2
		C2692.3,1887.7,2692.4,1887.9,2692.3,1888.1z M2688.1,1888.1c-0.1,0.2-0.1,0.3-0.1,0.5c0.6-1.2,1-2.5,1-3.4c0-0.5-0.1-0.8-0.3-1
		s-0.5-0.4-0.9-0.4c-0.8,0-1.5,0.7-2,1.7c-0.8,1.3-2.7,6-0.7,6c0.7,0,1.6-0.8,2.2-1.7c-0.1-0.3-0.2-0.6-0.2-0.9s0-0.6,0.1-1
		c0.1-0.2,0.3-0.4,0.5-0.3C2688,1887.6,2688.2,1887.9,2688.1,1888.1z"/>
	<path class="st4" d="M2696.4,1888.2c-0.4,0.9-0.8,1.6-1.2,2.2s-0.8,1.1-1.3,1.4c-0.2,0.2-0.5,0.3-0.8,0.4s-0.6,0.1-0.8,0.1l0,0
		c-0.4,0-0.8-0.1-1-0.4c-0.3-0.3-0.4-0.7-0.4-1.2l0,0l0,0c0-0.3,0.1-0.7,0.2-1.2s0.3-1,0.5-1.6c0.1-0.2,0.2-0.6,0.4-1.2
		s0.5-1.3,0.7-2c0-0.1,0.1-0.4,0.3-0.9h-1.3c-0.2,0-0.4-0.2-0.4-0.4c0-0.2,0.2-0.4,0.4-0.4h1.5c0.1-0.1,0.1-0.3,0.2-0.4
		c0.4-1.1,0.8-2.3,0.9-2.5c0.1-0.2,0.3-0.3,0.5-0.3c0.2,0.1,0.3,0.3,0.3,0.5c-0.1,0.2-0.5,1.4-0.9,2.5c0,0.1,0,0.1-0.1,0.2h1.3
		c0.2,0,0.4,0.2,0.4,0.4c0,0.2-0.2,0.4-0.4,0.4h-1.6c-0.2,0.6-0.3,1-0.4,1.2c-0.3,0.8-0.5,1.5-0.7,2s-0.3,0.9-0.4,1.2
		c-0.2,0.6-0.4,1.1-0.5,1.5s-0.2,0.8-0.2,1.1l0,0c0,0.3,0.1,0.5,0.2,0.7c0.1,0.1,0.3,0.2,0.4,0.2l0,0c0.2,0,0.4,0,0.6-0.1
		c0.2-0.1,0.4-0.1,0.5-0.3c0.4-0.3,0.7-0.7,1.1-1.2c0.4-0.6,0.7-1.3,1.1-2.1c0.1-0.2,0.4-0.3,0.6-0.2
		C2696.4,1887.7,2696.5,1887.9,2696.4,1888.2z"/>
</g>
<g>
	<path class="st4" d="M2579.4,1885.2l-6.7,2.5l5,2.3c0.3,0.1,0.4,0.4,0.3,0.7c-0.1,0.2-0.4,0.4-0.7,0.2l-6.2-2.7
		c-0.1,0-0.2-0.1-0.3-0.3c-0.1-0.3,0-0.6,0.3-0.7l7.9-3c0.3-0.1,0.6,0,0.7,0.3C2579.8,1884.8,2579.7,1885.1,2579.4,1885.2z"/>
	<path class="st4" d="M2591.3,1885.2l-6.7,2.5l5,2.3c0.3,0.1,0.4,0.4,0.3,0.7c-0.1,0.2-0.4,0.4-0.7,0.2l-6.2-2.7
		c-0.1,0-0.2-0.1-0.3-0.3c-0.1-0.3,0-0.6,0.3-0.7l7.9-3c0.3-0.1,0.6,0,0.7,0.3C2591.6,1884.8,2591.5,1885.1,2591.3,1885.2z"/>
</g>
<g>
	<path class="st5" d="M1269,1367c0,0.6-0.2,1.1-0.5,1.5s-0.8,0.8-1.3,1c0.6,0.2,1.2,0.6,1.5,1.1c0.4,0.5,0.6,1,0.6,1.7
		c0,1-0.3,1.8-1,2.4s-1.5,0.8-2.6,0.8s-2-0.3-2.6-0.8s-1-1.3-1-2.4c0-0.6,0.2-1.2,0.6-1.7s0.9-0.8,1.5-1.1c-0.6-0.2-1-0.5-1.3-1
		c-0.3-0.4-0.5-0.9-0.5-1.5c0-1,0.3-1.7,0.9-2.3c0.6-0.5,1.4-0.8,2.4-0.8s1.8,0.3,2.4,0.8C1268.8,1365.2,1269,1366,1269,1367z
		 M1267.8,1372.2c0-0.6-0.2-1.1-0.6-1.5s-0.9-0.6-1.5-0.6s-1.1,0.2-1.5,0.6s-0.6,0.9-0.6,1.5s0.2,1.1,0.6,1.5s0.9,0.5,1.5,0.5
		s1.1-0.2,1.5-0.5C1267.7,1373.4,1267.8,1372.8,1267.8,1372.2z M1267.5,1367c0-0.6-0.2-1-0.5-1.4s-0.8-0.5-1.3-0.5s-1,0.2-1.3,0.5
		c-0.3,0.4-0.5,0.8-0.5,1.4s0.2,1,0.5,1.4s0.8,0.5,1.3,0.5s1-0.2,1.3-0.5S1267.5,1367.6,1267.5,1367z"/>
	<path class="st5" d="M1277,1371.5h1.5v1.2h-1.5v1.4l1.3,0.2v1h-4v-1l1.3-0.2v-1.4h-5v-0.9l4.9-7.8h1.6v7.5L1277,1371.5L1277,1371.5
		z M1272.2,1371.5h3.4v-5.3l0,0l-0.2,0.4L1272.2,1371.5z"/>
	<path class="st5" d="M1282.4,1364.9v2h1.6v1.1h-1.6v5.1c0,0.4,0.1,0.7,0.2,0.8c0.2,0.2,0.4,0.2,0.6,0.2c0.1,0,0.3,0,0.5,0
		s0.3,0,0.4-0.1l0.2,1c-0.1,0.1-0.4,0.2-0.6,0.2c-0.3,0.1-0.6,0.1-0.8,0.1c-0.6,0-1.1-0.2-1.5-0.6s-0.5-1-0.5-1.7v-5.1h-1.3v-1.1
		h1.3v-2L1282.4,1364.9L1282.4,1364.9L1282.4,1364.9z"/>
	<path class="st5" d="M1285.3,1374.3l1.3-0.2v-9.6l-1.3-0.2v-1h2.8v4.8c0.3-0.4,0.6-0.7,1.1-0.9c0.4-0.2,0.9-0.3,1.4-0.3
		c0.9,0,1.6,0.3,2.1,0.8s0.7,1.4,0.7,2.5v4l1.3,0.2v1h-4v-1l1.3-0.2v-4c0-0.7-0.1-1.2-0.4-1.5s-0.7-0.5-1.3-0.5
		c-0.4,0-0.8,0.1-1.1,0.3c-0.3,0.2-0.6,0.5-0.8,0.8v5l1.3,0.2v1h-4v-1.2L1285.3,1374.3L1285.3,1374.3z"/>
	<path class="st5" d="M1299.5,1372.2c0-0.6,0.2-1.2,0.5-1.6s0.9-0.9,1.6-1.4c-0.4-0.5-0.7-1-0.9-1.4c-0.2-0.4-0.3-0.8-0.3-1.2
		c0-0.9,0.2-1.5,0.8-2c0.5-0.5,1.2-0.7,2.1-0.7c0.8,0,1.5,0.2,2,0.7s0.8,1,0.8,1.7c0,0.5-0.1,0.9-0.4,1.3s-0.7,0.7-1.2,1.1l-0.8,0.6
		l2.6,3.1c0.2-0.3,0.4-0.7,0.5-1.1s0.2-0.8,0.2-1.3h1.4c0,0.7-0.1,1.3-0.3,1.9c-0.2,0.6-0.5,1.1-0.9,1.5l1.4,1.7l0,0h-1.8l-0.7-0.8
		c-0.4,0.3-0.9,0.5-1.4,0.7s-1,0.2-1.5,0.2c-1.1,0-2-0.3-2.7-0.9C1299.8,1373.9,1299.5,1373.2,1299.5,1372.2z M1303.2,1374.2
		c0.4,0,0.7-0.1,1.1-0.2s0.7-0.3,1-0.5l-2.8-3.3l-0.3,0.2c-0.5,0.3-0.8,0.7-0.9,1s-0.2,0.6-0.2,0.9c0,0.6,0.2,1.1,0.5,1.4
		C1301.9,1374,1302.5,1374.2,1303.2,1374.2z M1302,1366.6c0,0.3,0.1,0.6,0.2,0.8c0.1,0.3,0.3,0.6,0.6,1l1.1-0.7
		c0.3-0.2,0.5-0.4,0.6-0.6s0.2-0.5,0.2-0.8s-0.1-0.6-0.4-0.8c-0.2-0.2-0.6-0.4-1-0.4s-0.7,0.1-1,0.4
		C1302.2,1365.8,1302,1366.2,1302,1366.6z"/>
	<path class="st5" d="M1322,1367.5h-1.1l-0.3-1.6c-0.2-0.2-0.5-0.4-0.9-0.6s-0.8-0.2-1.3-0.2c-1.2,0-2.1,0.4-2.7,1.3
		c-0.6,0.8-0.9,1.9-0.9,3.2v0.2c0,1.3,0.3,2.4,0.9,3.2c0.6,0.8,1.5,1.3,2.5,1.3c0.5,0,1-0.1,1.4-0.2c0.4-0.2,0.7-0.4,1-0.6l0.3-1.6
		h1.1v2c-0.3,0.4-0.8,0.8-1.5,1.1c-0.6,0.3-1.4,0.5-2.2,0.5c-1.5,0-2.6-0.5-3.6-1.6s-1.4-2.4-1.4-4.1v-0.2c0-1.6,0.5-3,1.4-4.1
		s2.1-1.6,3.6-1.6c0.9,0,1.6,0.2,2.2,0.5s1.1,0.7,1.5,1.1V1367.5z"/>
	<path class="st5" d="M1327.4,1375.4c-1.2,0-2.1-0.4-2.8-1.2c-0.7-0.8-1-1.8-1-3v-0.3c0-1.2,0.4-2.2,1.1-3s1.5-1.2,2.5-1.2
		c1.1,0,2,0.3,2.5,1c0.6,0.7,0.9,1.6,0.9,2.7v0.9h-5.4l0,0c0,0.8,0.2,1.5,0.6,2s0.9,0.8,1.6,0.8c0.5,0,1-0.1,1.3-0.2s0.7-0.3,1-0.6
		l0.6,1c-0.3,0.3-0.7,0.5-1.2,0.7C1328.8,1375.3,1328.2,1375.4,1327.4,1375.4z M1327.2,1368c-0.5,0-0.9,0.2-1.3,0.6s-0.6,1-0.7,1.6
		l0,0h3.8v-0.2c0-0.6-0.2-1.1-0.5-1.5C1328.3,1368.2,1327.8,1368,1327.2,1368z"/>
	<path class="st5" d="M1331.8,1374.3l1.3-0.2v-5.9l-1.3-0.2v-1h2.6l0.1,1.2c0.3-0.4,0.6-0.8,1-1s0.9-0.4,1.4-0.4
		c0.9,0,1.6,0.3,2.1,0.8s0.7,1.3,0.7,2.4v4.1l1.3,0.2v1h-4v-1l1.3-0.2v-4c0-0.7-0.1-1.3-0.4-1.6c-0.3-0.3-0.7-0.5-1.3-0.5
		c-0.4,0-0.8,0.1-1.2,0.3c-0.3,0.2-0.6,0.5-0.8,0.9v4.9l1.3,0.2v1h-4L1331.8,1374.3L1331.8,1374.3z"/>
	<path class="st5" d="M1344.8,1364.9v2h1.6v1.1h-1.6v5.1c0,0.4,0.1,0.7,0.2,0.8c0.2,0.2,0.4,0.2,0.6,0.2c0.1,0,0.3,0,0.5,0
		s0.3,0,0.4-0.1l0.2,1c-0.1,0.1-0.4,0.2-0.6,0.2c-0.3,0.1-0.6,0.1-0.8,0.1c-0.6,0-1.1-0.2-1.5-0.6s-0.5-1-0.5-1.7v-5.1h-1.3v-1.1
		h1.3v-2L1344.8,1364.9L1344.8,1364.9L1344.8,1364.9z"/>
	<path class="st5" d="M1351.8,1375.4c-1.2,0-2.1-0.4-2.8-1.2c-0.7-0.8-1-1.8-1-3v-0.3c0-1.2,0.4-2.2,1.1-3s1.5-1.2,2.5-1.2
		c1.1,0,2,0.3,2.5,1c0.6,0.7,0.9,1.6,0.9,2.7v0.9h-5.4l0,0c0,0.8,0.2,1.5,0.6,2s0.9,0.8,1.6,0.8c0.5,0,1-0.1,1.3-0.2s0.7-0.3,1-0.6
		l0.6,1c-0.3,0.3-0.7,0.5-1.2,0.7C1353,1375.3,1352.4,1375.4,1351.8,1375.4z M1351.5,1368c-0.5,0-0.9,0.2-1.3,0.6s-0.6,1-0.7,1.6
		l0,0h3.8v-0.2c0-0.6-0.2-1.1-0.5-1.5C1352.7,1368.2,1352.2,1368,1351.5,1368z"/>
	<path class="st5" d="M1356.4,1367.9v-1h2.6l0.1,1.2c0.2-0.4,0.5-0.8,0.9-1c0.3-0.2,0.7-0.4,1.2-0.4c0.1,0,0.2,0,0.4,0
		c0.1,0,0.2,0,0.3,0.1l-0.2,1.4h-0.9c-0.4,0-0.7,0.1-1,0.3c-0.3,0.2-0.5,0.4-0.6,0.8v4.8l1.3,0.2v1h-4v-1l1.3-0.2v-5.9
		L1356.4,1367.9z"/>
</g>
<circle class="st6" cx="921" cy="363.7" r="91"/>
</svg>
