<?xml version="1.0" encoding="utf-8"?>
<!-- Generator: Adobe Illustrator 19.1.0, SVG Export Plug-In . SVG Version: 6.00 Build 0)  -->
<svg version="1.1" id="Layer_1" xmlns="http://www.w3.org/2000/svg" xmlns:xlink="http://www.w3.org/1999/xlink" x="0px" y="0px"
	 viewBox="0 0 360 313.1" style="enable-background:new 0 0 360 313.1;" xml:space="preserve">
<style type="text/css">
	.st0{fill:#00A8A0;}
</style>
<g>
	<path class="st0" d="M-73.8,82.5c-1.6,0.7-3.4,1.2-5.3,1.4c1.9-1.1,3.3-2.9,4-5.1c-1.8,1-3.7,1.8-5.8,2.2c-1.7-1.8-4.1-2.9-6.7-2.9
		c-5.1,0-9.2,4.1-9.2,9.2c0,0.7,0.1,1.4,0.2,2.1c-7.6-0.4-14.4-4-18.9-9.6c-0.8,1.4-1.2,2.9-1.2,4.6c0,3.2,1.6,6,4.1,7.6
		c-1.5,0-2.9-0.5-4.1-1.1c0,0,0,0.1,0,0.1c0,4.4,3.2,8.1,7.3,9c-0.8,0.2-1.6,0.3-2.4,0.3c-0.6,0-1.2-0.1-1.7-0.2
		c1.2,3.6,4.5,6.3,8.6,6.4c-3.1,2.5-7.1,3.9-11.4,3.9c-0.7,0-1.5,0-2.2-0.1c4.1,2.6,8.9,4.1,14,4.1c16.8,0,26.1-14,26.1-26.1
		c0-0.4,0-0.8,0-1.2C-76.6,86-75,84.3-73.8,82.5z"/>
</g>
<g>
	<path class="st0" d="M180,4.2C96,4.2,27.6,72.6,27.6,156.5c0,84,68.4,152.4,152.3,152.4c84,0,152.4-68.4,152.4-152.4
		C332.4,72.6,264,4.2,180,4.2L180,4.2z M217.9,161.9h-24.8v88.4h-36.7v-88.4h-17.5v-31.2h17.5v-20.2c0-14.4,6.9-37.1,37.1-37.1
		l27.2,0.1v30.3h-19.7c-3.2,0-7.8,1.6-7.8,8.5v18.4h28L217.9,161.9z M217.9,161.9"/>
</g>
</svg>
