<?xml version="1.0" encoding="utf-8"?>
<!-- Generator: Adobe Illustrator 19.1.0, SVG Export Plug-In . SVG Version: 6.00 Build 0)  -->
<svg version="1.1" id="Layer_1" xmlns="http://www.w3.org/2000/svg" xmlns:xlink="http://www.w3.org/1999/xlink" x="0px" y="0px"
	 viewBox="0 22 360 317" style="enable-background:new 0 22 360 317;" xml:space="preserve">
<style type="text/css">
	.st0{fill:#02B9B2;}
	.st1{fill:none;stroke:#595A74;stroke-width:7;stroke-miterlimit:10;}
	.st2{fill:#595A74;stroke:#595A74;stroke-width:7;stroke-miterlimit:10;}
</style>
<path class="st0" d="M199,161.9c2.6,0,4.7-2.1,4.7-4.6c0-2.6-2.1-4.6-4.7-4.6c-2.6,0-4.7,2.1-4.7,4.6S196.4,161.9,199,161.9z"/>
<path class="st0" d="M176.9,166.4c-2.4,0-4.3,1.9-4.3,4.3c0,2.4,1.9,4.3,4.3,4.3c2.4,0,4.3-1.9,4.3-4.3S179.2,166.4,176.9,166.4z"/>
<path class="st0" d="M194,176.4c-2.4,0-4.4,2-4.4,4.4s2,4.4,4.4,4.4s4.4-2,4.4-4.4C198.4,178.3,196.4,176.4,194,176.4z"/>
<path class="st0" d="M179.7,147.6c-2.5,0-4.6,2-4.6,4.5s2,4.5,4.6,4.5c2.5,0,4.6-2,4.6-4.5C184.2,149.6,182.2,147.6,179.7,147.6z"/>
<line class="st1" x1="48.7" y1="199" x2="330.6" y2="199"/>
<path class="st0" d="M175.7,114.1c4.1,3.7,5,10.5,1.9,15.1l-12.1,18.2c-3.1,4.6-9.7,6.5-14.8,4.2l-81.1-37.4
	c-5.1-2.3-6.7-8-3.6-12.6l30.2-45.4c3.1-4.6,9-5.4,13.1-1.7L175.7,114.1z"/>
<path class="st2" d="M306.7,202c0,65.4-53.1,118.5-118.5,118.5S69.7,267.4,69.7,202"/>
</svg>
