<?xml version="1.0" encoding="utf-8"?>
<!-- Generator: Adobe Illustrator 19.1.0, SVG Export Plug-In . SVG Version: 6.00 Build 0)  -->
<svg version="1.1" id="Layer_1" xmlns="http://www.w3.org/2000/svg" xmlns:xlink="http://www.w3.org/1999/xlink" x="0px" y="0px"
	 viewBox="0 2 360 317" style="enable-background:new 0 2 360 317;" xml:space="preserve">
<style type="text/css">
	.st0{fill:none;stroke:#4F5069;stroke-width:3;stroke-miterlimit:10;}
</style>
<g>
	<path class="st0" d="M203.1,166.6c2.6,0,4.7-2.1,4.7-4.6c0-2.6-2.1-4.6-4.7-4.6c-2.6,0-4.7,2.1-4.7,4.6S200.5,166.6,203.1,166.6z"
		/>
	<path class="st0" d="M181,171.1c-2.4,0-4.3,1.9-4.3,4.3c0,2.4,1.9,4.3,4.3,4.3c2.4,0,4.3-1.9,4.3-4.3
		C185.3,173,183.3,171.1,181,171.1z"/>
	<path class="st0" d="M198.1,176.7c-2.4,0-4.4,2-4.4,4.4s2,4.4,4.4,4.4s4.4-2,4.4-4.4C202.5,178.6,200.5,176.7,198.1,176.7z"/>
	<path class="st0" d="M183.8,152.3c-2.5,0-4.6,2-4.6,4.5s2,4.5,4.6,4.5c2.5,0,4.6-2,4.6-4.5C188.3,154.3,186.3,152.3,183.8,152.3z"
		/>
	<path class="st0" d="M177.4,287.3c56.1,0,101.7-40.5,101.7-90.5H75.7C75.7,246.8,121.2,287.3,177.4,287.3z"/>
	<line class="st0" x1="52.1" y1="196.8" x2="302.7" y2="196.8"/>
	<g>
		<polyline class="st0" points="126.1,304.1 139.5,290.8 177.4,290.8 		"/>
		<polyline class="st0" points="228.7,304.1 215.3,290.8 177.4,290.8 		"/>
	</g>
	<path class="st0" d="M177.4,115.4c4.1,3.7,5,10.5,1.9,15.1l-12.1,18.2c-3.1,4.6-9.7,6.5-14.8,4.2l-81.1-37.4
		c-5.1-2.3-6.7-8-3.6-12.6l30.2-45.4c3.1-4.6,9-5.4,13.1-1.7L177.4,115.4z"/>
</g>
</svg>
