<?xml version="1.0" encoding="utf-8"?>
<!-- Generator: Adobe Illustrator 19.1.0, SVG Export Plug-In . SVG Version: 6.00 Build 0)  -->
<svg version="1.1" id="Layer_1" xmlns="http://www.w3.org/2000/svg" xmlns:xlink="http://www.w3.org/1999/xlink" x="0px" y="0px"
	 viewBox="0 24.9 360 313.1" style="enable-background:new 0 24.9 360 313.1;" xml:space="preserve">
<style type="text/css">
	.st0{fill:#00A8A0;}
	.st1{fill:#FFFFFF;}
</style>
<path class="st0" d="M275.9,301H84.1c-13,0-23.6-10.6-23.6-23.6V85.5c0-13,10.6-23.6,23.6-23.6h191.9c13,0,23.6,10.6,23.6,23.6
	v191.9C299.5,290.4,288.9,301,275.9,301z"/>
<circle class="st1" cx="180" cy="181.4" r="45.5"/>
<path class="st1" d="M268.1,125.9h-31.3c-6.3,0-11.4-5.1-11.4-11.4V84.3c0-6.3,5.1-11.4,11.4-11.4h31.3c6.3,0,11.4,5.1,11.4,11.4
	v30.2C279.5,120.8,274.4,125.9,268.1,125.9z"/>
</svg>
