<?xml version="1.0" encoding="utf-8"?>
<!-- Generator: Adobe Illustrator 19.1.0, SVG Export Plug-In . SVG Version: 6.00 Build 0)  -->
<svg version="1.1" id="Layer_1" xmlns="http://www.w3.org/2000/svg" xmlns:xlink="http://www.w3.org/1999/xlink" x="0px" y="0px"
	 viewBox="-215 270 360 382.3" style="enable-background:new -215 270 360 382.3;" xml:space="preserve">
<style type="text/css">
	.st0{fill:none;stroke:#02B9B2;stroke-width:4;stroke-miterlimit:10;}
	.st1{fill:#7A7B7C;}
	.st2{fill:#02B9B2;}
</style>
<line class="st0" x1="-101" y1="384.2" x2="-101" y2="525.8"/>
<path class="st1" d="M-123,384.2v141.7h102.5v21.5h12v-21.5v-0.1V384.2H-123z M-35,417c-6.1,0-11-4.9-11-11s4.9-11,11-11
	s11,4.9,11,11S-28.9,417-35,417z"/>
<path class="st2" d="M0.7,644.9c0,4-3.6,7.4-7.9,7.4h-26.6c-4.4,0-7.9-3.3-7.9-7.4l4-96.1c0-4,3.6-7.4,7.9-7.4h18.7
	c4.4,0,7.9,3.3,7.9,7.4L0.7,644.9z"/>
</svg>
