<?xml version="1.0" encoding="utf-8"?>
<!-- Generator: Adobe Illustrator 19.1.0, SVG Export Plug-In . SVG Version: 6.00 Build 0)  -->
<svg version="1.1" xmlns="http://www.w3.org/2000/svg" xmlns:xlink="http://www.w3.org/1999/xlink" x="0px" y="0px"
	 viewBox="0 -4.1 360 342.1" style="enable-background:new 0 -4.1 360 342.1;" xml:space="preserve">
<style type="text/css">
	.st0{fill:#FBF3D1;}
	.st1{fill:#FFFFFF;}
	.st2{fill:#6F708A;}
</style>
<g id="Layer_1">
</g>
<g id="Layer_5">
</g>
<g id="Layer_3">
	<path class="st0" d="M175.5,80.5h-32.1c-1.1,0-2.1-0.3-3-0.7l-1.3,18.4l36.4-9.6V80.5z"/>
	<polygon class="st1" points="175.5,262.8 167.7,264.8 175.5,264.8 	"/>
	<polygon class="st0" points="175.5,115.1 137.2,125.2 135.6,148.4 175.5,137.9 	"/>
	<polygon class="st0" points="175.5,164.3 133.8,175.3 132.2,198.5 175.5,187.1 	"/>
	<polygon class="st0" points="175.5,213.6 130.3,225.5 128.7,248.7 175.5,236.3 	"/>
	<polygon class="st0" points="154.4,26.5 154.3,26.5 154.3,42.9 162.2,42.9 175.5,42.9 175.5,26.5 	"/>
	<path class="st0" d="M157.7,306.2v28.7h17.8v-46.5C165.7,288.4,157.7,296.3,157.7,306.2z"/>
	<path class="st2" d="M175.5,5.4c-11.7,0-21.1,9.5-21.1,21.1h21.1h21.1C196.6,14.9,187.2,5.4,175.5,5.4z"/>
	<polygon class="st0" points="175.5,80.5 175.5,88.7 206.4,80.5 	"/>
	<polygon class="st0" points="175.5,264.8 223.4,264.8 222.4,250.4 175.5,262.8 	"/>
	<polygon class="st0" points="175.5,137.9 214,127.8 212.4,105.4 175.5,115.1 	"/>
	<polygon class="st0" points="175.5,187.1 217.3,176.1 215.8,153.7 175.5,164.3 	"/>
	<polygon class="st0" points="175.5,236.3 220.6,224.5 219.1,202.1 175.5,213.6 	"/>
	<g>
		<path class="st2" d="M212.4,105.4l-1.8-25.6c-0.9,0.5-1.9,0.7-3,0.7h-1.2l-30.9,8.1l-36.4,9.6l-1.9,26.9l38.3-10.1L212.4,105.4z"
			/>
		<polygon class="st2" points="215.8,153.7 214,127.8 175.5,137.9 135.6,148.4 133.8,175.3 175.5,164.3 		"/>
		<polygon class="st2" points="217.3,176.1 175.5,187.1 132.2,198.5 130.3,225.5 175.5,213.6 219.1,202.1 		"/>
	</g>
	<polygon class="st0" points="196.6,26.5 175.5,26.5 175.5,42.9 188.8,42.9 196.7,42.9 196.7,26.5 	"/>
	<path class="st2" d="M207.6,67.5h-10.9v-13h1.4c3.2,0,5.8-2.6,5.8-5.8s-2.6-5.8-5.8-5.8h-1.4h-7.9h-13.3h-13.3h-7.9h-1.4
		c-3.2,0-5.8,2.6-5.8,5.8s2.6,5.8,5.8,5.8h1.4v13h-10.9c-3.6,0-6.5,2.9-6.5,6.5c0,2.5,1.4,4.7,3.5,5.8c0.9,0.5,1.9,0.7,3,0.7h32.1
		h30.9h1.2c1.1,0,2.1-0.3,3-0.7c2.1-1.1,3.5-3.3,3.5-5.8C214.1,70.5,211.2,67.5,207.6,67.5z"/>
	<polygon class="st2" points="175.5,262.8 222.4,250.4 220.6,224.5 175.5,236.3 128.7,248.7 127.6,264.8 167.7,264.8 	"/>
	<path class="st2" d="M223.4,264.8h-47.9h-7.8h-40.1h-14.3v70h44.4v-28.7c0-9.8,8-17.8,17.8-17.8c9.8,0,17.8,8,17.8,17.8v28.7h44.4
		v-70H223.4z"/>
	<path class="st0" d="M175.5,288.4v46.5h17.8v-28.7C193.3,296.3,185.3,288.4,175.5,288.4z"/>
</g>
<g id="Layer_2">
</g>
</svg>
