<?xml version="1.0" encoding="utf-8"?>
<!-- Generator: Adobe Illustrator 19.1.0, SVG Export Plug-In . SVG Version: 6.00 Build 0)  -->
<svg version="1.1" id="Layer_1" xmlns="http://www.w3.org/2000/svg" xmlns:xlink="http://www.w3.org/1999/xlink" x="0px" y="0px"
	 viewBox="-215 368.9 360 292" style="enable-background:new -215 368.9 360 292;" xml:space="preserve">
<style type="text/css">
	.st0{fill:#6F708A;}
	.st1{fill:#898BA3;}
	.st2{fill:#FBF3D1;}
	.st3{fill:#F7F5F6;}
	.st4{opacity:0.2;fill:#FFFFFF;}
</style>
<g id="Layer_1_1_">
</g>
<g id="Layer_5">
</g>
<g id="Layer_2">
</g>
<g>
	<g>
		<g>
			<path class="st0" d="M-24.9,574.2c1.8,0-1,1.9-5.5,6.8c-4.5,4.9-2.6,6.4-6.1,10.6c-3.4,4.2-7.1,2.3-6.8-0.5
				C-42.8,587.2-34.8,574.1-24.9,574.2z"/>
			<path class="st1" d="M-43,590.8c1.7-0.8,6.1-1.8,5.6,4.8c-0.5,6.6-4,10.6-4.1,16c-0.1,5.4-4.2,6.1-5.6,3.8
				C-49.2,611.9-49.7,594-43,590.8z"/>
		</g>
		<g>
			<path class="st0" d="M4.5,582.1c1.8,0.5-1.5,1.5-7.2,5c-5.7,3.5-4.3,5.4-8.8,8.5c-4.4,3.1-7.5,0.2-6.4-2.3
				C-16.2,589.5-4.8,579.2,4.5,582.1z"/>
			<path class="st1" d="M-17.4,593c1.8-0.3,6.4,0,4,6.2c-2.4,6.2-6.7,9.1-8.4,14.3c-1.6,5.2-5.8,4.7-6.5,2.1
				C-29.2,611.6-24.7,594.3-17.4,593z"/>
		</g>
		<g>
			<path class="st0" d="M27,597.8c1.5,1.1-1.9,1-8.3,2.6c-6.5,1.6-5.8,3.9-10.9,5.5c-5.2,1.6-7.2-2.1-5.4-4.2
				C5,598.7,18.9,592.2,27,597.8z"/>
			<path class="st1" d="M2.8,601.6c1.8,0.3,6.1,1.9,2,7.1c-4.1,5.2-9.2,6.6-12.3,11c-3.1,4.4-6.9,2.7-6.8,0
				C-14.1,615.7-4.6,600.5,2.8,601.6z"/>
		</g>
	</g>
	<g>
		<path class="st2" d="M6.6,451.6c0,5.2-4.1,9.4-9.2,9.4c-5.1,0-9.2-4.2-9.2-9.4c0-5.2,4.1-9.4,9.2-9.4
			C2.5,442.2,6.6,446.4,6.6,451.6z"/>
		<ellipse class="st3" cx="0.6" cy="449.2" rx="4.4" ry="4.4"/>
	</g>
	<path class="st0" d="M20.1,454.1c0,0,0.2-0.2,0.7-0.5c0.5-0.4,1.1-0.9,2-1.6c1.7-1.4,4.1-3.6,6.9-6.6c1.4-1.5,2.9-3.3,4.4-5.4
		c1.5-2.1,2.9-4.5,4.1-7.3c0.6-1.4,1.1-3,1.4-4.6c0.2-0.8,0.2-1.7,0.3-2.6c0-0.9,0-1.8-0.1-2.7c-0.1-0.9-0.3-1.8-0.5-2.8
		c-0.3-0.9-0.6-1.8-1-2.7c-0.8-1.7-1.9-3.3-3.3-4.7c-0.8-0.8-1.5-1.3-2.3-2c-0.4-0.3-0.8-0.5-1.2-0.8l-0.6-0.4l-0.6-0.4
		c-0.4-0.2-0.8-0.5-1.3-0.7c-0.4-0.2-0.9-0.4-1.3-0.7c-0.9-0.5-1.8-0.8-2.7-1.2c-3.6-1.5-7.5-2.4-11.6-2.9c-4-0.5-8.2-0.6-12.4-0.2
		c-2.1,0.1-4.2,0.5-6.3,0.8c-1.1,0.2-2.1,0.4-3.2,0.6c-1.1,0.2-2.1,0.5-3.2,0.7l-1.6,0.4c-0.5,0.1-1,0.3-1.6,0.5
		c-1,0.3-2.1,0.6-3.2,1c-2.1,0.8-4.2,1.4-6.2,2.3c-1,0.4-2.1,0.8-3.1,1.3c-1,0.5-2,1-3,1.4l-1.5,0.7l-1.5,0.8c-1,0.5-2,1.1-3,1.6
		c-7.9,4.4-15.4,9.7-22.5,15.5c-7,5.8-13.7,12.1-19.8,18.6l-1.2,1.2l-1.1,1.2c-0.7,0.8-1.5,1.7-2.2,2.5c-0.7,0.8-1.5,1.6-2.2,2.5
		c-0.7,0.8-1.5,1.6-2.2,2.4c-1.5,1.6-2.9,3.3-4.3,4.8c-1.4,1.6-2.9,3.2-4.3,4.7c-11.5,12.4-22.9,23.4-33.5,31.7
		c-5.3,4.2-10.4,7.7-15.3,10.2c-4.8,2.6-9.3,4.3-13.2,4.9c-1.9,0.3-3.7,0.4-5.2,0.3c-1.5-0.1-2.8-0.4-3.8-0.6
		c-1-0.3-1.8-0.5-2.3-0.7c-0.5-0.2-0.8-0.2-0.8-0.2c-0.2-0.1-0.4,0-0.4,0.2c-0.1,0.2,0,0.4,0.2,0.4l0,0c0,0,0.3,0.1,0.8,0.2
		c0.5,0.2,1.3,0.5,2.3,0.8c1,0.3,2.3,0.6,3.9,0.7c1.6,0.1,3.4,0.1,5.4-0.2c4-0.6,8.6-2.2,13.6-4.8c5-2.5,10.2-6,15.6-10.1
		c10.9-8.2,22.5-19.1,34.4-31.3c1.5-1.5,2.9-3.1,4.4-4.7c1.5-1.6,2.9-3.2,4.4-4.8c0.7-0.8,1.5-1.6,2.2-2.4c0.7-0.8,1.5-1.6,2.3-2.4
		c0.8-0.8,1.5-1.6,2.3-2.4l1.1-1.2l1.2-1.2c6.2-6.3,12.9-12.4,19.9-18c7-5.6,14.5-10.6,22.2-14.7c1-0.5,1.9-1,2.9-1.5l1.5-0.7
		l1.5-0.7c1-0.4,2-0.9,3-1.3c1-0.4,2-0.8,3-1.2c2-0.8,4-1.4,6-2.1c1-0.3,2-0.6,3-0.9c0.5-0.1,1-0.3,1.5-0.4l1.5-0.3
		c1-0.2,2-0.5,3-0.6c1-0.2,2-0.3,3-0.5c2-0.2,4-0.5,6-0.6c3.9-0.2,7.8-0.1,11.4,0.4c3.7,0.5,7.2,1.5,10.3,2.8
		c0.8,0.3,1.6,0.7,2.3,1.1c0.4,0.2,0.7,0.4,1.1,0.6c0.3,0.2,0.7,0.4,1,0.6l0.5,0.3l0.5,0.3c0.3,0.2,0.6,0.5,0.9,0.7
		c0.6,0.5,1.2,1,1.6,1.4c1,1,1.8,2.2,2.3,3.4c0.3,0.6,0.5,1.2,0.7,1.8c0.1,0.6,0.3,1.2,0.3,1.9c0.1,0.6,0,1.2,0,1.9
		c-0.1,0.6-0.1,1.2-0.3,1.8c-0.2,1.2-0.6,2.4-1.1,3.5c-1,2.2-2.3,4.3-3.6,6.1c-1.3,1.8-2.7,3.4-4,4.7c-2.6,2.7-4.9,4.7-6.5,5.9
		c-0.8,0.6-1.4,1.1-1.8,1.4c-0.4,0.3-0.6,0.4-0.6,0.4l-0.1,0c-1.4,1-1.7,2.9-0.7,4.3C16.7,454.8,18.6,455.1,20.1,454.1
		C20,454.1,20,454.1,20.1,454.1z"/>
	<g>
		<g id="XMLID_1_">
			<g>
				<path class="st0" d="M101.3,576.8c6.6-2.2,9.4,8.5,10.5,15.4c-11.1,2.8-27.2,10.3-50.8,26.8c-2.2-1-4.7-2.1-7.6-3.1
					c7.2-6.7,24.5-22.5,36.7-31.9C95,580.3,99,577.5,101.3,576.8z"/>
				<path class="st0" d="M-35.7,523.1c-11,25.3-32.6,41.2-53.7,51.3c-12.7,6-25.3,9.9-35.5,12.4c-13,3.1-21.9,3.9-21.9,3.9
					c-6.8-49.8,50.7-88.1,75.6-102.7c0,4.7,1.9,10,5.3,15.1C-59.8,512.1-49,520.4-35.7,523.1z"/>
				<path class="st1" d="M111.8,592.1c20.6-5.2,23.5,5.9,23.5,5.9l-64.9,26.1c0,0-3.4-2.4-9.3-5.2
					C84.6,602.4,100.8,594.9,111.8,592.1z"/>
				<path class="st1" d="M76.3,570.9c8-2.6,13.9,13.1,13.9,13.1c-12.2,9.4-29.5,25.2-36.7,31.9c-2.9-1-6.2-2-9.7-2.8
					C51.8,600.6,70.1,573,76.3,570.9z"/>
				<path class="st1" d="M-124.9,586.7c10.1-2.5,22.7-6.3,35.5-12.4c2.1,6.4,3.1,12.6,3.4,18.5c18,4.2,29.7,10.7,37.3,17.8
					c21-2.1,35.8,0.9,46.1,5.7l0.1-0.2c17.5-6.8,33.7-6.1,46.3-3.1c3.5,0.8,6.8,1.8,9.7,2.8c1.1,0.4,2.1,0.8,3,1.2
					c1.6,0.6,3.1,1.3,4.5,1.9c5.9,2.8,9.3,5.2,9.3,5.2s-21.4,7.4-50.8,14.1c-16.8,3.8-36.2,7.4-55.7,9.1
					c-23.2,2.1-46.5,1.6-65.4-4.2c-14.9-4.5-27.1-12.2-34.7-24.3c-6.1-9.7-9.4-19.2-10.6-28.2C-146.8,590.6-137.8,589.8-124.9,586.7
					z"/>
				<path class="st0" d="M63.5,419.2l14.4-2.6c0,0-44.1,67.1-59.4,83.7c-1.3,1.4-2.6,2.8-3.9,4.1C-3.3,521.9-21,526-35.7,523.1
					c-20.9-4.1-35.5-22.3-35.5-35.2c3.4-2,7.4-4.3,11.8-6.9c47-27.5,144.2-83.7,145.8-84.6L63.5,419.2z"/>
				<path class="st4" d="M14.6,504.3C-3.3,521.9-21,526-35.7,523.1c-20.9-4.1-35.5-22.3-35.5-35.2c3.4-2,7.4-4.3,11.8-6.9
					C-55.9,494.1-41.3,527.7,14.6,504.3z"/>
			</g>
		</g>
	</g>
	<g>
		<ellipse class="st2" cx="-12.8" cy="478.5" rx="9.2" ry="9.4"/>
		<path class="st3" d="M-5.2,476.1c0,2.4-2,4.4-4.4,4.4c-2.4,0-4.4-2-4.4-4.4c0-2.5,2-4.4,4.4-4.4C-7.2,471.7-5.2,473.7-5.2,476.1z"
			/>
	</g>
	<path class="st1" d="M26.4,444.2c0,0,0.3-0.2,0.9-0.7c0.6-0.4,1.4-1.1,2.4-1.9c2.1-1.7,5-4.3,8.5-8c1.7-1.9,3.5-4,5.3-6.5
		c1.8-2.5,3.6-5.4,5-8.9c0.7-1.7,1.3-3.6,1.7-5.7c0.2-1,0.3-2.1,0.4-3.1c0-1.1,0-2.2-0.1-3.3c-0.1-1.1-0.4-2.2-0.6-3.4
		c-0.4-1.1-0.7-2.2-1.3-3.3c-1-2.1-2.4-4.1-4.1-5.7c-0.9-1-1.8-1.6-2.8-2.4c-0.5-0.3-1-0.7-1.4-1l-0.7-0.5l-0.8-0.4
		c-0.5-0.3-1-0.6-1.5-0.9c-0.5-0.3-1.1-0.5-1.6-0.8c-1.1-0.6-2.2-1-3.3-1.4c-4.4-1.8-9.2-2.9-14.1-3.6c-4.9-0.6-10-0.7-15.2-0.3
		c-2.6,0.2-5.1,0.6-7.7,0.9c-1.3,0.2-2.6,0.5-3.9,0.7c-1.3,0.2-2.6,0.6-3.9,0.9l-1.9,0.5c-0.6,0.2-1.3,0.4-1.9,0.6
		c-1.3,0.4-2.6,0.8-3.8,1.2c-2.5,0.9-5.1,1.8-7.6,2.9c-1.3,0.5-2.5,1-3.8,1.6c-1.2,0.6-2.5,1.2-3.7,1.8l-1.9,0.9l-1.8,1
		c-1.2,0.6-2.4,1.3-3.7,1.9c-9.6,5.4-18.8,11.9-27.4,18.9c-8.6,7.1-16.7,14.7-24.2,22.7l-1.4,1.5l-1.4,1.5c-0.9,1-1.8,2-2.7,3
		c-0.9,1-1.8,2-2.7,3c-0.9,1-1.8,2-2.7,3c-1.8,2-3.5,4-5.3,5.9c-1.8,1.9-3.5,3.8-5.3,5.7c-14.1,15.1-27.9,28.6-40.9,38.7
		c-6.5,5.1-12.7,9.4-18.6,12.5c-5.9,3.2-11.4,5.2-16.1,6c-2.3,0.4-4.5,0.5-6.3,0.4c-1.8-0.1-3.4-0.4-4.6-0.8
		c-1.2-0.3-2.2-0.7-2.8-0.9c-0.7-0.2-1-0.3-1-0.3c-0.2-0.1-0.4,0.1-0.5,0.3c-0.1,0.2,0.1,0.4,0.3,0.5l0,0c0,0,0.3,0.1,0.9,0.3
		c0.6,0.2,1.6,0.6,2.8,0.9c1.3,0.4,2.9,0.7,4.8,0.9c1.9,0.2,4.1,0.1,6.5-0.3c4.9-0.7,10.5-2.7,16.6-5.8c6-3.1,12.4-7.3,19.1-12.3
		c13.3-10,27.5-23.3,41.9-38.2c1.8-1.9,3.6-3.8,5.4-5.7c1.8-1.9,3.6-3.9,5.4-5.8c0.9-1,1.8-2,2.7-2.9c0.9-1,1.8-1.9,2.7-2.9
		c0.9-1,1.8-2,2.8-2.9l1.4-1.5l1.4-1.4c7.5-7.7,15.7-15.1,24.3-21.9c8.6-6.8,17.6-12.9,27.1-18c1.2-0.6,2.4-1.2,3.6-1.8l1.8-0.9
		l1.8-0.8c1.2-0.5,2.4-1.1,3.6-1.6c1.2-0.5,2.4-1,3.6-1.5c2.4-1,4.9-1.8,7.3-2.6c1.2-0.4,2.5-0.7,3.7-1.1c0.6-0.2,1.2-0.4,1.8-0.5
		l1.8-0.4c1.2-0.3,2.4-0.6,3.7-0.8c1.2-0.2,2.4-0.4,3.7-0.6c2.4-0.3,4.9-0.6,7.3-0.7c4.8-0.3,9.5-0.1,14,0.5
		c4.5,0.6,8.7,1.8,12.6,3.4c1,0.4,1.9,0.8,2.8,1.3c0.4,0.2,0.9,0.5,1.3,0.7c0.4,0.3,0.8,0.5,1.3,0.8l0.6,0.4l0.6,0.4
		c0.4,0.3,0.8,0.6,1.2,0.8c0.7,0.6,1.5,1.2,1.9,1.8c1.2,1.2,2.2,2.7,2.9,4.2c0.4,0.7,0.6,1.5,0.8,2.2c0.1,0.8,0.4,1.5,0.4,2.3
		c0.1,0.8,0,1.5,0,2.3c-0.1,0.8-0.1,1.5-0.3,2.2c-0.3,1.5-0.8,2.9-1.4,4.3c-1.2,2.7-2.8,5.2-4.4,7.4c-1.6,2.2-3.3,4.1-4.9,5.8
		c-3.2,3.3-6,5.7-7.9,7.2c-1,0.8-1.7,1.3-2.2,1.7c-0.5,0.4-0.7,0.5-0.7,0.5l-0.1,0.1c-1.7,1.2-2,3.6-0.8,5.2
		C22.4,445.1,24.7,445.5,26.4,444.2C26.4,444.3,26.4,444.3,26.4,444.2z"/>
	<g>
		<g>
			<path class="st0" d="M7.6,565.4c-0.7,1.7-1.4-1.6-4.5-7.5c-3.1-5.9-5.1-4.6-8-9.3c-2.8-4.6,0.3-7.5,2.7-6.2
				C1.5,544.3,11.1,556.2,7.6,565.4z"/>
			<path class="st1" d="M-1.9,542.9c0.2,1.8-0.4,6.4-6.4,3.6c-6.1-2.7-8.6-7.3-13.7-9.2c-5.1-1.9-4.4-6.1-1.7-6.6
				C-19.7,529.9-2.7,535.4-1.9,542.9z"/>
			<path class="st0" d="M-21.3,531c1,1.6,2.4,5.9-4.3,6c-6.6,0.1-10.9-3-16.3-2.6c-5.4,0.4-6.5-3.6-4.3-5.3
				C-42.9,526.8-25.2,524.6-21.3,531z"/>
		</g>
		<g>
			<path class="st0" d="M-9.7,590.5c-1.1,1.5-0.9-1.9-2.3-8.4c-1.4-6.5-3.7-5.9-5.1-11.1c-1.4-5.2,2.3-7.1,4.3-5.2
				C-9.7,568.5-3.8,582.7-9.7,590.5z"/>
			<path class="st1" d="M-12.6,566.2c-0.3,1.8-2.1,6-7.2,1.7c-5.1-4.3-6.3-9.4-10.6-12.7c-4.3-3.2-2.5-7,0.2-6.8
				C-26.1,548.9-11.3,558.9-12.6,566.2z"/>
			<path class="st0" d="M-28,549.5c0.5,1.8,0.6,6.3-5.8,4.6c-6.4-1.8-9.7-5.9-15-7c-5.3-1.1-5.3-5.3-2.7-6.2
				C-47.6,539.5-29.9,542.3-28,549.5z"/>
		</g>
		<g>
			<path class="st0" d="M-32.1,606.4c-1.5,1.1-0.3-2.1,0.4-8.7c0.7-6.6-1.7-6.7-1.5-12.1c0.2-5.4,4.4-6.1,5.7-3.7
				C-25.4,585.4-24.1,600.7-32.1,606.4z"/>
			<path class="st1" d="M-27.5,582.4c-0.9,1.6-3.9,5.1-7.4-0.6c-3.5-5.6-3.1-10.9-6.2-15.3c-3.1-4.4-0.3-7.5,2.3-6.4
				C-35,561.7-24,575.7-27.5,582.4z"/>
			<path class="st0" d="M-37,561.7c-0.1,1.8-1.3,6.2-6.9,2.6c-5.6-3.6-7.4-8.5-12.1-11.2c-4.7-2.7-3.4-6.7-0.6-6.8
				C-52.6,546.2-36.7,554.2-37,561.7z"/>
		</g>
	</g>
	<path class="st0" d="M70.4,624.2c0,0-21.4,7.4-50.8,14.1c-16.8,3.8-36.2,7.4-55.7,9.1c-23.2,2.1-46.5,1.6-65.4-4.2
		c-14.9-4.5-27.1-12.2-34.7-24.3c-6.1-9.7-9.4-19.2-10.6-28.2c-6.8-49.8,50.7-88.1,75.6-102.7c0,4.7,1.9,10,5.3,15.1
		c-17.7,9.3-64.5,38.3-59,83.7c0.4,3.6,1.2,7.3,2.3,11c4.1,14,15.5,22.6,30.7,27.6c15.7,5.2,35.3,6.5,55.3,5.7
		c16.5-0.6,33.2-2.6,48.1-4.9c20.5-3.3,37.3-7.2,45-9.1c1.6,0.6,3.1,1.3,4.5,1.9C67,621.7,70.4,624.2,70.4,624.2z"/>
</g>
</svg>
