<?xml version="1.0" encoding="utf-8"?>
<!-- Generator: Adobe Illustrator 19.1.0, SVG Export Plug-In . SVG Version: 6.00 Build 0)  -->
<svg version="1.1" xmlns="http://www.w3.org/2000/svg" xmlns:xlink="http://www.w3.org/1999/xlink" x="0px" y="0px"
	 viewBox="0 22 360 317" style="enable-background:new 0 22 360 317;" xml:space="preserve">
<style type="text/css">
	.purple{fill:#595A74;}
	.stink{fill:#02B9B2;}
	.rude{fill:none;stroke:#595A74;stroke-width:3;stroke-miterlimit:10;}
</style>
<g id="Layer_1">
	<g>
		<path class="purple" d="M302.9,306.4c0.7,3.9-2.2,7.9-6.4,8.7l-26.2,4.8c-4.3,0.8-8.4-1.8-9.1-5.8l-13.5-95.2
			c-0.7-3.9,2.2-7.9,6.4-8.7l18.4-3.4c4.3-0.8,8.4,1.8,9.1,5.8L302.9,306.4z"/>
		<circle class="stink" cx="257.5" cy="177.1" r="58.5"/>
		<polyline class="rude" points="201.9,158.8 223.3,175.5 239.9,151.8 261.3,168.5 277.3,144.9 292,158.1 302.8,140.1 		"/>
		<polyline class="rude" points="199.9,187.8 222.1,202.2 243.8,179.7 267.4,193.8 281.8,172.7 295.1,182.6 313,158.9 		"/>
		
			<ellipse transform="matrix(0.9833 -0.1818 0.1818 0.9833 -37.5202 52.4213)" class="purple" cx="267.1" cy="230.8" rx="21.2" ry="4"/>
	</g>
</g>
<g id="Layer_2">
	<g>
		<path class="purple" d="M93.6,285c-1.2,3.8-5.6,6-9.7,4.8L58.5,282c-4.2-1.3-6.6-5.5-5.4-9.4L85,181.9c1.2-3.8,5.6-6,9.7-4.8
			l17.9,5.5c4.2,1.3,6.6,5.5,5.4,9.4L93.6,285z"/>
		<circle class="stink" cx="112.9" cy="149.3" r="58.5"/>
		<polyline class="rude" points="72.1,107.4 83.4,132.1 109.1,118.7 120.4,143.4 145.4,129.9 152.3,148.3 170.2,137.4 		"/>
		<polyline class="rude" points="57,132.2 70.1,155.2 99.6,145.3 114.1,168.7 136.6,156.6 143.9,171.5 170.7,158.8 		"/>
		<ellipse transform="matrix(0.9563 0.2924 -0.2924 0.9563 63.1234 -19.4805)" class="purple" cx="96.7" cy="201.4" rx="21.2" ry="4"/>
	</g>
</g>
</svg>
