<?xml version="1.0" encoding="utf-8"?>
<!-- Generator: Adobe Illustrator 19.1.0, SVG Export Plug-In . SVG Version: 6.00 Build 0)  -->
<svg version="1.1" id="Layer_1" xmlns="http://www.w3.org/2000/svg" xmlns:xlink="http://www.w3.org/1999/xlink" x="0px" y="0px"
	 viewBox="-215 348.9 360 313.1" style="enable-background:new -215 348.9 360 313.1;" xml:space="preserve">
<style type="text/css">
	.st0{fill:#E9EAEB;}
	.st1{fill:#4F5169;stroke:#4F5169;stroke-miterlimit:10;}
	.st2{fill:none;}
	.st3{fill:none;stroke:#4F5169;stroke-width:4;stroke-miterlimit:10;}
	.st4{fill:#EDDFC2;}
	.st5{fill:#00A79F;}
	.st6{fill:#4F5169;}
</style>
<ellipse class="st0" cx="-29.3" cy="648.1" rx="164.9" ry="8.9"/>
<g>
	<polygon class="st1" points="-137.9,394.4 -155.2,453 -156.2,456.9 -157.1,456.9 -158.1,453 -175.2,394.9 -180.9,394.9 
		-162.1,456.9 -163.2,456.9 -163.2,648.1 -150.2,648.1 -150.2,456.9 -151.2,456.9 -132.1,394.4 	"/>
</g>
<g>
	<polygon class="st2" points="95.2,453 95.9,456.9 96.8,456.9 97.8,453 113.3,395.1 79.5,395.1 	"/>
	<polygon class="st1" points="113.3,395.1 97.8,453 96.8,456.9 95.9,456.9 95.2,453 79.5,395.1 74.3,395.1 91.4,456.9 90.5,456.9 
		90.5,648.1 102.3,648.1 102.3,456.9 101.3,456.9 118.4,395.1 	"/>
</g>
<line class="st3" x1="-191.1" y1="443.3" x2="141.8" y2="443.3"/>
<g>
	<path class="st4" d="M-44.3,417.6c-9.1-4.8-17.2,9-8.1,13.8c9.9,5.2,9.4,13.4,1.6,20.5c-7.6,7,3.7,18.3,11.3,11.3
		C-24.1,449.4-25.3,427.5-44.3,417.6z"/>
	<g>
		<path class="st4" d="M31.2,402.7c-6.2-4.1-13.7-5.4-21.3-5.4c-20.7-3.5-46.1,1.4-58.3,16.4c-2.1,2.6-1.5,5.6,0.2,7.9
			c0.3,1.3,1,2.6,2.1,3.7c3.7,3.7,10.4,7.2,12.3,12.1c3,7.9-0.6,19.6-4.8,26.4c-2.5,4.1-0.3,10.1,4.8,11.1c15.8,3.3,31.4,9.7,48,7.9
			c14.2-1.6,25.4-9.7,31.8-21.2C65.3,447.4,47.4,413.4,31.2,402.7z"/>
		<path class="st4" d="M48.4,407.4c-5.2-9.1-16.9-15-26.2-18.7c-9.8-3.9-18.9-2.5-29,0.1c-10.3,2.7-24.3,7.5-27.7,18.8
			c-2.8,9.4,10.8,13.6,14.8,5.8c4.8,2,10.1-1.1,11.6-5.2c6.8-2.9,14.4-3.5,21.5-1.1c3.7,1.3,8.1,3.3,9.7,7c2.1,5,3.8,9.4,7.3,13.7
			c1.6,1.9,5.4,3.1,7.8,2.1C48.2,425.9,54.3,417.7,48.4,407.4z"/>
		<g>
			<path class="st5" d="M-90.4,434.3c-3.7-7.2-7.3-14.5-11.1-21.8c7.3,6.8,15.1,12.6,25.5,13.8c-1.8-7-3.6-13.9-5.4-20.7
				c0.3-0.1,0.6-0.2,0.9-0.4c4,10.2,10.7,17.8,21.3,21.6c0.9-2,1.7-3.7,2.8-6.1c6.6,6.2,12.9,12.2,19.5,18.5
				c-5.5,7.7-10.7,15-16.2,22.6c-1.5-2.3-2.5-1.1-3.6-0.1c-7.2,6.9-10.6,15.6-11.9,25.3c-0.1,0.7-0.2,1.3-0.3,2c-0.3,0-0.6,0-0.8,0
				c-0.5-6.9-1-13.8-1.5-20.9c-8,7.3-12.7,16.7-16.4,26.7c-0.2-0.1-0.4-0.1-0.6-0.2c1.9-11,3.7-22,5.6-33.3c-7.1,4-12.1,9.7-17,15.9
				c1.6-6.4,3.2-12.7,4.8-19c-8-2.1-15.9-4.2-23.8-6.2c0.1-0.1,0.1-0.3,0.2-0.4c7-1.8,14-3.7,21.5-5.6c-5.3-6.2-7.3-13.1-9.5-20.1
				c4.6,3.8,9.3,7.4,15.1,9C-90.9,434.7-90.6,434.5-90.4,434.3z"/>
			<path class="st6" d="M4.4,464.1c-1.3-4.1-2.6-8.3-4-12.4c-1.2-3.3-3.5-6.5-3.6-9.8c-0.1-3.2,2-6.5,3-9.8c0.7-2.2,1.1-4.4,1.6-6.6
				c0.5-2.2,0.8-4.4,1.3-7.2c2.2,2.9,4.2,5.4,6.1,8c1.5,2.1,2.9,4.3,4.1,6.6c4.5,8.6,4.5,5.4,0.7,14.4c-2.4,5.9-5.7,11.5-8.6,17.2
				C4.9,464.3,4.7,464.2,4.4,464.1z"/>
			<path class="st6" d="M30.4,462c-2.4-7.2-4.7-14.3-6.9-21.4c-0.2-0.7-0.4-1.6-0.2-2.3c2.1-7.9,3.2-15.9,3.3-24
				c0-0.2,0.1-0.4,0.2-0.9c4.6,5.9,7.9,12.2,10.9,18.8c1.4,3,1.4,5.7,0.6,8.8C36.5,448.4,33.9,455.4,30.4,462z"/>
			<path class="st6" d="M-32.3,476.1c-6.3-2.4-11.8-5.4-16.1-9.3c5.1-7.3,10.1-14.5,15.4-22.2c2.6,5,5.1,10.1,7.9,15
				c1.9,3.3,1.5,6-1.1,8.7C-28.5,470.7-30.3,473.5-32.3,476.1z"/>
			<path class="st6" d="M45.5,401.8c13.4,15.4,14.9,39.9,5.8,55.4c-1.2-4.9-2.1-9.8-3.7-14.5c-1.6-4.8-1.5-9.5-1.3-14.5
				c0.4-7.6-0.2-15.2-0.5-22.8C45.9,404.3,45.8,403.2,45.5,401.8z"/>
			<path class="st6" d="M2.7,390.2c5,4.3,9.5,8.3,14.3,12.1c2.8,2.2,3.8,4.9,3.5,8.4c-0.5,5.7-0.8,11.4-1.2,17.1
				c-0.1,0.8-0.3,1.5-0.5,2.6c-1.8-2.7-3.2-5.3-5-7.6c-2.8-3.7-5.7-7.3-8.7-10.8c-1.3-1.5-1.8-2.8-1.9-4.8
				C3.2,401.9,2.9,396.5,2.7,390.2z"/>
			<path class="st6" d="M20.5,448.9c1.6,7,3.2,14,4.7,21.1c0.1,0.6-0.2,1.4-0.6,1.9c-1.1,1.7-2.4,3.3-3.3,5.1
				c-1.6,3.2-4.2,4.4-7.6,4.3c-1.9,0-3.9,0.1-6,0.2c-0.5-2.7-0.9-5.3-1.3-7.8c-0.1-0.6,0.2-1.2,0.5-1.7
				C11.4,464.4,15.7,456.9,20.5,448.9z"/>
			<path class="st6" d="M-6.8,434.7c-4.8-5.8-9.3-11.2-13.7-16.7c-0.3-0.4-0.4-1-0.3-1.5c1-5.4,2.1-10.7,3.2-16.5
				c3.7,3,7.3,6.2,11.2,9c2.9,2.2,4,4.6,3.2,8.2C-4.6,423-5.8,428.9-6.8,434.7z"/>
			<path class="st6" d="M-23.1,424.3c4.8,5.3,9,11,12.3,17.3c0.2,0.5,0.3,1.2,0,1.7c-2.6,5-5.2,10-8.1,15.3
				c-1.7-3.5-3.1-6.5-4.7-9.3c-1.7-3.1-3.8-6-5.6-9c-0.4-0.6-0.7-1.7-0.4-2.3C-27.6,433.4-25.3,429-23.1,424.3z"/>
			<path class="st6" d="M-53.1,415.5c2.9-2.9,5.9-6,9.2-9.4c5.2,4.3,10.2,8.5,15.2,12.6c0.3,0.3,0.5,1.1,0.3,1.4
				c-1.8,4.4-3.6,8.8-5.4,13.3C-40.3,427.4-46.6,421.6-53.1,415.5z"/>
			<path class="st6" d="M24.4,386.6c5.1,1.6,9.4,4,13.4,7.2c0.3,0.3,0.5,0.8,0.6,1.2c1.6,9.2,2.6,18.4,2.3,27.7
				c0,0.2-0.1,0.4,0.3,0.3c-4.7-6.4-9.4-12.7-14-19.1c-0.4-0.5-0.6-1.3-0.7-1.9C25.5,397,24.9,392,24.4,386.6z"/>
			<path class="st6" d="M-6.5,449.2c2.1,7.5,4.1,14.4,5.9,21.3c0.2,0.7-0.2,1.7-0.7,2.3c-1.8,2.5-3.8,4.8-5.5,7.3
				c-1.3,1.9-3,0.9-4.5,0.6c-0.6-0.1-1.3-1.3-1.6-2.1c-1.2-3.9-2.2-7.9-3.2-11.8c-0.2-0.6-0.4-1.5-0.1-2
				C-13.1,459.9-10.1,454.9-6.5,449.2z"/>
			<path class="st6" d="M32.5,476.6c-0.8-2.7-0.5-4.9,0.7-7.3c3.2-6.2,5.9-12.6,8.8-19c0.2-0.5,0.4-1,0.5-1.5c0.3,0,0.6,0,0.9,0
				c0.7,4.4,1.3,8.9,2.3,13.3c0.6,2.7,0,4.7-2.1,6.4c-3,2.4-6,4.8-9,7.1C34,476,33.4,476.2,32.5,476.6z"/>
			<path class="st6" d="M-26,412.7c-4.5-3.6-8.5-6.8-13-10.4c4.5-2.4,8.7-4.8,13-7c1.2-0.6,2,0.3,1.9,1.5
				C-24.6,402-25.3,407.2-26,412.7z"/>
			<path class="st6" d="M-4.1,387.1c0.5,5.9,1,11.3,1.5,17.1c-5.4-4.1-10.4-8-15.9-12.2C-13.6,390.3-9.1,388.8-4.1,387.1z"/>
			<path class="st6" d="M19.4,396.1c-4.7-3.8-9-7.2-13.5-10.9c3.8-1,7.4-0.7,10.9-0.3c0.3,0,0.8,0.7,0.9,1.2
				C18.4,389.3,18.9,392.5,19.4,396.1z"/>
			<path class="st6" d="M-21,471.5c0.8,3.1,1.4,5.5,2.1,8.4c-2.5-0.6-4.7-1.1-7.2-1.7C-24.5,475.9-22.8,473.9-21,471.5z"/>
		</g>
	</g>
</g>
</svg>
