<?xml version="1.0" encoding="utf-8"?>
<!-- Generator: Adobe Illustrator 19.1.0, SVG Export Plug-In . SVG Version: 6.00 Build 0)  -->
<svg version="1.1" xmlns="http://www.w3.org/2000/svg" xmlns:xlink="http://www.w3.org/1999/xlink" x="0px" y="0px"
	 viewBox="0 24.9 360 313.1" style="enable-background:new 0 24.9 360 313.1;" xml:space="preserve">
<style type="text/css">
	.st0{fill:#D1CA76;}
	.st1{fill:#4F5169;stroke:#4F5169;stroke-miterlimit:10;}
	.st2{fill:none;}
	.st3{fill:none;stroke:#4F5169;stroke-width:4;stroke-miterlimit:10;}
	.st4{fill:#EDDFC2;}
	.st5{fill:#00A79F;}
	.st6{fill:#4F5169;}
</style>
<g id="Layer_1">
	<ellipse class="st0" cx="184.2" cy="325.2" rx="164.9" ry="8.9"/>
	<g>
		<polygon class="st1" points="75.5,71.5 58.3,130.1 57.3,134 56.4,134 55.4,130.1 38.2,72 32.5,72 51.4,134 50.3,134 50.3,325.2 
			63.3,325.2 63.3,134 62.3,134 81.3,71.5 		"/>
	</g>
	<g>
		<polygon class="st2" points="308.6,130.1 309.4,134 310.3,134 311.2,130.1 326.7,72.2 293,72.2 		"/>
		<polygon class="st1" points="326.7,72.2 311.2,130.1 310.3,134 309.4,134 308.6,130.1 293,72.2 287.8,72.2 304.9,134 304,134 
			304,325.2 315.7,325.2 315.7,134 314.8,134 331.9,72.2 		"/>
	</g>
	<line class="st3" x1="22.4" y1="120.4" x2="355.3" y2="120.4"/>
	<g>
		<path class="st4" d="M169.2,94.7c-9.1-4.8-17.2,9-8.1,13.8c9.9,5.2,9.4,13.4,1.6,20.5c-7.6,7,3.7,18.3,11.3,11.3
			C189.3,126.5,188.1,104.6,169.2,94.7z"/>
		<g>
			<path class="st4" d="M244.7,79.8c-6.2-4.1-13.7-5.4-21.3-5.4c-20.7-3.5-46.1,1.4-58.3,16.4c-2.1,2.6-1.5,5.6,0.2,7.9
				c0.3,1.3,1,2.6,2.1,3.7c3.7,3.7,10.4,7.2,12.3,12.1c3,7.9-0.6,19.6-4.8,26.4c-2.5,4.1-0.3,10.1,4.8,11.1
				c15.8,3.3,31.4,9.7,48,7.9c14.2-1.6,25.4-9.7,31.8-21.2C278.8,124.5,260.9,90.5,244.7,79.8z"/>
			<path class="st4" d="M261.9,84.5c-5.2-9.1-16.9-15-26.2-18.7c-9.8-3.9-18.9-2.5-29,0.1c-10.3,2.7-24.3,7.5-27.7,18.8
				c-2.8,9.4,10.8,13.6,14.8,5.8c4.8,2,10.1-1.1,11.6-5.2c6.8-2.9,14.4-3.5,21.5-1.1c3.7,1.3,8.1,3.3,9.7,7c2.1,5,3.8,9.4,7.3,13.7
				c1.6,1.9,5.4,3.1,7.8,2.1C261.6,103,267.8,94.8,261.9,84.5z"/>
			<g>
				<path class="st5" d="M123.1,111.4c-3.7-7.2-7.3-14.5-11.1-21.8c7.3,6.8,15.1,12.6,25.5,13.8c-1.8-7-3.6-13.9-5.4-20.7
					c0.3-0.1,0.6-0.2,0.9-0.4c4,10.2,10.7,17.8,21.3,21.6c0.9-2,1.7-3.7,2.8-6.1c6.6,6.2,12.9,12.2,19.5,18.5
					c-5.5,7.7-10.7,15-16.2,22.6c-1.5-2.3-2.5-1.1-3.6-0.1c-7.2,6.9-10.6,15.6-11.9,25.3c-0.1,0.7-0.2,1.3-0.3,2c-0.3,0-0.6,0-0.8,0
					c-0.5-6.9-1-13.8-1.5-20.9c-8,7.3-12.7,16.7-16.4,26.7c-0.2-0.1-0.4-0.1-0.6-0.2c1.9-11,3.7-22,5.6-33.3
					c-7.1,4-12.1,9.7-17,15.9c1.6-6.4,3.2-12.7,4.8-19c-8-2.1-15.9-4.2-23.8-6.2c0.1-0.1,0.1-0.3,0.2-0.4c7-1.8,14-3.7,21.5-5.6
					c-5.3-6.2-7.3-13.1-9.5-20.1c4.6,3.8,9.3,7.4,15.1,9C122.6,111.8,122.9,111.6,123.1,111.4z"/>
				<path class="st6" d="M217.9,141.2c-1.3-4.1-2.6-8.3-4-12.4c-1.2-3.3-3.5-6.5-3.6-9.8c-0.1-3.2,2-6.5,3-9.8
					c0.7-2.2,1.1-4.4,1.6-6.6c0.5-2.2,0.8-4.4,1.3-7.2c2.2,2.9,4.2,5.4,6.1,8c1.5,2.1,2.9,4.3,4.1,6.6c4.5,8.6,4.5,5.4,0.7,14.4
					c-2.4,5.9-5.7,11.5-8.6,17.2C218.3,141.4,218.1,141.3,217.9,141.2z"/>
				<path class="st6" d="M243.9,139.1c-2.4-7.2-4.7-14.3-6.9-21.4c-0.2-0.7-0.4-1.6-0.2-2.3c2.1-7.9,3.2-15.9,3.3-24
					c0-0.2,0.1-0.4,0.2-0.9c4.6,5.9,7.9,12.2,10.9,18.8c1.4,3,1.4,5.7,0.6,8.8C250,125.5,247.4,132.5,243.9,139.1z"/>
				<path class="st6" d="M181.1,153.2c-6.3-2.4-11.8-5.4-16.1-9.3c5.1-7.3,10.1-14.5,15.4-22.2c2.6,5,5.1,10.1,7.9,15
					c1.9,3.3,1.5,6-1.1,8.7C185,147.8,183.2,150.6,181.1,153.2z"/>
				<path class="st6" d="M259,78.9c13.4,15.4,14.9,39.9,5.8,55.4c-1.2-4.9-2.1-9.8-3.7-14.5c-1.6-4.8-1.5-9.5-1.3-14.5
					c0.4-7.6-0.2-15.2-0.5-22.8C259.4,81.4,259.2,80.3,259,78.9z"/>
				<path class="st6" d="M216.1,67.3c5,4.3,9.5,8.3,14.3,12.1c2.8,2.2,3.8,4.9,3.5,8.4c-0.5,5.7-0.8,11.4-1.2,17.1
					c-0.1,0.8-0.3,1.5-0.5,2.6c-1.8-2.7-3.2-5.3-5-7.6c-2.8-3.7-5.7-7.3-8.7-10.8c-1.3-1.5-1.8-2.8-1.9-4.8
					C216.7,79,216.4,73.6,216.1,67.3z"/>
				<path class="st6" d="M234,126c1.6,7,3.2,14,4.7,21.1c0.1,0.6-0.2,1.4-0.6,1.9c-1.1,1.7-2.4,3.3-3.3,5.1
					c-1.6,3.2-4.2,4.4-7.6,4.3c-1.9,0-3.9,0.1-6,0.2c-0.5-2.7-0.9-5.3-1.3-7.8c-0.1-0.6,0.2-1.2,0.5-1.7
					C224.8,141.5,229.2,134,234,126z"/>
				<path class="st6" d="M206.6,111.8c-4.8-5.8-9.3-11.2-13.7-16.7c-0.3-0.4-0.4-1-0.3-1.5c1-5.4,2.1-10.7,3.2-16.5
					c3.7,3,7.3,6.2,11.2,9c2.9,2.2,4,4.6,3.2,8.2C208.8,100.1,207.7,106,206.6,111.8z"/>
				<path class="st6" d="M190.3,101.4c4.8,5.3,9,11,12.3,17.3c0.2,0.5,0.3,1.2,0,1.7c-2.6,5-5.2,10-8.1,15.3
					c-1.7-3.5-3.1-6.5-4.7-9.3c-1.7-3.1-3.8-6-5.6-9c-0.4-0.6-0.7-1.7-0.4-2.3C185.9,110.5,188.1,106.1,190.3,101.4z"/>
				<path class="st6" d="M160.3,92.6c2.9-2.9,5.9-6,9.2-9.4c5.2,4.3,10.2,8.5,15.2,12.6c0.3,0.3,0.5,1.1,0.3,1.4
					c-1.8,4.4-3.6,8.8-5.4,13.3C173.1,104.5,166.9,98.7,160.3,92.6z"/>
				<path class="st6" d="M237.8,63.7c5.1,1.6,9.4,4,13.4,7.2c0.3,0.3,0.5,0.8,0.6,1.2c1.6,9.2,2.6,18.4,2.3,27.7
					c0,0.2-0.1,0.4,0.3,0.3c-4.7-6.4-9.4-12.7-14-19.1c-0.4-0.5-0.6-1.3-0.7-1.9C239,74.1,238.4,69.1,237.8,63.7z"/>
				<path class="st6" d="M207,126.3c2.1,7.5,4.1,14.4,5.9,21.3c0.2,0.7-0.2,1.7-0.7,2.3c-1.8,2.5-3.8,4.8-5.5,7.3
					c-1.3,1.9-3,0.9-4.5,0.6c-0.6-0.1-1.3-1.3-1.6-2.1c-1.2-3.9-2.2-7.9-3.2-11.8c-0.2-0.6-0.4-1.5-0.1-2
					C200.3,137,203.4,132,207,126.3z"/>
				<path class="st6" d="M246,153.7c-0.8-2.7-0.5-4.9,0.7-7.3c3.2-6.2,5.9-12.6,8.8-19c0.2-0.5,0.4-1,0.5-1.5c0.3,0,0.6,0,0.9,0
					c0.7,4.4,1.3,8.9,2.3,13.3c0.6,2.7,0,4.7-2.1,6.4c-3,2.4-6,4.8-9,7.1C247.5,153.1,246.8,153.3,246,153.7z"/>
				<path class="st6" d="M187.5,89.8c-4.5-3.6-8.5-6.8-13-10.4c4.5-2.4,8.7-4.8,13-7c1.2-0.6,2,0.3,1.9,1.5
					C188.8,79.1,188.2,84.3,187.5,89.8z"/>
				<path class="st6" d="M209.4,64.2c0.5,5.9,1,11.3,1.5,17.1c-5.4-4.1-10.4-8-15.9-12.2C199.9,67.4,204.4,65.9,209.4,64.2z"/>
				<path class="st6" d="M232.9,73.2c-4.7-3.8-9-7.2-13.5-10.9c3.8-1,7.4-0.7,10.9-0.3c0.3,0,0.8,0.7,0.9,1.2
					C231.8,66.4,232.3,69.6,232.9,73.2z"/>
				<path class="st6" d="M192.5,148.6c0.8,3.1,1.4,5.5,2.1,8.4c-2.5-0.6-4.7-1.1-7.2-1.7C189,153,190.6,151,192.5,148.6z"/>
			</g>
		</g>
	</g>
</g>
<g id="smoke">
</g>
</svg>
