<?xml version="1.0" encoding="utf-8"?>
<!-- Generator: Adobe Illustrator 19.1.0, SVG Export Plug-In . SVG Version: 6.00 Build 0)  -->
<svg version="1.1" id="Layer_1" xmlns="http://www.w3.org/2000/svg" xmlns:xlink="http://www.w3.org/1999/xlink" x="0px" y="0px"
	 viewBox="0 2 360 317" style="enable-background:new 0 2 360 317;" xml:space="preserve">
<style type="text/css">
	.st0{fill:none;stroke:#4F5169;stroke-width:3;stroke-miterlimit:10;}
</style>
<g>
	<path class="st0" d="M173.6,139.1c2.1,0,4.2,0,6.4,0c6.8,0,13.5,0.2,20,0.5"/>
	<path class="st0" d="M252.1,146.2c27,6.1,44.3,15.5,44.3,26.1c0,18.3-52.1,33.2-116.4,33.2c-64.3,0-116.4-14.9-116.4-33.2
		c0-10,15.6-19,40.2-25.1"/>
	<path class="st0" d="M296.4,172.3c0,59.6-52.1,108-116.4,108c-64.3,0-116.4-48.3-116.4-108"/>
	<g>
		<path class="st0" d="M267.3,117.9c3.6-6,0.9-11.6-6-12.6l-70.1-9.8c-6.9-1-10,3.4-7,9.6l35,72.7c3,6.3,8.4,6.5,12,0.5L267.3,117.9
			z"/>
		<path class="st0" d="M170.3,104c-0.6-6.9-6.2-9.9-12.3-6.6L95.7,131c-6.1,3.3-6.1,8.7,0,11.9l71.2,37.9c6.1,3.3,10.6,0.3,10-6.6
			L170.3,104z"/>
	</g>
	<path class="st0" d="M222.5,119.3c0,2.2-1.8,4-4,4c-2.2,0-4-1.8-4-4c0-2.2,1.8-4,4-4C220.7,115.2,222.5,117,222.5,119.3z"/>
	<path class="st0" d="M240.3,127.3c0,2.2-1.8,4-4,4c-2.2,0-4-1.8-4-4c0-2.2,1.8-4,4-4C238.5,123.3,240.3,125.1,240.3,127.3z"/>
	<path class="st0" d="M230,146.2c0,2.2-1.8,4-4,4c-2.2,0-4-1.8-4-4c0-2.2,1.8-4,4-4C228.2,142.2,230,144,230,146.2z"/>
	<path class="st0" d="M156.1,127.3c0,2.2-1.8,4-4,4c-2.2,0-4-1.8-4-4c0-2.2,1.8-4,4-4C154.3,123.3,156.1,125.1,156.1,127.3z"/>
	<path class="st0" d="M134,135.4c0,2.2-1.8,4-4,4c-2.2,0-4-1.8-4-4c0-2.2,1.8-4,4-4C132.2,131.4,134,133.2,134,135.4z"/>
	<circle class="st0" cx="153.8" cy="150.2" r="4"/>
</g>
</svg>
