<?xml version="1.0" encoding="utf-8"?>
<!-- Generator: Adobe Illustrator 19.1.0, SVG Export Plug-In . SVG Version: 6.00 Build 0)  -->
<svg version="1.1" id="Layer_1" xmlns="http://www.w3.org/2000/svg" xmlns:xlink="http://www.w3.org/1999/xlink" x="0px" y="0px"
	 viewBox="-146 322.4 542.1 365.6" style="enable-background:new -146 322.4 542.1 365.6;" xml:space="preserve">
<style type="text/css">
	.st0{fill:#E8E9EA;}
	.st1{fill:#DDD3B2;}
	.st2{fill:#00A79F;}
	.st3{fill:#FBF1CB;}
	.st4{fill:#362027;}
</style>
<ellipse class="st0" cx="123.5" cy="626.7" rx="250.6" ry="11.8"/>
<g>
	<g>
		<path class="st1" d="M141.1,444.2c-25.2,2.8-48.9,8.4-70.9,16.2c-21.7,10.6-41.9,19.4-59.8,29.8c-17.9,11.5-33,26.1-45.4,40.5
			c-12.3,15-21.7,30-27.3,48c-5.5,18.7-8.2,32.5-6.1,52.5c0.2,2.3,9.5,1.3,25.2-2.8c15.8-2.6,38.8-0.9,65.1-7.1
			c26.1-5.1,56.9-6.1,88.9-9.8c31.8-3.4,65.1-7.1,96.9-10.6c23.8-2.6,46.9-5.1,68.3-7.5c21.1-3.3,40.4-6.9,57.1-6.2
			c16.5-0.8,29.6-5.8,39.2-4.2c9.5,1.1,14.3-4.7,14.6-1.7c-2-19.4-7.8-33.4-17.3-50c-9.2-14.3-22.5-33.8-37.1-40.9
			c-15-8.5-33.8-26.7-53.1-29.6c-19.9-7.8-41.9-13.3-64.9-16.2C190.8,441.8,166.3,441.4,141.1,444.2z"/>
	</g>
	
		<ellipse transform="matrix(0.1087 0.9941 -0.9941 0.1087 851.5613 155.6015)" class="st2" cx="339" cy="552.7" rx="22.3" ry="28.6"/>
	
		<ellipse transform="matrix(0.1087 0.9941 -0.9941 0.1087 675.6752 184.6794)" class="st2" cx="234.8" cy="469.1" rx="30.6" ry="39.3"/>
	
		<ellipse transform="matrix(7.721459e-02 0.997 -0.997 7.721459e-02 804.5322 169.6113)" class="st2" cx="310.6" cy="519.4" rx="32.9" ry="42.2"/>
	
		<ellipse transform="matrix(7.721459e-02 0.997 -0.997 7.721459e-02 748.2722 152.4868)" class="st2" cx="291.8" cy="480.5" rx="32.9" ry="42.2"/>
	<g>
		<path class="st3" d="M101.5,444.2c-25.2,2.8-48.9,8.4-70.9,16.2C8.8,471-11.4,479.8-29.4,490.1c-17.9,11.5-33,26.1-45.4,40.5
			c-12.3,15-21.7,30-27.3,48c-5.5,18.7-8.2,32.5-6.1,52.5c0.2,2.3,9.5,1.3,25.2-2.8c15.8-2.6,38.8-0.9,65.1-7.1
			C8.3,616,39,615.1,71,611.4c31.8-3.4,65.1-7.1,96.9-10.6c23.8-2.6,46.9-5.1,68.3-7.5c21.1-3.3,40.4-6.9,57.1-6.2
			c16.5-0.8,29.6-5.8,39.2-4.2c9.5,1.1,14.3-4.7,14.6-1.7c-2-19.4-7.8-33.4-17.3-50c-9.2-14.3-22.5-33.8-37.1-40.9
			c-15-8.5-33.8-26.7-53.1-29.6c-19.9-7.8-41.9-13.3-64.9-16.2C151.1,441.8,126.6,441.4,101.5,444.2z"/>
	</g>
	<g>
		<g>
			<g>
				<path class="st4" d="M25.4,523.1c1.1-0.2,1-1.8-0.2-1.8C24,521.3,24.2,523.2,25.4,523.1L25.4,523.1z"/>
			</g>
		</g>
		<g>
			<g>
				<path class="st4" d="M-21.1,569.8c1.1-0.2,1-1.8-0.2-1.8C-22.5,568.2-22.3,569.8-21.1,569.8L-21.1,569.8z"/>
			</g>
		</g>
		<g>
			<g>
				<path class="st4" d="M-6.5,543.3c1.1-0.2,1-1.8-0.2-1.8C-7.9,541.6-7.6,543.4-6.5,543.3L-6.5,543.3z"/>
			</g>
		</g>
		<g>
			<g>
				<path class="st4" d="M20.7,572.8c1.1-0.2,1-1.8-0.2-1.8C19.3,571,19.6,572.8,20.7,572.8L20.7,572.8z"/>
			</g>
		</g>
		<g>
			<g>
				<path class="st4" d="M50.2,541.8c1.1-0.2,1-1.8-0.2-1.8C48.7,540,48.9,541.9,50.2,541.8L50.2,541.8z"/>
			</g>
		</g>
		<g>
			<g>
				<path class="st4" d="M108.3,566.9c1.1-0.2,1-1.8-0.2-1.8C106.8,565.2,107.1,567,108.3,566.9L108.3,566.9z"/>
			</g>
		</g>
		<g>
			<g>
				<path class="st4" d="M102.6,503.4c1.1-0.2,1-1.8-0.2-1.8C101.1,501.5,101.3,503.6,102.6,503.4L102.6,503.4z"/>
			</g>
		</g>
		<g>
			<g>
				<path class="st4" d="M60.6,500.4c1.1-0.2,1-1.8-0.2-1.8C59.3,498.7,59.4,500.6,60.6,500.4L60.6,500.4z"/>
			</g>
		</g>
		<g>
			<g>
				<path class="st4" d="M121.3,536.7c1.1-0.2,1-1.8-0.2-1.8C119.9,534.8,120.1,536.7,121.3,536.7L121.3,536.7z"/>
			</g>
		</g>
		<g>
			<g>
				<path class="st4" d="M210.4,533c1.1-0.2,1-1.8-0.2-1.8C209,531.3,209.2,533.2,210.4,533L210.4,533z"/>
			</g>
		</g>
		<g>
			<g>
				<path class="st4" d="M179.6,493.5c1.1-0.2,1-1.8-0.2-1.8C178.1,491.9,178.4,493.7,179.6,493.5L179.6,493.5z"/>
			</g>
		</g>
		<g>
			<g>
				<path class="st4" d="M165.4,536.8c1.1-0.2,1-1.8-0.2-1.8C163.9,535.1,164.2,536.9,165.4,536.8L165.4,536.8z"/>
			</g>
		</g>
		<g>
			<g>
				<path class="st4" d="M210.5,557.1c1.1-0.2,1-1.8-0.2-1.8C209,555.3,209.3,557.1,210.5,557.1L210.5,557.1z"/>
			</g>
		</g>
		<g>
			<g>
				<path class="st4" d="M243.5,548.3c1.1-0.2,1-1.8-0.2-1.8C242.1,546.5,242.4,548.5,243.5,548.3L243.5,548.3z"/>
			</g>
		</g>
		<g>
			<g>
				<path class="st4" d="M229.9,504.4c1.1-0.2,1-1.8-0.2-1.8C228.5,502.7,228.8,504.6,229.9,504.4L229.9,504.4z"/>
			</g>
		</g>
		<g>
			<g>
				<path class="st4" d="M110.4,483.6c1.1-0.2,1-1.8-0.2-1.8C109,481.9,109.3,483.7,110.4,483.6L110.4,483.6z"/>
			</g>
		</g>
		<g>
			<g>
				<path class="st4" d="M-37.4,537.6c1.1-0.2,1-1.8-0.2-1.8C-38.6,535.9-38.5,537.8-37.4,537.6L-37.4,537.6z"/>
			</g>
		</g>
	</g>
</g>
</svg>
