<?xml version="1.0" encoding="utf-8"?>
<!-- Generator: Adobe Illustrator 19.1.0, SVG Export Plug-In . SVG Version: 6.00 Build 0)  -->
<svg version="1.1" id="Layer_1" xmlns="http://www.w3.org/2000/svg" xmlns:xlink="http://www.w3.org/1999/xlink" x="0px" y="0px"
	 viewBox="-249 384 527.1 365.6" style="enable-background:new -249 384 527.1 365.6;" xml:space="preserve">
<style type="text/css">
	.st0{fill:#DDD3B2;}
	.st1{fill:#00A79F;}
	.st2{fill:#FBF1CB;}
	.st3{fill:#362027;}
</style>
<g>
	<g>
		<path class="st0" d="M3.9,483.7c-24.9,4.6-48.2,11.9-69.6,21.2c-20.9,12.1-40.4,22.3-57.5,34c-17,12.7-31.1,28.4-42.4,43.6
			c-11.2,15.8-19.5,31.5-23.8,49.8c-4.2,19-5.9,33-2.3,52.8c0.4,2.3,9.6,0.6,24.9-4.6c15.6-3.7,38.6-3.7,64.4-11.7
			c25.7-7,56.3-10.1,88-16.1c31.5-5.7,64.4-11.7,95.9-17.5c23.6-4.3,46.4-8.4,67.6-12.4c20.8-4.8,39.8-9.8,56.5-10.3
			c16.4-2,29.1-7.9,38.8-7c9.6,0.4,13.9-5.7,14.4-2.7c-3.4-19.2-10.2-32.8-20.8-48.6c-10.2-13.6-24.9-32.1-39.9-38.1
			c-15.6-7.4-35.6-24.2-55.1-25.7c-20.4-6.4-42.7-10.3-65.9-11.5C53.3,477.8,28.9,479.2,3.9,483.7z"/>
	</g>
	
		<ellipse transform="matrix(-0.9838 0.1794 -0.1794 -0.9838 518.3585 1108.7677)" class="st1" cx="209" cy="577.8" rx="28.6" ry="22.3"/>
	
		<ellipse transform="matrix(-0.9838 0.1794 -0.1794 -0.9838 286.8637 977.899)" class="st1" cx="99.2" cy="501.9" rx="39.3" ry="30.6"/>
	
		<ellipse transform="matrix(-0.989 0.1482 -0.1482 -0.989 435.9587 1060.8157)" class="st1" cx="178.5" cy="546.6" rx="42.2" ry="32.9"/>
	
		<ellipse transform="matrix(-0.989 0.1482 -0.1482 -0.989 387.427 989.4215)" class="st1" cx="156.9" cy="509.1" rx="42.2" ry="32.9"/>
	<g>
		<path class="st2" d="M-35.6,486.6c-24.9,4.6-48.2,11.9-69.6,21.2c-20.9,12.1-40.4,22.3-57.6,33.9c-17,12.7-31.1,28.4-42.4,43.6
			c-11.2,15.8-19.5,31.5-23.8,49.8c-4.2,19-5.9,33-2.3,52.8c0.4,2.3,9.6,0.6,24.9-4.6c15.6-3.7,38.6-3.7,64.4-11.7
			c25.7-7,56.3-10.1,88-16.1c31.5-5.7,64.4-11.7,95.9-17.5c23.6-4.3,46.4-8.4,67.6-12.4c20.8-4.8,39.8-9.8,56.5-10.3
			c16.4-2,29.1-7.9,38.8-7c9.6,0.4,13.9-5.7,14.4-2.7c-3.4-19.2-10.2-32.8-20.8-48.6c-10.2-13.6-24.9-32.1-39.9-38.1
			c-15.6-7.4-35.6-24.2-55.1-25.7c-20.4-6.4-42.7-10.3-65.9-11.5C13.7,480.6-10.7,482-35.6,486.6z"/>
	</g>
	<g>
		<g>
			<g>
				<path class="st3" d="M-105.8,570.7c1.1-0.3,0.9-1.9-0.3-1.8C-107.4,569-107,570.9-105.8,570.7L-105.8,570.7z"/>
			</g>
		</g>
		<g>
			<g>
				<path class="st3" d="M-148.9,620.6c1.1-0.3,0.9-1.9-0.3-1.8C-150.4,619.1-150.1,620.7-148.9,620.6L-148.9,620.6z"/>
			</g>
		</g>
		<g>
			<g>
				<path class="st3" d="M-136.2,593.1c1.1-0.3,0.9-1.9-0.3-1.8C-137.7,591.5-137.3,593.3-136.2,593.1L-136.2,593.1z"/>
			</g>
		</g>
		<g>
			<g>
				<path class="st3" d="M-107,620.6c1.1-0.3,0.9-1.9-0.3-1.8C-108.5,618.9-108.1,620.7-107,620.6L-107,620.6z"/>
			</g>
		</g>
		<g>
			<g>
				<path class="st3" d="M-79.8,587.6c1.1-0.3,0.9-1.9-0.3-1.8C-81.4,585.9-81,587.8-79.8,587.6L-79.8,587.6z"/>
			</g>
		</g>
		<g>
			<g>
				<path class="st3" d="M-20,608.5c1.1-0.3,0.9-1.9-0.3-1.8C-21.6,606.9-21.2,608.7-20,608.5L-20,608.5z"/>
			</g>
		</g>
		<g>
			<g>
				<path class="st3" d="M-30.2,545.5c1.1-0.3,0.9-1.9-0.3-1.8C-31.9,543.8-31.5,545.8-30.2,545.5L-30.2,545.5z"/>
			</g>
		</g>
		<g>
			<g>
				<path class="st3" d="M-72.3,545.5c1.1-0.3,0.9-1.9-0.3-1.8C-73.8,544-73.5,545.8-72.3,545.5L-72.3,545.5z"/>
			</g>
		</g>
		<g>
			<g>
				<path class="st3" d="M-9.2,577.4c1.1-0.3,0.9-1.9-0.3-1.8C-10.7,575.6-10.4,577.5-9.2,577.4L-9.2,577.4z"/>
			</g>
		</g>
		<g>
			<g>
				<path class="st3" d="M79.4,567.4c1.1-0.3,0.9-1.9-0.3-1.8C77.9,565.8,78.2,567.7,79.4,567.4L79.4,567.4z"/>
			</g>
		</g>
		<g>
			<g>
				<path class="st3" d="M45.9,530.2c1.1-0.3,0.9-1.9-0.3-1.8C44.3,528.7,44.7,530.5,45.9,530.2L45.9,530.2z"/>
			</g>
		</g>
		<g>
			<g>
				<path class="st3" d="M34.8,574.4c1.1-0.3,0.9-1.9-0.3-1.8C33.2,572.8,33.6,574.6,34.8,574.4L34.8,574.4z"/>
			</g>
		</g>
		<g>
			<g>
				<path class="st3" d="M81.2,591.4c1.1-0.3,0.9-1.9-0.3-1.8C79.6,589.7,80,591.5,81.2,591.4L81.2,591.4z"/>
			</g>
		</g>
		<g>
			<g>
				<path class="st3" d="M113.5,580.3c1.1-0.3,0.9-1.9-0.3-1.8C112,578.6,112.4,580.6,113.5,580.3L113.5,580.3z"/>
			</g>
		</g>
		<g>
			<g>
				<path class="st3" d="M96.8,537.5c1.1-0.3,0.9-1.9-0.3-1.8C95.3,535.9,95.7,537.7,96.8,537.5L96.8,537.5z"/>
			</g>
		</g>
		<g>
			<g>
				<path class="st3" d="M-23.9,525.2c1.1-0.3,0.9-1.9-0.3-1.8C-25.4,523.6-25,525.4-23.9,525.2L-23.9,525.2z"/>
			</g>
		</g>
		<g>
			<g>
				<path class="st3" d="M-167.4,589.6c1.1-0.3,0.9-1.9-0.3-1.8C-168.8,588-168.5,589.9-167.4,589.6L-167.4,589.6z"/>
			</g>
		</g>
	</g>
</g>
</svg>
