<?xml version="1.0" encoding="utf-8"?>
<!-- Generator: Adobe Illustrator 19.1.0, SVG Export Plug-In . SVG Version: 6.00 Build 0)  -->
<svg version="1.1" id="Layer_1" xmlns="http://www.w3.org/2000/svg" xmlns:xlink="http://www.w3.org/1999/xlink" x="0px" y="0px"
	 viewBox="-39.6 24.9 399.6 242" style="enable-background:new -39.6 24.9 399.6 242;" xml:space="preserve">
<style type="text/css">
	.st0{fill:#DDD3B2;}
	.st1{fill:#00A79F;}
	.st2{fill:#FBF1CB;}
	.st3{fill:#362027;}
</style>
<g>
	<g>
		<path class="st0" d="M164.9,76.9c-19.5,3.6-37.8,9.3-54.6,16.6C93.9,103,78.6,111,65.2,120.2c-13.3,10-24.4,22.3-33.3,34.2
			c-8.8,12.4-15.3,24.7-18.7,39.1c-3.3,14.9-4.6,25.9-1.8,41.4c0.3,1.8,7.5,0.5,19.5-3.6c12.2-2.9,30.3-2.9,50.5-9.2
			c20.2-5.5,44.2-7.9,69-12.6c24.7-4.5,50.5-9.2,75.2-13.7c18.5-3.4,36.4-6.6,53-9.7c16.3-3.8,31.2-7.7,44.3-8.1
			c12.9-1.6,22.8-6.2,30.4-5.5c7.5,0.3,10.9-4.5,11.3-2.1c-2.7-15.1-8-25.7-16.3-38.1c-8-10.7-19.5-25.2-31.3-29.9
			c-12.2-5.8-27.9-19-43.2-20.2c-16-5-33.5-8.1-51.7-9C203.6,72.3,184.5,73.4,164.9,76.9z"/>
	</g>
	
		<ellipse transform="matrix(-0.1794 -0.9838 0.9838 -0.1794 235.915 498.3279)" class="st1" cx="325.8" cy="150.8" rx="17.5" ry="22.4"/>
	
		<ellipse transform="matrix(-0.1794 -0.9838 0.9838 -0.1794 192.9219 343.2863)" class="st1" cx="239.6" cy="91.2" rx="24" ry="30.8"/>
	
		<ellipse transform="matrix(-0.1482 -0.989 0.989 -0.1482 221.6593 443.5937)" class="st1" cx="301.9" cy="126.3" rx="25.8" ry="33.1"/>
	
		<ellipse transform="matrix(-0.1482 -0.989 0.989 -0.1482 231.3651 392.9855)" class="st1" cx="284.9" cy="96.8" rx="25.8" ry="33.1"/>
	<g>
		<path class="st2" d="M133.9,79.2c-19.5,3.6-37.8,9.3-54.6,16.6c-16.4,9.5-31.7,17.5-45.2,26.6c-13.3,10-24.4,22.3-33.3,34.2
			c-8.8,12.4-15.3,24.7-18.7,39.1c-3.3,14.9-4.6,25.9-1.8,41.4c0.3,1.8,7.5,0.5,19.5-3.6c12.2-2.9,30.3-2.9,50.5-9.2
			c20.2-5.5,44.2-7.9,69-12.6c24.7-4.5,50.5-9.2,75.2-13.7c18.5-3.4,36.4-6.6,53-9.7c16.3-3.8,31.2-7.7,44.3-8.1
			c12.9-1.6,22.8-6.2,30.4-5.5c7.5,0.3,10.9-4.5,11.3-2.1c-2.7-15.1-8-25.7-16.3-38.1c-8-10.7-19.5-25.2-31.3-29.9
			c-12.2-5.8-27.9-19-43.2-20.2c-16-5-33.5-8.1-51.7-9C172.6,74.5,153.4,75.6,133.9,79.2z"/>
	</g>
	<g>
		<g>
			<g>
				<path class="st3" d="M78.8,145.2c0.9-0.2,0.7-1.5-0.2-1.4C77.6,143.8,77.9,145.3,78.8,145.2L78.8,145.2z"/>
			</g>
		</g>
		<g>
			<g>
				<path class="st3" d="M45,184.3c0.9-0.2,0.7-1.5-0.2-1.4C43.8,183.1,44.1,184.4,45,184.3L45,184.3z"/>
			</g>
		</g>
		<g>
			<g>
				<path class="st3" d="M55,162.7c0.9-0.2,0.7-1.5-0.2-1.4C53.8,161.5,54.1,162.9,55,162.7L55,162.7z"/>
			</g>
		</g>
		<g>
			<g>
				<path class="st3" d="M77.9,184.3c0.9-0.2,0.7-1.5-0.2-1.4C76.7,183,77,184.4,77.9,184.3L77.9,184.3z"/>
			</g>
		</g>
		<g>
			<g>
				<path class="st3" d="M99.2,158.4c0.9-0.2,0.7-1.5-0.2-1.4C98,157.1,98.3,158.6,99.2,158.4L99.2,158.4z"/>
			</g>
		</g>
		<g>
			<g>
				<path class="st3" d="M146.1,174.8c0.9-0.2,0.7-1.5-0.2-1.4C144.9,173.6,145.2,175,146.1,174.8L146.1,174.8z"/>
			</g>
		</g>
		<g>
			<g>
				<path class="st3" d="M138.1,125.4c0.9-0.2,0.7-1.5-0.2-1.4C136.8,124.1,137.1,125.6,138.1,125.4L138.1,125.4z"/>
			</g>
		</g>
		<g>
			<g>
				<path class="st3" d="M105.1,125.4c0.9-0.2,0.7-1.5-0.2-1.4C103.9,124.2,104.2,125.6,105.1,125.4L105.1,125.4z"/>
			</g>
		</g>
		<g>
			<g>
				<path class="st3" d="M154.6,150.4c0.9-0.2,0.7-1.5-0.2-1.4C153.4,149,153.7,150.5,154.6,150.4L154.6,150.4z"/>
			</g>
		</g>
		<g>
			<g>
				<path class="st3" d="M224.1,142.6c0.9-0.2,0.7-1.5-0.2-1.4C222.9,141.3,223.2,142.8,224.1,142.6L224.1,142.6z"/>
			</g>
		</g>
		<g>
			<g>
				<path class="st3" d="M197.8,113.4c0.9-0.2,0.7-1.5-0.2-1.4C196.6,112.2,196.9,113.6,197.8,113.4L197.8,113.4z"/>
			</g>
		</g>
		<g>
			<g>
				<path class="st3" d="M189.1,148.1c0.9-0.2,0.7-1.5-0.2-1.4C187.9,146.8,188.2,148.2,189.1,148.1L189.1,148.1z"/>
			</g>
		</g>
		<g>
			<g>
				<path class="st3" d="M225.5,161.4c0.9-0.2,0.7-1.5-0.2-1.4C224.3,160.1,224.6,161.5,225.5,161.4L225.5,161.4z"/>
			</g>
		</g>
		<g>
			<g>
				<path class="st3" d="M250.9,152.7c0.9-0.2,0.7-1.5-0.2-1.4C249.7,151.4,250,152.9,250.9,152.7L250.9,152.7z"/>
			</g>
		</g>
		<g>
			<g>
				<path class="st3" d="M237.8,119.1c0.9-0.2,0.7-1.5-0.2-1.4C236.6,117.9,236.9,119.3,237.8,119.1L237.8,119.1z"/>
			</g>
		</g>
		<g>
			<g>
				<path class="st3" d="M143.1,109.5c0.9-0.2,0.7-1.5-0.2-1.4C141.9,108.2,142.2,109.6,143.1,109.5L143.1,109.5z"/>
			</g>
		</g>
		<g>
			<g>
				<path class="st3" d="M30.5,160c0.9-0.2,0.7-1.5-0.2-1.4C29.4,158.7,29.6,160.2,30.5,160L30.5,160z"/>
			</g>
		</g>
	</g>
</g>
</svg>
