<?xml version="1.0" encoding="utf-8"?>
<!-- Generator: Adobe Illustrator 19.1.0, SVG Export Plug-In . SVG Version: 6.00 Build 0)  -->
<svg version="1.1" id="Layer_1" xmlns="http://www.w3.org/2000/svg" xmlns:xlink="http://www.w3.org/1999/xlink" x="0px" y="0px"
	 viewBox="-251 276.9 360 313.1" style="enable-background:new -251 276.9 360 313.1;" xml:space="preserve">
<style type="text/css">
	.st0{fill:#DDD3B2;}
	.st1{fill:#00A79F;}
	.st2{fill:#FBF1CB;}
	.st3{fill:#362027;}
</style>
<g>
	<g>
		<path class="st0" d="M-57.7,386.9c-17.1,0-33.5,2-48.8,5.6c-15.4,5.5-29.6,9.9-42.4,15.6c-12.8,6.4-24.1,15.1-33.5,23.8
			c-9.4,9.1-16.8,18.6-21.9,30.2c-5.1,12.1-7.9,21.2-7.9,34.8c0,1.6,6.3,1.6,17.1,0c10.8-0.6,26.1,2.2,44.2,0
			c18-1.5,38.7,0.1,60.4,0c21.6,0,44.2,0,65.8,0c16.2,0,31.9,0,46.4,0c14.4-0.7,27.6-1.7,38.8,0c11.2,0.6,20.3-1.7,26.6,0
			c6.3,1.4,9.9-2.1,9.9,0c0-13.2-2.8-23-7.9-34.8c-5.1-10.3-12.6-24.4-21.9-30.2c-9.4-6.8-20.7-20.4-33.5-23.8
			c-12.8-6.7-27.1-12-42.4-15.6C-24.2,388.9-40.6,386.9-57.7,386.9z"/>
	</g>
	<ellipse class="st1" cx="67.2" cy="474.3" rx="19.3" ry="15.1"/>
	<ellipse class="st1" cx="3.4" cy="410.5" rx="26.5" ry="20.7"/>
	
		<ellipse transform="matrix(0.9995 3.163200e-02 -3.163200e-02 0.9995 14.258 -1.3782)" class="st1" cx="50.7" cy="449.9" rx="28.5" ry="22.2"/>
	
		<ellipse transform="matrix(0.9995 3.163200e-02 -3.163200e-02 0.9995 13.379 -1.0813)" class="st1" cx="40.9" cy="422.3" rx="28.5" ry="22.2"/>
	<g>
		<path class="st2" d="M-84.3,384c-17.1,0-33.5,2-48.8,5.6c-15.4,5.5-29.6,9.9-42.4,15.6c-12.8,6.4-24.1,15.1-33.5,23.8
			c-9.4,9.1-16.8,18.6-21.9,30.2c-5.1,12.1-7.9,21.2-7.9,34.8c0,1.6,6.3,1.6,17.1,0c10.8-0.6,26.1,2.2,44.2,0
			c18-1.5,38.7,0.1,60.4,0c21.6,0,44.2,0,65.8,0c16.2,0,31.9,0,46.4,0c14.4-0.7,27.6-1.7,38.8,0c11.2,0.6,20.3-1.7,26.6,0
			c6.3,1.4,9.9-2.1,9.9,0c0-13.2-2.8-23-7.9-34.8c-5.1-10.3-12.6-24.4-21.9-30.2c-9.4-6.8-20.7-20.4-33.5-23.8
			c-12.8-6.7-27.1-12-42.4-15.6C-50.8,386-67.3,384-84.3,384z"/>
	</g>
	<g>
		<g>
			<g>
				<path class="st3" d="M-141.2,431.4c0.8,0,0.8-1.2,0-1.2C-142,430.1-142,431.4-141.2,431.4L-141.2,431.4z"/>
			</g>
		</g>
		<g>
			<g>
				<path class="st3" d="M-175.9,459.3c0.8,0,0.8-1.2,0-1.2C-176.7,458.1-176.7,459.3-175.9,459.3L-175.9,459.3z"/>
			</g>
		</g>
		<g>
			<g>
				<path class="st3" d="M-164.1,442.6c0.8,0,0.8-1.2,0-1.2C-164.9,441.4-164.9,442.6-164.1,442.6L-164.1,442.6z"/>
			</g>
		</g>
		<g>
			<g>
				<path class="st3" d="M-148,464.4c0.8,0,0.8-1.2,0-1.2C-148.8,463.1-148.8,464.4-148,464.4L-148,464.4z"/>
			</g>
		</g>
		<g>
			<g>
				<path class="st3" d="M-126,445.8c0.8,0,0.8-1.2,0-1.2C-126.8,444.5-126.8,445.8-126,445.8L-126,445.8z"/>
			</g>
		</g>
		<g>
			<g>
				<path class="st3" d="M-88.8,466.9c0.8,0,0.8-1.2,0-1.2C-89.6,465.7-89.6,466.9-88.8,466.9L-88.8,466.9z"/>
			</g>
		</g>
		<g>
			<g>
				<path class="st3" d="M-87.9,423.8c0.8,0,0.8-1.2,0-1.2C-88.8,422.5-88.8,423.8-87.9,423.8L-87.9,423.8z"/>
			</g>
		</g>
		<g>
			<g>
				<path class="st3" d="M-115.9,418.7c0.8,0,0.8-1.2,0-1.2C-116.7,417.5-116.7,418.7-115.9,418.7L-115.9,418.7z"/>
			</g>
		</g>
		<g>
			<g>
				<path class="st3" d="M-77.8,447.5c0.8,0,0.8-1.2,0-1.2C-78.6,446.2-78.6,447.5-77.8,447.5L-77.8,447.5z"/>
			</g>
		</g>
		<g>
			<g>
				<path class="st3" d="M-17.7,451.7c0.8,0,0.8-1.2,0-1.2C-18.5,450.4-18.5,451.7-17.7,451.7L-17.7,451.7z"/>
			</g>
		</g>
		<g>
			<g>
				<path class="st3" d="M-35.5,422.9c0.8,0,0.8-1.2,0-1.2C-36.3,421.7-36.3,422.9-35.5,422.9L-35.5,422.9z"/>
			</g>
		</g>
		<g>
			<g>
				<path class="st3" d="M-48.2,450.9c0.8,0,0.8-1.2,0-1.2C-49,449.6-49,450.9-48.2,450.9L-48.2,450.9z"/>
			</g>
		</g>
		<g>
			<g>
				<path class="st3" d="M-19.4,467.8c0.8,0,0.8-1.2,0-1.2C-20.2,466.5-20.2,467.8-19.4,467.8L-19.4,467.8z"/>
			</g>
		</g>
		<g>
			<g>
				<path class="st3" d="M3.4,464.4c0.8,0,0.8-1.2,0-1.2C2.6,463.1,2.6,464.4,3.4,464.4L3.4,464.4z"/>
			</g>
		</g>
		<g>
			<g>
				<path class="st3" d="M-2.5,433.9c0.8,0,0.8-1.2,0-1.2C-3.3,432.7-3.3,433.9-2.5,433.9L-2.5,433.9z"/>
			</g>
		</g>
		<g>
			<g>
				<path class="st3" d="M-81.2,411.1c0.8,0,0.8-1.2,0-1.2C-82,409.8-82,411.1-81.2,411.1L-81.2,411.1z"/>
			</g>
		</g>
		<g>
			<g>
				<path class="st3" d="M-184.4,436.5c0.8,0,0.8-1.2,0-1.2C-185.2,435.2-185.2,436.5-184.4,436.5L-184.4,436.5z"/>
			</g>
		</g>
	</g>
</g>
</svg>
