<?xml version="1.0" encoding="utf-8"?>
<!-- Generator: Adobe Illustrator 19.1.0, SVG Export Plug-In . SVG Version: 6.00 Build 0)  -->
<svg version="1.1" xmlns="http://www.w3.org/2000/svg" xmlns:xlink="http://www.w3.org/1999/xlink" x="0px" y="0px"
	 viewBox="0 24.9 360 313.1" style="enable-background:new 0 24.9 360 313.1;" xml:space="preserve">

<g id="body">
	<g>
		<path class="st0" d="M200.4,198.4v-82.5H52.1v82.5v9.2v84.7h40.2c0-15,7.5-27.1,16.7-27.1s16.7,12.1,16.7,27.1h37.2
			c0-15,7.5-27.1,16.7-27.1c9.2,0,16.7,12.1,16.7,27.1h39.4c0-15,7.5-27.1,16.7-27.1c9.2,0,16.7,12.1,16.7,27.1h49v-93.9H200.4z"/>
		<path class="st0" d="M318.6,292.8h-50v-0.5c0-14.7-7.3-26.6-16.2-26.6s-16.2,11.9-16.2,26.6v0.5h-40.4v-0.5
			c0-14.7-7.3-26.6-16.2-26.6c-8.9,0-16.2,11.9-16.2,26.6v0.5h-38.2v-0.5c0-14.7-7.3-26.6-16.2-26.6s-16.2,11.9-16.2,26.6v0.5H51.6
			V115.4h149.3v82.5h117.7V292.8z M269.6,291.8h48v-92.9H199.9v-82.5H52.6v175.4h39.2c0.2-15,7.8-27.1,17.2-27.1s17,12.1,17.2,27.1
			h36.2c0.2-15,7.8-27.1,17.2-27.1c9.4,0,17,12.1,17.2,27.1h38.4c0.2-15,7.8-27.1,17.2-27.1S269.4,276.8,269.6,291.8z"/>
	</g>
</g>
<g id="Layer_1">
	<g class="st1">
		<ellipse class="st2" cx="190.6" cy="326.7" rx="139.5" ry="4.5"/>
	</g>
	<g>
		<rect x="78.1" y="130.7" class="st3" width="96.3" height="62.1"/>
	</g>
	<g>
		<rect x="216.4" y="113.6" class="st4" width="27.3" height="84.8"/>
	</g>
	<g>
		<ellipse class="st5" cx="108.2" cy="301.4" rx="11.4" ry="27.1"/>
	</g>
	<g>
		<ellipse class="st5" cx="179.2" cy="301.4" rx="11.4" ry="27.1"/>
	</g>
	<g>
		<ellipse class="st5" cx="251.8" cy="301.4" rx="11.4" ry="27.1"/>
	</g>
	<g>
		<rect x="89.5" y="144.4" class="st5" width="1" height="33.9"/>
	</g>
	<g>
		<rect x="98" y="138" class="st5" width="1" height="33.9"/>
	</g>
	<g>
		<rect x="107.2" y="304.8" class="st5" width="139.6" height="4"/>
	</g>
</g>
<g id="smoke">
	<g>
		<path class="st6" d="M215.3,86.7c6.2,11,19.8,15,30.2,9.1c5.5-3.1,9.1-8.4,10.3-14.3c3.8,1.4,8.1,1.2,11.8-0.9
			c7-4,9.3-13.1,5.1-20.4c-1.5-2.7-3.7-4.7-6.2-6c0.1-4.5-1-9.2-3.4-13.5c-6.9-12.2-22-16.7-33.6-10.1c-7.1,4-11.3,11.3-11.9,19.2
			c-7-5.9-16.9-7.3-25-2.7c-10.5,6-13.9,19.7-7.7,30.6C191.3,88.6,204.8,92.7,215.3,86.7z"/>
	</g>
</g>
</svg>
