<?xml version="1.0" encoding="utf-8"?>
<!-- Generator: Adobe Illustrator 19.1.0, SVG Export Plug-In . SVG Version: 6.00 Build 0)  -->
<svg version="1.1" id="Layer_1" xmlns="http://www.w3.org/2000/svg" xmlns:xlink="http://www.w3.org/1999/xlink" x="0px" y="0px"
	 viewBox="-215 348.9 360 313.1" style="enable-background:new -215 348.9 360 313.1;" xml:space="preserve">
<style type="text/css">
	.st0{fill:#404041;}
	.st1{fill:none;stroke:#404041;stroke-miterlimit:10;}
	.st2{fill:#4F5169;}
	.st3{fill:#F9F7E9;}
	.st4{fill:#00A79F;}
	.st5{fill:#E6E7E8;}
	.st6{fill:none;stroke:#404041;stroke-width:4;stroke-miterlimit:10;}
</style>
<ellipse class="st0" cx="-116.6" cy="626.2" rx="11.3" ry="26.8"/>
<line class="st1" x1="-134.6" y1="470.9" x2="-134.6" y2="504.4"/>
<line class="st1" x1="-126.1" y1="464.5" x2="-126.1" y2="498.1"/>
<rect x="-172.1" y="442.6" class="st2" width="146.8" height="90.7"/>
<rect x="-146.4" y="457.3" class="st3" width="95.3" height="61.5"/>
<rect x="-9.5" y="440.4" class="st4" width="27" height="83.9"/>
<g>
	<path class="st2" d="M-172.1,524.4v92.9h39.8c0-14.8,7.4-26.8,16.5-26.8s16.5,12,16.5,26.8h36.8c0-14.8,7.4-26.8,16.5-26.8
		s16.5,12,16.5,26.8h39c0-14.8,7.4-26.8,16.5-26.8s16.5,12,16.5,26.8H91v-92.9H-172.1z"/>
</g>
<path class="st5" d="M-10.6,413.8c6.2,10.9,19.6,14.9,29.9,9c5.5-3.1,9-8.3,10.2-14.2c3.8,1.4,8,1.2,11.7-0.9
	c6.9-3.9,9.2-12.9,5.1-20.2c-1.5-2.6-3.6-4.6-6.1-6c0.1-4.5-1-9.1-3.4-13.4c-6.9-12.1-21.7-16.5-33.3-10c-7,4-11.2,11.2-11.8,19
	c-6.9-5.9-16.7-7.2-24.7-2.7c-10.4,5.9-13.8,19.5-7.6,30.3C-34.3,415.7-20.9,419.7-10.6,413.8z"/>
<ellipse class="st0" cx="-46.3" cy="626.2" rx="11.3" ry="26.8"/>
<ellipse class="st0" cx="25.5" cy="626.2" rx="11.3" ry="26.8"/>
<line class="st6" x1="-117.5" y1="631.6" x2="20.5" y2="631.6"/>
<line class="st1" x1="-105.9" y1="462.4" x2="-90.6" y2="497.1"/>
<line class="st1" x1="-111.5" y1="470.7" x2="-92.4" y2="513.9"/>
</svg>
