<?xml version="1.0" encoding="utf-8"?>
<!-- Generator: Adobe Illustrator 19.1.0, SVG Export Plug-In . SVG Version: 6.00 Build 0)  -->
<svg version="1.1" xmlns="http://www.w3.org/2000/svg" xmlns:xlink="http://www.w3.org/1999/xlink" x="0px" y="0px"
	 viewBox="0 24.9 360 313.1" style="enable-background:new 0 24.9 360 313.1;" xml:space="preserve">
<style type="text/css">
	.st0{opacity:9.000000e-02;fill:#372128;enable-background:new    ;}
	.st1{fill:#4F5069;}
	.st2{fill:#E6E7E8;}
	.st3{fill:#00A8A0;}
	.st4{fill:#414042;}
	.st5{fill:none;stroke:#414042;stroke-miterlimit:10;}
	.st6{fill:none;stroke:#414042;stroke-width:4;stroke-miterlimit:10;}
</style>
<g id="Layer_1">
	<ellipse class="st0" cx="190.6" cy="326.7" rx="139.5" ry="4.5"/>
	<rect x="52.1" y="115.9" class="st1" width="148.3" height="91.7"/>
	<rect x="78.1" y="130.7" class="st2" width="96.3" height="62.1"/>
	<rect x="216.4" y="113.6" class="st3" width="27.3" height="84.8"/>
	<g>
		<path class="st1" d="M52.1,198.4v93.9h40.2c0-15,7.5-27.1,16.7-27.1s16.7,12.1,16.7,27.1h37.2c0-15,7.5-27.1,16.7-27.1
			s16.7,12.1,16.7,27.1h39.4c0-15,7.5-27.1,16.7-27.1s16.7,12.1,16.7,27.1h49v-93.9H52.1z"/>
	</g>
	<ellipse class="st4" cx="108.2" cy="301.4" rx="11.4" ry="27.1"/>
	<ellipse class="st4" cx="179.2" cy="301.4" rx="11.4" ry="27.1"/>
	<ellipse class="st4" cx="251.8" cy="301.4" rx="11.4" ry="27.1"/>
	<line class="st5" x1="90" y1="144.4" x2="90" y2="178.3"/>
	<line class="st5" x1="98.5" y1="138" x2="98.5" y2="171.9"/>
	<line class="st6" x1="107.2" y1="306.8" x2="246.8" y2="306.8"/>
</g>
<g id="smoke">
	<path class="st2" d="M215.3,86.7c6.2,11,19.8,15,30.2,9.1c5.5-3.1,9.1-8.4,10.3-14.3c3.8,1.4,8.1,1.2,11.8-0.9
		c7-4,9.3-13.1,5.1-20.4c-1.5-2.7-3.7-4.7-6.2-6c0.1-4.5-1-9.2-3.4-13.5c-6.9-12.2-22-16.7-33.6-10.1c-7.1,4-11.3,11.3-11.9,19.2
		c-7-5.9-16.9-7.3-25-2.7c-10.5,6-13.9,19.7-7.7,30.6C191.3,88.6,204.8,92.7,215.3,86.7z"/>
</g>
</svg>
