<?xml version="1.0" encoding="utf-8"?>
<!-- Generator: Adobe Illustrator 19.1.0, SVG Export Plug-In . SVG Version: 6.00 Build 0)  -->
<svg version="1.1" id="Layer_1" xmlns="http://www.w3.org/2000/svg" xmlns:xlink="http://www.w3.org/1999/xlink" x="0px" y="0px"
	 viewBox="-215 348.9 360 313.1" style="enable-background:new -215 348.9 360 313.1;" xml:space="preserve">
<style type="text/css">
	.st0{fill:#404041;}
	.st1{fill:none;stroke:#404041;stroke-miterlimit:10;}
	.st2{opacity:9.000000e-02;fill:#362027;}
	.st3{fill:#4F5169;}
	.st4{fill:#F9F7E9;}
	.st5{fill:#00A79F;}
	.st6{fill:#E6E7E8;}
	.st7{fill:none;stroke:#404041;stroke-width:4;stroke-miterlimit:10;}
</style>
<g>
	<ellipse class="st0" cx="-95.4" cy="622.6" rx="11.3" ry="26.8"/>
	<line class="st1" x1="-113.4" y1="467.3" x2="-113.4" y2="500.8"/>
	<line class="st1" x1="-104.9" y1="460.9" x2="-104.9" y2="494.5"/>
	<g>
		<ellipse class="st2" cx="-13.8" cy="647.7" rx="138" ry="4.5"/>
		<rect x="-150.9" y="439" class="st3" width="146.8" height="90.7"/>
		<rect x="-125.2" y="453.7" class="st4" width="95.3" height="61.5"/>
		<rect x="11.7" y="436.8" class="st5" width="27" height="83.9"/>
		<g>
			<path class="st3" d="M-150.9,520.8v92.9h39.8c0-14.8,7.4-26.8,16.5-26.8s16.5,12,16.5,26.8h36.8c0-14.8,7.4-26.8,16.5-26.8
				s16.5,12,16.5,26.8h39c0-14.8,7.4-26.8,16.5-26.8c9.1,0,16.5,12,16.5,26.8h48.5v-92.9H-150.9z"/>
		</g>
		<path class="st6" d="M10.6,410.2c6.2,10.9,19.6,14.9,29.9,9c5.5-3.1,9-8.3,10.2-14.2c3.8,1.4,8,1.2,11.7-0.9
			c6.9-3.9,9.2-12.9,5.1-20.2c-1.5-2.6-3.6-4.6-6.1-6c0.1-4.5-1-9.1-3.4-13.4c-6.9-12.1-21.7-16.5-33.3-10c-7,4-11.2,11.2-11.8,19
			c-6.9-5.9-16.7-7.2-24.7-2.7c-10.4,5.9-13.8,19.5-7.6,30.3C-13.1,412.1,0.3,416.1,10.6,410.2z"/>
		<ellipse class="st0" cx="-25.1" cy="622.6" rx="11.3" ry="26.8"/>
		<ellipse class="st0" cx="46.7" cy="622.6" rx="11.3" ry="26.8"/>
		<line class="st7" x1="-96.3" y1="628" x2="41.7" y2="628"/>
	</g>
</g>
<line class="st1" x1="-84.7" y1="458.8" x2="-69.4" y2="493.5"/>
<line class="st1" x1="-90.3" y1="467.1" x2="-71.2" y2="510.3"/>
</svg>
