<?xml version="1.0" encoding="utf-8"?>
<!-- Generator: Adobe Illustrator 19.1.0, SVG Export Plug-In . SVG Version: 6.00 Build 0)  -->
<svg version="1.1" id="Layer_1" xmlns="http://www.w3.org/2000/svg" xmlns:xlink="http://www.w3.org/1999/xlink" x="0px" y="0px"
	 viewBox="0 0 360 313.1" style="enable-background:new 0 0 360 313.1;" xml:space="preserve">
<style type="text/css">
	.st0{fill:#00A8A0;}
</style>
<g>
	<path class="st0" d="M355.5,47.7c-12.9,5.7-26.8,9.6-41.3,11.3c14.9-8.9,26.3-23,31.7-39.8c-13.9,8.3-29.3,14.2-45.7,17.5
		c-13.1-14-31.8-22.7-52.6-22.7c-39.8,0-72,32.2-72,72c0,5.6,0.6,11.1,1.9,16.4C117.5,99.4,64.5,70.7,29,27.1
		c-6.2,10.6-9.7,23-9.7,36.2c0,25,12.7,47,32,59.9c-11.8-0.4-22.9-3.6-32.6-9c0,0.3,0,0.6,0,0.9c0,34.9,24.8,64,57.8,70.6
		c-6,1.6-12.4,2.5-19,2.5c-4.6,0-9.1-0.5-13.5-1.3c9.2,28.6,35.7,49.4,67.3,50c-24.6,19.3-55.7,30.8-89.4,30.8
		c-5.8,0-11.5-0.3-17.2-1c31.9,20.4,69.7,32.3,110.4,32.3c132.4,0,204.8-109.7,204.8-204.8c0-3.1-0.1-6.2-0.2-9.3
		C333.6,74.8,345.8,62.2,355.5,47.7z"/>
</g>
</svg>
