<?xml version="1.0" encoding="utf-8"?>
<!-- Generator: Adobe Illustrator 19.1.0, SVG Export Plug-In . SVG Version: 6.00 Build 0)  -->
<svg version="1.1" xmlns="http://www.w3.org/2000/svg" xmlns:xlink="http://www.w3.org/1999/xlink" x="0px" y="0px"
	 viewBox="0 0 799.92 799.92" enable-background="new 0 0 799.92 799.92" xml:space="preserve">
<g id="Background">
</g>
<g id="Objects_1_">
	<g>
		<g>
			<g>
				<path fill-rule="evenodd" clip-rule="evenodd" fill="#FFFFFF" stroke="#CECECC" stroke-width="0.5" stroke-miterlimit="10" d="
					M799.348,617.548H661.797c-11.516,0-20.938,9.423-20.938,20.938v0.001c0,11.515,9.422,20.938,20.938,20.938h137.551V617.548z"/>
			</g>
			<g>
				<path fill="#FFFFFF" stroke="#CECECC" stroke-width="0.5" stroke-miterlimit="10" d="M799.348,614.467H661.797
					c-6.607,0-12.613,2.702-16.965,7.054c-4.352,4.352-7.055,10.357-7.055,16.966v0.001c0,6.607,2.703,12.613,7.055,16.965
					c4.352,4.353,10.357,7.054,16.965,7.054h137.551v-6.162H661.797c-4.906,0-9.371-2.01-12.609-5.248
					c-3.236-3.237-5.248-7.702-5.248-12.608v-0.001c0-4.907,2.012-9.371,5.248-12.609c3.238-3.237,7.703-5.248,12.609-5.248h137.551
					V614.467z"/>
			</g>
			<g>
				<path fill-rule="evenodd" clip-rule="evenodd" fill="#FFFFFF" stroke="#CECECC" stroke-width="0.5" stroke-miterlimit="10" d="
					M799.348,628.368c-4.123,1.512-7.064,5.471-7.064,10.119c0,4.646,2.941,8.605,7.064,10.117V628.368z"/>
			</g>
			<g>
				
					<circle fill-rule="evenodd" clip-rule="evenodd" fill="#FFFFFF" stroke="#CECECC" stroke-width="0.5" stroke-miterlimit="10" cx="767.715" cy="638.486" r="10.773"/>
			</g>
			<g>
				
					<circle fill-rule="evenodd" clip-rule="evenodd" fill="#FFFFFF" stroke="#CECECC" stroke-width="0.5" stroke-miterlimit="10" cx="732.373" cy="638.486" r="10.773"/>
			</g>
			<g>
				
					<circle fill-rule="evenodd" clip-rule="evenodd" fill="#FFFFFF" stroke="#CECECC" stroke-width="0.5" stroke-miterlimit="10" cx="697.033" cy="638.486" r="10.773"/>
			</g>
			<g>
				
					<circle fill-rule="evenodd" clip-rule="evenodd" fill="#FFFFFF" stroke="#CECECC" stroke-width="0.5" stroke-miterlimit="10" cx="661.693" cy="638.486" r="10.773"/>
			</g>
			<g>
				<path fill-rule="evenodd" clip-rule="evenodd" fill="#FFFFFF" stroke="#CECECC" stroke-width="0.5" stroke-miterlimit="10" d="
					M799.348,635.629H660.705c-1.572,0-2.857,1.287-2.857,2.857v0.001c0,1.569,1.287,2.857,2.857,2.857h138.643V635.629z"/>
			</g>
			<g>
				
					<circle fill-rule="evenodd" clip-rule="evenodd" fill="#FFFFFF" stroke="#CECECC" stroke-width="0.5" stroke-miterlimit="10" cx="767.715" cy="638.486" r="3.481"/>
			</g>
			<g>
				
					<circle fill-rule="evenodd" clip-rule="evenodd" fill="#FFFFFF" stroke="#CECECC" stroke-width="0.5" stroke-miterlimit="10" cx="732.375" cy="638.486" r="3.481"/>
			</g>
			<g>
				
					<circle fill-rule="evenodd" clip-rule="evenodd" fill="#FFFFFF" stroke="#CECECC" stroke-width="0.5" stroke-miterlimit="10" cx="697.033" cy="638.486" r="3.481"/>
			</g>
		</g>
		<g>
			<g>
				<path fill="#FFFFFF" stroke="#CECECC" stroke-width="0.5" stroke-miterlimit="10" d="M665.385,729.804
					c-5.245,0-10.512-0.457-15.652-1.357c-0.784-0.138-1.482-0.581-1.939-1.233c-0.457-0.651-0.636-1.459-0.497-2.243l0.872-4.945
					c-2.718-0.58-5.412-1.301-8.058-2.154l-1.719,4.725c-0.566,1.556-2.29,2.357-3.846,1.793c-4.906-1.786-9.698-4.023-14.243-6.652
					c-1.434-0.829-1.924-2.663-1.096-4.097l2.517-4.357c-2.352-1.479-4.635-3.079-6.827-4.788l-3.227,3.847
					c-0.512,0.61-1.245,0.991-2.038,1.061c-0.788,0.07-1.58-0.179-2.19-0.691c-4.002-3.361-7.74-7.099-11.109-11.108
					c-0.512-0.609-0.761-1.397-0.691-2.19c0.068-0.793,0.45-1.525,1.06-2.037l3.848-3.229c-1.711-2.194-3.312-4.477-4.789-6.826
					l-4.356,2.515c-1.436,0.83-3.267,0.338-4.097-1.095c-2.621-4.529-4.859-9.321-6.652-14.242
					c-0.271-0.747-0.236-1.572,0.101-2.294c0.336-0.721,0.944-1.279,1.692-1.552l4.727-1.721c-0.854-2.645-1.574-5.339-2.154-8.058
					l-4.947,0.872c-0.78,0.142-1.59-0.04-2.242-0.498c-0.652-0.456-1.096-1.154-1.233-1.938c-0.902-5.147-1.359-10.414-1.359-15.652
					c0-1.657,1.343-3,3-3h5.027c0.101-2.782,0.34-5.561,0.718-8.308l-4.951-0.873c-1.631-0.287-2.72-1.841-2.435-3.471
					c0.903-5.163,2.269-10.273,4.058-15.188c0.566-1.557,2.287-2.36,3.846-1.793l4.726,1.72c1.047-2.574,2.227-5.101,3.529-7.557
					l-4.352-2.513c-0.689-0.397-1.192-1.054-1.398-1.823c-0.205-0.769-0.097-1.588,0.302-2.277
					c2.615-4.518,5.652-8.845,9.026-12.862c1.062-1.267,2.955-1.435,4.226-0.368l3.85,3.23c1.862-2.06,3.834-4.03,5.895-5.895
					l-3.229-3.851c-1.063-1.269-0.898-3.159,0.369-4.225c4.015-3.373,8.342-6.41,12.86-9.026c0.689-0.398,1.509-0.509,2.277-0.302
					c0.77,0.206,1.426,0.709,1.823,1.398l2.513,4.352c2.46-1.305,4.987-2.485,7.558-3.531l-1.72-4.724
					c-0.566-1.557,0.236-3.278,1.793-3.846c4.91-1.787,10.02-3.153,15.187-4.059c1.626-0.282,3.184,0.804,3.472,2.434l0.874,4.954
					c2.751-0.379,5.528-0.62,8.307-0.721v-5.025c0-1.657,1.343-3,3-3c5.242,0,10.51,0.457,15.654,1.358
					c0.784,0.138,1.482,0.581,1.939,1.233c0.457,0.651,0.636,1.459,0.497,2.243l-0.872,4.945c2.718,0.58,5.412,1.301,8.058,2.154
					l1.719-4.725c0.566-1.557,2.287-2.359,3.846-1.793c4.913,1.788,9.704,4.026,14.242,6.652c1.433,0.829,1.923,2.663,1.096,4.097
					l-2.516,4.357c2.352,1.478,4.634,3.079,6.827,4.788l3.227-3.847c0.512-0.61,1.245-0.992,2.038-1.061
					c0.79-0.073,1.58,0.179,2.19,0.691c4.002,3.361,7.74,7.099,11.109,11.108c0.512,0.609,0.761,1.397,0.691,2.19
					c-0.068,0.793-0.45,1.526-1.061,2.038l-3.848,3.228c1.71,2.194,3.312,4.477,4.789,6.826l4.357-2.516
					c1.435-0.83,3.268-0.337,4.097,1.096c2.626,4.542,4.864,9.333,6.652,14.242c0.271,0.747,0.236,1.573-0.101,2.294
					c-0.336,0.722-0.945,1.279-1.692,1.552l-4.727,1.72c0.854,2.646,1.574,5.34,2.154,8.058l4.946-0.872
					c0.787-0.141,1.592,0.041,2.243,0.497c0.652,0.457,1.096,1.155,1.233,1.939c0.9,5.141,1.357,10.407,1.357,15.652
					c0,1.657-1.343,3-3,3h-5.025c-0.101,2.782-0.34,5.561-0.718,8.308l4.951,0.873c1.631,0.287,2.72,1.841,2.435,3.471
					c-0.903,5.165-2.269,10.275-4.058,15.189c-0.566,1.556-2.29,2.358-3.846,1.793l-4.726-1.72
					c-1.046,2.571-2.226,5.098-3.529,7.556l4.352,2.513c0.689,0.397,1.192,1.054,1.398,1.822c0.205,0.77,0.097,1.589-0.302,2.278
					c-2.61,4.511-5.647,8.838-9.025,12.861c-1.065,1.268-2.957,1.434-4.226,0.37l-3.852-3.231c-1.863,2.062-3.835,4.032-5.896,5.896
					l3.23,3.85c1.065,1.269,0.9,3.161-0.368,4.226c-4.021,3.377-8.348,6.413-12.862,9.026c-0.689,0.398-1.51,0.508-2.278,0.302
					s-1.425-0.709-1.823-1.398l-2.512-4.353c-2.458,1.305-4.984,2.485-7.556,3.531l1.72,4.725c0.566,1.558-0.236,3.278-1.793,3.846
					c-4.909,1.786-10.018,3.151-15.186,4.059c-1.627,0.281-3.185-0.803-3.473-2.434l-0.874-4.954
					c-2.75,0.378-5.528,0.619-8.309,0.72v5.025C668.385,728.461,667.042,729.804,665.385,729.804z M653.735,723.001
					c2.861,0.396,5.754,0.647,8.649,0.75v-4.918c0-1.657,1.343-3,3-3c4.434,0,8.887-0.386,13.234-1.147
					c1.628-0.283,3.184,0.803,3.472,2.434l0.855,4.847c2.834-0.603,5.64-1.353,8.389-2.241l-1.682-4.621
					c-0.566-1.557,0.236-3.278,1.793-3.846c4.146-1.509,8.193-3.4,12.029-5.621c0.689-0.398,1.507-0.508,2.278-0.302
					c0.769,0.206,1.425,0.709,1.823,1.398l2.457,4.258c2.445-1.536,4.821-3.204,7.106-4.988l-3.161-3.767
					c-1.064-1.269-0.9-3.16,0.368-4.226c3.386-2.845,6.546-6.005,9.393-9.392c1.066-1.266,2.957-1.433,4.225-0.369l3.768,3.161
					c1.786-2.286,3.454-4.662,4.989-7.106l-4.257-2.458c-0.689-0.397-1.192-1.054-1.398-1.822c-0.205-0.77-0.097-1.589,0.302-2.277
					c2.219-3.836,4.109-7.883,5.619-12.03c0.568-1.557,2.29-2.357,3.846-1.793l4.622,1.683c0.89-2.752,1.64-5.558,2.241-8.392
					l-4.844-0.854c-1.631-0.287-2.72-1.84-2.435-3.471c0.76-4.343,1.145-8.796,1.145-13.235c0-0.796,0.316-1.559,0.879-2.121
					s1.325-0.879,2.121-0.879h4.918c-0.103-2.896-0.354-5.788-0.75-8.649l-4.838,0.854c-0.786,0.143-1.591-0.04-2.243-0.497
					c-0.652-0.458-1.096-1.155-1.233-1.939c-0.763-4.355-1.917-8.672-3.431-12.827c-0.271-0.747-0.236-1.573,0.101-2.294
					c0.336-0.722,0.945-1.279,1.692-1.552l4.624-1.683c-1.087-2.678-2.316-5.31-3.676-7.868l-4.262,2.46
					c-1.436,0.83-3.267,0.338-4.097-1.095c-2.211-3.818-4.777-7.477-7.629-10.873c-0.512-0.609-0.76-1.397-0.69-2.189
					c0.069-0.793,0.45-1.526,1.061-2.038l3.764-3.157c-1.939-2.148-3.992-4.201-6.138-6.139l-3.157,3.764
					c-0.512,0.61-1.245,0.992-2.038,1.061c-0.793,0.069-1.58-0.179-2.19-0.691c-3.39-2.847-7.048-5.413-10.873-7.626
					c-1.434-0.829-1.924-2.663-1.097-4.097l2.462-4.264c-2.558-1.359-5.188-2.589-7.868-3.675l-1.682,4.622
					c-0.272,0.747-0.83,1.356-1.552,1.692c-0.721,0.338-1.546,0.371-2.294,0.101c-4.155-1.514-8.471-2.668-12.827-3.431
					c-0.784-0.138-1.482-0.581-1.939-1.233c-0.457-0.651-0.636-1.459-0.497-2.243l0.854-4.837c-2.863-0.396-5.756-0.647-8.651-0.75
					v4.917c0,1.657-1.343,3-3,3c-4.429,0-8.881,0.387-13.232,1.148c-1.63,0.28-3.185-0.804-3.472-2.434l-0.855-4.847
					c-2.834,0.602-5.64,1.352-8.39,2.241l1.683,4.621c0.271,0.748,0.236,1.573-0.101,2.294c-0.336,0.722-0.945,1.279-1.693,1.552
					c-4.143,1.508-8.19,3.398-12.031,5.62c-0.688,0.399-1.51,0.508-2.277,0.302c-0.769-0.206-1.425-0.709-1.822-1.398l-2.458-4.256
					c-2.446,1.536-4.822,3.204-7.105,4.987l3.161,3.769c1.063,1.269,0.898,3.16-0.369,4.225c-3.39,2.847-6.549,6.006-9.39,9.391
					c-1.065,1.266-2.955,1.434-4.227,0.368l-3.768-3.161c-1.784,2.284-3.451,4.66-4.988,7.106l4.257,2.458
					c0.689,0.397,1.192,1.054,1.398,1.823c0.205,0.769,0.097,1.588-0.302,2.277c-2.216,3.827-4.106,7.875-5.619,12.03
					c-0.567,1.557-2.287,2.36-3.846,1.793l-4.622-1.683c-0.89,2.752-1.64,5.558-2.241,8.391l4.844,0.854
					c1.631,0.287,2.72,1.841,2.435,3.471c-0.76,4.342-1.145,8.794-1.145,13.234c0,1.657-1.343,3-3,3h-4.919
					c0.103,2.894,0.354,5.786,0.75,8.649l4.84-0.853c0.782-0.141,1.59,0.041,2.243,0.498c0.651,0.457,1.095,1.154,1.232,1.938
					c0.764,4.357,1.917,8.673,3.431,12.826c0.271,0.747,0.236,1.572-0.101,2.294c-0.336,0.721-0.944,1.279-1.692,1.552l-4.624,1.684
					c1.088,2.682,2.317,5.312,3.676,7.867l4.262-2.46c1.436-0.831,3.269-0.337,4.097,1.096c2.209,3.819,4.775,7.477,7.628,10.871
					c0.512,0.609,0.761,1.396,0.691,2.19c-0.068,0.793-0.45,1.525-1.06,2.037l-3.765,3.159c1.939,2.148,3.992,4.201,6.138,6.139
					l3.157-3.764c0.512-0.61,1.245-0.992,2.038-1.061c0.79-0.071,1.58,0.179,2.19,0.691c3.39,2.847,7.048,5.413,10.873,7.626
					c1.434,0.829,1.924,2.663,1.096,4.097l-2.462,4.263c2.561,1.361,5.191,2.59,7.869,3.676l1.682-4.622
					c0.272-0.747,0.83-1.356,1.552-1.692c0.721-0.337,1.547-0.37,2.294-0.101c4.155,1.514,8.471,2.668,12.827,3.431
					c0.784,0.138,1.482,0.581,1.939,1.233c0.457,0.651,0.636,1.459,0.497,2.243L653.735,723.001z"/>
			</g>
			<g>
				<path fill-rule="evenodd" clip-rule="evenodd" fill="#FFFFFF" stroke="#CECECC" stroke-width="0.5" stroke-miterlimit="10" d="
					M679.137,561.669c4.594,0.805,9.051,2.006,13.336,3.566l2.727-7.492c4.801,1.747,9.402,3.904,13.766,6.43l-3.986,6.905
					c4.002,2.315,7.781,4.97,11.301,7.926l5.121-6.104c3.885,3.263,7.479,6.857,10.742,10.741l-6.105,5.122
					c2.955,3.519,5.611,7.298,7.928,11.299l6.904-3.986c2.523,4.364,4.682,8.967,6.43,13.767l-7.494,2.727
					c1.56,4.285,2.762,8.741,3.566,13.336l7.85-1.385c0.861,4.916,1.312,9.973,1.312,15.135l0,0h-7.971
					c0,4.69-0.408,9.285-1.19,13.752l7.848,1.383c-0.885,5.057-2.205,9.964-3.922,14.68l-7.492-2.727
					c-1.588,4.36-3.549,8.542-5.842,12.506l6.904,3.986c-2.549,4.404-5.475,8.562-8.727,12.436l-6.105-5.122
					c-2.965,3.528-6.231,6.794-9.76,9.759l5.123,6.105c-3.873,3.253-8.031,6.178-12.436,8.726l-3.986-6.905
					c-3.965,2.295-8.144,4.256-12.506,5.844l2.727,7.491c-4.717,1.717-9.623,3.036-14.678,3.923l-1.385-7.851
					c-4.467,0.782-9.06,1.192-13.752,1.192v7.971c-5.162,0-10.219-0.451-15.135-1.312l1.385-7.849
					c-4.594-0.805-9.051-2.006-13.336-3.567l-2.727,7.492c-4.801-1.747-9.402-3.905-13.768-6.43l3.988-6.905
					c-4.002-2.315-7.781-4.97-11.301-7.926l-5.121,6.105c-3.885-3.263-7.479-6.857-10.742-10.741l6.105-5.123
					c-2.957-3.518-5.613-7.297-7.928-11.299l-6.904,3.986c-2.525-4.363-4.682-8.967-6.43-13.766l7.494-2.728
					c-1.56-4.284-2.762-8.741-3.566-13.335l-7.85,1.384c-0.861-4.915-1.315-9.972-1.315-15.135l0,0h7.973
					c0-4.69,0.408-9.285,1.189-13.751l-7.848-1.384c0.885-5.057,2.205-9.963,3.922-14.679l7.492,2.727
					c1.588-4.36,3.547-8.542,5.842-12.507l-6.904-3.986c2.549-4.403,5.473-8.562,8.727-12.436l6.105,5.123
					c2.963-3.528,6.23-6.795,9.758-9.758l-5.121-6.105c3.873-3.254,8.031-6.178,12.434-8.727l3.986,6.904
					c3.965-2.294,8.146-4.256,12.508-5.843l-2.727-7.491c4.715-1.717,9.623-3.037,14.678-3.923l1.385,7.851
					c4.467-0.782,9.061-1.193,13.75-1.193v-7.971c5.164,0,10.221,0.452,15.137,1.314L679.137,561.669z"/>
			</g>
		</g>
		<g>
			<g>
				<path fill-rule="evenodd" clip-rule="evenodd" fill="#FFFFFF" stroke="#CECECC" stroke-width="0.5" stroke-miterlimit="10" d="
					M799.348,422.338H571.674c-11.516,0-20.938,9.423-20.938,20.938l0,0c0,11.516,9.422,20.939,20.938,20.939h227.674V422.338z"/>
			</g>
			<g>
				<path fill="#FFFFFF" stroke="#CECECC" stroke-width="0.5" stroke-miterlimit="10" d="M799.348,419.257H571.674
					c-6.607,0-12.615,2.701-16.967,7.053c-4.352,4.352-7.053,10.358-7.053,16.967l0,0c0,6.608,2.701,12.614,7.053,16.966
					c4.352,4.353,10.359,7.054,16.967,7.054h227.674v-6.162H571.674c-4.908,0-9.371-2.011-12.609-5.248
					c-3.238-3.238-5.248-7.702-5.248-12.609l0,0c0-4.908,2.01-9.372,5.248-12.609c3.236-3.237,7.701-5.248,12.609-5.248h227.674
					V419.257z"/>
			</g>
			<g>
				
					<circle fill-rule="evenodd" clip-rule="evenodd" fill="#FFFFFF" stroke="#CECECC" stroke-width="0.5" stroke-miterlimit="10" cx="783.613" cy="443.276" r="10.773"/>
			</g>
			<g>
				
					<circle fill-rule="evenodd" clip-rule="evenodd" fill="#FFFFFF" stroke="#CECECC" stroke-width="0.5" stroke-miterlimit="10" cx="748.271" cy="443.276" r="10.773"/>
			</g>
			<g>
				
					<circle fill-rule="evenodd" clip-rule="evenodd" fill="#FFFFFF" stroke="#CECECC" stroke-width="0.5" stroke-miterlimit="10" cx="712.932" cy="443.276" r="10.773"/>
			</g>
			<g>
				
					<circle fill-rule="evenodd" clip-rule="evenodd" fill="#FFFFFF" stroke="#CECECC" stroke-width="0.5" stroke-miterlimit="10" cx="677.59" cy="443.276" r="10.773"/>
			</g>
			<g>
				
					<circle fill-rule="evenodd" clip-rule="evenodd" fill="#FFFFFF" stroke="#CECECC" stroke-width="0.5" stroke-miterlimit="10" cx="642.25" cy="443.276" r="10.773"/>
			</g>
			<g>
				
					<circle fill-rule="evenodd" clip-rule="evenodd" fill="#FFFFFF" stroke="#CECECC" stroke-width="0.5" stroke-miterlimit="10" cx="606.91" cy="443.276" r="10.773"/>
			</g>
			<g>
				
					<circle fill-rule="evenodd" clip-rule="evenodd" fill="#FFFFFF" stroke="#CECECC" stroke-width="0.5" stroke-miterlimit="10" cx="571.57" cy="443.276" r="10.773"/>
			</g>
			<g>
				<path fill-rule="evenodd" clip-rule="evenodd" fill="#FFFFFF" stroke="#CECECC" stroke-width="0.5" stroke-miterlimit="10" d="
					M799.348,440.419H570.582c-1.572,0-2.857,1.287-2.857,2.857l0,0c0,1.57,1.287,2.858,2.857,2.858h228.766V440.419z"/>
			</g>
			<g>
				
					<circle fill-rule="evenodd" clip-rule="evenodd" fill="#FFFFFF" stroke="#CECECC" stroke-width="0.5" stroke-miterlimit="10" cx="783.613" cy="443.275" r="3.481"/>
			</g>
			<g>
				
					<circle fill-rule="evenodd" clip-rule="evenodd" fill="#FFFFFF" stroke="#CECECC" stroke-width="0.5" stroke-miterlimit="10" cx="748.271" cy="443.275" r="3.481"/>
			</g>
			<g>
				
					<circle fill-rule="evenodd" clip-rule="evenodd" fill="#FFFFFF" stroke="#CECECC" stroke-width="0.5" stroke-miterlimit="10" cx="712.932" cy="443.275" r="3.481"/>
			</g>
			<g>
				
					<circle fill-rule="evenodd" clip-rule="evenodd" fill="#FFFFFF" stroke="#CECECC" stroke-width="0.5" stroke-miterlimit="10" cx="677.592" cy="443.275" r="3.481"/>
			</g>
			<g>
				
					<circle fill-rule="evenodd" clip-rule="evenodd" fill="#FFFFFF" stroke="#CECECC" stroke-width="0.5" stroke-miterlimit="10" cx="642.25" cy="443.275" r="3.481"/>
			</g>
			<g>
				
					<circle fill-rule="evenodd" clip-rule="evenodd" fill="#FFFFFF" stroke="#CECECC" stroke-width="0.5" stroke-miterlimit="10" cx="606.91" cy="443.275" r="3.481"/>
			</g>
		</g>
		<g>
			<path fill-rule="evenodd" clip-rule="evenodd" fill="#FFFFFF" stroke="#CECECC" stroke-width="0.5" stroke-miterlimit="10" d="
				M606.91,446.757c1.918,0,3.48-1.563,3.48-3.481c0-1.917-1.562-3.482-3.48-3.482c-1.918,0-3.482,1.565-3.482,3.482
				C603.428,445.193,604.992,446.757,606.91,446.757z"/>
		</g>
		<g>
			<g>
				<g>
					<path fill-rule="evenodd" clip-rule="evenodd" fill="#FFFFFF" stroke="#CECECC" stroke-width="0.5" stroke-miterlimit="10" d="
						M385.267,601.819l174.852-174.853c8.145-8.143,21.469-8.143,29.611,0v0.001c8.143,8.142,8.143,21.468,0,29.61L414.879,631.431
						c-8.143,8.143-21.468,8.143-29.611,0h-0.001C377.124,623.287,377.124,609.962,385.267,601.819z"/>
				</g>
				<g>
					<path fill="#FFFFFF" stroke="#CECECC" stroke-width="0.5" stroke-miterlimit="10" d="M487.498,495.229l70.443-70.442
						c4.672-4.673,10.83-7.009,16.984-7.009s12.31,2.336,16.984,7.009v0.001c4.672,4.673,7.01,10.829,7.01,16.984
						c0,6.154-2.338,12.311-7.01,16.984l-104.412,104.41v-8.715l100.055-100.054c3.471-3.47,5.205-8.048,5.205-12.626
						c0-4.579-1.734-9.157-5.205-12.627v-0.001c-3.471-3.47-8.049-5.205-12.627-5.205s-9.156,1.735-12.627,5.205l-74.801,74.8
						V495.229z M383.088,599.64l104.41-104.41v8.715L387.446,603.998c-3.47,3.47-5.206,8.048-5.206,12.627
						c0,4.578,1.735,9.156,5.206,12.626l0,0.001c3.47,3.47,8.048,5.205,12.626,5.205c4.579,0,9.158-1.735,12.626-5.205l74.799-74.8
						v8.715l-70.441,70.442c-4.672,4.673-10.83,7.009-16.984,7.009c-6.154,0-12.312-2.336-16.984-7.009l0-0.001
						c-4.672-4.672-7.009-10.829-7.009-16.983S378.415,604.313,383.088,599.64z"/>
				</g>
				<g>
					
						<circle fill-rule="evenodd" clip-rule="evenodd" fill="#FFFFFF" stroke="#CECECC" stroke-width="0.5" stroke-miterlimit="10" cx="400.072" cy="616.625" r="10.773"/>
				</g>
				<g>
					
						<circle fill-rule="evenodd" clip-rule="evenodd" fill="#FFFFFF" stroke="#CECECC" stroke-width="0.5" stroke-miterlimit="10" cx="425.062" cy="591.636" r="10.772"/>
				</g>
				<g>
					
						<circle fill-rule="evenodd" clip-rule="evenodd" fill="#FFFFFF" stroke="#CECECC" stroke-width="0.5" stroke-miterlimit="10" cx="450.052" cy="566.646" r="10.773"/>
				</g>
				<g>
					
						<circle fill-rule="evenodd" clip-rule="evenodd" fill="#FFFFFF" stroke="#CECECC" stroke-width="0.5" stroke-miterlimit="10" cx="475.041" cy="541.656" r="10.772"/>
				</g>
				<g>
					
						<circle fill-rule="evenodd" clip-rule="evenodd" fill="#FFFFFF" stroke="#CECECC" stroke-width="0.5" stroke-miterlimit="10" cx="500.031" cy="516.667" r="10.772"/>
				</g>
				<g>
					
						<circle fill-rule="evenodd" clip-rule="evenodd" fill="#FFFFFF" stroke="#CECECC" stroke-width="0.5" stroke-miterlimit="10" cx="525.019" cy="491.677" r="10.773"/>
				</g>
				<g>
					
						<circle fill-rule="evenodd" clip-rule="evenodd" fill="#FFFFFF" stroke="#CECECC" stroke-width="0.5" stroke-miterlimit="10" cx="550.01" cy="466.688" r="10.772"/>
				</g>
				<g>
					
						<circle fill-rule="evenodd" clip-rule="evenodd" fill="#FFFFFF" stroke="#CECECC" stroke-width="0.5" stroke-miterlimit="10" cx="574.999" cy="441.698" r="10.773"/>
				</g>
				<g>
					<path fill-rule="evenodd" clip-rule="evenodd" fill="#FFFFFF" stroke="#CECECC" stroke-width="0.5" stroke-miterlimit="10" d="
						M397.77,614.886l175.908-175.906c1.111-1.112,2.93-1.111,4.041,0l0,0c1.109,1.11,1.109,2.931,0,4.041L401.81,618.928
						c-1.109,1.11-2.929,1.111-4.04,0v-0.001C396.658,617.815,396.658,615.998,397.77,614.886z"/>
				</g>
			</g>
			<g>
				<path fill-rule="evenodd" clip-rule="evenodd" fill="#FFFFFF" stroke="#CECECC" stroke-width="0.5" stroke-miterlimit="10" d="
					M550.01,470.169c1.918,0,3.48-1.564,3.48-3.481c0-1.918-1.562-3.482-3.48-3.482c-1.918,0-3.482,1.564-3.482,3.482
					C546.527,468.604,548.092,470.169,550.01,470.169z"/>
			</g>
			<g>
				<path fill-rule="evenodd" clip-rule="evenodd" fill="#FFFFFF" stroke="#CECECC" stroke-width="0.5" stroke-miterlimit="10" d="
					M525.019,495.158c1.918,0,3.483-1.563,3.483-3.481c0-1.918-1.565-3.481-3.483-3.481c-1.916,0-3.48,1.564-3.48,3.481
					C521.539,493.595,523.104,495.158,525.019,495.158z"/>
			</g>
			<g>
				<path fill-rule="evenodd" clip-rule="evenodd" fill="#FFFFFF" stroke="#CECECC" stroke-width="0.5" stroke-miterlimit="10" d="
					M500.031,520.147c1.916,0,3.48-1.563,3.48-3.481c0-1.917-1.564-3.482-3.48-3.482c-1.918,0-3.482,1.564-3.482,3.482
					C496.549,518.584,498.113,520.147,500.031,520.147z"/>
			</g>
			<g>
				<path fill-rule="evenodd" clip-rule="evenodd" fill="#FFFFFF" stroke="#CECECC" stroke-width="0.5" stroke-miterlimit="10" d="
					M475.041,545.138c1.918,0,3.482-1.565,3.482-3.482c0-1.917-1.564-3.48-3.482-3.48c-1.918,0-3.48,1.563-3.48,3.48
					C471.56,543.573,473.123,545.138,475.041,545.138z"/>
			</g>
			<g>
				<path fill-rule="evenodd" clip-rule="evenodd" fill="#FFFFFF" stroke="#CECECC" stroke-width="0.5" stroke-miterlimit="10" d="
					M450.051,570.127c1.918,0,3.482-1.563,3.482-3.481c0-1.918-1.564-3.482-3.482-3.482c-1.916,0-3.48,1.563-3.48,3.482
					C446.57,568.563,448.135,570.127,450.051,570.127z"/>
			</g>
			<g>
				<path fill-rule="evenodd" clip-rule="evenodd" fill="#FFFFFF" stroke="#CECECC" stroke-width="0.5" stroke-miterlimit="10" d="
					M425.062,595.116c1.918,0,3.48-1.564,3.48-3.482c0-1.917-1.562-3.481-3.48-3.481s-3.482,1.565-3.482,3.481
					C421.58,593.553,423.145,595.116,425.062,595.116z"/>
			</g>
		</g>
		<g>
			<path fill-rule="evenodd" clip-rule="evenodd" fill="#FFFFFF" stroke="#CECECC" stroke-width="0.5" stroke-miterlimit="10" d="
				M425.062,595.116c1.918,0,3.48-1.564,3.48-3.482c0-1.917-1.562-3.481-3.48-3.481s-3.482,1.565-3.482,3.481
				C421.58,593.553,423.145,595.116,425.062,595.116z"/>
		</g>
		<g>
			<g>
				<g>
					<path fill-rule="evenodd" clip-rule="evenodd" fill="#FFFFFF" stroke="#CECECC" stroke-width="0.5" stroke-miterlimit="10" d="
						M400.346,595.784h-247.28c-11.516,0-20.938,9.423-20.938,20.938l0,0c0,11.516,9.423,20.938,20.938,20.938h247.28
						c11.515,0,20.937-9.422,20.937-20.938l0,0C421.283,605.206,411.861,595.784,400.346,595.784z"/>
				</g>
				<g>
					<path fill="#FFFFFF" stroke="#CECECC" stroke-width="0.5" stroke-miterlimit="10" d="M400.346,592.703h-123.64v6.162h123.64
						c4.908,0,9.373,2.011,12.609,5.248c3.238,3.237,5.248,7.702,5.248,12.609l0,0c0,4.907-2.01,9.372-5.248,12.609
						c-3.238,3.237-7.701,5.248-12.609,5.248h-123.64v6.162h123.64c6.609,0,12.615-2.701,16.966-7.054
						c4.352-4.352,7.053-10.357,7.053-16.966l0,0c0-6.608-2.701-12.614-7.053-16.966
						C412.961,595.405,406.955,592.703,400.346,592.703z M276.706,592.703h-123.64c-6.608,0-12.614,2.702-16.966,7.054
						c-4.352,4.352-7.053,10.357-7.053,16.966l0,0c0,6.608,2.701,12.614,7.053,16.966c4.352,4.352,10.358,7.054,16.966,7.054h123.64
						v-6.162h-123.64c-4.908,0-9.372-2.011-12.609-5.248c-3.238-3.237-5.248-7.702-5.248-12.609l0,0
						c0-4.907,2.01-9.372,5.248-12.609c3.237-3.237,7.701-5.248,12.609-5.248h123.64V592.703z"/>
				</g>
				<g>
					<path fill-rule="evenodd" clip-rule="evenodd" fill="#FFFFFF" stroke="#CECECC" stroke-width="0.5" stroke-miterlimit="10" d="
						M400.346,627.495c5.933,0,10.773-4.84,10.773-10.772c0-5.934-4.84-10.772-10.773-10.772c-5.934,0-10.772,4.839-10.772,10.772
						C389.574,622.655,394.413,627.495,400.346,627.495z"/>
				</g>
				<g>
					<path fill-rule="evenodd" clip-rule="evenodd" fill="#FFFFFF" stroke="#CECECC" stroke-width="0.5" stroke-miterlimit="10" d="
						M365.006,627.495c5.934,0,10.772-4.84,10.772-10.772c0-5.934-4.839-10.772-10.772-10.772c-5.933,0-10.773,4.839-10.773,10.772
						C354.233,622.655,359.073,627.495,365.006,627.495z"/>
				</g>
				<g>
					<path fill-rule="evenodd" clip-rule="evenodd" fill="#FFFFFF" stroke="#CECECC" stroke-width="0.5" stroke-miterlimit="10" d="
						M329.665,627.495c5.933,0,10.772-4.84,10.772-10.772c0-5.934-4.839-10.772-10.772-10.772c-5.934,0-10.773,4.839-10.773,10.772
						C318.893,622.655,323.732,627.495,329.665,627.495z"/>
				</g>
				<g>
					<path fill-rule="evenodd" clip-rule="evenodd" fill="#FFFFFF" stroke="#CECECC" stroke-width="0.5" stroke-miterlimit="10" d="
						M294.325,627.495c5.933,0,10.772-4.84,10.772-10.772c0-5.934-4.839-10.772-10.772-10.772c-5.933,0-10.773,4.839-10.773,10.772
						C283.552,622.655,288.392,627.495,294.325,627.495z"/>
				</g>
				<g>
					<path fill-rule="evenodd" clip-rule="evenodd" fill="#FFFFFF" stroke="#CECECC" stroke-width="0.5" stroke-miterlimit="10" d="
						M258.984,627.495c5.933,0,10.772-4.84,10.772-10.772c0-5.934-4.839-10.772-10.772-10.772c-5.934,0-10.773,4.839-10.773,10.772
						C248.211,622.655,253.051,627.495,258.984,627.495z"/>
				</g>
				<g>
					<path fill-rule="evenodd" clip-rule="evenodd" fill="#FFFFFF" stroke="#CECECC" stroke-width="0.5" stroke-miterlimit="10" d="
						M223.644,627.495c5.933,0,10.772-4.84,10.772-10.772c0-5.934-4.839-10.772-10.772-10.772c-5.934,0-10.773,4.839-10.773,10.772
						C212.871,622.655,217.71,627.495,223.644,627.495z"/>
				</g>
				<g>
					<path fill-rule="evenodd" clip-rule="evenodd" fill="#FFFFFF" stroke="#CECECC" stroke-width="0.5" stroke-miterlimit="10" d="
						M188.303,627.495c5.934,0,10.773-4.84,10.773-10.772c0-5.934-4.839-10.772-10.773-10.772c-5.934,0-10.773,4.839-10.773,10.772
						C177.53,622.655,182.37,627.495,188.303,627.495z"/>
				</g>
				<g>
					<path fill-rule="evenodd" clip-rule="evenodd" fill="#FFFFFF" stroke="#CECECC" stroke-width="0.5" stroke-miterlimit="10" d="
						M152.963,627.495c5.934,0,10.773-4.84,10.773-10.772c0-5.934-4.839-10.772-10.773-10.772c-5.934,0-10.773,4.839-10.773,10.772
						C142.19,622.655,147.029,627.495,152.963,627.495z"/>
				</g>
				<g>
					<path fill-rule="evenodd" clip-rule="evenodd" fill="#FFFFFF" stroke="#CECECC" stroke-width="0.5" stroke-miterlimit="10" d="
						M400.744,613.865H151.975c-1.572,0-2.857,1.287-2.857,2.857l0,0c0,1.57,1.287,2.857,2.857,2.857h248.769
						c1.57,0,2.858-1.285,2.858-2.857l0,0C403.602,615.15,402.316,613.865,400.744,613.865z"/>
				</g>
			</g>
			<g>
				<path fill-rule="evenodd" clip-rule="evenodd" fill="#FFFFFF" stroke="#CECECC" stroke-width="0.5" stroke-miterlimit="10" d="
					M365.005,620.204c1.918,0,3.482-1.565,3.482-3.482c0-1.918-1.564-3.481-3.482-3.481c-1.918,0-3.482,1.563-3.482,3.481
					C361.524,618.64,363.088,620.204,365.005,620.204z"/>
			</g>
			<g>
				<path fill-rule="evenodd" clip-rule="evenodd" fill="#FFFFFF" stroke="#CECECC" stroke-width="0.5" stroke-miterlimit="10" d="
					M329.665,620.204c1.918,0,3.482-1.565,3.482-3.482c0-1.918-1.564-3.481-3.482-3.481c-1.918,0-3.482,1.563-3.482,3.481
					C326.184,618.64,327.748,620.204,329.665,620.204z"/>
			</g>
			<g>
				<path fill-rule="evenodd" clip-rule="evenodd" fill="#FFFFFF" stroke="#CECECC" stroke-width="0.5" stroke-miterlimit="10" d="
					M294.325,620.204c1.917,0,3.481-1.565,3.481-3.482c0-1.918-1.564-3.481-3.481-3.481c-1.918,0-3.481,1.563-3.481,3.481
					C290.843,618.64,292.407,620.204,294.325,620.204z"/>
			</g>
			<g>
				<path fill-rule="evenodd" clip-rule="evenodd" fill="#FFFFFF" stroke="#CECECC" stroke-width="0.5" stroke-miterlimit="10" d="
					M258.984,620.204c1.917,0,3.481-1.565,3.481-3.482c0-1.918-1.564-3.481-3.481-3.481c-1.918,0-3.482,1.563-3.482,3.481
					C255.503,618.64,257.066,620.204,258.984,620.204z"/>
			</g>
			<g>
				<path fill-rule="evenodd" clip-rule="evenodd" fill="#FFFFFF" stroke="#CECECC" stroke-width="0.5" stroke-miterlimit="10" d="
					M223.644,620.204c1.917,0,3.481-1.565,3.481-3.482c0-1.918-1.564-3.481-3.481-3.481c-1.918,0-3.482,1.563-3.482,3.481
					C220.162,618.64,221.726,620.204,223.644,620.204z"/>
			</g>
			<g>
				<path fill-rule="evenodd" clip-rule="evenodd" fill="#FFFFFF" stroke="#CECECC" stroke-width="0.5" stroke-miterlimit="10" d="
					M188.303,620.204c1.917,0,3.482-1.565,3.482-3.482c0-1.918-1.564-3.481-3.482-3.481s-3.481,1.563-3.481,3.481
					C184.822,618.64,186.386,620.204,188.303,620.204z"/>
			</g>
		</g>
		<g>
			<g>
				
					<rect x="216.105" y="483.552" fill-rule="evenodd" clip-rule="evenodd" fill="#FFFFFF" stroke="#CECECC" stroke-width="0.5" stroke-miterlimit="10" width="108.839" height="109.152"/>
			</g>
			<g>
				
					<rect x="260.484" y="483.552" fill-rule="evenodd" clip-rule="evenodd" fill="#FFFFFF" stroke="#CECECC" stroke-width="0.5" stroke-miterlimit="10" width="20.08" height="109.151"/>
			</g>
			<g>
				<g>
					<polygon fill="#FFFFFF" stroke="#CECECC" stroke-width="0.5" stroke-miterlimit="10" points="243.216,592.704 243.216,579.108 
						238.916,579.108 245.578,566.935 252.24,579.108 247.94,579.108 247.94,592.704 					"/>
				</g>
				<g>
					<polygon fill="#FFFFFF" stroke="#CECECC" stroke-width="0.5" stroke-miterlimit="10" points="225.992,592.704 225.992,579.108 
						221.692,579.108 228.354,566.935 235.016,579.108 230.716,579.108 230.716,592.704 					"/>
				</g>
			</g>
		</g>
		<g>
			<g>
				<path fill="#FFFFFF" stroke="#CECECC" stroke-width="0.5" stroke-miterlimit="10" d="M400.346,665.155
					c-0.796,0-1.559-0.316-2.122-0.879c-0.562-0.562-0.878-1.325-0.878-2.121v-0.976c-0.59-0.039-1.179-0.09-1.766-0.152
					l-0.17,0.965c-0.288,1.631-1.84,2.715-3.473,2.435c-2.773-0.486-5.519-1.22-8.16-2.181c-0.748-0.272-1.357-0.83-1.693-1.552
					c-0.336-0.721-0.373-1.546-0.1-2.294l0.334-0.92c-0.54-0.239-1.075-0.489-1.606-0.75l-0.488,0.845
					c-0.398,0.689-1.054,1.192-1.823,1.398c-0.771,0.206-1.59,0.097-2.278-0.302c-2.429-1.406-4.754-3.038-6.91-4.85
					c-1.268-1.065-1.433-2.956-0.369-4.226l0.628-0.748c-0.426-0.41-0.844-0.827-1.253-1.253l-0.749,0.628
					c-1.269,1.062-3.16,0.898-4.225-0.369c-1.812-2.156-3.444-4.481-4.849-6.909c-0.399-0.689-0.507-1.509-0.302-2.278
					c0.206-0.769,0.709-1.425,1.398-1.823l0.844-0.486c-0.261-0.531-0.511-1.067-0.75-1.607l-0.92,0.335
					c-1.555,0.567-3.277-0.236-3.845-1.793c-0.96-2.638-1.694-5.383-2.181-8.161c-0.286-1.631,0.804-3.185,2.434-3.472l0.965-0.171
					c-0.062-0.587-0.113-1.176-0.153-1.766h-0.975c-1.657,0-3-1.343-3-3c0-2.816,0.245-5.645,0.729-8.407
					c0.137-0.784,0.581-1.481,1.232-1.938c0.651-0.458,1.458-0.637,2.243-0.499l0.961,0.17c0.142-0.574,0.294-1.146,0.458-1.714
					l-0.92-0.335c-0.748-0.272-1.357-0.83-1.693-1.552c-0.336-0.721-0.372-1.547-0.1-2.294c0.96-2.639,2.163-5.213,3.574-7.652
					c0.829-1.433,2.663-1.927,4.097-1.096l0.85,0.49c0.33-0.49,0.669-0.974,1.018-1.451l-0.746-0.625
					c-0.61-0.512-0.991-1.245-1.061-2.038s0.18-1.581,0.691-2.19c1.81-2.154,3.817-4.162,5.968-5.968
					c0.609-0.511,1.398-0.761,2.19-0.69c0.793,0.068,1.526,0.45,2.037,1.06l0.626,0.746c0.477-0.349,0.961-0.688,1.452-1.019
					l-0.49-0.849c-0.828-1.434-0.337-3.268,1.096-4.097c2.441-1.412,5.016-2.615,7.652-3.575c0.748-0.271,1.574-0.236,2.294,0.101
					c0.721,0.336,1.279,0.944,1.551,1.692l0.335,0.92c0.568-0.164,1.14-0.317,1.714-0.458l-0.169-0.96
					c-0.138-0.784,0.041-1.591,0.498-2.243c0.458-0.651,1.155-1.096,1.939-1.232c2.764-0.483,5.592-0.729,8.408-0.729
					c0.795,0,1.559,0.316,2.122,0.879s0.879,1.325,0.879,2.121v0.976c0.589,0.039,1.178,0.091,1.765,0.153l0.171-0.967
					c0.288-1.632,1.853-2.715,3.473-2.434c2.777,0.487,5.522,1.222,8.159,2.181c0.748,0.272,1.357,0.83,1.693,1.552
					c0.337,0.721,0.372,1.546,0.101,2.294l-0.335,0.92c0.54,0.239,1.076,0.489,1.607,0.751l0.488-0.846
					c0.398-0.689,1.055-1.192,1.823-1.397c0.771-0.206,1.59-0.097,2.278,0.303c2.427,1.405,4.751,3.037,6.908,4.849
					c1.269,1.064,1.434,2.956,0.368,4.226l-0.627,0.748c0.426,0.409,0.843,0.827,1.252,1.252l0.749-0.628
					c1.27-1.063,3.161-0.896,4.225,0.369c1.815,2.161,3.446,4.486,4.849,6.91c0.398,0.688,0.507,1.508,0.302,2.277
					c-0.206,0.769-0.709,1.425-1.398,1.822l-0.845,0.488c0.262,0.53,0.512,1.066,0.751,1.606l0.919-0.335
					c1.555-0.567,3.277,0.235,3.845,1.792c0.962,2.638,1.696,5.385,2.182,8.164c0.285,1.631-0.805,3.184-2.435,3.471l-0.963,0.17
					c0.062,0.587,0.113,1.176,0.152,1.766h0.976c0.796,0,1.559,0.316,2.121,0.879s0.879,1.325,0.879,2.121
					c0,2.814-0.246,5.644-0.73,8.408c-0.138,0.784-0.581,1.482-1.233,1.939s-1.459,0.64-2.242,0.497l-0.96-0.169
					c-0.141,0.574-0.294,1.146-0.458,1.713l0.92,0.335c1.557,0.567,2.359,2.288,1.793,3.845c-0.96,2.638-2.162,5.213-3.574,7.653
					c-0.828,1.433-2.664,1.925-4.096,1.097l-0.851-0.49c-0.329,0.49-0.668,0.974-1.017,1.45l0.745,0.625
					c0.61,0.512,0.991,1.245,1.061,2.038s-0.179,1.581-0.691,2.19c-1.809,2.154-3.816,4.162-5.967,5.968
					c-0.61,0.513-1.4,0.764-2.19,0.691c-0.793-0.068-1.525-0.45-2.037-1.06l-0.627-0.747c-0.477,0.349-0.961,0.688-1.451,1.018
					l0.491,0.85c0.829,1.435,0.338,3.27-1.096,4.099c-2.439,1.409-5.015,2.612-7.653,3.573c-0.747,0.27-1.572,0.236-2.294-0.101
					c-0.721-0.336-1.279-0.944-1.552-1.692l-0.335-0.92c-0.567,0.164-1.139,0.317-1.713,0.458l0.169,0.959
					c0.139,0.784-0.04,1.592-0.498,2.243c-0.457,0.652-1.154,1.097-1.939,1.233C405.99,664.91,403.161,665.155,400.346,665.155z
					 M393.125,654.653c0.172,0,0.346,0.016,0.521,0.046c2.198,0.386,4.452,0.581,6.7,0.581c1.657,0,3,1.343,3,3v0.77
					c0.466-0.032,0.931-0.072,1.395-0.12l-0.133-0.753c-0.139-0.784,0.04-1.592,0.498-2.244c0.457-0.651,1.154-1.096,1.939-1.232
					c2.202-0.386,4.386-0.969,6.49-1.735c1.557-0.565,3.279,0.236,3.846,1.793l0.263,0.723c0.427-0.19,0.851-0.389,1.271-0.594
					l-0.386-0.668c-0.828-1.434-0.339-3.268,1.095-4.097c1.937-1.122,3.789-2.422,5.506-3.862c0.609-0.512,1.393-0.764,2.19-0.69
					c0.792,0.069,1.525,0.45,2.036,1.06l0.493,0.587c0.335-0.324,0.665-0.654,0.989-0.99l-0.587-0.492
					c-0.61-0.512-0.992-1.245-1.061-2.039c-0.069-0.793,0.18-1.581,0.692-2.19c1.439-1.712,2.737-3.562,3.859-5.502
					c0.828-1.433,2.664-1.924,4.096-1.096l0.67,0.387c0.205-0.421,0.403-0.845,0.594-1.271l-0.723-0.263
					c-1.557-0.567-2.359-2.288-1.793-3.845c0.767-2.106,1.351-4.29,1.735-6.49c0.137-0.785,0.581-1.482,1.232-1.939
					c0.652-0.458,1.463-0.64,2.243-0.498l0.755,0.133c0.048-0.465,0.088-0.931,0.121-1.396h-0.77c-1.657,0-3-1.343-3-3
					c0-2.247-0.195-4.501-0.58-6.7c-0.285-1.631,0.804-3.185,2.435-3.472l0.759-0.134c-0.113-0.454-0.234-0.906-0.362-1.355
					l-0.723,0.264c-0.747,0.271-1.572,0.237-2.295-0.101c-0.721-0.337-1.279-0.946-1.551-1.694
					c-0.763-2.096-1.719-4.144-2.843-6.086c-0.399-0.688-0.508-1.508-0.303-2.277c0.206-0.77,0.709-1.426,1.398-1.823l0.664-0.384
					c-0.262-0.387-0.53-0.769-0.805-1.146l-0.592,0.496c-1.27,1.063-3.162,0.897-4.226-0.37c-1.436-1.711-3.035-3.311-4.753-4.754
					c-1.269-1.065-1.433-2.957-0.368-4.226l0.495-0.59c-0.379-0.274-0.761-0.543-1.147-0.806l-0.384,0.664
					c-0.398,0.689-1.054,1.191-1.823,1.397c-0.768,0.205-1.586,0.098-2.276-0.302c-1.944-1.124-3.993-2.081-6.089-2.844
					c-0.747-0.272-1.356-0.83-1.692-1.552c-0.337-0.721-0.372-1.546-0.101-2.294l0.263-0.722c-0.449-0.128-0.901-0.249-1.354-0.361
					l-0.135,0.761c-0.288,1.63-1.838,2.713-3.472,2.434c-2.203-0.386-4.457-0.581-6.699-0.581c-1.657,0-3-1.343-3-3v-0.77
					c-0.466,0.032-0.932,0.072-1.396,0.12l0.133,0.754c0.138,0.784-0.041,1.591-0.498,2.243c-0.458,0.651-1.155,1.096-1.939,1.232
					c-2.202,0.385-4.385,0.969-6.491,1.735c-1.555,0.566-3.278-0.236-3.845-1.793l-0.263-0.722c-0.426,0.19-0.85,0.389-1.27,0.593
					l0.386,0.669c0.828,1.434,0.338,3.267-1.095,4.097c-1.939,1.122-3.791,2.421-5.503,3.861c-0.609,0.512-1.394,0.765-2.19,0.691
					c-0.793-0.068-1.526-0.45-2.038-1.06l-0.494-0.588c-0.335,0.324-0.665,0.654-0.99,0.99l0.587,0.493
					c0.61,0.511,0.991,1.244,1.061,2.037s-0.18,1.581-0.692,2.19c-1.441,1.716-2.74,3.567-3.861,5.504
					c-0.83,1.434-2.664,1.925-4.097,1.095l-0.669-0.386c-0.205,0.42-0.403,0.844-0.593,1.271l0.723,0.263
					c1.557,0.566,2.36,2.288,1.793,3.845c-0.766,2.105-1.35,4.289-1.735,6.491c-0.137,0.784-0.581,1.481-1.232,1.938
					c-0.652,0.457-1.461,0.635-2.243,0.499l-0.755-0.134c-0.048,0.465-0.088,0.931-0.121,1.396h0.77c1.657,0,3,1.343,3,3
					c0,2.249,0.195,4.504,0.58,6.7c0.286,1.631-0.804,3.185-2.434,3.472l-0.76,0.135c0.113,0.453,0.234,0.905,0.362,1.354
					l0.722-0.263c1.555-0.563,3.277,0.235,3.845,1.793c0.765,2.099,1.722,4.147,2.845,6.089c0.398,0.689,0.507,1.509,0.301,2.277
					c-0.206,0.77-0.708,1.425-1.398,1.823l-0.663,0.382c0.262,0.387,0.53,0.769,0.805,1.147l0.591-0.496
					c1.269-1.062,3.16-0.897,4.225,0.369c1.44,1.714,3.04,3.312,4.755,4.754c1.268,1.064,1.433,2.956,0.369,4.226l-0.496,0.591
					c0.378,0.274,0.761,0.543,1.147,0.805l0.383-0.663c0.398-0.689,1.053-1.192,1.822-1.398c0.769-0.207,1.587-0.097,2.277,0.301
					c1.947,1.126,3.996,2.083,6.089,2.845c0.748,0.272,1.357,0.83,1.693,1.552c0.336,0.721,0.373,1.546,0.1,2.294l-0.263,0.722
					c0.449,0.128,0.901,0.249,1.355,0.362l0.134-0.761C390.431,655.678,391.696,654.653,393.125,654.653z"/>
			</g>
			<g>
				<path fill-rule="evenodd" clip-rule="evenodd" fill="#FFFFFF" stroke="#CECECC" stroke-width="0.5" stroke-miterlimit="10" d="
					M393.128,575.79c-2.412,0.422-4.751,1.053-7,1.871l-1.326-3.643c-2.502,0.911-4.902,2.037-7.176,3.353l1.938,3.356
					c-2.1,1.216-4.084,2.609-5.931,4.161l-2.491-2.968c-2.025,1.7-3.898,3.574-5.6,5.6l2.968,2.49
					c-1.551,1.847-2.945,3.831-4.161,5.931l-3.357-1.939c-1.316,2.275-2.441,4.675-3.352,7.177l3.643,1.326
					c-0.818,2.249-1.449,4.589-1.871,6.999l-3.817-0.672c-0.449,2.562-0.684,5.198-0.684,7.89l0,0h3.875
					c0,2.462,0.214,4.874,0.625,7.218l-3.816,0.673c0.462,2.636,1.15,5.194,2.045,7.652l3.642-1.325
					c0.833,2.288,1.863,4.483,3.066,6.565l-3.357,1.938c1.329,2.296,2.853,4.464,4.549,6.482l2.968-2.489
					c1.556,1.852,3.27,3.565,5.122,5.121l-2.491,2.969c2.019,1.696,4.188,3.221,6.483,4.55l1.938-3.357
					c2.081,1.203,4.275,2.233,6.564,3.066l-1.326,3.643c2.459,0.895,5.017,1.583,7.653,2.045l0.673-3.817
					c2.344,0.411,4.756,0.626,7.218,0.626v3.875c2.691,0,5.328-0.235,7.89-0.684l-0.674-3.816c2.412-0.422,4.752-1.053,7-1.871
					l1.326,3.643c2.502-0.911,4.902-2.036,7.178-3.352l-1.939-3.357c2.1-1.216,4.084-2.609,5.932-4.16l2.49,2.968
					c2.025-1.701,3.898-3.575,5.6-5.601l-2.969-2.49c1.553-1.847,2.945-3.83,4.16-5.93l3.358,1.938
					c1.316-2.275,2.441-4.675,3.352-7.177l-3.643-1.326c0.818-2.249,1.449-4.588,1.871-6.999l3.816,0.673
					c0.449-2.562,0.686-5.199,0.686-7.891l0,0h-3.875c0-2.462-0.215-4.874-0.625-7.218l3.814-0.672
					c-0.461-2.637-1.148-5.194-2.045-7.653l-3.643,1.326c-0.832-2.289-1.861-4.483-3.066-6.564l3.358-1.939
					c-1.328-2.296-2.854-4.464-4.549-6.482l-2.969,2.49c-1.555-1.852-3.27-3.566-5.121-5.122l2.49-2.968
					c-2.02-1.696-4.188-3.221-6.482-4.55l-1.939,3.356c-2.08-1.203-4.275-2.233-6.565-3.066l1.326-3.643
					c-2.459-0.895-5.016-1.582-7.652-2.045l-0.674,3.817c-2.344-0.41-4.756-0.626-7.216-0.626v-3.875
					c-2.692,0-5.328,0.235-7.891,0.684L393.128,575.79z"/>
			</g>
		</g>
		<g>
			<g>
				
					<rect x="622.271" y="310.104" fill-rule="evenodd" clip-rule="evenodd" fill="#FFFFFF" stroke="#CECECC" stroke-width="0.5" stroke-miterlimit="10" width="108.838" height="109.152"/>
			</g>
			<g>
				<g>
					<polygon fill="#FFFFFF" stroke="#CECECC" stroke-width="0.5" stroke-miterlimit="10" points="649.381,419.257 649.381,405.661 
						645.082,405.661 651.744,393.487 658.406,405.661 654.105,405.661 654.105,419.257 					"/>
				</g>
				<g>
					<polygon fill="#FFFFFF" stroke="#CECECC" stroke-width="0.5" stroke-miterlimit="10" points="632.158,419.257 632.158,405.661 
						627.857,405.661 634.519,393.487 641.182,405.661 636.881,405.661 636.881,419.257 					"/>
				</g>
			</g>
		</g>
		<g>
			<g>
				<g>
					<path fill-rule="evenodd" clip-rule="evenodd" fill="#FFFFFF" stroke="#CECECC" stroke-width="0.5" stroke-miterlimit="10" d="
						M77.477,595.784H-0.572v41.877h78.048c11.515,0,20.938-9.422,20.938-20.938l0,0C98.415,605.206,88.993,595.784,77.477,595.784z
						"/>
				</g>
				<g>
					<path fill="#FFFFFF" stroke="#CECECC" stroke-width="0.5" stroke-miterlimit="10" d="M77.477,592.703H-0.572v6.162h78.048
						c4.907,0,9.372,2.011,12.609,5.248c3.238,3.237,5.248,7.702,5.248,12.609l0,0c0,4.907-2.01,9.372-5.248,12.609
						c-3.238,3.237-7.702,5.248-12.609,5.248H-0.572v6.162h78.048c6.608,0,12.614-2.701,16.966-7.054
						c4.352-4.352,7.054-10.357,7.054-16.966l0,0c0-6.608-2.702-12.614-7.054-16.966C90.091,595.405,84.085,592.703,77.477,592.703z
						"/>
				</g>
				<g>
					
						<circle fill-rule="evenodd" clip-rule="evenodd" fill="#FFFFFF" stroke="#CECECC" stroke-width="0.5" stroke-miterlimit="10" cx="77.477" cy="616.723" r="10.772"/>
				</g>
				<g>
					
						<circle fill-rule="evenodd" clip-rule="evenodd" fill="#FFFFFF" stroke="#CECECC" stroke-width="0.5" stroke-miterlimit="10" cx="42.136" cy="616.723" r="10.772"/>
				</g>
				<g>
					<path fill-rule="evenodd" clip-rule="evenodd" fill="#FFFFFF" stroke="#CECECC" stroke-width="0.5" stroke-miterlimit="10" d="
						M6.795,605.95c-2.85,0-5.44,1.106-7.367,2.914v15.717c1.927,1.807,4.518,2.914,7.367,2.914c5.95,0,10.773-4.823,10.773-10.772
						C17.568,610.772,12.745,605.95,6.795,605.95z"/>
				</g>
				<g>
					<path fill-rule="evenodd" clip-rule="evenodd" fill="#FFFFFF" stroke="#CECECC" stroke-width="0.5" stroke-miterlimit="10" d="
						M77.876,613.865H-0.572v5.715h78.447c1.57,0,2.857-1.285,2.857-2.857l0,0C80.733,615.15,79.447,613.865,77.876,613.865z"/>
				</g>
			</g>
			<g>
				
					<circle fill-rule="evenodd" clip-rule="evenodd" fill="#FFFFFF" stroke="#CECECC" stroke-width="0.5" stroke-miterlimit="10" cx="42.136" cy="616.723" r="3.481"/>
			</g>
			<g>
				
					<circle fill-rule="evenodd" clip-rule="evenodd" fill="#FFFFFF" stroke="#CECECC" stroke-width="0.5" stroke-miterlimit="10" cx="6.795" cy="616.723" r="3.481"/>
			</g>
		</g>
		<g>
			<g>
				<path fill="#FFFFFF" stroke="#CECECC" stroke-width="0.5" stroke-miterlimit="10" d="M168.594,643.742H43.176
					c-1.657,0-3-1.343-3-3V434.461c0-1.657,1.343-3,3-3h125.418c1.657,0,3,1.343,3,3v206.281
					C171.594,642.399,170.251,643.742,168.594,643.742z M46.176,637.742h119.418V437.461H46.176V637.742z"/>
			</g>
			<g>
				<path fill-rule="evenodd" clip-rule="evenodd" fill="#FFFFFF" stroke="#CECECC" stroke-width="0.5" stroke-miterlimit="10" d="
					M43.176,640.742h125.418V434.461H43.176V640.742z"/>
			</g>
		</g>
		<g>
			<g>
				<path fill="#FFFFFF" stroke="#CECECC" stroke-width="0.5" stroke-miterlimit="10" d="M574.236,491.454c-1.657,0-3-1.343-3-3
					v-0.977c-0.59-0.039-1.179-0.091-1.766-0.153l-0.171,0.966c-0.288,1.63-1.846,2.717-3.471,2.434
					c-2.772-0.485-5.519-1.219-8.161-2.18c-0.748-0.272-1.357-0.83-1.693-1.552c-0.337-0.721-0.372-1.546-0.101-2.294l0.335-0.92
					c-0.54-0.239-1.075-0.489-1.606-0.75l-0.486,0.844c-0.398,0.689-1.054,1.192-1.823,1.398c-0.768,0.206-1.587,0.098-2.277-0.302
					c-2.425-1.401-4.75-3.033-6.91-4.849c-1.268-1.065-1.433-2.956-0.369-4.225l0.628-0.749c-0.425-0.408-0.843-0.826-1.253-1.253
					l-0.747,0.627c-1.271,1.065-3.161,0.899-4.225-0.367c-1.815-2.159-3.448-4.484-4.852-6.911
					c-0.398-0.688-0.507-1.508-0.302-2.277c0.206-0.769,0.709-1.425,1.398-1.822l0.844-0.488c-0.261-0.53-0.511-1.066-0.75-1.606
					l-0.919,0.335c-0.748,0.27-1.574,0.236-2.294-0.101c-0.722-0.336-1.279-0.945-1.552-1.693c-0.963-2.646-1.696-5.393-2.181-8.161
					c-0.285-1.63,0.804-3.184,2.435-3.471l0.964-0.171c-0.062-0.586-0.113-1.175-0.152-1.766h-0.975c-1.657,0-3-1.343-3-3
					c0-2.821,0.245-5.65,0.729-8.408c0.138-0.785,0.581-1.482,1.233-1.939c0.651-0.456,1.461-0.637,2.243-0.497l0.959,0.169
					c0.142-0.574,0.294-1.146,0.458-1.713l-0.919-0.335c-1.558-0.566-2.36-2.288-1.794-3.845c0.96-2.638,2.162-5.213,3.574-7.653
					c0.828-1.435,2.662-1.926,4.097-1.096l0.85,0.49c0.329-0.49,0.669-0.974,1.018-1.451l-0.747-0.627
					c-0.609-0.512-0.991-1.244-1.06-2.037c-0.069-0.793,0.18-1.581,0.691-2.19c1.808-2.15,3.815-4.158,5.969-5.967
					c0.61-0.513,1.399-0.761,2.19-0.691c0.793,0.069,1.526,0.45,2.038,1.061l0.625,0.745c0.477-0.349,0.96-0.688,1.45-1.017
					l-0.49-0.851c-0.827-1.434-0.337-3.267,1.097-4.096c2.439-1.412,5.014-2.614,7.651-3.575c0.747-0.273,1.571-0.236,2.294,0.1
					c0.721,0.336,1.279,0.945,1.552,1.693l0.335,0.92c0.567-0.164,1.139-0.317,1.713-0.458l-0.169-0.959
					c-0.139-0.784,0.04-1.592,0.498-2.244c0.457-0.652,1.155-1.096,1.939-1.233c2.766-0.483,5.594-0.729,8.407-0.729
					c1.657,0,3,1.343,3,3v0.976c0.59,0.04,1.179,0.09,1.766,0.153l0.17-0.965c0.287-1.63,1.844-2.72,3.473-2.435
					c2.772,0.486,5.518,1.219,8.16,2.181c1.557,0.566,2.36,2.288,1.794,3.845l-0.335,0.92c0.54,0.24,1.076,0.49,1.607,0.752
					l0.488-0.846c0.398-0.689,1.054-1.191,1.823-1.397c0.769-0.206,1.587-0.097,2.277,0.302c2.422,1.402,4.746,3.033,6.908,4.848
					c1.269,1.065,1.435,2.957,0.37,4.226l-0.629,0.749c0.426,0.409,0.844,0.827,1.253,1.253l0.749-0.629
					c1.268-1.063,3.158-0.897,4.225,0.368c1.812,2.156,3.442,4.481,4.849,6.912c0.398,0.688,0.507,1.508,0.302,2.276
					c-0.206,0.77-0.708,1.425-1.397,1.823l-0.845,0.488c0.261,0.53,0.512,1.066,0.751,1.606l0.92-0.335
					c0.746-0.271,1.573-0.237,2.294,0.101c0.722,0.336,1.279,0.945,1.552,1.693c0.959,2.636,1.692,5.381,2.181,8.159
					c0.286,1.631-0.804,3.186-2.435,3.473l-0.965,0.171c0.062,0.587,0.113,1.176,0.152,1.766h0.976c1.657,0,3,1.343,3,3
					c0,2.81-0.245,5.638-0.729,8.406c-0.137,0.785-0.58,1.482-1.232,1.94c-0.651,0.458-1.46,0.641-2.243,0.498l-0.962-0.169
					c-0.141,0.573-0.294,1.145-0.458,1.713l0.921,0.335c0.748,0.272,1.357,0.831,1.694,1.552c0.336,0.722,0.371,1.547,0.099,2.295
					c-0.963,2.644-2.166,5.218-3.575,7.652c-0.83,1.433-2.663,1.925-4.098,1.095l-0.847-0.489c-0.33,0.489-0.669,0.974-1.019,1.45
					l0.745,0.625c0.61,0.512,0.992,1.245,1.061,2.038c0.069,0.793-0.179,1.581-0.691,2.19c-1.809,2.154-3.816,4.162-5.967,5.968
					c-0.61,0.513-1.398,0.764-2.19,0.691c-0.793-0.068-1.526-0.45-2.038-1.061l-0.626-0.746c-0.477,0.349-0.96,0.688-1.45,1.018
					l0.49,0.849c0.828,1.435,0.338,3.269-1.096,4.098c-2.438,1.41-5.013,2.613-7.653,3.575c-0.748,0.27-1.571,0.235-2.294-0.101
					c-0.721-0.336-1.279-0.944-1.552-1.692l-0.335-0.92c-0.567,0.164-1.139,0.317-1.712,0.458l0.169,0.959
					c0.138,0.784-0.042,1.591-0.499,2.243c-0.457,0.651-1.154,1.095-1.938,1.232C579.88,491.208,577.051,491.454,574.236,491.454z
					 M567.016,480.951c0.172,0,0.346,0.016,0.521,0.046c2.203,0.386,4.457,0.581,6.699,0.581c1.657,0,3,1.343,3,3v0.771
					c0.467-0.033,0.933-0.073,1.396-0.121l-0.132-0.754c-0.139-0.784,0.041-1.591,0.498-2.243c0.457-0.651,1.154-1.095,1.938-1.232
					c2.202-0.386,4.386-0.97,6.489-1.735c1.558-0.565,3.278,0.236,3.846,1.793l0.263,0.723c0.427-0.191,0.851-0.389,1.271-0.594
					l-0.386-0.668c-0.828-1.435-0.338-3.269,1.096-4.098c1.933-1.118,3.785-2.418,5.504-3.861c0.61-0.513,1.4-0.764,2.19-0.691
					c0.793,0.069,1.526,0.45,2.038,1.061l0.492,0.587c0.335-0.324,0.665-0.654,0.989-0.99l-0.587-0.492
					c-0.61-0.512-0.992-1.245-1.061-2.039c-0.069-0.793,0.18-1.581,0.692-2.19c1.443-1.718,2.743-3.568,3.861-5.502
					c0.829-1.433,2.662-1.926,4.098-1.096l0.667,0.386c0.205-0.42,0.402-0.844,0.594-1.271l-0.723-0.263
					c-1.558-0.566-2.36-2.288-1.794-3.845c0.767-2.106,1.351-4.29,1.735-6.49c0.137-0.785,0.581-1.482,1.232-1.939
					c0.652-0.458,1.462-0.64,2.243-0.498l0.755,0.133c0.048-0.465,0.088-0.931,0.121-1.396h-0.77c-1.657,0-3-1.343-3-3
					c0-2.247-0.195-4.501-0.58-6.7c-0.285-1.631,0.804-3.185,2.435-3.472l0.759-0.134c-0.113-0.454-0.233-0.905-0.361-1.354
					l-0.722,0.263c-1.558,0.564-3.278-0.236-3.845-1.792c-0.766-2.101-1.723-4.149-2.845-6.09c-0.398-0.688-0.507-1.508-0.302-2.277
					c0.206-0.769,0.709-1.424,1.397-1.822l0.664-0.384c-0.263-0.387-0.531-0.77-0.806-1.147l-0.592,0.496
					c-1.269,1.063-3.161,0.898-4.226-0.37c-1.437-1.711-3.036-3.31-4.753-4.753c-1.268-1.065-1.433-2.956-0.369-4.225l0.496-0.591
					c-0.378-0.275-0.761-0.544-1.147-0.806l-0.384,0.665c-0.398,0.689-1.054,1.191-1.823,1.397s-1.587,0.098-2.277-0.302
					c-1.945-1.126-3.992-2.083-6.086-2.845c-1.557-0.566-2.359-2.287-1.793-3.845l0.263-0.723c-0.449-0.128-0.901-0.249-1.355-0.362
					l-0.133,0.761c-0.287,1.631-1.842,2.719-3.472,2.435c-2.205-0.386-4.46-0.581-6.702-0.581c-1.657,0-3-1.343-3-3v-0.77
					c-0.466,0.032-0.931,0.073-1.396,0.121l0.133,0.752c0.139,0.784-0.04,1.591-0.497,2.243s-1.154,1.096-1.939,1.233
					c-2.209,0.388-4.393,0.971-6.491,1.735c-0.747,0.271-1.574,0.236-2.294-0.101c-0.721-0.336-1.279-0.944-1.552-1.692
					l-0.263-0.723c-0.427,0.191-0.851,0.39-1.271,0.595l0.387,0.67c0.827,1.434,0.337,3.267-1.096,4.096
					c-1.938,1.121-3.789,2.42-5.502,3.859c-0.61,0.514-1.392,0.764-2.191,0.692c-0.793-0.068-1.526-0.45-2.038-1.061l-0.492-0.588
					c-0.336,0.325-0.667,0.655-0.991,0.991l0.588,0.493c0.609,0.512,0.991,1.244,1.06,2.037c0.069,0.793-0.179,1.581-0.69,2.19
					c-1.443,1.718-2.742,3.569-3.861,5.504c-0.828,1.432-2.661,1.925-4.097,1.095l-0.67-0.386c-0.204,0.42-0.402,0.844-0.593,1.27
					l0.724,0.264c0.749,0.272,1.357,0.831,1.694,1.553c0.336,0.721,0.371,1.547,0.099,2.295c-0.767,2.102-1.351,4.285-1.736,6.488
					c-0.137,0.785-0.581,1.482-1.232,1.939c-0.653,0.458-1.463,0.64-2.244,0.498l-0.753-0.133c-0.048,0.464-0.088,0.93-0.12,1.396
					h0.77c1.657,0,3,1.343,3,3c0,2.256,0.195,4.51,0.58,6.698c0.286,1.632-0.803,3.187-2.435,3.474l-0.76,0.135
					c0.113,0.453,0.233,0.904,0.362,1.354l0.722-0.264c0.749-0.272,1.573-0.235,2.295,0.101c0.721,0.337,1.279,0.946,1.551,1.694
					c0.763,2.099,1.72,4.146,2.843,6.085c0.399,0.689,0.508,1.509,0.303,2.278c-0.206,0.77-0.709,1.426-1.398,1.823l-0.664,0.384
					c0.263,0.387,0.531,0.769,0.806,1.147l0.59-0.495c1.271-1.066,3.16-0.9,4.225,0.367c1.448,1.722,3.048,3.321,4.755,4.753
					c0.609,0.512,0.991,1.244,1.061,2.037c0.069,0.792-0.179,1.58-0.689,2.189l-0.496,0.592c0.378,0.274,0.76,0.543,1.146,0.805
					l0.382-0.663c0.398-0.689,1.054-1.192,1.823-1.398c0.768-0.206,1.587-0.098,2.277,0.302c1.945,1.125,3.994,2.082,6.089,2.844
					c0.747,0.272,1.356,0.83,1.692,1.552c0.337,0.721,0.372,1.546,0.101,2.294l-0.263,0.722c0.449,0.128,0.901,0.249,1.354,0.362
					l0.135-0.762C564.322,481.976,565.588,480.951,567.016,480.951z"/>
			</g>
			<g>
				<path fill-rule="evenodd" clip-rule="evenodd" fill="#FFFFFF" stroke="#CECECC" stroke-width="0.5" stroke-miterlimit="10" d="
					M567.019,402.088c-2.412,0.423-4.75,1.052-7,1.871l-1.326-3.643c-2.502,0.911-4.9,2.036-7.176,3.353l1.938,3.357
					c-2.1,1.215-4.084,2.608-5.93,4.16l-2.49-2.969c-2.025,1.701-3.9,3.575-5.602,5.6l2.969,2.491
					c-1.551,1.847-2.945,3.831-4.16,5.931l-3.357-1.938c-1.316,2.275-2.441,4.675-3.352,7.177l3.644,1.326
					c-0.82,2.249-1.451,4.588-1.873,7l-3.816-0.674c-0.449,2.562-0.684,5.199-0.684,7.891l0,0h3.875
					c0,2.462,0.213,4.873,0.625,7.218l-3.816,0.673c0.461,2.636,1.15,5.193,2.045,7.652l3.643-1.326
					c0.832,2.289,1.861,4.484,3.066,6.564l-3.357,1.938c1.328,2.296,2.854,4.464,4.551,6.482l2.967-2.489
					c1.557,1.851,3.27,3.566,5.123,5.121l-2.49,2.969c2.018,1.695,4.186,3.221,6.482,4.549l1.938-3.356
					c2.082,1.204,4.275,2.233,6.564,3.066l-1.326,3.643c2.459,0.895,5.018,1.583,7.652,2.044l0.674-3.816
					c2.344,0.41,4.756,0.626,7.217,0.626v3.876c2.691,0,5.328-0.236,7.891-0.686l-0.672-3.815c2.41-0.422,4.75-1.053,6.998-1.871
					l1.326,3.643c2.502-0.911,4.902-2.036,7.178-3.353l-1.939-3.356c2.102-1.216,4.084-2.609,5.932-4.161l2.49,2.969
					c2.025-1.701,3.898-3.575,5.6-5.601l-2.969-2.49c1.553-1.847,2.947-3.83,4.162-5.931l3.356,1.938
					c1.316-2.274,2.441-4.675,3.354-7.177l-3.645-1.326c0.818-2.249,1.449-4.588,1.871-6.999l3.818,0.673
					c0.447-2.562,0.684-5.199,0.684-7.891l0,0h-3.875c0-2.462-0.215-4.874-0.625-7.218l3.816-0.673
					c-0.463-2.636-1.15-5.193-2.045-7.652l-3.643,1.326c-0.834-2.289-1.863-4.484-3.066-6.564l3.356-1.938
					c-1.328-2.296-2.852-4.464-4.549-6.483l-2.969,2.49c-1.555-1.852-3.27-3.565-5.121-5.121l2.49-2.969
					c-2.02-1.695-4.188-3.221-6.483-4.549l-1.939,3.357c-2.08-1.204-4.273-2.234-6.562-3.067l1.324-3.643
					c-2.459-0.895-5.016-1.583-7.652-2.045l-0.672,3.817c-2.346-0.41-4.756-0.626-7.219-0.626v-3.875
					c-2.691,0-5.326,0.235-7.891,0.684L567.019,402.088z"/>
			</g>
		</g>
		<g>
			
				<rect x="479.574" y="553.204" transform="matrix(0.3452 0.9385 -0.9385 0.3452 907.6437 -190.7403)" fill="#FFFFFF" stroke="#CECECC" stroke-width="0.5" stroke-miterlimit="10" width="221.897" height="3.84"/>
		</g>
		<g>
			
				<rect x="539.386" y="516.284" transform="matrix(0.4835 0.8753 -0.8753 0.4835 785.947 -295.6543)" fill="#FFFFFF" stroke="#CECECC" stroke-width="0.5" stroke-miterlimit="10" width="208.266" height="3.84"/>
		</g>
		<g>
			
				<circle fill-rule="evenodd" clip-rule="evenodd" fill="#FFFFFF" stroke="#CECECC" stroke-width="0.5" stroke-miterlimit="10" cx="574.236" cy="443.021" r="27.181"/>
		</g>
		<g>
			<path fill-rule="evenodd" clip-rule="evenodd" fill="#FFFFFF" stroke="#CECECC" stroke-width="0.5" stroke-miterlimit="10" d="
				M574.236,453.793c5.934,0,10.773-4.84,10.773-10.772c0-5.934-4.84-10.773-10.773-10.773s-10.771,4.84-10.771,10.773
				C563.465,448.953,568.303,453.793,574.236,453.793z"/>
		</g>
		<g>
			<path fill-rule="evenodd" clip-rule="evenodd" fill="#FFFFFF" stroke="#CECECC" stroke-width="0.5" stroke-miterlimit="10" d="
				M574.236,446.502c1.918,0,3.483-1.564,3.483-3.481c0-1.918-1.565-3.482-3.483-3.482c-1.918,0-3.48,1.564-3.48,3.482
				C570.756,444.938,572.318,446.502,574.236,446.502z"/>
		</g>
		<g>
			
				<rect x="395.128" y="657.856" transform="matrix(0.9886 0.1508 -0.1508 0.9886 105.5728 -72.382)" fill="#FFFFFF" stroke="#CECECC" stroke-width="0.5" stroke-miterlimit="10" width="269.644" height="3.841"/>
		</g>
		<g>
			
				<rect x="402.804" y="593.579" transform="matrix(0.9998 0.0223 -0.0223 0.9998 13.3966 -11.6662)" fill="#FFFFFF" stroke="#CECECC" stroke-width="0.5" stroke-miterlimit="10" width="255.106" height="3.841"/>
		</g>
		<g>
			<path fill-rule="evenodd" clip-rule="evenodd" fill="#FFFFFF" stroke="#CECECC" stroke-width="0.5" stroke-miterlimit="10" d="
				M673.434,594.017c2.688,0.471,5.295,1.174,7.803,2.087l1.596-4.384c2.811,1.022,5.504,2.285,8.057,3.762l-2.332,4.041
				c2.342,1.355,4.553,2.909,6.611,4.639l2.998-3.572c2.273,1.909,4.377,4.014,6.287,6.286l-3.574,2.997
				c1.73,2.06,3.285,4.271,4.641,6.613l4.039-2.334c1.479,2.555,2.74,5.248,3.764,8.057l-4.387,1.597
				c0.914,2.507,1.617,5.115,2.088,7.804l4.594-0.811c0.504,2.877,0.769,5.836,0.769,8.857l0,0h-4.666
				c0,2.745-0.238,5.435-0.697,8.048l4.594,0.81c-0.518,2.959-1.291,5.83-2.295,8.591l-4.385-1.597c-0.93,2.553-2.076,5-3.418,7.32
				l4.039,2.332c-1.49,2.577-3.203,5.011-5.106,7.277l-3.574-2.998c-1.734,2.065-3.645,3.977-5.711,5.711l2.998,3.573
				c-2.266,1.903-4.699,3.615-7.277,5.107l-2.332-4.041c-2.32,1.343-4.768,2.49-7.32,3.42l1.596,4.385
				c-2.76,1.004-5.631,1.776-8.59,2.295l-0.809-4.594c-2.615,0.457-5.303,0.697-8.049,0.697v4.665c-3.021,0-5.98-0.265-8.857-0.768
				l0.811-4.594c-2.688-0.471-5.297-1.173-7.805-2.086l-1.596,4.385c-2.809-1.023-5.502-2.286-8.057-3.764l2.334-4.041
				c-2.342-1.354-4.553-2.908-6.613-4.639l-2.996,3.573c-2.273-1.909-4.377-4.014-6.287-6.286l3.572-2.998
				c-1.728-2.059-3.283-4.271-4.639-6.612l-4.041,2.333c-1.477-2.554-2.74-5.247-3.762-8.057l4.385-1.596
				c-0.912-2.508-1.615-5.115-2.086-7.804l-4.594,0.81c-0.504-2.877-0.77-5.836-0.77-8.857l0,0h4.664
				c0-2.744,0.24-5.434,0.697-8.047l-4.592-0.811c0.518-2.959,1.289-5.83,2.295-8.59l4.385,1.596
				c0.928-2.552,2.076-4.999,3.418-7.318l-4.041-2.334c1.492-2.576,3.203-5.01,5.107-7.277l3.572,2.998
				c1.734-2.064,3.647-3.977,5.713-5.711l-2.998-3.572c2.266-1.904,4.699-3.615,7.275-5.107l2.334,4.041
				c2.32-1.342,4.768-2.49,7.318-3.419l-1.596-4.384c2.76-1.006,5.633-1.777,8.59-2.296l0.811,4.594
				c2.615-0.458,5.303-0.698,8.047-0.698v-4.664c3.022,0,5.98,0.265,8.857,0.768L673.434,594.017z"/>
		</g>
		<g>
			<g>
				<path fill-rule="evenodd" clip-rule="evenodd" fill="#FFFFFF" stroke="#CECECC" stroke-width="0.5" stroke-miterlimit="10" d="
					M664.463,650.428c5.934,0,10.773-4.839,10.773-10.772c0-5.934-4.84-10.772-10.773-10.772s-10.771,4.839-10.771,10.772
					C653.691,645.589,658.529,650.428,664.463,650.428z"/>
			</g>
			<g>
				<path fill-rule="evenodd" clip-rule="evenodd" fill="#FFFFFF" stroke="#CECECC" stroke-width="0.5" stroke-miterlimit="10" d="
					M664.463,643.137c1.918,0,3.482-1.563,3.482-3.481c0-1.918-1.564-3.482-3.482-3.482c-1.918,0-3.481,1.564-3.481,3.482
					C660.982,641.573,662.545,643.137,664.463,643.137z"/>
			</g>
		</g>
		<g>
			<path fill-rule="evenodd" clip-rule="evenodd" fill="#FFFFFF" stroke="#CECECC" stroke-width="0.5" stroke-miterlimit="10" d="
				M70.333,472.222c5.261,0,9.552-4.291,9.552-9.553c0-5.262-4.291-9.553-9.552-9.553c-5.262,0-9.553,4.291-9.553,9.553
				C60.78,467.931,65.071,472.222,70.333,472.222z"/>
		</g>
		<g>
			<path fill-rule="evenodd" clip-rule="evenodd" fill="#FFFFFF" stroke="#CECECC" stroke-width="0.5" stroke-miterlimit="10" d="
				M105.886,472.222c5.261,0,9.552-4.291,9.552-9.553c0-5.262-4.291-9.553-9.552-9.553c-5.262,0-9.553,4.291-9.553,9.553
				C96.333,467.931,100.624,472.222,105.886,472.222z"/>
		</g>
		<g>
			<path fill-rule="evenodd" clip-rule="evenodd" fill="#FFFFFF" stroke="#CECECC" stroke-width="0.5" stroke-miterlimit="10" d="
				M141.438,472.222c5.261,0,9.552-4.291,9.552-9.553c0-5.262-4.291-9.553-9.552-9.553c-5.261,0-9.552,4.291-9.552,9.553
				C131.886,467.931,136.177,472.222,141.438,472.222z"/>
		</g>
		<g>
			<g>
				
					<rect x="386.702" y="409.849" transform="matrix(0.7071 -0.7071 0.7071 0.7071 -199.1962 447.9452)" fill-rule="evenodd" clip-rule="evenodd" fill="#FFFFFF" stroke="#CECECC" stroke-width="0.5" stroke-miterlimit="10" width="108.84" height="109.152"/>
			</g>
			<g>
				
					<rect x="431.082" y="409.85" transform="matrix(0.7071 -0.7071 0.7071 0.7071 -199.1959 447.936)" fill-rule="evenodd" clip-rule="evenodd" fill="#FFFFFF" stroke="#CECECC" stroke-width="0.5" stroke-miterlimit="10" width="20.08" height="109.15"/>
			</g>
			<g>
				<g>
					<polygon fill="#FFFFFF" stroke="#CECECC" stroke-width="0.5" stroke-miterlimit="10" points="460.404,522.325 450.789,512.712 
						447.75,515.753 443.852,502.434 457.17,506.331 454.131,509.372 463.744,518.985 					"/>
				</g>
				<g>
					<polygon fill="#FFFFFF" stroke="#CECECC" stroke-width="0.5" stroke-miterlimit="10" points="448.225,534.505 438.609,524.892 
						435.57,527.932 431.672,514.613 444.99,518.511 441.951,521.551 451.564,531.165 					"/>
				</g>
			</g>
		</g>
		<g>
			
				<circle fill-rule="evenodd" clip-rule="evenodd" fill="#FFFFFF" stroke="#CECECC" stroke-width="0.5" stroke-miterlimit="10" cx="400.346" cy="616.723" r="27.181"/>
		</g>
		<g>
			<path fill-rule="evenodd" clip-rule="evenodd" fill="#FFFFFF" stroke="#CECECC" stroke-width="0.5" stroke-miterlimit="10" d="
				M400.346,627.495c5.933,0,10.773-4.84,10.773-10.772c0-5.934-4.84-10.772-10.773-10.772c-5.934,0-10.773,4.839-10.773,10.772
				C389.573,622.655,394.413,627.495,400.346,627.495z"/>
		</g>
		<g>
			<path fill-rule="evenodd" clip-rule="evenodd" fill="#FFFFFF" stroke="#CECECC" stroke-width="0.5" stroke-miterlimit="10" d="
				M400.346,620.204c1.918,0,3.482-1.565,3.482-3.482c0-1.918-1.564-3.481-3.482-3.481c-1.918,0-3.482,1.563-3.482,3.481
				C396.865,618.64,398.428,620.204,400.346,620.204z"/>
		</g>
	</g>
	<g>
		<g>
			<g>
				<line fill="#FFFFFF" x1="667.982" y1="366.436" x2="667.982" y2="374.941"/>
			</g>
			<g>
				<rect x="667.484" y="366.436" fill="#CECECC" width="0.998" height="8.505"/>
			</g>
		</g>
		<g>
			<g>
				<line fill="#FFFFFF" x1="674.238" y1="366.436" x2="674.238" y2="378.065"/>
			</g>
			<g>
				<rect x="673.739" y="366.436" fill="#CECECC" width="0.998" height="11.629"/>
			</g>
		</g>
		<g>
			<g>
				<line fill="#FFFFFF" x1="680.494" y1="366.424" x2="680.494" y2="377.65"/>
			</g>
			<g>
				<rect x="679.995" y="366.424" fill="#CECECC" width="0.998" height="11.226"/>
			</g>
		</g>
		<g>
			<g>
				<line fill="#FFFFFF" x1="686.75" y1="366.436" x2="686.75" y2="374.941"/>
			</g>
			<g>
				<rect x="686.251" y="366.436" fill="#CECECC" width="0.998" height="8.505"/>
			</g>
		</g>
	</g>
	<g>
		<g>
			<g>
				<path fill-rule="evenodd" clip-rule="evenodd" fill="#FFFFFF" stroke="#CECECC" stroke-width="0.5" stroke-miterlimit="10" d="
					M180.698,362.739l-4.886,3.411l-6.943-1.04l-15.52-22.228l13.245-9.248l15.52,22.228L180.698,362.739z"/>
			</g>
			<g>
				<path fill-rule="evenodd" clip-rule="evenodd" fill="#FFFFFF" stroke="#CECECC" stroke-width="0.5" stroke-miterlimit="10" d="
					M197.084,377.733l-3.448,1.085l-5.222-7.857l-13.929-12.612l4.85-5.357l13.929,12.612L197.084,377.733z"/>
			</g>
			<g>
				<path fill-rule="evenodd" clip-rule="evenodd" fill="#FFFFFF" stroke="#CECECC" stroke-width="0.5" stroke-miterlimit="10" d="
					M184.755,386.342l2.206-2.862l-5.577-7.61l-7.04-17.421l-6.701,2.708l7.04,17.421L184.755,386.342z"/>
			</g>
		</g>
		<path fill="#FFFFFF" stroke="#CECECC" stroke-width="0.5" stroke-miterlimit="10" d="M146.555,340.115l-31.968-45.784
			c-0.634-0.823-0.481-2.005,0.342-2.641l15.992-12.392l0.001,0.001c0.023-0.018,0.048-0.036,0.073-0.053
			c0.851-0.596,2.025-0.387,2.621,0.465l12.94,18.533 M131.662,283.49l-13.013,10.084 M159.366,351.887
			c2.241,3.21,5.394,4.05,8.22,3.397c1.136-0.263,2.221-0.755,3.182-1.426c0.957-0.669,1.794-1.52,2.436-2.501
			c1.586-2.426,1.883-5.674-0.357-8.881 M146.555,298.245l29.377,42.075c3.27,4.682,2.798,9.484,0.432,13.104
			c-0.897,1.371-2.079,2.569-3.44,3.52c-1.36,0.949-2.894,1.646-4.496,2.017c-4.212,0.975-8.88-0.236-12.148-4.917l-9.725-13.928"/>
		<path fill-rule="evenodd" clip-rule="evenodd" fill="#FFFFFF" stroke="#CECECC" stroke-width="0.5" stroke-miterlimit="10" d="
			M174.39,341.397l-42.318-60.608l-15.992,12.392l41.743,59.783C165.475,363.924,182.042,352.356,174.39,341.397z"/>
		<path fill="#FFFFFF" stroke="#CECECC" stroke-width="0.5" stroke-miterlimit="10" d="M56.121,368.194
			c-1.325,1.831-1.78,4.038-1.447,6.118c0.333,2.076,1.457,4.028,3.289,5.354l0.002,0.002c1.831,1.323,4.036,1.777,6.115,1.444
			c2.077-0.333,4.028-1.457,5.354-3.288l0.002-0.002 M93.736,350.676l-21.184,29.278c-0.038,0.06-0.08,0.117-0.127,0.173
			c-1.93,2.617-4.751,4.223-7.754,4.705c-2.997,0.48-6.175-0.162-8.828-2.042c-0.064-0.041-0.125-0.085-0.185-0.134
			c-2.617-1.93-4.224-4.751-4.705-7.754c-0.486-3.034,0.178-6.252,2.11-8.923l40.672-56.212 M93.736,309.767l21.184-29.279
			c0.039-0.06,0.081-0.117,0.127-0.173c1.93-2.616,4.752-4.223,7.754-4.704c2.997-0.481,6.177,0.162,8.828,2.042
			c0.063,0.039,0.123,0.084,0.182,0.132c2.618,1.931,4.226,4.752,4.708,7.756c0.487,3.033-0.177,6.252-2.11,8.923l-40.672,56.213
			 M131.352,292.249c1.324-1.83,1.779-4.037,1.446-6.118c-0.329-2.049-1.426-3.975-3.214-5.3c-0.05-0.033-0.098-0.068-0.145-0.105
			c-1.817-1.285-3.994-1.725-6.047-1.395c-2.076,0.333-4.028,1.456-5.354,3.288l-0.001,0.002"/>
		<path fill-rule="evenodd" clip-rule="evenodd" fill="#FFFFFF" stroke="#CECECC" stroke-width="0.5" stroke-miterlimit="10" d="
			M56.856,381.194L56.856,381.194c4.502,3.258,10.85,2.239,14.108-2.263l61.916-85.575c3.257-4.502,2.239-10.85-2.263-14.108l0,0
			c-4.502-3.257-10.851-2.239-14.108,2.263l-61.918,85.575C51.335,371.589,52.354,377.937,56.856,381.194z"/>
		<path fill="#FFFFFF" stroke="#CECECC" stroke-width="0.5" stroke-miterlimit="10" d="M-0.254,387.692l61.984,0.258
			c4.679,0.023,8.941-1.868,12.038-4.935c3.093-3.062,5.025-7.305,5.048-11.985v-0.001v-0.007h0.009v-0.001
			c0-0.057-0.004-0.114-0.009-0.17c-0.025-4.608-1.907-8.802-4.934-11.86c-3.062-3.094-7.305-5.026-11.987-5.049l-62.15-0.26v3.767
			l62.135,0.258c3.636,0.018,6.938,1.526,9.329,3.942c2.353,2.376,3.817,5.632,3.841,9.207c-0.004,0.055-0.007,0.11-0.007,0.165
			v0.001h0.007c-0.02,3.632-1.528,6.931-3.941,9.32c-2.412,2.388-5.728,3.86-9.366,3.842l-61.999-0.257V387.692z"/>
		<path fill-rule="evenodd" clip-rule="evenodd" fill="#FFFFFF" stroke="#CECECC" stroke-width="0.5" stroke-miterlimit="10" d="
			M-0.254,385.757l61.991,0.311c8.316,0.042,15.155-6.728,15.197-15.045v-0.001c0.042-8.316-6.728-15.155-15.045-15.197
			l-62.143-0.312V385.757z"/>
		
			<circle fill-rule="evenodd" clip-rule="evenodd" fill="#FFFFFF" stroke="#CECECC" stroke-width="0.5" stroke-miterlimit="10" cx="61.57" cy="371.335" r="7.689"/>
		
			<circle fill-rule="evenodd" clip-rule="evenodd" fill="#FFFFFF" stroke="#CECECC" stroke-width="0.5" stroke-miterlimit="10" cx="124.064" cy="288.163" r="6.24"/>
		
			<circle fill-rule="evenodd" clip-rule="evenodd" fill="#FFFFFF" stroke="#CECECC" stroke-width="0.5" stroke-miterlimit="10" cx="124.065" cy="288.163" r="1.915"/>
		
			<circle fill-rule="evenodd" clip-rule="evenodd" fill="#FFFFFF" stroke="#CECECC" stroke-width="0.5" stroke-miterlimit="10" cx="61.57" cy="371.335" r="1.915"/>
	</g>
	<g>
		<g>
			<g>
				
					<line fill="#FFFFFF" stroke="#CECECC" stroke-width="0.5" stroke-miterlimit="10" x1="666.748" y1="360.803" x2="666.748" y2="363.766"/>
			</g>
			<g>
				<path fill="#FFFFFF" stroke="#CECECC" stroke-width="0.5" stroke-miterlimit="10" d="M666.748,364.389
					c-0.344,0-0.624-0.279-0.624-0.624v-2.963c0-0.344,0.279-0.624,0.624-0.624s0.624,0.279,0.624,0.624v2.963
					C667.371,364.11,667.092,364.389,666.748,364.389z"/>
			</g>
		</g>
		<g>
			<g>
				
					<line fill="#FFFFFF" stroke="#CECECC" stroke-width="0.5" stroke-miterlimit="10" x1="687.984" y1="360.803" x2="687.984" y2="363.766"/>
			</g>
			<g>
				<path fill="#FFFFFF" stroke="#CECECC" stroke-width="0.5" stroke-miterlimit="10" d="M687.984,364.389
					c-0.344,0-0.624-0.279-0.624-0.624v-2.963c0-0.344,0.279-0.624,0.624-0.624c0.344,0,0.624,0.279,0.624,0.624v2.963
					C688.608,364.11,688.329,364.389,687.984,364.389z"/>
			</g>
		</g>
	</g>
	<g>
		<g>
			<path fill="#CECECC" stroke="#FFFFFF" stroke-width="0.5" stroke-miterlimit="10" d="M677.366,378.147
				c-3.517,0-6.882-1.033-9.476-2.908c-2.614-1.889-4.226-4.466-4.54-7.255c-0.048-0.427,0.125-0.845,0.476-1.145
				c0.313-0.268,0.731-0.415,1.177-0.415h24.727c0.44,0,0.869,0.152,1.177,0.416c0.35,0.3,0.523,0.718,0.475,1.145
				c-0.314,2.789-1.926,5.366-4.54,7.255C684.248,377.114,680.882,378.147,677.366,378.147z M665.003,367.529
				c-0.178,0-0.349,0.056-0.458,0.149c-0.032,0.027-0.106,0.1-0.097,0.182c0.278,2.476,1.73,4.779,4.089,6.483
				c2.407,1.74,5.543,2.698,8.829,2.698c3.286,0,6.421-0.958,8.829-2.698c2.358-1.704,3.81-4.006,4.089-6.482
				c0.009-0.08-0.057-0.149-0.097-0.183c-0.109-0.094-0.28-0.149-0.457-0.149H665.003z"/>
		</g>
	</g>
	<g>
		<g>
			
				<rect x="664.094" y="350.005" transform="matrix(0.7071 0.7071 -0.7071 0.7071 445.4853 -367.0601)" fill="#FFFFFF" stroke="#CECECC" stroke-width="0.5" stroke-miterlimit="10" width="3.529" height="8.512"/>
		</g>
		<g>
			<path fill="#FFFFFF" stroke="#CECECC" stroke-width="0.5" stroke-miterlimit="10" d="M664.097,359.224l-3.201-3.201l6.724-6.724
				l3.201,3.201L664.097,359.224z M662.307,356.023l1.79,1.79l5.313-5.313l-1.79-1.79L662.307,356.023z"/>
		</g>
	</g>
	<g>
		<g>
			
				<rect x="664.094" y="350.005" transform="matrix(-0.7071 0.7071 -0.7071 -0.7071 1387.1919 133.9285)" fill="#FFFFFF" stroke="#CECECC" stroke-width="0.5" stroke-miterlimit="10" width="3.529" height="8.512"/>
		</g>
		<g>
			<path fill="#FFFFFF" stroke="#CECECC" stroke-width="0.5" stroke-miterlimit="10" d="M667.62,359.224l-6.724-6.724l3.201-3.201
				l6.724,6.724L667.62,359.224z M662.307,352.499l5.313,5.313l1.79-1.79l-5.313-5.313L662.307,352.499z"/>
		</g>
	</g>
	<g>
		<g>
			<path fill="#CECECC" stroke="#FFFFFF" stroke-width="0.5" stroke-miterlimit="10" d="M700.509,378.649l-1.246-0.038
				c0.008-0.328,0.013-12.634,0.013-13.178c0-5.852-2.279-11.354-6.417-15.492c-4.138-4.138-9.64-6.417-15.492-6.417
				c-5.852,0-11.354,2.279-15.492,6.417c-4.138,4.138-6.417,9.64-6.417,15.492c0,0.545,0.006,12.85,0.013,13.178l-1.246,0.038
				c-0.009-0.264-0.014-13.089-0.014-13.217c0-6.185,2.409-12,6.782-16.374c4.374-4.374,10.189-6.782,16.374-6.782
				c6.185,0,12,2.409,16.374,6.782c4.374,4.374,6.782,10.189,6.782,16.374C700.523,365.561,700.518,378.386,700.509,378.649z"/>
		</g>
	</g>
	<g>
		<path fill="#FFFFFF" stroke="#CECECC" stroke-width="0.5" stroke-miterlimit="10" d="M655.34,383.325l1.229,1.798
			c0.014,0.028,0.029,0.064,0.029,0.1c0,0.107-0.128,0.234-0.249,0.234c-0.057,0-0.106-0.028-0.142-0.085l-1.194-1.755l-0.654,0.576
			v1.059c0,0.092-0.099,0.185-0.235,0.185c-0.128,0-0.227-0.092-0.227-0.185v-5.067c0-0.1,0.099-0.171,0.227-0.171
			c0.135,0,0.235,0.071,0.235,0.171v3.461l1.734-1.542c0.036-0.021,0.071-0.043,0.107-0.043c0.113,0,0.234,0.1,0.234,0.22
			c0,0.043-0.007,0.092-0.05,0.128L655.34,383.325z"/>
		<path fill="#FFFFFF" stroke="#CECECC" stroke-width="0.5" stroke-miterlimit="10" d="M657.672,380.781
			c0,0.156-0.135,0.298-0.306,0.298c-0.178,0-0.32-0.142-0.32-0.298c0-0.156,0.142-0.291,0.32-0.291
			C657.537,380.489,657.672,380.624,657.672,380.781z M657.601,382.245v3.006c0,0.092-0.107,0.185-0.235,0.185
			s-0.227-0.092-0.227-0.185v-3.006c0-0.1,0.099-0.171,0.227-0.171S657.601,382.145,657.601,382.245z"/>
		<path fill="#FFFFFF" stroke="#CECECC" stroke-width="0.5" stroke-miterlimit="10" d="M658.376,384.135v-0.76
			c0-0.753,0.426-1.343,1.371-1.343c0.604,0,1.002,0.27,1.002,0.462c0,0.1-0.092,0.227-0.206,0.227
			c-0.135,0-0.256-0.263-0.774-0.263c-0.618,0-0.931,0.348-0.931,0.917v0.76c0,0.576,0.313,0.924,0.938,0.924
			c0.547,0,0.661-0.27,0.803-0.27c0.128,0,0.213,0.121,0.213,0.227c0,0.192-0.412,0.469-1.037,0.469
			C658.809,385.485,658.376,384.91,658.376,384.135z"/>
		<path fill="#FFFFFF" stroke="#CECECC" stroke-width="0.5" stroke-miterlimit="10" d="M662.861,383.325l1.229,1.798
			c0.014,0.028,0.029,0.064,0.029,0.1c0,0.107-0.128,0.234-0.249,0.234c-0.057,0-0.106-0.028-0.142-0.085l-1.194-1.755l-0.654,0.576
			v1.059c0,0.092-0.099,0.185-0.235,0.185c-0.128,0-0.227-0.092-0.227-0.185v-5.067c0-0.1,0.099-0.171,0.227-0.171
			c0.135,0,0.235,0.071,0.235,0.171v3.461l1.734-1.542c0.036-0.021,0.071-0.043,0.107-0.043c0.113,0,0.234,0.1,0.234,0.22
			c0,0.043-0.007,0.092-0.05,0.128L662.861,383.325z"/>
		<path fill="#FFFFFF" stroke="#CECECC" stroke-width="0.5" stroke-miterlimit="10" d="M665.107,382.245v0.327
			c0.156-0.277,0.483-0.54,0.952-0.54c0.704,0,1.279,0.597,1.279,1.329v0.775c0,0.704-0.59,1.35-1.258,1.35
			c-0.433,0-0.803-0.256-0.959-0.547v1.968c0,0.085-0.099,0.178-0.235,0.178c-0.128,0-0.227-0.092-0.227-0.178v-4.662
			c0-0.1,0.099-0.171,0.227-0.171C665.008,382.074,665.107,382.145,665.107,382.245z M666.876,383.36
			c0-0.455-0.405-0.903-0.895-0.903c-0.427,0-0.86,0.334-0.86,0.903v0.995c0,0.213,0.37,0.704,0.874,0.704
			c0.469,0,0.881-0.455,0.881-0.924V383.36z"/>
		<path fill="#FFFFFF" stroke="#CECECC" stroke-width="0.5" stroke-miterlimit="10" d="M668.064,384.149v-1.897
			c0-0.085,0.099-0.178,0.235-0.178c0.121,0,0.227,0.092,0.227,0.178v1.897c0,0.462,0.391,0.91,0.888,0.91
			c0.49,0,0.888-0.441,0.888-0.91v-1.904c0-0.092,0.107-0.171,0.235-0.171c0.128,0,0.227,0.078,0.227,0.171v1.904
			c0,0.711-0.618,1.336-1.35,1.336C668.669,385.485,668.064,384.853,668.064,384.149z"/>
		<path fill="#FFFFFF" stroke="#CECECC" stroke-width="0.5" stroke-miterlimit="10" d="M672.087,385.251
			c0,0.092-0.107,0.185-0.235,0.185c-0.135,0-0.227-0.092-0.227-0.185v-3.006c0-0.1,0.092-0.171,0.227-0.171
			c0.114,0,0.213,0.071,0.213,0.171v0.327c0.149-0.277,0.476-0.54,0.953-0.54c0.682,0,1.265,0.597,1.265,1.329v1.89
			c0,0.121-0.121,0.185-0.235,0.185c-0.106,0-0.227-0.064-0.227-0.185v-1.89c0-0.455-0.398-0.903-0.888-0.903
			c-0.419,0-0.845,0.334-0.845,0.903V385.251z"/>
		<path fill="#FFFFFF" stroke="#CECECC" stroke-width="0.5" stroke-miterlimit="10" d="M675.03,384.135v-0.76
			c0-0.753,0.426-1.343,1.371-1.343c0.604,0,1.002,0.27,1.002,0.462c0,0.1-0.092,0.227-0.206,0.227
			c-0.135,0-0.256-0.263-0.774-0.263c-0.618,0-0.931,0.348-0.931,0.917v0.76c0,0.576,0.313,0.924,0.938,0.924
			c0.547,0,0.661-0.27,0.803-0.27c0.128,0,0.213,0.121,0.213,0.227c0,0.192-0.412,0.469-1.038,0.469
			C675.464,385.485,675.03,384.91,675.03,384.135z"/>
		<path fill="#FFFFFF" stroke="#CECECC" stroke-width="0.5" stroke-miterlimit="10" d="M678.535,385.251
			c0,0.092-0.107,0.185-0.235,0.185c-0.128,0-0.227-0.092-0.227-0.185v-5.067c0-0.1,0.099-0.171,0.227-0.171
			c0.128,0,0.235,0.071,0.235,0.171v2.388c0.149-0.277,0.469-0.54,0.938-0.54c0.682,0,1.258,0.597,1.258,1.329v1.89
			c0,0.121-0.114,0.185-0.235,0.185c-0.106,0-0.227-0.064-0.227-0.185v-1.89c0-0.455-0.398-0.903-0.881-0.903
			c-0.42,0-0.853,0.334-0.853,0.903V385.251z"/>
		<path fill="#FFFFFF" stroke="#CECECC" stroke-width="0.5" stroke-miterlimit="10" d="M681.521,384.185v-0.853
			c0-0.725,0.412-1.293,1.3-1.293c0.569,0,0.931,0.27,0.931,0.419c0,0.064-0.064,0.121-0.128,0.121
			c-0.121,0-0.242-0.291-0.803-0.291c-0.682,0-1.052,0.398-1.052,1.045v0.853c0,0.647,0.363,1.045,1.059,1.045
			c0.597,0,0.718-0.291,0.845-0.291c0.064,0,0.121,0.057,0.121,0.121c0,0.149-0.37,0.419-0.974,0.419
			C681.94,385.478,681.521,384.924,681.521,384.185z"/>
		<path fill="#FFFFFF" stroke="#CECECC" stroke-width="0.5" stroke-miterlimit="10" d="M685.728,382.287
			c-0.497,0-0.988,0.384-0.988,1.03v1.99c0,0.064-0.057,0.128-0.128,0.128c-0.071,0-0.121-0.064-0.121-0.128v-3.105
			c0-0.071,0.05-0.121,0.121-0.121c0.071,0,0.128,0.05,0.128,0.121v0.377c0.163-0.277,0.49-0.54,0.988-0.54h0.263
			c0.064,0,0.121,0.057,0.121,0.128c0,0.064-0.057,0.121-0.121,0.121H685.728z"/>
		<path fill="#FFFFFF" stroke="#CECECC" stroke-width="0.5" stroke-miterlimit="10" d="M688.899,383.318
			c0,0.519-0.284,0.533-0.59,0.533h-1.684v0.334c0,0.647,0.504,1.045,1.201,1.045c0.597,0,0.704-0.291,0.839-0.291
			c0.064,0,0.128,0.071,0.128,0.128c0,0.135-0.37,0.412-0.981,0.412c-0.838,0-1.435-0.519-1.435-1.293v-0.888
			c0-0.682,0.576-1.258,1.265-1.258C688.309,382.039,688.899,382.579,688.899,383.318z M688.223,383.602
			c0.348,0,0.427-0.043,0.427-0.263c0-0.512-0.398-1.052-1.009-1.052c-0.576,0-1.016,0.476-1.016,1.009v0.305H688.223z"/>
		<path fill="#FFFFFF" stroke="#CECECC" stroke-width="0.5" stroke-miterlimit="10" d="M691.728,383.403v1.904
			c0,0.071-0.05,0.128-0.121,0.128s-0.128-0.057-0.128-0.128v-0.37c-0.242,0.277-0.597,0.54-1.066,0.54
			c-0.554,0-0.988-0.298-0.988-0.938c0-0.753,0.668-0.938,1.656-0.938h0.398v-0.199c0-0.533-0.263-1.116-0.938-1.116
			c-0.441,0-0.654,0.192-0.739,0.192c-0.078,0-0.128-0.092-0.128-0.142c0-0.135,0.448-0.298,0.881-0.298
			C691.429,382.039,691.728,382.699,691.728,383.403z M691.479,383.851h-0.391c-0.732,0-1.414,0.071-1.414,0.689
			c0,0.476,0.32,0.689,0.732,0.689c0.533,0,1.073-0.476,1.073-0.782V383.851z"/>
		<path fill="#FFFFFF" stroke="#CECECC" stroke-width="0.5" stroke-miterlimit="10" d="M692.652,380.56
			c0-0.071,0.064-0.121,0.121-0.121c0.064,0,0.128,0.05,0.128,0.121v1.521h0.96c0.064,0,0.12,0.057,0.12,0.128
			c0,0.064-0.057,0.121-0.12,0.121h-0.96v2.118c0,0.54,0.206,0.739,0.789,0.739h0.163c0.064,0,0.121,0.05,0.121,0.121
			c0,0.071-0.057,0.128-0.121,0.128h-0.163c-0.675,0-1.037-0.298-1.037-0.988V380.56z"/>
		<path fill="#FFFFFF" stroke="#CECECC" stroke-width="0.5" stroke-miterlimit="10" d="M694.941,380.745
			c0,0.121-0.099,0.227-0.22,0.227c-0.128,0-0.228-0.107-0.228-0.227c0-0.121,0.1-0.22,0.228-0.22
			C694.842,380.525,694.941,380.624,694.941,380.745z M694.849,382.202v3.105c0,0.064-0.057,0.128-0.128,0.128
			c-0.064,0-0.121-0.064-0.121-0.128v-3.105c0-0.071,0.057-0.121,0.121-0.121C694.792,382.081,694.849,382.131,694.849,382.202z"/>
		<path fill="#FFFFFF" stroke="#CECECC" stroke-width="0.5" stroke-miterlimit="10" d="M697.983,382.202
			c0,0.035-0.021,0.085-0.029,0.107l-1.108,3.084c-0.021,0.05-0.064,0.085-0.121,0.085c-0.064,0-0.1-0.028-0.121-0.085l-1.109-3.084
			c-0.007-0.021-0.029-0.071-0.029-0.1c0-0.071,0.057-0.128,0.128-0.128c0.05,0,0.1,0.028,0.121,0.078l1.009,2.793l1.002-2.75
			c0.021-0.057,0.029-0.121,0.121-0.121C697.911,382.081,697.983,382.131,697.983,382.202z"/>
		<path fill="#FFFFFF" stroke="#CECECC" stroke-width="0.5" stroke-miterlimit="10" d="M701.004,383.318
			c0,0.519-0.284,0.533-0.59,0.533h-1.684v0.334c0,0.647,0.504,1.045,1.201,1.045c0.597,0,0.704-0.291,0.838-0.291
			c0.064,0,0.128,0.071,0.128,0.128c0,0.135-0.37,0.412-0.981,0.412c-0.839,0-1.435-0.519-1.435-1.293v-0.888
			c0-0.682,0.576-1.258,1.265-1.258C700.414,382.039,701.004,382.579,701.004,383.318z M700.328,383.602
			c0.348,0,0.427-0.043,0.427-0.263c0-0.512-0.398-1.052-1.009-1.052c-0.576,0-1.016,0.476-1.016,1.009v0.305H700.328z"/>
	</g>
</g>
</svg>
