<?xml version="1.0" encoding="utf-8"?>
<!-- Generator: Adobe Illustrator 19.0.1, SVG Export Plug-In . SVG Version: 6.00 Build 0)  -->
<svg version="1.1" id="Layer_1" xmlns="http://www.w3.org/2000/svg" xmlns:xlink="http://www.w3.org/1999/xlink" x="0px" y="0px"
	 viewBox="0 0 420.7 229.3" style="enable-background:new 0 0 420.7 229.3;" xml:space="preserve">
<style type="text/css">
	.st0{fill:#EFEFEF;}
	.st1{fill:#303333;}
</style>
<path class="st0" d="M392.9,220l-17.2-42.5c6.4-4.7,10.6-12.3,10.6-20.9V57.9c0-14.3-11.6-26-26-26H53.8c-14.3,0-26,11.6-26,26v98.7
	c0,14.3,11.6,26,26,26h264.3L392.9,220z"/>
<g>
	<path class="st1" d="M160.7,98.2c0,0.3-0.3,0.7-0.7,0.7c-0.4,0-0.7-0.3-0.7-0.7V70.1c0-0.4,0.3-0.7,0.7-0.7c0.4,0,0.7,0.3,0.7,0.7
		v13.4c0.8-1.5,2.6-2.9,5.1-2.9c3.8,0,6.9,3.1,6.9,6.9v10.7c0,0.5-0.3,0.7-0.7,0.7c-0.3,0-0.7-0.2-0.7-0.7V87.5
		c0-2.8-2.5-5.6-5.4-5.6c-2.6,0-5.2,2.1-5.2,5.6V98.2z"/>
	<path class="st1" d="M179,73.6c0,0.7-0.5,1.2-1.2,1.2c-0.7,0-1.2-0.6-1.2-1.2c0-0.7,0.5-1.2,1.2-1.2C178.5,72.4,179,72.9,179,73.6z
		 M178.5,81.4v16.7c0,0.3-0.3,0.7-0.7,0.7c-0.3,0-0.7-0.3-0.7-0.7V81.4c0-0.4,0.3-0.7,0.7-0.7C178.2,80.8,178.5,81.1,178.5,81.4z"/>
	<path class="st1" d="M185.7,97.7c0,0.7-0.6,1.4-1.3,1.4c-0.8,0-1.4-0.7-1.4-1.4c0-0.8,0.6-1.4,1.4-1.4
		C185.1,96.3,185.7,97,185.7,97.7z M184.9,92.6c0,0.4-0.4,0.6-0.6,0.6c-0.3,0-0.6-0.2-0.6-0.6c0-6.9-0.4-14.3-0.4-21.2
		c0-0.8,0.4-1.2,1-1.2c0.6,0,1,0.4,1,1.2C185.4,78.3,184.9,85.7,184.9,92.6z"/>
	<path class="st1" d="M220,81.4c0,0.2-0.1,0.5-0.2,0.5l-6,16.7c-0.1,0.3-0.3,0.5-0.6,0.5c-0.3,0-0.4-0.1-0.5-0.4l-4.5-14.4
		l-4.4,14.1c-0.2,0.5-0.3,0.7-0.7,0.7c-0.3,0-0.5-0.1-0.7-0.7l-6-16.5c0-0.1-0.2-0.4-0.2-0.5c0-0.4,0.3-0.7,0.7-0.7
		c0.3,0,0.5,0.2,0.7,0.4l5.4,15l4.4-13.9c0.1-0.3,0.3-0.5,0.7-0.5s0.6,0.2,0.7,0.5l4.3,14.1l5.5-15.2c0.1-0.3,0.3-0.4,0.6-0.4
		C219.7,80.8,220,81,220,81.4z"/>
	<path class="st1" d="M235.8,87.5c0,2.8-1.5,2.9-3.2,2.9h-9.1v1.8c0,3.5,2.7,5.6,6.5,5.6c3.2,0,3.8-1.6,4.5-1.6
		c0.3,0,0.7,0.4,0.7,0.7c0,0.7-2,2.2-5.3,2.2c-4.5,0-7.7-2.8-7.7-7v-4.8c0-3.7,3.1-6.8,6.8-6.8C232.7,80.6,235.8,83.5,235.8,87.5z
		 M232.2,89c1.9,0,2.3-0.2,2.3-1.4c0-2.8-2.1-5.7-5.4-5.7c-3.1,0-5.5,2.6-5.5,5.4V89H232.2z"/>
	<path class="st1" d="M240.6,71.9c0,0.6-0.7,2.5-1.3,3.7c-0.1,0.2-0.3,0.4-0.5,0.4c-0.3,0-0.6-0.2-0.6-0.6c0-0.1,0-0.2,0-0.2l0.7-2
		c-0.6-0.2-1-0.7-1-1.3c0-0.8,0.6-1.4,1.4-1.4C240,70.5,240.6,71.1,240.6,71.9z"/>
	<path class="st1" d="M249.8,81.9c-2.7,0-5.3,2.1-5.3,5.6v10.7c0,0.3-0.3,0.7-0.7,0.7c-0.4,0-0.7-0.3-0.7-0.7V81.4
		c0-0.4,0.3-0.7,0.7-0.7c0.4,0,0.7,0.3,0.7,0.7v2c0.9-1.5,2.6-2.9,5.3-2.9h1.4c0.3,0,0.7,0.3,0.7,0.7c0,0.3-0.3,0.7-0.7,0.7H249.8z"
		/>
	<path class="st1" d="M267,87.5c0,2.8-1.5,2.9-3.2,2.9h-9.1v1.8c0,3.5,2.7,5.6,6.5,5.6c3.2,0,3.8-1.6,4.5-1.6c0.3,0,0.7,0.4,0.7,0.7
		c0,0.7-2,2.2-5.3,2.2c-4.5,0-7.7-2.8-7.7-7v-4.8c0-3.7,3.1-6.8,6.8-6.8C263.8,80.6,267,83.5,267,87.5z M263.3,89
		c1.9,0,2.3-0.2,2.3-1.4c0-2.8-2.1-5.7-5.4-5.7c-3.1,0-5.5,2.6-5.5,5.4V89H263.3z"/>
	<path class="st1" d="M81.9,114v19.8l10.3-9c0.1-0.1,0.2-0.2,0.4-0.2c0.3,0,0.7,0.2,0.7,0.6c0,0.2,0,0.4-0.2,0.6l-6.2,5.4l7.1,10.5
		c0.1,0.1,0.1,0.3,0.1,0.4c0,0.3-0.3,0.7-0.7,0.7c-0.2,0-0.4-0.1-0.5-0.3l-7.1-10.3l-4,3.5v6.4c0,0.3-0.3,0.7-0.7,0.7
		c-0.4,0-0.7-0.3-0.7-0.7V114c0-0.4,0.3-0.7,0.7-0.7C81.6,113.3,81.9,113.6,81.9,114z"/>
	<path class="st1" d="M99.1,117.5c0,0.7-0.5,1.2-1.2,1.2c-0.7,0-1.2-0.6-1.2-1.2c0-0.7,0.5-1.2,1.2-1.2
		C98.6,116.3,99.1,116.8,99.1,117.5z M98.6,125.3v16.7c0,0.3-0.3,0.7-0.7,0.7c-0.3,0-0.7-0.3-0.7-0.7v-16.7c0-0.4,0.3-0.7,0.7-0.7
		C98.3,124.7,98.6,125,98.6,125.3z"/>
	<path class="st1" d="M102.6,136v-4.6c0-3.9,2.2-7,7-7c3.1,0,5,1.5,5,2.3c0,0.3-0.3,0.7-0.7,0.7c-0.7,0-1.3-1.6-4.3-1.6
		c-3.7,0-5.7,2.1-5.7,5.6v4.6c0,3.5,2,5.6,5.7,5.6c3.2,0,3.9-1.6,4.6-1.6c0.3,0,0.7,0.3,0.7,0.7c0,0.8-2,2.3-5.2,2.3
		C104.8,143,102.6,140,102.6,136z"/>
	<path class="st1" d="M119.6,114v19.8l10.3-9c0.1-0.1,0.2-0.2,0.4-0.2c0.3,0,0.7,0.2,0.7,0.6c0,0.2,0,0.4-0.2,0.6l-6.2,5.4l7.1,10.5
		c0.1,0.1,0.1,0.3,0.1,0.4c0,0.3-0.3,0.7-0.7,0.7c-0.2,0-0.4-0.1-0.5-0.3l-7.1-10.3l-4,3.5v6.4c0,0.3-0.3,0.7-0.7,0.7
		c-0.4,0-0.7-0.3-0.7-0.7V114c0-0.4,0.3-0.7,0.7-0.7C119.3,113.3,119.6,113.6,119.6,114z"/>
	<path class="st1" d="M144,125.3v2c0.8-1.5,2.6-2.9,5.1-2.9c3.8,0,6.9,3.1,6.9,6.9v4.7c0,3.6-3.2,7-6.8,7c-2.3,0-4.4-1.3-5.2-2.9
		v11.1c0,0.3-0.3,0.7-0.7,0.7c-0.4,0-0.7-0.3-0.7-0.7v-25.8c0-0.4,0.3-0.7,0.7-0.7C143.7,124.7,144,125,144,125.3z M154.7,131.4
		c0-2.8-2.5-5.6-5.4-5.6c-2.6,0-5.2,2.1-5.2,5.6v6.1c0,1.3,2.3,4.2,5.3,4.2c2.9,0,5.4-2.8,5.4-5.6V131.4z"/>
	<path class="st1" d="M159.9,136.1v-10.7c0-0.3,0.3-0.7,0.7-0.7c0.3,0,0.7,0.3,0.7,0.7v10.7c0,2.8,2.4,5.6,5.5,5.6
		c3,0,5.4-2.7,5.4-5.6v-10.8c0-0.3,0.3-0.7,0.7-0.7c0.4,0,0.7,0.3,0.7,0.7v10.8c0,3.7-3.1,6.9-6.8,6.9
		C163,143,159.9,139.7,159.9,136.1z"/>
	<path class="st1" d="M179.4,142.1c0,0.3-0.3,0.7-0.7,0.7s-0.7-0.3-0.7-0.7v-16.7c0-0.4,0.3-0.7,0.7-0.7s0.7,0.3,0.7,0.7v2
		c0.8-1.5,2.6-2.9,5.1-2.9c3.8,0,6.9,3.1,6.9,6.9v10.7c0,0.5-0.3,0.7-0.7,0.7c-0.3,0-0.7-0.2-0.7-0.7v-10.7c0-2.8-2.5-5.6-5.4-5.6
		c-2.6,0-5.2,2.1-5.2,5.6V142.1z"/>
	<path class="st1" d="M195.3,136v-4.6c0-3.9,2.2-7,7-7c3.1,0,5,1.5,5,2.3c0,0.3-0.3,0.7-0.7,0.7c-0.7,0-1.3-1.6-4.3-1.6
		c-3.7,0-5.7,2.1-5.7,5.6v4.6c0,3.5,2,5.6,5.7,5.6c3.2,0,3.9-1.6,4.6-1.6c0.3,0,0.7,0.3,0.7,0.7c0,0.8-2,2.3-5.2,2.3
		C197.6,143,195.3,140,195.3,136z"/>
	<path class="st1" d="M212.4,142.1c0,0.3-0.3,0.7-0.7,0.7c-0.4,0-0.7-0.3-0.7-0.7V114c0-0.4,0.3-0.7,0.7-0.7c0.4,0,0.7,0.3,0.7,0.7
		v13.4c0.8-1.5,2.6-2.9,5.1-2.9c3.8,0,6.9,3.1,6.9,6.9v10.7c0,0.5-0.3,0.7-0.7,0.7c-0.3,0-0.7-0.2-0.7-0.7v-10.7
		c0-2.8-2.5-5.6-5.4-5.6c-2.6,0-5.2,2.1-5.2,5.6V142.1z"/>
	<path class="st1" d="M236.5,136v-4.6c0-3.9,2.2-7,7-7c3.1,0,5,1.5,5,2.3c0,0.3-0.3,0.7-0.7,0.7c-0.7,0-1.3-1.6-4.3-1.6
		c-3.7,0-5.7,2.1-5.7,5.6v4.6c0,3.5,2,5.6,5.7,5.6c3.2,0,3.9-1.6,4.6-1.6c0.3,0,0.7,0.3,0.7,0.7c0,0.8-2,2.3-5.2,2.3
		C238.8,143,236.5,140,236.5,136z"/>
	<path class="st1" d="M258.8,125.8c-2.7,0-5.3,2.1-5.3,5.6v10.7c0,0.3-0.3,0.7-0.7,0.7c-0.4,0-0.7-0.3-0.7-0.7v-16.7
		c0-0.4,0.3-0.7,0.7-0.7c0.4,0,0.7,0.3,0.7,0.7v2c0.9-1.5,2.6-2.9,5.3-2.9h1.4c0.3,0,0.7,0.3,0.7,0.7c0,0.3-0.3,0.7-0.7,0.7H258.8z"
		/>
	<path class="st1" d="M276.1,131.4c0,2.8-1.5,2.9-3.2,2.9h-9.1v1.8c0,3.5,2.7,5.6,6.5,5.6c3.2,0,3.8-1.6,4.5-1.6
		c0.3,0,0.7,0.4,0.7,0.7c0,0.7-2,2.2-5.3,2.2c-4.5,0-7.7-2.8-7.7-7v-4.8c0-3.7,3.1-6.8,6.8-6.8C272.9,124.5,276.1,127.4,276.1,131.4
		z M272.4,132.9c1.9,0,2.3-0.2,2.3-1.4c0-2.8-2.1-5.7-5.4-5.7c-3.1,0-5.5,2.6-5.5,5.4v1.6H272.4z"/>
	<path class="st1" d="M291,131.8v10.3c0,0.4-0.3,0.7-0.7,0.7c-0.4,0-0.7-0.3-0.7-0.7v-2c-1.3,1.5-3.2,2.9-5.7,2.9
		c-3,0-5.3-1.6-5.3-5.1c0-4.1,3.6-5.1,8.9-5.1h2.1v-1.1c0-2.9-1.4-6-5.1-6c-2.4,0-3.5,1-4,1c-0.4,0-0.7-0.5-0.7-0.8
		c0-0.7,2.4-1.6,4.8-1.6C289.4,124.5,291,128,291,131.8z M289.7,134.2h-2.1c-3.9,0-7.6,0.4-7.6,3.7c0,2.6,1.7,3.7,3.9,3.7
		c2.9,0,5.8-2.6,5.8-4.2V134.2z"/>
	<path class="st1" d="M295.3,116.5c0-0.4,0.3-0.7,0.7-0.7c0.3,0,0.7,0.3,0.7,0.7v8.2h5.2c0.3,0,0.7,0.3,0.7,0.7
		c0,0.3-0.3,0.7-0.7,0.7h-5.2v11.4c0,2.9,1.1,4,4.3,4h0.9c0.3,0,0.7,0.3,0.7,0.7c0,0.4-0.3,0.7-0.7,0.7h-0.9c-3.6,0-5.6-1.6-5.6-5.3
		V116.5z"/>
	<path class="st1" d="M307.5,117.5c0,0.7-0.5,1.2-1.2,1.2c-0.7,0-1.2-0.6-1.2-1.2c0-0.7,0.5-1.2,1.2-1.2
		C307,116.3,307.5,116.8,307.5,117.5z M307,125.3v16.7c0,0.3-0.3,0.7-0.7,0.7c-0.3,0-0.7-0.3-0.7-0.7v-16.7c0-0.4,0.3-0.7,0.7-0.7
		C306.7,124.7,307,125,307,125.3z"/>
	<path class="st1" d="M323.8,125.3c0,0.2-0.1,0.5-0.2,0.6l-6,16.6c-0.1,0.3-0.3,0.5-0.7,0.5c-0.3,0-0.5-0.2-0.7-0.5l-6-16.6
		c0-0.1-0.2-0.4-0.2-0.5c0-0.4,0.3-0.7,0.7-0.7c0.3,0,0.5,0.2,0.7,0.4l5.4,15.1l5.4-14.8c0.1-0.3,0.2-0.7,0.7-0.7
		C323.4,124.7,323.8,125,323.8,125.3z"/>
	<path class="st1" d="M339.6,131.4c0,2.8-1.5,2.9-3.2,2.9h-9.1v1.8c0,3.5,2.7,5.6,6.5,5.6c3.2,0,3.8-1.6,4.5-1.6
		c0.3,0,0.7,0.4,0.7,0.7c0,0.7-2,2.2-5.3,2.2c-4.5,0-7.7-2.8-7.7-7v-4.8c0-3.7,3.1-6.8,6.8-6.8C336.4,124.5,339.6,127.4,339.6,131.4
		z M335.9,132.9c1.9,0,2.3-0.2,2.3-1.4c0-2.8-2.1-5.7-5.4-5.7c-3.1,0-5.5,2.6-5.5,5.4v1.6H335.9z"/>
	<path class="st1" d="M345.6,141.6c0,0.7-0.6,1.4-1.3,1.4c-0.8,0-1.4-0.7-1.4-1.4c0-0.8,0.6-1.4,1.4-1.4
		C345,140.2,345.6,140.9,345.6,141.6z"/>
</g>
</svg>
