<?xml version="1.0" encoding="utf-8"?>
<!-- Generator: Adobe Illustrator 19.0.1, SVG Export Plug-In . SVG Version: 6.00 Build 0)  -->
<svg version="1.1" id="Layer_1" xmlns="http://www.w3.org/2000/svg" xmlns:xlink="http://www.w3.org/1999/xlink" x="0px" y="0px"
	 viewBox="0 0 420.7 229.3" style="enable-background:new 0 0 420.7 229.3;" xml:space="preserve">
<style type="text/css">
	.st0{fill:#FFFFFF;}
	.st1{fill:#FFFFFF;stroke:#363636;stroke-width:3;stroke-miterlimit:10;}
	.st2{fill:#363636;}
</style>
<path id="path8755" class="st0" d="M249.5,74.4c0,0.9,0,1.7-0.1,2.6c3.1,0.3,6.1,1.2,8.7,2.8c2.9-5.9,8.9-9.9,15.9-9.9
	c8.8,0,16.1,6.5,17.5,14.9c2.4-1,5-1.6,7.7-1.6c7,0,13.1,3.7,16.4,9.3c1.9-0.8,3.9-1.3,6.1-1.3c8.3,0,15,6.7,15,15
	c0,8.3-7.6,12.2-15.9,12.2c-61.6,0.4-102.6-0.2-164.4-0.4c-7.3,0-14.7-8-14.7-15.3c0-7.3,5.9-13.2,13.2-13.2c2.3,0,4.5,0.6,6.4,1.7
	c0.3-12,9.5-21.7,20.9-21.7c0.6,0,1.2,0,1.8,0.1c2.3-15.9,16-28.1,32.6-28.1C234.8,41.5,249.5,56.2,249.5,74.4z"/>
<path class="st1" d="M377.5,13.8h-328c-15.4,0-27.8,12.4-27.8,27.8v105.6c0,9.2,4.5,17.3,11.3,22.4L14.7,215l80-40h282.8
	c15.4,0,27.8-12.4,27.8-27.8V41.5C405.3,26.2,392.9,13.8,377.5,13.8z"/>
<g>
	<path class="st2" d="M153.9,84.6c0,0.4-0.3,0.7-0.7,0.7s-0.7-0.4-0.7-0.7V54.6c0-0.4,0.3-0.7,0.7-0.7s0.7,0.3,0.7,0.7v14.3
		c0.9-1.6,2.7-3.1,5.5-3.1c4,0,7.4,3.3,7.4,7.4v11.5c0,0.5-0.4,0.7-0.7,0.7c-0.3,0-0.7-0.2-0.7-0.7V73.1c0-3-2.6-5.9-5.8-5.9
		c-2.8,0-5.6,2.2-5.6,5.9V84.6z"/>
	<path class="st2" d="M173.5,58.3c0,0.7-0.6,1.3-1.3,1.3c-0.7,0-1.3-0.6-1.3-1.3c0-0.7,0.6-1.3,1.3-1.3
		C172.9,57,173.5,57.6,173.5,58.3z M172.9,66.7v17.9c0,0.4-0.3,0.7-0.7,0.7c-0.4,0-0.7-0.4-0.7-0.7V66.7c0-0.4,0.3-0.7,0.7-0.7
		C172.6,66,172.9,66.3,172.9,66.7z"/>
	<path class="st2" d="M180.6,84.1c0,0.8-0.7,1.5-1.4,1.5c-0.9,0-1.5-0.7-1.5-1.5c0-0.8,0.6-1.5,1.5-1.5
		C180,82.6,180.6,83.3,180.6,84.1z M179.8,78.7c0,0.4-0.4,0.7-0.7,0.7c-0.3,0-0.6-0.2-0.6-0.7c0-7.4-0.5-15.3-0.5-22.7
		c0-0.8,0.5-1.3,1.1-1.3c0.6,0,1.1,0.5,1.1,1.3C180.3,63.3,179.8,71.3,179.8,78.7z"/>
	<path class="st2" d="M217.4,66.7c0,0.2-0.1,0.5-0.2,0.6l-6.4,17.8c-0.1,0.4-0.3,0.5-0.6,0.5c-0.3,0-0.4-0.1-0.6-0.5l-4.8-15.4
		l-4.7,15.1c-0.2,0.5-0.4,0.7-0.7,0.7c-0.4,0-0.5-0.1-0.7-0.7l-6.4-17.6c0-0.1-0.2-0.4-0.2-0.5c0-0.4,0.3-0.7,0.7-0.7
		c0.3,0,0.6,0.2,0.7,0.5l5.8,16l4.7-14.8c0.1-0.3,0.4-0.5,0.7-0.5s0.6,0.2,0.7,0.5l4.6,15l5.9-16.2c0.1-0.3,0.4-0.5,0.7-0.5
		C217,66,217.4,66.2,217.4,66.7z"/>
	<path class="st2" d="M234.3,73.1c0,3-1.6,3.1-3.4,3.1h-9.7v1.9c0,3.7,2.9,6,6.9,6c3.4,0,4.1-1.7,4.8-1.7c0.4,0,0.7,0.4,0.7,0.7
		c0,0.8-2.1,2.4-5.7,2.4c-4.8,0-8.3-3-8.3-7.5V73c0-3.9,3.3-7.3,7.3-7.3C230.9,65.8,234.3,68.9,234.3,73.1z M230.4,74.8
		c2,0,2.5-0.2,2.5-1.5c0-3-2.3-6.1-5.8-6.1c-3.3,0-5.9,2.7-5.9,5.8v1.8H230.4z"/>
	<path class="st2" d="M239.3,56.4c0,0.7-0.7,2.7-1.4,4c-0.1,0.2-0.4,0.4-0.6,0.4c-0.3,0-0.7-0.2-0.7-0.6c0-0.1,0-0.2,0-0.2l0.7-2.1
		c-0.7-0.2-1.1-0.8-1.1-1.4c0-0.8,0.6-1.5,1.5-1.5C238.7,55,239.3,55.6,239.3,56.4z"/>
	<path class="st2" d="M249.2,67.2c-2.9,0-5.7,2.2-5.7,5.9v11.5c0,0.4-0.3,0.7-0.7,0.7S242,85,242,84.6V66.7c0-0.4,0.3-0.7,0.7-0.7
		s0.7,0.3,0.7,0.7v2.2c0.9-1.6,2.8-3.1,5.7-3.1h1.5c0.4,0,0.7,0.3,0.7,0.7c0,0.4-0.3,0.7-0.7,0.7H249.2z"/>
	<path class="st2" d="M267.6,73.1c0,3-1.6,3.1-3.4,3.1h-9.7v1.9c0,3.7,2.9,6,6.9,6c3.4,0,4.1-1.7,4.8-1.7c0.4,0,0.7,0.4,0.7,0.7
		c0,0.8-2.1,2.4-5.7,2.4c-4.8,0-8.3-3-8.3-7.5V73c0-3.9,3.3-7.3,7.3-7.3C264.2,65.8,267.6,68.9,267.6,73.1z M263.7,74.8
		c2,0,2.5-0.2,2.5-1.5c0-3-2.3-6.1-5.8-6.1c-3.3,0-5.9,2.7-5.9,5.8v1.8H263.7z"/>
	<path class="st2" d="M69.5,101.5v21.2l11.1-9.6c0.1-0.1,0.2-0.2,0.4-0.2c0.4,0,0.8,0.2,0.8,0.7c0,0.2,0,0.5-0.2,0.6l-6.6,5.7
		l7.6,11.2c0.1,0.1,0.1,0.3,0.1,0.4c0,0.4-0.3,0.7-0.7,0.7c-0.2,0-0.4-0.1-0.6-0.4l-7.5-11l-4.3,3.8v6.9c0,0.4-0.3,0.7-0.7,0.7
		c-0.4,0-0.7-0.4-0.7-0.7v-30.1c0-0.4,0.3-0.7,0.7-0.7C69.2,100.8,69.5,101.1,69.5,101.5z"/>
	<path class="st2" d="M88,105.3c0,0.7-0.6,1.3-1.3,1.3c-0.7,0-1.3-0.6-1.3-1.3c0-0.7,0.6-1.3,1.3-1.3C87.4,104,88,104.6,88,105.3z
		 M87.4,113.7v17.9c0,0.4-0.3,0.7-0.7,0.7c-0.4,0-0.7-0.4-0.7-0.7v-17.9c0-0.4,0.3-0.7,0.7-0.7C87.1,113,87.4,113.3,87.4,113.7z"/>
	<path class="st2" d="M91.7,125.1v-4.9c0-4.2,2.4-7.5,7.5-7.5c3.3,0,5.4,1.6,5.4,2.4c0,0.4-0.4,0.7-0.7,0.7c-0.7,0-1.4-1.7-4.6-1.7
		c-3.9,0-6.1,2.3-6.1,6v4.9c0,3.7,2.1,6,6.1,6c3.4,0,4.1-1.7,4.9-1.7c0.4,0,0.7,0.3,0.7,0.7c0,0.9-2.1,2.4-5.6,2.4
		C94.1,132.6,91.7,129.4,91.7,125.1z"/>
	<path class="st2" d="M109.9,101.5v21.2l11.1-9.6c0.1-0.1,0.2-0.2,0.4-0.2c0.4,0,0.8,0.2,0.8,0.7c0,0.2,0,0.5-0.2,0.6l-6.6,5.7
		l7.6,11.2c0.1,0.1,0.1,0.3,0.1,0.4c0,0.4-0.3,0.7-0.7,0.7c-0.2,0-0.4-0.1-0.6-0.4l-7.5-11l-4.3,3.8v6.9c0,0.4-0.3,0.7-0.7,0.7
		c-0.4,0-0.7-0.4-0.7-0.7v-30.1c0-0.4,0.3-0.7,0.7-0.7C109.6,100.8,109.9,101.1,109.9,101.5z"/>
	<path class="st2" d="M136,113.7v2.2c0.9-1.6,2.7-3.1,5.5-3.1c4,0,7.4,3.3,7.4,7.4v5c0,3.9-3.4,7.5-7.3,7.5c-2.5,0-4.7-1.4-5.6-3.1
		v11.8c0,0.4-0.3,0.7-0.7,0.7c-0.4,0-0.7-0.4-0.7-0.7v-27.6c0-0.4,0.3-0.7,0.7-0.7C135.7,113,136,113.3,136,113.7z M147.5,120.1
		c0-3-2.6-5.9-5.8-5.9c-2.8,0-5.6,2.2-5.6,5.9v6.5c0,1.4,2.4,4.5,5.7,4.5c3.1,0,5.8-3,5.8-6V120.1z"/>
	<path class="st2" d="M153.1,125.2v-11.5c0-0.4,0.3-0.7,0.7-0.7c0.4,0,0.7,0.4,0.7,0.7v11.5c0,3,2.6,5.9,5.9,5.9
		c3.2,0,5.8-2.9,5.8-5.9v-11.5c0-0.4,0.3-0.7,0.7-0.7s0.7,0.3,0.7,0.7v11.5c0,3.9-3.3,7.4-7.3,7.4
		C156.3,132.6,153.1,129.1,153.1,125.2z"/>
	<path class="st2" d="M173.9,131.6c0,0.4-0.3,0.7-0.7,0.7s-0.7-0.4-0.7-0.7v-17.9c0-0.4,0.3-0.7,0.7-0.7s0.7,0.3,0.7,0.7v2.2
		c0.9-1.6,2.7-3.1,5.5-3.1c4,0,7.4,3.3,7.4,7.4v11.5c0,0.5-0.4,0.7-0.7,0.7c-0.3,0-0.7-0.2-0.7-0.7v-11.5c0-3-2.6-5.9-5.8-5.9
		c-2.8,0-5.6,2.2-5.6,5.9V131.6z"/>
	<path class="st2" d="M190.9,125.1v-4.9c0-4.2,2.4-7.5,7.5-7.5c3.3,0,5.4,1.6,5.4,2.4c0,0.4-0.4,0.7-0.7,0.7c-0.7,0-1.4-1.7-4.6-1.7
		c-3.9,0-6.1,2.3-6.1,6v4.9c0,3.7,2.1,6,6.1,6c3.4,0,4.1-1.7,4.9-1.7c0.4,0,0.7,0.3,0.7,0.7c0,0.9-2.1,2.4-5.6,2.4
		C193.3,132.6,190.9,129.4,190.9,125.1z"/>
	<path class="st2" d="M209.2,131.6c0,0.4-0.3,0.7-0.7,0.7s-0.7-0.4-0.7-0.7v-30.1c0-0.4,0.3-0.7,0.7-0.7s0.7,0.3,0.7,0.7v14.3
		c0.9-1.6,2.7-3.1,5.5-3.1c4,0,7.4,3.3,7.4,7.4v11.5c0,0.5-0.4,0.7-0.7,0.7c-0.3,0-0.7-0.2-0.7-0.7v-11.5c0-3-2.6-5.9-5.8-5.9
		c-2.8,0-5.6,2.2-5.6,5.9V131.6z"/>
	<path class="st2" d="M235,125.1v-4.9c0-4.2,2.4-7.5,7.5-7.5c3.3,0,5.4,1.6,5.4,2.4c0,0.4-0.4,0.7-0.7,0.7c-0.7,0-1.4-1.7-4.6-1.7
		c-3.9,0-6.1,2.3-6.1,6v4.9c0,3.7,2.1,6,6.1,6c3.4,0,4.1-1.7,4.9-1.7c0.4,0,0.7,0.3,0.7,0.7c0,0.9-2.1,2.4-5.6,2.4
		C237.4,132.6,235,129.4,235,125.1z"/>
	<path class="st2" d="M258.9,114.2c-2.9,0-5.7,2.2-5.7,5.9v11.5c0,0.4-0.3,0.7-0.7,0.7s-0.7-0.4-0.7-0.7v-17.9
		c0-0.4,0.3-0.7,0.7-0.7s0.7,0.3,0.7,0.7v2.2c0.9-1.6,2.8-3.1,5.7-3.1h1.5c0.4,0,0.7,0.3,0.7,0.7c0,0.4-0.3,0.7-0.7,0.7H258.9z"/>
	<path class="st2" d="M277.3,120.1c0,3-1.6,3.1-3.4,3.1h-9.7v1.9c0,3.7,2.9,6,6.9,6c3.4,0,4.1-1.7,4.8-1.7c0.4,0,0.7,0.4,0.7,0.7
		c0,0.8-2.1,2.4-5.7,2.4c-4.8,0-8.3-3-8.3-7.5V120c0-3.9,3.3-7.3,7.3-7.3C273.9,112.7,277.3,115.8,277.3,120.1z M273.4,121.7
		c2,0,2.5-0.2,2.5-1.5c0-3-2.3-6.1-5.8-6.1c-3.3,0-5.9,2.7-5.9,5.8v1.8H273.4z"/>
	<path class="st2" d="M293.3,120.6v11c0,0.4-0.3,0.7-0.7,0.7s-0.7-0.3-0.7-0.7v-2.1c-1.4,1.6-3.4,3.1-6.2,3.1
		c-3.2,0-5.7-1.7-5.7-5.4c0-4.3,3.9-5.4,9.6-5.4h2.3v-1.1c0-3.1-1.5-6.4-5.4-6.4c-2.5,0-3.8,1.1-4.3,1.1c-0.5,0-0.7-0.5-0.7-0.8
		c0-0.8,2.6-1.7,5.1-1.7C291.6,112.7,293.3,116.5,293.3,120.6z M291.9,123.2h-2.3c-4.2,0-8.2,0.4-8.2,4c0,2.7,1.8,4,4.2,4
		c3.1,0,6.2-2.7,6.2-4.5V123.2z"/>
	<path class="st2" d="M298,104.2c0-0.4,0.4-0.7,0.7-0.7c0.4,0,0.7,0.3,0.7,0.7v8.8h5.5c0.4,0,0.7,0.3,0.7,0.7c0,0.4-0.3,0.7-0.7,0.7
		h-5.5v12.2c0,3.1,1.2,4.3,4.6,4.3h0.9c0.4,0,0.7,0.3,0.7,0.7c0,0.4-0.3,0.7-0.7,0.7h-0.9c-3.9,0-6-1.7-6-5.7V104.2z"/>
	<path class="st2" d="M311,105.3c0,0.7-0.6,1.3-1.3,1.3c-0.7,0-1.3-0.6-1.3-1.3c0-0.7,0.6-1.3,1.3-1.3
		C310.4,104,311,104.6,311,105.3z M310.5,113.7v17.9c0,0.4-0.3,0.7-0.7,0.7c-0.4,0-0.7-0.4-0.7-0.7v-17.9c0-0.4,0.3-0.7,0.7-0.7
		C310.1,113,310.5,113.3,310.5,113.7z"/>
	<path class="st2" d="M328.4,113.7c0,0.2-0.1,0.5-0.2,0.6l-6.4,17.8c-0.1,0.3-0.4,0.5-0.7,0.5c-0.4,0-0.6-0.2-0.7-0.5l-6.4-17.8
		c0-0.1-0.2-0.4-0.2-0.6c0-0.4,0.3-0.7,0.7-0.7c0.3,0,0.6,0.2,0.7,0.5l5.8,16.1l5.8-15.9c0.1-0.3,0.2-0.7,0.7-0.7
		C328,113,328.4,113.3,328.4,113.7z"/>
	<path class="st2" d="M345.3,120.1c0,3-1.6,3.1-3.4,3.1h-9.7v1.9c0,3.7,2.9,6,6.9,6c3.4,0,4.1-1.7,4.8-1.7c0.4,0,0.7,0.4,0.7,0.7
		c0,0.8-2.1,2.4-5.7,2.4c-4.8,0-8.3-3-8.3-7.5V120c0-3.9,3.3-7.3,7.3-7.3C341.9,112.7,345.3,115.8,345.3,120.1z M341.4,121.7
		c2,0,2.5-0.2,2.5-1.5c0-3-2.3-6.1-5.8-6.1c-3.3,0-5.9,2.7-5.9,5.8v1.8H341.4z"/>
	<path class="st2" d="M351.7,131.1c0,0.8-0.7,1.5-1.4,1.5c-0.9,0-1.5-0.7-1.5-1.5c0-0.8,0.6-1.5,1.5-1.5
		C351.1,129.6,351.7,130.3,351.7,131.1z"/>
</g>
</svg>
