<?xml version="1.0" encoding="utf-8"?>
<!-- Generator: Adobe Illustrator 19.0.1, SVG Export Plug-In . SVG Version: 6.00 Build 0)  -->
<svg version="1.1" id="Layer_1" xmlns="http://www.w3.org/2000/svg" xmlns:xlink="http://www.w3.org/1999/xlink" x="0px" y="0px"
	 viewBox="0 0 307.159 232.677" enable-background="new 0 0 307.159 232.677" xml:space="preserve">
<g>
	<g>
		<polygon fill="#EFEFEF" points="46.164,148.175 30.61,186.585 101.161,151.286 		"/>
	</g>
</g>
<g>
	<g>
		<path fill="#EFEFEF" d="M53.625,160.171h216.448c10.132,0,18.346-8.214,18.346-18.346V72.134c0-10.132-8.214-18.346-18.346-18.346
			H53.625c-10.132,0-18.346,8.214-18.346,18.346v69.691C35.279,151.957,43.493,160.171,53.625,160.171z"/>
	</g>
</g>
<g>
	<path fill="#303333" d="M110.446,100.554c0,0.243-0.217,0.486-0.488,0.486c-0.27,0-0.459-0.243-0.459-0.486V80.723
		c0-0.271,0.189-0.46,0.459-0.46c0.271,0,0.488,0.189,0.488,0.46v9.442c0.596-1.056,1.812-2.057,3.625-2.057
		c2.65,0,4.869,2.191,4.869,4.87v7.575c0,0.324-0.242,0.486-0.486,0.486c-0.217,0-0.461-0.162-0.461-0.486v-7.575
		c0-1.976-1.73-3.923-3.842-3.923c-1.838,0-3.705,1.461-3.705,3.923V100.554z"/>
	<path fill="#303333" d="M131.389,92.979c0,1.975-1.082,2.028-2.246,2.028h-6.412v1.271c0,2.462,1.922,3.978,4.572,3.978
		c2.273,0,2.68-1.109,3.193-1.109c0.244,0,0.486,0.271,0.486,0.487c0,0.514-1.406,1.568-3.732,1.568
		c-3.193,0-5.465-1.975-5.465-4.924v-3.381c0-2.598,2.191-4.789,4.814-4.789C129.143,88.109,131.389,90.166,131.389,92.979z
		 M128.819,94.061c1.326,0,1.623-0.162,1.623-1.001c0-1.948-1.516-4.004-3.842-4.004c-2.191,0-3.869,1.812-3.869,3.842v1.163
		H128.819z"/>
	<path fill="#303333" d="M135.108,80.723v19.831c0,0.243-0.217,0.486-0.488,0.486c-0.27,0-0.459-0.243-0.459-0.486V80.723
		c0-0.271,0.189-0.46,0.459-0.46C134.891,80.263,135.108,80.453,135.108,80.723z"/>
	<path fill="#303333" d="M139.653,80.723v19.831c0,0.243-0.217,0.486-0.486,0.486c-0.271,0-0.461-0.243-0.461-0.486V80.723
		c0-0.271,0.189-0.46,0.461-0.46C139.436,80.263,139.653,80.453,139.653,80.723z"/>
	<path fill="#303333" d="M152.332,92.979v3.3c0,2.57-2.246,4.924-4.814,4.924c-2.57,0-4.789-2.326-4.789-4.924v-3.3
		c0-2.598,2.164-4.87,4.789-4.87C150.086,88.109,152.332,90.3,152.332,92.979z M151.385,92.979c0-1.976-1.703-3.923-3.867-3.923
		c-2.166,0-3.842,1.947-3.842,3.923v3.3c0,2.029,1.703,3.978,3.842,3.978c2.137,0,3.867-1.948,3.867-3.978V92.979z"/>
	<path fill="#303333" d="M157.049,100.229c0,0.515-0.432,0.974-0.947,0.974c-0.568,0-0.973-0.459-0.973-0.974
		c0-0.541,0.404-0.974,0.973-0.974C156.617,99.255,157.049,99.688,157.049,100.229z M156.508,96.631c0,0.271-0.27,0.433-0.432,0.433
		c-0.189,0-0.406-0.162-0.406-0.433c0-4.87-0.299-10.118-0.299-14.988c0-0.541,0.299-0.839,0.705-0.839
		c0.404,0,0.729,0.298,0.729,0.839C156.805,86.513,156.508,91.761,156.508,96.631z"/>
	<path fill="#303333" d="M181.289,88.731c0,0.108-0.08,0.325-0.107,0.379l-4.248,11.769c-0.08,0.243-0.215,0.324-0.404,0.324
		c-0.217,0-0.271-0.081-0.379-0.297l-3.166-10.146l-3.111,9.983c-0.107,0.324-0.244,0.459-0.459,0.459
		c-0.244,0-0.326-0.081-0.461-0.459l-4.221-11.634c-0.027-0.054-0.107-0.271-0.107-0.352c0-0.271,0.217-0.487,0.486-0.487
		c0.189,0,0.379,0.108,0.461,0.298l3.814,10.578l3.111-9.794c0.08-0.216,0.242-0.352,0.486-0.352s0.406,0.136,0.486,0.352
		l3.004,9.93l3.896-10.714c0.053-0.189,0.242-0.298,0.432-0.298C181.075,88.271,181.289,88.434,181.289,88.731z"/>
	<path fill="#303333" d="M192.573,92.979c0,1.975-1.082,2.028-2.244,2.028h-6.412v1.271c0,2.462,1.92,3.978,4.572,3.978
		c2.271,0,2.678-1.109,3.191-1.109c0.244,0,0.488,0.271,0.488,0.487c0,0.514-1.408,1.568-3.734,1.568
		c-3.191,0-5.465-1.975-5.465-4.924v-3.381c0-2.598,2.191-4.789,4.816-4.789C190.328,88.109,192.573,90.166,192.573,92.979z
		 M190.004,94.061c1.324,0,1.623-0.162,1.623-1.001c0-1.948-1.516-4.004-3.842-4.004c-2.191,0-3.869,1.812-3.869,3.842v1.163
		H190.004z"/>
	<path fill="#303333" d="M196.065,81.968c0,0.433-0.459,1.758-0.893,2.624c-0.082,0.162-0.244,0.271-0.379,0.271
		c-0.217,0-0.434-0.162-0.434-0.406c0-0.054,0-0.108,0.027-0.162l0.488-1.38c-0.434-0.108-0.73-0.514-0.73-0.946
		c0-0.542,0.404-0.975,0.973-0.975C195.633,80.994,196.065,81.426,196.065,81.968z"/>
	<path fill="#303333" d="M202.717,89.056c-1.893,0-3.76,1.461-3.76,3.923v7.575c0,0.243-0.217,0.486-0.486,0.486
		c-0.271,0-0.461-0.243-0.461-0.486V88.731c0-0.271,0.189-0.46,0.461-0.46c0.27,0,0.486,0.189,0.486,0.46v1.435
		c0.623-1.056,1.867-2.057,3.76-2.057h1.002c0.244,0,0.459,0.217,0.459,0.487c0,0.243-0.215,0.46-0.459,0.46H202.717z"/>
	<path fill="#303333" d="M215.008,92.979c0,1.975-1.082,2.028-2.244,2.028h-6.412v1.271c0,2.462,1.92,3.978,4.572,3.978
		c2.271,0,2.678-1.109,3.191-1.109c0.244,0,0.488,0.271,0.488,0.487c0,0.514-1.408,1.568-3.734,1.568
		c-3.191,0-5.465-1.975-5.465-4.924v-3.381c0-2.598,2.191-4.789,4.816-4.789C212.764,88.109,215.008,90.166,215.008,92.979z
		 M212.44,94.061c1.324,0,1.623-0.162,1.623-1.001c0-1.948-1.516-4.004-3.842-4.004c-2.191,0-3.869,1.812-3.869,3.842v1.163H212.44z
		"/>
	<path fill="#303333" d="M68.598,111.723v14.014l7.305-6.357c0.08-0.054,0.162-0.108,0.27-0.108c0.244,0,0.514,0.108,0.514,0.434
		c0,0.135-0.025,0.297-0.162,0.405l-4.355,3.788l5.006,7.386c0.053,0.081,0.08,0.188,0.08,0.271c0,0.243-0.189,0.486-0.459,0.486
		c-0.135,0-0.271-0.081-0.379-0.243l-4.979-7.277l-2.84,2.488v4.546c0,0.243-0.217,0.486-0.488,0.486
		c-0.27,0-0.459-0.243-0.459-0.486v-19.831c0-0.271,0.189-0.46,0.459-0.46C68.381,111.263,68.598,111.453,68.598,111.723z"/>
	<path fill="#303333" d="M80.879,114.185c0,0.46-0.379,0.866-0.84,0.866c-0.486,0-0.865-0.406-0.865-0.866s0.379-0.839,0.865-0.839
		C80.5,113.346,80.879,113.725,80.879,114.185z M80.526,119.731v11.823c0,0.243-0.215,0.486-0.486,0.486
		c-0.244,0-0.459-0.243-0.459-0.486v-11.823c0-0.271,0.215-0.46,0.459-0.46C80.311,119.271,80.526,119.461,80.526,119.731z"/>
	<path fill="#303333" d="M83.457,127.279v-3.246c0-2.76,1.568-4.924,4.951-4.924c2.164,0,3.543,1.028,3.543,1.597
		c0,0.243-0.242,0.46-0.486,0.46c-0.459,0-0.92-1.109-3.057-1.109c-2.598,0-4.004,1.515-4.004,3.977v3.246
		c0,2.462,1.379,3.978,4.031,3.978c2.271,0,2.732-1.109,3.219-1.109c0.244,0,0.461,0.217,0.461,0.46
		c0,0.568-1.408,1.596-3.707,1.596C85.053,132.203,83.457,130.093,83.457,127.279z"/>
	<path fill="#303333" d="M95.61,111.723v14.014l7.305-6.357c0.082-0.054,0.162-0.108,0.271-0.108c0.242,0,0.514,0.108,0.514,0.434
		c0,0.135-0.027,0.297-0.162,0.405l-4.355,3.788l5.004,7.386c0.055,0.081,0.082,0.188,0.082,0.271c0,0.243-0.189,0.486-0.461,0.486
		c-0.135,0-0.27-0.081-0.379-0.243l-4.977-7.277l-2.842,2.488v4.546c0,0.243-0.215,0.486-0.486,0.486s-0.459-0.243-0.459-0.486
		v-19.831c0-0.271,0.188-0.46,0.459-0.46S95.61,111.453,95.61,111.723z"/>
	<path fill="#303333" d="M112.846,119.731v1.435c0.596-1.056,1.812-2.057,3.625-2.057c2.65,0,4.869,2.191,4.869,4.87v3.3
		c0,2.57-2.244,4.924-4.814,4.924c-1.65,0-3.084-0.946-3.68-2.056v7.818c0,0.244-0.217,0.487-0.488,0.487
		c-0.27,0-0.459-0.243-0.459-0.487v-18.234c0-0.271,0.189-0.46,0.459-0.46C112.629,119.271,112.846,119.461,112.846,119.731z
		 M120.393,123.979c0-1.976-1.73-3.923-3.842-3.923c-1.838,0-3.705,1.461-3.705,3.923v4.302c0,0.919,1.596,2.976,3.732,2.976
		c2.057,0,3.814-1.948,3.814-3.978V123.979z"/>
	<path fill="#303333" d="M124.209,127.334v-7.575c0-0.243,0.217-0.487,0.486-0.487c0.244,0,0.461,0.244,0.461,0.487v7.575
		c0,2.002,1.703,3.923,3.867,3.923c2.139,0,3.842-1.894,3.842-3.923v-7.603c0-0.243,0.217-0.46,0.488-0.46
		c0.27,0,0.459,0.217,0.459,0.46v7.603c0,2.597-2.191,4.869-4.789,4.869C126.373,132.203,124.209,129.904,124.209,127.334z"/>
	<path fill="#303333" d="M138.061,131.554c0,0.243-0.215,0.486-0.486,0.486c-0.27,0-0.459-0.243-0.459-0.486v-11.823
		c0-0.271,0.189-0.46,0.459-0.46c0.271,0,0.486,0.189,0.486,0.46v1.435c0.596-1.056,1.814-2.057,3.627-2.057
		c2.65,0,4.869,2.191,4.869,4.87v7.575c0,0.324-0.244,0.486-0.486,0.486c-0.217,0-0.461-0.162-0.461-0.486v-7.575
		c0-1.976-1.73-3.923-3.842-3.923c-1.84,0-3.707,1.461-3.707,3.923V131.554z"/>
	<path fill="#303333" d="M149.45,127.279v-3.246c0-2.76,1.568-4.924,4.951-4.924c2.164,0,3.543,1.028,3.543,1.597
		c0,0.243-0.242,0.46-0.486,0.46c-0.459,0-0.92-1.109-3.057-1.109c-2.598,0-4.004,1.515-4.004,3.977v3.246
		c0,2.462,1.379,3.978,4.031,3.978c2.271,0,2.732-1.109,3.219-1.109c0.244,0,0.461,0.217,0.461,0.46
		c0,0.568-1.408,1.596-3.707,1.596C151.045,132.203,149.45,130.093,149.45,127.279z"/>
	<path fill="#303333" d="M161.604,131.554c0,0.243-0.217,0.486-0.488,0.486c-0.27,0-0.459-0.243-0.459-0.486v-19.831
		c0-0.271,0.189-0.46,0.459-0.46c0.271,0,0.488,0.189,0.488,0.46v9.442c0.596-1.056,1.812-2.057,3.625-2.057
		c2.65,0,4.869,2.191,4.869,4.87v7.575c0,0.324-0.242,0.486-0.486,0.486c-0.217,0-0.461-0.162-0.461-0.486v-7.575
		c0-1.976-1.73-3.923-3.842-3.923c-1.838,0-3.705,1.461-3.705,3.923V131.554z"/>
	<path fill="#303333" d="M178.649,127.279v-3.246c0-2.76,1.568-4.924,4.951-4.924c2.164,0,3.543,1.028,3.543,1.597
		c0,0.243-0.242,0.46-0.486,0.46c-0.459,0-0.92-1.109-3.057-1.109c-2.598,0-4.004,1.515-4.004,3.977v3.246
		c0,2.462,1.379,3.978,4.031,3.978c2.271,0,2.732-1.109,3.219-1.109c0.244,0,0.461,0.217,0.461,0.46
		c0,0.568-1.408,1.596-3.707,1.596C180.244,132.203,178.649,130.093,178.649,127.279z"/>
	<path fill="#303333" d="M194.549,120.056c-1.893,0-3.76,1.461-3.76,3.923v7.575c0,0.243-0.217,0.486-0.486,0.486
		c-0.271,0-0.461-0.243-0.461-0.486v-11.823c0-0.271,0.189-0.46,0.461-0.46c0.27,0,0.486,0.189,0.486,0.46v1.435
		c0.623-1.056,1.867-2.057,3.76-2.057h1.002c0.244,0,0.459,0.217,0.459,0.487c0,0.243-0.215,0.46-0.459,0.46H194.549z"/>
	<path fill="#303333" d="M206.84,123.979c0,1.975-1.082,2.028-2.244,2.028h-6.412v1.271c0,2.462,1.92,3.978,4.572,3.978
		c2.271,0,2.678-1.109,3.191-1.109c0.244,0,0.488,0.271,0.488,0.487c0,0.514-1.408,1.568-3.734,1.568
		c-3.191,0-5.465-1.975-5.465-4.924v-3.381c0-2.598,2.191-4.789,4.816-4.789C204.596,119.109,206.84,121.166,206.84,123.979z
		 M204.272,125.061c1.324,0,1.623-0.162,1.623-1.001c0-1.948-1.516-4.004-3.842-4.004c-2.191,0-3.869,1.812-3.869,3.842v1.163
		H204.272z"/>
	<path fill="#303333" d="M217.506,124.303v7.251c0,0.271-0.188,0.486-0.459,0.486s-0.486-0.216-0.486-0.486v-1.407
		c-0.92,1.055-2.273,2.056-4.059,2.056c-2.109,0-3.76-1.136-3.76-3.57c0-2.868,2.543-3.571,6.303-3.571h1.516v-0.758
		c0-2.029-1.002-4.247-3.572-4.247c-1.678,0-2.488,0.73-2.812,0.73c-0.299,0-0.488-0.352-0.488-0.541
		c0-0.515,1.705-1.137,3.355-1.137C216.371,119.109,217.506,121.626,217.506,124.303z M216.561,126.007h-1.488
		c-2.787,0-5.385,0.271-5.385,2.625c0,1.812,1.219,2.624,2.787,2.624c2.029,0,4.086-1.812,4.086-2.976V126.007z"/>
	<path fill="#303333" d="M220.707,113.482c0-0.271,0.244-0.46,0.461-0.46c0.244,0,0.486,0.189,0.486,0.46v5.789h3.652
		c0.244,0,0.461,0.217,0.461,0.487c0,0.243-0.217,0.46-0.461,0.46h-3.652v8.062c0,2.056,0.785,2.813,3.004,2.813h0.621
		c0.244,0,0.461,0.189,0.461,0.46s-0.217,0.486-0.461,0.486h-0.621c-2.57,0-3.951-1.136-3.951-3.76V113.482z"/>
	<path fill="#303333" d="M229.442,114.185c0,0.46-0.379,0.866-0.838,0.866c-0.488,0-0.867-0.406-0.867-0.866
		s0.379-0.839,0.867-0.839C229.063,113.346,229.442,113.725,229.442,114.185z M229.09,119.731v11.823
		c0,0.243-0.217,0.486-0.486,0.486c-0.244,0-0.461-0.243-0.461-0.486v-11.823c0-0.271,0.217-0.46,0.461-0.46
		C228.873,119.271,229.09,119.461,229.09,119.731z"/>
	<path fill="#303333" d="M241.026,119.731c0,0.136-0.08,0.325-0.107,0.406l-4.221,11.741c-0.08,0.189-0.244,0.324-0.459,0.324
		c-0.244,0-0.379-0.107-0.461-0.324l-4.221-11.741c-0.027-0.081-0.107-0.271-0.107-0.379c0-0.271,0.217-0.487,0.486-0.487
		c0.189,0,0.379,0.108,0.461,0.298l3.842,10.632l3.814-10.47c0.08-0.216,0.107-0.46,0.459-0.46
		C240.756,119.271,241.026,119.461,241.026,119.731z"/>
	<path fill="#303333" d="M252.295,123.979c0,1.975-1.082,2.028-2.246,2.028h-6.412v1.271c0,2.462,1.922,3.978,4.572,3.978
		c2.273,0,2.68-1.109,3.193-1.109c0.244,0,0.486,0.271,0.486,0.487c0,0.514-1.406,1.568-3.732,1.568
		c-3.193,0-5.465-1.975-5.465-4.924v-3.381c0-2.598,2.191-4.789,4.814-4.789C250.049,119.109,252.295,121.166,252.295,123.979z
		 M249.725,125.061c1.326,0,1.623-0.162,1.623-1.001c0-1.948-1.516-4.004-3.842-4.004c-2.191,0-3.869,1.812-3.869,3.842v1.163
		H249.725z"/>
	<path fill="#303333" d="M256.696,131.229c0,0.515-0.434,0.974-0.947,0.974c-0.568,0-0.973-0.459-0.973-0.974
		c0-0.541,0.404-0.974,0.973-0.974C256.262,130.255,256.696,130.688,256.696,131.229z"/>
</g>
</svg>
