<?xml version="1.0" encoding="utf-8"?>
<!-- Generator: Adobe Illustrator 19.0.1, SVG Export Plug-In . SVG Version: 6.00 Build 0)  -->
<svg version="1.1" id="Layer_1" xmlns="http://www.w3.org/2000/svg" xmlns:xlink="http://www.w3.org/1999/xlink" x="0px" y="0px"
	 viewBox="192 -96.3 420.7 229.3" style="enable-background:new 192 -96.3 420.7 229.3;" xml:space="preserve">
<style type="text/css">
	.st0{fill:#FFFFFF;stroke:#D8D8D8;stroke-width:2;stroke-miterlimit:10;}
	.st1{fill:#484949;}
	.st2{fill:#FFFFFF;stroke:#D8D8D8;stroke-width:0.75;stroke-miterlimit:10;}
	.st3{fill:none;stroke:#D8D8D8;stroke-width:0.75;stroke-miterlimit:10;}
</style>
<g>
	<path class="st0" d="M598.8,126.2l-18.5-45.7c6.9-5.1,11.4-13.2,11.4-22.5V-48.2c0-15.4-12.5-28-28-28H234c-15.4,0-28,12.5-28,28
		V58c0,15.4,12.5,28,28,28h284.3L598.8,126.2z"/>
</g>
<g>
	<path class="st1" d="M342.9,6.1c0,0.9-1,1.7-2.2,1.7s-2.1-0.9-2.1-1.7v-47.3c0-0.9,0.9-1.6,2.1-1.6s2.2,0.7,2.2,1.6v22.3
		c1.4-2.6,4.4-5,8.8-5c6.4,0,11.8,5.6,11.8,12.4V6.1c0,1.1-1.1,1.7-2.2,1.7c-1,0-2.1-0.6-2.1-1.7v-17.7c0-4.2-3.7-8.4-8.2-8.4
		c-3.9,0-8,3.1-8,8.4V6.1z"/>
	<path class="st1" d="M395.4-11.9c0,5.1-2.9,5.3-5.8,5.3h-15v2.5c0,5.3,4.2,8.6,10.1,8.6c5.2,0,6.5-2.7,8-2.7c1.1,0,1.9,1.3,1.9,2.1
		c0,1.6-3.8,4.4-10,4.4c-8.4,0-14.3-5-14.3-12.6v-7.4c0-6.6,5.7-12.2,12.7-12.2C389.6-24,395.4-18.9,395.4-11.9z M387.9-9.7
		c2.7,0,3.3-0.4,3.3-2.3c0-4.2-3.4-8.4-8.3-8.4c-4.6,0-8.3,3.7-8.3,8.1v2.5H387.9z"/>
	<path class="st1" d="M406.8-41.2V6.1c0,0.9-0.9,1.7-2.2,1.7c-1.2,0-2.1-0.9-2.1-1.7v-47.3c0-0.9,0.9-1.6,2.1-1.6
		C405.8-42.8,406.8-42.2,406.8-41.2z"/>
	<path class="st1" d="M420.5-41.2V6.1c0,0.9-0.9,1.7-2.2,1.7c-1.2,0-2.1-0.9-2.1-1.7v-47.3c0-0.9,0.9-1.6,2.1-1.6
		C419.6-42.8,420.5-42.2,420.5-41.2z"/>
	<path class="st1" d="M453.4-11.5v7.2c0,6.6-5.9,12.6-12.7,12.6c-6.7,0-12.6-6-12.6-12.6v-7.2c0-6.6,5.6-12.4,12.6-12.4
		C447.5-24,453.4-18.4,453.4-11.5z M449.1-11.5c0-4.2-3.7-8.4-8.4-8.4s-8.2,4.2-8.2,8.4v7.2c0,4.4,3.7,8.6,8.2,8.6
		c4.6,0,8.4-4.2,8.4-8.6V-11.5z"/>
	<path class="st1" d="M466.1,5.2c0,1.6-1.3,3.1-3,3.1c-1.8,0-3.1-1.5-3.1-3.1c0-1.7,1.3-3.1,3.1-3.1C464.8,2.1,466.1,3.5,466.1,5.2z
		 M464.9-4.6c0,1.1-1.1,1.5-1.8,1.5c-0.9,0-1.7-0.5-1.7-1.5c0-10.9-0.8-23.4-0.8-34.3c0-1.7,1.1-2.6,2.5-2.6s2.5,0.9,2.5,2.6
		C465.6-28.1,464.9-15.5,464.9-4.6z"/>
</g>
<g>
	<path class="st1" d="M265.4,29.9c0,0.1-0.1,0.4-0.1,0.5l-5.4,14.9c-0.1,0.3-0.3,0.4-0.5,0.4c-0.3,0-0.3-0.1-0.5-0.4l-4-12.8
		l-3.9,12.6c-0.1,0.4-0.3,0.6-0.6,0.6c-0.3,0-0.4-0.1-0.6-0.6l-5.3-14.7c0-0.1-0.1-0.3-0.1-0.4c0-0.3,0.3-0.6,0.6-0.6
		c0.2,0,0.5,0.1,0.6,0.4l4.8,13.4l3.9-12.4c0.1-0.3,0.3-0.4,0.6-0.4s0.5,0.2,0.6,0.4l3.8,12.6l4.9-13.6c0.1-0.2,0.3-0.4,0.5-0.4
		C265.1,29.4,265.4,29.6,265.4,29.9z"/>
	<path class="st1" d="M279.9,35.3c0,2.5-1.4,2.6-2.8,2.6h-8.1v1.6c0,3.1,2.4,5,5.8,5c2.9,0,3.4-1.4,4-1.4c0.3,0,0.6,0.3,0.6,0.6
		c0,0.7-1.8,2-4.7,2c-4,0-6.9-2.5-6.9-6.2v-4.3c0-3.3,2.8-6.1,6.1-6.1C277.1,29.2,279.9,31.8,279.9,35.3z M276.7,36.7
		c1.7,0,2.1-0.2,2.1-1.3c0-2.5-1.9-5.1-4.9-5.1c-2.8,0-4.9,2.3-4.9,4.9v1.5H276.7z"/>
	<path class="st1" d="M284.5,21.4c0,0.5-0.6,2.2-1.1,3.3c-0.1,0.2-0.3,0.3-0.5,0.3c-0.3,0-0.5-0.2-0.5-0.5c0-0.1,0-0.1,0-0.2
		l0.6-1.7c-0.5-0.1-0.9-0.7-0.9-1.2c0-0.7,0.5-1.2,1.2-1.2C283.9,20.1,284.5,20.7,284.5,21.4z"/>
	<path class="st1" d="M293.5,30.3c-2.4,0-4.8,1.8-4.8,5v9.6c0,0.3-0.3,0.6-0.6,0.6c-0.3,0-0.6-0.3-0.6-0.6v-15
		c0-0.3,0.2-0.6,0.6-0.6c0.3,0,0.6,0.2,0.6,0.6v1.8c0.8-1.3,2.4-2.6,4.8-2.6h1.3c0.3,0,0.6,0.3,0.6,0.6c0,0.3-0.3,0.6-0.6,0.6H293.5
		z"/>
	<path class="st1" d="M308.8,35.3c0,2.5-1.4,2.6-2.8,2.6h-8.1v1.6c0,3.1,2.4,5,5.8,5c2.9,0,3.4-1.4,4-1.4c0.3,0,0.6,0.3,0.6,0.6
		c0,0.7-1.8,2-4.7,2c-4,0-6.9-2.5-6.9-6.2v-4.3c0-3.3,2.8-6.1,6.1-6.1C306,29.2,308.8,31.8,308.8,35.3z M305.5,36.7
		c1.7,0,2.1-0.2,2.1-1.3c0-2.5-1.9-5.1-4.9-5.1c-2.8,0-4.9,2.3-4.9,4.9v1.5H305.5z"/>
	<path class="st1" d="M320.5,19.8v17.7l9.2-8c0.1-0.1,0.2-0.1,0.3-0.1c0.3,0,0.7,0.1,0.7,0.5c0,0.2,0,0.4-0.2,0.5l-5.5,4.8l6.3,9.3
		c0.1,0.1,0.1,0.2,0.1,0.3c0,0.3-0.2,0.6-0.6,0.6c-0.2,0-0.3-0.1-0.5-0.3l-6.3-9.2l-3.6,3.1v5.8c0,0.3-0.3,0.6-0.6,0.6
		c-0.3,0-0.6-0.3-0.6-0.6V19.8c0-0.3,0.2-0.6,0.6-0.6C320.3,19.2,320.5,19.5,320.5,19.8z"/>
	<path class="st1" d="M335.9,22.9c0,0.6-0.5,1.1-1.1,1.1c-0.6,0-1.1-0.5-1.1-1.1c0-0.6,0.5-1.1,1.1-1.1
		C335.4,21.9,335.9,22.3,335.9,22.9z M335.5,29.9v15c0,0.3-0.3,0.6-0.6,0.6c-0.3,0-0.6-0.3-0.6-0.6v-15c0-0.3,0.3-0.6,0.6-0.6
		C335.2,29.4,335.5,29.6,335.5,29.9z"/>
	<path class="st1" d="M339.6,39.5v-4.1c0-3.5,2-6.2,6.3-6.2c2.7,0,4.5,1.3,4.5,2c0,0.3-0.3,0.6-0.6,0.6c-0.6,0-1.2-1.4-3.9-1.4
		c-3.3,0-5.1,1.9-5.1,5v4.1c0,3.1,1.7,5,5.1,5c2.9,0,3.5-1.4,4.1-1.4c0.3,0,0.6,0.3,0.6,0.6c0,0.7-1.8,2-4.7,2
		C341.6,45.7,339.6,43.1,339.6,39.5z"/>
	<path class="st1" d="M355.1,19.8v17.7l9.2-8c0.1-0.1,0.2-0.1,0.3-0.1c0.3,0,0.7,0.1,0.7,0.5c0,0.2,0,0.4-0.2,0.5l-5.5,4.8l6.3,9.3
		c0.1,0.1,0.1,0.2,0.1,0.3c0,0.3-0.2,0.6-0.6,0.6c-0.2,0-0.3-0.1-0.5-0.3l-6.3-9.2l-3.6,3.1v5.8c0,0.3-0.3,0.6-0.6,0.6
		c-0.3,0-0.6-0.3-0.6-0.6V19.8c0-0.3,0.2-0.6,0.6-0.6C354.8,19.2,355.1,19.5,355.1,19.8z"/>
	<path class="st1" d="M376.9,29.9v1.8c0.8-1.3,2.3-2.6,4.6-2.6c3.4,0,6.2,2.8,6.2,6.2v4.2c0,3.3-2.8,6.2-6.1,6.2
		c-2.1,0-3.9-1.2-4.7-2.6V53c0,0.3-0.3,0.6-0.6,0.6c-0.3,0-0.6-0.3-0.6-0.6V29.9c0-0.3,0.2-0.6,0.6-0.6
		C376.7,29.4,376.9,29.6,376.9,29.9z M386.5,35.3c0-2.5-2.2-5-4.9-5c-2.3,0-4.7,1.8-4.7,5v5.4c0,1.2,2,3.8,4.7,3.8
		c2.6,0,4.8-2.5,4.8-5V35.3z"/>
	<path class="st1" d="M391.6,39.6V30c0-0.3,0.3-0.6,0.6-0.6c0.3,0,0.6,0.3,0.6,0.6v9.6c0,2.5,2.2,5,4.9,5c2.7,0,4.9-2.4,4.9-5v-9.6
		c0-0.3,0.3-0.6,0.6-0.6s0.6,0.3,0.6,0.6v9.6c0,3.3-2.8,6.2-6.1,6.2C394.3,45.7,391.6,42.8,391.6,39.6z"/>
	<path class="st1" d="M409.5,44.9c0,0.3-0.3,0.6-0.6,0.6c-0.3,0-0.6-0.3-0.6-0.6v-15c0-0.3,0.2-0.6,0.6-0.6c0.3,0,0.6,0.2,0.6,0.6
		v1.8c0.8-1.3,2.3-2.6,4.6-2.6c3.4,0,6.2,2.8,6.2,6.2v9.6c0,0.4-0.3,0.6-0.6,0.6c-0.3,0-0.6-0.2-0.6-0.6v-9.6c0-2.5-2.2-5-4.9-5
		c-2.3,0-4.7,1.8-4.7,5V44.9z"/>
	<path class="st1" d="M424.2,39.5v-4.1c0-3.5,2-6.2,6.3-6.2c2.7,0,4.5,1.3,4.5,2c0,0.3-0.3,0.6-0.6,0.6c-0.6,0-1.2-1.4-3.9-1.4
		c-3.3,0-5.1,1.9-5.1,5v4.1c0,3.1,1.7,5,5.1,5c2.9,0,3.5-1.4,4.1-1.4c0.3,0,0.6,0.3,0.6,0.6c0,0.7-1.8,2-4.7,2
		C426.2,45.7,424.2,43.1,424.2,39.5z"/>
	<path class="st1" d="M439.7,44.9c0,0.3-0.3,0.6-0.6,0.6c-0.3,0-0.6-0.3-0.6-0.6V19.8c0-0.3,0.2-0.6,0.6-0.6c0.3,0,0.6,0.2,0.6,0.6
		v12c0.8-1.3,2.3-2.6,4.6-2.6c3.4,0,6.2,2.8,6.2,6.2v9.6c0,0.4-0.3,0.6-0.6,0.6c-0.3,0-0.6-0.2-0.6-0.6v-9.6c0-2.5-2.2-5-4.9-5
		c-2.3,0-4.7,1.8-4.7,5V44.9z"/>
	<path class="st1" d="M461.3,39.5v-4.1c0-3.5,2-6.2,6.3-6.2c2.7,0,4.5,1.3,4.5,2c0,0.3-0.3,0.6-0.6,0.6c-0.6,0-1.2-1.4-3.9-1.4
		c-3.3,0-5.1,1.9-5.1,5v4.1c0,3.1,1.7,5,5.1,5c2.9,0,3.5-1.4,4.1-1.4c0.3,0,0.6,0.3,0.6,0.6c0,0.7-1.8,2-4.7,2
		C463.3,45.7,461.3,43.1,461.3,39.5z"/>
	<path class="st1" d="M481.6,30.3c-2.4,0-4.8,1.8-4.8,5v9.6c0,0.3-0.3,0.6-0.6,0.6c-0.3,0-0.6-0.3-0.6-0.6v-15
		c0-0.3,0.2-0.6,0.6-0.6c0.3,0,0.6,0.2,0.6,0.6v1.8c0.8-1.3,2.4-2.6,4.8-2.6h1.3c0.3,0,0.6,0.3,0.6,0.6c0,0.3-0.3,0.6-0.6,0.6H481.6
		z"/>
	<path class="st1" d="M496.8,35.3c0,2.5-1.4,2.6-2.8,2.6h-8.1v1.6c0,3.1,2.4,5,5.8,5c2.9,0,3.4-1.4,4-1.4c0.3,0,0.6,0.3,0.6,0.6
		c0,0.7-1.8,2-4.7,2c-4,0-6.9-2.5-6.9-6.2v-4.3c0-3.3,2.8-6.1,6.1-6.1C494,29.2,496.8,31.8,496.8,35.3z M493.6,36.7
		c1.7,0,2.1-0.2,2.1-1.3c0-2.5-1.9-5.1-4.9-5.1c-2.8,0-4.9,2.3-4.9,4.9v1.5H493.6z"/>
	<path class="st1" d="M510.5,35.7v9.2c0,0.3-0.2,0.6-0.6,0.6c-0.3,0-0.6-0.3-0.6-0.6v-1.8c-1.2,1.3-2.9,2.6-5.1,2.6
		c-2.7,0-4.8-1.4-4.8-4.5c0-3.6,3.2-4.5,8-4.5h1.9v-1c0-2.6-1.3-5.4-4.5-5.4c-2.1,0-3.2,0.9-3.6,0.9c-0.4,0-0.6-0.4-0.6-0.7
		c0-0.7,2.2-1.4,4.2-1.4C509,29.2,510.5,32.3,510.5,35.7z M509.3,37.9h-1.9c-3.5,0-6.8,0.3-6.8,3.3c0,2.3,1.5,3.3,3.5,3.3
		c2.6,0,5.2-2.3,5.2-3.8V37.9z"/>
	<path class="st1" d="M514.9,22c0-0.3,0.3-0.6,0.6-0.6c0.3,0,0.6,0.2,0.6,0.6v7.3h4.6c0.3,0,0.6,0.3,0.6,0.6c0,0.3-0.3,0.6-0.6,0.6
		h-4.6v10.2c0,2.6,1,3.6,3.8,3.6h0.8c0.3,0,0.6,0.2,0.6,0.6s-0.3,0.6-0.6,0.6h-0.8c-3.3,0-5-1.4-5-4.8V22z"/>
	<path class="st1" d="M525.9,22.9c0,0.6-0.5,1.1-1.1,1.1c-0.6,0-1.1-0.5-1.1-1.1c0-0.6,0.5-1.1,1.1-1.1
		C525.4,21.9,525.9,22.3,525.9,22.9z M525.5,29.9v15c0,0.3-0.3,0.6-0.6,0.6c-0.3,0-0.6-0.3-0.6-0.6v-15c0-0.3,0.3-0.6,0.6-0.6
		C525.2,29.4,525.5,29.6,525.5,29.9z"/>
	<path class="st1" d="M540.6,29.9c0,0.2-0.1,0.4-0.1,0.5l-5.3,14.9c-0.1,0.2-0.3,0.4-0.6,0.4c-0.3,0-0.5-0.1-0.6-0.4l-5.3-14.9
		c0-0.1-0.1-0.3-0.1-0.5c0-0.3,0.3-0.6,0.6-0.6c0.2,0,0.5,0.1,0.6,0.4l4.9,13.5l4.8-13.3c0.1-0.3,0.1-0.6,0.6-0.6
		C540.2,29.4,540.6,29.6,540.6,29.9z"/>
	<path class="st1" d="M555.1,35.3c0,2.5-1.4,2.6-2.8,2.6h-8.1v1.6c0,3.1,2.4,5,5.8,5c2.9,0,3.4-1.4,4-1.4c0.3,0,0.6,0.3,0.6,0.6
		c0,0.7-1.8,2-4.7,2c-4,0-6.9-2.5-6.9-6.2v-4.3c0-3.3,2.8-6.1,6.1-6.1C552.3,29.2,555.1,31.8,555.1,35.3z M551.9,36.7
		c1.7,0,2.1-0.2,2.1-1.3c0-2.5-1.9-5.1-4.9-5.1c-2.8,0-4.9,2.3-4.9,4.9v1.5H551.9z"/>
	<path class="st1" d="M560.4,44.5c0,0.7-0.5,1.2-1.2,1.2c-0.7,0-1.2-0.6-1.2-1.2c0-0.7,0.5-1.2,1.2-1.2
		C559.9,43.3,560.4,43.8,560.4,44.5z"/>
</g>
<g>
	<g>
		<rect x="-989.4" y="-46" class="st2" width="40.4" height="5.2"/>
	</g>
	<g>
		<polygon class="st2" points="-949,-44.3 -956.2,-42.6 -956.2,130.8 -949,130.8 		"/>
	</g>
	<g>
		<rect x="-984.8" y="-42.6" class="st2" width="29.2" height="173.4"/>
	</g>
	<g>
		<polygon class="st2" points="-640.2,-101.6 -613,-105.4 -613,130.8 -640.2,130.8 		"/>
	</g>
	<g>
		<rect x="-613" y="-105.5" class="st2" width="51.9" height="236.2"/>
	</g>
	<g>
		<g>
			<rect x="-566.4" y="-83.9" class="st2" width="6.4" height="13.6"/>
		</g>
		<g>
			<rect x="-576.8" y="-33.4" class="st2" width="6.4" height="13.6"/>
		</g>
		<g>
			<rect x="-597.6" y="-33.4" class="st2" width="6.4" height="13.6"/>
		</g>
		<g>
			<rect x="-587.2" y="-33.4" class="st2" width="6.4" height="13.6"/>
		</g>
		<g>
			<rect x="-597.6" y="-50.2" class="st2" width="6.4" height="13.6"/>
		</g>
		<g>
			<rect x="-576.8" y="-83.9" class="st2" width="6.4" height="13.6"/>
		</g>
		<g>
			<rect x="-597.6" y="-67.1" class="st2" width="6.4" height="13.6"/>
		</g>
		<g>
			<rect x="-587.2" y="-83.9" class="st2" width="6.4" height="13.6"/>
		</g>
		<g>
			<rect x="-597.6" y="-83.9" class="st2" width="6.4" height="13.6"/>
		</g>
		<g>
			<rect x="-587.2" y="-67.1" class="st2" width="6.4" height="13.6"/>
		</g>
		<g>
			<rect x="-576.8" y="-67.1" class="st2" width="6.4" height="13.6"/>
		</g>
		<g>
			<rect x="-566.4" y="-67.1" class="st2" width="6.4" height="13.6"/>
		</g>
		<g>
			<rect x="-587.2" y="-50.2" class="st2" width="6.4" height="13.6"/>
		</g>
		<g>
			<rect x="-576.8" y="-50.2" class="st2" width="6.4" height="13.6"/>
		</g>
		<g>
			<rect x="-566.4" y="-50.2" class="st2" width="6.4" height="13.6"/>
		</g>
		<g>
			<rect x="-608" y="-33.4" class="st2" width="6.4" height="13.6"/>
		</g>
		<g>
			<rect x="-608" y="-67.1" class="st2" width="6.4" height="13.6"/>
		</g>
		<g>
			<rect x="-608" y="-50.2" class="st2" width="6.4" height="13.6"/>
		</g>
		<g>
			<rect x="-608" y="-83.9" class="st2" width="6.4" height="13.6"/>
		</g>
		<g>
			<rect x="-566.4" y="-33.4" class="st2" width="6.4" height="13.6"/>
		</g>
		<g>
			<rect x="-608" y="-100.7" class="st2" width="6.4" height="13.6"/>
		</g>
		<g>
			<rect x="-566.4" y="-100.7" class="st2" width="6.4" height="13.6"/>
		</g>
		<g>
			<rect x="-576.8" y="-100.7" class="st2" width="6.4" height="13.6"/>
		</g>
		<g>
			<rect x="-587.2" y="-100.7" class="st2" width="6.4" height="13.6"/>
		</g>
		<g>
			<rect x="-597.6" y="-100.7" class="st2" width="6.4" height="13.6"/>
		</g>
		<g>
			<rect x="-566.4" y="1.2" class="st2" width="6.4" height="13.6"/>
		</g>
		<g>
			<rect x="-576.8" y="51.7" class="st2" width="6.4" height="13.6"/>
		</g>
		<g>
			<rect x="-597.6" y="51.7" class="st2" width="6.4" height="13.6"/>
		</g>
		<g>
			<rect x="-587.2" y="51.7" class="st2" width="6.4" height="13.6"/>
		</g>
		<g>
			<rect x="-597.6" y="34.8" class="st2" width="6.4" height="13.6"/>
		</g>
		<g>
			<rect x="-576.8" y="1.2" class="st2" width="6.4" height="13.6"/>
		</g>
		<g>
			<rect x="-597.6" y="18" class="st2" width="6.4" height="13.6"/>
		</g>
		<g>
			<rect x="-587.2" y="1.2" class="st2" width="6.4" height="13.6"/>
		</g>
		<g>
			<rect x="-597.6" y="1.2" class="st2" width="6.4" height="13.6"/>
		</g>
		<g>
			<rect x="-587.2" y="18" class="st2" width="6.4" height="13.6"/>
		</g>
		<g>
			<rect x="-576.8" y="18" class="st2" width="6.4" height="13.6"/>
		</g>
		<g>
			<rect x="-566.4" y="18" class="st2" width="6.4" height="13.6"/>
		</g>
		<g>
			<rect x="-587.2" y="34.8" class="st2" width="6.4" height="13.6"/>
		</g>
		<g>
			<rect x="-576.8" y="34.8" class="st2" width="6.4" height="13.6"/>
		</g>
		<g>
			<rect x="-566.4" y="34.8" class="st2" width="6.4" height="13.6"/>
		</g>
		<g>
			<rect x="-608" y="51.7" class="st2" width="6.4" height="13.6"/>
		</g>
		<g>
			<rect x="-608" y="18" class="st2" width="6.4" height="13.6"/>
		</g>
		<g>
			<rect x="-608" y="34.8" class="st2" width="6.4" height="13.6"/>
		</g>
		<g>
			<rect x="-608" y="1.2" class="st2" width="6.4" height="13.6"/>
		</g>
		<g>
			<rect x="-566.4" y="51.7" class="st2" width="6.4" height="13.6"/>
		</g>
		<g>
			<rect x="-608" y="-15.6" class="st2" width="6.4" height="13.6"/>
		</g>
		<g>
			<rect x="-566.4" y="-15.6" class="st2" width="6.4" height="13.6"/>
		</g>
		<g>
			<rect x="-576.8" y="-15.6" class="st2" width="6.4" height="13.6"/>
		</g>
		<g>
			<rect x="-587.2" y="-15.6" class="st2" width="6.4" height="13.6"/>
		</g>
		<g>
			<rect x="-597.6" y="-15.6" class="st2" width="6.4" height="13.6"/>
		</g>
		<g>
			<rect x="-566.4" y="85.4" class="st2" width="6.4" height="13.6"/>
		</g>
		<g>
			<rect x="-576.8" y="85.4" class="st2" width="6.4" height="13.6"/>
		</g>
		<g>
			<rect x="-597.6" y="102.2" class="st2" width="6.4" height="13.6"/>
		</g>
		<g>
			<rect x="-587.2" y="85.4" class="st2" width="6.4" height="13.6"/>
		</g>
		<g>
			<rect x="-597.6" y="85.4" class="st2" width="6.4" height="13.6"/>
		</g>
		<g>
			<rect x="-587.2" y="102.2" class="st2" width="6.4" height="13.6"/>
		</g>
		<g>
			<rect x="-576.8" y="102.2" class="st2" width="6.4" height="13.6"/>
		</g>
		<g>
			<rect x="-566.4" y="102.2" class="st2" width="6.4" height="13.6"/>
		</g>
		<g>
			<rect x="-608" y="102.2" class="st2" width="6.4" height="13.6"/>
		</g>
		<g>
			<rect x="-608" y="85.4" class="st2" width="6.4" height="13.6"/>
		</g>
		<g>
			<rect x="-608" y="68.6" class="st2" width="6.4" height="13.6"/>
		</g>
		<g>
			<rect x="-566.4" y="68.6" class="st2" width="6.4" height="13.6"/>
		</g>
		<g>
			<rect x="-576.8" y="68.6" class="st2" width="6.4" height="13.6"/>
		</g>
		<g>
			<rect x="-587.2" y="68.6" class="st2" width="6.4" height="13.6"/>
		</g>
		<g>
			<rect x="-597.6" y="68.6" class="st2" width="6.4" height="13.6"/>
		</g>
		<g>
			<rect x="-608" y="119" class="st2" width="6.4" height="11.8"/>
		</g>
		<g>
			<rect x="-597.6" y="119" class="st2" width="6.4" height="11.8"/>
		</g>
		<g>
			<rect x="-587.2" y="119" class="st2" width="6.4" height="11.8"/>
		</g>
		<g>
			<rect x="-576.8" y="119" class="st2" width="6.4" height="11.8"/>
		</g>
		<g>
			<rect x="-566.4" y="119" class="st2" width="6.4" height="11.8"/>
		</g>
	</g>
	<g>
		<polygon class="st2" points="-578.6,112.2 -565.1,112.2 -565.1,-89.9 -578.6,-89.4 		"/>
	</g>
	<g>
		<polygon class="st2" points="-562.4,-46.3 -550.4,-46.3 -551,-355 -562.4,-341.5 		"/>
	</g>
	<g>
		<polygon class="st2" points="-545.9,-354.1 -534.6,-354.1 -534.6,-411.8 -545.9,-397.2 		"/>
	</g>
	<g>
		<polygon class="st2" points="-810.1,-267.9 -810.1,-283.9 -858.5,-283.9 -858.5,-267.9 -889.3,-267.9 -889.3,130.8 -779.4,130.8 
			-779.4,-267.9 		"/>
	</g>
	<g>
		<rect x="-856" y="-235.6" class="st2" width="43.6" height="12"/>
	</g>
	<g>
		<rect x="-885.8" y="-235.6" class="st2" width="24.1" height="12"/>
	</g>
	<g>
		<rect x="-806.6" y="-235.6" class="st2" width="24.1" height="12"/>
	</g>
	<g>
		<path class="st2" d="M-877-244.1l-3.3-12.9h1.8l1.5,6.5c0.4,1.6,0.7,3.2,1,4.4l0,0c0.2-1.3,0.6-2.8,1-4.5l1.7-6.5h1.7l1.6,6.5
			c0.4,1.5,0.7,3.1,0.9,4.4l0,0c0.3-1.4,0.6-2.8,1-4.4l1.7-6.5h1.7l-3.6,12.9h-1.7l-1.6-6.7c-0.4-1.6-0.7-2.9-0.8-4.2l0,0
			c-0.2,1.3-0.5,2.5-1,4.2l-1.8,6.7L-877-244.1L-877-244.1z"/>
		<path class="st2" d="M-852-250.6c0,4.4-2.7,6.8-6,6.8c-3.4,0-5.8-2.6-5.8-6.5c0-4.1,2.5-6.8,6-6.8
			C-854.2-257.1-852-254.4-852-250.6z M-862-250.4c0,2.7,1.5,5.2,4.1,5.2s4.1-2.4,4.1-5.3c0-2.6-1.3-5.2-4.1-5.2
			C-860.6-255.8-862-253.2-862-250.4z"/>
		<path class="st2" d="M-838.8-250.6c0,4.4-2.7,6.8-6,6.8c-3.4,0-5.8-2.6-5.8-6.5c0-4.1,2.5-6.8,6-6.8S-838.8-254.4-838.8-250.6z
			 M-848.8-250.4c0,2.7,1.5,5.2,4.1,5.2s4.1-2.4,4.1-5.3c0-2.6-1.3-5.2-4.1-5.2C-847.4-255.8-848.8-253.2-848.8-250.4z"/>
		<path class="st2" d="M-836.7-256.8c1-0.2,2.2-0.3,3.5-0.3c2.4,0,4.1,0.6,5.2,1.6c1.1,1.1,1.8,2.5,1.8,4.6c0,2.1-0.6,3.8-1.9,5
			c-1.2,1.2-3.2,1.9-5.7,1.9c-1.2,0-2.2-0.1-3-0.2L-836.7-256.8L-836.7-256.8z M-835-245.4c0.4,0.1,1,0.1,1.7,0.1
			c3.6,0,5.5-2,5.5-5.5c0-3-1.7-5-5.2-5c-0.9,0-1.5,0.1-1.9,0.2L-835-245.4L-835-245.4z"/>
		<path class="st2" d="M-813.1-249.7c-0.1-1.8-0.2-4-0.2-5.6h-0.1c-0.4,1.5-1,3.1-1.6,4.9l-2.3,6.2h-1.3l-2.1-6.1
			c-0.6-1.8-1.1-3.5-1.5-5l0,0c0,1.6-0.1,3.8-0.2,5.7l-0.3,5.5h-1.6l0.9-12.9h2.1l2.2,6.2c0.5,1.6,1,3,1.3,4.3h0.1
			c0.3-1.3,0.8-2.7,1.4-4.3l2.3-6.2h2.1l0.8,12.9h-1.6L-813.1-249.7z"/>
		<path class="st2" d="M-801.9-250.1h-5v4.6h5.6v1.4h-7.2V-257h7v1.4h-5.3v4.1h5L-801.9-250.1L-801.9-250.1z"/>
		<path class="st2" d="M-799.2-244.1V-257h1.8l4.1,6.5c1,1.5,1.7,2.9,2.3,4.2l0,0c-0.2-1.7-0.2-3.3-0.2-5.3v-5.4h1.6v12.9h-1.7
			l-4.1-6.5c-0.9-1.4-1.8-2.9-2.4-4.3h-0.1c0.1,1.6,0.1,3.2,0.1,5.3v5.5H-799.2L-799.2-244.1z"/>
	</g>
	<g>
		<polygon class="st2" points="-773.6,-74.9 -718.8,-74.9 -719,-126.2 -773.6,-94.3 		"/>
	</g>
	<g>
		<rect x="-885.8" y="-219.8" class="st2" width="2.9" height="350.6"/>
		<rect x="-879.9" y="-219.8" class="st2" width="2.9" height="350.6"/>
		<rect x="-874" y="-219.8" class="st2" width="2.9" height="350.6"/>
		<rect x="-868.1" y="-219.8" class="st2" width="2.9" height="350.6"/>
		<rect x="-862.2" y="-219.8" class="st2" width="2.9" height="350.6"/>
		<rect x="-856.3" y="-219.8" class="st2" width="2.9" height="350.6"/>
		<rect x="-850.4" y="-219.8" class="st2" width="2.9" height="350.6"/>
		<rect x="-844.5" y="-219.8" class="st2" width="2.9" height="350.6"/>
		<rect x="-838.6" y="-219.8" class="st2" width="2.9" height="350.6"/>
		<rect x="-832.7" y="-219.8" class="st2" width="2.9" height="350.6"/>
		<rect x="-826.8" y="-219.8" class="st2" width="2.9" height="350.6"/>
		<rect x="-820.8" y="-219.8" class="st2" width="2.9" height="350.6"/>
		<rect x="-814.9" y="-219.8" class="st2" width="2.9" height="350.6"/>
		<rect x="-809" y="-219.8" class="st2" width="2.9" height="350.6"/>
		<rect x="-803.1" y="-219.8" class="st2" width="2.9" height="350.6"/>
		<rect x="-797.2" y="-219.8" class="st2" width="2.9" height="350.6"/>
		<rect x="-791.3" y="-219.8" class="st2" width="2.9" height="350.6"/>
		<rect x="-785.4" y="-219.8" class="st2" width="2.9" height="350.6"/>
	</g>
	<g>
		<polygon class="st2" points="-816.4,-74.9 -871.5,-74.9 -871.5,-126.2 -816.4,-94.3 		"/>
	</g>
	<g>
		<polygon class="st2" points="-787.5,130.8 -732.7,130.8 -732.7,-108.4 -787.5,-84.7 		"/>
	</g>
	<g>
		<polygon class="st2" points="-802.5,130.8 -857.4,130.8 -857.4,-108.4 -802.5,-84.7 		"/>
	</g>
	<g>
		<polygon class="st2" points="-528.8,-411.8 -517.6,-411.8 -517.6,-463.5 -528.8,-448 		"/>
	</g>
	<g>
		<polygon class="st2" points="-427.4,-90.1 -427.4,-355 -442.5,-355 -442.5,-411.8 -460.8,-411.8 -460.8,-463.5 -474.8,-463.5 
			-474.8,-469.5 -478.9,-469.5 -478.9,-463.5 -483.1,-463.5 -483.1,-469.5 -487.2,-469.5 -487.2,-463.5 -491.3,-463.5 
			-491.3,-469.5 -495.4,-469.5 -495.4,-463.5 -499.5,-463.5 -499.5,-469.5 -503.6,-469.5 -503.6,-463.5 -517.6,-463.5 
			-517.6,-411.8 -534.9,-411.8 -534.9,-355 -551,-355 -551,-90.1 -565.9,-90.1 -565.9,130.7 -421.1,130.7 -421.1,-90.1 		"/>
	</g>
	<g>
		<polygon class="st2" points="-871.5,-108.4 -871.5,-126.2 -926.5,-126.2 -926.5,-108.4 -940.7,-108.4 -940.7,130.8 -857.4,130.8 
			-857.4,-108.4 		"/>
	</g>
	<g>
		<g>
			<rect x="-936.1" y="-100.7" class="st2" width="8.2" height="24.7"/>
		</g>
		<g>
			<rect x="-922.9" y="-100.7" class="st2" width="8.2" height="24.7"/>
		</g>
		<g>
			<rect x="-909.7" y="-100.7" class="st2" width="8.2" height="24.7"/>
		</g>
		<g>
			<rect x="-896.6" y="-100.7" class="st2" width="8.2" height="24.7"/>
		</g>
		<g>
			<rect x="-883.4" y="-100.7" class="st2" width="8.2" height="24.7"/>
		</g>
		<g>
			<rect x="-870.2" y="-100.7" class="st2" width="8.2" height="24.7"/>
		</g>
	</g>
	<g>
		<rect x="-936.1" y="-63.7" class="st2" width="3.6" height="194.5"/>
		<rect x="-929.7" y="-63.7" class="st2" width="3.6" height="194.5"/>
		<rect x="-923.3" y="-63.7" class="st2" width="3.6" height="194.5"/>
		<rect x="-916.9" y="-63.7" class="st2" width="3.6" height="194.5"/>
		<rect x="-910.4" y="-63.7" class="st2" width="3.6" height="194.5"/>
		<rect x="-904" y="-63.7" class="st2" width="3.6" height="194.5"/>
		<rect x="-897.6" y="-63.7" class="st2" width="3.6" height="194.5"/>
		<rect x="-891.2" y="-63.7" class="st2" width="3.6" height="194.5"/>
		<rect x="-884.8" y="-63.7" class="st2" width="3.6" height="194.5"/>
		<rect x="-878.4" y="-63.7" class="st2" width="3.6" height="194.5"/>
		<rect x="-872" y="-63.7" class="st2" width="3.6" height="194.5"/>
		<rect x="-865.6" y="-63.7" class="st2" width="3.6" height="194.5"/>
	</g>
	<g>
		<polygon class="st2" points="-663.6,-108.4 -663.6,-126.2 -719,-126.2 -719.1,-108.4 -732.7,-108.4 -732.7,130.8 -649.3,130.8 
			-649.3,-108.4 		"/>
	</g>
	<g>
		<g>
			<rect x="-662.2" y="-100.7" class="st2" width="8.2" height="24.7"/>
		</g>
		<g>
			<rect x="-675.4" y="-100.7" class="st2" width="8.2" height="24.7"/>
		</g>
		<g>
			<rect x="-688.5" y="-100.7" class="st2" width="8.2" height="24.7"/>
		</g>
		<g>
			<rect x="-701.7" y="-100.7" class="st2" width="8.2" height="24.7"/>
		</g>
		<g>
			<rect x="-714.9" y="-100.7" class="st2" width="8.2" height="24.7"/>
		</g>
		<g>
			<rect x="-728" y="-100.7" class="st2" width="8.2" height="24.7"/>
		</g>
	</g>
	<g>
		<rect x="-657.6" y="-63.7" class="st2" width="3.6" height="194.5"/>
		<rect x="-664" y="-63.7" class="st2" width="3.6" height="194.5"/>
		<rect x="-670.4" y="-63.7" class="st2" width="3.6" height="194.5"/>
		<rect x="-676.8" y="-63.7" class="st2" width="3.6" height="194.5"/>
		<rect x="-683.2" y="-63.7" class="st2" width="3.6" height="194.5"/>
		<rect x="-689.6" y="-63.7" class="st2" width="3.6" height="194.5"/>
		<rect x="-696" y="-63.7" class="st2" width="3.6" height="194.5"/>
		<rect x="-702.4" y="-63.7" class="st2" width="3.6" height="194.5"/>
		<rect x="-708.8" y="-63.7" class="st2" width="3.6" height="194.5"/>
		<rect x="-715.2" y="-63.7" class="st2" width="3.6" height="194.5"/>
		<rect x="-721.6" y="-63.7" class="st2" width="3.6" height="194.5"/>
		<rect x="-728" y="-63.7" class="st2" width="3.6" height="194.5"/>
	</g>
	<g>
		<polygon class="st2" points="-686.1,-11.9 -900.6,-11.9 -910.6,-5.3 -675.5,-5.3 		"/>
	</g>
	<g>
		<rect x="-910.6" y="-5.3" class="st2" width="235.2" height="136.1"/>
	</g>
	<g>
		<rect x="-872.3" y="14.2" class="st2" width="158.7" height="13.6"/>
	</g>
	<g>
		<rect x="-872.3" y="39.5" class="st2" width="158.7" height="13.6"/>
	</g>
	<g>
		<rect x="-872.3" y="64.8" class="st2" width="158.7" height="13.6"/>
	</g>
	<g>
		<rect x="-872.3" y="90.2" class="st2" width="158.7" height="13.6"/>
	</g>
	<g>
		<rect x="-872.3" y="115.5" class="st3" width="158.7" height="13.6"/>
	</g>
	<g>
		<rect x="-768.1" y="-24.6" class="st2" width="70.9" height="17.1"/>
	</g>
	<g>
		<rect x="-869.6" y="-24.6" class="st2" width="52.3" height="17.1"/>
	</g>
	<g>
		<rect x="-1227.2" y="-105.5" class="st2" width="215.7" height="236.3"/>
	</g>
	<g>
		<g>
			<rect x="-1174.8" y="-84.6" class="st2" width="15" height="41.9"/>
			<rect x="-1142.1" y="-84.6" class="st2" width="15" height="41.9"/>
			<rect x="-1109.3" y="-84.6" class="st2" width="15" height="41.9"/>
			<rect x="-1076.6" y="-84.6" class="st2" width="15" height="41.9"/>
			<rect x="-1043.8" y="-84.6" class="st2" width="15" height="41.9"/>
		</g>
		<g>
			<rect x="-1174.8" y="-26.8" class="st2" width="15" height="41.9"/>
			<rect x="-1142.1" y="-26.8" class="st2" width="15" height="41.9"/>
			<rect x="-1109.3" y="-26.8" class="st2" width="15" height="41.9"/>
			<rect x="-1076.6" y="-26.8" class="st2" width="15" height="41.9"/>
			<rect x="-1043.8" y="-26.8" class="st2" width="15" height="41.9"/>
		</g>
		<g>
			<rect x="-1174.8" y="31" class="st2" width="15" height="41.9"/>
			<rect x="-1142.1" y="31" class="st2" width="15" height="41.9"/>
			<rect x="-1109.3" y="31" class="st2" width="15" height="41.9"/>
			<rect x="-1076.6" y="31" class="st2" width="15" height="41.9"/>
			<rect x="-1043.8" y="31" class="st2" width="15" height="41.9"/>
		</g>
		<g>
			<rect x="-1174.8" y="88.9" class="st2" width="15" height="41.9"/>
			<rect x="-1142.1" y="88.9" class="st2" width="15" height="41.9"/>
			<rect x="-1109.3" y="88.9" class="st2" width="15" height="41.9"/>
			<rect x="-1076.6" y="88.9" class="st2" width="15" height="41.9"/>
			<rect x="-1043.8" y="88.9" class="st2" width="15" height="41.9"/>
		</g>
	</g>
	<g>
		<rect x="-984.6" y="-23.3" class="st2" width="24.7" height="3.3"/>
	</g>
	<g>
		<rect x="-984.6" y="-31.3" class="st2" width="24.7" height="3.3"/>
	</g>
	<g>
		<rect x="-984.6" y="-15.3" class="st2" width="24.7" height="3.3"/>
	</g>
	<g>
		<rect x="-984.6" y="-7.3" class="st2" width="24.7" height="3.3"/>
	</g>
	<g>
		<rect x="-984.6" y="0.7" class="st2" width="24.7" height="3.3"/>
	</g>
	<g>
		<rect x="-984.6" y="8.7" class="st2" width="24.7" height="3.3"/>
	</g>
	<g>
		<rect x="-984.6" y="16.7" class="st2" width="24.7" height="3.3"/>
	</g>
	<g>
		<rect x="-984.6" y="24.7" class="st2" width="24.7" height="3.3"/>
	</g>
	<g>
		<rect x="-984.6" y="32.7" class="st2" width="24.7" height="3.3"/>
	</g>
	<g>
		<rect x="-984.6" y="40.7" class="st2" width="24.7" height="3.3"/>
	</g>
	<g>
		<rect x="-984.6" y="48.6" class="st2" width="24.7" height="3.3"/>
	</g>
	<g>
		<rect x="-984.6" y="56.6" class="st2" width="24.7" height="3.3"/>
	</g>
	<g>
		<rect x="-984.6" y="64.6" class="st2" width="24.7" height="3.3"/>
	</g>
	<g>
		<rect x="-984.6" y="72.6" class="st2" width="24.7" height="3.3"/>
	</g>
	<g>
		<rect x="-984.6" y="80.6" class="st2" width="24.7" height="3.3"/>
	</g>
	<g>
		<rect x="-984.6" y="88.6" class="st2" width="24.7" height="3.3"/>
	</g>
	<g>
		<rect x="-984.6" y="96.6" class="st2" width="24.7" height="3.3"/>
	</g>
	<g>
		<rect x="-984.6" y="104.6" class="st2" width="24.7" height="3.3"/>
	</g>
	<g>
		<rect x="-984.6" y="112.6" class="st3" width="24.7" height="3.3"/>
	</g>
	<g>
		<rect x="-984.6" y="120.6" class="st3" width="24.7" height="3.3"/>
	</g>
	<g>
		<path class="st2" d="M-1221.3-441.9l-53.5-45.2v605.9c1.5,6.9,7.6,12,14.9,12h38.6V-441.9L-1221.3-441.9z"/>
	</g>
	<g>
		<rect x="-499.4" y="-450.2" class="st2" width="4.2" height="344.8"/>
	</g>
	<g>
		<rect x="-507.6" y="-450.2" class="st2" width="4.2" height="344.8"/>
	</g>
	<g>
		<rect x="-491.5" y="-450.2" class="st2" width="4.4" height="344.8"/>
	</g>
	<g>
		<polygon class="st2" points="-458.6,-170.9 -414.8,-183 -414.8,130.7 -458.6,130.7 		"/>
	</g>
	<g>
		<rect x="-483.1" y="-450.2" class="st2" width="4.3" height="344.8"/>
	</g>
	<g>
		<rect x="-475.7" y="-450.2" class="st2" width="4.3" height="344.8"/>
	</g>
	<g>
		<polygon class="st2" points="-519.3,-39.7 -515.1,-353.1 -510.8,-39.7 		"/>
	</g>
	<g>
		<polygon class="st2" points="-468.5,-39.7 -464.2,-353.1 -460,-39.7 		"/>
	</g>
	<g>
		<polygon class="st2" points="-519.5,-107.8 -475.8,-111.8 -475.8,130.7 -519.5,130.7 		"/>
	</g>
	<g>
		<path class="st2" d="M-252.7-183.6h-162.2v71.8h-63v242.5h63h0.6h148.4c7.4-1.1,13.1-7.5,13.1-15.3L-252.7-183.6z"/>
	</g>
	<g>
		<polygon class="st2" points="-1185.2,-375.4 -1212.4,-396.1 -1212.4,51.2 -1185.2,51.2 		"/>
	</g>
	<g>
		<rect x="-1257.5" y="-396.1" class="st2" width="45.1" height="447.3"/>
	</g>
	<g>
		<polygon class="st2" points="-1011.5,-105.5 -984.1,-102.6 -984.1,130.8 -1011.5,130.8 		"/>
	</g>
	<g>
		<polygon class="st2" points="-817.3,-27.9 -865.6,-27.9 -869.6,-24.6 -817.3,-24.6 		"/>
	</g>
	<g>
		<polygon class="st2" points="-703.3,-27.9 -768.1,-27.9 -768.1,-24.6 -697.2,-24.6 		"/>
	</g>
	<g>
		<rect x="-1257.5" y="-333" class="st2" width="45.1" height="3.7"/>
	</g>
	<g>
		<rect x="-1257.5" y="-365.1" class="st2" width="45.1" height="3.7"/>
	</g>
	<g>
		<rect x="-1257.5" y="-300.9" class="st2" width="45.1" height="3.7"/>
	</g>
	<g>
		<rect x="-1257.5" y="-268.8" class="st2" width="45.1" height="3.7"/>
	</g>
	<g>
		<rect x="-1257.5" y="-236.8" class="st2" width="45.1" height="3.7"/>
	</g>
	<g>
		<rect x="-1257.5" y="-204.7" class="st2" width="45.1" height="3.7"/>
	</g>
	<g>
		<rect x="-1257.5" y="-172.6" class="st2" width="45.1" height="3.7"/>
	</g>
	<g>
		<rect x="-1257.5" y="-140.5" class="st2" width="45.1" height="3.7"/>
	</g>
	<g>
		<rect x="-1257.5" y="-108.4" class="st2" width="45.1" height="3.7"/>
	</g>
	<g>
		<rect x="-1257.5" y="-76.3" class="st2" width="45.1" height="3.7"/>
	</g>
	<g>
		<rect x="-1257.5" y="-44.3" class="st2" width="45.1" height="3.7"/>
	</g>
	<g>
		<g>
			<g>
				<rect x="-383.7" y="-77.6" class="st2" width="12.8" height="19.5"/>
			</g>
			<g>
				<rect x="-342.2" y="-77.6" class="st2" width="12.8" height="19.5"/>
			</g>
			<g>
				<rect x="-363" y="-77.6" class="st2" width="12.8" height="19.5"/>
			</g>
			<g>
				<rect x="-404.4" y="-5.1" class="st2" width="12.8" height="19.5"/>
			</g>
			<g>
				<rect x="-445.9" y="-5.1" class="st2" width="12.8" height="19.5"/>
			</g>
			<g>
				<rect x="-425.2" y="-5.1" class="st2" width="12.8" height="19.5"/>
			</g>
			<g>
				<rect x="-445.9" y="-29.3" class="st2" width="12.8" height="19.5"/>
			</g>
			<g>
				<rect x="-404.4" y="-77.6" class="st2" width="12.8" height="19.5"/>
			</g>
			<g>
				<rect x="-445.9" y="-53.4" class="st2" width="12.8" height="19.5"/>
			</g>
			<g>
				<rect x="-425.2" y="-77.6" class="st2" width="12.8" height="19.5"/>
			</g>
			<g>
				<rect x="-445.9" y="-77.6" class="st2" width="12.8" height="19.5"/>
			</g>
			<g>
				<rect x="-363" y="-53.4" class="st2" width="12.8" height="19.5"/>
			</g>
			<g>
				<rect x="-342.2" y="-53.4" class="st2" width="12.8" height="19.5"/>
			</g>
			<g>
				<rect x="-425.2" y="-53.4" class="st2" width="12.8" height="19.5"/>
			</g>
			<g>
				<rect x="-404.4" y="-53.4" class="st2" width="12.8" height="19.5"/>
			</g>
			<g>
				<rect x="-383.7" y="-53.4" class="st2" width="12.8" height="19.5"/>
			</g>
			<g>
				<rect x="-342.2" y="-29.3" class="st2" width="12.8" height="19.5"/>
			</g>
			<g>
				<rect x="-425.2" y="-29.3" class="st2" width="12.8" height="19.5"/>
			</g>
			<g>
				<rect x="-404.4" y="-29.3" class="st2" width="12.8" height="19.5"/>
			</g>
			<g>
				<rect x="-383.7" y="-29.3" class="st2" width="12.8" height="19.5"/>
			</g>
			<g>
				<rect x="-363" y="-29.3" class="st2" width="12.8" height="19.5"/>
			</g>
			<g>
				<rect x="-466.6" y="-5.1" class="st2" width="12.8" height="19.5"/>
			</g>
			<g>
				<rect x="-466.6" y="-53.4" class="st2" width="12.8" height="19.5"/>
			</g>
			<g>
				<rect x="-466.6" y="-29.3" class="st2" width="12.8" height="19.5"/>
			</g>
			<g>
				<rect x="-466.6" y="-77.6" class="st2" width="12.8" height="19.5"/>
			</g>
			<g>
				<rect x="-383.7" y="-5.1" class="st2" width="12.8" height="19.5"/>
			</g>
			<g>
				<rect x="-466.6" y="-101.7" class="st2" width="12.8" height="19.5"/>
			</g>
			<g>
				<rect x="-363" y="-5.1" class="st2" width="12.8" height="19.5"/>
			</g>
			<g>
				<rect x="-342.2" y="-5.1" class="st2" width="12.8" height="19.5"/>
			</g>
			<g>
				<rect x="-383.7" y="-101.7" class="st2" width="12.8" height="19.5"/>
			</g>
			<g>
				<rect x="-404.4" y="-101.7" class="st2" width="12.8" height="19.5"/>
			</g>
			<g>
				<rect x="-425.2" y="-101.7" class="st2" width="12.8" height="19.5"/>
			</g>
			<g>
				<rect x="-342.2" y="-101.7" class="st2" width="12.8" height="19.5"/>
			</g>
			<g>
				<rect x="-363" y="-101.7" class="st2" width="12.8" height="19.5"/>
			</g>
			<g>
				<rect x="-445.9" y="-101.7" class="st2" width="12.8" height="19.5"/>
			</g>
		</g>
		<g>
			<rect x="-383.7" y="-125.7" class="st2" width="12.8" height="19.5"/>
		</g>
		<g>
			<rect x="-363" y="-125.7" class="st2" width="12.8" height="19.5"/>
		</g>
		<g>
			<rect x="-383.7" y="-149.9" class="st2" width="12.8" height="19.5"/>
		</g>
		<g>
			<rect x="-383.7" y="-174.1" class="st2" width="12.8" height="19.5"/>
		</g>
		<g>
			<rect x="-363" y="-174.1" class="st2" width="12.8" height="19.5"/>
		</g>
		<g>
			<rect x="-363" y="-149.9" class="st2" width="12.8" height="19.5"/>
		</g>
		<g>
			<rect x="-404.4" y="-125.7" class="st2" width="12.8" height="19.5"/>
		</g>
		<g>
			<rect x="-404.4" y="-174.1" class="st2" width="12.8" height="19.5"/>
		</g>
		<g>
			<rect x="-404.4" y="-149.9" class="st2" width="12.8" height="19.5"/>
		</g>
	</g>
	<g>
		<polygon class="st2" points="-1185.2,-313.3 -1212.1,-329.3 -1212.1,-333 -1185.2,-317 		"/>
	</g>
	<g>
		<polygon class="st2" points="-1185.2,-343.4 -1212.1,-361.4 -1212.1,-365.1 -1185.2,-347.1 		"/>
	</g>
	<g>
		<polygon class="st2" points="-286.9,-218.1 -324.2,-208.4 -363.3,-157.5 -363.3,102.1 -288.6,102.1 		"/>
	</g>
	<g>
		<polygon class="st2" points="-1185.2,-283.2 -1212.1,-297.2 -1212.1,-300.9 -1185.2,-286.9 		"/>
	</g>
	<g>
		<polygon class="st2" points="-1185.2,-253.1 -1212.1,-265.2 -1212.1,-268.8 -1185.2,-256.7 		"/>
	</g>
	<g>
		<polygon class="st2" points="-1185.2,-223.2 -1212.1,-233.1 -1212.1,-236.8 -1185.2,-226.9 		"/>
	</g>
	<g>
		<polygon class="st2" points="-1185.2,-193.5 -1212.1,-201 -1212.1,-204.7 -1185.2,-197.2 		"/>
	</g>
	<g>
		<polygon class="st2" points="-252.7,-218.1 -286.9,-218.1 -326.4,-164.1 -326.4,102.1 -252.7,102.1 		"/>
	</g>
	<g>
		<polygon class="st2" points="-1185.2,-162.9 -1212.1,-168.9 -1212.1,-172.6 -1185.2,-166.6 		"/>
	</g>
	<g>
		<polygon class="st2" points="-1185.2,-133.4 -1212.1,-136.8 -1212.1,-140.5 -1185.2,-137.1 		"/>
	</g>
	<g>
		<polygon class="st2" points="-1185.2,-103 -1212.1,-104.7 -1212.1,-108.4 -1185.2,-106.7 		"/>
	</g>
	<g>
		<polygon class="st2" points="-1185.2,-73.5 -1212.1,-72.7 -1212.1,-76.3 -1185.2,-77.2 		"/>
	</g>
	<g>
		<polygon class="st2" points="-1185.2,-43.2 -1212.1,-40.6 -1212.1,-44.3 -1185.2,-46.8 		"/>
	</g>
	<g>
		<polygon class="st2" points="-1185.2,-13.1 -1212.1,-8.8 -1212.1,-12.5 -1185.2,-16.8 		"/>
	</g>
	<g>
		<g>
			<g>
				<polygon class="st2" points="-826.1,97.7 -807.6,103.8 -826.1,109.8 				"/>
			</g>
			<g>
				<rect x="-828.6" y="97.7" class="st2" width="1.3" height="33"/>
			</g>
		</g>
		<g>
			<g>
				<polygon class="st2" points="-793.5,97.7 -774.9,103.8 -793.5,109.8 				"/>
			</g>
			<g>
				<rect x="-795.9" y="97.7" class="st2" width="1.3" height="33"/>
			</g>
		</g>
		<g>
			<g>
				<polygon class="st2" points="-760.9,97.7 -742.3,103.8 -760.9,109.8 				"/>
			</g>
			<g>
				<rect x="-763.3" y="97.7" class="st2" width="1.3" height="33"/>
			</g>
		</g>
	</g>
	<g>
		<rect x="-285.9" y="-157.5" class="st2" width="33.2" height="5.4"/>
		<rect x="-285.9" y="-138.8" class="st2" width="33.2" height="5.4"/>
		<rect x="-285.9" y="-120.1" class="st2" width="33.2" height="5.4"/>
		<rect x="-285.9" y="-101.4" class="st2" width="33.2" height="5.4"/>
		<rect x="-285.9" y="-82.7" class="st2" width="33.2" height="5.4"/>
		<rect x="-285.9" y="-64" class="st2" width="33.2" height="5.4"/>
		<rect x="-285.9" y="-45.3" class="st2" width="33.2" height="5.4"/>
	</g>
	<g>
		<g>
			<rect x="-989.4" y="-46" class="st2" width="40.4" height="5.2"/>
		</g>
		<g>
			<g>
				<path class="st2" d="M-948.4-41.1c-8,0-16,0-24,0c-4.5,0-9,0-13.5,0c-0.4,0-2.4,0.3-2.8,0c0,0,0.2-4.3,0.2-5.1
					c-0.5,0.2-0.9,0.4-1.4,0.6c8,0,16,0,24,0c4.5,0,9,0,13.5,0c0.4,0,2.4-0.3,2.8,0c0,0-0.2,4.3-0.2,5.1c0,0.3,1.7,0,1.7-0.4
					c0-1.7,0-3.5,0-5.2c0-0.1-0.3-0.1-0.3-0.1c-13.5,0-26.9,0-40.4,0c-0.3,0-1.4,0.1-1.4,0.6c0,1.7,0,3.5,0,5.2
					c0,0.1,0.3,0.1,0.3,0.1c13.5,0,26.9,0,40.4,0C-949.1-40.4-947.6-41.1-948.4-41.1z"/>
			</g>
		</g>
	</g>
	<g>
		<g>
			<polygon class="st2" points="-949,-44.3 -956.2,-42.6 -956.2,130.8 -949,130.8 			"/>
		</g>
		<g>
			<g>
				<path class="st2" d="M-949-44.6c-2.4,0.5-4.8,1.1-7.3,1.6c-0.2,0.1-0.8,0.2-0.8,0.5c0,19.5,0,39,0,58.4c0,31.2,0,62.4,0,93.6
					c0,7.1,0,14.3,0,21.4c0,0.2,0.4,0.1,0.5,0.1c2.4,0,4.8,0,7.3,0c0.3,0,1.2-0.2,1.2-0.6c0-19.8,0-39.5,0-59.3c0-31.3,0-62.7,0-94
					c0-7.3,0-14.5,0-21.8c0-0.3-1.7-0.1-1.7,0.4c0,19.8,0,39.5,0,59.3c0,31.3,0,62.7,0,94c0,7.3,0,14.5,0,21.8
					c0.4-0.2,0.8-0.4,1.2-0.6c-1.5,0-3,0-4.5,0c-0.5,0-1.9,0.3-2.3,0c-0.9-0.5,0.2,0.4,0,0.1c-0.2-0.4,0-1.5,0-1.9
					c0-3.5,0-6.9,0-10.4c0-13.5,0-26.9,0-40.4c0-32.6,0-65.2,0-97.8c0-7.6,0-15.3,0-22.9c-0.3,0.2-0.5,0.3-0.8,0.5
					c2.4-0.5,4.8-1.1,7.3-1.6C-947.9-44.2-948.1-44.8-949-44.6z"/>
			</g>
		</g>
	</g>
	<g>
		<g>
			<rect x="-984.8" y="-42.6" class="st2" width="29.2" height="173.4"/>
		</g>
		<g>
			<g>
				<path class="st2" d="M-955.5-43.2c-9.7,0-19.5,0-29.2,0c-0.3,0-0.9,0.3-0.9,0.6c0,19.5,0,39,0,58.4c0,31.2,0,62.4,0,93.6
					c0,7.1,0,14.3,0,21.4c0,0.4,0.4,0.5,0.8,0.5c9.7,0,19.5,0,29.2,0c0.3,0,0.9-0.3,0.9-0.6c0-19.5,0-39,0-58.4
					c0-31.2,0-62.4,0-93.6c0-7.1,0-14.3,0-21.4c0-0.8-1.7-0.5-1.7,0.1c0,25.1,0,50.1,0,75.2c0,31.4,0,62.7,0,94.1
					c0,0.8-0.4,2.8,0,3.6c0.1,0.1,0,0.4,0,0.6c-0.1-1.3,1.4-0.4,0.6-0.6c-0.5-0.1-1.2,0-1.6,0c-8.3,0-16.6,0-24.9,0
					c-0.8,0-2.4-0.3-2,0.2c0.5,0.7,0.3,0,0.4-0.2c0.2-1,0-2.2,0-3.3c0-4.8,0-9.7,0-14.5c0-35.8,0-71.7,0-107.5c0-13.6,0-27.3,0-40.9
					c0-2.2,0.2-4.6,0-6.7c0.2,1.9-1.5,0.2-0.4,0.6c0.3,0.1,1.1,0,1.4,0c1.9,0,3.8,0,5.6,0c4.7,0,9.4,0,14.1,0c2.5,0,5,0,7.6,0
					C-954.8-42-954.4-43.2-955.5-43.2z"/>
			</g>
		</g>
	</g>
	<g>
		<g>
			<polygon class="st2" points="-640.2,-101.6 -613,-105.4 -613,130.8 -640.2,130.8 			"/>
		</g>
		<g>
			<g>
				<path class="st2" d="M-640.4-101.3c4.3-0.6,8.5-1.2,12.8-1.8c2.8-0.4,5.7-0.8,8.5-1.2c1.4-0.2,4.3-1.2,5.7-0.8
					c-0.7-0.2-0.2,0.3-0.4,1.5c-0.2,1.8,0,3.7,0,5.5c0,16.7,0,33.3,0,50c0,47.8,0,95.6,0,143.4c0,11.9,0,23.7,0,35.6
					c0.5-0.2,0.9-0.4,1.4-0.6c-4.1,0-8.2,0-12.3,0c-2.9,0-5.7,0-8.6,0c-1.2,0-4.9,0.6-5.9,0c-0.7-0.4,0.2,0.4-0.1-0.1
					c-0.1-0.3,0-1.1,0-1.4c0.1-1.8,0-3.6,0-5.3c0-16.4,0-32.8,0-49.3c0-47.2,0-94.3,0-141.5c0-11.6,0-23.1,0-34.7
					c0-0.3-1.7-0.1-1.7,0.4c0,26.2,0,52.4,0,78.6c0,41.7,0,83.5,0,125.2c0,9.5,0,19.1,0,28.6c0,0.1,0.2,0.1,0.3,0.1
					c9.1,0,18.2,0,27.2,0c0.3,0,1.4-0.1,1.4-0.6c0-26.7,0-53.3,0-80c0-42.3,0-84.7,0-127c0-9.7,0-19.5,0-29.2c0-0.2-0.6-0.1-0.7-0.1
					c-9.1,1.3-18.2,2.5-27.2,3.8C-640.8-101.9-641.6-101.1-640.4-101.3z"/>
			</g>
		</g>
	</g>
	<g>
		<g>
			<rect x="-613" y="-105.5" class="st2" width="51.9" height="236.2"/>
		</g>
		<g>
			<g>
				<path class="st2" d="M-613.4-105.1c9.6,0,19.3,0,28.9,0c6.1,0,12.1,0,18.2,0c1,0,3.3-0.5,4.3,0c0.9,0.4-0.3-0.6,0,0.1
					c0.4,1.1,0,2.9,0,4c0,2.7,0,5.3,0,8c0,8.9,0,17.7,0,26.6c0,51.9,0,103.9,0,155.8c0,13.8,0,27.7,0,41.5c0.4-0.2,0.8-0.4,1.2-0.6
					c-9.6,0-19.3,0-28.9,0c-6.1,0-12.1,0-18.2,0c-1,0-3.3,0.5-4.3,0c-0.9-0.4,0.3,0.6,0-0.1c-0.4-1.1,0-2.9,0-4c0-2.7,0-5.3,0-8
					c0-8.9,0-17.7,0-26.6c0-51.9,0-103.9,0-155.8c0-13.8,0-27.7,0-41.5c0-0.4-1.7-0.1-1.7,0.4c0,26.7,0,53.4,0,80
					c0,42.3,0,84.7,0,127c0,9.7,0,19.5,0,29.2c0,0.2,0.4,0.2,0.5,0.2c17.3,0,34.6,0,51.9,0c0.3,0,1.2-0.2,1.2-0.6
					c0-26.7,0-53.4,0-80c0-42.3,0-84.7,0-127c0-9.7,0-19.5,0-29.2c0-0.2-0.4-0.2-0.5-0.2c-17.3,0-34.6,0-51.9,0
					C-613.2-105.9-614.5-105.1-613.4-105.1z"/>
			</g>
		</g>
	</g>
	<g>
		<g>
			<rect x="-566.4" y="-83.9" class="st2" width="6.4" height="13.6"/>
		</g>
		<g>
			<rect x="-576.8" y="-33.4" class="st2" width="6.4" height="13.6"/>
		</g>
		<g>
			<rect x="-597.6" y="-33.4" class="st2" width="6.4" height="13.6"/>
		</g>
		<g>
			<rect x="-587.2" y="-33.4" class="st2" width="6.4" height="13.6"/>
		</g>
		<g>
			<rect x="-597.6" y="-50.2" class="st2" width="6.4" height="13.6"/>
		</g>
		<g>
			<rect x="-576.8" y="-83.9" class="st2" width="6.4" height="13.6"/>
		</g>
		<g>
			<rect x="-597.6" y="-67.1" class="st2" width="6.4" height="13.6"/>
		</g>
		<g>
			<rect x="-587.2" y="-83.9" class="st2" width="6.4" height="13.6"/>
		</g>
		<g>
			<rect x="-597.6" y="-83.9" class="st2" width="6.4" height="13.6"/>
		</g>
		<g>
			<rect x="-587.2" y="-67.1" class="st2" width="6.4" height="13.6"/>
		</g>
		<g>
			<rect x="-576.8" y="-67.1" class="st2" width="6.4" height="13.6"/>
		</g>
		<g>
			<rect x="-566.4" y="-67.1" class="st2" width="6.4" height="13.6"/>
		</g>
		<g>
			<rect x="-587.2" y="-50.2" class="st2" width="6.4" height="13.6"/>
		</g>
		<g>
			<rect x="-576.8" y="-50.2" class="st2" width="6.4" height="13.6"/>
		</g>
		<g>
			<rect x="-566.4" y="-50.2" class="st2" width="6.4" height="13.6"/>
		</g>
		<g>
			<rect x="-608" y="-33.4" class="st2" width="6.4" height="13.6"/>
		</g>
		<g>
			<rect x="-608" y="-67.1" class="st2" width="6.4" height="13.6"/>
		</g>
		<g>
			<rect x="-608" y="-50.2" class="st2" width="6.4" height="13.6"/>
		</g>
		<g>
			<rect x="-608" y="-83.9" class="st2" width="6.4" height="13.6"/>
		</g>
		<g>
			<rect x="-566.4" y="-33.4" class="st2" width="6.4" height="13.6"/>
		</g>
		<g>
			<rect x="-608" y="-100.7" class="st2" width="6.4" height="13.6"/>
		</g>
		<g>
			<rect x="-566.4" y="-100.7" class="st2" width="6.4" height="13.6"/>
		</g>
		<g>
			<rect x="-576.8" y="-100.7" class="st2" width="6.4" height="13.6"/>
		</g>
		<g>
			<rect x="-587.2" y="-100.7" class="st2" width="6.4" height="13.6"/>
		</g>
		<g>
			<rect x="-597.6" y="-100.7" class="st2" width="6.4" height="13.6"/>
		</g>
		<g>
			<rect x="-566.4" y="1.2" class="st2" width="6.4" height="13.6"/>
		</g>
		<g>
			<rect x="-576.8" y="51.7" class="st2" width="6.4" height="13.6"/>
		</g>
		<g>
			<rect x="-597.6" y="51.7" class="st2" width="6.4" height="13.6"/>
		</g>
		<g>
			<rect x="-587.2" y="51.7" class="st2" width="6.4" height="13.6"/>
		</g>
		<g>
			<rect x="-597.6" y="34.8" class="st2" width="6.4" height="13.6"/>
		</g>
		<g>
			<rect x="-576.8" y="1.2" class="st2" width="6.4" height="13.6"/>
		</g>
		<g>
			<rect x="-597.6" y="18" class="st2" width="6.4" height="13.6"/>
		</g>
		<g>
			<rect x="-587.2" y="1.2" class="st2" width="6.4" height="13.6"/>
		</g>
		<g>
			<rect x="-597.6" y="1.2" class="st2" width="6.4" height="13.6"/>
		</g>
		<g>
			<rect x="-587.2" y="18" class="st2" width="6.4" height="13.6"/>
		</g>
		<g>
			<rect x="-576.8" y="18" class="st2" width="6.4" height="13.6"/>
		</g>
		<g>
			<rect x="-566.4" y="18" class="st2" width="6.4" height="13.6"/>
		</g>
		<g>
			<rect x="-587.2" y="34.8" class="st2" width="6.4" height="13.6"/>
		</g>
		<g>
			<rect x="-576.8" y="34.8" class="st2" width="6.4" height="13.6"/>
		</g>
		<g>
			<rect x="-566.4" y="34.8" class="st2" width="6.4" height="13.6"/>
		</g>
		<g>
			<rect x="-608" y="51.7" class="st2" width="6.4" height="13.6"/>
		</g>
		<g>
			<rect x="-608" y="18" class="st2" width="6.4" height="13.6"/>
		</g>
		<g>
			<rect x="-608" y="34.8" class="st2" width="6.4" height="13.6"/>
		</g>
		<g>
			<rect x="-608" y="1.2" class="st2" width="6.4" height="13.6"/>
		</g>
		<g>
			<rect x="-566.4" y="51.7" class="st2" width="6.4" height="13.6"/>
		</g>
		<g>
			<rect x="-608" y="-15.6" class="st2" width="6.4" height="13.6"/>
		</g>
		<g>
			<rect x="-566.4" y="-15.6" class="st2" width="6.4" height="13.6"/>
		</g>
		<g>
			<rect x="-576.8" y="-15.6" class="st2" width="6.4" height="13.6"/>
		</g>
		<g>
			<rect x="-587.2" y="-15.6" class="st2" width="6.4" height="13.6"/>
		</g>
		<g>
			<rect x="-597.6" y="-15.6" class="st2" width="6.4" height="13.6"/>
		</g>
		<g>
			<rect x="-566.4" y="85.4" class="st2" width="6.4" height="13.6"/>
		</g>
		<g>
			<rect x="-576.8" y="85.4" class="st2" width="6.4" height="13.6"/>
		</g>
		<g>
			<rect x="-597.6" y="102.2" class="st2" width="6.4" height="13.6"/>
		</g>
		<g>
			<rect x="-587.2" y="85.4" class="st2" width="6.4" height="13.6"/>
		</g>
		<g>
			<rect x="-597.6" y="85.4" class="st2" width="6.4" height="13.6"/>
		</g>
		<g>
			<rect x="-587.2" y="102.2" class="st2" width="6.4" height="13.6"/>
		</g>
		<g>
			<rect x="-576.8" y="102.2" class="st2" width="6.4" height="13.6"/>
		</g>
		<g>
			<rect x="-566.4" y="102.2" class="st2" width="6.4" height="13.6"/>
		</g>
		<g>
			<rect x="-608" y="102.2" class="st2" width="6.4" height="13.6"/>
		</g>
		<g>
			<rect x="-608" y="85.4" class="st2" width="6.4" height="13.6"/>
		</g>
		<g>
			<rect x="-608" y="68.6" class="st2" width="6.4" height="13.6"/>
		</g>
		<g>
			<rect x="-566.4" y="68.6" class="st2" width="6.4" height="13.6"/>
		</g>
		<g>
			<rect x="-576.8" y="68.6" class="st2" width="6.4" height="13.6"/>
		</g>
		<g>
			<rect x="-587.2" y="68.6" class="st2" width="6.4" height="13.6"/>
		</g>
		<g>
			<rect x="-597.6" y="68.6" class="st2" width="6.4" height="13.6"/>
		</g>
		<g>
			<rect x="-608" y="119" class="st2" width="6.4" height="11.8"/>
		</g>
		<g>
			<rect x="-597.6" y="119" class="st2" width="6.4" height="11.8"/>
		</g>
		<g>
			<rect x="-587.2" y="119" class="st2" width="6.4" height="11.8"/>
		</g>
		<g>
			<rect x="-576.8" y="119" class="st2" width="6.4" height="11.8"/>
		</g>
		<g>
			<rect x="-566.4" y="119" class="st2" width="6.4" height="11.8"/>
		</g>
	</g>
	<g>
		<g>
			<polygon class="st2" points="-578.6,112.2 -565.1,112.2 -565.1,-89.9 -578.6,-89.4 			"/>
		</g>
		<g>
			<g>
				<path class="st2" d="M-579.2,112.6c4.5,0,9,0,13.5,0c0.3,0,1.4-0.1,1.4-0.6c0-22.8,0-45.7,0-68.5c0-36.2,0-72.5,0-108.7
					c0-8.3,0-16.6,0-25c0-0.2-0.4-0.1-0.5-0.1c-4.5,0.2-9,0.4-13.5,0.5c-0.3,0-1.2,0.2-1.2,0.6c0,22.8,0,45.5,0,68.3
					c0,36.1,0,72.2,0,108.3c0,8.3,0,16.7,0,25c0,0.3,1.7,0.1,1.7-0.4c0-22.8,0-45.5,0-68.3c0-36.1,0-72.2,0-108.3c0-8.3,0-16.7,0-25
					c-0.4,0.2-0.8,0.4-1.2,0.6c3.9-0.2,7.8-0.3,11.7-0.5c1.9-0.1,1.3-0.7,1.3,0.7c0.1,3.4,0,6.9,0,10.3c0,15.4,0,30.7,0,46.1
					c0,39,0,77.9,0,116.9c0,9.3,0,18.6,0,28c0.5-0.2,0.9-0.4,1.4-0.6c-4.5,0-9,0-13.5,0C-578.5,111.9-580,112.6-579.2,112.6z"/>
			</g>
		</g>
	</g>
	<g>
		<g>
			<polygon class="st2" points="-562.4,-46.3 -550.4,-46.3 -551,-355 -562.4,-341.5 			"/>
		</g>
		<g>
			<g>
				<path class="st2" d="M-562.8-45.8c4,0,8.1,0,12.1,0c0.4,0,1.2-0.2,1.2-0.7c0-10.2,0-20.4-0.1-30.6c-0.1-24.6-0.1-49.3-0.2-73.9
					c-0.1-29.7-0.1-59.3-0.2-89c-0.1-25.7-0.1-51.3-0.2-77c0-8.5,0-17.1-0.1-25.6c0-2.6,0-5.2,0-7.8c0-1,0.4-3.3,0-4.2
					c-0.1-0.1,0-0.4,0-0.5c0-0.6-1.4,0-1.6,0.2c-3.5,4.1-8.2,8.2-10.9,12.9c-0.6,1-0.5,1-0.6,2.2c-0.2,5,0,10.1,0,15.2
					c0,22.4,0,44.8,0,67.2c0,30,0,60,0,90c0,27,0,53.9,0,80.9c0,9,0,18,0,26.9c0,2.9,0,5.7,0,8.6c0,1.1-0.4,3.4,0,4.5
					c0.1,0.1,0,0.4,0,0.6c0,0.5,1.7,0.2,1.7-0.4c0-10.9,0-21.8,0-32.7c0-25.6,0-51.1,0-76.7c0-30.1,0-60.1,0-90.2
					c0-24,0-48.1,0-72.1c0-6.5,0-12.9,0-19.4c0-1.1-0.3-2.8,0-3.9c0.6-2.2,5.1-6.2,7-8.5c1.4-1.7,2.9-3.4,4.3-5.1
					c-0.5,0.1-1.1,0.1-1.6,0.2c0,10.2,0,20.4,0.1,30.6c0.1,24.6,0.1,49.3,0.2,73.9c0.1,29.7,0.1,59.3,0.2,89
					c0.1,25.7,0.1,51.3,0.2,77c0,8.5,0,17.1,0.1,25.6c0,2.6,0,5.2,0,7.8c0,0.8-0.5,3.5,0,4.2c0.1,0.1,0,0.4,0,0.5
					c0.4-0.2,0.8-0.5,1.2-0.7c-4,0-8.1,0-12.1,0C-562.7-46.7-563.9-45.8-562.8-45.8z"/>
			</g>
		</g>
	</g>
	<g>
		<g>
			<polygon class="st2" points="-545.9,-354.1 -534.6,-354.1 -534.6,-411.8 -545.9,-397.2 			"/>
		</g>
		<g>
			<g>
				<path class="st2" d="M-546.2-353.7c3.7,0,7.5,0,11.2,0c0.3,0,1.2-0.2,1.2-0.6c0-19.3,0-38.5,0-57.8c0-0.5-1.4,0.1-1.6,0.3
					c-3.5,4.5-7.6,8.9-10.5,13.7c-1.5,2.5-0.8,5.9-0.8,8.8c0,11.8,0,23.6,0,35.4c0,0.4,1.7,0.1,1.7-0.4c0-11.5,0-22.9,0-34.4
					c0-3.2-0.9-7.5,0.9-9.8c3.4-4.4,6.8-8.9,10.3-13.4c-0.5,0.1-1.1,0.2-1.6,0.3c0,19.3,0,38.5,0,57.8c0.4-0.2,0.8-0.4,1.2-0.6
					c-3.7,0-7.5,0-11.2,0C-546-354.4-547.3-353.7-546.2-353.7z"/>
			</g>
		</g>
	</g>
	<g>
		<g>
			<polygon class="st2" points="-810.1,-267.9 -810.1,-283.9 -858.5,-283.9 -858.5,-267.9 -889.3,-267.9 -889.3,130.8 -779.4,130.8 
				-779.4,-267.9 			"/>
		</g>
		<g>
			<g>
				<path class="st2" d="M-809.3-267.9c0-5.3,0-10.7,0-16c0-0.3-0.3-0.4-0.5-0.4c-16.1,0-32.3,0-48.4,0c-0.3,0-1.1,0.2-1.1,0.6
					c0,5.3,0,10.7,0,16c0.4-0.2,0.8-0.4,1.1-0.6c-10.2,0-20.5,0-30.7,0c-0.3,0-1.1,0.2-1.1,0.6c0,13.3,0,26.5,0,39.8
					c0,31.7,0,63.4,0,95.2c0,38.3,0,76.7,0,115c0,33.2,0,66.3,0,99.5c0,11,0,21.9,0,32.9c0,3.4,0,6.7,0,10.1c0,1.6-0.4,3.9,0,5.4
					c0.1,0.2,0,0.5,0,0.7c0,0.3,0.3,0.4,0.5,0.4c32.1,0,64.3,0,96.4,0c4.5,0,9,0,13.5,0c0.3,0,1.1-0.2,1.1-0.6c0-13.3,0-26.5,0-39.8
					c0-31.7,0-63.4,0-95.2c0-38.3,0-76.7,0-115c0-33.2,0-66.3,0-99.5c0-11,0-21.9,0-32.9c0-3.4,0-6.7,0-10.1c0-1.6,0.4-3.9,0-5.4
					c-0.1-0.2,0-0.5,0-0.7c0-0.3-0.3-0.4-0.5-0.4c-10.2,0-20.5,0-30.7,0c-0.7,0-1.7,1.1-0.6,1.1c7.8,0,15.7,0,23.5,0
					c1.7,0,3.4,0,5.2,0c1.3,0,1.9,0.4,1.5-0.4c0.1,0.2,0,0.8,0,1c-0.4,2,0,4.6,0,6.6c0,4,0,7.9,0,11.9c0,29.8,0,59.7,0,89.5
					c0,40.8,0,81.6,0,122.5c0,37,0,74,0,111.1c0,12.5,0,24.9,0,37.4c0,3.9,0,7.8,0,11.7c0,1.6-0.6,4.7,0,6.2c0.1,0.2,0,0.6,0,0.8
					c0.4-0.2,0.8-0.4,1.1-0.6c-35.6,0-71.2,0-106.8,0c-0.8,0-1.6,0.1-2.5,0s-0.2,0,0,0.4c-0.1-0.3,0-1.2,0-1.5c0.3-3.1,0-6.4,0-9.4
					c0-13.2,0-26.4,0-39.6c0-44,0-87.9,0-131.9c0-46.7,0-93.5,0-140.2c0-16.7,0-33.3,0-50c0-5.4,0-10.8,0-16.2c0-2.5,0.7-6.2,0-8.6
					c-0.1-0.3,0-0.7,0-1.1c-0.4,0.2-0.8,0.4-1.1,0.6c10.2,0,20.5,0,30.7,0c0.3,0,1.1-0.2,1.1-0.6c0-5.3,0-10.7,0-16
					c-0.4,0.2-0.8,0.4-1.1,0.6c11.8,0,23.6,0,35.4,0c3,0,6,0,9.1,0c0.9,0,3.2-0.5,4,0c-1-0.6-0.5,1.1-0.5,2.1c0,1.8,0,3.7,0,5.5
					c0,2.7,0,5.3,0,8C-811-267-809.3-267.3-809.3-267.9z"/>
			</g>
		</g>
	</g>
	<g>
		<rect x="-856" y="-235.6" class="st2" width="43.6" height="12"/>
	</g>
	<g>
		<rect x="-885.8" y="-235.6" class="st2" width="24.1" height="12"/>
	</g>
	<g>
		<rect x="-806.6" y="-235.6" class="st2" width="24.1" height="12"/>
	</g>
	<g>
		<path class="st2" d="M-877-244.1l-3.3-12.9h1.8l1.5,6.5c0.4,1.6,0.7,3.2,1,4.4l0,0c0.2-1.3,0.6-2.8,1-4.5l1.7-6.5h1.7l1.6,6.5
			c0.4,1.5,0.7,3.1,0.9,4.4l0,0c0.3-1.4,0.6-2.8,1-4.4l1.7-6.5h1.7l-3.6,12.9h-1.7l-1.6-6.7c-0.4-1.6-0.7-2.9-0.8-4.2l0,0
			c-0.2,1.3-0.5,2.5-1,4.2l-1.8,6.7L-877-244.1L-877-244.1z"/>
		<path class="st2" d="M-852-250.6c0,4.4-2.7,6.8-6,6.8c-3.4,0-5.8-2.6-5.8-6.5c0-4.1,2.5-6.8,6-6.8
			C-854.2-257.1-852-254.4-852-250.6z M-862-250.4c0,2.7,1.5,5.2,4.1,5.2s4.1-2.4,4.1-5.3c0-2.6-1.3-5.2-4.1-5.2
			C-860.6-255.8-862-253.2-862-250.4z"/>
		<path class="st2" d="M-838.8-250.6c0,4.4-2.7,6.8-6,6.8c-3.4,0-5.8-2.6-5.8-6.5c0-4.1,2.5-6.8,6-6.8S-838.8-254.4-838.8-250.6z
			 M-848.8-250.4c0,2.7,1.5,5.2,4.1,5.2s4.1-2.4,4.1-5.3c0-2.6-1.3-5.2-4.1-5.2C-847.4-255.8-848.8-253.2-848.8-250.4z"/>
		<path class="st2" d="M-836.7-256.8c1-0.2,2.2-0.3,3.5-0.3c2.4,0,4.1,0.6,5.2,1.6c1.1,1.1,1.8,2.5,1.8,4.6c0,2.1-0.6,3.8-1.9,5
			c-1.2,1.2-3.2,1.9-5.7,1.9c-1.2,0-2.2-0.1-3-0.2L-836.7-256.8L-836.7-256.8z M-835-245.4c0.4,0.1,1,0.1,1.7,0.1
			c3.6,0,5.5-2,5.5-5.5c0-3-1.7-5-5.2-5c-0.9,0-1.5,0.1-1.9,0.2L-835-245.4L-835-245.4z"/>
		<path class="st2" d="M-813.1-249.7c-0.1-1.8-0.2-4-0.2-5.6h-0.1c-0.4,1.5-1,3.1-1.6,4.9l-2.3,6.2h-1.3l-2.1-6.1
			c-0.6-1.8-1.1-3.5-1.5-5l0,0c0,1.6-0.1,3.8-0.2,5.7l-0.3,5.5h-1.6l0.9-12.9h2.1l2.2,6.2c0.5,1.6,1,3,1.3,4.3h0.1
			c0.3-1.3,0.8-2.7,1.4-4.3l2.3-6.2h2.1l0.8,12.9h-1.6L-813.1-249.7z"/>
		<path class="st2" d="M-801.9-250.1h-5v4.6h5.6v1.4h-7.2V-257h7v1.4h-5.3v4.1h5L-801.9-250.1L-801.9-250.1z"/>
		<path class="st2" d="M-799.2-244.1V-257h1.8l4.1,6.5c1,1.5,1.7,2.9,2.3,4.2l0,0c-0.2-1.7-0.2-3.3-0.2-5.3v-5.4h1.6v12.9h-1.7
			l-4.1-6.5c-0.9-1.4-1.8-2.9-2.4-4.3h-0.1c0.1,1.6,0.1,3.2,0.1,5.3v5.5H-799.2L-799.2-244.1z"/>
	</g>
	<g>
		<g>
			<polygon class="st2" points="-773.6,-74.9 -718.8,-74.9 -719,-126.2 -773.6,-94.3 			"/>
		</g>
		<g>
			<g>
				<path class="st2" d="M-774.1-74.5c18.3,0,36.6,0,54.8,0c0.3,0,1.4-0.1,1.4-0.5c-0.1-17.1-0.2-34.2-0.3-51.3
					c0-0.3-1.3,0.1-1.5,0.2c-9.6,5.6-19.2,11.2-28.8,16.8c-6.3,3.7-12.7,7.4-19,11.1c-1.6,0.9-6.1,2.5-7,4.2c-0.4,0.8,0,2.8,0,3.7
					c0,2.1,0,4.3,0,6.4c0,3.1,0,6.2,0,9.3c0,0.2,1.7,0,1.7-0.4c0-5.9,0.3-11.9,0-17.9c-0.1-1.8-0.4-1.1,0.8-2c1.6-1.1,3.4-2,5-2.9
					c12.5-7.3,25-14.6,37.5-21.9c3.7-2.1,7.3-4.3,11-6.4c-0.5,0.1-1,0.1-1.5,0.2c0.1,17.1,0.2,34.2,0.3,51.3
					c0.5-0.2,0.9-0.4,1.4-0.5c-18.3,0-36.6,0-54.8,0C-773.4-75.2-774.9-74.5-774.1-74.5z"/>
			</g>
		</g>
	</g>
	<g>
		<rect x="-885.8" y="-219.8" class="st2" width="2.9" height="350.6"/>
		<rect x="-879.9" y="-219.8" class="st2" width="2.9" height="350.6"/>
		<rect x="-874" y="-219.8" class="st2" width="2.9" height="350.6"/>
		<rect x="-868.1" y="-219.8" class="st2" width="2.9" height="350.6"/>
		<rect x="-862.2" y="-219.8" class="st2" width="2.9" height="350.6"/>
		<rect x="-856.3" y="-219.8" class="st2" width="2.9" height="350.6"/>
		<rect x="-850.4" y="-219.8" class="st2" width="2.9" height="350.6"/>
		<rect x="-844.5" y="-219.8" class="st2" width="2.9" height="350.6"/>
		<rect x="-838.6" y="-219.8" class="st2" width="2.9" height="350.6"/>
		<rect x="-832.7" y="-219.8" class="st2" width="2.9" height="350.6"/>
		<rect x="-826.8" y="-219.8" class="st2" width="2.9" height="350.6"/>
		<rect x="-820.8" y="-219.8" class="st2" width="2.9" height="350.6"/>
		<rect x="-814.9" y="-219.8" class="st2" width="2.9" height="350.6"/>
		<rect x="-809" y="-219.8" class="st2" width="2.9" height="350.6"/>
		<rect x="-803.1" y="-219.8" class="st2" width="2.9" height="350.6"/>
		<rect x="-797.2" y="-219.8" class="st2" width="2.9" height="350.6"/>
		<rect x="-791.3" y="-219.8" class="st2" width="2.9" height="350.6"/>
		<rect x="-785.4" y="-219.8" class="st2" width="2.9" height="350.6"/>
	</g>
	<g>
		<g>
			<polygon class="st2" points="-816.4,-74.9 -871.5,-74.9 -871.5,-126.2 -816.4,-94.3 			"/>
		</g>
		<g>
			<g>
				<path class="st2" d="M-815.9-75.2c-15.5,0-31,0-46.5,0c-2.1,0-6,0.8-8,0c-1-0.4,0,0.4-0.3-0.2c-0.3-0.6,0-2,0-2.6
					c0-8.7,0-17.4,0-26.2c0-7.4,0-14.8,0-22.2c-0.5,0.2-1.1,0.3-1.6,0.5c9.3,5.4,18.6,10.8,27.9,16.1c6.3,3.7,12.6,7.3,19,11
					c1.9,1.1,7.2,3,8.1,4.9c0.4,0.8,0,3,0,3.9c0,2.2,0,4.4,0,6.5c0,3,0,5.9,0,8.9c0,0.2,1.7,0,1.7-0.4c0-5.9,0.7-12.2,0-18.1
					c-0.2-1.6,0.1-1-0.8-1.8c-1.2-1.2-3.4-2-4.9-2.8c-12.7-7.3-25.4-14.7-38-22c-3.8-2.2-7.6-4.4-11.4-6.6c-0.3-0.2-1.6,0.1-1.6,0.5
					c0,17.1,0,34.2,0,51.3c0,0.1,0.3,0.1,0.3,0.1c18.4,0,36.7,0,55.1,0C-816.7-74.6-815.1-75.2-815.9-75.2z"/>
			</g>
		</g>
	</g>
	<g>
		<g>
			<polygon class="st2" points="-787.5,130.8 -732.7,130.8 -732.7,-108.4 -787.5,-84.7 			"/>
		</g>
		<g>
			<g>
				<path class="st2" d="M-787.8,131.2c18.3,0,36.6,0,54.8,0c0.3,0,1.2-0.2,1.2-0.6c0-27,0-54.1,0-81.1c0-42.9,0-85.8,0-128.6
					c0-9.8,0-19.7,0-29.5c0-0.4-1-0.1-1.1-0.1c-18.3,7.9-36.6,15.8-54.8,23.7c-0.2,0.1-0.5,0.2-0.5,0.5c0,24.3,0,48.7,0,73
					c0,38.6,0,77.2,0,115.8c0,8.9,0,17.7,0,26.6c0,0.4,1.7,0.1,1.7-0.4c0-35.9,0-71.8,0-107.7c0-24.5,0-48.9,0-73.4
					c0-8.2,0-16.5,0-24.7c0-2.8-0.8-6.9,0-9.6c-0.1,0.2-0.8,0.8,0,0.3c0.5-0.3,1.2-0.5,1.8-0.8c2-0.9,4.1-1.8,6.1-2.6
					c6.2-2.7,12.4-5.4,18.6-8.1c9.3-4,18.5-8,27.8-12c-0.4,0-0.8,0-1.1-0.1c0,27,0,54.1,0,81.1c0,42.9,0,85.8,0,128.6
					c0,9.8,0,19.7,0,29.5c0.4-0.2,0.8-0.4,1.2-0.6c-18.3,0-36.6,0-54.8,0C-787.7,130.4-789,131.2-787.8,131.2z"/>
			</g>
		</g>
	</g>
	<g>
		<g>
			<polygon class="st2" points="-802.5,130.8 -857.4,130.8 -857.4,-108.4 -802.5,-84.7 			"/>
		</g>
		<g>
			<g>
				<path class="st2" d="M-802.4,130.2c-9.7,0-19.4,0-29.1,0c-6.3,0-12.7,0-19,0c-1.7,0-3.6-0.2-5.4,0c-1.8,0.2-0.6-0.3-0.6,0.4
					c-0.7-12.5,0-25.2,0-37.8c0-52.9,0-105.9,0-158.8c0-14.2,0-28.3,0-42.5c-0.4,0.2-0.9,0.4-1.3,0.6c17.7,7.7,35.4,15.3,53.2,23
					c0.8,0.4,1.7,1.2,1.3,0.3c0.1,0.2,0,0.5,0,0.8c0.1,1.7,0,3.4,0,5.1c0,7.2,0,14.4,0,21.6c0,49,0,98,0,147c0,13.7,0,27.3,0,41
					c0,0.8,1.7,0.6,1.7-0.1c0-24.3,0-48.7,0-73c0-38.6,0-77.2,0-115.8c0-8.9,0-17.7,0-26.6c0-0.3-0.1-0.4-0.4-0.5
					c-18.3-7.9-36.6-15.8-54.8-23.7c-0.4-0.2-1.3,0.1-1.3,0.6c0,27,0,54.1,0,81.1c0,42.9,0,85.8,0,128.6c0,9.8,0,19.7,0,29.5
					c0,0.4,0.4,0.5,0.8,0.5c18.3,0,36.6,0,54.8,0C-801.7,131.4-801.3,130.2-802.4,130.2z"/>
			</g>
		</g>
	</g>
	<g>
		<g>
			<polygon class="st2" points="-528.8,-411.8 -517.6,-411.8 -517.6,-463.5 -528.8,-448 			"/>
		</g>
		<g>
			<g>
				<path class="st2" d="M-529.1-411.2c3.7,0,7.5,0,11.2,0c0.3,0,1.1-0.2,1.1-0.6c0-17.3,0-34.5,0-51.8c0-0.8-1.3-0.3-1.6,0
					c-3.1,4.3-6.2,8.5-9.3,12.8c-2.2,3-2,3.8-2,7.6c0,10.5,0,21,0,31.5c0,0.8,1.7,0.4,1.7-0.2c0-10.3,0-20.6,0-30.9
					c0-1.5-0.4-3.6,0-5c0.2-0.9,1.4-2.2,2.1-3.1c3-4.2,6.1-8.4,9.1-12.5c-0.5,0-1.1,0-1.6,0c0,17.3,0,34.5,0,51.8
					c0.4-0.2,0.8-0.4,1.1-0.6c-3.7,0-7.5,0-11.2,0C-529.2-412.3-530.3-411.2-529.1-411.2z"/>
			</g>
		</g>
	</g>
	<g>
		<g>
			<polygon class="st2" points="-427.4,-90.1 -427.4,-355 -442.5,-355 -442.5,-411.8 -460.8,-411.8 -460.8,-463.5 -474.8,-463.5 
				-474.8,-469.5 -478.9,-469.5 -478.9,-463.5 -483.1,-463.5 -483.1,-469.5 -487.2,-469.5 -487.2,-463.5 -491.3,-463.5 
				-491.3,-469.5 -495.4,-469.5 -495.4,-463.5 -499.5,-463.5 -499.5,-469.5 -503.6,-469.5 -503.6,-463.5 -517.6,-463.5 
				-517.6,-411.8 -534.9,-411.8 -534.9,-355 -551,-355 -551,-90.1 -565.9,-90.1 -565.9,130.7 -421.1,130.7 -421.1,-90.1 			"/>
		</g>
		<g>
			<g>
				<path class="st2" d="M-426.6-90.2c0-29.9,0-59.8,0-89.7c0-47.6,0-95.2,0-142.7c0-10.8,0-21.6,0-32.4c0-0.4-0.4-0.6-0.8-0.6
					c-3.2,0-6.4,0-9.6,0c-1.6,0-3.3-0.2-4.9,0c-0.8,0.1,0.1,0.9,0.3,0.2c0.9-5.3,0-11.6,0-17c0-13.1,0-26.2,0-39.3
					c0-0.4-0.4-0.6-0.8-0.6c-2.9,0-5.8,0-8.8,0c-2.9,0-6.6,0.6-9.4,0c1.3,0.3,0.1,0.8,0.6-0.3c0.2-0.6,0-1.8,0-2.4
					c0-3.2,0-6.3,0-9.5c0-13,0-26,0-39c0-0.4-0.4-0.6-0.8-0.6c-3.7,0-7.3,0-11,0c-0.7,0-1.6-0.1-2.3,0c-1.1,0.2,0,0.5,0,0.1
					c0-1.8,0-3.6,0-5.4c0-0.4-0.4-0.6-0.8-0.6c-1.4,0-2.7,0-4.1,0c-0.3,0-0.9,0.3-0.9,0.7c0,1.4-0.2,2.8,0,4.2
					c0,0.3-0.3,2.2,0.4,1.4c0.5-0.7-0.8-0.3-1.5-0.3c-0.4,0-1.5,0.2-1.9,0c1.2,0.6,0.4-0.1,0.6-1.2c0.2-1.3,0-2.8,0-4.2
					c0-0.4-0.4-0.6-0.8-0.6c-1.4,0-2.7,0-4.1,0c-0.3,0-0.9,0.3-0.9,0.7c0,1.4-0.2,2.8,0,4.2c0,0.3-0.3,2.2,0.4,1.4
					c0.5-0.7-0.8-0.3-1.5-0.3c-0.4,0-1.5,0.2-1.9,0c1.2,0.6,0.4-0.1,0.6-1.2c0.2-1.3,0-2.8,0-4.2c0-0.4-0.4-0.6-0.8-0.6
					c-1.4,0-2.7,0-4.1,0c-0.3,0-0.9,0.3-0.9,0.7c0,1.4-0.2,2.8,0,4.2c0,0.3-0.3,2.2,0.4,1.4c0.5-0.7-0.8-0.3-1.5-0.3
					c-0.4,0-1.5,0.2-1.9,0c1.2,0.6,0.4-0.1,0.6-1.2c0.2-1.3,0-2.8,0-4.2c0-0.4-0.4-0.6-0.8-0.6c-1.4,0-2.7,0-4.1,0
					c-0.3,0-0.9,0.3-0.9,0.7c0,1.4-0.5,3.9,0,5.1c0.3,0.8,1.1,0.2,0.4,0.1c-0.8-0.1-1.7,0-2.5,0c-3.7,0-7.3,0-11,0
					c-0.3,0-0.9,0.3-0.9,0.7c0,12.7,0,25.5,0,38.2c0,3.2,0,6.4,0,9.5c0,0.6-0.2,4.6,0.4,3.6c0.5-0.8-1.4-0.3-2.4-0.3
					c-1.9,0-3.8,0-5.8,0c-2.9,0-5.8,0-8.6,0c-0.3,0-0.9,0.3-0.9,0.7c0,13.4,0,26.7,0,40.1c0,3.5,0,7.1,0,10.6c0,1.6-0.5,4.3,0,5.7
					c0.2,0.7-1.3-0.3,0.9-0.4c-0.4,0-0.9,0.1-1.2,0c-1.7-0.3-3.8,0-5.6,0c-3.1,0-6.2,0-9.3,0c-0.3,0-0.9,0.3-0.9,0.7
					c0,32.5,0,65,0,97.6c0,48.4,0,96.8,0,145.3c0,6.4,0,12.7,0,19.1c0,1,0,2,0,3c0-1,1.4-0.6,0.7-0.7c-0.6-0.1-1.2,0-1.8,0
					c-1.5,0-3,0-4.6,0c-2.8,0-5.5,0-8.3,0c-0.3,0-0.9,0.3-0.9,0.7c0,24.8,0,49.6,0,74.4c0,39.7,0,79.4,0,119.1c0,9.1,0,18.2,0,27.2
					c0,0.4,0.4,0.6,0.8,0.6c42.2,0,84.4,0,126.6,0c6,0,12.1,0,18.1,0c0.3,0,0.9-0.3,0.9-0.7c0-24.8,0-49.6,0-74.4
					c0-39.7,0-79.4,0-119.1c0-9.1,0-18.2,0-27.2c0-0.4-0.4-0.6-0.8-0.6c-2.1,0-4.2,0-6.3,0c-1,0-1.3,1.3-0.1,1.3c1.2,0,2.4,0,3.6,0
					c0.8,0,1.6-0.1,2.4,0c0.6,0.1-0.4-0.6-0.4-0.5c0.1,0.3,0.1,0.8,0,1.1c-0.4,1.8,0,4.2,0,6c0,8.4,0,16.9,0,25.3c0,27,0,54,0,81
					c0,26.4,0,52.8,0,79.2c0,7.8,0,15.5,0,23.3c0,1.1-0.5,3.5,0,4.5c0.3,0.6,1-0.3,0.7-0.4c-0.6-0.2-1.4,0-2,0c-22,0-43.9,0-65.9,0
					c-23.9,0-47.7,0-71.6,0c-1.6,0-3.4,0.3-5,0c1.2,0.2,0.4,0.9,0.7,0.1c0.2-0.5,0-1.4,0-1.9c0-6.6,0-13.1,0-19.7
					c0-25.4,0-50.8,0-76.2c0-27.7,0-55.4,0-83.1c0-9.4,0-18.9,0-28.3c0-2.7,0-5.4,0-8.1c0-0.6,0.2-1.6,0-2.1c-0.5-1.2,1.1-0.2-0.8,0
					c4.9-0.4,9.9,0,14.8,0c0.3,0,0.9-0.3,0.9-0.7c0-32.9,0-65.9,0-98.8c0-48.4,0-96.8,0-145.3c0-6.1,0-12.3,0-18.4
					c0-0.5,0.2-1.3,0-1.8c-0.4-1.2,0.7,0.2-0.7,0.1c5.2,0.5,10.7,0,15.9,0c0.3,0,0.9-0.3,0.9-0.7c0-9.6,0-19.2,0-28.8
					c0-6.6,0-13.2,0-19.9c0-2,0-4.1,0-6.1c0-0.4,0.2-1.2,0-1.5c-0.3-0.7-0.8,0.2-0.6,0.3c2.7,0.6,6.4,0,9.1,0c2.6,0,5.2,0,7.8,0
					c0.3,0,0.9-0.3,0.9-0.7c0-12,0-23.9,0-35.9c0-3.4,0-6.7,0-10.1c0-1.7,0.3-3.7,0-5.4c-0.2-0.9-1.1,0-0.4,0.2c1.2,0.4,3.1,0,4.4,0
					c3,0,6,0,9.1,0c0.3,0,0.9-0.3,0.9-0.7c0-1.4,0.2-2.8,0-4.2c0-0.3,0.3-2.2-0.4-1.4c-0.5,0.7,0.8,0.3,1.5,0.3c0.4,0,1.5-0.2,1.9,0
					c-1.2-0.6-0.4,0.1-0.6,1.2c-0.2,1.3,0,2.8,0,4.2c0,0.4,0.4,0.6,0.8,0.6c1.4,0,2.7,0,4.1,0c0.3,0,0.9-0.3,0.9-0.7
					c0-1.4,0.2-2.8,0-4.2c0-0.3,0.3-2.2-0.4-1.4c-0.5,0.7,0.8,0.3,1.5,0.3c0.4,0,1.5-0.2,1.9,0c-1.2-0.6-0.4,0.1-0.6,1.2
					c-0.2,1.3,0,2.8,0,4.2c0,0.4,0.4,0.6,0.8,0.6c1.4,0,2.7,0,4.1,0c0.3,0,0.9-0.3,0.9-0.7c0-1.4,0.2-2.8,0-4.2
					c0-0.3,0.3-2.2-0.4-1.4c-0.5,0.7,0.8,0.3,1.5,0.3c0.4,0,1.5-0.2,1.9,0c-1.2-0.6-0.4,0.1-0.6,1.2c-0.2,1.3,0,2.8,0,4.2
					c0,0.4,0.4,0.6,0.8,0.6c1.4,0,2.7,0,4.1,0c0.3,0,0.9-0.3,0.9-0.7c0-1.4,0.2-2.8,0-4.2c0-0.3,0.3-2.2-0.4-1.4
					c-0.5,0.7,0.8,0.3,1.5,0.3c0.4,0,1.5-0.2,1.9,0c-1.2-0.6-0.4,0.1-0.6,1.2c-0.2,1.3,0,2.8,0,4.2c0,0.4,0.4,0.6,0.8,0.6
					c3,0,6,0,9.1,0c1.4,0,2.9,0.1,4.4,0c0.8-0.1-0.1-0.9-0.2-0.1c-0.7,4.9,0,10.5,0,15.4c0,12,0,23.9,0,35.9c0,0.4,0.4,0.6,0.8,0.6
					c5.3,0,10.6,0,15.9,0c0.7,0,1.6-0.1,2.3,0c-0.9-0.2-0.4-0.9-0.7,0c-0.4,1.4,0,3.4,0,4.9c0,13.2,0,26.4,0,39.5
					c0,3.9,0,7.8,0,11.8c0,0.4,0.4,0.6,0.8,0.6c4.7,0,9.9,0.7,14.5,0c0.7-0.1-0.1-1-0.3-0.2c-0.1,0.4,0,0.9,0,1.4
					c0,4.9,0,9.8,0,14.7c0,20.3,0,40.6,0,60.8c0,50.5,0,101.1,0,151.6c0,12,0,24,0,36C-428.3-89.1-426.6-89.4-426.6-90.2z"/>
			</g>
		</g>
	</g>
	<g>
		<g>
			<polygon class="st2" points="-871.5,-108.4 -871.5,-126.2 -926.5,-126.2 -926.5,-108.4 -940.7,-108.4 -940.7,130.8 -857.4,130.8 
				-857.4,-108.4 			"/>
		</g>
		<g>
			<g>
				<path class="st2" d="M-870.7-108.5c0-5.9,0-11.8,0-17.7c0-0.4-0.4-0.5-0.8-0.5c-18.3,0-36.6,0-55,0c-0.3,0-0.9,0.3-0.9,0.7
					c0,2.5,0,5.1,0,7.6c0,1.9,0,3.9,0,5.8c0,1-0.4,2.8,0,3.7c0.3,0.6,1.3,0.3-0.1,0c-1.4-0.4-3.4,0-4.9,0c-2.8,0-5.6,0-8.4,0
					c-0.3,0-0.9,0.3-0.9,0.7c0,27,0,54.1,0,81.1c0,42.9,0,85.8,0,128.6c0,9.8,0,19.7,0,29.5c0,0.4,0.4,0.5,0.8,0.5
					c24.3,0,48.5,0,72.8,0c3.5,0,7,0,10.6,0c0.3,0,0.9-0.3,0.9-0.7c0-27,0-54.1,0-81.1c0-42.9,0-85.8,0-128.6c0-9.8,0-19.7,0-29.5
					c0-0.4-0.4-0.5-0.8-0.5c-4.7,0-9.4,0-14.1,0c-0.9,0-1.3,1.2-0.2,1.2c2.4,0,4.7,0,7.1,0c1.6,0,3.1,0,4.7,0c0.5,0,1.1,0.1,1.6,0
					c1.1-0.2,0.1,0.3,0-0.5c0.1,0.8,0,1.8,0,2.7c0,6.1,0,12.2,0,18.3c0,23.8,0,47.6,0,71.3c0,27.9,0,55.8,0,83.8
					c0,18.9,0,37.9,0,56.8c0,1.5-0.5,3.9,0,5.4c0.1,0.3-0.1,0.6,0,0.9c-0.2-1,1.7-0.3-0.3-0.6c-3.6-0.5-7.6,0-11.2,0
					c-6.2,0-12.5,0-18.7,0c-13.4,0-26.8,0-40.2,0c-3.4,0-7.6-0.6-11,0c-1.6,0.3-0.4-0.5-0.4,0.5c0-0.3-0.1-0.7,0-1
					c0.4-1.6,0-3.8,0-5.5c0-3.2,0-6.4,0-9.6c0-9.7,0-19.4,0-29.2c0-26.9,0-53.9,0-80.8c0-26.1,0-52.1,0-78.2c0-8.4,0-16.9,0-25.3
					c0-2.4,0-4.7,0-7.1c0-0.4,0.2-3.3-0.4-2.2c-0.4,0.7,0.9,0.3,1.9,0.3c1.6,0,3.2,0,4.7,0c2.4,0,4.7,0,7.1,0c0.3,0,0.9-0.3,0.9-0.7
					c0-2.8,0-5.6,0-8.4c0-2,0-4,0-6c0-0.4,0-3.9-0.5-2.9c-0.4,0.7-0.3,0.1,0.6,0.3c0.8,0.2,1.9,0,2.8,0c3.2,0,6.4,0,9.7,0
					c8.3,0,16.6,0,24.9,0c3.6,0,7.1,0,10.7,0c1.7,0,3.8-0.3,5.5,0c0.8,0.2-0.4-0.4-0.4-0.5c0.1,0.3,0.1,0.9,0,1.2
					c-0.5,1.7,0,4.2,0,5.9c0,3.5,0,7.1,0,10.6C-872.3-107.5-870.7-107.8-870.7-108.5z"/>
			</g>
		</g>
	</g>
	<g>
		<g>
			<rect x="-936.1" y="-100.7" class="st2" width="8.2" height="24.7"/>
		</g>
		<g>
			<rect x="-922.9" y="-100.7" class="st2" width="8.2" height="24.7"/>
		</g>
		<g>
			<rect x="-909.7" y="-100.7" class="st2" width="8.2" height="24.7"/>
		</g>
		<g>
			<rect x="-896.6" y="-100.7" class="st2" width="8.2" height="24.7"/>
		</g>
		<g>
			<rect x="-883.4" y="-100.7" class="st2" width="8.2" height="24.7"/>
		</g>
		<g>
			<rect x="-870.2" y="-100.7" class="st2" width="8.2" height="24.7"/>
		</g>
	</g>
	<g>
		<rect x="-936.1" y="-63.7" class="st2" width="3.6" height="194.5"/>
		<rect x="-929.7" y="-63.7" class="st2" width="3.6" height="194.5"/>
		<rect x="-923.3" y="-63.7" class="st2" width="3.6" height="194.5"/>
		<rect x="-916.9" y="-63.7" class="st2" width="3.6" height="194.5"/>
		<rect x="-910.4" y="-63.7" class="st2" width="3.6" height="194.5"/>
		<rect x="-904" y="-63.7" class="st2" width="3.6" height="194.5"/>
		<rect x="-897.6" y="-63.7" class="st2" width="3.6" height="194.5"/>
		<rect x="-891.2" y="-63.7" class="st2" width="3.6" height="194.5"/>
		<rect x="-884.8" y="-63.7" class="st2" width="3.6" height="194.5"/>
		<rect x="-878.4" y="-63.7" class="st2" width="3.6" height="194.5"/>
		<rect x="-872" y="-63.7" class="st2" width="3.6" height="194.5"/>
		<rect x="-865.6" y="-63.7" class="st2" width="3.6" height="194.5"/>
	</g>
	<g>
		<g>
			<polygon class="st2" points="-663.6,-108.4 -663.6,-126.2 -719,-126.2 -719.1,-108.4 -732.7,-108.4 -732.7,130.8 -649.3,130.8 
				-649.3,-108.4 			"/>
		</g>
		<g>
			<g>
				<path class="st2" d="M-662.7-108.7c0-5.9,0-11.8,0-17.7c0-0.1-0.3-0.1-0.3-0.1c-18.5,0-37,0-55.4,0c-0.3,0-1.4,0.1-1.4,0.6
					c0,5.9-0.1,11.8-0.1,17.7c0.5-0.2,0.9-0.4,1.4-0.6c-4.5,0-9,0-13.6,0c-0.3,0-1.4,0.1-1.4,0.6c0,27,0,54.1,0,81.1
					c0,42.9,0,85.8,0,128.6c0,9.8,0,19.7,0,29.5c0,0.1,0.3,0.1,0.3,0.1c24.3,0,48.5,0,72.8,0c3.5,0,7,0,10.6,0
					c0.3,0,1.4-0.1,1.4-0.6c0-27,0-54,0-81.1c0-42.9,0-85.8,0-128.6c0-9.8,0-19.7,0-29.5c0-0.1-0.3-0.1-0.3-0.1c-4.7,0-9.5,0-14.2,0
					c-0.4,0-1.9,0.7-1.1,0.7c2,0,3.9,0,5.8,0c1.7,0,6.3-0.9,7.8,0c0.3,0.2,0.3,0,0.3,1.3c0,4.3,0,8.6,0,12.8c0,18.2,0,36.5,0,54.7
					c0,45.8,0,91.6,0,137.4c0,10.9,0,21.9,0,32.8c0.5-0.2,0.9-0.4,1.4-0.6c-23.4,0-46.9,0-70.3,0c-3.8,0-8.4,0.7-12.1,0
					c-0.9-0.2-0.8,0.2-0.6-1.4c0.5-6.1,0-12.5,0-18.7c0-26.1,0-52.3,0-78.4c0-30,0-60,0-90.1c0-11.1,0-22.2,0-33.3
					c0-3.6,0-7.2,0-10.8c0-1.5,0.6-4.4,0-5.7c-0.1-0.2,0-0.5,0-0.7c-0.5,0.2-0.9,0.4-1.4,0.6c4.5,0,9,0,13.6,0
					c0.3,0,1.4-0.1,1.4-0.6c0-5.9,0.1-11.8,0.1-17.7c-0.5,0.2-0.9,0.4-1.4,0.6c13.4,0,26.8,0,40.2,0c3.4,0,6.8,0,10.3,0
					c0.8,0,4.3-0.5,4.9,0c-0.4-0.3-0.2,1.8-0.2,2.2c0,2,0,4.1,0,6.1c0,3.1,0,6.2,0,9.3C-664.4-107.9-662.7-108.2-662.7-108.7z"/>
			</g>
		</g>
	</g>
	<g>
		<g>
			<rect x="-662.2" y="-100.7" class="st2" width="8.2" height="24.7"/>
		</g>
		<g>
			<rect x="-675.4" y="-100.7" class="st2" width="8.2" height="24.7"/>
		</g>
		<g>
			<rect x="-688.5" y="-100.7" class="st2" width="8.2" height="24.7"/>
		</g>
		<g>
			<rect x="-701.7" y="-100.7" class="st2" width="8.2" height="24.7"/>
		</g>
		<g>
			<rect x="-714.9" y="-100.7" class="st2" width="8.2" height="24.7"/>
		</g>
		<g>
			<rect x="-728" y="-100.7" class="st2" width="8.2" height="24.7"/>
		</g>
	</g>
	<g>
		<rect x="-657.6" y="-63.7" class="st2" width="3.6" height="194.5"/>
		<rect x="-664" y="-63.7" class="st2" width="3.6" height="194.5"/>
		<rect x="-670.4" y="-63.7" class="st2" width="3.6" height="194.5"/>
		<rect x="-676.8" y="-63.7" class="st2" width="3.6" height="194.5"/>
		<rect x="-683.2" y="-63.7" class="st2" width="3.6" height="194.5"/>
		<rect x="-689.6" y="-63.7" class="st2" width="3.6" height="194.5"/>
		<rect x="-696" y="-63.7" class="st2" width="3.6" height="194.5"/>
		<rect x="-702.4" y="-63.7" class="st2" width="3.6" height="194.5"/>
		<rect x="-708.8" y="-63.7" class="st2" width="3.6" height="194.5"/>
		<rect x="-715.2" y="-63.7" class="st2" width="3.6" height="194.5"/>
		<rect x="-721.6" y="-63.7" class="st2" width="3.6" height="194.5"/>
		<rect x="-728" y="-63.7" class="st2" width="3.6" height="194.5"/>
	</g>
	<g>
		<g>
			<polygon class="st2" points="-686.1,-11.9 -900.6,-11.9 -910.6,-5.3 -675.5,-5.3 			"/>
		</g>
		<g>
			<g>
				<path class="st2" d="M-685.8-12.4c-26.9,0-53.9,0-80.8,0c-39.2,0-78.5,0-117.7,0c-4.8,0-9.6,0-14.4,0c-4.7,0-8.7,4.4-12.4,6.8
					c-0.4,0.3-0.4,0.8,0.2,0.8c26.5,0,53,0,79.5,0c42.2,0,84.4,0,126.6,0c9.7,0,19.3,0,29,0c0.3,0,1.7-0.5,1-0.9
					c-3.6-2.2-7.1-4.4-10.7-6.6c-0.5-0.3-2,0.4-1.3,0.8c3.6,2.2,7.1,4.4,10.7,6.6c0.3-0.3,0.6-0.6,1-0.9c-25.7,0-51.4,0-77,0
					c-41.8,0-83.6,0-125.5,0c-6.8,0-13.5,0-20.3,0c-3.5,0-7.6-0.7-11.1,0c-0.3,0.1-0.7,0-1,0c-0.6,0.1-0.2,0.7,0.3,0.5
					c1.9-0.6,4-2.6,5.6-3.7c1-0.6,2.1-1.2,3-2c0.6-0.5,1.3-0.6,0.1-0.4c2.2-0.4,4.9,0,7.2,0c36.5,0,73,0,109.5,0
					c32.1,0,64.1,0.1,96.2,0c0.5,0,1.1,0,1.6,0C-685.8-11.4-684.7-12.4-685.8-12.4z"/>
			</g>
		</g>
	</g>
	<g>
		<g>
			<rect x="-910.6" y="-5.3" class="st2" width="235.2" height="136.1"/>
		</g>
		<g>
			<g>
				<path class="st2" d="M-675.3-5.9c-26.5,0-53,0-79.5,0c-42.2,0-84.5,0-126.7,0c-9.7,0-19.4,0-29,0c-0.3,0-0.9,0.3-0.9,0.7
					c0,39.8,0,79.6,0,119.4c0,5.6,0,11.1,0,16.7c0,0.4,0.4,0.6,0.8,0.6c26.5,0,53,0,79.5,0c42.2,0,84.5,0,126.7,0c9.7,0,19.4,0,29,0
					c0.3,0,0.9-0.3,0.9-0.7c0-39.8,0-79.6,0-119.4c0-5.6,0-11.1,0-16.7c0-0.9-1.7-0.6-1.7,0.1c0,24.8,0,49.6,0,74.5
					c0,15.7,0,31.3,0,47c0,4.2,0,8.4,0,12.7c0,0.6-0.1,1.4,0,2c-0.3-1.3,1.8-0.2-0.1-0.7c-2.3-0.5-5.3,0-7.6,0c-4.7,0-9.3,0-14,0
					c-14.2,0-28.4,0-42.5,0c-35,0-70,0-105,0c-14.1,0-28.2,0-42.3,0c-4.7,0-9.4,0-14.1,0c-2.4,0-5.4-0.5-7.7,0
					c-1.6,0.3-0.3-0.5-0.3,0.5c0-0.7,0-1.3,0-2c0-4.1,0-8.3,0-12.4c0-15.7,0-31.5,0-47.2c0-16.9,0-33.7,0-50.6c0-5.7,0-11.5,0-17.2
					c0-1.7,0-3.3,0-5c0-0.2,0.1-2.6-0.5-1.4c-0.4,0.8-0.3,0.1,0.7,0.3c0.9,0.2,2,0,3,0c3.8,0,7.6,0,11.3,0c12.8,0,25.5,0,38.3,0
					c34.8,0,69.6,0,104.4,0c24.4,0,48.8,0,73.2,0c1.3,0,2.6,0,3.8,0C-674.5-4.7-674.2-5.9-675.3-5.9z"/>
			</g>
		</g>
	</g>
	<g>
		<rect x="-872.3" y="14.2" class="st2" width="158.7" height="13.6"/>
	</g>
	<g>
		<rect x="-872.3" y="39.5" class="st2" width="158.7" height="13.6"/>
	</g>
	<g>
		<rect x="-872.3" y="64.8" class="st2" width="158.7" height="13.6"/>
	</g>
	<g>
		<rect x="-872.3" y="90.2" class="st2" width="158.7" height="13.6"/>
	</g>
	<g>
		<rect x="-872.3" y="115.5" class="st3" width="158.7" height="13.6"/>
	</g>
	<g>
		<g>
			<rect x="-768.1" y="-24.6" class="st2" width="70.9" height="17.1"/>
		</g>
		<g>
			<g>
				<path class="st2" d="M-697.2-25.2c-23.6,0-47.3,0-70.9,0c-0.3,0-0.9,0.3-0.9,0.7c0,5.7,0,11.4,0,17.1c0,0.4,0.4,0.5,0.8,0.5
					c23.6,0,47.3,0,70.9,0c0.3,0,0.9-0.3,0.9-0.7c0-5.7,0-11.4,0-17.1c0-0.9-1.7-0.6-1.7,0.1c0,2.9,0,5.7,0,8.6c0,1.9,0,3.7,0,5.6
					c0,0.6-0.2,1.4,0,2c0.5,1.4-0.9,0.7,0.9,0.4c-3.4,0.5-7.3,0-10.7,0c-15.7,0-31.4,0-47.1,0c-4,0-8.9,0.8-12.8,0
					c0.4,0.1,0.2,0.8,0.6-0.3c0.4-1.2,0-3.5,0-4.8c0-2.1,0-4.2,0-6.3c0-1,0.5-3.8,0-4.6s0.4-0.2-0.9,0c0.1,0,0.2,0,0.3,0
					c0.5,0.1,1.2,0,1.7,0c2.2,0,4.4,0,6.6,0c7.5,0,15,0,22.5,0c13.2,0,26.5,0,39.7,0C-696.4-23.9-696-25.2-697.2-25.2z"/>
			</g>
		</g>
	</g>
	<g>
		<g>
			<rect x="-869.6" y="-24.6" class="st2" width="52.3" height="17.1"/>
		</g>
		<g>
			<g>
				<path class="st2" d="M-817-24.9c-17.4,0-34.9,0-52.3,0c-0.3,0-1.2,0.2-1.2,0.6c0,5.7,0,11.4,0,17.1c0,0.2,0.4,0.1,0.5,0.1
					c17.4,0,34.9,0,52.3,0c0.3,0,1.2-0.2,1.2-0.6c0-5.7,0-11.4,0-17.1c0-0.3-1.7-0.1-1.7,0.4c0,5.7,0,11.4,0,17.1
					c0.4-0.2,0.8-0.4,1.2-0.6c-12.7,0-25.4,0-38.1,0c-3.3,0-6.5,0-9.8,0c-0.7,0-3.8,0.5-4.4,0c0.7,0.6,0.4-1.8,0.4-2.2
					c0-1.9,0-3.9,0-5.8c0-3,0-6,0-9c-0.4,0.2-0.8,0.4-1.2,0.6c17.4,0,34.9,0,52.3,0C-817.2-24.2-815.8-24.9-817-24.9z"/>
			</g>
		</g>
	</g>
	<g>
		<g>
			<rect x="-1227.2" y="-105.5" class="st2" width="215.7" height="236.3"/>
		</g>
		<g>
			<g>
				<path class="st2" d="M-1227.5-105c26.3,0,52.6,0,78.9,0c39.3,0,78.6,0,117.9,0c5,0,10,0,15,0c1,0,2.4-0.3,3.4,0s-0.1-0.6,0,0.1
					c0.5,2.5,0,5.8,0,8.4c0,6,0,11.9,0,17.9c0,40,0,80.1,0,120.1c0,19,0,38,0,57.1c0,6.7,0,13.5,0,20.2c0,3.4-0.6,7.5,0,10.9
					c0.1,0.5,0,1,0,1.5c0.4-0.2,0.8-0.4,1.2-0.7c-26.3,0-52.6,0-78.9,0c-39.3,0-78.6,0-117.9,0c-5,0-10,0-15,0c-1,0-2.4,0.3-3.4,0
					s0.1,0.6,0-0.1c-0.5-2.5,0-5.8,0-8.4c0-6,0-11.9,0-17.9c0-40,0-80.1,0-120.1c0-19,0-38,0-57.1c0-6.7,0-13.5,0-20.2
					c0-3.6,0.3-7.3,0-10.9c0-0.5,0-1,0-1.5s-1.7-0.2-1.7,0.4c0,26.7,0,53.4,0,80.1c0,42.4,0,84.7,0,127.1c0,9.7,0,19.5,0,29.2
					c0,0.2,0.4,0.2,0.5,0.2c24.4,0,48.7,0,73.1,0c38.7,0,77.3,0,116,0c8.9,0,17.7,0,26.6,0c0.4,0,1.2-0.2,1.2-0.7
					c0-26.7,0-53.4,0-80.1c0-42.4,0-84.7,0-127.1c0-9.7,0-19.5,0-29.2c0-0.2-0.4-0.2-0.5-0.2c-24.4,0-48.7,0-73.1,0
					c-38.7,0-77.3,0-116,0c-8.9,0-17.7,0-26.6,0C-1227.4-105.9-1228.6-105-1227.5-105z"/>
			</g>
		</g>
	</g>
	<g>
		<g>
			<rect x="-1174.8" y="-84.6" class="st2" width="15" height="41.9"/>
			<rect x="-1142.1" y="-84.6" class="st2" width="15" height="41.9"/>
			<rect x="-1109.3" y="-84.6" class="st2" width="15" height="41.9"/>
			<rect x="-1076.6" y="-84.6" class="st2" width="15" height="41.9"/>
			<rect x="-1043.8" y="-84.6" class="st2" width="15" height="41.9"/>
		</g>
		<g>
			<rect x="-1174.8" y="-26.8" class="st2" width="15" height="41.9"/>
			<rect x="-1142.1" y="-26.8" class="st2" width="15" height="41.9"/>
			<rect x="-1109.3" y="-26.8" class="st2" width="15" height="41.9"/>
			<rect x="-1076.6" y="-26.8" class="st2" width="15" height="41.9"/>
			<rect x="-1043.8" y="-26.8" class="st2" width="15" height="41.9"/>
		</g>
		<g>
			<rect x="-1174.8" y="31" class="st2" width="15" height="41.9"/>
			<rect x="-1142.1" y="31" class="st2" width="15" height="41.9"/>
			<rect x="-1109.3" y="31" class="st2" width="15" height="41.9"/>
			<rect x="-1076.6" y="31" class="st2" width="15" height="41.9"/>
			<rect x="-1043.8" y="31" class="st2" width="15" height="41.9"/>
		</g>
		<g>
			<rect x="-1174.8" y="88.9" class="st2" width="15" height="41.9"/>
			<rect x="-1142.1" y="88.9" class="st2" width="15" height="41.9"/>
			<rect x="-1109.3" y="88.9" class="st2" width="15" height="41.9"/>
			<rect x="-1076.6" y="88.9" class="st2" width="15" height="41.9"/>
			<rect x="-1043.8" y="88.9" class="st2" width="15" height="41.9"/>
		</g>
	</g>
	<g>
		<rect x="-984.6" y="-23.3" class="st2" width="24.7" height="3.3"/>
	</g>
	<g>
		<rect x="-984.6" y="-31.3" class="st2" width="24.7" height="3.3"/>
	</g>
	<g>
		<rect x="-984.6" y="-15.3" class="st2" width="24.7" height="3.3"/>
	</g>
	<g>
		<rect x="-984.6" y="-7.3" class="st2" width="24.7" height="3.3"/>
	</g>
	<g>
		<rect x="-984.6" y="0.7" class="st2" width="24.7" height="3.3"/>
	</g>
	<g>
		<rect x="-984.6" y="8.7" class="st2" width="24.7" height="3.3"/>
	</g>
	<g>
		<rect x="-984.6" y="16.7" class="st2" width="24.7" height="3.3"/>
	</g>
	<g>
		<rect x="-984.6" y="24.7" class="st2" width="24.7" height="3.3"/>
	</g>
	<g>
		<rect x="-984.6" y="32.7" class="st2" width="24.7" height="3.3"/>
	</g>
	<g>
		<rect x="-984.6" y="40.7" class="st2" width="24.7" height="3.3"/>
	</g>
	<g>
		<rect x="-984.6" y="48.6" class="st2" width="24.7" height="3.3"/>
	</g>
	<g>
		<rect x="-984.6" y="56.6" class="st2" width="24.7" height="3.3"/>
	</g>
	<g>
		<rect x="-984.6" y="64.6" class="st2" width="24.7" height="3.3"/>
	</g>
	<g>
		<rect x="-984.6" y="72.6" class="st2" width="24.7" height="3.3"/>
	</g>
	<g>
		<rect x="-984.6" y="80.6" class="st2" width="24.7" height="3.3"/>
	</g>
	<g>
		<rect x="-984.6" y="88.6" class="st2" width="24.7" height="3.3"/>
	</g>
	<g>
		<rect x="-984.6" y="96.6" class="st2" width="24.7" height="3.3"/>
	</g>
	<g>
		<rect x="-984.6" y="104.6" class="st2" width="24.7" height="3.3"/>
	</g>
	<g>
		<rect x="-984.6" y="112.6" class="st3" width="24.7" height="3.3"/>
	</g>
	<g>
		<rect x="-984.6" y="120.6" class="st3" width="24.7" height="3.3"/>
	</g>
	<g>
		<g>
			<path class="st2" d="M-1221.3-441.9l-53.5-45.2v605.9c1.5,6.9,7.6,12,14.9,12h38.6V-441.9L-1221.3-441.9z"/>
		</g>
		<g>
			<g>
				<path class="st2" d="M-1220.7-442.4c-17.8-15.1-35.7-30.1-53.5-45.2c-0.4-0.3-1.5-0.1-1.5,0.6c0,6.3,0,12.7,0,19
					c0,17.1,0,34.1,0,51.2c0,24.9,0,49.8,0,74.8c0,29.9,0,59.8,0,89.6c0,32.1,0,64.2,0,96.3c0,31.1,0,62.2,0,93.3
					c0,27.4,0,54.8,0,82.1c0,20.8,0,41.5,0,62.3c0,11.2,0,22.5,0,33.7c0,4.1,0.4,6.9,3.3,10.5c4.1,4.9,9.8,5.7,15.8,5.7
					c7.1,0,14.2,0,21.3,0c4.6,0,9.2,0,13.8,0c0.3,0,0.9-0.3,0.9-0.7c0-19,0-38,0-56.9c0-45.6,0-91.2,0-136.8c0-55.2,0-110.3,0-165.5
					c0-47.7,0-95.4,0-143.1c0-15.8,0-31.6,0-47.3c0-4.8,0-9.6,0-14.4c0-2.5,0.4-5.3,0-7.8c0-0.3,0-0.7,0-1c0-0.9-1.7-0.7-1.7,0.1
					c0,5.8,0,11.6,0,17.3c0,15.7,0,31.4,0,47.1c0,22.9,0,45.8,0,68.6c0,27.5,0,55.1,0,82.6c0,29.7,0,59.5,0,89.2
					c0,29.1,0,58.1,0,87.2c0,25.9,0,51.9,0,77.8c0,20.3,0,40.6,0,60.9c0,11.9,0,23.8,0,35.7c0,1.7-0.6,4.5,0,6.1
					c0.1,0.2,1.2-0.2,0.4-0.5c-1.4-0.6-4.4,0-5.9,0c-7.1,0-14.1,0-21.2,0c-9.4,0-23.7,1-25.1-11.8c-0.2-2.2,0-4.6,0-6.8
					c0-11.9,0-23.8,0-35.8c0-20,0-39.9,0-59.9c0-25.5,0-51,0-76.4c0-28.8,0-57.5,0-86.3c0-29.9,0-59.7,0-89.6c0-28.4,0-56.7,0-85.1
					c0-24.7,0-49.4,0-74.1c0-18.8,0-37.6,0-56.4c0-10.4,0-20.7,0-31.1c0-1.3,0-2.7,0-4c-0.5,0.2-1,0.4-1.5,0.6
					c17.8,15.1,35.6,30.1,53.5,45.2C-1221.4-440.9-1220-441.8-1220.7-442.4z"/>
			</g>
		</g>
	</g>
	<g>
		<rect x="-499.4" y="-450.2" class="st2" width="4.2" height="344.8"/>
	</g>
	<g>
		<rect x="-507.6" y="-450.2" class="st2" width="4.2" height="344.8"/>
	</g>
	<g>
		<rect x="-491.5" y="-450.2" class="st2" width="4.4" height="344.8"/>
	</g>
	<g>
		<g>
			<polygon class="st2" points="-458.6,-170.9 -414.8,-183 -414.8,130.7 -458.6,130.7 			"/>
		</g>
		<g>
			<g>
				<path class="st2" d="M-458.4-170.4c14.6-4,29.1-8.1,43.7-12.1c-0.3-0.1-0.6-0.2-1-0.4c0,10.4,0,20.9,0,31.3
					c0,24.9,0,49.8,0,74.7c0,30.1,0,60.3,0,90.4c0,26.2,0,52.4,0,78.6c0,8.6,0,17.3,0,25.9c0,2.7,0,5.3,0,8c0,0.9-0.5,3.4,0,4.2
					c0.1,0.1,0,0.4,0,0.6c0.4-0.2,0.8-0.4,1.1-0.6c-12.6,0-25.1,0-37.7,0c-1.7,0-4.2,0.5-5.8,0c-0.3-0.1,0.4,0.8,0.3,0
					c-0.2-1.6,0-3.3,0-4.9c0-20.2,0-40.4,0-60.7c0-32.1,0-64.2,0-96.4c0-30.6,0-61.2,0-91.7c0-10.5,0-20.9,0-31.4c0-3.3,0-6.7,0-10
					c0-1.5,0.4-3.8,0-5.3c-0.1-0.2,0-0.5,0-0.7c0-0.7-1.7-0.4-1.7,0.2c0,10,0,19.9,0,29.9c0,24.1,0,48.2,0,72.2c0,29,0,58,0,87
					c0,25.1,0,50.1,0,75.2c0,8.3,0,16.6,0,24.9c0,2.6,0,5.1,0,7.7c0,1.1-0.4,3,0,4.1c0.1,0.1,0,0.4,0,0.5c0,0.3,0.3,0.4,0.5,0.4
					c14.6,0,29.1,0,43.7,0c0.3,0,1.1-0.2,1.1-0.6c0-10.4,0-20.9,0-31.3c0-24.9,0-49.8,0-74.7c0-30.1,0-60.3,0-90.4
					c0-26.2,0-52.4,0-78.6c0-8.6,0-17.3,0-25.9c0-2.7,0-5.3,0-8c0-1.2,0.4-3.1,0-4.2c-0.1-0.1,0-0.4,0-0.6c0-0.5-0.6-0.5-1-0.4
					c-14.6,4-29.1,8.1-43.7,12.1C-459.7-171.1-459.5-170.2-458.4-170.4z"/>
			</g>
		</g>
	</g>
	<g>
		<rect x="-483.1" y="-450.2" class="st2" width="4.3" height="344.8"/>
	</g>
	<g>
		<rect x="-475.7" y="-450.2" class="st2" width="4.3" height="344.8"/>
	</g>
	<g>
		<polygon class="st2" points="-519.3,-39.7 -515.1,-353.1 -510.8,-39.7 		"/>
	</g>
	<g>
		<polygon class="st2" points="-468.5,-39.7 -464.2,-353.1 -460,-39.7 		"/>
	</g>
	<g>
		<g>
			<polygon class="st2" points="-519.5,-107.8 -475.8,-111.8 -475.8,130.7 -519.5,130.7 			"/>
		</g>
		<g>
			<g>
				<path class="st2" d="M-519.6-107.2c10.2-1,20.4-1.9,30.6-2.9c4.2-0.4,8.6-1.3,12.8-1.2c0.7,0-0.4-0.9-0.4-0.1c0,0.5,0,1,0,1.6
					c0,15,0,29.9,0,44.9c0,51.9,0,103.8,0,155.7c0,13.3,0,26.7,0,40c0.4-0.2,0.8-0.4,1.1-0.6c-9.9,0-19.9,0-29.8,0
					c-4.4,0-9,0.4-13.4,0c-1-0.1,0.2,0.8,0,0.2c-0.1-0.4,0-1,0-1.3c0.6-5,0-10.4,0-15.4c0-9.4,0-18.8,0-28.2c0-51.1,0-102.2,0-153.3
					c0-13.3,0-26.6,0-39.9c0-0.8-1.7-0.5-1.7,0.2c0,26.9,0,53.8,0,80.7c0,42.8,0,85.6,0,128.5c0,9.7,0,19.5,0,29.2
					c0,0.3,0.3,0.4,0.5,0.4c14.6,0,29.1,0,43.7,0c0.3,0,1.1-0.2,1.1-0.6c0-27.3,0-54.6,0-81.9c0-43.5,0-87.1,0-130.6c0-10,0-20,0-30
					c0-0.4-0.4-0.5-0.7-0.4c-14.6,1.4-29.1,2.7-43.7,4.1C-520.3-108.2-520.7-107.1-519.6-107.2z"/>
			</g>
		</g>
	</g>
	<g>
		<g>
			<path class="st2" d="M-252.7-183.6h-162.2v71.8h-63v242.5h63h0.6h148.4c7.4-1.1,13.1-7.5,13.1-15.3L-252.7-183.6z"/>
		</g>
		<g>
			<g>
				<path class="st2" d="M-252.3-184c-18.3,0-36.6,0-54.9,0c-29,0-58,0-87.1,0c-6.7,0-13.5,0-20.2,0c-0.3,0-1.2,0.2-1.2,0.6
					c0,23.9,0,47.9,0,71.8c0.4-0.2,0.8-0.4,1.2-0.6c-21,0-42,0-63,0c-0.3,0-1.2,0.2-1.2,0.6c0,27.3,0,54.6,0,81.9
					c0,43.5,0,87.1,0,130.6c0,10,0,20,0,30c0,0.2,0.4,0.2,0.5,0.2c29.6,0,59.3,0,88.9,0c24.3,0,48.7,0,73,0c16.3,0,32.9,0.7,49.2,0
					c8.6-0.4,15-7.6,15.2-16.1c0.1-2.6,0-5.3,0-7.9c0-15.2,0-30.4,0-45.7c0-48.5,0-97.1,0-145.6c0-21.4,0-42.9,0-64.3
					c0-11.2,0.5-22.6,0-33.8c0-0.5,0-1,0-1.5c0-0.4-1.7-0.1-1.7,0.4c0,15.4,0,30.7,0,46.1c0,33.9,0,67.8,0,101.7
					c0,34.2,0,68.4,0,102.5c0,16.2,0.5,32.4,0,48.6c-0.3,7.6-5.8,14.8-13.8,14.8c-4.1,0-8.2,0-12.4,0c-15.6,0-31.2,0-46.8,0
					c-28.7,0-57.4,0-86.1,0c-9,0-18.1,0-27.1,0c-8.8,0-17.6,0-26.4,0c-2.9,0-5.8,0-8.7,0c-0.6,0-1.7,0.2-2.3,0
					c-0.9-0.3,0,0.2-0.1,0.1c-0.5-1,0-3.7,0-4.8c0-4,0-8,0-11.9c0-13.2,0-26.5,0-39.7c0-35.8,0-71.6,0-107.4c0-24.9,0-49.9,0-74.8
					c0-1.3,0-2.6,0-3.8c-0.4,0.2-0.8,0.4-1.2,0.6c21,0,42,0,63,0c0.3,0,1.2-0.2,1.2-0.6c0-23.9,0-47.9,0-71.8
					c-0.4,0.2-0.8,0.4-1.2,0.6c18.3,0,36.6,0,54.9,0c29,0,58,0,87.1,0c6.7,0,13.5,0,20.2,0C-252.5-183.2-251.2-184-252.3-184z"/>
			</g>
		</g>
	</g>
	<g>
		<g>
			<polygon class="st2" points="-1185.2,-375.4 -1212.4,-396.1 -1212.4,51.2 -1185.2,51.2 			"/>
		</g>
		<g>
			<g>
				<path class="st2" d="M-1184.4-375.7c-9.1-6.9-18.2-13.8-27.2-20.7c-0.3-0.3-1.6,0-1.6,0.5c0,14.9,0,29.7,0,44.6
					c0,35.7,0,71.4,0,107.1c0,43,0,86,0,129c0,37.2,0,74.3,0,111.5c0,12.3,0,24.5,0,36.8c0,3.8,0,7.6,0,11.5c0,1.6-0.6,4.5,0,6
					c0.1,0.2,0,0.6,0,0.8c0,0.2,0.4,0.2,0.5,0.2c9.1,0,18.2,0,27.2,0c0.3,0,1.2-0.2,1.2-0.6c0-14.2,0-28.4,0-42.6
					c0-33.9,0-67.8,0-101.8c0-41.2,0-82.3,0-123.5c0-35.4,0-70.9,0-106.3c0-11.7,0-23.4,0-35.1c0-3.7,0-7.3,0-11
					c0-1.5,0.5-4.3,0-5.7C-1184.4-375.1-1184.4-375.4-1184.4-375.7c0.1-0.3-1.6,0-1.6,0.5c0,14.2,0,28.4,0,42.6
					c0,33.9,0,67.8,0,101.8c0,41.2,0,82.3,0,123.5c0,35.4,0,70.9,0,106.3c0,11.7,0,23.4,0,35.1c0,3.7,0,7.3,0,11
					c0,1.4-0.6,4.4,0,5.7c0.1,0.2,0,0.5,0,0.7c0.4-0.2,0.8-0.4,1.2-0.6c-8.5,0-17.2-0.4-25.7,0c-1.2,0.1-1.3-0.3-1.1,0.2
					c-0.1-0.1,0-0.3,0-0.4c-0.2-0.6,0-1.4,0-2c0-7.9,0-15.9,0-23.8c0-34,0-68,0-102.1c0-45.3,0-90.6,0-135.9c0-40.6,0-81.3,0-121.9
					c0-13.6,0-27.1,0-40.7c0-4.3,0-8.6,0-12.8c0-1.8,0.6-4.9,0-6.7c-0.1-0.2,0-0.6,0-0.9c-0.5,0.2-1.1,0.4-1.6,0.5
					c9.1,6.9,18.2,13.8,27.2,20.7C-1185.6-374.8-1184.1-375.5-1184.4-375.7z"/>
			</g>
		</g>
	</g>
	<g>
		<g>
			<rect x="-1257.5" y="-396.1" class="st2" width="45.1" height="447.3"/>
		</g>
		<g>
			<g>
				<path class="st2" d="M-1211.8-396.4c-15,0-30.1,0-45.1,0c-0.3,0-1.4,0.1-1.4,0.5c0,14.9,0,29.7,0,44.6c0,35.7,0,71.4,0,107.1
					c0,43,0,86,0,129c0,37.2,0,74.3,0,111.5c0,12.3,0,24.5,0,36.8c0,3.8,0,7.6,0,11.5c0,1.6-0.6,4.5,0,6c0.1,0.2,0,0.6,0,0.8
					c0,0.1,0.3,0.1,0.3,0.1c15,0,30.1,0,45.1,0c0.3,0,1.4-0.1,1.4-0.5c0-14.9,0-29.7,0-44.6c0-35.7,0-71.4,0-107.1c0-43,0-86,0-129
					c0-37.2,0-74.3,0-111.5c0-12.3,0-24.5,0-36.8c0-3.8,0-7.6,0-11.5c0-1.6,0.6-4.5,0-6c-0.1-0.2,0-0.6,0-0.8c0-0.2-1.7,0-1.7,0.4
					c0,14.9,0,29.7,0,44.6c0,35.7,0,71.4,0,107.1c0,43,0,86,0,129c0,37.2,0,74.3,0,111.5c0,12.3,0,24.5,0,36.8c0,3.8,0,7.6,0,11.5
					c0,1.5-0.6,4.6,0,6c0.1,0.2,0,0.6,0,0.8c0.5-0.2,0.9-0.4,1.4-0.5c-8.2,0-16.5,0-24.7,0c-5.2,0-10.4,0-15.6,0
					c-1.1,0-3.1,0.4-4.1,0c-0.8-0.3-0.4,0.1-0.5,0c-0.5-0.9,0-3.8,0-4.8c0-3.9,0-7.7,0-11.6c0-32.4,0-64.8,0-97.2
					c0-46.5,0-93,0-139.6c0-42.9,0-85.7,0-128.6c0-14.6,0-29.1,0-43.7c0-4.5,0-9.1,0-13.6c0-2,0.6-5.3,0-7.2c-0.1-0.3,0-0.7,0-1
					c-0.5,0.2-0.9,0.4-1.4,0.5c15,0,30.1,0,45.1,0C-1212.6-395.8-1211.1-396.4-1211.8-396.4z"/>
			</g>
		</g>
	</g>
	<g>
		<g>
			<polygon class="st2" points="-1011.5,-105.5 -984.1,-102.6 -984.1,130.8 -1011.5,130.8 			"/>
		</g>
		<g>
			<g>
				<path class="st2" d="M-1011.8-104.9c4.2,0.4,8.3,0.9,12.5,1.3c4.7,0.5,9.9,0.4,14.5,1.5c1,0.2-0.2-0.7,0-0.2c0.1,0.3,0,1,0,1.3
					c-0.2,1.7,0,3.5,0,5.2c0,16.5,0,33.1,0,49.6c0,47.3,0,94.6,0,141.8c0,11.8,0,23.6,0,35.4c0.4-0.2,0.8-0.4,1.1-0.6
					c-4.3,0-8.6,0-12.9,0c-2.9,0-5.7,0-8.6,0c-1.8,0-4,0.4-5.7,0c-0.6-0.1,0.4,0.9,0.2,0.1c-0.1-0.4,0-1,0-1.4c0.2-1.8,0-3.7,0-5.5
					c0-16.7,0-33.4,0-50c0-47.8,0-95.6,0-143.4c0-11.9,0-23.8,0-35.6c0-0.8-1.7-0.5-1.7,0.2c0,26.7,0,53.4,0,80c0,42.3,0,84.7,0,127
					c0,9.7,0,19.5,0,29.2c0,0.3,0.3,0.5,0.5,0.5c9.1,0,18.3,0,27.4,0c0.3,0,1.1-0.2,1.1-0.6c0-26.3,0-52.7,0-79
					c0-41.9,0-83.9,0-125.8c0-9.5,0-19.1,0-28.6c0-0.3-0.3-0.4-0.5-0.5c-9.1-0.9-18.3-1.9-27.4-2.8
					C-1012-106.1-1013-105-1011.8-104.9z"/>
			</g>
		</g>
	</g>
	<g>
		<g>
			<polygon class="st2" points="-817.3,-27.9 -865.6,-27.9 -869.6,-24.6 -817.3,-24.6 			"/>
		</g>
		<g>
			<g>
				<path class="st2" d="M-817.2-28.5c-9.9,0-19.8,0-29.6,0c-5.3,0-10.7,0-16,0c-3.5,0-4.4,1.2-7.3,3.6c-0.6,0.5-0.2,1,0.5,1
					c17.4,0,34.9,0,52.3,0c0.3,0,0.9-0.3,0.9-0.7c0-1.1,0-2.2,0-3.4c0-0.9-1.7-0.6-1.7,0.1c0,1.2-0.7,3.5,0.9,2.7
					c-0.2,0.1-0.7,0-0.8,0c-1.5-0.3-3.4,0-4.9,0c-6.1,0-12.2,0-18.3,0c-9.4,0-18.9,0-28.3,0c0.2,0.3,0.3,0.6,0.5,1
					c0.9-0.7,1.8-1.4,2.6-2.2c0.7-0.6,1.5-1.1,1-1c1-0.3,2.5,0,3.6,0c5.5,0,11.1,0,16.6,0c9.3,0,18.6,0,28,0
					C-816.4-27.3-816.1-28.5-817.2-28.5z"/>
			</g>
		</g>
	</g>
	<g>
		<g>
			<polygon class="st2" points="-703.3,-27.9 -768.1,-27.9 -768.1,-24.6 -697.2,-24.6 			"/>
		</g>
		<g>
			<g>
				<path class="st2" d="M-702.9-28.3c-21.6,0-43.2,0-64.9,0c-0.4,0-1.2,0.2-1.2,0.6c0,1.1,0,2.2,0,3.4c0,0.2,0.4,0.2,0.5,0.2
					c23.6,0,47.3,0,70.9,0c0.2,0,1.7-0.4,1-0.8c-2-1.1-4-2.2-6-3.4c-0.4-0.2-2,0.4-1.3,0.7c2,1.1,4,2.2,6,3.4c0.3-0.3,0.7-0.5,1-0.8
					c-21.4,0-42.8,0-64.2,0c-1.8,0-3.7,0.2-5.5,0c-0.2,0-0.9,0.1-1.1,0c0.5,0.4,0.4-2.6,0.4-3.2c-0.4,0.2-0.8,0.4-1.2,0.6
					c21.6,0,43.2,0,64.9,0C-703-27.5-701.8-28.3-702.9-28.3z"/>
			</g>
		</g>
	</g>
	<g>
		<rect x="-1257.5" y="-333" class="st2" width="45.1" height="3.7"/>
	</g>
	<g>
		<rect x="-1257.5" y="-365.1" class="st2" width="45.1" height="3.7"/>
	</g>
	<g>
		<rect x="-1257.5" y="-300.9" class="st2" width="45.1" height="3.7"/>
	</g>
	<g>
		<rect x="-1257.5" y="-268.8" class="st2" width="45.1" height="3.7"/>
	</g>
	<g>
		<rect x="-1257.5" y="-236.8" class="st2" width="45.1" height="3.7"/>
	</g>
	<g>
		<rect x="-1257.5" y="-204.7" class="st2" width="45.1" height="3.7"/>
	</g>
	<g>
		<rect x="-1257.5" y="-172.6" class="st2" width="45.1" height="3.7"/>
	</g>
	<g>
		<rect x="-1257.5" y="-140.5" class="st2" width="45.1" height="3.7"/>
	</g>
	<g>
		<rect x="-1257.5" y="-108.4" class="st2" width="45.1" height="3.7"/>
	</g>
	<g>
		<rect x="-1257.5" y="-76.3" class="st2" width="45.1" height="3.7"/>
	</g>
	<g>
		<rect x="-1257.5" y="-44.3" class="st2" width="45.1" height="3.7"/>
	</g>
	<g>
		<g>
			<g>
				<rect x="-383.7" y="-77.6" class="st2" width="12.8" height="19.5"/>
			</g>
			<g>
				<rect x="-342.2" y="-77.6" class="st2" width="12.8" height="19.5"/>
			</g>
			<g>
				<rect x="-363" y="-77.6" class="st2" width="12.8" height="19.5"/>
			</g>
			<g>
				<rect x="-404.4" y="-5.1" class="st2" width="12.8" height="19.5"/>
			</g>
			<g>
				<rect x="-445.9" y="-5.1" class="st2" width="12.8" height="19.5"/>
			</g>
			<g>
				<rect x="-425.2" y="-5.1" class="st2" width="12.8" height="19.5"/>
			</g>
			<g>
				<rect x="-445.9" y="-29.3" class="st2" width="12.8" height="19.5"/>
			</g>
			<g>
				<rect x="-404.4" y="-77.6" class="st2" width="12.8" height="19.5"/>
			</g>
			<g>
				<rect x="-445.9" y="-53.4" class="st2" width="12.8" height="19.5"/>
			</g>
			<g>
				<rect x="-425.2" y="-77.6" class="st2" width="12.8" height="19.5"/>
			</g>
			<g>
				<rect x="-445.9" y="-77.6" class="st2" width="12.8" height="19.5"/>
			</g>
			<g>
				<rect x="-363" y="-53.4" class="st2" width="12.8" height="19.5"/>
			</g>
			<g>
				<rect x="-342.2" y="-53.4" class="st2" width="12.8" height="19.5"/>
			</g>
			<g>
				<rect x="-425.2" y="-53.4" class="st2" width="12.8" height="19.5"/>
			</g>
			<g>
				<rect x="-404.4" y="-53.4" class="st2" width="12.8" height="19.5"/>
			</g>
			<g>
				<rect x="-383.7" y="-53.4" class="st2" width="12.8" height="19.5"/>
			</g>
			<g>
				<rect x="-342.2" y="-29.3" class="st2" width="12.8" height="19.5"/>
			</g>
			<g>
				<rect x="-425.2" y="-29.3" class="st2" width="12.8" height="19.5"/>
			</g>
			<g>
				<rect x="-404.4" y="-29.3" class="st2" width="12.8" height="19.5"/>
			</g>
			<g>
				<rect x="-383.7" y="-29.3" class="st2" width="12.8" height="19.5"/>
			</g>
			<g>
				<rect x="-363" y="-29.3" class="st2" width="12.8" height="19.5"/>
			</g>
			<g>
				<rect x="-466.6" y="-5.1" class="st2" width="12.8" height="19.5"/>
			</g>
			<g>
				<rect x="-466.6" y="-53.4" class="st2" width="12.8" height="19.5"/>
			</g>
			<g>
				<rect x="-466.6" y="-29.3" class="st2" width="12.8" height="19.5"/>
			</g>
			<g>
				<rect x="-466.6" y="-77.6" class="st2" width="12.8" height="19.5"/>
			</g>
			<g>
				<rect x="-383.7" y="-5.1" class="st2" width="12.8" height="19.5"/>
			</g>
			<g>
				<rect x="-466.6" y="-101.7" class="st2" width="12.8" height="19.5"/>
			</g>
			<g>
				<rect x="-363" y="-5.1" class="st2" width="12.8" height="19.5"/>
			</g>
			<g>
				<rect x="-342.2" y="-5.1" class="st2" width="12.8" height="19.5"/>
			</g>
			<g>
				<rect x="-404.4" y="-101.7" class="st2" width="12.8" height="19.5"/>
			</g>
			<g>
				<rect x="-425.2" y="-101.7" class="st2" width="12.8" height="19.5"/>
			</g>
			<g>
				<rect x="-342.2" y="-101.7" class="st2" width="12.8" height="19.5"/>
			</g>
			<g>
				<rect x="-363" y="-101.7" class="st2" width="12.8" height="19.5"/>
			</g>
			<g>
				<rect x="-445.9" y="-101.7" class="st2" width="12.8" height="19.5"/>
			</g>
		</g>
		<g>
			<rect x="-383.7" y="-125.7" class="st2" width="12.8" height="19.5"/>
		</g>
		<g>
			<rect x="-363" y="-125.7" class="st2" width="12.8" height="19.5"/>
		</g>
		<g>
			<rect x="-383.7" y="-149.9" class="st2" width="12.8" height="19.5"/>
		</g>
		<g>
			<rect x="-383.7" y="-174.1" class="st2" width="12.8" height="19.5"/>
		</g>
		<g>
			<rect x="-363" y="-174.1" class="st2" width="12.8" height="19.5"/>
		</g>
		<g>
			<rect x="-363" y="-149.9" class="st2" width="12.8" height="19.5"/>
		</g>
		<g>
			<rect x="-404.4" y="-125.7" class="st2" width="12.8" height="19.5"/>
		</g>
		<g>
			<rect x="-404.4" y="-174.1" class="st2" width="12.8" height="19.5"/>
		</g>
		<g>
			<rect x="-404.4" y="-149.9" class="st2" width="12.8" height="19.5"/>
		</g>
	</g>
	<g>
		<polygon class="st2" points="-1185.2,-313.3 -1212.1,-329.3 -1212.1,-333 -1185.2,-317 		"/>
	</g>
	<g>
		<polygon class="st2" points="-1185.2,-343.4 -1212.1,-361.4 -1212.1,-365.1 -1185.2,-347.1 		"/>
	</g>
	<g>
		<g>
			<polygon class="st2" points="-286.9,-218.1 -324.2,-208.4 -363.3,-157.5 -363.3,102.1 -288.6,102.1 			"/>
		</g>
		<g>
			<g>
				<path class="st2" d="M-287-218.5c-5.4,1.4-10.8,2.8-16.2,4.2c-6.7,1.7-14,2.9-20.5,5.3c-2.4,0.9-3.6,3.5-5.1,5.5
					c-4.7,6.2-9.5,12.3-14.2,18.5c-5,6.5-10,13-15,19.5c-1.7,2.3-5.3,5.4-6.2,8.2c-0.3,1.1,0,2.7,0,3.8c0,3.4,0,6.7,0,10.1
					c0,27.7,0,55.4,0,83.2c0,34.5,0,69,0,103.5c0,12.9,0,25.7,0,38.6c0,4.3,0,8.5,0,12.8c0,2-0.5,4.8,0,6.8c0.1,0.3,0,0.6,0,0.9
					c0,0.2,0.4,0.2,0.5,0.2c21.8,0,43.6,0,65.3,0c3.1,0,6.2,0,9.4,0c0.4,0,1.2-0.2,1.2-0.7c0.1-10.6,0.1-21.2,0.2-31.8
					c0.1-25.4,0.3-50.9,0.4-76.3c0.2-30.8,0.3-61.6,0.5-92.4c0.1-26.8,0.3-53.5,0.4-80.3c0-8.8,0.1-17.6,0.1-26.3c0-2.7,0-5.4,0-8.1
					c0-1.1,0.5-3.4,0-4.4c-0.1-0.1,0-0.4,0-0.6c0-0.5-1.7-0.2-1.7,0.4c-0.1,10.6-0.1,21.2-0.2,31.8c-0.1,25.4-0.3,50.9-0.4,76.3
					c-0.2,30.8-0.3,61.6-0.5,92.4c-0.1,26.8-0.3,53.5-0.4,80.3c0,8.8-0.1,17.6-0.1,26.3c0,2.7,0,5.4,0,8.1c0,0.9-0.5,3.6,0,4.4
					c0.1,0.1,0,0.4,0,0.6c0.4-0.2,0.8-0.4,1.2-0.7c-15,0-30,0-45,0c-8.4,0-16.8,0-25.2,0c-0.7,0-3.8,0.5-4.5,0
					c0.8,0.7,0.4-0.7,0.5-1.1c0.5-3,0-6.5,0-9.6c0-5.8,0-11.6,0-17.4c0-17.2,0-34.3,0-51.5c0-41,0-81.9,0-122.9
					c0-14.4,0-28.8,0-43.2c0-3.7,0-7.5,0-11.2c0-2.4-0.2-2.1,1.2-3.9c10.9-14.2,21.8-28.4,32.6-42.5c1.6-2,3.2-4.1,4.7-6.1
					c0.7-0.9-0.1-0.2,0-0.2c0.9-0.4,2.1-0.6,3.1-0.8c9.2-2.4,18.4-4.8,27.6-7.2c2.2-0.6,4.3-1.1,6.5-1.7
					C-285.8-217.9-286-218.7-287-218.5z"/>
			</g>
		</g>
	</g>
	<g>
		<polygon class="st2" points="-1185.2,-283.2 -1212.1,-297.2 -1212.1,-300.9 -1185.2,-286.9 		"/>
	</g>
	<g>
		<polygon class="st2" points="-1185.2,-253.1 -1212.1,-265.2 -1212.1,-268.8 -1185.2,-256.7 		"/>
	</g>
	<g>
		<polygon class="st2" points="-1185.2,-223.2 -1212.1,-233.1 -1212.1,-236.8 -1185.2,-226.9 		"/>
	</g>
	<g>
		<polygon class="st2" points="-1185.2,-193.5 -1212.1,-201 -1212.1,-204.7 -1185.2,-197.2 		"/>
	</g>
	<g>
		<g>
			<polygon class="st2" points="-252.7,-218.1 -286.9,-218.1 -326.4,-164.1 -326.4,102.1 -252.7,102.1 			"/>
		</g>
		<g>
			<g>
				<path class="st2" d="M-252.6-218.6c-6.3,0-12.6,0-18.8,0c-3.9,0-7.7,0-11.6,0c-1.3,0-3.4-0.4-4.5,0.3c-0.7,0.5-1.4,1.8-1.9,2.5
					c-1.7,2.3-3.4,4.6-5.1,6.9c-5,6.8-10,13.6-14.9,20.4c-4.6,6.3-9.2,12.5-13.8,18.8c-1.2,1.7-3.6,3.9-4.1,5.9c-0.4,1.4,0,3.5,0,5
					c0,3.7,0,7.4,0,11.1c0,28.7,0,57.4,0,86.2c0,34.8,0,69.6,0,104.5c0,13,0,25.9,0,38.9c0,4.3,0,8.6,0,12.8c0,2-0.5,4.7,0,6.7
					c0.1,0.3,0,0.6,0,0.9c0,0.4,0.4,0.5,0.8,0.5c21.5,0,43,0,64.5,0c3.1,0,6.1,0,9.2,0c0.3,0,0.9-0.3,0.9-0.6c0-10.6,0-21.2,0-31.8
					c0-25.4,0-50.9,0-76.3c0-30.8,0-61.6,0-92.4c0-26.8,0-53.5,0-80.3c0-8.8,0-17.6,0-26.3c0-2.7,0-5.4,0-8.1c0-1.2,0.4-3.2,0-4.4
					c-0.1-0.1,0-0.4,0-0.6c0-0.8-1.7-0.5-1.7,0.1c0,14.5,0,29.1,0,43.6c0,33,0,66,0,98.9c0,35.5,0,71,0,106.5c0,22.1,0,44.2,0,66.3
					c0,1.3-0.4,3.4,0,4.7c0,0,1.5,0,0-0.4c-1.7-0.5-4.3,0-6.1,0c-16.6,0-33.3,0-49.9,0c-3.5,0-6.9,0-10.4,0c-1.7,0-4-0.4-5.7,0
					c-1.1,0.3,0,0.7,0,0.1c0-0.7,0-1.4,0-2c0-8.1,0-16.1,0-24.2c0-31.9,0-63.9,0-95.8c0-34.2,0-68.5,0-102.7c0-10.7,0-21.5,0-32.2
					c0-2.6,0-5.1,0-7.7c0-1.7,0.2-1.5,1.6-3.4c9.5-12.9,18.9-25.8,28.4-38.8c3-4.1,5.8-8.6,9.1-12.5c0.6-0.7-1.1,0.2-0.1,0.1
					c1-0.1,2.1,0,3.1,0c4.1,0,8.2,0,12.3,0c6.1,0,12.3,0,18.4,0C-251.8-217.5-251.5-218.6-252.6-218.6z"/>
			</g>
		</g>
	</g>
	<g>
		<polygon class="st2" points="-1185.2,-162.9 -1212.1,-168.9 -1212.1,-172.6 -1185.2,-166.6 		"/>
	</g>
	<g>
		<polygon class="st2" points="-1185.2,-133.4 -1212.1,-136.8 -1212.1,-140.5 -1185.2,-137.1 		"/>
	</g>
	<g>
		<polygon class="st2" points="-1185.2,-103 -1212.1,-104.7 -1212.1,-108.4 -1185.2,-106.7 		"/>
	</g>
	<g>
		<polygon class="st2" points="-1185.2,-73.5 -1212.1,-72.7 -1212.1,-76.3 -1185.2,-77.2 		"/>
	</g>
	<g>
		<polygon class="st2" points="-1185.2,-43.2 -1212.1,-40.6 -1212.1,-44.3 -1185.2,-46.8 		"/>
	</g>
	<g>
		<polygon class="st2" points="-1185.2,-13.1 -1212.1,-8.8 -1212.1,-12.5 -1185.2,-16.8 		"/>
	</g>
	<g>
		<g>
			<g>
				<polygon class="st2" points="-826.1,97.7 -807.6,103.8 -826.1,109.8 				"/>
			</g>
			<g>
				<rect x="-828.6" y="97.7" class="st2" width="1.3" height="33"/>
			</g>
		</g>
		<g>
			<g>
				<polygon class="st2" points="-793.5,97.7 -774.9,103.8 -793.5,109.8 				"/>
			</g>
			<g>
				<rect x="-795.9" y="97.7" class="st2" width="1.3" height="33"/>
			</g>
		</g>
		<g>
			<g>
				<polygon class="st2" points="-760.9,97.7 -742.3,103.8 -760.9,109.8 				"/>
			</g>
			<g>
				<rect x="-763.3" y="97.7" class="st2" width="1.3" height="33"/>
			</g>
		</g>
	</g>
	<g>
		<rect x="-286.7" y="-157.5" class="st2" width="33.2" height="5.4"/>
		<rect x="-286.7" y="-138.8" class="st2" width="33.2" height="5.4"/>
		<rect x="-286.7" y="-120.1" class="st2" width="33.2" height="5.4"/>
		<rect x="-286.7" y="-101.4" class="st2" width="33.2" height="5.4"/>
		<rect x="-286.7" y="-82.7" class="st2" width="33.2" height="5.4"/>
		<rect x="-286.7" y="-64" class="st2" width="33.2" height="5.4"/>
		<rect x="-286.7" y="-45.3" class="st2" width="33.2" height="5.4"/>
	</g>
	<g>
		<g>
			<path class="st2" d="M-363.1-154.2c12.3-3.1,24.5-6.2,36.8-9.3c1-0.3,0.7-1.3-0.3-1.1c-12.3,3.1-24.5,6.2-36.8,9.3
				C-364.4-155-364.1-154-363.1-154.2L-363.1-154.2z"/>
		</g>
	</g>
</g>
</svg>
