<?xml version="1.0" encoding="utf-8"?>
<!-- Generator: Adobe Illustrator 19.0.1, SVG Export Plug-In . SVG Version: 6.00 Build 0)  -->
<svg version="1.1" id="Layer_1" xmlns="http://www.w3.org/2000/svg" xmlns:xlink="http://www.w3.org/1999/xlink" x="0px" y="0px"
	 viewBox="90 -90 216 216" style="enable-background:new 90 -90 216 216;" xml:space="preserve">
<style type="text/css">
	.st0{fill:#FFFFFF;stroke:#D8D8D8;stroke-width:0.75;stroke-miterlimit:10;}
</style>
<path id="path8755" class="st0" d="M220.1-34.9c16.5,0,30.3,12.2,32.6,28.1c0.6-0.1,1.2-0.1,1.8-0.1c11.4,0,20.7,9.7,20.9,21.7
	c1.9-1.1,4.1-1.7,6.4-1.7c7.3,0,13.2,5.9,13.2,13.2c0,7.3-7.5,15.3-14.7,15.3c-61.8,0.2-102.8,0.8-164.4,0.4
	c-8.3,0-15.9-3.9-15.9-12.2s6.7-15,15-15c2.2,0,4.2,0.5,6.1,1.3c3.4-5.6,9.5-9.3,16.4-9.3c2.7,0,5.4,0.6,7.7,1.6
	c1.3-8.5,8.6-14.9,17.5-14.9c7,0,13,4,15.9,9.9c2.6-1.5,5.5-2.5,8.7-2.8c-0.1-0.9-0.1-1.7-0.1-2.6C187.2-20.1,201.9-34.9,220.1-34.9
	z"/>
</svg>
