<?xml version="1.0" encoding="utf-8"?>
<?xml-stylesheet type="text/css" href="style.css" ?>   
<!-- Generator: Adobe Illustrator 19.0.1, SVG Export Plug-In . SVG Version: 6.00 Build 0)  -->
<svg version="1.1" id="Layer_1" xmlns="http://www.w3.org/2000/svg" xmlns:xlink="http://www.w3.org/1999/xlink" x="0px" y="0px"
	 viewBox="0 0 332.3 332.3" style="enable-background:new 0 0 332.3 332.3;" xml:space="preserve">
<style type="text/css">
  #bkg:hover{fill:#F2F2F2}
	.st0{fill:#FFFFFF;}
	.st1{fill:#2CBDC1;}
	.st2{fill:#231F20;}
	.st3{font-family:'Dosis', sans-serif;}
	.st4{font-size:40.5341px;}
	.st5{fill:none;stroke:#A2A2A3;stroke-miterlimit:10;}
	.st6{fill:none;}
	.st7{font-family:'Dosis', sans-serif; font-weight:200}
	.st8{font-size:17px;}
</style>
<rect x="0" y="0" class="st0" width="332.3" height="332.3" id="bkg"/>
<g>
	<g>
		<path class="st1" d="M170.2,124.4L170.2,124.4c-0.5,0-1-0.2-1.3-0.5L138.5,93c-6.9-6.9-10.6-15-10.6-23c0-12.9,8.5-21.5,21.2-21.5
			c10.9,0,15.3,4.9,21,11.6c5.8-6.8,10.1-11.6,21-11.6c12.7,0,21.3,8.6,21.3,21.5c0,8-3.8,16.1-10.6,23l-30.3,30.8
			C171.1,124.2,170.7,124.4,170.2,124.4L170.2,124.4z M149.1,52.2"/>
	</g>
</g>
<text transform="matrix(1 0 0 1 49.0326 183.28)" class="st2 st3 st4">logo &amp; branding</text>
<line class="st5" x1="111.2" y1="207.6" x2="229.1" y2="207.6"/>
<rect x="36.7" y="229.6" class="st6" width="266.8" height="82"/>
<text transform="matrix(1 0 0 1 42.1845 242.6494)"><tspan x="0" y="0" class="st2 st7 st8">We want to make sure you love your new </tspan><tspan x="3.3" y="20.4" class="st2 st7 st8">look. We work hard to create the perfect </tspan><tspan x="-4.6" y="40.8" class="st2 st7 st8">design for your business. You’ll be proud to </tspan><tspan x="32.8" y="61.2" class="st2 st7 st8">hand out those business cards. </tspan></text>
</svg>
