<?xml version="1.0" encoding="utf-8"?>
<?xml-stylesheet type="text/css" href="http://fonts.googleapis.com/css?family=Dosis" ?>
<?xml-stylesheet type="text/css" href="style.css" ?>   
<!-- Generator: Adobe Illustrator 19.0.1, SVG Export Plug-In . SVG Version: 6.00 Build 0)  -->
<svg version="1.1" id="Layer_1" xmlns="http://www.w3.org/2000/svg" xmlns:xlink="http://www.w3.org/1999/xlink" x="0px" y="0px"
	 viewBox="0 0 332.3 332.3" style="enable-background:new 0 0 332.3 332.3;" xml:space="preserve">
<style type="text/css">

	.st0{fill:#FFFFFF;}
	.st1{fill:#231F20;}
	.st2{font-family:'Dosis', sans-serif;}
	.st3{font-size:40.5341px;}
	.st4{fill:none;stroke:#A2A2A3;stroke-miterlimit:10;}
	.st5{fill:none;}
	.st6{font-family:'Dosis', sans-serif; font-weight:200}
	.st7{font-size:17px;}
	.st8{fill:#2CBDC1;}
</style>
<rect x="0" y="0" class="st0" width="332.3" height="332.3" id="bkg"/>

<text transform="matrix(1 0 0 1 83.526 183.28)" class="st1 st2 st3">web design</text>
<line class="st4" x1="111.2" y1="207.6" x2="229.1" y2="207.6"/>
<rect x="51.7" y="229.6" class="st5" width="237" height="102.7"/>
<text transform="matrix(1 0 0 1 52.3668 242.6494)"><tspan x="0" y="0" class="st1 st6 st7">We cater our websites to who matters </tspan><tspan x="6.5" y="20.4" class="st1 st6 st7">most, your customers. Your website </tspan><tspan x="9.4" y="40.8" class="st1 st6 st7">will be geared towards creating the </tspan><tspan x="23.8" y="61.2" class="st1 st6 st7">best user-experience possible.</tspan></text>
<g>
	<path class="st8" d="M214.4,68V55.2c0-1-0.8-1.8-1.8-1.8h-84.7c-1,0-1.8,0.8-1.8,1.8V68H214.4z M153.6,60.7c1,0,1.8,0.8,1.8,1.8
		c0,1-0.8,1.8-1.8,1.8c-1,0-1.8-0.8-1.8-1.8C151.8,61.5,152.6,60.7,153.6,60.7z M146.2,60.7c1,0,1.8,0.8,1.8,1.8
		c0,1-0.8,1.8-1.8,1.8c-1,0-1.8-0.8-1.8-1.8C144.4,61.5,145.2,60.7,146.2,60.7z M138.9,60.7c1,0,1.8,0.8,1.8,1.8
		c0,1-0.8,1.8-1.8,1.8c-1,0-1.8-0.8-1.8-1.8C137,61.5,137.8,60.7,138.9,60.7z"/>
	<path class="st8" d="M126,71.7v46c0,1,0.8,1.8,1.8,1.8h84.7c1,0,1.8-0.8,1.8-1.8v-46H126z"/>
</g>
</svg>
