   <?xml version="1.0" encoding="utf-8"?>
   <?xml-stylesheet type="text/css" href="css/style.css" ?>
   <!-- Generator: Adobe Illustrator 19.0.1, SVG Export Plug-In . SVG Version: 6.00 Build 0)  -->
   <svg version="1.1" id="Layer_1" xmlns="http://www.w3.org/2000/svg" xmlns:xlink="http://www.w3.org/1999/xlink" x="0px" y="0px"
   viewBox="0 0 144 144" enable-background="new 0 0 144 144" xml:space="preserve">
   <g>
     <path id="drazic" class="blades" fill="#262626" d="M30.44,89.48l2.844,2.716l5.276,0.418l0.263,1.322l-0.986,3.036l-2.258,0.703l3.346,2.066
     l5.245-0.684l0.534,1.237l-0.333,3.172l-2.062,1.159l3.701,1.323l4.988-1.761l0.78,1.101l0.333,3.174l-1.777,1.563l3.897,0.525
     l4.513-2.761l0.991,0.914l0.986,3.035l-1.413,1.898l3.92-0.296l3.843-3.642l1.156,0.691l1.597,2.762l-0.989,2.149l3.775-1.104
     l2.998-4.356l1.277,0.428l2.138,2.373l-0.522,2.307l3.463-1.863l2.028-4.884l1.34,0.155l2.581,1.878l-0.03,2.361l2.999-2.541
     l0.967-5.2l1.343-0.129l2.916,1.299l0.462,2.322l2.406-3.111l-0.137-5.291l1.289-0.401l3.123,0.664l0.934,2.172l1.707-3.543
     l-1.234-5.145l1.176-0.66h3.191l1.367,1.929l0.932-3.82l-2.275-4.778l1.015-0.888l3.122-0.664l1.738,1.602l0.118-3.929l-3.217-4.2
     l0.803-1.08l2.916-1.297l2.035,1.205l-0.704-3.867l-4.022-3.441l0.564-1.225l2.582-1.873l2.24,0.757l-1.49-3.638l-4.648-2.53
     l0.297-1.315l2.135-2.369l2.35,0.274l-2.215-3.247l-5.072-1.507l0.015-1.346l1.596-2.764l2.356-0.22l-2.84-2.718l-5.277-0.418
     l-0.265-1.323l0.986-3.031l2.257-0.706l-3.344-2.068l-5.247,0.689l-0.532-1.239l0.335-3.174l2.061-1.154l-3.702-1.329l-4.988,1.764
     l-0.782-1.099l-0.332-3.176l1.776-1.56l-3.895-0.527l-4.515,2.763l-0.991-0.914l-0.984-3.037l1.412-1.896l-3.92,0.293l-3.839,3.64
     l-1.16-0.689l-1.598-2.763l0.991-2.151l-3.773,1.105l-3.002,4.36l-1.276-0.433l-2.135-2.37l0.52-2.313l-3.463,1.865l-2.028,4.887
     l-1.341-0.156l-2.582-1.875l0.03-2.366l-3,2.546l-0.968,5.199l-1.341,0.124l-2.916-1.299l-0.463-2.319l-2.406,3.111l0.134,5.29
     l-1.285,0.402l-3.124-0.664l-0.936-2.172l-1.706,3.543l1.232,5.145l-1.174,0.66l-3.191-0.002l-1.37-1.927l-0.931,3.821l2.274,4.778
     l-1.01,0.889l-3.122,0.661l-1.738-1.602l-0.118,3.932l3.217,4.198l-0.804,1.083l-2.916,1.294l-2.034-1.202l0.7,3.865l4.021,3.441
     l-0.562,1.226l-2.582,1.876l-2.241-0.76l1.492,3.636l4.648,2.53l-0.294,1.314l-2.139,2.373l-2.349-0.277l2.215,3.25l5.072,1.507
     L34.394,86.5l-1.596,2.762L30.44,89.48z"/>
     <g id="XMLID_35_">
       <path id="XMLID_36_" fill="#FFFFFF" d="M72,106.268c-20.472,0-37.126-16.655-37.126-37.126S51.529,32.016,72,32.016
       s37.126,16.655,37.126,37.126S92.471,106.268,72,106.268z M72,33.093c-19.877,0-36.049,16.171-36.049,36.049
       S52.123,105.191,72,105.191s36.049-16.171,36.049-36.049S91.877,33.093,72,33.093z"/>
     </g>
     <g id="XMLID_24_">
       <g id="XMLID_32_">
         <rect id="XMLID_34_" x="6.893" y="52.384" fill="#262626" width="130.213" height="33.511"/>
         <path id="XMLID_33_" fill="#FFFFFF" d="M137.646,86.435H6.354v-34.59h131.291L137.646,86.435L137.646,86.435z M7.433,85.356
         h129.135V52.923H7.433V85.356z"/>
       </g>
       <g id="XMLID_25_">
         <path id="XMLID_31_" fill="#EFEFEF" d="M11.405,81.823v-3.298h1.779V59.754h-1.779v-3.298h15.922l3.896,3.746v17.875
         l-3.896,3.746L11.405,81.823L11.405,81.823z M24.489,78.525l1.863-1.71v-15.31l-1.863-1.751h-6.436v18.771L24.489,78.525
         L24.489,78.525z"/>
         <path id="XMLID_30_" fill="#EFEFEF" d="M33.377,81.823v-3.298h1.779V59.754h-1.779v-3.298h15.922l3.896,3.746v5.863l-2.668,2.565
         l2.668,2.565v7.329h1.779v3.298h-6.648v-9.772l-1.863-1.791h-6.437v8.265h1.779v3.298L33.377,81.823L33.377,81.823z
         M46.462,67.002l1.863-1.751v-3.746l-1.863-1.751h-6.436v7.248L46.462,67.002L46.462,67.002z"/>
         <path id="XMLID_29_" fill="#EFEFEF" d="M56.569,81.823v-3.298h1.271l6.521-18.771h-1.906v-3.298h12.492v3.298h-2.075
         l6.479,18.771h1.313v3.298h-8.13v-3.298h1.651l-1.567-4.438H64.53l-1.524,4.438h1.651v3.298H56.569z M71.814,71.766l-3.218-9.324
         l-3.218,9.324H71.814z"/>
         <path id="XMLID_28_" fill="#EFEFEF" d="M82.264,81.823v-3.298l13.042-18.771h-9.655v1.669h-3.388v-4.968h18.886v3.298
         L88.107,78.525h9.613v-1.669h3.43v4.968H82.264z"/>
         <path id="XMLID_27_" fill="#EFEFEF" d="M102.746,81.823v-3.298h1.779V59.754h-1.779v-3.298h8.427v3.298h-1.779v18.771h1.779
         v3.298H102.746z"/>
         <path id="XMLID_26_" fill="#EFEFEF" d="M113.328,78.077V60.202l3.896-3.746H128.7l3.896,3.746v4.071h-4.912v-2.769l-1.779-1.751
         h-5.886l-1.779,1.751v15.31l1.779,1.71h5.886l1.779-1.71v-2.606h4.912v3.868l-3.896,3.746h-11.476L113.328,78.077z"/>
       </g>
     </g>
     <g id="XMLID_11_">
       <path id="XMLID_23_" fill="#FFFFFF" d="M48.947,44.435l0.591,0.588c-0.529,0.048-0.948,0.227-1.255,0.536
       c-0.339,0.34-0.502,0.749-0.489,1.225c0.01,0.477,0.19,0.89,0.542,1.24c0.347,0.346,0.757,0.52,1.23,0.524
       c0.472,0.003,0.878-0.165,1.217-0.506c0.175-0.176,0.295-0.354,0.36-0.534c0.04-0.097,0.072-0.207,0.096-0.329
       c0.025-0.122,0.043-0.258,0.056-0.408l0.604,0.601c-0.122,0.448-0.34,0.829-0.654,1.143c-0.471,0.473-1.038,0.713-1.702,0.719
       c-0.665,0.001-1.233-0.232-1.703-0.7c-0.422-0.42-0.659-0.934-0.712-1.542c-0.063-0.746,0.177-1.392,0.719-1.936
       C48.143,44.76,48.51,44.553,48.947,44.435z"/>
       <path id="XMLID_22_" fill="#F56853" d="M51.218,45.14c-0.383-0.535-0.516-1.134-0.399-1.799c0.115-0.664,0.447-1.192,0.995-1.584
       c0.541-0.388,1.144-0.527,1.809-0.418c0.666,0.109,1.193,0.434,1.582,0.977c0.392,0.546,0.528,1.15,0.411,1.81
       c-0.118,0.663-0.455,1.193-1.008,1.591c-0.49,0.352-1.052,0.497-1.686,0.438C52.222,46.087,51.654,45.749,51.218,45.14z
       M51.801,44.733c0.301,0.42,0.689,0.664,1.165,0.731c0.474,0.069,0.895-0.028,1.263-0.291c0.398-0.286,0.636-0.664,0.713-1.136
       c0.074-0.475-0.032-0.912-0.319-1.312c-0.29-0.405-0.668-0.647-1.135-0.727c-0.466-0.083-0.898,0.018-1.295,0.303
       c-0.395,0.283-0.63,0.66-0.705,1.13C51.41,43.899,51.514,44.333,51.801,44.733z"/>
       <path id="XMLID_21_" fill="#FFFFFF" d="M57.445,43.734l-2.119-4.519l4.599,1.782l-1.379-2.941l0.639-0.3l2.104,4.489l-4.595-1.773
       l1.389,2.963L57.445,43.734z"/>
       <path id="XMLID_20_" fill="#FFFFFF" d="M63.766,37.043l-0.454,0.486c-0.155-0.148-0.287-0.236-0.395-0.262
       c-0.115-0.033-0.249-0.028-0.402,0.017c-0.188,0.055-0.328,0.154-0.421,0.297c-0.093,0.141-0.117,0.291-0.07,0.45
       c0.064,0.219,0.278,0.347,0.643,0.386l0.501,0.052c0.407,0.04,0.726,0.142,0.957,0.304c0.231,0.162,0.392,0.398,0.482,0.706
       c0.121,0.413,0.084,0.794-0.112,1.144c-0.197,0.353-0.501,0.589-0.911,0.71c-0.389,0.114-0.745,0.093-1.066-0.064
       c-0.317-0.158-0.569-0.437-0.754-0.837l0.641-0.352c0.108,0.254,0.216,0.42,0.323,0.498c0.196,0.152,0.428,0.19,0.695,0.111
       c0.211-0.062,0.365-0.184,0.463-0.366c0.098-0.182,0.115-0.382,0.051-0.598c-0.026-0.087-0.061-0.163-0.107-0.229
       c-0.046-0.065-0.103-0.121-0.172-0.167c-0.069-0.046-0.152-0.084-0.249-0.113c-0.097-0.029-0.209-0.052-0.335-0.067l-0.485-0.053
       c-0.69-0.079-1.108-0.368-1.255-0.867c-0.099-0.336-0.053-0.656,0.138-0.958c0.19-0.304,0.478-0.512,0.861-0.625
       C62.851,36.494,63.328,36.627,63.766,37.043z"/>
       <path id="XMLID_19_" fill="#FFFFFF" d="M66.685,36.447l0.665,3.955l-0.696,0.117l-0.665-3.955l-1.06,0.178l-0.11-0.654
       l2.812-0.473l0.11,0.654L66.685,36.447z"/>
       <path id="XMLID_18_" fill="#FFFFFF" d="M70.686,38.079l1.543,1.918l-0.862,0.042l-1.427-1.845l-0.127,0.006l0.093,1.91
       l-0.704,0.034l-0.229-4.668l0.825-0.04c0.617-0.03,1.068,0.064,1.353,0.282c0.315,0.243,0.483,0.576,0.504,1
       c0.016,0.331-0.064,0.619-0.243,0.866C71.235,37.833,70.993,37.997,70.686,38.079z M69.783,37.587l0.224-0.011
       c0.667-0.033,0.988-0.304,0.963-0.814c-0.024-0.478-0.36-0.7-1.008-0.669l-0.251,0.012L69.783,37.587z"/>
       <path id="XMLID_17_" fill="#FFFFFF" d="M74.089,35.419l-0.25,2.801c-0.035,0.4,0.003,0.697,0.118,0.894
       c0.171,0.284,0.433,0.443,0.787,0.474c0.356,0.032,0.643-0.077,0.862-0.327c0.147-0.167,0.238-0.454,0.274-0.859l0.25-2.802
       l0.702,0.062l-0.267,2.997c-0.044,0.49-0.233,0.881-0.566,1.171c-0.375,0.323-0.813,0.462-1.313,0.418
       c-0.5-0.045-0.906-0.259-1.216-0.643c-0.277-0.345-0.394-0.762-0.35-1.253l0.268-2.997L74.089,35.419z"/>
       <path id="XMLID_16_" fill="#FFFFFF" d="M82.037,37.06l-0.2,0.81c-0.314-0.428-0.683-0.695-1.106-0.799
       c-0.466-0.115-0.9-0.044-1.302,0.212c-0.403,0.254-0.665,0.622-0.783,1.104c-0.118,0.476-0.056,0.917,0.185,1.324
       c0.241,0.406,0.594,0.667,1.061,0.782c0.241,0.06,0.455,0.071,0.643,0.034c0.104-0.016,0.214-0.045,0.332-0.087
       c0.117-0.042,0.243-0.096,0.378-0.162l-0.204,0.827c-0.447,0.126-0.885,0.136-1.316,0.03c-0.648-0.16-1.146-0.522-1.493-1.088
       c-0.344-0.569-0.436-1.176-0.277-1.82c0.142-0.578,0.46-1.046,0.954-1.404c0.606-0.438,1.283-0.566,2.03-0.382
       C81.344,36.539,81.711,36.746,82.037,37.06z"/>
       <path id="XMLID_15_" fill="#FFFFFF" d="M84.742,38.506l-1.467,3.732l-0.656-0.258l1.467-3.732l-1-0.393l0.243-0.617l2.653,1.043
       l-0.243,0.617L84.742,38.506z"/>
       <path id="XMLID_14_" fill="#FFFFFF" d="M87.723,39.14l-2.083,4.184l-0.631-0.314l2.083-4.183L87.723,39.14z"/>
       <path id="XMLID_13_" fill="#FFFFFF" d="M87.939,41.783c0.366-0.546,0.881-0.881,1.545-1.005c0.662-0.124,1.273,0.001,1.832,0.376
       c0.553,0.371,0.895,0.887,1.025,1.547c0.132,0.662,0.012,1.27-0.36,1.825c-0.374,0.558-0.891,0.898-1.551,1.019
       c-0.663,0.122-1.277-0.007-1.844-0.387c-0.501-0.336-0.835-0.812-1.001-1.425C87.405,43.055,87.522,42.405,87.939,41.783z
       M88.526,42.186c-0.287,0.428-0.38,0.878-0.277,1.347c0.101,0.468,0.339,0.828,0.715,1.08c0.407,0.273,0.845,0.363,1.313,0.269
       c0.471-0.097,0.843-0.35,1.117-0.758c0.277-0.414,0.371-0.853,0.283-1.318c-0.086-0.466-0.332-0.834-0.737-1.106
       c-0.404-0.271-0.839-0.359-1.306-0.264C89.169,41.527,88.799,41.777,88.526,42.186z"/>
       <path id="XMLID_12_" fill="#FFFFFF" d="M91.442,47.125l3.487-3.571l-0.053,4.932l2.269-2.324l0.505,0.493l-3.463,3.547
       l0.046-4.925l-2.286,2.341L91.442,47.125z"/>
     </g>
     <path id="XMLID_10_" fill="#FFFFFF" stroke="#FFFFFF" stroke-width="0.5" stroke-miterlimit="10" d="M53.776,94.858
     c0.064-0.093,0.153-0.151,0.268-0.172c0.115-0.022,0.22,0,0.315,0.065c0.095,0.065,0.153,0.155,0.175,0.27s0,0.22-0.065,0.315
     c-0.066,0.096-0.156,0.155-0.272,0.177c-0.112,0.021-0.216-0.001-0.313-0.067c-0.098-0.067-0.158-0.157-0.179-0.269
     C53.684,95.064,53.708,94.958,53.776,94.858z"/>
     <path id="XMLID_9_" fill="#FFFFFF" d="M59.029,96.191l-0.664,0.03c-0.007-0.214-0.04-0.369-0.098-0.464
     c-0.059-0.104-0.158-0.194-0.299-0.27c-0.173-0.092-0.342-0.12-0.509-0.083c-0.165,0.035-0.287,0.126-0.365,0.272
     c-0.108,0.201-0.045,0.443,0.188,0.726l0.321,0.388c0.262,0.314,0.419,0.61,0.469,0.888c0.051,0.278,0,0.558-0.151,0.842
     c-0.203,0.379-0.497,0.625-0.881,0.738c-0.388,0.113-0.77,0.069-1.148-0.132c-0.358-0.191-0.596-0.455-0.716-0.793
     c-0.116-0.335-0.1-0.71,0.049-1.125l0.704,0.198c-0.101,0.257-0.14,0.451-0.119,0.581c0.033,0.246,0.172,0.435,0.418,0.567
     c0.194,0.104,0.39,0.125,0.587,0.063c0.198-0.061,0.35-0.192,0.456-0.391c0.043-0.08,0.071-0.159,0.084-0.238
     c0.013-0.079,0.011-0.158-0.006-0.24c-0.017-0.081-0.05-0.166-0.099-0.255c-0.049-0.089-0.113-0.183-0.192-0.283l-0.309-0.378
     c-0.437-0.54-0.532-1.039-0.287-1.498c0.165-0.309,0.422-0.505,0.77-0.586c0.349-0.083,0.699-0.031,1.052,0.157
     C58.761,95.158,59.009,95.587,59.029,96.191z"/>
     <path id="XMLID_8_" fill="#FFFFFF" d="M63.037,97.726l-1.761-0.638l-0.382,1.056l1.71,0.62l-0.226,0.623l-1.71-0.62l-0.532,1.468
     l1.761,0.638l-0.226,0.623l-2.425-0.878l1.591-4.394l2.425,0.878L63.037,97.726z"/>
     <path id="XMLID_7_" fill="#FFFFFF" d="M65.804,100.47l1.019,2.241l-0.845-0.173l-0.925-2.141l-0.124-0.026l-0.383,1.874
     l-0.691-0.141l0.935-4.579l0.81,0.165c0.605,0.123,1.019,0.327,1.241,0.609c0.245,0.314,0.325,0.678,0.24,1.093
     c-0.066,0.324-0.216,0.584-0.45,0.779C66.397,100.368,66.121,100.467,65.804,100.47z M65.051,99.77l0.219,0.045
     c0.654,0.134,1.033-0.05,1.135-0.55c0.095-0.469-0.175-0.768-0.812-0.898l-0.246-0.05L65.051,99.77z"/>
     <path id="XMLID_6_" fill="#FFFFFF" d="M69.16,98.278l1.124,3.301l1.475-3.167l0.771,0.04l-2.353,4.91l-1.788-5.123L69.16,98.278z"
     />
     <path id="XMLID_5_" fill="#FFFFFF" d="M74.384,98.291l0.318,4.662l-0.703,0.048l-0.318-4.662L74.384,98.291z"/>
     <path id="XMLID_4_" fill="#FFFFFF" d="M79.526,97.732l0.159,0.819c-0.465-0.257-0.911-0.343-1.339-0.26
     c-0.471,0.092-0.835,0.338-1.092,0.74c-0.259,0.4-0.341,0.844-0.246,1.331c0.093,0.482,0.335,0.856,0.725,1.123
     c0.389,0.268,0.819,0.355,1.291,0.264c0.243-0.048,0.443-0.127,0.598-0.24c0.088-0.058,0.175-0.131,0.264-0.218
     c0.089-0.087,0.181-0.189,0.275-0.306l0.163,0.836c-0.352,0.302-0.746,0.495-1.182,0.58c-0.656,0.128-1.26,0.008-1.812-0.359
     c-0.551-0.371-0.891-0.883-1.018-1.535c-0.114-0.584-0.022-1.143,0.275-1.675c0.366-0.653,0.926-1.053,1.681-1.2
     C78.679,97.55,79.098,97.584,79.526,97.732z"/>
     <path id="XMLID_3_" fill="#FFFFFF" d="M83.665,96.741l-1.759,0.644l0.386,1.055L84,97.815l0.228,0.622l-1.708,0.626l0.537,1.467
     l1.759-0.644l0.228,0.622l-2.422,0.886l-1.607-4.388l2.422-0.886L83.665,96.741z"/>
     <path id="XMLID_2_" fill="#FFFFFF" d="M87.411,94.887l-0.345,0.568c-0.182-0.114-0.329-0.172-0.441-0.177
     c-0.12-0.009-0.249,0.023-0.39,0.098c-0.173,0.092-0.29,0.217-0.352,0.376c-0.062,0.157-0.055,0.308,0.023,0.455
     c0.107,0.201,0.343,0.284,0.708,0.247l0.501-0.051c0.407-0.043,0.74-0.008,0.999,0.104c0.259,0.113,0.464,0.31,0.615,0.594
     c0.202,0.38,0.243,0.76,0.122,1.143c-0.121,0.385-0.371,0.678-0.748,0.88c-0.358,0.191-0.71,0.242-1.057,0.153
     c-0.343-0.09-0.646-0.312-0.908-0.667l0.556-0.475c0.157,0.227,0.297,0.367,0.418,0.423c0.223,0.11,0.457,0.099,0.703-0.032
     c0.194-0.104,0.32-0.254,0.379-0.453c0.059-0.198,0.035-0.397-0.071-0.596c-0.043-0.08-0.093-0.148-0.151-0.202
     c-0.058-0.055-0.125-0.098-0.202-0.128c-0.077-0.031-0.166-0.051-0.267-0.06c-0.101-0.009-0.215-0.008-0.342,0.002l-0.486,0.047
     c-0.692,0.062-1.159-0.136-1.404-0.595c-0.165-0.309-0.185-0.632-0.059-0.966c0.125-0.336,0.364-0.599,0.716-0.787
     C86.404,94.536,86.899,94.568,87.411,94.887z"/>
     <path id="XMLID_1_" fill="#FFFFFF" stroke="#FFFFFF" stroke-width="0.5" stroke-miterlimit="10" d="M89.528,95.333
     c-0.063-0.093-0.085-0.197-0.063-0.312c0.022-0.115,0.08-0.205,0.175-0.27c0.095-0.065,0.2-0.087,0.315-0.065
     c0.115,0.022,0.205,0.08,0.27,0.175c0.066,0.097,0.088,0.203,0.066,0.317c-0.021,0.112-0.08,0.201-0.177,0.268
     c-0.098,0.067-0.204,0.091-0.316,0.069C89.687,95.493,89.597,95.433,89.528,95.333z"/>
   </g>
 </svg>