<?xml version="1.0" encoding="utf-8"?>

<?xml-stylesheet type="text/css" href="style.css" ?>   
<!-- Generator: Adobe Illustrator 19.0.1, SVG Export Plug-In . SVG Version: 6.00 Build 0)  -->
<svg version="1.1" id="Layer_1" xmlns="http://www.w3.org/2000/svg" xmlns:xlink="http://www.w3.org/1999/xlink" x="0px" y="0px"
	 viewBox="0 0 216 216" style="enable-background:new 0 0 216 216;" xml:space="preserve">
<style type="text/css">
	.st0{fill:#1DBDC2;stroke:#313333;stroke-width:3.24;stroke-miterlimit:10;}
	.st1{fill:#FFFFFF;}
</style>
<g>
	<circle  id="heartinner" class="st0 heartcircle" cx="108" cy="108" r="91.9"/>
	<g>
		<path class="st1" d="M108,150.2L108,150.2c-0.5,0-1-0.2-1.3-0.5l-30.3-30.8c-6.9-6.9-10.6-15-10.6-23c0-12.9,8.5-21.5,21.2-21.5
			c10.9,0,15.3,4.9,21,11.6c5.8-6.8,10.1-11.6,21-11.6c12.7,0,21.3,8.6,21.3,21.5c0,8-3.8,16.1-10.6,23l-30.3,30.8
			C109,150,108.5,150.2,108,150.2L108,150.2z M87,78.1"/>
	</g>
</g>
</svg>
