<?xml version="1.0" encoding="utf-8"?>
<?xml-stylesheet type="text/css" href="animate.css" ?>   
<?xml-stylesheet type="text/css" href="style.css" ?>   

<script type="text/ecmascript" xlink:href="index.js" />

<!-- Generator: Adobe Illustrator 19.0.1, SVG Export Plug-In . SVG Version: 6.00 Build 0)  -->
<svg version="1.1" id="Layer_1" xmlns="http://www.w3.org/2000/svg" xmlns:xlink="http://www.w3.org/1999/xlink" x="0px" y="0px"
	 viewBox="0 0 200.667 210.667" enable-background="new 0 0 200.667 210.667" xml:space="preserve">
<g>
	<g class="bkg">
		<rect x="35.075" y="24.734" fill="#F2F2F2" width="123.267" height="172.519"/>
	</g>
	<g>
		<g>
			<rect x="101.175" y="162.293" fill="#F2F2F2" width="7.146" height="16.078"/>
		</g>
		<g>
			<rect x="90.456" y="146.214" fill="#EFEFEF" width="7.146" height="32.157"/>
		</g>
		<g>
			<rect x="104.748" y="174.798" fill="#3ABFC4" width="3.573" height="3.573"/>
		</g>
		<g>
			<rect x="145.837" y="156.933" fill="#EFEFEF" width="7.146" height="21.438"/>
		</g>
		<g>
			<rect x="35.075" y="24.734" fill="#3ABFC4" width="123.267" height="19.651"/>
		</g>
    
    
    
		<g id="circle">
    	<g>
			<g>
				<g>
					<path fill="#363636"  d="M60.156,161.069l-18.118-2.517c1.327-9.549,9.559-16.405,19.365-15.734L60.156,161.069z"/>
				</g>
			</g>
		</g>
		<g>
			<g>
				<g>
					<path fill="#EFEFEF" d="M60.331,161.08l16.97,6.824c-3.769,9.375-14.424,13.915-23.796,10.145
						c-7.816-3.146-12.45-11.144-11.289-19.487L60.331,161.08z"/>
				</g>
			</g>
		</g>
		<g>
			<g>
				<g>
					<path fill="#3ABFC4" d="M63.136,158.305l1.251-18.251c10.158,0.697,17.85,9.429,17.159,19.508
						c-0.146,2.126-0.565,3.596-1.361,5.572L63.136,158.305z"/>
				</g>
			</g>
		</g>
  </g>
    
    <g id="paper_lines" >
		<g>
			<path fill="#EFEFEF"  d="M115.467,58.677c0,0.986-0.799,1.786-1.786,1.786H42.221c-0.986,0-1.786-0.8-1.786-1.786l0,0
				c0-0.986,0.8-1.786,1.786-1.786h71.459C114.668,56.89,115.467,57.691,115.467,58.677L115.467,58.677z"/>
		</g>
		<g>
			<path fill="#EFEFEF" d="M115.467,65.823c0,0.986-0.799,1.786-1.786,1.786H42.221c-0.986,0-1.786-0.8-1.786-1.786l0,0
				c0-0.986,0.8-1.786,1.786-1.786h71.459C114.668,64.036,115.467,64.837,115.467,65.823L115.467,65.823z"/>
		</g>
		<g>
			<path fill="#EFEFEF" d="M115.467,72.969c0,0.986-0.799,1.786-1.786,1.786H42.221c-0.986,0-1.786-0.8-1.786-1.786l0,0
				c0-0.986,0.8-1.786,1.786-1.786h71.459C114.668,71.182,115.467,71.982,115.467,72.969L115.467,72.969z"/>
		</g>
		<g>
			<path fill="#EFEFEF" d="M115.467,80.115c0,0.986-0.799,1.786-1.786,1.786H42.221c-0.986,0-1.786-0.8-1.786-1.786l0,0
				c0-0.986,0.8-1.786,1.786-1.786h71.459C114.668,78.328,115.467,79.128,115.467,80.115L115.467,80.115z"/>
		</g>
		<g>
			<path fill="#EFEFEF" d="M115.467,87.26c0,0.986-0.799,1.786-1.786,1.786H42.221c-0.986,0-1.786-0.8-1.786-1.786l0,0
				c0-0.986,0.8-1.786,1.786-1.786h71.459C114.668,85.474,115.467,86.274,115.467,87.26L115.467,87.26z"/>
		</g>
		<g>
			<path fill="#EFEFEF" d="M115.467,94.406c0,0.986-0.799,1.786-1.786,1.786H42.221c-0.986,0-1.786-0.8-1.786-1.786l0,0
				c0-0.986,0.8-1.786,1.786-1.786h71.459C114.668,92.62,115.467,93.42,115.467,94.406L115.467,94.406z"/>
		</g>
    
     
		<g>
			<path fill="#EFEFEF" d="M115.467,101.552c0,0.986-0.799,1.786-1.786,1.786H42.221c-0.986,0-1.786-0.8-1.786-1.786l0,0
				c0-0.986,0.8-1.786,1.786-1.786h71.459C114.668,99.766,115.467,100.566,115.467,101.552L115.467,101.552z"/>
		</g>
    </g>
		<g>
			<polygon points="124.321,60.915 124.321,60.915 124.321,60.915 124.321,60.915 124.321,60.915 124.321,60.915 124.321,60.915 			
				"/>
		</g>
		<g>
			<path fill="#EFEFEF" d="M152.983,138.952c0,1.05-0.854,1.903-1.904,1.903h-26.561c-1.05,0-1.904-0.852-1.904-1.903V73.085
				c0-1.05,0.854-1.903,1.904-1.903h26.56c1.052,0,1.906,0.852,1.906,1.903V138.952z"/>
		</g>
   
    
    
    
    
    
    
    
		<g>
			<rect x="113.68" y="162.293" fill="#3ABFC4" width="7.146" height="16.078"/>
		</g>
		<g>
			<rect x="124.399" y="167.652" fill="#3ABFC4" width="7.146" height="10.719"/>
		</g>
		<g>
			<rect x="135.118" y="162.293" fill="#EFEFEF" width="8.932" height="16.078"/>
		</g>
	</g>
	<g>
		<path fill="#FFFFFF" d="M71.85,30.191c0,0.229-0.188,0.431-0.418,0.431c-0.242,0-0.431-0.201-0.431-0.431
			c0-0.229,0.188-0.417,0.431-0.417C71.661,29.774,71.85,29.963,71.85,30.191z M71.674,32.951v5.881
			c0,0.121-0.107,0.242-0.242,0.242c-0.121,0-0.229-0.121-0.229-0.242v-5.881c0-0.135,0.107-0.229,0.229-0.229
			C71.567,32.722,71.674,32.816,71.674,32.951z"/>
		<path fill="#FFFFFF" d="M73.888,38.832c0,0.121-0.107,0.242-0.242,0.242c-0.134,0-0.229-0.121-0.229-0.242v-5.881
			c0-0.135,0.095-0.229,0.229-0.229c0.135,0,0.242,0.095,0.242,0.229v0.713c0.297-0.525,0.902-1.022,1.804-1.022
			c1.319,0,2.423,1.09,2.423,2.422v3.769c0,0.161-0.121,0.242-0.242,0.242c-0.108,0-0.229-0.081-0.229-0.242v-3.769
			c0-0.982-0.861-1.951-1.911-1.951c-0.915,0-1.844,0.727-1.844,1.951V38.832z"/>
		<path fill="#FFFFFF" d="M80.285,32.722h2.06c0.135,0,0.242,0.108,0.242,0.229c0,0.134-0.107,0.242-0.242,0.242h-2.06v5.652
			c0,0.135-0.121,0.229-0.256,0.229c-0.121,0-0.215-0.094-0.215-0.229v-7.712c0-1.292,1.104-2.396,2.396-2.396h0.135
			c0.135,0,0.242,0.107,0.242,0.242s-0.107,0.229-0.242,0.229H82.21c-1.09,0-1.911,0.929-1.925,1.925V32.722z"/>
		<path fill="#FFFFFF" d="M88.067,35.063v1.642c0,1.279-1.116,2.45-2.396,2.45c-1.278,0-2.382-1.157-2.382-2.45v-1.642
			c0-1.292,1.077-2.422,2.382-2.422C86.951,32.642,88.067,33.731,88.067,35.063z M87.596,35.063c0-0.982-0.848-1.951-1.925-1.951
			c-1.076,0-1.911,0.969-1.911,1.951v1.642c0,1.01,0.849,1.979,1.911,1.979c1.063,0,1.925-0.969,1.925-1.979V35.063z"/>
		<path fill="#FFFFFF" d="M93.472,33.61c0.229,0.323,0.336,0.78,0.336,1.238v0.605c0,1.278-0.901,2.234-2.193,2.234
			c-0.403,0-0.78-0.095-1.104-0.283c-0.27,0.121-0.538,0.296-0.538,0.646c0,1.359,4.253-0.027,4.253,2.396
			c0,1.157-0.97,1.816-2.517,1.816c-1.562,0-2.611-0.673-2.611-1.736c0-0.82,0.619-1.278,1.225-1.493
			c-0.484-0.135-0.821-0.377-0.821-0.956c0-0.498,0.256-0.74,0.66-0.929c-0.444-0.39-0.7-0.996-0.7-1.695v-0.605
			c0-1.292,0.861-2.207,2.167-2.207c0.659,0,1.211,0.242,1.602,0.646c0.242-0.457,0.673-0.821,1.009-0.821
			c0.202,0,0.283,0.135,0.283,0.27c0,0.161-0.121,0.256-0.242,0.256C94.05,32.991,93.728,33.112,93.472,33.61z M90.982,39.168
			c-0.713,0.202-1.413,0.565-1.413,1.319c0,0.794,0.781,1.346,2.141,1.346c1.332,0,2.045-0.538,2.045-1.373
			C93.754,39.182,91.843,39.289,90.982,39.168z M93.337,34.849c0-0.982-0.633-1.736-1.709-1.736c-1.077,0-1.696,0.754-1.696,1.736
			v0.592c0,1.01,0.633,1.776,1.71,1.776c1.05,0,1.695-0.754,1.695-1.763V34.849z"/>
		<path fill="#FFFFFF" d="M98.064,33.112c-0.942,0-1.871,0.727-1.871,1.951v3.769c0,0.121-0.107,0.242-0.242,0.242
			c-0.134,0-0.229-0.121-0.229-0.242v-5.881c0-0.135,0.095-0.229,0.229-0.229c0.135,0,0.242,0.095,0.242,0.229v0.713
			c0.31-0.525,0.929-1.022,1.871-1.022h0.498c0.121,0,0.229,0.107,0.229,0.242c0,0.121-0.107,0.229-0.229,0.229H98.064z"/>
		<path fill="#FFFFFF" d="M103.887,35.226v3.606c0,0.135-0.094,0.242-0.229,0.242s-0.242-0.107-0.242-0.242v-0.7
			c-0.457,0.525-1.13,1.023-2.019,1.023c-1.05,0-1.871-0.565-1.871-1.776c0-1.427,1.266-1.777,3.136-1.777h0.754v-0.376
			c0-1.01-0.498-2.113-1.776-2.113c-0.834,0-1.238,0.363-1.399,0.363c-0.148,0-0.242-0.175-0.242-0.27
			c0-0.255,0.848-0.564,1.669-0.564C103.323,32.642,103.887,33.893,103.887,35.226z M103.416,36.073h-0.74
			c-1.386,0-2.678,0.135-2.678,1.306c0,0.901,0.605,1.305,1.386,1.305c1.01,0,2.032-0.901,2.032-1.48V36.073z"/>
		<path fill="#FFFFFF" d="M106.07,32.951v0.713c0.296-0.525,0.902-1.022,1.804-1.022c1.319,0,2.423,1.09,2.423,2.422v1.642
			c0,1.279-1.117,2.45-2.396,2.45c-0.82,0-1.534-0.472-1.83-1.023v3.89c0,0.121-0.107,0.242-0.242,0.242s-0.229-0.121-0.229-0.242
			v-9.07c0-0.135,0.094-0.229,0.229-0.229S106.07,32.816,106.07,32.951z M109.825,35.063c0-0.982-0.861-1.951-1.911-1.951
			c-0.915,0-1.844,0.727-1.844,1.951v2.14c0,0.458,0.794,1.48,1.857,1.48c1.022,0,1.897-0.969,1.897-1.979V35.063z"/>
		<path fill="#FFFFFF" d="M112.32,38.832c0,0.121-0.107,0.242-0.242,0.242s-0.229-0.121-0.229-0.242v-9.865
			c0-0.135,0.094-0.229,0.229-0.229s0.242,0.094,0.242,0.229v4.697c0.296-0.525,0.902-1.022,1.804-1.022
			c1.319,0,2.423,1.09,2.423,2.422v3.769c0,0.161-0.121,0.242-0.242,0.242c-0.108,0-0.229-0.081-0.229-0.242v-3.769
			c0-0.982-0.861-1.951-1.911-1.951c-0.915,0-1.844,0.727-1.844,1.951V38.832z"/>
		<path fill="#FFFFFF" d="M118.863,30.191c0,0.229-0.188,0.431-0.418,0.431c-0.242,0-0.431-0.201-0.431-0.431
			c0-0.229,0.188-0.417,0.431-0.417C118.674,29.774,118.863,29.963,118.863,30.191z M118.687,32.951v5.881
			c0,0.121-0.107,0.242-0.242,0.242c-0.121,0-0.229-0.121-0.229-0.242v-5.881c0-0.135,0.107-0.229,0.229-0.229
			C118.579,32.722,118.687,32.816,118.687,32.951z"/>
		<path fill="#FFFFFF" d="M120.208,36.705v-1.614c0-1.373,0.78-2.449,2.463-2.449c1.076,0,1.763,0.511,1.763,0.794
			c0,0.121-0.121,0.229-0.242,0.229c-0.229,0-0.458-0.552-1.521-0.552c-1.292,0-1.992,0.754-1.992,1.979v1.614
			c0,1.226,0.687,1.979,2.005,1.979c1.131,0,1.359-0.552,1.602-0.552c0.121,0,0.229,0.108,0.229,0.229
			c0,0.282-0.7,0.794-1.844,0.794C121.002,39.155,120.208,38.105,120.208,36.705z"/>
	</g>
</g>
</svg>
