<?xml version="1.0" encoding="utf-8"?>
<!-- Generator: Adobe Illustrator 19.0.1, SVG Export Plug-In . SVG Version: 6.00 Build 0)  -->
<svg version="1.1" id="Layer_1" xmlns="http://www.w3.org/2000/svg" xmlns:xlink="http://www.w3.org/1999/xlink" x="0px" y="0px"
	 viewBox="0 0 239.301 75" enable-background="new 0 0 239.301 75" xml:space="preserve">
<g>
	<g>
		<rect x="657.043" y="77.734" fill="#363636" width="123.267" height="172.519"/>
	</g>
	<g>
		<g>
			<rect x="723.143" y="215.293" fill="#3ABFC4" width="7.146" height="16.078"/>
		</g>
		<g>
			<rect x="712.424" y="199.214" fill="#EFEFEF" width="7.146" height="32.157"/>
		</g>
		<g>
			<rect x="726.716" y="227.798" fill="#3ABFC4" width="3.573" height="3.573"/>
		</g>
		<g>
			<rect x="767.805" y="209.933" fill="#EFEFEF" width="7.146" height="21.438"/>
		</g>
		<g>
			<rect x="657.043" y="77.734" fill="#3ABFC4" width="123.267" height="19.651"/>
		</g>
		<g>
			<g>
				<g>
					<path fill="#363636" d="M682.124,214.069l-18.118-2.517c1.327-9.549,9.559-16.405,19.365-15.734L682.124,214.069z"/>
				</g>
			</g>
		</g>
		<g>
			<g>
				<g>
					<path fill="#EFEFEF" d="M682.299,214.08l16.97,6.824c-3.769,9.375-14.424,13.915-23.796,10.145
						c-7.816-3.146-12.45-11.144-11.289-19.487L682.299,214.08z"/>
				</g>
			</g>
		</g>
		<g>
			<g>
				<g>
					<path fill="#3ABFC4" d="M685.104,211.305l1.251-18.251c10.158,0.697,17.85,9.429,17.159,19.508
						c-0.146,2.126-0.565,3.596-1.361,5.572L685.104,211.305z"/>
				</g>
			</g>
		</g>
		<g>
			<path fill="#EFEFEF" d="M737.435,111.677c0,0.986-0.799,1.786-1.786,1.786h-71.459c-0.986,0-1.786-0.8-1.786-1.786l0,0
				c0-0.986,0.8-1.786,1.786-1.786h71.459C736.636,109.89,737.435,110.691,737.435,111.677L737.435,111.677z"/>
		</g>
		<g>
			<path fill="#EFEFEF" d="M737.435,118.823c0,0.986-0.799,1.786-1.786,1.786h-71.459c-0.986,0-1.786-0.8-1.786-1.786l0,0
				c0-0.986,0.8-1.786,1.786-1.786h71.459C736.636,117.036,737.435,117.837,737.435,118.823L737.435,118.823z"/>
		</g>
		<g>
			<path fill="#EFEFEF" d="M737.435,125.969c0,0.986-0.799,1.786-1.786,1.786h-71.459c-0.986,0-1.786-0.8-1.786-1.786l0,0
				c0-0.986,0.8-1.786,1.786-1.786h71.459C736.636,124.182,737.435,124.982,737.435,125.969L737.435,125.969z"/>
		</g>
		<g>
			<path fill="#EFEFEF" d="M737.435,133.115c0,0.986-0.799,1.786-1.786,1.786h-71.459c-0.986,0-1.786-0.8-1.786-1.786l0,0
				c0-0.986,0.8-1.786,1.786-1.786h71.459C736.636,131.328,737.435,132.128,737.435,133.115L737.435,133.115z"/>
		</g>
		<g>
			<path fill="#EFEFEF" d="M737.435,140.26c0,0.986-0.799,1.786-1.786,1.786h-71.459c-0.986,0-1.786-0.8-1.786-1.786l0,0
				c0-0.986,0.8-1.786,1.786-1.786h71.459C736.636,138.474,737.435,139.274,737.435,140.26L737.435,140.26z"/>
		</g>
		<g>
			<path fill="#EFEFEF" d="M737.435,147.406c0,0.986-0.799,1.786-1.786,1.786h-71.459c-0.986,0-1.786-0.8-1.786-1.786l0,0
				c0-0.986,0.8-1.786,1.786-1.786h71.459C736.636,145.62,737.435,146.42,737.435,147.406L737.435,147.406z"/>
		</g>
		<g>
			<path fill="#EFEFEF" d="M737.435,154.552c0,0.986-0.799,1.786-1.786,1.786h-71.459c-0.986,0-1.786-0.8-1.786-1.786l0,0
				c0-0.986,0.8-1.786,1.786-1.786h71.459C736.636,152.766,737.435,153.566,737.435,154.552L737.435,154.552z"/>
		</g>
		<g>
			<polygon points="746.289,113.915 746.289,113.915 746.289,113.915 746.289,113.915 746.289,113.915 746.289,113.915 
				746.289,113.915 			"/>
		</g>
		<g>
			<path fill="#EFEFEF" d="M774.951,191.952c0,1.05-0.854,1.903-1.904,1.903h-26.561c-1.05,0-1.904-0.852-1.904-1.903v-65.867
				c0-1.05,0.854-1.903,1.904-1.903h26.56c1.052,0,1.906,0.852,1.906,1.903V191.952z"/>
		</g>
		<g>
			<rect x="735.648" y="215.293" fill="#3ABFC4" width="7.146" height="16.078"/>
		</g>
		<g>
			<rect x="746.367" y="220.652" fill="#3ABFC4" width="7.146" height="10.719"/>
		</g>
		<g>
			<rect x="757.086" y="215.293" fill="#EFEFEF" width="8.932" height="16.078"/>
		</g>
	</g>
	<g>
		<path fill="#FFFFFF" d="M693.818,83.191c0,0.229-0.188,0.431-0.418,0.431c-0.242,0-0.431-0.201-0.431-0.431
			c0-0.229,0.188-0.417,0.431-0.417C693.629,82.774,693.818,82.963,693.818,83.191z M693.642,85.951v5.881
			c0,0.121-0.107,0.242-0.242,0.242c-0.121,0-0.229-0.121-0.229-0.242v-5.881c0-0.135,0.107-0.229,0.229-0.229
			C693.535,85.722,693.642,85.816,693.642,85.951z"/>
		<path fill="#FFFFFF" d="M695.856,91.832c0,0.121-0.107,0.242-0.242,0.242c-0.134,0-0.229-0.121-0.229-0.242v-5.881
			c0-0.135,0.095-0.229,0.229-0.229c0.135,0,0.242,0.095,0.242,0.229v0.713c0.297-0.525,0.902-1.022,1.804-1.022
			c1.319,0,2.423,1.09,2.423,2.422v3.769c0,0.161-0.121,0.242-0.242,0.242c-0.108,0-0.229-0.081-0.229-0.242v-3.769
			c0-0.982-0.861-1.951-1.911-1.951c-0.915,0-1.844,0.727-1.844,1.951V91.832z"/>
		<path fill="#FFFFFF" d="M702.253,85.722h2.06c0.135,0,0.242,0.108,0.242,0.229c0,0.134-0.107,0.242-0.242,0.242h-2.06v5.652
			c0,0.135-0.121,0.229-0.256,0.229c-0.121,0-0.215-0.094-0.215-0.229v-7.712c0-1.292,1.104-2.396,2.396-2.396h0.135
			c0.135,0,0.242,0.107,0.242,0.242s-0.107,0.229-0.242,0.229h-0.135c-1.09,0-1.911,0.929-1.925,1.925V85.722z"/>
		<path fill="#FFFFFF" d="M710.035,88.063v1.642c0,1.279-1.116,2.45-2.396,2.45c-1.278,0-2.382-1.157-2.382-2.45v-1.642
			c0-1.292,1.077-2.422,2.382-2.422C708.918,85.642,710.035,86.731,710.035,88.063z M709.564,88.063
			c0-0.982-0.848-1.951-1.925-1.951c-1.076,0-1.911,0.969-1.911,1.951v1.642c0,1.01,0.849,1.979,1.911,1.979
			c1.063,0,1.925-0.969,1.925-1.979V88.063z"/>
		<path fill="#FFFFFF" d="M715.44,86.61c0.229,0.323,0.336,0.78,0.336,1.238v0.605c0,1.278-0.901,2.234-2.193,2.234
			c-0.403,0-0.78-0.095-1.104-0.283c-0.27,0.121-0.538,0.296-0.538,0.646c0,1.359,4.253-0.027,4.253,2.396
			c0,1.157-0.97,1.816-2.517,1.816c-1.562,0-2.611-0.673-2.611-1.736c0-0.82,0.619-1.278,1.225-1.493
			c-0.484-0.135-0.821-0.377-0.821-0.956c0-0.498,0.256-0.74,0.66-0.929c-0.444-0.39-0.7-0.996-0.7-1.695v-0.605
			c0-1.292,0.861-2.207,2.167-2.207c0.659,0,1.211,0.242,1.602,0.646c0.242-0.457,0.673-0.821,1.009-0.821
			c0.202,0,0.283,0.135,0.283,0.27c0,0.161-0.121,0.256-0.242,0.256C716.018,85.991,715.696,86.112,715.44,86.61z M712.95,92.168
			c-0.713,0.202-1.413,0.565-1.413,1.319c0,0.794,0.781,1.346,2.141,1.346c1.332,0,2.045-0.538,2.045-1.373
			C715.722,92.182,713.811,92.289,712.95,92.168z M715.305,87.849c0-0.982-0.633-1.736-1.709-1.736
			c-1.077,0-1.696,0.754-1.696,1.736v0.592c0,1.01,0.633,1.776,1.71,1.776c1.05,0,1.695-0.754,1.695-1.763V87.849z"/>
		<path fill="#FFFFFF" d="M720.032,86.112c-0.942,0-1.871,0.727-1.871,1.951v3.769c0,0.121-0.107,0.242-0.242,0.242
			c-0.134,0-0.229-0.121-0.229-0.242v-5.881c0-0.135,0.095-0.229,0.229-0.229c0.135,0,0.242,0.095,0.242,0.229v0.713
			c0.31-0.525,0.929-1.022,1.871-1.022h0.498c0.121,0,0.229,0.107,0.229,0.242c0,0.121-0.107,0.229-0.229,0.229H720.032z"/>
		<path fill="#FFFFFF" d="M725.855,88.226v3.606c0,0.135-0.094,0.242-0.229,0.242s-0.242-0.107-0.242-0.242v-0.7
			c-0.457,0.525-1.13,1.023-2.019,1.023c-1.05,0-1.871-0.565-1.871-1.776c0-1.427,1.266-1.777,3.136-1.777h0.754v-0.376
			c0-1.01-0.498-2.113-1.776-2.113c-0.834,0-1.238,0.363-1.399,0.363c-0.148,0-0.242-0.175-0.242-0.27
			c0-0.255,0.848-0.564,1.669-0.564C725.291,85.642,725.855,86.893,725.855,88.226z M725.384,89.073h-0.74
			c-1.386,0-2.678,0.135-2.678,1.306c0,0.901,0.605,1.305,1.386,1.305c1.01,0,2.032-0.901,2.032-1.48V89.073z"/>
		<path fill="#FFFFFF" d="M728.038,85.951v0.713c0.296-0.525,0.902-1.022,1.804-1.022c1.319,0,2.423,1.09,2.423,2.422v1.642
			c0,1.279-1.117,2.45-2.396,2.45c-0.82,0-1.534-0.472-1.83-1.023v3.89c0,0.121-0.107,0.242-0.242,0.242s-0.229-0.121-0.229-0.242
			v-9.07c0-0.135,0.094-0.229,0.229-0.229S728.038,85.816,728.038,85.951z M731.792,88.063c0-0.982-0.861-1.951-1.911-1.951
			c-0.915,0-1.844,0.727-1.844,1.951v2.14c0,0.458,0.794,1.48,1.857,1.48c1.022,0,1.897-0.969,1.897-1.979V88.063z"/>
		<path fill="#FFFFFF" d="M734.288,91.832c0,0.121-0.107,0.242-0.242,0.242s-0.229-0.121-0.229-0.242v-9.865
			c0-0.135,0.094-0.229,0.229-0.229s0.242,0.094,0.242,0.229v4.697c0.296-0.525,0.902-1.022,1.804-1.022
			c1.319,0,2.423,1.09,2.423,2.422v3.769c0,0.161-0.121,0.242-0.242,0.242c-0.108,0-0.229-0.081-0.229-0.242v-3.769
			c0-0.982-0.861-1.951-1.911-1.951c-0.915,0-1.844,0.727-1.844,1.951V91.832z"/>
		<path fill="#FFFFFF" d="M740.831,83.191c0,0.229-0.188,0.431-0.418,0.431c-0.242,0-0.431-0.201-0.431-0.431
			c0-0.229,0.188-0.417,0.431-0.417C740.642,82.774,740.831,82.963,740.831,83.191z M740.655,85.951v5.881
			c0,0.121-0.107,0.242-0.242,0.242c-0.121,0-0.229-0.121-0.229-0.242v-5.881c0-0.135,0.107-0.229,0.229-0.229
			C740.547,85.722,740.655,85.816,740.655,85.951z"/>
		<path fill="#FFFFFF" d="M742.176,89.705v-1.614c0-1.373,0.78-2.449,2.463-2.449c1.076,0,1.763,0.511,1.763,0.794
			c0,0.121-0.121,0.229-0.242,0.229c-0.229,0-0.458-0.552-1.521-0.552c-1.292,0-1.992,0.754-1.992,1.979v1.614
			c0,1.226,0.687,1.979,2.005,1.979c1.131,0,1.359-0.552,1.602-0.552c0.121,0,0.229,0.108,0.229,0.229
			c0,0.282-0.7,0.794-1.844,0.794C742.97,92.155,742.176,91.105,742.176,89.705z"/>
	</g>
</g>
</svg>
