<?xml version="1.0" encoding="utf-8"?>
<!-- Generator: Adobe Illustrator 19.0.1, SVG Export Plug-In . SVG Version: 6.00 Build 0)  -->
<svg version="1.1" id="Layer_1" xmlns="http://www.w3.org/2000/svg" xmlns:xlink="http://www.w3.org/1999/xlink" x="0px" y="0px"
	 viewBox="0 0 807.061 720.641" enable-background="new 0 0 807.061 720.641" xml:space="preserve">
<g>
	<g>
		
			<rect x="531.299" y="542.609" fill="#FFFFFF" stroke="#363437" stroke-width="4.0116" stroke-linecap="round" stroke-linejoin="round" stroke-miterlimit="10" width="63.337" height="124.152"/>
		
			<path fill="#FFFFFF" stroke="#303333" stroke-width="4.0116" stroke-linecap="round" stroke-linejoin="round" stroke-miterlimit="10" d="
			M531.293,666.754c-7.014,11.58-5.773,26.853,3.973,37.176l1.671,1.77c11.704,12.397,31.243,12.959,43.64,1.255l131.412-124.064
			c12.397-11.704,12.959-31.243,1.255-43.64l-1.671-1.77c-11.704-12.397-31.242-12.959-43.64-1.255L566.09,632.374"/>
		<g>
			
				<path fill="#FFFFFF" stroke="#303333" stroke-width="4.0116" stroke-linecap="round" stroke-linejoin="round" stroke-miterlimit="10" d="
				M672.006,527.145c-2.144-4.395-0.302-9.744,4.093-11.888l52.119-25.423c4.395-2.144,9.744-0.302,11.888,4.093l26.166,53.641
				c2.144,4.395,0.302,9.744-4.093,11.888l-52.119,25.423c-4.395,2.144-9.744,0.302-11.888-4.093"/>
			<g>
				
					<path fill="#FFFFFF" stroke="#303333" stroke-width="3.7689" stroke-linecap="round" stroke-linejoin="round" stroke-miterlimit="10" d="
					M706.995,521.699c-2.755,1.344-5.449,1.543-5.986,0.443l-6.552-13.432c-0.537-1.1,1.279-3.1,4.034-4.444l32.679-15.94
					c2.755-1.344,5.449-1.543,5.986-0.443l6.552,13.432c0.537,1.1-1.279,3.1-4.034,4.444L706.995,521.699z"/>
				
					<path fill="#FFFFFF" stroke="#303333" stroke-width="3.7689" stroke-linecap="round" stroke-linejoin="round" stroke-miterlimit="10" d="
					M715.499,539.132c-2.755,1.344-5.449,1.543-5.986,0.443l-6.552-13.432c-0.537-1.1,1.279-3.1,4.034-4.444l32.679-15.94
					c2.755-1.344,5.449-1.543,5.986-0.443l6.552,13.432c0.537,1.1-1.279,3.1-4.034,4.444L715.499,539.132z"/>
				
					<path fill="#FFFFFF" stroke="#303333" stroke-width="3.7689" stroke-linecap="round" stroke-linejoin="round" stroke-miterlimit="10" d="
					M724.002,556.564c-2.755,1.344-5.449,1.543-5.986,0.443l-6.552-13.432c-0.537-1.1,1.279-3.1,4.034-4.444l32.679-15.94
					c2.755-1.344,5.449-1.543,5.986-0.443l6.552,13.432c0.537,1.1-1.279,3.1-4.034,4.444L724.002,556.564z"/>
				
					<path fill="#FFFFFF" stroke="#303333" stroke-width="3.7689" stroke-linecap="round" stroke-linejoin="round" stroke-miterlimit="10" d="
					M732.506,573.997c-2.755,1.344-5.449,1.543-5.986,0.443l-6.552-13.432c-0.537-1.1,1.279-3.1,4.034-4.444l32.679-15.94
					c2.755-1.344,5.449-1.543,5.986-0.443l6.552,13.432c0.537,1.1-1.279,3.1-4.034,4.444L732.506,573.997z"/>
			</g>
		</g>
		
			<path fill="#FFFFFF" stroke="#303333" stroke-width="3.4404" stroke-linecap="round" stroke-linejoin="round" stroke-miterlimit="10" d="
			M669.968,537.988l-9.544-32.103c-2.372-7.98,0.969-16.079,7.426-17.998l0,0c6.456-1.919,13.68,3.039,16.052,11.019l5.936,19.966"
			/>
	</g>
	<g>
		
			<rect x="231.61" y="542.609" fill="#FFFFFF" stroke="#363437" stroke-width="4.0116" stroke-linecap="round" stroke-linejoin="round" stroke-miterlimit="10" width="63.337" height="124.152"/>
		
			<path fill="#FFFFFF" stroke="#303333" stroke-width="4.0116" stroke-linecap="round" stroke-linejoin="round" stroke-miterlimit="10" d="
			M294.954,666.754c7.014,11.58,5.773,26.853-3.973,37.176l-1.671,1.77c-11.704,12.397-31.243,12.959-43.64,1.255L114.258,582.891
			c-12.397-11.704-12.959-31.243-1.255-43.64l1.671-1.77c11.704-12.397,31.243-12.959,43.64-1.255l101.842,96.148"/>
		<g>
			
				<path fill="#FFFFFF" stroke="#303333" stroke-width="4.0116" stroke-linecap="round" stroke-linejoin="round" stroke-miterlimit="10" d="
				M154.241,527.145c2.144-4.395,0.302-9.744-4.093-11.888l-52.119-25.423c-4.395-2.144-9.744-0.302-11.888,4.093l-26.166,53.641
				c-2.144,4.395-0.302,9.744,4.093,11.888l52.119,25.423c4.395,2.144,9.744,0.302,11.888-4.093"/>
			<g>
				
					<path fill="#FFFFFF" stroke="#303333" stroke-width="3.7689" stroke-linecap="round" stroke-linejoin="round" stroke-miterlimit="10" d="
					M119.251,521.699c2.755,1.344,5.449,1.543,5.986,0.443l6.552-13.432c0.537-1.1-1.279-3.1-4.034-4.444l-32.679-15.94
					c-2.755-1.344-5.449-1.543-5.986-0.443l-6.552,13.432c-0.537,1.1,1.279,3.1,4.034,4.444L119.251,521.699z"/>
				
					<path fill="#FFFFFF" stroke="#303333" stroke-width="3.7689" stroke-linecap="round" stroke-linejoin="round" stroke-miterlimit="10" d="
					M110.748,539.132c2.755,1.344,5.449,1.543,5.986,0.443l6.552-13.432c0.537-1.1-1.279-3.1-4.034-4.444l-32.679-15.94
					c-2.755-1.344-5.449-1.543-5.986-0.443l-6.552,13.432c-0.537,1.1,1.279,3.1,4.034,4.444L110.748,539.132z"/>
				
					<path fill="#FFFFFF" stroke="#303333" stroke-width="3.7689" stroke-linecap="round" stroke-linejoin="round" stroke-miterlimit="10" d="
					M102.244,556.564c2.755,1.344,5.449,1.543,5.986,0.443l6.552-13.432c0.537-1.1-1.279-3.1-4.034-4.444l-32.679-15.94
					c-2.755-1.344-5.449-1.543-5.986-0.443l-6.552,13.432c-0.537,1.1,1.279,3.1,4.034,4.444L102.244,556.564z"/>
				
					<path fill="#FFFFFF" stroke="#303333" stroke-width="3.7689" stroke-linecap="round" stroke-linejoin="round" stroke-miterlimit="10" d="
					M93.74,573.997c2.755,1.344,5.449,1.543,5.986,0.443l6.552-13.432c0.537-1.1-1.279-3.1-4.034-4.444l-32.679-15.94
					c-2.755-1.344-5.449-1.543-5.986-0.443l-6.552,13.432c-0.537,1.1,1.279,3.1,4.034,4.444L93.74,573.997z"/>
			</g>
		</g>
		
			<path fill="#FFFFFF" stroke="#303333" stroke-width="3.4404" stroke-linecap="round" stroke-linejoin="round" stroke-miterlimit="10" d="
			M156.278,537.988l9.544-32.103c2.372-7.98-0.969-16.079-7.426-17.998h0c-6.456-1.919-13.68,3.039-16.052,11.019l-5.936,19.966"/>
	</g>
	
		<path fill="#2CBDC2" stroke="#373538" stroke-width="5.3488" stroke-linecap="round" stroke-linejoin="round" stroke-miterlimit="10" d="
		M583.933,491.12V286.363c0-88.997-76.097-161.144-169.967-161.144s-169.967,72.147-169.967,161.144V491.12"/>
	
		<path fill="#FFFFFF" stroke="#303333" stroke-width="4.0116" stroke-linecap="round" stroke-linejoin="round" stroke-miterlimit="10" d="
		M532.811,542.609h62.536l0.974-58.894c0-18.208-15.54-32.968-34.71-32.968H266.32c-19.17,0-34.71,14.76-34.71,32.968l0,58.894
		h62.536v181.574h238.665V542.609z"/>
	
		<path fill="#FFFFFF" stroke="#363437" stroke-width="5.3488" stroke-linecap="round" stroke-linejoin="round" stroke-miterlimit="10" d="
		M471.443,475.949v-64.615H356.588v64.615c0,0,0,31.318,57.427,31.318S471.443,475.949,471.443,475.949z"/>
	
		<ellipse transform="matrix(-0.9295 -0.3688 0.3688 -0.9295 910.274 827.4984)" fill="#FFFFFF" stroke="#373538" stroke-width="5.3488" stroke-linecap="round" stroke-linejoin="round" stroke-miterlimit="10" cx="534.23" cy="326.744" rx="26.677" ry="45.039"/>
	<path fill="#FFFFFF" stroke="#373538" stroke-width="5.3488" stroke-miterlimit="10" d="M536.39,314.388
		c-0.08,7.749-0.185,15.686-0.185,23.766c0,86.27-54.728,110.055-122.238,110.055c-67.511,0-122.238-23.785-122.238-110.055
		c0-4.854-0.039-9.646-0.087-14.387c3.912-0.714,99.23-18.805,153.944-96.381C445.584,227.386,534.23,236.048,536.39,314.388z"/>
	
		<path fill="#FFFFFF" stroke="#373538" stroke-width="4.0116" stroke-linecap="round" stroke-linejoin="round" stroke-miterlimit="10" d="
		M392.618,347.043c2.815,8.227,11.307,22.759,21.348,22.759s18.532-14.532,21.348-22.759"/>
	
		<path fill="none" stroke="#363437" stroke-width="4.0116" stroke-linecap="round" stroke-linejoin="round" stroke-miterlimit="10" d="
		M502.738,301.245c-5.534-2.443-12.376-3.887-19.782-3.887c-11.591,0-21.8,3.537-27.776,8.905"/>
	
		<path fill="none" stroke="#363437" stroke-width="4.0116" stroke-linecap="round" stroke-linejoin="round" stroke-miterlimit="10" d="
		M359.843,299.445c5.235,1.562,9.687,3.924,12.908,6.817"/>
	
		<path fill="#FFFFFF" stroke="#373538" stroke-width="4.0116" stroke-linecap="round" stroke-linejoin="round" stroke-miterlimit="10" d="
		M479.786,382.781c0,19.63-29.469,35.544-65.82,35.544s-65.82-15.914-65.82-35.544H479.786z"/>
	<path fill="#373538" d="M413.966,396.942c-21.245,0-41.937-0.759-61.893-2.163c9.124,13.717,33.351,23.545,61.893,23.545
		s52.769-9.828,61.893-23.545C455.903,396.184,435.211,396.942,413.966,396.942z"/>
	
		<path fill="#FFFFFF" stroke="#373538" stroke-width="5.3488" stroke-linecap="round" stroke-linejoin="round" stroke-miterlimit="10" d="
		M291.641,323.767c0.048,4.741,0.087,9.533,0.087,14.387c0,10.596,0.845,20.226,2.419,29.009c-9.765-4.764-19.4-15.86-25.241-30.579
		c-1.127-2.84-2.05-5.678-2.795-8.486C266.111,328.097,287.779,324.564,291.641,323.767z"/>
	<g>
		
			<path fill="none" stroke="#353336" stroke-width="4.0116" stroke-linecap="round" stroke-linejoin="round" stroke-miterlimit="10" d="
			M404.386,589.466c-8.529,12.605-24.464,21.085-42.715,21.085c-27.238,0-49.319-18.888-49.319-42.187"/>
		
			<path fill="none" stroke="#353336" stroke-width="4.0116" stroke-linecap="round" stroke-linejoin="round" stroke-miterlimit="10" d="
			M423.545,589.466c8.529,12.605,24.464,21.085,42.715,21.085c27.238,0,49.319-18.888,49.319-42.187"/>
	</g>
	
		<line fill="none" stroke="#303333" stroke-width="4.0116" stroke-linecap="round" stroke-linejoin="round" stroke-miterlimit="10" x1="293.947" y1="531.99" x2="293.947" y2="541.441"/>
	
		<line fill="none" stroke="#303333" stroke-width="4.0116" stroke-linecap="round" stroke-linejoin="round" stroke-miterlimit="10" x1="532.984" y1="531.892" x2="532.984" y2="541.343"/>
	
		<path fill="none" stroke="#363437" stroke-width="2.6643" stroke-linecap="round" stroke-linejoin="round" stroke-miterlimit="10" d="
		M369.099,339.993c-3.506-6.819-10.942-11.523-19.548-11.523c-8.606,0-16.041,4.705-19.548,11.523"/>
	
		<path fill="none" stroke="#363437" stroke-width="2.6643" stroke-linecap="round" stroke-linejoin="round" stroke-miterlimit="10" d="
		M458.931,339.993c3.506-6.819,10.942-11.523,19.548-11.523c8.606,0,16.041,4.705,19.548,11.523"/>
</g>
</svg>
