<?xml version="1.0" encoding="utf-8"?>
<!-- Generator: Adobe Illustrator 19.0.1, SVG Export Plug-In . SVG Version: 6.00 Build 0)  -->
<svg version="1.1" id="Layer_1" xmlns="http://www.w3.org/2000/svg" xmlns:xlink="http://www.w3.org/1999/xlink" x="0px" y="0px"
	 viewBox="0 0 307.159 232.677" enable-background="new 0 0 307.159 232.677" xml:space="preserve">
<g>
	<g>
		<g>
			<rect x="194.875" y="158.211" fill="#FFFFFF" width="20.834" height="40.838"/>
			<path fill="#363437" d="M215.709,199.709h-20.834c-0.364,0-0.66-0.296-0.66-0.66v-40.838c0-0.364,0.296-0.66,0.66-0.66h20.834
				c0.364,0,0.66,0.296,0.66,0.66v40.838C216.369,199.413,216.073,199.709,215.709,199.709z M195.535,198.389h19.514v-39.519
				h-19.514V198.389z"/>
		</g>
		<g>
			<path fill="#FFFFFF" d="M194.873,199.047c-2.307,3.809-1.899,8.833,1.307,12.228l0.55,0.582
				c3.85,4.078,10.277,4.263,14.355,0.413l43.226-40.809c4.078-3.85,4.263-10.277,0.413-14.355l-0.55-0.582
				c-3.85-4.078-10.277-4.263-14.355-0.413l-33.5,31.627"/>
			<path fill="#303333" d="M204.121,215.701c-0.106,0-0.212-0.001-0.319-0.005c-2.888-0.083-5.57-1.286-7.553-3.386l-0.55-0.582
				c-3.329-3.525-3.901-8.881-1.391-13.023c0.189-0.312,0.595-0.411,0.906-0.223c0.312,0.189,0.411,0.595,0.223,0.906
				c-2.203,3.637-1.701,8.338,1.222,11.434l0.55,0.582c1.741,1.844,4.096,2.9,6.631,2.973c2.532,0.065,4.947-0.846,6.791-2.587
				l43.226-40.809c1.844-1.741,2.9-4.096,2.973-6.631c0.073-2.535-0.846-4.947-2.587-6.791l-0.55-0.582
				c-1.741-1.844-4.096-2.9-6.631-2.973c-2.538-0.073-4.947,0.846-6.791,2.587l-33.5,31.627c-0.265,0.25-0.682,0.238-0.933-0.027
				c-0.25-0.265-0.238-0.683,0.027-0.933l33.5-31.627c2.101-1.983,4.845-3.037,7.735-2.946c2.887,0.083,5.569,1.286,7.553,3.386
				l0.55,0.582c1.983,2.101,3.03,4.847,2.946,7.735c-0.083,2.887-1.286,5.569-3.386,7.553l-43.226,40.81
				C209.514,214.66,206.892,215.701,204.121,215.701z"/>
		</g>
		<g>
			<g>
				<path fill="#FFFFFF" d="M241.159,153.124c-0.705-1.446-0.099-3.205,1.346-3.91l17.144-8.363c1.446-0.705,3.205-0.099,3.91,1.346
					l8.607,17.645c0.705,1.446,0.099,3.205-1.346,3.91l-17.144,8.363c-1.446,0.705-3.205,0.099-3.91-1.346"/>
				<path fill="#303333" d="M252.4,173.07c-1.328,0-2.607-0.741-3.227-2.013c-0.16-0.327-0.024-0.722,0.304-0.882
					c0.326-0.159,0.722-0.024,0.882,0.304c0.264,0.541,0.725,0.947,1.299,1.145c0.574,0.198,1.188,0.162,1.729-0.102l17.144-8.363
					c0.541-0.264,0.947-0.725,1.145-1.299c0.198-0.574,0.161-1.188-0.102-1.729l-8.607-17.645c-0.264-0.541-0.725-0.947-1.299-1.145
					c-0.574-0.197-1.188-0.161-1.729,0.103l-17.144,8.363c-1.122,0.547-1.59,1.906-1.042,3.028c0.16,0.327,0.024,0.722-0.304,0.882
					c-0.327,0.16-0.722,0.024-0.882-0.304c-0.418-0.857-0.477-1.829-0.164-2.737c0.312-0.907,0.957-1.637,1.814-2.056l17.144-8.363
					c0.857-0.419,1.829-0.477,2.737-0.164c0.907,0.312,1.638,0.957,2.056,1.814l8.607,17.645c0.866,1.776,0.126,3.926-1.65,4.792
					l-17.144,8.363C253.461,172.954,252.926,173.07,252.4,173.07z"/>
			</g>
			<g>
				<g>
					<path fill="#FFFFFF" d="M252.668,151.333c-0.906,0.442-1.792,0.508-1.969,0.146l-2.155-4.418
						c-0.177-0.362,0.421-1.02,1.327-1.462l10.749-5.243c0.906-0.442,1.792-0.508,1.969-0.146l2.155,4.418
						c0.177,0.362-0.421,1.02-1.327,1.462L252.668,151.333z"/>
					<path fill="#303333" d="M251.274,152.332c-0.733,0-1.022-0.358-1.132-0.582l-2.155-4.418c-0.41-0.839,0.514-1.756,1.612-2.291
						l10.749-5.243c1.098-0.535,2.388-0.7,2.798,0.139l2.155,4.418c0.118,0.242,0.229,0.745-0.355,1.389
						c-0.303,0.334-0.749,0.654-1.257,0.901l-10.749,5.243l0,0c-0.508,0.248-1.035,0.402-1.484,0.436
						C251.392,152.33,251.331,152.332,251.274,152.332z M251.199,151.09c0.173,0.017,0.609-0.028,1.197-0.314l10.749-5.243
						c0.588-0.287,0.891-0.603,0.985-0.75l-2.041-4.185c-0.173-0.016-0.609,0.028-1.197,0.314l-10.749,5.243
						c-0.588,0.287-0.89,0.604-0.985,0.75L251.199,151.09z"/>
				</g>
				<g>
					<path fill="#FFFFFF" d="M255.465,157.067c-0.906,0.442-1.792,0.508-1.969,0.146l-2.155-4.418
						c-0.177-0.362,0.421-1.02,1.327-1.462l10.749-5.243c0.906-0.442,1.792-0.508,1.969-0.146l2.155,4.418
						c0.177,0.362-0.421,1.02-1.327,1.462L255.465,157.067z"/>
					<path fill="#303333" d="M254.066,158.07c-0.505,0-0.924-0.169-1.127-0.585l-2.155-4.418c-0.409-0.84,0.515-1.756,1.612-2.291
						l10.749-5.243c1.097-0.535,2.389-0.7,2.798,0.139l2.155,4.418c0.409,0.84-0.515,1.756-1.612,2.291l-10.749,5.243l0,0
						C255.183,157.894,254.58,158.07,254.066,158.07z M253.996,156.824c0.176,0.014,0.61-0.028,1.197-0.314l10.749-5.243
						c0.588-0.287,0.891-0.603,0.985-0.75l-2.041-4.185c-0.174-0.013-0.61,0.028-1.197,0.314l-10.749,5.243
						c-0.588,0.287-0.891,0.603-0.985,0.75L253.996,156.824z"/>
				</g>
				<g>
					<path fill="#FFFFFF" d="M258.262,162.801c-0.906,0.442-1.792,0.508-1.969,0.146l-2.155-4.418
						c-0.177-0.362,0.421-1.02,1.327-1.462l10.749-5.243c0.906-0.442,1.792-0.508,1.969-0.146l2.155,4.418
						c0.177,0.362-0.421,1.02-1.327,1.462L258.262,162.801z"/>
					<path fill="#303333" d="M256.868,163.801c-0.733,0-1.022-0.358-1.132-0.582l-2.155-4.418c-0.118-0.242-0.229-0.745,0.355-1.389
						c0.303-0.334,0.749-0.654,1.257-0.901l10.749-5.243c0.507-0.248,1.034-0.402,1.484-0.436c0.87-0.063,1.196,0.333,1.314,0.575
						l2.155,4.418c0.118,0.242,0.229,0.745-0.355,1.389c-0.303,0.334-0.749,0.654-1.257,0.901l-10.749,5.243
						c-0.507,0.248-1.034,0.402-1.484,0.436C256.986,163.799,256.926,163.801,256.868,163.801z M256.794,162.559
						c0.174,0.016,0.609-0.028,1.197-0.314l0,0l10.749-5.243c0.588-0.287,0.891-0.603,0.985-0.75l-2.041-4.185
						c-0.174-0.017-0.609,0.027-1.197,0.314l-10.749,5.243c-0.588,0.287-0.891,0.603-0.985,0.75L256.794,162.559z"/>
				</g>
				<g>
					<path fill="#FFFFFF" d="M261.059,168.536c-0.906,0.442-1.792,0.508-1.969,0.146l-2.155-4.418
						c-0.177-0.362,0.421-1.02,1.327-1.462l10.749-5.243c0.906-0.442,1.792-0.508,1.969-0.146l2.155,4.418
						c0.177,0.362-0.421,1.02-1.327,1.462L261.059,168.536z"/>
					<path fill="#303333" d="M259.661,169.539c-0.505,0-0.924-0.17-1.127-0.586l-2.155-4.418c-0.409-0.839,0.515-1.755,1.612-2.291
						l10.749-5.243c1.097-0.535,2.388-0.7,2.798,0.14l2.155,4.418c0.409,0.839-0.515,1.755-1.612,2.291l-10.749,5.243l0,0
						C260.777,169.363,260.175,169.539,259.661,169.539z M259.591,168.293c0.172,0.017,0.609-0.027,1.197-0.314l10.749-5.243
						c0.588-0.287,0.891-0.603,0.985-0.75l-2.041-4.185c-0.171-0.016-0.609,0.027-1.197,0.314l-10.749,5.243
						c-0.588,0.287-0.89,0.603-0.985,0.75L259.591,168.293z"/>
				</g>
			</g>
		</g>
		<g>
			<path fill="#FFFFFF" d="M240.488,156.691l-3.139-10.56c-0.78-2.625,0.319-5.289,2.443-5.92l0,0c2.124-0.631,4.5,1,5.28,3.624
				l1.952,6.568"/>
			<path fill="#303333" d="M240.488,157.257c-0.244,0-0.469-0.159-0.542-0.405l-3.139-10.56c-0.414-1.393-0.361-2.844,0.151-4.085
				c0.529-1.283,1.478-2.184,2.672-2.539c1.194-0.356,2.481-0.118,3.625,0.667c1.107,0.76,1.944,1.945,2.358,3.339l1.952,6.568
				c0.089,0.3-0.082,0.615-0.381,0.703c-0.299,0.09-0.615-0.081-0.703-0.381l-1.952-6.568c-0.341-1.146-1.021-2.115-1.914-2.728
				c-0.857-0.588-1.802-0.77-2.662-0.515c-0.86,0.256-1.552,0.925-1.949,1.886c-0.414,1.002-0.454,2.185-0.113,3.331l3.139,10.56
				c0.089,0.3-0.082,0.615-0.381,0.703C240.596,157.249,240.541,157.257,240.488,157.257z"/>
		</g>
	</g>
	<g>
		<g>
			<rect x="96.296" y="158.211" fill="#FFFFFF" width="20.834" height="40.838"/>
			<path fill="#363437" d="M117.13,199.709H96.296c-0.364,0-0.66-0.296-0.66-0.66v-40.838c0-0.364,0.296-0.66,0.66-0.66h20.834
				c0.364,0,0.66,0.296,0.66,0.66v40.838C117.789,199.413,117.494,199.709,117.13,199.709z M96.956,198.389h19.514v-39.519H96.956
				V198.389z"/>
		</g>
		<g>
			<path fill="#FFFFFF" d="M117.132,199.047c2.307,3.809,1.899,8.833-1.307,12.228l-0.55,0.582
				c-3.85,4.078-10.277,4.263-14.355,0.413l-43.226-40.809c-4.078-3.85-4.263-10.277-0.413-14.355l0.55-0.582
				c3.85-4.078,10.277-4.263,14.355-0.413l33.5,31.627"/>
			<path fill="#303333" d="M107.883,215.701c-2.771,0-5.393-1.041-7.416-2.95l-43.226-40.81c-2.101-1.983-3.303-4.665-3.386-7.552
				c-0.083-2.888,0.963-5.634,2.946-7.735l0.55-0.582c1.983-2.101,4.665-3.303,7.552-3.386c2.883-0.092,5.634,0.963,7.735,2.946
				l33.5,31.627c0.265,0.25,0.277,0.668,0.027,0.933c-0.251,0.265-0.668,0.276-0.933,0.027l-33.5-31.627
				c-1.844-1.741-4.249-2.655-6.791-2.587c-2.535,0.073-4.89,1.129-6.631,2.973l-0.55,0.582c-1.741,1.844-2.659,4.256-2.587,6.791
				c0.073,2.535,1.129,4.89,2.973,6.631l43.226,40.81c1.844,1.741,4.259,2.653,6.791,2.587c2.535-0.073,4.89-1.129,6.631-2.973
				l0.549-0.582c2.923-3.095,3.425-7.797,1.222-11.434c-0.189-0.312-0.089-0.717,0.223-0.906c0.311-0.189,0.717-0.089,0.906,0.223
				c2.509,4.142,1.937,9.497-1.392,13.023l-0.549,0.582c-1.983,2.101-4.666,3.303-7.553,3.386
				C108.096,215.7,107.989,215.701,107.883,215.701z"/>
		</g>
		<g>
			<g>
				<path fill="#FFFFFF" d="M70.846,153.124c0.705-1.446,0.099-3.205-1.346-3.91l-17.144-8.363c-1.446-0.705-3.205-0.099-3.91,1.346
					l-8.607,17.645c-0.705,1.446-0.099,3.205,1.346,3.91l17.144,8.363c1.446,0.705,3.205,0.099,3.91-1.346"/>
				<path fill="#303333" d="M59.605,173.07c-0.527,0-1.061-0.117-1.565-0.363l-17.144-8.363c-1.776-0.866-2.517-3.016-1.65-4.792
					l8.607-17.645c0.418-0.858,1.148-1.502,2.056-1.814c0.907-0.313,1.879-0.254,2.737,0.164l17.143,8.363
					c0.858,0.418,1.502,1.148,1.814,2.056c0.313,0.907,0.254,1.879-0.164,2.737c-0.16,0.328-0.555,0.464-0.882,0.304
					c-0.328-0.16-0.464-0.555-0.304-0.882c0.547-1.122,0.08-2.481-1.042-3.028l-17.144-8.363c-0.541-0.264-1.154-0.3-1.729-0.103
					c-0.574,0.198-1.036,0.604-1.299,1.145l-8.607,17.645c-0.264,0.541-0.3,1.155-0.102,1.729s0.604,1.036,1.145,1.299l17.144,8.363
					c0.542,0.264,1.155,0.3,1.729,0.102c0.574-0.198,1.036-0.604,1.299-1.145c0.16-0.327,0.556-0.463,0.882-0.304
					c0.328,0.16,0.464,0.555,0.304,0.882C62.212,172.33,60.933,173.07,59.605,173.07z"/>
			</g>
			<g>
				<g>
					<path fill="#FFFFFF" d="M59.336,151.333c0.906,0.442,1.792,0.508,1.969,0.146l2.155-4.418c0.177-0.362-0.421-1.02-1.327-1.462
						l-10.749-5.243c-0.906-0.442-1.792-0.508-1.969-0.146l-2.155,4.418c-0.177,0.362,0.421,1.02,1.327,1.462L59.336,151.333z"/>
					<path fill="#303333" d="M60.735,152.335c-0.514,0-1.117-0.175-1.671-0.446l0,0l-10.749-5.243
						c-1.097-0.535-2.021-1.451-1.613-2.29l2.155-4.419c0.41-0.839,1.7-0.675,2.798-0.139l10.749,5.243
						c1.098,0.535,2.021,1.452,1.612,2.291l-2.155,4.418C61.66,152.166,61.24,152.335,60.735,152.335z M59.608,150.776
						c0.588,0.287,1.026,0.331,1.197,0.314l2.041-4.185c-0.094-0.146-0.397-0.463-0.985-0.75l-10.749-5.243
						c-0.588-0.287-1.024-0.331-1.197-0.314l-2.041,4.185c0.094,0.146,0.397,0.463,0.985,0.75L59.608,150.776z"/>
				</g>
				<g>
					<path fill="#FFFFFF" d="M56.539,157.067c0.906,0.442,1.792,0.508,1.969,0.146l2.155-4.418c0.177-0.362-0.421-1.02-1.327-1.462
						l-10.749-5.243c-0.906-0.442-1.792-0.508-1.969-0.146l-2.155,4.418c-0.177,0.362,0.421,1.02,1.327,1.462L56.539,157.067z"/>
					<path fill="#303333" d="M57.938,158.07c-0.514,0-1.117-0.176-1.671-0.446l0,0l-10.749-5.243
						c-0.508-0.247-0.954-0.568-1.257-0.901c-0.585-0.644-0.473-1.147-0.355-1.389l2.155-4.418c0.41-0.839,1.701-0.675,2.798-0.139
						l10.749,5.243c1.097,0.535,2.021,1.451,1.613,2.29l-2.155,4.419C58.863,157.9,58.443,158.07,57.938,158.07z M56.811,156.51
						c0.587,0.286,1.021,0.328,1.197,0.314l2.041-4.185c-0.094-0.146-0.397-0.463-0.985-0.75l-10.749-5.243
						c-0.587-0.287-1.022-0.329-1.197-0.314l-2.041,4.185c0.094,0.146,0.397,0.463,0.985,0.75L56.811,156.51z"/>
				</g>
				<g>
					<path fill="#FFFFFF" d="M53.742,162.801c0.906,0.442,1.792,0.508,1.969,0.146l2.155-4.418c0.177-0.362-0.421-1.02-1.327-1.462
						l-10.749-5.243c-0.906-0.442-1.792-0.508-1.969-0.146l-2.155,4.418c-0.177,0.362,0.421,1.02,1.327,1.462L53.742,162.801z"/>
					<path fill="#303333" d="M55.137,163.801c-0.058,0-0.119-0.002-0.182-0.007c-0.45-0.033-0.977-0.188-1.484-0.436l-10.749-5.243
						c-0.508-0.247-0.954-0.568-1.257-0.901c-0.585-0.644-0.473-1.147-0.355-1.389l2.155-4.418c0.118-0.242,0.445-0.637,1.314-0.575
						c0.45,0.033,0.977,0.188,1.484,0.436l10.749,5.243c0.508,0.247,0.954,0.568,1.257,0.901c0.585,0.644,0.473,1.147,0.355,1.389
						l-2.155,4.418C56.159,163.443,55.869,163.801,55.137,163.801z M42.28,156.251c0.094,0.146,0.397,0.463,0.985,0.75l10.749,5.243
						l0,0c0.588,0.287,1.023,0.331,1.197,0.314l2.041-4.185c-0.094-0.146-0.397-0.463-0.985-0.75l-10.749-5.243
						c-0.588-0.287-1.023-0.331-1.197-0.314L42.28,156.251z"/>
				</g>
				<g>
					<path fill="#FFFFFF" d="M50.945,168.536c0.906,0.442,1.792,0.508,1.969,0.146l2.155-4.418c0.177-0.362-0.421-1.02-1.327-1.462
						l-10.749-5.243c-0.906-0.442-1.792-0.508-1.969-0.146l-2.155,4.418c-0.177,0.362,0.421,1.02,1.327,1.462L50.945,168.536z"/>
					<path fill="#303333" d="M52.344,169.538c-0.514,0-1.117-0.175-1.671-0.446l0,0l-10.749-5.243
						c-1.097-0.535-2.021-1.451-1.612-2.291l2.155-4.418c0.41-0.84,1.7-0.675,2.798-0.14l10.749,5.243
						c1.097,0.535,2.021,1.452,1.612,2.291l-2.155,4.418C53.268,169.369,52.849,169.538,52.344,169.538z M51.217,167.979
						c0.588,0.287,1.026,0.331,1.197,0.314l2.041-4.185c-0.094-0.147-0.397-0.463-0.985-0.75l-10.749-5.243
						c-0.588-0.287-1.025-0.33-1.197-0.314l-2.041,4.185c0.094,0.147,0.397,0.463,0.985,0.75L51.217,167.979z"/>
				</g>
			</g>
		</g>
		<g>
			<path fill="#FFFFFF" d="M71.516,156.691l3.139-10.56c0.78-2.625-0.319-5.289-2.443-5.92h0c-2.124-0.631-4.5,1-5.28,3.624
				l-1.952,6.568"/>
			<path fill="#303333" d="M71.516,157.257c-0.053,0-0.108-0.008-0.162-0.024c-0.299-0.089-0.47-0.404-0.381-0.703l3.139-10.56
				c0.34-1.146,0.301-2.329-0.113-3.331c-0.396-0.961-1.088-1.631-1.949-1.886c-0.86-0.255-1.806-0.073-2.663,0.515
				c-0.894,0.614-1.573,1.582-1.914,2.728l-1.952,6.568c-0.089,0.3-0.405,0.47-0.703,0.381c-0.299-0.089-0.47-0.404-0.381-0.703
				l1.952-6.568c0.414-1.393,1.252-2.579,2.358-3.339c1.144-0.785,2.433-1.022,3.625-0.667c1.194,0.355,2.143,1.256,2.672,2.539
				c0.512,1.241,0.566,2.692,0.151,4.085l-3.139,10.56C71.985,157.098,71.76,157.257,71.516,157.257z"/>
		</g>
	</g>
	<g>
		<path fill="#2CBDC2" d="M212.188,141.274V73.922c0-29.275-25.031-53.006-55.909-53.006s-55.909,23.732-55.909,53.006v67.352"/>
		<path fill="#373538" d="M212.188,142.154c-0.486,0-0.88-0.394-0.88-0.88V73.922c0-28.743-24.686-52.127-55.029-52.127
			s-55.029,23.384-55.029,52.127v67.353c0,0.486-0.394,0.88-0.88,0.88c-0.486,0-0.88-0.394-0.88-0.88V73.922
			c0-29.713,25.475-53.886,56.788-53.886s56.788,24.173,56.788,53.886v67.353C213.068,141.76,212.674,142.154,212.188,142.154z"/>
	</g>
	<g>
		<path fill="#FFFFFF" d="M195.372,158.211h20.571l0.32-19.373c0-5.989-5.112-10.844-11.417-10.844h-97.133
			c-6.306,0-11.417,4.855-11.417,10.844l0,19.373h20.571v59.727h78.506V158.211z"/>
		<path fill="#303333" d="M195.372,218.597h-78.506c-0.364,0-0.66-0.296-0.66-0.66v-59.067H96.296c-0.364,0-0.66-0.296-0.66-0.66
			v-19.373c0-6.343,5.418-11.504,12.077-11.504h97.133c6.659,0,12.077,5.161,12.077,11.504l-0.32,19.384
			c-0.006,0.36-0.3,0.649-0.66,0.649h-19.911v59.067C196.032,218.302,195.737,218.597,195.372,218.597z M117.526,217.278h77.187
			v-59.067c0-0.364,0.296-0.66,0.66-0.66h19.922l0.309-18.724c0-5.605-4.826-10.174-10.758-10.174h-97.133
			c-5.932,0-10.758,4.569-10.758,10.185v18.713h19.911c0.364,0,0.66,0.296,0.66,0.66V217.278z"/>
	</g>
	<g>
		<path fill="#FFFFFF" d="M175.186,136.284v-21.254h-37.78v21.254c0,0,0,10.302,18.89,10.302S175.186,136.284,175.186,136.284z"/>
		<path fill="#363437" d="M156.296,147.465c-8.091,0-13.87-1.829-17.177-5.436c-2.563-2.795-2.593-5.626-2.593-5.745v-21.254
			c0-0.486,0.394-0.88,0.88-0.88h37.78c0.486,0,0.88,0.394,0.88,0.88v21.254c0,0.119-0.03,2.95-2.593,5.745
			C170.166,145.636,164.387,147.465,156.296,147.465z M138.285,115.909v20.375c0.005,0.379,0.322,9.422,18.01,9.422
			c17.665,0,18.005-9.019,18.01-9.426v-20.371H138.285z"/>
	</g>
	<g>
		
			<ellipse transform="matrix(-0.9295 -0.3688 0.3688 -0.9295 345.7045 240.4946)" fill="#FFFFFF" cx="195.839" cy="87.205" rx="8.775" ry="14.815"/>
		<path fill="#373538" d="M192.426,102.241c-0.815,0-1.612-0.146-2.376-0.448c-5.032-1.997-6.431-9.969-3.185-18.149
			c1.517-3.823,3.837-7.076,6.532-9.16c2.828-2.187,5.751-2.851,8.23-1.866c2.479,0.984,4.152,3.47,4.711,7.002
			c0.533,3.366-0.009,7.324-1.526,11.147C202.06,97.703,196.977,102.241,192.426,102.241z M199.276,73.934
			c-1.494,0-3.146,0.659-4.802,1.94c-2.449,1.895-4.571,4.884-5.973,8.418c-2.786,7.021-1.779,14.286,2.199,15.865
			c3.981,1.579,9.693-3.021,12.479-10.041c1.402-3.534,1.908-7.164,1.424-10.223c-0.458-2.893-1.744-4.896-3.622-5.641
			C200.443,74.039,199.872,73.934,199.276,73.934z"/>
	</g>
	<g>
		<path fill="#FFFFFF" d="M196.549,83.14c-0.026,2.549-0.061,5.16-0.061,7.818c0,28.377-18.002,36.201-40.209,36.201
			c-22.207,0-40.209-7.824-40.209-36.201c0-1.597-0.013-3.173-0.029-4.732c1.287-0.235,32.641-6.186,50.638-31.703
			C166.68,54.522,195.839,57.371,196.549,83.14z"/>
		<path fill="#373538" d="M156.279,128.039c-12.694,0-22.168-2.498-28.963-7.637c-8.046-6.085-12.126-15.992-12.126-29.444
			c0-1.671-0.014-3.325-0.028-4.723l-0.008-0.741l0.729-0.133c1.311-0.239,32.306-6.147,50.077-31.345l0.295-0.419l0.509,0.05
			c0.305,0.03,7.55,0.775,14.997,4.745c9.95,5.304,15.367,13.854,15.667,24.725l0,0.016l-0.015,1.393
			c-0.023,2.092-0.046,4.255-0.046,6.432c0,13.452-4.08,23.358-12.126,29.444C178.447,125.541,168.973,128.039,156.279,128.039z
			 M116.929,86.946c0.011,1.233,0.022,2.616,0.022,4.012c0,12.871,3.845,22.306,11.428,28.041
			c6.478,4.899,15.605,7.281,27.901,7.281c12.297,0,21.423-2.382,27.901-7.281c7.583-5.735,11.428-15.169,11.428-28.041
			c0-2.187,0.024-4.355,0.047-6.452l0.014-1.358c-0.29-10.321-5.231-18.12-14.688-23.179c-6.058-3.241-12.139-4.268-13.89-4.51
			C150.166,79.058,121.942,85.895,116.929,86.946z"/>
	</g>
	<g>
		<path fill="#FFFFFF" d="M149.257,93.881c0.926,2.706,3.719,7.486,7.022,7.486s6.096-4.78,7.022-7.486"/>
		<path fill="#373538" d="M156.279,102.027c-3.593,0-6.597-4.866-7.646-7.932c-0.118-0.345,0.066-0.72,0.411-0.838
			c0.345-0.119,0.72,0.066,0.838,0.411c0.411,1.201,1.287,3.029,2.511,4.559c0.906,1.132,2.315,2.481,3.887,2.481
			c1.572,0,2.982-1.349,3.887-2.481c1.224-1.53,2.1-3.358,2.511-4.559c0.118-0.344,0.493-0.529,0.838-0.411
			c0.345,0.118,0.529,0.493,0.411,0.838C162.876,97.162,159.872,102.027,156.279,102.027z"/>
	</g>
	<g>
		<path fill="#FFFFFF" d="M177.93,105.637c0,6.457-9.693,11.692-21.651,11.692c-11.957,0-21.651-5.235-21.651-11.692H177.93z"/>
		<path fill="#373538" d="M156.279,117.989c-5.891,0-11.439-1.244-15.623-3.504c-4.312-2.329-6.688-5.471-6.688-8.848
			c0-0.364,0.296-0.66,0.66-0.66h43.302c0.364,0,0.66,0.296,0.66,0.66c0,3.377-2.375,6.519-6.688,8.848
			C167.718,116.744,162.17,117.989,156.279,117.989z M135.325,106.297c0.652,5.777,9.801,10.372,20.954,10.372
			c11.153,0,20.302-4.595,20.954-10.372H135.325z"/>
	</g>
	<g>
		<path fill="#373538" d="M156.279,110.295c-6.988,0-13.795-0.25-20.359-0.711c3.001,4.512,10.971,7.745,20.359,7.745
			c9.388,0,17.358-3.233,20.359-7.745C170.074,110.046,163.268,110.295,156.279,110.295z"/>
	</g>
	<g>
		<path fill="#FFFFFF" d="M116.042,86.225c0.016,1.559,0.029,3.136,0.029,4.732c0,3.485,0.278,6.653,0.796,9.542
			c-3.212-1.567-6.381-5.217-8.303-10.059c-0.371-0.934-0.674-1.868-0.919-2.791C107.644,87.65,114.772,86.487,116.042,86.225z"/>
		<path fill="#373538" d="M116.866,101.38c-0.131,0-0.263-0.03-0.386-0.089c-3.539-1.726-6.804-5.661-8.735-10.525
			c-0.371-0.934-0.691-1.907-0.952-2.89c-0.064-0.24-0.023-0.496,0.112-0.704c0.135-0.208,0.352-0.35,0.597-0.39
			c0.071-0.012,7.124-1.162,8.361-1.418c0.259-0.053,0.526,0.012,0.73,0.177c0.205,0.165,0.325,0.413,0.327,0.676
			c0.014,1.403,0.029,3.063,0.029,4.741c0,3.332,0.263,6.491,0.782,9.387c0.058,0.326-0.071,0.657-0.336,0.857
			C117.241,101.319,117.054,101.38,116.866,101.38z M108.763,88.358c0.184,0.597,0.391,1.186,0.618,1.759
			c1.479,3.726,3.772,6.839,6.323,8.663c-0.341-2.467-0.513-5.09-0.513-7.822c0-1.27-0.008-2.531-0.018-3.677
			C113.44,87.587,110.343,88.099,108.763,88.358z"/>
	</g>
	<g>
		<g>
			<path fill="#353336" d="M139.078,181.219c-9.309,0-16.883-6.521-16.883-14.537c0-0.364,0.296-0.66,0.66-0.66
				s0.66,0.296,0.66,0.66c0,7.288,6.982,13.217,15.563,13.217c5.556,0,10.73-2.546,13.504-6.646
				c0.204-0.302,0.614-0.382,0.916-0.177c0.302,0.204,0.381,0.614,0.177,0.916C150.659,178.451,145.066,181.219,139.078,181.219z"/>
		</g>
		<g>
			<path fill="#353336" d="M173.481,181.219c-5.988,0-11.581-2.769-14.597-7.226c-0.204-0.302-0.125-0.712,0.177-0.916
				c0.302-0.204,0.712-0.125,0.916,0.177c2.774,4.099,7.948,6.646,13.504,6.646c8.581,0,15.563-5.929,15.563-13.217
				c0-0.364,0.296-0.66,0.66-0.66c0.364,0,0.66,0.296,0.66,0.66C190.363,174.698,182.79,181.219,173.481,181.219z"/>
		</g>
	</g>
	<g>
		<path fill="#303333" d="M116.801,158.486c-0.364,0-0.66-0.296-0.66-0.66v-3.109c0-0.364,0.296-0.66,0.66-0.66
			s0.66,0.296,0.66,0.66v3.109C117.461,158.191,117.165,158.486,116.801,158.486z"/>
	</g>
	<g>
		<path fill="#303333" d="M195.429,158.454c-0.364,0-0.66-0.296-0.66-0.66v-3.109c0-0.364,0.296-0.66,0.66-0.66
			s0.66,0.296,0.66,0.66v3.109C196.089,158.158,195.793,158.454,195.429,158.454z"/>
	</g>
	<g>
		<path fill="#363437" d="M141.521,92.001c-0.159,0-0.312-0.087-0.39-0.238c-1.11-2.158-3.481-3.553-6.04-3.553
			c-2.56,0-4.931,1.395-6.04,3.553c-0.11,0.215-0.374,0.301-0.59,0.189c-0.215-0.111-0.3-0.375-0.189-0.59
			c1.258-2.447,3.935-4.029,6.819-4.029c2.885,0,5.561,1.581,6.82,4.029c0.111,0.215,0.026,0.48-0.189,0.59
			C141.657,91.986,141.589,92.001,141.521,92.001z"/>
	</g>
	<g>
		<path fill="#363437" d="M171.07,92.001c-0.067,0-0.136-0.015-0.2-0.049c-0.215-0.111-0.3-0.375-0.189-0.59
			c1.259-2.447,3.935-4.029,6.82-4.029c2.885,0,5.561,1.581,6.82,4.029c0.111,0.215,0.026,0.48-0.189,0.59
			c-0.215,0.111-0.479,0.026-0.59-0.189c-1.11-2.158-3.481-3.553-6.04-3.553c-2.56,0-4.931,1.395-6.04,3.553
			C171.382,91.914,171.229,92.001,171.07,92.001z"/>
	</g>
</g>
</svg>
