<?xml version="1.0" encoding="utf-8"?>
<!-- Generator: Adobe Illustrator 19.0.1, SVG Export Plug-In . SVG Version: 6.00 Build 0)  -->
<svg version="1.1" id="Layer_1" xmlns="http://www.w3.org/2000/svg" xmlns:xlink="http://www.w3.org/1999/xlink" x="0px" y="0px"
	 viewBox="0 0 292.485 251.411" enable-background="new 0 0 292.485 251.411" xml:space="preserve">
<g>
	<path fill="#31BEC3" d="M238.932,184.493c0.029-11.271,0.047-55.159,0.047-56.131c0-55.391-44.903-100.294-100.294-100.294
		c-55.391,0-100.294,44.903-100.294,100.294c0,0.972,0.018,44.86,0.047,56.131H238.932z"/>
	<g>
		<g>
			<line fill="#FFFFFF" x1="100.359" y1="105.147" x2="100.359" y2="118.336"/>
			<path fill="#3D383A" d="M100.359,121.111c-1.533,0-2.775-1.242-2.775-2.775v-13.189c0-1.533,1.242-2.775,2.775-2.775
				s2.775,1.242,2.775,2.775v13.189C103.134,119.869,101.892,121.111,100.359,121.111z"/>
		</g>
		<g>
			<line fill="#FFFFFF" x1="194.883" y1="105.147" x2="194.883" y2="118.336"/>
			<path fill="#3D383A" d="M194.882,121.111c-1.533,0-2.775-1.242-2.775-2.775v-13.189c0-1.533,1.243-2.775,2.775-2.775
				c1.533,0,2.775,1.242,2.775,2.775v13.189C197.658,119.869,196.415,121.111,194.882,121.111z"/>
		</g>
	</g>
	<g>
		<path fill="#FFFFFF" d="M202.652,132.625c1.383,0,2.704,0.457,3.637,1.259c0.933,0.802,1.393,1.875,1.272,2.957
			c-2.715,24.127-28.515,43.046-59.94,43.046c-31.428,0-57.228-18.921-59.94-43.051c-0.123-1.082,0.34-2.155,1.275-2.956
			c0.936-0.801,2.256-1.255,3.639-1.255H202.652z"/>
		<path fill="#3D383A" d="M147.621,182.347c-15.652,0-30.632-4.597-42.179-12.943c-11.634-8.409-18.81-19.877-20.205-32.292
			c-0.215-1.901,0.557-3.76,2.118-5.098c1.392-1.192,3.253-1.847,5.24-1.847h110.057c1.959,0,3.869,0.675,5.24,1.852
			c1.556,1.336,2.327,3.194,2.113,5.097c-1.397,12.415-8.573,23.882-20.207,32.29C178.251,177.751,163.272,182.347,147.621,182.347z
			 M92.595,135.085c-0.791,0-1.554,0.248-2.04,0.664c-0.142,0.122-0.471,0.447-0.43,0.811c1.239,11.022,7.702,21.27,18.199,28.857
			c10.716,7.745,24.672,12.01,39.298,12.01c14.625,0,28.58-4.265,39.296-12.009c10.497-7.586,16.96-17.832,18.2-28.852
			c0.04-0.355-0.252-0.664-0.43-0.816c-0.484-0.416-1.245-0.664-2.035-0.664H92.595z"/>
	</g>
	<g>
		<g>
			<line fill="#FFFFFF" x1="105.854" y1="132.625" x2="105.854" y2="166.336"/>
			<rect x="103.634" y="132.626" fill="#3D383A" width="4.44" height="33.71"/>
		</g>
		<g>
			<line fill="#FFFFFF" x1="133.699" y1="132.625" x2="133.699" y2="178.72"/>
			<rect x="131.479" y="132.626" fill="#3D383A" width="4.44" height="46.094"/>
		</g>
		<g>
			<line fill="#FFFFFF" x1="161.543" y1="132.577" x2="161.543" y2="177.073"/>
			<rect x="159.323" y="132.576" fill="#3D383A" width="4.44" height="44.497"/>
		</g>
		<g>
			<line fill="#FFFFFF" x1="189.387" y1="132.625" x2="189.387" y2="166.336"/>
			<rect x="187.167" y="132.626" fill="#3D383A" width="4.44" height="33.71"/>
		</g>
	</g>
	<path fill="#3D383A" d="M189.387,163.141v-29.717h-27.845v44.957C172.203,175.856,181.762,170.498,189.387,163.141z"/>
	<g>
		
			<rect x="88.547" y="57.088" transform="matrix(0.7071 0.7071 -0.7071 0.7071 81.9907 -45.8962)" fill="#FFFFFF" width="15.709" height="37.886"/>
		<path fill="#3D383A" d="M88.562,98.12L74.313,83.873l29.929-29.93L118.49,68.19L88.562,98.12z M80.592,83.872l7.969,7.968
			l23.649-23.65l-7.968-7.968L80.592,83.872z"/>
	</g>
	<g>
		
			<rect x="88.547" y="57.088" transform="matrix(-0.7071 0.7071 -0.7071 -0.7071 218.3288 61.6279)" fill="#FFFFFF" width="15.708" height="37.886"/>
		<path fill="#3D383A" d="M104.241,98.12l-29.93-29.93L88.56,53.943l29.929,29.93L104.241,98.12z M80.591,68.19l23.65,23.65
			l7.968-7.968L88.56,60.222L80.591,68.19z"/>
	</g>
	<g>
		<path fill="#3D383A" d="M250.629,184.583l-5.548-0.171c0.034-1.46,0.058-56.232,0.058-58.656
			c0-26.048-10.144-50.537-28.563-68.956c-18.419-18.419-42.908-28.563-68.956-28.563S97.083,38.381,78.664,56.8
			c-18.419,18.419-28.562,42.908-28.562,68.956c0,2.424,0.025,57.196,0.058,58.656l-5.548,0.171
			c-0.038-1.173-0.061-58.258-0.061-58.827c0-27.531,10.721-53.414,30.188-72.881c19.467-19.467,45.35-30.188,72.881-30.188
			s53.414,10.721,72.881,30.188c19.467,19.467,30.188,45.35,30.188,72.881C250.69,126.326,250.667,183.41,250.629,184.583z"/>
	</g>
</g>
<g>
	<path fill="#3C383A" d="M44.552,209.699l5.471,7.943c0.099,0.165,0.165,0.33,0.165,0.495c0,0.659-0.824,1.384-1.516,1.384
		c-0.297,0-0.56-0.132-0.758-0.429l-5.241-7.679l-2.736,2.439v4.548c0,0.494-0.626,0.989-1.384,0.989
		c-0.791,0-1.351-0.494-1.351-0.989v-23.105c0-0.56,0.56-0.956,1.351-0.956c0.758,0,1.384,0.396,1.384,0.956v15.425l7.515-6.79
		c0.165-0.132,0.396-0.23,0.593-0.23c0.626,0,1.384,0.626,1.384,1.285c0,0.231-0.066,0.462-0.297,0.66L44.552,209.699z"/>
	<path fill="#3C383A" d="M55.219,197.899c0,0.824-0.758,1.582-1.681,1.582c-0.956,0-1.714-0.758-1.714-1.582
		c0-0.824,0.758-1.549,1.714-1.549C54.461,196.35,55.219,197.075,55.219,197.899z M54.922,204.722V218.4
		c0,0.494-0.626,0.989-1.384,0.989c-0.758,0-1.351-0.494-1.351-0.989v-13.678c0-0.56,0.593-0.956,1.351-0.956
		C54.296,203.766,54.922,204.161,54.922,204.722z"/>
	<path fill="#3C383A" d="M57.599,213.258v-3.296c0-3.56,2.044-6.394,6.559-6.394c2.9,0,4.845,1.285,4.845,2.274
		c0,0.56-0.494,1.352-1.153,1.352c-0.659,0-1.219-1.154-3.494-1.154c-2.703,0-4.021,1.484-4.021,3.923v3.296
		c0,2.439,1.285,3.923,4.054,3.923c2.373,0,2.868-1.187,3.593-1.187s1.219,0.758,1.219,1.318c0,1.022-2.043,2.34-5.01,2.34
		C59.643,219.653,57.599,216.884,57.599,213.258z"/>
	<path fill="#3C383A" d="M78.694,209.699l5.471,7.943c0.099,0.165,0.165,0.33,0.165,0.495c0,0.659-0.824,1.384-1.516,1.384
		c-0.297,0-0.56-0.132-0.758-0.429l-5.241-7.679l-2.736,2.439v4.548c0,0.494-0.626,0.989-1.384,0.989
		c-0.791,0-1.351-0.494-1.351-0.989v-23.105c0-0.56,0.56-0.956,1.351-0.956c0.758,0,1.384,0.396,1.384,0.956v15.425l7.515-6.79
		c0.165-0.132,0.396-0.23,0.593-0.23c0.626,0,1.384,0.626,1.384,1.285c0,0.231-0.066,0.462-0.297,0.66L78.694,209.699z"/>
	<path fill="#3C383A" d="M88.946,204.722v1.352c0.725-1.285,2.274-2.505,4.417-2.505c3.296,0,5.933,2.867,5.933,6.328v3.362
		c0,3.329-2.703,6.394-5.801,6.394c-2.01,0-3.725-1.219-4.417-2.571v8.866c0,0.494-0.626,0.989-1.384,0.989
		c-0.791,0-1.351-0.494-1.351-0.989v-21.226c0-0.56,0.56-0.956,1.318-0.956C88.386,203.766,88.946,204.161,88.946,204.722z
		 M96.56,209.897c0-1.945-1.714-3.857-3.824-3.857c-1.813,0-3.658,1.45-3.658,3.857v4.252c0,0.89,1.582,3.033,3.724,3.033
		c2.011,0,3.758-1.945,3.758-3.923V209.897z"/>
	<path fill="#3C383A" d="M101.885,213.324v-8.569c0-0.494,0.593-0.989,1.384-0.989c0.692,0,1.351,0.495,1.351,0.989v8.569
		c0,1.945,1.681,3.857,3.791,3.857c2.076,0,3.757-1.879,3.757-3.857v-8.602c0-0.494,0.626-0.956,1.384-0.956
		c0.791,0,1.352,0.462,1.352,0.956v8.602c0,3.362-2.966,6.328-6.493,6.328C104.818,219.653,101.885,216.653,101.885,213.324z"/>
	<path fill="#3C383A" d="M120.762,218.4c0,0.494-0.659,0.989-1.384,0.989c-0.791,0-1.351-0.494-1.351-0.989v-13.678
		c0-0.56,0.56-0.956,1.351-0.956c0.659,0,1.253,0.396,1.253,0.956v1.352c0.659-1.285,2.208-2.505,4.417-2.505
		c3.131,0,5.801,2.867,5.801,6.328v8.504c0,0.659-0.692,0.989-1.384,0.989c-0.659,0-1.351-0.33-1.351-0.989v-8.504
		c0-1.945-1.714-3.857-3.757-3.857c-1.78,0-3.593,1.45-3.593,3.857V218.4z"/>
	<path fill="#3C383A" d="M133.499,213.258v-3.296c0-3.56,2.044-6.394,6.559-6.394c2.9,0,4.845,1.285,4.845,2.274
		c0,0.56-0.494,1.352-1.153,1.352c-0.659,0-1.219-1.154-3.494-1.154c-2.703,0-4.021,1.484-4.021,3.923v3.296
		c0,2.439,1.285,3.923,4.054,3.923c2.373,0,2.868-1.187,3.593-1.187s1.219,0.758,1.219,1.318c0,1.022-2.043,2.34-5.01,2.34
		C135.543,219.653,133.499,216.884,133.499,213.258z"/>
	<path fill="#3C383A" d="M149.98,218.4c0,0.494-0.626,0.989-1.384,0.989c-0.791,0-1.351-0.494-1.351-0.989v-23.105
		c0-0.56,0.56-0.956,1.351-0.956c0.758,0,1.384,0.396,1.384,0.956v10.778c0.659-1.285,2.143-2.505,4.285-2.505
		c3.131,0,5.801,2.867,5.801,6.328v8.504c0,0.659-0.692,0.989-1.384,0.989c-0.626,0-1.351-0.33-1.351-0.989v-8.504
		c0-1.945-1.714-3.857-3.757-3.857c-1.78,0-3.593,1.45-3.593,3.857V218.4z"/>
	<path fill="#3C383A" d="M162.76,213.489v-3.757c0-3.428,1.945-6.097,6.196-6.097c2.703,0,4.45,1.252,4.45,2.011
		c0,0.395-0.33,0.791-0.758,0.791c-0.56,0-1.153-1.286-3.658-1.286c-2.999,0-4.614,1.747-4.614,4.582v3.757
		c0,2.835,1.582,4.582,4.647,4.582c2.67,0,3.23-1.318,3.857-1.318c0.396,0,0.725,0.428,0.725,0.791c0,0.791-1.78,2.043-4.648,2.043
		C164.737,219.587,162.76,216.983,162.76,213.489z"/>
	<path fill="#3C383A" d="M182.161,205.15c-2.241,0-4.45,1.813-4.45,4.812v8.701c0,0.363-0.363,0.725-0.824,0.725
		c-0.462,0-0.791-0.362-0.791-0.725v-14.173c0-0.395,0.33-0.659,0.791-0.659c0.428,0,0.791,0.264,0.791,0.659v1.681
		c0.725-1.286,2.274-2.538,4.483-2.538h1.186c0.396,0,0.725,0.33,0.725,0.758s-0.33,0.758-0.725,0.758H182.161z"/>
	<path fill="#3C383A" d="M197.099,209.6c0,2.472-1.384,2.538-2.801,2.538h-7.647v1.384c0,2.835,2.241,4.581,5.307,4.581
		c2.703,0,3.23-1.318,3.922-1.318c0.396,0,0.758,0.462,0.758,0.791c0,0.692-1.813,2.01-4.746,2.01c-4.021,0-6.855-2.439-6.855-6.097
		v-3.922c0-3.23,2.735-5.933,6.064-5.933C194.297,203.634,197.099,206.139,197.099,209.6z M193.671,210.786
		c1.483,0,1.846-0.198,1.846-1.187c0-2.241-1.78-4.515-4.417-4.515c-2.505,0-4.45,2.01-4.45,4.35v1.352H193.671z"/>
	<path fill="#3C383A" d="M209.948,209.963v8.701c0,0.396-0.33,0.725-0.791,0.725c-0.428,0-0.791-0.33-0.791-0.725v-1.582
		c-1.12,1.285-2.769,2.505-4.944,2.505c-2.538,0-4.548-1.384-4.548-4.35c0-3.527,3.099-4.417,7.68-4.417h1.78v-0.857
		c0-2.307-1.153-4.845-4.153-4.845c-2.109,0-2.999,0.923-3.461,0.923s-0.725-0.56-0.725-0.89c0-0.725,2.208-1.516,4.252-1.516
		C208.465,203.634,209.948,206.7,209.948,209.963z M208.333,212.138h-1.615c-3.23,0-6.229,0.296-6.229,3.032
		c0,2.043,1.384,2.967,3.164,2.967c2.307,0,4.68-2.109,4.68-3.56V212.138z"/>
	<path fill="#3C383A" d="M214.88,214.676c0,2.34,0.89,3.197,3.395,3.197h0.824c0.462,0,0.758,0.33,0.758,0.758
		c0,0.396-0.296,0.758-0.758,0.758h-0.824c-3.263,0-5.01-1.417-5.01-4.713v-17.699c0-0.396,0.428-0.692,0.791-0.692
		c0.428,0,0.824,0.297,0.824,0.692v6.855h4.384c0.33,0,0.626,0.33,0.626,0.725c0,0.363-0.297,0.692-0.626,0.692h-4.384V214.676z"/>
	<path fill="#3C383A" d="M224.238,197.702c0,0.659-0.56,1.219-1.219,1.219c-0.725,0-1.253-0.56-1.253-1.219
		c0-0.626,0.528-1.154,1.253-1.154C223.678,196.548,224.238,197.075,224.238,197.702z M223.842,204.491v14.173
		c0,0.363-0.363,0.725-0.824,0.725c-0.462,0-0.791-0.362-0.791-0.725v-14.173c0-0.395,0.33-0.659,0.791-0.659
		C223.48,203.832,223.842,204.096,223.842,204.491z"/>
	<path fill="#3C383A" d="M226.279,205.051c-0.033-0.099-0.132-0.362-0.132-0.494c0-0.428,0.462-0.758,0.923-0.758
		c0.264,0,0.56,0.132,0.659,0.396l4.515,12.459l4.516-12.261c0.132-0.33,0.231-0.593,0.659-0.593c0.396,0,0.956,0.297,0.956,0.725
		c0,0.198-0.099,0.396-0.132,0.527l-5.208,14.107c-0.132,0.264-0.428,0.462-0.791,0.462c-0.362,0-0.626-0.165-0.758-0.462
		L226.279,205.051z"/>
	<path fill="#3C383A" d="M251.88,209.6c0,2.472-1.384,2.538-2.801,2.538h-7.647v1.384c0,2.835,2.241,4.581,5.307,4.581
		c2.703,0,3.23-1.318,3.922-1.318c0.396,0,0.758,0.462,0.758,0.791c0,0.692-1.813,2.01-4.746,2.01c-4.021,0-6.856-2.439-6.856-6.097
		v-3.922c0-3.23,2.736-5.933,6.065-5.933C249.078,203.634,251.88,206.139,251.88,209.6z M248.452,210.786
		c1.483,0,1.846-0.198,1.846-1.187c0-2.241-1.78-4.515-4.417-4.515c-2.505,0-4.45,2.01-4.45,4.35v1.352H248.452z"/>
</g>
</svg>
