<?xml version="1.0" encoding="utf-8"?>
<?xml-stylesheet type="text/css" href="style.css" ?> 
<!-- Generator: Adobe Illustrator 19.0.1, SVG Export Plug-In . SVG Version: 6.00 Build 0)  -->
<svg version="1.1" id="Layer_1" xmlns="http://www.w3.org/2000/svg" xmlns:xlink="http://www.w3.org/1999/xlink" x="0px" y="0px"
	 viewBox="0 0 216 216" style="enable-background:new 0 0 216 216;" xml:space="preserve">
<style type="text/css">
	.st0{fill:#1DBDC2;stroke:#313333;stroke-width:3.24;stroke-miterlimit:10;}
	.st1{fill:#FFFFFF;}
</style>
<g>
	<circle class="st0 heartcircle" cx="108" cy="108" r="91.9"/>
	<path class="st1" d="M155.3,73c0-2.1-1.6-3.7-3.5-3.7l-88,0.6c-1.9,0-3.5,1.7-3.5,3.8l0.4,61.7c0,2.1,1.6,3.7,3.5,3.7l33-0.2
		l-2.2,9.5c-0.3,1.4,0.7,2.7,2.1,2.7h21.6c1.4,0,2.5-1.3,2.1-2.7l-2.2-9.7l33.5-0.2c1.9,0,3.5-1.7,3.5-3.8L155.3,73z M147.1,123.6
		l-77.8,0.6c-2,0-3.6-1.8-3.6-4l-0.3-41.3c0-2.2,1.6-4,3.6-4l77.8-0.6c2,0,3.6,1.8,3.6,4l0.3,41.3
		C150.7,121.8,149,123.6,147.1,123.6z"/>
</g>
</svg>
