<?xml version="1.0" encoding="utf-8"?>
<!-- Generator: Adobe Illustrator 19.0.1, SVG Export Plug-In . SVG Version: 6.00 Build 0)  -->
<svg version="1.1" id="Layer_1" xmlns="http://www.w3.org/2000/svg" xmlns:xlink="http://www.w3.org/1999/xlink" x="0px" y="0px"
	 viewBox="486 -281.9 1008 599.9" style="enable-background:new 486 -281.9 1008 599.9;" xml:space="preserve">
<style type="text/css">
	.st0{fill:#FFFFFF;stroke:#D8D8D8;stroke-miterlimit:10;}
	.st1{fill:none;stroke:#D8D8D8;stroke-miterlimit:10;}
</style>
<g>
	<rect x="773" y="182.5" class="st0" width="40.4" height="5.2"/>
</g>
<g>
	<polygon class="st0" points="813.4,184.2 806.2,185.9 806.2,359.3 813.4,359.3 	"/>
</g>
<g>
	<rect x="777.6" y="185.9" class="st0" width="29.2" height="173.4"/>
</g>
<g>
	<polygon class="st0" points="1122.2,126.9 1149.4,123.1 1149.4,359.3 1122.2,359.3 	"/>
</g>
<g>
	<rect x="1149.4" y="123" class="st0" width="51.9" height="236.2"/>
</g>
<g>
	<g>
		<rect x="1196" y="144.6" class="st0" width="6.4" height="13.6"/>
	</g>
	<g>
		<rect x="1185.6" y="195.1" class="st0" width="6.4" height="13.6"/>
	</g>
	<g>
		<rect x="1164.8" y="195.1" class="st0" width="6.4" height="13.6"/>
	</g>
	<g>
		<rect x="1175.2" y="195.1" class="st0" width="6.4" height="13.6"/>
	</g>
	<g>
		<rect x="1164.8" y="178.3" class="st0" width="6.4" height="13.6"/>
	</g>
	<g>
		<rect x="1185.6" y="144.6" class="st0" width="6.4" height="13.6"/>
	</g>
	<g>
		<rect x="1164.8" y="161.4" class="st0" width="6.4" height="13.6"/>
	</g>
	<g>
		<rect x="1175.2" y="144.6" class="st0" width="6.4" height="13.6"/>
	</g>
	<g>
		<rect x="1164.8" y="144.6" class="st0" width="6.4" height="13.6"/>
	</g>
	<g>
		<rect x="1175.2" y="161.4" class="st0" width="6.4" height="13.6"/>
	</g>
	<g>
		<rect x="1185.6" y="161.4" class="st0" width="6.4" height="13.6"/>
	</g>
	<g>
		<rect x="1196" y="161.4" class="st0" width="6.4" height="13.6"/>
	</g>
	<g>
		<rect x="1175.2" y="178.3" class="st0" width="6.4" height="13.6"/>
	</g>
	<g>
		<rect x="1185.6" y="178.3" class="st0" width="6.4" height="13.6"/>
	</g>
	<g>
		<rect x="1196" y="178.3" class="st0" width="6.4" height="13.6"/>
	</g>
	<g>
		<rect x="1154.4" y="195.1" class="st0" width="6.4" height="13.6"/>
	</g>
	<g>
		<rect x="1154.4" y="161.4" class="st0" width="6.4" height="13.6"/>
	</g>
	<g>
		<rect x="1154.4" y="178.3" class="st0" width="6.4" height="13.6"/>
	</g>
	<g>
		<rect x="1154.4" y="144.6" class="st0" width="6.4" height="13.6"/>
	</g>
	<g>
		<rect x="1196" y="195.1" class="st0" width="6.4" height="13.6"/>
	</g>
	<g>
		<rect x="1154.4" y="127.8" class="st0" width="6.4" height="13.6"/>
	</g>
	<g>
		<rect x="1196" y="127.8" class="st0" width="6.4" height="13.6"/>
	</g>
	<g>
		<rect x="1185.6" y="127.8" class="st0" width="6.4" height="13.6"/>
	</g>
	<g>
		<rect x="1175.2" y="127.8" class="st0" width="6.4" height="13.6"/>
	</g>
	<g>
		<rect x="1164.8" y="127.8" class="st0" width="6.4" height="13.6"/>
	</g>
	<g>
		<rect x="1196" y="229.7" class="st0" width="6.4" height="13.6"/>
	</g>
	<g>
		<rect x="1185.6" y="280.2" class="st0" width="6.4" height="13.6"/>
	</g>
	<g>
		<rect x="1164.8" y="280.2" class="st0" width="6.4" height="13.6"/>
	</g>
	<g>
		<rect x="1175.2" y="280.2" class="st0" width="6.4" height="13.6"/>
	</g>
	<g>
		<rect x="1164.8" y="263.3" class="st0" width="6.4" height="13.6"/>
	</g>
	<g>
		<rect x="1185.6" y="229.7" class="st0" width="6.4" height="13.6"/>
	</g>
	<g>
		<rect x="1164.8" y="246.5" class="st0" width="6.4" height="13.6"/>
	</g>
	<g>
		<rect x="1175.2" y="229.7" class="st0" width="6.4" height="13.6"/>
	</g>
	<g>
		<rect x="1164.8" y="229.7" class="st0" width="6.4" height="13.6"/>
	</g>
	<g>
		<rect x="1175.2" y="246.5" class="st0" width="6.4" height="13.6"/>
	</g>
	<g>
		<rect x="1185.6" y="246.5" class="st0" width="6.4" height="13.6"/>
	</g>
	<g>
		<rect x="1196" y="246.5" class="st0" width="6.4" height="13.6"/>
	</g>
	<g>
		<rect x="1175.2" y="263.3" class="st0" width="6.4" height="13.6"/>
	</g>
	<g>
		<rect x="1185.6" y="263.3" class="st0" width="6.4" height="13.6"/>
	</g>
	<g>
		<rect x="1196" y="263.3" class="st0" width="6.4" height="13.6"/>
	</g>
	<g>
		<rect x="1154.4" y="280.2" class="st0" width="6.4" height="13.6"/>
	</g>
	<g>
		<rect x="1154.4" y="246.5" class="st0" width="6.4" height="13.6"/>
	</g>
	<g>
		<rect x="1154.4" y="263.3" class="st0" width="6.4" height="13.6"/>
	</g>
	<g>
		<rect x="1154.4" y="229.7" class="st0" width="6.4" height="13.6"/>
	</g>
	<g>
		<rect x="1196" y="280.2" class="st0" width="6.4" height="13.6"/>
	</g>
	<g>
		<rect x="1154.4" y="212.9" class="st0" width="6.4" height="13.6"/>
	</g>
	<g>
		<rect x="1196" y="212.9" class="st0" width="6.4" height="13.6"/>
	</g>
	<g>
		<rect x="1185.6" y="212.9" class="st0" width="6.4" height="13.6"/>
	</g>
	<g>
		<rect x="1175.2" y="212.9" class="st0" width="6.4" height="13.6"/>
	</g>
	<g>
		<rect x="1164.8" y="212.9" class="st0" width="6.4" height="13.6"/>
	</g>
	<g>
		<rect x="1196" y="313.9" class="st0" width="6.4" height="13.6"/>
	</g>
	<g>
		<rect x="1185.6" y="313.9" class="st0" width="6.4" height="13.6"/>
	</g>
	<g>
		<rect x="1164.8" y="330.7" class="st0" width="6.4" height="13.6"/>
	</g>
	<g>
		<rect x="1175.2" y="313.9" class="st0" width="6.4" height="13.6"/>
	</g>
	<g>
		<rect x="1164.8" y="313.9" class="st0" width="6.4" height="13.6"/>
	</g>
	<g>
		<rect x="1175.2" y="330.7" class="st0" width="6.4" height="13.6"/>
	</g>
	<g>
		<rect x="1185.6" y="330.7" class="st0" width="6.4" height="13.6"/>
	</g>
	<g>
		<rect x="1196" y="330.7" class="st0" width="6.4" height="13.6"/>
	</g>
	<g>
		<rect x="1154.4" y="330.7" class="st0" width="6.4" height="13.6"/>
	</g>
	<g>
		<rect x="1154.4" y="313.9" class="st0" width="6.4" height="13.6"/>
	</g>
	<g>
		<rect x="1154.4" y="297.1" class="st0" width="6.4" height="13.6"/>
	</g>
	<g>
		<rect x="1196" y="297.1" class="st0" width="6.4" height="13.6"/>
	</g>
	<g>
		<rect x="1185.6" y="297.1" class="st0" width="6.4" height="13.6"/>
	</g>
	<g>
		<rect x="1175.2" y="297.1" class="st0" width="6.4" height="13.6"/>
	</g>
	<g>
		<rect x="1164.8" y="297.1" class="st0" width="6.4" height="13.6"/>
	</g>
	<g>
		<rect x="1154.4" y="347.5" class="st0" width="6.4" height="11.8"/>
	</g>
	<g>
		<rect x="1164.8" y="347.5" class="st0" width="6.4" height="11.8"/>
	</g>
	<g>
		<rect x="1175.2" y="347.5" class="st0" width="6.4" height="11.8"/>
	</g>
	<g>
		<rect x="1185.6" y="347.5" class="st0" width="6.4" height="11.8"/>
	</g>
	<g>
		<rect x="1196" y="347.5" class="st0" width="6.4" height="11.8"/>
	</g>
</g>
<g>
	<polygon class="st0" points="1183.8,340.7 1197.3,340.7 1197.3,138.6 1183.8,139.1 	"/>
</g>
<g>
	<polygon class="st0" points="1200,182.2 1212,182.2 1211.4,-126.5 1200,-113 	"/>
</g>
<g>
	<polygon class="st0" points="1216.5,-125.6 1227.8,-125.6 1227.8,-183.3 1216.5,-168.7 	"/>
</g>
<g>
	<polygon class="st0" points="952.3,-39.4 952.3,-55.4 903.9,-55.4 903.9,-39.4 873.1,-39.4 873.1,359.3 983,359.3 983,-39.4 	"/>
</g>
<g>
	<rect x="906.4" y="-7.1" class="st0" width="43.6" height="12"/>
</g>
<g>
	<rect x="876.6" y="-7.1" class="st0" width="24.1" height="12"/>
</g>
<g>
	<rect x="955.8" y="-7.1" class="st0" width="24.1" height="12"/>
</g>
<g>
	<path class="st0" d="M885.4-15.6l-3.3-12.9h1.8l1.5,6.5c0.4,1.6,0.7,3.2,1,4.4h0c0.2-1.3,0.6-2.8,1-4.5l1.7-6.5h1.7l1.6,6.5
		c0.4,1.5,0.7,3.1,0.9,4.4h0c0.3-1.4,0.6-2.8,1-4.4l1.7-6.5h1.7l-3.6,12.9h-1.7l-1.6-6.7c-0.4-1.6-0.7-2.9-0.8-4.2h0
		c-0.2,1.3-0.5,2.5-1,4.2l-1.8,6.7L885.4-15.6L885.4-15.6z"/>
	<path class="st0" d="M910.4-22.1c0,4.4-2.7,6.8-6,6.8c-3.4,0-5.8-2.6-5.8-6.5c0-4.1,2.5-6.8,6-6.8
		C908.2-28.6,910.4-25.9,910.4-22.1z M900.4-21.9c0,2.7,1.5,5.2,4.1,5.2c2.6,0,4.1-2.4,4.1-5.3c0-2.6-1.3-5.2-4.1-5.2
		C901.8-27.3,900.4-24.7,900.4-21.9z"/>
	<path class="st0" d="M923.6-22.1c0,4.4-2.7,6.8-6,6.8c-3.4,0-5.8-2.6-5.8-6.5c0-4.1,2.5-6.8,6-6.8
		C921.3-28.6,923.6-25.9,923.6-22.1z M913.6-21.9c0,2.7,1.5,5.2,4.1,5.2c2.6,0,4.1-2.4,4.1-5.3c0-2.6-1.3-5.2-4.1-5.2
		C915-27.3,913.6-24.7,913.6-21.9z"/>
	<path class="st0" d="M925.7-28.3c1-0.2,2.2-0.3,3.5-0.3c2.4,0,4.1,0.6,5.2,1.6c1.1,1.1,1.8,2.5,1.8,4.6c0,2.1-0.6,3.8-1.9,5
		c-1.2,1.2-3.2,1.9-5.7,1.9c-1.2,0-2.2-0.1-3-0.2L925.7-28.3L925.7-28.3z M927.4-16.9c0.4,0.1,1,0.1,1.7,0.1c3.6,0,5.5-2,5.5-5.5
		c0-3-1.7-5-5.2-5c-0.9,0-1.5,0.1-1.9,0.2V-16.9z"/>
	<path class="st0" d="M949.3-21.2c-0.1-1.8-0.2-4-0.2-5.6h-0.1c-0.4,1.5-1,3.1-1.6,4.9l-2.3,6.2h-1.3l-2.1-6.1
		c-0.6-1.8-1.1-3.5-1.5-5h0c0,1.6-0.1,3.8-0.2,5.7l-0.3,5.5h-1.6l0.9-12.9h2.1l2.2,6.2c0.5,1.6,1,3,1.3,4.3h0.1
		c0.3-1.3,0.8-2.7,1.4-4.3l2.3-6.2h2.1l0.8,12.9h-1.6L949.3-21.2z"/>
	<path class="st0" d="M960.5-21.6h-5v4.6h5.6v1.4h-7.2v-12.9h7v1.4h-5.3v4.1h5V-21.6z"/>
	<path class="st0" d="M963.2-15.6v-12.9h1.8l4.1,6.5c1,1.5,1.7,2.9,2.3,4.2l0,0c-0.2-1.7-0.2-3.3-0.2-5.3v-5.4h1.6v12.9h-1.7
		l-4.1-6.5c-0.9-1.4-1.8-2.9-2.4-4.3l-0.1,0c0.1,1.6,0.1,3.2,0.1,5.3v5.5L963.2-15.6L963.2-15.6z"/>
</g>
<g>
	<polygon class="st0" points="988.8,153.6 1043.6,153.6 1043.4,102.3 988.8,134.2 	"/>
</g>
<g>
	<rect x="876.6" y="8.7" class="st0" width="2.9" height="350.6"/>
	<rect x="882.5" y="8.7" class="st0" width="2.9" height="350.6"/>
	<rect x="888.4" y="8.7" class="st0" width="2.9" height="350.6"/>
	<rect x="894.3" y="8.7" class="st0" width="2.9" height="350.6"/>
	<rect x="900.2" y="8.7" class="st0" width="2.9" height="350.6"/>
	<rect x="906.1" y="8.7" class="st0" width="2.9" height="350.6"/>
	<rect x="912" y="8.7" class="st0" width="2.9" height="350.6"/>
	<rect x="917.9" y="8.7" class="st0" width="2.9" height="350.6"/>
	<rect x="923.8" y="8.7" class="st0" width="2.9" height="350.6"/>
	<rect x="929.7" y="8.7" class="st0" width="2.9" height="350.6"/>
	<rect x="935.6" y="8.7" class="st0" width="2.9" height="350.6"/>
	<rect x="941.6" y="8.7" class="st0" width="2.9" height="350.6"/>
	<rect x="947.5" y="8.7" class="st0" width="2.9" height="350.6"/>
	<rect x="953.4" y="8.7" class="st0" width="2.9" height="350.6"/>
	<rect x="959.3" y="8.7" class="st0" width="2.9" height="350.6"/>
	<rect x="965.2" y="8.7" class="st0" width="2.9" height="350.6"/>
	<rect x="971.1" y="8.7" class="st0" width="2.9" height="350.6"/>
	<rect x="977" y="8.7" class="st0" width="2.9" height="350.6"/>
</g>
<g>
	<polygon class="st0" points="946,153.6 890.9,153.6 890.9,102.3 946,134.2 	"/>
</g>
<g>
	<polygon class="st0" points="974.9,359.3 1029.7,359.3 1029.7,120.1 974.9,143.8 	"/>
</g>
<g>
	<polygon class="st0" points="959.9,359.3 905,359.3 905,120.1 959.9,143.8 	"/>
</g>
<g>
	<polygon class="st0" points="1233.6,-183.3 1244.8,-183.3 1244.8,-235 1233.6,-219.5 	"/>
</g>
<g>
	<polygon class="st0" points="1335,138.4 1335,-126.5 1319.9,-126.5 1319.9,-183.3 1301.6,-183.3 1301.6,-235 1287.6,-235 
		1287.6,-241 1283.5,-241 1283.5,-235 1279.3,-235 1279.3,-241 1275.2,-241 1275.2,-235 1271.1,-235 1271.1,-241 1267,-241 
		1267,-235 1262.9,-235 1262.9,-241 1258.8,-241 1258.8,-235 1244.8,-235 1244.8,-183.3 1227.5,-183.3 1227.5,-126.5 1211.4,-126.5 
		1211.4,138.4 1196.5,138.4 1196.5,359.2 1341.3,359.2 1341.3,138.4 	"/>
</g>
<g>
	<polygon class="st0" points="890.9,120.1 890.9,102.3 835.9,102.3 835.9,120.1 821.7,120.1 821.7,359.3 905,359.3 905,120.1 	"/>
</g>
<g>
	<g>
		<rect x="826.3" y="127.8" class="st0" width="8.2" height="24.7"/>
	</g>
	<g>
		<rect x="839.5" y="127.8" class="st0" width="8.2" height="24.7"/>
	</g>
	<g>
		<rect x="852.7" y="127.8" class="st0" width="8.2" height="24.7"/>
	</g>
	<g>
		<rect x="865.8" y="127.8" class="st0" width="8.2" height="24.7"/>
	</g>
	<g>
		<rect x="879" y="127.8" class="st0" width="8.2" height="24.7"/>
	</g>
	<g>
		<rect x="892.2" y="127.8" class="st0" width="8.2" height="24.7"/>
	</g>
</g>
<g>
	<rect x="826.3" y="164.8" class="st0" width="3.6" height="194.5"/>
	<rect x="832.7" y="164.8" class="st0" width="3.6" height="194.5"/>
	<rect x="839.1" y="164.8" class="st0" width="3.6" height="194.5"/>
	<rect x="845.5" y="164.8" class="st0" width="3.6" height="194.5"/>
	<rect x="852" y="164.8" class="st0" width="3.6" height="194.5"/>
	<rect x="858.4" y="164.8" class="st0" width="3.6" height="194.5"/>
	<rect x="864.8" y="164.8" class="st0" width="3.6" height="194.5"/>
	<rect x="871.2" y="164.8" class="st0" width="3.6" height="194.5"/>
	<rect x="877.6" y="164.8" class="st0" width="3.6" height="194.5"/>
	<rect x="884" y="164.8" class="st0" width="3.6" height="194.5"/>
	<rect x="890.4" y="164.8" class="st0" width="3.6" height="194.5"/>
	<rect x="896.8" y="164.8" class="st0" width="3.6" height="194.5"/>
</g>
<g>
	<polygon class="st0" points="1098.8,120.1 1098.8,102.3 1043.4,102.3 1043.3,120.1 1029.7,120.1 1029.7,359.3 1113.1,359.3 
		1113.1,120.1 	"/>
</g>
<g>
	<g>
		<rect x="1100.2" y="127.8" class="st0" width="8.2" height="24.7"/>
	</g>
	<g>
		<rect x="1087" y="127.8" class="st0" width="8.2" height="24.7"/>
	</g>
	<g>
		<rect x="1073.9" y="127.8" class="st0" width="8.2" height="24.7"/>
	</g>
	<g>
		<rect x="1060.7" y="127.8" class="st0" width="8.2" height="24.7"/>
	</g>
	<g>
		<rect x="1047.5" y="127.8" class="st0" width="8.2" height="24.7"/>
	</g>
	<g>
		<rect x="1034.4" y="127.8" class="st0" width="8.2" height="24.7"/>
	</g>
</g>
<g>
	<rect x="1104.8" y="164.8" class="st0" width="3.6" height="194.5"/>
	<rect x="1098.4" y="164.8" class="st0" width="3.6" height="194.5"/>
	<rect x="1092" y="164.8" class="st0" width="3.6" height="194.5"/>
	<rect x="1085.6" y="164.8" class="st0" width="3.6" height="194.5"/>
	<rect x="1079.2" y="164.8" class="st0" width="3.6" height="194.5"/>
	<rect x="1072.8" y="164.8" class="st0" width="3.6" height="194.5"/>
	<rect x="1066.4" y="164.8" class="st0" width="3.6" height="194.5"/>
	<rect x="1060" y="164.8" class="st0" width="3.6" height="194.5"/>
	<rect x="1053.6" y="164.8" class="st0" width="3.6" height="194.5"/>
	<rect x="1047.2" y="164.8" class="st0" width="3.6" height="194.5"/>
	<rect x="1040.8" y="164.8" class="st0" width="3.6" height="194.5"/>
	<rect x="1034.4" y="164.8" class="st0" width="3.6" height="194.5"/>
</g>
<g>
	<polygon class="st0" points="1076.3,216.6 861.8,216.6 851.8,223.2 1086.9,223.2 	"/>
</g>
<g>
	<rect x="851.8" y="223.2" class="st0" width="235.2" height="136.1"/>
</g>
<g>
	<rect x="890.1" y="242.7" class="st0" width="158.7" height="13.6"/>
</g>
<g>
	<rect x="890.1" y="268" class="st0" width="158.7" height="13.6"/>
</g>
<g>
	<rect x="890.1" y="293.3" class="st0" width="158.7" height="13.6"/>
</g>
<g>
	<rect x="890.1" y="318.7" class="st0" width="158.7" height="13.6"/>
</g>
<g>
	<rect x="890.1" y="344" class="st1" width="158.7" height="13.6"/>
</g>
<g>
	<rect x="994.3" y="203.9" class="st0" width="70.9" height="17.1"/>
</g>
<g>
	<rect x="892.8" y="203.9" class="st0" width="52.3" height="17.1"/>
</g>
<g>
	<rect x="535.2" y="123" class="st0" width="215.7" height="236.3"/>
</g>
<g>
	<g>
		<rect x="587.6" y="143.9" class="st0" width="15" height="41.9"/>
		<rect x="620.3" y="143.9" class="st0" width="15" height="41.9"/>
		<rect x="653.1" y="143.9" class="st0" width="15" height="41.9"/>
		<rect x="685.8" y="143.9" class="st0" width="15" height="41.9"/>
		<rect x="718.6" y="143.9" class="st0" width="15" height="41.9"/>
	</g>
	<g>
		<rect x="587.6" y="201.7" class="st0" width="15" height="41.9"/>
		<rect x="620.3" y="201.7" class="st0" width="15" height="41.9"/>
		<rect x="653.1" y="201.7" class="st0" width="15" height="41.9"/>
		<rect x="685.8" y="201.7" class="st0" width="15" height="41.9"/>
		<rect x="718.6" y="201.7" class="st0" width="15" height="41.9"/>
	</g>
	<g>
		<rect x="587.6" y="259.5" class="st0" width="15" height="41.9"/>
		<rect x="620.3" y="259.5" class="st0" width="15" height="41.9"/>
		<rect x="653.1" y="259.5" class="st0" width="15" height="41.9"/>
		<rect x="685.8" y="259.5" class="st0" width="15" height="41.9"/>
		<rect x="718.6" y="259.5" class="st0" width="15" height="41.9"/>
	</g>
	<g>
		<rect x="587.6" y="317.4" class="st0" width="15" height="41.9"/>
		<rect x="620.3" y="317.4" class="st0" width="15" height="41.9"/>
		<rect x="653.1" y="317.4" class="st0" width="15" height="41.9"/>
		<rect x="685.8" y="317.4" class="st0" width="15" height="41.9"/>
		<rect x="718.6" y="317.4" class="st0" width="15" height="41.9"/>
	</g>
</g>
<g>
	<rect x="777.8" y="205.2" class="st0" width="24.7" height="3.3"/>
</g>
<g>
	<rect x="777.8" y="197.2" class="st0" width="24.7" height="3.3"/>
</g>
<g>
	<rect x="777.8" y="213.2" class="st0" width="24.7" height="3.3"/>
</g>
<g>
	<rect x="777.8" y="221.2" class="st0" width="24.7" height="3.3"/>
</g>
<g>
	<rect x="777.8" y="229.2" class="st0" width="24.7" height="3.3"/>
</g>
<g>
	<rect x="777.8" y="237.2" class="st0" width="24.7" height="3.3"/>
</g>
<g>
	<rect x="777.8" y="245.2" class="st0" width="24.7" height="3.3"/>
</g>
<g>
	<rect x="777.8" y="253.2" class="st0" width="24.7" height="3.3"/>
</g>
<g>
	<rect x="777.8" y="261.2" class="st0" width="24.7" height="3.3"/>
</g>
<g>
	<rect x="777.8" y="269.2" class="st0" width="24.7" height="3.3"/>
</g>
<g>
	<rect x="777.8" y="277.1" class="st0" width="24.7" height="3.3"/>
</g>
<g>
	<rect x="777.8" y="285.1" class="st0" width="24.7" height="3.3"/>
</g>
<g>
	<rect x="777.8" y="293.1" class="st0" width="24.7" height="3.3"/>
</g>
<g>
	<rect x="777.8" y="301.1" class="st0" width="24.7" height="3.3"/>
</g>
<g>
	<rect x="777.8" y="309.1" class="st0" width="24.7" height="3.3"/>
</g>
<g>
	<rect x="777.8" y="317.1" class="st0" width="24.7" height="3.3"/>
</g>
<g>
	<rect x="777.8" y="325.1" class="st0" width="24.7" height="3.3"/>
</g>
<g>
	<rect x="777.8" y="333.1" class="st0" width="24.7" height="3.3"/>
</g>
<g>
	<rect x="777.8" y="341.1" class="st1" width="24.7" height="3.3"/>
</g>
<g>
	<rect x="777.8" y="349.1" class="st1" width="24.7" height="3.3"/>
</g>
<g>
	<path class="st0" d="M541.1-213.4l-53.5-45.2v605.9c1.5,6.9,7.6,12,14.9,12h38.6L541.1-213.4L541.1-213.4z"/>
</g>
<g>
	<rect x="1263" y="-221.7" class="st0" width="4.2" height="344.8"/>
</g>
<g>
	<rect x="1254.8" y="-221.7" class="st0" width="4.2" height="344.8"/>
</g>
<g>
	<rect x="1270.9" y="-221.7" class="st0" width="4.4" height="344.8"/>
</g>
<g>
	<polygon class="st0" points="1303.8,57.6 1347.6,45.5 1347.6,359.2 1303.8,359.2 	"/>
</g>
<g>
	<rect x="1279.3" y="-221.7" class="st0" width="4.3" height="344.8"/>
</g>
<g>
	<rect x="1286.7" y="-221.7" class="st0" width="4.3" height="344.8"/>
</g>
<g>
	<polygon class="st0" points="1243.1,188.8 1247.3,-124.6 1251.6,188.8 	"/>
</g>
<g>
	<polygon class="st0" points="1293.9,188.8 1298.2,-124.6 1302.4,188.8 	"/>
</g>
<g>
	<polygon class="st0" points="1242.9,120.7 1286.6,116.7 1286.6,359.2 1242.9,359.2 	"/>
</g>
<g>
	<path class="st0" d="M1509.7,44.9h-162.2v71.8h-63v242.5h63h0.6h148.4c7.4-1.1,13.1-7.5,13.1-15.3L1509.7,44.9z"/>
</g>
<g>
	<polygon class="st0" points="577.2,-146.9 550,-167.6 550,279.7 577.2,279.7 	"/>
</g>
<g>
	<rect x="504.9" y="-167.6" class="st0" width="45.1" height="447.3"/>
</g>
<g>
	<polygon class="st0" points="750.9,123 778.3,125.9 778.3,359.3 750.9,359.3 	"/>
</g>
<g>
	<polygon class="st0" points="945.1,200.6 896.8,200.6 892.8,203.9 945.1,203.9 	"/>
</g>
<g>
	<polygon class="st0" points="1059.1,200.6 994.3,200.6 994.3,203.9 1065.2,203.9 	"/>
</g>
<g>
	<rect x="504.9" y="-104.5" class="st0" width="45.1" height="3.7"/>
</g>
<g>
	<rect x="504.9" y="-136.6" class="st0" width="45.1" height="3.7"/>
</g>
<g>
	<rect x="504.9" y="-72.4" class="st0" width="45.1" height="3.7"/>
</g>
<g>
	<rect x="504.9" y="-40.3" class="st0" width="45.1" height="3.7"/>
</g>
<g>
	<rect x="504.9" y="-8.3" class="st0" width="45.1" height="3.7"/>
</g>
<g>
	<rect x="504.9" y="23.8" class="st0" width="45.1" height="3.7"/>
</g>
<g>
	<rect x="504.9" y="55.9" class="st0" width="45.1" height="3.7"/>
</g>
<g>
	<rect x="504.9" y="88" class="st0" width="45.1" height="3.7"/>
</g>
<g>
	<rect x="504.9" y="120.1" class="st0" width="45.1" height="3.7"/>
</g>
<g>
	<rect x="504.9" y="152.2" class="st0" width="45.1" height="3.7"/>
</g>
<g>
	<rect x="504.9" y="184.2" class="st0" width="45.1" height="3.7"/>
</g>
<g>
	<g>
		<g>
			<rect x="1378.7" y="150.9" class="st0" width="12.8" height="19.5"/>
		</g>
		<g>
			<rect x="1420.2" y="150.9" class="st0" width="12.8" height="19.5"/>
		</g>
		<g>
			<rect x="1399.4" y="150.9" class="st0" width="12.8" height="19.5"/>
		</g>
		<g>
			<rect x="1358" y="223.4" class="st0" width="12.8" height="19.5"/>
		</g>
		<g>
			<rect x="1316.5" y="223.4" class="st0" width="12.8" height="19.5"/>
		</g>
		<g>
			<rect x="1337.2" y="223.4" class="st0" width="12.8" height="19.5"/>
		</g>
		<g>
			<rect x="1316.5" y="199.2" class="st0" width="12.8" height="19.5"/>
		</g>
		<g>
			<rect x="1358" y="150.9" class="st0" width="12.8" height="19.5"/>
		</g>
		<g>
			<rect x="1316.5" y="175.1" class="st0" width="12.8" height="19.5"/>
		</g>
		<g>
			<rect x="1337.2" y="150.9" class="st0" width="12.8" height="19.5"/>
		</g>
		<g>
			<rect x="1316.5" y="150.9" class="st0" width="12.8" height="19.5"/>
		</g>
		<g>
			<rect x="1399.4" y="175.1" class="st0" width="12.8" height="19.5"/>
		</g>
		<g>
			<rect x="1420.2" y="175.1" class="st0" width="12.8" height="19.5"/>
		</g>
		<g>
			<rect x="1337.2" y="175.1" class="st0" width="12.8" height="19.5"/>
		</g>
		<g>
			<rect x="1358" y="175.1" class="st0" width="12.8" height="19.5"/>
		</g>
		<g>
			<rect x="1378.7" y="175.1" class="st0" width="12.8" height="19.5"/>
		</g>
		<g>
			<rect x="1420.2" y="199.2" class="st0" width="12.8" height="19.5"/>
		</g>
		<g>
			<rect x="1337.2" y="199.2" class="st0" width="12.8" height="19.5"/>
		</g>
		<g>
			<rect x="1358" y="199.2" class="st0" width="12.8" height="19.5"/>
		</g>
		<g>
			<rect x="1378.7" y="199.2" class="st0" width="12.8" height="19.5"/>
		</g>
		<g>
			<rect x="1399.4" y="199.2" class="st0" width="12.8" height="19.5"/>
		</g>
		<g>
			<rect x="1295.8" y="223.4" class="st0" width="12.8" height="19.5"/>
		</g>
		<g>
			<rect x="1295.8" y="175.1" class="st0" width="12.8" height="19.5"/>
		</g>
		<g>
			<rect x="1295.8" y="199.2" class="st0" width="12.8" height="19.5"/>
		</g>
		<g>
			<rect x="1295.8" y="150.9" class="st0" width="12.8" height="19.5"/>
		</g>
		<g>
			<rect x="1378.7" y="223.4" class="st0" width="12.8" height="19.5"/>
		</g>
		<g>
			<rect x="1295.8" y="126.8" class="st0" width="12.8" height="19.5"/>
		</g>
		<g>
			<rect x="1399.4" y="223.4" class="st0" width="12.8" height="19.5"/>
		</g>
		<g>
			<rect x="1420.2" y="223.4" class="st0" width="12.8" height="19.5"/>
		</g>
		<g>
			<rect x="1378.7" y="126.8" class="st0" width="12.8" height="19.5"/>
		</g>
		<g>
			<rect x="1358" y="126.8" class="st0" width="12.8" height="19.5"/>
		</g>
		<g>
			<rect x="1337.2" y="126.8" class="st0" width="12.8" height="19.5"/>
		</g>
		<g>
			<rect x="1420.2" y="126.8" class="st0" width="12.8" height="19.5"/>
		</g>
		<g>
			<rect x="1399.4" y="126.8" class="st0" width="12.8" height="19.5"/>
		</g>
		<g>
			<rect x="1316.5" y="126.8" class="st0" width="12.8" height="19.5"/>
		</g>
	</g>
	<g>
		<rect x="1378.7" y="102.8" class="st0" width="12.8" height="19.5"/>
	</g>
	<g>
		<rect x="1399.4" y="102.8" class="st0" width="12.8" height="19.5"/>
	</g>
	<g>
		<rect x="1378.7" y="78.6" class="st0" width="12.8" height="19.5"/>
	</g>
	<g>
		<rect x="1378.7" y="54.4" class="st0" width="12.8" height="19.5"/>
	</g>
	<g>
		<rect x="1399.4" y="54.4" class="st0" width="12.8" height="19.5"/>
	</g>
	<g>
		<rect x="1399.4" y="78.6" class="st0" width="12.8" height="19.5"/>
	</g>
	<g>
		<rect x="1358" y="102.8" class="st0" width="12.8" height="19.5"/>
	</g>
	<g>
		<rect x="1358" y="54.4" class="st0" width="12.8" height="19.5"/>
	</g>
	<g>
		<rect x="1358" y="78.6" class="st0" width="12.8" height="19.5"/>
	</g>
</g>
<g>
	<polygon class="st0" points="577.2,-84.8 550.3,-100.8 550.3,-104.5 577.2,-88.5 	"/>
</g>
<g>
	<polygon class="st0" points="577.2,-114.9 550.3,-132.9 550.3,-136.6 577.2,-118.6 	"/>
</g>
<g>
	<polygon class="st0" points="1475.5,10.4 1438.2,20.1 1399.1,71 1399.1,330.6 1473.8,330.6 	"/>
</g>
<g>
	<polygon class="st0" points="577.2,-54.7 550.3,-68.7 550.3,-72.4 577.2,-58.4 	"/>
</g>
<g>
	<polygon class="st0" points="577.2,-24.6 550.3,-36.7 550.3,-40.3 577.2,-28.2 	"/>
</g>
<g>
	<polygon class="st0" points="577.2,5.3 550.3,-4.6 550.3,-8.3 577.2,1.6 	"/>
</g>
<g>
	<polygon class="st0" points="577.2,35 550.3,27.5 550.3,23.8 577.2,31.3 	"/>
</g>
<g>
	<polygon class="st0" points="1509.7,10.4 1475.5,10.4 1436,64.4 1436,330.6 1509.7,330.6 	"/>
</g>
<g>
	<polygon class="st0" points="577.2,65.6 550.3,59.6 550.3,55.9 577.2,61.9 	"/>
</g>
<g>
	<polygon class="st0" points="577.2,95.1 550.3,91.7 550.3,88 577.2,91.4 	"/>
</g>
<g>
	<polygon class="st0" points="577.2,125.5 550.3,123.8 550.3,120.1 577.2,121.8 	"/>
</g>
<g>
	<polygon class="st0" points="577.2,155 550.3,155.8 550.3,152.2 577.2,151.3 	"/>
</g>
<g>
	<polygon class="st0" points="577.2,185.3 550.3,187.9 550.3,184.2 577.2,181.7 	"/>
</g>
<g>
	<polygon class="st0" points="577.2,215.4 550.3,219.7 550.3,216 577.2,211.7 	"/>
</g>
<g>
	<g>
		<g>
			<polygon class="st0" points="936.3,326.2 954.8,332.3 936.3,338.3 			"/>
		</g>
		<g>
			<rect x="933.8" y="326.2" class="st0" width="1.3" height="33"/>
		</g>
	</g>
	<g>
		<g>
			<polygon class="st0" points="968.9,326.2 987.5,332.3 968.9,338.3 			"/>
		</g>
		<g>
			<rect x="966.5" y="326.2" class="st0" width="1.3" height="33"/>
		</g>
	</g>
	<g>
		<g>
			<polygon class="st0" points="1001.5,326.2 1020.1,332.3 1001.5,338.3 			"/>
		</g>
		<g>
			<rect x="999.1" y="326.2" class="st0" width="1.3" height="33"/>
		</g>
	</g>
</g>
<g>
	<rect x="1476.5" y="71" class="st0" width="33.2" height="5.4"/>
	<rect x="1476.5" y="89.7" class="st0" width="33.2" height="5.4"/>
	<rect x="1476.5" y="108.4" class="st0" width="33.2" height="5.4"/>
	<rect x="1476.5" y="127.1" class="st0" width="33.2" height="5.4"/>
	<rect x="1476.5" y="145.8" class="st0" width="33.2" height="5.4"/>
	<rect x="1476.5" y="164.5" class="st0" width="33.2" height="5.4"/>
	<rect x="1476.5" y="183.2" class="st0" width="33.2" height="5.4"/>
</g>
<g>
	<g>
		<rect x="773" y="182.5" class="st0" width="40.4" height="5.2"/>
	</g>
	<g>
		<g>
			<path class="st0" d="M814,187.4c-8,0-16,0-24,0c-4.5,0-9,0-13.5,0c-0.4,0-2.4,0.3-2.8,0c0,0,0.2-4.3,0.2-5.1
				c-0.5,0.2-0.9,0.4-1.4,0.6c8,0,16,0,24,0c4.5,0,9,0,13.5,0c0.4,0,2.4-0.3,2.8,0c0,0-0.2,4.3-0.2,5.1c0,0.3,1.7,0,1.7-0.4
				c0-1.7,0-3.5,0-5.2c0-0.1-0.3-0.1-0.3-0.1c-13.5,0-26.9,0-40.4,0c-0.3,0-1.4,0.1-1.4,0.6c0,1.7,0,3.5,0,5.2
				c0,0.1,0.3,0.1,0.3,0.1c13.5,0,26.9,0,40.4,0C813.3,188.1,814.8,187.4,814,187.4z"/>
		</g>
	</g>
</g>
<g>
	<g>
		<polygon class="st0" points="813.4,184.2 806.2,185.9 806.2,359.3 813.4,359.3 		"/>
	</g>
	<g>
		<g>
			<path class="st0" d="M813.4,183.9c-2.4,0.5-4.8,1.1-7.3,1.6c-0.2,0.1-0.8,0.2-0.8,0.5c0,19.5,0,39,0,58.4c0,31.2,0,62.4,0,93.6
				c0,7.1,0,14.3,0,21.4c0,0.2,0.4,0.1,0.5,0.1c2.4,0,4.8,0,7.3,0c0.3,0,1.2-0.2,1.2-0.6c0-19.8,0-39.5,0-59.3c0-31.3,0-62.7,0-94
				c0-7.3,0-14.5,0-21.8c0-0.3-1.7-0.1-1.7,0.4c0,19.8,0,39.5,0,59.3c0,31.3,0,62.7,0,94c0,7.3,0,14.5,0,21.8
				c0.4-0.2,0.8-0.4,1.2-0.6c-1.5,0-3,0-4.5,0c-0.5,0-1.9,0.3-2.3,0c-0.9-0.5,0.2,0.4,0,0.1c-0.2-0.4,0-1.5,0-1.9
				c0-3.5,0-6.9,0-10.4c0-13.5,0-26.9,0-40.4c0-32.6,0-65.2,0-97.8c0-7.6,0-15.3,0-22.9c-0.3,0.2-0.5,0.3-0.8,0.5
				c2.4-0.5,4.8-1.1,7.3-1.6C814.5,184.3,814.3,183.7,813.4,183.9z"/>
		</g>
	</g>
</g>
<g>
	<g>
		<rect x="777.6" y="185.9" class="st0" width="29.2" height="173.4"/>
	</g>
	<g>
		<g>
			<path class="st0" d="M806.9,185.3c-9.7,0-19.5,0-29.2,0c-0.3,0-0.9,0.3-0.9,0.6c0,19.5,0,39,0,58.4c0,31.2,0,62.4,0,93.6
				c0,7.1,0,14.3,0,21.4c0,0.4,0.4,0.5,0.8,0.5c9.7,0,19.5,0,29.2,0c0.3,0,0.9-0.3,0.9-0.6c0-19.5,0-39,0-58.4c0-31.2,0-62.4,0-93.6
				c0-7.1,0-14.3,0-21.4c0-0.8-1.7-0.5-1.7,0.1c0,25.1,0,50.1,0,75.2c0,31.4,0,62.7,0,94.1c0,0.8-0.4,2.8,0,3.6c0.1,0.1,0,0.4,0,0.6
				c-0.1-1.3,1.4-0.4,0.6-0.6c-0.5-0.1-1.2,0-1.6,0c-8.3,0-16.6,0-24.9,0c-0.8,0-2.4-0.3-2,0.2c0.5,0.7,0.3,0,0.4-0.2
				c0.2-1,0-2.2,0-3.3c0-4.8,0-9.7,0-14.5c0-35.8,0-71.7,0-107.5c0-13.6,0-27.3,0-40.9c0-2.2,0.2-4.6,0-6.7c0.2,1.9-1.5,0.2-0.4,0.6
				c0.3,0.1,1.1,0,1.4,0c1.9,0,3.8,0,5.6,0c4.7,0,9.4,0,14.1,0c2.5,0,5,0,7.6,0C807.6,186.5,808,185.3,806.9,185.3z"/>
		</g>
	</g>
</g>
<g>
	<g>
		<polygon class="st0" points="1122.2,126.9 1149.4,123.1 1149.4,359.3 1122.2,359.3 		"/>
	</g>
	<g>
		<g>
			<path class="st0" d="M1122,127.2c4.3-0.6,8.5-1.2,12.8-1.8c2.8-0.4,5.7-0.8,8.5-1.2c1.4-0.2,4.3-1.2,5.7-0.8
				c-0.7-0.2-0.2,0.3-0.4,1.5c-0.2,1.8,0,3.7,0,5.5c0,16.7,0,33.3,0,50c0,47.8,0,95.6,0,143.4c0,11.9,0,23.7,0,35.6
				c0.5-0.2,0.9-0.4,1.4-0.6c-4.1,0-8.2,0-12.3,0c-2.9,0-5.7,0-8.6,0c-1.2,0-4.9,0.6-5.9,0c-0.7-0.4,0.2,0.4-0.1-0.1
				c-0.1-0.3,0-1.1,0-1.4c0.1-1.8,0-3.6,0-5.3c0-16.4,0-32.8,0-49.3c0-47.2,0-94.3,0-141.5c0-11.6,0-23.1,0-34.7
				c0-0.3-1.7-0.1-1.7,0.4c0,26.2,0,52.4,0,78.6c0,41.7,0,83.5,0,125.2c0,9.5,0,19.1,0,28.6c0,0.1,0.2,0.1,0.3,0.1
				c9.1,0,18.2,0,27.2,0c0.3,0,1.4-0.1,1.4-0.6c0-26.7,0-53.3,0-80c0-42.3,0-84.7,0-127c0-9.7,0-19.5,0-29.2c0-0.2-0.6-0.1-0.7-0.1
				c-9.1,1.3-18.2,2.5-27.2,3.8C1121.6,126.6,1120.8,127.4,1122,127.2z"/>
		</g>
	</g>
</g>
<g>
	<g>
		<rect x="1149.4" y="123" class="st0" width="51.9" height="236.2"/>
	</g>
	<g>
		<g>
			<path class="st0" d="M1149,123.4c9.6,0,19.3,0,28.9,0c6.1,0,12.1,0,18.2,0c1,0,3.3-0.5,4.3,0c0.9,0.4-0.3-0.6,0,0.1
				c0.4,1.1,0,2.9,0,4c0,2.7,0,5.3,0,8c0,8.9,0,17.7,0,26.6c0,51.9,0,103.9,0,155.8c0,13.8,0,27.7,0,41.5c0.4-0.2,0.8-0.4,1.2-0.6
				c-9.6,0-19.3,0-28.9,0c-6.1,0-12.1,0-18.2,0c-1,0-3.3,0.5-4.3,0c-0.9-0.4,0.3,0.6,0-0.1c-0.4-1.1,0-2.9,0-4c0-2.7,0-5.3,0-8
				c0-8.9,0-17.7,0-26.6c0-51.9,0-103.9,0-155.8c0-13.8,0-27.7,0-41.5c0-0.4-1.7-0.1-1.7,0.4c0,26.7,0,53.4,0,80
				c0,42.3,0,84.7,0,127c0,9.7,0,19.5,0,29.2c0,0.2,0.4,0.2,0.5,0.2c17.3,0,34.6,0,51.9,0c0.3,0,1.2-0.2,1.2-0.6c0-26.7,0-53.4,0-80
				c0-42.3,0-84.7,0-127c0-9.7,0-19.5,0-29.2c0-0.2-0.4-0.2-0.5-0.2c-17.3,0-34.6,0-51.9,0C1149.2,122.6,1147.9,123.4,1149,123.4z"
				/>
		</g>
	</g>
</g>
<g>
	<g>
		<rect x="1196" y="144.6" class="st0" width="6.4" height="13.6"/>
	</g>
	<g>
		<rect x="1185.6" y="195.1" class="st0" width="6.4" height="13.6"/>
	</g>
	<g>
		<rect x="1164.8" y="195.1" class="st0" width="6.4" height="13.6"/>
	</g>
	<g>
		<rect x="1175.2" y="195.1" class="st0" width="6.4" height="13.6"/>
	</g>
	<g>
		<rect x="1164.8" y="178.3" class="st0" width="6.4" height="13.6"/>
	</g>
	<g>
		<rect x="1185.6" y="144.6" class="st0" width="6.4" height="13.6"/>
	</g>
	<g>
		<rect x="1164.8" y="161.4" class="st0" width="6.4" height="13.6"/>
	</g>
	<g>
		<rect x="1175.2" y="144.6" class="st0" width="6.4" height="13.6"/>
	</g>
	<g>
		<rect x="1164.8" y="144.6" class="st0" width="6.4" height="13.6"/>
	</g>
	<g>
		<rect x="1175.2" y="161.4" class="st0" width="6.4" height="13.6"/>
	</g>
	<g>
		<rect x="1185.6" y="161.4" class="st0" width="6.4" height="13.6"/>
	</g>
	<g>
		<rect x="1196" y="161.4" class="st0" width="6.4" height="13.6"/>
	</g>
	<g>
		<rect x="1175.2" y="178.3" class="st0" width="6.4" height="13.6"/>
	</g>
	<g>
		<rect x="1185.6" y="178.3" class="st0" width="6.4" height="13.6"/>
	</g>
	<g>
		<rect x="1196" y="178.3" class="st0" width="6.4" height="13.6"/>
	</g>
	<g>
		<rect x="1154.4" y="195.1" class="st0" width="6.4" height="13.6"/>
	</g>
	<g>
		<rect x="1154.4" y="161.4" class="st0" width="6.4" height="13.6"/>
	</g>
	<g>
		<rect x="1154.4" y="178.3" class="st0" width="6.4" height="13.6"/>
	</g>
	<g>
		<rect x="1154.4" y="144.6" class="st0" width="6.4" height="13.6"/>
	</g>
	<g>
		<rect x="1196" y="195.1" class="st0" width="6.4" height="13.6"/>
	</g>
	<g>
		<rect x="1154.4" y="127.8" class="st0" width="6.4" height="13.6"/>
	</g>
	<g>
		<rect x="1196" y="127.8" class="st0" width="6.4" height="13.6"/>
	</g>
	<g>
		<rect x="1185.6" y="127.8" class="st0" width="6.4" height="13.6"/>
	</g>
	<g>
		<rect x="1175.2" y="127.8" class="st0" width="6.4" height="13.6"/>
	</g>
	<g>
		<rect x="1164.8" y="127.8" class="st0" width="6.4" height="13.6"/>
	</g>
	<g>
		<rect x="1196" y="229.7" class="st0" width="6.4" height="13.6"/>
	</g>
	<g>
		<rect x="1185.6" y="280.2" class="st0" width="6.4" height="13.6"/>
	</g>
	<g>
		<rect x="1164.8" y="280.2" class="st0" width="6.4" height="13.6"/>
	</g>
	<g>
		<rect x="1175.2" y="280.2" class="st0" width="6.4" height="13.6"/>
	</g>
	<g>
		<rect x="1164.8" y="263.3" class="st0" width="6.4" height="13.6"/>
	</g>
	<g>
		<rect x="1185.6" y="229.7" class="st0" width="6.4" height="13.6"/>
	</g>
	<g>
		<rect x="1164.8" y="246.5" class="st0" width="6.4" height="13.6"/>
	</g>
	<g>
		<rect x="1175.2" y="229.7" class="st0" width="6.4" height="13.6"/>
	</g>
	<g>
		<rect x="1164.8" y="229.7" class="st0" width="6.4" height="13.6"/>
	</g>
	<g>
		<rect x="1175.2" y="246.5" class="st0" width="6.4" height="13.6"/>
	</g>
	<g>
		<rect x="1185.6" y="246.5" class="st0" width="6.4" height="13.6"/>
	</g>
	<g>
		<rect x="1196" y="246.5" class="st0" width="6.4" height="13.6"/>
	</g>
	<g>
		<rect x="1175.2" y="263.3" class="st0" width="6.4" height="13.6"/>
	</g>
	<g>
		<rect x="1185.6" y="263.3" class="st0" width="6.4" height="13.6"/>
	</g>
	<g>
		<rect x="1196" y="263.3" class="st0" width="6.4" height="13.6"/>
	</g>
	<g>
		<rect x="1154.4" y="280.2" class="st0" width="6.4" height="13.6"/>
	</g>
	<g>
		<rect x="1154.4" y="246.5" class="st0" width="6.4" height="13.6"/>
	</g>
	<g>
		<rect x="1154.4" y="263.3" class="st0" width="6.4" height="13.6"/>
	</g>
	<g>
		<rect x="1154.4" y="229.7" class="st0" width="6.4" height="13.6"/>
	</g>
	<g>
		<rect x="1196" y="280.2" class="st0" width="6.4" height="13.6"/>
	</g>
	<g>
		<rect x="1154.4" y="212.9" class="st0" width="6.4" height="13.6"/>
	</g>
	<g>
		<rect x="1196" y="212.9" class="st0" width="6.4" height="13.6"/>
	</g>
	<g>
		<rect x="1185.6" y="212.9" class="st0" width="6.4" height="13.6"/>
	</g>
	<g>
		<rect x="1175.2" y="212.9" class="st0" width="6.4" height="13.6"/>
	</g>
	<g>
		<rect x="1164.8" y="212.9" class="st0" width="6.4" height="13.6"/>
	</g>
	<g>
		<rect x="1196" y="313.9" class="st0" width="6.4" height="13.6"/>
	</g>
	<g>
		<rect x="1185.6" y="313.9" class="st0" width="6.4" height="13.6"/>
	</g>
	<g>
		<rect x="1164.8" y="330.7" class="st0" width="6.4" height="13.6"/>
	</g>
	<g>
		<rect x="1175.2" y="313.9" class="st0" width="6.4" height="13.6"/>
	</g>
	<g>
		<rect x="1164.8" y="313.9" class="st0" width="6.4" height="13.6"/>
	</g>
	<g>
		<rect x="1175.2" y="330.7" class="st0" width="6.4" height="13.6"/>
	</g>
	<g>
		<rect x="1185.6" y="330.7" class="st0" width="6.4" height="13.6"/>
	</g>
	<g>
		<rect x="1196" y="330.7" class="st0" width="6.4" height="13.6"/>
	</g>
	<g>
		<rect x="1154.4" y="330.7" class="st0" width="6.4" height="13.6"/>
	</g>
	<g>
		<rect x="1154.4" y="313.9" class="st0" width="6.4" height="13.6"/>
	</g>
	<g>
		<rect x="1154.4" y="297.1" class="st0" width="6.4" height="13.6"/>
	</g>
	<g>
		<rect x="1196" y="297.1" class="st0" width="6.4" height="13.6"/>
	</g>
	<g>
		<rect x="1185.6" y="297.1" class="st0" width="6.4" height="13.6"/>
	</g>
	<g>
		<rect x="1175.2" y="297.1" class="st0" width="6.4" height="13.6"/>
	</g>
	<g>
		<rect x="1164.8" y="297.1" class="st0" width="6.4" height="13.6"/>
	</g>
	<g>
		<rect x="1154.4" y="347.5" class="st0" width="6.4" height="11.8"/>
	</g>
	<g>
		<rect x="1164.8" y="347.5" class="st0" width="6.4" height="11.8"/>
	</g>
	<g>
		<rect x="1175.2" y="347.5" class="st0" width="6.4" height="11.8"/>
	</g>
	<g>
		<rect x="1185.6" y="347.5" class="st0" width="6.4" height="11.8"/>
	</g>
	<g>
		<rect x="1196" y="347.5" class="st0" width="6.4" height="11.8"/>
	</g>
</g>
<g>
	<g>
		<polygon class="st0" points="1183.8,340.7 1197.3,340.7 1197.3,138.6 1183.8,139.1 		"/>
	</g>
	<g>
		<g>
			<path class="st0" d="M1183.2,341.1c4.5,0,9,0,13.5,0c0.3,0,1.4-0.1,1.4-0.6c0-22.8,0-45.7,0-68.5c0-36.2,0-72.5,0-108.7
				c0-8.3,0-16.6,0-25c0-0.2-0.4-0.1-0.5-0.1c-4.5,0.2-9,0.4-13.5,0.5c-0.3,0-1.2,0.2-1.2,0.6c0,22.8,0,45.5,0,68.3
				c0,36.1,0,72.2,0,108.3c0,8.3,0,16.7,0,25c0,0.3,1.7,0.1,1.7-0.4c0-22.8,0-45.5,0-68.3c0-36.1,0-72.2,0-108.3c0-8.3,0-16.7,0-25
				c-0.4,0.2-0.8,0.4-1.2,0.6c3.9-0.2,7.8-0.3,11.7-0.5c1.9-0.1,1.3-0.7,1.3,0.7c0.1,3.4,0,6.9,0,10.3c0,15.4,0,30.7,0,46.1
				c0,39,0,77.9,0,116.9c0,9.3,0,18.6,0,28c0.5-0.2,0.9-0.4,1.4-0.6c-4.5,0-9,0-13.5,0C1183.9,340.4,1182.4,341.1,1183.2,341.1z"/>
		</g>
	</g>
</g>
<g>
	<g>
		<polygon class="st0" points="1200,182.2 1212,182.2 1211.4,-126.5 1200,-113 		"/>
	</g>
	<g>
		<g>
			<path class="st0" d="M1199.6,182.7c4,0,8.1,0,12.1,0c0.4,0,1.2-0.2,1.2-0.7c0-10.2,0-20.4-0.1-30.6c-0.1-24.6-0.1-49.3-0.2-73.9
				c-0.1-29.7-0.1-59.3-0.2-89c-0.1-25.7-0.1-51.3-0.2-77c0-8.5,0-17.1-0.1-25.6c0-2.6,0-5.2,0-7.8c0-1,0.4-3.3,0-4.2
				c-0.1-0.1,0-0.4,0-0.5c0-0.6-1.4,0-1.6,0.2c-3.5,4.1-8.2,8.2-10.9,12.9c-0.6,1-0.5,1-0.6,2.2c-0.2,5,0,10.1,0,15.2
				c0,22.4,0,44.8,0,67.2c0,30,0,60,0,90c0,27,0,53.9,0,80.9c0,9,0,18,0,26.9c0,2.9,0,5.7,0,8.6c0,1.1-0.4,3.4,0,4.5
				c0.1,0.1,0,0.4,0,0.6c0,0.5,1.7,0.2,1.7-0.4c0-10.9,0-21.8,0-32.7c0-25.6,0-51.1,0-76.7c0-30.1,0-60.1,0-90.2c0-24,0-48.1,0-72.1
				c0-6.5,0-12.9,0-19.4c0-1.1-0.3-2.8,0-3.9c0.6-2.2,5.1-6.2,7-8.5c1.4-1.7,2.9-3.4,4.3-5.1c-0.5,0.1-1.1,0.1-1.6,0.2
				c0,10.2,0,20.4,0.1,30.6c0.1,24.6,0.1,49.3,0.2,73.9c0.1,29.7,0.1,59.3,0.2,89c0.1,25.7,0.1,51.3,0.2,77c0,8.5,0,17.1,0.1,25.6
				c0,2.6,0,5.2,0,7.8c0,0.8-0.5,3.5,0,4.2c0.1,0.1,0,0.4,0,0.5c0.4-0.2,0.8-0.5,1.2-0.7c-4,0-8.1,0-12.1,0
				C1199.7,181.8,1198.5,182.7,1199.6,182.7z"/>
		</g>
	</g>
</g>
<g>
	<g>
		<polygon class="st0" points="1216.5,-125.6 1227.8,-125.6 1227.8,-183.3 1216.5,-168.7 		"/>
	</g>
	<g>
		<g>
			<path class="st0" d="M1216.2-125.2c3.7,0,7.5,0,11.2,0c0.3,0,1.2-0.2,1.2-0.6c0-19.3,0-38.5,0-57.8c0-0.5-1.4,0.1-1.6,0.3
				c-3.5,4.5-7.6,8.9-10.5,13.7c-1.5,2.5-0.8,5.9-0.8,8.8c0,11.8,0,23.6,0,35.4c0,0.4,1.7,0.1,1.7-0.4c0-11.5,0-22.9,0-34.4
				c0-3.2-0.9-7.5,0.9-9.8c3.4-4.4,6.8-8.9,10.3-13.4c-0.5,0.1-1.1,0.2-1.6,0.3c0,19.3,0,38.5,0,57.8c0.4-0.2,0.8-0.4,1.2-0.6
				c-3.7,0-7.5,0-11.2,0C1216.4-125.9,1215.1-125.2,1216.2-125.2z"/>
		</g>
	</g>
</g>
<g>
	<g>
		<polygon class="st0" points="952.3,-39.4 952.3,-55.4 903.9,-55.4 903.9,-39.4 873.1,-39.4 873.1,359.3 983,359.3 983,-39.4 		"/>
	</g>
	<g>
		<g>
			<path class="st0" d="M953.1-39.4c0-5.3,0-10.7,0-16c0-0.3-0.3-0.4-0.5-0.4c-16.1,0-32.3,0-48.4,0c-0.3,0-1.1,0.2-1.1,0.6
				c0,5.3,0,10.7,0,16c0.4-0.2,0.8-0.4,1.1-0.6c-10.2,0-20.5,0-30.7,0c-0.3,0-1.1,0.2-1.1,0.6c0,13.3,0,26.5,0,39.8
				c0,31.7,0,63.4,0,95.2c0,38.3,0,76.7,0,115c0,33.2,0,66.3,0,99.5c0,11,0,21.9,0,32.9c0,3.4,0,6.7,0,10.1c0,1.6-0.4,3.9,0,5.4
				c0.1,0.2,0,0.5,0,0.7c0,0.3,0.3,0.4,0.5,0.4c32.1,0,64.3,0,96.4,0c4.5,0,9,0,13.5,0c0.3,0,1.1-0.2,1.1-0.6c0-13.3,0-26.5,0-39.8
				c0-31.7,0-63.4,0-95.2c0-38.3,0-76.7,0-115c0-33.2,0-66.3,0-99.5c0-11,0-21.9,0-32.9c0-3.4,0-6.7,0-10.1c0-1.6,0.4-3.9,0-5.4
				c-0.1-0.2,0-0.5,0-0.7c0-0.3-0.3-0.4-0.5-0.4c-10.2,0-20.5,0-30.7,0c-0.7,0-1.7,1.1-0.6,1.1c7.8,0,15.7,0,23.5,0
				c1.7,0,3.4,0,5.2,0c1.3,0,1.9,0.4,1.5-0.4c0.1,0.2,0,0.8,0,1c-0.4,2,0,4.6,0,6.6c0,4,0,7.9,0,11.9c0,29.8,0,59.7,0,89.5
				c0,40.8,0,81.6,0,122.5c0,37,0,74,0,111.1c0,12.5,0,24.9,0,37.4c0,3.9,0,7.8,0,11.7c0,1.6-0.6,4.7,0,6.2c0.1,0.2,0,0.6,0,0.8
				c0.4-0.2,0.8-0.4,1.1-0.6c-35.6,0-71.2,0-106.8,0c-0.8,0-1.6,0.1-2.5,0c-0.9-0.1-0.2,0,0,0.4c-0.1-0.3,0-1.2,0-1.5
				c0.3-3.1,0-6.4,0-9.4c0-13.2,0-26.4,0-39.6c0-44,0-87.9,0-131.9c0-46.7,0-93.5,0-140.2c0-16.7,0-33.3,0-50c0-5.4,0-10.8,0-16.2
				c0-2.5,0.7-6.2,0-8.6c-0.1-0.3,0-0.7,0-1.1c-0.4,0.2-0.8,0.4-1.1,0.6c10.2,0,20.5,0,30.7,0c0.3,0,1.1-0.2,1.1-0.6
				c0-5.3,0-10.7,0-16c-0.4,0.2-0.8,0.4-1.1,0.6c11.8,0,23.6,0,35.4,0c3,0,6,0,9.1,0c0.9,0,3.2-0.5,4,0c-1-0.6-0.5,1.1-0.5,2.1
				c0,1.8,0,3.7,0,5.5c0,2.7,0,5.3,0,8C951.4-38.5,953.1-38.8,953.1-39.4z"/>
		</g>
	</g>
</g>
<g>
	<rect x="906.4" y="-7.1" class="st0" width="43.6" height="12"/>
</g>
<g>
	<rect x="876.6" y="-7.1" class="st0" width="24.1" height="12"/>
</g>
<g>
	<rect x="955.8" y="-7.1" class="st0" width="24.1" height="12"/>
</g>
<g>
	<path class="st0" d="M885.4-15.6l-3.3-12.9h1.8l1.5,6.5c0.4,1.6,0.7,3.2,1,4.4h0c0.2-1.3,0.6-2.8,1-4.5l1.7-6.5h1.7l1.6,6.5
		c0.4,1.5,0.7,3.1,0.9,4.4h0c0.3-1.4,0.6-2.8,1-4.4l1.7-6.5h1.7l-3.6,12.9h-1.7l-1.6-6.7c-0.4-1.6-0.7-2.9-0.8-4.2h0
		c-0.2,1.3-0.5,2.5-1,4.2l-1.8,6.7L885.4-15.6L885.4-15.6z"/>
	<path class="st0" d="M910.4-22.1c0,4.4-2.7,6.8-6,6.8c-3.4,0-5.8-2.6-5.8-6.5c0-4.1,2.5-6.8,6-6.8
		C908.2-28.6,910.4-25.9,910.4-22.1z M900.4-21.9c0,2.7,1.5,5.2,4.1,5.2c2.6,0,4.1-2.4,4.1-5.3c0-2.6-1.3-5.2-4.1-5.2
		C901.8-27.3,900.4-24.7,900.4-21.9z"/>
	<path class="st0" d="M923.6-22.1c0,4.4-2.7,6.8-6,6.8c-3.4,0-5.8-2.6-5.8-6.5c0-4.1,2.5-6.8,6-6.8
		C921.3-28.6,923.6-25.9,923.6-22.1z M913.6-21.9c0,2.7,1.5,5.2,4.1,5.2c2.6,0,4.1-2.4,4.1-5.3c0-2.6-1.3-5.2-4.1-5.2
		C915-27.3,913.6-24.7,913.6-21.9z"/>
	<path class="st0" d="M925.7-28.3c1-0.2,2.2-0.3,3.5-0.3c2.4,0,4.1,0.6,5.2,1.6c1.1,1.1,1.8,2.5,1.8,4.6c0,2.1-0.6,3.8-1.9,5
		c-1.2,1.2-3.2,1.9-5.7,1.9c-1.2,0-2.2-0.1-3-0.2L925.7-28.3L925.7-28.3z M927.4-16.9c0.4,0.1,1,0.1,1.7,0.1c3.6,0,5.5-2,5.5-5.5
		c0-3-1.7-5-5.2-5c-0.9,0-1.5,0.1-1.9,0.2V-16.9z"/>
	<path class="st0" d="M949.3-21.2c-0.1-1.8-0.2-4-0.2-5.6h-0.1c-0.4,1.5-1,3.1-1.6,4.9l-2.3,6.2h-1.3l-2.1-6.1
		c-0.6-1.8-1.1-3.5-1.5-5h0c0,1.6-0.1,3.8-0.2,5.7l-0.3,5.5h-1.6l0.9-12.9h2.1l2.2,6.2c0.5,1.6,1,3,1.3,4.3h0.1
		c0.3-1.3,0.8-2.7,1.4-4.3l2.3-6.2h2.1l0.8,12.9h-1.6L949.3-21.2z"/>
	<path class="st0" d="M960.5-21.6h-5v4.6h5.6v1.4h-7.2v-12.9h7v1.4h-5.3v4.1h5V-21.6z"/>
	<path class="st0" d="M963.2-15.6v-12.9h1.8l4.1,6.5c1,1.5,1.7,2.9,2.3,4.2l0,0c-0.2-1.7-0.2-3.3-0.2-5.3v-5.4h1.6v12.9h-1.7
		l-4.1-6.5c-0.9-1.4-1.8-2.9-2.4-4.3l-0.1,0c0.1,1.6,0.1,3.2,0.1,5.3v5.5L963.2-15.6L963.2-15.6z"/>
</g>
<g>
	<g>
		<polygon class="st0" points="988.8,153.6 1043.6,153.6 1043.4,102.3 988.8,134.2 		"/>
	</g>
	<g>
		<g>
			<path class="st0" d="M988.3,154c18.3,0,36.6,0,54.8,0c0.3,0,1.4-0.1,1.4-0.5c-0.1-17.1-0.2-34.2-0.3-51.3c0-0.3-1.3,0.1-1.5,0.2
				c-9.6,5.6-19.2,11.2-28.8,16.8c-6.3,3.7-12.7,7.4-19,11.1c-1.6,0.9-6.1,2.5-7,4.2c-0.4,0.8,0,2.8,0,3.7c0,2.1,0,4.3,0,6.4
				c0,3.1,0,6.2,0,9.3c0,0.2,1.7,0,1.7-0.4c0-5.9,0.3-11.9,0-17.9c-0.1-1.8-0.4-1.1,0.8-2c1.6-1.1,3.4-2,5-2.9
				c12.5-7.3,25-14.6,37.5-21.9c3.7-2.1,7.3-4.3,11-6.4c-0.5,0.1-1,0.1-1.5,0.2c0.1,17.1,0.2,34.2,0.3,51.3c0.5-0.2,0.9-0.4,1.4-0.5
				c-18.3,0-36.6,0-54.8,0C989,153.3,987.5,154,988.3,154z"/>
		</g>
	</g>
</g>
<g>
	<rect x="876.6" y="8.7" class="st0" width="2.9" height="350.6"/>
	<rect x="882.5" y="8.7" class="st0" width="2.9" height="350.6"/>
	<rect x="888.4" y="8.7" class="st0" width="2.9" height="350.6"/>
	<rect x="894.3" y="8.7" class="st0" width="2.9" height="350.6"/>
	<rect x="900.2" y="8.7" class="st0" width="2.9" height="350.6"/>
	<rect x="906.1" y="8.7" class="st0" width="2.9" height="350.6"/>
	<rect x="912" y="8.7" class="st0" width="2.9" height="350.6"/>
	<rect x="917.9" y="8.7" class="st0" width="2.9" height="350.6"/>
	<rect x="923.8" y="8.7" class="st0" width="2.9" height="350.6"/>
	<rect x="929.7" y="8.7" class="st0" width="2.9" height="350.6"/>
	<rect x="935.6" y="8.7" class="st0" width="2.9" height="350.6"/>
	<rect x="941.6" y="8.7" class="st0" width="2.9" height="350.6"/>
	<rect x="947.5" y="8.7" class="st0" width="2.9" height="350.6"/>
	<rect x="953.4" y="8.7" class="st0" width="2.9" height="350.6"/>
	<rect x="959.3" y="8.7" class="st0" width="2.9" height="350.6"/>
	<rect x="965.2" y="8.7" class="st0" width="2.9" height="350.6"/>
	<rect x="971.1" y="8.7" class="st0" width="2.9" height="350.6"/>
	<rect x="977" y="8.7" class="st0" width="2.9" height="350.6"/>
</g>
<g>
	<g>
		<polygon class="st0" points="946,153.6 890.9,153.6 890.9,102.3 946,134.2 		"/>
	</g>
	<g>
		<g>
			<path class="st0" d="M946.5,153.3c-15.5,0-31,0-46.5,0c-2.1,0-6,0.8-8,0c-1-0.4,0,0.4-0.3-0.2c-0.3-0.6,0-2,0-2.6
				c0-8.7,0-17.4,0-26.2c0-7.4,0-14.8,0-22.2c-0.5,0.2-1.1,0.3-1.6,0.5c9.3,5.4,18.6,10.8,27.9,16.1c6.3,3.7,12.6,7.3,19,11
				c1.9,1.1,7.2,3,8.1,4.9c0.4,0.8,0,3,0,3.9c0,2.2,0,4.4,0,6.5c0,3,0,5.9,0,8.9c0,0.2,1.7,0,1.7-0.4c0-5.9,0.7-12.2,0-18.1
				c-0.2-1.6,0.1-1-0.8-1.8c-1.2-1.2-3.4-2-4.9-2.8c-12.7-7.3-25.4-14.7-38-22c-3.8-2.2-7.6-4.4-11.4-6.6c-0.3-0.2-1.6,0.1-1.6,0.5
				c0,17.1,0,34.2,0,51.3c0,0.1,0.3,0.1,0.3,0.1c18.4,0,36.7,0,55.1,0C945.7,153.9,947.3,153.3,946.5,153.3z"/>
		</g>
	</g>
</g>
<g>
	<g>
		<polygon class="st0" points="974.9,359.3 1029.7,359.3 1029.7,120.1 974.9,143.8 		"/>
	</g>
	<g>
		<g>
			<path class="st0" d="M974.6,359.7c18.3,0,36.6,0,54.8,0c0.3,0,1.2-0.2,1.2-0.6c0-27,0-54.1,0-81.1c0-42.9,0-85.8,0-128.6
				c0-9.8,0-19.7,0-29.5c0-0.4-1-0.1-1.1-0.1c-18.3,7.9-36.6,15.8-54.8,23.7c-0.2,0.1-0.5,0.2-0.5,0.5c0,24.3,0,48.7,0,73
				c0,38.6,0,77.2,0,115.8c0,8.9,0,17.7,0,26.6c0,0.4,1.7,0.1,1.7-0.4c0-35.9,0-71.8,0-107.7c0-24.5,0-48.9,0-73.4
				c0-8.2,0-16.5,0-24.7c0-2.8-0.8-6.9,0-9.6c-0.1,0.2-0.8,0.8,0,0.3c0.5-0.3,1.2-0.5,1.8-0.8c2-0.9,4.1-1.8,6.1-2.6
				c6.2-2.7,12.4-5.4,18.6-8.1c9.3-4,18.5-8,27.8-12c-0.4,0-0.8,0-1.1-0.1c0,27,0,54.1,0,81.1c0,42.9,0,85.8,0,128.6
				c0,9.8,0,19.7,0,29.5c0.4-0.2,0.8-0.4,1.2-0.6c-18.3,0-36.6,0-54.8,0C974.7,358.9,973.4,359.7,974.6,359.7z"/>
		</g>
	</g>
</g>
<g>
	<g>
		<polygon class="st0" points="959.9,359.3 905,359.3 905,120.1 959.9,143.8 		"/>
	</g>
	<g>
		<g>
			<path class="st0" d="M960,358.7c-9.7,0-19.4,0-29.1,0c-6.3,0-12.7,0-19,0c-1.7,0-3.6-0.2-5.4,0c-1.8,0.2-0.6-0.3-0.6,0.4
				c-0.7-12.5,0-25.2,0-37.8c0-52.9,0-105.9,0-158.8c0-14.2,0-28.3,0-42.5c-0.4,0.2-0.9,0.4-1.3,0.6c17.7,7.7,35.4,15.3,53.2,23
				c0.8,0.4,1.7,1.2,1.3,0.3c0.1,0.2,0,0.5,0,0.8c0.1,1.7,0,3.4,0,5.1c0,7.2,0,14.4,0,21.6c0,49,0,98,0,147c0,13.7,0,27.3,0,41
				c0,0.8,1.7,0.6,1.7-0.1c0-24.3,0-48.7,0-73c0-38.6,0-77.2,0-115.8c0-8.9,0-17.7,0-26.6c0-0.3-0.1-0.4-0.4-0.5
				c-18.3-7.9-36.6-15.8-54.8-23.7c-0.4-0.2-1.3,0.1-1.3,0.6c0,27,0,54.1,0,81.1c0,42.9,0,85.8,0,128.6c0,9.8,0,19.7,0,29.5
				c0,0.4,0.4,0.5,0.8,0.5c18.3,0,36.6,0,54.8,0C960.7,359.9,961.1,358.7,960,358.7z"/>
		</g>
	</g>
</g>
<g>
	<g>
		<polygon class="st0" points="1233.6,-183.3 1244.8,-183.3 1244.8,-235 1233.6,-219.5 		"/>
	</g>
	<g>
		<g>
			<path class="st0" d="M1233.3-182.7c3.7,0,7.5,0,11.2,0c0.3,0,1.1-0.2,1.1-0.6c0-17.3,0-34.5,0-51.8c0-0.8-1.3-0.3-1.6,0
				c-3.1,4.3-6.2,8.5-9.3,12.8c-2.2,3-2,3.8-2,7.6c0,10.5,0,21,0,31.5c0,0.8,1.7,0.4,1.7-0.2c0-10.3,0-20.6,0-30.9
				c0-1.5-0.4-3.6,0-5c0.2-0.9,1.4-2.2,2.1-3.1c3-4.2,6.1-8.4,9.1-12.5c-0.5,0-1.1,0-1.6,0c0,17.3,0,34.5,0,51.8
				c0.4-0.2,0.8-0.4,1.1-0.6c-3.7,0-7.5,0-11.2,0C1233.2-183.8,1232.1-182.7,1233.3-182.7z"/>
		</g>
	</g>
</g>
<g>
	<g>
		<polygon class="st0" points="1335,138.4 1335,-126.5 1319.9,-126.5 1319.9,-183.3 1301.6,-183.3 1301.6,-235 1287.6,-235 
			1287.6,-241 1283.5,-241 1283.5,-235 1279.3,-235 1279.3,-241 1275.2,-241 1275.2,-235 1271.1,-235 1271.1,-241 1267,-241 
			1267,-235 1262.9,-235 1262.9,-241 1258.8,-241 1258.8,-235 1244.8,-235 1244.8,-183.3 1227.5,-183.3 1227.5,-126.5 
			1211.4,-126.5 1211.4,138.4 1196.5,138.4 1196.5,359.2 1341.3,359.2 1341.3,138.4 		"/>
	</g>
	<g>
		<g>
			<path class="st0" d="M1335.8,138.3c0-29.9,0-59.8,0-89.7c0-47.6,0-95.2,0-142.7c0-10.8,0-21.6,0-32.4c0-0.4-0.4-0.6-0.8-0.6
				c-3.2,0-6.4,0-9.6,0c-1.6,0-3.3-0.2-4.9,0c-0.8,0.1,0.1,0.9,0.3,0.2c0.9-5.3,0-11.6,0-17c0-13.1,0-26.2,0-39.3
				c0-0.4-0.4-0.6-0.8-0.6c-2.9,0-5.8,0-8.8,0c-2.9,0-6.6,0.6-9.4,0c1.3,0.3,0.1,0.8,0.6-0.3c0.2-0.6,0-1.8,0-2.4c0-3.2,0-6.3,0-9.5
				c0-13,0-26,0-39c0-0.4-0.4-0.6-0.8-0.6c-3.7,0-7.3,0-11,0c-0.7,0-1.6-0.1-2.3,0c-1.1,0.2,0,0.5,0,0.1c0-1.8,0-3.6,0-5.4
				c0-0.4-0.4-0.6-0.8-0.6c-1.4,0-2.7,0-4.1,0c-0.3,0-0.9,0.3-0.9,0.7c0,1.4-0.2,2.8,0,4.2c0,0.3-0.3,2.2,0.4,1.4
				c0.5-0.7-0.8-0.3-1.5-0.3c-0.4,0-1.5,0.2-1.9,0c1.2,0.6,0.4-0.1,0.6-1.2c0.2-1.3,0-2.8,0-4.2c0-0.4-0.4-0.6-0.8-0.6
				c-1.4,0-2.7,0-4.1,0c-0.3,0-0.9,0.3-0.9,0.7c0,1.4-0.2,2.8,0,4.2c0,0.3-0.3,2.2,0.4,1.4c0.5-0.7-0.8-0.3-1.5-0.3
				c-0.4,0-1.5,0.2-1.9,0c1.2,0.6,0.4-0.1,0.6-1.2c0.2-1.3,0-2.8,0-4.2c0-0.4-0.4-0.6-0.8-0.6c-1.4,0-2.7,0-4.1,0
				c-0.3,0-0.9,0.3-0.9,0.7c0,1.4-0.2,2.8,0,4.2c0,0.3-0.3,2.2,0.4,1.4c0.5-0.7-0.8-0.3-1.5-0.3c-0.4,0-1.5,0.2-1.9,0
				c1.2,0.6,0.4-0.1,0.6-1.2c0.2-1.3,0-2.8,0-4.2c0-0.4-0.4-0.6-0.8-0.6c-1.4,0-2.7,0-4.1,0c-0.3,0-0.9,0.3-0.9,0.7
				c0,1.4-0.5,3.9,0,5.1c0.3,0.8,1.1,0.2,0.4,0.1c-0.8-0.1-1.7,0-2.5,0c-3.7,0-7.3,0-11,0c-0.3,0-0.9,0.3-0.9,0.7
				c0,12.7,0,25.5,0,38.2c0,3.2,0,6.4,0,9.5c0,0.6-0.2,4.6,0.4,3.6c0.5-0.8-1.4-0.3-2.4-0.3c-1.9,0-3.8,0-5.8,0c-2.9,0-5.8,0-8.6,0
				c-0.3,0-0.9,0.3-0.9,0.7c0,13.4,0,26.7,0,40.1c0,3.5,0,7.1,0,10.6c0,1.6-0.5,4.3,0,5.7c0.2,0.7-1.3-0.3,0.9-0.4
				c-0.4,0-0.9,0.1-1.2,0c-1.7-0.3-3.8,0-5.6,0c-3.1,0-6.2,0-9.3,0c-0.3,0-0.9,0.3-0.9,0.7c0,32.5,0,65,0,97.6
				c0,48.4,0,96.8,0,145.3c0,6.4,0,12.7,0,19.1c0,1,0,2,0,3c0-1,1.4-0.6,0.7-0.7c-0.6-0.1-1.2,0-1.8,0c-1.5,0-3,0-4.6,0
				c-2.8,0-5.5,0-8.3,0c-0.3,0-0.9,0.3-0.9,0.7c0,24.8,0,49.6,0,74.4c0,39.7,0,79.4,0,119.1c0,9.1,0,18.2,0,27.2
				c0,0.4,0.4,0.6,0.8,0.6c42.2,0,84.4,0,126.6,0c6,0,12.1,0,18.1,0c0.3,0,0.9-0.3,0.9-0.7c0-24.8,0-49.6,0-74.4
				c0-39.7,0-79.4,0-119.1c0-9.1,0-18.2,0-27.2c0-0.4-0.4-0.6-0.8-0.6c-2.1,0-4.2,0-6.3,0c-1,0-1.3,1.3-0.1,1.3c1.2,0,2.4,0,3.6,0
				c0.8,0,1.6-0.1,2.4,0c0.6,0.1-0.4-0.6-0.4-0.5c0.1,0.3,0.1,0.8,0,1.1c-0.4,1.8,0,4.2,0,6c0,8.4,0,16.9,0,25.3c0,27,0,54,0,81
				c0,26.4,0,52.8,0,79.2c0,7.8,0,15.5,0,23.3c0,1.1-0.5,3.5,0,4.5c0.3,0.6,1-0.3,0.7-0.4c-0.6-0.2-1.4,0-2,0c-22,0-43.9,0-65.9,0
				c-23.9,0-47.7,0-71.6,0c-1.6,0-3.4,0.3-5,0c1.2,0.2,0.4,0.9,0.7,0.1c0.2-0.5,0-1.4,0-1.9c0-6.6,0-13.1,0-19.7
				c0-25.4,0-50.8,0-76.2c0-27.7,0-55.4,0-83.1c0-9.4,0-18.9,0-28.3c0-2.7,0-5.4,0-8.1c0-0.6,0.2-1.6,0-2.1c-0.5-1.2,1.1-0.2-0.8,0
				c4.9-0.4,9.9,0,14.8,0c0.3,0,0.9-0.3,0.9-0.7c0-32.9,0-65.9,0-98.8c0-48.4,0-96.8,0-145.3c0-6.1,0-12.3,0-18.4
				c0-0.5,0.2-1.3,0-1.8c-0.4-1.2,0.7,0.2-0.7,0.1c5.2,0.5,10.7,0,15.9,0c0.3,0,0.9-0.3,0.9-0.7c0-9.6,0-19.2,0-28.8
				c0-6.6,0-13.2,0-19.9c0-2,0-4.1,0-6.1c0-0.4,0.2-1.2,0-1.5c-0.3-0.7-0.8,0.2-0.6,0.3c2.7,0.6,6.4,0,9.1,0c2.6,0,5.2,0,7.8,0
				c0.3,0,0.9-0.3,0.9-0.7c0-12,0-23.9,0-35.9c0-3.4,0-6.7,0-10.1c0-1.7,0.3-3.7,0-5.4c-0.2-0.9-1.1,0-0.4,0.2c1.2,0.4,3.1,0,4.4,0
				c3,0,6,0,9.1,0c0.3,0,0.9-0.3,0.9-0.7c0-1.4,0.2-2.8,0-4.2c0-0.3,0.3-2.2-0.4-1.4c-0.5,0.7,0.8,0.3,1.5,0.3c0.4,0,1.5-0.2,1.9,0
				c-1.2-0.6-0.4,0.1-0.6,1.2c-0.2,1.3,0,2.8,0,4.2c0,0.4,0.4,0.6,0.8,0.6c1.4,0,2.7,0,4.1,0c0.3,0,0.9-0.3,0.9-0.7
				c0-1.4,0.2-2.8,0-4.2c0-0.3,0.3-2.2-0.4-1.4c-0.5,0.7,0.8,0.3,1.5,0.3c0.4,0,1.5-0.2,1.9,0c-1.2-0.6-0.4,0.1-0.6,1.2
				c-0.2,1.3,0,2.8,0,4.2c0,0.4,0.4,0.6,0.8,0.6c1.4,0,2.7,0,4.1,0c0.3,0,0.9-0.3,0.9-0.7c0-1.4,0.2-2.8,0-4.2
				c0-0.3,0.3-2.2-0.4-1.4c-0.5,0.7,0.8,0.3,1.5,0.3c0.4,0,1.5-0.2,1.9,0c-1.2-0.6-0.4,0.1-0.6,1.2c-0.2,1.3,0,2.8,0,4.2
				c0,0.4,0.4,0.6,0.8,0.6c1.4,0,2.7,0,4.1,0c0.3,0,0.9-0.3,0.9-0.7c0-1.4,0.2-2.8,0-4.2c0-0.3,0.3-2.2-0.4-1.4
				c-0.5,0.7,0.8,0.3,1.5,0.3c0.4,0,1.5-0.2,1.9,0c-1.2-0.6-0.4,0.1-0.6,1.2c-0.2,1.3,0,2.8,0,4.2c0,0.4,0.4,0.6,0.8,0.6
				c3,0,6,0,9.1,0c1.4,0,2.9,0.1,4.4,0c0.8-0.1-0.1-0.9-0.2-0.1c-0.7,4.9,0,10.5,0,15.4c0,12,0,23.9,0,35.9c0,0.4,0.4,0.6,0.8,0.6
				c5.3,0,10.6,0,15.9,0c0.7,0,1.6-0.1,2.3,0c-0.9-0.2-0.4-0.9-0.7,0c-0.4,1.4,0,3.4,0,4.9c0,13.2,0,26.4,0,39.5c0,3.9,0,7.8,0,11.8
				c0,0.4,0.4,0.6,0.8,0.6c4.7,0,9.9,0.7,14.5,0c0.7-0.1-0.1-1-0.3-0.2c-0.1,0.4,0,0.9,0,1.4c0,4.9,0,9.8,0,14.7
				c0,20.3,0,40.6,0,60.8c0,50.5,0,101.1,0,151.6c0,12,0,24,0,36C1334.1,139.4,1335.8,139.1,1335.8,138.3z"/>
		</g>
	</g>
</g>
<g>
	<g>
		<polygon class="st0" points="890.9,120.1 890.9,102.3 835.9,102.3 835.9,120.1 821.7,120.1 821.7,359.3 905,359.3 905,120.1 		"/>
	</g>
	<g>
		<g>
			<path class="st0" d="M891.7,120c0-5.9,0-11.8,0-17.7c0-0.4-0.4-0.5-0.8-0.5c-18.3,0-36.6,0-55,0c-0.3,0-0.9,0.3-0.9,0.7
				c0,2.5,0,5.1,0,7.6c0,1.9,0,3.9,0,5.8c0,1-0.4,2.8,0,3.7c0.3,0.6,1.3,0.3-0.1,0c-1.4-0.4-3.4,0-4.9,0c-2.8,0-5.6,0-8.4,0
				c-0.3,0-0.9,0.3-0.9,0.7c0,27,0,54.1,0,81.1c0,42.9,0,85.8,0,128.6c0,9.8,0,19.7,0,29.5c0,0.4,0.4,0.5,0.8,0.5
				c24.3,0,48.5,0,72.8,0c3.5,0,7,0,10.6,0c0.3,0,0.9-0.3,0.9-0.7c0-27,0-54.1,0-81.1c0-42.9,0-85.8,0-128.6c0-9.8,0-19.7,0-29.5
				c0-0.4-0.4-0.5-0.8-0.5c-4.7,0-9.4,0-14.1,0c-0.9,0-1.3,1.2-0.2,1.2c2.4,0,4.7,0,7.1,0c1.6,0,3.1,0,4.7,0c0.5,0,1.1,0.1,1.6,0
				c1.1-0.2,0.1,0.3,0-0.5c0.1,0.8,0,1.8,0,2.7c0,6.1,0,12.2,0,18.3c0,23.8,0,47.6,0,71.3c0,27.9,0,55.8,0,83.8
				c0,18.9,0,37.9,0,56.8c0,1.5-0.5,3.9,0,5.4c0.1,0.3-0.1,0.6,0,0.9c-0.2-1,1.7-0.3-0.3-0.6c-3.6-0.5-7.6,0-11.2,0
				c-6.2,0-12.5,0-18.7,0c-13.4,0-26.8,0-40.2,0c-3.4,0-7.6-0.6-11,0c-1.6,0.3-0.4-0.5-0.4,0.5c0-0.3-0.1-0.7,0-1
				c0.4-1.6,0-3.8,0-5.5c0-3.2,0-6.4,0-9.6c0-9.7,0-19.4,0-29.2c0-26.9,0-53.9,0-80.8c0-26.1,0-52.1,0-78.2c0-8.4,0-16.9,0-25.3
				c0-2.4,0-4.7,0-7.1c0-0.4,0.2-3.3-0.4-2.2c-0.4,0.7,0.9,0.3,1.9,0.3c1.6,0,3.2,0,4.7,0c2.4,0,4.7,0,7.1,0c0.3,0,0.9-0.3,0.9-0.7
				c0-2.8,0-5.6,0-8.4c0-2,0-4,0-6c0-0.4,0-3.9-0.5-2.9c-0.4,0.7-0.3,0.1,0.6,0.3c0.8,0.2,1.9,0,2.8,0c3.2,0,6.4,0,9.7,0
				c8.3,0,16.6,0,24.9,0c3.6,0,7.1,0,10.7,0c1.7,0,3.8-0.3,5.5,0c0.8,0.2-0.4-0.4-0.4-0.5c0.1,0.3,0.1,0.9,0,1.2
				c-0.5,1.7,0,4.2,0,5.9c0,3.5,0,7.1,0,10.6C890.1,121,891.7,120.7,891.7,120z"/>
		</g>
	</g>
</g>
<g>
	<g>
		<rect x="826.3" y="127.8" class="st0" width="8.2" height="24.7"/>
	</g>
	<g>
		<rect x="839.5" y="127.8" class="st0" width="8.2" height="24.7"/>
	</g>
	<g>
		<rect x="852.7" y="127.8" class="st0" width="8.2" height="24.7"/>
	</g>
	<g>
		<rect x="865.8" y="127.8" class="st0" width="8.2" height="24.7"/>
	</g>
	<g>
		<rect x="879" y="127.8" class="st0" width="8.2" height="24.7"/>
	</g>
	<g>
		<rect x="892.2" y="127.8" class="st0" width="8.2" height="24.7"/>
	</g>
</g>
<g>
	<rect x="826.3" y="164.8" class="st0" width="3.6" height="194.5"/>
	<rect x="832.7" y="164.8" class="st0" width="3.6" height="194.5"/>
	<rect x="839.1" y="164.8" class="st0" width="3.6" height="194.5"/>
	<rect x="845.5" y="164.8" class="st0" width="3.6" height="194.5"/>
	<rect x="852" y="164.8" class="st0" width="3.6" height="194.5"/>
	<rect x="858.4" y="164.8" class="st0" width="3.6" height="194.5"/>
	<rect x="864.8" y="164.8" class="st0" width="3.6" height="194.5"/>
	<rect x="871.2" y="164.8" class="st0" width="3.6" height="194.5"/>
	<rect x="877.6" y="164.8" class="st0" width="3.6" height="194.5"/>
	<rect x="884" y="164.8" class="st0" width="3.6" height="194.5"/>
	<rect x="890.4" y="164.8" class="st0" width="3.6" height="194.5"/>
	<rect x="896.8" y="164.8" class="st0" width="3.6" height="194.5"/>
</g>
<g>
	<g>
		<polygon class="st0" points="1098.8,120.1 1098.8,102.3 1043.4,102.3 1043.3,120.1 1029.7,120.1 1029.7,359.3 1113.1,359.3 
			1113.1,120.1 		"/>
	</g>
	<g>
		<g>
			<path class="st0" d="M1099.7,119.8c0-5.9,0-11.8,0-17.7c0-0.1-0.3-0.1-0.3-0.1c-18.5,0-37,0-55.4,0c-0.3,0-1.4,0.1-1.4,0.6
				c0,5.9-0.1,11.8-0.1,17.7c0.5-0.2,0.9-0.4,1.4-0.6c-4.5,0-9,0-13.6,0c-0.3,0-1.4,0.1-1.4,0.6c0,27,0,54.1,0,81.1
				c0,42.9,0,85.8,0,128.6c0,9.8,0,19.7,0,29.5c0,0.1,0.3,0.1,0.3,0.1c24.3,0,48.5,0,72.8,0c3.5,0,7,0,10.6,0c0.3,0,1.4-0.1,1.4-0.6
				c0-27,0-54,0-81.1c0-42.9,0-85.8,0-128.6c0-9.8,0-19.7,0-29.5c0-0.1-0.3-0.1-0.3-0.1c-4.7,0-9.5,0-14.2,0c-0.4,0-1.9,0.7-1.1,0.7
				c2,0,3.9,0,5.8,0c1.7,0,6.3-0.9,7.8,0c0.3,0.2,0.3,0,0.3,1.3c0,4.3,0,8.6,0,12.8c0,18.2,0,36.5,0,54.7c0,45.8,0,91.6,0,137.4
				c0,10.9,0,21.9,0,32.8c0.5-0.2,0.9-0.4,1.4-0.6c-23.4,0-46.9,0-70.3,0c-3.8,0-8.4,0.7-12.1,0c-0.9-0.2-0.8,0.2-0.6-1.4
				c0.5-6.1,0-12.5,0-18.7c0-26.1,0-52.3,0-78.4c0-30,0-60,0-90.1c0-11.1,0-22.2,0-33.3c0-3.6,0-7.2,0-10.8c0-1.5,0.6-4.4,0-5.7
				c-0.1-0.2,0-0.5,0-0.7c-0.5,0.2-0.9,0.4-1.4,0.6c4.5,0,9,0,13.6,0c0.3,0,1.4-0.1,1.4-0.6c0-5.9,0.1-11.8,0.1-17.7
				c-0.5,0.2-0.9,0.4-1.4,0.6c13.4,0,26.8,0,40.2,0c3.4,0,6.8,0,10.3,0c0.8,0,4.3-0.5,4.9,0c-0.4-0.3-0.2,1.8-0.2,2.2
				c0,2,0,4.1,0,6.1c0,3.1,0,6.2,0,9.3C1098,120.6,1099.7,120.3,1099.7,119.8z"/>
		</g>
	</g>
</g>
<g>
	<g>
		<rect x="1100.2" y="127.8" class="st0" width="8.2" height="24.7"/>
	</g>
	<g>
		<rect x="1087" y="127.8" class="st0" width="8.2" height="24.7"/>
	</g>
	<g>
		<rect x="1073.9" y="127.8" class="st0" width="8.2" height="24.7"/>
	</g>
	<g>
		<rect x="1060.7" y="127.8" class="st0" width="8.2" height="24.7"/>
	</g>
	<g>
		<rect x="1047.5" y="127.8" class="st0" width="8.2" height="24.7"/>
	</g>
	<g>
		<rect x="1034.4" y="127.8" class="st0" width="8.2" height="24.7"/>
	</g>
</g>
<g>
	<rect x="1104.8" y="164.8" class="st0" width="3.6" height="194.5"/>
	<rect x="1098.4" y="164.8" class="st0" width="3.6" height="194.5"/>
	<rect x="1092" y="164.8" class="st0" width="3.6" height="194.5"/>
	<rect x="1085.6" y="164.8" class="st0" width="3.6" height="194.5"/>
	<rect x="1079.2" y="164.8" class="st0" width="3.6" height="194.5"/>
	<rect x="1072.8" y="164.8" class="st0" width="3.6" height="194.5"/>
	<rect x="1066.4" y="164.8" class="st0" width="3.6" height="194.5"/>
	<rect x="1060" y="164.8" class="st0" width="3.6" height="194.5"/>
	<rect x="1053.6" y="164.8" class="st0" width="3.6" height="194.5"/>
	<rect x="1047.2" y="164.8" class="st0" width="3.6" height="194.5"/>
	<rect x="1040.8" y="164.8" class="st0" width="3.6" height="194.5"/>
	<rect x="1034.4" y="164.8" class="st0" width="3.6" height="194.5"/>
</g>
<g>
	<g>
		<polygon class="st0" points="1076.3,216.6 861.8,216.6 851.8,223.2 1086.9,223.2 		"/>
	</g>
	<g>
		<g>
			<path class="st0" d="M1076.6,216.1c-26.9,0-53.9,0-80.8,0c-39.2,0-78.5,0-117.7,0c-4.8,0-9.6,0-14.4,0c-4.7,0-8.7,4.4-12.4,6.8
				c-0.4,0.3-0.4,0.8,0.2,0.8c26.5,0,53,0,79.5,0c42.2,0,84.4,0,126.6,0c9.7,0,19.3,0,29,0c0.3,0,1.7-0.5,1-0.9
				c-3.6-2.2-7.1-4.4-10.7-6.6c-0.5-0.3-2,0.4-1.3,0.8c3.6,2.2,7.1,4.4,10.7,6.6c0.3-0.3,0.6-0.6,1-0.9c-25.7,0-51.4,0-77,0
				c-41.8,0-83.6,0-125.5,0c-6.8,0-13.5,0-20.3,0c-3.5,0-7.6-0.7-11.1,0c-0.3,0.1-0.7,0-1,0c-0.6,0.1-0.2,0.7,0.3,0.5
				c1.9-0.6,4-2.6,5.6-3.7c1-0.6,2.1-1.2,3-2c0.6-0.5,1.3-0.6,0.1-0.4c2.2-0.4,4.9,0,7.2,0c36.5,0,73,0,109.5,0
				c32.1,0,64.1,0.1,96.2,0c0.5,0,1.1,0,1.6,0C1076.6,217.1,1077.7,216.1,1076.6,216.1z"/>
		</g>
	</g>
</g>
<g>
	<g>
		<rect x="851.8" y="223.2" class="st0" width="235.2" height="136.1"/>
	</g>
	<g>
		<g>
			<path class="st0" d="M1087.1,222.6c-26.5,0-53,0-79.5,0c-42.2,0-84.5,0-126.7,0c-9.7,0-19.4,0-29,0c-0.3,0-0.9,0.3-0.9,0.7
				c0,39.8,0,79.6,0,119.4c0,5.6,0,11.1,0,16.7c0,0.4,0.4,0.6,0.8,0.6c26.5,0,53,0,79.5,0c42.2,0,84.5,0,126.7,0c9.7,0,19.4,0,29,0
				c0.3,0,0.9-0.3,0.9-0.7c0-39.8,0-79.6,0-119.4c0-5.6,0-11.1,0-16.7c0-0.9-1.7-0.6-1.7,0.1c0,24.8,0,49.6,0,74.5
				c0,15.7,0,31.3,0,47c0,4.2,0,8.4,0,12.7c0,0.6-0.1,1.4,0,2c-0.3-1.3,1.8-0.2-0.1-0.7c-2.3-0.5-5.3,0-7.6,0c-4.7,0-9.3,0-14,0
				c-14.2,0-28.4,0-42.5,0c-35,0-70,0-105,0c-14.1,0-28.2,0-42.3,0c-4.7,0-9.4,0-14.1,0c-2.4,0-5.4-0.5-7.7,0
				c-1.6,0.3-0.3-0.5-0.3,0.5c0-0.7,0-1.3,0-2c0-4.1,0-8.3,0-12.4c0-15.7,0-31.5,0-47.2c0-16.9,0-33.7,0-50.6c0-5.7,0-11.5,0-17.2
				c0-1.7,0-3.3,0-5c0-0.2,0.1-2.6-0.5-1.4c-0.4,0.8-0.3,0.1,0.7,0.3c0.9,0.2,2,0,3,0c3.8,0,7.6,0,11.3,0c12.8,0,25.5,0,38.3,0
				c34.8,0,69.6,0,104.4,0c24.4,0,48.8,0,73.2,0c1.3,0,2.6,0,3.8,0C1087.9,223.8,1088.2,222.6,1087.1,222.6z"/>
		</g>
	</g>
</g>
<g>
	<rect x="890.1" y="242.7" class="st0" width="158.7" height="13.6"/>
</g>
<g>
	<rect x="890.1" y="268" class="st0" width="158.7" height="13.6"/>
</g>
<g>
	<rect x="890.1" y="293.3" class="st0" width="158.7" height="13.6"/>
</g>
<g>
	<rect x="890.1" y="318.7" class="st0" width="158.7" height="13.6"/>
</g>
<g>
	<rect x="890.1" y="344" class="st1" width="158.7" height="13.6"/>
</g>
<g>
	<g>
		<rect x="994.3" y="203.9" class="st0" width="70.9" height="17.1"/>
	</g>
	<g>
		<g>
			<path class="st0" d="M1065.2,203.3c-23.6,0-47.3,0-70.9,0c-0.3,0-0.9,0.3-0.9,0.7c0,5.7,0,11.4,0,17.1c0,0.4,0.4,0.5,0.8,0.5
				c23.6,0,47.3,0,70.9,0c0.3,0,0.9-0.3,0.9-0.7c0-5.7,0-11.4,0-17.1c0-0.9-1.7-0.6-1.7,0.1c0,2.9,0,5.7,0,8.6c0,1.9,0,3.7,0,5.6
				c0,0.6-0.2,1.4,0,2c0.5,1.4-0.9,0.7,0.9,0.4c-3.4,0.5-7.3,0-10.7,0c-15.7,0-31.4,0-47.1,0c-4,0-8.9,0.8-12.8,0
				c0.4,0.1,0.2,0.8,0.6-0.3c0.4-1.2,0-3.5,0-4.8c0-2.1,0-4.2,0-6.3c0-1,0.5-3.8,0-4.6c-0.5-0.8,0.4-0.2-0.9,0c0.1,0,0.2,0,0.3,0
				c0.5,0.1,1.2,0,1.7,0c2.2,0,4.4,0,6.6,0c7.5,0,15,0,22.5,0c13.2,0,26.5,0,39.7,0C1066,204.6,1066.4,203.3,1065.2,203.3z"/>
		</g>
	</g>
</g>
<g>
	<g>
		<rect x="892.8" y="203.9" class="st0" width="52.3" height="17.1"/>
	</g>
	<g>
		<g>
			<path class="st0" d="M945.4,203.6c-17.4,0-34.9,0-52.3,0c-0.3,0-1.2,0.2-1.2,0.6c0,5.7,0,11.4,0,17.1c0,0.2,0.4,0.1,0.5,0.1
				c17.4,0,34.9,0,52.3,0c0.3,0,1.2-0.2,1.2-0.6c0-5.7,0-11.4,0-17.1c0-0.3-1.7-0.1-1.7,0.4c0,5.7,0,11.4,0,17.1
				c0.4-0.2,0.8-0.4,1.2-0.6c-12.7,0-25.4,0-38.1,0c-3.3,0-6.5,0-9.8,0c-0.7,0-3.8,0.5-4.4,0c0.7,0.6,0.4-1.8,0.4-2.2
				c0-1.9,0-3.9,0-5.8c0-3,0-6,0-9c-0.4,0.2-0.8,0.4-1.2,0.6c17.4,0,34.9,0,52.3,0C945.2,204.3,946.6,203.6,945.4,203.6z"/>
		</g>
	</g>
</g>
<g>
	<g>
		<rect x="535.2" y="123" class="st0" width="215.7" height="236.3"/>
	</g>
	<g>
		<g>
			<path class="st0" d="M534.9,123.5c26.3,0,52.6,0,78.9,0c39.3,0,78.6,0,117.9,0c5,0,10,0,15,0c1,0,2.4-0.3,3.4,0
				c1,0.3-0.1-0.6,0,0.1c0.5,2.5,0,5.8,0,8.4c0,6,0,11.9,0,17.9c0,40,0,80.1,0,120.1c0,19,0,38,0,57.1c0,6.7,0,13.5,0,20.2
				c0,3.4-0.6,7.5,0,10.9c0.1,0.5,0,1,0,1.5c0.4-0.2,0.8-0.4,1.2-0.7c-26.3,0-52.6,0-78.9,0c-39.3,0-78.6,0-117.9,0c-5,0-10,0-15,0
				c-1,0-2.4,0.3-3.4,0c-1-0.3,0.1,0.6,0-0.1c-0.5-2.5,0-5.8,0-8.4c0-6,0-11.9,0-17.9c0-40,0-80.1,0-120.1c0-19,0-38,0-57.1
				c0-6.7,0-13.5,0-20.2c0-3.6,0.3-7.3,0-10.9c0-0.5,0-1,0-1.5c0-0.5-1.7-0.2-1.7,0.4c0,26.7,0,53.4,0,80.1c0,42.4,0,84.7,0,127.1
				c0,9.7,0,19.5,0,29.2c0,0.2,0.4,0.2,0.5,0.2c24.4,0,48.7,0,73.1,0c38.7,0,77.3,0,116,0c8.9,0,17.7,0,26.6,0
				c0.4,0,1.2-0.2,1.2-0.7c0-26.7,0-53.4,0-80.1c0-42.4,0-84.7,0-127.1c0-9.7,0-19.5,0-29.2c0-0.2-0.4-0.2-0.5-0.2
				c-24.4,0-48.7,0-73.1,0c-38.7,0-77.3,0-116,0c-8.9,0-17.7,0-26.6,0C535,122.6,533.8,123.5,534.9,123.5z"/>
		</g>
	</g>
</g>
<g>
	<g>
		<rect x="587.6" y="143.9" class="st0" width="15" height="41.9"/>
		<rect x="620.3" y="143.9" class="st0" width="15" height="41.9"/>
		<rect x="653.1" y="143.9" class="st0" width="15" height="41.9"/>
		<rect x="685.8" y="143.9" class="st0" width="15" height="41.9"/>
		<rect x="718.6" y="143.9" class="st0" width="15" height="41.9"/>
	</g>
	<g>
		<rect x="587.6" y="201.7" class="st0" width="15" height="41.9"/>
		<rect x="620.3" y="201.7" class="st0" width="15" height="41.9"/>
		<rect x="653.1" y="201.7" class="st0" width="15" height="41.9"/>
		<rect x="685.8" y="201.7" class="st0" width="15" height="41.9"/>
		<rect x="718.6" y="201.7" class="st0" width="15" height="41.9"/>
	</g>
	<g>
		<rect x="587.6" y="259.5" class="st0" width="15" height="41.9"/>
		<rect x="620.3" y="259.5" class="st0" width="15" height="41.9"/>
		<rect x="653.1" y="259.5" class="st0" width="15" height="41.9"/>
		<rect x="685.8" y="259.5" class="st0" width="15" height="41.9"/>
		<rect x="718.6" y="259.5" class="st0" width="15" height="41.9"/>
	</g>
	<g>
		<rect x="587.6" y="317.4" class="st0" width="15" height="41.9"/>
		<rect x="620.3" y="317.4" class="st0" width="15" height="41.9"/>
		<rect x="653.1" y="317.4" class="st0" width="15" height="41.9"/>
		<rect x="685.8" y="317.4" class="st0" width="15" height="41.9"/>
		<rect x="718.6" y="317.4" class="st0" width="15" height="41.9"/>
	</g>
</g>
<g>
	<rect x="777.8" y="205.2" class="st0" width="24.7" height="3.3"/>
</g>
<g>
	<rect x="777.8" y="197.2" class="st0" width="24.7" height="3.3"/>
</g>
<g>
	<rect x="777.8" y="213.2" class="st0" width="24.7" height="3.3"/>
</g>
<g>
	<rect x="777.8" y="221.2" class="st0" width="24.7" height="3.3"/>
</g>
<g>
	<rect x="777.8" y="229.2" class="st0" width="24.7" height="3.3"/>
</g>
<g>
	<rect x="777.8" y="237.2" class="st0" width="24.7" height="3.3"/>
</g>
<g>
	<rect x="777.8" y="245.2" class="st0" width="24.7" height="3.3"/>
</g>
<g>
	<rect x="777.8" y="253.2" class="st0" width="24.7" height="3.3"/>
</g>
<g>
	<rect x="777.8" y="261.2" class="st0" width="24.7" height="3.3"/>
</g>
<g>
	<rect x="777.8" y="269.2" class="st0" width="24.7" height="3.3"/>
</g>
<g>
	<rect x="777.8" y="277.1" class="st0" width="24.7" height="3.3"/>
</g>
<g>
	<rect x="777.8" y="285.1" class="st0" width="24.7" height="3.3"/>
</g>
<g>
	<rect x="777.8" y="293.1" class="st0" width="24.7" height="3.3"/>
</g>
<g>
	<rect x="777.8" y="301.1" class="st0" width="24.7" height="3.3"/>
</g>
<g>
	<rect x="777.8" y="309.1" class="st0" width="24.7" height="3.3"/>
</g>
<g>
	<rect x="777.8" y="317.1" class="st0" width="24.7" height="3.3"/>
</g>
<g>
	<rect x="777.8" y="325.1" class="st0" width="24.7" height="3.3"/>
</g>
<g>
	<rect x="777.8" y="333.1" class="st0" width="24.7" height="3.3"/>
</g>
<g>
	<rect x="777.8" y="341.1" class="st1" width="24.7" height="3.3"/>
</g>
<g>
	<rect x="777.8" y="349.1" class="st1" width="24.7" height="3.3"/>
</g>
<g>
	<g>
		<path class="st0" d="M541.1-213.4l-53.5-45.2v605.9c1.5,6.9,7.6,12,14.9,12h38.6L541.1-213.4L541.1-213.4z"/>
	</g>
	<g>
		<g>
			<path class="st0" d="M541.7-213.9C523.9-229,506-244,488.2-259.1c-0.4-0.3-1.5-0.1-1.5,0.6c0,6.3,0,12.7,0,19
				c0,17.1,0,34.1,0,51.2c0,24.9,0,49.8,0,74.8c0,29.9,0,59.8,0,89.6c0,32.1,0,64.2,0,96.3c0,31.1,0,62.2,0,93.3
				c0,27.4,0,54.8,0,82.1c0,20.8,0,41.5,0,62.3c0,11.2,0,22.5,0,33.7c0,4.1,0.4,6.9,3.3,10.5c4.1,4.9,9.8,5.7,15.8,5.7
				c7.1,0,14.2,0,21.3,0c4.6,0,9.2,0,13.8,0c0.3,0,0.9-0.3,0.9-0.7c0-19,0-38,0-56.9c0-45.6,0-91.2,0-136.8c0-55.2,0-110.3,0-165.5
				c0-47.7,0-95.4,0-143.1c0-15.8,0-31.6,0-47.3c0-4.8,0-9.6,0-14.4c0-2.5,0.4-5.3,0-7.8c0-0.3,0-0.7,0-1c0-0.9-1.7-0.7-1.7,0.1
				c0,5.8,0,11.6,0,17.3c0,15.7,0,31.4,0,47.1c0,22.9,0,45.8,0,68.6c0,27.5,0,55.1,0,82.6c0,29.7,0,59.5,0,89.2
				c0,29.1,0,58.1,0,87.2c0,25.9,0,51.9,0,77.8c0,20.3,0,40.6,0,60.9c0,11.9,0,23.8,0,35.7c0,1.7-0.6,4.5,0,6.1
				c0.1,0.2,1.2-0.2,0.4-0.5c-1.4-0.6-4.4,0-5.9,0c-7.1,0-14.1,0-21.2,0c-9.4,0-23.7,1-25.1-11.8c-0.2-2.2,0-4.6,0-6.8
				c0-11.9,0-23.8,0-35.8c0-20,0-39.9,0-59.9c0-25.5,0-51,0-76.4c0-28.8,0-57.5,0-86.3c0-29.9,0-59.7,0-89.6c0-28.4,0-56.7,0-85.1
				c0-24.7,0-49.4,0-74.1c0-18.8,0-37.6,0-56.4c0-10.4,0-20.7,0-31.1c0-1.3,0-2.7,0-4c-0.5,0.2-1,0.4-1.5,0.6
				c17.8,15.1,35.6,30.1,53.5,45.2C541-212.4,542.4-213.3,541.7-213.9z"/>
		</g>
	</g>
</g>
<g>
	<rect x="1263" y="-221.7" class="st0" width="4.2" height="344.8"/>
</g>
<g>
	<rect x="1254.8" y="-221.7" class="st0" width="4.2" height="344.8"/>
</g>
<g>
	<rect x="1270.9" y="-221.7" class="st0" width="4.4" height="344.8"/>
</g>
<g>
	<g>
		<polygon class="st0" points="1303.8,57.6 1347.6,45.5 1347.6,359.2 1303.8,359.2 		"/>
	</g>
	<g>
		<g>
			<path class="st0" d="M1304,58.1c14.6-4,29.1-8.1,43.7-12.1c-0.3-0.1-0.6-0.2-1-0.4c0,10.4,0,20.9,0,31.3c0,24.9,0,49.8,0,74.7
				c0,30.1,0,60.3,0,90.4c0,26.2,0,52.4,0,78.6c0,8.6,0,17.3,0,25.9c0,2.7,0,5.3,0,8c0,0.9-0.5,3.4,0,4.2c0.1,0.1,0,0.4,0,0.6
				c0.4-0.2,0.8-0.4,1.1-0.6c-12.6,0-25.1,0-37.7,0c-1.7,0-4.2,0.5-5.8,0c-0.3-0.1,0.4,0.8,0.3,0c-0.2-1.6,0-3.3,0-4.9
				c0-20.2,0-40.4,0-60.7c0-32.1,0-64.2,0-96.4c0-30.6,0-61.2,0-91.7c0-10.5,0-20.9,0-31.4c0-3.3,0-6.7,0-10c0-1.5,0.4-3.8,0-5.3
				c-0.1-0.2,0-0.5,0-0.7c0-0.7-1.7-0.4-1.7,0.2c0,10,0,19.9,0,29.9c0,24.1,0,48.2,0,72.2c0,29,0,58,0,87c0,25.1,0,50.1,0,75.2
				c0,8.3,0,16.6,0,24.9c0,2.6,0,5.1,0,7.7c0,1.1-0.4,3,0,4.1c0.1,0.1,0,0.4,0,0.5c0,0.3,0.3,0.4,0.5,0.4c14.6,0,29.1,0,43.7,0
				c0.3,0,1.1-0.2,1.1-0.6c0-10.4,0-20.9,0-31.3c0-24.9,0-49.8,0-74.7c0-30.1,0-60.3,0-90.4c0-26.2,0-52.4,0-78.6
				c0-8.6,0-17.3,0-25.9c0-2.7,0-5.3,0-8c0-1.2,0.4-3.1,0-4.2c-0.1-0.1,0-0.4,0-0.6c0-0.5-0.6-0.5-1-0.4c-14.6,4-29.1,8.1-43.7,12.1
				C1302.7,57.4,1302.9,58.3,1304,58.1z"/>
		</g>
	</g>
</g>
<g>
	<rect x="1279.3" y="-221.7" class="st0" width="4.3" height="344.8"/>
</g>
<g>
	<rect x="1286.7" y="-221.7" class="st0" width="4.3" height="344.8"/>
</g>
<g>
	<polygon class="st0" points="1243.1,188.8 1247.3,-124.6 1251.6,188.8 	"/>
</g>
<g>
	<polygon class="st0" points="1293.9,188.8 1298.2,-124.6 1302.4,188.8 	"/>
</g>
<g>
	<g>
		<polygon class="st0" points="1242.9,120.7 1286.6,116.7 1286.6,359.2 1242.9,359.2 		"/>
	</g>
	<g>
		<g>
			<path class="st0" d="M1242.8,121.3c10.2-1,20.4-1.9,30.6-2.9c4.2-0.4,8.6-1.3,12.8-1.2c0.7,0-0.4-0.9-0.4-0.1c0,0.5,0,1,0,1.6
				c0,15,0,29.9,0,44.9c0,51.9,0,103.8,0,155.7c0,13.3,0,26.7,0,40c0.4-0.2,0.8-0.4,1.1-0.6c-9.9,0-19.9,0-29.8,0
				c-4.4,0-9,0.4-13.4,0c-1-0.1,0.2,0.8,0,0.2c-0.1-0.4,0-1,0-1.3c0.6-5,0-10.4,0-15.4c0-9.4,0-18.8,0-28.2c0-51.1,0-102.2,0-153.3
				c0-13.3,0-26.6,0-39.9c0-0.8-1.7-0.5-1.7,0.2c0,26.9,0,53.8,0,80.7c0,42.8,0,85.6,0,128.5c0,9.7,0,19.5,0,29.2
				c0,0.3,0.3,0.4,0.5,0.4c14.6,0,29.1,0,43.7,0c0.3,0,1.1-0.2,1.1-0.6c0-27.3,0-54.6,0-81.9c0-43.5,0-87.1,0-130.6c0-10,0-20,0-30
				c0-0.4-0.4-0.5-0.7-0.4c-14.6,1.4-29.1,2.7-43.7,4.1C1242.1,120.3,1241.7,121.4,1242.8,121.3z"/>
		</g>
	</g>
</g>
<g>
	<g>
		<path class="st0" d="M1509.7,44.9h-162.2v71.8h-63v242.5h63h0.6h148.4c7.4-1.1,13.1-7.5,13.1-15.3L1509.7,44.9z"/>
	</g>
	<g>
		<g>
			<path class="st0" d="M1510.1,44.5c-18.3,0-36.6,0-54.9,0c-29,0-58,0-87.1,0c-6.7,0-13.5,0-20.2,0c-0.3,0-1.2,0.2-1.2,0.6
				c0,23.9,0,47.9,0,71.8c0.4-0.2,0.8-0.4,1.2-0.6c-21,0-42,0-63,0c-0.3,0-1.2,0.2-1.2,0.6c0,27.3,0,54.6,0,81.9
				c0,43.5,0,87.1,0,130.6c0,10,0,20,0,30c0,0.2,0.4,0.2,0.5,0.2c29.6,0,59.3,0,88.9,0c24.3,0,48.7,0,73,0c16.3,0,32.9,0.7,49.2,0
				c8.6-0.4,15-7.6,15.2-16.1c0.1-2.6,0-5.3,0-7.9c0-15.2,0-30.4,0-45.7c0-48.5,0-97.1,0-145.6c0-21.4,0-42.9,0-64.3
				c0-11.2,0.5-22.6,0-33.8c0-0.5,0-1,0-1.5c0-0.4-1.7-0.1-1.7,0.4c0,15.4,0,30.7,0,46.1c0,33.9,0,67.8,0,101.7
				c0,34.2,0,68.4,0,102.5c0,16.2,0.5,32.4,0,48.6c-0.3,7.6-5.8,14.8-13.8,14.8c-4.1,0-8.2,0-12.4,0c-15.6,0-31.2,0-46.8,0
				c-28.7,0-57.4,0-86.1,0c-9,0-18.1,0-27.1,0c-8.8,0-17.6,0-26.4,0c-2.9,0-5.8,0-8.7,0c-0.6,0-1.7,0.2-2.3,0
				c-0.9-0.3,0,0.2-0.1,0.1c-0.5-1,0-3.7,0-4.8c0-4,0-8,0-11.9c0-13.2,0-26.5,0-39.7c0-35.8,0-71.6,0-107.4c0-24.9,0-49.9,0-74.8
				c0-1.3,0-2.6,0-3.8c-0.4,0.2-0.8,0.4-1.2,0.6c21,0,42,0,63,0c0.3,0,1.2-0.2,1.2-0.6c0-23.9,0-47.9,0-71.8
				c-0.4,0.2-0.8,0.4-1.2,0.6c18.3,0,36.6,0,54.9,0c29,0,58,0,87.1,0c6.7,0,13.5,0,20.2,0C1509.9,45.3,1511.2,44.5,1510.1,44.5z"/>
		</g>
	</g>
</g>
<g>
	<g>
		<polygon class="st0" points="577.2,-146.9 550,-167.6 550,279.7 577.2,279.7 		"/>
	</g>
	<g>
		<g>
			<path class="st0" d="M578-147.2c-9.1-6.9-18.2-13.8-27.2-20.7c-0.3-0.3-1.6,0-1.6,0.5c0,14.9,0,29.7,0,44.6
				c0,35.7,0,71.4,0,107.1c0,43,0,86,0,129c0,37.2,0,74.3,0,111.5c0,12.3,0,24.5,0,36.8c0,3.8,0,7.6,0,11.5c0,1.6-0.6,4.5,0,6
				c0.1,0.2,0,0.6,0,0.8c0,0.2,0.4,0.2,0.5,0.2c9.1,0,18.2,0,27.2,0c0.3,0,1.2-0.2,1.2-0.6c0-14.2,0-28.4,0-42.6
				c0-33.9,0-67.8,0-101.8c0-41.2,0-82.3,0-123.5c0-35.4,0-70.9,0-106.3c0-11.7,0-23.4,0-35.1c0-3.7,0-7.3,0-11c0-1.5,0.5-4.3,0-5.7
				C578-146.6,578-146.9,578-147.2c0.1-0.3-1.6,0-1.6,0.5c0,14.2,0,28.4,0,42.6c0,33.9,0,67.8,0,101.8c0,41.2,0,82.3,0,123.5
				c0,35.4,0,70.9,0,106.3c0,11.7,0,23.4,0,35.1c0,3.7,0,7.3,0,11c0,1.4-0.6,4.4,0,5.7c0.1,0.2,0,0.5,0,0.7c0.4-0.2,0.8-0.4,1.2-0.6
				c-8.5,0-17.2-0.4-25.7,0c-1.2,0.1-1.3-0.3-1.1,0.2c-0.1-0.1,0-0.3,0-0.4c-0.2-0.6,0-1.4,0-2c0-7.9,0-15.9,0-23.8
				c0-34,0-68,0-102.1c0-45.3,0-90.6,0-135.9c0-40.6,0-81.3,0-121.9c0-13.6,0-27.1,0-40.7c0-4.3,0-8.6,0-12.8c0-1.8,0.6-4.9,0-6.7
				c-0.1-0.2,0-0.6,0-0.9c-0.5,0.2-1.1,0.4-1.6,0.5c9.1,6.9,18.2,13.8,27.2,20.7C576.8-146.3,578.3-147,578-147.2z"/>
		</g>
	</g>
</g>
<g>
	<g>
		<rect x="504.9" y="-167.6" class="st0" width="45.1" height="447.3"/>
	</g>
	<g>
		<g>
			<path class="st0" d="M550.6-167.9c-15,0-30.1,0-45.1,0c-0.3,0-1.4,0.1-1.4,0.5c0,14.9,0,29.7,0,44.6c0,35.7,0,71.4,0,107.1
				c0,43,0,86,0,129c0,37.2,0,74.3,0,111.5c0,12.3,0,24.5,0,36.8c0,3.8,0,7.6,0,11.5c0,1.6-0.6,4.5,0,6c0.1,0.2,0,0.6,0,0.8
				c0,0.1,0.3,0.1,0.3,0.1c15,0,30.1,0,45.1,0c0.3,0,1.4-0.1,1.4-0.5c0-14.9,0-29.7,0-44.6c0-35.7,0-71.4,0-107.1c0-43,0-86,0-129
				c0-37.2,0-74.3,0-111.5c0-12.3,0-24.5,0-36.8c0-3.8,0-7.6,0-11.5c0-1.6,0.6-4.5,0-6c-0.1-0.2,0-0.6,0-0.8c0-0.2-1.7,0-1.7,0.4
				c0,14.9,0,29.7,0,44.6c0,35.7,0,71.4,0,107.1c0,43,0,86,0,129c0,37.2,0,74.3,0,111.5c0,12.3,0,24.5,0,36.8c0,3.8,0,7.6,0,11.5
				c0,1.5-0.6,4.6,0,6c0.1,0.2,0,0.6,0,0.8c0.5-0.2,0.9-0.4,1.4-0.5c-8.2,0-16.5,0-24.7,0c-5.2,0-10.4,0-15.6,0
				c-1.1,0-3.1,0.4-4.1,0c-0.8-0.3-0.4,0.1-0.5,0c-0.5-0.9,0-3.8,0-4.8c0-3.9,0-7.7,0-11.6c0-32.4,0-64.8,0-97.2
				c0-46.5,0-93,0-139.6c0-42.9,0-85.7,0-128.6c0-14.6,0-29.1,0-43.7c0-4.5,0-9.1,0-13.6c0-2,0.6-5.3,0-7.2c-0.1-0.3,0-0.7,0-1
				c-0.5,0.2-0.9,0.4-1.4,0.5c15,0,30.1,0,45.1,0C549.8-167.3,551.3-167.9,550.6-167.9z"/>
		</g>
	</g>
</g>
<g>
	<g>
		<polygon class="st0" points="750.9,123 778.3,125.9 778.3,359.3 750.9,359.3 		"/>
	</g>
	<g>
		<g>
			<path class="st0" d="M750.6,123.6c4.2,0.4,8.3,0.9,12.5,1.3c4.7,0.5,9.9,0.4,14.5,1.5c1,0.2-0.2-0.7,0-0.2c0.1,0.3,0,1,0,1.3
				c-0.2,1.7,0,3.5,0,5.2c0,16.5,0,33.1,0,49.6c0,47.3,0,94.6,0,141.8c0,11.8,0,23.6,0,35.4c0.4-0.2,0.8-0.4,1.1-0.6
				c-4.3,0-8.6,0-12.9,0c-2.9,0-5.7,0-8.6,0c-1.8,0-4,0.4-5.7,0c-0.6-0.1,0.4,0.9,0.2,0.1c-0.1-0.4,0-1,0-1.4c0.2-1.8,0-3.7,0-5.5
				c0-16.7,0-33.4,0-50c0-47.8,0-95.6,0-143.4c0-11.9,0-23.8,0-35.6c0-0.8-1.7-0.5-1.7,0.2c0,26.7,0,53.4,0,80c0,42.3,0,84.7,0,127
				c0,9.7,0,19.5,0,29.2c0,0.3,0.3,0.5,0.5,0.5c9.1,0,18.3,0,27.4,0c0.3,0,1.1-0.2,1.1-0.6c0-26.3,0-52.7,0-79
				c0-41.9,0-83.9,0-125.8c0-9.5,0-19.1,0-28.6c0-0.3-0.3-0.4-0.5-0.5c-9.1-0.9-18.3-1.9-27.4-2.8
				C750.4,122.4,749.4,123.5,750.6,123.6z"/>
		</g>
	</g>
</g>
<g>
	<g>
		<polygon class="st0" points="945.1,200.6 896.8,200.6 892.8,203.9 945.1,203.9 		"/>
	</g>
	<g>
		<g>
			<path class="st0" d="M945.2,200c-9.9,0-19.8,0-29.6,0c-5.3,0-10.7,0-16,0c-3.5,0-4.4,1.2-7.3,3.6c-0.6,0.5-0.2,1,0.5,1
				c17.4,0,34.9,0,52.3,0c0.3,0,0.9-0.3,0.9-0.7c0-1.1,0-2.2,0-3.4c0-0.9-1.7-0.6-1.7,0.1c0,1.2-0.7,3.5,0.9,2.7
				c-0.2,0.1-0.7,0-0.8,0c-1.5-0.3-3.4,0-4.9,0c-6.1,0-12.2,0-18.3,0c-9.4,0-18.9,0-28.3,0c0.2,0.3,0.3,0.6,0.5,1
				c0.9-0.7,1.8-1.4,2.6-2.2c0.7-0.6,1.5-1.1,1-1c1-0.3,2.5,0,3.6,0c5.5,0,11.1,0,16.6,0c9.3,0,18.6,0,28,0
				C946,201.2,946.3,200,945.2,200z"/>
		</g>
	</g>
</g>
<g>
	<g>
		<polygon class="st0" points="1059.1,200.6 994.3,200.6 994.3,203.9 1065.2,203.9 		"/>
	</g>
	<g>
		<g>
			<path class="st0" d="M1059.5,200.2c-21.6,0-43.2,0-64.9,0c-0.4,0-1.2,0.2-1.2,0.6c0,1.1,0,2.2,0,3.4c0,0.2,0.4,0.2,0.5,0.2
				c23.6,0,47.3,0,70.9,0c0.2,0,1.7-0.4,1-0.8c-2-1.1-4-2.2-6-3.4c-0.4-0.2-2,0.4-1.3,0.7c2,1.1,4,2.2,6,3.4c0.3-0.3,0.7-0.5,1-0.8
				c-21.4,0-42.8,0-64.2,0c-1.8,0-3.7,0.2-5.5,0c-0.2,0-0.9,0.1-1.1,0c0.5,0.4,0.4-2.6,0.4-3.2c-0.4,0.2-0.8,0.4-1.2,0.6
				c21.6,0,43.2,0,64.9,0C1059.4,201,1060.6,200.2,1059.5,200.2z"/>
		</g>
	</g>
</g>
<g>
	<rect x="504.9" y="-104.5" class="st0" width="45.1" height="3.7"/>
</g>
<g>
	<rect x="504.9" y="-136.6" class="st0" width="45.1" height="3.7"/>
</g>
<g>
	<rect x="504.9" y="-72.4" class="st0" width="45.1" height="3.7"/>
</g>
<g>
	<rect x="504.9" y="-40.3" class="st0" width="45.1" height="3.7"/>
</g>
<g>
	<rect x="504.9" y="-8.3" class="st0" width="45.1" height="3.7"/>
</g>
<g>
	<rect x="504.9" y="23.8" class="st0" width="45.1" height="3.7"/>
</g>
<g>
	<rect x="504.9" y="55.9" class="st0" width="45.1" height="3.7"/>
</g>
<g>
	<rect x="504.9" y="88" class="st0" width="45.1" height="3.7"/>
</g>
<g>
	<rect x="504.9" y="120.1" class="st0" width="45.1" height="3.7"/>
</g>
<g>
	<rect x="504.9" y="152.2" class="st0" width="45.1" height="3.7"/>
</g>
<g>
	<rect x="504.9" y="184.2" class="st0" width="45.1" height="3.7"/>
</g>
<g>
	<g>
		<g>
			<rect x="1378.7" y="150.9" class="st0" width="12.8" height="19.5"/>
		</g>
		<g>
			<rect x="1420.2" y="150.9" class="st0" width="12.8" height="19.5"/>
		</g>
		<g>
			<rect x="1399.4" y="150.9" class="st0" width="12.8" height="19.5"/>
		</g>
		<g>
			<rect x="1358" y="223.4" class="st0" width="12.8" height="19.5"/>
		</g>
		<g>
			<rect x="1316.5" y="223.4" class="st0" width="12.8" height="19.5"/>
		</g>
		<g>
			<rect x="1337.2" y="223.4" class="st0" width="12.8" height="19.5"/>
		</g>
		<g>
			<rect x="1316.5" y="199.2" class="st0" width="12.8" height="19.5"/>
		</g>
		<g>
			<rect x="1358" y="150.9" class="st0" width="12.8" height="19.5"/>
		</g>
		<g>
			<rect x="1316.5" y="175.1" class="st0" width="12.8" height="19.5"/>
		</g>
		<g>
			<rect x="1337.2" y="150.9" class="st0" width="12.8" height="19.5"/>
		</g>
		<g>
			<rect x="1316.5" y="150.9" class="st0" width="12.8" height="19.5"/>
		</g>
		<g>
			<rect x="1399.4" y="175.1" class="st0" width="12.8" height="19.5"/>
		</g>
		<g>
			<rect x="1420.2" y="175.1" class="st0" width="12.8" height="19.5"/>
		</g>
		<g>
			<rect x="1337.2" y="175.1" class="st0" width="12.8" height="19.5"/>
		</g>
		<g>
			<rect x="1358" y="175.1" class="st0" width="12.8" height="19.5"/>
		</g>
		<g>
			<rect x="1378.7" y="175.1" class="st0" width="12.8" height="19.5"/>
		</g>
		<g>
			<rect x="1420.2" y="199.2" class="st0" width="12.8" height="19.5"/>
		</g>
		<g>
			<rect x="1337.2" y="199.2" class="st0" width="12.8" height="19.5"/>
		</g>
		<g>
			<rect x="1358" y="199.2" class="st0" width="12.8" height="19.5"/>
		</g>
		<g>
			<rect x="1378.7" y="199.2" class="st0" width="12.8" height="19.5"/>
		</g>
		<g>
			<rect x="1399.4" y="199.2" class="st0" width="12.8" height="19.5"/>
		</g>
		<g>
			<rect x="1295.8" y="223.4" class="st0" width="12.8" height="19.5"/>
		</g>
		<g>
			<rect x="1295.8" y="175.1" class="st0" width="12.8" height="19.5"/>
		</g>
		<g>
			<rect x="1295.8" y="199.2" class="st0" width="12.8" height="19.5"/>
		</g>
		<g>
			<rect x="1295.8" y="150.9" class="st0" width="12.8" height="19.5"/>
		</g>
		<g>
			<rect x="1378.7" y="223.4" class="st0" width="12.8" height="19.5"/>
		</g>
		<g>
			<rect x="1295.8" y="126.8" class="st0" width="12.8" height="19.5"/>
		</g>
		<g>
			<rect x="1399.4" y="223.4" class="st0" width="12.8" height="19.5"/>
		</g>
		<g>
			<rect x="1420.2" y="223.4" class="st0" width="12.8" height="19.5"/>
		</g>
		<g>
			<rect x="1358" y="126.8" class="st0" width="12.8" height="19.5"/>
		</g>
		<g>
			<rect x="1337.2" y="126.8" class="st0" width="12.8" height="19.5"/>
		</g>
		<g>
			<rect x="1420.2" y="126.8" class="st0" width="12.8" height="19.5"/>
		</g>
		<g>
			<rect x="1399.4" y="126.8" class="st0" width="12.8" height="19.5"/>
		</g>
		<g>
			<rect x="1316.5" y="126.8" class="st0" width="12.8" height="19.5"/>
		</g>
	</g>
	<g>
		<rect x="1378.7" y="102.8" class="st0" width="12.8" height="19.5"/>
	</g>
	<g>
		<rect x="1399.4" y="102.8" class="st0" width="12.8" height="19.5"/>
	</g>
	<g>
		<rect x="1378.7" y="78.6" class="st0" width="12.8" height="19.5"/>
	</g>
	<g>
		<rect x="1378.7" y="54.4" class="st0" width="12.8" height="19.5"/>
	</g>
	<g>
		<rect x="1399.4" y="54.4" class="st0" width="12.8" height="19.5"/>
	</g>
	<g>
		<rect x="1399.4" y="78.6" class="st0" width="12.8" height="19.5"/>
	</g>
	<g>
		<rect x="1358" y="102.8" class="st0" width="12.8" height="19.5"/>
	</g>
	<g>
		<rect x="1358" y="54.4" class="st0" width="12.8" height="19.5"/>
	</g>
	<g>
		<rect x="1358" y="78.6" class="st0" width="12.8" height="19.5"/>
	</g>
</g>
<g>
	<polygon class="st0" points="577.2,-84.8 550.3,-100.8 550.3,-104.5 577.2,-88.5 	"/>
</g>
<g>
	<polygon class="st0" points="577.2,-114.9 550.3,-132.9 550.3,-136.6 577.2,-118.6 	"/>
</g>
<g>
	<g>
		<polygon class="st0" points="1475.5,10.4 1438.2,20.1 1399.1,71 1399.1,330.6 1473.8,330.6 		"/>
	</g>
	<g>
		<g>
			<path class="st0" d="M1475.4,10c-5.4,1.4-10.8,2.8-16.2,4.2c-6.7,1.7-14,2.9-20.5,5.3c-2.4,0.9-3.6,3.5-5.1,5.5
				c-4.7,6.2-9.5,12.3-14.2,18.5c-5,6.5-10,13-15,19.5c-1.7,2.3-5.3,5.4-6.2,8.2c-0.3,1.1,0,2.7,0,3.8c0,3.4,0,6.7,0,10.1
				c0,27.7,0,55.4,0,83.2c0,34.5,0,69,0,103.5c0,12.9,0,25.7,0,38.6c0,4.3,0,8.5,0,12.8c0,2-0.5,4.8,0,6.8c0.1,0.3,0,0.6,0,0.9
				c0,0.2,0.4,0.2,0.5,0.2c21.8,0,43.6,0,65.3,0c3.1,0,6.2,0,9.4,0c0.4,0,1.2-0.2,1.2-0.7c0.1-10.6,0.1-21.2,0.2-31.8
				c0.1-25.4,0.3-50.9,0.4-76.3c0.2-30.8,0.3-61.6,0.5-92.4c0.1-26.8,0.3-53.5,0.4-80.3c0-8.8,0.1-17.6,0.1-26.3c0-2.7,0-5.4,0-8.1
				c0-1.1,0.5-3.4,0-4.4c-0.1-0.1,0-0.4,0-0.6c0-0.5-1.7-0.2-1.7,0.4c-0.1,10.6-0.1,21.2-0.2,31.8c-0.1,25.4-0.3,50.9-0.4,76.3
				c-0.2,30.8-0.3,61.6-0.5,92.4c-0.1,26.8-0.3,53.5-0.4,80.3c0,8.8-0.1,17.6-0.1,26.3c0,2.7,0,5.4,0,8.1c0,0.9-0.5,3.6,0,4.4
				c0.1,0.1,0,0.4,0,0.6c0.4-0.2,0.8-0.4,1.2-0.7c-15,0-30,0-45,0c-8.4,0-16.8,0-25.2,0c-0.7,0-3.8,0.5-4.5,0
				c0.8,0.7,0.4-0.7,0.5-1.1c0.5-3,0-6.5,0-9.6c0-5.8,0-11.6,0-17.4c0-17.2,0-34.3,0-51.5c0-41,0-81.9,0-122.9c0-14.4,0-28.8,0-43.2
				c0-3.7,0-7.5,0-11.2c0-2.4-0.2-2.1,1.2-3.9c10.9-14.2,21.8-28.4,32.6-42.5c1.6-2,3.2-4.1,4.7-6.1c0.7-0.9-0.1-0.2,0-0.2
				c0.9-0.4,2.1-0.6,3.1-0.8c9.2-2.4,18.4-4.8,27.6-7.2c2.2-0.6,4.3-1.1,6.5-1.7C1476.6,10.6,1476.4,9.8,1475.4,10z"/>
		</g>
	</g>
</g>
<g>
	<polygon class="st0" points="577.2,-54.7 550.3,-68.7 550.3,-72.4 577.2,-58.4 	"/>
</g>
<g>
	<polygon class="st0" points="577.2,-24.6 550.3,-36.7 550.3,-40.3 577.2,-28.2 	"/>
</g>
<g>
	<polygon class="st0" points="577.2,5.3 550.3,-4.6 550.3,-8.3 577.2,1.6 	"/>
</g>
<g>
	<polygon class="st0" points="577.2,35 550.3,27.5 550.3,23.8 577.2,31.3 	"/>
</g>
<g>
	<g>
		<polygon class="st0" points="1509.7,10.4 1475.5,10.4 1436,64.4 1436,330.6 1509.7,330.6 		"/>
	</g>
	<g>
		<g>
			<path class="st0" d="M1509.8,9.9c-6.3,0-12.6,0-18.8,0c-3.9,0-7.7,0-11.6,0c-1.3,0-3.4-0.4-4.5,0.3c-0.7,0.5-1.4,1.8-1.9,2.5
				c-1.7,2.3-3.4,4.6-5.1,6.9c-5,6.8-10,13.6-14.9,20.4c-4.6,6.3-9.2,12.5-13.8,18.8c-1.2,1.7-3.6,3.9-4.1,5.9c-0.4,1.4,0,3.5,0,5
				c0,3.7,0,7.4,0,11.1c0,28.7,0,57.4,0,86.2c0,34.8,0,69.6,0,104.5c0,13,0,25.9,0,38.9c0,4.3,0,8.6,0,12.8c0,2-0.5,4.7,0,6.7
				c0.1,0.3,0,0.6,0,0.9c0,0.4,0.4,0.5,0.8,0.5c21.5,0,43,0,64.5,0c3.1,0,6.1,0,9.2,0c0.3,0,0.9-0.3,0.9-0.6c0-10.6,0-21.2,0-31.8
				c0-25.4,0-50.9,0-76.3c0-30.8,0-61.6,0-92.4c0-26.8,0-53.5,0-80.3c0-8.8,0-17.6,0-26.3c0-2.7,0-5.4,0-8.1c0-1.2,0.4-3.2,0-4.4
				c-0.1-0.1,0-0.4,0-0.6c0-0.8-1.7-0.5-1.7,0.1c0,14.5,0,29.1,0,43.6c0,33,0,66,0,98.9c0,35.5,0,71,0,106.5c0,22.1,0,44.2,0,66.3
				c0,1.3-0.4,3.4,0,4.7c0,0,1.5,0,0-0.4c-1.7-0.5-4.3,0-6.1,0c-16.6,0-33.3,0-49.9,0c-3.5,0-6.9,0-10.4,0c-1.7,0-4-0.4-5.7,0
				c-1.1,0.3,0,0.7,0,0.1c0-0.7,0-1.4,0-2c0-8.1,0-16.1,0-24.2c0-31.9,0-63.9,0-95.8c0-34.2,0-68.5,0-102.7c0-10.7,0-21.5,0-32.2
				c0-2.6,0-5.1,0-7.7c0-1.7,0.2-1.5,1.6-3.4c9.5-12.9,18.9-25.8,28.4-38.8c3-4.1,5.8-8.6,9.1-12.5c0.6-0.7-1.1,0.2-0.1,0.1
				c1-0.1,2.1,0,3.1,0c4.1,0,8.2,0,12.3,0c6.1,0,12.3,0,18.4,0C1510.6,11,1510.9,9.9,1509.8,9.9z"/>
		</g>
	</g>
</g>
<g>
	<polygon class="st0" points="577.2,65.6 550.3,59.6 550.3,55.9 577.2,61.9 	"/>
</g>
<g>
	<polygon class="st0" points="577.2,95.1 550.3,91.7 550.3,88 577.2,91.4 	"/>
</g>
<g>
	<polygon class="st0" points="577.2,125.5 550.3,123.8 550.3,120.1 577.2,121.8 	"/>
</g>
<g>
	<polygon class="st0" points="577.2,155 550.3,155.8 550.3,152.2 577.2,151.3 	"/>
</g>
<g>
	<polygon class="st0" points="577.2,185.3 550.3,187.9 550.3,184.2 577.2,181.7 	"/>
</g>
<g>
	<polygon class="st0" points="577.2,215.4 550.3,219.7 550.3,216 577.2,211.7 	"/>
</g>
<g>
	<g>
		<g>
			<polygon class="st0" points="936.3,326.2 954.8,332.3 936.3,338.3 			"/>
		</g>
		<g>
			<rect x="933.8" y="326.2" class="st0" width="1.3" height="33"/>
		</g>
	</g>
	<g>
		<g>
			<polygon class="st0" points="968.9,326.2 987.5,332.3 968.9,338.3 			"/>
		</g>
		<g>
			<rect x="966.5" y="326.2" class="st0" width="1.3" height="33"/>
		</g>
	</g>
	<g>
		<g>
			<polygon class="st0" points="1001.5,326.2 1020.1,332.3 1001.5,338.3 			"/>
		</g>
		<g>
			<rect x="999.1" y="326.2" class="st0" width="1.3" height="33"/>
		</g>
	</g>
</g>
<g>
	<rect x="1475.7" y="71" class="st0" width="33.2" height="5.4"/>
	<rect x="1475.7" y="89.7" class="st0" width="33.2" height="5.4"/>
	<rect x="1475.7" y="108.4" class="st0" width="33.2" height="5.4"/>
	<rect x="1475.7" y="127.1" class="st0" width="33.2" height="5.4"/>
	<rect x="1475.7" y="145.8" class="st0" width="33.2" height="5.4"/>
	<rect x="1475.7" y="164.5" class="st0" width="33.2" height="5.4"/>
	<rect x="1475.7" y="183.2" class="st0" width="33.2" height="5.4"/>
</g>
<g>
	<g>
		<path class="st0" d="M1399.3,74.3c12.3-3.1,24.5-6.2,36.8-9.3c1-0.3,0.7-1.3-0.3-1.1c-12.3,3.1-24.5,6.2-36.8,9.3
			C1398,73.5,1398.3,74.5,1399.3,74.3L1399.3,74.3z"/>
	</g>
</g>
</svg>
