<?xml version="1.0" encoding="utf-8"?>
<!-- Generator: Adobe Illustrator 19.0.1, SVG Export Plug-In . SVG Version: 6.00 Build 0)  -->
<svg version="1.1" id="Layer_1" xmlns="http://www.w3.org/2000/svg" xmlns:xlink="http://www.w3.org/1999/xlink" x="0px" y="0px"
	 viewBox="486 -281.9 1008 599.9" style="enable-background:new 486 -281.9 1008 599.9;" xml:space="preserve">
<style type="text/css">
	.st0{fill:#FFFFFF;stroke:#D8D8D8;stroke-width:0.75;stroke-miterlimit:10;}
	.st1{fill:none;stroke:#D8D8D8;stroke-width:0.75;stroke-miterlimit:10;}
	.st2{fill:#30BEC3;}
	.st3{fill:#FFFFFF;}
	.st4{fill:#383538;}
	.st5{fill:#363636;}
</style>
<g>
	<g>
		<rect x="773.8" y="182.2" class="st0" width="39.6" height="5.1"/>
	</g>
	<g>
		<polygon class="st0" points="813.4,183.9 806.3,185.5 806.3,355.7 813.4,355.7 		"/>
	</g>
	<g>
		<rect x="778.3" y="185.5" class="st0" width="28.7" height="170.2"/>
	</g>
	<g>
		<polygon class="st0" points="1116.4,127.6 1143.1,123.9 1143.1,355.7 1116.4,355.7 		"/>
	</g>
	<g>
		<rect x="1143.1" y="123.8" class="st0" width="50.9" height="231.8"/>
	</g>
	<g>
		<g>
			<rect x="1188.9" y="145" class="st0" width="6.3" height="13.3"/>
		</g>
		<g>
			<rect x="1178.7" y="194.5" class="st0" width="6.3" height="13.3"/>
		</g>
		<g>
			<rect x="1158.2" y="194.5" class="st0" width="6.3" height="13.3"/>
		</g>
		<g>
			<rect x="1168.5" y="194.5" class="st0" width="6.3" height="13.3"/>
		</g>
		<g>
			<rect x="1158.2" y="178.1" class="st0" width="6.3" height="13.3"/>
		</g>
		<g>
			<rect x="1178.7" y="145" class="st0" width="6.3" height="13.3"/>
		</g>
		<g>
			<rect x="1158.2" y="161.5" class="st0" width="6.3" height="13.3"/>
		</g>
		<g>
			<rect x="1168.5" y="145" class="st0" width="6.3" height="13.3"/>
		</g>
		<g>
			<rect x="1158.2" y="145" class="st0" width="6.3" height="13.3"/>
		</g>
		<g>
			<rect x="1168.5" y="161.5" class="st0" width="6.3" height="13.3"/>
		</g>
		<g>
			<rect x="1178.7" y="161.5" class="st0" width="6.3" height="13.3"/>
		</g>
		<g>
			<rect x="1188.9" y="161.5" class="st0" width="6.3" height="13.3"/>
		</g>
		<g>
			<rect x="1168.5" y="178.1" class="st0" width="6.3" height="13.3"/>
		</g>
		<g>
			<rect x="1178.7" y="178.1" class="st0" width="6.3" height="13.3"/>
		</g>
		<g>
			<rect x="1188.9" y="178.1" class="st0" width="6.3" height="13.3"/>
		</g>
		<g>
			<rect x="1148" y="194.5" class="st0" width="6.3" height="13.3"/>
		</g>
		<g>
			<rect x="1148" y="161.5" class="st0" width="6.3" height="13.3"/>
		</g>
		<g>
			<rect x="1148" y="178.1" class="st0" width="6.3" height="13.3"/>
		</g>
		<g>
			<rect x="1148" y="145" class="st0" width="6.3" height="13.3"/>
		</g>
		<g>
			<rect x="1188.9" y="194.5" class="st0" width="6.3" height="13.3"/>
		</g>
		<g>
			<rect x="1148" y="128.5" class="st0" width="6.3" height="13.3"/>
		</g>
		<g>
			<rect x="1188.9" y="128.5" class="st0" width="6.3" height="13.3"/>
		</g>
		<g>
			<rect x="1178.7" y="128.5" class="st0" width="6.3" height="13.3"/>
		</g>
		<g>
			<rect x="1168.5" y="128.5" class="st0" width="6.3" height="13.3"/>
		</g>
		<g>
			<rect x="1158.2" y="128.5" class="st0" width="6.3" height="13.3"/>
		</g>
		<g>
			<rect x="1188.9" y="228.5" class="st0" width="6.3" height="13.3"/>
		</g>
		<g>
			<rect x="1178.7" y="278.1" class="st0" width="6.3" height="13.3"/>
		</g>
		<g>
			<rect x="1158.2" y="278.1" class="st0" width="6.3" height="13.3"/>
		</g>
		<g>
			<rect x="1168.5" y="278.1" class="st0" width="6.3" height="13.3"/>
		</g>
		<g>
			<rect x="1158.2" y="261.5" class="st0" width="6.3" height="13.3"/>
		</g>
		<g>
			<rect x="1178.7" y="228.5" class="st0" width="6.3" height="13.3"/>
		</g>
		<g>
			<rect x="1158.2" y="245" class="st0" width="6.3" height="13.3"/>
		</g>
		<g>
			<rect x="1168.5" y="228.5" class="st0" width="6.3" height="13.3"/>
		</g>
		<g>
			<rect x="1158.2" y="228.5" class="st0" width="6.3" height="13.3"/>
		</g>
		<g>
			<rect x="1168.5" y="245" class="st0" width="6.3" height="13.3"/>
		</g>
		<g>
			<rect x="1178.7" y="245" class="st0" width="6.3" height="13.3"/>
		</g>
		<g>
			<rect x="1188.9" y="245" class="st0" width="6.3" height="13.3"/>
		</g>
		<g>
			<rect x="1168.5" y="261.5" class="st0" width="6.3" height="13.3"/>
		</g>
		<g>
			<rect x="1178.7" y="261.5" class="st0" width="6.3" height="13.3"/>
		</g>
		<g>
			<rect x="1188.9" y="261.5" class="st0" width="6.3" height="13.3"/>
		</g>
		<g>
			<rect x="1148" y="278.1" class="st0" width="6.3" height="13.3"/>
		</g>
		<g>
			<rect x="1148" y="245" class="st0" width="6.3" height="13.3"/>
		</g>
		<g>
			<rect x="1148" y="261.5" class="st0" width="6.3" height="13.3"/>
		</g>
		<g>
			<rect x="1148" y="228.5" class="st0" width="6.3" height="13.3"/>
		</g>
		<g>
			<rect x="1188.9" y="278.1" class="st0" width="6.3" height="13.3"/>
		</g>
		<g>
			<rect x="1148" y="212" class="st0" width="6.3" height="13.3"/>
		</g>
		<g>
			<rect x="1188.9" y="212" class="st0" width="6.3" height="13.3"/>
		</g>
		<g>
			<rect x="1178.7" y="212" class="st0" width="6.3" height="13.3"/>
		</g>
		<g>
			<rect x="1168.5" y="212" class="st0" width="6.3" height="13.3"/>
		</g>
		<g>
			<rect x="1158.2" y="212" class="st0" width="6.3" height="13.3"/>
		</g>
		<g>
			<rect x="1188.9" y="311.1" class="st0" width="6.3" height="13.3"/>
		</g>
		<g>
			<rect x="1178.7" y="311.1" class="st0" width="6.3" height="13.3"/>
		</g>
		<g>
			<rect x="1158.2" y="327.6" class="st0" width="6.3" height="13.3"/>
		</g>
		<g>
			<rect x="1168.5" y="311.1" class="st0" width="6.3" height="13.3"/>
		</g>
		<g>
			<rect x="1158.2" y="311.1" class="st0" width="6.3" height="13.3"/>
		</g>
		<g>
			<rect x="1168.5" y="327.6" class="st0" width="6.3" height="13.3"/>
		</g>
		<g>
			<rect x="1178.7" y="327.6" class="st0" width="6.3" height="13.3"/>
		</g>
		<g>
			<rect x="1188.9" y="327.6" class="st0" width="6.3" height="13.3"/>
		</g>
		<g>
			<rect x="1148" y="327.6" class="st0" width="6.3" height="13.3"/>
		</g>
		<g>
			<rect x="1148" y="311.1" class="st0" width="6.3" height="13.3"/>
		</g>
		<g>
			<rect x="1148" y="294.6" class="st0" width="6.3" height="13.3"/>
		</g>
		<g>
			<rect x="1188.9" y="294.6" class="st0" width="6.3" height="13.3"/>
		</g>
		<g>
			<rect x="1178.7" y="294.6" class="st0" width="6.3" height="13.3"/>
		</g>
		<g>
			<rect x="1168.5" y="294.6" class="st0" width="6.3" height="13.3"/>
		</g>
		<g>
			<rect x="1158.2" y="294.6" class="st0" width="6.3" height="13.3"/>
		</g>
		<g>
			<rect x="1148" y="344.1" class="st0" width="6.3" height="11.6"/>
		</g>
		<g>
			<rect x="1158.2" y="344.1" class="st0" width="6.3" height="11.6"/>
		</g>
		<g>
			<rect x="1168.5" y="344.1" class="st0" width="6.3" height="11.6"/>
		</g>
		<g>
			<rect x="1178.7" y="344.1" class="st0" width="6.3" height="11.6"/>
		</g>
		<g>
			<rect x="1188.9" y="344.1" class="st0" width="6.3" height="11.6"/>
		</g>
	</g>
	<g>
		<polygon class="st0" points="1176.9,337.4 1190.1,337.4 1190.1,139.1 1176.9,139.6 		"/>
	</g>
	<g>
		<polygon class="st0" points="1192.8,181.9 1204.6,181.9 1204,-121.1 1192.8,-107.8 		"/>
	</g>
	<g>
		<polygon class="st0" points="1209,-120.2 1220.1,-120.2 1220.1,-176.8 1209,-162.5 		"/>
	</g>
	<g>
		<polygon class="st0" points="949.7,-35.6 949.7,-51.3 902.2,-51.3 902.2,-35.6 872,-35.6 872,355.7 979.8,355.7 979.8,-35.6 		"/>
	</g>
	<g>
		<rect x="904.7" y="-3.9" class="st0" width="42.8" height="11.8"/>
	</g>
	<g>
		<rect x="875.4" y="-3.9" class="st0" width="23.7" height="11.8"/>
	</g>
	<g>
		<rect x="953.1" y="-3.9" class="st0" width="23.7" height="11.8"/>
	</g>
	<g>
		<path class="st0" d="M884.1-12.2l-3.2-12.7h1.8l1.5,6.4c0.4,1.6,0.7,3.1,1,4.3l0,0c0.2-1.3,0.6-2.7,1-4.4l1.7-6.4h1.7l1.6,6.4
			c0.4,1.5,0.7,3,0.9,4.3l0,0c0.3-1.4,0.6-2.7,1-4.3l1.7-6.4h1.7l-3.5,12.7h-1.7l-1.6-6.6c-0.4-1.6-0.7-2.8-0.8-4.1l0,0
			c-0.2,1.3-0.5,2.5-1,4.1l-1.8,6.6L884.1-12.2L884.1-12.2z"/>
		<path class="st0" d="M908.6-18.6c0,4.3-2.6,6.7-5.9,6.7c-3.3,0-5.7-2.6-5.7-6.4c0-4,2.5-6.7,5.9-6.7
			C906.4-25,908.6-22.3,908.6-18.6z M898.8-18.4c0,2.6,1.5,5.1,4,5.1c2.6,0,4-2.4,4-5.2c0-2.6-1.3-5.1-4-5.1
			C900.2-23.7,898.8-21.2,898.8-18.4z"/>
		<path class="st0" d="M921.5-18.6c0,4.3-2.6,6.7-5.9,6.7c-3.3,0-5.7-2.6-5.7-6.4c0-4,2.5-6.7,5.9-6.7
			C919.3-25,921.5-22.3,921.5-18.6z M911.7-18.4c0,2.6,1.5,5.1,4,5.1s4-2.4,4-5.2c0-2.6-1.3-5.1-4-5.1
			C913.1-23.7,911.7-21.2,911.7-18.4z"/>
		<path class="st0" d="M923.6-24.7c1-0.2,2.2-0.3,3.4-0.3c2.4,0,4,0.6,5.1,1.6c1.1,1.1,1.8,2.5,1.8,4.5s-0.6,3.7-1.9,4.9
			c-1.2,1.2-3.1,1.9-5.6,1.9c-1.2,0-2.2-0.1-2.9-0.2L923.6-24.7L923.6-24.7z M925.3-13.5c0.4,0.1,1,0.1,1.7,0.1c3.5,0,5.4-2,5.4-5.4
			c0-2.9-1.7-4.9-5.1-4.9c-0.9,0-1.5,0.1-1.9,0.2L925.3-13.5L925.3-13.5z"/>
		<path class="st0" d="M946.8-17.7c-0.1-1.8-0.2-3.9-0.2-5.5h-0.1c-0.4,1.5-1,3-1.6,4.8l-2.3,6.1h-1.3l-2.1-6
			c-0.6-1.8-1.1-3.4-1.5-4.9l0,0c0,1.6-0.1,3.7-0.2,5.6l-0.3,5.4h-1.6l0.9-12.7h2.1l2.2,6.1c0.5,1.6,1,2.9,1.3,4.2h0.1
			c0.3-1.3,0.8-2.6,1.4-4.2l2.3-6.1h2.1l0.8,12.7h-1.6L946.8-17.7z"/>
		<path class="st0" d="M957.8-18.1h-4.9v4.5h5.5v1.4h-7.1v-12.7h6.9v1.4h-5.2v4h4.9L957.8-18.1L957.8-18.1z"/>
		<path class="st0" d="M960.4-12.2v-12.7h1.8l4,6.4c1,1.5,1.7,2.8,2.3,4.1l0,0c-0.2-1.7-0.2-3.2-0.2-5.2v-5.3h1.6v12.7h-1.7l-4-6.4
			c-0.9-1.4-1.8-2.8-2.4-4.2h-0.1c0.1,1.6,0.1,3.1,0.1,5.2v5.4L960.4-12.2L960.4-12.2z"/>
	</g>
	<g>
		<polygon class="st0" points="985.5,153.8 1039.3,153.8 1039.1,103.5 985.5,134.8 		"/>
	</g>
	<g>
		<rect x="875.4" y="11.6" class="st0" width="2.8" height="344.1"/>
		<rect x="881.2" y="11.6" class="st0" width="2.8" height="344.1"/>
		<rect x="887" y="11.6" class="st0" width="2.8" height="344.1"/>
		<rect x="892.8" y="11.6" class="st0" width="2.8" height="344.1"/>
		<rect x="898.6" y="11.6" class="st0" width="2.8" height="344.1"/>
		<rect x="904.4" y="11.6" class="st0" width="2.8" height="344.1"/>
		<rect x="910.2" y="11.6" class="st0" width="2.8" height="344.1"/>
		<rect x="915.9" y="11.6" class="st0" width="2.8" height="344.1"/>
		<rect x="921.7" y="11.6" class="st0" width="2.8" height="344.1"/>
		<rect x="927.5" y="11.6" class="st0" width="2.8" height="344.1"/>
		<rect x="933.3" y="11.6" class="st0" width="2.8" height="344.1"/>
		<rect x="939.2" y="11.6" class="st0" width="2.8" height="344.1"/>
		<rect x="945" y="11.6" class="st0" width="2.8" height="344.1"/>
		<rect x="950.8" y="11.6" class="st0" width="2.8" height="344.1"/>
		<rect x="956.6" y="11.6" class="st0" width="2.8" height="344.1"/>
		<rect x="962.4" y="11.6" class="st0" width="2.8" height="344.1"/>
		<rect x="968.2" y="11.6" class="st0" width="2.8" height="344.1"/>
		<rect x="973.9" y="11.6" class="st0" width="2.8" height="344.1"/>
	</g>
	<g>
		<polygon class="st0" points="943.5,153.8 889.5,153.8 889.5,103.5 943.5,134.8 		"/>
	</g>
	<g>
		<polygon class="st0" points="971.9,355.7 1025.7,355.7 1025.7,120.9 971.9,144.2 		"/>
	</g>
	<g>
		<polygon class="st0" points="957.2,355.7 903.3,355.7 903.3,120.9 957.2,144.2 		"/>
	</g>
	<g>
		<polygon class="st0" points="1225.8,-176.8 1236.8,-176.8 1236.8,-227.5 1225.8,-212.3 		"/>
	</g>
	<g>
		<polygon class="st0" points="1325.3,138.9 1325.3,-121.1 1310.5,-121.1 1310.5,-176.8 1292.5,-176.8 1292.5,-227.5 1278.8,-227.5 
			1278.8,-233.4 1274.7,-233.4 1274.7,-227.5 1270.6,-227.5 1270.6,-233.4 1266.6,-233.4 1266.6,-227.5 1262.6,-227.5 
			1262.6,-233.4 1258.5,-233.4 1258.5,-227.5 1254.5,-227.5 1254.5,-233.4 1250.5,-233.4 1250.5,-227.5 1236.8,-227.5 
			1236.8,-176.8 1219.8,-176.8 1219.8,-121.1 1204,-121.1 1204,138.9 1189.4,138.9 1189.4,355.6 1331.5,355.6 1331.5,138.9 		"/>
	</g>
	<g>
		<polygon class="st0" points="889.5,120.9 889.5,103.5 835.5,103.5 835.5,120.9 821.5,120.9 821.5,355.7 903.3,355.7 903.3,120.9 
					"/>
	</g>
	<g>
		<g>
			<rect x="826.1" y="128.5" class="st0" width="8" height="24.2"/>
		</g>
		<g>
			<rect x="839" y="128.5" class="st0" width="8" height="24.2"/>
		</g>
		<g>
			<rect x="852" y="128.5" class="st0" width="8" height="24.2"/>
		</g>
		<g>
			<rect x="864.8" y="128.5" class="st0" width="8" height="24.2"/>
		</g>
		<g>
			<rect x="877.8" y="128.5" class="st0" width="8" height="24.2"/>
		</g>
		<g>
			<rect x="890.7" y="128.5" class="st0" width="8" height="24.2"/>
		</g>
	</g>
	<g>
		<rect x="826.1" y="164.8" class="st0" width="3.5" height="190.9"/>
		<rect x="832.3" y="164.8" class="st0" width="3.5" height="190.9"/>
		<rect x="838.6" y="164.8" class="st0" width="3.5" height="190.9"/>
		<rect x="844.9" y="164.8" class="st0" width="3.5" height="190.9"/>
		<rect x="851.3" y="164.8" class="st0" width="3.5" height="190.9"/>
		<rect x="857.6" y="164.8" class="st0" width="3.5" height="190.9"/>
		<rect x="863.8" y="164.8" class="st0" width="3.5" height="190.9"/>
		<rect x="870.1" y="164.8" class="st0" width="3.5" height="190.9"/>
		<rect x="876.4" y="164.8" class="st0" width="3.5" height="190.9"/>
		<rect x="882.7" y="164.8" class="st0" width="3.5" height="190.9"/>
		<rect x="889" y="164.8" class="st0" width="3.5" height="190.9"/>
		<rect x="895.2" y="164.8" class="st0" width="3.5" height="190.9"/>
	</g>
	<g>
		<polygon class="st0" points="1093.5,120.9 1093.5,103.5 1039.1,103.5 1039,120.9 1025.7,120.9 1025.7,355.7 1107.5,355.7 
			1107.5,120.9 		"/>
	</g>
	<g>
		<g>
			<rect x="1094.9" y="128.5" class="st0" width="8" height="24.2"/>
		</g>
		<g>
			<rect x="1081.9" y="128.5" class="st0" width="8" height="24.2"/>
		</g>
		<g>
			<rect x="1069" y="128.5" class="st0" width="8" height="24.2"/>
		</g>
		<g>
			<rect x="1056.1" y="128.5" class="st0" width="8" height="24.2"/>
		</g>
		<g>
			<rect x="1043.1" y="128.5" class="st0" width="8" height="24.2"/>
		</g>
		<g>
			<rect x="1030.3" y="128.5" class="st0" width="8" height="24.2"/>
		</g>
	</g>
	<g>
		<rect x="1099.4" y="164.8" class="st0" width="3.5" height="190.9"/>
		<rect x="1093.1" y="164.8" class="st0" width="3.5" height="190.9"/>
		<rect x="1086.8" y="164.8" class="st0" width="3.5" height="190.9"/>
		<rect x="1080.5" y="164.8" class="st0" width="3.5" height="190.9"/>
		<rect x="1074.2" y="164.8" class="st0" width="3.5" height="190.9"/>
		<rect x="1068" y="164.8" class="st0" width="3.5" height="190.9"/>
		<rect x="1061.7" y="164.8" class="st0" width="3.5" height="190.9"/>
		<rect x="1055.4" y="164.8" class="st0" width="3.5" height="190.9"/>
		<rect x="1049.1" y="164.8" class="st0" width="3.5" height="190.9"/>
		<rect x="1042.8" y="164.8" class="st0" width="3.5" height="190.9"/>
		<rect x="1036.6" y="164.8" class="st0" width="3.5" height="190.9"/>
		<rect x="1030.3" y="164.8" class="st0" width="3.5" height="190.9"/>
	</g>
	<g>
		<polygon class="st0" points="1071.4,215.6 860.9,215.6 851.1,222.1 1081.8,222.1 		"/>
	</g>
	<g>
		<rect x="851.1" y="222.1" class="st0" width="230.8" height="133.6"/>
	</g>
	<g>
		<rect x="888.7" y="241.3" class="st0" width="155.7" height="13.3"/>
	</g>
	<g>
		<rect x="888.7" y="266.1" class="st0" width="155.7" height="13.3"/>
	</g>
	<g>
		<rect x="888.7" y="290.9" class="st0" width="155.7" height="13.3"/>
	</g>
	<g>
		<rect x="888.7" y="315.8" class="st0" width="155.7" height="13.3"/>
	</g>
	<g>
		<rect x="888.7" y="340.7" class="st1" width="155.7" height="13.3"/>
	</g>
	<g>
		<rect x="990.9" y="203.2" class="st0" width="69.6" height="16.8"/>
	</g>
	<g>
		<rect x="891.3" y="203.2" class="st0" width="51.3" height="16.8"/>
	</g>
	<g>
		<rect x="540.4" y="123.8" class="st0" width="211.7" height="231.9"/>
	</g>
	<g>
		<g>
			<rect x="591.8" y="144.3" class="st0" width="14.7" height="41.1"/>
			<rect x="623.9" y="144.3" class="st0" width="14.7" height="41.1"/>
			<rect x="656.1" y="144.3" class="st0" width="14.7" height="41.1"/>
			<rect x="688.2" y="144.3" class="st0" width="14.7" height="41.1"/>
			<rect x="720.4" y="144.3" class="st0" width="14.7" height="41.1"/>
		</g>
		<g>
			<rect x="591.8" y="201" class="st0" width="14.7" height="41.1"/>
			<rect x="623.9" y="201" class="st0" width="14.7" height="41.1"/>
			<rect x="656.1" y="201" class="st0" width="14.7" height="41.1"/>
			<rect x="688.2" y="201" class="st0" width="14.7" height="41.1"/>
			<rect x="720.4" y="201" class="st0" width="14.7" height="41.1"/>
		</g>
		<g>
			<rect x="591.8" y="257.7" class="st0" width="14.7" height="41.1"/>
			<rect x="623.9" y="257.7" class="st0" width="14.7" height="41.1"/>
			<rect x="656.1" y="257.7" class="st0" width="14.7" height="41.1"/>
			<rect x="688.2" y="257.7" class="st0" width="14.7" height="41.1"/>
			<rect x="720.4" y="257.7" class="st0" width="14.7" height="41.1"/>
		</g>
		<g>
			<rect x="591.8" y="314.6" class="st0" width="14.7" height="41.1"/>
			<rect x="623.9" y="314.6" class="st0" width="14.7" height="41.1"/>
			<rect x="656.1" y="314.6" class="st0" width="14.7" height="41.1"/>
			<rect x="688.2" y="314.6" class="st0" width="14.7" height="41.1"/>
			<rect x="720.4" y="314.6" class="st0" width="14.7" height="41.1"/>
		</g>
	</g>
	<g>
		<rect x="778.5" y="204.5" class="st0" width="24.2" height="3.2"/>
	</g>
	<g>
		<rect x="778.5" y="196.6" class="st0" width="24.2" height="3.2"/>
	</g>
	<g>
		<rect x="778.5" y="212.3" class="st0" width="24.2" height="3.2"/>
	</g>
	<g>
		<rect x="778.5" y="220.2" class="st0" width="24.2" height="3.2"/>
	</g>
	<g>
		<rect x="778.5" y="228" class="st0" width="24.2" height="3.2"/>
	</g>
	<g>
		<rect x="778.5" y="235.9" class="st0" width="24.2" height="3.2"/>
	</g>
	<g>
		<rect x="778.5" y="243.7" class="st0" width="24.2" height="3.2"/>
	</g>
	<g>
		<rect x="778.5" y="251.6" class="st0" width="24.2" height="3.2"/>
	</g>
	<g>
		<rect x="778.5" y="259.4" class="st0" width="24.2" height="3.2"/>
	</g>
	<g>
		<rect x="778.5" y="267.3" class="st0" width="24.2" height="3.2"/>
	</g>
	<g>
		<rect x="778.5" y="275" class="st0" width="24.2" height="3.2"/>
	</g>
	<g>
		<rect x="778.5" y="282.9" class="st0" width="24.2" height="3.2"/>
	</g>
	<g>
		<rect x="778.5" y="290.7" class="st0" width="24.2" height="3.2"/>
	</g>
	<g>
		<rect x="778.5" y="298.6" class="st0" width="24.2" height="3.2"/>
	</g>
	<g>
		<rect x="778.5" y="306.4" class="st0" width="24.2" height="3.2"/>
	</g>
	<g>
		<rect x="778.5" y="314.3" class="st0" width="24.2" height="3.2"/>
	</g>
	<g>
		<rect x="778.5" y="322.1" class="st0" width="24.2" height="3.2"/>
	</g>
	<g>
		<rect x="778.5" y="330" class="st0" width="24.2" height="3.2"/>
	</g>
	<g>
		<rect x="778.5" y="337.8" class="st1" width="24.2" height="3.2"/>
	</g>
	<g>
		<rect x="778.5" y="345.7" class="st1" width="24.2" height="3.2"/>
	</g>
	<g>
		<path class="st0" d="M546.2-206.3l-52.5-44.4v594.6c1.5,6.8,7.5,11.8,14.6,11.8h37.9V-206.3L546.2-206.3z"/>
	</g>
	<g>
		<rect x="1254.6" y="-214.5" class="st0" width="4.1" height="338.4"/>
	</g>
	<g>
		<rect x="1246.6" y="-214.5" class="st0" width="4.1" height="338.4"/>
	</g>
	<g>
		<rect x="1262.4" y="-214.5" class="st0" width="4.3" height="338.4"/>
	</g>
	<g>
		<polygon class="st0" points="1294.7,59.6 1337.6,47.7 1337.6,355.6 1294.7,355.6 		"/>
	</g>
	<g>
		<rect x="1270.6" y="-214.5" class="st0" width="4.2" height="338.4"/>
	</g>
	<g>
		<rect x="1277.9" y="-214.5" class="st0" width="4.2" height="338.4"/>
	</g>
	<g>
		<polygon class="st0" points="1235.1,188.4 1239.2,-119.2 1243.4,188.4 		"/>
	</g>
	<g>
		<polygon class="st0" points="1284.9,188.4 1289.2,-119.2 1293.3,188.4 		"/>
	</g>
	<g>
		<polygon class="st0" points="1234.9,121.5 1277.8,117.6 1277.8,355.6 1234.9,355.6 		"/>
	</g>
	<g>
		<path class="st0" d="M1496.7,47.1h-159.2v70.5h-61.8v238h61.8h0.6h145.6c7.3-1.1,12.9-7.4,12.9-15L1496.7,47.1z"/>
	</g>
	<g>
		<polygon class="st0" points="581.6,-141.1 554.9,-161.4 554.9,277.6 581.6,277.6 		"/>
	</g>
	<g>
		<rect x="510.7" y="-161.4" class="st0" width="44.3" height="439"/>
	</g>
	<g>
		<polygon class="st0" points="752.1,123.8 779,126.6 779,355.7 752.1,355.7 		"/>
	</g>
	<g>
		<polygon class="st0" points="942.6,199.9 895.2,199.9 891.3,203.2 942.6,203.2 		"/>
	</g>
	<g>
		<polygon class="st0" points="1054.5,199.9 990.9,199.9 990.9,203.2 1060.5,203.2 		"/>
	</g>
	<g>
		<rect x="510.7" y="-99.5" class="st0" width="44.3" height="3.6"/>
	</g>
	<g>
		<rect x="510.7" y="-131" class="st0" width="44.3" height="3.6"/>
	</g>
	<g>
		<rect x="510.7" y="-68" class="st0" width="44.3" height="3.6"/>
	</g>
	<g>
		<rect x="510.7" y="-36.5" class="st0" width="44.3" height="3.6"/>
	</g>
	<g>
		<rect x="510.7" y="-5.1" class="st0" width="44.3" height="3.6"/>
	</g>
	<g>
		<rect x="510.7" y="26.4" class="st0" width="44.3" height="3.6"/>
	</g>
	<g>
		<rect x="510.7" y="57.9" class="st0" width="44.3" height="3.6"/>
	</g>
	<g>
		<rect x="510.7" y="89.4" class="st0" width="44.3" height="3.6"/>
	</g>
	<g>
		<rect x="510.7" y="120.9" class="st0" width="44.3" height="3.6"/>
	</g>
	<g>
		<rect x="510.7" y="152.4" class="st0" width="44.3" height="3.6"/>
	</g>
	<g>
		<rect x="510.7" y="183.9" class="st0" width="44.3" height="3.6"/>
	</g>
	<g>
		<g>
			<g>
				<rect x="1368.2" y="151.2" class="st0" width="12.6" height="19.1"/>
			</g>
			<g>
				<rect x="1408.9" y="151.2" class="st0" width="12.6" height="19.1"/>
			</g>
			<g>
				<rect x="1388.5" y="151.2" class="st0" width="12.6" height="19.1"/>
			</g>
			<g>
				<rect x="1347.8" y="222.3" class="st0" width="12.6" height="19.1"/>
			</g>
			<g>
				<rect x="1307.1" y="222.3" class="st0" width="12.6" height="19.1"/>
			</g>
			<g>
				<rect x="1327.4" y="222.3" class="st0" width="12.6" height="19.1"/>
			</g>
			<g>
				<rect x="1307.1" y="198.6" class="st0" width="12.6" height="19.1"/>
			</g>
			<g>
				<rect x="1347.8" y="151.2" class="st0" width="12.6" height="19.1"/>
			</g>
			<g>
				<rect x="1307.1" y="174.9" class="st0" width="12.6" height="19.1"/>
			</g>
			<g>
				<rect x="1327.4" y="151.2" class="st0" width="12.6" height="19.1"/>
			</g>
			<g>
				<rect x="1307.1" y="151.2" class="st0" width="12.6" height="19.1"/>
			</g>
			<g>
				<rect x="1388.5" y="174.9" class="st0" width="12.6" height="19.1"/>
			</g>
			<g>
				<rect x="1408.9" y="174.9" class="st0" width="12.6" height="19.1"/>
			</g>
			<g>
				<rect x="1327.4" y="174.9" class="st0" width="12.6" height="19.1"/>
			</g>
			<g>
				<rect x="1347.8" y="174.9" class="st0" width="12.6" height="19.1"/>
			</g>
			<g>
				<rect x="1368.2" y="174.9" class="st0" width="12.6" height="19.1"/>
			</g>
			<g>
				<rect x="1408.9" y="198.6" class="st0" width="12.6" height="19.1"/>
			</g>
			<g>
				<rect x="1327.4" y="198.6" class="st0" width="12.6" height="19.1"/>
			</g>
			<g>
				<rect x="1347.8" y="198.6" class="st0" width="12.6" height="19.1"/>
			</g>
			<g>
				<rect x="1368.2" y="198.6" class="st0" width="12.6" height="19.1"/>
			</g>
			<g>
				<rect x="1388.5" y="198.6" class="st0" width="12.6" height="19.1"/>
			</g>
			<g>
				<rect x="1286.8" y="222.3" class="st0" width="12.6" height="19.1"/>
			</g>
			<g>
				<rect x="1286.8" y="174.9" class="st0" width="12.6" height="19.1"/>
			</g>
			<g>
				<rect x="1286.8" y="198.6" class="st0" width="12.6" height="19.1"/>
			</g>
			<g>
				<rect x="1286.8" y="151.2" class="st0" width="12.6" height="19.1"/>
			</g>
			<g>
				<rect x="1368.2" y="222.3" class="st0" width="12.6" height="19.1"/>
			</g>
			<g>
				<rect x="1286.8" y="127.5" class="st0" width="12.6" height="19.1"/>
			</g>
			<g>
				<rect x="1388.5" y="222.3" class="st0" width="12.6" height="19.1"/>
			</g>
			<g>
				<rect x="1408.9" y="222.3" class="st0" width="12.6" height="19.1"/>
			</g>
			<g>
				<rect x="1368.2" y="127.5" class="st0" width="12.6" height="19.1"/>
			</g>
			<g>
				<rect x="1347.8" y="127.5" class="st0" width="12.6" height="19.1"/>
			</g>
			<g>
				<rect x="1327.4" y="127.5" class="st0" width="12.6" height="19.1"/>
			</g>
			<g>
				<rect x="1408.9" y="127.5" class="st0" width="12.6" height="19.1"/>
			</g>
			<g>
				<rect x="1388.5" y="127.5" class="st0" width="12.6" height="19.1"/>
			</g>
			<g>
				<rect x="1307.1" y="127.5" class="st0" width="12.6" height="19.1"/>
			</g>
		</g>
		<g>
			<rect x="1368.2" y="104" class="st0" width="12.6" height="19.1"/>
		</g>
		<g>
			<rect x="1388.5" y="104" class="st0" width="12.6" height="19.1"/>
		</g>
		<g>
			<rect x="1368.2" y="80.2" class="st0" width="12.6" height="19.1"/>
		</g>
		<g>
			<rect x="1368.2" y="56.5" class="st0" width="12.6" height="19.1"/>
		</g>
		<g>
			<rect x="1388.5" y="56.5" class="st0" width="12.6" height="19.1"/>
		</g>
		<g>
			<rect x="1388.5" y="80.2" class="st0" width="12.6" height="19.1"/>
		</g>
		<g>
			<rect x="1347.8" y="104" class="st0" width="12.6" height="19.1"/>
		</g>
		<g>
			<rect x="1347.8" y="56.5" class="st0" width="12.6" height="19.1"/>
		</g>
		<g>
			<rect x="1347.8" y="80.2" class="st0" width="12.6" height="19.1"/>
		</g>
	</g>
	<g>
		<polygon class="st0" points="581.6,-80.1 555.2,-95.8 555.2,-99.5 581.6,-83.8 		"/>
	</g>
	<g>
		<polygon class="st0" points="581.6,-109.7 555.2,-127.3 555.2,-131 581.6,-113.3 		"/>
	</g>
	<g>
		<polygon class="st0" points="1463.2,13.3 1426.5,22.8 1388.2,72.8 1388.2,327.5 1461.5,327.5 		"/>
	</g>
	<g>
		<polygon class="st0" points="581.6,-50.6 555.2,-64.3 555.2,-68 581.6,-54.2 		"/>
	</g>
	<g>
		<polygon class="st0" points="581.6,-21.1 555.2,-32.9 555.2,-36.5 581.6,-24.6 		"/>
	</g>
	<g>
		<polygon class="st0" points="581.6,8.3 555.2,-1.4 555.2,-5.1 581.6,4.7 		"/>
	</g>
	<g>
		<polygon class="st0" points="581.6,37.4 555.2,30.1 555.2,26.4 581.6,33.8 		"/>
	</g>
	<g>
		<polygon class="st0" points="1496.7,13.3 1463.2,13.3 1424.4,66.3 1424.4,327.5 1496.7,327.5 		"/>
	</g>
	<g>
		<polygon class="st0" points="581.6,67.5 555.2,61.6 555.2,57.9 581.6,63.8 		"/>
	</g>
	<g>
		<polygon class="st0" points="581.6,96.4 555.2,93.1 555.2,89.4 581.6,92.8 		"/>
	</g>
	<g>
		<polygon class="st0" points="581.6,126.2 555.2,124.6 555.2,120.9 581.6,122.6 		"/>
	</g>
	<g>
		<polygon class="st0" points="581.6,155.2 555.2,156 555.2,152.4 581.6,151.6 		"/>
	</g>
	<g>
		<polygon class="st0" points="581.6,184.9 555.2,187.5 555.2,183.9 581.6,181.4 		"/>
	</g>
	<g>
		<polygon class="st0" points="581.6,214.5 555.2,218.7 555.2,215.1 581.6,210.8 		"/>
	</g>
	<g>
		<g>
			<g>
				<polygon class="st0" points="934,323.2 952.2,329.2 934,335.1 				"/>
			</g>
			<g>
				<rect x="931.6" y="323.2" class="st0" width="1.3" height="32.4"/>
			</g>
		</g>
		<g>
			<g>
				<polygon class="st0" points="966,323.2 984.3,329.2 966,335.1 				"/>
			</g>
			<g>
				<rect x="963.6" y="323.2" class="st0" width="1.3" height="32.4"/>
			</g>
		</g>
		<g>
			<g>
				<polygon class="st0" points="998,323.2 1016.2,329.2 998,335.1 				"/>
			</g>
			<g>
				<rect x="995.6" y="323.2" class="st0" width="1.3" height="32.4"/>
			</g>
		</g>
	</g>
	<g>
		<rect x="1464.1" y="72.8" class="st0" width="32.6" height="5.3"/>
		<rect x="1464.1" y="91.1" class="st0" width="32.6" height="5.3"/>
		<rect x="1464.1" y="109.5" class="st0" width="32.6" height="5.3"/>
		<rect x="1464.1" y="127.8" class="st0" width="32.6" height="5.3"/>
		<rect x="1464.1" y="146.2" class="st0" width="32.6" height="5.3"/>
		<rect x="1464.1" y="164.5" class="st0" width="32.6" height="5.3"/>
		<rect x="1464.1" y="182.9" class="st0" width="32.6" height="5.3"/>
	</g>
	<g>
		<g>
			<rect x="773.8" y="182.2" class="st0" width="39.6" height="5.1"/>
		</g>
		<g>
			<g>
				<path class="st0" d="M814,187c-7.9,0-15.7,0-23.6,0c-4.4,0-8.8,0-13.2,0c-0.4,0-2.4,0.3-2.7,0c0,0,0.2-4.2,0.2-5
					c-0.5,0.2-0.9,0.4-1.4,0.6c7.9,0,15.7,0,23.6,0c4.4,0,8.8,0,13.2,0c0.4,0,2.4-0.3,2.7,0c0,0-0.2,4.2-0.2,5c0,0.3,1.7,0,1.7-0.4
					c0-1.7,0-3.4,0-5.1c0-0.1-0.3-0.1-0.3-0.1c-13.2,0-26.4,0-39.6,0c-0.3,0-1.4,0.1-1.4,0.6c0,1.7,0,3.4,0,5.1
					c0,0.1,0.3,0.1,0.3,0.1c13.2,0,26.4,0,39.6,0C813.3,187.7,814.8,187,814,187z"/>
			</g>
		</g>
	</g>
	<g>
		<g>
			<polygon class="st0" points="813.4,183.9 806.3,185.5 806.3,355.7 813.4,355.7 			"/>
		</g>
		<g>
			<g>
				<path class="st0" d="M813.4,183.6c-2.4,0.5-4.7,1.1-7.2,1.6c-0.2,0.1-0.8,0.2-0.8,0.5c0,19.1,0,38.3,0,57.3
					c0,30.6,0,61.2,0,91.9c0,7,0,14,0,21c0,0.2,0.4,0.1,0.5,0.1c2.4,0,4.7,0,7.2,0c0.3,0,1.2-0.2,1.2-0.6c0-19.4,0-38.8,0-58.2
					c0-30.7,0-61.5,0-92.2c0-7.2,0-14.2,0-21.4c0-0.3-1.7-0.1-1.7,0.4c0,19.4,0,38.8,0,58.2c0,30.7,0,61.5,0,92.2
					c0,7.2,0,14.2,0,21.4c0.4-0.2,0.8-0.4,1.2-0.6c-1.5,0-2.9,0-4.4,0c-0.5,0-1.9,0.3-2.3,0c-0.9-0.5,0.2,0.4,0,0.1
					c-0.2-0.4,0-1.5,0-1.9c0-3.4,0-6.8,0-10.2c0-13.2,0-26.4,0-39.6c0-32,0-64,0-96c0-7.5,0-15,0-22.5c-0.3,0.2-0.5,0.3-0.8,0.5
					c2.4-0.5,4.7-1.1,7.2-1.6C814.5,183.9,814.3,183.4,813.4,183.6z"/>
			</g>
		</g>
	</g>
	<g>
		<g>
			<rect x="778.3" y="185.5" class="st0" width="28.7" height="170.2"/>
		</g>
		<g>
			<g>
				<path class="st0" d="M807,184.9c-9.5,0-19.1,0-28.7,0c-0.3,0-0.9,0.3-0.9,0.6c0,19.1,0,38.3,0,57.3c0,30.6,0,61.2,0,91.9
					c0,7,0,14,0,21c0,0.4,0.4,0.5,0.8,0.5c9.5,0,19.1,0,28.7,0c0.3,0,0.9-0.3,0.9-0.6c0-19.1,0-38.3,0-57.3c0-30.6,0-61.2,0-91.9
					c0-7,0-14,0-21c0-0.8-1.7-0.5-1.7,0.1c0,24.6,0,49.2,0,73.8c0,30.8,0,61.5,0,92.3c0,0.8-0.4,2.7,0,3.5c0.1,0.1,0,0.4,0,0.6
					c-0.1-1.3,1.4-0.4,0.6-0.6c-0.5-0.1-1.2,0-1.6,0c-8.1,0-16.3,0-24.4,0c-0.8,0-2.4-0.3-2,0.2c0.5,0.7,0.3,0,0.4-0.2
					c0.2-1,0-2.2,0-3.2c0-4.7,0-9.5,0-14.2c0-35.1,0-70.4,0-105.5c0-13.3,0-26.8,0-40.1c0-2.2,0.2-4.5,0-6.6
					c0.2,1.9-1.5,0.2-0.4,0.6c0.3,0.1,1.1,0,1.4,0c1.9,0,3.7,0,5.5,0c4.6,0,9.2,0,13.8,0c2.5,0,4.9,0,7.5,0
					C807.7,186.1,808.1,184.9,807,184.9z"/>
			</g>
		</g>
	</g>
	<g>
		<g>
			<polygon class="st0" points="1116.4,127.6 1143.1,123.9 1143.1,355.7 1116.4,355.7 			"/>
		</g>
		<g>
			<g>
				<path class="st0" d="M1116.2,127.9c4.2-0.6,8.3-1.2,12.6-1.8c2.7-0.4,5.6-0.8,8.3-1.2c1.4-0.2,4.2-1.2,5.6-0.8
					c-0.7-0.2-0.2,0.3-0.4,1.5c-0.2,1.8,0,3.6,0,5.4c0,16.4,0,32.7,0,49.1c0,46.9,0,93.8,0,140.7c0,11.7,0,23.3,0,34.9
					c0.5-0.2,0.9-0.4,1.4-0.6c-4,0-8,0-12.1,0c-2.8,0-5.6,0-8.4,0c-1.2,0-4.8,0.6-5.8,0c-0.7-0.4,0.2,0.4-0.1-0.1
					c-0.1-0.3,0-1.1,0-1.4c0.1-1.8,0-3.5,0-5.2c0-16.1,0-32.2,0-48.4c0-46.3,0-92.5,0-138.9c0-11.4,0-22.7,0-34.1
					c0-0.3-1.7-0.1-1.7,0.4c0,25.7,0,51.4,0,77.1c0,40.9,0,81.9,0,122.9c0,9.3,0,18.7,0,28.1c0,0.1,0.2,0.1,0.3,0.1
					c8.9,0,17.9,0,26.7,0c0.3,0,1.4-0.1,1.4-0.6c0-26.2,0-52.3,0-78.5c0-41.5,0-83.1,0-124.6c0-9.5,0-19.1,0-28.7
					c0-0.2-0.6-0.1-0.7-0.1c-8.9,1.3-17.9,2.5-26.7,3.7C1115.9,127.3,1115.1,128.1,1116.2,127.9z"/>
			</g>
		</g>
	</g>
	<g>
		<g>
			<rect x="1143.1" y="123.8" class="st0" width="50.9" height="231.8"/>
		</g>
		<g>
			<g>
				<path class="st0" d="M1142.7,124.2c9.4,0,18.9,0,28.4,0c6,0,11.9,0,17.9,0c1,0,3.2-0.5,4.2,0c0.9,0.4-0.3-0.6,0,0.1
					c0.4,1.1,0,2.8,0,3.9c0,2.6,0,5.2,0,7.9c0,8.7,0,17.4,0,26.1c0,50.9,0,102,0,152.9c0,13.5,0,27.2,0,40.7
					c0.4-0.2,0.8-0.4,1.2-0.6c-9.4,0-18.9,0-28.4,0c-6,0-11.9,0-17.9,0c-1,0-3.2,0.5-4.2,0c-0.9-0.4,0.3,0.6,0-0.1
					c-0.4-1.1,0-2.8,0-3.9c0-2.6,0-5.2,0-7.9c0-8.7,0-17.4,0-26.1c0-50.9,0-102,0-152.9c0-13.5,0-27.2,0-40.7c0-0.4-1.7-0.1-1.7,0.4
					c0,26.2,0,52.4,0,78.5c0,41.5,0,83.1,0,124.6c0,9.5,0,19.1,0,28.7c0,0.2,0.4,0.2,0.5,0.2c17,0,34,0,50.9,0
					c0.3,0,1.2-0.2,1.2-0.6c0-26.2,0-52.4,0-78.5c0-41.5,0-83.1,0-124.6c0-9.5,0-19.1,0-28.7c0-0.2-0.4-0.2-0.5-0.2
					c-17,0-34,0-50.9,0C1142.9,123.4,1141.7,124.2,1142.7,124.2z"/>
			</g>
		</g>
	</g>
	<g>
		<g>
			<rect x="1188.9" y="145" class="st0" width="6.3" height="13.3"/>
		</g>
		<g>
			<rect x="1178.7" y="194.5" class="st0" width="6.3" height="13.3"/>
		</g>
		<g>
			<rect x="1158.2" y="194.5" class="st0" width="6.3" height="13.3"/>
		</g>
		<g>
			<rect x="1168.5" y="194.5" class="st0" width="6.3" height="13.3"/>
		</g>
		<g>
			<rect x="1158.2" y="178.1" class="st0" width="6.3" height="13.3"/>
		</g>
		<g>
			<rect x="1178.7" y="145" class="st0" width="6.3" height="13.3"/>
		</g>
		<g>
			<rect x="1158.2" y="161.5" class="st0" width="6.3" height="13.3"/>
		</g>
		<g>
			<rect x="1168.5" y="145" class="st0" width="6.3" height="13.3"/>
		</g>
		<g>
			<rect x="1158.2" y="145" class="st0" width="6.3" height="13.3"/>
		</g>
		<g>
			<rect x="1168.5" y="161.5" class="st0" width="6.3" height="13.3"/>
		</g>
		<g>
			<rect x="1178.7" y="161.5" class="st0" width="6.3" height="13.3"/>
		</g>
		<g>
			<rect x="1188.9" y="161.5" class="st0" width="6.3" height="13.3"/>
		</g>
		<g>
			<rect x="1168.5" y="178.1" class="st0" width="6.3" height="13.3"/>
		</g>
		<g>
			<rect x="1178.7" y="178.1" class="st0" width="6.3" height="13.3"/>
		</g>
		<g>
			<rect x="1188.9" y="178.1" class="st0" width="6.3" height="13.3"/>
		</g>
		<g>
			<rect x="1148" y="194.5" class="st0" width="6.3" height="13.3"/>
		</g>
		<g>
			<rect x="1148" y="161.5" class="st0" width="6.3" height="13.3"/>
		</g>
		<g>
			<rect x="1148" y="178.1" class="st0" width="6.3" height="13.3"/>
		</g>
		<g>
			<rect x="1148" y="145" class="st0" width="6.3" height="13.3"/>
		</g>
		<g>
			<rect x="1188.9" y="194.5" class="st0" width="6.3" height="13.3"/>
		</g>
		<g>
			<rect x="1148" y="128.5" class="st0" width="6.3" height="13.3"/>
		</g>
		<g>
			<rect x="1188.9" y="128.5" class="st0" width="6.3" height="13.3"/>
		</g>
		<g>
			<rect x="1178.7" y="128.5" class="st0" width="6.3" height="13.3"/>
		</g>
		<g>
			<rect x="1168.5" y="128.5" class="st0" width="6.3" height="13.3"/>
		</g>
		<g>
			<rect x="1158.2" y="128.5" class="st0" width="6.3" height="13.3"/>
		</g>
		<g>
			<rect x="1188.9" y="228.5" class="st0" width="6.3" height="13.3"/>
		</g>
		<g>
			<rect x="1178.7" y="278.1" class="st0" width="6.3" height="13.3"/>
		</g>
		<g>
			<rect x="1158.2" y="278.1" class="st0" width="6.3" height="13.3"/>
		</g>
		<g>
			<rect x="1168.5" y="278.1" class="st0" width="6.3" height="13.3"/>
		</g>
		<g>
			<rect x="1158.2" y="261.5" class="st0" width="6.3" height="13.3"/>
		</g>
		<g>
			<rect x="1178.7" y="228.5" class="st0" width="6.3" height="13.3"/>
		</g>
		<g>
			<rect x="1158.2" y="245" class="st0" width="6.3" height="13.3"/>
		</g>
		<g>
			<rect x="1168.5" y="228.5" class="st0" width="6.3" height="13.3"/>
		</g>
		<g>
			<rect x="1158.2" y="228.5" class="st0" width="6.3" height="13.3"/>
		</g>
		<g>
			<rect x="1168.5" y="245" class="st0" width="6.3" height="13.3"/>
		</g>
		<g>
			<rect x="1178.7" y="245" class="st0" width="6.3" height="13.3"/>
		</g>
		<g>
			<rect x="1188.9" y="245" class="st0" width="6.3" height="13.3"/>
		</g>
		<g>
			<rect x="1168.5" y="261.5" class="st0" width="6.3" height="13.3"/>
		</g>
		<g>
			<rect x="1178.7" y="261.5" class="st0" width="6.3" height="13.3"/>
		</g>
		<g>
			<rect x="1188.9" y="261.5" class="st0" width="6.3" height="13.3"/>
		</g>
		<g>
			<rect x="1148" y="278.1" class="st0" width="6.3" height="13.3"/>
		</g>
		<g>
			<rect x="1148" y="245" class="st0" width="6.3" height="13.3"/>
		</g>
		<g>
			<rect x="1148" y="261.5" class="st0" width="6.3" height="13.3"/>
		</g>
		<g>
			<rect x="1148" y="228.5" class="st0" width="6.3" height="13.3"/>
		</g>
		<g>
			<rect x="1188.9" y="278.1" class="st0" width="6.3" height="13.3"/>
		</g>
		<g>
			<rect x="1148" y="212" class="st0" width="6.3" height="13.3"/>
		</g>
		<g>
			<rect x="1188.9" y="212" class="st0" width="6.3" height="13.3"/>
		</g>
		<g>
			<rect x="1178.7" y="212" class="st0" width="6.3" height="13.3"/>
		</g>
		<g>
			<rect x="1168.5" y="212" class="st0" width="6.3" height="13.3"/>
		</g>
		<g>
			<rect x="1158.2" y="212" class="st0" width="6.3" height="13.3"/>
		</g>
		<g>
			<rect x="1188.9" y="311.1" class="st0" width="6.3" height="13.3"/>
		</g>
		<g>
			<rect x="1178.7" y="311.1" class="st0" width="6.3" height="13.3"/>
		</g>
		<g>
			<rect x="1158.2" y="327.6" class="st0" width="6.3" height="13.3"/>
		</g>
		<g>
			<rect x="1168.5" y="311.1" class="st0" width="6.3" height="13.3"/>
		</g>
		<g>
			<rect x="1158.2" y="311.1" class="st0" width="6.3" height="13.3"/>
		</g>
		<g>
			<rect x="1168.5" y="327.6" class="st0" width="6.3" height="13.3"/>
		</g>
		<g>
			<rect x="1178.7" y="327.6" class="st0" width="6.3" height="13.3"/>
		</g>
		<g>
			<rect x="1188.9" y="327.6" class="st0" width="6.3" height="13.3"/>
		</g>
		<g>
			<rect x="1148" y="327.6" class="st0" width="6.3" height="13.3"/>
		</g>
		<g>
			<rect x="1148" y="311.1" class="st0" width="6.3" height="13.3"/>
		</g>
		<g>
			<rect x="1148" y="294.6" class="st0" width="6.3" height="13.3"/>
		</g>
		<g>
			<rect x="1188.9" y="294.6" class="st0" width="6.3" height="13.3"/>
		</g>
		<g>
			<rect x="1178.7" y="294.6" class="st0" width="6.3" height="13.3"/>
		</g>
		<g>
			<rect x="1168.5" y="294.6" class="st0" width="6.3" height="13.3"/>
		</g>
		<g>
			<rect x="1158.2" y="294.6" class="st0" width="6.3" height="13.3"/>
		</g>
		<g>
			<rect x="1148" y="344.1" class="st0" width="6.3" height="11.6"/>
		</g>
		<g>
			<rect x="1158.2" y="344.1" class="st0" width="6.3" height="11.6"/>
		</g>
		<g>
			<rect x="1168.5" y="344.1" class="st0" width="6.3" height="11.6"/>
		</g>
		<g>
			<rect x="1178.7" y="344.1" class="st0" width="6.3" height="11.6"/>
		</g>
		<g>
			<rect x="1188.9" y="344.1" class="st0" width="6.3" height="11.6"/>
		</g>
	</g>
	<g>
		<g>
			<polygon class="st0" points="1176.9,337.4 1190.1,337.4 1190.1,139.1 1176.9,139.6 			"/>
		</g>
		<g>
			<g>
				<path class="st0" d="M1176.3,337.8c4.4,0,8.8,0,13.2,0c0.3,0,1.4-0.1,1.4-0.6c0-22.4,0-44.8,0-67.2c0-35.5,0-71.1,0-106.7
					c0-8.1,0-16.3,0-24.5c0-0.2-0.4-0.1-0.5-0.1c-4.4,0.2-8.8,0.4-13.2,0.5c-0.3,0-1.2,0.2-1.2,0.6c0,22.4,0,44.7,0,67
					c0,35.4,0,70.9,0,106.3c0,8.1,0,16.4,0,24.5c0,0.3,1.7,0.1,1.7-0.4c0-22.4,0-44.7,0-67c0-35.4,0-70.9,0-106.3
					c0-8.1,0-16.4,0-24.5c-0.4,0.2-0.8,0.4-1.2,0.6c3.8-0.2,7.7-0.3,11.5-0.5c1.9-0.1,1.3-0.7,1.3,0.7c0.1,3.3,0,6.8,0,10.1
					c0,15.1,0,30.1,0,45.2c0,38.3,0,76.4,0,114.7c0,9.1,0,18.3,0,27.5c0.5-0.2,0.9-0.4,1.4-0.6c-4.4,0-8.8,0-13.2,0
					C1177,337.1,1175.5,337.8,1176.3,337.8z"/>
			</g>
		</g>
	</g>
	<g>
		<g>
			<polygon class="st0" points="1192.8,181.9 1204.6,181.9 1204,-121.1 1192.8,-107.8 			"/>
		</g>
		<g>
			<g>
				<path class="st0" d="M1192.4,182.4c3.9,0,7.9,0,11.9,0c0.4,0,1.2-0.2,1.2-0.7c0-10,0-20-0.1-30c-0.1-24.1-0.1-48.4-0.2-72.5
					c-0.1-29.1-0.1-58.2-0.2-87.3c-0.1-25.2-0.1-50.3-0.2-75.6c0-8.3,0-16.8-0.1-25.1c0-2.6,0-5.1,0-7.7c0-1,0.4-3.2,0-4.1
					c-0.1-0.1,0-0.4,0-0.5c0-0.6-1.4,0-1.6,0.2c-3.4,4-8,8-10.7,12.7c-0.6,1-0.5,1-0.6,2.2c-0.2,4.9,0,9.9,0,14.9c0,22,0,44,0,65.9
					c0,29.4,0,58.9,0,88.3c0,26.5,0,52.9,0,79.4c0,8.8,0,17.7,0,26.4c0,2.8,0,5.6,0,8.4c0,1.1-0.4,3.3,0,4.4c0.1,0.1,0,0.4,0,0.6
					c0,0.5,1.7,0.2,1.7-0.4c0-10.7,0-21.4,0-32.1c0-25.1,0-50.1,0-75.3c0-29.5,0-59,0-88.5c0-23.6,0-47.2,0-70.8c0-6.4,0-12.7,0-19
					c0-1.1-0.3-2.7,0-3.8c0.6-2.2,5-6.1,6.9-8.3c1.4-1.7,2.8-3.3,4.2-5c-0.5,0.1-1.1,0.1-1.6,0.2c0,10,0,20,0.1,30
					c0.1,24.1,0.1,48.4,0.2,72.5c0.1,29.1,0.1,58.2,0.2,87.3c0.1,25.2,0.1,50.3,0.2,75.6c0,8.3,0,16.8,0.1,25.1c0,2.6,0,5.1,0,7.7
					c0,0.8-0.5,3.4,0,4.1c0.1,0.1,0,0.4,0,0.5c0.4-0.2,0.8-0.5,1.2-0.7c-3.9,0-7.9,0-11.9,0C1192.5,181.5,1191.3,182.4,1192.4,182.4
					z"/>
			</g>
		</g>
	</g>
	<g>
		<g>
			<polygon class="st0" points="1209,-120.2 1220.1,-120.2 1220.1,-176.8 1209,-162.5 			"/>
		</g>
		<g>
			<g>
				<path class="st0" d="M1208.7-119.8c3.6,0,7.4,0,11,0c0.3,0,1.2-0.2,1.2-0.6c0-18.9,0-37.8,0-56.7c0-0.5-1.4,0.1-1.6,0.3
					c-3.4,4.4-7.5,8.7-10.3,13.4c-1.5,2.5-0.8,5.8-0.8,8.6c0,11.6,0,23.2,0,34.7c0,0.4,1.7,0.1,1.7-0.4c0-11.3,0-22.5,0-33.8
					c0-3.1-0.9-7.4,0.9-9.6c3.3-4.3,6.7-8.7,10.1-13.2c-0.5,0.1-1.1,0.2-1.6,0.3c0,18.9,0,37.8,0,56.7c0.4-0.2,0.8-0.4,1.2-0.6
					c-3.6,0-7.4,0-11,0C1208.9-120.5,1207.6-119.8,1208.7-119.8z"/>
			</g>
		</g>
	</g>
	<g>
		<g>
			<polygon class="st0" points="949.7,-35.6 949.7,-51.3 902.2,-51.3 902.2,-35.6 872,-35.6 872,355.7 979.8,355.7 979.8,-35.6 			
				"/>
		</g>
		<g>
			<g>
				<path class="st0" d="M950.5-35.6c0-5.2,0-10.5,0-15.7c0-0.3-0.3-0.4-0.5-0.4c-15.8,0-31.7,0-47.5,0c-0.3,0-1.1,0.2-1.1,0.6
					c0,5.2,0,10.5,0,15.7c0.4-0.2,0.8-0.4,1.1-0.6c-10,0-20.1,0-30.1,0c-0.3,0-1.1,0.2-1.1,0.6c0,13.1,0,26,0,39.1
					c0,31.1,0,62.2,0,93.4c0,37.6,0,75.3,0,112.9c0,32.6,0,65.1,0,97.6c0,10.8,0,21.5,0,32.3c0,3.3,0,6.6,0,9.9c0,1.6-0.4,3.8,0,5.3
					c0.1,0.2,0,0.5,0,0.7c0,0.3,0.3,0.4,0.5,0.4c31.5,0,63.1,0,94.6,0c4.4,0,8.8,0,13.2,0c0.3,0,1.1-0.2,1.1-0.6c0-13.1,0-26,0-39.1
					c0-31.1,0-62.2,0-93.4c0-37.6,0-75.3,0-112.9c0-32.6,0-65.1,0-97.6c0-10.8,0-21.5,0-32.3c0-3.3,0-6.6,0-9.9c0-1.6,0.4-3.8,0-5.3
					c-0.1-0.2,0-0.5,0-0.7c0-0.3-0.3-0.4-0.5-0.4c-10,0-20.1,0-30.1,0c-0.7,0-1.7,1.1-0.6,1.1c7.7,0,15.4,0,23.1,0
					c1.7,0,3.3,0,5.1,0c1.3,0,1.9,0.4,1.5-0.4c0.1,0.2,0,0.8,0,1c-0.4,2,0,4.5,0,6.5c0,3.9,0,7.8,0,11.7c0,29.2,0,58.6,0,87.8
					c0,40,0,80.1,0,120.2c0,36.3,0,72.6,0,109c0,12.3,0,24.4,0,36.7c0,3.8,0,7.7,0,11.5c0,1.6-0.6,4.6,0,6.1c0.1,0.2,0,0.6,0,0.8
					c0.4-0.2,0.8-0.4,1.1-0.6c-34.9,0-69.9,0-104.8,0c-0.8,0-1.6,0.1-2.5,0s-0.2,0,0,0.4c-0.1-0.3,0-1.2,0-1.5c0.3-3,0-6.3,0-9.2
					c0-13,0-25.9,0-38.9c0-43.2,0-86.3,0-129.4c0-45.8,0-91.8,0-137.6c0-16.4,0-32.7,0-49.1c0-5.3,0-10.6,0-15.9
					c0-2.5,0.7-6.1,0-8.4c-0.1-0.3,0-0.7,0-1.1c-0.4,0.2-0.8,0.4-1.1,0.6c10,0,20.1,0,30.1,0c0.3,0,1.1-0.2,1.1-0.6
					c0-5.2,0-10.5,0-15.7c-0.4,0.2-0.8,0.4-1.1,0.6c11.6,0,23.2,0,34.7,0c2.9,0,5.9,0,8.9,0c0.9,0,3.1-0.5,3.9,0
					c-1-0.6-0.5,1.1-0.5,2.1c0,1.8,0,3.6,0,5.4c0,2.6,0,5.2,0,7.9C948.8-34.7,950.5-35,950.5-35.6z"/>
			</g>
		</g>
	</g>
	<g>
		<rect x="904.7" y="-3.9" class="st0" width="42.8" height="11.8"/>
	</g>
	<g>
		<rect x="875.4" y="-3.9" class="st0" width="23.7" height="11.8"/>
	</g>
	<g>
		<rect x="953.1" y="-3.9" class="st0" width="23.7" height="11.8"/>
	</g>
	<g>
		<path class="st0" d="M884.1-12.2l-3.2-12.7h1.8l1.5,6.4c0.4,1.6,0.7,3.1,1,4.3l0,0c0.2-1.3,0.6-2.7,1-4.4l1.7-6.4h1.7l1.6,6.4
			c0.4,1.5,0.7,3,0.9,4.3l0,0c0.3-1.4,0.6-2.7,1-4.3l1.7-6.4h1.7l-3.5,12.7h-1.7l-1.6-6.6c-0.4-1.6-0.7-2.8-0.8-4.1l0,0
			c-0.2,1.3-0.5,2.5-1,4.1l-1.8,6.6L884.1-12.2L884.1-12.2z"/>
		<path class="st0" d="M908.6-18.6c0,4.3-2.6,6.7-5.9,6.7c-3.3,0-5.7-2.6-5.7-6.4c0-4,2.5-6.7,5.9-6.7
			C906.4-25,908.6-22.3,908.6-18.6z M898.8-18.4c0,2.6,1.5,5.1,4,5.1c2.6,0,4-2.4,4-5.2c0-2.6-1.3-5.1-4-5.1
			C900.2-23.7,898.8-21.2,898.8-18.4z"/>
		<path class="st0" d="M921.5-18.6c0,4.3-2.6,6.7-5.9,6.7c-3.3,0-5.7-2.6-5.7-6.4c0-4,2.5-6.7,5.9-6.7
			C919.3-25,921.5-22.3,921.5-18.6z M911.7-18.4c0,2.6,1.5,5.1,4,5.1s4-2.4,4-5.2c0-2.6-1.3-5.1-4-5.1
			C913.1-23.7,911.7-21.2,911.7-18.4z"/>
		<path class="st0" d="M923.6-24.7c1-0.2,2.2-0.3,3.4-0.3c2.4,0,4,0.6,5.1,1.6c1.1,1.1,1.8,2.5,1.8,4.5s-0.6,3.7-1.9,4.9
			c-1.2,1.2-3.1,1.9-5.6,1.9c-1.2,0-2.2-0.1-2.9-0.2L923.6-24.7L923.6-24.7z M925.3-13.5c0.4,0.1,1,0.1,1.7,0.1c3.5,0,5.4-2,5.4-5.4
			c0-2.9-1.7-4.9-5.1-4.9c-0.9,0-1.5,0.1-1.9,0.2L925.3-13.5L925.3-13.5z"/>
		<path class="st0" d="M946.8-17.7c-0.1-1.8-0.2-3.9-0.2-5.5h-0.1c-0.4,1.5-1,3-1.6,4.8l-2.3,6.1h-1.3l-2.1-6
			c-0.6-1.8-1.1-3.4-1.5-4.9l0,0c0,1.6-0.1,3.7-0.2,5.6l-0.3,5.4h-1.6l0.9-12.7h2.1l2.2,6.1c0.5,1.6,1,2.9,1.3,4.2h0.1
			c0.3-1.3,0.8-2.6,1.4-4.2l2.3-6.1h2.1l0.8,12.7h-1.6L946.8-17.7z"/>
		<path class="st0" d="M957.8-18.1h-4.9v4.5h5.5v1.4h-7.1v-12.7h6.9v1.4h-5.2v4h4.9L957.8-18.1L957.8-18.1z"/>
		<path class="st0" d="M960.4-12.2v-12.7h1.8l4,6.4c1,1.5,1.7,2.8,2.3,4.1l0,0c-0.2-1.7-0.2-3.2-0.2-5.2v-5.3h1.6v12.7h-1.7l-4-6.4
			c-0.9-1.4-1.8-2.8-2.4-4.2h-0.1c0.1,1.6,0.1,3.1,0.1,5.2v5.4L960.4-12.2L960.4-12.2z"/>
	</g>
	<g>
		<g>
			<polygon class="st0" points="985.5,153.8 1039.3,153.8 1039.1,103.5 985.5,134.8 			"/>
		</g>
		<g>
			<g>
				<path class="st0" d="M985,154.2c18,0,35.9,0,53.8,0c0.3,0,1.4-0.1,1.4-0.5c-0.1-16.8-0.2-33.6-0.3-50.3c0-0.3-1.3,0.1-1.5,0.2
					c-9.4,5.5-18.8,11-28.3,16.5c-6.2,3.6-12.5,7.3-18.6,10.9c-1.6,0.9-6,2.5-6.9,4.1c-0.4,0.8,0,2.7,0,3.6c0,2.1,0,4.2,0,6.3
					c0,3,0,6.1,0,9.1c0,0.2,1.7,0,1.7-0.4c0-5.8,0.3-11.7,0-17.6c-0.1-1.8-0.4-1.1,0.8-2c1.6-1.1,3.3-2,4.9-2.8
					c12.3-7.2,24.5-14.3,36.8-21.5c3.6-2.1,7.2-4.2,10.8-6.3c-0.5,0.1-1,0.1-1.5,0.2c0.1,16.8,0.2,33.6,0.3,50.3
					c0.5-0.2,0.9-0.4,1.4-0.5c-18,0-35.9,0-53.8,0C985.7,153.5,984.3,154.2,985,154.2z"/>
			</g>
		</g>
	</g>
	<g>
		<rect x="875.4" y="11.6" class="st0" width="2.8" height="344.1"/>
		<rect x="881.2" y="11.6" class="st0" width="2.8" height="344.1"/>
		<rect x="887" y="11.6" class="st0" width="2.8" height="344.1"/>
		<rect x="892.8" y="11.6" class="st0" width="2.8" height="344.1"/>
		<rect x="898.6" y="11.6" class="st0" width="2.8" height="344.1"/>
		<rect x="904.4" y="11.6" class="st0" width="2.8" height="344.1"/>
		<rect x="910.2" y="11.6" class="st0" width="2.8" height="344.1"/>
		<rect x="915.9" y="11.6" class="st0" width="2.8" height="344.1"/>
		<rect x="921.7" y="11.6" class="st0" width="2.8" height="344.1"/>
		<rect x="927.5" y="11.6" class="st0" width="2.8" height="344.1"/>
		<rect x="933.3" y="11.6" class="st0" width="2.8" height="344.1"/>
		<rect x="939.2" y="11.6" class="st0" width="2.8" height="344.1"/>
		<rect x="945" y="11.6" class="st0" width="2.8" height="344.1"/>
		<rect x="950.8" y="11.6" class="st0" width="2.8" height="344.1"/>
		<rect x="956.6" y="11.6" class="st0" width="2.8" height="344.1"/>
		<rect x="962.4" y="11.6" class="st0" width="2.8" height="344.1"/>
		<rect x="968.2" y="11.6" class="st0" width="2.8" height="344.1"/>
		<rect x="973.9" y="11.6" class="st0" width="2.8" height="344.1"/>
	</g>
	<g>
		<g>
			<polygon class="st0" points="943.5,153.8 889.5,153.8 889.5,103.5 943.5,134.8 			"/>
		</g>
		<g>
			<g>
				<path class="st0" d="M944,153.5c-15.2,0-30.4,0-45.6,0c-2.1,0-5.9,0.8-7.9,0c-1-0.4,0,0.4-0.3-0.2c-0.3-0.6,0-2,0-2.6
					c0-8.5,0-17.1,0-25.7c0-7.3,0-14.5,0-21.8c-0.5,0.2-1.1,0.3-1.6,0.5c9.1,5.3,18.3,10.6,27.4,15.8c6.2,3.6,12.4,7.2,18.6,10.8
					c1.9,1.1,7.1,2.9,7.9,4.8c0.4,0.8,0,2.9,0,3.8c0,2.2,0,4.3,0,6.4c0,2.9,0,5.8,0,8.7c0,0.2,1.7,0,1.7-0.4c0-5.8,0.7-12,0-17.8
					c-0.2-1.6,0.1-1-0.8-1.8c-1.2-1.2-3.3-2-4.8-2.7c-12.5-7.2-24.9-14.4-37.3-21.6c-3.7-2.2-7.5-4.3-11.2-6.5
					c-0.3-0.2-1.6,0.1-1.6,0.5c0,16.8,0,33.6,0,50.3c0,0.1,0.3,0.1,0.3,0.1c18.1,0,36,0,54.1,0C943.2,154.1,944.8,153.5,944,153.5z"
					/>
			</g>
		</g>
	</g>
	<g>
		<g>
			<polygon class="st0" points="971.9,355.7 1025.7,355.7 1025.7,120.9 971.9,144.2 			"/>
		</g>
		<g>
			<g>
				<path class="st0" d="M971.6,356.1c18,0,35.9,0,53.8,0c0.3,0,1.2-0.2,1.2-0.6c0-26.5,0-53.1,0-79.6c0-42.1,0-84.2,0-126.2
					c0-9.6,0-19.3,0-28.9c0-0.4-1-0.1-1.1-0.1c-18,7.8-35.9,15.5-53.8,23.3c-0.2,0.1-0.5,0.2-0.5,0.5c0,23.8,0,47.8,0,71.6
					c0,37.9,0,75.8,0,113.6c0,8.7,0,17.4,0,26.1c0,0.4,1.7,0.1,1.7-0.4c0-35.2,0-70.5,0-105.7c0-24,0-48,0-72c0-8,0-16.2,0-24.2
					c0-2.7-0.8-6.8,0-9.4c-0.1,0.2-0.8,0.8,0,0.3c0.5-0.3,1.2-0.5,1.8-0.8c2-0.9,4-1.8,6-2.6c6.1-2.6,12.2-5.3,18.3-7.9
					c9.1-3.9,18.2-7.9,27.3-11.8c-0.4,0-0.8,0-1.1-0.1c0,26.5,0,53.1,0,79.6c0,42.1,0,84.2,0,126.2c0,9.6,0,19.3,0,28.9
					c0.4-0.2,0.8-0.4,1.2-0.6c-18,0-35.9,0-53.8,0C971.7,355.3,970.4,356.1,971.6,356.1z"/>
			</g>
		</g>
	</g>
	<g>
		<g>
			<polygon class="st0" points="957.2,355.7 903.3,355.7 903.3,120.9 957.2,144.2 			"/>
		</g>
		<g>
			<g>
				<path class="st0" d="M957.3,355.1c-9.5,0-19,0-28.6,0c-6.2,0-12.5,0-18.6,0c-1.7,0-3.5-0.2-5.3,0s-0.6-0.3-0.6,0.4
					c-0.7-12.3,0-24.7,0-37.1c0-51.9,0-103.9,0-155.8c0-13.9,0-27.8,0-41.7c-0.4,0.2-0.9,0.4-1.3,0.6c17.4,7.6,34.7,15,52.2,22.6
					c0.8,0.4,1.7,1.2,1.3,0.3c0.1,0.2,0,0.5,0,0.8c0.1,1.7,0,3.3,0,5c0,7.1,0,14.1,0,21.2c0,48.1,0,96.2,0,144.3
					c0,13.4,0,26.8,0,40.2c0,0.8,1.7,0.6,1.7-0.1c0-23.8,0-47.8,0-71.6c0-37.9,0-75.8,0-113.6c0-8.7,0-17.4,0-26.1
					c0-0.3-0.1-0.4-0.4-0.5c-18-7.8-35.9-15.5-53.8-23.3c-0.4-0.2-1.3,0.1-1.3,0.6c0,26.5,0,53.1,0,79.6c0,42.1,0,84.2,0,126.2
					c0,9.6,0,19.3,0,28.9c0,0.4,0.4,0.5,0.8,0.5c18,0,35.9,0,53.8,0C958,356.3,958.3,355.1,957.3,355.1z"/>
			</g>
		</g>
	</g>
	<g>
		<g>
			<polygon class="st0" points="1225.8,-176.8 1236.8,-176.8 1236.8,-227.5 1225.8,-212.3 			"/>
		</g>
		<g>
			<g>
				<path class="st0" d="M1225.5-176.2c3.6,0,7.4,0,11,0c0.3,0,1.1-0.2,1.1-0.6c0-17,0-33.9,0-50.8c0-0.8-1.3-0.3-1.6,0
					c-3,4.2-6.1,8.3-9.1,12.6c-2.2,2.9-2,3.7-2,7.5c0,10.3,0,20.6,0,30.9c0,0.8,1.7,0.4,1.7-0.2c0-10.1,0-20.2,0-30.3
					c0-1.5-0.4-3.5,0-4.9c0.2-0.9,1.4-2.2,2.1-3c2.9-4.1,6-8.2,8.9-12.3c-0.5,0-1.1,0-1.6,0c0,17,0,33.9,0,50.8
					c0.4-0.2,0.8-0.4,1.1-0.6c-3.6,0-7.4,0-11,0C1225.4-177.3,1224.3-176.2,1225.5-176.2z"/>
			</g>
		</g>
	</g>
	<g>
		<g>
			<polygon class="st0" points="1325.3,138.9 1325.3,-121.1 1310.5,-121.1 1310.5,-176.8 1292.5,-176.8 1292.5,-227.5 
				1278.8,-227.5 1278.8,-233.4 1274.7,-233.4 1274.7,-227.5 1270.6,-227.5 1270.6,-233.4 1266.6,-233.4 1266.6,-227.5 
				1262.6,-227.5 1262.6,-233.4 1258.5,-233.4 1258.5,-227.5 1254.5,-227.5 1254.5,-233.4 1250.5,-233.4 1250.5,-227.5 
				1236.8,-227.5 1236.8,-176.8 1219.8,-176.8 1219.8,-121.1 1204,-121.1 1204,138.9 1189.4,138.9 1189.4,355.6 1331.5,355.6 
				1331.5,138.9 			"/>
		</g>
		<g>
			<g>
				<path class="st0" d="M1326.1,138.8c0-29.3,0-58.7,0-88c0-46.7,0-93.4,0-140c0-10.6,0-21.2,0-31.8c0-0.4-0.4-0.6-0.8-0.6
					c-3.1,0-6.3,0-9.4,0c-1.6,0-3.2-0.2-4.8,0c-0.8,0.1,0.1,0.9,0.3,0.2c0.9-5.2,0-11.4,0-16.7c0-12.9,0-25.7,0-38.6
					c0-0.4-0.4-0.6-0.8-0.6c-2.8,0-5.7,0-8.6,0c-2.8,0-6.5,0.6-9.2,0c1.3,0.3,0.1,0.8,0.6-0.3c0.2-0.6,0-1.8,0-2.4
					c0-3.1,0-6.2,0-9.3c0-12.8,0-25.5,0-38.3c0-0.4-0.4-0.6-0.8-0.6c-3.6,0-7.2,0-10.8,0c-0.7,0-1.6-0.1-2.3,0c-1.1,0.2,0,0.5,0,0.1
					c0-1.8,0-3.5,0-5.3c0-0.4-0.4-0.6-0.8-0.6c-1.4,0-2.6,0-4,0c-0.3,0-0.9,0.3-0.9,0.7c0,1.4-0.2,2.7,0,4.1c0,0.3-0.3,2.2,0.4,1.4
					c0.5-0.7-0.8-0.3-1.5-0.3c-0.4,0-1.5,0.2-1.9,0c1.2,0.6,0.4-0.1,0.6-1.2c0.2-1.3,0-2.7,0-4.1c0-0.4-0.4-0.6-0.8-0.6
					c-1.4,0-2.6,0-4,0c-0.3,0-0.9,0.3-0.9,0.7c0,1.4-0.2,2.7,0,4.1c0,0.3-0.3,2.2,0.4,1.4c0.5-0.7-0.8-0.3-1.5-0.3
					c-0.4,0-1.5,0.2-1.9,0c1.2,0.6,0.4-0.1,0.6-1.2c0.2-1.3,0-2.7,0-4.1c0-0.4-0.4-0.6-0.8-0.6c-1.4,0-2.6,0-4,0
					c-0.3,0-0.9,0.3-0.9,0.7c0,1.4-0.2,2.7,0,4.1c0,0.3-0.3,2.2,0.4,1.4c0.5-0.7-0.8-0.3-1.5-0.3c-0.4,0-1.5,0.2-1.9,0
					c1.2,0.6,0.4-0.1,0.6-1.2c0.2-1.3,0-2.7,0-4.1c0-0.4-0.4-0.6-0.8-0.6c-1.4,0-2.6,0-4,0c-0.3,0-0.9,0.3-0.9,0.7
					c0,1.4-0.5,3.8,0,5c0.3,0.8,1.1,0.2,0.4,0.1c-0.8-0.1-1.7,0-2.5,0c-3.6,0-7.2,0-10.8,0c-0.3,0-0.9,0.3-0.9,0.7
					c0,12.5,0,25,0,37.5c0,3.1,0,6.3,0,9.3c0,0.6-0.2,4.5,0.4,3.5c0.5-0.8-1.4-0.3-2.4-0.3c-1.9,0-3.7,0-5.7,0c-2.8,0-5.7,0-8.4,0
					c-0.3,0-0.9,0.3-0.9,0.7c0,13.2,0,26.2,0,39.4c0,3.4,0,7,0,10.4c0,1.6-0.5,4.2,0,5.6c0.2,0.7-1.3-0.3,0.9-0.4
					c-0.4,0-0.9,0.1-1.2,0c-1.7-0.3-3.7,0-5.5,0c-3,0-6.1,0-9.1,0c-0.3,0-0.9,0.3-0.9,0.7c0,31.9,0,63.8,0,95.8c0,47.5,0,95,0,142.6
					c0,6.3,0,12.5,0,18.7c0,1,0,2,0,2.9c0-1,1.4-0.6,0.7-0.7c-0.6-0.1-1.2,0-1.8,0c-1.5,0-2.9,0-4.5,0c-2.7,0-5.4,0-8.1,0
					c-0.3,0-0.9,0.3-0.9,0.7c0,24.3,0,48.7,0,73c0,39,0,77.9,0,116.9c0,8.9,0,17.9,0,26.7c0,0.4,0.4,0.6,0.8,0.6
					c41.4,0,82.8,0,124.2,0c5.9,0,11.9,0,17.8,0c0.3,0,0.9-0.3,0.9-0.7c0-24.3,0-48.7,0-73c0-39,0-77.9,0-116.9c0-8.9,0-17.9,0-26.7
					c0-0.4-0.4-0.6-0.8-0.6c-2.1,0-4.1,0-6.2,0c-1,0-1.3,1.3-0.1,1.3c1.2,0,2.4,0,3.5,0c0.8,0,1.6-0.1,2.4,0
					c0.6,0.1-0.4-0.6-0.4-0.5c0.1,0.3,0.1,0.8,0,1.1c-0.4,1.8,0,4.1,0,5.9c0,8.2,0,16.6,0,24.8c0,26.5,0,53,0,79.5
					c0,25.9,0,51.8,0,77.7c0,7.7,0,15.2,0,22.9c0,1.1-0.5,3.4,0,4.4c0.3,0.6,1-0.3,0.7-0.4c-0.6-0.2-1.4,0-2,0
					c-21.6,0-43.1,0-64.7,0c-23.5,0-46.8,0-70.3,0c-1.6,0-3.3,0.3-4.9,0c1.2,0.2,0.4,0.9,0.7,0.1c0.2-0.5,0-1.4,0-1.9
					c0-6.5,0-12.9,0-19.3c0-24.9,0-49.9,0-74.8c0-27.2,0-54.4,0-81.6c0-9.2,0-18.5,0-27.8c0-2.6,0-5.3,0-7.9c0-0.6,0.2-1.6,0-2.1
					c-0.5-1.2,1.1-0.2-0.8,0c4.8-0.4,9.7,0,14.5,0c0.3,0,0.9-0.3,0.9-0.7c0-32.3,0-64.7,0-97c0-47.5,0-95,0-142.6c0-6,0-12.1,0-18.1
					c0-0.5,0.2-1.3,0-1.8c-0.4-1.2,0.7,0.2-0.7,0.1c5.1,0.5,10.5,0,15.6,0c0.3,0,0.9-0.3,0.9-0.7c0-9.4,0-18.8,0-28.3
					c0-6.5,0-13,0-19.5c0-2,0-4,0-6c0-0.4,0.2-1.2,0-1.5c-0.3-0.7-0.8,0.2-0.6,0.3c2.6,0.6,6.3,0,8.9,0c2.6,0,5.1,0,7.7,0
					c0.3,0,0.9-0.3,0.9-0.7c0-11.8,0-23.5,0-35.2c0-3.3,0-6.6,0-9.9c0-1.7,0.3-3.6,0-5.3c-0.2-0.9-1.1,0-0.4,0.2c1.2,0.4,3,0,4.3,0
					c2.9,0,5.9,0,8.9,0c0.3,0,0.9-0.3,0.9-0.7c0-1.4,0.2-2.7,0-4.1c0-0.3,0.3-2.2-0.4-1.4c-0.5,0.7,0.8,0.3,1.5,0.3
					c0.4,0,1.5-0.2,1.9,0c-1.2-0.6-0.4,0.1-0.6,1.2c-0.2,1.3,0,2.7,0,4.1c0,0.4,0.4,0.6,0.8,0.6c1.4,0,2.6,0,4,0
					c0.3,0,0.9-0.3,0.9-0.7c0-1.4,0.2-2.7,0-4.1c0-0.3,0.3-2.2-0.4-1.4c-0.5,0.7,0.8,0.3,1.5,0.3c0.4,0,1.5-0.2,1.9,0
					c-1.2-0.6-0.4,0.1-0.6,1.2c-0.2,1.3,0,2.7,0,4.1c0,0.4,0.4,0.6,0.8,0.6c1.4,0,2.6,0,4,0c0.3,0,0.9-0.3,0.9-0.7
					c0-1.4,0.2-2.7,0-4.1c0-0.3,0.3-2.2-0.4-1.4c-0.5,0.7,0.8,0.3,1.5,0.3c0.4,0,1.5-0.2,1.9,0c-1.2-0.6-0.4,0.1-0.6,1.2
					c-0.2,1.3,0,2.7,0,4.1c0,0.4,0.4,0.6,0.8,0.6c1.4,0,2.6,0,4,0c0.3,0,0.9-0.3,0.9-0.7c0-1.4,0.2-2.7,0-4.1c0-0.3,0.3-2.2-0.4-1.4
					c-0.5,0.7,0.8,0.3,1.5,0.3c0.4,0,1.5-0.2,1.9,0c-1.2-0.6-0.4,0.1-0.6,1.2c-0.2,1.3,0,2.7,0,4.1c0,0.4,0.4,0.6,0.8,0.6
					c2.9,0,5.9,0,8.9,0c1.4,0,2.8,0.1,4.3,0c0.8-0.1-0.1-0.9-0.2-0.1c-0.7,4.8,0,10.3,0,15.1c0,11.8,0,23.5,0,35.2
					c0,0.4,0.4,0.6,0.8,0.6c5.2,0,10.4,0,15.6,0c0.7,0,1.6-0.1,2.3,0c-0.9-0.2-0.4-0.9-0.7,0c-0.4,1.4,0,3.3,0,4.8
					c0,13,0,25.9,0,38.8c0,3.8,0,7.7,0,11.6c0,0.4,0.4,0.6,0.8,0.6c4.6,0,9.7,0.7,14.2,0c0.7-0.1-0.1-1-0.3-0.2
					c-0.1,0.4,0,0.9,0,1.4c0,4.8,0,9.6,0,14.4c0,19.9,0,39.8,0,59.7c0,49.6,0,99.2,0,148.8c0,11.8,0,23.6,0,35.3
					C1324.4,139.9,1326.1,139.6,1326.1,138.8z"/>
			</g>
		</g>
	</g>
	<g>
		<g>
			<polygon class="st0" points="889.5,120.9 889.5,103.5 835.5,103.5 835.5,120.9 821.5,120.9 821.5,355.7 903.3,355.7 903.3,120.9 
							"/>
		</g>
		<g>
			<g>
				<path class="st0" d="M890.2,120.8c0-5.8,0-11.6,0-17.4c0-0.4-0.4-0.5-0.8-0.5c-18,0-35.9,0-54,0c-0.3,0-0.9,0.3-0.9,0.7
					c0,2.5,0,5,0,7.5c0,1.9,0,3.8,0,5.7c0,1-0.4,2.7,0,3.6c0.3,0.6,1.3,0.3-0.1,0c-1.4-0.4-3.3,0-4.8,0c-2.7,0-5.5,0-8.2,0
					c-0.3,0-0.9,0.3-0.9,0.7c0,26.5,0,53.1,0,79.6c0,42.1,0,84.2,0,126.2c0,9.6,0,19.3,0,28.9c0,0.4,0.4,0.5,0.8,0.5
					c23.8,0,47.6,0,71.4,0c3.4,0,6.9,0,10.4,0c0.3,0,0.9-0.3,0.9-0.7c0-26.5,0-53.1,0-79.6c0-42.1,0-84.2,0-126.2
					c0-9.6,0-19.3,0-28.9c0-0.4-0.4-0.5-0.8-0.5c-4.6,0-9.2,0-13.8,0c-0.9,0-1.3,1.2-0.2,1.2c2.4,0,4.6,0,7,0c1.6,0,3,0,4.6,0
					c0.5,0,1.1,0.1,1.6,0c1.1-0.2,0.1,0.3,0-0.5c0.1,0.8,0,1.8,0,2.6c0,6,0,12,0,18c0,23.4,0,46.7,0,70c0,27.4,0,54.8,0,82.2
					c0,18.5,0,37.2,0,55.7c0,1.5-0.5,3.8,0,5.3c0.1,0.3-0.1,0.6,0,0.9c-0.2-1,1.7-0.3-0.3-0.6c-3.5-0.5-7.5,0-11,0
					c-6.1,0-12.3,0-18.4,0c-13.2,0-26.3,0-39.5,0c-3.3,0-7.5-0.6-10.8,0c-1.6,0.3-0.4-0.5-0.4,0.5c0-0.3-0.1-0.7,0-1
					c0.4-1.6,0-3.7,0-5.4c0-3.1,0-6.3,0-9.4c0-9.5,0-19,0-28.7c0-26.4,0-52.9,0-79.3c0-25.6,0-51.1,0-76.7c0-8.2,0-16.6,0-24.8
					c0-2.4,0-4.6,0-7c0-0.4,0.2-3.2-0.4-2.2c-0.4,0.7,0.9,0.3,1.9,0.3c1.6,0,3.1,0,4.6,0c2.4,0,4.6,0,7,0c0.3,0,0.9-0.3,0.9-0.7
					c0-2.7,0-5.5,0-8.2c0-2,0-3.9,0-5.9c0-0.4,0-3.8-0.5-2.8c-0.4,0.7-0.3,0.1,0.6,0.3c0.8,0.2,1.9,0,2.7,0c3.1,0,6.3,0,9.5,0
					c8.1,0,16.3,0,24.4,0c3.5,0,7,0,10.5,0c1.7,0,3.7-0.3,5.4,0c0.8,0.2-0.4-0.4-0.4-0.5c0.1,0.3,0.1,0.9,0,1.2
					c-0.5,1.7,0,4.1,0,5.8c0,3.4,0,7,0,10.4C888.7,121.8,890.2,121.5,890.2,120.8z"/>
			</g>
		</g>
	</g>
	<g>
		<g>
			<rect x="826.1" y="128.5" class="st0" width="8" height="24.2"/>
		</g>
		<g>
			<rect x="839" y="128.5" class="st0" width="8" height="24.2"/>
		</g>
		<g>
			<rect x="852" y="128.5" class="st0" width="8" height="24.2"/>
		</g>
		<g>
			<rect x="864.8" y="128.5" class="st0" width="8" height="24.2"/>
		</g>
		<g>
			<rect x="877.8" y="128.5" class="st0" width="8" height="24.2"/>
		</g>
		<g>
			<rect x="890.7" y="128.5" class="st0" width="8" height="24.2"/>
		</g>
	</g>
	<g>
		<rect x="826.1" y="164.8" class="st0" width="3.5" height="190.9"/>
		<rect x="832.3" y="164.8" class="st0" width="3.5" height="190.9"/>
		<rect x="838.6" y="164.8" class="st0" width="3.5" height="190.9"/>
		<rect x="844.9" y="164.8" class="st0" width="3.5" height="190.9"/>
		<rect x="851.3" y="164.8" class="st0" width="3.5" height="190.9"/>
		<rect x="857.6" y="164.8" class="st0" width="3.5" height="190.9"/>
		<rect x="863.8" y="164.8" class="st0" width="3.5" height="190.9"/>
		<rect x="870.1" y="164.8" class="st0" width="3.5" height="190.9"/>
		<rect x="876.4" y="164.8" class="st0" width="3.5" height="190.9"/>
		<rect x="882.7" y="164.8" class="st0" width="3.5" height="190.9"/>
		<rect x="889" y="164.8" class="st0" width="3.5" height="190.9"/>
		<rect x="895.2" y="164.8" class="st0" width="3.5" height="190.9"/>
	</g>
	<g>
		<g>
			<polygon class="st0" points="1093.5,120.9 1093.5,103.5 1039.1,103.5 1039,120.9 1025.7,120.9 1025.7,355.7 1107.5,355.7 
				1107.5,120.9 			"/>
		</g>
		<g>
			<g>
				<path class="st0" d="M1094.4,120.7c0-5.8,0-11.6,0-17.4c0-0.1-0.3-0.1-0.3-0.1c-18.2,0-36.3,0-54.4,0c-0.3,0-1.4,0.1-1.4,0.6
					c0,5.8-0.1,11.6-0.1,17.4c0.5-0.2,0.9-0.4,1.4-0.6c-4.4,0-8.8,0-13.3,0c-0.3,0-1.4,0.1-1.4,0.6c0,26.5,0,53.1,0,79.6
					c0,42.1,0,84.2,0,126.2c0,9.6,0,19.3,0,28.9c0,0.1,0.3,0.1,0.3,0.1c23.8,0,47.6,0,71.4,0c3.4,0,6.9,0,10.4,0
					c0.3,0,1.4-0.1,1.4-0.6c0-26.5,0-53,0-79.6c0-42.1,0-84.2,0-126.2c0-9.6,0-19.3,0-28.9c0-0.1-0.3-0.1-0.3-0.1
					c-4.6,0-9.3,0-13.9,0c-0.4,0-1.9,0.7-1.1,0.7c2,0,3.8,0,5.7,0c1.7,0,6.2-0.9,7.7,0c0.3,0.2,0.3,0,0.3,1.3c0,4.2,0,8.4,0,12.6
					c0,17.9,0,35.8,0,53.7c0,44.9,0,89.9,0,134.8c0,10.7,0,21.5,0,32.2c0.5-0.2,0.9-0.4,1.4-0.6c-23,0-46,0-69,0
					c-3.7,0-8.2,0.7-11.9,0c-0.9-0.2-0.8,0.2-0.6-1.4c0.5-6,0-12.3,0-18.4c0-25.6,0-51.3,0-76.9c0-29.4,0-58.9,0-88.4
					c0-10.9,0-21.8,0-32.7c0-3.5,0-7.1,0-10.6c0-1.5,0.6-4.3,0-5.6c-0.1-0.2,0-0.5,0-0.7c-0.5,0.2-0.9,0.4-1.4,0.6
					c4.4,0,8.8,0,13.3,0c0.3,0,1.4-0.1,1.4-0.6c0-5.8,0.1-11.6,0.1-17.4c-0.5,0.2-0.9,0.4-1.4,0.6c13.2,0,26.3,0,39.5,0
					c3.3,0,6.7,0,10.1,0c0.8,0,4.2-0.5,4.8,0c-0.4-0.3-0.2,1.8-0.2,2.2c0,2,0,4,0,6c0,3,0,6.1,0,9.1
					C1092.7,121.4,1094.4,121.1,1094.4,120.7z"/>
			</g>
		</g>
	</g>
	<g>
		<g>
			<rect x="1094.9" y="128.5" class="st0" width="8" height="24.2"/>
		</g>
		<g>
			<rect x="1081.9" y="128.5" class="st0" width="8" height="24.2"/>
		</g>
		<g>
			<rect x="1069" y="128.5" class="st0" width="8" height="24.2"/>
		</g>
		<g>
			<rect x="1056.1" y="128.5" class="st0" width="8" height="24.2"/>
		</g>
		<g>
			<rect x="1043.1" y="128.5" class="st0" width="8" height="24.2"/>
		</g>
		<g>
			<rect x="1030.3" y="128.5" class="st0" width="8" height="24.2"/>
		</g>
	</g>
	<g>
		<rect x="1099.4" y="164.8" class="st0" width="3.5" height="190.9"/>
		<rect x="1093.1" y="164.8" class="st0" width="3.5" height="190.9"/>
		<rect x="1086.8" y="164.8" class="st0" width="3.5" height="190.9"/>
		<rect x="1080.5" y="164.8" class="st0" width="3.5" height="190.9"/>
		<rect x="1074.2" y="164.8" class="st0" width="3.5" height="190.9"/>
		<rect x="1068" y="164.8" class="st0" width="3.5" height="190.9"/>
		<rect x="1061.7" y="164.8" class="st0" width="3.5" height="190.9"/>
		<rect x="1055.4" y="164.8" class="st0" width="3.5" height="190.9"/>
		<rect x="1049.1" y="164.8" class="st0" width="3.5" height="190.9"/>
		<rect x="1042.8" y="164.8" class="st0" width="3.5" height="190.9"/>
		<rect x="1036.6" y="164.8" class="st0" width="3.5" height="190.9"/>
		<rect x="1030.3" y="164.8" class="st0" width="3.5" height="190.9"/>
	</g>
	<g>
		<g>
			<polygon class="st0" points="1071.4,215.6 860.9,215.6 851.1,222.1 1081.8,222.1 			"/>
		</g>
		<g>
			<g>
				<path class="st0" d="M1071.7,215.2c-26.4,0-52.9,0-79.3,0c-38.5,0-77,0-115.5,0c-4.7,0-9.4,0-14.1,0c-4.6,0-8.5,4.3-12.2,6.7
					c-0.4,0.3-0.4,0.8,0.2,0.8c26,0,52,0,78,0c41.4,0,82.8,0,124.2,0c9.5,0,18.9,0,28.5,0c0.3,0,1.7-0.5,1-0.9
					c-3.5-2.2-7-4.3-10.5-6.5c-0.5-0.3-2,0.4-1.3,0.8c3.5,2.2,7,4.3,10.5,6.5c0.3-0.3,0.6-0.6,1-0.9c-25.2,0-50.4,0-75.6,0
					c-41,0-82,0-123.2,0c-6.7,0-13.2,0-19.9,0c-3.4,0-7.5-0.7-10.9,0c-0.3,0.1-0.7,0-1,0c-0.6,0.1-0.2,0.7,0.3,0.5
					c1.9-0.6,3.9-2.6,5.5-3.6c1-0.6,2.1-1.2,2.9-2c0.6-0.5,1.3-0.6,0.1-0.4c2.2-0.4,4.8,0,7.1,0c35.8,0,71.6,0,107.5,0
					c31.5,0,62.9,0.1,94.4,0c0.5,0,1.1,0,1.6,0C1071.7,216.1,1072.8,215.2,1071.7,215.2z"/>
			</g>
		</g>
	</g>
	<g>
		<g>
			<rect x="851.1" y="222.1" class="st0" width="230.8" height="133.6"/>
		</g>
		<g>
			<g>
				<path class="st0" d="M1082,221.5c-26,0-52,0-78,0c-41.4,0-82.9,0-124.3,0c-9.5,0-19,0-28.5,0c-0.3,0-0.9,0.3-0.9,0.7
					c0,39.1,0,78.1,0,117.2c0,5.5,0,10.9,0,16.4c0,0.4,0.4,0.6,0.8,0.6c26,0,52,0,78,0c41.4,0,82.9,0,124.3,0c9.5,0,19,0,28.5,0
					c0.3,0,0.9-0.3,0.9-0.7c0-39.1,0-78.1,0-117.2c0-5.5,0-10.9,0-16.4c0-0.9-1.7-0.6-1.7,0.1c0,24.3,0,48.7,0,73.1
					c0,15.4,0,30.7,0,46.1c0,4.1,0,8.2,0,12.5c0,0.6-0.1,1.4,0,2c-0.3-1.3,1.8-0.2-0.1-0.7c-2.3-0.5-5.2,0-7.5,0
					c-4.6,0-9.1,0-13.7,0c-13.9,0-27.9,0-41.7,0c-34.3,0-68.7,0-103,0c-13.8,0-27.7,0-41.5,0c-4.6,0-9.2,0-13.8,0
					c-2.4,0-5.3-0.5-7.6,0c-1.6,0.3-0.3-0.5-0.3,0.5c0-0.7,0-1.3,0-2c0-4,0-8.1,0-12.2c0-15.4,0-30.9,0-46.3c0-16.6,0-33.1,0-49.7
					c0-5.6,0-11.3,0-16.9c0-1.7,0-3.2,0-4.9c0-0.2,0.1-2.6-0.5-1.4c-0.4,0.8-0.3,0.1,0.7,0.3c0.9,0.2,2,0,2.9,0c3.7,0,7.5,0,11.1,0
					c12.6,0,25,0,37.6,0c34.2,0,68.3,0,102.5,0c23.9,0,47.9,0,71.8,0c1.3,0,2.6,0,3.7,0C1082.8,222.7,1083.1,221.5,1082,221.5z"/>
			</g>
		</g>
	</g>
	<g>
		<rect x="888.7" y="241.3" class="st0" width="155.7" height="13.3"/>
	</g>
	<g>
		<rect x="888.7" y="266.1" class="st0" width="155.7" height="13.3"/>
	</g>
	<g>
		<rect x="888.7" y="290.9" class="st0" width="155.7" height="13.3"/>
	</g>
	<g>
		<rect x="888.7" y="315.8" class="st0" width="155.7" height="13.3"/>
	</g>
	<g>
		<rect x="888.7" y="340.7" class="st1" width="155.7" height="13.3"/>
	</g>
	<g>
		<g>
			<rect x="990.9" y="203.2" class="st0" width="69.6" height="16.8"/>
		</g>
		<g>
			<g>
				<path class="st0" d="M1060.5,202.6c-23.2,0-46.4,0-69.6,0c-0.3,0-0.9,0.3-0.9,0.7c0,5.6,0,11.2,0,16.8c0,0.4,0.4,0.5,0.8,0.5
					c23.2,0,46.4,0,69.6,0c0.3,0,0.9-0.3,0.9-0.7c0-5.6,0-11.2,0-16.8c0-0.9-1.7-0.6-1.7,0.1c0,2.8,0,5.6,0,8.4c0,1.9,0,3.6,0,5.5
					c0,0.6-0.2,1.4,0,2c0.5,1.4-0.9,0.7,0.9,0.4c-3.3,0.5-7.2,0-10.5,0c-15.4,0-30.8,0-46.2,0c-3.9,0-8.7,0.8-12.6,0
					c0.4,0.1,0.2,0.8,0.6-0.3c0.4-1.2,0-3.4,0-4.7c0-2.1,0-4.1,0-6.2c0-1,0.5-3.7,0-4.5c-0.5-0.8,0.4-0.2-0.9,0c0.1,0,0.2,0,0.3,0
					c0.5,0.1,1.2,0,1.7,0c2.2,0,4.3,0,6.5,0c7.4,0,14.7,0,22.1,0c13,0,26,0,39,0C1061.3,203.9,1061.7,202.6,1060.5,202.6z"/>
			</g>
		</g>
	</g>
	<g>
		<g>
			<rect x="891.3" y="203.2" class="st0" width="51.3" height="16.8"/>
		</g>
		<g>
			<g>
				<path class="st0" d="M942.9,202.9c-17.1,0-34.2,0-51.3,0c-0.3,0-1.2,0.2-1.2,0.6c0,5.6,0,11.2,0,16.8c0,0.2,0.4,0.1,0.5,0.1
					c17.1,0,34.2,0,51.3,0c0.3,0,1.2-0.2,1.2-0.6c0-5.6,0-11.2,0-16.8c0-0.3-1.7-0.1-1.7,0.4c0,5.6,0,11.2,0,16.8
					c0.4-0.2,0.8-0.4,1.2-0.6c-12.5,0-24.9,0-37.4,0c-3.2,0-6.4,0-9.6,0c-0.7,0-3.7,0.5-4.3,0c0.7,0.6,0.4-1.8,0.4-2.2
					c0-1.9,0-3.8,0-5.7c0-2.9,0-5.9,0-8.8c-0.4,0.2-0.8,0.4-1.2,0.6c17.1,0,34.2,0,51.3,0C942.7,203.6,944.1,202.9,942.9,202.9z"/>
			</g>
		</g>
	</g>
	<g>
		<g>
			<rect x="540.4" y="123.8" class="st0" width="211.7" height="231.9"/>
		</g>
		<g>
			<g>
				<path class="st0" d="M540.1,124.3c25.8,0,51.6,0,77.4,0c38.6,0,77.1,0,115.7,0c4.9,0,9.8,0,14.7,0c1,0,2.4-0.3,3.3,0
					c1,0.3-0.1-0.6,0,0.1c0.5,2.5,0,5.7,0,8.2c0,5.9,0,11.7,0,17.6c0,39.3,0,78.6,0,117.9c0,18.6,0,37.3,0,56c0,6.6,0,13.2,0,19.8
					c0,3.3-0.6,7.4,0,10.7c0.1,0.5,0,1,0,1.5c0.4-0.2,0.8-0.4,1.2-0.7c-25.8,0-51.6,0-77.4,0c-38.6,0-77.1,0-115.7,0
					c-4.9,0-9.8,0-14.7,0c-1,0-2.4,0.3-3.3,0c-1-0.3,0.1,0.6,0-0.1c-0.5-2.5,0-5.7,0-8.2c0-5.9,0-11.7,0-17.6c0-39.3,0-78.6,0-117.9
					c0-18.6,0-37.3,0-56c0-6.6,0-13.2,0-19.8c0-3.5,0.3-7.2,0-10.7c0-0.5,0-1,0-1.5s-1.7-0.2-1.7,0.4c0,26.2,0,52.4,0,78.6
					c0,41.6,0,83.1,0,124.7c0,9.5,0,19.1,0,28.7c0,0.2,0.4,0.2,0.5,0.2c23.9,0,47.8,0,71.7,0c38,0,75.9,0,113.8,0
					c8.7,0,17.4,0,26.1,0c0.4,0,1.2-0.2,1.2-0.7c0-26.2,0-52.4,0-78.6c0-41.6,0-83.1,0-124.7c0-9.5,0-19.1,0-28.7
					c0-0.2-0.4-0.2-0.5-0.2c-23.9,0-47.8,0-71.7,0c-38,0-75.9,0-113.8,0c-8.7,0-17.4,0-26.1,0C540.2,123.4,539,124.3,540.1,124.3z"
					/>
			</g>
		</g>
	</g>
	<g>
		<g>
			<rect x="591.8" y="314.6" class="st0" width="14.7" height="41.1"/>
			<rect x="623.9" y="314.6" class="st0" width="14.7" height="41.1"/>
			<rect x="656.1" y="314.6" class="st0" width="14.7" height="41.1"/>
			<rect x="688.2" y="314.6" class="st0" width="14.7" height="41.1"/>
			<rect x="720.4" y="314.6" class="st0" width="14.7" height="41.1"/>
		</g>
	</g>
	<g>
		<rect x="778.5" y="204.5" class="st0" width="24.2" height="3.2"/>
	</g>
	<g>
		<rect x="778.5" y="196.6" class="st0" width="24.2" height="3.2"/>
	</g>
	<g>
		<rect x="778.5" y="212.3" class="st0" width="24.2" height="3.2"/>
	</g>
	<g>
		<rect x="778.5" y="220.2" class="st0" width="24.2" height="3.2"/>
	</g>
	<g>
		<rect x="778.5" y="228" class="st0" width="24.2" height="3.2"/>
	</g>
	<g>
		<rect x="778.5" y="235.9" class="st0" width="24.2" height="3.2"/>
	</g>
	<g>
		<rect x="778.5" y="243.7" class="st0" width="24.2" height="3.2"/>
	</g>
	<g>
		<rect x="778.5" y="251.6" class="st0" width="24.2" height="3.2"/>
	</g>
	<g>
		<rect x="778.5" y="259.4" class="st0" width="24.2" height="3.2"/>
	</g>
	<g>
		<rect x="778.5" y="267.3" class="st0" width="24.2" height="3.2"/>
	</g>
	<g>
		<rect x="778.5" y="275" class="st0" width="24.2" height="3.2"/>
	</g>
	<g>
		<rect x="778.5" y="282.9" class="st0" width="24.2" height="3.2"/>
	</g>
	<g>
		<rect x="778.5" y="290.7" class="st0" width="24.2" height="3.2"/>
	</g>
	<g>
		<rect x="778.5" y="298.6" class="st0" width="24.2" height="3.2"/>
	</g>
	<g>
		<rect x="778.5" y="306.4" class="st0" width="24.2" height="3.2"/>
	</g>
	<g>
		<rect x="778.5" y="314.3" class="st0" width="24.2" height="3.2"/>
	</g>
	<g>
		<rect x="778.5" y="322.1" class="st0" width="24.2" height="3.2"/>
	</g>
	<g>
		<rect x="778.5" y="330" class="st0" width="24.2" height="3.2"/>
	</g>
	<g>
		<rect x="778.5" y="337.8" class="st1" width="24.2" height="3.2"/>
	</g>
	<g>
		<rect x="778.5" y="345.7" class="st1" width="24.2" height="3.2"/>
	</g>
	<g>
		<g>
			<path class="st0" d="M546.2-206.3l-52.5-44.4v594.6c1.5,6.8,7.5,11.8,14.6,11.8h37.9V-206.3L546.2-206.3z"/>
		</g>
		<g>
			<g>
				<path class="st0" d="M546.8-206.8c-17.5-14.8-35-29.5-52.5-44.4c-0.4-0.3-1.5-0.1-1.5,0.6c0,6.2,0,12.5,0,18.6
					c0,16.8,0,33.5,0,50.2c0,24.4,0,48.9,0,73.4c0,29.3,0,58.7,0,87.9c0,31.5,0,63,0,94.5c0,30.5,0,61,0,91.6c0,26.9,0,53.8,0,80.6
					c0,20.4,0,40.7,0,61.1c0,11,0,22.1,0,33.1c0,4,0.4,6.8,3.2,10.3c4,4.8,9.6,5.6,15.5,5.6c7,0,13.9,0,20.9,0c4.5,0,9,0,13.5,0
					c0.3,0,0.9-0.3,0.9-0.7c0-18.6,0-37.3,0-55.8c0-44.7,0-89.5,0-134.2c0-54.2,0-108.2,0-162.4c0-46.8,0-93.6,0-140.4
					c0-15.5,0-31,0-46.4c0-4.7,0-9.4,0-14.1c0-2.5,0.4-5.2,0-7.7c0-0.3,0-0.7,0-1c0-0.9-1.7-0.7-1.7,0.1c0,5.7,0,11.4,0,17
					c0,15.4,0,30.8,0,46.2c0,22.5,0,44.9,0,67.3c0,27,0,54.1,0,81.1c0,29.1,0,58.4,0,87.5c0,28.6,0,57,0,85.6c0,25.4,0,50.9,0,76.3
					c0,19.9,0,39.8,0,59.8c0,11.7,0,23.4,0,35c0,1.7-0.6,4.4,0,6c0.1,0.2,1.2-0.2,0.4-0.5c-1.4-0.6-4.3,0-5.8,0c-7,0-13.8,0-20.8,0
					c-9.2,0-23.3,1-24.6-11.6c-0.2-2.2,0-4.5,0-6.7c0-11.7,0-23.4,0-35.1c0-19.6,0-39.2,0-58.8c0-25,0-50,0-75c0-28.3,0-56.4,0-84.7
					c0-29.3,0-58.6,0-87.9c0-27.9,0-55.6,0-83.5c0-24.2,0-48.5,0-72.7c0-18.4,0-36.9,0-55.3c0-10.2,0-20.3,0-30.5c0-1.3,0-2.6,0-3.9
					c-0.5,0.2-1,0.4-1.5,0.6c17.5,14.8,34.9,29.5,52.5,44.4C546.1-205.4,547.5-206.2,546.8-206.8z"/>
			</g>
		</g>
	</g>
	<g>
		<rect x="1254.6" y="-214.5" class="st0" width="4.1" height="338.4"/>
	</g>
	<g>
		<rect x="1246.6" y="-214.5" class="st0" width="4.1" height="338.4"/>
	</g>
	<g>
		<rect x="1262.4" y="-214.5" class="st0" width="4.3" height="338.4"/>
	</g>
	<g>
		<g>
			<polygon class="st0" points="1294.7,59.6 1337.6,47.7 1337.6,355.6 1294.7,355.6 			"/>
		</g>
		<g>
			<g>
				<path class="st0" d="M1294.9,60.1c14.3-3.9,28.6-7.9,42.9-11.9c-0.3-0.1-0.6-0.2-1-0.4c0,10.2,0,20.5,0,30.7
					c0,24.4,0,48.9,0,73.3c0,29.5,0,59.2,0,88.7c0,25.7,0,51.4,0,77.1c0,8.4,0,17,0,25.4c0,2.6,0,5.2,0,7.9c0,0.9-0.5,3.3,0,4.1
					c0.1,0.1,0,0.4,0,0.6c0.4-0.2,0.8-0.4,1.1-0.6c-12.4,0-24.6,0-37,0c-1.7,0-4.1,0.5-5.7,0c-0.3-0.1,0.4,0.8,0.3,0
					c-0.2-1.6,0-3.2,0-4.8c0-19.8,0-39.6,0-59.6c0-31.5,0-63,0-94.6c0-30,0-60.1,0-90c0-10.3,0-20.5,0-30.8c0-3.2,0-6.6,0-9.8
					c0-1.5,0.4-3.7,0-5.2c-0.1-0.2,0-0.5,0-0.7c0-0.7-1.7-0.4-1.7,0.2c0,9.8,0,19.5,0,29.3c0,23.7,0,47.3,0,70.9
					c0,28.5,0,56.9,0,85.4c0,24.6,0,49.2,0,73.8c0,8.1,0,16.3,0,24.4c0,2.6,0,5,0,7.6c0,1.1-0.4,2.9,0,4c0.1,0.1,0,0.4,0,0.5
					c0,0.3,0.3,0.4,0.5,0.4c14.3,0,28.6,0,42.9,0c0.3,0,1.1-0.2,1.1-0.6c0-10.2,0-20.5,0-30.7c0-24.4,0-48.9,0-73.3
					c0-29.5,0-59.2,0-88.7c0-25.7,0-51.4,0-77.1c0-8.4,0-17,0-25.4c0-2.6,0-5.2,0-7.9c0-1.2,0.4-3,0-4.1c-0.1-0.1,0-0.4,0-0.6
					c0-0.5-0.6-0.5-1-0.4c-14.3,3.9-28.6,7.9-42.9,11.9C1293.6,59.4,1293.8,60.3,1294.9,60.1z"/>
			</g>
		</g>
	</g>
	<g>
		<rect x="1270.6" y="-214.5" class="st0" width="4.2" height="338.4"/>
	</g>
	<g>
		<rect x="1277.9" y="-214.5" class="st0" width="4.2" height="338.4"/>
	</g>
	<g>
		<polygon class="st0" points="1235.1,188.4 1239.2,-119.2 1243.4,188.4 		"/>
	</g>
	<g>
		<polygon class="st0" points="1284.9,188.4 1289.2,-119.2 1293.3,188.4 		"/>
	</g>
	<g>
		<g>
			<polygon class="st0" points="1234.9,121.5 1277.8,117.6 1277.8,355.6 1234.9,355.6 			"/>
		</g>
		<g>
			<g>
				<path class="st0" d="M1234.8,122.1c10-1,20-1.9,30-2.8c4.1-0.4,8.4-1.3,12.6-1.2c0.7,0-0.4-0.9-0.4-0.1c0,0.5,0,1,0,1.6
					c0,14.7,0,29.3,0,44.1c0,50.9,0,101.9,0,152.8c0,13.1,0,26.2,0,39.3c0.4-0.2,0.8-0.4,1.1-0.6c-9.7,0-19.5,0-29.2,0
					c-4.3,0-8.8,0.4-13.2,0c-1-0.1,0.2,0.8,0,0.2c-0.1-0.4,0-1,0-1.3c0.6-4.9,0-10.2,0-15.1c0-9.2,0-18.4,0-27.7
					c0-50.1,0-100.3,0-150.4c0-13.1,0-26.1,0-39.2c0-0.8-1.7-0.5-1.7,0.2c0,26.4,0,52.8,0,79.2c0,42,0,84,0,126.1
					c0,9.5,0,19.1,0,28.7c0,0.3,0.3,0.4,0.5,0.4c14.3,0,28.6,0,42.9,0c0.3,0,1.1-0.2,1.1-0.6c0-26.8,0-53.6,0-80.4
					c0-42.7,0-85.5,0-128.2c0-9.8,0-19.6,0-29.4c0-0.4-0.4-0.5-0.7-0.4c-14.3,1.4-28.6,2.6-42.9,4
					C1234.1,121.1,1233.7,122.2,1234.8,122.1z"/>
			</g>
		</g>
	</g>
	<g>
		<g>
			<path class="st0" d="M1496.7,47.1h-159.2v70.5h-61.8v238h61.8h0.6h145.6c7.3-1.1,12.9-7.4,12.9-15L1496.7,47.1z"/>
		</g>
		<g>
			<g>
				<path class="st0" d="M1497.1,46.8c-18,0-35.9,0-53.9,0c-28.5,0-56.9,0-85.5,0c-6.6,0-13.2,0-19.8,0c-0.3,0-1.2,0.2-1.2,0.6
					c0,23.5,0,47,0,70.5c0.4-0.2,0.8-0.4,1.2-0.6c-20.6,0-41.2,0-61.8,0c-0.3,0-1.2,0.2-1.2,0.6c0,26.8,0,53.6,0,80.4
					c0,42.7,0,85.5,0,128.2c0,9.8,0,19.6,0,29.4c0,0.2,0.4,0.2,0.5,0.2c29,0,58.2,0,87.2,0c23.8,0,47.8,0,71.6,0
					c16,0,32.3,0.7,48.3,0c8.4-0.4,14.7-7.5,14.9-15.8c0.1-2.6,0-5.2,0-7.8c0-14.9,0-29.8,0-44.8c0-47.6,0-95.3,0-142.9
					c0-21,0-42.1,0-63.1c0-11,0.5-22.2,0-33.2c0-0.5,0-1,0-1.5c0-0.4-1.7-0.1-1.7,0.4c0,15.1,0,30.1,0,45.2c0,33.3,0,66.5,0,99.8
					c0,33.6,0,67.1,0,100.6c0,15.9,0.5,31.8,0,47.7c-0.3,7.5-5.7,14.5-13.5,14.5c-4,0-8,0-12.2,0c-15.3,0-30.6,0-45.9,0
					c-28.2,0-56.3,0-84.5,0c-8.8,0-17.8,0-26.6,0c-8.6,0-17.3,0-25.9,0c-2.8,0-5.7,0-8.5,0c-0.6,0-1.7,0.2-2.3,0
					c-0.9-0.3,0,0.2-0.1,0.1c-0.5-1,0-3.6,0-4.7c0-3.9,0-7.9,0-11.7c0-13,0-26,0-39c0-35.1,0-70.3,0-105.4c0-24.4,0-49,0-73.4
					c0-1.3,0-2.6,0-3.7c-0.4,0.2-0.8,0.4-1.2,0.6c20.6,0,41.2,0,61.8,0c0.3,0,1.2-0.2,1.2-0.6c0-23.5,0-47,0-70.5
					c-0.4,0.2-0.8,0.4-1.2,0.6c18,0,35.9,0,53.9,0c28.5,0,56.9,0,85.5,0c6.6,0,13.2,0,19.8,0C1496.9,47.5,1498.2,46.8,1497.1,46.8z"
					/>
			</g>
		</g>
	</g>
	<g>
		<g>
			<polygon class="st0" points="581.6,-141.1 554.9,-161.4 554.9,277.6 581.6,277.6 			"/>
		</g>
		<g>
			<g>
				<path class="st0" d="M582.4-141.4c-8.9-6.8-17.9-13.5-26.7-20.3c-0.3-0.3-1.6,0-1.6,0.5c0,14.6,0,29.1,0,43.8
					c0,35,0,70.1,0,105.1c0,42.2,0,84.4,0,126.6c0,36.5,0,72.9,0,109.4c0,12.1,0,24,0,36.1c0,3.7,0,7.5,0,11.3c0,1.6-0.6,4.4,0,5.9
					c0.1,0.2,0,0.6,0,0.8c0,0.2,0.4,0.2,0.5,0.2c8.9,0,17.9,0,26.7,0c0.3,0,1.2-0.2,1.2-0.6c0-13.9,0-27.9,0-41.8
					c0-33.3,0-66.5,0-99.9c0-40.4,0-80.8,0-121.2c0-34.7,0-69.6,0-104.3c0-11.5,0-23,0-34.4c0-3.6,0-7.2,0-10.8c0-1.5,0.5-4.2,0-5.6
					C582.4-140.8,582.4-141.1,582.4-141.4c0.1-0.3-1.6,0-1.6,0.5c0,13.9,0,27.9,0,41.8c0,33.3,0,66.5,0,99.9c0,40.4,0,80.8,0,121.2
					c0,34.7,0,69.6,0,104.3c0,11.5,0,23,0,34.4c0,3.6,0,7.2,0,10.8c0,1.4-0.6,4.3,0,5.6c0.1,0.2,0,0.5,0,0.7
					c0.4-0.2,0.8-0.4,1.2-0.6c-8.3,0-16.9-0.4-25.2,0c-1.2,0.1-1.3-0.3-1.1,0.2c-0.1-0.1,0-0.3,0-0.4c-0.2-0.6,0-1.4,0-2
					c0-7.8,0-15.6,0-23.4c0-33.4,0-66.7,0-100.2c0-44.5,0-88.9,0-133.4c0-39.8,0-79.8,0-119.6c0-13.3,0-26.6,0-39.9
					c0-4.2,0-8.4,0-12.6c0-1.8,0.6-4.8,0-6.6c-0.1-0.2,0-0.6,0-0.9c-0.5,0.2-1.1,0.4-1.6,0.5c8.9,6.8,17.9,13.5,26.7,20.3
					C581.2-140.5,582.7-141.2,582.4-141.4z"/>
			</g>
		</g>
	</g>
	<g>
		<g>
			<rect x="510.7" y="-161.4" class="st0" width="44.3" height="439"/>
		</g>
		<g>
			<g>
				<path class="st0" d="M555.5-161.7c-14.7,0-29.5,0-44.3,0c-0.3,0-1.4,0.1-1.4,0.5c0,14.6,0,29.1,0,43.8c0,35,0,70.1,0,105.1
					c0,42.2,0,84.4,0,126.6c0,36.5,0,72.9,0,109.4c0,12.1,0,24,0,36.1c0,3.7,0,7.5,0,11.3c0,1.6-0.6,4.4,0,5.9c0.1,0.2,0,0.6,0,0.8
					c0,0.1,0.3,0.1,0.3,0.1c14.7,0,29.5,0,44.3,0c0.3,0,1.4-0.1,1.4-0.5c0-14.6,0-29.1,0-43.8c0-35,0-70.1,0-105.1
					c0-42.2,0-84.4,0-126.6c0-36.5,0-72.9,0-109.4c0-12.1,0-24,0-36.1c0-3.7,0-7.5,0-11.3c0-1.6,0.6-4.4,0-5.9c-0.1-0.2,0-0.6,0-0.8
					c0-0.2-1.7,0-1.7,0.4c0,14.6,0,29.1,0,43.8c0,35,0,70.1,0,105.1c0,42.2,0,84.4,0,126.6c0,36.5,0,72.9,0,109.4
					c0,12.1,0,24,0,36.1c0,3.7,0,7.5,0,11.3c0,1.5-0.6,4.5,0,5.9c0.1,0.2,0,0.6,0,0.8c0.5-0.2,0.9-0.4,1.4-0.5c-8,0-16.2,0-24.2,0
					c-5.1,0-10.2,0-15.3,0c-1.1,0-3,0.4-4,0c-0.8-0.3-0.4,0.1-0.5,0c-0.5-0.9,0-3.7,0-4.7c0-3.8,0-7.6,0-11.4c0-31.8,0-63.6,0-95.4
					c0-45.6,0-91.3,0-137c0-42.1,0-84.1,0-126.2c0-14.3,0-28.6,0-42.9c0-4.4,0-8.9,0-13.3c0-2,0.6-5.2,0-7.1c-0.1-0.3,0-0.7,0-1
					c-0.5,0.2-0.9,0.4-1.4,0.5c14.7,0,29.5,0,44.3,0C554.7-161.1,556.2-161.7,555.5-161.7z"/>
			</g>
		</g>
	</g>
	<g>
		<g>
			<polygon class="st0" points="752.1,123.8 779,126.6 779,355.7 752.1,355.7 			"/>
		</g>
		<g>
			<g>
				<path class="st0" d="M751.8,124.4c4.1,0.4,8.1,0.9,12.3,1.3c4.6,0.5,9.7,0.4,14.2,1.5c1,0.2-0.2-0.7,0-0.2c0.1,0.3,0,1,0,1.3
					c-0.2,1.7,0,3.4,0,5.1c0,16.2,0,32.5,0,48.7c0,46.4,0,92.8,0,139.2c0,11.6,0,23.2,0,34.7c0.4-0.2,0.8-0.4,1.1-0.6
					c-4.2,0-8.4,0-12.7,0c-2.8,0-5.6,0-8.4,0c-1.8,0-3.9,0.4-5.6,0c-0.6-0.1,0.4,0.9,0.2,0.1c-0.1-0.4,0-1,0-1.4
					c0.2-1.8,0-3.6,0-5.4c0-16.4,0-32.8,0-49.1c0-46.9,0-93.8,0-140.7c0-11.7,0-23.4,0-34.9c0-0.8-1.7-0.5-1.7,0.2
					c0,26.2,0,52.4,0,78.5c0,41.5,0,83.1,0,124.6c0,9.5,0,19.1,0,28.7c0,0.3,0.3,0.5,0.5,0.5c8.9,0,18,0,26.9,0
					c0.3,0,1.1-0.2,1.1-0.6c0-25.8,0-51.7,0-77.5c0-41.1,0-82.3,0-123.5c0-9.3,0-18.7,0-28.1c0-0.3-0.3-0.4-0.5-0.5
					c-8.9-0.9-18-1.9-26.9-2.7C751.6,123.2,750.6,124.3,751.8,124.4z"/>
			</g>
		</g>
	</g>
	<g>
		<g>
			<polygon class="st0" points="942.6,199.9 895.2,199.9 891.3,203.2 942.6,203.2 			"/>
		</g>
		<g>
			<g>
				<path class="st0" d="M942.7,199.4c-9.7,0-19.4,0-29,0c-5.2,0-10.5,0-15.7,0c-3.4,0-4.3,1.2-7.2,3.5c-0.6,0.5-0.2,1,0.5,1
					c17.1,0,34.2,0,51.3,0c0.3,0,0.9-0.3,0.9-0.7c0-1.1,0-2.2,0-3.3c0-0.9-1.7-0.6-1.7,0.1c0,1.2-0.7,3.4,0.9,2.6
					c-0.2,0.1-0.7,0-0.8,0c-1.5-0.3-3.3,0-4.8,0c-6,0-12,0-18,0c-9.2,0-18.5,0-27.8,0c0.2,0.3,0.3,0.6,0.5,1
					c0.9-0.7,1.8-1.4,2.6-2.2c0.7-0.6,1.5-1.1,1-1c1-0.3,2.5,0,3.5,0c5.4,0,10.9,0,16.3,0c9.1,0,18.3,0,27.5,0
					C943.5,200.5,943.8,199.4,942.7,199.4z"/>
			</g>
		</g>
	</g>
	<g>
		<g>
			<polygon class="st0" points="1054.5,199.9 990.9,199.9 990.9,203.2 1060.5,203.2 			"/>
		</g>
		<g>
			<g>
				<path class="st0" d="M1054.9,199.6c-21.2,0-42.4,0-63.7,0c-0.4,0-1.2,0.2-1.2,0.6c0,1.1,0,2.2,0,3.3c0,0.2,0.4,0.2,0.5,0.2
					c23.2,0,46.4,0,69.6,0c0.2,0,1.7-0.4,1-0.8c-2-1.1-3.9-2.2-5.9-3.3c-0.4-0.2-2,0.4-1.3,0.7c2,1.1,3.9,2.2,5.9,3.3
					c0.3-0.3,0.7-0.5,1-0.8c-21,0-42,0-63,0c-1.8,0-3.6,0.2-5.4,0c-0.2,0-0.9,0.1-1.1,0c0.5,0.4,0.4-2.6,0.4-3.1
					c-0.4,0.2-0.8,0.4-1.2,0.6c21.2,0,42.4,0,63.7,0C1054.8,200.3,1056,199.6,1054.9,199.6z"/>
			</g>
		</g>
	</g>
	<g>
		<rect x="510.7" y="-99.5" class="st0" width="44.3" height="3.6"/>
	</g>
	<g>
		<rect x="510.7" y="-131" class="st0" width="44.3" height="3.6"/>
	</g>
	<g>
		<rect x="510.7" y="-68" class="st0" width="44.3" height="3.6"/>
	</g>
	<g>
		<rect x="510.7" y="-36.5" class="st0" width="44.3" height="3.6"/>
	</g>
	<g>
		<rect x="510.7" y="-5.1" class="st0" width="44.3" height="3.6"/>
	</g>
	<g>
		<rect x="510.7" y="26.4" class="st0" width="44.3" height="3.6"/>
	</g>
	<g>
		<rect x="510.7" y="57.9" class="st0" width="44.3" height="3.6"/>
	</g>
	<g>
		<rect x="510.7" y="89.4" class="st0" width="44.3" height="3.6"/>
	</g>
	<g>
		<rect x="510.7" y="120.9" class="st0" width="44.3" height="3.6"/>
	</g>
	<g>
		<rect x="510.7" y="152.4" class="st0" width="44.3" height="3.6"/>
	</g>
	<g>
		<rect x="510.7" y="183.9" class="st0" width="44.3" height="3.6"/>
	</g>
	<g>
		<g>
			<g>
				<rect x="1368.2" y="151.2" class="st0" width="12.6" height="19.1"/>
			</g>
			<g>
				<rect x="1408.9" y="151.2" class="st0" width="12.6" height="19.1"/>
			</g>
			<g>
				<rect x="1388.5" y="151.2" class="st0" width="12.6" height="19.1"/>
			</g>
			<g>
				<rect x="1347.8" y="222.3" class="st0" width="12.6" height="19.1"/>
			</g>
			<g>
				<rect x="1307.1" y="222.3" class="st0" width="12.6" height="19.1"/>
			</g>
			<g>
				<rect x="1327.4" y="222.3" class="st0" width="12.6" height="19.1"/>
			</g>
			<g>
				<rect x="1307.1" y="198.6" class="st0" width="12.6" height="19.1"/>
			</g>
			<g>
				<rect x="1347.8" y="151.2" class="st0" width="12.6" height="19.1"/>
			</g>
			<g>
				<rect x="1307.1" y="174.9" class="st0" width="12.6" height="19.1"/>
			</g>
			<g>
				<rect x="1327.4" y="151.2" class="st0" width="12.6" height="19.1"/>
			</g>
			<g>
				<rect x="1307.1" y="151.2" class="st0" width="12.6" height="19.1"/>
			</g>
			<g>
				<rect x="1388.5" y="174.9" class="st0" width="12.6" height="19.1"/>
			</g>
			<g>
				<rect x="1408.9" y="174.9" class="st0" width="12.6" height="19.1"/>
			</g>
			<g>
				<rect x="1327.4" y="174.9" class="st0" width="12.6" height="19.1"/>
			</g>
			<g>
				<rect x="1347.8" y="174.9" class="st0" width="12.6" height="19.1"/>
			</g>
			<g>
				<rect x="1368.2" y="174.9" class="st0" width="12.6" height="19.1"/>
			</g>
			<g>
				<rect x="1408.9" y="198.6" class="st0" width="12.6" height="19.1"/>
			</g>
			<g>
				<rect x="1327.4" y="198.6" class="st0" width="12.6" height="19.1"/>
			</g>
			<g>
				<rect x="1347.8" y="198.6" class="st0" width="12.6" height="19.1"/>
			</g>
			<g>
				<rect x="1368.2" y="198.6" class="st0" width="12.6" height="19.1"/>
			</g>
			<g>
				<rect x="1388.5" y="198.6" class="st0" width="12.6" height="19.1"/>
			</g>
			<g>
				<rect x="1286.8" y="222.3" class="st0" width="12.6" height="19.1"/>
			</g>
			<g>
				<rect x="1286.8" y="174.9" class="st0" width="12.6" height="19.1"/>
			</g>
			<g>
				<rect x="1286.8" y="198.6" class="st0" width="12.6" height="19.1"/>
			</g>
			<g>
				<rect x="1286.8" y="151.2" class="st0" width="12.6" height="19.1"/>
			</g>
			<g>
				<rect x="1368.2" y="222.3" class="st0" width="12.6" height="19.1"/>
			</g>
			<g>
				<rect x="1286.8" y="127.5" class="st0" width="12.6" height="19.1"/>
			</g>
			<g>
				<rect x="1388.5" y="222.3" class="st0" width="12.6" height="19.1"/>
			</g>
			<g>
				<rect x="1408.9" y="222.3" class="st0" width="12.6" height="19.1"/>
			</g>
			<g>
				<rect x="1347.8" y="127.5" class="st0" width="12.6" height="19.1"/>
			</g>
			<g>
				<rect x="1327.4" y="127.5" class="st0" width="12.6" height="19.1"/>
			</g>
			<g>
				<rect x="1408.9" y="127.5" class="st0" width="12.6" height="19.1"/>
			</g>
			<g>
				<rect x="1388.5" y="127.5" class="st0" width="12.6" height="19.1"/>
			</g>
			<g>
				<rect x="1307.1" y="127.5" class="st0" width="12.6" height="19.1"/>
			</g>
		</g>
		<g>
			<rect x="1368.2" y="104" class="st0" width="12.6" height="19.1"/>
		</g>
		<g>
			<rect x="1388.5" y="104" class="st0" width="12.6" height="19.1"/>
		</g>
		<g>
			<rect x="1368.2" y="80.2" class="st0" width="12.6" height="19.1"/>
		</g>
		<g>
			<rect x="1368.2" y="56.5" class="st0" width="12.6" height="19.1"/>
		</g>
		<g>
			<rect x="1388.5" y="56.5" class="st0" width="12.6" height="19.1"/>
		</g>
		<g>
			<rect x="1388.5" y="80.2" class="st0" width="12.6" height="19.1"/>
		</g>
		<g>
			<rect x="1347.8" y="104" class="st0" width="12.6" height="19.1"/>
		</g>
		<g>
			<rect x="1347.8" y="56.5" class="st0" width="12.6" height="19.1"/>
		</g>
		<g>
			<rect x="1347.8" y="80.2" class="st0" width="12.6" height="19.1"/>
		</g>
	</g>
	<g>
		<polygon class="st0" points="581.6,-80.1 555.2,-95.8 555.2,-99.5 581.6,-83.8 		"/>
	</g>
	<g>
		<polygon class="st0" points="581.6,-109.7 555.2,-127.3 555.2,-131 581.6,-113.3 		"/>
	</g>
	<g>
		<g>
			<polygon class="st0" points="1463.2,13.3 1426.5,22.8 1388.2,72.8 1388.2,327.5 1461.5,327.5 			"/>
		</g>
		<g>
			<g>
				<path class="st0" d="M1463.1,12.9c-5.3,1.4-10.6,2.7-15.9,4.1c-6.6,1.7-13.7,2.8-20.1,5.2c-2.4,0.9-3.5,3.4-5,5.4
					c-4.6,6.1-9.3,12.1-13.9,18.2c-4.9,6.4-9.8,12.8-14.7,19.1c-1.7,2.3-5.2,5.3-6.1,8c-0.3,1.1,0,2.6,0,3.7c0,3.3,0,6.6,0,9.9
					c0,27.2,0,54.4,0,81.6c0,33.9,0,67.7,0,101.6c0,12.7,0,25.2,0,37.9c0,4.2,0,8.3,0,12.6c0,2-0.5,4.7,0,6.7c0.1,0.3,0,0.6,0,0.9
					c0,0.2,0.4,0.2,0.5,0.2c21.4,0,42.8,0,64.1,0c3,0,6.1,0,9.2,0c0.4,0,1.2-0.2,1.2-0.7c0.1-10.4,0.1-20.8,0.2-31.2
					c0.1-24.9,0.3-50,0.4-74.9c0.2-30.2,0.3-60.5,0.5-90.7c0.1-26.3,0.3-52.5,0.4-78.8c0-8.6,0.1-17.3,0.1-25.8c0-2.6,0-5.3,0-7.9
					c0-1.1,0.5-3.3,0-4.3c-0.1-0.1,0-0.4,0-0.6c0-0.5-1.7-0.2-1.7,0.4c-0.1,10.4-0.1,20.8-0.2,31.2c-0.1,24.9-0.3,50-0.4,74.9
					c-0.2,30.2-0.3,60.5-0.5,90.7c-0.1,26.3-0.3,52.5-0.4,78.8c0,8.6-0.1,17.3-0.1,25.8c0,2.6,0,5.3,0,7.9c0,0.9-0.5,3.5,0,4.3
					c0.1,0.1,0,0.4,0,0.6c0.4-0.2,0.8-0.4,1.2-0.7c-14.7,0-29.4,0-44.2,0c-8.2,0-16.5,0-24.7,0c-0.7,0-3.7,0.5-4.4,0
					c0.8,0.7,0.4-0.7,0.5-1.1c0.5-2.9,0-6.4,0-9.4c0-5.7,0-11.4,0-17.1c0-16.9,0-33.7,0-50.5c0-40.2,0-80.4,0-120.6
					c0-14.1,0-28.3,0-42.4c0-3.6,0-7.4,0-11c0-2.4-0.2-2.1,1.2-3.8c10.7-13.9,21.4-27.9,32-41.7c1.6-2,3.1-4,4.6-6
					c0.7-0.9-0.1-0.2,0-0.2c0.9-0.4,2.1-0.6,3-0.8c9-2.4,18.1-4.7,27.1-7.1c2.2-0.6,4.2-1.1,6.4-1.7
					C1464.2,13.5,1464,12.7,1463.1,12.9z"/>
			</g>
		</g>
	</g>
	<g>
		<polygon class="st0" points="581.6,-50.6 555.2,-64.3 555.2,-68 581.6,-54.2 		"/>
	</g>
	<g>
		<polygon class="st0" points="581.6,-21.1 555.2,-32.9 555.2,-36.5 581.6,-24.6 		"/>
	</g>
	<g>
		<polygon class="st0" points="581.6,8.3 555.2,-1.4 555.2,-5.1 581.6,4.7 		"/>
	</g>
	<g>
		<polygon class="st0" points="581.6,37.4 555.2,30.1 555.2,26.4 581.6,33.8 		"/>
	</g>
	<g>
		<g>
			<polygon class="st0" points="1496.7,13.3 1463.2,13.3 1424.4,66.3 1424.4,327.5 1496.7,327.5 			"/>
		</g>
		<g>
			<g>
				<path class="st0" d="M1496.8,12.8c-6.2,0-12.4,0-18.4,0c-3.8,0-7.6,0-11.4,0c-1.3,0-3.3-0.4-4.4,0.3c-0.7,0.5-1.4,1.8-1.9,2.5
					c-1.7,2.3-3.3,4.5-5,6.8c-4.9,6.7-9.8,13.3-14.6,20c-4.5,6.2-9,12.3-13.5,18.4c-1.2,1.7-3.5,3.8-4,5.8c-0.4,1.4,0,3.4,0,4.9
					c0,3.6,0,7.3,0,10.9c0,28.2,0,56.3,0,84.6c0,34.2,0,68.3,0,102.6c0,12.8,0,25.4,0,38.2c0,4.2,0,8.4,0,12.6c0,2-0.5,4.6,0,6.6
					c0.1,0.3,0,0.6,0,0.9c0,0.4,0.4,0.5,0.8,0.5c21.1,0,42.2,0,63.3,0c3,0,6,0,9,0c0.3,0,0.9-0.3,0.9-0.6c0-10.4,0-20.8,0-31.2
					c0-24.9,0-50,0-74.9c0-30.2,0-60.5,0-90.7c0-26.3,0-52.5,0-78.8c0-8.6,0-17.3,0-25.8c0-2.6,0-5.3,0-7.9c0-1.2,0.4-3.1,0-4.3
					c-0.1-0.1,0-0.4,0-0.6c0-0.8-1.7-0.5-1.7,0.1c0,14.2,0,28.6,0,42.8c0,32.4,0,64.8,0,97.1c0,34.8,0,69.7,0,104.5
					c0,21.7,0,43.4,0,65.1c0,1.3-0.4,3.3,0,4.6c0,0,1.5,0,0-0.4c-1.7-0.5-4.2,0-6,0c-16.3,0-32.7,0-49,0c-3.4,0-6.8,0-10.2,0
					c-1.7,0-3.9-0.4-5.6,0c-1.1,0.3,0,0.7,0,0.1c0-0.7,0-1.4,0-2c0-7.9,0-15.8,0-23.7c0-31.3,0-62.7,0-94c0-33.6,0-67.2,0-100.8
					c0-10.5,0-21.1,0-31.6c0-2.6,0-5,0-7.6c0-1.7,0.2-1.5,1.6-3.3c9.3-12.7,18.5-25.3,27.9-38.1c2.9-4,5.7-8.4,8.9-12.3
					c0.6-0.7-1.1,0.2-0.1,0.1c1-0.1,2.1,0,3,0c4,0,8,0,12.1,0c6,0,12.1,0,18.1,0C1497.6,13.9,1497.9,12.8,1496.8,12.8z"/>
			</g>
		</g>
	</g>
	<g>
		<polygon class="st0" points="581.6,67.5 555.2,61.6 555.2,57.9 581.6,63.8 		"/>
	</g>
	<g>
		<polygon class="st0" points="581.6,96.4 555.2,93.1 555.2,89.4 581.6,92.8 		"/>
	</g>
	<g>
		<polygon class="st0" points="581.6,126.2 555.2,124.6 555.2,120.9 581.6,122.6 		"/>
	</g>
	<g>
		<polygon class="st0" points="581.6,155.2 555.2,156 555.2,152.4 581.6,151.6 		"/>
	</g>
	<g>
		<polygon class="st0" points="581.6,184.9 555.2,187.5 555.2,183.9 581.6,181.4 		"/>
	</g>
	<g>
		<polygon class="st0" points="581.6,214.5 555.2,218.7 555.2,215.1 581.6,210.8 		"/>
	</g>
	<g>
		<g>
			<g>
				<polygon class="st0" points="934,323.2 952.2,329.2 934,335.1 				"/>
			</g>
			<g>
				<rect x="931.6" y="323.2" class="st0" width="1.3" height="32.4"/>
			</g>
		</g>
		<g>
			<g>
				<polygon class="st0" points="966,323.2 984.3,329.2 966,335.1 				"/>
			</g>
			<g>
				<rect x="963.6" y="323.2" class="st0" width="1.3" height="32.4"/>
			</g>
		</g>
		<g>
			<g>
				<polygon class="st0" points="998,323.2 1016.2,329.2 998,335.1 				"/>
			</g>
			<g>
				<rect x="995.6" y="323.2" class="st0" width="1.3" height="32.4"/>
			</g>
		</g>
	</g>
	<g>
		<rect x="1463.3" y="72.8" class="st0" width="32.6" height="5.3"/>
		<rect x="1463.3" y="91.1" class="st0" width="32.6" height="5.3"/>
		<rect x="1463.3" y="109.5" class="st0" width="32.6" height="5.3"/>
		<rect x="1463.3" y="127.8" class="st0" width="32.6" height="5.3"/>
		<rect x="1463.3" y="146.2" class="st0" width="32.6" height="5.3"/>
		<rect x="1463.3" y="164.5" class="st0" width="32.6" height="5.3"/>
		<rect x="1463.3" y="182.9" class="st0" width="32.6" height="5.3"/>
	</g>
	<g>
		<g>
			<path class="st0" d="M1388.4,76c12.1-3,24-6.1,36.1-9.1c1-0.3,0.7-1.3-0.3-1.1c-12.1,3-24,6.1-36.1,9.1
				C1387.1,75.2,1387.4,76.2,1388.4,76L1388.4,76z"/>
		</g>
	</g>
</g>
<g>
	<g>
		<g>
			<path class="st2" d="M704.9,202.8c0-4.5,0-22,0-22.3c0-22-17.9-39.9-39.9-39.9c-22,0-39.9,17.9-39.9,39.9c0,0.4,0,17.9,0,22.3
				H704.9z"/>
		</g>
		<g>
			<g>
				<g>
					<line class="st3" x1="649.8" y1="171.2" x2="649.8" y2="176.4"/>
				</g>
				<g>
					<path class="st4" d="M649.8,177.5c-0.6,0-1.1-0.5-1.1-1.1v-5.2c0-0.6,0.5-1.1,1.1-1.1s1.1,0.5,1.1,1.1v5.2
						C650.9,177.1,650.4,177.5,649.8,177.5z"/>
				</g>
			</g>
			<g>
				<g>
					<line class="st3" x1="687.4" y1="171.2" x2="687.4" y2="176.4"/>
				</g>
				<g>
					<path class="st4" d="M687.4,177.5c-0.6,0-1.1-0.5-1.1-1.1v-5.2c0-0.6,0.5-1.1,1.1-1.1c0.6,0,1.1,0.5,1.1,1.1v5.2
						C688.5,177.1,688,177.5,687.4,177.5z"/>
				</g>
			</g>
		</g>
		<g>
			<g>
				<path class="st3" d="M690.5,182.1c0.6,0,1.1,0.2,1.4,0.5c0.4,0.3,0.6,0.7,0.5,1.2c-1.1,9.6-11.3,17.1-23.9,17.1
					c-12.5,0-22.8-7.5-23.9-17.1c0-0.4,0.1-0.9,0.5-1.2c0.4-0.3,0.9-0.5,1.4-0.5H690.5z"/>
			</g>
			<g>
				<path class="st4" d="M668.6,201.9c-6.2,0-12.2-1.8-16.8-5.2c-4.6-3.3-7.5-7.9-8-12.9c-0.1-0.8,0.2-1.5,0.8-2
					c0.6-0.5,1.3-0.7,2.1-0.7h43.8c0.8,0,1.5,0.3,2.1,0.7c0.6,0.5,0.9,1.3,0.8,2c-0.6,4.9-3.4,9.5-8,12.9
					C680.8,200.1,674.8,201.9,668.6,201.9z M646.7,183.1c-0.3,0-0.6,0.1-0.8,0.3c-0.1,0-0.2,0.2-0.2,0.3c0.5,4.4,3.1,8.5,7.2,11.5
					c4.3,3.1,9.8,4.8,15.6,4.8c5.8,0,11.4-1.7,15.6-4.8c4.2-3,6.7-7.1,7.2-11.5c0-0.1-0.1-0.3-0.2-0.3c-0.2-0.2-0.5-0.3-0.8-0.3
					H646.7z"/>
			</g>
		</g>
		<g>
			<g>
				<g>
					<line class="st3" x1="652" y1="182.1" x2="652" y2="195.5"/>
				</g>
				<g>
					<rect x="651.1" y="182.1" class="st4" width="1.8" height="13.4"/>
				</g>
			</g>
			<g>
				<g>
					<line class="st3" x1="663.1" y1="182.1" x2="663.1" y2="200.5"/>
				</g>
				<g>
					<rect x="662.2" y="182.1" class="st4" width="1.8" height="18.3"/>
				</g>
			</g>
			<g>
				<g>
					<line class="st3" x1="674.1" y1="182.1" x2="674.1" y2="199.8"/>
				</g>
				<g>
					<rect x="673.3" y="182.1" class="st4" width="1.8" height="17.7"/>
				</g>
			</g>
			<g>
				<g>
					<line class="st3" x1="685.2" y1="182.1" x2="685.2" y2="195.5"/>
				</g>
				<g>
					<rect x="684.3" y="182.1" class="st4" width="1.8" height="13.4"/>
				</g>
			</g>
		</g>
		<g>
			<path class="st4" d="M685.2,194.3v-11.8h-11.1v17.9C678.4,199.3,682.2,197.2,685.2,194.3z"/>
		</g>
		<g>
			<g>
				
					<rect x="645.1" y="152.1" transform="matrix(0.7071 0.7071 -0.7071 0.7071 302.6845 -411.5931)" class="st3" width="6.3" height="15.1"/>
			</g>
			<g>
				<path class="st4" d="M645.1,168.4l-5.7-5.7l11.9-11.9l5.7,5.7L645.1,168.4z M641.9,162.7l3.2,3.2l9.4-9.4l-3.2-3.2L641.9,162.7z
					"/>
			</g>
		</g>
		<g>
			<g>
				
					<rect x="645.1" y="152.1" transform="matrix(-0.7071 0.7071 -0.7071 -0.7071 1219.4358 -185.8969)" class="st3" width="6.3" height="15.1"/>
			</g>
			<g>
				<path class="st4" d="M651.3,168.4l-11.9-11.9l5.7-5.7l11.9,11.9L651.3,168.4z M641.9,156.5l9.4,9.4l3.2-3.2l-9.4-9.4
					L641.9,156.5z"/>
			</g>
		</g>
		<g>
			<g>
				<path class="st4" d="M709.6,202.8l-2.2-0.1c0-0.6,0-22.4,0-23.3c0-10.4-4-20.1-11.4-27.4c-7.3-7.3-17.1-11.4-27.4-11.4
					c-10.4,0-20.1,4-27.4,11.4c-7.3,7.3-11.4,17.1-11.4,27.4c0,1,0,22.8,0,23.3l-2.2,0.1c0-0.5,0-23.2,0-23.4c0-11,4.3-21.3,12-29
					c7.7-7.7,18-12,29-12c11,0,21.3,4.3,29,12c7.7,7.7,12,18,12,29C709.6,179.6,709.6,202.3,709.6,202.8z"/>
			</g>
		</g>
	</g>
	<g>
		<path class="st5" d="M629.6,211.1l2.2,3.2c0,0.1,0.1,0.1,0.1,0.2c0,0.2-0.2,0.4-0.4,0.4c-0.1,0-0.2-0.1-0.3-0.2l-2.1-3.1l-1.2,1
			v1.9c0,0.2-0.2,0.3-0.4,0.3c-0.2,0-0.4-0.2-0.4-0.3v-9c0-0.2,0.2-0.3,0.4-0.3c0.2,0,0.4,0.1,0.4,0.3v6.1l3.1-2.7
			c0.1,0,0.1-0.1,0.2-0.1c0.2,0,0.4,0.2,0.4,0.4c0,0.1,0,0.2-0.1,0.2L629.6,211.1z"/>
		<path class="st5" d="M633.7,206.6c0,0.3-0.2,0.5-0.5,0.5c-0.3,0-0.6-0.3-0.6-0.5s0.3-0.5,0.6-0.5
			C633.5,206.1,633.7,206.3,633.7,206.6z M633.6,209.2v5.3c0,0.2-0.2,0.3-0.4,0.3s-0.4-0.2-0.4-0.3v-5.3c0-0.2,0.2-0.3,0.4-0.3
			S633.6,209,633.6,209.2z"/>
		<path class="st5" d="M635,212.5v-1.3c0-1.3,0.8-2.4,2.4-2.4c1.1,0,1.8,0.5,1.8,0.8c0,0.2-0.2,0.4-0.4,0.4c-0.2,0-0.5-0.5-1.4-0.5
			c-1.1,0-1.6,0.6-1.6,1.6v1.3c0,1,0.6,1.6,1.7,1.6c1,0,1.2-0.5,1.4-0.5c0.2,0,0.4,0.2,0.4,0.4c0,0.3-0.7,0.8-1.8,0.8
			C635.7,214.9,635,213.9,635,212.5z"/>
		<path class="st5" d="M642.9,211.1l2.2,3.2c0,0.1,0.1,0.1,0.1,0.2c0,0.2-0.2,0.4-0.4,0.4c-0.1,0-0.2-0.1-0.3-0.2l-2.1-3.1l-1.2,1
			v1.9c0,0.2-0.2,0.3-0.4,0.3c-0.2,0-0.4-0.2-0.4-0.3v-9c0-0.2,0.2-0.3,0.4-0.3c0.2,0,0.4,0.1,0.4,0.3v6.1l3.1-2.7
			c0.1,0,0.1-0.1,0.2-0.1c0.2,0,0.4,0.2,0.4,0.4c0,0.1,0,0.2-0.1,0.2L642.9,211.1z"/>
		<path class="st5" d="M646.9,209.2v0.6c0.3-0.5,0.9-1,1.7-1c1.2,0,2.3,1.1,2.3,2.4v1.4c0,1.2-1,2.4-2.2,2.4c-0.8,0-1.4-0.5-1.7-1
			v3.5c0,0.2-0.2,0.3-0.4,0.3c-0.2,0-0.4-0.2-0.4-0.3v-8.3c0-0.2,0.2-0.3,0.4-0.3C646.7,208.9,646.9,209,646.9,209.2z M650,211.1
			c0-0.8-0.7-1.6-1.6-1.6c-0.8,0-1.5,0.6-1.5,1.6v1.8c0,0.4,0.7,1.2,1.5,1.2c0.8,0,1.6-0.8,1.6-1.6V211.1z"/>
		<path class="st5" d="M652.1,212.5v-3.4c0-0.2,0.2-0.3,0.4-0.3c0.2,0,0.4,0.2,0.4,0.3v3.4c0,0.8,0.7,1.6,1.6,1.6
			c0.9,0,1.6-0.8,1.6-1.6v-3.4c0-0.2,0.2-0.3,0.4-0.3s0.4,0.1,0.4,0.3v3.4c0,1.3-1.1,2.4-2.4,2.4
			C653.2,214.9,652.1,213.8,652.1,212.5z"/>
		<path class="st5" d="M659.3,214.5c0,0.2-0.2,0.3-0.4,0.3c-0.2,0-0.4-0.2-0.4-0.3v-5.3c0-0.2,0.2-0.3,0.4-0.3
			c0.2,0,0.4,0.1,0.4,0.3v0.6c0.3-0.5,0.8-1,1.7-1c1.2,0,2.2,1.1,2.2,2.4v3.3c0,0.2-0.2,0.3-0.4,0.3c-0.2,0-0.4-0.1-0.4-0.3v-3.3
			c0-0.8-0.7-1.6-1.6-1.6c-0.7,0-1.5,0.6-1.5,1.6V214.5z"/>
		<path class="st5" d="M664.5,212.5v-1.3c0-1.3,0.8-2.4,2.4-2.4c1.1,0,1.8,0.5,1.8,0.8c0,0.2-0.2,0.4-0.4,0.4
			c-0.2,0-0.5-0.5-1.4-0.5c-1.1,0-1.6,0.6-1.6,1.6v1.3c0,1,0.6,1.6,1.7,1.6c1,0,1.2-0.5,1.4-0.5c0.2,0,0.4,0.2,0.4,0.4
			c0,0.3-0.7,0.8-1.8,0.8C665.2,214.9,664.5,213.9,664.5,212.5z"/>
		<path class="st5" d="M670.7,214.5c0,0.2-0.2,0.3-0.4,0.3s-0.4-0.2-0.4-0.3v-9c0-0.2,0.2-0.3,0.4-0.3s0.4,0.1,0.4,0.3v4.2
			c0.3-0.5,0.8-1,1.7-1c1.2,0,2.2,1.1,2.2,2.4v3.3c0,0.2-0.2,0.3-0.4,0.3c-0.2,0-0.4-0.1-0.4-0.3v-3.3c0-0.8-0.7-1.6-1.6-1.6
			c-0.7,0-1.5,0.6-1.5,1.6V214.5z"/>
		<path class="st5" d="M676,212.6v-1.5c0-1.3,0.7-2.3,2.3-2.3c1,0,1.6,0.5,1.6,0.7c0,0.1-0.1,0.2-0.2,0.2c-0.2,0-0.4-0.5-1.4-0.5
			c-1.2,0-1.9,0.7-1.9,1.9v1.5c0,1.1,0.6,1.9,1.9,1.9c1.1,0,1.3-0.5,1.5-0.5c0.1,0,0.2,0.1,0.2,0.2c0,0.3-0.7,0.7-1.7,0.7
			C676.7,214.9,676,213.9,676,212.6z"/>
		<path class="st5" d="M683.4,209.2c-0.9,0-1.8,0.7-1.8,1.8v3.5c0,0.1-0.1,0.2-0.2,0.2s-0.2-0.1-0.2-0.2v-5.5c0-0.1,0.1-0.2,0.2-0.2
			s0.2,0.1,0.2,0.2v0.7c0.3-0.5,0.9-1,1.8-1h0.5c0.1,0,0.2,0.1,0.2,0.2c0,0.1-0.1,0.2-0.2,0.2H683.4z"/>
		<path class="st5" d="M689,211.1c0,0.9-0.5,0.9-1,0.9h-3v0.6c0,1.1,0.9,1.9,2.1,1.9c1.1,0,1.2-0.5,1.5-0.5c0.1,0,0.2,0.1,0.2,0.2
			c0,0.2-0.7,0.7-1.7,0.7c-1.5,0-2.5-0.9-2.5-2.3V211c0-1.2,1-2.2,2.2-2.2C688,208.8,689,209.8,689,211.1z M687.8,211.6
			c0.6,0,0.8-0.1,0.8-0.5c0-0.9-0.7-1.9-1.8-1.9c-1,0-1.8,0.8-1.8,1.8v0.5H687.8z"/>
		<path class="st5" d="M694,211.2v3.4c0,0.1-0.1,0.2-0.2,0.2c-0.1,0-0.2-0.1-0.2-0.2v-0.7c-0.4,0.5-1.1,1-1.9,1
			c-1,0-1.8-0.5-1.8-1.7c0-1.3,1.2-1.7,2.9-1.7h0.7v-0.4c0-0.9-0.5-2-1.7-2c-0.8,0-1.2,0.3-1.3,0.3c-0.1,0-0.2-0.2-0.2-0.3
			c0-0.2,0.8-0.5,1.6-0.5C693.5,208.8,694,210,694,211.2z M693.6,212h-0.7c-1.3,0-2.5,0.1-2.5,1.2c0,0.8,0.6,1.2,1.3,1.2
			c0.9,0,1.9-0.8,1.9-1.4V212z"/>
		<path class="st5" d="M695.7,206.2c0-0.1,0.1-0.2,0.2-0.2c0.1,0,0.2,0.1,0.2,0.2v2.7h1.7c0.1,0,0.2,0.1,0.2,0.2
			c0,0.1-0.1,0.2-0.2,0.2h-1.7v3.8c0,1,0.4,1.3,1.4,1.3h0.3c0.1,0,0.2,0.1,0.2,0.2c0,0.1-0.1,0.2-0.2,0.2h-0.3
			c-1.2,0-1.8-0.5-1.8-1.8V206.2z"/>
		<path class="st5" d="M699.7,206.5c0,0.2-0.2,0.4-0.4,0.4c-0.2,0-0.4-0.2-0.4-0.4c0-0.2,0.2-0.4,0.4-0.4
			C699.6,206.1,699.7,206.3,699.7,206.5z M699.6,209.1v5.5c0,0.1-0.1,0.2-0.2,0.2c-0.1,0-0.2-0.1-0.2-0.2v-5.5
			c0-0.1,0.1-0.2,0.2-0.2C699.5,208.9,699.6,209,699.6,209.1z"/>
		<path class="st5" d="M705.1,209.1c0,0.1,0,0.2,0,0.2l-2,5.5c0,0.1-0.1,0.2-0.2,0.2c-0.1,0-0.2,0-0.2-0.2l-2-5.5c0,0,0-0.1,0-0.2
			c0-0.1,0.1-0.2,0.2-0.2c0.1,0,0.2,0,0.2,0.1l1.8,4.9l1.8-4.9c0-0.1,0.1-0.2,0.2-0.2C705,208.9,705.1,209,705.1,209.1z"/>
		<path class="st5" d="M710.5,211.1c0,0.9-0.5,0.9-1,0.9h-3v0.6c0,1.1,0.9,1.9,2.1,1.9c1.1,0,1.2-0.5,1.5-0.5c0.1,0,0.2,0.1,0.2,0.2
			c0,0.2-0.7,0.7-1.7,0.7c-1.5,0-2.5-0.9-2.5-2.3V211c0-1.2,1-2.2,2.2-2.2C709.4,208.8,710.5,209.8,710.5,211.1z M709.3,211.6
			c0.6,0,0.8-0.1,0.8-0.5c0-0.9-0.7-1.9-1.8-1.9c-1,0-1.8,0.8-1.8,1.8v0.5H709.3z"/>
	</g>
</g>
</svg>
