<?xml version="1.0" encoding="utf-8"?>
<?xml-stylesheet type="text/css" href="style.css" ?> 
<!-- Generator: Adobe Illustrator 19.0.1, SVG Export Plug-In . SVG Version: 6.00 Build 0)  -->
<svg version="1.1" id="Layer_1" xmlns="http://www.w3.org/2000/svg" xmlns:xlink="http://www.w3.org/1999/xlink" x="0px" y="0px"
	 viewBox="0 0 216 216" style="enable-background:new 0 0 216 216;" xml:space="preserve">
<style type="text/css">
	.st0{fill:#1DBDC2;stroke:#313333;stroke-width:3.24;stroke-miterlimit:10;}
	.st1{fill:#FFFFFF;}
</style>
<circle class="st0 heartcircle " cx="108" cy="108" r="91.9"/>
<g>
	<path class="st1" d="M143.9,109.9c1.8-2,2.6-4.4,2.6-7.2c0-2.5-0.9-4.7-2.7-6.5c-1.8-1.8-4-2.7-6.5-2.7h-13.3
		c0.1-0.4,0.3-0.8,0.4-1.2c0.1-0.3,0.3-0.7,0.5-1.1c0.2-0.4,0.4-0.7,0.5-0.9c0.6-1.1,1-2,1.3-2.7c0.3-0.7,0.6-1.7,0.9-2.9
		c0.3-1.2,0.5-2.4,0.5-3.7c0-0.8,0-1.4,0-1.9c0-0.5-0.1-1.2-0.2-2.2c-0.1-1-0.3-1.8-0.6-2.4c-0.2-0.6-0.6-1.4-1.2-2.2
		c-0.5-0.8-1.2-1.5-1.9-2c-0.8-0.5-1.7-0.9-2.9-1.3c-1.2-0.3-2.5-0.5-4-0.5c-0.8,0-1.6,0.3-2.2,0.9c-0.6,0.6-1.2,1.4-1.6,2.4
		c-0.4,1-0.8,1.8-0.9,2.5c-0.2,0.7-0.4,1.7-0.6,2.9c-0.3,1.3-0.5,2.3-0.6,2.9c-0.1,0.6-0.4,1.4-0.8,2.3c-0.4,1-0.9,1.7-1.5,2.3
		c-1.1,1.1-2.7,3-4.9,5.8c-1.6,2.1-3.2,4-4.9,5.8c-1.7,1.8-2.9,2.8-3.7,2.8c-0.8,0.1-1.5,0.4-2.1,1c-0.6,0.6-0.9,1.3-0.9,2.1v30.9
		c0,0.8,0.3,1.5,0.9,2.1c0.6,0.6,1.3,0.9,2.2,0.9c1.1,0,3.7,0.7,7.6,2.1c2.5,0.8,4.4,1.5,5.8,1.9c1.4,0.4,3.3,0.9,5.8,1.4
		c2.5,0.5,4.8,0.7,6.9,0.7h6.2c4.3-0.1,7.4-1.3,9.5-3.8c1.9-2.2,2.6-5.1,2.4-8.7c1.2-1.2,2.1-2.7,2.6-4.5c0.5-2,0.5-3.8,0-5.6
		c1.5-2,2.2-4.2,2.1-6.6C144.6,112.6,144.4,111.3,143.9,109.9L143.9,109.9z M143.9,109.9"/>
	<path class="st1" d="M86.4,99.7H72.6c-0.8,0-1.6,0.3-2.2,0.9c-0.6,0.6-0.9,1.3-0.9,2.2v30.8c0,0.8,0.3,1.6,0.9,2.2
		c0.6,0.6,1.3,0.9,2.2,0.9h13.9c0.8,0,1.6-0.3,2.2-0.9c0.6-0.6,0.9-1.3,0.9-2.2v-30.8c0-0.8-0.3-1.6-0.9-2.2
		C88,100,87.3,99.7,86.4,99.7L86.4,99.7z M80.9,129.6c-0.6,0.6-1.3,0.9-2.2,0.9c-0.9,0-1.6-0.3-2.2-0.9c-0.6-0.6-0.9-1.3-0.9-2.2
		c0-0.8,0.3-1.6,0.9-2.2c0.6-0.6,1.3-0.9,2.2-0.9c0.8,0,1.6,0.3,2.2,0.9c0.6,0.6,0.9,1.3,0.9,2.2C81.8,128.3,81.5,129,80.9,129.6
		L80.9,129.6z M80.9,129.6"/>
</g>
</svg>
