<?xml version="1.0" encoding="utf-8"?>
<!-- Generator: Adobe Illustrator 19.0.1, SVG Export Plug-In . SVG Version: 6.00 Build 0)  -->
<svg version="1.1" id="Layer_1" xmlns="http://www.w3.org/2000/svg" xmlns:xlink="http://www.w3.org/1999/xlink" x="0px" y="0px"
	 viewBox="0 0 432 216" style="enable-background:new 0 0 432 216;" xml:space="preserve">
<style type="text/css">
	.st0{opacity:0.63;}
	.st1{fill:#E2E2E1;}
</style>
<g class="st0">
	<g>
		<path class="st1" d="M516.7-118.3v-3.8H513c0,1.3,0.6,2.5,1.8,3.2L478-54.6c-1-0.5-2.1-0.6-3.1-0.2l-26.3-67.3h-0.2l26.3,67.4
			c-0.7,0.3-1.4,0.8-1.8,1.6c-0.1,0.2-0.2,0.4-0.3,0.7l-61.5-20c0.8-2.5-0.2-5.2-2.5-6.6c0,0-0.1,0-0.1-0.1l22.5-43h-0.2l-22.3,42.5
			l-0.2,0.4c-2.6-1.4-5.9-0.4-7.4,2.2c-0.1,0.3-0.3,0.5-0.4,0.8l-60.4-22.7c0.1-0.4,0.1-0.8,0-1.2l53.9-22h-0.4l-53.6,21.9
			c-0.1-0.3-0.4-0.6-0.7-0.8l12.8-21.1h-0.2L341-103.9l-1.7,2.8c-0.3-0.2-0.6-0.2-0.8-0.2v-20.8h-0.2v20.8c-0.6,0-1.2,0.4-1.5,0.9
			c-0.1,0.2-0.2,0.4-0.2,0.6l-77.2-10.5c0.1-1.1-0.2-2.1-0.9-3l8.1-7.7l1.3-1.2h-0.2l-9.2,8.8c-0.2-0.2-0.5-0.5-0.8-0.6
			c-1.2-0.7-2.6-0.6-3.7,0l-4.7-8.1H249l4.7,8.2c-0.5,0.3-1,0.8-1.3,1.3c-0.2,0.3-0.3,0.7-0.4,1l-47.7-10.5h-0.7l48.4,10.7
			c-0.3,1.5,0.4,3.2,1.8,4c0.2,0.1,0.3,0.2,0.5,0.2L235-55.8l-0.7,1.9c-0.8-0.3-1.7-0.2-2.4,0.3l-46.7-68.5h-0.2l46.8,68.6
			c-0.3,0.2-0.6,0.5-0.8,0.9c-0.2,0.4-0.4,0.9-0.4,1.3l-72.6,0c0-1.9-1-3.8-2.8-4.8c-0.2-0.1-0.5-0.2-0.7-0.3l25.4-65.6h-0.2
			l-25.3,65.5c-2-0.7-4.2-0.3-5.7,1.1l-45.4-50.1c0.1-0.1,0.2-0.2,0.3-0.4c0.2-0.4,0.3-0.9,0.2-1.3l58.7-14.8h-0.6l-58.1,14.6
			c-0.1-0.3-0.3-0.6-0.5-0.9l11.4-13.8h-0.2l-11.3,13.7c-0.1-0.1-0.1-0.1-0.2-0.1c-0.6-0.4-1.3-0.3-1.9,0l-9.1-13.6h-0.2l9.1,13.7
			c-0.2,0.1-0.4,0.3-0.5,0.6c-0.2,0.3-0.3,0.7-0.2,1.1l-59.8,6.7c-0.2-1.7-1.2-3.3-2.8-4.2c-0.5-0.3-1.1-0.5-1.6-0.6l3.5-17.1h-0.2
			L35.7-105c-1.4-0.3-2.8,0-4,0.7l-11-17.8h-0.2l11.1,17.9c-0.7,0.5-1.4,1.1-1.8,1.9c-0.2,0.4-0.4,0.9-0.5,1.3l-75.7-20.3
			c0.1-0.3,0.1-0.6,0.1-0.9H-50v3.8c0.6,0,1.3-0.2,1.8-0.5L4.5-27c-0.2,0.2-0.5,0.4-0.6,0.6c-0.1,0.1-0.1,0.3-0.2,0.4L-50-40.5v0.2
			L3.7-25.8c-0.1,0.4,0,0.8,0.1,1.2L-50,2.5v0.2L3.9-24.5c0.2,0.3,0.4,0.5,0.7,0.7c0.6,0.3,1.2,0.3,1.8,0L29,16.3
			c-0.5,0.3-1,0.8-1.3,1.4c-0.3,0.5-0.5,1.1-0.5,1.7L-50,16.6v0.2l77.2,2.7c0,1.3,0.6,2.6,1.8,3.3L-6.8,85.5
			c-2.1-1.2-4.7-0.9-6.4,0.7L-50,45v0.2l36.7,41.1c-0.4,0.4-0.8,0.8-1,1.3c-0.5,0.9-0.7,1.8-0.7,2.8H-50v0.2h34.9
			c0,1.9,1,3.8,2.8,4.8c0.4,0.2,0.8,0.4,1.2,0.5l-23,80.7c-1-0.3-2-0.1-2.9,0.4l-13-21v0.3l12.8,20.8c-0.5,0.3-0.9,0.7-1.2,1.3
			c-0.2,0.3-0.3,0.7-0.4,1.1l-11.2-2.2v0.2l11.2,2.2c-0.2,1.1,0.1,2.3,0.9,3.2L-50,194v0.2l12.2-11.4c0.2,0.2,0.5,0.5,0.8,0.6
			c1,0.6,2.2,0.6,3.3,0.2L-8,245.2c-1.1,0.5-2,1.3-2.6,2.3c-0.3,0.5-0.5,1-0.6,1.6l-38.8-8.4v0.2l38.7,8.4c-0.3,1.6,0.1,3.3,1.1,4.6
			L-50,286.2v0.2l39.9-32.4c0.4,0.5,0.9,1,1.5,1.3c1.8,1,3.8,1,5.5,0.1l36.8,66.2c-0.3,0.2-0.5,0.4-0.6,0.7
			c-0.1,0.1-0.1,0.2-0.2,0.4l-3-0.9L-50,298.5v0.2l82.9,24c-0.2,0.8,0.1,1.6,0.8,2l-40.3,66.2c0,0,0,0-0.1,0c-1.7-1-3.7-1-5.3-0.2
			L-50,317v0.3l37.8,73.4c-0.9,0.5-1.7,1.2-2.2,2.2c-0.2,0.4-0.4,0.8-0.5,1.3l-35.1-9.5v0.2l35.1,9.5c-0.5,2.1,0.2,4.3,1.8,5.7
			l-34.5,41.7c-0.1-0.1-0.3-0.2-0.5-0.3c-0.6-0.3-1.2-0.5-1.9-0.5v3.8h3.7c0-1.1-0.5-2.1-1.3-2.8l34.5-41.7c0.2,0.2,0.5,0.4,0.7,0.5
			c1.8,1.1,4,1,5.7-0.1l27.2,44.1h0.2l-27.3-44.1c0.7-0.5,1.4-1.1,1.8-1.9c0.7-1.2,0.9-2.5,0.7-3.8l51.8-9.6c0.2,1,0.8,1.9,1.8,2.5
			c0.3,0.2,0.7,0.3,1,0.4l-11.5,56.5h0.2l11.4-56.5c0.9,0.2,1.9,0,2.7-0.5l38.2,57h0.2l-38.2-57.1c0.4-0.3,0.8-0.7,1.1-1.2
			c0.3-0.5,0.5-1.1,0.5-1.7l104.3,3.6c0,0.5,0.2,1,0.6,1.4l-45.6,55h0.2l45.6-54.9c0.1,0.1,0.1,0.1,0.2,0.1c0.5,0.3,1.1,0.3,1.6,0.1
			l18.3,46.3c-0.7,0.3-1.4,0.8-1.8,1.6c-0.5,0.9-0.6,1.8-0.4,2.7l-16.2,4.1h0.6l15.6-3.9c0.2,0.9,0.8,1.8,1.7,2.3
			c0.1,0.1,0.3,0.2,0.4,0.2l-0.6,1.4h0.2l0.5-1.4c1.1,0.4,2.4,0.3,3.3-0.4l1.2,1.8h0.2l-1.3-1.9c0.4-0.3,0.8-0.7,1.1-1.2
			c0.2-0.3,0.3-0.7,0.4-1l18.3,4h0.7l-19-4.2c0.3-1.3-0.2-2.8-1.3-3.6l31.3-40.3c0.2,0.1,0.4,0.3,0.6,0.4c1.8,1,3.9,1,5.6,0
			l27.6,47.7h0.2l-27.6-47.8c0.8-0.5,1.5-1.2,2-2c0.6-1.1,0.8-2.3,0.7-3.4l111.4-13.4c0.1,0.5,0.3,1.1,0.7,1.5l-68.7,65.2h0.2
			l68.6-65.1c0.2,0.2,0.4,0.3,0.6,0.5c0.4,0.2,0.9,0.4,1.3,0.4v64.2h0.2v-64.2c0.9,0,1.8-0.5,2.3-1.4c0.3-0.5,0.4-1,0.4-1.5
			l52.2-3.5c0.1,0.5,0.3,1,0.8,1.4l-42.1,69.3h0.2l42.1-69.2c0.7,0.4,1.5,0.3,2.1-0.2l42,47.4c-0.3,0.2-0.5,0.5-0.7,0.9
			c-0.6,1-0.6,2.2-0.3,3.2l-43.8,17.9h0.4l43.5-17.8c0.3,0.7,0.8,1.4,1.6,1.8c0,0,0.1,0,0.1,0.1l-8.1,15.9h0.2l8.1-15.9
			c0.9,0.5,2,0.5,2.9,0.1l6.1,15.7h0.2l-6.2-15.8c0.7-0.3,1.4-0.8,1.8-1.6c0.2-0.3,0.3-0.6,0.4-0.9l68.4,17.4
			c-0.1,0.3-0.1,0.6-0.1,0.8h3.7v-3.8c-0.6,0-1.2,0.2-1.8,0.5l-37.7-65.9c0.2-0.2,0.5-0.4,0.6-0.7c0.1-0.1,0.1-0.3,0.2-0.4
			l38.7,10.5v-0.2L478,374.2c0.2-0.8-0.2-1.6-0.9-2c-0.1,0-0.1-0.1-0.2-0.1l6.8-18.3l19.8-53c1.5,0.5,3.1,0.4,4.4-0.3l8.7,16.9V317
			l-8.6-16.6c0.9-0.5,1.7-1.2,2.2-2.2c0.2-0.4,0.4-0.8,0.5-1.2l5.8,1.7v-0.2l-5.8-1.7c0.5-1.7,0.1-3.6-1-5l6.8-5.5v-0.2l-6.9,5.6
			c-0.4-0.5-0.9-1-1.5-1.3c-1.6-0.9-3.5-1-5.1-0.3l-26.1-56.5c0.3-0.2,0.6-0.4,0.8-0.7c0.1-0.2,0.1-0.3,0.2-0.5l38.7,8.3v-0.2
			l-38.6-8.3c0.1-0.6-0.1-1.1-0.4-1.5l6-5.6l33-31V194l-37.5,35.2l-1.7,1.6c-0.1-0.1-0.2-0.2-0.4-0.3c-0.6-0.3-1.3-0.3-1.8,0
			l-36.7-64.3c0.8-0.5,1.5-1.2,2-2c0.3-0.5,0.5-1.1,0.6-1.7l75.5,14.9v-0.2l-75.5-14.9c0.4-2.3-0.6-4.6-2.6-5.9l36.3-63.5
			c0.9,0.5,1.9,0.4,2.8,0l39.1,63.3v-0.3l-38.9-63.1c0.4-0.2,0.7-0.5,0.9-0.9c0.2-0.4,0.4-0.9,0.4-1.3h37.7v-0.2H479
			c0-0.9-0.5-1.9-1.4-2.4c-0.3-0.1-0.5-0.3-0.8-0.3l1.7-9l11.4-59.2c1.1,0.2,2.2-0.1,3.1-0.9l23.7,26.5V45l-19.2-21.5l-4.4-4.9
			c0.3-0.2,0.5-0.5,0.7-0.9c0.3-0.5,0.5-1.1,0.5-1.7l22.4,0.8v-0.2l-22.4-0.8c0-0.6-0.1-1.2-0.4-1.7l22.8-11.5V2.5L497.9,12
			l-4.1,2.1c-0.3-0.6-0.8-1.1-1.4-1.5c-0.8-0.5-1.7-0.6-2.6-0.4l-12.8-59.7c1-0.2,1.8-0.8,2.4-1.8c0.2-0.3,0.3-0.6,0.4-0.8l36.9,9.9
			v-0.2l-36.9-9.9c0.4-1.6-0.3-3.3-1.7-4.1l36.7-64.3C515.5-118.5,516.1-118.3,516.7-118.3z M410.7-71.3c0.2-0.3,0.3-0.7,0.5-1
			l61.5,20c-0.5,1.6,0.2,3.4,1.6,4.3L449.1-3.9l-12.5,21.8c-0.4-0.2-0.9-0.3-1.4-0.1l-27.6-86.5C408.9-69.2,410-70.1,410.7-71.3z
			 M473.4,90.9l-64,12.2c-0.2-1-0.8-1.9-1.8-2.5c-0.2-0.1-0.4-0.2-0.5-0.3l1.6-4.4l26.5-74.5c0.5,0.2,1,0.1,1.4-0.1L474.7,88
			c-0.4,0.2-0.7,0.6-1,1C473.5,89.6,473.3,90.2,473.4,90.9z M475.2,233.7l-37.7,65.9c-1.3-0.7-2.9-0.6-4,0.3l-59-77.9
			c0.4-0.3,0.7-0.6,0.9-1.1c0.2-0.4,0.4-0.9,0.5-1.3l98.5,12.3C474.3,232.6,474.6,233.3,475.2,233.7z M375,294.2
			c-0.9-0.5-1.8-0.7-2.7-0.8l0-70.7c0.8,0,1.5-0.3,2.1-0.7l59,77.9c-0.4,0.3-0.7,0.6-0.9,1.1c-0.3,0.5-0.4,1-0.5,1.6l-54.3-3.2
			C377.8,297.4,376.8,295.3,375,294.2z M374,215.8c-0.9-0.5-1.9-0.6-2.9-0.4l-15.5-51.5c0.6-0.2,1.2-0.6,1.5-1.3
			c0.2-0.4,0.4-0.9,0.4-1.3l72.6,0c0,1.3,0.5,2.6,1.4,3.7l-56.6,51.5C374.6,216.2,374.4,216,374,215.8z M366.6,300l-89.1,14.9
			c-0.2-1-0.8-2-1.8-2.6l34.6-62.4c1.5,0.8,3.4,0.5,4.5-0.8l53.1,46.4c-0.2,0.3-0.4,0.5-0.6,0.8C366.7,297.5,366.4,298.8,366.6,300z
			 M175.4,293.4l49-32.2c0.2,0.2,0.3,0.4,0.6,0.5c0.7,0.4,1.5,0.3,2.1-0.2l44.3,51.2c-0.3,0.3-0.5,0.6-0.7,0.9
			c-0.2,0.3-0.3,0.7-0.4,1.1L175.9,296C176,295.1,175.9,294.2,175.4,293.4z M168.8,296.8l-55.5,24c-0.5-1.1-1.2-2-2.3-2.6
			c-0.5-0.3-0.9-0.5-1.4-0.6l15.9-68.3c0.9,0.2,1.8-0.1,2.4-0.7l1.6,1.7l40,42.3c-0.2,0.2-0.4,0.5-0.6,0.8
			C168.4,294.5,168.3,295.7,168.8,296.8z M118.1,40.2l67.8-39.3c0.3,0.5,0.8,1,1.3,1.3c0.1,0.1,0.3,0.1,0.4,0.2l-30.9,76.9l-3.1,7.7
			c-1.2-0.5-2.5-0.3-3.5,0.5l-32.8-43.6c0.3-0.2,0.5-0.5,0.7-0.8C118.6,42,118.5,41,118.1,40.2z M245.4,24.5c0.5,0.3,1,0.5,1.5,0.6
			l-17,76.9c-0.3-0.1-0.6,0-0.9,0.1L190.5,2.4c0.7-0.3,1.4-0.8,1.8-1.6c0.1-0.2,0.2-0.4,0.3-0.6l50.3,17.6
			C242.1,20.3,243.1,23.1,245.4,24.5z M252.7,16.2l12.5-9.8l38.7-30.2c0.3,0.4,0.6,0.7,1,0.9c1.5,0.9,3.4,0.6,4.6-0.7L371.7,34
			c-0.3,0.3-0.5,0.6-0.7,0.9c-0.4,0.6-0.6,1.3-0.7,2L253.8,20.3C253.9,18.8,253.6,17.3,252.7,16.2z M253.1,22.4
			c0.4-0.6,0.6-1.3,0.7-2L370.3,37c-0.2,1.8,0.5,3.7,1.9,5l-59.3,70.9c-0.2-0.1-0.3-0.2-0.5-0.3c-1.2-0.7-2.7-0.6-3.8,0.1
			l-57.2-88.4C252,23.8,252.6,23.2,253.1,22.4z M381.3,36.2l52.7-16c0.1,0.4,0.4,0.8,0.8,1c0.1,0,0.2,0.1,0.2,0.1l-28,78.9
			c-0.9-0.3-1.8-0.2-2.7,0.1l-26-57.5c1-0.5,1.9-1.2,2.5-2.3C381.5,39.2,381.7,37.6,381.3,36.2z M404.2,100.4
			c-0.7,0.3-1.2,0.8-1.6,1.5c-0.4,0.7-0.6,1.5-0.5,2.3l-87.9,11.1c-0.1-0.9-0.5-1.7-1.2-2.3l59.3-70.9c0.2,0.2,0.5,0.4,0.8,0.5
			c1.6,0.9,3.5,1,5.1,0.3L404.2,100.4z M368.7,220.5L315.4,245c-0.3-0.7-0.8-1.2-1.5-1.6c0,0-0.1,0-0.1-0.1l39.8-79.5
			c0.6,0.3,1.3,0.3,1.9,0.2l15.5,51.5c-0.8,0.3-1.6,0.9-2.1,1.7C368.3,218.2,368.3,219.5,368.7,220.5z M308.4,247.1l-80.7,12.6
			c-0.1-0.4-0.3-0.7-0.5-1l0.6-0.7l46.1-53.2c0.3,0.2,0.5,0.4,0.8,0.6c2,1.2,4.4,0.9,6.1-0.3l28.9,38.6c-0.4,0.3-0.7,0.6-0.9,1.1
			C308.4,245.4,308.3,246.3,308.4,247.1z M127.6,244.2l55.9-88.5c0,0,0,0,0.1,0c1,0.6,2.1,0.6,3.1,0.3l38.5,102.2
			c-0.4,0.2-0.7,0.4-0.9,0.8c-0.1,0.2-0.2,0.4-0.2,0.6l-95.2-12.9C128.9,245.9,128.5,244.8,127.6,244.2z M53.9,225.4l50.8-62.9
			c0.2,0.2,0.4,0.3,0.7,0.5c1.2,0.7,2.6,0.9,3.8,0.7l16.2,80.1c-0.7,0.2-1.4,0.6-1.8,1.3c-0.1,0.2-0.2,0.4-0.3,0.7l-68.2-16.7
			C55.4,227.8,54.9,226.3,53.9,225.4z M228.3,105.1L189,148.5l-1.1,1.2c-0.2-0.2-0.4-0.3-0.6-0.4c-1.1-0.7-2.5-0.7-3.6-0.1
			l-29.5-55.5c0.6-0.3,1.1-0.8,1.4-1.4c0.2-0.4,0.4-0.8,0.4-1.2l71.7,12.4C227.7,104.1,227.9,104.7,228.3,105.1z M308.7,119.1
			c0.1,0.1,0.3,0.2,0.4,0.2l-29.6,75.9c-1.5-0.6-3.1-0.5-4.4,0.2l-44.6-89.9c0.3-0.2,0.5-0.4,0.7-0.7c0.1-0.2,0.2-0.4,0.2-0.6
			l75.4,11.2C306.7,116.8,307.4,118.3,308.7,119.1z M352.2,162.4l-69.7,35.4c-0.5-0.9-1.2-1.7-2.2-2.3c-0.2-0.1-0.4-0.2-0.7-0.3
			l29.6-75.9c1.3,0.5,2.8,0.2,3.9-0.8l39.6,40.7c-0.2,0.2-0.3,0.3-0.4,0.5C351.9,160.7,351.9,161.6,352.2,162.4z M275,195.4
			c-0.9,0.5-1.7,1.2-2.3,2.2c0,0.1-0.1,0.1-0.1,0.2l-83.9-43.6c0.7-1.5,0.4-3.3-0.8-4.4l40.4-44.6c0.1,0.1,0.2,0.1,0.3,0.2
			c0.5,0.3,1.2,0.3,1.7,0.1L275,195.4z M183.6,149.3c-0.6,0.3-1.1,0.8-1.4,1.4c-0.4,0.7-0.5,1.4-0.5,2.1l-67.9,4.9
			c-0.1-1.7-1-3.2-2.4-4.2l39.1-59.9c0,0,0.1,0.1,0.1,0.1c1.1,0.7,2.5,0.7,3.6,0.1L183.6,149.3z M111.2,153.4
			c-0.1,0-0.1-0.1-0.2-0.1c-2-1.2-4.4-0.9-6.1,0.4L52.7,84.3c0.2-0.1,0.3-0.3,0.4-0.5c0.1-0.2,0.2-0.5,0.2-0.7l95.3,7.1
			c-0.1,1.3,0.5,2.5,1.6,3.3L111.2,153.4z M109.4,163.7c1.5-0.3,2.8-1.3,3.7-2.7c0.6-1,0.8-2.1,0.7-3.2l67.9-4.9
			c0.1,1.1,0.7,2.1,1.6,2.8l-48.6,76.9l-7.3,11.5c0,0,0,0,0,0c-0.6-0.3-1.3-0.4-1.9-0.3L109.4,163.7z M186.8,156.1
			c0.7-0.3,1.4-0.9,1.8-1.6c0,0,0-0.1,0-0.1l83.9,43.6c-1.1,2.3-0.6,5.1,1.3,6.7L230.2,255l-3.2,3.6c-0.1-0.1-0.2-0.1-0.2-0.2
			c-0.5-0.3-1-0.3-1.5-0.2L186.8,156.1z M281,204.9c0.6-0.4,1-1,1.4-1.6c1-1.7,1-3.7,0.2-5.3l69.7-35.4c0.2,0.4,0.6,0.8,1.1,1.1
			c0,0,0,0,0.1,0l-39.8,79.4c-1.3-0.6-2.7-0.4-3.8,0.3L281,204.9z M352.9,159.2l-39.6-40.7c0.2-0.2,0.4-0.5,0.6-0.7
			c0.4-0.7,0.6-1.5,0.5-2.3l87.9-11.1c0.1,0.8,0.5,1.6,1.1,2.2l-46.7,52.5c-0.1-0.1-0.3-0.2-0.4-0.3
			C355.1,158.2,353.7,158.3,352.9,159.2z M308.5,112.7c-0.4,0.3-0.8,0.7-1.1,1.2c-0.2,0.4-0.4,0.8-0.4,1.3L231.5,104
			c0.1-0.7-0.3-1.4-0.9-1.8c-0.1-0.1-0.3-0.1-0.5-0.2l17-76.9c1.4,0.3,2.9,0,4.1-0.8L308.5,112.7z M228.9,102.1
			c-0.4,0.2-0.7,0.4-0.9,0.8c-0.1,0.2-0.2,0.4-0.2,0.5L156.1,91c0.2-1.5-0.5-3-1.8-3.8c-0.1-0.1-0.3-0.1-0.4-0.2l33.9-84.5
			c0.9,0.3,1.8,0.3,2.6,0L228.9,102.1z M150.1,87.4c-0.4,0.3-0.7,0.6-0.9,1.1c-0.3,0.5-0.4,1-0.5,1.5l-95.3-7.1c0-0.4-0.1-0.7-0.3-1
			l60.2-38.8c0.2,0.3,0.5,0.6,0.9,0.9c1,0.6,2.2,0.5,3-0.2L150.1,87.4z M113.2,40.1c-0.1,0.2-0.2,0.4-0.3,0.6L34.6,20.4
			c0.4-1.6-0.3-3.3-1.8-4.1c-0.1-0.1-0.3-0.2-0.4-0.2l21.6-56.3c1.1,0.4,2.4,0.2,3.4-0.4l56.6,79.9
			C113.7,39.5,113.4,39.7,113.2,40.1z M34.2,21.5c0.2-0.3,0.3-0.6,0.4-0.9l78.4,20.3c-0.2,0.7,0,1.5,0.3,2.1L57.5,78.9L53,81.8
			c-0.2-0.2-0.4-0.4-0.6-0.6c-0.5-0.3-1-0.3-1.4-0.2L32.2,23.1C33,22.8,33.7,22.3,34.2,21.5z M52.5,84.4l52.2,69.3
			c-0.5,0.4-1,1-1.4,1.6c-0.4,0.7-0.6,1.4-0.7,2.2l-83.5-8.6c0-0.7-0.3-1.4-0.9-1.7l0,0l32.5-62.6C51.3,84.9,52,84.8,52.5,84.4z
			 M18.8,149.7c0.1-0.2,0.2-0.4,0.2-0.7l83.5,8.6c-0.2,1.8,0.6,3.6,2,4.8l-42.8,53l-8,9.9c-0.1-0.1-0.3-0.2-0.4-0.3
			c-1-0.6-2.3-0.6-3.3-0.2l-32-74.3C18.4,150.3,18.7,150.1,18.8,149.7z M53.3,231.6l51.9,86.7c-0.8,0.5-1.4,1.1-1.9,2
			c-0.5,0.9-0.7,1.8-0.7,2.8h-66c0-0.6-0.4-1.2-0.9-1.6c-0.2-0.1-0.3-0.2-0.5-0.2L50.9,232C51.7,232.2,52.6,232,53.3,231.6z
			 M53.5,231.5c0.5-0.3,0.9-0.8,1.2-1.3c0.2-0.3,0.3-0.6,0.4-0.9l68.2,16.7c-0.2,1.2,0.3,2.4,1.3,3c0.2,0.1,0.5,0.2,0.7,0.3
			l-15.7,67.5l-0.2,0.8c-1.4-0.3-2.8-0.1-4,0.6L53.5,231.5z M128,248.6c0.2-0.2,0.3-0.4,0.4-0.6c0.2-0.3,0.3-0.6,0.3-1l95.2,12.9
			c0,0.4,0.1,0.8,0.3,1.1l-39.9,26.2l-9.1,6c-0.3-0.5-0.7-0.9-1.2-1.1c-1.4-0.8-3.2-0.6-4.4,0.5L128,248.6z M227.2,261.5
			c0.1-0.1,0.2-0.3,0.3-0.4c0.2-0.4,0.3-0.8,0.2-1.2l80.7-12.6c0.2,1.1,0.8,2,1.8,2.6l-34.6,62.4c-1.4-0.7-3-0.5-4.2,0.4
			L227.2,261.5z M314.9,249c0.1-0.2,0.3-0.3,0.4-0.5c0.6-1.1,0.6-2.3,0.2-3.4l53.3-24.4c0.3,0.7,0.8,1.2,1.5,1.6
			c0.6,0.3,1.2,0.5,1.8,0.5l0,70.7c-1.5,0-3.1,0.7-4.1,1.9L314.9,249z M430.9,158.4c-0.5,0.9-0.7,1.8-0.7,2.8h-72.6
			c0-0.7-0.3-1.5-0.9-2l3.7-4.2l43-48.4c0.2,0.2,0.4,0.3,0.6,0.4c1.1,0.7,2.5,0.7,3.5,0.1l25.6,49.1
			C432.2,156.8,431.4,157.5,430.9,158.4z M407.5-68.8l27.6,86.5c-0.4,0.1-0.7,0.4-1,0.8c-0.3,0.4-0.3,1-0.2,1.4l-52.7,16
			c-0.4-1.3-1.3-2.5-2.5-3.2c-0.4-0.2-0.8-0.4-1.3-0.5l27-101C405.4-68.4,406.5-68.4,407.5-68.8z M403-69.3c0.4,0.2,0.8,0.4,1.3,0.5
			l-24.9,93.3l-2.1,7.7c-2-0.5-4.1,0.1-5.5,1.6l-62.2-57.6c0.2-0.2,0.3-0.4,0.4-0.6c0.6-1.1,0.6-2.4,0.2-3.4l90.6-43.9
			C401.3-70.7,402-69.8,403-69.3z M340-98.5c0-0.1,0.1-0.1,0.1-0.2l3.7,1.4l56.8,21.3c-0.5,1.4-0.4,3,0.2,4.3l-90.6,43.9
			c-0.3-0.6-0.8-1.2-1.5-1.6c-0.1-0.1-0.2-0.1-0.3-0.2l29.3-68.1C338.5-97.4,339.5-97.7,340-98.5z M258.9-108.8
			c0.2-0.4,0.4-0.9,0.5-1.3l77.2,10.5c-0.1,0.7,0.3,1.4,0.9,1.8c0,0,0.1,0,0.1,0.1L313.1-41l-4.9,11.3c-1.1-0.5-2.3-0.4-3.3,0.2
			l-47.3-78.1C258.2-107.8,258.6-108.3,258.9-108.8z M234.9-55.1l19.6-52.1c1.1,0.4,2.2,0.3,3.1-0.3l47.3,78.1
			c-0.5,0.3-0.9,0.7-1.2,1.3c-0.1,0.2-0.2,0.4-0.3,0.6l-67.3-23c0.4-1.2-0.1-2.6-1.3-3.3c-0.1-0.1-0.2-0.1-0.3-0.2L234.9-55.1z
			 M235.8-49.9c0.1-0.1,0.1-0.3,0.2-0.4l67.3,23c-0.4,1.2-0.1,2.4,0.6,3.4l-51.2,40c-0.4-0.5-1-1-1.6-1.4c-1.2-0.7-2.6-0.9-3.9-0.6
			L234-48.5C234.7-48.7,235.4-49.2,235.8-49.9z M231.9-48.8c0.6,0.4,1.3,0.4,1.9,0.3L247,14.1c-1.5,0.3-2.8,1.3-3.6,2.7
			c-0.2,0.3-0.3,0.6-0.4,0.9L192.7,0c0.4-1.4,0-2.9-1-3.9l39.9-45.2C231.7-49,231.8-48.9,231.9-48.8z M157.2-48.4
			c0.5-0.9,0.7-1.8,0.7-2.8h72.6c0,0.7,0.3,1.5,0.9,2L191.6-4c-0.2-0.1-0.4-0.3-0.6-0.4c-1.3-0.8-2.9-0.6-4,0.2l-31.2-42.6
			C156.3-47.2,156.8-47.8,157.2-48.4z M155.6-46.7l31.2,42.6c-0.4,0.3-0.7,0.7-1,1.1c-0.7,1.2-0.6,2.6,0,3.7L118,40
			c-0.2-0.4-0.6-0.7-1-1c-0.1-0.1-0.2-0.1-0.3-0.1L150.4-46C152.2-45.3,154.1-45.6,155.6-46.7z M149.6-46.4c0.2,0.1,0.4,0.2,0.7,0.3
			l-33.6,84.9c-0.9-0.3-1.8-0.2-2.5,0.3L57.4-40.7c0.4-0.3,0.7-0.7,1-1.1c0.4-0.7,0.5-1.4,0.5-2.1l87.9-6.8
			C147-49,147.9-47.3,149.6-46.4z M100.9-105.4c0,0,0.1,0.1,0.1,0.1c0.7,0.4,1.6,0.3,2.1-0.2l45.4,50.1c-0.4,0.4-0.7,0.8-1,1.3
			c-0.6,1-0.8,2.1-0.7,3.2l-87.9,6.8c-0.1-1-0.6-2-1.4-2.6L100.9-105.4z M39.5-96.6c0.6-1.1,0.8-2.2,0.7-3.4l59.8-6.7
			c0.1,0.5,0.3,0.9,0.7,1.2L57.4-46.8c-0.1-0.1-0.2-0.1-0.3-0.2c-1-0.6-2.1-0.6-3.1-0.3L36.7-94.2C37.9-94.6,38.9-95.4,39.5-96.6z
			 M4.7-27.1l-52.7-91.8c0.5-0.3,1-0.8,1.3-1.3c0.2-0.3,0.3-0.6,0.4-0.8l75.7,20.3c-0.6,2.4,0.4,5,2.6,6.3c0.2,0.1,0.4,0.2,0.7,0.3
			L11.4-40.6L6.2-27.2C5.7-27.4,5.1-27.3,4.7-27.1z M6.3-27.1l26.4-67c1.3,0.5,2.6,0.5,3.9,0l17.3,46.9c-0.8,0.3-1.4,0.9-1.9,1.6
			c-0.6,1-0.6,2.1-0.3,3.1L7.3-26.1c-0.2-0.4-0.4-0.7-0.8-0.9C6.4-27.1,6.4-27.1,6.3-27.1z M6.5-23.8C6.8-24,7-24.2,7.2-24.5
			c0.3-0.5,0.3-1,0.2-1.5l44.4-16.4c0.3,0.8,0.8,1.5,1.6,1.9c0.1,0.1,0.3,0.2,0.5,0.2L32.2,16c-1-0.4-2.1-0.3-3.1,0.2L6.5-23.8z
			 M29.1,22.9c0.9,0.5,2,0.6,2.9,0.3l18.8,57.9c-0.4,0.1-0.7,0.4-1,0.8c-0.2,0.3-0.3,0.7-0.2,1.1L-4,89.6c-0.2-1.6-1.2-3.2-2.7-4.1
			L29.1,22.9z M-4.7,93.2c0.6-1.1,0.8-2.3,0.7-3.4l53.6-6.6c0.1,0.5,0.4,1,0.9,1.3h0l-31.7,61.1l-0.8,1.5c-0.5-0.2-1-0.2-1.5,0
			L-7.1,95.5C-6.1,95-5.3,94.3-4.7,93.2z M-34,176.5l23-80.7c1.3,0.4,2.6,0.2,3.8-0.3l23.6,51.5c-0.3,0.2-0.6,0.4-0.8,0.7
			c-0.3,0.6-0.3,1.3,0,1.8L-32,178.2c-0.3-0.5-0.8-1-1.3-1.3C-33.5,176.7-33.8,176.6-34,176.5z M-7.9,245.1l-25.7-61.5
			c0.7-0.3,1.3-0.8,1.7-1.6c0.7-1.2,0.6-2.6,0-3.7l47.6-28.5c0.2,0.2,0.4,0.5,0.6,0.6c0.1,0.1,0.3,0.1,0.4,0.2l-21.4,94.2
			C-5.7,244.6-6.9,244.7-7.9,245.1z M-4.5,244.9L-4.5,244.9l21.4-94.2c0.3,0.1,0.7,0,1-0.1l32,74.3c-0.7,0.3-1.3,0.8-1.7,1.5
			c-0.6,1-0.6,2.2-0.3,3.2l-48.6,18.7c-0.4-1.1-1.3-2.2-2.4-2.8C-3.5,245.2-4,245-4.5,244.9z M-3,255.2c0.8-0.5,1.5-1.2,2-2.1
			c0.9-1.5,1-3.3,0.4-4.8L48,229.7c0.3,0.8,0.8,1.4,1.6,1.9c0.4,0.2,0.7,0.4,1.1,0.4l-15.8,89.2c-0.4-0.1-0.8,0-1.1,0.2L-3,255.2z
			 M48.2,382.5c-0.4,0.8-0.6,1.7-0.5,2.5L-4,394.6c-0.3-1.5-1.2-2.8-2.5-3.7l3.1-5.2l37.2-61c0.4,0.2,0.9,0.3,1.3,0.2l15.3,55.8
			C49.5,381,48.7,381.6,48.2,382.5z M53.3,381.1c-0.9-0.5-1.9-0.6-2.8-0.4l-15.3-55.8c0.4-0.1,0.8-0.4,1-0.8
			c0.2-0.3,0.2-0.6,0.2-0.9l66,0c0,1.5,0.6,2.9,1.7,4l-42,45.4l-8.3,9C53.8,381.4,53.6,381.3,53.3,381.1z M159.7,387.2
			c-0.1,0.3-0.2,0.5-0.2,0.8l-104.2-3.6c0-1-0.4-2-1.1-2.8l50.3-54.4c0.3,0.3,0.6,0.5,1,0.7c2.1,1.2,4.6,0.9,6.3-0.5l48.4,59.2
			C159.9,386.9,159.8,387,159.7,387.2z M160.2,386.7l-48.4-59.2c0.5-0.4,0.9-0.9,1.2-1.5c0.9-1.6,1-3.4,0.3-5l55.5-24
			c0.3,0.7,0.8,1.3,1.5,1.7c0.4,0.3,0.9,0.4,1.4,0.5l-10.2,87.2C161,386.2,160.5,386.4,160.2,386.7z M185.5,434.5l-1.7,2.1
			c-0.1-0.1-0.2-0.2-0.4-0.3c-1-0.6-2.2-0.6-3.2-0.3l-18.3-46.3c0.3-0.2,0.7-0.4,0.9-0.8c0.1-0.2,0.2-0.5,0.2-0.7l49.9,3.3
			c-0.1,1.8,0.7,3.5,2.1,4.7L185.5,434.5z M213.8,389.1c-0.4,0.8-0.7,1.6-0.7,2.4l-49.9-3.3c0-0.7-0.3-1.3-0.9-1.7
			c-0.2-0.1-0.4-0.2-0.6-0.2l10.2-87.2c0.7,0.1,1.3-0.1,1.9-0.3l42.4,88.1C215.2,387.4,214.4,388.1,213.8,389.1z M221.5,387
			c-1.6-1-3.6-1-5.2-0.2l-42.4-88.1c0.6-0.3,1.2-0.8,1.5-1.5c0.2-0.3,0.3-0.7,0.4-1.1l94.3,18.7c-0.2,1.4,0.3,2.8,1.4,3.7
			l-49.7,68.8C221.8,387.2,221.6,387.1,221.5,387z M336,376.1c-0.3,0.5-0.4,1.1-0.4,1.7l-111.4,13.4c-0.2-1.5-1-2.8-2.2-3.8
			l8.4-11.6l41.2-57.1c0.1,0.1,0.2,0.1,0.3,0.2c1.5,0.9,3.4,0.6,4.5-0.6l59.8,57.4C336.2,375.8,336.1,375.9,336,376.1z M336.4,375.5
			l-59.8-57.4c0.2-0.2,0.3-0.4,0.5-0.7c0.4-0.8,0.6-1.6,0.5-2.4l89.1-14.9c0.3,1.6,1.2,3,2.7,3.9c0.2,0.1,0.3,0.2,0.5,0.3
			l-30.1,69.9l-0.3,0.7C338.4,374.5,337.2,374.7,336.4,375.5z M393.6,372.8c-0.2,0.3-0.3,0.7-0.2,1l-52.2,3.5
			c-0.1-0.9-0.6-1.7-1.4-2.2c-0.1,0-0.1-0.1-0.2-0.1l4.6-10.7l25.8-59.9c1.2,0.5,2.6,0.6,3.8,0.2l20.9,67.4
			C394.2,372.1,393.9,372.4,393.6,372.8z M394.8,371.9l-20.9-67.4c1.3-0.4,2.4-1.3,3.1-2.5c0.4-0.8,0.7-1.6,0.7-2.4l54.3,3.2
			c0,1.3,0.6,2.6,1.8,3.4L401,363.6l-4.8,8.5C395.7,371.9,395.2,371.8,394.8,371.9z M396.3,372.2l3.5-6.1l34.2-59.8
			c1.2,0.6,2.5,0.6,3.6,0l37.7,65.9c-0.2,0.2-0.5,0.4-0.6,0.7c-0.2,0.3-0.2,0.6-0.2,0.9h-77.2C397.1,373.1,396.8,372.5,396.3,372.2z
			 M442.9,422.1c-1.4-0.8-3.1-0.6-4.3,0.4l-42-47.4c0.1-0.1,0.2-0.3,0.3-0.4c0.2-0.3,0.2-0.6,0.2-0.9h77.2c0,0.6,0.3,1.1,0.7,1.4
			l-31.1,45.7l-0.9,1.3C443,422.2,442.9,422.1,442.9,422.1z M477.1,375.4l37.7,65.9c-0.5,0.3-1,0.8-1.3,1.3
			c-0.2,0.3-0.3,0.6-0.4,0.9l-68.4-17.4c0.3-1.5-0.2-3-1.5-3.9l32-46.9c0,0,0,0,0.1,0C475.9,375.7,476.5,375.7,477.1,375.4z
			 M503.4,300.6l-26.6,71.2l0,0.1c-0.5-0.2-1-0.1-1.5,0.1l-37.7-65.9c0.5-0.3,1-0.8,1.3-1.3c0.4-0.7,0.5-1.5,0.5-2.2l60.5-6.5
			c0.2,1.7,1.2,3.3,2.8,4.2C502.9,300.4,503.2,300.5,503.4,300.6z M475.3,233.8c0.5,0.3,1.1,0.3,1.6,0.1l26.1,56.5
			c-1,0.5-1.8,1.2-2.4,2.3c-0.6,1.1-0.8,2.2-0.7,3.4l-60.5,6.5c-0.1-1.1-0.8-2.1-1.8-2.7L475.3,233.8z M475.2,230.5
			c-0.2,0.2-0.5,0.4-0.6,0.7c-0.1,0.2-0.2,0.4-0.2,0.6l-98.5-12.3c0.1-1-0.2-2.1-0.9-2.9l5.2-4.7l51.4-46.7c0.4,0.4,0.8,0.8,1.3,1.1
			c1.8,1,3.9,1,5.5,0L475.2,230.5z M438.5,156.3c-1.7-1-3.7-0.9-5.3-0.1l-25.6-49.1c0.6-0.3,1.1-0.8,1.4-1.4
			c0.5-0.8,0.6-1.7,0.4-2.5l64-12.2c0.2,0.7,0.6,1.4,1.3,1.8L438.5,156.3z M476.7,87.6c-0.6-0.1-1.2,0-1.8,0.3l-38.1-66.8
			c0.2-0.2,0.5-0.4,0.6-0.6c0.2-0.3,0.3-0.7,0.2-1l49.2-3.4c0.1,1.2,0.8,2.3,1.9,2.9c0.3,0.2,0.7,0.3,1.1,0.4L476.7,87.6z
			 M489.7,12.1c-1,0.2-1.8,0.8-2.4,1.8c-0.4,0.7-0.5,1.4-0.5,2.1l-49.2,3.4c-0.1-0.6-0.4-1.1-0.9-1.4L474.4-48
			c0.8,0.4,1.7,0.6,2.5,0.4L489.7,12.1z"/>
	</g>
</g>
</svg>
