<?xml version="1.0" encoding="utf-8"?>
<!-- Generator: Adobe Illustrator 19.0.1, SVG Export Plug-In . SVG Version: 6.00 Build 0)  -->
<svg version="1.1" id="Layer_1" xmlns="http://www.w3.org/2000/svg" xmlns:xlink="http://www.w3.org/1999/xlink" x="0px" y="0px"
	 viewBox="0 0 432 216" style="enable-background:new 0 0 432 216;" xml:space="preserve">
<style type="text/css">
	.st0{fill:#E2E2E1;}
</style>
<g>
	<g>
		<path class="st0" d="M434.8-105.1v-2.9H432c0,1,0.5,1.9,1.4,2.5l-28.2,49.3c-0.8-0.4-1.6-0.5-2.4-0.2l-20.2-51.6h-0.1l20.2,51.7
			c-0.6,0.2-1.1,0.6-1.4,1.2c-0.1,0.2-0.2,0.3-0.2,0.5l-47.2-15.3c0.6-1.9-0.2-4-2-5c0,0-0.1,0-0.1,0l17.3-33H369l-17.1,32.6
			l-0.2,0.3c-2-1-4.5-0.3-5.7,1.7c-0.1,0.2-0.2,0.4-0.3,0.6l-46.4-17.4c0.1-0.3,0.1-0.6,0-0.9l41.4-16.9h-0.3l-41.1,16.8
			c-0.1-0.2-0.3-0.5-0.5-0.6l9.9-16.2h-0.1l-8.5,14l-1.3,2.1c-0.2-0.1-0.4-0.2-0.6-0.2v-15.9H298V-92c-0.5,0-0.9,0.3-1.2,0.7
			c-0.1,0.2-0.1,0.3-0.2,0.5l-59.2-8.1c0.1-0.8-0.2-1.6-0.7-2.3l6.2-5.9l1-0.9h-0.2l-7.1,6.7c-0.2-0.2-0.4-0.3-0.6-0.5
			c-0.9-0.5-2-0.5-2.8,0l-3.6-6.2h-0.1l3.6,6.3c-0.4,0.2-0.7,0.6-1,1c-0.1,0.2-0.2,0.5-0.3,0.8l-36.6-8.1h-0.5l37.1,8.2
			c-0.2,1.2,0.3,2.4,1.4,3.1c0.1,0.1,0.2,0.1,0.4,0.2l-14.8,39.4l-0.5,1.4c-0.6-0.2-1.3-0.1-1.9,0.2l-35.8-52.5h-0.1l35.9,52.6
			c-0.2,0.2-0.4,0.4-0.6,0.7c-0.2,0.3-0.3,0.7-0.3,1l-55.7,0c0-1.5-0.8-2.9-2.1-3.7c-0.2-0.1-0.4-0.2-0.5-0.3l19.5-50.3h-0.1
			l-19.4,50.3c-1.5-0.6-3.2-0.2-4.4,0.8l-34.8-38.4c0.1-0.1,0.2-0.2,0.2-0.3c0.2-0.3,0.2-0.7,0.2-1l45-11.4h-0.5L118-96.7
			c-0.1-0.3-0.2-0.5-0.4-0.7l8.8-10.6h-0.1l-8.7,10.5c-0.1,0-0.1-0.1-0.2-0.1c-0.5-0.3-1-0.2-1.5,0l-7-10.4h-0.1l7,10.5
			c-0.2,0.1-0.3,0.3-0.4,0.4c-0.1,0.3-0.2,0.5-0.2,0.8l-45.9,5.1c-0.2-1.3-0.9-2.5-2.1-3.2c-0.4-0.2-0.8-0.4-1.2-0.5l2.7-13.2h-0.1
			l-2.7,13.1c-1-0.2-2.1,0-3,0.5l-8.5-13.7h-0.1l8.5,13.7c-0.6,0.4-1,0.9-1.4,1.5c-0.2,0.3-0.3,0.7-0.4,1L2.8-107.3
			c0.1-0.2,0.1-0.5,0.1-0.7H0v2.9c0.5,0,1-0.1,1.4-0.4L41.9-35c-0.2,0.1-0.4,0.3-0.5,0.5c-0.1,0.1-0.1,0.2-0.1,0.3L0-45.3v0.1
			l41.2,11.1c-0.1,0.3,0,0.6,0.1,0.9L0-12.3v0.1l41.4-20.9c0.1,0.2,0.3,0.4,0.5,0.6c0.4,0.3,1,0.3,1.4,0L60.6-1.7
			c-0.4,0.2-0.8,0.6-1,1c-0.2,0.4-0.4,0.8-0.4,1.3L0-1.5v0.1l59.3,2.1c0,1,0.5,2,1.4,2.5L33.2,51.3c-1.6-0.9-3.6-0.7-4.9,0.5L0,20.2
			v0.2l28.1,31.5c-0.3,0.3-0.6,0.6-0.8,1c-0.4,0.7-0.6,1.4-0.6,2.1H0v0.1h26.8c0,1.5,0.8,2.9,2.1,3.7c0.3,0.2,0.6,0.3,0.9,0.4
			l-17.7,61.9c-0.8-0.2-1.5-0.1-2.2,0.3L0,105.4v0.2l9.8,16c-0.4,0.2-0.7,0.6-0.9,1c-0.2,0.3-0.3,0.5-0.3,0.8L0,121.7v0.1l8.6,1.7
			c-0.1,0.9,0.1,1.8,0.7,2.4L0,134.6v0.2l9.4-8.8c0.2,0.2,0.4,0.4,0.6,0.5c0.8,0.5,1.7,0.5,2.5,0.2l19.7,47.2c-0.8,0.4-1.5,1-2,1.8
			c-0.2,0.4-0.4,0.8-0.5,1.2L0,170.5v0.1l29.7,6.4c-0.2,1.2,0.1,2.5,0.8,3.5L0,205.3v0.1l30.6-24.9c0.3,0.4,0.7,0.7,1.2,1
			c1.3,0.8,2.9,0.7,4.2,0l28.3,50.8c-0.2,0.1-0.4,0.3-0.5,0.5c0,0.1-0.1,0.2-0.1,0.3l-2.3-0.7L0,214.8v0.1l63.6,18.4
			c-0.1,0.6,0.1,1.2,0.6,1.5l-30.9,50.8c0,0,0,0-0.1,0c-1.3-0.8-2.8-0.8-4.1-0.1L0,228.9v0.3l29,56.4c-0.7,0.4-1.3,0.9-1.7,1.6
			c-0.2,0.3-0.3,0.7-0.4,1L0,280.9v0.1l26.9,7.3c-0.4,1.6,0.1,3.3,1.4,4.4l-26.5,32c-0.1-0.1-0.2-0.2-0.4-0.3C1,324.1,0.5,324,0,324
			v2.9h2.9c0-0.8-0.3-1.6-1-2.2l26.5-32c0.2,0.1,0.4,0.3,0.6,0.4c1.4,0.8,3.1,0.7,4.4,0l20.9,33.8h0.1L33.4,293
			c0.6-0.4,1-0.9,1.4-1.5c0.5-0.9,0.7-1.9,0.5-2.9l39.8-7.4c0.2,0.8,0.6,1.5,1.4,1.9c0.3,0.1,0.5,0.3,0.8,0.3l-8.8,43.4h0.1
			l8.8-43.4c0.7,0.1,1.5,0,2.1-0.4l29.3,43.8h0.1L79.5,283c0.3-0.2,0.6-0.5,0.8-0.9c0.2-0.4,0.4-0.9,0.4-1.3l80,2.7
			c0,0.4,0.2,0.8,0.5,1.1l-35,42.2h0.1l35-42.2c0,0,0.1,0.1,0.2,0.1c0.4,0.2,0.8,0.2,1.2,0.1l14,35.5c-0.6,0.2-1,0.6-1.4,1.2
			c-0.4,0.7-0.5,1.4-0.3,2.1l-12.4,3.1h0.5l12-3c0.2,0.7,0.6,1.4,1.3,1.8c0.1,0.1,0.2,0.1,0.3,0.2l-0.4,1.1h0.1l0.4-1.1
			c0.9,0.3,1.8,0.2,2.6-0.3l0.9,1.4h0.1l-1-1.4c0.3-0.2,0.6-0.5,0.8-0.9c0.1-0.2,0.2-0.5,0.3-0.8l14.1,3.1h0.5l-14.6-3.2
			c0.2-1-0.2-2.1-1-2.8l24-30.9c0.1,0.1,0.3,0.2,0.5,0.3c1.4,0.8,3,0.7,4.3,0l21.2,36.6h0.1l-21.2-36.7c0.6-0.4,1.1-0.9,1.5-1.5
			c0.5-0.8,0.6-1.7,0.5-2.6l85.5-10.3c0.1,0.4,0.2,0.8,0.5,1.1l-52.7,50h0.2l52.6-49.9c0.1,0.1,0.3,0.3,0.5,0.4
			c0.3,0.2,0.7,0.3,1,0.3v49.3h0.1v-49.3c0.7,0,1.4-0.4,1.8-1.1c0.2-0.4,0.3-0.8,0.3-1.2l40.1-2.7c0,0.4,0.3,0.8,0.6,1l-32.3,53.2
			h0.1l32.3-53.1c0.5,0.3,1.2,0.2,1.6-0.1l32.2,36.3c-0.2,0.2-0.4,0.4-0.5,0.7c-0.4,0.8-0.5,1.7-0.2,2.5l-33.6,13.7h0.3l33.4-13.6
			c0.2,0.6,0.6,1,1.2,1.4c0,0,0.1,0,0.1,0l-6.2,12.2h0.1l6.2-12.2c0.7,0.4,1.5,0.4,2.3,0.1l4.7,12.1h0.1l-4.7-12.1
			c0.6-0.2,1.1-0.6,1.4-1.2c0.1-0.2,0.2-0.5,0.3-0.7l52.5,13.4c0,0.2-0.1,0.4-0.1,0.7h2.9V324c-0.5,0-1,0.1-1.4,0.4l-28.9-50.6
			c0.2-0.1,0.4-0.3,0.5-0.5c0.1-0.1,0.1-0.2,0.1-0.3l29.7,8v-0.1l-29.7-8c0.1-0.6-0.1-1.2-0.7-1.6c-0.1,0-0.1-0.1-0.2-0.1l5.2-14
			l15.2-40.7c1.1,0.4,2.4,0.3,3.4-0.2l6.7,12.9v-0.3l-6.6-12.7c0.7-0.4,1.3-0.9,1.7-1.6c0.2-0.3,0.3-0.6,0.4-0.9l4.5,1.3v-0.1
			l-4.5-1.3c0.4-1.3,0.1-2.7-0.8-3.8l5.2-4.2v-0.1l-5.3,4.3c-0.3-0.4-0.7-0.7-1.2-1c-1.2-0.7-2.7-0.7-3.9-0.2l-20-43.3
			c0.2-0.1,0.4-0.3,0.6-0.6c0.1-0.1,0.1-0.2,0.1-0.4l29.7,6.4v-0.1l-29.6-6.4c0.1-0.4,0-0.9-0.3-1.2l4.6-4.3l25.4-23.8v-0.2
			l-28.7,27l-1.3,1.2c-0.1-0.1-0.2-0.2-0.3-0.2c-0.4-0.3-1-0.2-1.4,0l-28.2-49.3c0.6-0.4,1.1-0.9,1.5-1.6c0.2-0.4,0.4-0.8,0.5-1.3
			l57.9,11.4v-0.1l-57.9-11.4c0.3-1.7-0.4-3.6-2-4.5L402.7,57c0.7,0.4,1.5,0.3,2.1,0l30,48.6v-0.2L405,56.9c0.3-0.2,0.5-0.4,0.7-0.7
			c0.2-0.3,0.3-0.7,0.3-1h28.9v-0.1h-28.9c0-0.7-0.4-1.4-1.1-1.8c-0.2-0.1-0.4-0.2-0.6-0.2l1.3-6.9l8.7-45.4
			c0.8,0.1,1.7-0.1,2.4-0.7l18.2,20.4v-0.2L420.1,3.7L416.7,0c0.2-0.2,0.4-0.4,0.5-0.7c0.2-0.4,0.4-0.8,0.4-1.3l17.2,0.6v-0.1
			l-17.2-0.6c0-0.4-0.1-0.9-0.3-1.3l17.5-8.8v-0.1l-14.4,7.3l-3.1,1.6c-0.2-0.5-0.6-0.9-1.1-1.2c-0.6-0.4-1.3-0.5-2-0.3l-9.8-45.8
			c0.7-0.2,1.4-0.6,1.8-1.4c0.1-0.2,0.2-0.4,0.3-0.6l28.3,7.6v-0.1l-28.3-7.6c0.3-1.2-0.2-2.5-1.3-3.2l28.2-49.3
			C433.9-105.2,434.4-105.1,434.8-105.1z M353.5-69c0.1-0.3,0.3-0.5,0.4-0.8L401-54.4c-0.4,1.2,0.1,2.6,1.3,3.3l-19.3,33.9
			l-9.6,16.7c-0.3-0.2-0.7-0.2-1-0.1L351.1-67C352.1-67.4,352.9-68,353.5-69z M401.7,55.5l-49.1,9.3c-0.2-0.8-0.6-1.5-1.4-1.9
			c-0.1-0.1-0.3-0.1-0.4-0.2l1.2-3.4l20.3-57.2c0.4,0.1,0.8,0.1,1.1-0.1l29.3,51.2c-0.3,0.2-0.6,0.4-0.7,0.8
			C401.7,54.5,401.6,55,401.7,55.5z M403,165l-28.9,50.6c-1-0.6-2.2-0.4-3.1,0.2l-45.3-59.8c0.3-0.2,0.5-0.5,0.7-0.8
			c0.2-0.3,0.3-0.7,0.4-1l75.6,9.5C402.3,164.2,402.5,164.7,403,165z M326.1,211.5c-0.7-0.4-1.4-0.6-2.1-0.6l0-54.2
			c0.6,0,1.2-0.2,1.6-0.6l45.3,59.8c-0.3,0.2-0.5,0.5-0.7,0.8c-0.2,0.4-0.3,0.8-0.4,1.2l-41.6-2.5
			C328.3,213.9,327.5,212.4,326.1,211.5z M325.4,151.3c-0.7-0.4-1.5-0.5-2.2-0.3l-11.9-39.5c0.5-0.2,0.9-0.5,1.2-1
			c0.2-0.3,0.3-0.7,0.3-1l55.7,0c0,1,0.4,2,1.1,2.8L326,151.8C325.8,151.6,325.6,151.5,325.4,151.3z M319.7,215.9l-68.4,11.4
			c-0.1-0.8-0.6-1.5-1.4-2l26.5-47.9c1.2,0.6,2.6,0.4,3.5-0.6l40.7,35.6c-0.2,0.2-0.3,0.4-0.4,0.6C319.7,214,319.5,215,319.7,215.9z
			 M172.9,210.9l37.6-24.7c0.1,0.2,0.3,0.3,0.5,0.4c0.5,0.3,1.2,0.2,1.6-0.1l34,39.3c-0.2,0.2-0.4,0.4-0.6,0.7
			c-0.2,0.3-0.3,0.5-0.3,0.8l-72.3-14.4C173.5,212.2,173.3,211.5,172.9,210.9z M167.9,213.5l-42.6,18.4c-0.4-0.8-1-1.5-1.8-2
			c-0.4-0.2-0.7-0.4-1.1-0.5l12.2-52.4c0.7,0.1,1.4-0.1,1.9-0.5l1.2,1.3l30.7,32.5c-0.2,0.2-0.3,0.4-0.5,0.6
			C167.6,211.7,167.5,212.7,167.9,213.5z M129,16.6l52-30.2c0.2,0.4,0.6,0.8,1,1c0.1,0.1,0.2,0.1,0.3,0.2l-23.7,59l-2.4,5.9
			c-0.9-0.4-1.9-0.2-2.7,0.4l-25.2-33.5c0.2-0.2,0.4-0.4,0.5-0.6C129.4,18,129.3,17.2,129,16.6z M226.7,4.5c0.4,0.2,0.8,0.4,1.2,0.5
			l-13,59c-0.2,0-0.5,0-0.7,0.1l-29.5-76.4c0.6-0.2,1.1-0.7,1.4-1.2c0.1-0.1,0.1-0.3,0.2-0.4l38.6,13.5
			C224.1,1.3,224.9,3.5,226.7,4.5z M232.3-1.8l9.6-7.5l29.7-23.2c0.2,0.3,0.5,0.5,0.8,0.7c1.2,0.7,2.6,0.4,3.5-0.5l47.7,44.2
			c-0.2,0.2-0.4,0.5-0.5,0.7c-0.3,0.5-0.4,1-0.5,1.5L233.1,1.3C233.2,0.2,232.9-0.9,232.3-1.8z M232.5,2.9c0.3-0.5,0.4-1,0.5-1.5
			l89.5,12.7c-0.2,1.4,0.4,2.9,1.4,3.8l-45.5,54.4c-0.1-0.1-0.2-0.2-0.4-0.3c-0.9-0.6-2.1-0.5-3,0.1L231.2,4.4
			C231.8,4,232.2,3.5,232.5,2.9z M330.9,13.5l40.4-12.3c0.1,0.3,0.3,0.6,0.6,0.8c0.1,0,0.1,0.1,0.2,0.1l-21.5,60.5
			c-0.7-0.2-1.4-0.2-2.1,0.1l-20-44.1c0.8-0.4,1.4-1,1.9-1.7C331.1,15.8,331.2,14.6,330.9,13.5z M348.5,62.8
			c-0.5,0.2-0.9,0.6-1.2,1.2c-0.3,0.5-0.4,1.2-0.4,1.7l-67.4,8.5c-0.1-0.7-0.4-1.3-0.9-1.8L324.1,18c0.2,0.1,0.4,0.3,0.6,0.4
			c1.2,0.7,2.7,0.7,3.9,0.2L348.5,62.8z M321.3,155l-40.9,18.7c-0.2-0.5-0.6-1-1.2-1.3c0,0-0.1,0-0.1,0l30.5-61
			c0.5,0.2,1,0.3,1.5,0.1l11.9,39.5c-0.6,0.2-1.2,0.7-1.6,1.3C321,153.2,321,154.1,321.3,155z M275,175.3l-61.9,9.7
			c-0.1-0.3-0.2-0.6-0.4-0.8l0.5-0.6l35.4-40.8c0.2,0.2,0.4,0.3,0.6,0.5c1.5,0.9,3.4,0.7,4.7-0.3l22.2,29.6
			c-0.3,0.2-0.5,0.5-0.7,0.8C275,174.1,274.9,174.7,275,175.3z M136.3,173.1l42.9-67.9c0,0,0,0,0.1,0c0.8,0.4,1.6,0.5,2.4,0.2
			l29.5,78.5c-0.3,0.1-0.5,0.3-0.7,0.6c-0.1,0.2-0.1,0.3-0.2,0.5l-73.1-9.9C137.3,174.4,137,173.6,136.3,173.1z M79.7,158.7l39-48.2
			c0.2,0.1,0.3,0.3,0.5,0.4c0.9,0.5,2,0.7,3,0.5l12.4,61.5c-0.6,0.1-1.1,0.5-1.4,1c-0.1,0.2-0.2,0.3-0.2,0.5l-52.3-12.8
			C80.9,160.5,80.5,159.4,79.7,158.7z M213.5,66.4l-30.2,33.3l-0.8,0.9c-0.1-0.1-0.3-0.2-0.5-0.3c-0.9-0.5-1.9-0.5-2.7-0.1
			l-22.6-42.6c0.4-0.2,0.8-0.6,1.1-1.1c0.2-0.3,0.3-0.6,0.3-0.9l55,9.5C213.1,65.6,213.2,66.1,213.5,66.4z M275.2,77.1
			c0.1,0.1,0.2,0.1,0.3,0.2l-22.7,58.2c-1.1-0.4-2.4-0.4-3.4,0.1l-34.2-69c0.2-0.1,0.4-0.3,0.5-0.5c0.1-0.1,0.1-0.3,0.2-0.5
			l57.9,8.6C273.7,75.4,274.2,76.5,275.2,77.1z M308.6,110.4l-53.5,27.2c-0.4-0.7-0.9-1.3-1.7-1.8c-0.2-0.1-0.3-0.2-0.5-0.3
			l22.7-58.2c1,0.4,2.2,0.1,3-0.6L309,108c-0.1,0.1-0.2,0.3-0.3,0.4C308.4,109,308.4,109.8,308.6,110.4z M249.4,135.7
			c-0.7,0.4-1.3,0.9-1.7,1.7c0,0,0,0.1-0.1,0.1l-64.4-33.4c0.6-1.1,0.3-2.5-0.6-3.4l31-34.2c0.1,0.1,0.1,0.1,0.2,0.1
			c0.4,0.2,0.9,0.2,1.3,0.1L249.4,135.7z M179.2,100.3c-0.4,0.2-0.8,0.6-1.1,1.1c-0.3,0.5-0.4,1.1-0.4,1.6l-52.1,3.8
			c-0.1-1.3-0.8-2.5-1.9-3.2l30-45.9c0,0,0.1,0,0.1,0.1c0.9,0.5,1.9,0.5,2.7,0.1L179.2,100.3z M123.7,103.4c-0.1,0-0.1-0.1-0.2-0.1
			c-1.5-0.9-3.4-0.7-4.7,0.3l-40-53.1c0.1-0.1,0.2-0.2,0.3-0.4c0.1-0.2,0.2-0.4,0.2-0.6l73.1,5.5c-0.1,1,0.4,2,1.2,2.5L123.7,103.4z
			 M122.3,111.3c1.1-0.3,2.2-1,2.8-2.1c0.4-0.8,0.6-1.6,0.6-2.4l52.1-3.8c0.1,0.8,0.5,1.6,1.3,2.1l-37.3,59l-5.6,8.8c0,0,0,0,0,0
			c-0.5-0.3-1-0.3-1.4-0.3L122.3,111.3z M181.7,105.5c0.6-0.2,1.1-0.7,1.4-1.2c0,0,0,0,0-0.1l64.4,33.4c-0.9,1.8-0.4,3.9,1,5.2
			L215,181.4l-2.4,2.8c-0.1,0-0.1-0.1-0.2-0.1c-0.4-0.2-0.8-0.2-1.2-0.1L181.7,105.5z M254,143c0.4-0.3,0.8-0.8,1.1-1.3
			c0.7-1.3,0.7-2.8,0.1-4.1l53.5-27.2c0.2,0.3,0.5,0.6,0.8,0.9c0,0,0,0,0.1,0l-30.5,61c-1-0.5-2.1-0.3-2.9,0.3L254,143z
			 M309.1,107.9l-30.4-31.2c0.2-0.2,0.3-0.4,0.4-0.6c0.3-0.6,0.4-1.2,0.4-1.7l67.4-8.5c0.1,0.6,0.4,1.2,0.9,1.7L312,107.8
			c-0.1-0.1-0.2-0.2-0.3-0.2C310.8,107.1,309.8,107.2,309.1,107.9z M275.1,72.2c-0.3,0.2-0.6,0.6-0.9,0.9c-0.2,0.3-0.3,0.6-0.3,1
			L216,65.5c0.1-0.6-0.2-1.1-0.7-1.4c-0.1-0.1-0.2-0.1-0.3-0.1l13-59c1.1,0.2,2.2,0,3.2-0.6L275.1,72.2z M214,64.1
			c-0.3,0.1-0.5,0.3-0.7,0.6c-0.1,0.1-0.1,0.3-0.2,0.4l-55-9.5c0.2-1.1-0.3-2.3-1.4-2.9c-0.1-0.1-0.2-0.1-0.3-0.2l26-64.9
			c0.7,0.3,1.4,0.3,2,0L214,64.1z M153.5,52.8c-0.3,0.2-0.5,0.5-0.7,0.8c-0.2,0.4-0.3,0.8-0.4,1.2l-73.1-5.5c0-0.3-0.1-0.5-0.2-0.8
			l46.2-29.8c0.2,0.3,0.4,0.5,0.7,0.7c0.8,0.4,1.7,0.4,2.3-0.1L153.5,52.8z M125.2,16.5c-0.1,0.2-0.2,0.3-0.2,0.5L64.9,1.4
			c0.3-1.2-0.2-2.5-1.4-3.2c-0.1-0.1-0.2-0.1-0.3-0.2l16.5-43.2c0.9,0.3,1.8,0.2,2.6-0.3l43.5,61.3C125.6,16,125.4,16.2,125.2,16.5z
			 M64.6,2.2c0.1-0.2,0.2-0.4,0.3-0.7L125,17.1c-0.1,0.6,0,1.1,0.3,1.6L82.5,46.3L79,48.5c-0.1-0.2-0.3-0.3-0.5-0.4
			c-0.3-0.2-0.7-0.2-1.1-0.1L63.1,3.5C63.7,3.3,64.2,2.8,64.6,2.2z M78.7,50.5l40,53.2c-0.4,0.3-0.8,0.8-1.1,1.2
			c-0.3,0.5-0.5,1.1-0.5,1.7L53,100c0-0.5-0.2-1.1-0.7-1.3l0,0l24.9-48C77.7,50.9,78.3,50.8,78.7,50.5z M52.8,100.6
			c0.1-0.2,0.2-0.3,0.2-0.5l64.1,6.6c-0.1,1.4,0.4,2.8,1.5,3.7l-32.8,40.7l-6.1,7.6c-0.1-0.1-0.2-0.2-0.3-0.2
			c-0.8-0.5-1.7-0.5-2.5-0.2l-24.6-57C52.5,101.1,52.7,100.9,52.8,100.6z M79.3,163.4l39.8,66.6c-0.6,0.4-1.1,0.9-1.5,1.5
			c-0.4,0.7-0.6,1.4-0.6,2.1H66.4c0-0.5-0.3-0.9-0.7-1.2c-0.1-0.1-0.3-0.1-0.4-0.2l12.1-68.5C78.1,163.9,78.7,163.8,79.3,163.4z
			 M79.4,163.4c0.4-0.2,0.7-0.6,1-1c0.1-0.2,0.2-0.5,0.3-0.7l52.3,12.8c-0.2,0.9,0.2,1.9,1,2.3c0.2,0.1,0.3,0.2,0.5,0.2l-12.1,51.8
			l-0.1,0.6c-1.1-0.2-2.2-0.1-3.1,0.5L79.4,163.4z M136.6,176.5c0.1-0.1,0.2-0.3,0.3-0.4c0.1-0.2,0.2-0.5,0.3-0.7l73.1,9.9
			c0,0.3,0,0.6,0.2,0.9l-30.6,20.1l-7,4.6c-0.2-0.4-0.5-0.7-0.9-0.9c-1.1-0.6-2.5-0.5-3.4,0.4L136.6,176.5z M212.7,186.4
			c0.1-0.1,0.2-0.2,0.3-0.3c0.2-0.3,0.2-0.6,0.2-0.9l61.9-9.7c0.1,0.8,0.6,1.5,1.4,2l-26.5,47.9c-1.1-0.6-2.3-0.4-3.2,0.3
			L212.7,186.4z M280,176.8c0.1-0.1,0.2-0.3,0.3-0.4c0.5-0.8,0.5-1.8,0.1-2.6l40.9-18.7c0.2,0.5,0.6,1,1.2,1.3
			c0.4,0.3,0.9,0.4,1.4,0.4l0,54.2c-1.2,0-2.3,0.5-3.2,1.5L280,176.8z M369,107.3c-0.4,0.7-0.6,1.4-0.6,2.1h-55.7
			c0-0.6-0.2-1.1-0.7-1.5l2.9-3.2l33-37.1c0.1,0.1,0.3,0.2,0.4,0.3c0.9,0.5,1.9,0.5,2.7,0.1l19.6,37.7
			C370,106,369.4,106.6,369,107.3z M351-67l21.2,66.4c-0.3,0.1-0.6,0.3-0.7,0.6c-0.2,0.3-0.2,0.7-0.1,1.1l-40.4,12.3
			c-0.3-1-1-1.9-1.9-2.5c-0.3-0.2-0.6-0.3-1-0.4l20.7-77.5C349.5-66.7,350.3-66.8,351-67z M347.6-67.4c0.3,0.2,0.6,0.3,1,0.4
			L329.4,4.6l-1.6,5.9c-1.5-0.4-3.1,0.1-4.2,1.2L276-32.4c0.1-0.1,0.2-0.3,0.3-0.5c0.5-0.8,0.5-1.8,0.1-2.6l69.5-33.7
			C346.3-68.5,346.8-67.8,347.6-67.4z M299.3-89.8c0-0.1,0.1-0.1,0.1-0.2l2.8,1.1l43.5,16.3c-0.4,1.1-0.3,2.3,0.1,3.3l-69.5,33.7
			c-0.2-0.5-0.6-0.9-1.1-1.2c-0.1,0-0.2-0.1-0.2-0.1l22.5-52.2C298.1-89,298.9-89.2,299.3-89.8z M237-97.7c0.2-0.3,0.3-0.7,0.3-1
			l59.2,8.1c-0.1,0.5,0.2,1.1,0.7,1.4c0,0,0.1,0,0.1,0l-18.8,43.5l-3.7,8.7c-0.8-0.4-1.8-0.3-2.5,0.2l-36.3-59.9
			C236.5-97,236.8-97.3,237-97.7z M218.6-56.5l15-39.9c0.8,0.3,1.7,0.2,2.4-0.2l36.3,59.9c-0.4,0.2-0.7,0.6-0.9,1
			c-0.1,0.2-0.2,0.3-0.2,0.5L219.5-53c0.3-0.9-0.1-2-1-2.5c-0.1,0-0.2-0.1-0.3-0.1L218.6-56.5z M219.3-52.5c0.1-0.1,0.1-0.2,0.2-0.3
			l51.6,17.6c-0.3,0.9-0.1,1.9,0.4,2.6L232.2-1.9c-0.3-0.4-0.7-0.8-1.2-1.1c-0.9-0.5-2-0.7-3-0.5l-10.1-48
			C218.5-51.6,219-52,219.3-52.5z M216.3-51.7c0.5,0.3,1,0.3,1.5,0.3l10.1,48c-1.1,0.3-2.2,1-2.8,2.1c-0.1,0.2-0.2,0.5-0.3,0.7
			l-38.6-13.5c0.3-1.1,0-2.3-0.8-3L216-51.9C216.1-51.9,216.2-51.8,216.3-51.7z M159-51.4c0.4-0.7,0.6-1.4,0.6-2.1h55.7
			c0,0.6,0.3,1.1,0.7,1.5l-30.6,34.7c-0.1-0.1-0.3-0.2-0.4-0.3c-1-0.6-2.2-0.5-3.1,0.1l-23.9-32.7C158.3-50.5,158.7-50.9,159-51.4z
			 M157.8-50.1l23.9,32.7c-0.3,0.2-0.5,0.5-0.7,0.8c-0.5,0.9-0.5,2,0,2.8l-52,30.2c-0.2-0.3-0.4-0.6-0.8-0.7c-0.1,0-0.1-0.1-0.2-0.1
			l25.8-65.1C155.1-49,156.7-49.2,157.8-50.1z M153.1-49.8c0.2,0.1,0.3,0.2,0.5,0.2l-25.8,65.1c-0.7-0.2-1.4-0.1-1.9,0.2L82.4-45.5
			c0.3-0.2,0.6-0.5,0.8-0.9c0.3-0.5,0.4-1.1,0.4-1.6l67.4-5.2C151.1-51.8,151.9-50.6,153.1-49.8z M115.8-95.1
			C115.8-95.1,115.8-95.1,115.8-95.1c0.6,0.4,1.3,0.3,1.7-0.1l34.8,38.4c-0.3,0.3-0.6,0.6-0.8,1c-0.4,0.8-0.6,1.6-0.6,2.4l-67.4,5.2
			c-0.1-0.8-0.5-1.5-1.1-2L115.8-95.1z M68.7-88.4c0.5-0.8,0.6-1.7,0.6-2.6l45.9-5.1c0.1,0.3,0.2,0.7,0.5,0.9l-33.3,45
			c-0.1-0.1-0.2-0.1-0.2-0.2c-0.8-0.4-1.6-0.5-2.4-0.2l-13.3-36C67.4-86.9,68.2-87.5,68.7-88.4z M42-35L1.5-105.5
			c0.4-0.2,0.7-0.6,1-1c0.1-0.2,0.2-0.4,0.3-0.7l58.1,15.5c-0.5,1.8,0.3,3.8,2,4.8c0.2,0.1,0.3,0.2,0.5,0.2L47.2-45.4l-4.1,10.3
			C42.7-35.2,42.3-35.2,42-35z M43.2-35.1l20.2-51.4c1,0.4,2,0.4,3,0l13.3,36c-0.6,0.2-1.1,0.7-1.4,1.2c-0.4,0.8-0.5,1.6-0.2,2.4
			L44-34.3c-0.1-0.3-0.3-0.5-0.6-0.7C43.3-35,43.3-35,43.2-35.1z M43.4-32.5c0.2-0.1,0.4-0.3,0.5-0.5c0.2-0.4,0.2-0.8,0.1-1.2
			l34.1-12.6c0.2,0.6,0.6,1.1,1.2,1.5c0.1,0.1,0.2,0.1,0.3,0.2L63.1-2c-0.8-0.3-1.6-0.2-2.3,0.2L43.4-32.5z M60.7,3.3
			c0.7,0.4,1.5,0.5,2.2,0.2L77.4,48c-0.3,0.1-0.6,0.3-0.7,0.6c-0.2,0.3-0.2,0.6-0.2,0.8l-41.1,5.1c-0.2-1.3-0.9-2.4-2.1-3.1
			L60.7,3.3z M34.8,57.3c0.5-0.8,0.6-1.8,0.5-2.6l41.1-5.1c0.1,0.4,0.3,0.8,0.7,1h0L52.8,97.4l-0.6,1.2c-0.4-0.2-0.8-0.2-1.2,0
			L32.9,59C33.7,58.7,34.3,58.1,34.8,57.3z M12.3,121.2l17.7-61.9c1,0.3,2,0.2,2.9-0.2l18.1,39.5c-0.2,0.1-0.4,0.3-0.6,0.6
			c-0.3,0.5-0.2,1,0,1.4l-36.5,21.8c-0.2-0.4-0.6-0.7-1-1C12.7,121.4,12.5,121.3,12.3,121.2z M32.3,173.8l-19.7-47.2
			c0.5-0.2,1-0.6,1.3-1.2c0.5-0.9,0.5-2,0-2.9l36.5-21.9c0.1,0.2,0.3,0.3,0.5,0.5c0.1,0.1,0.2,0.1,0.3,0.1l-16.4,72.3
			C34,173.4,33.1,173.5,32.3,173.8z M34.9,173.6L34.9,173.6l16.4-72.3c0.3,0,0.5,0,0.8-0.1l24.6,57c-0.5,0.2-1,0.6-1.3,1.2
			c-0.4,0.8-0.5,1.7-0.2,2.4l-37.3,14.3c-0.3-0.9-1-1.7-1.8-2.2C35.7,173.9,35.3,173.7,34.9,173.6z M36.1,181.6
			c0.6-0.4,1.2-0.9,1.6-1.6c0.7-1.2,0.7-2.5,0.3-3.7L75.2,162c0.2,0.6,0.6,1.1,1.2,1.4c0.3,0.2,0.6,0.3,0.9,0.3l-12.1,68.5
			c-0.3,0-0.6,0-0.8,0.1L36.1,181.6z M75.4,279.2c-0.3,0.6-0.4,1.3-0.3,1.9l-39.8,7.4c-0.2-1.1-0.9-2.2-1.9-2.8l2.4-4l28.5-46.8
			c0.3,0.2,0.7,0.2,1,0.1l11.7,42.8C76.4,278.1,75.8,278.6,75.4,279.2z M79.3,278.2c-0.7-0.4-1.4-0.5-2.1-0.3L65.4,235
			c0.3-0.1,0.6-0.3,0.8-0.7c0.1-0.2,0.2-0.4,0.2-0.7l50.7,0c0,1.1,0.5,2.3,1.3,3.1l-32.2,34.8l-6.4,6.9
			C79.6,278.4,79.5,278.3,79.3,278.2z M160.9,282.9c-0.1,0.2-0.2,0.4-0.2,0.6l-80-2.7c0-0.8-0.3-1.6-0.9-2.1l38.6-41.7
			c0.2,0.2,0.5,0.4,0.7,0.6c1.6,0.9,3.5,0.7,4.8-0.4l37.1,45.4C161.1,282.6,161,282.7,160.9,282.9z M161.3,282.4L124.2,237
			c0.4-0.3,0.7-0.7,0.9-1.1c0.7-1.2,0.7-2.6,0.2-3.8l42.6-18.4c0.2,0.5,0.6,1,1.2,1.3c0.3,0.2,0.7,0.3,1,0.4l-7.9,66.9
			C161.9,282.1,161.6,282.2,161.3,282.4z M180.7,319.2l-1.3,1.6c-0.1-0.1-0.2-0.1-0.3-0.2c-0.8-0.5-1.7-0.5-2.4-0.2l-14-35.5
			c0.3-0.1,0.5-0.3,0.7-0.6c0.1-0.2,0.2-0.4,0.2-0.6l38.3,2.5c-0.1,1.4,0.5,2.7,1.6,3.6L180.7,319.2z M202.4,284.3
			c-0.3,0.6-0.5,1.2-0.6,1.8l-38.3-2.5c0-0.5-0.2-1-0.7-1.3c-0.2-0.1-0.3-0.1-0.5-0.2l7.9-66.9c0.5,0.1,1,0,1.5-0.3l32.5,67.6
			C203.5,283,202.9,283.5,202.4,284.3z M208.3,282.7c-1.3-0.7-2.7-0.7-4-0.2L171.8,215c0.5-0.2,0.9-0.6,1.2-1.1
			c0.2-0.3,0.3-0.5,0.3-0.8l72.3,14.4c-0.2,1,0.2,2.1,1.1,2.8l-38.1,52.8C208.5,282.9,208.4,282.8,208.3,282.7z M296.2,274.3
			c-0.2,0.4-0.3,0.9-0.3,1.3l-85.5,10.3c-0.1-1.1-0.7-2.2-1.7-2.9l6.5-8.9l31.6-43.8c0.1,0,0.1,0.1,0.2,0.1c1.2,0.7,2.6,0.4,3.5-0.5
			l45.9,44.1C296.3,274.1,296.2,274.2,296.2,274.3z M296.5,273.9l-45.9-44.1c0.1-0.2,0.3-0.3,0.4-0.5c0.3-0.6,0.4-1.2,0.4-1.9
			l68.4-11.4c0.2,1.2,0.9,2.3,2.1,3c0.1,0.1,0.3,0.1,0.4,0.2L299,272.9l-0.2,0.5C298,273.1,297.1,273.3,296.5,273.9z M340.4,271.8
			c-0.1,0.2-0.2,0.5-0.2,0.8l-40.1,2.7c-0.1-0.7-0.4-1.3-1.1-1.7c-0.1,0-0.1-0.1-0.2-0.1l3.6-8.2l19.8-45.9c0.9,0.4,2,0.4,2.9,0.2
			l16,51.7C340.9,271.3,340.6,271.5,340.4,271.8z M341.3,271.1l-16-51.7c1-0.3,1.8-1,2.4-2c0.3-0.6,0.5-1.2,0.6-1.9l41.6,2.5
			c0,1,0.5,2,1.4,2.6L346,264.7l-3.7,6.5C342,271.1,341.6,271,341.3,271.1z M342.4,271.3l2.7-4.7l26.2-45.9c0.9,0.5,1.9,0.5,2.8,0
			l28.9,50.6c-0.2,0.1-0.4,0.3-0.5,0.5c-0.1,0.2-0.2,0.4-0.2,0.7h-59.3C343.1,272,342.8,271.6,342.4,271.3z M378.2,309.6
			c-1.1-0.6-2.4-0.5-3.3,0.3l-32.2-36.4c0.1-0.1,0.2-0.2,0.2-0.3c0.1-0.2,0.2-0.4,0.2-0.7h59.3c0,0.4,0.2,0.8,0.6,1.1l-23.9,35
			l-0.7,1C378.3,309.7,378.2,309.6,378.2,309.6z M404.4,273.8l28.9,50.6c-0.4,0.2-0.7,0.6-1,1c-0.1,0.2-0.2,0.4-0.3,0.7l-52.5-13.4
			c0.3-1.1-0.2-2.3-1.1-3l24.6-36c0,0,0,0,0,0C403.5,274,404,274,404.4,273.8z M424.7,216.4l-20.4,54.6l0,0.1
			c-0.4-0.1-0.8-0.1-1.1,0.1l-28.9-50.6c0.4-0.2,0.7-0.6,1-1c0.3-0.5,0.4-1.1,0.4-1.7l46.4-5c0.2,1.3,0.9,2.5,2.1,3.2
			C424.3,216.3,424.5,216.3,424.7,216.4z M403.1,165.1c0.4,0.2,0.8,0.2,1.2,0.1l20,43.3c-0.8,0.4-1.4,1-1.9,1.7
			c-0.5,0.8-0.6,1.7-0.6,2.6l-46.4,5c-0.1-0.8-0.6-1.6-1.4-2.1L403.1,165.1z M403,162.6c-0.2,0.1-0.4,0.3-0.5,0.5
			c-0.1,0.2-0.1,0.3-0.2,0.5l-75.6-9.5c0.1-0.8-0.2-1.6-0.7-2.2l4-3.6l39.4-35.9c0.3,0.3,0.6,0.6,1,0.8c1.4,0.8,3,0.7,4.2,0
			L403,162.6z M374.8,105.7c-1.3-0.7-2.8-0.7-4-0.1l-19.6-37.7c0.4-0.2,0.8-0.6,1.1-1.1c0.3-0.6,0.5-1.3,0.3-1.9l49.1-9.3
			c0.1,0.6,0.5,1.1,1,1.4L374.8,105.7z M404.1,53c-0.5-0.1-1,0-1.4,0.2L373.5,2c0.2-0.1,0.4-0.3,0.5-0.5c0.1-0.2,0.2-0.5,0.2-0.8
			l37.8-2.6c0.1,0.9,0.6,1.8,1.4,2.3c0.3,0.2,0.5,0.3,0.8,0.3L404.1,53z M414.1-4.9c-0.7,0.2-1.4,0.6-1.8,1.4
			c-0.3,0.5-0.4,1-0.4,1.6l-37.8,2.6c0-0.4-0.3-0.8-0.7-1.1l28.9-50.6c0.6,0.3,1.3,0.4,1.9,0.3L414.1-4.9z"/>
	</g>
</g>
</svg>
