<?xml version="1.0" encoding="utf-8"?>
<!-- Generator: Adobe Illustrator 19.0.1, SVG Export Plug-In . SVG Version: 6.00 Build 0)  -->
<svg version="1.1" id="Layer_1" xmlns="http://www.w3.org/2000/svg" xmlns:xlink="http://www.w3.org/1999/xlink" x="0px" y="0px"
	 viewBox="0 0 432 216" style="enable-background:new 0 0 432 216;" xml:space="preserve">
<style type="text/css">
	.st0{fill:#FFFFFF;}
</style>
<g>
	<g>
		<polygon class="st0" points="6,191 8,187 56.3,86.5 57.6,83.9 54.9,83.1 -0.2,65.9 -0.2,71.3 50.7,87 6.1,181.1 -0.2,167.3 
			-0.2,177.1 4.2,186.9 		"/>
		<polygon class="st0" points="7.8,229 10.8,222.9 85.4,74.3 87.3,70.5 83.2,69.4 -0.2,44.8 -0.2,52.4 77.2,75 8,213.9 -0.2,196.5 
			-0.2,211.8 4.9,222.8 		"/>
		<polygon class="st0" points="6.2,23.1 2,19.2 -0.2,17.1 -0.2,21.1 0.8,21.4 		"/>
		<polygon class="st0" points="6,156.5 6.9,154.7 36.2,93.2 37,91.7 35.3,91.4 -0.2,85.4 -0.2,88.3 33.2,93.7 6.1,152.1 -0.2,137.9 
			-0.2,142 5.2,154.7 		"/>
		<polygon class="st0" points="6.1,133.1 6.2,132.6 13.7,101.8 13.8,101.5 13.4,101.4 -0.2,99 -0.2,100 12.9,102.1 6,132 
			-0.2,117.3 -0.2,117.6 5.9,132.6 		"/>
		<polygon class="st0" points="64.7,50.5 56.7,43.4 -0.2,-7.5 -0.2,-0.7 45.2,40.4 -0.2,29.7 -0.2,35.6 54.3,48.1 		"/>
		<polygon class="st0" points="72.3,238.4 68.9,238.3 -0.2,235.4 -0.2,242.9 65.2,245.7 70.6,316.1 78.1,316.1 72.5,241.8 		"/>
		<polygon class="st0" points="8.7,316.1 8.8,316.1 8.4,308.5 		"/>
		<polygon class="st0" points="53.4,253.8 50.6,253.7 -0.2,251.9 -0.2,258 47.5,259.9 51.8,316.1 58.3,316.1 53.6,256.6 		"/>
		<polygon class="st0" points="37.5,278.4 35.9,278.3 -0.2,274 -0.2,277.6 33.9,281.9 36.9,316.1 40.9,316.1 37.6,280 		"/>
		<polygon class="st0" points="27.3,300.8 26.7,300.7 -0.2,296.1 -0.2,297.3 25.9,302 25.8,316.1 27.4,316.1 27.3,301.4 		"/>
		<polygon class="st0" points="147.7,290.4 141.2,309.5 148,290.3 148.1,290.1 147.9,290.1 134.7,291.1 134.5,291.1 134.5,291.3 
			135.5,316.1 136.2,316.1 135,291.5 		"/>
		<polygon class="st0" points="136.3,-91.4 137.2,-92.7 151.2,-113.6 149.7,-113.6 137.2,-94.6 136.2,-113.6 135.5,-113.6 
			136.3,-93 		"/>
		<polygon class="st0" points="123,-42 126.1,-46.6 170.1,-113.6 165.4,-113.6 126.2,-53.1 125.4,-113.6 122.6,-113.6 123,-47.5 		
			"/>
		<polygon class="st0" points="221.7,88.1 230.8,103.3 231,103.6 231.1,103.3 240.2,71 240.4,70.4 239.8,70.6 209.4,79.5 
			208.8,79.7 209.1,80.2 230.2,130.9 231,132.9 231.8,130.9 260.3,55.2 261.1,53.2 258.9,53.5 191.1,64.3 189.2,64.6 189.9,66.5 
			224.9,159.6 226.5,163.9 228.5,159.8 288.6,39.7 290.6,35.6 286.1,36.1 169.8,48.9 166.3,49.3 167.5,52.7 219.7,200.4 
			222.1,207.3 225.5,200.8 318.8,21.8 321.7,16.2 315.4,16.6 141,28.8 136.1,29.2 137.8,33.8 203.2,212 28.8,221.5 117.5,46.7 
			184.4,189.6 56,206.7 117.4,81.2 161,183.4 77,195 113.7,104.4 147.4,164.3 90.6,180 116.6,134.2 129.5,154.8 109.5,164.9 
			129.8,155 129.9,154.9 129.8,154.7 116.8,133.4 116.6,133 116.3,133.4 88.7,180.8 87.9,182.2 89.5,181.7 149.2,165.9 150.4,165.6 
			149.8,164.4 114.7,100.6 113.4,98.1 112.3,100.7 72.4,196.6 71.2,199.5 74.4,199.1 164.4,187.3 167.2,186.9 166.1,184.3 120,74 
			117.8,68.7 115.2,73.8 48.2,209.1 45.7,214.1 51.3,213.4 189.8,195.5 194.2,194.9 192.3,190.8 120.8,37.1 117.7,30.5 114.4,37 
			19.2,223.9 16.3,229.7 22.8,229.3 208.7,219.3 213.9,219 212.1,214.2 146.4,35.9 309.6,24.1 223.2,191.3 174,54.1 282.1,41.6 
			227,153.9 193.5,67.1 257.1,56.4 230.9,128.3 210.3,80.4 239.4,71.5 230.9,103 		"/>
		<polygon class="st0" points="124.4,24 131.5,23.4 299.8,8.5 303.6,8.2 302.9,4.4 280.8,-113.6 273.4,-113.6 295.4,1.9 138,16.3 
			233.2,-113.6 226.3,-113.6 128.7,18.3 		"/>
		<polygon class="st0" points="168.4,-0.6 242.3,-99 260.9,-28.2 202.1,-22.1 240.7,-65 244.8,-40.5 225.7,-35.4 245,-40.3 
			245.1,-40.3 245.1,-40.5 241.2,-65.8 241.1,-66.4 240.7,-65.9 200,-21.7 198.8,-20.4 200.5,-20.6 262.2,-26.3 263.4,-26.4 
			263.1,-27.5 244.2,-102.4 243.5,-105.2 241.8,-102.9 162.5,0.9 159.7,4.6 164.4,3.9 274.6,-11.9 276.8,-12.2 276.5,-14.5 
			261.7,-113.6 256.4,-113.6 271.6,-16.1 		"/>
		<polygon class="st0" points="69.2,24.1 68.5,14.9 58.3,-113.6 51.8,-113.6 60.9,6.2 -0.2,-53.8 -0.2,-43.9 62.6,17.6 		"/>
		<polygon class="st0" points="91.7,64.8 91,55.3 78.1,-113.6 70.6,-113.6 82.8,46.4 -0.2,-31.1 -0.2,-21.2 84.7,58.3 		"/>
		<polygon class="st0" points="97.3,52.6 103.5,43.6 210.9,-113.6 201.9,-113.6 103.5,30.3 94.1,-113.6 86.6,-113.6 96.6,41.7 		"/>
		<polygon class="st0" points="48.6,-29.8 48.1,-35.6 40.9,-113.6 36.9,-113.6 43.1,-41 -0.2,-81.4 -0.2,-74.8 44.3,-33.7 		"/>
		<path class="st0" d="M16.7-78c1.4,1.3,2.8,2.7,4.3,4c0.7,0.7,6.6,6,6.6,6l0-13.8l-0.1-31.9h-1.6l-0.1,31.9l0,9.2
			c-0.4-0.3-2.6-2.3-3.3-3c-1.4-1.3-2.8-2.7-4.2-4C12.6-84.9,7.2-90.4,1.7-96c-0.6-0.7-1.3-1.3-1.9-2v3.3c0.1,0.1,0.2,0.2,0.3,0.3
			C5.6-88.9,11.1-83.4,16.7-78z"/>
		<polygon class="st0" points="9.6,-95.6 9.6,-96 8.8,-113.6 8.7,-113.6 9.3,-96.5 -0.2,-107.7 -0.2,-107 9.3,-95.9 		"/>
		<polygon class="st0" points="109.7,6.3 115,-1.3 193.8,-113.6 185.8,-113.6 115.3,-12.4 112.7,-113.6 107.1,-113.6 109.5,-3 		"/>
		<polygon class="st0" points="325.9,14.4 329.1,21.7 416.5,221.4 237.1,209.9 323.6,54.3 389,198.9 258.6,194.2 322.2,84 
			366.2,182.9 278.6,183.2 322.3,104.3 349,168.8 296,174.2 322.8,127.5 333.9,160.4 311.9,164.1 319.8,141.6 311.5,164.3 
			311.4,164.5 311.7,164.5 334.4,161 334.7,160.9 334.6,160.6 323.5,126.1 323.1,124.9 322.5,126 293.7,174.8 292.8,176.2 
			294.5,176 350.7,170.9 352.3,170.8 351.7,169.3 323.9,100.3 322.7,97.4 321.2,100.1 273.7,184.2 272.1,187.1 275.4,187.1 
			369.7,187.4 373.1,187.4 371.7,184.3 324.9,77.1 322.9,72.4 320.2,76.9 251.1,195.5 248.6,199.7 253.5,199.9 394,205.7 
			399.3,205.9 397.1,201 327.1,45 324.2,38.6 320.8,44.7 227.7,211.5 224.8,216.6 230.7,217 422.3,229.4 428.5,229.8 426,224.1 
			339.1,26 429.5,52.4 429.5,44.8 333.5,16.6 		"/>
		<polygon class="st0" points="296.1,-113.6 289.4,-113.6 307.7,5.5 308,7.6 310.1,8.1 429.5,35.6 429.5,29.7 313.6,2.5 		"/>
		<polygon class="st0" points="349.9,40.9 352.6,46.8 429.5,211.8 429.5,196.5 360.5,50.1 429.5,71.3 429.5,65.9 356,42.8 		"/>
		<polygon class="st0" points="310.9,-113.6 307.4,-113.6 307.7,-111.5 321.5,-12.9 321.7,-11.8 322.7,-11.4 429.5,21.1 429.5,17.1 
			330.6,-75 329.1,-76.4 329.4,-74.4 337.2,-23.7 337.3,-23.4 337.5,-23.3 371.4,-12.9 372.2,-12.7 371.6,-13.3 345.2,-43.4 
			370.7,-13.6 338.1,-24.1 331.1,-72.6 425.9,17.2 324.9,-14.5 312.6,-106.4 429.5,-0.7 429.5,-7.5 311.2,-113.3 		"/>
		<polygon class="st0" points="180,273.1 178.2,273.2 123.6,275.9 122.4,276 122.4,277.1 122.6,316.1 125.4,316.1 124.9,278.3 
			176.4,275.1 149.7,316.1 151.2,316.1 179,274.6 		"/>
		<polygon class="st0" points="387.5,-113.6 429.5,-74.8 429.5,-81.4 395,-113.6 		"/>
		<polygon class="st0" points="423.8,-113.6 429.5,-107 429.5,-107.7 424.5,-113.6 		"/>
		<path class="st0" d="M410.6-113.6c6.3,6.4,12.6,12.7,19,19v-3.3c-5.2-5.2-10.3-10.5-15.4-15.7H410.6z"/>
		<polygon class="st0" points="358.4,-113.6 429.5,-43.9 429.5,-53.8 368.7,-113.6 		"/>
		<polygon class="st0" points="330.8,-113.6 429.5,-21.2 429.5,-31.1 341,-113.6 		"/>
		<polygon class="st0" points="409.5,95.6 409.9,96.5 429.5,142 429.5,137.9 411.4,97 429.5,100 429.5,99 410.5,95.8 		"/>
		<polygon class="st0" points="385.1,77.9 386.3,80.7 429.5,177.1 429.5,167.3 390.5,82.1 429.5,88.3 429.5,85.4 388,78.4 		"/>
		<polygon class="st0" points="255.7,276.4 251.9,281.6 226.3,316.1 233.2,316.1 252.4,290 256.4,316.1 261.7,316.1 256.7,282.8 		
			"/>
		<polygon class="st0" points="307.4,316.1 310.9,316.1 307,312.6 		"/>
		<polygon class="st0" points="263.8,225.6 258.7,232.9 201.9,316.1 210.9,316.1 259.8,244.4 273.4,316.1 280.8,316.1 265.4,234.3 
					"/>
		<polygon class="st0" points="216,246.3 211.4,246.6 108.3,253.3 105.8,253.5 105.9,256 107.1,316.1 112.7,316.1 111.2,258.3 
			207.2,251.4 165.4,316.1 170.1,316.1 213.5,250.1 		"/>
		<polygon class="st0" points="256.5,226.7 249.2,227.2 85.3,238.8 81.7,239 81.9,242.7 86.6,316.1 94.1,316.1 89.5,245.8 
			242.4,234.7 185.8,316.1 193.8,316.1 252.3,232.7 		"/>
		<polygon class="st0" points="268.9,228.5 275.9,235.3 358.4,316.1 368.7,316.1 288,236.8 429.5,242.9 429.5,235.4 278.6,228.9 		
			"/>
		<polygon class="st0" points="313.5,247.8 319,252.9 387.5,316.1 395,316.1 328.4,254 429.5,258 429.5,251.9 321,248 		"/>
		<polygon class="st0" points="280.7,259.8 282.2,269.6 289.4,316.1 296.1,316.1 290.4,278.3 330.8,316.1 341,316.1 287.9,266.5 		
			"/>
		<polygon class="st0" points="429.5,117.6 429.5,117.3 426.8,110.8 		"/>
		<path class="st0" d="M361.3,266l3,3.1c10.9,11.1,21.7,22.2,32.6,33.3c4.5,4.6,9.1,9.2,13.6,13.8h3.5c-5.1-5.2-10.2-10.4-15.2-15.6
			c-9.8-10.1-19.6-20.3-29.4-30.4l60,7.5V274l-63.9-7.5L361.3,266z"/>
		<polygon class="st0" points="402.6,291.6 403.5,292.6 423.8,316.1 424.5,316.1 405,293 429.5,297.3 429.5,296.1 403.9,291.8 		"/>
	</g>
</g>
</svg>
